<?xml version="1.0" standalone="no"?>
<!DOCTYPE svg PUBLIC "-//W3C//DTD SVG 1.1//EN" "http://www.w3.org/Graphics/SVG/1.1/DTD/svg11.dtd" >
<svg xmlns="http://www.w3.org/2000/svg" xmlns:xlink="http://www.w3.org/1999/xlink" version="1.1">
<metadata>
Created by FontForge 20170731 at Wed Feb 22 20:06:15 2012
 By Aleksey,,,
Copyright (c) The Font Bureau, Inc, 2003. All rights reserved.
</metadata>
<defs>
<font id="BentonSansCond-Bold" horiz-adv-x="565" >
  <font-face 
    font-family="BentonSansCond Bold"
    font-weight="700"
    font-stretch="condensed"
    units-per-em="1000"
    panose-1="2 0 8 6 5 0 0 2 0 4"
    ascent="787"
    descent="-213"
    x-height="533"
    cap-height="740"
    bbox="-87 -321 1270 1097"
    underline-thickness="20"
    underline-position="-173"
    unicode-range="U+0020-FB04"
  />
<missing-glyph horiz-adv-x="500" 
d="M0 0v700h500v-700h-500zM50 650v-600h400v600h-400z" />
    <glyph glyph-name="f_f" unicode="ff" horiz-adv-x="689" 
d="M91 0v424h-76v109h76v49q0 76 35.5 118t133.5 42q65 0 77 -4v-109q-18 3 -37 3q-30 0 -46.5 -11.5t-16.5 -45.5v-42h96v-109h-96v-424h-146zM433 0v424h-76v109h76v49q0 76 35.5 118t133.5 42q65 0 77 -4v-109q-18 3 -37 3q-30 0 -46.5 -11.5t-16.5 -45.5v-42h96v-109
h-96v-424h-146z" />
    <glyph glyph-name="f_i" unicode="fi" horiz-adv-x="567" 
d="M365 601v128h147v-128h-147zM91 0v424h-76v109h76v49q0 160 161 160q58 0 70 -4v-109q-18 3 -30 3q-55 0 -55 -57v-42h81v-109h-81v-424h-146zM365 0v533h147v-533h-147z" />
    <glyph glyph-name="f_l" unicode="fl" horiz-adv-x="605" 
d="M91 0v424h-76v109h76v49q0 76 35.5 118t133.5 42q65 0 77 -4v-109q-18 3 -37 3q-30 0 -46.5 -11.5t-16.5 -45.5v-42h96v-109h-96v-424h-146zM402 0v740h148v-740h-148z" />
    <glyph glyph-name="f_f_i" unicode="ffi" horiz-adv-x="947" 
d="M91 0v424h-76v109h76v49q0 76 35.5 118t133.5 42q65 0 77 -4v-109q-18 3 -37 3q-30 0 -46.5 -11.5t-16.5 -45.5v-42h96v-109h-96v-424h-146zM433 0v424h-76v109h76v49q0 76 35.5 118t133.5 42q65 0 77 -4v-109q-18 3 -37 3q-30 0 -46.5 -11.5t-16.5 -45.5v-42h96v-109
h-96v-424h-146zM744 601v128h148v-128h-148zM744 0v533h148v-533h-148z" />
    <glyph glyph-name="f_f_l" unicode="ffl" horiz-adv-x="947" 
d="M91 0v424h-76v109h76v49q0 76 35.5 118t133.5 42q65 0 77 -4v-109q-18 3 -37 3q-30 0 -46.5 -11.5t-16.5 -45.5v-42h96v-109h-96v-424h-146zM433 0v424h-76v109h76v49q0 76 35.5 118t133.5 42q65 0 77 -4v-109q-18 3 -37 3q-30 0 -46.5 -11.5t-16.5 -45.5v-42h96v-109
h-96v-424h-146zM744 0v740h148v-740h-148z" />
    <glyph glyph-name="f_j" unicode="fj" horiz-adv-x="605" 
d="M91 0v424h-76v109h76v49q0 76 35.5 118t133.5 42q65 0 77 -4v-109q-18 3 -37 3q-30 0 -46.5 -11.5t-16.5 -45.5v-42h96v-109h-96v-424h-146zM402 601v128h148v-128h-148zM391 -202q-61 0 -76 5v105q18 -3 36 -3q51 0 51 61v567h148v-583q0 -74 -33.5 -113t-125.5 -39z
" />
    <glyph glyph-name=".notdef" horiz-adv-x="500" 
d="M0 0v700h500v-700h-500zM50 650v-600h400v600h-400z" />
    <glyph glyph-name=".null" horiz-adv-x="0" 
 />
    <glyph glyph-name="nonmarkingreturn" horiz-adv-x="333" 
 />
    <glyph glyph-name="space" unicode=" " horiz-adv-x="224" 
 />
    <glyph glyph-name="exclam" unicode="!" horiz-adv-x="313" 
d="M99 220l-30 520h180l-31 -520h-119zM78 0v142h161v-142h-161z" />
    <glyph glyph-name="quotedbl" unicode="&#x22;" horiz-adv-x="408" 
d="M244 474l-14 204v62h127v-62l-14 -204h-99zM65 474l-15 204v62h128v-62l-14 -204h-99z" />
    <glyph glyph-name="numbersign" unicode="#" horiz-adv-x="653" 
d="M77 0l33 194h-91v113h112l23 126h-99v113h119l35 194h132l-34 -194h91l35 194h132l-34 -194h102v-113h-123l-22 -126h108v-113h-129l-33 -194h-133l33 194h-90l-34 -194h-133zM263 305h93l23 130h-93z" />
    <glyph glyph-name="dollar" unicode="$" horiz-adv-x="578" 
d="M237 739v80h104v-80q132 -23 185 -176l-123 -49q-42 107 -124 107q-40 0 -61.5 -19.5t-21.5 -51.5q0 -30 19 -52.5t49.5 -37t67 -27.5t73 -30.5t67 -40.5t49.5 -62.5t19 -91.5q0 -83 -51 -139t-148 -68v-94h-104v95q-156 24 -208 198l128 37q43 -122 138 -122
q45 0 72.5 20.5t27.5 59.5q0 42 -35.5 69.5t-86 45.5t-100.5 40.5t-85.5 70t-35.5 118.5q0 81 49.5 134t135.5 66z" />
    <glyph glyph-name="percent" unicode="%" horiz-adv-x="922" 
d="M197 267q-82 0 -127 61.5t-45 180.5q0 118 45 179t127 61q83 0 127 -61t44 -179q0 -120 -44 -181t-127 -61zM212 0l375 740h122l-375 -740h-122zM726 -9q-82 0 -127 61.5t-45 180.5q0 118 45 179.5t127 61.5q83 0 127 -61t44 -180q0 -120 -44 -181t-127 -61zM197 372
q29 0 39.5 31t10.5 106q0 73 -11 103.5t-39 30.5q-29 0 -40 -30.5t-11 -103.5q0 -74 11.5 -105.5t39.5 -31.5zM726 96q29 0 39.5 31t10.5 106q0 73 -11 103.5t-39 30.5q-29 0 -40 -30.5t-11 -103.5q0 -74 11.5 -105.5t39.5 -31.5z" />
    <glyph glyph-name="ampersand" unicode="&#x26;" horiz-adv-x="647" 
d="M257 -14q-118 0 -181.5 50.5t-63.5 140.5q0 78 38.5 128.5t107.5 92.5q-42 91 -42 173t50.5 132.5t137.5 50.5t129.5 -44t42.5 -110q0 -75 -40 -124t-113 -96q12 -19 38 -57q39 -55 75 -94q28 67 34 152h127q-18 -137 -64 -227q54 -34 108 -37v-127q-112 3 -196 56
q-76 -60 -188 -60zM278 468q74 55 74 124q0 57 -46 57q-25 0 -40 -18t-15 -51q0 -50 27 -112zM263 94q50 0 87 28q-44 47 -94 117q-25 34 -44 63q-54 -47 -54 -108q0 -49 27.5 -74.5t77.5 -25.5z" />
    <glyph glyph-name="quotesingle" unicode="'" horiz-adv-x="230" 
d="M65 474l-15 204v62h129v-62l-15 -204h-99z" />
    <glyph glyph-name="parenleft" unicode="(" horiz-adv-x="360" 
d="M250 -206q-216 211 -216 486q0 273 216 484l86 -65q-148 -197 -148 -419q0 -118 40.5 -228.5t110.5 -193.5z" />
    <glyph glyph-name="parenright" unicode=")" horiz-adv-x="360" 
d="M110 -206l-89 64q151 197 151 421q0 117 -40.5 227t-108.5 193l86 65q216 -210 216 -485q0 -270 -215 -485z" />
    <glyph glyph-name="asterisk" unicode="*" horiz-adv-x="482" 
d="M177 329l-83 49l91 127l-156 -15v94l159 -16l-95 129l84 49l64 -144l64 144l84 -49l-93 -128l157 15v-94l-156 15l92 -127l-83 -49l-65 143z" />
    <glyph glyph-name="plus" unicode="+" 
d="M220 84v196h-166v122h166v196h125v-196h166v-122h-166v-196h-125z" />
    <glyph glyph-name="comma" unicode="," horiz-adv-x="245" 
d="M64 -112l42 112h-60v152h152v-135l-65 -129h-69z" />
    <glyph glyph-name="hyphen" unicode="-" horiz-adv-x="316" 
d="M37 257v108h242v-108h-242z" />
    <glyph glyph-name="hyphen" unicode="&#xad;" horiz-adv-x="316" 
d="M37 257v108h242v-108h-242z" />
    <glyph glyph-name="period" unicode="." horiz-adv-x="245" 
d="M46 0v152h152v-152h-152z" />
    <glyph glyph-name="slash" unicode="/" horiz-adv-x="541" 
d="M12 0l365 740h152l-366 -740h-151z" />
    <glyph glyph-name="zero" unicode="0" horiz-adv-x="594" 
d="M297 -14q-128 0 -196.5 97.5t-68.5 286.5t68.5 286.5t196.5 97.5t196 -97.5t68 -286.5t-68 -286.5t-196 -97.5zM297 109q59 0 86 61t27 200q0 137 -27.5 197t-85.5 60q-59 0 -86.5 -59.5t-27.5 -197.5q0 -137 28 -199t86 -62z" />
    <glyph glyph-name="one" unicode="1" horiz-adv-x="405" 
d="M26 0v122h115v478q-54 -34 -113 -34v126q76 3 117 48h142v-618h101v-122h-362z" />
    <glyph glyph-name="two" unicode="2" horiz-adv-x="530" 
d="M22 0v16q0 70 18 128t46.5 96t63 70t69 58t63 51.5t46.5 58.5t18 71q0 76 -74 76q-77 0 -123 -108l-120 54q81 183 253 183q101 0 157 -54.5t56 -143.5q0 -55 -22 -103t-55 -80.5t-72 -65t-72.5 -58t-56 -59t-23.5 -68.5h299v-122h-471z" />
    <glyph glyph-name="three" unicode="3" horiz-adv-x="540" 
d="M259 -13q-187 0 -257 167l119 53q42 -101 131 -101q50 0 79 29.5t29 74.5q0 64 -39 93t-118 29h-34v113h43q73 0 102 26.5t29 79.5q0 36 -20 58t-63 22q-75 0 -128 -78l-101 68q91 133 242 133q100 0 158.5 -51t58.5 -135q0 -64 -33.5 -110t-91.5 -63q142 -41 142 -188
q0 -102 -68.5 -161t-179.5 -59z" />
    <glyph glyph-name="four" unicode="4" horiz-adv-x="579" 
d="M319 0v155h-302v105l284 480h163v-470h101v-115h-101v-155h-145zM161 270h160v275h-1z" />
    <glyph glyph-name="five" unicode="5" horiz-adv-x="532" 
d="M263 -14q-177 0 -253 163l118 55q45 -99 129 -99q108 0 108 139q0 67 -27 101.5t-77 34.5q-65 0 -107 -66l-107 23l25 403h396l-7 -129h-269l-13 -175q43 60 134 60q97 0 148 -64t51 -183q0 -124 -66.5 -193.5t-182.5 -69.5z" />
    <glyph glyph-name="six" unicode="6" horiz-adv-x="555" 
d="M291 -14q-123 0 -191 94.5t-68 276.5q0 196 73.5 296.5t198.5 100.5q141 0 210 -130l-119 -61q-41 71 -94 71q-114 0 -124 -219q70 62 156 62q94 0 148 -63t54 -176t-66 -182.5t-178 -69.5zM299 101q46 0 70 35t24 95q0 125 -94 125q-67 0 -122 -52q6 -106 36 -154.5
t86 -48.5z" />
    <glyph glyph-name="seven" unicode="7" horiz-adv-x="470" 
d="M66 0l239 611h-294v129h449v-120l-240 -620h-154z" />
    <glyph glyph-name="eight" unicode="8" horiz-adv-x="552" 
d="M276 -14q-124 0 -190.5 54.5t-66.5 144.5q0 123 143 201q-58 38 -86.5 77t-28.5 106q0 78 60.5 131.5t168.5 53.5q111 0 170 -53.5t59 -131.5q0 -56 -30.5 -103.5t-83.5 -78.5q71 -39 106.5 -82t35.5 -120q0 -91 -68 -145t-189 -54zM284 446q77 48 77 110q0 35 -20 58.5
t-63 23.5q-42 0 -63.5 -22.5t-21.5 -56.5q0 -38 22.5 -63.5t68.5 -49.5zM276 97q50 0 78 27t28 69q0 41 -27.5 70.5t-87.5 59.5q-98 -58 -98 -130q0 -42 28 -69t79 -27z" />
    <glyph glyph-name="nine" unicode="9" horiz-adv-x="555" 
d="M251 -14q-143 0 -212 131l119 62q42 -76 96 -76q114 0 123 222q-70 -62 -155 -62q-94 0 -148 63t-54 176q0 112 67 182t177 70q126 0 192.5 -93.5t66.5 -277.5q0 -196 -73.5 -296.5t-198.5 -100.5zM256 384q68 0 121 52q-6 105 -36 152t-85 47q-47 0 -70.5 -33.5
t-23.5 -92.5q0 -125 94 -125z" />
    <glyph glyph-name="colon" unicode=":" horiz-adv-x="254" 
d="M51 381v152h152v-152h-152zM51 0v152h152v-152h-152z" />
    <glyph glyph-name="semicolon" unicode=";" horiz-adv-x="254" 
d="M51 381v152h152v-152h-152zM67 -112l42 112h-58v152h152v-133l-67 -131h-69z" />
    <glyph glyph-name="less" unicode="&#x3c;" horiz-adv-x="577" 
d="M512 58l-450 219v94l450 219v-127l-303 -139l303 -139v-127z" />
    <glyph glyph-name="equal" unicode="=" 
d="M59 380v111h446v-111h-446zM59 162v111h446v-111h-446z" />
    <glyph glyph-name="greater" unicode="&#x3e;" horiz-adv-x="577" 
d="M65 58v127l303 139l-303 139v127l451 -219v-94z" />
    <glyph glyph-name="question" unicode="?" horiz-adv-x="501" 
d="M174 219q-2 22 -2 60q0 40 16 75.5t32 54t47 48.5q32 31 47 55t15 55t-18 48t-50 17q-66 0 -108 -98l-121 45q30 82 91 128.5t149 46.5q95 0 146.5 -49t51.5 -124q0 -44 -16 -80.5t-30.5 -52.5t-46.5 -47q-50 -50 -64 -81.5t-14 -100.5h-125zM156 0v142h161v-142h-161z
" />
    <glyph glyph-name="at" unicode="@" horiz-adv-x="754" 
d="M372 -14q-159 0 -249 100t-90 283q0 175 95.5 280t249.5 105t248.5 -102.5t94.5 -271.5q0 -108 -45 -166.5t-129 -58.5q-94 0 -124 79q-53 -73 -128 -73q-57 0 -87.5 45.5t-28.5 124.5q1 119 46 188.5t117 69.5q66 0 96 -52l6 43h111l-38 -292q-4 -38 7 -54t40 -16
q41 0 65 39t24 121q0 147 -75 230t-201 83t-200 -84t-74 -237q0 -163 72 -243.5t200 -80.5q105 0 175 45l30 -49q-37 -26 -94 -41t-114 -15zM343 254q31 0 62 31l22 180q-23 28 -56 28q-36 0 -55.5 -40t-21.5 -109q-3 -90 49 -90z" />
    <glyph glyph-name="A" unicode="A" horiz-adv-x="602" 
d="M194 156l-41 -156h-142l217 743h146l217 -743h-153l-40 156h-204zM367 274l-19 75q-43 168 -50 202h-2q-7 -37 -51 -201l-20 -76h142z" />
    <glyph glyph-name="B" unicode="B" horiz-adv-x="603" 
d="M61 0v740h253q233 0 233 -185q0 -137 -121 -170v-2q66 -13 102 -54.5t36 -126.5q0 -104 -68.5 -153t-172.5 -49h-262zM209 432h95q101 0 101 92q0 48 -24 70t-76 22h-96v-184zM209 119h104q106 0 106 103t-113 103h-97v-206z" />
    <glyph glyph-name="C" unicode="C" horiz-adv-x="605" 
d="M316 -13q-133 0 -208.5 95t-75.5 289q0 191 78 287t210 96q115 0 175 -66t77 -189l-143 -25q-13 79 -38.5 114.5t-75.5 35.5q-130 0 -130 -253q0 -259 132 -259q51 0 78.5 37t41.5 123l143 -23q-47 -262 -264 -262z" />
    <glyph glyph-name="D" unicode="D" horiz-adv-x="626" 
d="M61 0v740h194q78 0 137.5 -18t106 -58.5t71 -114t24.5 -177.5q0 -105 -25 -179t-72 -115.5t-106 -59.5t-136 -18h-194zM213 127h56q96 0 134.5 55t38.5 190q0 131 -39 185.5t-135 54.5h-55v-485z" />
    <glyph glyph-name="E" unicode="E" horiz-adv-x="526" 
d="M61 0v740h424v-128h-272v-167h196v-121h-196v-199h286v-125h-438z" />
    <glyph glyph-name="F" unicode="F" horiz-adv-x="494" 
d="M61 0v740h416v-128h-264v-183h189v-121h-189v-308h-152z" />
    <glyph glyph-name="G" unicode="G" horiz-adv-x="636" 
d="M301 -12q-130 0 -199.5 101t-69.5 283q0 183 75 282.5t213 99.5q106 0 166.5 -61t83.5 -194l-138 -27q-15 83 -42.5 117.5t-74.5 34.5q-130 0 -130 -250q0 -142 36 -202t102 -60q106 0 121 142h-107v114h244v-368h-112v95h-1q-15 -42 -59.5 -74.5t-107.5 -32.5z" />
    <glyph glyph-name="H" unicode="H" horiz-adv-x="647" 
d="M61 0v740h152v-290h221v290h152v-740h-152v324h-221v-324h-152z" />
    <glyph glyph-name="I" unicode="I" horiz-adv-x="285" 
d="M67 0v740h152v-740h-152z" />
    <glyph glyph-name="J" unicode="J" horiz-adv-x="457" 
d="M204 -11q-109 0 -195 56l61 111q59 -37 115 -37q68 0 68 82v539h152v-554q0 -93 -50.5 -145t-150.5 -52z" />
    <glyph glyph-name="K" unicode="K" horiz-adv-x="606" 
d="M61 0v740h151v-322q29 53 64 106l137 216h162l-198 -291l222 -449h-164l-156 319l-67 -92v-227h-151z" />
    <glyph glyph-name="L" unicode="L" horiz-adv-x="512" 
d="M61 0v740h152v-615h278v-125h-430z" />
    <glyph glyph-name="M" unicode="M" horiz-adv-x="767" 
d="M61 0v740h194l130 -529h1l122 529h197v-740h-144v520h-2q-6 -63 -38 -182l-88 -338h-113l-86 338q-31 119 -38 186h-2v-524h-133z" />
    <glyph glyph-name="N" unicode="N" horiz-adv-x="652" 
d="M61 0v740h157l170 -332q35 -68 60 -127h2v459h138v-740h-141l-192 359q-32 61 -54 110h-2v-469h-138z" />
    <glyph glyph-name="O" unicode="O" horiz-adv-x="652" 
d="M326 -14q-128 0 -211 97.5t-83 286.5t83 286.5t211 97.5q127 0 210 -97.5t83 -286.5t-83 -286.5t-210 -97.5zM326 112q68 0 104 67t36 191q0 123 -36 188.5t-104 65.5q-69 0 -105 -65.5t-36 -188.5q0 -124 36 -191t105 -67z" />
    <glyph glyph-name="P" unicode="P" horiz-adv-x="573" 
d="M61 0v740h224q115 0 186.5 -55t71.5 -183q0 -70 -22 -120t-60.5 -76t-82 -37t-95.5 -11h-72v-258h-150zM211 378h76q59 0 85 29t26 91q0 60 -26 87.5t-86 27.5h-75v-235z" />
    <glyph glyph-name="Q" unicode="Q" horiz-adv-x="652" 
d="M462 -198q-213 0 -215 198q-98 24 -157 117.5t-59 252.5q0 189 83 286.5t211 97.5t210.5 -97.5t82.5 -286.5q0 -165 -62.5 -259t-164.5 -114q9 -46 35 -59t92 -13h40v-123h-96zM325 112q68 0 104 67t36 191t-35.5 189t-104.5 65t-105 -65.5t-36 -188.5q0 -124 36 -191
t105 -67z" />
    <glyph glyph-name="R" unicode="R" horiz-adv-x="593" 
d="M61 0v740h231q251 0 251 -232q0 -73 -33 -123.5t-89 -73.5l141 -311h-157l-125 274h-70v-274h-149zM210 390h77q57 0 84 26.5t27 88.5q0 59 -27 83.5t-84 24.5h-77v-223z" />
    <glyph glyph-name="S" unicode="S" horiz-adv-x="588" 
d="M305 -13q-193 0 -278 176l123 62q58 -117 155 -117q47 0 72.5 23t25.5 61q0 22 -9.5 39.5t-31 32t-39.5 24t-51 23.5q-42 18 -61 26.5t-55 31t-53.5 44t-32 57t-14.5 78.5q0 91 66.5 148.5t168.5 57.5q170 0 249 -165l-118 -64q-52 104 -134 104q-39 0 -61 -21t-22 -53
q0 -40 30 -64.5t92 -52.5q101 -44 137 -70q88 -64 88 -170q0 -89 -65.5 -150t-181.5 -61z" />
    <glyph glyph-name="T" unicode="T" horiz-adv-x="537" 
d="M192 0v612h-176v128h505v-128h-177v-612h-152z" />
    <glyph glyph-name="U" unicode="U" horiz-adv-x="611" 
d="M307 -12q-255 0 -255 268v484h152v-475q0 -78 24.5 -113.5t80.5 -35.5t80.5 35.5t24.5 112.5v476h145v-483q0 -269 -252 -269z" />
    <glyph glyph-name="V" unicode="V" horiz-adv-x="587" 
d="M220 -3l-209 743h153l87 -350q29 -114 45 -197h2q7 36 46 195l90 352h142l-209 -743h-147z" />
    <glyph glyph-name="W" unicode="W" horiz-adv-x="808" 
d="M180 -3l-165 743h146l57 -297q20 -103 34 -197h2q6 45 33 196l55 298h136l56 -303q22 -113 33 -192h2q14 99 32 190l58 305h135l-165 -743h-132l-92 487h-2l-92 -487h-131z" />
    <glyph glyph-name="X" unicode="X" horiz-adv-x="602" 
d="M17 0l202 391l-180 349h165l105 -225l101 225h147l-177 -344l203 -396h-162l-129 271l-125 -271h-150z" />
    <glyph glyph-name="Y" unicode="Y" horiz-adv-x="575" 
d="M211 0v290l-208 450h155l132 -312h2l132 312h148l-209 -449v-291h-152z" />
    <glyph glyph-name="Z" unicode="Z" horiz-adv-x="551" 
d="M22 0v110l319 502h-297v128h476v-113l-314 -502h314v-125h-498z" />
    <glyph glyph-name="bracketleft" unicode="[" horiz-adv-x="377" 
d="M56 -200v940h300v-107h-150v-727h150v-106h-300z" />
    <glyph glyph-name="backslash" unicode="\" horiz-adv-x="526" 
d="M369 0l-365 740h152l365 -740h-152z" />
    <glyph glyph-name="bracketright" unicode="]" horiz-adv-x="377" 
d="M21 -200v106h149v727h-149v107h300v-940h-300z" />
    <glyph glyph-name="asciicircum" unicode="^" horiz-adv-x="480" 
d="M81 587l110 166h98l110 -166h-85l-75 70l-73 -70h-85z" />
    <glyph glyph-name="underscore" unicode="_" horiz-adv-x="437" 
d="M-8 -152v106h453v-106h-453z" />
    <glyph glyph-name="grave" unicode="`" horiz-adv-x="481" 
d="M212 587l-124 166h146l80 -166h-102z" />
    <glyph glyph-name="a" unicode="a" horiz-adv-x="497" 
d="M151 -6q-59 0 -94.5 34t-35.5 105q0 160 287 212v22q0 31 -12.5 46t-41.5 15q-68 0 -147 -58l-67 88q99 86 242 86q88 0 128.5 -43t40.5 -134v-237q0 -95 13 -130h-146q-10 33 -10 72q-61 -78 -157 -78zM214 107q50 0 94 42v118q-77 -17 -110.5 -43t-33.5 -64
q0 -26 13.5 -39.5t36.5 -13.5z" />
    <glyph glyph-name="b" unicode="b" horiz-adv-x="534" 
d="M334 -8q-85 0 -136 69v-61h-148v739h148v-277q56 82 138 82q80 0 126.5 -69.5t46.5 -207.5t-47 -206.5t-128 -68.5zM281 107q79 0 79 159q0 79 -19 116t-61 37q-38 0 -82 -48v-219q43 -45 83 -45z" />
    <glyph glyph-name="c" unicode="c" horiz-adv-x="481" 
d="M253 -11q-97 0 -162.5 69t-65.5 208q0 141 68 209.5t165 68.5q91 0 137.5 -46t66.5 -129l-131 -31q-11 48 -28 69.5t-47 21.5q-83 0 -83 -163q0 -167 82 -167q62 0 82 97l127 -31q-44 -176 -211 -176z" />
    <glyph glyph-name="d" unicode="d" horiz-adv-x="534" 
d="M199 -8q-81 0 -127 67t-46 205q0 139 46.5 209.5t127.5 70.5q85 0 137 -72v268h147v-610q0 -92 14 -130h-151q-10 25 -10 68q-55 -76 -138 -76zM255 107q37 0 82 47v220q-42 46 -83 46t-60.5 -37t-19.5 -118q0 -158 81 -158z" />
    <glyph glyph-name="e" unicode="e" horiz-adv-x="494" 
d="M259 -11q-103 0 -168.5 68.5t-65.5 208.5q0 73 20.5 128.5t54 87t73 47t82.5 15.5q96 0 155 -70.5t59 -216.5v-27h-299q7 -131 96 -131q36 0 66.5 20t48.5 49l86 -69q-76 -110 -208 -110zM171 314h164q-7 117 -80 117t-84 -117z" />
    <glyph glyph-name="f" unicode="f" horiz-adv-x="347" 
d="M91 0v424h-76v109h76v49q0 76 35.5 118t133.5 42q65 0 77 -4v-109q-18 3 -37 3q-30 0 -46.5 -11.5t-16.5 -45.5v-42h96v-109h-96v-424h-146z" />
    <glyph glyph-name="g" unicode="g" horiz-adv-x="526" 
d="M394 491q23 21 55.5 36t61.5 18v-122q-42 0 -74 -7q12 -34 12 -65q0 -89 -55.5 -140.5t-151.5 -51.5q-36 0 -68 8q-15 -12 -15 -25t10 -18t39 -8l69 -5q120 -8 169 -42.5t49 -106.5q0 -76 -74.5 -119t-194.5 -43q-121 0 -172.5 30t-51.5 88q0 66 80 107q-42 25 -42 69
q0 27 19 54.5t49 46.5q-77 54 -77 156q0 88 56.5 140.5t154.5 52.5q97 0 152 -53zM243 250q35 0 53.5 26t18.5 71q0 96 -72 96q-35 0 -53.5 -25.5t-18.5 -70.5t18.5 -71t53.5 -26zM162 1q-29 -25 -29 -57q0 -35 27 -50t90 -15q51 0 82.5 16t31.5 44q0 26 -20.5 37.5
t-89.5 16.5l-79 7q-9 0 -13 1z" />
    <glyph glyph-name="h" unicode="h" horiz-adv-x="532" 
d="M50 0v740h148v-281q23 33 65 59t94 26q129 0 129 -140v-404h-147v357q0 62 -48 62q-41 0 -93 -48v-371h-148z" />
    <glyph glyph-name="i" unicode="i" horiz-adv-x="258" 
d="M55 601v128h148v-128h-148zM55 0v533h148v-533h-148z" />
    <glyph glyph-name="j" unicode="j" horiz-adv-x="258" 
d="M55 601v128h148v-128h-148zM44 -202q-61 0 -76 5v105q18 -3 36 -3q51 0 51 61v567h148v-583q0 -74 -33.5 -113t-125.5 -39z" />
    <glyph glyph-name="k" unicode="k" horiz-adv-x="499" 
d="M50 0v740h145v-422q10 20 50 84l84 131h149l-140 -198l151 -335h-150l-94 216l-50 -70v-146h-145z" />
    <glyph glyph-name="l" unicode="l" horiz-adv-x="258" 
d="M55 0v740h148v-740h-148z" />
    <glyph glyph-name="m" unicode="m" horiz-adv-x="802" 
d="M50 0v533h148v-74q24 34 64.5 59.5t87.5 25.5q102 0 122 -85q25 34 66 59.5t88 25.5q130 0 130 -145v-399h-147v357q0 33 -9.5 47.5t-36.5 14.5q-36 0 -86 -48v-371h-148v357q0 32 -9.5 47t-34.5 15q-37 0 -87 -48v-371h-148z" />
    <glyph glyph-name="n" unicode="n" horiz-adv-x="532" 
d="M50 0v533h148v-74q23 33 65 59t94 26q129 0 129 -140v-404h-147v357q0 62 -48 62q-41 0 -93 -48v-371h-148z" />
    <glyph glyph-name="o" unicode="o" horiz-adv-x="520" 
d="M260 -11q-100 0 -167.5 69t-67.5 208q0 141 67 209.5t168 68.5q100 0 167.5 -69t67.5 -209q0 -139 -67.5 -208t-167.5 -69zM260 102q87 0 87 164q0 161 -87 161t-87 -161q0 -164 87 -164z" />
    <glyph glyph-name="p" unicode="p" horiz-adv-x="534" 
d="M50 -200v733h148v-71q55 82 138 82q80 0 126 -69.5t46 -207.5t-46.5 -206.5t-127.5 -68.5q-86 0 -136 69v-261h-148zM281 107q79 0 79 159q0 79 -19 116t-61 37q-38 0 -82 -48v-219q43 -45 83 -45z" />
    <glyph glyph-name="q" unicode="q" horiz-adv-x="534" 
d="M336 -200v266q-56 -74 -137 -74t-127 67t-46 205q0 139 46.5 209.5t127.5 70.5q83 0 136 -71v60h148v-733h-148zM255 107q36 0 81 47v220q-41 46 -82 46t-60.5 -37t-19.5 -118q0 -158 81 -158z" />
    <glyph glyph-name="r" unicode="r" horiz-adv-x="369" 
d="M50 0v533h148v-86h2q51 97 148 97l9 -1l-2 -135q-12 3 -31 3q-78 0 -126 -61v-350h-148z" />
    <glyph glyph-name="s" unicode="s" horiz-adv-x="464" 
d="M233 -12q-143 0 -224 92l77 83q32 -33 72.5 -52.5t76.5 -19.5q70 0 70 49q0 23 -20 38.5t-50 23.5t-64.5 21t-64.5 28.5t-50 49.5t-20 81q0 77 56.5 119.5t140.5 42.5q54 0 107 -22.5t88 -62.5l-77 -82q-63 60 -119 60q-58 0 -58 -46q0 -26 27.5 -42.5t67 -27.5t79 -26.5
t67 -51.5t27.5 -92q0 -77 -60.5 -120t-148.5 -43z" />
    <glyph glyph-name="t" unicode="t" horiz-adv-x="367" 
d="M249 -6q-94 0 -128 32t-34 107v291h-76v109h76v183h147v-183h114v-109h-114v-254q0 -41 13 -55t50 -14q30 0 44 6v-106q-23 -7 -92 -7z" />
    <glyph glyph-name="u" unicode="u" horiz-adv-x="532" 
d="M175 -11q-129 0 -129 140v404h147v-361q0 -61 49 -61q44 0 92 48v374h148v-533h-148v73q-25 -34 -66 -59t-93 -25z" />
    <glyph glyph-name="v" unicode="v" horiz-adv-x="469" 
d="M155 -1l-155 534h149l59 -238q21 -92 31 -145h2q12 69 31 144l60 239h137l-155 -534h-159z" />
    <glyph glyph-name="w" unicode="w" horiz-adv-x="667" 
d="M126 -1l-125 534h143l39 -180q16 -80 27 -154h2q11 77 29 155l39 179h124l39 -176q19 -83 30 -159h2q12 85 28 157l37 178h126l-124 -534h-133l-74 327h-2l-74 -327h-133z" />
    <glyph glyph-name="x" unicode="x" horiz-adv-x="469" 
d="M6 0l156 274l-143 259h152l76 -150l69 150h140l-144 -253l155 -280h-152l-85 168l-83 -168h-141z" />
    <glyph glyph-name="y" unicode="y" horiz-adv-x="481" 
d="M117 -202q-76 0 -125 15l28 116q47 -10 78 -10q26 0 39.5 11t21.5 38l9 26l-169 539h154l53 -207q25 -102 37 -165h2q13 68 39 168l53 204h142l-185 -585q-25 -78 -64.5 -114t-112.5 -36z" />
    <glyph glyph-name="z" unicode="z" horiz-adv-x="451" 
d="M22 0v82l220 342h-202v109h377v-86l-220 -341h235v-106h-410z" />
    <glyph glyph-name="braceleft" unicode="{" horiz-adv-x="383" 
d="M252 -200q-68 0 -103 38t-35 105v163q0 67 -20.5 88.5t-73.5 21.5v108q54 0 74 21.5t20 88.5v163q0 67 35.5 105t107.5 38h111v-107h-37q-35 0 -50.5 -18t-15.5 -56v-139q0 -70 -19 -102.5t-61 -46.5v-2q42 -14 61 -46.5t19 -102.5v-143q0 -36 15.5 -53.5t50.5 -17.5h37
v-106h-116z" />
    <glyph glyph-name="bar" unicode="|" horiz-adv-x="346" 
d="M99 -200v940h148v-940h-148z" />
    <glyph glyph-name="braceright" unicode="}" horiz-adv-x="383" 
d="M14 -200v106h37q35 0 51 17t16 54v150q0 69 18.5 98t61.5 44v2q-43 15 -61.5 44t-18.5 98v146q0 38 -15.5 56t-51.5 18h-37v107h120q71 0 103 -34t32 -102v-170q0 -67 19.5 -88.5t74.5 -21.5v-108q-54 0 -74 -21.5t-20 -88.5v-170q0 -136 -131 -136h-124z" />
    <glyph glyph-name="asciitilde" unicode="~" horiz-adv-x="481" 
d="M309 372q-36 0 -75.5 28t-54.5 28q-36 0 -36 -54h-77q0 159 106 159q37 0 76.5 -28t54.5 -28q35 0 35 54h77q0 -159 -106 -159z" />
    <glyph glyph-name="uni00A0" unicode="&#xa0;" horiz-adv-x="112" 
 />
    <glyph glyph-name="exclamdown" unicode="&#xa1;" horiz-adv-x="313" 
d="M73 598v142h161v-142h-161zM64 0l30 520h119l30 -520h-179z" />
    <glyph glyph-name="cent" unicode="&#xa2;" horiz-adv-x="481" 
d="M251 544l14 77h104l-18 -95q82 -36 111 -157l-131 -31q-11 49 -28 71t-47 22q-85 0 -85 -165q0 -169 84 -169q62 0 82 99l127 -31q-44 -176 -211 -176h-5l-17 -91h-103l21 115q-124 63 -124 253q0 139 65.5 207t160.5 71z" />
    <glyph glyph-name="sterling" unicode="&#xa3;" horiz-adv-x="608" 
d="M198 334h-124v88h80q-38 80 -38 136q0 87 55 141.5t147 54.5q102 0 151 -52t61 -148l-133 -21q-7 51 -23.5 77t-52.5 26q-29 0 -46 -19.5t-17 -55.5q0 -47 44 -139h152v-88h-115q20 -57 20 -115q0 -55 -21 -101q32 -21 62 -21q32 0 46.5 25t15.5 91h130
q-2 -110 -40 -168.5t-132 -58.5q-73 0 -138 54q-59 -54 -140 -54q-57 0 -97 29.5t-40 86.5q0 60 38.5 94.5t96.5 34.5q43 0 91 -30v8q0 50 -33 125zM209 110q-39 37 -66 37q-17 0 -28 -10.5t-11 -29.5q0 -18 11 -28.5t29 -10.5q42 0 65 42z" />
    <glyph glyph-name="yen" unicode="&#xa5;" horiz-adv-x="575" 
d="M359 232v-66h157v-87h-157v-79h-144v79h-156v87h156v66h-156v87h142l-198 421h155l132 -314h2l132 314h148l-200 -421h144v-87h-157z" />
    <glyph glyph-name="brokenbar" unicode="&#xa6;" horiz-adv-x="346" 
d="M99 331v409h148v-409h-148zM99 -200v409h148v-409h-148z" />
    <glyph glyph-name="section" unicode="&#xa7;" horiz-adv-x="522" 
d="M256 -204q-97 0 -142.5 43.5t-67.5 126.5l121 34q24 -96 86 -96q60 0 60 62q0 21 -16 42t-34 34t-57 39q-44 27 -62.5 40.5t-49 41.5t-43 59t-12.5 69q0 47 24.5 88t62.5 68q-55 57 -55 129q0 76 51.5 127.5t142.5 51.5q99 0 145 -43.5t67 -127.5l-120 -33q-25 95 -89 95
q-61 0 -61 -61q0 -31 26 -55.5t83 -59.5q35 -22 49.5 -32t42.5 -32.5t40 -41t23 -46.5t11 -59q0 -92 -87 -156q54 -57 54 -129q0 -76 -51.5 -127t-141.5 -51zM313 168q40 30 40 67q0 35 -24 61t-88 66l-32 20q-41 -30 -41 -66q0 -35 24 -60.5t88 -66.5q4 -2 11 -6.5t12.5 -8
t9.5 -6.5z" />
    <glyph glyph-name="dieresis" unicode="&#xa8;" horiz-adv-x="481" 
d="M274 584v138h124v-138h-124zM83 584v138h126v-138h-126z" />
    <glyph glyph-name="copyright" unicode="&#xa9;" horiz-adv-x="723" 
d="M360 -14q-141 0 -232.5 109.5t-91.5 272.5q0 164 93 275t233 111q141 0 233 -109.5t92 -272.5q0 -164 -93.5 -275t-233.5 -111zM362 51q112 0 182.5 89.5t70.5 227.5t-71.5 229.5t-183.5 91.5t-182 -89.5t-70 -227.5t71.5 -229.5t182.5 -91.5zM361 155q-72 0 -112.5 56.5
t-40.5 161.5t41 161.5t114 56.5q116 0 140 -140l-84 -16q-8 35 -20 52.5t-37 17.5q-30 0 -46 -35.5t-16 -96.5q0 -131 63 -131q45 0 58 76l85 -17q-15 -70 -48.5 -108t-96.5 -38z" />
    <glyph glyph-name="ordfeminine" unicode="&#xaa;" horiz-adv-x="389" 
d="M127 363q-41 0 -66.5 24t-25.5 74q0 116 201 152v15q0 41 -37 41q-50 0 -102 -40l-49 62q69 61 171 61q62 0 90.5 -30t28.5 -94v-167q0 -67 10 -92h-105q-7 26 -7 50q-43 -56 -109 -56zM171 445q33 0 65 30v81q-98 -22 -98 -75q0 -36 33 -36z" />
    <glyph glyph-name="guillemotleft" unicode="&#xab;" horiz-adv-x="540" 
d="M379 0l-135 265l135 265h138l-129 -265l129 -265h-138zM154 0l-135 265l135 265h138l-129 -265l129 -265h-138z" />
    <glyph glyph-name="logicalnot" unicode="&#xac;" 
d="M511 402v-318h-124v197h-333v121h457z" />
    <glyph glyph-name="registered" unicode="&#xae;" horiz-adv-x="723" 
d="M360 -14q-141 0 -232.5 109.5t-91.5 272.5q0 164 93 275t233 111q141 0 233 -109.5t92 -272.5q0 -164 -93.5 -275t-233.5 -111zM362 48q112 0 183 91t71 229q0 139 -72.5 231.5t-183.5 92.5t-182.5 -91t-71.5 -229q0 -139 72.5 -231.5t183.5 -92.5zM229 171v414h137
q141 0 141 -136q0 -85 -61 -120l65 -158h-98l-59 145h-33v-145h-92zM321 390h40q29 0 42.5 13t13.5 43q0 54 -56 54h-40v-110z" />
    <glyph glyph-name="macron" unicode="&#xaf;" horiz-adv-x="481" 
d="M89 605v109h303v-109h-303z" />
    <glyph glyph-name="degree" unicode="&#xb0;" horiz-adv-x="350" 
d="M175 449q-61 0 -100.5 42.5t-39.5 109.5q0 66 39.5 109t100.5 43t100 -42t39 -109q0 -66 -39 -109.5t-100 -43.5zM175 521q26 0 41.5 21.5t15.5 59.5t-15.5 59t-41.5 21t-41.5 -21t-15.5 -59t15.5 -59.5t41.5 -21.5z" />
    <glyph glyph-name="plusminus" unicode="&#xb1;" horiz-adv-x="567" 
d="M54 26v112h169v168h-169v117h169v191h121v-191h169v-117h-169v-168h169v-112h-459z" />
    <glyph glyph-name="twosuperior" unicode="&#xb2;" horiz-adv-x="394" 
d="M36 272v25q0 56 20 98.5t48.5 67.5t57.5 45.5t49 45.5t20 55q0 34 -33 34t-65 -73l-98 42q52 134 170 134q68 0 104 -35.5t36 -99.5q0 -38 -16.5 -70t-41 -52.5t-49 -38.5t-43.5 -37t-22 -39h173v-102h-310z" />
    <glyph glyph-name="threesuperior" unicode="&#xb3;" horiz-adv-x="394" 
d="M194 265q-118 0 -168 120l86 46q29 -68 79 -68q26 0 41 14t15 38q0 37 -20.5 52t-64.5 15h-21v68h25q71 0 71 56q0 17 -11 28.5t-30 11.5q-41 0 -79 -54l-78 55q66 99 164 99q66 0 105 -34t39 -90q0 -70 -63 -101q73 -31 73 -111q0 -68 -45 -106.5t-118 -38.5z" />
    <glyph glyph-name="acute" unicode="&#xb4;" horiz-adv-x="481" 
d="M168 587l80 166h145l-124 -166h-101z" />
    <glyph glyph-name="mu" unicode="&#xb5;" horiz-adv-x="535" 
d="M49 -200v733h148v-358q0 -63 48 -63q44 0 92 43v378h148v-533h-148v73q-46 -61 -114 -74q-17 -2 -26 6v-205h-148z" />
    <glyph glyph-name="paragraph" unicode="&#xb6;" horiz-adv-x="580" 
d="M242 -200v523q-99 2 -153.5 55.5t-54.5 151.5q0 91 53.5 150.5t143.5 59.5h303v-940h-113v822h-66v-822h-113z" />
    <glyph glyph-name="periodcentered" unicode="&#xb7;" horiz-adv-x="268" 
d="M50 224v152h168v-152h-168z" />
    <glyph glyph-name="periodcentered" unicode="&#x2219;" horiz-adv-x="268" 
d="M50 224v152h168v-152h-168z" />
    <glyph glyph-name="cedilla" unicode="&#xb8;" horiz-adv-x="481" 
d="M247 -210q-79 0 -135 34l29 55q42 -27 99 -27q48 0 48 32q0 25 -29 25q-23 0 -40 -16l-41 19l29 94h63l-15 -55q21 14 55 14q29 0 48.5 -18t19.5 -53q0 -45 -37 -74.5t-94 -29.5z" />
    <glyph glyph-name="onesuperior" unicode="&#xb9;" horiz-adv-x="338" 
d="M51 273v101h67v246q-22 -11 -66 -11v102q52 1 79 28h107v-365h59v-101h-246z" />
    <glyph glyph-name="ordmasculine" unicode="&#xba;" horiz-adv-x="402" 
d="M201 364q-70 0 -118 48.5t-48 146.5t47.5 146.5t118.5 48.5q70 0 118 -48.5t48 -146.5t-48 -146.5t-118 -48.5zM201 444q60 0 60 115q0 111 -60 111t-60 -111q0 -115 60 -115z" />
    <glyph glyph-name="guillemotright" unicode="&#xbb;" horiz-adv-x="540" 
d="M249 0l129 265l-129 265h138l134 -265l-134 -265h-138zM23 0l130 265l-130 265h139l134 -265l-134 -265h-139z" />
    <glyph glyph-name="onequarter" unicode="&#xbc;" horiz-adv-x="888" 
d="M51 273v101h67v246q-22 -11 -66 -11v102q52 1 79 28h107v-365h59v-101h-246zM210 0l375 740h122l-375 -740h-122zM689 0v95h-178v78l173 293h117v-277h60v-94h-60v-95h-112zM615 186h76v130z" />
    <glyph glyph-name="onehalf" unicode="&#xbd;" horiz-adv-x="928" 
d="M51 273v101h67v246q-22 -11 -66 -11v102q52 1 79 28h107v-365h59v-101h-246zM210 0l375 740h122l-375 -740h-122zM570 0v25q0 57 20 99.5t48.5 67.5t57 45.5t48.5 45.5t20 55q0 33 -33 33t-65 -72l-98 42q55 134 170 134q68 0 104 -35.5t36 -99.5q0 -39 -16.5 -70.5
t-41 -52.5t-49 -39t-43.5 -37t-22 -39h173v-102h-309z" />
    <glyph glyph-name="threequarters" unicode="&#xbe;" horiz-adv-x="915" 
d="M194 265q-118 0 -168 120l86 46q29 -68 79 -68q26 0 41 14t15 38q0 37 -20.5 52t-64.5 15h-21v68h25q71 0 71 56q0 17 -11 28.5t-30 11.5q-41 0 -79 -54l-78 55q66 99 164 99q66 0 105 -34t39 -90q0 -70 -63 -101q73 -31 73 -111q0 -68 -45 -106.5t-118 -38.5zM236 0
l376 740h122l-376 -740h-122zM715 0v95h-177v78l173 293h117v-277h60v-94h-60v-95h-113zM642 186h76v130z" />
    <glyph glyph-name="questiondown" unicode="&#xbf;" horiz-adv-x="501" 
d="M185 598v142h161v-142h-161zM230 -14q-96 0 -147.5 49t-51.5 124q0 44 16 80.5t30.5 52.5t46.5 47q50 50 64 81.5t14 100.5h125q2 -22 2 -60q0 -40 -16 -75.5t-31.5 -54t-46.5 -48.5q-32 -30 -47.5 -54.5t-15.5 -55.5t18 -48t50 -17q66 0 108 98l122 -45
q-31 -82 -91.5 -128.5t-148.5 -46.5z" />
    <glyph glyph-name="Agrave" unicode="&#xc0;" horiz-adv-x="602" 
d="M194 156l-41 -156h-142l217 743h146l217 -743h-153l-40 156h-204zM367 274l-19 75q-43 168 -50 202h-2q-7 -37 -51 -201l-20 -76h142zM264 785l-124 166h146l80 -166h-102z" />
    <glyph glyph-name="Aacute" unicode="&#xc1;" horiz-adv-x="602" 
d="M194 156l-41 -156h-142l217 743h146l217 -743h-153l-40 156h-204zM367 274l-19 75q-43 168 -50 202h-2q-7 -37 -51 -201l-20 -76h142zM236 785l80 166h145l-124 -166h-101z" />
    <glyph glyph-name="Acircumflex" unicode="&#xc2;" horiz-adv-x="602" 
d="M194 156l-41 -156h-142l217 743h146l217 -743h-153l-40 156h-204zM367 274l-19 75q-43 168 -50 202h-2q-7 -37 -51 -201l-20 -76h142zM141 782l110 166h99l109 -166h-85l-74 70l-74 -70h-85z" />
    <glyph glyph-name="Atilde" unicode="&#xc3;" horiz-adv-x="602" 
d="M194 156l-41 -156h-142l217 743h146l217 -743h-153l-40 156h-204zM367 274l-19 75q-43 168 -50 202h-2q-7 -37 -51 -201l-20 -76h142zM369 773q-36 0 -75.5 28t-54.5 28q-36 0 -36 -54h-77q0 159 106 159q37 0 76.5 -28t54.5 -28q35 0 35 54h77q0 -159 -106 -159z" />
    <glyph glyph-name="Adieresis" unicode="&#xc4;" horiz-adv-x="602" 
d="M194 156l-41 -156h-142l217 743h146l217 -743h-153l-40 156h-204zM367 274l-19 75q-43 168 -50 202h-2q-7 -37 -51 -201l-20 -76h142zM334 782v138h124v-138h-124zM143 782v138h126v-138h-126z" />
    <glyph glyph-name="Aring" unicode="&#xc5;" horiz-adv-x="602" 
d="M194 156l-41 -156h-142l212 726q-24 30 -24 74q0 47 28.5 78t73.5 31t73 -31t28 -78q0 -43 -23 -74l212 -726h-153l-40 156h-204zM301 748q17 0 26.5 14.5t9.5 36.5q0 21 -9.5 35.5t-26.5 14.5q-18 0 -27.5 -14.5t-9.5 -35.5q0 -22 9.5 -36.5t27.5 -14.5zM367 274l-19 75
q-43 168 -50 202h-2q-7 -37 -51 -201l-20 -76h142z" />
    <glyph glyph-name="AE" unicode="&#xc6;" horiz-adv-x="885" 
d="M10 0l335 740h500v-128h-272v-167h195v-121h-195v-199h285v-125h-436v206h-172l-91 -206h-149zM297 315h125v279z" />
    <glyph glyph-name="Ccedilla" unicode="&#xc7;" horiz-adv-x="605" 
d="M264 -9q-110 17 -171 111.5t-61 268.5q0 191 78 287t210 96q115 0 175 -66t77 -189l-143 -25q-13 79 -38.5 114.5t-75.5 35.5q-130 0 -130 -253q0 -259 132 -259q51 0 78.5 37t41.5 123l143 -23q-45 -255 -253 -262l-10 -36q21 14 55 14q29 0 48.5 -18t19.5 -53
q0 -45 -37 -74.5t-94 -29.5q-79 0 -135 34l29 55q42 -27 99 -27q48 0 48 32q0 25 -29 25q-23 0 -40 -16l-41 19z" />
    <glyph glyph-name="Egrave" unicode="&#xc8;" horiz-adv-x="526" 
d="M61 0v740h424v-128h-272v-167h196v-121h-196v-199h286v-125h-438zM234 785l-124 166h146l80 -166h-102z" />
    <glyph glyph-name="Eacute" unicode="&#xc9;" horiz-adv-x="526" 
d="M61 0v740h424v-128h-272v-167h196v-121h-196v-199h286v-125h-438zM193 785l80 166h145l-124 -166h-101z" />
    <glyph glyph-name="Ecircumflex" unicode="&#xca;" horiz-adv-x="526" 
d="M61 0v740h424v-128h-272v-167h196v-121h-196v-199h286v-125h-438zM113 785l110 166h99l109 -166h-85l-74 70l-74 -70h-85z" />
    <glyph glyph-name="Edieresis" unicode="&#xcb;" horiz-adv-x="526" 
d="M61 0v740h424v-128h-272v-167h196v-121h-196v-199h286v-125h-438zM306 782v138h124v-138h-124zM115 782v138h126v-138h-126z" />
    <glyph glyph-name="Igrave" unicode="&#xcc;" horiz-adv-x="285" 
d="M67 0v740h152v-740h-152zM114 785l-124 166h146l80 -166h-102z" />
    <glyph glyph-name="Iacute" unicode="&#xcd;" horiz-adv-x="285" 
d="M67 0v740h152v-740h-152zM70 785l80 166h145l-124 -166h-101z" />
    <glyph glyph-name="Icircumflex" unicode="&#xce;" horiz-adv-x="285" 
d="M67 0v740h152v-740h-152zM-17 785l110 166h99l109 -166h-85l-74 70l-74 -70h-85z" />
    <glyph glyph-name="Idieresis" unicode="&#xcf;" horiz-adv-x="285" 
d="M67 0v740h152v-740h-152zM176 782v138h124v-138h-124zM-15 782v138h126v-138h-126z" />
    <glyph glyph-name="Eth" unicode="&#xd0;" horiz-adv-x="626" 
d="M61 325h-52v117h52v298h194q78 0 137.5 -18t106 -58.5t71 -114t24.5 -177.5q0 -105 -25 -179t-72 -115.5t-106 -59.5t-136 -18h-194v325zM208 442h118v-117h-118v-198h61q96 0 134.5 55t38.5 190q0 131 -39 185.5t-135 54.5h-60v-170z" />
    <glyph glyph-name="Ntilde" unicode="&#xd1;" horiz-adv-x="652" 
d="M61 0v740h157l170 -332q35 -68 60 -127h2v459h138v-740h-141l-192 359q-32 61 -54 110h-2v-469h-138zM394 773q-36 0 -75.5 28t-54.5 28q-36 0 -36 -54h-77q0 159 106 159q37 0 76.5 -28t54.5 -28q35 0 35 54h77q0 -159 -106 -159z" />
    <glyph glyph-name="Ograve" unicode="&#xd2;" horiz-adv-x="652" 
d="M326 -14q-128 0 -211 97.5t-83 286.5t83 286.5t211 97.5q127 0 210 -97.5t83 -286.5t-83 -286.5t-210 -97.5zM326 112q68 0 104 67t36 191q0 123 -36 188.5t-104 65.5q-69 0 -105 -65.5t-36 -188.5q0 -124 36 -191t105 -67zM297 785l-124 166h146l80 -166h-102z" />
    <glyph glyph-name="Oacute" unicode="&#xd3;" horiz-adv-x="652" 
d="M326 -14q-128 0 -211 97.5t-83 286.5t83 286.5t211 97.5q127 0 210 -97.5t83 -286.5t-83 -286.5t-210 -97.5zM326 112q68 0 104 67t36 191q0 123 -36 188.5t-104 65.5q-69 0 -105 -65.5t-36 -188.5q0 -124 36 -191t105 -67zM253 785l80 166h145l-124 -166h-101z" />
    <glyph glyph-name="Ocircumflex" unicode="&#xd4;" horiz-adv-x="652" 
d="M326 -14q-128 0 -211 97.5t-83 286.5t83 286.5t211 97.5q127 0 210 -97.5t83 -286.5t-83 -286.5t-210 -97.5zM326 112q68 0 104 67t36 191q0 123 -36 188.5t-104 65.5q-69 0 -105 -65.5t-36 -188.5q0 -124 36 -191t105 -67zM166 785l110 166h99l109 -166h-85l-74 70
l-74 -70h-85z" />
    <glyph glyph-name="Otilde" unicode="&#xd5;" horiz-adv-x="652" 
d="M326 -14q-128 0 -211 97.5t-83 286.5t83 286.5t211 97.5q127 0 210 -97.5t83 -286.5t-83 -286.5t-210 -97.5zM326 112q68 0 104 67t36 191q0 123 -36 188.5t-104 65.5q-69 0 -105 -65.5t-36 -188.5q0 -124 36 -191t105 -67zM394 773q-36 0 -75.5 28t-54.5 28
q-36 0 -36 -54h-77q0 159 106 159q37 0 76.5 -28t54.5 -28q35 0 35 54h77q0 -159 -106 -159z" />
    <glyph glyph-name="Odieresis" unicode="&#xd6;" horiz-adv-x="652" 
d="M326 -14q-128 0 -211 97.5t-83 286.5t83 286.5t211 97.5q127 0 210 -97.5t83 -286.5t-83 -286.5t-210 -97.5zM326 112q68 0 104 67t36 191q0 123 -36 188.5t-104 65.5q-69 0 -105 -65.5t-36 -188.5q0 -124 36 -191t105 -67zM359 782v138h124v-138h-124zM168 782v138h126
v-138h-126z" />
    <glyph glyph-name="multiply" unicode="&#xd7;" 
d="M136 115l-81 81l146 145l-146 146l81 81l146 -146l146 146l81 -81l-146 -146l146 -145l-81 -81l-146 145z" />
    <glyph glyph-name="Oslash" unicode="&#xd8;" horiz-adv-x="652" 
d="M551 636q68 -98 68 -266q0 -189 -83 -286.5t-210 -97.5q-93 0 -161 50l-55 -84l-79 51l68 102q-67 99 -67 265q0 189 83 286.5t211 97.5q89 0 158 -48l58 82l77 -50zM195 244l217 343q-35 39 -86 39q-69 0 -106.5 -66.5t-37.5 -189.5q0 -74 13 -126zM456 496l-220 -343
q37 -43 90 -43q68 0 105.5 68.5t37.5 191.5q0 68 -13 126z" />
    <glyph glyph-name="Ugrave" unicode="&#xd9;" horiz-adv-x="611" 
d="M307 -12q-255 0 -255 268v484h152v-475q0 -78 24.5 -113.5t80.5 -35.5t80.5 35.5t24.5 112.5v476h145v-483q0 -269 -252 -269zM277 785l-124 166h146l80 -166h-102z" />
    <glyph glyph-name="Uacute" unicode="&#xda;" horiz-adv-x="611" 
d="M307 -12q-255 0 -255 268v484h152v-475q0 -78 24.5 -113.5t80.5 -35.5t80.5 35.5t24.5 112.5v476h145v-483q0 -269 -252 -269zM233 785l80 166h145l-124 -166h-101z" />
    <glyph glyph-name="Ucircumflex" unicode="&#xdb;" horiz-adv-x="611" 
d="M307 -12q-255 0 -255 268v484h152v-475q0 -78 24.5 -113.5t80.5 -35.5t80.5 35.5t24.5 112.5v476h145v-483q0 -269 -252 -269zM148 785l110 166h99l109 -166h-85l-74 70l-74 -70h-85z" />
    <glyph glyph-name="Udieresis" unicode="&#xdc;" horiz-adv-x="611" 
d="M307 -12q-255 0 -255 268v484h152v-475q0 -78 24.5 -113.5t80.5 -35.5t80.5 35.5t24.5 112.5v476h145v-483q0 -269 -252 -269zM339 782v138h124v-138h-124zM148 782v138h126v-138h-126z" />
    <glyph glyph-name="Yacute" unicode="&#xdd;" horiz-adv-x="575" 
d="M211 0v290l-208 450h155l132 -312h2l132 312h148l-209 -449v-291h-152zM215 785l80 166h145l-124 -166h-101z" />
    <glyph glyph-name="Thorn" unicode="&#xde;" horiz-adv-x="573" 
d="M61 0v740h150v-119h74q115 0 186.5 -55.5t71.5 -183.5q0 -70 -22 -119.5t-61 -75.5t-82 -37t-95 -11h-72v-139h-150zM211 259h76q59 0 85 29t26 91q0 60 -26 87.5t-86 27.5h-75v-235z" />
    <glyph glyph-name="germandbls" unicode="&#xdf;" horiz-adv-x="584" 
d="M369 -10q-83 0 -143 37l48 101q39 -23 79 -23q34 0 53 25.5t19 74.5q0 66 -39 96.5t-128 35.5v97q111 0 111 104q0 36 -21 58.5t-59 22.5q-89 0 -89 -112v-507h-147v503q0 117 63.5 177t173.5 60q101 0 159 -47t58 -134q0 -61 -31.5 -103t-80.5 -58q81 -14 125 -65
t44 -127q0 -97 -51.5 -156.5t-143.5 -59.5z" />
    <glyph glyph-name="agrave" unicode="&#xe0;" horiz-adv-x="497" 
d="M151 -6q-59 0 -94.5 34t-35.5 105q0 160 287 212v22q0 31 -12.5 46t-41.5 15q-68 0 -147 -58l-67 88q99 86 242 86q88 0 128.5 -43t40.5 -134v-237q0 -95 13 -130h-146q-10 33 -10 72q-61 -78 -157 -78zM214 107q50 0 94 42v118q-77 -17 -110.5 -43t-33.5 -64
q0 -26 13.5 -39.5t36.5 -13.5zM220 587l-124 166h146l80 -166h-102z" />
    <glyph glyph-name="aacute" unicode="&#xe1;" horiz-adv-x="497" 
d="M151 -6q-59 0 -94.5 34t-35.5 105q0 160 287 212v22q0 31 -12.5 46t-41.5 15q-68 0 -147 -58l-67 88q99 86 242 86q88 0 128.5 -43t40.5 -134v-237q0 -95 13 -130h-146q-10 33 -10 72q-61 -78 -157 -78zM214 107q50 0 94 42v118q-77 -17 -110.5 -43t-33.5 -64
q0 -26 13.5 -39.5t36.5 -13.5zM176 587l80 166h145l-124 -166h-101z" />
    <glyph glyph-name="acircumflex" unicode="&#xe2;" horiz-adv-x="497" 
d="M151 -6q-59 0 -94.5 34t-35.5 105q0 160 287 212v22q0 31 -12.5 46t-41.5 15q-68 0 -147 -58l-67 88q99 86 242 86q88 0 128.5 -43t40.5 -134v-237q0 -95 13 -130h-146q-10 33 -10 72q-61 -78 -157 -78zM214 107q50 0 94 42v118q-77 -17 -110.5 -43t-33.5 -64
q0 -26 13.5 -39.5t36.5 -13.5zM89 587l110 166h99l109 -166h-85l-74 70l-74 -70h-85z" />
    <glyph glyph-name="atilde" unicode="&#xe3;" horiz-adv-x="497" 
d="M151 -6q-59 0 -94.5 34t-35.5 105q0 160 287 212v22q0 31 -12.5 46t-41.5 15q-68 0 -147 -58l-67 88q99 86 242 86q88 0 128.5 -43t40.5 -134v-237q0 -95 13 -130h-146q-10 33 -10 72q-61 -78 -157 -78zM214 107q50 0 94 42v118q-77 -17 -110.5 -43t-33.5 -64
q0 -26 13.5 -39.5t36.5 -13.5zM317 575q-36 0 -75.5 28t-54.5 28q-36 0 -36 -54h-77q0 159 106 159q37 0 76.5 -28t54.5 -28q35 0 35 54h77q0 -159 -106 -159z" />
    <glyph glyph-name="adieresis" unicode="&#xe4;" horiz-adv-x="497" 
d="M151 -6q-59 0 -94.5 34t-35.5 105q0 160 287 212v22q0 31 -12.5 46t-41.5 15q-68 0 -147 -58l-67 88q99 86 242 86q88 0 128.5 -43t40.5 -134v-237q0 -95 13 -130h-146q-10 33 -10 72q-61 -78 -157 -78zM214 107q50 0 94 42v118q-77 -17 -110.5 -43t-33.5 -64
q0 -26 13.5 -39.5t36.5 -13.5zM282 584v138h124v-138h-124zM91 584v138h126v-138h-126z" />
    <glyph glyph-name="aring" unicode="&#xe5;" horiz-adv-x="497" 
d="M151 -6q-59 0 -94.5 34t-35.5 105q0 160 287 212v22q0 31 -12.5 46t-41.5 15q-68 0 -147 -58l-67 88q99 86 242 86q88 0 128.5 -43t40.5 -134v-237q0 -95 13 -130h-146q-10 33 -10 72q-61 -78 -157 -78zM214 107q50 0 94 42v118q-77 -17 -110.5 -43t-33.5 -64
q0 -26 13.5 -39.5t36.5 -13.5zM249 572q-45 0 -73.5 31.5t-28.5 79.5q0 47 28.5 78t73.5 31t73 -31t28 -78q0 -48 -28 -79.5t-73 -31.5zM249 631q17 0 26.5 14.5t9.5 36.5q0 21 -9.5 35.5t-26.5 14.5q-18 0 -27.5 -14.5t-9.5 -35.5q0 -22 9.5 -36.5t27.5 -14.5z" />
    <glyph glyph-name="ae" unicode="&#xe6;" horiz-adv-x="772" 
d="M345 95q-82 -102 -194 -102q-59 0 -94.5 34t-35.5 105q0 161 287 213v22q0 31 -12.5 46t-41.5 15q-68 0 -147 -58l-67 88q99 86 242 86q90 0 121 -49q60 49 130 49q97 0 155.5 -70.5t58.5 -216.5v-27h-299q9 -131 96 -131q36 0 66.5 20t48.5 49l86 -69
q-76 -110 -207 -110q-134 0 -193 106zM449 314h164q-7 117 -80 117t-84 -117zM308 266q-144 -32 -144 -107q0 -26 13.5 -39.5t36.5 -13.5q55 0 106 53q-12 46 -12 107z" />
    <glyph glyph-name="ccedilla" unicode="&#xe7;" horiz-adv-x="481" 
d="M202 -6q-79 16 -128 84t-49 188q0 141 68 209.5t165 68.5q91 0 137.5 -46t66.5 -129l-131 -31q-11 48 -28 69.5t-47 21.5q-83 0 -83 -163q0 -167 82 -167q62 0 82 97l127 -31q-42 -169 -200 -176l-10 -38q21 14 55 14q29 0 48.5 -18t19.5 -53q0 -45 -37 -74.5t-94 -29.5
q-79 0 -135 34l29 55q42 -27 99 -27q48 0 48 32q0 25 -29 25q-23 0 -40 -16l-41 19z" />
    <glyph glyph-name="egrave" unicode="&#xe8;" horiz-adv-x="494" 
d="M259 -11q-103 0 -168.5 68.5t-65.5 208.5q0 73 20.5 128.5t54 87t73 47t82.5 15.5q96 0 155 -70.5t59 -216.5v-27h-299q7 -131 96 -131q36 0 66.5 20t48.5 49l86 -69q-76 -110 -208 -110zM171 314h164q-7 117 -80 117t-84 -117zM218 587l-124 166h146l80 -166h-102z" />
    <glyph glyph-name="eacute" unicode="&#xe9;" horiz-adv-x="494" 
d="M259 -11q-103 0 -168.5 68.5t-65.5 208.5q0 73 20.5 128.5t54 87t73 47t82.5 15.5q96 0 155 -70.5t59 -216.5v-27h-299q7 -131 96 -131q36 0 66.5 20t48.5 49l86 -69q-76 -110 -208 -110zM171 314h164q-7 117 -80 117t-84 -117zM174 587l80 166h145l-124 -166h-101z" />
    <glyph glyph-name="ecircumflex" unicode="&#xea;" horiz-adv-x="494" 
d="M259 -11q-103 0 -168.5 68.5t-65.5 208.5q0 73 20.5 128.5t54 87t73 47t82.5 15.5q96 0 155 -70.5t59 -216.5v-27h-299q7 -131 96 -131q36 0 66.5 20t48.5 49l86 -69q-76 -110 -208 -110zM171 314h164q-7 117 -80 117t-84 -117zM87 587l110 166h99l109 -166h-85l-74 70
l-74 -70h-85z" />
    <glyph glyph-name="edieresis" unicode="&#xeb;" horiz-adv-x="494" 
d="M259 -11q-103 0 -168.5 68.5t-65.5 208.5q0 73 20.5 128.5t54 87t73 47t82.5 15.5q96 0 155 -70.5t59 -216.5v-27h-299q7 -131 96 -131q36 0 66.5 20t48.5 49l86 -69q-76 -110 -208 -110zM171 314h164q-7 117 -80 117t-84 -117zM280 584v138h124v-138h-124zM89 584v138
h126v-138h-126z" />
    <glyph glyph-name="igrave" unicode="&#xec;" horiz-adv-x="258" 
d="M55 0v533h148v-533h-148zM92 587l-124 166h146l80 -166h-102z" />
    <glyph glyph-name="iacute" unicode="&#xed;" horiz-adv-x="258" 
d="M55 0v533h148v-533h-148zM63 587l80 166h145l-124 -166h-101z" />
    <glyph glyph-name="icircumflex" unicode="&#xee;" horiz-adv-x="258" 
d="M55 0v533h148v-533h-148zM-31 587l110 166h99l109 -166h-85l-74 70l-74 -70h-85z" />
    <glyph glyph-name="idieresis" unicode="&#xef;" horiz-adv-x="258" 
d="M55 0v533h148v-533h-148zM162 584v138h124v-138h-124zM-29 584v138h126v-138h-126z" />
    <glyph glyph-name="eth" unicode="&#xf0;" horiz-adv-x="519" 
d="M301 569l-64 -37l-41 71l53 31q-26 28 -54 50l77 80q48 -34 81 -70l63 36l41 -71l-52 -30q88 -133 88 -350q0 -141 -62 -215.5t-170 -74.5t-171.5 68.5t-63.5 189.5q0 122 56.5 186.5t148.5 64.5q35 0 70 -17t55 -47q-13 69 -55 135zM260 101q88 0 88 148q0 73 -23 111
t-65 38q-88 0 -88 -149q0 -148 88 -148z" />
    <glyph glyph-name="ntilde" unicode="&#xf1;" horiz-adv-x="532" 
d="M50 0v533h148v-74q23 33 65 59t94 26q129 0 129 -140v-404h-147v357q0 62 -48 62q-41 0 -93 -48v-371h-148zM334 575q-36 0 -75.5 28t-54.5 28q-36 0 -36 -54h-77q0 159 106 159q37 0 76.5 -28t54.5 -28q35 0 35 54h77q0 -159 -106 -159z" />
    <glyph glyph-name="ograve" unicode="&#xf2;" horiz-adv-x="520" 
d="M260 -11q-100 0 -167.5 69t-67.5 208q0 141 67 209.5t168 68.5q100 0 167.5 -69t67.5 -209q0 -139 -67.5 -208t-167.5 -69zM260 102q87 0 87 164q0 161 -87 161t-87 -161q0 -164 87 -164zM231 587l-124 166h146l80 -166h-102z" />
    <glyph glyph-name="oacute" unicode="&#xf3;" horiz-adv-x="520" 
d="M260 -11q-100 0 -167.5 69t-67.5 208q0 141 67 209.5t168 68.5q100 0 167.5 -69t67.5 -209q0 -139 -67.5 -208t-167.5 -69zM260 102q87 0 87 164q0 161 -87 161t-87 -161q0 -164 87 -164zM187 587l80 166h145l-124 -166h-101z" />
    <glyph glyph-name="ocircumflex" unicode="&#xf4;" horiz-adv-x="520" 
d="M260 -11q-100 0 -167.5 69t-67.5 208q0 141 67 209.5t168 68.5q100 0 167.5 -69t67.5 -209q0 -139 -67.5 -208t-167.5 -69zM260 102q87 0 87 164q0 161 -87 161t-87 -161q0 -164 87 -164zM100 587l110 166h99l109 -166h-85l-74 70l-74 -70h-85z" />
    <glyph glyph-name="otilde" unicode="&#xf5;" horiz-adv-x="520" 
d="M260 -11q-100 0 -167.5 69t-67.5 208q0 141 67 209.5t168 68.5q100 0 167.5 -69t67.5 -209q0 -139 -67.5 -208t-167.5 -69zM260 102q87 0 87 164q0 161 -87 161t-87 -161q0 -164 87 -164zM328 575q-36 0 -75.5 28t-54.5 28q-36 0 -36 -54h-77q0 159 106 159
q37 0 76.5 -28t54.5 -28q35 0 35 54h77q0 -159 -106 -159z" />
    <glyph glyph-name="odieresis" unicode="&#xf6;" horiz-adv-x="520" 
d="M260 -11q-100 0 -167.5 69t-67.5 208q0 141 67 209.5t168 68.5q100 0 167.5 -69t67.5 -209q0 -139 -67.5 -208t-167.5 -69zM260 102q87 0 87 164q0 161 -87 161t-87 -161q0 -164 87 -164zM293 584v138h124v-138h-124zM102 584v138h126v-138h-126z" />
    <glyph glyph-name="divide" unicode="&#xf7;" 
d="M219 469v121h126v-121h-126zM54 280v122h457v-122h-457zM219 91v122h126v-122h-126z" />
    <glyph glyph-name="oslash" unicode="&#xf8;" horiz-adv-x="520" 
d="M440 461q55 -73 55 -195q0 -139 -67.5 -208t-167.5 -69q-68 0 -121 31l-44 -63l-65 43l49 74q-54 74 -54 192q0 141 67 209.5t168 68.5q66 0 118 -29l45 63l67 -42zM171 203l141 207q-22 19 -52 19q-93 0 -93 -163q0 -38 4 -63zM347 333l-143 -210q21 -24 56 -24
q92 0 92 167q0 34 -5 67z" />
    <glyph glyph-name="ugrave" unicode="&#xf9;" horiz-adv-x="532" 
d="M175 -11q-129 0 -129 140v404h147v-361q0 -61 49 -61q44 0 92 48v374h148v-533h-148v73q-25 -34 -66 -59t-93 -25zM237 587l-124 166h146l80 -166h-102z" />
    <glyph glyph-name="uacute" unicode="&#xfa;" horiz-adv-x="532" 
d="M175 -11q-129 0 -129 140v404h147v-361q0 -61 49 -61q44 0 92 48v374h148v-533h-148v73q-25 -34 -66 -59t-93 -25zM193 587l80 166h145l-124 -166h-101z" />
    <glyph glyph-name="ucircumflex" unicode="&#xfb;" horiz-adv-x="532" 
d="M175 -11q-129 0 -129 140v404h147v-361q0 -61 49 -61q44 0 92 48v374h148v-533h-148v73q-25 -34 -66 -59t-93 -25zM105 587l110 166h99l109 -166h-85l-74 70l-74 -70h-85z" />
    <glyph glyph-name="udieresis" unicode="&#xfc;" horiz-adv-x="532" 
d="M175 -11q-129 0 -129 140v404h147v-361q0 -61 49 -61q44 0 92 48v374h148v-533h-148v73q-25 -34 -66 -59t-93 -25zM297 584v138h124v-138h-124zM106 584v138h126v-138h-126z" />
    <glyph glyph-name="yacute" unicode="&#xfd;" horiz-adv-x="481" 
d="M117 -202q-76 0 -125 15l28 116q47 -10 78 -10q26 0 39.5 11t21.5 38l9 26l-169 539h154l53 -207q25 -102 37 -165h2q13 68 39 168l53 204h142l-185 -585q-25 -78 -64.5 -114t-112.5 -36zM168 587l80 166h145l-124 -166h-101z" />
    <glyph glyph-name="thorn" unicode="&#xfe;" horiz-adv-x="534" 
d="M50 -200v940h148v-278q55 82 138 82q80 0 126 -69.5t46 -207.5t-46.5 -206.5t-127.5 -68.5q-86 0 -136 69v-261h-148zM281 107q79 0 79 159q0 79 -19 116t-61 37q-38 0 -82 -48v-219q43 -45 83 -45z" />
    <glyph glyph-name="ydieresis" unicode="&#xff;" horiz-adv-x="481" 
d="M117 -202q-76 0 -125 15l28 116q47 -10 78 -10q26 0 39.5 11t21.5 38l9 26l-169 539h154l53 -207q25 -102 37 -165h2q13 68 39 168l53 204h142l-185 -585q-25 -78 -64.5 -114t-112.5 -36zM276 584v138h124v-138h-124zM85 584v138h126v-138h-126z" />
    <glyph glyph-name="Amacron" unicode="&#x100;" horiz-adv-x="602" 
d="M194 156l-41 -156h-142l217 743h146l217 -743h-153l-40 156h-204zM367 274l-19 75q-43 168 -50 202h-2q-7 -37 -51 -201l-20 -76h142zM150 799v109h303v-109h-303z" />
    <glyph glyph-name="amacron" unicode="&#x101;" horiz-adv-x="497" 
d="M151 -6q-59 0 -94.5 34t-35.5 105q0 160 287 212v22q0 31 -12.5 46t-41.5 15q-68 0 -147 -58l-67 88q99 86 242 86q88 0 128.5 -43t40.5 -134v-237q0 -95 13 -130h-146q-10 33 -10 72q-61 -78 -157 -78zM214 107q50 0 94 42v118q-77 -17 -110.5 -43t-33.5 -64
q0 -26 13.5 -39.5t36.5 -13.5zM104 598v109h303v-109h-303z" />
    <glyph glyph-name="Abreve" unicode="&#x102;" horiz-adv-x="602" 
d="M194 156l-41 -156h-142l217 743h146l217 -743h-153l-40 156h-204zM367 274l-19 75q-43 168 -50 202h-2q-7 -37 -51 -201l-20 -76h142zM301 779q-73 0 -111 47t-42 129h82q11 -85 71 -85q61 0 70 85h82q-4 -82 -42 -129t-110 -47z" />
    <glyph glyph-name="abreve" unicode="&#x103;" horiz-adv-x="497" 
d="M151 -6q-59 0 -94.5 34t-35.5 105q0 160 287 212v22q0 31 -12.5 46t-41.5 15q-68 0 -147 -58l-67 88q99 86 242 86q88 0 128.5 -43t40.5 -134v-237q0 -95 13 -130h-146q-10 33 -10 72q-61 -78 -157 -78zM214 107q50 0 94 42v118q-77 -17 -110.5 -43t-33.5 -64
q0 -26 13.5 -39.5t36.5 -13.5zM249 579q-73 0 -111 47t-42 129h82q11 -85 71 -85q61 0 70 85h82q-4 -82 -42 -129t-110 -47z" />
    <glyph glyph-name="Aogonek" unicode="&#x104;" horiz-adv-x="602" 
d="M398 156h-204l-41 -156h-142l217 743h146l217 -743h-34q-96 -23 -96 -87q0 -40 40 -40q32 0 71 26l34 -43q-68 -49 -139 -49q-49 0 -75 22t-26 58q0 63 72 113zM367 274l-19 75q-43 168 -50 202h-2q-7 -37 -51 -201l-20 -76h142z" />
    <glyph glyph-name="aogonek" unicode="&#x105;" horiz-adv-x="497" 
d="M151 -6q-59 0 -94.5 34t-35.5 105q0 160 287 212v22q0 31 -12.5 46t-41.5 15q-68 0 -147 -58l-67 88q99 86 242 86q88 0 128.5 -43t40.5 -134v-237q0 -95 13 -130h-34q-36 -8 -63 -28.5t-27 -58.5q0 -40 40 -40q30 0 71 26l33 -43q-66 -49 -138 -49q-49 0 -75 22t-26 58
q0 62 73 114q-10 32 -10 71q-61 -78 -157 -78zM214 107q50 0 94 42v118q-77 -17 -110.5 -43t-33.5 -64q0 -26 13.5 -39.5t36.5 -13.5z" />
    <glyph glyph-name="Cacute" unicode="&#x106;" horiz-adv-x="605" 
d="M316 -13q-133 0 -208.5 95t-75.5 289q0 191 78 287t210 96q115 0 175 -66t77 -189l-143 -25q-13 79 -38.5 114.5t-75.5 35.5q-130 0 -130 -253q0 -259 132 -259q51 0 78.5 37t41.5 123l143 -23q-47 -262 -264 -262zM235 788l80 166h145l-124 -166h-101z" />
    <glyph glyph-name="cacute" unicode="&#x107;" horiz-adv-x="481" 
d="M253 -11q-97 0 -162.5 69t-65.5 208q0 141 68 209.5t165 68.5q91 0 137.5 -46t66.5 -129l-131 -31q-11 48 -28 69.5t-47 21.5q-83 0 -83 -163q0 -167 82 -167q62 0 82 97l127 -31q-44 -176 -211 -176zM170 587l80 166h145l-124 -166h-101z" />
    <glyph glyph-name="Ccircumflex" unicode="&#x108;" horiz-adv-x="605" 
d="M155 784l110 166h99l109 -166h-85l-74 70l-74 -70h-85zM316 -13q-133 0 -208.5 95t-75.5 289q0 191 78 287t210 96q115 0 175 -66t77 -189l-143 -25q-13 79 -38.5 114.5t-75.5 35.5q-130 0 -130 -253q0 -259 132 -259q51 0 78.5 37t41.5 123l143 -23q-47 -262 -264 -262z
" />
    <glyph glyph-name="ccircumflex" unicode="&#x109;" horiz-adv-x="481" 
d="M91 587l110 166h99l109 -166h-85l-74 70l-74 -70h-85zM253 -11q-97 0 -162.5 69t-65.5 208q0 141 68 209.5t165 68.5q91 0 137.5 -46t66.5 -129l-131 -31q-11 48 -28 69.5t-47 21.5q-83 0 -83 -163q0 -167 82 -167q62 0 82 97l127 -31q-44 -176 -211 -176z" />
    <glyph glyph-name="Cdotaccent" unicode="&#x10a;" horiz-adv-x="605" 
d="M316 -13q-133 0 -208.5 95t-75.5 289q0 191 78 287t210 96q115 0 175 -66t77 -189l-143 -25q-13 79 -38.5 114.5t-75.5 35.5q-130 0 -130 -253q0 -259 132 -259q51 0 78.5 37t41.5 123l143 -23q-47 -262 -264 -262zM233 785v128h153v-128h-153z" />
    <glyph glyph-name="cdotaccent" unicode="&#x10b;" horiz-adv-x="481" 
d="M253 -11q-97 0 -162.5 69t-65.5 208q0 141 68 209.5t165 68.5q91 0 137.5 -46t66.5 -129l-131 -31q-11 48 -28 69.5t-47 21.5q-83 0 -83 -163q0 -167 82 -167q62 0 82 97l127 -31q-44 -176 -211 -176zM175 584v128h153v-128h-153z" />
    <glyph glyph-name="Ccaron" unicode="&#x10c;" horiz-adv-x="605" 
d="M316 -13q-133 0 -208.5 95t-75.5 289q0 191 78 287t210 96q115 0 175 -66t77 -189l-143 -25q-13 79 -38.5 114.5t-75.5 35.5q-130 0 -130 -253q0 -259 132 -259q51 0 78.5 37t41.5 123l143 -23q-47 -262 -264 -262zM257 786l-109 166h86l73 -71l74 71h85l-109 -166h-100z
" />
    <glyph glyph-name="ccaron" unicode="&#x10d;" horiz-adv-x="481" 
d="M253 -11q-97 0 -162.5 69t-65.5 208q0 141 68 209.5t165 68.5q91 0 137.5 -46t66.5 -129l-131 -31q-11 48 -28 69.5t-47 21.5q-83 0 -83 -163q0 -167 82 -167q62 0 82 97l127 -31q-44 -176 -211 -176zM191 588l-109 166h86l73 -71l74 71h85l-109 -166h-100z" />
    <glyph glyph-name="Dcaron" unicode="&#x10e;" horiz-adv-x="626" 
d="M61 0v740h194q78 0 137.5 -18t106 -58.5t71 -114t24.5 -177.5q0 -105 -25 -179t-72 -115.5t-106 -59.5t-136 -18h-194zM213 127h56q96 0 134.5 55t38.5 190q0 131 -39 185.5t-135 54.5h-55v-485zM251 784l-109 166h86l73 -71l74 71h85l-109 -166h-100z" />
    <glyph glyph-name="dcaron" unicode="&#x10f;" horiz-adv-x="664" 
d="M199 -8q-81 0 -127 67t-46 205q0 139 46.5 209.5t127.5 70.5q85 0 137 -72v268h147v-610q0 -92 14 -130h-151q-10 25 -10 68q-55 -76 -138 -76zM255 107q37 0 82 47v220q-42 46 -83 46t-60.5 -37t-19.5 -118q0 -158 81 -158zM545 469l42 119h-53v152h149v-141l-69 -130
h-69z" />
    <glyph glyph-name="Dcroat" unicode="&#x110;" horiz-adv-x="626" 
d="M61 325h-52v117h52v298h194q78 0 137.5 -18t106 -58.5t71 -114t24.5 -177.5q0 -105 -25 -179t-72 -115.5t-106 -59.5t-136 -18h-194v325zM208 442h118v-117h-118v-198h61q96 0 134.5 55t38.5 190q0 131 -39 185.5t-135 54.5h-60v-170z" />
    <glyph glyph-name="dcroat" unicode="&#x111;" horiz-adv-x="534" 
d="M337 572h-87v108h87v60h147v-60h50v-108h-50v-442q0 -92 14 -130h-151q-10 25 -10 68q-55 -76 -138 -76q-81 0 -127 67t-46 205t46.5 208t127.5 70q86 0 137 -71v101zM255 107q37 0 82 47v218q-42 46 -83 46t-60.5 -36t-19.5 -117q0 -158 81 -158z" />
    <glyph glyph-name="Emacron" unicode="&#x112;" horiz-adv-x="526" 
d="M61 0v740h424v-128h-272v-167h196v-121h-196v-199h286v-125h-438zM119 799v109h303v-109h-303z" />
    <glyph glyph-name="emacron" unicode="&#x113;" horiz-adv-x="494" 
d="M259 -11q-103 0 -168.5 68.5t-65.5 208.5q0 73 20.5 128.5t54 87t73 47t82.5 15.5q96 0 155 -70.5t59 -216.5v-27h-299q7 -131 96 -131q36 0 66.5 20t48.5 49l86 -69q-76 -110 -208 -110zM171 314h164q-7 117 -80 117t-84 -117zM96 598v109h303v-109h-303z" />
    <glyph glyph-name="Ebreve" unicode="&#x114;" horiz-adv-x="526" 
d="M61 0v740h424v-128h-272v-167h196v-121h-196v-199h286v-125h-438zM275 779q-73 0 -111 47t-42 129h82q11 -85 71 -85q61 0 70 85h82q-4 -82 -42 -129t-110 -47z" />
    <glyph glyph-name="ebreve" unicode="&#x115;" horiz-adv-x="494" 
d="M259 -11q-103 0 -168.5 68.5t-65.5 208.5q0 73 20.5 128.5t54 87t73 47t82.5 15.5q96 0 155 -70.5t59 -216.5v-27h-299q7 -131 96 -131q36 0 66.5 20t48.5 49l86 -69q-76 -110 -208 -110zM171 314h164q-7 117 -80 117t-84 -117zM254 579q-73 0 -111 47t-42 129h82
q11 -85 71 -85q61 0 70 85h82q-4 -82 -42 -129t-110 -47z" />
    <glyph glyph-name="Edotaccent" unicode="&#x116;" horiz-adv-x="526" 
d="M61 0v740h424v-128h-272v-167h196v-121h-196v-199h286v-125h-438zM199 785v128h153v-128h-153z" />
    <glyph glyph-name="edotaccent" unicode="&#x117;" horiz-adv-x="494" 
d="M259 -11q-103 0 -168.5 68.5t-65.5 208.5q0 73 20.5 128.5t54 87t73 47t82.5 15.5q96 0 155 -70.5t59 -216.5v-27h-299q7 -131 96 -131q36 0 66.5 20t48.5 49l86 -69q-76 -110 -208 -110zM171 314h164q-7 117 -80 117t-84 -117zM170 584v128h153v-128h-153z" />
    <glyph glyph-name="Eogonek" unicode="&#x118;" horiz-adv-x="526" 
d="M331 0h-270v740h424v-128h-272v-167h196v-121h-196v-199h286v-125h-37q-38 0 -73 -22t-35 -65q0 -40 40 -40q30 0 71 26l33 -43q-66 -49 -138 -49q-49 0 -75 22t-26 58q0 63 72 113z" />
    <glyph glyph-name="eogonek" unicode="&#x119;" horiz-adv-x="494" 
d="M367 5q-59 -38 -59 -92q0 -40 40 -40q32 0 71 26l34 -43q-68 -49 -139 -49q-48 0 -74 22t-26 58q0 54 58 103q-4 -1 -13 -1q-103 0 -168.5 68.5t-65.5 208.5q0 73 20.5 128.5t54 87t73 47t82.5 15.5q96 0 155 -70.5t59 -216.5v-27h-299q7 -131 96 -131q36 0 66.5 20
t48.5 49l86 -69q-32 -46 -100 -94zM171 314h164q-7 117 -80 117t-84 -117z" />
    <glyph glyph-name="Ecaron" unicode="&#x11a;" horiz-adv-x="526" 
d="M61 0v740h424v-128h-272v-167h196v-121h-196v-199h286v-125h-438zM225 784l-109 166h86l73 -71l74 71h85l-109 -166h-100z" />
    <glyph glyph-name="ecaron" unicode="&#x11b;" horiz-adv-x="494" 
d="M259 -11q-103 0 -168.5 68.5t-65.5 208.5q0 73 20.5 128.5t54 87t73 47t82.5 15.5q96 0 155 -70.5t59 -216.5v-27h-299q7 -131 96 -131q36 0 66.5 20t48.5 49l86 -69q-76 -110 -208 -110zM171 314h164q-7 117 -80 117t-84 -117zM196 588l-109 166h86l73 -71l74 71h85
l-109 -166h-100z" />
    <glyph glyph-name="Gcircumflex" unicode="&#x11c;" horiz-adv-x="636" 
d="M147 784l110 166h99l109 -166h-85l-74 70l-74 -70h-85zM301 -12q-130 0 -199.5 101t-69.5 283q0 183 75 282.5t213 99.5q106 0 166.5 -61t83.5 -194l-138 -27q-15 83 -42.5 117.5t-74.5 34.5q-130 0 -130 -250q0 -142 36 -202t102 -60q106 0 121 142h-107v114h244v-368
h-112v95h-1q-15 -42 -59.5 -74.5t-107.5 -32.5z" />
    <glyph glyph-name="gcircumflex" unicode="&#x11d;" horiz-adv-x="526" 
d="M88 587l110 166h99l109 -166h-85l-74 70l-74 -70h-85zM394 491q23 21 55.5 36t61.5 18v-122q-42 0 -74 -7q12 -34 12 -65q0 -89 -55.5 -140.5t-151.5 -51.5q-36 0 -68 8q-15 -12 -15 -25t10 -18t39 -8l69 -5q120 -8 169 -42.5t49 -106.5q0 -76 -74.5 -119t-194.5 -43
q-121 0 -172.5 30t-51.5 88q0 66 80 107q-42 25 -42 69q0 27 19 54.5t49 46.5q-77 54 -77 156q0 88 56.5 140.5t154.5 52.5q97 0 152 -53zM243 250q35 0 53.5 26t18.5 71q0 96 -72 96q-35 0 -53.5 -25.5t-18.5 -70.5t18.5 -71t53.5 -26zM162 1q-29 -25 -29 -57q0 -35 27 -50
t90 -15q51 0 82.5 16t31.5 44q0 26 -20.5 37.5t-89.5 16.5l-79 7q-9 0 -13 1z" />
    <glyph glyph-name="Gbreve" unicode="&#x11e;" horiz-adv-x="636" 
d="M301 -12q-130 0 -199.5 101t-69.5 283q0 183 75 282.5t213 99.5q106 0 166.5 -61t83.5 -194l-138 -27q-15 83 -42.5 117.5t-74.5 34.5q-130 0 -130 -250q0 -142 36 -202t102 -60q106 0 121 142h-107v114h244v-368h-112v95h-1q-15 -42 -59.5 -74.5t-107.5 -32.5zM312 780
q-73 0 -111 47t-42 129h82q11 -85 71 -85q61 0 70 85h82q-4 -82 -42 -129t-110 -47z" />
    <glyph glyph-name="gbreve" unicode="&#x11f;" horiz-adv-x="526" 
d="M394 491q23 21 55.5 36t61.5 18v-122q-42 0 -74 -7q12 -34 12 -65q0 -89 -55.5 -140.5t-151.5 -51.5q-36 0 -68 8q-15 -12 -15 -25t10 -18t39 -8l69 -5q120 -8 169 -42.5t49 -106.5q0 -76 -74.5 -119t-194.5 -43q-121 0 -172.5 30t-51.5 88q0 66 80 107q-42 25 -42 69
q0 27 19 54.5t49 46.5q-77 54 -77 156q0 88 56.5 140.5t154.5 52.5q97 0 152 -53zM243 250q35 0 53.5 26t18.5 71q0 96 -72 96q-35 0 -53.5 -25.5t-18.5 -70.5t18.5 -71t53.5 -26zM162 1q-29 -25 -29 -57q0 -35 27 -50t90 -15q51 0 82.5 16t31.5 44q0 26 -20.5 37.5
t-89.5 16.5l-79 7q-9 0 -13 1zM254 579q-73 0 -111 47t-42 129h82q11 -85 71 -85q61 0 70 85h82q-4 -82 -42 -129t-110 -47z" />
    <glyph glyph-name="Gdotaccent" unicode="&#x120;" horiz-adv-x="636" 
d="M301 -12q-130 0 -199.5 101t-69.5 283q0 183 75 282.5t213 99.5q106 0 166.5 -61t83.5 -194l-138 -27q-15 83 -42.5 117.5t-74.5 34.5q-130 0 -130 -250q0 -142 36 -202t102 -60q106 0 121 142h-107v114h244v-368h-112v95h-1q-15 -42 -59.5 -74.5t-107.5 -32.5zM234 785
v128h153v-128h-153z" />
    <glyph glyph-name="gdotaccent" unicode="&#x121;" horiz-adv-x="526" 
d="M394 491q23 21 55.5 36t61.5 18v-122q-42 0 -74 -7q12 -34 12 -65q0 -89 -55.5 -140.5t-151.5 -51.5q-36 0 -68 8q-15 -12 -15 -25t10 -18t39 -8l69 -5q120 -8 169 -42.5t49 -106.5q0 -76 -74.5 -119t-194.5 -43q-121 0 -172.5 30t-51.5 88q0 66 80 107q-42 25 -42 69
q0 27 19 54.5t49 46.5q-77 54 -77 156q0 88 56.5 140.5t154.5 52.5q97 0 152 -53zM243 250q35 0 53.5 26t18.5 71q0 96 -72 96q-35 0 -53.5 -25.5t-18.5 -70.5t18.5 -71t53.5 -26zM162 1q-29 -25 -29 -57q0 -35 27 -50t90 -15q51 0 82.5 16t31.5 44q0 26 -20.5 37.5
t-89.5 16.5l-79 7q-9 0 -13 1zM171 584v128h153v-128h-153z" />
    <glyph glyph-name="Gcommaaccent" unicode="&#x122;" horiz-adv-x="636" 
d="M274 -314l42 110h-59v150h150v-134l-64 -126h-69zM301 -12q-130 0 -199.5 101t-69.5 283q0 183 75 282.5t213 99.5q106 0 166.5 -61t83.5 -194l-138 -27q-15 83 -42.5 117.5t-74.5 34.5q-130 0 -130 -250q0 -142 36 -202t102 -60q106 0 121 142h-107v114h244v-368h-112
v95h-1q-15 -42 -59.5 -74.5t-107.5 -32.5z" />
    <glyph glyph-name="gcommaaccent" unicode="&#x123;" horiz-adv-x="526" 
d="M297 826l-38 -101h54v-137h-137v123l59 115h62zM394 491q23 21 55.5 36t61.5 18v-122q-42 0 -74 -7q12 -34 12 -65q0 -89 -55.5 -140.5t-151.5 -51.5q-36 0 -68 8q-15 -12 -15 -25t10 -18t39 -8l69 -5q120 -8 169 -42.5t49 -106.5q0 -76 -74.5 -119t-194.5 -43
q-121 0 -172.5 30t-51.5 88q0 66 80 107q-42 25 -42 69q0 27 19 54.5t49 46.5q-77 54 -77 156q0 88 56.5 140.5t154.5 52.5q97 0 152 -53zM243 250q35 0 53.5 26t18.5 71q0 96 -72 96q-35 0 -53.5 -25.5t-18.5 -70.5t18.5 -71t53.5 -26zM162 1q-29 -25 -29 -57q0 -35 27 -50
t90 -15q51 0 82.5 16t31.5 44q0 26 -20.5 37.5t-89.5 16.5l-79 7q-9 0 -13 1z" />
    <glyph glyph-name="Hcircumflex" unicode="&#x124;" horiz-adv-x="647" 
d="M163 784l110 166h99l109 -166h-85l-74 70l-74 -70h-85zM61 0v740h152v-290h221v290h152v-740h-152v324h-221v-324h-152z" />
    <glyph glyph-name="hcircumflex" unicode="&#x125;" horiz-adv-x="532" 
d="M-34 784l110 166h99l109 -166h-85l-74 70l-74 -70h-85zM50 0v740h148v-281q23 33 65 59t94 26q129 0 129 -140v-404h-147v357q0 62 -48 62q-41 0 -93 -48v-371h-148z" />
    <glyph glyph-name="Hbar" unicode="&#x126;" horiz-adv-x="647" 
d="M5 539v112h57v89h151v-89h221v89h152v-89h57v-112h-57v-539h-152v324h-221v-324h-151v539h-57zM213 450h221v89h-221v-89z" />
    <glyph glyph-name="hbar" unicode="&#x127;" horiz-adv-x="532" 
d="M50 680v60h148v-60h87v-108h-87v-113q23 33 65 59t94 26q129 0 129 -140v-404h-147v357q0 62 -48 62q-41 0 -93 -48v-371h-148v572h-50v108h50z" />
    <glyph glyph-name="Itilde" unicode="&#x128;" horiz-adv-x="285" 
d="M67 0v740h152v-740h-152zM213 772q-36 0 -75.5 28t-54.5 28q-36 0 -36 -54h-77q0 159 106 159q37 0 76.5 -28t54.5 -28q35 0 35 54h77q0 -159 -106 -159z" />
    <glyph glyph-name="itilde" unicode="&#x129;" horiz-adv-x="258" 
d="M55 0v533h148v-533h-148zM199 575q-36 0 -75.5 28t-54.5 28q-36 0 -36 -54h-77q0 159 106 159q37 0 76.5 -28t54.5 -28q35 0 35 54h77q0 -159 -106 -159z" />
    <glyph glyph-name="Imacron" unicode="&#x12a;" horiz-adv-x="285" 
d="M67 0v740h152v-740h-152zM-9 799v109h303v-109h-303z" />
    <glyph glyph-name="imacron" unicode="&#x12b;" horiz-adv-x="258" 
d="M55 0v533h148v-533h-148zM-23 598v109h303v-109h-303z" />
    <glyph glyph-name="Ibreve" unicode="&#x12c;" horiz-adv-x="285" 
d="M67 0v740h152v-740h-152zM143 780q-73 0 -111 47t-42 129h82q11 -85 71 -85q61 0 70 85h82q-4 -82 -42 -129t-110 -47z" />
    <glyph glyph-name="ibreve" unicode="&#x12d;" horiz-adv-x="258" 
d="M55 0v533h148v-533h-148zM129 579q-73 0 -111 47t-42 129h82q11 -85 71 -85q61 0 70 85h82q-4 -82 -42 -129t-110 -47z" />
    <glyph glyph-name="Iogonek" unicode="&#x12e;" horiz-adv-x="285" 
d="M219 740v-740q-13 -1 -21 -2q-31 -5 -56.5 -28.5t-25.5 -56.5q0 -40 39 -40q31 0 72 26l33 -43q-68 -49 -138 -49q-49 0 -75 22t-26 58q0 63 71 113h-25v740h152z" />
    <glyph glyph-name="iogonek" unicode="&#x12f;" horiz-adv-x="258" 
d="M55 601v128h148v-128h-148zM55 0v533h148v-533q-5 -1 -9 -1q-36 -3 -62 -25q-32 -27 -32 -61q0 -40 40 -40q32 0 71 26l34 -43q-68 -49 -139 -49q-48 0 -74.5 22t-26.5 58q0 30 21.5 62t52.5 51h-2h-4.5h-6h-5.5h-5h-1z" />
    <glyph glyph-name="Idotaccent" unicode="&#x130;" horiz-adv-x="285" 
d="M67 0v740h152v-740h-152zM66 781v128h153v-128h-153z" />
    <glyph glyph-name="dotlessi" unicode="&#x131;" horiz-adv-x="258" 
d="M55 0v533h148v-533h-148z" />
    <glyph glyph-name="IJ" unicode="&#x132;" horiz-adv-x="742" 
d="M67 0v740h152v-740h-152zM489 -11q-109 0 -195 56l61 111q59 -37 115 -37q68 0 68 82v539h152v-554q0 -93 -50.5 -145t-150.5 -52z" />
    <glyph glyph-name="ij" unicode="&#x133;" horiz-adv-x="516" 
d="M55 601v128h148v-128h-148zM55 0v533h148v-533h-148zM312 601v128h148v-128h-148zM301 -202q-61 0 -76 5v105q18 -3 36 -3q51 0 51 61v567h148v-583q0 -74 -33.5 -113t-125.5 -39z" />
    <glyph glyph-name="Jcircumflex" unicode="&#x134;" horiz-adv-x="457" 
d="M172 784l110 166h99l109 -166h-85l-74 70l-74 -70h-85zM204 -11q-109 0 -195 56l61 111q59 -37 115 -37q68 0 68 82v539h152v-554q0 -93 -50.5 -145t-150.5 -52z" />
    <glyph glyph-name="jcircumflex" unicode="&#x135;" horiz-adv-x="258" 
d="M44 -202q-61 0 -76 5v105q9 -3 36 -3q51 0 51 61v567h148v-583q0 -74 -33.5 -113t-125.5 -39zM-31 587l110 166h99l109 -166h-85l-74 70l-74 -70h-85z" />
    <glyph glyph-name="Kcommaaccent" unicode="&#x136;" horiz-adv-x="606" 
d="M268 -314l42 110h-59v150h150v-134l-64 -126h-69zM61 0v740h151v-322q29 53 64 106l137 216h162l-198 -291l222 -449h-164l-156 319l-67 -92v-227h-151z" />
    <glyph glyph-name="kcommaaccent" unicode="&#x137;" horiz-adv-x="499" 
d="M220 -314l42 110h-59v150h150v-134l-64 -126h-69zM50 0v740h145v-422q10 20 50 84l84 131h149l-140 -198l151 -335h-150l-94 216l-50 -70v-146h-145z" />
    <glyph glyph-name="kgreenlandic" unicode="&#x138;" horiz-adv-x="499" 
d="M50 0v533h145v-215q10 20 50 84l84 131h149l-140 -198l151 -335h-149l-95 216l-50 -70v-146h-145z" />
    <glyph glyph-name="Lacute" unicode="&#x139;" horiz-adv-x="512" 
d="M61 0v740h152v-615h278v-125h-430zM81 785l80 166h145l-124 -166h-101z" />
    <glyph glyph-name="lacute" unicode="&#x13a;" horiz-adv-x="258" 
d="M55 0v740h148v-740h-148zM65 785l80 166h145l-124 -166h-101z" />
    <glyph glyph-name="Lcommaaccent" unicode="&#x13b;" horiz-adv-x="512" 
d="M225 -314l42 110h-59v150h150v-134l-64 -126h-69zM61 0v740h152v-615h278v-125h-430z" />
    <glyph glyph-name="lcommaaccent" unicode="&#x13c;" horiz-adv-x="258" 
d="M80 -314l42 110h-59v150h150v-134l-64 -126h-69zM55 0v740h148v-740h-148z" />
    <glyph glyph-name="Lcaron" unicode="&#x13d;" horiz-adv-x="512" 
d="M61 0v740h152v-615h278v-125h-430zM340 469l42 119h-53v152h149v-141l-69 -130h-69z" />
    <glyph glyph-name="lcaron" unicode="&#x13e;" horiz-adv-x="388" 
d="M55 0v740h148v-740h-148zM268 469l42 119h-53v152h149v-141l-69 -130h-69z" />
    <glyph glyph-name="Ldot" unicode="&#x13f;" horiz-adv-x="581" 
d="M61 0v740h152v-615h278v-125h-430zM344 337v152h168v-152h-168z" />
    <glyph glyph-name="ldot" unicode="&#x140;" horiz-adv-x="440" 
d="M55 0v740h148v-740h-148zM271 266v141h156v-141h-156z" />
    <glyph glyph-name="Lslash" unicode="&#x141;" horiz-adv-x="512" 
d="M61 0v307l-52 -19v118l52 19v315h152v-268l95 36v-119l-95 -35v-229h278v-125h-430z" />
    <glyph glyph-name="lslash" unicode="&#x142;" horiz-adv-x="299" 
d="M76 0v286l-54 -20v113l54 20v341h147v-296l53 20v-113l-53 -20v-331h-147z" />
    <glyph glyph-name="Nacute" unicode="&#x143;" horiz-adv-x="652" 
d="M61 0v740h157l170 -332q35 -68 60 -127h2v459h138v-740h-141l-192 359q-32 61 -54 110h-2v-469h-138zM269 783l80 166h145l-124 -166h-101z" />
    <glyph glyph-name="nacute" unicode="&#x144;" horiz-adv-x="532" 
d="M50 0v533h148v-74q23 33 65 59t94 26q129 0 129 -140v-404h-147v357q0 62 -48 62q-41 0 -93 -48v-371h-148zM190 587l80 166h145l-124 -166h-101z" />
    <glyph glyph-name="Ncommaaccent" unicode="&#x145;" horiz-adv-x="652" 
d="M271 -321l42 110h-59v150h150v-134l-64 -126h-69zM61 0v740h157l170 -332q35 -68 60 -127h2v459h138v-740h-141l-192 359q-32 61 -54 110h-2v-469h-138z" />
    <glyph glyph-name="ncommaaccent" unicode="&#x146;" horiz-adv-x="532" 
d="M220 -314l42 110h-59v150h150v-134l-64 -126h-69zM50 0v533h148v-74q23 33 65 59t94 26q129 0 129 -140v-404h-147v357q0 62 -48 62q-41 0 -93 -48v-371h-148z" />
    <glyph glyph-name="Ncaron" unicode="&#x147;" horiz-adv-x="652" 
d="M61 0v740h157l170 -332q35 -68 60 -127h2v459h138v-740h-141l-192 359q-32 61 -54 110h-2v-469h-138zM283 784l-109 166h86l73 -71l74 71h85l-109 -166h-100z" />
    <glyph glyph-name="ncaron" unicode="&#x148;" horiz-adv-x="532" 
d="M50 0v533h148v-74q23 33 65 59t94 26q129 0 129 -140v-404h-147v357q0 62 -48 62q-41 0 -93 -48v-371h-148zM223 588l-109 166h86l73 -71l74 71h85l-109 -166h-100z" />
    <glyph glyph-name="napostrophe" unicode="&#x149;" horiz-adv-x="742" 
d="M60 469l42 119h-53v152h149v-141l-69 -130h-69zM260 0v533h148v-74q23 33 65 59t94 26q129 0 129 -140v-404h-147v357q0 62 -48 62q-41 0 -93 -48v-371h-148z" />
    <glyph glyph-name="Eng" unicode="&#x14a;" horiz-adv-x="652" 
d="M387 -202q-109 0 -195 56l60 111q61 -37 116 -37q69 0 76 68v11l-189 352q-32 61 -54 110h-2v-469h-137v740h156l171 -332q38 -76 60 -127h2v459h137v-744q0 -93 -50.5 -145.5t-150.5 -52.5z" />
    <glyph glyph-name="eng" unicode="&#x14b;" horiz-adv-x="532" 
d="M327 -202q-60 0 -75 5v105q9 -3 36 -3q51 0 51 61v391q0 62 -48 62q-41 0 -93 -48v-371h-148v533h148v-74q23 33 65 59t94 26q129 0 129 -140v-454q0 -74 -33.5 -113t-125.5 -39z" />
    <glyph glyph-name="Omacron" unicode="&#x14c;" horiz-adv-x="652" 
d="M326 -14q-128 0 -211 97.5t-83 286.5t83 286.5t211 97.5q127 0 210 -97.5t83 -286.5t-83 -286.5t-210 -97.5zM326 112q68 0 104 67t36 191q0 123 -36 188.5t-104 65.5q-69 0 -105 -65.5t-36 -188.5q0 -124 36 -191t105 -67zM174 799v109h303v-109h-303z" />
    <glyph glyph-name="omacron" unicode="&#x14d;" horiz-adv-x="520" 
d="M260 -11q-100 0 -167.5 69t-67.5 208q0 141 67 209.5t168 68.5q100 0 167.5 -69t67.5 -209q0 -139 -67.5 -208t-167.5 -69zM260 102q87 0 87 164q0 161 -87 161t-87 -161q0 -164 87 -164zM108 598v109h303v-109h-303z" />
    <glyph glyph-name="Obreve" unicode="&#x14e;" horiz-adv-x="652" 
d="M326 -14q-128 0 -211 97.5t-83 286.5t83 286.5t211 97.5q127 0 210 -97.5t83 -286.5t-83 -286.5t-210 -97.5zM326 112q68 0 104 67t36 191q0 123 -36 188.5t-104 65.5q-69 0 -105 -65.5t-36 -188.5q0 -124 36 -191t105 -67zM327 780q-73 0 -111 47t-42 129h82
q11 -85 71 -85q61 0 70 85h82q-4 -82 -42 -129t-110 -47z" />
    <glyph glyph-name="obreve" unicode="&#x14f;" horiz-adv-x="520" 
d="M260 -11q-100 0 -167.5 69t-67.5 208q0 141 67 209.5t168 68.5q100 0 167.5 -69t67.5 -209q0 -139 -67.5 -208t-167.5 -69zM260 102q87 0 87 164q0 161 -87 161t-87 -161q0 -164 87 -164zM259 579q-73 0 -111 47t-42 129h82q11 -85 71 -85q61 0 70 85h82q-4 -82 -42 -129
t-110 -47z" />
    <glyph glyph-name="Ohungarumlaut" unicode="&#x150;" horiz-adv-x="652" 
d="M326 -14q-128 0 -211 97.5t-83 286.5t83 286.5t211 97.5q127 0 210 -97.5t83 -286.5t-83 -286.5t-210 -97.5zM326 112q68 0 104 67t36 191q0 123 -36 188.5t-104 65.5q-69 0 -105 -65.5t-36 -188.5q0 -124 36 -191t105 -67zM340 787l91 166h147l-136 -166h-102zM164 787
l86 166h148l-132 -166h-102z" />
    <glyph glyph-name="ohungarumlaut" unicode="&#x151;" horiz-adv-x="520" 
d="M260 -11q-100 0 -167.5 69t-67.5 208q0 141 67 209.5t168 68.5q100 0 167.5 -69t67.5 -209q0 -139 -67.5 -208t-167.5 -69zM260 102q87 0 87 164q0 161 -87 161t-87 -161q0 -164 87 -164zM261 587l91 166h147l-136 -166h-102zM85 587l86 166h148l-132 -166h-102z" />
    <glyph glyph-name="OE" unicode="&#x152;" horiz-adv-x="931" 
d="M482 675v65h408v-128h-272v-167h196v-121h-196v-199h286v-125h-422v64q-50 -78 -156 -78q-128 0 -211 97.5t-83 286.5t83 286.5t211 97.5q104 0 156 -79zM326 112q68 0 104 67t36 191q0 123 -36 188.5t-104 65.5q-69 0 -105 -65.5t-36 -188.5q0 -124 36 -191t105 -67z
" />
    <glyph glyph-name="oe" unicode="&#x153;" horiz-adv-x="812" 
d="M418 472q60 72 154 72q97 0 156 -70.5t59 -216.5v-27h-300q9 -131 97 -131q35 0 65.5 20t48.5 49l87 -69q-76 -110 -208 -110q-102 0 -160 69q-60 -69 -157 -69q-100 0 -167.5 69t-67.5 208q0 141 67 209.5t168 68.5q99 0 158 -72zM488 314h164q-7 117 -80 117
q-72 0 -84 -117zM260 102q87 0 87 164q0 161 -87 161t-87 -161q0 -164 87 -164z" />
    <glyph glyph-name="Racute" unicode="&#x154;" horiz-adv-x="593" 
d="M61 0v740h231q251 0 251 -232q0 -73 -33 -123.5t-89 -73.5l141 -311h-157l-125 274h-70v-274h-149zM210 390h77q57 0 84 26.5t27 88.5q0 59 -27 83.5t-84 24.5h-77v-223zM222 785l80 166h145l-124 -166h-101z" />
    <glyph glyph-name="racute" unicode="&#x155;" horiz-adv-x="369" 
d="M50 0v533h148v-86h2q51 97 148 97l9 -1l-2 -135q-12 3 -31 3q-78 0 -126 -61v-350h-148zM136 587l80 166h145l-124 -166h-101z" />
    <glyph glyph-name="Rcommaaccent" unicode="&#x156;" horiz-adv-x="593" 
d="M258 -314l42 110h-59v150h150v-134l-64 -126h-69zM61 0v740h231q251 0 251 -232q0 -73 -33 -123.5t-89 -73.5l141 -311h-157l-125 274h-70v-274h-149zM210 390h77q57 0 84 26.5t27 88.5q0 59 -27 83.5t-84 24.5h-77v-223z" />
    <glyph glyph-name="rcommaaccent" unicode="&#x157;" horiz-adv-x="369" 
d="M74 -314l42 110h-59v150h150v-134l-64 -126h-69zM50 0v533h148v-86h2q51 97 148 97l9 -1l-2 -135q-12 3 -31 3q-78 0 -126 -61v-350h-148z" />
    <glyph glyph-name="Rcaron" unicode="&#x158;" horiz-adv-x="593" 
d="M61 0v740h231q251 0 251 -232q0 -73 -33 -123.5t-89 -73.5l141 -311h-157l-125 274h-70v-274h-149zM210 390h77q57 0 84 26.5t27 88.5q0 59 -27 83.5t-84 24.5h-77v-223zM238 784l-109 166h86l73 -71l74 71h85l-109 -166h-100z" />
    <glyph glyph-name="rcaron" unicode="&#x159;" horiz-adv-x="369" 
d="M50 0v533h148v-86h2q51 97 148 97l9 -1l-2 -135q-12 3 -31 3q-78 0 -126 -61v-350h-148zM154 588l-109 166h86l73 -71l74 71h85l-109 -166h-100z" />
    <glyph glyph-name="Sacute" unicode="&#x15a;" horiz-adv-x="588" 
d="M305 -13q-193 0 -278 176l123 62q58 -117 155 -117q47 0 72.5 23t25.5 61q0 22 -9.5 39.5t-31 32t-39.5 24t-51 23.5q-42 18 -61 26.5t-55 31t-53.5 44t-32 57t-14.5 78.5q0 91 66.5 148.5t168.5 57.5q170 0 249 -165l-118 -64q-52 104 -134 104q-39 0 -61 -21t-22 -53
q0 -40 30 -64.5t92 -52.5q101 -44 137 -70q88 -64 88 -170q0 -89 -65.5 -150t-181.5 -61zM212 785l80 166h145l-124 -166h-101z" />
    <glyph glyph-name="sacute" unicode="&#x15b;" horiz-adv-x="464" 
d="M233 -12q-143 0 -224 92l77 83q32 -33 72.5 -52.5t76.5 -19.5q70 0 70 49q0 23 -20 38.5t-50 23.5t-64.5 21t-64.5 28.5t-50 49.5t-20 81q0 77 56.5 119.5t140.5 42.5q54 0 107 -22.5t88 -62.5l-77 -82q-63 60 -119 60q-58 0 -58 -46q0 -26 27.5 -42.5t67 -27.5t79 -26.5
t67 -51.5t27.5 -92q0 -77 -60.5 -120t-148.5 -43zM138 587l80 166h145l-124 -166h-101z" />
    <glyph glyph-name="Scircumflex" unicode="&#x15c;" horiz-adv-x="588" 
d="M129 784l110 166h99l109 -166h-85l-74 70l-74 -70h-85zM305 -13q-193 0 -278 176l123 62q58 -117 155 -117q47 0 72.5 23t25.5 61q0 22 -9.5 39.5t-31 32t-39.5 24t-51 23.5q-42 18 -61 26.5t-55 31t-53.5 44t-32 57t-14.5 78.5q0 91 66.5 148.5t168.5 57.5
q170 0 249 -165l-118 -64q-52 104 -134 104q-39 0 -61 -21t-22 -53q0 -40 30 -64.5t92 -52.5q101 -44 137 -70q88 -64 88 -170q0 -89 -65.5 -150t-181.5 -61z" />
    <glyph glyph-name="scircumflex" unicode="&#x15d;" horiz-adv-x="464" 
d="M67 587l110 166h99l109 -166h-85l-74 70l-74 -70h-85zM233 -12q-143 0 -224 92l77 83q32 -33 72.5 -52.5t76.5 -19.5q70 0 70 49q0 23 -20 38.5t-50 23.5t-64.5 21t-64.5 28.5t-50 49.5t-20 81q0 77 56.5 119.5t140.5 42.5q54 0 107 -22.5t88 -62.5l-77 -82
q-63 60 -119 60q-58 0 -58 -46q0 -26 27.5 -42.5t67 -27.5t79 -26.5t67 -51.5t27.5 -92q0 -77 -60.5 -120t-148.5 -43z" />
    <glyph glyph-name="Scedilla" unicode="&#x15e;" horiz-adv-x="588" 
d="M254 -314l42 110h-59v150h150v-134l-64 -126h-69zM305 -13q-193 0 -278 176l123 62q58 -117 155 -117q47 0 72.5 23t25.5 61q0 22 -9.5 39.5t-31 32t-39.5 24t-51 23.5q-42 18 -61 26.5t-55 31t-53.5 44t-32 57t-14.5 78.5q0 91 66.5 148.5t168.5 57.5q170 0 249 -165
l-118 -64q-52 104 -134 104q-39 0 -61 -21t-22 -53q0 -40 30 -64.5t92 -52.5q101 -44 137 -70q88 -64 88 -170q0 -89 -65.5 -150t-181.5 -61z" />
    <glyph glyph-name="scedilla" unicode="&#x15f;" horiz-adv-x="464" 
d="M183 -314l42 110h-59v150h150v-134l-64 -126h-69zM233 -12q-143 0 -224 92l77 83q32 -33 72.5 -52.5t76.5 -19.5q70 0 70 49q0 23 -20 38.5t-50 23.5t-64.5 21t-64.5 28.5t-50 49.5t-20 81q0 77 56.5 119.5t140.5 42.5q54 0 107 -22.5t88 -62.5l-77 -82q-63 60 -119 60
q-58 0 -58 -46q0 -26 27.5 -42.5t67 -27.5t79 -26.5t67 -51.5t27.5 -92q0 -77 -60.5 -120t-148.5 -43z" />
    <glyph glyph-name="Scaron" unicode="&#x160;" horiz-adv-x="588" 
d="M305 -13q-193 0 -278 176l123 62q58 -117 155 -117q47 0 72.5 23t25.5 61q0 22 -9.5 39.5t-31 32t-39.5 24t-51 23.5q-42 18 -61 26.5t-55 31t-53.5 44t-32 57t-14.5 78.5q0 91 66.5 148.5t168.5 57.5q170 0 249 -165l-118 -64q-52 104 -134 104q-39 0 -61 -21t-22 -53
q0 -40 30 -64.5t92 -52.5q101 -44 137 -70q88 -64 88 -170q0 -89 -65.5 -150t-181.5 -61zM243 786l-109 166h86l73 -71l74 71h85l-109 -166h-100z" />
    <glyph glyph-name="scaron" unicode="&#x161;" horiz-adv-x="464" 
d="M233 -12q-143 0 -224 92l77 83q32 -33 72.5 -52.5t76.5 -19.5q70 0 70 49q0 23 -20 38.5t-50 23.5t-64.5 21t-64.5 28.5t-50 49.5t-20 81q0 77 56.5 119.5t140.5 42.5q54 0 107 -22.5t88 -62.5l-77 -82q-63 60 -119 60q-58 0 -58 -46q0 -26 27.5 -42.5t67 -27.5t79 -26.5
t67 -51.5t27.5 -92q0 -77 -60.5 -120t-148.5 -43zM181 588l-109 166h86l73 -71l74 71h85l-109 -166h-100z" />
    <glyph glyph-name="Tcommaaccent" unicode="&#x162;" horiz-adv-x="537" 
d="M216 -290l38 102h-53v136h136v-121l-58 -117h-63zM192 0v612h-176v128h505v-128h-177v-612h-152z" />
    <glyph glyph-name="Tcommaaccent" unicode="&#x21a;" horiz-adv-x="537" 
d="M216 -290l38 102h-53v136h136v-121l-58 -117h-63zM192 0v612h-176v128h505v-128h-177v-612h-152z" />
    <glyph glyph-name="tcommaaccent" unicode="&#x163;" horiz-adv-x="367" 
d="M114 -290l38 102h-53v136h136v-121l-58 -117h-63zM249 -6q-94 0 -128 32t-34 107v291h-76v109h76v183h147v-183h114v-109h-114v-254q0 -41 13 -55t50 -14q30 0 44 6v-106q-23 -7 -92 -7z" />
    <glyph glyph-name="tcommaaccent" unicode="&#x21b;" horiz-adv-x="367" 
d="M114 -290l38 102h-53v136h136v-121l-58 -117h-63zM249 -6q-94 0 -128 32t-34 107v291h-76v109h76v183h147v-183h114v-109h-114v-254q0 -41 13 -55t50 -14q30 0 44 6v-106q-23 -7 -92 -7z" />
    <glyph glyph-name="Tcaron" unicode="&#x164;" horiz-adv-x="537" 
d="M192 0v612h-176v128h505v-128h-177v-612h-152zM218 786l-109 166h86l73 -71l74 71h85l-109 -166h-100z" />
    <glyph glyph-name="tcaron" unicode="&#x165;" horiz-adv-x="505" 
d="M249 -6q-94 0 -128 32t-34 107v291h-76v109h76v183h147v-183h114v-109h-114v-254q0 -41 13 -55t50 -14q30 0 44 6v-106q-23 -7 -92 -7zM385 469l42 119h-53v152h149v-141l-69 -130h-69z" />
    <glyph glyph-name="Tbar" unicode="&#x166;" horiz-adv-x="537" 
d="M16 282v117h177v213h-177v128h505v-128h-177v-213h177v-117h-177v-282h-151v282h-177z" />
    <glyph glyph-name="tbar" unicode="&#x167;" horiz-adv-x="367" 
d="M12 222v102h75v100h-75v109h75v183h147v-183h114v-109h-114v-100h114v-102h-114v-52q0 -41 13 -55t50 -14q30 0 44 6v-106q-17 -7 -92 -7q-94 0 -128 32t-34 107v89h-75z" />
    <glyph glyph-name="Utilde" unicode="&#x168;" horiz-adv-x="611" 
d="M307 -12q-255 0 -255 268v484h152v-475q0 -78 24.5 -113.5t80.5 -35.5t80.5 35.5t24.5 112.5v476h145v-483q0 -269 -252 -269zM378 772q-36 0 -75.5 28t-54.5 28q-36 0 -36 -54h-77q0 159 106 159q37 0 76.5 -28t54.5 -28q35 0 35 54h77q0 -159 -106 -159z" />
    <glyph glyph-name="utilde" unicode="&#x169;" horiz-adv-x="532" 
d="M175 -11q-129 0 -129 140v404h147v-361q0 -61 49 -61q44 0 92 48v374h148v-533h-148v73q-25 -34 -66 -59t-93 -25zM338 575q-36 0 -75.5 28t-54.5 28q-36 0 -36 -54h-77q0 159 106 159q37 0 76.5 -28t54.5 -28q35 0 35 54h77q0 -159 -106 -159z" />
    <glyph glyph-name="Umacron" unicode="&#x16a;" horiz-adv-x="611" 
d="M307 -12q-255 0 -255 268v484h152v-475q0 -78 24.5 -113.5t80.5 -35.5t80.5 35.5t24.5 112.5v476h145v-483q0 -269 -252 -269zM158 799v109h303v-109h-303z" />
    <glyph glyph-name="umacron" unicode="&#x16b;" horiz-adv-x="532" 
d="M175 -11q-129 0 -129 140v404h147v-361q0 -61 49 -61q44 0 92 48v374h148v-533h-148v73q-25 -34 -66 -59t-93 -25zM113 598v109h303v-109h-303z" />
    <glyph glyph-name="Ubreve" unicode="&#x16c;" horiz-adv-x="611" 
d="M307 -12q-255 0 -255 268v484h152v-475q0 -78 24.5 -113.5t80.5 -35.5t80.5 35.5t24.5 112.5v476h145v-483q0 -269 -252 -269zM306 780q-73 0 -111 47t-42 129h82q11 -85 71 -85q61 0 70 85h82q-4 -82 -42 -129t-110 -47z" />
    <glyph glyph-name="ubreve" unicode="&#x16d;" horiz-adv-x="532" 
d="M175 -11q-129 0 -129 140v404h147v-361q0 -61 49 -61q44 0 92 48v374h148v-533h-148v73q-25 -34 -66 -59t-93 -25zM265 579q-73 0 -111 47t-42 129h82q11 -85 71 -85q61 0 70 85h82q-4 -82 -42 -129t-110 -47z" />
    <glyph glyph-name="Uring" unicode="&#x16e;" horiz-adv-x="611" 
d="M307 -12q-255 0 -255 268v484h152v-475q0 -78 24.5 -113.5t80.5 -35.5t80.5 35.5t24.5 112.5v476h145v-483q0 -269 -252 -269zM310 772q-45 0 -73.5 31.5t-28.5 79.5q0 47 28.5 78t73.5 31t73 -31t28 -78q0 -48 -28 -79.5t-73 -31.5zM310 831q17 0 26.5 14.5t9.5 36.5
q0 21 -9.5 35.5t-26.5 14.5q-18 0 -27.5 -14.5t-9.5 -35.5q0 -22 9.5 -36.5t27.5 -14.5z" />
    <glyph glyph-name="uring" unicode="&#x16f;" horiz-adv-x="532" 
d="M175 -11q-129 0 -129 140v404h147v-361q0 -61 49 -61q44 0 92 48v374h148v-533h-148v73q-25 -34 -66 -59t-93 -25zM264 572q-45 0 -73.5 31.5t-28.5 79.5q0 47 28.5 78t73.5 31t73 -31t28 -78q0 -48 -28 -79.5t-73 -31.5zM264 631q17 0 26.5 14.5t9.5 36.5
q0 21 -9.5 35.5t-26.5 14.5q-18 0 -27.5 -14.5t-9.5 -35.5q0 -22 9.5 -36.5t27.5 -14.5z" />
    <glyph glyph-name="Uhungarumlaut" unicode="&#x170;" horiz-adv-x="611" 
d="M307 -12q-255 0 -255 268v484h152v-475q0 -78 24.5 -113.5t80.5 -35.5t80.5 35.5t24.5 112.5v476h145v-483q0 -269 -252 -269zM331 787l91 166h147l-136 -166h-102zM155 787l86 166h148l-132 -166h-102z" />
    <glyph glyph-name="uhungarumlaut" unicode="&#x171;" horiz-adv-x="532" 
d="M175 -11q-129 0 -129 140v404h147v-361q0 -61 49 -61q44 0 92 48v374h148v-533h-148v73q-25 -34 -66 -59t-93 -25zM276 587l91 166h147l-136 -166h-102zM100 587l86 166h148l-132 -166h-102z" />
    <glyph glyph-name="Uogonek" unicode="&#x172;" horiz-adv-x="611" 
d="M300 -12q-248 3 -248 268v484h152v-475q0 -78 24.5 -113.5t80.5 -35.5t80.5 35.5t24.5 112.5v476h145v-483q0 -171 -99 -233q-3 -2 -5.5 -3t-4.5 -1.5t-4.5 -1.5t-4.5 -2q-8 -5 -25 -13.5t-25 -13.5t-20 -13.5t-17.5 -16.5t-10 -20t-4.5 -26q0 -40 40 -40q30 0 71 26
l33 -43q-66 -49 -138 -49q-49 0 -75 22t-26 58q0 52 56 101z" />
    <glyph glyph-name="uogonek" unicode="&#x173;" horiz-adv-x="532" 
d="M334 73q-25 -34 -66 -59t-93 -25q-129 0 -129 140v404h147v-361q0 -61 49 -61q44 0 92 48v374h148v-533h-29q-40 0 -67.5 -23t-27.5 -64q0 -40 39 -40q32 0 71 26l34 -43q-68 -49 -139 -49q-48 0 -74 22t-26 58q0 63 71 113v73z" />
    <glyph glyph-name="Wcircumflex" unicode="&#x174;" horiz-adv-x="808" 
d="M249 782l110 166h99l109 -166h-85l-74 70l-74 -70h-85zM180 -3l-165 743h146l57 -297q20 -103 34 -197h2q6 45 33 196l55 298h136l56 -303q22 -113 33 -192h2q14 99 32 190l58 305h135l-165 -743h-132l-92 487h-2l-92 -487h-131z" />
    <glyph glyph-name="wcircumflex" unicode="&#x175;" horiz-adv-x="667" 
d="M180 587l110 166h99l109 -166h-85l-74 70l-74 -70h-85zM126 -1l-125 534h143l39 -180q16 -80 27 -154h2q11 77 29 155l39 179h124l39 -176q19 -83 30 -159h2q12 85 28 157l37 178h126l-124 -534h-133l-74 327h-2l-74 -327h-133z" />
    <glyph glyph-name="Ycircumflex" unicode="&#x176;" horiz-adv-x="575" 
d="M211 0v290l-208 450h155l132 -312h2l132 312h148l-209 -449v-291h-152zM132 784l110 166h99l109 -166h-85l-74 70l-74 -70h-85z" />
    <glyph glyph-name="ycircumflex" unicode="&#x177;" horiz-adv-x="481" 
d="M117 -202q-76 0 -125 15l28 116q47 -10 78 -10q26 0 39.5 11t21.5 38l9 26l-169 539h154l53 -207q25 -102 37 -165h2q13 68 39 168l53 204h142l-185 -585q-25 -78 -64.5 -114t-112.5 -36zM84 587l110 166h99l109 -166h-85l-74 70l-74 -70h-85z" />
    <glyph glyph-name="Ydieresis" unicode="&#x178;" horiz-adv-x="575" 
d="M211 0v290l-208 450h155l132 -312h2l132 312h148l-209 -449v-291h-152zM321 782v138h124v-138h-124zM130 782v138h126v-138h-126z" />
    <glyph glyph-name="Zacute" unicode="&#x179;" horiz-adv-x="551" 
d="M22 0v110l319 502h-297v128h476v-113l-314 -502h314v-125h-498zM217 785l80 166h145l-124 -166h-101z" />
    <glyph glyph-name="zacute" unicode="&#x17a;" horiz-adv-x="451" 
d="M22 0v82l220 342h-202v109h377v-86l-220 -341h235v-106h-410zM148 587l80 166h145l-124 -166h-101z" />
    <glyph glyph-name="Zdotaccent" unicode="&#x17b;" horiz-adv-x="551" 
d="M22 0v110l319 502h-297v128h476v-113l-314 -502h314v-125h-498zM199 785v128h153v-128h-153z" />
    <glyph glyph-name="zdotaccent" unicode="&#x17c;" horiz-adv-x="451" 
d="M22 0v82l220 342h-202v109h377v-86l-220 -341h235v-106h-410zM149 584v128h153v-128h-153z" />
    <glyph glyph-name="Zcaron" unicode="&#x17d;" horiz-adv-x="551" 
d="M22 0v110l319 502h-297v128h476v-113l-314 -502h314v-125h-498zM225 786l-109 166h86l73 -71l74 71h85l-109 -166h-100z" />
    <glyph glyph-name="zcaron" unicode="&#x17e;" horiz-adv-x="451" 
d="M22 0v82l220 342h-202v109h377v-86l-220 -341h235v-106h-410zM175 588l-109 166h86l73 -71l74 71h85l-109 -166h-100z" />
    <glyph glyph-name="longs" unicode="&#x17f;" horiz-adv-x="347" 
d="M91 0v582q0 75 35.5 117.5t133.5 42.5q59 0 77 -3v-110q-18 3 -37 3q-30 0 -46.5 -11.5t-16.5 -45.5v-575h-146z" />
    <glyph glyph-name="florin" unicode="&#x192;" horiz-adv-x="383" 
d="M96 337h-75l13 106h76l18 139q10 79 53.5 120t141.5 41q51 0 74 -5l-15 -110q-18 4 -39 4q-30 0 -47.5 -12t-21.5 -46l-17 -131h96l-14 -106h-96l-51 -389q-10 -74 -52 -112t-139 -38q-39 0 -75 4l14 107q14 -3 37 -3q63 0 71 67z" />
    <glyph glyph-name="Aringacute" unicode="&#x1fa;" horiz-adv-x="602" 
d="M235 931l80 166h145l-124 -166h-101zM194 156l-41 -156h-142l212 726q-24 30 -24 74q0 47 28.5 78t73.5 31t73 -31t28 -78q0 -43 -23 -74l212 -726h-153l-40 156h-204zM301 748q17 0 26.5 14.5t9.5 36.5q0 21 -9.5 35.5t-26.5 14.5q-18 0 -27.5 -14.5t-9.5 -35.5
q0 -22 9.5 -36.5t27.5 -14.5zM367 274l-19 75q-43 168 -50 202h-2q-7 -37 -51 -201l-20 -76h142z" />
    <glyph glyph-name="aringacute" unicode="&#x1fb;" horiz-adv-x="497" 
d="M151 -6q-59 0 -94.5 34t-35.5 105q0 160 287 212v22q0 31 -12.5 46t-41.5 15q-68 0 -147 -58l-67 88q99 86 242 86q88 0 128.5 -43t40.5 -134v-237q0 -95 13 -130h-146q-10 33 -10 72q-61 -78 -157 -78zM214 107q50 0 94 42v118q-77 -17 -110.5 -43t-33.5 -64
q0 -26 13.5 -39.5t36.5 -13.5zM192 822l80 166h145l-124 -166h-101zM248 572q-45 0 -73.5 31.5t-28.5 79.5q0 47 28.5 78t73.5 31t73 -31t28 -78q0 -48 -28 -79.5t-73 -31.5zM248 631q17 0 26.5 14.5t9.5 36.5q0 21 -9.5 35.5t-26.5 14.5q-18 0 -27.5 -14.5t-9.5 -35.5
q0 -22 9.5 -36.5t27.5 -14.5z" />
    <glyph glyph-name="AEacute" unicode="&#x1fc;" horiz-adv-x="885" 
d="M392 784l80 166h145l-124 -166h-101zM10 0l335 740h500v-128h-272v-167h195v-121h-195v-199h285v-125h-436v206h-172l-91 -206h-149zM297 315h125v279z" />
    <glyph glyph-name="aeacute" unicode="&#x1fd;" horiz-adv-x="772" 
d="M329 587l80 166h145l-124 -166h-101zM345 95q-82 -102 -194 -102q-59 0 -94.5 34t-35.5 105q0 161 287 213v22q0 31 -12.5 46t-41.5 15q-68 0 -147 -58l-67 88q99 86 242 86q90 0 121 -49q60 49 130 49q97 0 155.5 -70.5t58.5 -216.5v-27h-299q9 -131 96 -131
q36 0 66.5 20t48.5 49l86 -69q-76 -110 -207 -110q-134 0 -193 106zM449 314h164q-7 117 -80 117t-84 -117zM308 266q-144 -32 -144 -107q0 -26 13.5 -39.5t36.5 -13.5q55 0 106 53q-12 46 -12 107z" />
    <glyph glyph-name="Oslashacute" unicode="&#x1fe;" horiz-adv-x="652" 
d="M551 636q68 -98 68 -266q0 -189 -83 -286.5t-210 -97.5q-93 0 -161 50l-55 -84l-79 51l68 102q-67 99 -67 265q0 189 83 286.5t211 97.5q89 0 158 -48l58 82l77 -50zM195 244l217 343q-35 39 -86 39q-69 0 -106.5 -66.5t-37.5 -189.5q0 -74 13 -126zM456 496l-220 -343
q37 -43 90 -43q68 0 105.5 68.5t37.5 191.5q0 68 -13 126zM260 784l80 166h145l-124 -166h-101z" />
    <glyph glyph-name="oslashacute" unicode="&#x1ff;" horiz-adv-x="520" 
d="M440 461q55 -73 55 -195q0 -139 -67.5 -208t-167.5 -69q-68 0 -121 31l-44 -63l-65 43l49 74q-54 74 -54 192q0 141 67 209.5t168 68.5q66 0 118 -29l45 63l67 -42zM171 203l141 207q-22 19 -52 19q-93 0 -93 -163q0 -38 4 -63zM347 333l-143 -210q21 -24 56 -24
q92 0 92 167q0 34 -5 67zM194 587l80 166h145l-124 -166h-101z" />
    <glyph glyph-name="Scommaaccent" unicode="&#x218;" horiz-adv-x="588" 
d="M250 -290l38 102h-53v136h136v-121l-58 -117h-63zM305 -13q-193 0 -278 176l123 62q58 -117 155 -117q47 0 72.5 23t25.5 61q0 22 -9.5 39.5t-31 32t-39.5 24t-51 23.5q-42 18 -61 26.5t-55 31t-53.5 44t-32 57t-14.5 78.5q0 91 66.5 148.5t168.5 57.5q170 0 249 -165
l-118 -64q-52 104 -134 104q-39 0 -61 -21t-22 -53q0 -40 30 -64.5t92 -52.5q101 -44 137 -70q88 -64 88 -170q0 -89 -65.5 -150t-181.5 -61z" />
    <glyph glyph-name="scommaaccent" unicode="&#x219;" horiz-adv-x="464" 
d="M178 -290l38 102h-53v136h136v-121l-58 -117h-63zM233 -12q-143 0 -224 92l77 83q32 -33 72.5 -52.5t76.5 -19.5q70 0 70 49q0 23 -20 38.5t-50 23.5t-64.5 21t-64.5 28.5t-50 49.5t-20 81q0 77 56.5 119.5t140.5 42.5q54 0 107 -22.5t88 -62.5l-77 -82q-63 60 -119 60
q-58 0 -58 -46q0 -26 27.5 -42.5t67 -27.5t79 -26.5t67 -51.5t27.5 -92q0 -77 -60.5 -120t-148.5 -43z" />
    <glyph glyph-name="schwa" unicode="&#x259;" horiz-adv-x="494" 
d="M253 545q103 0 168.5 -68.5t65.5 -208.5q0 -73 -20.5 -128.5t-54 -87t-73 -47t-82.5 -15.5q-96 0 -155 70.5t-59 216.5v27h299q-7 131 -96 131q-36 0 -66.5 -20t-48.5 -49l-86 69q76 110 208 110zM341 220h-164q7 -117 80 -117t84 117z" />
    <glyph glyph-name="circumflex" unicode="&#x2c6;" horiz-adv-x="481" 
d="M81 587l110 166h99l109 -166h-85l-74 70l-74 -70h-85z" />
    <glyph glyph-name="caron" unicode="&#x2c7;" horiz-adv-x="481" 
d="M190 588l-109 166h86l73 -71l74 71h85l-109 -166h-100z" />
    <glyph glyph-name="breve" unicode="&#x2d8;" horiz-adv-x="481" 
d="M241 579q-73 0 -111 47t-42 129h82q11 -85 71 -85q61 0 70 85h82q-4 -82 -42 -129t-110 -47z" />
    <glyph glyph-name="dotaccent" unicode="&#x2d9;" horiz-adv-x="481" 
d="M164 584v128h153v-128h-153z" />
    <glyph glyph-name="ring" unicode="&#x2da;" horiz-adv-x="481" 
d="M241 572q-45 0 -73.5 31.5t-28.5 79.5q0 47 28.5 78t73.5 31t73 -31t28 -78q0 -48 -28 -79.5t-73 -31.5zM241 631q17 0 26.5 14.5t9.5 36.5q0 21 -9.5 35.5t-26.5 14.5q-18 0 -27.5 -14.5t-9.5 -35.5q0 -22 9.5 -36.5t27.5 -14.5z" />
    <glyph glyph-name="ogonek" unicode="&#x2db;" horiz-adv-x="481" 
d="M226 -193q-48 0 -74 22t-26 58q0 64 73 114h74q-52 -37 -52 -88q0 -40 39 -40q32 0 71 26l34 -43q-68 -49 -139 -49z" />
    <glyph glyph-name="tilde" unicode="&#x2dc;" horiz-adv-x="481" 
d="M309 575q-36 0 -75.5 28t-54.5 28q-36 0 -36 -54h-77q0 159 106 159q37 0 76.5 -28t54.5 -28q35 0 35 54h77q0 -159 -106 -159z" />
    <glyph glyph-name="hungarumlaut" unicode="&#x2dd;" horiz-adv-x="481" 
d="M212 587l91 166h147l-136 -166h-102zM36 587l86 166h148l-132 -166h-102z" />
    <glyph glyph-name="commaaccent" unicode="&#x326;" horiz-adv-x="233" 
d="M63 -290l38 102h-53v136h136v-121l-58 -117h-63z" />
    <glyph glyph-name="tonos" unicode="&#x384;" horiz-adv-x="481" 
d="M170 584l52 168h147l-97 -168h-102z" />
    <glyph glyph-name="dieresistonos" unicode="&#x385;" horiz-adv-x="481" 
d="M350 584v139h122v-139h-122zM10 584v139h123v-139h-123zM148 584l52 168h147l-97 -168h-102z" />
    <glyph glyph-name="Alphatonos" unicode="&#x386;" horiz-adv-x="691" 
d="M283 156l-41 -156h-142l217 743h146l217 -743h-153l-40 156h-204zM456 274l-19 75q-43 168 -50 202h-2q-7 -37 -51 -201l-20 -76h142zM23 572l52 168h147l-97 -168h-102z" />
    <glyph glyph-name="Epsilontonos" unicode="&#x388;" horiz-adv-x="750" 
d="M23 572l52 168h147l-97 -168h-102zM285 0v740h424v-128h-272v-167h196v-121h-196v-199h286v-125h-438z" />
    <glyph glyph-name="Etatonos" unicode="&#x389;" horiz-adv-x="871" 
d="M23 572l52 168h147l-97 -168h-102zM285 0v740h152v-290h221v290h152v-740h-152v324h-221v-324h-152z" />
    <glyph glyph-name="Iotatonos" unicode="&#x38a;" horiz-adv-x="509" 
d="M291 0v740h152v-740h-152zM23 572l52 168h147l-97 -168h-102z" />
    <glyph glyph-name="Omicrontonos" unicode="&#x38c;" horiz-adv-x="841" 
d="M23 572l52 168h147l-97 -168h-102zM515 -14q-128 0 -211 97.5t-83 286.5t83 286.5t211 97.5q127 0 210 -97.5t83 -286.5t-83 -286.5t-210 -97.5zM515 112q68 0 104 67t36 191q0 123 -36 188.5t-104 65.5q-69 0 -105 -65.5t-36 -188.5q0 -124 36 -191t105 -67z" />
    <glyph glyph-name="Upsilontonos" unicode="&#x38e;" horiz-adv-x="839" 
d="M475 0v290l-208 450h155l132 -312h2l132 312h148l-209 -449v-291h-152zM23 572l52 168h147l-97 -168h-102z" />
    <glyph glyph-name="Omegatonos" unicode="&#x38f;" horiz-adv-x="849" 
d="M224 0v125h122q-13 12 -29 30t-40 54.5t-39.5 90t-15.5 112.5q0 159 83 250.5t208 91.5q126 0 208.5 -92t82.5 -250q0 -59 -15.5 -112.5t-40 -89.5t-40 -54.5t-29.5 -30.5h123v-125h-253v111q12 11 26 30.5t33 54t31.5 87.5t12.5 111q0 106 -36 168t-103 62t-103 -61.5
t-36 -168.5q0 -58 12.5 -110.5t31.5 -87.5t32.5 -54.5t25.5 -30.5v-111h-252zM23 572l52 168h147l-97 -168h-102z" />
    <glyph glyph-name="iotadieresistonos" unicode="&#x390;" horiz-adv-x="258" 
d="M-87 584v139h116v-139h-116zM55 0v533h148v-533h-148zM45 584l51 168h132l-97 -168h-86zM231 584v139h115v-139h-115z" />
    <glyph glyph-name="Alpha" unicode="&#x391;" horiz-adv-x="602" 
d="M194 156l-41 -156h-142l217 743h146l217 -743h-153l-40 156h-204zM367 274l-19 75q-43 168 -50 202h-2q-7 -37 -51 -201l-20 -76h142z" />
    <glyph glyph-name="Beta" unicode="&#x392;" horiz-adv-x="603" 
d="M61 0v740h253q233 0 233 -185q0 -137 -121 -170v-2q66 -13 102 -54.5t36 -126.5q0 -104 -68.5 -153t-172.5 -49h-262zM209 432h95q101 0 101 92q0 48 -24 70t-76 22h-96v-184zM209 119h104q106 0 106 103t-113 103h-97v-206z" />
    <glyph glyph-name="Gamma" unicode="&#x393;" horiz-adv-x="494" 
d="M213 0h-151v740h415v-128h-264v-612z" />
    <glyph glyph-name="uni0394" unicode="&#x394;" horiz-adv-x="602" 
d="M12 0l216 743h146l217 -743h-579zM409 118l-61 231q-43 168 -50 202h-2q-7 -37 -51 -201l-62 -232h226z" />
    <glyph glyph-name="Epsilon" unicode="&#x395;" horiz-adv-x="526" 
d="M61 0v740h424v-128h-272v-167h196v-121h-196v-199h286v-125h-438z" />
    <glyph glyph-name="Zeta" unicode="&#x396;" horiz-adv-x="551" 
d="M22 0v110l319 502h-297v128h476v-113l-314 -502h314v-125h-498z" />
    <glyph glyph-name="Eta" unicode="&#x397;" horiz-adv-x="647" 
d="M61 0v740h152v-290h221v290h152v-740h-152v324h-221v-324h-152z" />
    <glyph glyph-name="Theta" unicode="&#x398;" horiz-adv-x="652" 
d="M246 317v108h169v-108h-169zM326 -14q-128 0 -211 97.5t-83 286.5t83 286.5t211 97.5q127 0 210 -97.5t83 -286.5t-83 -286.5t-210 -97.5zM326 112q68 0 104 67t36 191q0 123 -36 188.5t-104 65.5q-69 0 -105 -65.5t-36 -188.5q0 -124 36 -191t105 -67z" />
    <glyph glyph-name="Iota" unicode="&#x399;" horiz-adv-x="285" 
d="M67 0v740h152v-740h-152z" />
    <glyph glyph-name="Kappa" unicode="&#x39a;" horiz-adv-x="606" 
d="M61 0v740h151v-322q29 53 64 106l137 216h162l-198 -291l222 -449h-164l-156 319l-67 -92v-227h-151z" />
    <glyph glyph-name="Lambda" unicode="&#x39b;" horiz-adv-x="593" 
d="M370 743l209 -743h-153l-87 350q-29 114 -45 197h-2q-7 -36 -46 -195l-90 -352h-142l209 743h147z" />
    <glyph glyph-name="Mu" unicode="&#x39c;" horiz-adv-x="767" 
d="M61 0v740h194l130 -529h1l122 529h197v-740h-144v520h-2q-6 -63 -38 -182l-88 -338h-113l-86 338q-31 119 -38 186h-2v-524h-133z" />
    <glyph glyph-name="Nu" unicode="&#x39d;" horiz-adv-x="652" 
d="M61 0v740h157l170 -332q35 -68 60 -127h2v459h138v-740h-141l-192 359q-32 61 -54 110h-2v-469h-138z" />
    <glyph glyph-name="Xi" unicode="&#x39e;" horiz-adv-x="545" 
d="M30 0v125h173v200h-111v120h111v167h-168v128h478v-128h-165v-167h109v-120h-109v-200h167v-125h-485z" />
    <glyph glyph-name="Omicron" unicode="&#x39f;" horiz-adv-x="652" 
d="M326 -14q-128 0 -211 97.5t-83 286.5t83 286.5t211 97.5q127 0 210 -97.5t83 -286.5t-83 -286.5t-210 -97.5zM326 112q68 0 104 67t36 191q0 123 -36 188.5t-104 65.5q-69 0 -105 -65.5t-36 -188.5q0 -124 36 -191t105 -67z" />
    <glyph glyph-name="Pi" unicode="&#x3a0;" horiz-adv-x="642" 
d="M62 0v740h518v-740h-151v612h-216v-612h-151z" />
    <glyph glyph-name="Rho" unicode="&#x3a1;" horiz-adv-x="573" 
d="M61 0v740h224q115 0 186.5 -55t71.5 -183q0 -70 -22 -120t-60.5 -76t-82 -37t-95.5 -11h-72v-258h-150zM211 378h76q59 0 85 29t26 91q0 60 -26 87.5t-86 27.5h-75v-235z" />
    <glyph glyph-name="Sigma" unicode="&#x3a3;" horiz-adv-x="538" 
d="M22 0v110l174 272l-155 245v113h466v-128h-286l146 -230l-161 -257h303v-125h-487z" />
    <glyph glyph-name="Tau" unicode="&#x3a4;" horiz-adv-x="537" 
d="M192 0v612h-176v128h505v-128h-177v-612h-152z" />
    <glyph glyph-name="Upsilon" unicode="&#x3a5;" horiz-adv-x="575" 
d="M211 0v290l-208 450h155l132 -312h2l132 312h148l-209 -449v-291h-152z" />
    <glyph glyph-name="Phi" unicode="&#x3a6;" horiz-adv-x="723" 
d="M290 0v86q-118 15 -191 87.5t-73 196.5q0 131 73 208t191 93v69h144v-69q118 -16 191 -93t73 -208q0 -124 -73 -196.5t-191 -87.5v-86h-144zM178 370q0 -127 112 -155v322q-112 -29 -112 -167zM545 370q0 67 -29 110t-82 57v-322q111 28 111 155z" />
    <glyph glyph-name="Chi" unicode="&#x3a7;" horiz-adv-x="602" 
d="M17 0l202 391l-180 349h165l105 -225l101 225h147l-177 -344l203 -396h-162l-129 271l-125 -271h-150z" />
    <glyph glyph-name="Psi" unicode="&#x3a8;" horiz-adv-x="742" 
d="M698 740v-291q0 -269 -253 -283v-166h-147v166q-253 12 -253 283v291h147v-289q0 -72 25 -108.5t81 -42.5v440h147v-440q59 5 82.5 38.5t23.5 112.5v289h147z" />
    <glyph glyph-name="uni03A9" unicode="&#x3a9;" horiz-adv-x="672" 
d="M47 0v125h122q-13 12 -29 30t-40 54.5t-39.5 90t-15.5 112.5q0 159 83 250.5t208 91.5q126 0 208.5 -92t82.5 -250q0 -59 -15.5 -112.5t-40 -89.5t-40 -54.5t-29.5 -30.5h123v-125h-253v111q12 11 26 30.5t33 54t31.5 87.5t12.5 111q0 106 -36 168t-103 62t-103 -61.5
t-36 -168.5q0 -58 12.5 -110.5t31.5 -87.5t32.5 -54.5t25.5 -30.5v-111h-252z" />
    <glyph glyph-name="Iotadieresis" unicode="&#x3aa;" horiz-adv-x="285" 
d="M67 0v740h152v-740h-152zM176 781v138h124v-138h-124zM-15 781v138h126v-138h-126z" />
    <glyph glyph-name="Upsilondieresis" unicode="&#x3ab;" horiz-adv-x="575" 
d="M211 0v290l-208 450h155l132 -312h2l132 312h148l-209 -449v-291h-152zM321 781v138h124v-138h-124zM130 781v138h126v-138h-126z" />
    <glyph glyph-name="alphatonos" unicode="&#x3ac;" horiz-adv-x="534" 
d="M337 0v67q-57 -75 -138 -75t-127 67t-46 205q0 139 47 209.5t127 70.5q84 0 137 -71v60h147v-533h-147zM255 107q37 0 82 47v220q-42 46 -83 46t-60.5 -37t-19.5 -118q0 -158 81 -158zM210 587l80 166h145l-124 -166h-101z" />
    <glyph glyph-name="epsilontonos" unicode="&#x3ad;" horiz-adv-x="454" 
d="M383 159l55 -101q-90 -69 -209 -69q-105 0 -152 41.5t-47 109.5q0 56 27 92.5t73 49.5q-36 11 -58 40.5t-22 75.5q0 68 48.5 107t133.5 39q116 0 190 -51l-54 -100q-55 37 -121 37q-63 0 -63 -57q0 -49 54 -49h94v-94h-97q-32 0 -49.5 -17t-17.5 -47q0 -31 17.5 -45.5
t57.5 -14.5q70 0 140 53zM185 587l80 166h145l-124 -166h-101z" />
    <glyph glyph-name="etatonos" unicode="&#x3ae;" horiz-adv-x="532" 
d="M216 587l80 166h145l-124 -166h-101zM50 0v533h148v-74q23 33 65 59t94 26q129 0 129 -140v-604h-147v557q0 62 -48 62q-41 0 -93 -48v-371h-148z" />
    <glyph glyph-name="iotatonos" unicode="&#x3af;" horiz-adv-x="258" 
d="M79 587l80 166h145l-124 -166h-101zM55 0v533h148v-533h-148z" />
    <glyph glyph-name="upsilondieresistonos" unicode="&#x3b0;" horiz-adv-x="525" 
d="M370 584v139h122v-139h-122zM30 584v139h123v-139h-123zM168 584l52 168h147l-97 -168h-102zM262 110q71 0 71 118v305h147v-305q0 -119 -51 -179t-166 -60q-116 0 -167 60.5t-51 178.5v305h147v-305q0 -63 17.5 -90.5t52.5 -27.5z" />
    <glyph glyph-name="alpha" unicode="&#x3b1;" horiz-adv-x="534" 
d="M337 0v67q-57 -75 -138 -75t-127 67t-46 205q0 139 47 209.5t127 70.5q84 0 137 -71v60h147v-533h-147zM255 107q37 0 82 47v220q-42 46 -83 46t-60.5 -37t-19.5 -118q0 -158 81 -158z" />
    <glyph glyph-name="beta" unicode="&#x3b2;" horiz-adv-x="584" 
d="M369 -10q-83 0 -143 37l48 101q39 -23 79 -23q34 0 53 25.5t19 74.5q0 66 -39 96.5t-128 35.5v97q111 1 111 104q0 36 -21 58.5t-59 22.5q-89 0 -89 -112v-707h-147v704q0 116 63.5 176t173.5 60q101 0 159 -47t58 -133q0 -61 -31.5 -103t-80.5 -59q81 -14 125 -65
t44 -127q0 -97 -51.5 -156.5t-143.5 -59.5z" />
    <glyph glyph-name="gamma" unicode="&#x3b3;" horiz-adv-x="469" 
d="M161 -200v180l-161 553h149l59 -238q28 -124 31 -145h2q12 69 31 144l60 239h137l-160 -553v-180h-148z" />
    <glyph glyph-name="delta" unicode="&#x3b4;" horiz-adv-x="520" 
d="M260 -11q-100 0 -167.5 69t-67.5 208q0 112 46 179t122 84q7 0 11 -3l-108 119v95h355v-108h-160l95 -101q57 -60 83 -122t26 -143q0 -139 -67.5 -208t-167.5 -69zM260 102q45 0 66 40t21 124q0 102 -45 154q-8 4 -42 4q-88 0 -87 -158q0 -164 87 -164z" />
    <glyph glyph-name="epsilon" unicode="&#x3b5;" horiz-adv-x="454" 
d="M383 159l55 -101q-90 -69 -209 -69q-105 0 -152 41.5t-47 109.5q0 56 27 92.5t73 49.5q-36 11 -58 40.5t-22 75.5q0 68 48.5 107t133.5 39q116 0 190 -51l-54 -100q-55 37 -121 37q-63 0 -63 -57q0 -49 54 -49h94v-94h-97q-32 0 -49.5 -17t-17.5 -47q0 -31 17.5 -45.5
t57.5 -14.5q70 0 140 53z" />
    <glyph glyph-name="zeta" unicode="&#x3b6;" horiz-adv-x="427" 
d="M271 -203q-81 0 -132 38l33 67q38 -27 88 -27q60 0 60 58q0 29 -15.5 41t-54.5 16q-107 8 -162 72t-55 166q0 215 208 403h-201v109h377v-85q-137 -144 -189 -229t-52 -181q0 -67 21 -102.5t76 -41.5q72 -8 111.5 -39.5t39.5 -110.5q0 -69 -39 -111.5t-114 -42.5z" />
    <glyph glyph-name="eta" unicode="&#x3b7;" horiz-adv-x="532" 
d="M50 0v533h148v-74q23 33 65 59t94 26q129 0 129 -140v-604h-147v557q0 62 -48 62q-41 0 -93 -48v-371h-148z" />
    <glyph glyph-name="theta" unicode="&#x3b8;" horiz-adv-x="511" 
d="M33 369q0 184 55.5 280.5t166.5 96.5q110 0 166.5 -97t56.5 -279q0 -184 -56 -282.5t-167 -98.5q-222 0 -222 380zM254 637q-46 0 -63.5 -53t-18.5 -158h167q-2 103 -21 157t-64 54zM255 98q47 0 65.5 56t18.5 167h-167q1 -113 18.5 -168t64.5 -55z" />
    <glyph glyph-name="iota" unicode="&#x3b9;" horiz-adv-x="258" 
d="M55 0v533h148v-533h-148z" />
    <glyph glyph-name="kappa" unicode="&#x3ba;" horiz-adv-x="499" 
d="M50 0v533h145v-215q10 20 50 84l84 131h149l-140 -198l151 -335h-149l-95 216l-50 -70v-146h-145z" />
    <glyph glyph-name="lambda" unicode="&#x3bb;" horiz-adv-x="481" 
d="M-1 0l169 539l-11 34q-8 27 -22 38.5t-40 11.5q-34 0 -77 -10l-29 116q51 15 126 15q73 0 113 -36.5t64 -113.5l187 -594h-152l-54 203q-26 104 -39 169h-2q-8 -44 -37 -165l-53 -207h-143z" />
    <glyph glyph-name="uni03BC" unicode="&#x3bc;" horiz-adv-x="535" 
d="M49 -200v733h148v-358q0 -63 48 -63q44 0 92 43v378h148v-533h-148v73q-46 -61 -114 -74q-17 -2 -26 6v-205h-148z" />
    <glyph glyph-name="nu" unicode="&#x3bd;" horiz-adv-x="469" 
d="M155 -1l-155 534h149l59 -238q21 -92 31 -145h2q12 69 31 144l60 239h137l-155 -534h-159z" />
    <glyph glyph-name="xi" unicode="&#x3be;" horiz-adv-x="422" 
d="M262 -204q-81 0 -132 38l34 67q36 -27 88 -27q60 0 60 58q0 30 -16 42.5t-56 16.5q-117 10 -164.5 64.5t-47.5 139.5q0 91 50 141.5t121 59.5q-49 14 -78.5 49t-29.5 91q0 64 44 95h-101v109h407v-110h-132q-82 -6 -82 -95q0 -102 121 -102v-108q-88 -2 -136.5 -29
t-48.5 -90q0 -94 102 -104q72 -7 111 -40t39 -112q0 -69 -39 -111.5t-114 -42.5z" />
    <glyph glyph-name="omicron" unicode="&#x3bf;" horiz-adv-x="520" 
d="M260 -11q-100 0 -167.5 69t-67.5 208q0 141 67 209.5t168 68.5q100 0 167.5 -69t67.5 -209q0 -139 -67.5 -208t-167.5 -69zM260 102q87 0 87 164q0 161 -87 161t-87 -161q0 -164 87 -164z" />
    <glyph glyph-name="pi" unicode="&#x3c0;" horiz-adv-x="595" 
d="M7 416v117h581v-117h-73v-416h-146v416h-141v-416h-148v416h-73z" />
    <glyph glyph-name="rho" unicode="&#x3c1;" horiz-adv-x="534" 
d="M50 -200v467q0 141 64.5 209t162.5 68q99 0 165 -68t66 -209q0 -138 -46.5 -206.5t-127.5 -68.5q-86 0 -136 69v-261h-148zM198 266v-114q43 -45 83 -45q79 0 79 159q0 161 -83 161q-42 0 -60.5 -39t-18.5 -122z" />
    <glyph glyph-name="sigma1" unicode="&#x3c2;" horiz-adv-x="478" 
d="M276 -204q-81 0 -132 38l33 67q36 -27 88 -27q61 0 61 58q0 30 -16.5 43t-55.5 16q-103 6 -166 71.5t-63 203.5q0 141 68 209.5t165 68.5q91 0 137.5 -46t66.5 -129l-130 -31q-12 49 -29 70.5t-47 21.5q-83 0 -83 -164q0 -86 22.5 -126t86.5 -44q69 -4 107.5 -35.5
t38.5 -110.5q0 -69 -39 -111.5t-113 -42.5z" />
    <glyph glyph-name="sigma" unicode="&#x3c3;" horiz-adv-x="539" 
d="M260 -11q-100 0 -167.5 69t-67.5 208q0 140 67.5 203.5t176.5 63.5h256v-109h-73q43 -56 43 -158q0 -139 -67.5 -208t-167.5 -69zM260 102q46 0 66.5 40t20.5 124q0 110 -45 158h-35q-94 0 -94 -158q0 -164 87 -164z" />
    <glyph glyph-name="tau" unicode="&#x3c4;" horiz-adv-x="422" 
d="M281 0h-139v424h-135v109h408v-109h-134v-424z" />
    <glyph glyph-name="upsilon" unicode="&#x3c5;" horiz-adv-x="525" 
d="M262 110q71 0 71 118v305h147v-305q0 -119 -51 -179t-166 -60q-116 0 -167 60.5t-51 178.5v305h147v-305q0 -63 17.5 -90.5t52.5 -27.5z" />
    <glyph glyph-name="phi" unicode="&#x3c6;" horiz-adv-x="660" 
d="M264 -200v189q-99 3 -169 70t-70 207q0 142 70 208.5t169 68.5v197h131v-197q46 -1 86.5 -16t76 -46t56 -86t20.5 -129q0 -73 -20.5 -127.5t-56 -86t-76 -47t-86.5 -16.5v-189h-131zM264 102v324q-92 -3 -92 -161q0 -157 92 -163zM395 102q92 6 92 163q0 74 -23 117
t-69 44v-324z" />
    <glyph glyph-name="chi" unicode="&#x3c7;" horiz-adv-x="469" 
d="M6 0l156 274l-143 259h152l76 -150l69 150h140l-144 -253l155 -280h-152l-85 168l-83 -168h-141z" />
    <glyph glyph-name="psi" unicode="&#x3c8;" horiz-adv-x="709" 
d="M281 -200v190q-125 0 -181 62t-56 180v301h146v-303q0 -112 91 -114v624h146v-624q92 3 92 114v303h146v-301q0 -118 -56.5 -180t-181.5 -62v-190h-146z" />
    <glyph glyph-name="omega" unicode="&#x3c9;" horiz-adv-x="698" 
d="M283 363h131v-168q0 -82 50 -82q60 0 60 142q0 86 -30.5 160t-85.5 118h157q48 -48 77.5 -124t29.5 -166q0 -118 -46.5 -186t-140.5 -68q-52 0 -87 29t-49 69q-36 -98 -137 -98q-93 0 -139 68t-46 186q0 90 29 166.5t77 123.5h157q-55 -44 -85.5 -118t-30.5 -160
q0 -142 60 -142q49 0 49 82v168z" />
    <glyph glyph-name="iotadieresis" unicode="&#x3ca;" horiz-adv-x="258" 
d="M162 584v138h124v-138h-124zM-29 584v138h126v-138h-126zM55 0v533h148v-533h-148z" />
    <glyph glyph-name="upsilondieresis" unicode="&#x3cb;" horiz-adv-x="525" 
d="M294 584v138h124v-138h-124zM103 584v138h126v-138h-126zM262 110q71 0 71 118v305h147v-305q0 -119 -51 -179t-166 -60q-116 0 -167 60.5t-51 178.5v305h147v-305q0 -63 17.5 -90.5t52.5 -27.5z" />
    <glyph glyph-name="omicrontonos" unicode="&#x3cc;" horiz-adv-x="520" 
d="M206 587l80 166h145l-124 -166h-101zM260 -11q-100 0 -167.5 69t-67.5 208q0 141 67 209.5t168 68.5q100 0 167.5 -69t67.5 -209q0 -139 -67.5 -208t-167.5 -69zM260 102q87 0 87 164q0 161 -87 161t-87 -161q0 -164 87 -164z" />
    <glyph glyph-name="upsilontonos" unicode="&#x3cd;" horiz-adv-x="525" 
d="M262 110q71 0 71 118v305h147v-305q0 -119 -51 -179t-166 -60q-116 0 -167 60.5t-51 178.5v305h147v-305q0 -63 17.5 -90.5t52.5 -27.5zM210 587l80 166h145l-124 -166h-101z" />
    <glyph glyph-name="omegatonos" unicode="&#x3ce;" horiz-adv-x="698" 
d="M299 587l80 166h145l-124 -166h-101zM283 363h131v-168q0 -82 50 -82q60 0 60 142q0 86 -30.5 160t-85.5 118h157q48 -48 77.5 -124t29.5 -166q0 -118 -46.5 -186t-140.5 -68q-52 0 -87 29t-49 69q-36 -98 -137 -98q-93 0 -139 68t-46 186q0 90 29 166.5t77 123.5h157
q-55 -44 -85.5 -118t-30.5 -160q0 -142 60 -142q49 0 49 82v168z" />
    <glyph glyph-name="afii10023" unicode="&#x401;" horiz-adv-x="526" 
d="M306 781v138h124v-138h-124zM115 781v138h126v-138h-126zM61 0v740h424v-128h-272v-167h196v-121h-196v-199h286v-125h-438z" />
    <glyph glyph-name="afii10051" unicode="&#x402;" horiz-adv-x="729" 
d="M193 0v612h-177v128h505v-128h-177v-195q53 91 153 91q92 0 150 -67.5t58 -178.5q0 -125 -65.5 -193.5t-193.5 -68.5v112q53 0 82 34t29 99q0 58 -28.5 94.5t-75.5 36.5q-62 0 -109 -51v-325h-151z" />
    <glyph glyph-name="afii10052" unicode="&#x403;" horiz-adv-x="494" 
d="M193 784l80 166h145l-124 -166h-101zM213 0h-151v740h415v-128h-264v-612z" />
    <glyph glyph-name="afii10053" unicode="&#x404;" horiz-adv-x="590" 
d="M316 -13q-132 0 -208 95.5t-76 288.5q0 191 78 287t210 96q104 0 161.5 -53.5t80.5 -155.5l-140 -30q-13 56 -38.5 83t-68.5 27q-113 0 -127 -184h174v-121h-176q11 -208 131 -208q45 0 71.5 27.5t40.5 88.5l135 -32q-54 -209 -248 -209z" />
    <glyph glyph-name="afii10054" unicode="&#x405;" horiz-adv-x="588" 
d="M305 -13q-193 0 -278 176l123 62q58 -117 155 -117q47 0 72.5 23t25.5 61q0 22 -9.5 39.5t-31 32t-39.5 24t-51 23.5q-42 18 -61 26.5t-55 31t-53.5 44t-32 57t-14.5 78.5q0 91 66.5 148.5t168.5 57.5q170 0 249 -165l-118 -64q-52 104 -134 104q-39 0 -61 -21t-22 -53
q0 -40 30 -64.5t92 -52.5q101 -44 137 -70q88 -64 88 -170q0 -89 -65.5 -150t-181.5 -61z" />
    <glyph glyph-name="afii10055" unicode="&#x406;" horiz-adv-x="285" 
d="M67 0v740h152v-740h-152z" />
    <glyph glyph-name="afii10056" unicode="&#x407;" horiz-adv-x="285" 
d="M67 0v740h152v-740h-152zM176 781v138h124v-138h-124zM-15 781v138h126v-138h-126z" />
    <glyph glyph-name="afii10057" unicode="&#x408;" horiz-adv-x="457" 
d="M204 -11q-109 0 -195 56l61 111q59 -37 115 -37q68 0 68 82v539h152v-554q0 -93 -50.5 -145t-150.5 -52z" />
    <glyph glyph-name="afii10058" unicode="&#x409;" horiz-adv-x="976" 
d="M256 612v-397q0 -109 -55 -162t-179 -53v128q43 0 63 20.5t20 66.5v525h509v-278h74q115 0 186.5 -53t71.5 -176q0 -67 -22 -114.5t-61 -72.5t-82 -35.5t-95 -10.5h-221v612h-209zM614 120h76q59 0 85 26.5t26 83.5q0 55 -26 80t-86 25h-75v-215z" />
    <glyph glyph-name="afii10059" unicode="&#x40a;" horiz-adv-x="946" 
d="M434 0v324h-221v-324h-151v740h151v-290h221v290h150v-278h74q115 0 186.5 -53t71.5 -176q0 -67 -22 -114.5t-61 -72.5t-82 -35.5t-96 -10.5h-221zM584 120h76q59 0 85 26.5t26 83.5q0 55 -26.5 80t-85.5 25h-75v-215z" />
    <glyph glyph-name="afii10060" unicode="&#x40b;" horiz-adv-x="679" 
d="M193 0v612h-177v128h505v-128h-177v-190q25 33 66.5 58.5t92.5 25.5q130 0 130 -140v-366h-147v320q0 62 -48 62q-42 0 -94 -48v-334h-151z" />
    <glyph glyph-name="afii10061" unicode="&#x40c;" horiz-adv-x="606" 
d="M262 784l80 166h145l-124 -166h-101zM61 0v740h151v-322q29 53 64 106l137 216h162l-198 -291l222 -449h-164l-156 319l-67 -92v-227h-151z" />
    <glyph glyph-name="afii10062" unicode="&#x40e;" horiz-adv-x="617" 
d="M93 155q41 -37 86 -37q28 0 43.5 16t30.5 52l8 20l-234 534h153l129 -311l18 -48l17 48l117 311h149l-236 -587q-35 -87 -79.5 -125.5t-112.5 -38.5q-89 0 -155 55zM321 780q-73 0 -111 47t-42 129h82q11 -85 71 -85q61 0 70 85h82q-4 -82 -42 -129t-110 -47z" />
    <glyph glyph-name="afii10145" unicode="&#x40f;" horiz-adv-x="662" 
d="M62 0v740h151v-615h216v615h151v-740h-183v-200h-152v200h-183z" />
    <glyph glyph-name="afii10017" unicode="&#x410;" horiz-adv-x="602" 
d="M194 156l-41 -156h-142l217 743h146l217 -743h-153l-40 156h-204zM367 274l-19 75q-43 168 -50 202h-2q-7 -37 -51 -201l-20 -76h142z" />
    <glyph glyph-name="afii10018" unicode="&#x411;" horiz-adv-x="573" 
d="M62 0v740h415v-128h-266v-150h74q115 0 186.5 -53t71.5 -176q0 -67 -22 -114.5t-61 -72.5t-82 -35.5t-95 -10.5h-221zM211 120h76q59 0 85 26.5t26 83.5q0 55 -26 80t-86 25h-75v-215z" />
    <glyph glyph-name="afii10019" unicode="&#x412;" horiz-adv-x="603" 
d="M61 0v740h253q233 0 233 -185q0 -137 -121 -170v-2q66 -13 102 -54.5t36 -126.5q0 -104 -68.5 -153t-172.5 -49h-262zM209 432h95q101 0 101 92q0 48 -24 70t-76 22h-96v-184zM209 119h104q106 0 106 103t-113 103h-97v-206z" />
    <glyph glyph-name="afii10020" unicode="&#x413;" horiz-adv-x="494" 
d="M213 0h-151v740h415v-128h-264v-612z" />
    <glyph glyph-name="afii10021" unicode="&#x414;" horiz-adv-x="704" 
d="M10 -201v337h34q62 0 70 94l41 510h448v-604h85v-337h-151v201h-376v-201h-151zM233 136h217v456h-159l-31 -385q-4 -56 -27 -71z" />
    <glyph glyph-name="afii10022" unicode="&#x415;" horiz-adv-x="526" 
d="M61 0v740h424v-128h-272v-167h196v-121h-196v-199h286v-125h-438z" />
    <glyph glyph-name="afii10024" unicode="&#x416;" horiz-adv-x="929" 
d="M602 320l-67 -92v-228h-141v228l-67 92l-156 -320h-164l222 449l-198 291h162l138 -216q47 -73 63 -106v322h141v-322q20 36 64 106l138 216h162l-199 -291l222 -449h-164z" />
    <glyph glyph-name="afii10025" unicode="&#x417;" horiz-adv-x="549" 
d="M268 -13q-187 0 -257 167l119 53q42 -101 131 -101q50 0 79 29.5t29 74.5q0 64 -39 93t-118 29h-34v113h43q73 0 102 26.5t29 79.5q0 36 -20 58t-63 22q-75 0 -128 -78l-101 68q91 133 242 133q100 0 158.5 -51t58.5 -135q0 -64 -33.5 -110t-91.5 -63q142 -41 142 -188
q0 -102 -68.5 -161t-179.5 -59z" />
    <glyph glyph-name="afii10026" unicode="&#x418;" horiz-adv-x="652" 
d="M588 740v-740h-138v469h-2q-22 -49 -54 -110l-192 -359h-141v740h138v-459h2q25 59 60 127l170 332h157z" />
    <glyph glyph-name="afii10027" unicode="&#x419;" horiz-adv-x="652" 
d="M588 0v740h-157l-170 -332q-35 -68 -60 -127h-2v459h-138v-740h141l192 359q32 61 54 110h2v-469h138zM322 780q-73 0 -111 47t-42 129h82q11 -85 71 -85q61 0 70 85h82q-4 -82 -42 -129t-110 -47z" />
    <glyph glyph-name="afii10028" unicode="&#x41a;" horiz-adv-x="606" 
d="M61 0v740h151v-322q29 53 64 106l137 216h162l-198 -291l222 -449h-164l-156 319l-67 -92v-227h-151z" />
    <glyph glyph-name="afii10029" unicode="&#x41b;" horiz-adv-x="678" 
d="M256 612v-397q0 -109 -55 -162t-179 -53v128q43 0 63 20.5t20 66.5v525h511v-740h-151v612h-209z" />
    <glyph glyph-name="afii10030" unicode="&#x41c;" horiz-adv-x="767" 
d="M61 0v740h194l130 -529h1l122 529h197v-740h-144v520h-2q-6 -63 -38 -182l-88 -338h-113l-86 338q-31 119 -38 186h-2v-524h-133z" />
    <glyph glyph-name="afii10031" unicode="&#x41d;" horiz-adv-x="647" 
d="M61 0v740h152v-290h221v290h152v-740h-152v324h-221v-324h-152z" />
    <glyph glyph-name="afii10032" unicode="&#x41e;" horiz-adv-x="652" 
d="M326 -14q-128 0 -211 97.5t-83 286.5t83 286.5t211 97.5q127 0 210 -97.5t83 -286.5t-83 -286.5t-210 -97.5zM326 112q68 0 104 67t36 191q0 123 -36 188.5t-104 65.5q-69 0 -105 -65.5t-36 -188.5q0 -124 36 -191t105 -67z" />
    <glyph glyph-name="afii10033" unicode="&#x41f;" horiz-adv-x="642" 
d="M62 0v740h518v-740h-151v612h-216v-612h-151z" />
    <glyph glyph-name="afii10034" unicode="&#x420;" horiz-adv-x="573" 
d="M61 0v740h224q115 0 186.5 -55t71.5 -183q0 -70 -22 -120t-60.5 -76t-82 -37t-95.5 -11h-72v-258h-150zM211 378h76q59 0 85 29t26 91q0 60 -26 87.5t-86 27.5h-75v-235z" />
    <glyph glyph-name="afii10035" unicode="&#x421;" horiz-adv-x="605" 
d="M316 -13q-133 0 -208.5 95t-75.5 289q0 191 78 287t210 96q115 0 175 -66t77 -189l-143 -25q-13 79 -38.5 114.5t-75.5 35.5q-130 0 -130 -253q0 -259 132 -259q51 0 78.5 37t41.5 123l143 -23q-47 -262 -264 -262z" />
    <glyph glyph-name="afii10036" unicode="&#x422;" horiz-adv-x="537" 
d="M192 0v612h-176v128h505v-128h-177v-612h-152z" />
    <glyph glyph-name="afii10037" unicode="&#x423;" horiz-adv-x="617" 
d="M93 155q41 -37 86 -37q28 0 43.5 16t30.5 52l8 20l-234 534h153l129 -311l18 -48l17 48l117 311h149l-236 -587q-35 -87 -79.5 -125.5t-112.5 -38.5q-89 0 -155 55z" />
    <glyph glyph-name="afii10038" unicode="&#x424;" horiz-adv-x="723" 
d="M290 0v86q-118 15 -191 87.5t-73 196.5q0 131 73 208t191 93v69h144v-69q118 -16 191 -93t73 -208q0 -124 -73 -196.5t-191 -87.5v-86h-144zM178 370q0 -127 112 -155v322q-112 -29 -112 -167zM545 370q0 67 -29 110t-82 57v-322q111 28 111 155z" />
    <glyph glyph-name="afii10039" unicode="&#x425;" horiz-adv-x="602" 
d="M17 0l202 391l-180 349h165l105 -225l101 225h147l-177 -344l203 -396h-162l-129 271l-125 -271h-150z" />
    <glyph glyph-name="afii10040" unicode="&#x426;" horiz-adv-x="664" 
d="M488 -200v200h-426v740h151v-615h216v615h151v-615h60v-325h-152z" />
    <glyph glyph-name="afii10041" unicode="&#x427;" horiz-adv-x="616" 
d="M403 0v300q-53 -39 -142 -39q-100 0 -153.5 52.5t-53.5 176.5v250h152v-234q0 -64 19.5 -90.5t70.5 -26.5q57 0 107 35v316h152v-740h-152z" />
    <glyph glyph-name="afii10042" unicode="&#x428;" horiz-adv-x="950" 
d="M62 0v740h150v-615h188v615h150v-615h189v615h150v-740h-827z" />
    <glyph glyph-name="afii10043" unicode="&#x429;" horiz-adv-x="973" 
d="M62 0v740h150v-615h188v615h150v-615h189v615h150v-615h60v-325h-152v200h-735z" />
    <glyph glyph-name="afii10044" unicode="&#x42a;" horiz-adv-x="714" 
d="M203 0v612h-182v128h331v-278h74q115 0 186.5 -53t71.5 -176q0 -67 -22 -114.5t-61 -72.5t-82 -35.5t-95 -10.5h-221zM352 120h76q59 0 85 26.5t26 83.5q0 55 -26 80t-86 25h-75v-215z" />
    <glyph glyph-name="afii10045" unicode="&#x42b;" horiz-adv-x="858" 
d="M640 0v740h152v-740h-152zM62 0v740h149v-278h74q115 0 186.5 -53t71.5 -176q0 -67 -22 -114.5t-61 -72.5t-82 -35.5t-95 -10.5h-221zM211 120h76q59 0 85 26.5t26 83.5q0 55 -26 80t-86 25h-75v-215z" />
    <glyph glyph-name="afii10046" unicode="&#x42c;" horiz-adv-x="573" 
d="M62 0v740h149v-278h74q115 0 186.5 -53t71.5 -176q0 -67 -22 -114.5t-61 -72.5t-82 -35.5t-95 -10.5h-221zM211 120h76q59 0 85 26.5t26 83.5q0 55 -26 80t-86 25h-75v-215z" />
    <glyph glyph-name="afii10047" unicode="&#x42d;" horiz-adv-x="590" 
d="M274 -13q-194 0 -248 209l135 32q14 -61 40.5 -88.5t71.5 -27.5q120 0 131 208h-176v121h174q-14 184 -127 184q-43 0 -68.5 -27t-38.5 -83l-140 30q23 102 80.5 155.5t161.5 53.5q132 0 210 -96t78 -287q0 -193 -76 -288.5t-208 -95.5z" />
    <glyph glyph-name="afii10048" unicode="&#x42e;" horiz-adv-x="901" 
d="M585 -14q-115 0 -193.5 86t-88.5 252h-91v-324h-151v740h151v-290h94q17 150 93.5 227t185.5 77q123 0 203 -97.5t80 -286.5t-80 -286.5t-203 -97.5zM585 112q63 0 97 67t34 191q0 123 -33.5 189t-97.5 66t-97.5 -66t-33.5 -189q0 -124 34 -191t97 -67z" />
    <glyph glyph-name="afii10049" unicode="&#x42f;" horiz-adv-x="593" 
d="M532 740v-740h-149v274h-70l-125 -274h-157l141 311q-56 23 -89 73.5t-33 123.5q0 232 251 232h231zM306 390h77v223h-77q-57 0 -84 -24.5t-27 -83.5q0 -62 27 -88.5t84 -26.5z" />
    <glyph glyph-name="afii10065" unicode="&#x430;" horiz-adv-x="497" 
d="M151 -6q-59 0 -94.5 34t-35.5 105q0 160 287 212v22q0 31 -12.5 46t-41.5 15q-68 0 -147 -58l-67 88q99 86 242 86q88 0 128.5 -43t40.5 -134v-237q0 -95 13 -130h-146q-10 33 -10 72q-61 -78 -157 -78zM214 107q50 0 94 42v118q-77 -17 -110.5 -43t-33.5 -64
q0 -26 13.5 -39.5t36.5 -13.5z" />
    <glyph glyph-name="afii10066" unicode="&#x431;" horiz-adv-x="518" 
d="M260 -11q-105 0 -170 73t-65 217q0 50 3 104q24 348 280 353q73 0 121 14v-129q-34 -11 -110 -13q-142 -5 -151 -191q22 38 56.5 56t70.5 18q88 0 144 -65.5t56 -185.5q0 -110 -63.5 -180.5t-171.5 -70.5zM260 102q42 0 65 36t23 103t-22 104t-62 37q-42 0 -66.5 -36.5
t-24.5 -103.5q0 -66 22.5 -103t64.5 -37z" />
    <glyph glyph-name="afii10067" unicode="&#x432;" horiz-adv-x="496" 
d="M50 0v533h210q29 0 53 -2t51 -10t45.5 -21.5t30.5 -37.5t12 -57q0 -53 -29 -85t-74 -41v-1q55 -10 85.5 -38.5t30.5 -90.5q0 -54 -31.5 -89t-73.5 -47.5t-91 -12.5h-219zM188 107h67q70 0 70 60q0 57 -73 57h-64v-117zM188 316h59q69 0 69 57q0 51 -64 51h-64v-108z" />
    <glyph glyph-name="afii10068" unicode="&#x433;" horiz-adv-x="428" 
d="M409 533v-109h-211v-424h-148v533h359z" />
    <glyph glyph-name="afii10069" unicode="&#x434;" horiz-adv-x="573" 
d="M147 -201h-138v318q41 1 54 15t15 51l25 350h402v-416h55v-318h-139v201h-274v-201zM359 109v307h-118l-17 -244q-3 -47 -27 -63h162z" />
    <glyph glyph-name="afii10070" unicode="&#x435;" horiz-adv-x="494" 
d="M259 -11q-103 0 -168.5 68.5t-65.5 208.5q0 73 20.5 128.5t54 87t73 47t82.5 15.5q96 0 155 -70.5t59 -216.5v-27h-299q7 -131 96 -131q36 0 66.5 20t48.5 49l86 -69q-76 -110 -208 -110zM171 314h164q-7 117 -80 117t-84 -117z" />
    <glyph glyph-name="afii10072" unicode="&#x436;" horiz-adv-x="743" 
d="M10 0l151 335l-139 198h148l84 -131q35 -52 50 -84v215h135v-215q15 31 50 84l84 131h148l-139 -198l151 -335h-150l-94 216l-50 -70v-146h-135v146l-50 70l-94 -216h-150z" />
    <glyph glyph-name="afii10073" unicode="&#x437;" horiz-adv-x="448" 
d="M221 -11q-142 0 -209 108l87 76q45 -69 119 -69q37 0 58 16.5t21 45.5q0 30 -26 44t-86 14h-27v91h31q51 0 74 13.5t23 43.5q0 26 -17.5 41.5t-51.5 15.5q-58 0 -103 -52l-74 80q71 87 184 87q92 0 141.5 -41.5t49.5 -108.5q0 -50 -25.5 -82t-71.5 -39q109 -26 109 -124
q0 -71 -53.5 -115.5t-152.5 -44.5z" />
    <glyph glyph-name="afii10074" unicode="&#x438;" horiz-adv-x="540" 
d="M489 533v-533h-135v292q-10 -17 -82.5 -146t-82.5 -146h-139v533h134v-293l167 293h138z" />
    <glyph glyph-name="afii10075" unicode="&#x439;" horiz-adv-x="540" 
d="M489 533v-533h-135v292q-10 -17 -82.5 -146t-82.5 -146h-139v533h134v-293l167 293h138zM270 579q-73 0 -111 47t-42 129h82q11 -85 71 -85q61 0 70 85h82q-4 -82 -42 -129t-110 -47z" />
    <glyph glyph-name="afii10076" unicode="&#x43a;" horiz-adv-x="499" 
d="M50 0v533h145v-215q10 20 50 84l84 131h149l-140 -198l151 -335h-149l-95 216l-50 -70v-146h-145z" />
    <glyph glyph-name="afii10077" unicode="&#x43b;" horiz-adv-x="561" 
d="M363 0v424h-138v-246q0 -49 -12.5 -83t-29.5 -52t-49 -27.5t-57 -11.5t-67 -2v108q42 0 55 12t13 51v360h432v-533h-147z" />
    <glyph glyph-name="afii10078" unicode="&#x43c;" horiz-adv-x="644" 
d="M171 0h-121v533h178l94 -351h2l91 351h179v-533h-128v316h-1q-3 -15 -25 -101l-67 -215h-110l-66 216q-3 16 -12.5 51.5t-12.5 48.5h-1v-316z" />
    <glyph glyph-name="afii10079" unicode="&#x43d;" horiz-adv-x="536" 
d="M50 0v533h148v-206h141v206h147v-533h-147v218h-141v-218h-148z" />
    <glyph glyph-name="afii10080" unicode="&#x43e;" horiz-adv-x="520" 
d="M260 -11q-100 0 -167.5 69t-67.5 208q0 141 67 209.5t168 68.5q100 0 167.5 -69t67.5 -209q0 -139 -67.5 -208t-167.5 -69zM260 102q87 0 87 164q0 161 -87 161t-87 -161q0 -164 87 -164z" />
    <glyph glyph-name="afii10081" unicode="&#x43f;" horiz-adv-x="536" 
d="M50 0v533h436v-533h-147v424h-141v-424h-148z" />
    <glyph glyph-name="afii10082" unicode="&#x440;" horiz-adv-x="534" 
d="M50 -200v733h148v-71q55 82 138 82q80 0 126 -69.5t46 -207.5t-46.5 -206.5t-127.5 -68.5q-86 0 -136 69v-261h-148zM281 107q79 0 79 159q0 79 -19 116t-61 37q-38 0 -82 -48v-219q43 -45 83 -45z" />
    <glyph glyph-name="afii10083" unicode="&#x441;" horiz-adv-x="481" 
d="M253 -11q-97 0 -162.5 69t-65.5 208q0 141 68 209.5t165 68.5q91 0 137.5 -46t66.5 -129l-131 -31q-11 48 -28 69.5t-47 21.5q-83 0 -83 -163q0 -167 82 -167q62 0 82 97l127 -31q-44 -176 -211 -176z" />
    <glyph glyph-name="afii10084" unicode="&#x442;" horiz-adv-x="472" 
d="M163 0v416h-149v117h444v-117h-148v-416h-147z" />
    <glyph glyph-name="afii10085" unicode="&#x443;" horiz-adv-x="481" 
d="M117 -202q-76 0 -125 15l28 116q47 -10 78 -10q26 0 39.5 11t21.5 38l9 26l-169 539h154l53 -207q25 -102 37 -165h2q13 68 39 168l53 204h142l-185 -585q-25 -78 -64.5 -114t-112.5 -36z" />
    <glyph glyph-name="afii10086" unicode="&#x444;" horiz-adv-x="811" 
d="M332 -200v268q-53 -76 -135 -76q-80 0 -125.5 67t-45.5 205q0 139 46.5 209.5t125.5 70.5q84 0 134 -72v268h147v-278q57 82 136 82t124.5 -69.5t45.5 -207.5t-46 -206.5t-126 -68.5q-84 0 -134 69v-261h-147zM253 107q36 0 79 47v220q-41 46 -81 46t-58.5 -37
t-18.5 -118q0 -158 79 -158zM560 107q77 0 77 159q0 79 -18.5 116t-59.5 37q-36 0 -80 -48v-219q43 -45 81 -45z" />
    <glyph glyph-name="afii10087" unicode="&#x445;" horiz-adv-x="469" 
d="M6 0l156 274l-143 259h152l76 -150l69 150h140l-144 -253l155 -280h-152l-85 168l-83 -168h-141z" />
    <glyph glyph-name="afii10088" unicode="&#x446;" horiz-adv-x="556" 
d="M402 0h-352v533h148v-424h141v424h147v-424h54v-309h-138v200z" />
    <glyph glyph-name="afii10089" unicode="&#x447;" horiz-adv-x="527" 
d="M477 533v-533h-147v225q-23 -34 -64.5 -59.5t-95.5 -25.5q-130 0 -130 145v248h147v-202q0 -66 50 -66q47 0 93 52v216h147z" />
    <glyph glyph-name="afii10090" unicode="&#x448;" horiz-adv-x="800" 
d="M755 533v-533h-705v533h148v-424h131v424h147v-424h132v424h147z" />
    <glyph glyph-name="afii10091" unicode="&#x449;" horiz-adv-x="826" 
d="M672 0h-622v533h148v-424h131v424h147v-424h132v424h147v-424h55v-309h-138v200z" />
    <glyph glyph-name="afii10092" unicode="&#x44a;" horiz-adv-x="575" 
d="M127 0v424h-119v109h264v-172h53q38 0 68 -4t61 -15.5t51.5 -31t33.5 -52.5t13 -77q0 -181 -226 -181h-199zM272 250v-141h56q85 0 85 71q0 70 -85 70h-56z" />
    <glyph glyph-name="afii10093" unicode="&#x44b;" horiz-adv-x="734" 
d="M536 0v533h148v-533h-148zM50 0v533h146v-172h52q48 0 84.5 -7t71 -25t53 -55.5t18.5 -92.5q0 -181 -225 -181h-200zM196 250v-141h56q85 0 85 71q0 70 -85 70h-56z" />
    <glyph glyph-name="afii10094" unicode="&#x44c;" horiz-adv-x="499" 
d="M50 0v533h146v-172h52q48 0 84.5 -7t71 -25t53 -55.5t18.5 -92.5q0 -181 -225 -181h-200zM196 250v-141h56q85 0 85 71q0 70 -85 70h-56z" />
    <glyph glyph-name="afii10095" unicode="&#x44d;" horiz-adv-x="467" 
d="M214 -11q-150 0 -197 141l119 40q22 -71 76 -71q74 0 82 124h-138v90h137q-9 117 -82 117q-49 0 -70 -67l-122 33q20 72 64 110t126 38q97 0 165 -68.5t68 -209.5q0 -139 -65.5 -208t-162.5 -69z" />
    <glyph glyph-name="afii10096" unicode="&#x44e;" horiz-adv-x="725" 
d="M475 -11q-86 0 -147.5 57.5t-73.5 171.5h-59v-218h-145v533h142v-206h63q14 109 75 163t145 54q96 0 160.5 -69t64.5 -209q0 -139 -64.5 -208t-160.5 -69zM475 102q78 0 78 164q0 161 -78 161q-77 0 -77 -161q0 -164 77 -164z" />
    <glyph glyph-name="afii10097" unicode="&#x44f;" horiz-adv-x="510" 
d="M32 0l94 186q-90 39 -90 157q0 190 224 190h200v-533h-145v164h-56l-78 -164h-149zM259 274h56v148h-56q-83 0 -83 -76q0 -72 83 -72z" />
    <glyph glyph-name="afii10071" unicode="&#x451;" horiz-adv-x="494" 
d="M280 584v138h124v-138h-124zM89 584v138h126v-138h-126zM259 -11q-103 0 -168.5 68.5t-65.5 208.5q0 73 20.5 128.5t54 87t73 47t82.5 15.5q96 0 155 -70.5t59 -216.5v-27h-299q7 -131 96 -131q36 0 66.5 20t48.5 49l86 -69q-76 -110 -208 -110zM171 314h164
q-7 117 -80 117t-84 -117z" />
    <glyph glyph-name="afii10099" unicode="&#x452;" horiz-adv-x="532" 
d="M327 -202q-60 0 -75 5v105q9 -3 36 -3q51 0 51 61v391q0 62 -48 62q-41 0 -93 -48v-371h-148v572h-50v108h50v60h148v-60h87v-108h-87v-113q23 33 65 59t94 26q129 0 129 -140v-454q0 -74 -33.5 -113t-125.5 -39z" />
    <glyph glyph-name="afii10100" unicode="&#x453;" horiz-adv-x="428" 
d="M168 587l80 166h145l-124 -166h-101zM409 533v-109h-211v-424h-148v533h359z" />
    <glyph glyph-name="afii10101" unicode="&#x454;" horiz-adv-x="467" 
d="M253 -11q-97 0 -162.5 69t-65.5 208q0 141 68 209.5t165 68.5q82 0 126 -38t64 -110l-122 -33q-21 67 -70 67q-73 0 -82 -117h137v-90h-138q8 -124 82 -124q54 0 76 71l119 -40q-47 -141 -197 -141z" />
    <glyph glyph-name="afii10102" unicode="&#x455;" horiz-adv-x="464" 
d="M233 -12q-143 0 -224 92l77 83q32 -33 72.5 -52.5t76.5 -19.5q70 0 70 49q0 23 -20 38.5t-50 23.5t-64.5 21t-64.5 28.5t-50 49.5t-20 81q0 77 56.5 119.5t140.5 42.5q54 0 107 -22.5t88 -62.5l-77 -82q-63 60 -119 60q-58 0 -58 -46q0 -26 27.5 -42.5t67 -27.5t79 -26.5
t67 -51.5t27.5 -92q0 -77 -60.5 -120t-148.5 -43z" />
    <glyph glyph-name="afii10103" unicode="&#x456;" horiz-adv-x="258" 
d="M55 601v128h148v-128h-148zM55 0v533h148v-533h-148z" />
    <glyph glyph-name="afii10104" unicode="&#x457;" horiz-adv-x="258" 
d="M162 584v138h124v-138h-124zM-29 584v138h126v-138h-126zM55 0v533h148v-533h-148z" />
    <glyph glyph-name="afii10105" unicode="&#x458;" horiz-adv-x="258" 
d="M55 601v128h148v-128h-148zM44 -202q-61 0 -76 5v105q18 -3 36 -3q51 0 51 61v567h148v-583q0 -74 -33.5 -113t-125.5 -39z" />
    <glyph glyph-name="afii10106" unicode="&#x459;" horiz-adv-x="811" 
d="M363 0v424h-138v-246q0 -49 -12.5 -83t-29.5 -52t-49 -27.5t-57 -11.5t-67 -2v108q42 0 55 12t13 51v360h431v-172h52q38 0 68 -4t61 -15.5t51.5 -31t33.5 -52.5t13 -77q0 -181 -226 -181h-199zM509 250v-141h55q85 0 85 71q0 70 -85 70h-55z" />
    <glyph glyph-name="afii10107" unicode="&#x45a;" horiz-adv-x="787" 
d="M50 0v533h147v-207h142v207h146v-172h52q38 0 68 -4t61 -15.5t51.5 -31t33.5 -52.5t13 -77q0 -181 -226 -181h-199v217h-141v-217h-148zM485 109h55q85 0 85 71q0 70 -85 70h-55v-141z" />
    <glyph glyph-name="afii10108" unicode="&#x45b;" horiz-adv-x="532" 
d="M50 680v60h148v-60h87v-108h-87v-113q23 33 65 59t94 26q129 0 129 -140v-404h-147v357q0 62 -48 62q-41 0 -93 -48v-371h-148v572h-50v108h50z" />
    <glyph glyph-name="afii10109" unicode="&#x45c;" horiz-adv-x="499" 
d="M210 587l80 166h145l-124 -166h-101zM50 0v533h145v-215q10 20 50 84l84 131h149l-140 -198l151 -335h-149l-95 216l-50 -70v-146h-145z" />
    <glyph glyph-name="afii10110" unicode="&#x45e;" horiz-adv-x="481" 
d="M117 -202q-76 0 -125 15l28 116q47 -10 78 -10q26 0 39.5 11t21.5 38l9 26l-169 539h154l53 -207q25 -102 37 -165h2q13 68 39 168l53 204h142l-185 -585q-25 -78 -64.5 -114t-112.5 -36zM244 579q-73 0 -111 47t-42 129h82q11 -85 71 -85q61 0 70 85h82q-4 -82 -42 -129
t-110 -47z" />
    <glyph glyph-name="afii10193" unicode="&#x45f;" horiz-adv-x="536" 
d="M195 -201v201h-145v533h148v-424h141v424h147v-533h-144v-201h-147z" />
    <glyph glyph-name="afii10050" unicode="&#x490;" horiz-adv-x="494" 
d="M62 0v740h264v125h151v-253h-263v-612h-152z" />
    <glyph glyph-name="afii10098" unicode="&#x491;" horiz-adv-x="428" 
d="M409 695v-279h-211v-416h-148v533h215v162h144z" />
    <glyph glyph-name="Wgrave" unicode="&#x1e80;" horiz-adv-x="808" 
d="M180 -3l-165 743h146l57 -297q20 -103 34 -197h2q6 45 33 196l55 298h136l56 -303q22 -113 33 -192h2q14 99 32 190l58 305h135l-165 -743h-132l-92 487h-2l-92 -487h-131zM360 784l-124 166h146l80 -166h-102z" />
    <glyph glyph-name="wgrave" unicode="&#x1e81;" horiz-adv-x="667" 
d="M126 -1l-125 534h143l39 -180q16 -80 27 -154h2q11 77 29 155l39 179h124l39 -176q19 -83 30 -159h2q12 85 28 157l37 178h126l-124 -534h-133l-74 327h-2l-74 -327h-133zM290 587l-124 166h146l80 -166h-102z" />
    <glyph glyph-name="Wacute" unicode="&#x1e82;" horiz-adv-x="808" 
d="M363 784l80 166h145l-124 -166h-101zM180 -3l-165 743h146l57 -297q20 -103 34 -197h2q6 45 33 196l55 298h136l56 -303q22 -113 33 -192h2q14 99 32 190l58 305h135l-165 -743h-132l-92 487h-2l-92 -487h-131z" />
    <glyph glyph-name="wacute" unicode="&#x1e83;" horiz-adv-x="667" 
d="M293 587l80 166h145l-124 -166h-101zM126 -1l-125 534h143l39 -180q16 -80 27 -154h2q11 77 29 155l39 179h124l39 -176q19 -83 30 -159h2q12 85 28 157l37 178h126l-124 -534h-133l-74 327h-2l-74 -327h-133z" />
    <glyph glyph-name="Wdieresis" unicode="&#x1e84;" horiz-adv-x="808" 
d="M443 781v138h124v-138h-124zM252 781v138h126v-138h-126zM180 -3l-165 743h146l57 -297q20 -103 34 -197h2q6 45 33 196l55 298h136l56 -303q22 -113 33 -192h2q14 99 32 190l58 305h135l-165 -743h-132l-92 487h-2l-92 -487h-131z" />
    <glyph glyph-name="wdieresis" unicode="&#x1e85;" horiz-adv-x="667" 
d="M371 584v138h124v-138h-124zM180 584v138h126v-138h-126zM126 -1l-125 534h143l39 -180q16 -80 27 -154h2q11 77 29 155l39 179h124l39 -176q19 -83 30 -159h2q12 85 28 157l37 178h126l-124 -534h-133l-74 327h-2l-74 -327h-133z" />
    <glyph glyph-name="Ygrave" unicode="&#x1ef2;" horiz-adv-x="575" 
d="M211 0v290l-208 450h155l132 -312h2l132 312h148l-209 -449v-291h-152zM260 784l-124 166h146l80 -166h-102z" />
    <glyph glyph-name="ygrave" unicode="&#x1ef3;" horiz-adv-x="481" 
d="M117 -202q-76 0 -125 15l28 116q47 -10 78 -10q26 0 39.5 11t21.5 38l9 26l-169 539h154l53 -207q25 -102 37 -165h2q13 68 39 168l53 204h142l-185 -585q-25 -78 -64.5 -114t-112.5 -36zM213 587l-124 166h146l80 -166h-102z" />
    <glyph glyph-name="space.en" unicode="&#x2002;" horiz-adv-x="500" 
 />
    <glyph glyph-name="space.em" unicode="&#x2003;" horiz-adv-x="1000" 
 />
    <glyph glyph-name="space.tab_en" unicode="&#x2007;" horiz-adv-x="564" 
 />
    <glyph glyph-name="space.thin" unicode="&#x2009;" horiz-adv-x="200" 
 />
    <glyph glyph-name="endash.tab" unicode="&#x2012;" 
d="M40 247v126h484v-126h-484z" />
    <glyph glyph-name="endash" unicode="&#x2013;" horiz-adv-x="580" 
d="M43 247v125h495v-125h-495z" />
    <glyph glyph-name="emdash" unicode="&#x2014;" horiz-adv-x="774" 
d="M41 247v125h692v-125h-692z" />
    <glyph glyph-name="emdash.em_salt" unicode="&#x2015;" horiz-adv-x="1000" 
d="M0 247v125h1000v-125h-1000z" />
    <glyph glyph-name="quoteleft" unicode="&#x2018;" horiz-adv-x="248" 
d="M50 469v141l68 130h70l-43 -120h53v-151h-148z" />
    <glyph glyph-name="quoteright" unicode="&#x2019;" horiz-adv-x="248" 
d="M60 469l42 119h-53v152h149v-141l-69 -130h-69z" />
    <glyph glyph-name="quotesinglbase" unicode="&#x201a;" horiz-adv-x="248" 
d="M60 -120l42 120h-53v152h149v-141l-69 -131h-69z" />
    <glyph glyph-name="quotedblleft" unicode="&#x201c;" horiz-adv-x="466" 
d="M268 469v141l69 130h69l-42 -120h53v-151h-149zM50 469v141l68 130h70l-43 -120h53v-151h-148z" />
    <glyph glyph-name="quotedblright" unicode="&#x201d;" horiz-adv-x="466" 
d="M279 469l43 119h-54v152h148v-141l-68 -130h-69zM60 469l42 119h-53v152h149v-141l-69 -130h-69z" />
    <glyph glyph-name="quotedblbase" unicode="&#x201e;" horiz-adv-x="466" 
d="M279 -120l43 120h-54v152h148v-141l-68 -131h-69zM60 -120l42 120h-53v152h149v-141l-69 -131h-69z" />
    <glyph glyph-name="dagger" unicode="&#x2020;" horiz-adv-x="527" 
d="M186 -200l23 576l-182 -13v133l182 -15l-23 259h154l-22 -259l181 15v-133l-181 13l22 -576h-154z" />
    <glyph glyph-name="daggerdbl" unicode="&#x2021;" horiz-adv-x="526" 
d="M186 -200l22 209l-167 -15v129l167 -14l-18 162l18 160l-167 -14v129l167 -15l-22 209h154l-22 -209l167 15v-129l-167 14l18 -160l-18 -162l167 14v-129l-167 15l22 -209h-154z" />
    <glyph glyph-name="bullet" unicode="&#x2022;" horiz-adv-x="463" 
d="M231 222q-55 0 -91.5 36.5t-36.5 91.5t36.5 92t91.5 37t92 -36.5t37 -92.5q0 -55 -37 -91.5t-92 -36.5z" />
    <glyph glyph-name="ellipsis" unicode="&#x2026;" horiz-adv-x="735" 
d="M536 0v152h152v-152h-152zM291 0v152h152v-152h-152zM46 0v152h152v-152h-152z" />
    <glyph glyph-name="perthousand" unicode="&#x2030;" horiz-adv-x="1295" 
d="M197 267q-82 0 -127 61.5t-45 180.5q0 118 45 179t127 61q83 0 127 -61t44 -179q0 -120 -44 -181t-127 -61zM212 0l375 740h122l-375 -740h-122zM1099 -9q-83 0 -127.5 61.5t-44.5 180.5t44.5 180t127.5 61q82 0 126.5 -61t44.5 -180t-44.5 -180.5t-126.5 -61.5zM726 -9
q-82 0 -127 61.5t-45 180.5q0 118 45 179.5t127 61.5q83 0 127 -61t44 -180q0 -120 -44 -181t-127 -61zM197 372q29 0 39.5 31t10.5 106q0 73 -11 103.5t-39 30.5q-29 0 -40 -30.5t-11 -103.5q0 -74 11.5 -105.5t39.5 -31.5zM1099 96q29 0 39.5 31t10.5 106q0 73 -11 103.5
t-39 30.5q-30 0 -40.5 -30t-10.5 -104t11 -105.5t40 -31.5zM726 96q29 0 39.5 31t10.5 106q0 73 -11 103.5t-39 30.5q-29 0 -40 -30.5t-11 -103.5q0 -74 11.5 -105.5t39.5 -31.5z" />
    <glyph glyph-name="prime" unicode="&#x2032;" horiz-adv-x="230" 
d="M41 474l22 204l10 62h129l-61 -266h-100z" />
    <glyph glyph-name="primedbl" unicode="&#x2033;" horiz-adv-x="408" 
d="M221 474l21 204l11 62h127l-60 -266h-99zM41 474l22 204l10 62h127l-60 -266h-99z" />
    <glyph glyph-name="guilsinglleft" unicode="&#x2039;" horiz-adv-x="315" 
d="M153 0l-135 265l135 265h138l-130 -265l130 -265h-138z" />
    <glyph glyph-name="guilsinglright" unicode="&#x203a;" horiz-adv-x="315" 
d="M24 0l130 265l-130 265h139l134 -265l-134 -265h-139z" />
    <glyph glyph-name="fraction" unicode="&#x2044;" horiz-adv-x="476" 
d="M-10 0l363 740h132l-363 -740h-132z" />
    <glyph glyph-name="fraction" unicode="&#x2215;" horiz-adv-x="476" 
d="M-10 0l363 740h132l-363 -740h-132z" />
    <glyph glyph-name="zero.sups" unicode="&#x2070;" horiz-adv-x="454" 
d="M228 266q-84 0 -131.5 61.5t-47.5 179.5t48 180t131 62t130 -62t47 -180t-47 -179.5t-130 -61.5zM228 363q34 0 46.5 34.5t12.5 109.5q0 73 -13 107t-46 34q-34 0 -47 -33.5t-13 -107.5t13.5 -109t46.5 -35z" />
    <glyph glyph-name="four.sups" unicode="&#x2074;" horiz-adv-x="421" 
d="M213 274v95h-178v78l173 293h117v-276h60v-95h-60v-95h-112zM138 458h81v141z" />
    <glyph glyph-name="five.sups" unicode="&#x2075;" horiz-adv-x="410" 
d="M205 266q-72 0 -113.5 25.5t-63.5 75.5l87 48q26 -54 84 -54q56 0 56 75q0 67 -53 67q-34 0 -54 -32l-89 15l16 254h268l-5 -96h-175l-4 -80q30 22 78 22q63 0 98.5 -40t35.5 -115q0 -80 -44 -122.5t-122 -42.5z" />
    <glyph glyph-name="six.sups" unicode="&#x2076;" horiz-adv-x="427" 
d="M221 266q-172 0 -172 234q0 128 44 188.5t137 60.5q101 0 145 -85l-90 -49q-24 41 -57 41q-35 0 -49 -23t-17 -88q44 36 96 36q127 0 127 -156q0 -70 -45.5 -114.5t-118.5 -44.5zM225 357q50 0 50 68t-48 68q-20 0 -33.5 -6.5t-32.5 -23.5q4 -55 18.5 -80.5t45.5 -25.5z
" />
    <glyph glyph-name="seven.sups" unicode="&#x2077;" horiz-adv-x="375" 
d="M68 274l151 370h-177v96h296v-90l-151 -376h-119z" />
    <glyph glyph-name="eight.sups" unicode="&#x2078;" horiz-adv-x="423" 
d="M212 266q-81 0 -126 33.5t-45 91.5q0 76 84 124q-33 22 -49.5 47.5t-16.5 68.5q0 49 41.5 83.5t111.5 34.5q73 0 112.5 -32t39.5 -86q0 -40 -17 -65t-50 -47q42 -23 63.5 -51t21.5 -76q0 -58 -46.5 -92t-123.5 -34zM209 347q27 0 42.5 14.5t15.5 39.5q0 23 -15 38.5
t-48 33.5q-51 -31 -51 -72q0 -25 14.5 -39.5t41.5 -14.5zM218 558q38 24 38 61q0 45 -42 45q-43 0 -43 -44q0 -23 11 -35.5t36 -26.5z" />
    <glyph glyph-name="nine.sups" unicode="&#x2079;" horiz-adv-x="427" 
d="M197 266q-101 0 -145 84l90 49q24 -41 57 -41q35 0 49 23t18 88q-45 -36 -97 -36q-127 0 -127 156q0 71 45.5 115.5t118.5 44.5q172 0 172 -235q0 -128 -44 -188t-137 -60zM200 518q33 0 66 30q-4 55 -18.5 80.5t-44.5 25.5q-51 0 -51 -68t48 -68z" />
    <glyph glyph-name="zero.sinf" unicode="&#x2080;" horiz-adv-x="454" 
d="M228 -208q-84 0 -131.5 61.5t-47.5 179.5t48 180t131 62t130 -62t47 -180t-47 -179.5t-130 -61.5zM228 -111q34 0 46.5 34.5t12.5 109.5q0 73 -13 107t-46 34q-34 0 -47 -33.5t-13 -107.5t13.5 -109t46.5 -35z" />
    <glyph glyph-name="one.sinf" unicode="&#x2081;" horiz-adv-x="324" 
d="M43 -200v97h68v253q-22 -11 -66 -11v99q53 1 78 28h107v-369h60v-97h-247z" />
    <glyph glyph-name="two.sinf" unicode="&#x2082;" horiz-adv-x="385" 
d="M32 -198v25q0 53 20.5 95.5t50 69t59 49t50 47t20.5 51.5q0 37 -35 37q-20 0 -36.5 -17.5t-32.5 -54.5l-98 42q26 64 65.5 95t104.5 31q69 0 107.5 -35.5t38.5 -99.5q0 -43 -26.5 -81.5t-58.5 -60.5t-60.5 -48.5t-32.5 -47.5h176v-97h-312z" />
    <glyph glyph-name="three.sinf" unicode="&#x2083;" horiz-adv-x="395" 
d="M193 -206q-122 0 -171 118l87 47q29 -69 80 -69q28 0 42.5 15t14.5 40q0 36 -21 51.5t-65 15.5h-20v67h25q71 0 71 56q0 18 -11 30t-31 12q-43 0 -81 -50l-77 55q61 93 166 93q66 0 104.5 -34t38.5 -90q0 -71 -62 -100q73 -31 73 -112q0 -68 -45 -106.5t-118 -38.5z" />
    <glyph glyph-name="four.sinf" unicode="&#x2084;" horiz-adv-x="421" 
d="M213 -200v95h-178v78l173 293h117v-276h60v-95h-60v-95h-112zM138 -16h81v141z" />
    <glyph glyph-name="five.sinf" unicode="&#x2085;" horiz-adv-x="410" 
d="M205 -208q-72 0 -113.5 25.5t-63.5 75.5l87 48q26 -54 84 -54q56 0 56 75q0 67 -53 67q-34 0 -54 -32l-89 15l16 254h268l-5 -96h-175l-4 -80q30 22 78 22q63 0 98.5 -40t35.5 -115q0 -80 -44 -122.5t-122 -42.5z" />
    <glyph glyph-name="six.sinf" unicode="&#x2086;" horiz-adv-x="427" 
d="M221 -208q-172 0 -172 234q0 128 44 188.5t137 60.5q101 0 145 -85l-90 -49q-24 41 -57 41q-35 0 -49 -23t-17 -88q44 36 96 36q127 0 127 -156q0 -70 -45.5 -114.5t-118.5 -44.5zM225 -117q50 0 50 68t-48 68q-20 0 -33.5 -6.5t-32.5 -23.5q4 -55 18.5 -80.5t45.5 -25.5
z" />
    <glyph glyph-name="seven.sinf" unicode="&#x2087;" horiz-adv-x="375" 
d="M68 -200l151 370h-177v96h296v-90l-151 -376h-119z" />
    <glyph glyph-name="eight.sinf" unicode="&#x2088;" horiz-adv-x="423" 
d="M212 -208q-81 0 -126 33.5t-45 91.5q0 76 84 124q-33 22 -49.5 47.5t-16.5 68.5q0 49 41.5 83.5t111.5 34.5q73 0 112.5 -32t39.5 -86q0 -40 -17 -65t-50 -47q42 -23 63.5 -51t21.5 -76q0 -58 -46.5 -92t-123.5 -34zM209 -127q27 0 42.5 14.5t15.5 39.5q0 23 -15 38.5
t-48 33.5q-51 -31 -51 -72q0 -25 14.5 -39.5t41.5 -14.5zM218 84q38 24 38 61q0 45 -42 45q-43 0 -43 -44q0 -23 11 -35.5t36 -26.5z" />
    <glyph glyph-name="nine.sinf" unicode="&#x2089;" horiz-adv-x="427" 
d="M197 -208q-101 0 -145 84l90 49q24 -41 57 -41q35 0 49 23t18 88q-45 -36 -97 -36q-127 0 -127 156q0 71 45.5 115.5t118.5 44.5q172 0 172 -235q0 -128 -44 -188t-137 -60zM200 44q33 0 66 30q-4 55 -18.5 80.5t-44.5 25.5q-51 0 -51 -68t48 -68z" />
    <glyph glyph-name="Euro" unicode="&#x20ac;" horiz-adv-x="631" 
d="M103 398h-87v88h94q20 136 85 202t166 66t161.5 -59t75.5 -168l-138 -24q-19 127 -97 127q-86 0 -107 -144h142v-88h-148v-65h148v-88h-142q10 -71 36 -105t74 -34q81 0 104 134l136 -17q-17 -105 -80 -171t-161 -66q-102 0 -167.5 63.5t-85.5 195.5h-96v88h88
q-1 12 -1 38v27z" />
    <glyph glyph-name="litre" unicode="&#x2113;" horiz-adv-x="538" 
d="M293 -2q-85 0 -120 44t-36 135v36l-43 -38l-46 92l89 72v217q0 87 47 146t135 59q74 0 112 -43.5t38 -102.5q0 -79 -39 -139t-114 -123l-19 -20v-130q0 -70 56 -70q34 0 61 29l56 -75q-75 -89 -177 -89zM297 459q6 6 31 36q40 53 40 110q0 50 -31 50q-21 0 -30.5 -22
t-9.5 -75v-99z" />
    <glyph glyph-name="afii61352" unicode="&#x2116;" horiz-adv-x="1018" 
d="M668 209v105h299v-105h-299zM816 364q-70 0 -118 48.5t-48 146.5t47.5 146.5t118.5 48.5q70 0 118 -48.5t48 -146.5t-48 -146.5t-118 -48.5zM816 444q60 0 60 115q0 111 -60 111t-60 -111q0 -115 60 -115zM61 0v740h157l170 -332q35 -68 60 -127h2v459h138v-740h-141
l-192 359q-32 61 -54 110h-2v-469h-138z" />
    <glyph glyph-name="copyrightsound" unicode="&#x2117;" horiz-adv-x="723" 
d="M360 -14q-141 0 -232.5 109.5t-91.5 272.5q0 164 93 275t233 111q141 0 233 -109.5t92 -272.5q0 -164 -93.5 -275t-233.5 -111zM362 51q112 0 182.5 89.5t70.5 227.5t-71.5 229.5t-183.5 91.5t-182 -89.5t-70 -227.5t71.5 -229.5t182.5 -91.5zM240 163v417h137
q142 0 142 -134q0 -137 -146 -137h-40v-146h-93zM333 387h42q27 0 40.5 12.5t13.5 42.5t-13.5 42.5t-41.5 12.5h-41v-110z" />
    <glyph glyph-name="trademark" unicode="&#x2122;" horiz-adv-x="788" 
d="M357 315v425h132l64 -281l64 281h132v-425h-96v274l-63 -274h-81l-64 272v-272h-88zM118 315v335h-95v90h288v-90h-95v-335h-98z" />
    <glyph glyph-name="Omega" unicode="&#x2126;" horiz-adv-x="672" 
d="M47 0v125h122q-13 12 -29 30t-40 54.5t-39.5 90t-15.5 112.5q0 159 83 250.5t208 91.5q126 0 208.5 -92t82.5 -250q0 -59 -15.5 -112.5t-40 -89.5t-40 -54.5t-29.5 -30.5h123v-125h-253v111q12 11 26 30.5t33 54t31.5 87.5t12.5 111q0 106 -36 168t-103 62t-103 -61.5
t-36 -168.5q0 -58 12.5 -110.5t31.5 -87.5t32.5 -54.5t25.5 -30.5v-111h-252z" />
    <glyph glyph-name="estimated" unicode="&#x212e;" horiz-adv-x="697" 
d="M664 318h-490v-220q71 -71 174 -71q84 0 137.5 37t99.5 108l37 -23q-50 -78 -114 -119.5t-160 -41.5q-138 0 -224 96t-86 235q0 141 85.5 236t227.5 95t226.5 -95.5t86.5 -236.5zM525 358v182q-76 71 -175 71q-105 0 -176 -71v-182h351z" />
    <glyph glyph-name="partialdiff" unicode="&#x2202;" horiz-adv-x="519" 
d="M272 764q118 -85 169.5 -200.5t51.5 -284.5q0 -141 -62 -215.5t-170 -74.5t-171.5 69t-63.5 189q0 122 56.5 186.5t148.5 64.5q36 0 71 -16.5t55 -47.5q-11 69 -57.5 136t-104.5 114zM260 101q88 0 88 149q0 148 -88 148t-88 -149q0 -148 88 -148z" />
    <glyph glyph-name="Delta" unicode="&#x2206;" horiz-adv-x="602" 
d="M12 0l216 743h146l217 -743h-579zM409 118l-61 231q-43 168 -50 202h-2q-7 -37 -51 -201l-62 -232h226z" />
    <glyph glyph-name="product" unicode="&#x220f;" horiz-adv-x="642" 
d="M62 -200v940h518v-940h-151v812h-216v-812h-151z" />
    <glyph glyph-name="summation" unicode="&#x2211;" horiz-adv-x="538" 
d="M22 -200v109l174 373l-155 345v113h466v-128h-286l146 -330l-161 -358h303v-124h-487z" />
    <glyph glyph-name="minus" unicode="&#x2212;" 
d="M54 280v122h457v-122h-457z" />
    <glyph glyph-name="radical" unicode="&#x221a;" horiz-adv-x="527" 
d="M155 -1l-155 534h149l58 -238q19 -78 31 -145h2q14 71 32 144l118 446h137l-214 -741h-158z" />
    <glyph glyph-name="infinity" unicode="&#x221e;" horiz-adv-x="682" 
d="M186 160q-80 0 -123.5 51t-43.5 148q0 96 43.5 148.5t123.5 52.5q89 0 154 -100q67 100 156 100q81 0 123.5 -52t42.5 -149t-42.5 -148t-123.5 -51q-90 0 -156 101q-65 -101 -154 -101zM194 271q31 0 50.5 22t42.5 66q-15 30 -25 45.5t-28 30t-40 14.5q-32 0 -49.5 -23.5
t-17.5 -66.5q0 -42 17.5 -65t49.5 -23zM488 271q67 0 67 88q0 90 -67 90q-30 0 -51 -23.5t-42 -65.5q21 -43 42 -66t51 -23z" />
    <glyph glyph-name="integral" unicode="&#x222b;" horiz-adv-x="347" 
d="M79 -202q-60 0 -75 5v105q9 -3 36 -3q51 0 51 61v616q0 75 35.5 117.5t133.5 42.5q59 0 77 -3v-110q-18 3 -37 3q-30 0 -46.5 -11.5t-16.5 -45.5v-625q0 -74 -33 -113t-125 -39z" />
    <glyph glyph-name="approxequal" unicode="&#x2248;" horiz-adv-x="602" 
d="M410 117q-45 0 -123.5 35t-96.5 35q-32 2 -41 -42l-90 14q9 75 42.5 113t83.5 37q47 -1 123 -35.5t95 -34.5q34 -2 41 41l91 -12q-9 -76 -42 -114t-83 -37zM417 340q-45 1 -123 36t-96 35q-17 0 -27 -8.5t-14 -33.5l-91 14q9 75 43 112.5t84 37.5q46 -1 122.5 -36
t94.5 -35q35 0 42 42l90 -12q-9 -76 -42 -114t-83 -38z" />
    <glyph glyph-name="notequal" unicode="&#x2260;" horiz-adv-x="570" 
d="M116 -2l54 167h-111v109h144l37 105h-181v110h214l59 178h123l-58 -178h113v-110h-147l-37 -105h184v-109h-217l-54 -167h-123z" />
    <glyph glyph-name="lessequal" unicode="&#x2264;" horiz-adv-x="587" 
d="M514 158l-446 177v92l446 182v-127l-283 -101l283 -95v-128zM62 27v113h460v-113h-460z" />
    <glyph glyph-name="greaterequal" unicode="&#x2265;" horiz-adv-x="586" 
d="M75 158v128l283 95l-283 101v127l446 -182v-92zM65 27v113h460v-113h-460z" />
    <glyph glyph-name="lozenge" unicode="&#x25ca;" horiz-adv-x="563" 
d="M224 0l-195 370l195 370h109l200 -370l-194 -370h-115zM281 161l110 209l-110 209l-110 -209z" />
    <glyph glyph-name="u2022.check" unicode="&#x2713;" horiz-adv-x="567" 
d="M326 -1h-125l-192 532h129l130 -392h2l200 601h119z" />
    <glyph glyph-name="apple" unicode="&#xf8ff;" horiz-adv-x="765" 
d="M160 591v32l167 -15l-21 132h153l-22 -132l168 15v-32h31l-15 -167l131 21v-153l-131 22l15 -168h-31v-29l-168 15l22 -132h-153l21 132l-167 -15v29h-31l15 168l-132 -22v153l132 -21l-15 167h31zM528 516l-98 7v-107h106zM335 416v107l-98 -7l-8 -100h106zM430 321
v-105l98 8l8 97h-106zM237 224l98 -8v105h-106z" />
    <glyph glyph-name="NUL" horiz-adv-x="0" 
 />
    <glyph glyph-name="fi" horiz-adv-x="567" 
d="M365 601v128h147v-128h-147zM91 0v424h-76v109h76v49q0 160 161 160q58 0 70 -4v-109q-18 3 -30 3q-55 0 -55 -57v-42h81v-109h-81v-424h-146zM365 0v533h147v-533h-147z" />
    <glyph glyph-name="fl" horiz-adv-x="567" 
d="M91 0v424h-76v109h76v49q0 160 161 160q58 0 70 -4v-109q-18 3 -30 3q-55 0 -55 -57v-42h81v-109h-81v-424h-146zM365 0v740h147v-740h-147z" />
    <glyph glyph-name="four.tab" 
d="M313 0v150h-286v110l266 480h166v-470h85v-120h-85v-150h-146zM167 270h149v265h-2z" />
    <glyph glyph-name="five.tab" 
d="M269 -12q-85 0 -139.5 36.5t-93.5 99.5l94 74q50 -89 134 -89q108 0 108 139q0 135 -97 135q-60 0 -104 -69l-103 25l23 401h391l-9 -119h-262l-13 -173q40 51 125 51q95 0 146.5 -64t51.5 -183q0 -125 -66.5 -194.5t-185.5 -69.5z" />
    <glyph glyph-name="zero.tab" 
d="M283 -12q-126 0 -192 96.5t-66 285.5t66 285.5t192 96.5q125 0 191 -96.5t66 -285.5t-66 -285.5t-191 -96.5zM283 109q56 0 83.5 62t27.5 199t-28 197.5t-83 60.5q-57 0 -85 -60.5t-28 -197.5q0 -261 113 -261z" />
    <glyph glyph-name="eight.tab" 
d="M283 -13q-120 0 -186.5 54t-66.5 144q0 122 140 201q-56 36 -84 76t-28 107q0 77 60 130.5t165 53.5q107 0 166 -53t59 -131q0 -111 -117 -180q71 -39 107.5 -83t36.5 -121q0 -90 -67.5 -144t-184.5 -54zM282 95q49 0 76 26.5t27 68.5t-26 71t-84 60q-95 -59 -95 -131
q0 -41 27 -68t75 -27zM291 450q40 24 57 49.5t17 60.5t-19.5 58.5t-61.5 23.5q-41 0 -61 -22.5t-20 -57.5q0 -38 21.5 -63.5t66.5 -48.5z" />
    <glyph glyph-name="one.tab" 
d="M88 0v121h133v480q-23 -14 -62.5 -24t-68.5 -10v125q94 4 134 48h145v-619h116v-121h-397z" />
    <glyph glyph-name="three.tab" 
d="M267 -12q-90 0 -145 39.5t-95 115.5l103 63q46 -97 133 -97q97 0 97 104q0 69 -34 94.5t-115 25.5h-29v112h31q82 0 108.5 23.5t26.5 79.5q0 39 -19 59t-63 20q-73 0 -122 -79l-95 71q36 63 95.5 97.5t134.5 34.5q106 0 161 -49.5t55 -137.5q0 -144 -124 -171
q142 -30 142 -186q0 -100 -66 -159.5t-180 -59.5z" />
    <glyph glyph-name="seven.tab" 
d="M116 0l240 616h-297v124h451v-116l-242 -624h-152z" />
    <glyph glyph-name="nine.tab" 
d="M255 -12q-73 0 -119.5 24.5t-76.5 75.5l82 78q53 -60 110 -60q56 0 88.5 56.5t38.5 162.5q-67 -61 -147 -61q-92 0 -145.5 62.5t-53.5 175.5q0 112 64.5 181t175.5 69q118 0 185.5 -94t67.5 -275q0 -190 -75.5 -292.5t-194.5 -102.5zM264 383q66 0 113 52
q-4 102 -30.5 149t-80.5 47q-91 0 -91 -122q0 -60 19.5 -93t69.5 -33z" />
    <glyph glyph-name="six.tab" 
d="M292 -12q-118 0 -185 94t-67 275q0 190 75.5 292.5t194.5 102.5q136 0 193 -99l-83 -79q-46 54 -106 54q-115 0 -127 -213q67 62 147 62q91 0 144.5 -63t53.5 -176q0 -112 -64.5 -181t-175.5 -69zM298 104q45 0 68.5 34t23.5 93t-20 91.5t-70 32.5q-64 0 -113 -51
q4 -103 31 -151.5t80 -48.5z" />
    <glyph glyph-name="two.tab" 
d="M41 0v16q0 104 35 177t141 152q44 35 63 51t41.5 41t30 49t7.5 55q0 84 -75 84q-78 0 -122 -115l-116 56q36 89 93 137.5t149 48.5q104 0 161 -54t57 -151q0 -70 -30.5 -126.5t-108.5 -115.5q-86 -66 -121.5 -105.5t-42.5 -78.5h305v-121h-467z" />
    <glyph glyph-name="minus.tab" 
d="M56 289v121h453v-121h-453z" />
    <glyph glyph-name="multiply.tab" 
d="M143 100l-85 85l139 138l-139 137l85 86l139 -138l138 138l85 -86l-138 -137l139 -137l-85 -84l-139 137z" />
    <glyph glyph-name="plusminus.tab" 
d="M53 26v112h169v168h-169v117h169v191h121v-191h169v-117h-169v-168h169v-112h-459z" />
    <glyph glyph-name="less.tab" 
d="M505 60l-446 219v92l446 217v-127l-296 -137l296 -135v-129z" />
    <glyph glyph-name="dollar.tab" 
d="M244 -93v89q-141 19 -211 180l112 50q23 -51 46.5 -79t55.5 -39v213q-44 18 -73 34t-60 42t-46.5 62t-15.5 82q0 86 51.5 140.5t140.5 63.5v74h92v-78q126 -25 180 -154l-111 -56q-28 68 -71 90v-188q45 -19 76.5 -37.5t62 -46t46.5 -65t16 -84.5q0 -85 -50.5 -139.5
t-148.5 -64.5v-89h-92zM247 472v158q-55 -16 -55 -72q0 -53 55 -86zM334 106q61 15 61 76t-61 99v-175z" />
    <glyph glyph-name="yen.tab" 
d="M206 0v90h-149v90h149v61h-149v90h141l-189 409h155l121 -292h2q5 16 120 292h149l-191 -409h142v-90h-150v-61h150v-90h-150v-90h-151z" />
    <glyph glyph-name="Euro.tab" 
d="M325 -12q-205 0 -240 257h-78v90h70q-1 10 -1 61h-69v90h76q17 135 80 200.5t160 65.5q99 0 151 -57t72 -164l-130 -29q-14 69 -32.5 97.5t-59.5 28.5q-83 0 -97 -142h117v-90h-122v-61h122v-90h-116q7 -70 30 -103t68 -33q41 0 62.5 31.5t32.5 104.5l129 -26
q-25 -109 -77.5 -170t-147.5 -61z" />
    <glyph glyph-name="greater.tab" 
d="M65 60v129l297 135l-297 137v127l446 -217v-92z" />
    <glyph glyph-name="sterling.tab" 
d="M132 -12q-53 0 -89.5 30t-36.5 86t35 89t86 33q46 0 83 -32q-3 73 -33 141h-117v89h72q-34 76 -34 133q0 86 55 140.5t142 54.5q101 0 149 -51.5t56 -146.5l-126 -23q-5 50 -21.5 76.5t-52.5 26.5q-27 0 -43 -19t-16 -56q0 -51 41 -135h147v-89h-109q17 -56 17 -111
q0 -53 -20 -101q32 -24 55 -24q28 0 39.5 23.5t12.5 92.5h120q0 -73 -10.5 -119.5t-44.5 -77t-93 -30.5q-77 0 -139 53q-53 -53 -125 -53zM134 68q39 0 60 38q-34 39 -61 39q-17 0 -27 -10.5t-10 -28.5q0 -17 10.5 -27.5t27.5 -10.5z" />
    <glyph glyph-name="ordfeminine.tab" 
d="M216 359q-41 0 -67.5 25t-26.5 73q0 128 200 153v15q0 40 -38 40q-50 0 -88 -43l-59 47q48 79 162 79q67 0 97 -32.5t30 -99.5v-158q0 -67 10 -92h-106q-8 26 -8 46q-43 -53 -106 -53zM258 443q34 0 64 26v78q-97 -15 -97 -71q0 -33 33 -33z" />
    <glyph glyph-name="slash.tab" 
d="M28 0l364 740h145l-364 -740h-145z" />
    <glyph glyph-name="lessequal.tab" 
d="M504 158l-446 177v92l446 182v-127l-283 -101l283 -95v-128zM52 27v113h460v-113h-460z" />
    <glyph glyph-name="equal.tab" 
d="M56 164v111h452v-111h-452zM56 379v110h452v-110h-452z" />
    <glyph glyph-name="plus.tab" 
d="M220 99v190h-167v121h167v189h125v-189h167v-121h-167v-190h-125z" />
    <glyph glyph-name="divide.tab" 
d="M219 98v122h126v-122h-126zM53 289v121h459v-121h-459zM219 477v122h126v-122h-126z" />
    <glyph glyph-name="hyphen.tab" 
d="M161 248v125h243v-125h-243z" />
    <glyph glyph-name="cent.tab" 
d="M164 -129l31 141q-128 61 -128 254q0 137 67 206t162 71l17 95h90l-21 -109q90 -36 123 -159l-122 -32q-10 49 -29 69l-56 -311q64 2 88 101l120 -32q-47 -175 -212 -175h-16l-24 -119h-90zM206 266q0 -84 20 -126l53 290q-73 -18 -73 -164z" />
    <glyph glyph-name="greaterequal.tab" 
d="M62 158v128l283 95l-283 101v127l446 -182v-92zM52 27v113h460v-113h-460z" />
    <glyph glyph-name="ordmasculine.tab" 
d="M283 358q-71 0 -118.5 48.5t-47.5 146.5q0 99 47 147t119 48q70 0 117.5 -48t47.5 -147q0 -98 -47.5 -146.5t-117.5 -48.5zM283 439q58 0 58 114q0 113 -58 113q-60 0 -60 -113q0 -114 60 -114z" />
    <glyph glyph-name="florin.tab" 
d="M35 -197l14 106q24 -3 37 -3q32 0 49.5 15.5t22.5 51.5l52 390h-76q1 1 14 105h76l15 114q10 81 51.5 121t143.5 40q12 0 72 -5l-14 -109q-24 3 -37 3q-31 0 -49 -11.5t-21 -45.5l-15 -107h96l-13 -105h-96l-56 -415q-10 -76 -49 -113t-137 -37q-47 0 -80 5z" />
    <glyph glyph-name="percent.tab" horiz-adv-x="854" 
d="M192 282q-79 0 -120.5 61t-41.5 172q0 113 42 173t121 60t120.5 -60t41.5 -172q0 -111 -42 -172.5t-121 -61.5zM193 381q49 0 49 134q0 132 -50 132q-26 0 -37 -31t-11 -100q0 -135 49 -135zM662 -8q-79 0 -121 60.5t-42 171.5q0 112 42.5 173t120.5 61q79 0 121.5 -60.5
t42.5 -171.5t-42.5 -172.5t-121.5 -61.5zM662 91q26 0 37.5 32.5t11.5 101.5q0 70 -11.5 101t-37.5 31q-27 0 -38 -31t-11 -100q0 -135 49 -135zM216 0l326 740h96l-326 -740h-96z" />
    <glyph glyph-name="approxequal.tab" 
d="M392 117q-45 0 -123.5 35t-96.5 35q-32 2 -41 -42l-90 14q9 75 42.5 113t83.5 37q47 -1 123 -35.5t95 -34.5q34 -2 41 41l91 -12q-9 -76 -42 -114t-83 -37zM399 340q-45 1 -123 36t-96 35q-17 0 -27 -8.5t-14 -33.5l-91 14q9 75 43 112.5t84 37.5q46 -1 122.5 -36
t94.5 -35q35 0 42 42l90 -12q-9 -76 -42 -114t-83 -38z" />
    <glyph glyph-name="numbersign.tab" 
d="M69 0l26 194h-64v113h80l17 127h-68v112h83l27 194h119l-27 -194h79l27 194h119l-27 -194h73v-112h-88l-18 -127h77v-113h-92l-26 -194h-119l26 194h-79l-27 -194h-118zM228 307h80l19 127h-79z" />
    <glyph glyph-name="comma.tab" horiz-adv-x="283" 
d="M84 -120l41 120h-65v152h161v-135l-69 -137h-68z" />
    <glyph glyph-name="parenright.tab" 
d="M205 -205l-84 59q145 188 145 431q0 242 -141 428l80 62q215 -213 215 -490t-215 -490z" />
    <glyph glyph-name="period.tab" horiz-adv-x="283" 
d="M61 0v152h160v-152h-160z" />
    <glyph glyph-name="colon.tab" horiz-adv-x="283" 
d="M61 0v152h159v-152h-159zM61 381v152h159v-152h-159z" />
    <glyph glyph-name="parenleft.tab" 
d="M360 -205q-215 213 -215 490t215 490l81 -62q-142 -188 -142 -428q0 -246 145 -431q-53 -48 -84 -59z" />
    <glyph glyph-name="semicolon.tab" horiz-adv-x="283" 
d="M83 -120l40 120h-62v152h159v-133l-70 -139h-67zM61 381v152h159v-152h-159z" />
    <glyph glyph-name="onehalf.tab" horiz-adv-x="851" 
d="M502 0v24q0 64 24 112t90 96q56 43 68 60q16 21 16 48q0 41 -37 41q-45 0 -73 -74l-86 44q27 64 66 97t99 33q70 0 108 -36.5t38 -103.5q0 -88 -98 -152q-71 -54 -81 -92h181v-97h-315zM34 268v96h69v260q-29 -12 -68 -12v98q53 3 77 29h108v-375h60v-96h-246zM203 0
l297 740h119l-297 -740h-119z" />
    <glyph glyph-name="onequarter.tab" horiz-adv-x="851" 
d="M41 268v96h69v260q-29 -12 -68 -12v98q53 3 77 29h108v-375h60v-96h-246zM639 0v99h-183v76l177 298h119v-281h61v-93h-61v-99h-113zM211 0l298 740h118l-297 -740h-119zM570 192h72v126z" />
    <glyph glyph-name="threequarters.tab" horiz-adv-x="851" 
d="M181 259q-112 0 -160 113l76 48q32 -65 76 -65q52 0 52 55q0 36 -17.5 50t-63.5 14h-29v84h31q42 0 57 12t15 40q0 40 -38 40q-37 0 -77 -51l-70 56q56 93 156 93q71 0 105.5 -33.5t34.5 -92.5q0 -81 -63 -103q75 -23 75 -112q0 -69 -42 -108.5t-118 -39.5zM657 0v99
h-184v76l177 298h120v-281h61v-93h-61v-99h-113zM233 0l297 740h119l-297 -740h-119zM588 192h71v126z" />
    <glyph glyph-name="notequal.tab" 
d="M109 -2l54 167h-111v109h144l37 105h-181v110h214l59 178h123l-58 -178h113v-110h-147l-37 -105h184v-109h-217l-54 -167h-123z" />
    <glyph glyph-name="space.tab" horiz-adv-x="283" 
 />
    <glyph glyph-name="quotesingle.tab" 
d="M231 471l-15 203v66h133v-66l-14 -203h-104z" />
    <glyph glyph-name="quotedbl.tab" 
d="M139 471l-14 203v66h131v-66l-14 -203h-103zM323 471l-14 203v66h131v-66l-14 -203h-103z" />
    <glyph glyph-name="ffl.sc" horiz-adv-x="1255" 
d="M1244 0h-360v592h148v-477h212v-115zM614 0h-148v592h362v-118h-214v-128h152v-111h-152v-235zM196 0h-148v592h362v-118h-214v-128h152v-111h-152v-235z" />
    <glyph glyph-name="Aring.sc" horiz-adv-x="510" 
d="M139 0h-133l174 577q-26 28 -26 73q0 48 28.5 78t73.5 30q44 0 72.5 -30t28.5 -78q0 -47 -27 -74l174 -576h-144l-33 122h-154zM233 347l-35 -134h105q-2 21 -34 134q-2 17 -17 62h-2q-3 -16 -17 -62zM256 600q18 0 28.5 13.5t10.5 35.5q0 21 -10.5 34.5t-28.5 13.5
t-29 -13.5t-11 -34.5q0 -22 10.5 -35.5t29.5 -13.5z" />
    <glyph glyph-name="yen.sc" horiz-adv-x="491" 
d="M316 0h-140v73h-125v76h125v45h-125v74h118l-160 324h142l63 -148l33 -78l35 79l63 147h137l-161 -324h121v-74h-126v-45h126v-75h-126v-74z" />
    <glyph glyph-name="Ograve.sc" horiz-adv-x="555" 
d="M357 643h-101l-124 166h145zM278 -10q-109 0 -181 76.5t-72 229.5t72 229.5t181 76.5t181 -76.5t72 -229.5t-72 -229.5t-181 -76.5zM278 106q107 0 107 190q0 186 -107 186t-107 -186q0 -190 107 -190z" />
    <glyph glyph-name="dollar.sc" horiz-adv-x="502" 
d="M294 -73h-89v76q-130 21 -175 159l109 31q36 -97 116 -97q39 0 61.5 16t22.5 46q0 19 -8 33t-29 26.5t-35 18.5t-48 19q-40 15 -62.5 26t-51 31.5t-41.5 50t-13 69.5q0 65 40.5 108.5t113.5 53.5v63h89v-64q109 -18 155 -141l-104 -40q-34 86 -103 86q-34 0 -52 -16
t-18 -41q0 -23 17.5 -41t38.5 -27.5t59 -23.5q11 -4 17 -6q37 -15 59.5 -26.5t48 -32t37.5 -49t12 -66.5q0 -66 -42.5 -111t-124.5 -56v-75z" />
    <glyph glyph-name="four.sc" horiz-adv-x="494" 
d="M397 0h-133v114h-247v97l234 381h146v-371h83v-107h-83v-114zM266 412l-115 -191h116v191h-1z" />
    <glyph glyph-name="questiondown.sc" horiz-adv-x="429" 
d="M152 468v123h151v-123h-151zM165 417h122q4 -21 4 -46q-2 -49 -20.5 -77t-54.5 -55q-30 -22 -44 -41t-14 -48q0 -47 58 -47q30 0 61.5 18.5t52.5 50.5l88 -71q-64 -115 -213 -115q-92 0 -139 40.5t-47 109.5q0 38 15.5 69.5t29.5 45t47 41.5q31 26 44 52.5t10 72.5z" />
    <glyph glyph-name="perthousand.sc" horiz-adv-x="1186" 
d="M180 221q-73 0 -113 51.5t-40 139.5q0 87 41.5 139.5t112.5 52.5q72 0 111.5 -51.5t39.5 -139.5t-39.5 -140t-112.5 -52zM331 0h-123l304 592h122zM1007 -9q-74 0 -114 52t-40 140t41.5 140t113.5 52q71 0 111 -52t40 -139t-40 -140t-112 -53zM663 -9q-73 0 -113 52
t-40 140t41.5 140t112.5 52t111 -52t40 -139q0 -88 -39.5 -140.5t-112.5 -52.5zM181 315q38 0 38 97q0 95 -39 95q-40 0 -40 -94q0 -98 41 -98zM1007 86q39 0 39 98q0 94 -39 94q-40 0 -40 -94q0 -98 40 -98zM664 86q38 0 38 98q0 94 -39 94t-39 -94q0 -98 40 -98z" />
    <glyph glyph-name="Ccedilla.sc" horiz-adv-x="518" 
d="M264 -201q-79 0 -135 34l27 50q42 -27 98 -27q43 0 43 31q0 26 -28 26q-19 0 -35 -16l-41 19l23 79q-191 33 -191 301q0 155 66 230.5t177 75.5q104 0 155.5 -51t65.5 -154l-135 -29q-9 60 -28.5 87t-57.5 27q-50 0 -73.5 -44.5t-23.5 -140.5q0 -98 24 -144.5t75 -46.5
q39 0 59.5 27.5t31.5 93.5l135 -22q-19 -99 -68.5 -155t-148.5 -59l-10 -36q20 15 55 15q29 0 48.5 -19t19.5 -53q0 -44 -35 -71.5t-93 -27.5z" />
    <glyph glyph-name="Otilde.sc" horiz-adv-x="555" 
d="M357 631q-36 0 -75.5 28t-54.5 28q-36 0 -36 -54h-77q0 159 106 159q36 0 75.5 -28t55.5 -28q35 0 35 54h77q0 -159 -106 -159zM278 -10q-109 0 -181 76.5t-72 229.5t72 229.5t181 76.5t181 -76.5t72 -229.5t-72 -229.5t-181 -76.5zM278 106q107 0 107 190
q0 186 -107 186t-107 -186q0 -190 107 -190z" />
    <glyph glyph-name="Ucircumflex.sc" horiz-adv-x="517" 
d="M190 643h-85l110 166h99l109 -166h-86l-74 70zM262 -8q-221 0 -221 220v380h147v-374q0 -57 17.5 -82.5t59.5 -25.5q41 0 58 25.5t17 82.5v374h144v-379q0 -221 -222 -221z" />
    <glyph glyph-name="Ecircumflex.sc" horiz-adv-x="447" 
d="M153 643h-85l110 166h99l109 -166h-85l-74 70zM423 0h-380v592h369v-118h-221v-113h157v-111h-157v-135h232v-115z" />
    <glyph glyph-name="Uacute.sc" horiz-adv-x="517" 
d="M303 643h-101l80 166h145zM262 -8q-221 0 -221 220v380h147v-374q0 -57 17.5 -82.5t59.5 -25.5q41 0 58 25.5t17 82.5v374h144v-379q0 -221 -222 -221z" />
    <glyph glyph-name="five.sc" horiz-adv-x="462" 
d="M226 -11q-153 0 -215 132l110 49q21 -40 43.5 -57t55.5 -17q83 0 83 102q0 99 -75 99q-55 0 -87 -55l-100 21l21 329h342l-8 -113h-221l-10 -128q31 47 103 47q84 0 127.5 -51.5t43.5 -146.5q0 -99 -57 -155t-156 -56z" />
    <glyph glyph-name="Oslash.sc" horiz-adv-x="560" 
d="M278 -10q-70 0 -129 33l-43 -67l-73 46l52 79q-60 77 -60 215q0 153 71.5 229.5t181.5 76.5q71 0 127 -34l43 63l72 -46l-50 -75q61 -79 61 -214q0 -153 -72 -229.5t-181 -76.5zM278 106q107 0 107 190q0 45 -14 78l-154 -246q25 -22 61 -22zM171 296q0 -48 13 -78
l152 243q-24 21 -58 21q-107 0 -107 -186z" />
    <glyph glyph-name="Edieresis.sc" horiz-adv-x="447" 
d="M396 640h-124v138h124v-138zM207 640h-125v138h125v-138zM423 0h-380v592h369v-118h-221v-113h157v-111h-157v-135h232v-115z" />
    <glyph glyph-name="D.sc" horiz-adv-x="534" 
d="M220 0h-172v592h172q65 0 115 -13.5t90.5 -45t62 -90.5t21.5 -144q0 -86 -21.5 -146.5t-62.5 -93t-90.5 -46t-114.5 -13.5zM196 476v-363h36q73 0 102 42.5t29 141.5q0 95 -29 137t-103 42h-35z" />
    <glyph glyph-name="H.sc" horiz-adv-x="556" 
d="M196 0h-148v592h148v-225h164v225h147v-592h-147v252h-164v-252z" />
    <glyph glyph-name="Ydieresis.sc" horiz-adv-x="494" 
d="M319 0h-145v230l-175 362h146l66 -149q4 -10 18 -44t20 -46h1l39 90l64 149h141l-175 -362v-230zM227 640h-125v138h125v-138zM417 640h-124v138h124v-138z" />
    <glyph glyph-name="L.sc" horiz-adv-x="419" 
d="M408 0h-360v592h148v-477h212v-115z" />
    <glyph glyph-name="P.sc" horiz-adv-x="497" 
d="M195 0h-147v592h200q48 0 85 -7.5t72 -27.5t54 -61t19 -101q0 -199 -230 -199h-53v-196zM195 478v-175h58q45 0 65 22t20 66q0 45 -19.5 66t-65.5 21h-58z" />
    <glyph glyph-name="T.sc" horiz-adv-x="459" 
d="M302 0h-148v474h-143v118h437v-118h-146v-474z" />
    <glyph glyph-name="X.sc" horiz-adv-x="501" 
d="M149 0h-133l163 310l-149 282h151l76 -164l75 164h132l-146 -277l166 -315h-149l-95 197z" />
    <glyph glyph-name="exclamdown.sc" horiz-adv-x="276" 
d="M213 472h-150v120h150v-120zM221 0h-165l25 415h114z" />
    <glyph glyph-name="Udieresis.sc" horiz-adv-x="517" 
d="M430 640h-124v138h124v-138zM241 640h-125v138h125v-138zM262 -8q-221 0 -221 220v380h147v-374q0 -57 17.5 -82.5t59.5 -25.5q41 0 58 25.5t17 82.5v374h144v-379q0 -221 -222 -221z" />
    <glyph glyph-name="ordfeminine.sc" horiz-adv-x="426" 
d="M139 218h-99l116 376h114l116 -376h-107l-20 69h-98zM201 445l-24 -90h65q0 4 -11 46t-11 43q0 2 -4 17t-4 18h-2q0 -2 -2 -9.5t-4.5 -15.5t-2.5 -9z" />
    <glyph glyph-name="zero.sc" horiz-adv-x="501" 
d="M251 -10q-110 0 -169 77.5t-59 228.5q0 152 58.5 229t169.5 77q110 0 168 -77t58 -229q0 -151 -58 -228.5t-168 -77.5zM251 98q44 0 64.5 45.5t20.5 152.5q0 106 -21 151t-64 45q-45 0 -66 -45t-21 -151t21.5 -152t65.5 -46z" />
    <glyph glyph-name="Agrave.sc" horiz-adv-x="510" 
d="M139 0h-133l180 593h139l179 -593h-144l-33 122h-154zM314 643h-101l-124 166h145zM233 347l-35 -134h105l-35 134q0 2 -16 62h-2q-11 -41 -17 -62z" />
    <glyph glyph-name="ffi.sc" horiz-adv-x="1087" 
d="M1033 0h-144v592h144v-592zM614 0h-148v592h362v-118h-214v-128h152v-111h-152v-235zM196 0h-148v592h362v-118h-214v-128h152v-111h-152v-235z" />
    <glyph glyph-name="Egrave.sc" horiz-adv-x="447" 
d="M299 643h-101l-124 166h145zM423 0h-380v592h369v-118h-221v-113h157v-111h-157v-135h232v-115z" />
    <glyph glyph-name="germandbls.sc" horiz-adv-x="993" 
d="M748 -11q-162 0 -236 149l112 54q49 -90 124 -90q36 0 55.5 15t19.5 41t-23.5 44t-77.5 41q-28 12 -38 16t-36 16.5t-36.5 21t-29 24.5t-26.5 32t-15 38.5t-7 47.5q0 72 55.5 118.5t145.5 46.5q152 0 216 -135q-2 -1 -55.5 -29t-54.5 -28q-37 79 -103 79
q-29 0 -46.5 -13.5t-17.5 -36.5q0 -29 23.5 -48t74.5 -40q31 -13 40.5 -17t37 -17t38 -21t29.5 -24t26.5 -31t14.5 -36t7 -45q0 -74 -56 -123.5t-161 -49.5zM255 -11q-163 0 -237 149q1 0 56 26.5t57 27.5q47 -90 124 -90q36 0 55.5 15t19.5 41t-24 44t-78 41
q-29 12 -37.5 16t-35 16.5t-37 21t-29.5 25t-26.5 32t-14.5 38t-7 47.5q0 72 55 118.5t145 46.5q152 0 216 -135q-1 -1 -54.5 -29t-54.5 -28q-39 79 -104 79q-28 0 -45.5 -13.5t-17.5 -36.5q0 -29 23.5 -48t73.5 -40q31 -13 40.5 -17t37 -17t38 -21t29.5 -24t26.5 -31
t14.5 -36t7 -45q0 -74 -55.5 -123.5t-160.5 -49.5z" />
    <glyph glyph-name="Ntilde.sc" horiz-adv-x="557" 
d="M181 0h-133v592h153l130 -251l49 -97h1l1 348h131v-592h-138l-131 242q-8 15 -21 40t-40 74h-2v-356zM366 631q-36 0 -75.5 28t-54.5 28q-36 0 -36 -54h-77q0 159 106 159q36 0 75.5 -28t55.5 -28q35 0 35 54h77q0 -159 -106 -159z" />
    <glyph glyph-name="ampersand.sc" horiz-adv-x="577" 
d="M231 -11q-109 0 -164 45t-55 123q0 113 129 189q-35 78 -35 138q0 72 45 116t126 44q77 0 115.5 -39t38.5 -100q0 -63 -38 -105.5t-103 -80.5q20 -29 42 -56q27 -36 56 -66q28 52 34 130h117q-16 -117 -58 -193q46 -28 81 -28v-114q-84 -6 -167 46q-66 -49 -164 -49z
M230 485q0 -38 18 -84q69 44 69 94t-39 50q-22 0 -35 -15.5t-13 -44.5zM235 92q38 0 66 20q-13 15 -55 67q-41 49 -57 76q-46 -38 -46 -84q0 -37 25 -58t67 -21z" />
    <glyph glyph-name="slash.sc" horiz-adv-x="455" 
d="M150 0h-138l292 592h139z" />
    <glyph glyph-name="Atilde.sc" horiz-adv-x="510" 
d="M139 0h-133l180 593h139l179 -593h-144l-33 122h-154zM334 631q-36 0 -75.5 28t-54.5 28q-36 0 -36 -54h-77q0 159 106 159q36 0 75.5 -28t55.5 -28q35 0 35 54h77q0 -159 -106 -159zM233 347l-35 -134h105l-35 134q0 2 -16 62h-2q-11 -41 -17 -62z" />
    <glyph glyph-name="Zcaron.sc" horiz-adv-x="468" 
d="M289 644h-100l-109 166h85l74 -70l74 70h85zM445 0h-429v99l254 376h-235v117h410v-101l-249 -377h249v-114z" />
    <glyph glyph-name="Odieresis.sc" horiz-adv-x="555" 
d="M446 640h-124v138h124v-138zM256 640h-125v138h125v-138zM278 -10q-109 0 -181 76.5t-72 229.5t72 229.5t181 76.5t181 -76.5t72 -229.5t-72 -229.5t-181 -76.5zM278 106q107 0 107 190q0 186 -107 186t-107 -186q0 -190 107 -190z" />
    <glyph glyph-name="Acircumflex.sc" horiz-adv-x="510" 
d="M139 0h-133l180 593h139l179 -593h-144l-33 122h-154zM182 641h-85l110 166h99l109 -166h-85l-74 71zM233 347l-35 -134h105l-35 134q0 2 -16 62h-2q-11 -41 -17 -62z" />
    <glyph glyph-name="exclam.sc" horiz-adv-x="276" 
d="M55 592h165l-25 -415h-113zM63 120h150v-120h-150v120z" />
    <glyph glyph-name="C.sc" horiz-adv-x="518" 
d="M268 -10q-112 0 -177.5 75t-65.5 231q0 155 66 230.5t177 75.5q104 0 155.5 -51t65.5 -154l-135 -29q-9 60 -28.5 87t-57.5 27q-50 0 -73.5 -44.5t-23.5 -140.5q0 -98 24 -144.5t75 -46.5q39 0 59.5 27.5t31.5 93.5l135 -22q-19 -102 -71 -158.5t-157 -56.5z" />
    <glyph glyph-name="G.sc" horiz-adv-x="544" 
d="M249 -8q-224 0 -224 306q0 147 63.5 225.5t180.5 78.5q89 0 143.5 -48t76.5 -161l-132 -25q-11 64 -32.5 89.5t-54.5 25.5q-99 0 -99 -183q0 -103 26 -149.5t78 -46.5q80 0 95 97h-85v100h214v-301h-104v78h-1q-36 -86 -145 -86z" />
    <glyph glyph-name="K.sc" horiz-adv-x="518" 
d="M193 0h-145v592h145v-235q19 31 50 73l105 162h146l-168 -232l184 -360h-153l-123 250l-41 -53v-197z" />
    <glyph glyph-name="O.sc" horiz-adv-x="555" 
d="M278 -10q-109 0 -181 76.5t-72 229.5t72 229.5t181 76.5t181 -76.5t72 -229.5t-72 -229.5t-181 -76.5zM278 106q107 0 107 190q0 186 -107 186t-107 -186q0 -190 107 -190z" />
    <glyph glyph-name="S.sc" horiz-adv-x="498" 
d="M254 -11q-163 0 -236 149l113 54q49 -90 123 -90t74 56q0 27 -23 44t-77 40q-31 13 -39 16.5t-35.5 17t-37 21.5t-28.5 24.5t-26 32t-14 38t-7 47.5q0 72 55 118t145 46q154 0 215 -134l-110 -56q-37 78 -102 78q-29 0 -46 -13.5t-17 -36.5q0 -29 23 -47.5t74 -40.5
q97 -40 130 -66q61 -49 62 -125q0 -75 -55 -124t-161 -49z" />
    <glyph glyph-name="W.sc" horiz-adv-x="694" 
d="M271 -1h-125l-136 593h143l46 -257q17 -94 21 -123h2q5 39 20 122l48 258h125l50 -258q19 -111 21 -122h1q4 30 10.5 68.5t8.5 52.5l44 259h132l-132 -593h-125l-73 388h-2z" />
    <glyph glyph-name="Eth.sc" horiz-adv-x="533" 
d="M220 0h-172v259h-44v90h44v243h172q65 0 114.5 -13.5t90 -45t61.5 -90.5t21 -144q0 -86 -21.5 -146.5t-62 -93t-89.5 -46t-114 -13.5zM194 259v-146h38q73 0 102 42.5t29 141.5q0 95 -29 137t-103 42h-37v-127h73v-90h-73z" />
    <glyph glyph-name="ff.sc" horiz-adv-x="839" 
d="M614 0h-148v592h362v-118h-214v-128h152v-111h-152v-235zM196 0h-148v592h362v-118h-214v-128h152v-111h-152v-235z" />
    <glyph glyph-name="Ocircumflex.sc" horiz-adv-x="555" 
d="M205 643h-85l110 166h99l109 -166h-85l-74 70zM278 -10q-109 0 -181 76.5t-72 229.5t72 229.5t181 76.5t181 -76.5t72 -229.5t-72 -229.5t-181 -76.5zM278 106q107 0 107 190q0 186 -107 186t-107 -186q0 -190 107 -190z" />
    <glyph glyph-name="Igrave.sc" horiz-adv-x="252" 
d="M194 643h-101l-124 166h145zM198 0h-144v592h144v-592z" />
    <glyph glyph-name="one.sc" horiz-adv-x="357" 
d="M343 0h-320v113h98v350q-44 -29 -97 -29v118q64 0 100 40h135v-479h84v-113z" />
    <glyph glyph-name="fi.sc" horiz-adv-x="670" 
d="M615 0h-144v592h144v-592zM194 0h-146v592h360v-118h-214v-128h152v-111h-152v-235z" />
    <glyph glyph-name="question.sc" horiz-adv-x="439" 
d="M268 174h-124q-3 28 -2 47q1 48 19.5 76t53.5 55q21 16 32 25.5t19.5 26.5t8.5 38q0 47 -59 47q-30 0 -61.5 -19t-52.5 -51l-88 72q62 114 214 114q91 0 138 -40.5t47 -109.5q0 -29 -6.5 -51.5t-23 -43t-26.5 -30t-35 -31.5q-32 -25 -45.5 -51.5t-8.5 -73.5zM280 124
v-124h-150v124h150z" />
    <glyph glyph-name="two.sc" horiz-adv-x="450" 
d="M419 0h-400v16q0 88 35.5 151.5t126.5 125.5q59 42 81.5 69.5t22.5 65.5q0 62 -58 62q-61 0 -99 -90l-104 47q65 156 210 156q85 0 134 -45t49 -121q0 -59 -27 -104.5t-92 -93.5q-115 -86 -117 -126h238v-113z" />
    <glyph glyph-name="fraction.sc" horiz-adv-x="403" 
d="M122 0h-132l290 592h132z" />
    <glyph glyph-name="f_j.sc" horiz-adv-x="712" 
d="M196 0h-148v592h362v-118h-214v-128h152v-111h-152v-235zM321 37l54 100q47 -31 92 -31q28 0 42.5 15t14.5 51v420h148v-430q0 -85 -44 -128t-144 -43q-91 0 -163 46z" />
    <glyph glyph-name="Lslash.sc" horiz-adv-x="418" 
d="M406 115v-115h-358v243l-44 -14v96l44 13v254h146v-209l72 21v-95l-72 -21v-173h212z" />
    <glyph glyph-name="Scaron.sc" horiz-adv-x="496" 
d="M298 644h-100l-109 166h86l73 -70l74 70h85zM254 -11q-163 0 -236 149l113 54q49 -90 123 -90t74 56q0 27 -23 44t-77 40q-31 13 -39 16.5t-35.5 17t-37 21.5t-28.5 24.5t-26 32t-14 38t-7 47.5q0 72 55 118t145 46q154 0 215 -134l-110 -56q-37 78 -102 78
q-29 0 -46 -13.5t-17 -36.5q0 -29 23 -47.5t74 -40.5q97 -40 130 -66q61 -49 62 -125q0 -75 -55 -124t-161 -49z" />
    <glyph glyph-name="Iacute.sc" horiz-adv-x="252" 
d="M160 643h-102l81 166h145zM198 0h-144v592h144v-592z" />
    <glyph glyph-name="B.sc" horiz-adv-x="506" 
d="M274 0h-226v592h215q200 0 200 -148q0 -58 -28.5 -91.5t-74.5 -42.5v-2q118 -24 118 -144q0 -80 -58 -122t-146 -42zM191 258v-155h68q78 0 78 77q0 78 -81 78h-65zM191 485v-139h63q71 0 71 70q0 69 -71 69h-63z" />
    <glyph glyph-name="F.sc" horiz-adv-x="421" 
d="M196 0h-148v592h362v-118h-214v-128h152v-111h-152v-235z" />
    <glyph glyph-name="J.sc" horiz-adv-x="393" 
d="M2 37l55 100q47 -31 91 -31q58 0 58 66v420h147v-430q0 -85 -44 -128t-144 -43q-91 0 -163 46z" />
    <glyph glyph-name="N.sc" horiz-adv-x="556" 
d="M181 0h-133v592h153l130 -251l49 -97h1l1 348h131v-592h-138l-131 242q-8 15 -21 40t-40 74h-2v-356z" />
    <glyph glyph-name="R.sc" horiz-adv-x="516" 
d="M193 0h-145v592h208q225 0 225 -189q0 -130 -104 -167l111 -236h-151l-98 211h-46v-211zM193 478v-166h58q43 0 63 20t20 65q0 44 -19.5 62.5t-62.5 18.5h-59z" />
    <glyph glyph-name="nine.sc" horiz-adv-x="472" 
d="M210 -11q-120 0 -174 103l102 54q29 -52 75 -52q87 0 96 165q-19 -24 -53 -38.5t-69 -14.5q-78 0 -124.5 51.5t-46.5 142.5t55.5 146t153.5 55q103 0 161 -75t58 -221q0 -152 -65.5 -234t-168.5 -82zM219 311q53 0 91 37q-6 149 -91 149q-72 0 -72 -92q0 -47 16.5 -70.5
t55.5 -23.5z" />
    <glyph glyph-name="three.sc" horiz-adv-x="465" 
d="M222 -12q-149 0 -212 133l107 52q38 -77 101 -77q39 0 59.5 20t20.5 56q0 50 -28.5 69t-94.5 19h-25v98h27q67 0 89 17.5t22 55.5q0 61 -66 61q-58 0 -100 -61l-91 62q70 110 204 110q91 0 140 -41.5t49 -110.5q0 -49 -28.5 -86t-79.5 -49q59 -14 90.5 -52.5t31.5 -98.5
q0 -80 -58.5 -128.5t-157.5 -48.5z" />
    <glyph glyph-name="V.sc" horiz-adv-x="498" 
d="M319 -2h-140l-173 594h146l72 -286l27 -129h2q27 116 30 129l74 286h135z" />
    <glyph glyph-name="Z.sc" horiz-adv-x="469" 
d="M445 0h-429v99l254 376h-235v117h410v-101l-249 -377h249v-114z" />
    <glyph glyph-name="Idieresis.sc" horiz-adv-x="252" 
d="M283 640h-124v138h124v-138zM94 640h-126v138h126v-138zM198 0h-144v592h144v-592z" />
    <glyph glyph-name="OE.sc" horiz-adv-x="779" 
d="M277 -10q-110 0 -181 76.5t-71 229.5t71 229.5t181 76.5q62 0 106 -38v28h365v-118h-221v-113h158v-111h-158v-135h231v-115h-375v27q-45 -37 -106 -37zM277 106q105 0 105 190q0 186 -105 186q-107 0 -107 -186q0 -190 107 -190z" />
    <glyph glyph-name="seven.sc" horiz-adv-x="398" 
d="M194 0h-137l192 479h-239v113h379v-105z" />
    <glyph glyph-name="AE.sc" horiz-adv-x="748" 
d="M143 0h-139l281 592h438v-115h-221v-117h158v-107h-158v-142h232v-111h-373v149h-147q-4 -18 -71 -149zM260 245h101v223h-1q-7 -42 -100 -223z" />
    <glyph glyph-name="backslash.sc" horiz-adv-x="455" 
d="M151 592l292 -592h-138l-293 592h139z" />
    <glyph glyph-name="Ugrave.sc" horiz-adv-x="517" 
d="M336 643h-102l-124 166h146zM262 -8q-221 0 -221 220v380h147v-374q0 -57 17.5 -82.5t59.5 -25.5q41 0 58 25.5t17 82.5v374h144v-379q0 -221 -222 -221z" />
    <glyph glyph-name="florin.sc" horiz-adv-x="323" 
d="M-65 -157l12 94q14 -2 32 -2q50 0 58 52q1 16 19 145.5t22 154.5h-62l11 91h63q3 33 12 87q9 64 45 96.5t121 32.5q41 0 65 -4l-13 -93q-14 2 -31 2q-24 0 -38.5 -9t-18.5 -35q-7 -52 -11 -77h79l-12 -91h-78q-32 -245 -45 -328q-9 -60 -43.5 -90t-115.5 -30q-59 0 -71 4
z" />
    <glyph glyph-name="six.sc" horiz-adv-x="472" 
d="M248 -10q-104 0 -162.5 75t-58.5 221q0 152 65.5 234.5t168.5 82.5q121 0 173 -104l-102 -54q-30 52 -74 52q-87 0 -96 -161q48 50 123 50q78 0 124 -52t46 -143t-54.5 -146t-152.5 -55zM252 91q72 0 72 95q0 94 -72 94q-53 0 -90 -37q7 -152 90 -152z" />
    <glyph glyph-name="percent.sc" horiz-adv-x="831" 
d="M177 221q-73 0 -113 51.5t-40 139.5q0 87 41 139.5t113 52.5t111.5 -51.5t39.5 -139.5t-39.5 -140t-112.5 -52zM328 0h-123l304 592h122zM660 -9q-73 0 -113 52t-40 140t41.5 140t112.5 52t111 -52t40 -139q0 -88 -39.5 -140.5t-112.5 -52.5zM178 315q38 0 38 97
q0 95 -39 95q-40 0 -40 -94q0 -98 41 -98zM661 86q38 0 38 98q0 94 -39 94t-39 -94q0 -98 40 -98z" />
    <glyph glyph-name="Yacute.sc" horiz-adv-x="494" 
d="M319 0h-145v230l-175 362h146l66 -149q4 -10 18 -44t20 -46h1l39 90l64 149h141l-175 -362v-230zM282 643h-102l81 166h145z" />
    <glyph glyph-name="sterling.sc" horiz-adv-x="506" 
d="M117 -10q-49 0 -80.5 24t-31.5 75q0 48 31.5 75.5t77.5 27.5q42 0 78 -29v6v7.5v6.5q-3 33 -26 80h-105v74h62q-32 60 -32 106q0 68 47.5 112t125.5 44q162 0 182 -165l-118 -20q-4 40 -16.5 62t-40.5 22q-22 0 -35 -13.5t-13 -39.5q0 -7 0.5 -13t2 -12.5t2.5 -11.5
t4 -12.5t4.5 -11t5.5 -12t5.5 -11.5t6.5 -12.5t6 -11.5h121v-74h-87q14 -37 14 -87q0 -40 -14 -74q20 -16 36 -16q28 0 41.5 19.5t14.5 71.5h108q-3 -92 -35.5 -139.5t-108.5 -47.5q-68 0 -117 39q-47 -39 -116 -39zM121 61q34 0 52 28q-32 32 -53 32q-13 0 -21.5 -8
t-8.5 -22q0 -30 31 -30z" />
    <glyph glyph-name="Adieresis.sc" horiz-adv-x="510" 
d="M139 0h-133l180 593h139l179 -593h-144l-33 122h-154zM233 640h-126v138h126v-138zM422 640h-124v138h124v-138zM233 347l-35 -134h105l-35 134q0 2 -16 62h-2q-11 -41 -17 -62z" />
    <glyph glyph-name="numbersign.sc" 
d="M190 0h-129l27 148h-75v107h94q0 1 2.5 14t6.5 33t8 36h-80v107h100q3 37 26 147h128l-25 -147h64q10 58 27 147h130l-28 -147h86v-107h-106l-15 -83h90v-107h-110q-2 -24 -26 -148h-129l26 148h-64q-8 -51 -28 -148zM236 253h67q8 48 16 87h-67q-8 -48 -16 -87z" />
    <glyph glyph-name="Aacute.sc" horiz-adv-x="510" 
d="M139 0h-133l180 593h139l179 -593h-144l-33 122h-154zM298 643h-102l80 166h146zM233 347l-35 -134h105l-35 134q0 2 -16 62h-2q-11 -41 -17 -62z" />
    <glyph glyph-name="Icircumflex.sc" horiz-adv-x="252" 
d="M53 643h-85l110 166h99l109 -166h-85l-74 70zM198 0h-144v592h144v-592z" />
    <glyph glyph-name="eight.sc" horiz-adv-x="465" 
d="M233 -12q-107 0 -162.5 43t-55.5 116q0 101 117 159q-94 55 -94 147q0 64 53.5 105t141.5 41q92 0 142.5 -40.5t50.5 -105.5q0 -91 -94 -142q58 -30 87 -66.5t29 -96.5q0 -73 -56.5 -116.5t-158.5 -43.5zM240 364q56 33 56 81q0 25 -15 40.5t-47 15.5t-48.5 -15
t-16.5 -39q0 -27 17.5 -46t53.5 -37zM232 84q38 0 59 19t21 51q0 54 -86 96q-75 -38 -75 -96q0 -31 22 -50.5t59 -19.5z" />
    <glyph glyph-name="Eacute.sc" horiz-adv-x="447" 
d="M262 643h-101l80 166h146zM423 0h-380v592h369v-118h-221v-113h157v-111h-157v-135h232v-115z" />
    <glyph glyph-name="fl.sc" horiz-adv-x="837" 
d="M826 0h-360v592h148v-477h212v-115zM194 0h-146v592h360v-118h-214v-128h152v-111h-152v-235z" />
    <glyph glyph-name="A.sc" horiz-adv-x="510" 
d="M139 0h-133l180 593h139l179 -593h-144l-33 122h-154zM233 347l-35 -134h105l-35 134q0 2 -16 62h-2q-11 -41 -17 -62z" />
    <glyph glyph-name="E.sc" horiz-adv-x="449" 
d="M428 0h-380v592h369v-118h-221v-113h158v-111h-158v-135h232v-115z" />
    <glyph glyph-name="I.sc" horiz-adv-x="252" 
d="M198 0h-144v592h144v-592z" />
    <glyph glyph-name="Thorn.sc" horiz-adv-x="490" 
d="M193 0h-144v592h144v-85h54q48 0 84.5 -7.5t71 -27.5t53.5 -60.5t19 -100.5q0 -62 -20 -103.5t-56 -61t-72 -27t-82 -7.5h-52v-112zM193 394v-175h58q45 0 65 22t20 66q0 45 -20 66t-65 21h-58z" />
    <glyph glyph-name="M.sc" horiz-adv-x="659" 
d="M173 0h-125v592h189l94 -399h1l88 399h191v-592h-137v407h-1q-10 -74 -23 -126q-1 -6 -29 -109.5t-40 -171.5h-115q-5 23 -33 130t-35 153q-12 52 -24 124h-1v-407z" />
    <glyph glyph-name="Q.sc" horiz-adv-x="555" 
d="M479 -53v-112h-79q-192 0 -198 168q-80 23 -128.5 95.5t-48.5 197.5q0 153 72 229.5t181 76.5t181 -76.5t72 -229.5q0 -130 -53.5 -203t-139.5 -93q4 -32 26.5 -42.5t76.5 -10.5h38zM278 106q107 0 107 190q0 186 -107 186t-107 -186q0 -190 107 -190z" />
    <glyph glyph-name="U.sc" horiz-adv-x="525" 
d="M262 -8q-221 0 -221 220v380h147v-374q0 -57 17.5 -82.5t59.5 -25.5q41 0 58 25.5t17 82.5v374h144v-379q0 -221 -222 -221z" />
    <glyph glyph-name="Y.sc" horiz-adv-x="494" 
d="M319 0h-145v230l-175 362h146l66 -149q4 -10 18 -44t20 -46h1l39 90l64 149h141l-175 -362v-230z" />
    <glyph glyph-name="Oacute.sc" horiz-adv-x="555" 
d="M313 643h-101l80 166h146zM278 -10q-109 0 -181 76.5t-72 229.5t72 229.5t181 76.5t181 -76.5t72 -229.5t-72 -229.5t-181 -76.5zM278 106q107 0 107 190q0 186 -107 186t-107 -186q0 -190 107 -190z" />
    <glyph glyph-name="ordmasculine.sc" horiz-adv-x="402" 
d="M201 212q-71 0 -118.5 48.5t-47.5 146.5t47.5 146.5t118.5 48.5t118.5 -48.5t47.5 -146.5t-47.5 -146.5t-118.5 -48.5zM201 292q58 0 58 114q0 113 -58 113q-59 0 -59 -113q0 -114 59 -114z" />
    <glyph glyph-name="Euro.sc" horiz-adv-x="532" 
d="M306 -10q-179 0 -215 203h-75v76h68q-1 7 -1 27q0 11 1 18h-68v76h74q14 107 72.5 160t146.5 53q86 0 133 -47t64 -138l-118 -20q-10 50 -27.5 72t-52.5 22q-73 0 -85 -102h101v-76h-106v-19q0 -18 1 -26h105v-76h-100q17 -95 88 -95q32 0 52.5 22.5t31.5 77.5l114 -14
q-43 -194 -204 -194z" />
    <glyph glyph-name="Tcedilla" horiz-adv-x="537" 
d="M221 -314l42 110h-59v150h150v-134l-64 -126h-69zM192 0v612h-176v128h505v-128h-177v-612h-152z" />
    <glyph glyph-name="tcedilla" horiz-adv-x="367" 
d="M119 -314l42 110h-59v150h150v-134l-64 -126h-69zM249 -6q-94 0 -128 32t-34 107v291h-76v109h76v183h147v-183h114v-109h-114v-254q0 -41 13 -55t50 -14q30 0 44 6v-106q-23 -7 -92 -7z" />
    <glyph glyph-name="Abreve.sc" horiz-adv-x="510" 
d="M6 0h133l34 122h154l33 -122h144l-179 593h-139zM251 632q-73 0 -111 47t-42 129h82q11 -85 71 -85q61 0 70 85h82q-4 -82 -42 -129t-110 -47zM198 213l35 134q6 21 17 62h2q16 -60 16 -62l35 -134h-105z" />
    <glyph glyph-name="Amacron.sc" horiz-adv-x="510" 
d="M6 0h133l34 122h154l33 -122h144l-179 593h-139zM103 654v109h303v-109h-303zM198 213l35 134q6 21 17 62h2q16 -60 16 -62l35 -134h-105z" />
    <glyph glyph-name="Aogonek.sc" horiz-adv-x="510" 
d="M390 -193q-49 0 -75 22t-26 58q0 62 71 113l-33 122h-154l-34 -122h-133l180 593h139l179 -593h-28q-41 0 -66.5 -26t-25.5 -61q0 -40 40 -40q30 0 71 26l33 -43q-64 -49 -138 -49zM198 213h105l-35 134q-3 13 -16 62h-2q-1 -3 -8 -30t-9 -32z" />
    <glyph glyph-name="Cacute.sc" horiz-adv-x="518" 
d="M187 643l80 166h145l-124 -166h-101zM268 -10q105 0 157 56.5t71 158.5l-135 22q-11 -66 -31.5 -93.5t-59.5 -27.5q-51 0 -75 46.5t-24 144.5q0 96 23.5 140.5t73.5 44.5q38 0 57.5 -27t28.5 -87l135 29q-14 103 -65.5 154t-155.5 51q-111 0 -177 -75.5t-66 -230.5
q0 -156 65.5 -231t177.5 -75z" />
    <glyph glyph-name="Ccaron.sc" horiz-adv-x="518" 
d="M207 644l-109 166h86l73 -71l74 71h85l-109 -166h-100zM268 -10q105 0 157 56.5t71 158.5l-135 22q-11 -66 -31.5 -93.5t-59.5 -27.5q-51 0 -75 46.5t-24 144.5q0 96 23.5 140.5t73.5 44.5q38 0 57.5 -27t28.5 -87l135 29q-14 103 -65.5 154t-155.5 51q-111 0 -177 -75.5
t-66 -230.5q0 -156 65.5 -231t177.5 -75z" />
    <glyph glyph-name="Ccircumflex.sc" horiz-adv-x="518" 
d="M101 643l110 166h99l109 -166h-85l-74 70l-74 -70h-85zM268 -10q105 0 157 56.5t71 158.5l-135 22q-11 -66 -31.5 -93.5t-59.5 -27.5q-51 0 -75 46.5t-24 144.5q0 96 23.5 140.5t73.5 44.5q38 0 57.5 -27t28.5 -87l135 29q-14 103 -65.5 154t-155.5 51q-111 0 -177 -75.5
t-66 -230.5q0 -156 65.5 -231t177.5 -75z" />
    <glyph glyph-name="Cdotaccent.sc" horiz-adv-x="518" 
d="M268 -10q105 0 157 56.5t71 158.5l-135 22q-11 -66 -31.5 -93.5t-59.5 -27.5q-51 0 -75 46.5t-24 144.5q0 96 23.5 140.5t73.5 44.5q38 0 57.5 -27t28.5 -87l135 29q-14 103 -65.5 154t-155.5 51q-111 0 -177 -75.5t-66 -230.5q0 -156 65.5 -231t177.5 -75zM185 649v128
h153v-128h-153z" />
    <glyph glyph-name="Dcaron.sc" horiz-adv-x="534" 
d="M48 0h172q65 0 114.5 13.5t90.5 46t62.5 93t21.5 146.5q0 85 -21.5 144t-62 90.5t-90.5 45t-115 13.5h-172v-592zM196 113v363h35q74 0 103 -42t29 -137q0 -99 -29 -141.5t-102 -42.5h-36zM211 644l-109 166h86l73 -71l74 71h85l-109 -166h-100z" />
    <glyph glyph-name="Dcroat.sc" horiz-adv-x="533" 
d="M220 0h-172v259h-44v90h44v243h172q65 0 114.5 -13.5t90 -45t61.5 -90.5t21 -144q0 -86 -21.5 -146.5t-62 -93t-89.5 -46t-114 -13.5zM194 259v-146h38q73 0 102 42.5t29 141.5q0 95 -29 137t-103 42h-37v-127h73v-90h-73z" />
    <glyph glyph-name="Ebreve.sc" horiz-adv-x="449" 
d="M48 0h380v115h-232v135h158v111h-158v113h221v118h-369v-592zM232 632q-73 0 -111 47t-42 129h82q11 -85 71 -85q61 0 70 85h82q-4 -82 -42 -129t-110 -47z" />
    <glyph glyph-name="Ecaron.sc" horiz-adv-x="449" 
d="M183 644l-109 166h86l73 -71l74 71h85l-109 -166h-100zM48 0h380v115h-232v135h158v111h-158v113h221v118h-369v-592z" />
    <glyph glyph-name="Edotaccent.sc" horiz-adv-x="449" 
d="M161 644v128h153v-128h-153zM48 0h380v115h-232v135h158v111h-158v113h221v118h-369v-592z" />
    <glyph glyph-name="Emacron.sc" horiz-adv-x="449" 
d="M81 654v109h303v-109h-303zM48 0h380v115h-232v135h158v111h-158v113h221v118h-369v-592z" />
    <glyph glyph-name="Eogonek.sc" horiz-adv-x="449" 
d="M289 -193q-48 0 -74 22t-26 58q0 62 71 113h-212v592h369v-118h-221v-113h158v-110h-158v-136h232v-115h-44q-47 0 -73.5 -25.5t-26.5 -61.5q0 -40 39 -40q32 0 71 26l34 -43q-65 -49 -139 -49z" />
    <glyph glyph-name="Gbreve.sc" horiz-adv-x="544" 
d="M249 -8q109 0 145 86h1v-78h104v301h-214v-100h85q-15 -97 -95 -97q-52 0 -78 46.5t-26 149.5q0 183 99 183q33 0 54.5 -25.5t32.5 -89.5l132 25q-22 113 -76.5 161t-143.5 48q-117 0 -180.5 -78.5t-63.5 -225.5q0 -306 224 -306zM262 633q-73 0 -111 47t-42 129h82
q11 -85 71 -85q61 0 70 85h82q-4 -82 -42 -129t-110 -47z" />
    <glyph glyph-name="Gcircumflex.sc" horiz-adv-x="544" 
d="M100 643l110 166h99l109 -166h-85l-74 70l-74 -70h-85zM249 -8q109 0 145 86h1v-78h104v301h-214v-100h85q-15 -97 -95 -97q-52 0 -78 46.5t-26 149.5q0 183 99 183q33 0 54.5 -25.5t32.5 -89.5l132 25q-22 113 -76.5 161t-143.5 48q-117 0 -180.5 -78.5t-63.5 -225.5
q0 -306 224 -306z" />
    <glyph glyph-name="Gcommaaccent.sc" horiz-adv-x="544" 
d="M226 -290l38 102h-53v136h136v-121l-58 -117h-63zM249 -8q-224 0 -224 306q0 147 63.5 225.5t180.5 78.5q89 0 143.5 -48t76.5 -161l-132 -25q-11 64 -32.5 89.5t-54.5 25.5q-99 0 -99 -183q0 -103 26 -149.5t78 -46.5q80 0 95 97h-85v100h214v-301h-104v78h-1
q-36 -86 -145 -86z" />
    <glyph glyph-name="Gdotaccent.sc" horiz-adv-x="544" 
d="M249 -8q109 0 145 86h1v-78h104v301h-214v-100h85q-15 -97 -95 -97q-52 0 -78 46.5t-26 149.5q0 183 99 183q33 0 54.5 -25.5t32.5 -89.5l132 25q-22 113 -76.5 161t-143.5 48q-117 0 -180.5 -78.5t-63.5 -225.5q0 -306 224 -306zM187 644v128h153v-128h-153z" />
    <glyph glyph-name="Hbar.sc" horiz-adv-x="556" 
d="M48 0v422h-41v102h41v68h148v-68h164v68h147v-68h42v-102h-42v-422h-147v252h-164v-252h-148zM196 367h164v55h-164v-55z" />
    <glyph glyph-name="Hcircumflex.sc" horiz-adv-x="556" 
d="M119 643l110 166h99l109 -166h-85l-74 70l-74 -70h-85zM48 0h148v252h164v-252h147v592h-147v-225h-164v225h-148v-592z" />
    <glyph glyph-name="Ibreve.sc" horiz-adv-x="252" 
d="M54 0h144v592h-144v-592zM127 632q-73 0 -111 47t-42 129h82q11 -85 71 -85q61 0 70 85h82q-4 -82 -42 -129t-110 -47z" />
    <glyph glyph-name="Idotaccent.sc" horiz-adv-x="252" 
d="M54 0h144v592h-144v-592zM50 644v128h153v-128h-153z" />
    <glyph glyph-name="IJ.sc" horiz-adv-x="645" 
d="M198 0h-144v592h144v-592zM253 37l55 100q46 -31 91 -31q58 0 58 66v420h147v-430q0 -85 -44 -128t-144 -43q-91 0 -163 46z" />
    <glyph glyph-name="Imacron.sc" horiz-adv-x="252" 
d="M54 0h144v592h-144v-592zM-25 654v109h303v-109h-303z" />
    <glyph glyph-name="Iogonek.sc" horiz-adv-x="252" 
d="M110 -193q-48 0 -74 22t-26 58q0 63 70 113h-26v592h144v-592h-18q-32 -6 -53.5 -31t-21.5 -56q0 -40 39 -40q32 0 71 26l34 -43q-65 -49 -139 -49z" />
    <glyph glyph-name="Itilde.sc" horiz-adv-x="252" 
d="M54 0h144v592h-144v-592zM196 631q-36 0 -75.5 28t-54.5 28q-36 0 -36 -54h-77q0 159 106 159q37 0 76.5 -28t54.5 -28q35 0 35 54h77q0 -159 -106 -159z" />
    <glyph glyph-name="Jcircumflex.sc" horiz-adv-x="393" 
d="M119 647l110 166h99l109 -166h-85l-74 70l-74 -70h-85zM2 37q72 -46 163 -46q100 0 144 43t44 128v430h-147v-420q0 -66 -58 -66q-44 0 -91 31z" />
    <glyph glyph-name="Kcommaaccent.sc" horiz-adv-x="518" 
d="M225 -290l38 102h-53v136h136v-121l-58 -117h-63zM193 0h-145v592h145v-235q19 31 50 73l105 162h146l-168 -232l184 -360h-153l-123 250l-41 -53v-197z" />
    <glyph glyph-name="Lacute.sc" horiz-adv-x="419" 
d="M48 0h360v115h-212v477h-148v-592zM61 643l80 166h145l-124 -166h-101z" />
    <glyph glyph-name="Lcaron.sc" horiz-adv-x="419" 
d="M48 0h360v115h-212v477h-148v-592zM269 349l38 107h-48v137h135v-127l-63 -117h-62z" />
    <glyph glyph-name="Lcommaaccent.sc" horiz-adv-x="419" 
d="M408 0h-360v592h148v-477h212v-115zM176 -290l38 102h-53v136h136v-121l-58 -117h-63z" />
    <glyph glyph-name="Ldot.sc" horiz-adv-x="485" 
d="M408 0h-360v592h148v-477h212v-115zM293 268v128h143v-128h-143z" />
    <glyph glyph-name="Nacute.sc" horiz-adv-x="556" 
d="M48 0h133v356h2q27 -49 40 -74t21 -40l131 -242h138v592h-131l-1 -348h-1l-49 97l-130 251h-153v-592zM219 643l80 166h145l-124 -166h-101z" />
    <glyph glyph-name="Ncaron.sc" horiz-adv-x="556" 
d="M48 0h133v356h2q27 -49 40 -74t21 -40l131 -242h138v592h-131l-1 -348h-1l-49 97l-130 251h-153v-592zM236 644l-109 166h86l73 -71l74 71h85l-109 -166h-100z" />
    <glyph glyph-name="Ncommaaccent.sc" horiz-adv-x="556" 
d="M181 0h-133v592h153l130 -251l49 -97h1l1 348h131v-592h-138l-131 242q-8 15 -21 40t-40 74h-2v-356zM226 -290l38 102h-53v136h136v-121l-58 -117h-63z" />
    <glyph glyph-name="Eng.sc" horiz-adv-x="556" 
d="M325 -200q-93 0 -163 46l54 99q48 -30 92 -30q33 0 49.5 15t16.5 51v22l-130 239q-3 6 -20 38.5t-41 75.5h-2v-356h-133v592h153l130 -251l49 -97h1l1 348h131v-622q0 -84 -44.5 -127t-143.5 -43z" />
    <glyph glyph-name="Obreve.sc" horiz-adv-x="555" 
d="M278 -10q109 0 181 76.5t72 229.5t-72 229.5t-181 76.5t-181 -76.5t-72 -229.5t72 -229.5t181 -76.5zM278 106q-107 0 -107 190q0 186 107 186t107 -186q0 -190 -107 -190zM277 633q-73 0 -111 47t-42 129h82q11 -85 71 -85q61 0 70 85h82q-4 -82 -42 -129t-110 -47z" />
    <glyph glyph-name="Ohungarumlaut.sc" horiz-adv-x="555" 
d="M278 -10q109 0 181 76.5t72 229.5t-72 229.5t-181 76.5t-181 -76.5t-72 -229.5t72 -229.5t181 -76.5zM278 106q-107 0 -107 190q0 186 107 186t107 -186q0 -190 -107 -190zM288 643l91 166h147l-136 -166h-102zM112 643l86 166h148l-132 -166h-102z" />
    <glyph glyph-name="Omacron.sc" horiz-adv-x="555" 
d="M278 -10q109 0 181 76.5t72 229.5t-72 229.5t-181 76.5t-181 -76.5t-72 -229.5t72 -229.5t181 -76.5zM278 106q-107 0 -107 190q0 186 107 186t107 -186q0 -190 -107 -190zM126 654v109h303v-109h-303z" />
    <glyph glyph-name="Racute.sc" horiz-adv-x="516" 
d="M191 643l80 166h145l-124 -166h-101zM48 0h145v211h46l98 -211h151l-111 236q104 37 104 167q0 189 -225 189h-208v-592zM193 312v166h59q43 0 62.5 -18.5t19.5 -62.5q0 -45 -20 -65t-63 -20h-58z" />
    <glyph glyph-name="Rcaron.sc" horiz-adv-x="516" 
d="M203 644l-109 166h86l73 -71l74 71h85l-109 -166h-100zM48 0h145v211h46l98 -211h151l-111 236q104 37 104 167q0 189 -225 189h-208v-592zM193 312v166h59q43 0 62.5 -18.5t19.5 -62.5q0 -45 -20 -65t-63 -20h-58z" />
    <glyph glyph-name="Rcommaaccent.sc" horiz-adv-x="516" 
d="M217 -290l38 102h-53v136h136v-121l-58 -117h-63zM193 0h-145v592h208q225 0 225 -189q0 -130 -104 -167l111 -236h-151l-98 211h-46v-211zM193 478v-166h58q43 0 63 20t20 65q0 44 -19.5 62.5t-62.5 18.5h-59z" />
    <glyph glyph-name="Sacute.sc" horiz-adv-x="498" 
d="M175 643l80 166h145l-124 -166h-101zM254 -11q106 0 161 49t55 124q0 40 -14 70t-44.5 52t-55 34.5t-68.5 30.5l-3 1.5t-3 1t-4 1.5q-51 22 -74 40.5t-23 47.5q0 23 17 36.5t46 13.5q65 0 102 -78l110 56q-61 134 -215 134q-90 0 -145 -46t-55 -118q0 -25 7 -47.5t14 -38
t26 -32t28.5 -24.5t37 -21.5t35.5 -17t39 -16.5q54 -23 77 -40t23 -44q0 -56 -74 -56t-123 90l-113 -54q73 -149 236 -149z" />
    <glyph glyph-name="Scedilla.sc" horiz-adv-x="498" 
d="M18 138l113 54q49 -90 123 -90t74 56q0 27 -23 44t-77 40q-31 13 -39 16.5t-35.5 17t-37 21.5t-28.5 24.5t-26 32t-14 38t-7 47.5q0 72 55 118t145 46q154 0 215 -134l-110 -56q-37 78 -102 78q-29 0 -46 -13.5t-17 -36.5q0 -29 23 -47.5t74 -40.5q97 -40 130 -66
q61 -49 62 -125q0 -71 -50 -119t-147 -53l5 16h-63l-5 -14q-129 17 -192 146zM255 -210q-79 0 -135 34l29 55q42 -27 99 -27q48 0 48 32q0 25 -29 25q-23 0 -40 -16l-41 19l24 80q21 -3 44 -3q13 0 19 1l-10 -39q21 14 55 14q29 0 48.5 -18t19.5 -53q0 -45 -37 -74.5
t-94 -29.5z" />
    <glyph glyph-name="Scircumflex.sc" horiz-adv-x="498" 
d="M79 643l110 166h99l109 -166h-85l-74 70l-74 -70h-85zM254 -11q106 0 161 49t55 124q0 40 -14 70t-44.5 52t-55 34.5t-68.5 30.5l-3 1.5t-3 1t-4 1.5q-51 22 -74 40.5t-23 47.5q0 23 17 36.5t46 13.5q65 0 102 -78l110 56q-61 134 -215 134q-90 0 -145 -46t-55 -118
q0 -25 7 -47.5t14 -38t26 -32t28.5 -24.5t37 -21.5t35.5 -17t39 -16.5q54 -23 77 -40t23 -44q0 -56 -74 -56t-123 90l-113 -54q73 -149 236 -149z" />
    <glyph glyph-name="Scommaaccent.sc" horiz-adv-x="498" 
d="M196 -290l38 102h-53v136h136v-121l-58 -117h-63zM254 -11q-163 0 -236 149l113 54q49 -90 123 -90t74 56q0 27 -23 44t-77 40q-31 13 -39 16.5t-35.5 17t-37 21.5t-28.5 24.5t-26 32t-14 38t-7 47.5q0 72 55 118t145 46q154 0 215 -134l-110 -56q-37 78 -102 78
q-29 0 -46 -13.5t-17 -36.5q0 -29 23 -47.5t74 -40.5q97 -40 130 -66q61 -49 62 -125q0 -75 -55 -124t-161 -49z" />
    <glyph glyph-name="Tbar.sc" horiz-adv-x="459" 
d="M154 0v204h-143v102h143v168h-143v118h437v-118h-146v-168h146v-102h-146v-204h-148z" />
    <glyph glyph-name="Tcaron.sc" horiz-adv-x="459" 
d="M154 0h148v474h146v118h-437v-118h143v-474zM178 644l-109 166h86l73 -71l74 71h85l-109 -166h-100z" />
    <glyph glyph-name="Tcommaaccent.sc" horiz-adv-x="459" 
d="M302 0h-148v474h-143v118h437v-118h-146v-474zM176 -290l38 102h-53v136h136v-121l-58 -117h-63z" />
    <glyph glyph-name="Ubreve.sc" horiz-adv-x="525" 
d="M262 -8q222 0 222 221v379h-144v-374q0 -57 -17 -82.5t-58 -25.5q-42 0 -59.5 25.5t-17.5 82.5v374h-147v-380q0 -220 221 -220zM264 632q-73 0 -111 47t-42 129h82q11 -85 71 -85q61 0 70 85h82q-4 -82 -42 -129t-110 -47z" />
    <glyph glyph-name="Uhungarumlaut.sc" horiz-adv-x="525" 
d="M290 643l91 166h147l-136 -166h-102zM114 643l86 166h148l-132 -166h-102zM262 -8q222 0 222 221v379h-144v-374q0 -57 -17 -82.5t-58 -25.5q-42 0 -59.5 25.5t-17.5 82.5v374h-147v-380q0 -220 221 -220z" />
    <glyph glyph-name="Umacron.sc" horiz-adv-x="525" 
d="M112 654v109h303v-109h-303zM262 -8q222 0 222 221v379h-144v-374q0 -57 -17 -82.5t-58 -25.5q-42 0 -59.5 25.5t-17.5 82.5v374h-147v-380q0 -220 221 -220z" />
    <glyph glyph-name="Uogonek.sc" horiz-adv-x="525" 
d="M302 -193q-48 0 -74 22t-26 58q0 59 60 105q-221 0 -221 220v380h147v-374q0 -57 17.5 -82.5t59.5 -25.5q41 0 58 25.5t17 82.5v374h144v-379q0 -154 -119 -210q-68 -31 -68 -90q0 -40 39 -40q32 0 71 26l34 -43q-65 -49 -139 -49z" />
    <glyph glyph-name="Uring.sc" horiz-adv-x="525" 
d="M264 624q-45 0 -73.5 31.5t-28.5 79.5q0 47 28.5 78t73.5 31t73 -31t28 -78q0 -48 -28 -79.5t-73 -31.5zM264 683q17 0 26.5 14.5t9.5 36.5q0 21 -9.5 35.5t-26.5 14.5q-18 0 -27.5 -14.5t-9.5 -35.5q0 -22 9.5 -36.5t27.5 -14.5zM262 -8q222 0 222 221v379h-144v-374
q0 -57 -17 -82.5t-58 -25.5q-42 0 -59.5 25.5t-17.5 82.5v374h-147v-380q0 -220 221 -220z" />
    <glyph glyph-name="Utilde.sc" horiz-adv-x="525" 
d="M262 -8q222 0 222 221v379h-144v-374q0 -57 -17 -82.5t-58 -25.5q-42 0 -59.5 25.5t-17.5 82.5v374h-147v-380q0 -220 221 -220zM334 631q-36 0 -75.5 28t-54.5 28q-36 0 -36 -54h-77q0 159 106 159q37 0 76.5 -28t54.5 -28q35 0 35 54h77q0 -159 -106 -159z" />
    <glyph glyph-name="Wacute.sc" horiz-adv-x="691" 
d="M146 -1h125l79 388h2l73 -388h125l132 593h-132l-44 -259q-2 -14 -8.5 -52.5t-10.5 -68.5h-1q-2 11 -21 122l-50 258h-125l-48 -258q-15 -83 -20 -122h-2q-4 29 -21 123l-46 257h-143zM295 643l80 166h145l-124 -166h-101z" />
    <glyph glyph-name="Wcircumflex.sc" horiz-adv-x="691" 
d="M146 -1h125l79 388h2l73 -388h125l132 593h-132l-44 -259q-2 -14 -8.5 -52.5t-10.5 -68.5h-1q-2 11 -21 122l-50 258h-125l-48 -258q-15 -83 -20 -122h-2q-4 29 -21 123l-46 257h-143zM192 643l110 166h99l109 -166h-85l-74 70l-74 -70h-85z" />
    <glyph glyph-name="Wdieresis.sc" horiz-adv-x="691" 
d="M146 -1h125l79 388h2l73 -388h125l132 593h-132l-44 -259q-2 -14 -8.5 -52.5t-10.5 -68.5h-1q-2 11 -21 122l-50 258h-125l-48 -258q-15 -83 -20 -122h-2q-4 29 -21 123l-46 257h-143zM194 640v138h126v-138h-126zM385 640v138h124v-138h-124z" />
    <glyph glyph-name="Wgrave.sc" horiz-adv-x="691" 
d="M146 -1h125l79 388h2l73 -388h125l132 593h-132l-44 -259q-2 -14 -8.5 -52.5t-10.5 -68.5h-1q-2 11 -21 122l-50 258h-125l-48 -258q-15 -83 -20 -122h-2q-4 29 -21 123l-46 257h-143zM310 643l-124 166h146l80 -166h-102z" />
    <glyph glyph-name="Ycircumflex.sc" horiz-adv-x="495" 
d="M174 0h145v230l175 362h-141l-64 -149l-39 -90h-1q-6 12 -20 46t-18 44l-66 149h-146l175 -362v-230zM90 643l110 166h99l109 -166h-85l-74 70l-74 -70h-85z" />
    <glyph glyph-name="Ygrave.sc" horiz-adv-x="495" 
d="M174 0h145v230l175 362h-141l-64 -149l-39 -90h-1q-6 12 -20 46t-18 44l-66 149h-146l175 -362v-230zM212 643l-124 166h146l80 -166h-102z" />
    <glyph glyph-name="Zacute.sc" horiz-adv-x="469" 
d="M170 643l80 166h145l-124 -166h-101zM16 0h429v114h-249l249 377v101h-410v-117h235l-254 -376v-99z" />
    <glyph glyph-name="Zdotaccent.sc" horiz-adv-x="469" 
d="M16 0h429v114h-249l249 377v101h-410v-117h235l-254 -376v-99zM159 644v128h153v-128h-153z" />
    <glyph glyph-name="product.sc" horiz-adv-x="642" 
d="M62 -200v940h518v-940h-151v812h-216v-812h-151z" />
    <glyph glyph-name="space.frac" horiz-adv-x="150" 
 />
    <glyph glyph-name="one.sups" horiz-adv-x="322" 
d="M43 274v97h68v253q-22 -11 -66 -11v99q53 1 78 28h107v-369h60v-97h-247z" />
    <glyph glyph-name="two.sups" horiz-adv-x="385" 
d="M32 276v25q0 53 20.5 95.5t50 69t59 49t50 47t20.5 51.5q0 37 -35 37q-20 0 -36.5 -17.5t-32.5 -54.5l-98 42q26 64 65.5 95t104.5 31q69 0 107.5 -35.5t38.5 -99.5q0 -43 -26.5 -81.5t-58.5 -60.5t-60.5 -48.5t-32.5 -47.5h176v-97h-312z" />
    <glyph glyph-name="three.sups" horiz-adv-x="395" 
d="M193 268q-122 0 -171 118l87 47q29 -69 80 -69q28 0 42.5 15t14.5 40q0 36 -21 51.5t-65 15.5h-20v67h25q71 0 71 56q0 18 -11 30t-31 12q-43 0 -81 -50l-77 55q61 93 166 93q66 0 104.5 -34t38.5 -90q0 -71 -62 -100q73 -31 73 -112q0 -68 -45 -106.5t-118 -38.5z" />
    <glyph glyph-name="zero.numr" horiz-adv-x="414" 
d="M208 261q-84 0 -131.5 61.5t-47.5 179.5t48 180t131 62t130 -62t47 -180t-47 -179.5t-130 -61.5zM208 358q34 0 46.5 34.5t12.5 109.5q0 73 -13 107t-46 34q-34 0 -47 -33.5t-13 -107.5t13.5 -109t46.5 -35z" />
    <glyph glyph-name="one.numr" horiz-adv-x="284" 
d="M23 269v97h68v253q-22 -11 -66 -11v99q53 1 78 28h107v-369h60v-97h-247z" />
    <glyph glyph-name="two.numr" horiz-adv-x="345" 
d="M12 271v25q0 53 20.5 95.5t50 69t59 49t50 47t20.5 51.5q0 37 -35 37q-20 0 -36.5 -17.5t-32.5 -54.5l-98 42q26 64 65.5 95t104.5 31q69 0 107.5 -35.5t38.5 -99.5q0 -43 -26.5 -81.5t-58.5 -60.5t-60.5 -48.5t-32.5 -47.5h176v-97h-312z" />
    <glyph glyph-name="three.numr" horiz-adv-x="355" 
d="M173 263q-122 0 -171 118l87 47q29 -69 80 -69q28 0 42.5 15t14.5 40q0 36 -21 51.5t-65 15.5h-20v67h25q71 0 71 56q0 18 -11 30t-31 12q-43 0 -81 -50l-77 55q61 93 166 93q66 0 104.5 -34t38.5 -90q0 -71 -62 -100q73 -31 73 -112q0 -68 -45 -106.5t-118 -38.5z" />
    <glyph glyph-name="four.numr" horiz-adv-x="381" 
d="M193 269v95h-178v78l173 293h117v-276h60v-95h-60v-95h-112zM118 453h81v141z" />
    <glyph glyph-name="five.numr" horiz-adv-x="370" 
d="M185 261q-72 0 -113.5 25.5t-63.5 75.5l87 48q26 -54 84 -54q56 0 56 75q0 67 -53 67q-34 0 -54 -32l-89 15l16 254h268l-5 -96h-175l-4 -80q30 22 78 22q63 0 98.5 -40t35.5 -115q0 -80 -44 -122.5t-122 -42.5z" />
    <glyph glyph-name="six.numr" horiz-adv-x="387" 
d="M201 261q-172 0 -172 234q0 128 44 188.5t137 60.5q101 0 145 -85l-90 -49q-24 41 -57 41q-35 0 -49 -23t-17 -88q44 36 96 36q127 0 127 -156q0 -70 -45.5 -114.5t-118.5 -44.5zM205 352q50 0 50 68t-48 68q-20 0 -33.5 -6.5t-32.5 -23.5q4 -55 18.5 -80.5t45.5 -25.5z
" />
    <glyph glyph-name="seven.numr" horiz-adv-x="335" 
d="M48 269l151 370h-177v96h296v-90l-151 -376h-119z" />
    <glyph glyph-name="eight.numr" horiz-adv-x="383" 
d="M192 261q-81 0 -126 33.5t-45 91.5q0 76 84 124q-33 22 -49.5 47.5t-16.5 68.5q0 49 41.5 83.5t111.5 34.5q73 0 112.5 -32t39.5 -86q0 -40 -17 -65t-50 -47q42 -23 63.5 -51t21.5 -76q0 -58 -46.5 -92t-123.5 -34zM189 342q27 0 42.5 14.5t15.5 39.5q0 23 -15 38.5
t-48 33.5q-51 -31 -51 -72q0 -24 14.5 -39t41.5 -15zM198 553q38 24 38 61q0 45 -42 45q-43 0 -43 -44q0 -23 11 -35.5t36 -26.5z" />
    <glyph glyph-name="nine.numr" horiz-adv-x="387" 
d="M177 261q-101 0 -145 84l90 49q24 -41 57 -41q35 0 49 23t18 88q-45 -36 -97 -36q-127 0 -127 156q0 71 45.5 115.5t118.5 44.5q172 0 172 -235q0 -128 -44 -188t-137 -60zM180 513q33 0 66 30q-4 55 -18.5 80.5t-44.5 25.5q-51 0 -51 -68t48 -68z" />
    <glyph glyph-name="zero.dnom" horiz-adv-x="414" 
d="M208 -8q-84 0 -131.5 61.5t-47.5 179.5t48 180t131 62t130 -62t47 -180t-47 -179.5t-130 -61.5zM208 89q34 0 46.5 34.5t12.5 109.5q0 73 -13 107t-46 34q-34 0 -47 -33.5t-13 -107.5t13.5 -109t46.5 -35z" />
    <glyph glyph-name="one.dnom" horiz-adv-x="284" 
d="M23 0v97h68v253q-22 -11 -66 -11v99q53 1 78 28h107v-369h60v-97h-247z" />
    <glyph glyph-name="two.dnom" horiz-adv-x="345" 
d="M12 2v25q0 53 20.5 95.5t50 69t59 49t50 47t20.5 51.5q0 37 -35 37q-20 0 -36.5 -17.5t-32.5 -54.5l-98 42q26 64 65.5 95t104.5 31q69 0 107.5 -35.5t38.5 -99.5q0 -43 -26.5 -81.5t-58.5 -60.5t-60.5 -48.5t-32.5 -47.5h176v-97h-312z" />
    <glyph glyph-name="three.dnom" horiz-adv-x="355" 
d="M173 -6q-122 0 -171 118l87 47q29 -69 80 -69q28 0 42.5 15t14.5 40q0 36 -21 51.5t-65 15.5h-20v67h25q71 0 71 56q0 18 -11 30t-31 12q-43 0 -81 -50l-77 55q61 93 166 93q66 0 104.5 -34t38.5 -90q0 -71 -62 -100q73 -31 73 -112q0 -68 -45 -106.5t-118 -38.5z" />
    <glyph glyph-name="four.dnom" horiz-adv-x="381" 
d="M193 0v95h-178v78l173 293h117v-276h60v-95h-60v-95h-112zM118 184h81v141z" />
    <glyph glyph-name="five.dnom" horiz-adv-x="370" 
d="M185 -8q-72 0 -113.5 25.5t-63.5 75.5l87 48q26 -54 84 -54q56 0 56 75q0 67 -53 67q-34 0 -54 -32l-89 15l16 254h268l-5 -96h-175l-4 -80q30 22 78 22q63 0 98.5 -40t35.5 -115q0 -80 -44 -122.5t-122 -42.5z" />
    <glyph glyph-name="six.dnom" horiz-adv-x="387" 
d="M201 -8q-172 0 -172 234q0 128 44 188.5t137 60.5q101 0 145 -85l-90 -49q-24 41 -57 41q-35 0 -49 -23t-17 -88q44 36 96 36q127 0 127 -156q0 -70 -45.5 -114.5t-118.5 -44.5zM205 83q50 0 50 68t-48 68q-20 0 -33.5 -6.5t-32.5 -23.5q4 -55 18.5 -80.5t45.5 -25.5z
" />
    <glyph glyph-name="seven.dnom" horiz-adv-x="335" 
d="M48 0l151 370h-177v96h296v-90l-151 -376h-119z" />
    <glyph glyph-name="eight.dnom" horiz-adv-x="383" 
d="M192 -8q-81 0 -126 33.5t-45 91.5q0 76 84 124q-33 22 -49.5 47.5t-16.5 68.5q0 49 41.5 83.5t111.5 34.5q73 0 112.5 -32t39.5 -86q0 -40 -17 -65t-50 -47q42 -23 63.5 -51t21.5 -76q0 -58 -46.5 -92t-123.5 -34zM189 73q27 0 42.5 14.5t15.5 39.5q0 23 -15 38.5
t-48 33.5q-51 -31 -51 -72q0 -25 14.5 -39.5t41.5 -14.5zM198 284q38 24 38 61q0 45 -42 45q-43 0 -43 -44q0 -23 11 -35.5t36 -26.5z" />
    <glyph glyph-name="nine.dnom" horiz-adv-x="387" 
d="M177 -8q-101 0 -145 84l90 49q24 -41 57 -41q35 0 49 23t18 88q-45 -36 -97 -36q-127 0 -127 156q0 71 45.5 115.5t118.5 44.5q172 0 172 -235q0 -128 -44 -188t-137 -60zM180 244q33 0 66 30q-4 55 -18.5 80.5t-44.5 25.5q-51 0 -51 -68t48 -68z" />
    <glyph glyph-name="i.trk" horiz-adv-x="258" 
d="M55 601v128h148v-128h-148zM55 0v533h148v-533h-148z" />
    <glyph glyph-name="registered.salt_big" horiz-adv-x="723" 
d="M360 -14q-141 0 -232.5 109.5t-91.5 272.5q0 164 93 275t233 111q141 0 233 -109.5t92 -272.5q0 -164 -93.5 -275t-233.5 -111zM362 48q112 0 183 91t71 229q0 139 -72.5 231.5t-183.5 92.5t-182.5 -91t-71.5 -229q0 -139 72.5 -231.5t183.5 -92.5zM229 171v414h137
q141 0 141 -136q0 -85 -61 -120l65 -158h-98l-59 145h-33v-145h-92zM321 390h40q29 0 42.5 13t13.5 43q0 54 -56 54h-40v-110z" />
    <glyph glyph-name="space.thin_fra" horiz-adv-x="120" 
 />
    <glyph glyph-name="endash.en_salt" horiz-adv-x="500" 
d="M0 247v125h500v-125h-500z" />
    <glyph glyph-name="zero.salt_slash" horiz-adv-x="594" 
d="M297 -14q-128 0 -196.5 97.5t-68.5 286.5t68.5 286.5t196.5 97.5t196 -97.5t68 -286.5t-68 -286.5t-196 -97.5zM297 109q59 0 86 61t27 200q0 49 -5 96l-189 -305q27 -52 81 -52zM183 370q0 -62 4 -99l189 308q-28 48 -79 48q-59 0 -86.5 -59.5t-27.5 -197.5z" />
    <glyph glyph-name="zero.tab_salt_slash" horiz-adv-x="564" 
d="M282 -14q-128 0 -196.5 97.5t-68.5 286.5t68.5 286.5t196.5 97.5t196 -97.5t68 -286.5t-68 -286.5t-196 -97.5zM282 109q59 0 86 61t27 200q0 49 -5 96l-189 -305q27 -52 81 -52zM168 370q0 -62 4 -99l189 308q-28 48 -79 48q-59 0 -86.5 -59.5t-27.5 -197.5z" />
    <glyph glyph-name="zero.sc_salt_slash" horiz-adv-x="522" 
d="M262 -10q-110 0 -169 77.5t-59 228.5q0 152 58.5 229t169.5 77q110 0 168 -77t58 -229q0 -151 -58 -228.5t-168 -77.5zM262 98q44 0 64.5 45.5t20.5 152.5q0 23 -2 59l-143 -222q20 -35 60 -35zM175 296q0 -40 2 -58l142 220q-20 34 -57 34q-45 0 -66 -45t-21 -151z" />
    <glyph glyph-name="prime.tab" horiz-adv-x="282" 
d="M68 474l21 204l10 62h129l-61 -266h-99z" />
    <glyph glyph-name="primedbl.tab" horiz-adv-x="564" 
d="M300 474l22 204l10 62h127l-60 -266h-99zM121 474l21 204l10 62h127l-60 -266h-98z" />
    <glyph glyph-name="asterisk.tab" horiz-adv-x="564" 
d="M219 330l-83 48l91 127l-156 -14v93l159 -16l-95 129l84 49l63 -144l65 144l84 -49l-93 -128l156 15v-93l-156 14l93 -127l-83 -48l-66 142z" />
    <glyph glyph-name="periodcentered.tab" horiz-adv-x="282" 
d="M58 224v152h167v-152h-167z" />
    <glyph glyph-name="space.tab_em" horiz-adv-x="1130" 
 />
    <glyph glyph-name="space.tab_thin" horiz-adv-x="140" 
 />
    <glyph glyph-name="plus.sc" 
d="M220 44v196h-166v122h166v196h125v-196h166v-122h-166v-196h-125z" />
    <glyph glyph-name="minus.sc" 
d="M54 240v122h457v-122h-457z" />
    <glyph glyph-name="multiply.sc" 
d="M136 74l-81 81l146 145l-146 146l81 81l146 -146l146 146l81 -81l-146 -146l146 -145l-81 -81l-146 145z" />
    <glyph glyph-name="divide.sc" 
d="M219 429v121h126v-121h-126zM54 240v122h457v-122h-457zM219 51v122h126v-122h-126z" />
    <glyph glyph-name="equal.sc" 
d="M59 354v111h446v-111h-446zM59 136v111h446v-111h-446z" />
    <glyph glyph-name="less.sc" horiz-adv-x="577" 
d="M512 35l-450 219v94l450 219v-127l-303 -139l303 -139v-127z" />
    <glyph glyph-name="greater.sc" horiz-adv-x="577" 
d="M65 35v127l303 139l-303 139v127l451 -219v-94z" />
    </font>
</defs>
</svg>
