<?xml version="1.0" standalone="no"?>
<!DOCTYPE svg PUBLIC "-//W3C//DTD SVG 1.1//EN" "http://www.w3.org/Graphics/SVG/1.1/DTD/svg11.dtd" >
<svg xmlns="http://www.w3.org/2000/svg" xmlns:xlink="http://www.w3.org/1999/xlink" version="1.1">
<metadata>
Created by FontForge 20170731 at Wed Feb 29 01:42:57 2012
 By Aleksey,,,
Copyright (c) The Font Bureau, Inc, 2003. All rights reserved.
</metadata>
<defs>
<font id="BentonSansCond-Medium" horiz-adv-x="1059" >
  <font-face 
    font-family="BentonSansCond Medium"
    font-weight="500"
    font-stretch="condensed"
    units-per-em="2048"
    panose-1="2 0 6 6 4 0 0 2 0 4"
    ascent="1612"
    descent="-436"
    x-height="1085"
    cap-height="1516"
    bbox="-150 -580 2499 2226"
    underline-thickness="20"
    underline-position="-153"
    unicode-range="U+0020-FB04"
  />
<missing-glyph horiz-adv-x="1024" 
d="M0 0v1434h1024v-1434h-1024zM102 102h820v1229h-820v-1229z" />
    <glyph glyph-name="uniFB00" unicode="ff" horiz-adv-x="1319" 
d="M37 899v186h156v134q0 67 15.5 122t52.5 95t99 62t154 22q15 0 34 -0.5t37 -1.5t31.5 -2.5t16.5 -2.5v-188q-3 1 -12 1.5t-20 1t-21.5 1t-16.5 0.5q-29 0 -54 -5.5t-43.5 -19.5t-29 -38.5t-10.5 -63.5v-117h199v-186h-199v-899h-233v899h-156zM696 899v186h156v134
q0 67 15.5 122t53 95t99.5 62t154 22q14 0 33 -0.5t37 -1.5t31.5 -2.5t16.5 -2.5v-188q-3 1 -12 1.5t-20 1t-21.5 1t-15.5 0.5q-29 0 -54.5 -5.5t-44 -19.5t-29 -38.5t-10.5 -63.5v-117h199v-186h-199v-899h-233v899h-156z" />
    <glyph glyph-name="uniFB01" unicode="fi" horiz-adv-x="1098" 
d="M37 899v186h156v134q0 67 17 122t54.5 95t96.5 62t143 22q15 0 32.5 -0.5t33 -1.5t27.5 -2.5t15 -2.5v-188q-3 1 -10.5 1.5t-16.5 1.5h-18q-9 1 -14 1q-59 0 -93 -29t-34 -98v-117h178v-186h-178v-899h-233v899h-156zM735 1264v219h236v-219h-236zM737 0v1085h232v-1085
h-232z" />
    <glyph glyph-name="uniFB02" unicode="fl" horiz-adv-x="1098" 
d="M37 899v186h156v134q0 67 17 122t54.5 95t96.5 62t143 22q15 0 32.5 -0.5t33 -1.5t27.5 -2.5t15 -2.5v-188q-3 1 -10.5 1.5t-16.5 1.5h-18q-9 1 -14 1q-59 0 -93 -29t-34 -98v-117h178v-186h-178v-899h-233v899h-156zM737 0v1516h232v-1516h-232z" />
    <glyph glyph-name="uniFB03" unicode="ffi" horiz-adv-x="1808" 
d="M37 899v186h156v134q0 67 15.5 122t52.5 95t99 62t154 22q15 0 34 -0.5t37 -1.5t31.5 -2.5t16.5 -2.5v-188q-3 1 -12 1.5t-20 1t-21.5 1t-16.5 0.5q-29 0 -54 -5.5t-43.5 -19.5t-29 -38.5t-10.5 -63.5v-117h199v-186h-199v-899h-233v899h-156zM696 899v186h156v134
q0 67 15.5 122t53 95t99.5 62t154 22q14 0 33 -0.5t37 -1.5t31.5 -2.5t16.5 -2.5v-188q-3 1 -12 1.5t-20 1t-21.5 1t-15.5 0.5q-29 0 -54.5 -5.5t-44 -19.5t-29 -38.5t-10.5 -63.5v-117h199v-186h-199v-899h-233v899h-156zM1446 0v1085h233v-1085h-233zM1446 1264v219h235
v-219h-235z" />
    <glyph glyph-name="uniFB04" unicode="ffl" horiz-adv-x="1808" 
d="M37 899v186h156v134q0 67 15.5 122t52.5 95t99 62t154 22q15 0 34 -0.5t37 -1.5t31.5 -2.5t16.5 -2.5v-188q-3 1 -12 1.5t-20 1t-21.5 1t-16.5 0.5q-29 0 -54 -5.5t-43.5 -19.5t-29 -38.5t-10.5 -63.5v-117h199v-186h-199v-899h-233v899h-156zM696 899v186h156v134
q0 67 15.5 122t53 95t99.5 62t154 22q14 0 33 -0.5t37 -1.5t31.5 -2.5t16.5 -2.5v-188q-3 1 -12 1.5t-20 1t-21.5 1t-15.5 0.5q-29 0 -54.5 -5.5t-44 -19.5t-29 -38.5t-10.5 -63.5v-117h199v-186h-199v-899h-233v899h-156zM1446 0v1516h233v-1516h-233z" />
    <glyph glyph-name="f_j" unicode="fj" horiz-adv-x="1149" 
d="M37 899v186h156v134q0 67 15.5 122t52.5 95t99 62t154 22q15 0 34 -0.5t37 -1.5t31.5 -2.5t16.5 -2.5v-188q-3 1 -12 1.5t-20 1t-21.5 1t-16.5 0.5q-29 0 -54 -5.5t-43.5 -19.5t-29 -38.5t-10.5 -63.5v-117h199v-186h-199v-899h-233v899h-156zM625 -227q9 -3 30 -4.5
t35 -1.5q50 0 73 29t23 91v1198h234v-1220q0 -64 -12 -115t-43 -87t-84.5 -55.5t-135.5 -19.5q-11 0 -29.5 0.5t-37 2t-34 3t-19.5 3.5v176zM786 1264v219h236v-219h-236z" />
    <glyph glyph-name=".notdef" horiz-adv-x="1024" 
d="M0 0v1434h1024v-1434h-1024zM102 102h820v1229h-820v-1229z" />
    <glyph glyph-name=".null" horiz-adv-x="0" 
 />
    <glyph glyph-name="nonmarkingreturn" horiz-adv-x="682" 
 />
    <glyph glyph-name="space" unicode=" " horiz-adv-x="432" 
 />
    <glyph glyph-name="exclam" unicode="!" horiz-adv-x="608" 
d="M164 1516h285l-52 -1082h-180zM176 0v248h262v-248h-262z" />
    <glyph glyph-name="quotedbl" unicode="&#x22;" horiz-adv-x="793" 
d="M119 1395v121h209v-121l-29 -412h-152zM467 1395v121h207v-121l-29 -412h-149z" />
    <glyph glyph-name="numbersign" unicode="#" horiz-adv-x="1294" 
d="M53 418v184h228l55 311h-207v185h242l73 418h211l-73 -418h239l74 418h211l-74 -418h209v-185h-242l-57 -311h223v-184h-256l-71 -418h-213l73 418h-237l-74 -418h-213l74 418h-195zM492 598h239l57 320h-239z" />
    <glyph glyph-name="dollar" unicode="$" horiz-adv-x="1165" 
d="M76 377l205 63q38 -94 90 -157t131 -84v491q-70 29 -138 64t-121.5 84.5t-86.5 119.5t-33 170q0 78 25.5 145t73 117.5t116.5 83.5t156 44v159h172v-161q76 -12 134 -41.5t102 -73t76 -99t56 -118.5l-198 -82q-32 80 -75 132t-102 75v-447q49 -20 98 -42t95 -49
t85.5 -60.5t68.5 -77.5t46 -100t17 -127q0 -82 -26 -151.5t-77 -123t-126.5 -87.5t-173.5 -44v-190h-172v192q-89 12 -156.5 45t-117.5 82.5t-85 112.5t-59 135zM350 1145q0 -39 11.5 -69.5t31.5 -56t48 -46.5t61 -39v385q-75 -14 -113.5 -61t-38.5 -113zM659 193
q39 7 72.5 22t57.5 38.5t37.5 56.5t13.5 75q0 44 -14 78.5t-38 62.5t-57 50.5t-72 41.5v-425z" />
    <glyph glyph-name="percent" unicode="%" horiz-adv-x="1800" 
d="M72 1059q0 236 85 357.5t240 121.5q156 0 240 -120.5t84 -358.5t-84 -358.5t-240 -120.5t-240.5 120.5t-84.5 358.5zM268 1059q0 -81 7.5 -138t23 -94t40 -54t58.5 -17q36 0 60.5 17.5t39.5 54t22 94t7 137.5t-7.5 137t-23.5 93.5t-40 53.5t-58 17q-35 0 -59.5 -17
t-40 -53t-22.5 -93t-7 -138zM416 0l770 1516h196l-770 -1516h-196zM1079 461q0 236 85 356.5t241 120.5q155 0 238 -120.5t83 -356.5q0 -238 -83 -358.5t-238 -120.5q-156 0 -241 120.5t-85 358.5zM1274 461q0 -161 31 -233t100 -72q70 0 99.5 72t29.5 233q0 158 -31 228.5
t-98 70.5q-36 0 -61 -17t-40.5 -53t-22.5 -92.5t-7 -136.5z" />
    <glyph glyph-name="ampersand" unicode="&#x26;" horiz-adv-x="1300" 
d="M45 356q0 86 24 155t65.5 125t95.5 101t114 84q-42 87 -66 176t-24 183q0 80 23.5 147t69 115t111.5 75t150 27q85 0 146 -25t99.5 -66.5t56.5 -96t18 -113.5q0 -81 -26.5 -146.5t-70.5 -119.5t-101.5 -99.5t-119.5 -86.5q22 -38 46 -74t49 -74q46 -63 90.5 -122.5
t91.5 -110.5q37 75 60 167t32 195h205q-16 -133 -50.5 -258.5t-93.5 -228.5q119 -95 236 -101v-204q-108 3 -199 35.5t-176 95.5q-72 -66 -166.5 -103t-216.5 -37q-111 0 -199 26.5t-149 76t-93 121t-32 161.5zM276 381q0 -47 15 -87.5t45.5 -70.5t77.5 -47.5t112 -17.5
q66 0 122.5 18t101.5 60q-53 58 -105.5 127t-109.5 149l-52 74q-26 37 -51 78q-69 -57 -112.5 -126.5t-43.5 -156.5zM473 1192q0 -63 16.5 -124.5t45.5 -129.5q40 28 74.5 59t60 65.5t40.5 74.5t15 88q0 28 -6 52.5t-20 42.5t-36 28t-53 10q-66 0 -101.5 -43t-35.5 -123z
" />
    <glyph glyph-name="quotesingle" unicode="'" horiz-adv-x="451" 
d="M119 1395v121h211v-121l-29 -412h-154z" />
    <glyph glyph-name="parenleft" unicode="(" horiz-adv-x="725" 
d="M86 567q0 148 30 283t87 257.5t138 233t183 211.5l138 -106q-74 -89 -135 -190t-105 -212t-68 -230.5t-24 -246.5q0 -128 24 -250.5t68 -234.5t105.5 -212.5t136.5 -184.5l-140 -105q-102 100 -183 210.5t-138 233.5t-87 258.5t-30 284.5z" />
    <glyph glyph-name="parenright" unicode=")" horiz-adv-x="725" 
d="M61 -315q75 89 136.5 189.5t105.5 211.5t68 231t24 248q0 127 -24 249t-67.5 234t-104.5 212.5t-136 185.5l138 106q102 -100 183 -210.5t138 -233.5t87 -258.5t30 -284.5q0 -148 -30 -283t-87 -257.5t-138 -233.5t-183 -211z" />
    <glyph glyph-name="asterisk" unicode="*" horiz-adv-x="967" 
d="M68 1040v156l333 -29q-1 1 -10 13.5t-23 32t-31.5 44t-35.5 50.5q-42 60 -96 135l141 84l137 -305l140 305l139 -84l-193 -275l330 29v-156l-330 27l193 -270l-139 -82l-140 301l-137 -301l-141 82l190 270z" />
    <glyph glyph-name="plus" unicode="+" horiz-adv-x="1126" 
d="M104 590v194h359v420h201v-420h358v-194h-358v-418h-201v418h-359z" />
    <glyph glyph-name="comma" unicode="," horiz-adv-x="494" 
d="M121 0v262h250v-235l-113 -246h-111l72 219h-98z" />
    <glyph glyph-name="hyphen" unicode="-" horiz-adv-x="639" 
d="M90 549v180h459v-180h-459z" />
    <glyph glyph-name="period" unicode="." horiz-adv-x="494" 
d="M121 0v262h250v-262h-250z" />
    <glyph glyph-name="slash" unicode="/" horiz-adv-x="1049" 
d="M29 0l749 1516h240l-748 -1516h-241z" />
    <glyph glyph-name="zero" unicode="0" horiz-adv-x="1186" 
d="M78 758q0 193 33.5 340t99 246t161 149.5t220.5 50.5t221 -50.5t161 -149.5t98.5 -246t33.5 -340t-33.5 -340t-98.5 -246.5t-161 -150t-221 -50.5t-220.5 50.5t-161 150t-99 246.5t-33.5 340zM317 758q0 -155 18 -264.5t53.5 -178.5t86.5 -101t117 -32q67 0 118.5 32
t86 101t52 178.5t17.5 264.5t-18 263.5t-53 177t-86 99.5t-117 31q-68 0 -119 -31t-86 -99.5t-52.5 -177t-17.5 -263.5z" />
    <glyph glyph-name="one" unicode="1" horiz-adv-x="807" 
d="M74 0v207h239v1069q-24 -15 -53 -27.5t-60 -22t-62.5 -15t-59.5 -5.5v211q75 3 136.5 27t104.5 72h228v-1309h213v-207h-686z" />
    <glyph glyph-name="two" unicode="2" 
d="M59 0v33q0 128 29 225.5t77 174t108.5 136t124.5 110.5t124.5 98t108.5 99t77 113.5t29 140.5q0 98 -49 148.5t-143 50.5q-90 0 -157 -60t-114 -171l-196 86q34 82 80 148.5t105 113.5t132.5 72.5t163.5 25.5q100 0 176.5 -29.5t129 -83t79.5 -127.5t27 -163
q0 -92 -27.5 -166.5t-72 -136.5t-101.5 -114t-117 -100l-117 -94q-58 -46 -103.5 -95.5t-73.5 -105t-29 -122.5h641v-207h-912z" />
    <glyph glyph-name="three" unicode="3" horiz-adv-x="1075" 
d="M18 311l201 88q25 -60 54.5 -103t64.5 -70t76 -39.5t90 -12.5q61 0 108.5 18t80.5 50.5t50 78t17 101.5q0 144 -85 212t-269 68h-62v193h88q83 0 139.5 16t91 47.5t49.5 78t15 106.5q0 42 -11 77t-35.5 60.5t-63.5 40t-95 14.5q-88 0 -155 -43.5t-119 -117.5l-168 114
q39 57 87.5 104t107 81t126 52.5t144.5 18.5q102 0 179.5 -28.5t130 -79t79.5 -119.5t27 -150q0 -70 -18.5 -128t-50.5 -103.5t-75.5 -77.5t-93.5 -49q60 -20 109.5 -53t85.5 -81t55.5 -112t19.5 -145q0 -102 -35 -184t-98 -140t-151 -89.5t-195 -31.5q-102 0 -181 25
t-139 70t-103 107t-73 136z" />
    <glyph glyph-name="four" unicode="4" horiz-adv-x="1135" 
d="M43 322v186l584 1008h262v-988h211v-206h-211v-322h-232v322h-614zM283 528h379v664h-3z" />
    <glyph glyph-name="five" unicode="5" horiz-adv-x="1061" 
d="M41 291l197 92q48 -99 113.5 -155t162.5 -56q67 0 115 23.5t79.5 66.5t46.5 103t15 133q0 79 -16.5 138t-47.5 98.5t-75 59t-99 19.5q-80 0 -140.5 -37t-106.5 -108l-172 39l49 809h760l-13 -213h-555l-30 -429q40 59 108.5 96.5t171.5 37.5q94 0 168.5 -32.5t126 -96.5
t78.5 -157.5t27 -215.5q0 -125 -32.5 -224.5t-94.5 -168.5t-151 -105.5t-202 -36.5q-95 0 -169 23t-132.5 65t-103 101t-78.5 131z" />
    <glyph glyph-name="six" unicode="6" horiz-adv-x="1106" 
d="M78 731q0 193 35.5 344t103 255t166.5 159t227 55q79 0 140.5 -20t108 -52.5t81 -73.5t59.5 -83l-186 -113q-17 27 -37 52t-45.5 44.5t-57 31t-71.5 11.5q-71 0 -124.5 -35t-90 -102.5t-56 -165t-22.5 -221.5q68 68 151.5 108t182.5 40q100 0 176 -34t127.5 -97
t78 -152.5t26.5 -200.5t-32 -204.5t-92.5 -161.5t-148 -106t-198.5 -38q-115 0 -207.5 46.5t-158 141t-101 237.5t-35.5 335zM309 627q8 -121 30 -207.5t57.5 -142t84.5 -81.5t111 -26q114 0 172.5 78.5t58.5 224.5q0 64 -11.5 117t-37.5 91t-70 59.5t-108 21.5
q-85 0 -156 -33t-131 -102z" />
    <glyph glyph-name="seven" unicode="7" horiz-adv-x="963" 
d="M49 1303v213h873v-193l-516 -1323h-244l512 1303h-625z" />
    <glyph glyph-name="eight" unicode="8" horiz-adv-x="1104" 
d="M51 369q0 76 24.5 136t67 109t100.5 89.5t124 76.5q-56 34 -103 73.5t-81 86.5t-53 104.5t-19 129.5q0 73 27.5 140.5t82.5 119.5t138 83t194 31q114 0 197 -31t137 -82.5t80 -118.5t26 -140q0 -65 -18 -117t-51 -95.5t-80 -80t-105 -70.5q67 -37 124.5 -78.5t99.5 -94
t66 -118t24 -149.5q0 -88 -34 -162.5t-98.5 -128.5t-157.5 -84.5t-210 -30.5q-125 0 -219 30.5t-157 84.5t-94.5 127.5t-31.5 159.5zM287 387q0 -50 18 -92.5t52 -74t83 -49t111 -17.5t111 17.5t82.5 48.5t51 73.5t17.5 93.5q0 52 -19 94t-55 78.5t-87 69.5t-115 67
q-58 -34 -104 -67.5t-78.5 -70t-50 -78.5t-17.5 -93zM342 1161q0 -46 15.5 -82.5t45 -67.5t71 -58.5t93.5 -55.5q48 28 84.5 55.5t61.5 58.5t38 66.5t13 79.5q0 37 -11.5 73t-36 64t-64.5 45t-97 17q-55 0 -95 -16t-66.5 -43t-39 -62t-12.5 -74z" />
    <glyph glyph-name="nine" unicode="9" horiz-adv-x="1106" 
d="M55 1034q0 111 33 204.5t94.5 161.5t149 106t196.5 38q117 0 209.5 -47t157 -141.5t99 -237t34.5 -334.5q0 -193 -34 -344t-101 -255.5t-165.5 -159t-227.5 -54.5q-81 0 -144.5 20.5t-112 54t-84 76t-61.5 87.5l185 113q19 -28 40.5 -55t48.5 -48.5t59.5 -35t74.5 -13.5
q70 0 123.5 35.5t90 103.5t56 166t21.5 223q-66 -68 -150.5 -107.5t-183.5 -39.5t-175 34t-128 97t-78.5 152t-26.5 200zM283 1042q0 -64 11.5 -117t38.5 -91t71.5 -59t109.5 -21q84 0 153.5 33t129.5 102q-7 120 -29 206t-58 140.5t-84.5 80t-109.5 25.5q-116 0 -174.5 -76
t-58.5 -223z" />
    <glyph glyph-name="colon" unicode=":" horiz-adv-x="506" 
d="M127 0v262h250v-262h-250zM127 823v262h250v-262h-250z" />
    <glyph glyph-name="semicolon" unicode=";" horiz-adv-x="506" 
d="M127 0v262h250v-231l-115 -250h-110l71 219h-96zM127 823v262h250v-262h-250z" />
    <glyph glyph-name="less" unicode="&#x3c;" horiz-adv-x="1176" 
d="M123 586v155l921 453v-205l-686 -325l686 -326v-205z" />
    <glyph glyph-name="equal" unicode="=" horiz-adv-x="1126" 
d="M125 350v182h876v-182h-876zM125 803v182h876v-182h-876z" />
    <glyph glyph-name="greater" unicode="&#x3e;" horiz-adv-x="1176" 
d="M133 133v205l684 326l-684 325v205l922 -453v-155z" />
    <glyph glyph-name="question" unicode="?" horiz-adv-x="991" 
d="M66 1217q31 73 75 133t100.5 103t127 67t155.5 24q97 0 170.5 -27.5t123 -75t75 -112t25.5 -139.5q0 -72 -16.5 -126.5t-44.5 -97t-63.5 -78t-72.5 -69.5q-51 -48 -82.5 -85t-49 -78.5t-24 -93.5t-6.5 -130h-199q-3 32 -3.5 62t-0.5 61q0 65 15.5 116.5t41.5 93.5
t60 77.5t72 70.5q34 30 60.5 58t45.5 58t29 64.5t10 77.5q0 81 -46.5 125.5t-133.5 44.5q-44 0 -81.5 -16.5t-69 -44.5t-57 -65t-44.5 -78zM326 0v250h264v-250h-264z" />
    <glyph glyph-name="at" unicode="@" horiz-adv-x="1534" 
d="M74 756q0 181 51 327t143 248.5t220 157.5t282 55q153 0 280 -54.5t218 -154.5t141.5 -241.5t50.5 -315.5q0 -224 -87.5 -342.5t-246.5 -118.5q-52 0 -91.5 12.5t-68 34.5t-47.5 51.5t-30 63.5q-26 -32 -54.5 -59.5t-62 -47.5t-71.5 -32t-83 -12q-59 0 -105 23t-77.5 67
t-48 107.5t-14.5 144.5q1 122 26 221t70.5 169.5t109 109t140.5 38.5q75 0 124 -30.5t83 -79.5l10 92h180l-76 -600q-11 -84 18 -122t95 -38q40 0 74.5 19t59.5 61t39.5 107.5t14.5 158.5q0 154 -41.5 276.5t-117.5 208t-181.5 130.5t-232.5 45q-128 0 -233.5 -45.5
t-181 -132.5t-117 -213t-41.5 -287q0 -170 41 -297.5t116 -213t180.5 -128.5t233.5 -43q100 0 191.5 24t166.5 70l52 -88q-40 -26 -89 -47t-102.5 -35t-110 -21.5t-112.5 -7.5q-158 0 -285 52t-216.5 152t-138 246.5t-48.5 334.5zM559 690q-2 -108 28.5 -159.5t96.5 -51.5
q48 0 89 23.5t83 68.5l51 396q-32 42 -68.5 63t-84.5 21q-44 0 -79.5 -26.5t-60.5 -74t-39.5 -114t-15.5 -146.5z" />
    <glyph glyph-name="A" unicode="A" horiz-adv-x="1194" 
d="M39 0l442 1522h232l442 -1522h-242l-98 362h-450l-101 -362h-225zM422 573h336l-49 185q-18 64 -33.5 120.5t-30 109.5t-27 104.5t-24.5 105.5h-4q-12 -54 -25.5 -106t-28 -104.5t-30 -108.5t-33.5 -119z" />
    <glyph glyph-name="B" unicode="B" horiz-adv-x="1212" 
d="M141 0v1516h480q99 0 184 -20t148 -64.5t98.5 -117t35.5 -177.5q0 -82 -20.5 -142t-53 -101.5t-73.5 -67t-82 -38.5v-4q53 -12 101 -37.5t85 -69t58.5 -108.5t21.5 -155q0 -108 -37.5 -186t-102.5 -128.5t-152 -75t-185 -24.5h-506zM379 205h256q135 0 196.5 60t61.5 181
q0 67 -18.5 112t-54.5 72t-88.5 38.5t-119.5 11.5h-233v-475zM379 874h225q62 0 109.5 10.5t79.5 35.5t48.5 65t16.5 100t-14.5 101.5t-44.5 67.5t-77.5 37.5t-113.5 11.5h-229v-429z" />
    <glyph glyph-name="C" unicode="C" horiz-adv-x="1221" 
d="M80 760q0 196 41 343.5t115.5 245t178.5 146.5t230 49q115 0 199.5 -36t143 -102t94.5 -158t55 -204l-226 -40q-15 81 -37 140.5t-54.5 98.5t-76.5 57.5t-104 18.5q-157 0 -237 -143t-80 -414q0 -284 81 -428t240 -144q60 0 105.5 18.5t80 58.5t59 104t42.5 155l223 -37
q-21 -111 -60.5 -205.5t-101 -163.5t-148 -108t-202.5 -39q-128 0 -231.5 48t-176.5 145.5t-113 245.5t-40 348z" />
    <glyph glyph-name="D" unicode="D" horiz-adv-x="1255" 
d="M141 0v1516h365q155 0 279 -39.5t211 -128.5t133.5 -233t46.5 -353q0 -211 -47.5 -356.5t-135 -235.5t-211 -130t-276.5 -40h-365zM383 215h149q106 0 182 29.5t124.5 95t71 169.5t22.5 253q0 144 -22.5 245.5t-71.5 165t-125 92.5t-183 29h-147v-1079z" />
    <glyph glyph-name="E" unicode="E" 
d="M141 0v1516h822v-224h-580v-389h420v-217h-420v-469h610v-217h-852z" />
    <glyph glyph-name="F" unicode="F" horiz-adv-x="995" 
d="M141 0v1516h807v-224h-565v-409h410v-217h-410v-666h-242z" />
    <glyph glyph-name="G" unicode="G" horiz-adv-x="1276" 
d="M80 762q0 186 38 331t110.5 245.5t177.5 153t239 52.5q105 0 186 -31.5t141 -94.5t100 -156.5t63 -217.5l-220 -45q-18 88 -42 149t-57.5 99.5t-77 56t-99.5 17.5q-68 0 -126 -30t-100.5 -96t-66.5 -171.5t-24 -257.5q0 -157 23 -266.5t65.5 -178.5t103 -100t135.5 -31
q127 0 201.5 87t85.5 272h-254v201h471v-750h-182v201h-4q-15 -41 -45 -81.5t-74 -73t-101.5 -53t-128.5 -20.5q-130 0 -230 53t-168.5 154.5t-104 248t-35.5 333.5z" />
    <glyph glyph-name="H" unicode="H" horiz-adv-x="1298" 
d="M141 0v1516h242v-609h532v609h242v-1516h-242v684h-532v-684h-242z" />
    <glyph glyph-name="I" unicode="I" horiz-adv-x="547" 
d="M152 0v1516h241v-1516h-241z" />
    <glyph glyph-name="J" unicode="J" horiz-adv-x="909" 
d="M29 94l102 176q56 -38 121.5 -62t124.5 -24q75 0 120.5 45t45.5 146v1141h241v-1156q0 -183 -98 -283t-285 -100q-102 0 -198.5 30.5t-173.5 86.5z" />
    <glyph glyph-name="K" unicode="K" horiz-adv-x="1202" 
d="M141 0v1516h240v-728q9 17 25.5 44t36 58t41 63t40.5 61l338 502h258l-413 -592l471 -924h-260l-365 719l-172 -236v-483h-240z" />
    <glyph glyph-name="L" unicode="L" horiz-adv-x="1020" 
d="M141 0v1516h242v-1299h584v-217h-826z" />
    <glyph glyph-name="M" unicode="M" horiz-adv-x="1538" 
d="M141 0v1516h305l324 -1180h4l313 1180h308v-1516h-230v1153h-4q-5 -38 -15.5 -86.5t-23.5 -100t-27 -101.5t-26 -91l-219 -774h-182l-219 776q-11 35 -24 84.5t-26 102.5t-24.5 104t-18.5 90h-4v-1157h-211z" />
    <glyph glyph-name="N" unicode="N" horiz-adv-x="1309" 
d="M141 0v1516h260l412 -805q19 -37 34.5 -67.5t30 -60.5t30 -62.5t34.5 -74.5h4v1070h219v-1516h-223l-450 856q-19 36 -34 65t-29 57.5t-29.5 60t-34.5 73.5h-5v-1112h-219z" />
    <glyph glyph-name="O" unicode="O" horiz-adv-x="1309" 
d="M80 758q0 197 44.5 344.5t122 245.5t182.5 147t226 49t225.5 -49t182 -147t122 -245.5t44.5 -344.5q0 -198 -44.5 -345.5t-122 -245.5t-182 -147t-225.5 -49t-226 49t-182.5 147t-122 245.5t-44.5 345.5zM322 758q0 -278 87 -423t246 -145q158 0 244 145t86 423
q0 276 -86.5 419.5t-243.5 143.5q-158 0 -245.5 -143.5t-87.5 -419.5z" />
    <glyph glyph-name="P" unicode="P" horiz-adv-x="1153" 
d="M141 0v1516h441q104 0 195 -25t158 -80.5t105.5 -144.5t38.5 -217q0 -138 -41.5 -230t-111.5 -147.5t-161.5 -79t-191.5 -23.5h-194v-569h-238zM379 778h203q68 0 118 14.5t83 46t49 82t16 121.5q0 69 -16 117t-49 78t-83.5 43.5t-119.5 13.5h-201v-516z" />
    <glyph glyph-name="Q" unicode="Q" horiz-adv-x="1309" 
d="M80 758q0 197 44.5 344.5t122.5 245.5t183.5 147t226.5 49q120 0 224.5 -49t181.5 -147t121.5 -245.5t44.5 -344.5q0 -178 -35.5 -314.5t-97.5 -232t-148 -151t-186 -72.5q7 -59 26 -94.5t51.5 -54.5t79.5 -25.5t109 -6.5h86v-202h-162q-117 0 -197 29t-130 81t-72 122.5
t-23 154.5q-98 19 -180.5 77t-142.5 154t-93.5 230t-33.5 305zM322 758q0 -138 22.5 -245t65.5 -180t105.5 -111t141.5 -38q78 0 139 38t103 111t64 180t22 245t-22 243t-64 176.5t-103 107.5t-139 36q-79 0 -141.5 -36t-105.5 -107.5t-65.5 -176.5t-22.5 -243z" />
    <glyph glyph-name="R" unicode="R" horiz-adv-x="1192" 
d="M141 0v1516h451q114 0 204.5 -27t153.5 -83.5t96 -143t33 -205.5q0 -85 -19.5 -153t-54.5 -119.5t-83 -86.5t-105 -53l291 -645h-248l-270 592h-213v-592h-236zM377 797h205q66 0 116 13t83 43t50 79t17 121q0 68 -16.5 114.5t-49.5 74.5t-83 40t-117 12h-205v-497z" />
    <glyph glyph-name="S" unicode="S" horiz-adv-x="1161" 
d="M61 338l203 100q25 -54 58 -100.5t74.5 -80.5t91.5 -53.5t110 -19.5q116 0 180 51.5t64 145.5q0 57 -24 99t-64 75t-92.5 60t-110.5 53q-49 22 -100 46t-98 52.5t-88.5 64t-72.5 81t-49 103t-18 130.5q0 89 33.5 162.5t93.5 126t141.5 81.5t177.5 29q94 0 169 -25
t134.5 -69t104 -104.5t76.5 -131.5l-203 -104q-22 48 -49 88.5t-61 70t-77 46t-98 16.5q-94 0 -149.5 -47t-55.5 -129q0 -55 23 -96.5t61.5 -74.5t89 -60.5t105.5 -53.5q50 -22 101.5 -46.5t100 -53.5t91 -64.5t74.5 -81.5t50.5 -104t18.5 -131q0 -84 -32 -159.5t-93 -132.5
t-150.5 -90.5t-203.5 -33.5q-103 0 -185.5 27t-148.5 75t-116 115t-87 148z" />
    <glyph glyph-name="T" unicode="T" horiz-adv-x="1081" 
d="M43 1292v224h993v-224h-374v-1292h-242v1292h-377z" />
    <glyph glyph-name="U" unicode="U" horiz-adv-x="1243" 
d="M125 510v1006h242v-984q0 -87 14 -151.5t44.5 -107t80 -64t121.5 -21.5q70 0 119.5 21t80 63.5t44.5 106.5t14 149v988h231v-1002q0 -124 -28 -224t-88 -170.5t-153.5 -108.5t-223.5 -38q-132 0 -226.5 37t-155 107t-88.5 169t-28 224z" />
    <glyph glyph-name="V" unicode="V" horiz-adv-x="1174" 
d="M39 1516h242l202 -768q16 -59 30 -113t27.5 -106.5t26 -105t25.5 -108.5h4q12 56 24.5 108t26 104t28 105t30.5 111l204 773h226l-433 -1522h-231z" />
    <glyph glyph-name="W" unicode="W" horiz-adv-x="1624" 
d="M45 1516h231l142 -695q12 -56 21.5 -103t18.5 -95t18.5 -102.5t21.5 -125.5h4q10 70 19.5 124t18.5 102.5t18.5 95.5t21.5 104l133 695h215l139 -711q11 -54 20.5 -101.5t18.5 -95.5t17.5 -100t17.5 -113h4q9 59 18 110t18 99t19 96.5t21 102.5l143 713h213l-338 -1522
h-207l-217 1110h-4l-219 -1110h-209z" />
    <glyph glyph-name="X" unicode="X" horiz-adv-x="1184" 
d="M37 0l426 809l-371 707h260l254 -508l244 508h233l-364 -699l428 -817h-256l-311 618l-308 -618h-235z" />
    <glyph glyph-name="Y" unicode="Y" horiz-adv-x="1128" 
d="M18 1516h248l301 -687h4l301 687h236l-424 -904v-612h-242v610z" />
    <glyph glyph-name="Z" unicode="Z" horiz-adv-x="1104" 
d="M55 0v176l684 1116h-635v224h926v-181l-676 -1118h676v-217h-975z" />
    <glyph glyph-name="bracketleft" unicode="[" horiz-adv-x="733" 
d="M129 -410v1926h545v-175h-305v-1579h305v-172h-545z" />
    <glyph glyph-name="backslash" unicode="\" horiz-adv-x="1028" 
d="M18 1516h242l748 -1516h-240z" />
    <glyph glyph-name="bracketright" unicode="]" horiz-adv-x="733" 
d="M57 -238h308v1579h-308v175h545v-1926h-545v172z" />
    <glyph glyph-name="asciicircum" unicode="^" horiz-adv-x="946" 
d="M168 1196l225 332h160l223 -332h-137l-168 162l-166 -162h-137z" />
    <glyph glyph-name="underscore" unicode="_" horiz-adv-x="889" 
d="M-10 -113h909v-176h-909v176z" />
    <glyph glyph-name="grave" unicode="`" horiz-adv-x="948" 
d="M199 1528h245l164 -330h-159z" />
    <glyph glyph-name="a" unicode="a" horiz-adv-x="991" 
d="M57 266q0 172 150.5 284.5t445.5 168.5v47q0 77 -31.5 109t-103.5 32q-45 0 -88 -10t-82 -27t-73.5 -40t-63.5 -48l-117 144q43 40 94.5 73.5t109 57.5t120.5 37.5t129 13.5q172 0 253 -86.5t81 -255.5v-500q0 -99 6 -161.5t20 -104.5h-231q-5 15 -9 29.5t-7 30.5
t-5 34.5t-2 42.5q-55 -71 -141.5 -110t-192.5 -39q-57 0 -105.5 18t-83 53.5t-54 87t-19.5 119.5zM285 305q0 -68 34 -100.5t93 -32.5q75 0 135.5 32.5t105.5 80.5v274q-192 -41 -280 -105t-88 -149z" />
    <glyph glyph-name="b" unicode="b" horiz-adv-x="1067" 
d="M117 0v1513h233v-561q24 31 53 59t65 49.5t79 34.5t94 13q79 0 145 -33.5t114 -102.5t74.5 -175t26.5 -252q0 -147 -28.5 -253t-78.5 -174.5t-118.5 -101t-148.5 -32.5q-94 0 -160.5 35t-116.5 98v-117h-233zM350 291q45 -56 99 -86.5t114 -30.5q48 0 85.5 21t63.5 65.5
t40 114.5t14 168q0 189 -54 277.5t-151 88.5q-32 0 -61 -10.5t-55 -28t-49.5 -40t-45.5 -46.5v-493z" />
    <glyph glyph-name="c" unicode="c" horiz-adv-x="958" 
d="M66 543q0 150 38 257.5t100.5 175.5t143 100t166.5 32q91 0 156.5 -26.5t111.5 -73t75 -108.5t48 -132l-209 -51q-13 49 -29 85t-38.5 60t-51.5 35.5t-67 11.5q-45 0 -84 -20t-67 -64t-44 -113.5t-16 -168.5q0 -181 52.5 -277t158.5 -96q36 0 66.5 10t55 33.5t43.5 62
t32 95.5l202 -52q-20 -76 -54 -139t-83.5 -108t-116 -70t-151.5 -25q-88 0 -167.5 34t-139.5 104t-95.5 176.5t-35.5 251.5z" />
    <glyph glyph-name="d" unicode="d" horiz-adv-x="1067" 
d="M68 543q0 147 28.5 253.5t78.5 175.5t118.5 102.5t148.5 33.5q94 0 159 -35.5t118 -101.5v545h233v-1250q0 -99 5.5 -161.5t21.5 -104.5h-240q-5 12 -8.5 31t-6 39t-4 39t-1.5 32q-24 -31 -53 -59.5t-65 -50t-79 -34.5t-94 -13q-79 0 -145 32.5t-114 101t-74.5 174
t-26.5 251.5zM303 537q0 -189 54 -276t151 -87q28 0 58.5 12t59 30.5t53 40t40.5 40.5v496q-45 55 -99 85.5t-114 30.5q-48 0 -85.5 -21.5t-63.5 -66.5t-40 -115.5t-14 -168.5z" />
    <glyph glyph-name="e" unicode="e" horiz-adv-x="987" 
d="M66 543q0 151 38.5 258t101 175.5t142 100t162.5 31.5q91 0 167 -34t130.5 -104t84.5 -178t30 -255v-64h-627q8 -155 67.5 -230t161.5 -75q43 0 78 10t64 29t55 46t51 62l148 -106q-31 -49 -73.5 -91.5t-94.5 -73.5t-112 -49t-126 -18q-94 0 -175.5 33.5t-142 103
t-95.5 176t-35 253.5zM297 637h408q-8 136 -55.5 206t-141.5 70q-38 0 -73.5 -14.5t-63.5 -47.5t-47.5 -85.5t-26.5 -128.5z" />
    <glyph glyph-name="f" unicode="f" horiz-adv-x="659" 
d="M37 899v186h156v134q0 67 15.5 122t52.5 95t99 62t154 22q15 0 34 -0.5t37 -1.5t31.5 -2.5t16.5 -2.5v-188q-3 1 -12 1.5t-20 1t-21.5 1t-16.5 0.5q-29 0 -54 -5.5t-43.5 -19.5t-29 -38.5t-10.5 -63.5v-117h199v-186h-199v-899h-233v899h-156z" />
    <glyph glyph-name="g" unicode="g" horiz-adv-x="1042" 
d="M16 -160q0 81 46.5 138t123.5 94q-42 24 -65 57t-23 80q0 27 10 53.5t27 51t41 46t51 39.5q-72 53 -110.5 134.5t-38.5 181.5q0 88 29 160.5t81.5 124t127 80t165.5 28.5q94 0 168 -28t125 -81q22 21 50.5 39t59 32t60.5 23t57 13v-203q-29 0 -69 -4t-86 -18
q17 -35 26 -76.5t9 -89.5q0 -90 -28 -162t-80 -122.5t-125.5 -77.5t-164.5 -27q-40 0 -75.5 4.5t-67.5 15.5q-43 -27 -43 -67q0 -15 4.5 -25t17 -17.5t34 -12.5t55.5 -9l153 -16q112 -10 190 -31.5t127 -56.5t71 -84.5t22 -116.5q0 -76 -38 -135.5t-106 -100.5t-161.5 -62.5
t-204.5 -21.5q-123 0 -208 17.5t-137.5 49.5t-76 78.5t-23.5 104.5zM229 -121q0 -38 14 -64t45.5 -42t82 -23.5t123.5 -7.5q58 0 107 8t84 24.5t55 41.5t20 59q0 29 -9.5 51.5t-35.5 38.5t-72 27t-119 18l-170 17q-6 2 -13 2t-15 2q-50 -29 -73.5 -68.5t-23.5 -83.5z
M299 711q0 -107 48.5 -165.5t137.5 -58.5q88 0 134.5 58.5t46.5 165.5q0 108 -46 165.5t-137 57.5q-89 0 -136.5 -59t-47.5 -164z" />
    <glyph glyph-name="h" unicode="h" 
d="M117 0v1516h233v-572q24 29 58.5 58.5t77.5 53t93 38t105 14.5q125 0 195.5 -76.5t70.5 -228.5v-803h-233v750q0 80 -28.5 118.5t-96.5 38.5q-34 0 -69 -13t-67.5 -32t-60 -41.5t-45.5 -40.5v-780h-233z" />
    <glyph glyph-name="i" unicode="i" horiz-adv-x="489" 
d="M127 0v1085h233v-1085h-233zM127 1264v219h235v-219h-235z" />
    <glyph glyph-name="j" unicode="j" horiz-adv-x="489" 
d="M-35 -227q9 -3 30.5 -4.5t35.5 -1.5q49 0 72.5 29t23.5 91v1198h233v-1220q0 -64 -12 -115t-43 -87t-84 -55.5t-135 -19.5q-12 0 -30.5 0.5t-37 2t-34 3t-19.5 3.5v176zM127 1264v219h235v-219h-235z" />
    <glyph glyph-name="k" unicode="k" horiz-adv-x="981" 
d="M117 0v1516h231v-928q8 16 21.5 38.5t30.5 48t36 52.5t37 53l209 305h238l-289 -399l319 -686h-237l-228 496l-137 -185v-311h-231z" />
    <glyph glyph-name="l" unicode="l" horiz-adv-x="489" 
d="M127 0v1516h233v-1516h-233z" />
    <glyph glyph-name="m" unicode="m" horiz-adv-x="1620" 
d="M117 0v1085h233v-141q24 29 59 58.5t77.5 53t90 38t95.5 14.5q55 0 96.5 -9t70.5 -28.5t47.5 -50t28.5 -72.5q25 29 59.5 58t76 51.5t90.5 36.5t104 14q125 0 195.5 -76.5t70.5 -228.5v-803h-233v750q0 80 -28.5 118.5t-96.5 38.5q-34 0 -66.5 -11.5t-61.5 -28t-53 -35
t-42 -33.5v-799h-234v750q0 40 -5 69.5t-18.5 49t-36.5 29t-58 9.5q-26 0 -55 -9.5t-58.5 -26.5t-58.5 -40t-56 -49v-782h-233z" />
    <glyph glyph-name="n" unicode="n" 
d="M117 0v1085h233v-141q24 29 58.5 58.5t77.5 53t93 38t105 14.5q125 0 195.5 -76.5t70.5 -228.5v-803h-233v750q0 80 -28.5 118.5t-96.5 38.5q-34 0 -69 -13t-67.5 -32t-60 -41.5t-45.5 -40.5v-780h-233z" />
    <glyph glyph-name="o" unicode="o" horiz-adv-x="1040" 
d="M66 543q0 147 36.5 253.5t98.5 175.5t144.5 102.5t174.5 33.5q91 0 173.5 -33.5t144.5 -102.5t98.5 -175.5t36.5 -253.5q0 -145 -36.5 -251.5t-98.5 -176.5t-144.5 -104t-173.5 -34q-92 0 -174 34t-144.5 104t-99 176.5t-36.5 251.5zM299 543q0 -83 12 -152t38.5 -118.5
t68.5 -77t102 -27.5q113 0 166 97t53 278q0 82 -12.5 150t-38.5 116.5t-68 75t-100 26.5q-112 0 -166.5 -95.5t-54.5 -272.5z" />
    <glyph glyph-name="p" unicode="p" horiz-adv-x="1067" 
d="M117 -410v1495h233v-133q24 31 53 59t65 49.5t79 34.5t94 13q79 0 145 -33.5t114 -102.5t74.5 -175t26.5 -252q0 -147 -28.5 -253t-78.5 -174.5t-118.5 -101t-148.5 -32.5q-94 0 -159 35.5t-118 101.5v-531h-233zM350 291q45 -56 99 -86.5t114 -30.5q48 0 85.5 21
t63.5 65.5t40 114.5t14 168q0 189 -54 277.5t-151 88.5q-28 0 -58.5 -12t-59 -30t-53 -40t-40.5 -41v-495z" />
    <glyph glyph-name="q" unicode="q" horiz-adv-x="1067" 
d="M68 541q0 146 27 253t75 176.5t114.5 103.5t145.5 34q94 0 163.5 -41.5t123.5 -110.5v129h233v-1495h-233v547q-24 -29 -53 -57t-64.5 -50t-78 -35t-93.5 -13q-79 0 -145 32.5t-114 100.5t-74.5 173.5t-26.5 252.5zM303 543q0 -192 53.5 -283.5t151.5 -91.5q31 0 59 10
t53.5 27t49.5 39t47 47v495q-50 56 -99.5 89.5t-111.5 33.5q-48 0 -86 -21t-64 -65.5t-39.5 -113.5t-13.5 -166z" />
    <glyph glyph-name="r" unicode="r" horiz-adv-x="731" 
d="M117 0v1085h233v-167h4q18 33 48 67t70.5 61t92 44.5t113.5 17.5h20l-6 -215q-5 0 -22 1t-31 1q-48 0 -91 -13t-79.5 -36t-66.5 -54.5t-52 -68.5v-723h-233z" />
    <glyph glyph-name="s" unicode="s" horiz-adv-x="922" 
d="M20 188l144 121q60 -74 139.5 -112.5t161.5 -38.5q83 0 130.5 30t47.5 93q0 44 -24 73.5t-63 50.5t-89 37.5t-102.5 35.5t-102.5 43.5t-89 61t-63 89t-24 127.5q0 73 29 130.5t79 97.5t118.5 60.5t146.5 20.5q57 0 112 -12.5t104 -36.5t91.5 -58t75.5 -77l-140 -127
q-22 26 -49.5 49t-58.5 40.5t-65.5 27.5t-71.5 10q-75 0 -112.5 -29.5t-37.5 -83.5q0 -44 24 -72.5t63 -49.5t88.5 -37.5t102 -35t102 -42.5t88.5 -61t63 -89.5t24 -128.5t-32 -135.5t-87 -100t-128 -61.5t-154 -21q-75 0 -139.5 15t-120 43t-100.5 66.5t-81 86.5z" />
    <glyph glyph-name="t" unicode="t" horiz-adv-x="709" 
d="M31 899v186h155v381h234v-381h235v-186h-235v-577q0 -42 6 -71t21.5 -47t41.5 -26t66 -8q25 0 51.5 3.5t40.5 8.5v-180q-8 -3 -25.5 -5.5t-40 -4.5t-47.5 -3t-47 -1q-87 0 -144.5 15.5t-92.5 48.5t-49.5 84t-14.5 122v641h-155z" />
    <glyph glyph-name="u" unicode="u" 
d="M109 283v802h233v-753q0 -81 29 -118.5t100 -37.5q32 0 63.5 10.5t61.5 28t58.5 40.5t54.5 48v782h233v-1085h-233v141q-27 -31 -62 -60.5t-77 -52.5t-91 -37t-104 -14q-125 0 -195.5 77t-70.5 229z" />
    <glyph glyph-name="v" unicode="v" horiz-adv-x="932" 
d="M18 1085h236l147 -548q9 -36 17.5 -69t17 -67.5t17.5 -72.5t20 -86h4q10 47 18.5 85t17 72t17 67t17.5 69l147 550h219l-323 -1089h-248z" />
    <glyph glyph-name="w" unicode="w" horiz-adv-x="1337" 
d="M20 1085h228l104 -454q9 -39 17 -73t15 -69.5t14 -75.5t16 -91h4q8 51 15.5 91t15 76t15.5 70.5t17 75.5l101 450h198l101 -444q9 -41 17.5 -78t16.5 -74.5t15.5 -78t15.5 -88.5h4q8 49 15.5 89.5t15 77.5t15 73t16.5 77l102 446h203l-266 -1089h-209l-170 749h-4
l-174 -749h-207z" />
    <glyph glyph-name="x" unicode="x" horiz-adv-x="928" 
d="M25 0l323 563l-295 522h242l188 -348l174 348h224l-295 -514l321 -571h-239l-211 395l-209 -395h-223z" />
    <glyph glyph-name="y" unicode="y" horiz-adv-x="958" 
d="M-2 -385l45 184q20 -5 59.5 -11.5t85.5 -6.5q31 0 53.5 8t39.5 24.5t30 42t25 60.5l22 72l-340 1097h242l135 -493q12 -45 23 -85.5t21 -80t19.5 -80.5t18.5 -86h4q11 46 21 88t20.5 83t21.5 83t23 88l135 483h226l-377 -1198q-24 -75 -52.5 -131.5t-67.5 -94
t-92.5 -56.5t-127.5 -19q-75 0 -129.5 10t-83.5 19z" />
    <glyph glyph-name="z" unicode="z" horiz-adv-x="903" 
d="M55 0v145l488 754h-447v186h725v-147l-489 -754h516v-184h-793z" />
    <glyph glyph-name="braceleft" unicode="{" horiz-adv-x="735" 
d="M49 467v172q52 0 88.5 9.5t60 35t34 71t10.5 117.5v357q0 67 16 120t49.5 90t85.5 57t123 20h176v-175h-76q-72 0 -104.5 -37t-32.5 -114v-336q0 -75 -10.5 -126t-30.5 -85t-49.5 -54t-66.5 -34v-4q37 -14 66.5 -34t49.5 -54t30.5 -85t10.5 -126v-340q0 -77 32.5 -113.5
t104.5 -36.5h76v-172h-182q-69 0 -119.5 20t-83.5 57t-49 90t-16 120v356q0 73 -11 119t-34 71.5t-60 34.5t-88 9z" />
    <glyph glyph-name="bar" unicode="|" horiz-adv-x="670" 
d="M217 -410v1926h236v-1926h-236z" />
    <glyph glyph-name="braceright" unicode="}" horiz-adv-x="735" 
d="M43 -238h76q72 0 104.5 36.5t32.5 113.5v350q0 75 10.5 124.5t30.5 81.5t49.5 50.5t67.5 32.5v4q-38 14 -67.5 32.5t-49.5 50.5t-30.5 81.5t-10.5 124.5v346q0 77 -32.5 114t-104.5 37h-76v175h188q72 0 122 -18.5t81.5 -53.5t45.5 -86.5t14 -118.5v-367
q0 -72 10.5 -117.5t33.5 -71t59.5 -35t88.5 -9.5v-172q-51 0 -87.5 -9t-60 -34.5t-34 -71.5t-10.5 -119v-366q0 -134 -60 -205.5t-196 -71.5h-195v172z" />
    <glyph glyph-name="asciitilde" unicode="~" horiz-adv-x="948" 
d="M143 801q0 150 52 217t143 67q45 0 81.5 -18t68 -39t59.5 -39t57 -18q35 0 53.5 24t18.5 86h127q0 -149 -51 -216.5t-140 -67.5q-46 0 -83 18t-68.5 39t-59 39t-55.5 18q-35 0 -53.5 -24t-18.5 -86h-131z" />
    <glyph glyph-name="uni00A0" unicode="&#xa0;" horiz-adv-x="215" 
 />
    <glyph glyph-name="exclamdown" unicode="&#xa1;" horiz-adv-x="608" 
d="M160 0l49 1081h182l51 -1081h-282zM168 1268v248h264v-248h-264z" />
    <glyph glyph-name="cent" unicode="&#xa2;" horiz-adv-x="958" 
d="M66 543q0 150 38 257.5t100.5 175.5t143 100t166.5 32h8l35 176h170l-41 -209q46 -21 81 -52.5t61 -71t44.5 -86t32.5 -97.5l-209 -51q-12 46 -26.5 81.5t-34.5 61.5l-143 -698h18q72 0 121.5 47.5t75.5 161.5l202 -52q-20 -76 -54 -139t-83.5 -108t-116 -70t-151.5 -25
q-11 0 -21.5 0.5t-19.5 2.5l-43 -207h-170l53 256q-52 29 -95.5 75t-75 110t-49 146t-17.5 183zM299 543q0 -94 14 -167t43 -122l136 666q-42 -5 -77 -29t-61 -70t-40.5 -115t-14.5 -163z" />
    <glyph glyph-name="sterling" unicode="&#xa3;" horiz-adv-x="1174" 
d="M23 195q0 57 19 104t53 80.5t79.5 52.5t99.5 19t101.5 -20.5t89.5 -51.5q2 11 2 23v24q0 69 -19 135t-47 129h-249v170h170q-36 74 -61 147t-25 148q0 88 27 159.5t77 122.5t121 79t160 28q103 0 175.5 -30.5t119.5 -84.5t72 -127t34 -157l-217 -29q-5 51 -16 93
t-32 72.5t-53.5 47.5t-80.5 17q-73 0 -116.5 -44.5t-43.5 -140.5q0 -75 28.5 -148.5t65.5 -152.5h303v-170h-231q18 -56 30.5 -117t12.5 -131q0 -57 -9.5 -109t-27.5 -100q38 -29 76 -49t80 -20q34 0 60 11.5t43.5 40t26.5 76.5t11 120h205q-3 -97 -19 -178t-52.5 -139.5
t-97 -91t-151.5 -32.5q-42 0 -79.5 10t-71 26.5t-63 38.5t-56.5 46q-51 -57 -120 -89t-153 -32q-48 0 -93.5 13.5t-80.5 41.5t-56 70t-21 99zM188 201q0 -42 25 -66t66 -24q97 0 147 100q-37 37 -73 61.5t-77 24.5q-40 0 -64 -25.5t-24 -70.5z" />
    <glyph glyph-name="yen" unicode="&#xa5;" horiz-adv-x="1128" 
d="M18 1516h248l301 -689h4l301 689h236l-408 -859h316v-170h-338v-141h338v-170h-338v-176h-229v176h-336v170h336v141h-336v170h313z" />
    <glyph glyph-name="brokenbar" unicode="&#xa6;" horiz-adv-x="670" 
d="M217 -410v838h236v-838h-236zM217 678v838h236v-838h-236z" />
    <glyph glyph-name="section" unicode="&#xa7;" horiz-adv-x="1016" 
d="M82 598q0 54 17 102t45 89t65 75t76 60q-69 63 -103.5 127.5t-34.5 150.5q0 70 24.5 132.5t72 109.5t116 74.5t156.5 27.5q102 0 171 -25.5t115 -71t73 -108t45 -135.5l-207 -55q-11 48 -26 86t-37.5 64.5t-54 40.5t-75.5 14q-77 0 -115 -39.5t-38 -102.5q0 -38 16 -70
t45.5 -62.5t72 -61.5t95.5 -66q70 -46 132 -89.5t107.5 -92t72 -107t26.5 -135.5q0 -54 -17 -102t-45 -90t-65 -76t-76 -59q69 -63 100 -127.5t31 -149.5q0 -71 -24 -133.5t-70 -109t-113.5 -74t-154.5 -27.5q-100 0 -168.5 26t-114 71t-72 107t-43.5 134l201 55
q10 -43 25 -80.5t37.5 -65.5t54.5 -44t76 -16q40 0 68.5 10.5t45.5 29.5t25 45t8 58q0 37 -15 69.5t-43.5 63.5t-69.5 61.5t-93 65.5q-71 46 -133 89.5t-108 92.5t-72.5 108t-26.5 136zM291 633q0 -41 13.5 -74t43.5 -65.5t78 -67.5t117 -80q12 -9 26.5 -17t26.5 -18
q60 37 94.5 84t34.5 101q0 40 -13.5 73t-43.5 65t-77.5 67t-115.5 79q-14 10 -27.5 18.5t-25.5 16.5q-60 -35 -95.5 -81.5t-35.5 -100.5z" />
    <glyph glyph-name="dieresis" unicode="&#xa8;" horiz-adv-x="948" 
d="M190 1194v233h211v-233h-211zM549 1194v233h209v-233h-209z" />
    <glyph glyph-name="copyright" unicode="&#xa9;" horiz-adv-x="1468" 
d="M76 756q0 110 22.5 211t64.5 188.5t101 159.5t132.5 122.5t159 78.5t179.5 28q142 0 262.5 -60.5t208.5 -166.5t137.5 -249t49.5 -308q0 -110 -22.5 -211.5t-64.5 -189t-101.5 -159.5t-133 -122.5t-159 -78.5t-179.5 -28q-142 0 -262.5 60.5t-208 166.5t-137 249.5
t-49.5 308.5zM199 760q0 -142 40 -265.5t111.5 -214.5t169.5 -143.5t215 -52.5t215 51.5t169.5 142t111 213.5t39.5 265q0 95 -18 182t-52 162t-82 136t-107.5 104.5t-129.5 67.5t-148 24q-117 0 -215 -51.5t-169 -142t-110.5 -213.5t-39.5 -265zM426 766q0 107 21.5 189.5
t62 139t98 86t129.5 29.5q62 0 109 -21t81 -58.5t56.5 -89.5t34.5 -115l-144 -27q-8 39 -19 70.5t-27 53t-38 33t-53 11.5q-38 0 -67 -21.5t-48.5 -61.5t-29.5 -95.5t-10 -122.5q0 -141 39 -221t116 -80q59 0 92 42.5t52 135.5l143 -29q-14 -67 -37 -121.5t-57.5 -93.5
t-82.5 -60.5t-112 -21.5q-71 0 -128.5 29t-97.5 85.5t-61.5 140.5t-21.5 194z" />
    <glyph glyph-name="ordfeminine" unicode="&#xaa;" horiz-adv-x="776" 
d="M78 942q0 121 105 199t313 119v36q0 53 -21 80t-69 27q-32 0 -61.5 -8t-57 -21.5t-52.5 -31t-47 -35.5l-88 102q68 63 150.5 98t181.5 35q122 0 177 -61t55 -185v-350q0 -66 4 -111t16 -79h-172q-6 23 -11 46t-5 54q-45 -53 -102 -83t-128 -30q-41 0 -75.5 12t-59.5 37
t-39 62t-14 88zM246 969q0 -45 23 -66.5t61 -21.5q52 0 93.5 25t72.5 57v194q-71 -15 -119 -35.5t-77 -44.5t-41.5 -51.5t-12.5 -56.5z" />
    <glyph glyph-name="guillemotleft" unicode="&#xab;" horiz-adv-x="1020" 
d="M53 543l264 540h224l-256 -540l256 -543h-224zM469 543l264 540h223l-258 -540l258 -543h-223z" />
    <glyph glyph-name="logicalnot" unicode="&#xac;" horiz-adv-x="1126" 
d="M104 590v194h918v-612h-201v418h-717z" />
    <glyph glyph-name="uni00AD" unicode="&#xad;" horiz-adv-x="639" 
d="M90 549v180h459v-180h-459z" />
    <glyph glyph-name="registered" unicode="&#xae;" horiz-adv-x="1468" 
d="M76 756q0 110 22.5 211t64.5 188.5t101 159.5t132.5 122.5t159 78.5t179.5 28q142 0 262.5 -60.5t208.5 -166.5t137.5 -249t49.5 -308q0 -110 -22.5 -211.5t-64.5 -189t-101.5 -159.5t-133 -122.5t-159 -78.5t-179.5 -28q-142 0 -262.5 60.5t-208 166.5t-137 249.5
t-49.5 308.5zM197 760q0 -143 40.5 -267.5t112 -216.5t170 -145t215.5 -53t215.5 52.5t170 144t111.5 215t40 266.5q0 95 -18.5 182.5t-52.5 163.5t-82.5 138t-108.5 106t-130 68t-147 24q-117 0 -215 -52.5t-169.5 -144t-111.5 -215t-40 -266.5zM475 350v846h264
q129 0 203 -64.5t74 -197.5q0 -51 -11 -90.5t-29.5 -68.5t-43.5 -49t-53 -32l147 -344h-166l-137 322h-94v-322h-154zM629 799h102q66 0 98.5 30t32.5 99q0 68 -32.5 96.5t-98.5 28.5h-102v-254z" />
    <glyph glyph-name="macron" unicode="&#xaf;" horiz-adv-x="948" 
d="M186 1251v181h574v-181h-574z" />
    <glyph glyph-name="degree" unicode="&#xb0;" horiz-adv-x="711" 
d="M84 1243q0 65 20 120t56 94.5t86 62t110 22.5t109.5 -22t85 -61.5t55 -94t19.5 -119.5t-19.5 -120.5t-55 -95.5t-85 -62.5t-109.5 -22.5t-110 22t-86 62t-56 95t-20 120zM227 1243q0 -81 34.5 -128.5t94.5 -47.5q59 0 93 47.5t34 128.5q0 82 -34 129t-93 47
q-60 0 -94.5 -47t-34.5 -129z" />
    <glyph glyph-name="plusminus" unicode="&#xb1;" horiz-adv-x="1128" 
d="M104 86v180h363v375h-363v188h363v408h197v-408h360v-188h-360v-375h360v-180h-920z" />
    <glyph glyph-name="uni00B2" unicode="&#xb2;" horiz-adv-x="791" 
d="M94 590v47q0 74 17 130t44.5 100t63 78t72 63t72 56t63 57t44.5 65t17 80q0 46 -22.5 72t-67.5 26q-43 0 -77.5 -37.5t-63.5 -112.5l-162 68q48 117 125 183.5t191 66.5q130 0 197 -69t67 -193q0 -70 -25.5 -122.5t-64 -94.5t-84 -76t-86 -67.5t-69.5 -70t-34 -81.5h363
v-168h-580z" />
    <glyph glyph-name="uni00B3" unicode="&#xb3;" horiz-adv-x="791" 
d="M72 811l145 72q32 -79 75 -111.5t93 -32.5q62 0 96.5 35t34.5 92q0 81 -44.5 117.5t-143.5 36.5h-41v117h55q86 0 121 35.5t35 95.5q0 42 -25 71t-78 29q-43 0 -85 -28.5t-81 -79.5l-127 90q59 88 134.5 135t171.5 47q66 0 116 -18.5t84 -51t51 -77t17 -95.5
q0 -71 -32 -122.5t-95 -80.5q75 -32 111 -87t36 -140q0 -65 -22.5 -117.5t-62.5 -89t-96.5 -56t-123.5 -19.5q-117 0 -195.5 61t-123.5 172z" />
    <glyph glyph-name="acute" unicode="&#xb4;" horiz-adv-x="948" 
d="M340 1198l166 330h244l-250 -330h-160z" />
    <glyph glyph-name="uni00B5" unicode="&#xb5;" horiz-adv-x="1063" 
d="M113 -410v1497h235v-753q0 -79 28 -119.5t99 -40.5q65 0 123 34t115 87v792h233v-1087h-233v152q-24 -26 -53 -52.5t-63 -49t-73 -38.5t-84 -20q-61 -3 -92 26v-428h-235z" />
    <glyph glyph-name="paragraph" unicode="&#xb6;" horiz-adv-x="1147" 
d="M82 1092q0 90 27 167.5t78 134.5t124.5 89.5t167.5 32.5h547v-1926h-186v1735h-152v-1735h-184v1086q-100 1 -178.5 28.5t-132.5 80t-82.5 129.5t-28.5 178z" />
    <glyph glyph-name="uni2219" unicode="&#xb7;" horiz-adv-x="547" 
d="M135 492v264h277v-264h-277z" />
    <glyph glyph-name="uni2219" unicode="&#x2219;" horiz-adv-x="547" 
d="M135 492v264h277v-264h-277z" />
    <glyph glyph-name="cedilla" unicode="&#xb8;" horiz-adv-x="948" 
d="M227 -350l56 94q38 -26 89.5 -41.5t102.5 -15.5q53 0 82 20t29 57q0 62 -66 62q-25 0 -46 -10t-40 -27l-74 33l56 190h110l-32 -116q18 12 45 20t61 8q26 0 51 -8.5t44 -25.5t30.5 -44.5t11.5 -64.5q0 -46 -19.5 -83.5t-53.5 -64t-80.5 -41t-100.5 -14.5q-75 0 -140.5 20
t-115.5 52z" />
    <glyph glyph-name="uni00B9" unicode="&#xb9;" horiz-adv-x="692" 
d="M129 590v164h139v561q-26 -11 -60.5 -18t-74.5 -7v166q56 3 92 16.5t64 40.5h172v-759h121v-164h-453z" />
    <glyph glyph-name="ordmasculine" unicode="&#xba;" horiz-adv-x="791" 
d="M74 1145q0 103 25.5 178.5t69.5 124.5t102.5 72.5t123.5 23.5t123.5 -23.5t102.5 -72.5t70 -124.5t26 -178.5t-26 -178.5t-70 -124.5t-102.5 -73t-123.5 -24t-123 24t-102 73t-70 124.5t-26 178.5zM246 1145q0 -58 8 -106.5t26 -83.5t46 -54.5t69 -19.5q79 0 114.5 69.5
t35.5 194.5q0 57 -8.5 104t-26.5 81.5t-46.5 53.5t-68.5 19q-77 0 -113 -68t-36 -190z" />
    <glyph glyph-name="guillemotright" unicode="&#xbb;" horiz-adv-x="1020" 
d="M63 0l259 543l-259 540h224l264 -540l-264 -543h-224zM479 0l256 543l-256 540h223l263 -540l-263 -543h-223z" />
    <glyph glyph-name="onequarter" unicode="&#xbc;" horiz-adv-x="1720" 
d="M129 590v164h139v561q-26 -11 -60.5 -18t-74.5 -7v166q56 3 92 16.5t64 40.5h172v-759h121v-164h-453zM406 0l770 1516h196l-770 -1516h-196zM983 201v127l346 598h191v-568h120v-157h-120v-201h-183v201h-354zM1159 354h182v320z" />
    <glyph glyph-name="onehalf" unicode="&#xbd;" horiz-adv-x="1802" 
d="M129 590v164h139v561q-26 -11 -60.5 -18t-74.5 -7v166q56 3 92 16.5t64 40.5h172v-759h121v-164h-453zM406 0l770 1516h196l-770 -1516h-196zM1102 0v47q0 74 17 130t44.5 100t63 78t73 63t73 56t63 57t44.5 65t17 80q0 46 -23 72t-69 26q-43 0 -77.5 -38.5t-63.5 -112.5
l-160 69q46 117 123 183.5t190 66.5q130 0 197 -69t67 -193q0 -70 -25.5 -122.5t-64 -94.5t-84 -76t-85.5 -67.5t-69 -70t-34 -81.5h362v-168h-579z" />
    <glyph glyph-name="threequarters" unicode="&#xbe;" horiz-adv-x="1767" 
d="M72 811l145 72q32 -79 75 -111.5t93 -32.5q62 0 96.5 35t34.5 92q0 81 -44.5 117.5t-143.5 36.5h-41v117h55q86 0 121 35.5t35 95.5q0 42 -25 71t-78 29q-43 0 -85 -28.5t-81 -79.5l-127 90q59 88 134.5 135t171.5 47q66 0 116 -18.5t84 -51t51 -77t17 -95.5
q0 -71 -32 -122.5t-95 -80.5q75 -32 111 -87t36 -140q0 -65 -22.5 -117.5t-62.5 -89t-96.5 -56t-123.5 -19.5q-117 0 -195.5 61t-123.5 172zM453 0l768 1516h196l-768 -1516h-196zM1030 201v127l346 598h189v-568h121v-157h-121v-201h-181v201h-354zM1204 354h182v320z" />
    <glyph glyph-name="questiondown" unicode="&#xbf;" horiz-adv-x="991" 
d="M74 326q0 72 16.5 126t44 96.5t62.5 77.5t73 70q51 48 82.5 85.5t49.5 78.5t24 93.5t6 129.5h199q3 -32 3.5 -62t0.5 -60q0 -66 -15.5 -117t-41.5 -93.5t-60 -78.5t-72 -70q-34 -30 -61 -58t-45.5 -58t-28.5 -64.5t-10 -77.5q0 -80 47 -125t133 -45q44 0 81.5 16.5
t69 44.5t57 65t44.5 79l193 -80q-32 -73 -75.5 -133.5t-100.5 -103.5t-127.5 -67t-155.5 -24q-97 0 -170.5 27.5t-123 75.5t-74.5 112.5t-25 139.5zM401 1266v250h265v-250h-265z" />
    <glyph glyph-name="Agrave" unicode="&#xc0;" horiz-adv-x="1194" 
d="M39 0l442 1522h232l442 -1522h-242l-98 362h-450l-101 -362h-225zM289 1937h246l163 -329h-159zM422 573h336l-49 185q-18 64 -33.5 120.5t-30 109.5t-27 104.5t-24.5 105.5h-4q-12 -54 -25.5 -106t-28 -104.5t-30 -108.5t-33.5 -119z" />
    <glyph glyph-name="Aacute" unicode="&#xc1;" horiz-adv-x="1194" 
d="M39 0l442 1522h232l442 -1522h-242l-98 362h-450l-101 -362h-225zM422 573h336l-49 185q-18 64 -33.5 120.5t-30 109.5t-27 104.5t-24.5 105.5h-4q-12 -54 -25.5 -106t-28 -104.5t-30 -108.5t-33.5 -119zM494 1608l165 329h244l-250 -329h-159z" />
    <glyph glyph-name="Acircumflex" unicode="&#xc2;" horiz-adv-x="1194" 
d="M39 0l442 1522h232l442 -1522h-242l-98 362h-450l-101 -362h-225zM291 1595l225 332h160l225 -332h-139l-166 162l-166 -162h-139zM422 573h336l-49 185q-18 64 -33.5 120.5t-30 109.5t-27 104.5t-24.5 105.5h-4q-12 -54 -25.5 -106t-28 -104.5t-30 -108.5t-33.5 -119z
" />
    <glyph glyph-name="Atilde" unicode="&#xc3;" horiz-adv-x="1194" 
d="M39 0l442 1522h232l442 -1522h-242l-98 362h-450l-101 -362h-225zM266 1593q0 75 13.5 129t38.5 88.5t61.5 51t81.5 16.5t81.5 -18t68 -39.5t59.5 -39.5t57 -18q35 0 53.5 24.5t18.5 86.5h127q0 -149 -51 -217t-140 -68q-46 0 -83 18t-68.5 39.5t-59 39.5t-55.5 18
q-35 0 -53.5 -24.5t-18.5 -86.5h-131zM422 573h336l-49 185q-18 64 -33.5 120.5t-30 109.5t-27 104.5t-24.5 105.5h-4q-12 -54 -25.5 -106t-28 -104.5t-30 -108.5t-33.5 -119z" />
    <glyph glyph-name="Adieresis" unicode="&#xc4;" horiz-adv-x="1194" 
d="M39 0l442 1522h232l442 -1522h-242l-98 362h-450l-101 -362h-225zM313 1604v233h211v-233h-211zM422 573h336l-49 185q-18 64 -33.5 120.5t-30 109.5t-27 104.5t-24.5 105.5h-4q-12 -54 -25.5 -106t-28 -104.5t-30 -108.5t-33.5 -119zM672 1604v233h209v-233h-209z" />
    <glyph glyph-name="Aring" unicode="&#xc5;" horiz-adv-x="1194" 
d="M39 0l430 1479q-31 29 -47 70.5t-16 90.5q0 45 13.5 84t38.5 67t60 44t78 16t78.5 -16t60.5 -44t39 -67t14 -84q0 -49 -16 -90t-47 -69l430 -1481h-242l-96 362h-455l-98 -362h-225zM420 573h340l-51 193q-18 64 -33.5 120.5t-30 109.5t-27 104.5t-24.5 105.5h-4
q-12 -54 -25.5 -106t-28 -104.5t-30 -108.5t-33.5 -119zM516 1640q0 -22 5.5 -42t15.5 -35t25 -24t34 -9q20 0 35 9t25.5 24t16 35t5.5 42q0 44 -21 75.5t-61 31.5q-19 0 -34 -8.5t-25 -23t-15.5 -34t-5.5 -41.5z" />
    <glyph glyph-name="AE" unicode="&#xc6;" horiz-adv-x="1761" 
d="M31 0l692 1516h940v-224h-578v-391h420v-213h-420v-471h611v-217h-850v428h-387l-191 -428h-237zM549 631h297v653z" />
    <glyph glyph-name="Ccedilla" unicode="&#xc7;" horiz-adv-x="1221" 
d="M80 760q0 196 41 343.5t115.5 245t178.5 146.5t230 49q115 0 199.5 -36t143 -102t94.5 -158t55 -204l-226 -40q-15 81 -37 140.5t-54.5 98.5t-76.5 57.5t-104 18.5q-157 0 -237 -143t-80 -414q0 -284 81 -428t240 -144q60 0 105.5 18.5t80 58.5t59 104t42.5 155l223 -37
q-21 -110 -59.5 -203t-99 -162t-145 -108.5t-198.5 -42.5l-20 -77q18 12 45 20t61 8q26 0 51 -8.5t44 -25.5t30.5 -44.5t11.5 -64.5q0 -46 -19.5 -83.5t-53.5 -64t-80 -41t-100 -14.5q-76 0 -141.5 20t-114.5 52l55 94q38 -26 89.5 -41.5t102.5 -15.5q53 0 82 20t29 57
q0 62 -66 62q-24 0 -45.5 -10t-40.5 -27l-73 33l45 160q-106 17 -191.5 73t-146 153t-93 234.5t-32.5 317.5z" />
    <glyph glyph-name="Egrave" unicode="&#xc8;" 
d="M141 0v1516h822v-224h-580v-389h420v-217h-420v-469h610v-217h-852zM254 1937h246l164 -329h-160z" />
    <glyph glyph-name="Eacute" unicode="&#xc9;" 
d="M141 0v1516h822v-224h-580v-389h420v-217h-420v-469h610v-217h-852zM406 1608l165 329h244l-250 -329h-159z" />
    <glyph glyph-name="Ecircumflex" unicode="&#xca;" 
d="M141 0v1516h822v-224h-580v-389h420v-217h-420v-469h610v-217h-852zM244 1606l225 331h160l225 -331h-139l-166 161l-166 -161h-139z" />
    <glyph glyph-name="Edieresis" unicode="&#xcb;" 
d="M141 0v1516h822v-224h-580v-389h420v-217h-420v-469h610v-217h-852zM266 1604v233h211v-233h-211zM625 1604v233h209v-233h-209z" />
    <glyph glyph-name="Igrave" unicode="&#xcc;" horiz-adv-x="547" 
d="M-2 1937h246l164 -329h-160zM152 0v1516h241v-1516h-241z" />
    <glyph glyph-name="Iacute" unicode="&#xcd;" horiz-adv-x="547" 
d="M139 1608l166 329h244l-250 -329h-160zM152 0v1516h241v-1516h-241z" />
    <glyph glyph-name="Icircumflex" unicode="&#xce;" horiz-adv-x="547" 
d="M-33 1606l226 331h159l226 -331h-140l-166 161l-166 -161h-139zM152 0v1516h241v-1516h-241z" />
    <glyph glyph-name="Idieresis" unicode="&#xcf;" horiz-adv-x="547" 
d="M-10 1604v233h211v-233h-211zM152 0v1516h241v-1516h-241zM348 1604v233h209v-233h-209z" />
    <glyph glyph-name="Eth" unicode="&#xd0;" horiz-adv-x="1255" 
d="M23 696v191h118v629h365q155 0 279 -39.5t211 -128.5t133.5 -233t46.5 -353q0 -211 -47.5 -356.5t-135 -235.5t-211 -130t-276.5 -40h-365v696h-118zM383 215h149q106 0 182 29.5t124.5 95t71 169.5t22.5 253q0 144 -22.5 245.5t-71.5 165t-125 92.5t-183 29h-147v-407
h248v-191h-248v-481z" />
    <glyph glyph-name="Ntilde" unicode="&#xd1;" horiz-adv-x="1309" 
d="M141 0v1516h260l412 -805q19 -37 34.5 -67.5t30 -60.5t30 -62.5t34.5 -74.5h4v1070h219v-1516h-223l-450 856q-19 36 -34 65t-29 57.5t-29.5 60t-34.5 73.5h-5v-1112h-219zM326 1593q0 75 13.5 129t38.5 88.5t61 51t81 16.5t82 -18t68.5 -39.5t59.5 -39.5t56 -18
q36 0 54 24.5t18 86.5h127q0 -75 -13 -128.5t-37.5 -88.5t-60 -51.5t-79.5 -16.5q-46 0 -83 18t-68.5 39.5t-59.5 39.5t-56 18q-35 0 -53 -24.5t-18 -86.5h-131z" />
    <glyph glyph-name="Ograve" unicode="&#xd2;" horiz-adv-x="1309" 
d="M80 758q0 197 44.5 344.5t122 245.5t182.5 147t226 49t225.5 -49t182 -147t122 -245.5t44.5 -344.5q0 -198 -44.5 -345.5t-122 -245.5t-182 -147t-225.5 -49t-226 49t-182.5 147t-122 245.5t-44.5 345.5zM322 758q0 -278 87 -423t246 -145q158 0 244 145t86 423
q0 276 -86.5 419.5t-243.5 143.5q-158 0 -245.5 -143.5t-87.5 -419.5zM381 1937h246l164 -329h-160z" />
    <glyph glyph-name="Oacute" unicode="&#xd3;" horiz-adv-x="1309" 
d="M80 758q0 197 44.5 344.5t122 245.5t182.5 147t226 49t225.5 -49t182 -147t122 -245.5t44.5 -344.5q0 -198 -44.5 -345.5t-122 -245.5t-182 -147t-225.5 -49t-226 49t-182.5 147t-122 245.5t-44.5 345.5zM322 758q0 -278 87 -423t246 -145q158 0 244 145t86 423
q0 276 -86.5 419.5t-243.5 143.5q-158 0 -245.5 -143.5t-87.5 -419.5zM522 1608l166 329h244l-250 -329h-160z" />
    <glyph glyph-name="Ocircumflex" unicode="&#xd4;" horiz-adv-x="1309" 
d="M80 758q0 197 44.5 344.5t122 245.5t182.5 147t226 49t225.5 -49t182 -147t122 -245.5t44.5 -344.5q0 -198 -44.5 -345.5t-122 -245.5t-182 -147t-225.5 -49t-226 49t-182.5 147t-122 245.5t-44.5 345.5zM322 758q0 -278 87 -423t246 -145q158 0 244 145t86 423
q0 276 -86.5 419.5t-243.5 143.5q-158 0 -245.5 -143.5t-87.5 -419.5zM350 1606l225 331h160l226 -331h-140l-166 161l-166 -161h-139z" />
    <glyph glyph-name="Otilde" unicode="&#xd5;" horiz-adv-x="1309" 
d="M80 758q0 197 44.5 344.5t122 245.5t182.5 147t226 49t225.5 -49t182 -147t122 -245.5t44.5 -344.5q0 -198 -44.5 -345.5t-122 -245.5t-182 -147t-225.5 -49t-226 49t-182.5 147t-122 245.5t-44.5 345.5zM322 758q0 -278 87 -423t246 -145q158 0 244 145t86 423
q0 276 -86.5 419.5t-243.5 143.5q-158 0 -245.5 -143.5t-87.5 -419.5zM326 1593q0 75 13.5 129t38.5 88.5t61 51t81 16.5t82 -18t68.5 -39.5t59.5 -39.5t56 -18q36 0 54 24.5t18 86.5h127q0 -75 -13 -128.5t-37.5 -88.5t-60 -51.5t-79.5 -16.5q-46 0 -83 18t-68.5 39.5
t-59.5 39.5t-56 18q-35 0 -53 -24.5t-18 -86.5h-131z" />
    <glyph glyph-name="Odieresis" unicode="&#xd6;" horiz-adv-x="1309" 
d="M80 758q0 197 44.5 344.5t122 245.5t182.5 147t226 49t225.5 -49t182 -147t122 -245.5t44.5 -344.5q0 -198 -44.5 -345.5t-122 -245.5t-182 -147t-225.5 -49t-226 49t-182.5 147t-122 245.5t-44.5 345.5zM322 758q0 -278 87 -423t246 -145q158 0 244 145t86 423
q0 276 -86.5 419.5t-243.5 143.5q-158 0 -245.5 -143.5t-87.5 -419.5zM373 1604v233h211v-233h-211zM731 1604v233h209v-233h-209z" />
    <glyph glyph-name="multiply" unicode="&#xd7;" horiz-adv-x="1126" 
d="M121 377l311 311l-311 309l131 131l311 -311l309 311l132 -131l-312 -309l312 -311l-132 -131l-309 311l-311 -311z" />
    <glyph glyph-name="Oslash" unicode="&#xd8;" horiz-adv-x="1309" 
d="M80 758q0 197 44.5 344.5t122 245.5t182.5 147t226 49q174 0 310 -100l104 168l133 -82l-125 -203q71 -97 111.5 -238.5t40.5 -330.5q0 -198 -44.5 -345.5t-122 -245.5t-182 -147t-225.5 -49q-88 0 -166.5 26t-146.5 77l-102 -168l-134 82l123 202q-71 100 -110 240.5
t-39 327.5zM317 758q0 -106 14 -192.5t40 -155.5l481 833q-40 40 -89 61t-108 21q-79 0 -142 -37t-106.5 -108.5t-66.5 -177.5t-23 -244zM453 272q80 -86 202 -86q78 0 140 37.5t105 110t66 179.5t23 245q0 212 -53 348z" />
    <glyph glyph-name="Ugrave" unicode="&#xd9;" horiz-adv-x="1243" 
d="M125 510v1006h242v-984q0 -87 14 -151.5t44.5 -107t80 -64t121.5 -21.5q70 0 119.5 21t80 63.5t44.5 106.5t14 149v988h231v-1002q0 -124 -28 -224t-88 -170.5t-153.5 -108.5t-223.5 -38q-132 0 -226.5 37t-155 107t-88.5 169t-28 224zM346 1937h246l164 -329h-160z" />
    <glyph glyph-name="Uacute" unicode="&#xda;" horiz-adv-x="1243" 
d="M125 510v1006h242v-984q0 -87 14 -151.5t44.5 -107t80 -64t121.5 -21.5q70 0 119.5 21t80 63.5t44.5 106.5t14 149v988h231v-1002q0 -124 -28 -224t-88 -170.5t-153.5 -108.5t-223.5 -38q-132 0 -226.5 37t-155 107t-88.5 169t-28 224zM487 1608l166 329h244l-250 -329
h-160z" />
    <glyph glyph-name="Ucircumflex" unicode="&#xdb;" horiz-adv-x="1243" 
d="M125 510v1006h242v-984q0 -87 14 -151.5t44.5 -107t80 -64t121.5 -21.5q70 0 119.5 21t80 63.5t44.5 106.5t14 149v988h231v-1002q0 -124 -28 -224t-88 -170.5t-153.5 -108.5t-223.5 -38q-132 0 -226.5 37t-155 107t-88.5 169t-28 224zM319 1606l226 331h160l225 -331
h-139l-166 161l-166 -161h-140z" />
    <glyph glyph-name="Udieresis" unicode="&#xdc;" horiz-adv-x="1243" 
d="M125 510v1006h242v-984q0 -87 14 -151.5t44.5 -107t80 -64t121.5 -21.5q70 0 119.5 21t80 63.5t44.5 106.5t14 149v988h231v-1002q0 -124 -28 -224t-88 -170.5t-153.5 -108.5t-223.5 -38q-132 0 -226.5 37t-155 107t-88.5 169t-28 224zM338 1604v233h211v-233h-211z
M696 1604v233h209v-233h-209z" />
    <glyph glyph-name="Yacute" unicode="&#xdd;" horiz-adv-x="1128" 
d="M18 1516h248l301 -687h4l301 687h236l-424 -904v-612h-242v610zM430 1608l166 329h244l-250 -329h-160z" />
    <glyph glyph-name="Thorn" unicode="&#xde;" horiz-adv-x="1153" 
d="M141 0v1516h238v-261h203q104 0 195 -25t158 -80.5t105.5 -144.5t38.5 -217q0 -137 -41.5 -229t-111.5 -147.5t-161.5 -79t-191.5 -23.5h-194v-309h-238zM379 520h203q136 0 201 60.5t65 201.5q0 69 -16 117t-49 78t-83.5 43.5t-119.5 13.5h-201v-514z" />
    <glyph glyph-name="germandbls" unicode="&#xdf;" horiz-adv-x="1141" 
d="M119 0v1055q0 114 31.5 200t89 144t138.5 87.5t181 29.5q94 0 170 -23.5t129.5 -69.5t82 -113t28.5 -155q0 -62 -17 -115t-45.5 -95t-66.5 -71.5t-80 -44.5q72 -15 131.5 -48.5t102 -84.5t66 -119t23.5 -153q0 -98 -26.5 -179.5t-77 -140t-124.5 -91.5t-169 -33
q-98 0 -161.5 18t-106.5 47l96 162q31 -19 68.5 -31t85.5 -12q38 0 73 15.5t61.5 47t42 80t15.5 113.5q0 80 -21.5 135.5t-66 91t-112.5 53.5t-162 23v178q132 1 192 59t60 164q0 90 -49.5 140.5t-143.5 50.5q-100 0 -152.5 -63t-52.5 -191v-1061h-233z" />
    <glyph glyph-name="agrave" unicode="&#xe0;" horiz-adv-x="991" 
d="M57 266q0 172 150.5 284.5t445.5 168.5v47q0 77 -31.5 109t-103.5 32q-45 0 -88 -10t-82 -27t-73.5 -40t-63.5 -48l-117 144q43 40 94.5 73.5t109 57.5t120.5 37.5t129 13.5q172 0 253 -86.5t81 -255.5v-500q0 -99 6 -161.5t20 -104.5h-231q-5 15 -9 29.5t-7 30.5
t-5 34.5t-2 42.5q-55 -71 -141.5 -110t-192.5 -39q-57 0 -105.5 18t-83 53.5t-54 87t-19.5 119.5zM221 1528h246l164 -330h-160zM285 305q0 -68 34 -100.5t93 -32.5q75 0 135.5 32.5t105.5 80.5v274q-192 -41 -280 -105t-88 -149z" />
    <glyph glyph-name="aacute" unicode="&#xe1;" horiz-adv-x="991" 
d="M57 266q0 172 150.5 284.5t445.5 168.5v47q0 77 -31.5 109t-103.5 32q-45 0 -88 -10t-82 -27t-73.5 -40t-63.5 -48l-117 144q43 40 94.5 73.5t109 57.5t120.5 37.5t129 13.5q172 0 253 -86.5t81 -255.5v-500q0 -99 6 -161.5t20 -104.5h-231q-5 15 -9 29.5t-7 30.5
t-5 34.5t-2 42.5q-55 -71 -141.5 -110t-192.5 -39q-57 0 -105.5 18t-83 53.5t-54 87t-19.5 119.5zM285 305q0 -68 34 -100.5t93 -32.5q75 0 135.5 32.5t105.5 80.5v274q-192 -41 -280 -105t-88 -149zM362 1198l166 330h244l-250 -330h-160z" />
    <glyph glyph-name="acircumflex" unicode="&#xe2;" horiz-adv-x="991" 
d="M57 266q0 172 150.5 284.5t445.5 168.5v47q0 77 -31.5 109t-103.5 32q-45 0 -88 -10t-82 -27t-73.5 -40t-63.5 -48l-117 144q43 40 94.5 73.5t109 57.5t120.5 37.5t129 13.5q172 0 253 -86.5t81 -255.5v-500q0 -99 6 -161.5t20 -104.5h-231q-5 15 -9 29.5t-7 30.5
t-5 34.5t-2 42.5q-55 -71 -141.5 -110t-192.5 -39q-57 0 -105.5 18t-83 53.5t-54 87t-19.5 119.5zM190 1196l226 332h159l226 -332h-139l-166 162l-166 -162h-140zM285 305q0 -68 34 -100.5t93 -32.5q75 0 135.5 32.5t105.5 80.5v274q-192 -41 -280 -105t-88 -149z" />
    <glyph glyph-name="atilde" unicode="&#xe3;" horiz-adv-x="991" 
d="M57 266q0 172 150.5 284.5t445.5 168.5v47q0 77 -31.5 109t-103.5 32q-45 0 -88 -10t-82 -27t-73.5 -40t-63.5 -48l-117 144q43 40 94.5 73.5t109 57.5t120.5 37.5t129 13.5q172 0 253 -86.5t81 -255.5v-500q0 -99 6 -161.5t20 -104.5h-231q-5 15 -9 29.5t-7 30.5
t-5 34.5t-2 42.5q-55 -71 -141.5 -110t-192.5 -39q-57 0 -105.5 18t-83 53.5t-54 87t-19.5 119.5zM166 1184q0 150 52 217t142 67q45 0 82 -18t68.5 -39t59.5 -39t57 -18q35 0 53 24t18 86h127q0 -149 -50.5 -216.5t-139.5 -67.5q-46 0 -83 18t-68.5 39t-59.5 39t-55 18
q-35 0 -53.5 -24t-18.5 -86h-131zM285 305q0 -68 34 -100.5t93 -32.5q75 0 135.5 32.5t105.5 80.5v274q-192 -41 -280 -105t-88 -149z" />
    <glyph glyph-name="adieresis" unicode="&#xe4;" horiz-adv-x="991" 
d="M57 266q0 172 150.5 284.5t445.5 168.5v47q0 77 -31.5 109t-103.5 32q-45 0 -88 -10t-82 -27t-73.5 -40t-63.5 -48l-117 144q43 40 94.5 73.5t109 57.5t120.5 37.5t129 13.5q172 0 253 -86.5t81 -255.5v-500q0 -99 6 -161.5t20 -104.5h-231q-5 15 -9 29.5t-7 30.5
t-5 34.5t-2 42.5q-55 -71 -141.5 -110t-192.5 -39q-57 0 -105.5 18t-83 53.5t-54 87t-19.5 119.5zM213 1194v233h211v-233h-211zM285 305q0 -68 34 -100.5t93 -32.5q75 0 135.5 32.5t105.5 80.5v274q-192 -41 -280 -105t-88 -149zM571 1194v233h209v-233h-209z" />
    <glyph glyph-name="aring" unicode="&#xe5;" horiz-adv-x="991" 
d="M57 266q0 172 150.5 284.5t445.5 168.5v47q0 77 -31.5 109t-103.5 32q-45 0 -88 -10t-82 -27t-73.5 -40t-63.5 -48l-117 144q43 40 94.5 73.5t109 57.5t120.5 37.5t129 13.5q172 0 253 -86.5t81 -255.5v-500q0 -99 6 -161.5t20 -104.5h-231q-5 15 -9 29.5t-7 30.5
t-5 34.5t-2 42.5q-55 -71 -141.5 -110t-192.5 -39q-57 0 -105.5 18t-83 53.5t-54 87t-19.5 119.5zM285 305q0 -68 34 -100.5t93 -32.5q75 0 135.5 32.5t105.5 80.5v274q-192 -41 -280 -105t-88 -149zM305 1384q0 45 13.5 84t38.5 67t60.5 44t78.5 16t78 -16t60.5 -44
t39.5 -67t14 -84q0 -44 -14 -82.5t-39.5 -67t-60.5 -44.5t-78 -16t-78.5 16t-60.5 44.5t-38.5 67t-13.5 82.5zM416 1384q0 -22 5 -42t15.5 -35t25 -24t34.5 -9t35 9t25.5 24t16 35t5.5 42q0 44 -21 75.5t-61 31.5q-39 0 -59.5 -31.5t-20.5 -75.5z" />
    <glyph glyph-name="ae" unicode="&#xe6;" horiz-adv-x="1567" 
d="M57 266q0 172 150.5 284.5t445.5 168.5v47q0 77 -31.5 109t-103.5 32q-45 0 -88 -10t-82 -27t-73.5 -40t-63.5 -48l-117 144q43 40 94.5 73.5t110 57.5t123.5 37.5t135 13.5q102 0 162.5 -31t89.5 -94q60 63 133 94t148 31q91 0 167 -34t130.5 -104t85 -178t30.5 -255
v-64h-626q8 -155 67.5 -230t161.5 -75q43 0 77.5 10t64 29t55 46t51.5 62l147 -106q-31 -49 -72 -91.5t-92 -73.5t-112 -49t-131 -18q-116 0 -210 50.5t-153 156.5q-33 -39 -74 -74.5t-92 -62.5t-112 -43t-134 -16q-57 0 -105.5 18t-83 53.5t-54 87t-19.5 119.5zM285 305
q0 -68 34 -100.5t93 -32.5q69 0 138 33.5t132 101.5q-14 51 -21.5 109.5t-7.5 126.5v14q-97 -21 -166.5 -47.5t-114.5 -58t-66 -68t-21 -78.5zM879 637h407q-8 136 -55 206t-141 70q-39 0 -74 -14.5t-63.5 -47.5t-47.5 -85.5t-26 -128.5z" />
    <glyph glyph-name="ccedilla" unicode="&#xe7;" horiz-adv-x="958" 
d="M66 543q0 150 38 257.5t100.5 175.5t143 100t166.5 32q91 0 156.5 -26.5t111.5 -73t75 -108.5t48 -132l-209 -51q-13 49 -29 85t-38.5 60t-51.5 35.5t-67 11.5q-45 0 -84 -20t-67 -64t-44 -113.5t-16 -168.5q0 -181 52.5 -277t158.5 -96q36 0 66.5 10t55 33.5t43.5 62
t32 95.5l202 -52q-19 -74 -51.5 -135t-80.5 -106t-111 -71.5t-144 -29.5l-22 -81q18 12 45 20t61 8q26 0 51 -8.5t44 -25.5t30.5 -44.5t11.5 -64.5q0 -46 -19.5 -83.5t-53.5 -64t-80.5 -41t-100.5 -14.5q-75 0 -140.5 20t-115.5 52l56 94q38 -26 89.5 -41.5t102.5 -15.5
q53 0 82 20t29 57q0 62 -66 62q-24 0 -45.5 -10t-40.5 -27l-73 33l47 164q-72 15 -135.5 57t-111 111t-74.5 166t-27 223z" />
    <glyph glyph-name="egrave" unicode="&#xe8;" horiz-adv-x="987" 
d="M66 543q0 151 38.5 258t101 175.5t142 100t162.5 31.5q91 0 167 -34t130.5 -104t84.5 -178t30 -255v-64h-627q8 -155 67.5 -230t161.5 -75q43 0 78 10t64 29t55 46t51 62l148 -106q-31 -49 -73.5 -91.5t-94.5 -73.5t-112 -49t-126 -18q-94 0 -175.5 33.5t-142 103
t-95.5 176t-35 253.5zM219 1528h246l164 -330h-160zM297 637h408q-8 136 -55.5 206t-141.5 70q-38 0 -73.5 -14.5t-63.5 -47.5t-47.5 -85.5t-26.5 -128.5z" />
    <glyph glyph-name="eacute" unicode="&#xe9;" horiz-adv-x="987" 
d="M66 543q0 151 38.5 258t101 175.5t142 100t162.5 31.5q91 0 167 -34t130.5 -104t84.5 -178t30 -255v-64h-627q8 -155 67.5 -230t161.5 -75q43 0 78 10t64 29t55 46t51 62l148 -106q-31 -49 -73.5 -91.5t-94.5 -73.5t-112 -49t-126 -18q-94 0 -175.5 33.5t-142 103
t-95.5 176t-35 253.5zM297 637h408q-8 136 -55.5 206t-141.5 70q-38 0 -73.5 -14.5t-63.5 -47.5t-47.5 -85.5t-26.5 -128.5zM360 1198l166 330h244l-250 -330h-160z" />
    <glyph glyph-name="ecircumflex" unicode="&#xea;" horiz-adv-x="987" 
d="M66 543q0 151 38.5 258t101 175.5t142 100t162.5 31.5q91 0 167 -34t130.5 -104t84.5 -178t30 -255v-64h-627q8 -155 67.5 -230t161.5 -75q43 0 78 10t64 29t55 46t51 62l148 -106q-31 -49 -73.5 -91.5t-94.5 -73.5t-112 -49t-126 -18q-94 0 -175.5 33.5t-142 103
t-95.5 176t-35 253.5zM188 1196l226 332h159l226 -332h-140l-165 162l-166 -162h-140zM297 637h408q-8 136 -55.5 206t-141.5 70q-38 0 -73.5 -14.5t-63.5 -47.5t-47.5 -85.5t-26.5 -128.5z" />
    <glyph glyph-name="edieresis" unicode="&#xeb;" horiz-adv-x="987" 
d="M66 543q0 151 38.5 258t101 175.5t142 100t162.5 31.5q91 0 167 -34t130.5 -104t84.5 -178t30 -255v-64h-627q8 -155 67.5 -230t161.5 -75q43 0 78 10t64 29t55 46t51 62l148 -106q-31 -49 -73.5 -91.5t-94.5 -73.5t-112 -49t-126 -18q-94 0 -175.5 33.5t-142 103
t-95.5 176t-35 253.5zM211 1194v233h211v-233h-211zM297 637h408q-8 136 -55.5 206t-141.5 70q-38 0 -73.5 -14.5t-63.5 -47.5t-47.5 -85.5t-26.5 -128.5zM569 1194v233h209v-233h-209z" />
    <glyph glyph-name="igrave" unicode="&#xec;" horiz-adv-x="489" 
d="M-61 1528h245l164 -330h-160zM127 0v1085h233v-1085h-233z" />
    <glyph glyph-name="iacute" unicode="&#xed;" horiz-adv-x="489" 
d="M127 0v1085h233v-1085h-233zM141 1198l166 330h244l-250 -330h-160z" />
    <glyph glyph-name="icircumflex" unicode="&#xee;" horiz-adv-x="489" 
d="M-61 1196l225 332h160l225 -332h-139l-166 162l-166 -162h-139zM127 0v1085h233v-1085h-233z" />
    <glyph glyph-name="idieresis" unicode="&#xef;" horiz-adv-x="489" 
d="M-39 1194v233h211v-233h-211zM127 0v1085h233v-1085h-233zM319 1194v233h209v-233h-209z" />
    <glyph glyph-name="eth" unicode="&#xf0;" horiz-adv-x="1038" 
d="M66 516q0 130 31 228t86 164t130.5 99t165.5 33q37 0 75 -9t72.5 -26.5t64 -44.5t50.5 -63q-14 69 -45 144.5t-82 150.5l-147 -84l-78 139l121 70q-23 26 -50.5 50.5t-58.5 49.5l125 131q44 -31 82 -64.5t72 -68.5l151 88l78 -139l-127 -74q103 -149 146 -330t43 -401
q0 -144 -33 -253t-92.5 -182t-142.5 -110t-183 -37q-102 0 -185.5 36.5t-143.5 106t-92.5 169.5t-32.5 227zM299 518q0 -82 13.5 -147.5t41 -111t69 -69.5t97.5 -24q107 0 163 91.5t56 262.5q0 81 -14 145.5t-41.5 109.5t-68.5 69t-95 24q-106 0 -163.5 -87.5t-57.5 -262.5z
" />
    <glyph glyph-name="ntilde" unicode="&#xf1;" 
d="M117 0v1085h233v-141q24 29 58.5 58.5t77.5 53t93 38t105 14.5q125 0 195.5 -76.5t70.5 -228.5v-803h-233v750q0 80 -28.5 118.5t-96.5 38.5q-34 0 -69 -13t-67.5 -32t-60 -41.5t-45.5 -40.5v-780h-233zM199 1184q0 150 51.5 217t142.5 67q45 0 82 -18t68.5 -39t59.5 -39
t56 -18q36 0 54 24t18 86h127q0 -149 -51 -216.5t-139 -67.5q-46 0 -83 18t-68.5 39t-59.5 39t-56 18q-35 0 -53 -24t-18 -86h-131z" />
    <glyph glyph-name="ograve" unicode="&#xf2;" horiz-adv-x="1040" 
d="M66 543q0 147 36.5 253.5t98.5 175.5t144.5 102.5t174.5 33.5q91 0 173.5 -33.5t144.5 -102.5t98.5 -175.5t36.5 -253.5q0 -145 -36.5 -251.5t-98.5 -176.5t-144.5 -104t-173.5 -34q-92 0 -174 34t-144.5 104t-99 176.5t-36.5 251.5zM246 1528h246l163 -330h-159z
M299 543q0 -83 12 -152t38.5 -118.5t68.5 -77t102 -27.5q113 0 166 97t53 278q0 82 -12.5 150t-38.5 116.5t-68 75t-100 26.5q-112 0 -166.5 -95.5t-54.5 -272.5z" />
    <glyph glyph-name="oacute" unicode="&#xf3;" horiz-adv-x="1040" 
d="M66 543q0 147 36.5 253.5t98.5 175.5t144.5 102.5t174.5 33.5q91 0 173.5 -33.5t144.5 -102.5t98.5 -175.5t36.5 -253.5q0 -145 -36.5 -251.5t-98.5 -176.5t-144.5 -104t-173.5 -34q-92 0 -174 34t-144.5 104t-99 176.5t-36.5 251.5zM299 543q0 -83 12 -152t38.5 -118.5
t68.5 -77t102 -27.5q113 0 166 97t53 278q0 82 -12.5 150t-38.5 116.5t-68 75t-100 26.5q-112 0 -166.5 -95.5t-54.5 -272.5zM387 1198l166 330h244l-250 -330h-160z" />
    <glyph glyph-name="ocircumflex" unicode="&#xf4;" horiz-adv-x="1040" 
d="M66 543q0 147 36.5 253.5t98.5 175.5t144.5 102.5t174.5 33.5q91 0 173.5 -33.5t144.5 -102.5t98.5 -175.5t36.5 -253.5q0 -145 -36.5 -251.5t-98.5 -176.5t-144.5 -104t-173.5 -34q-92 0 -174 34t-144.5 104t-99 176.5t-36.5 251.5zM215 1196l225 332h160l225 -332h-139
l-166 162l-166 -162h-139zM299 543q0 -83 12 -152t38.5 -118.5t68.5 -77t102 -27.5q113 0 166 97t53 278q0 82 -12.5 150t-38.5 116.5t-68 75t-100 26.5q-112 0 -166.5 -95.5t-54.5 -272.5z" />
    <glyph glyph-name="otilde" unicode="&#xf5;" horiz-adv-x="1040" 
d="M66 543q0 147 36.5 253.5t98.5 175.5t144.5 102.5t174.5 33.5q91 0 173.5 -33.5t144.5 -102.5t98.5 -175.5t36.5 -253.5q0 -145 -36.5 -251.5t-98.5 -176.5t-144.5 -104t-173.5 -34q-92 0 -174 34t-144.5 104t-99 176.5t-36.5 251.5zM190 1184q0 150 52 217t143 67
q45 0 81.5 -18t68 -39t59.5 -39t57 -18q35 0 53.5 24t18.5 86h127q0 -149 -51 -216.5t-140 -67.5q-46 0 -83 18t-68.5 39t-59 39t-55.5 18q-35 0 -53 -24t-18 -86h-132zM299 543q0 -83 12 -152t38.5 -118.5t68.5 -77t102 -27.5q113 0 166 97t53 278q0 82 -12.5 150
t-38.5 116.5t-68 75t-100 26.5q-112 0 -166.5 -95.5t-54.5 -272.5z" />
    <glyph glyph-name="odieresis" unicode="&#xf6;" horiz-adv-x="1040" 
d="M66 543q0 147 36.5 253.5t98.5 175.5t144.5 102.5t174.5 33.5q91 0 173.5 -33.5t144.5 -102.5t98.5 -175.5t36.5 -253.5q0 -145 -36.5 -251.5t-98.5 -176.5t-144.5 -104t-173.5 -34q-92 0 -174 34t-144.5 104t-99 176.5t-36.5 251.5zM238 1194v233h211v-233h-211z
M299 543q0 -83 12 -152t38.5 -118.5t68.5 -77t102 -27.5q113 0 166 97t53 278q0 82 -12.5 150t-38.5 116.5t-68 75t-100 26.5q-112 0 -166.5 -95.5t-54.5 -272.5zM596 1194v233h209v-233h-209z" />
    <glyph glyph-name="divide" unicode="&#xf7;" horiz-adv-x="1126" 
d="M104 590v194h918v-194h-918zM455 201v219h215v-219h-215zM455 954v217h215v-217h-215z" />
    <glyph glyph-name="oslash" unicode="&#xf8;" horiz-adv-x="1040" 
d="M66 543q0 147 36.5 253.5t98.5 175.5t144.5 102.5t174.5 33.5q66 0 126.5 -17.5t113.5 -52.5l94 138l113 -74l-105 -160q51 -69 81 -167.5t30 -231.5q0 -145 -36.5 -251.5t-98.5 -176.5t-144.5 -104t-173.5 -34q-66 0 -129 18.5t-117 53.5l-90 -135l-114 74l104 159
q-49 70 -78.5 168t-29.5 228zM293 543q0 -56 5.5 -105t16.5 -92l336 518q-51 51 -131 51q-112 0 -169.5 -97.5t-57.5 -274.5zM381 223q53 -59 139 -59q112 0 168.5 99.5t56.5 279.5q0 115 -24 198z" />
    <glyph glyph-name="ugrave" unicode="&#xf9;" 
d="M109 283v802h233v-753q0 -81 29 -118.5t100 -37.5q32 0 63.5 10.5t61.5 28t58.5 40.5t54.5 48v782h233v-1085h-233v141q-27 -31 -62 -60.5t-77 -52.5t-91 -37t-104 -14q-125 0 -195.5 77t-70.5 229zM254 1528h246l164 -330h-160z" />
    <glyph glyph-name="uacute" unicode="&#xfa;" 
d="M109 283v802h233v-753q0 -81 29 -118.5t100 -37.5q32 0 63.5 10.5t61.5 28t58.5 40.5t54.5 48v782h233v-1085h-233v141q-27 -31 -62 -60.5t-77 -52.5t-91 -37t-104 -14q-125 0 -195.5 77t-70.5 229zM395 1198l166 330h244l-250 -330h-160z" />
    <glyph glyph-name="ucircumflex" unicode="&#xfb;" 
d="M109 283v802h233v-753q0 -81 29 -118.5t100 -37.5q32 0 63.5 10.5t61.5 28t58.5 40.5t54.5 48v782h233v-1085h-233v141q-27 -31 -62 -60.5t-77 -52.5t-91 -37t-104 -14q-125 0 -195.5 77t-70.5 229zM221 1196l225 332h160l225 -332h-139l-166 162l-166 -162h-139z" />
    <glyph glyph-name="udieresis" unicode="&#xfc;" 
d="M109 283v802h233v-753q0 -81 29 -118.5t100 -37.5q32 0 63.5 10.5t61.5 28t58.5 40.5t54.5 48v782h233v-1085h-233v141q-27 -31 -62 -60.5t-77 -52.5t-91 -37t-104 -14q-125 0 -195.5 77t-70.5 229zM244 1194v233h211v-233h-211zM602 1194v233h209v-233h-209z" />
    <glyph glyph-name="yacute" unicode="&#xfd;" horiz-adv-x="958" 
d="M-2 -385l45 184q20 -5 59.5 -11.5t85.5 -6.5q31 0 53.5 8t39.5 24.5t30 42t25 60.5l22 72l-340 1097h242l135 -493q12 -45 23 -85.5t21 -80t19.5 -80.5t18.5 -86h4q11 46 21 88t20.5 83t21.5 83t23 88l135 483h226l-377 -1198q-24 -75 -52.5 -131.5t-67.5 -94
t-92.5 -56.5t-127.5 -19q-75 0 -129.5 10t-83.5 19zM346 1198l166 330h244l-250 -330h-160z" />
    <glyph glyph-name="thorn" unicode="&#xfe;" horiz-adv-x="1067" 
d="M117 -410v1926h233v-564q24 31 53 59t65 49.5t79 34.5t94 13q79 0 145 -33.5t114 -102.5t74.5 -175t26.5 -252q0 -147 -28.5 -253t-78.5 -174.5t-118.5 -101t-148.5 -32.5q-94 0 -159 35.5t-118 101.5v-531h-233zM350 291q45 -56 99 -86.5t114 -30.5q48 0 85.5 21
t63.5 65.5t40 114.5t14 168q0 189 -54 277.5t-151 88.5q-28 0 -58.5 -12t-59 -30t-53 -40t-40.5 -41v-495z" />
    <glyph glyph-name="ydieresis" unicode="&#xff;" horiz-adv-x="958" 
d="M-2 -385l45 184q20 -5 59.5 -11.5t85.5 -6.5q31 0 53.5 8t39.5 24.5t30 42t25 60.5l22 72l-340 1097h242l135 -493q12 -45 23 -85.5t21 -80t19.5 -80.5t18.5 -86h4q11 46 21 88t20.5 83t21.5 83t23 88l135 483h226l-377 -1198q-24 -75 -52.5 -131.5t-67.5 -94
t-92.5 -56.5t-127.5 -19q-75 0 -129.5 10t-83.5 19zM197 1194v233h211v-233h-211zM555 1194v233h209v-233h-209z" />
    <glyph glyph-name="Amacron" unicode="&#x100;" horiz-adv-x="1194" 
d="M39 0l442 1522h232l442 -1522h-242l-98 362h-450l-101 -362h-225zM311 1636v181h574v-181h-574zM422 573h336l-49 185q-18 64 -33.5 120.5t-30 109.5t-27 104.5t-24.5 105.5h-4q-12 -54 -25.5 -106t-28 -104.5t-30 -108.5t-33.5 -119z" />
    <glyph glyph-name="amacron" unicode="&#x101;" horiz-adv-x="991" 
d="M57 266q0 172 150.5 284.5t445.5 168.5v47q0 77 -31.5 109t-103.5 32q-45 0 -88 -10t-82 -27t-73.5 -40t-63.5 -48l-117 144q43 40 94.5 73.5t109 57.5t120.5 37.5t129 13.5q172 0 253 -86.5t81 -255.5v-500q0 -99 6 -161.5t20 -104.5h-231q-5 15 -9 29.5t-7 30.5
t-5 34.5t-2 42.5q-55 -71 -141.5 -110t-192.5 -39q-57 0 -105.5 18t-83 53.5t-54 87t-19.5 119.5zM221 1223v180h574v-180h-574zM285 305q0 -68 34 -100.5t93 -32.5q75 0 135.5 32.5t105.5 80.5v274q-192 -41 -280 -105t-88 -149z" />
    <glyph glyph-name="Abreve" unicode="&#x102;" horiz-adv-x="1194" 
d="M39 0l442 1522h232l442 -1522h-242l-98 362h-450l-101 -362h-225zM305 1946h137q6 -54 19.5 -91t33.5 -60.5t46 -33.5t57 -10t56.5 10t45.5 33.5t33 60.5t19 91h137q-4 -79 -23.5 -144t-55.5 -111t-89 -71t-123 -25q-71 0 -124.5 25t-89.5 71t-55.5 111t-23.5 144z
M422 573h336l-49 185q-18 64 -33.5 120.5t-30 109.5t-27 104.5t-24.5 105.5h-4q-12 -54 -25.5 -106t-28 -104.5t-30 -108.5t-33.5 -119z" />
    <glyph glyph-name="abreve" unicode="&#x103;" horiz-adv-x="991" 
d="M57 266q0 172 150.5 284.5t445.5 168.5v47q0 77 -31.5 109t-103.5 32q-45 0 -88 -10t-82 -27t-73.5 -40t-63.5 -48l-117 144q43 40 94.5 73.5t109 57.5t120.5 37.5t129 13.5q172 0 253 -86.5t81 -255.5v-500q0 -99 6 -161.5t20 -104.5h-231q-5 15 -9 29.5t-7 30.5
t-5 34.5t-2 42.5q-55 -71 -141.5 -110t-192.5 -39q-57 0 -105.5 18t-83 53.5t-54 87t-19.5 119.5zM205 1536h137q5 -54 18.5 -91t34 -60t46.5 -33.5t57 -10.5t56.5 10.5t45.5 33.5t33 60t18 91h137q-4 -79 -23 -143.5t-55 -110.5t-89 -71t-123 -25q-72 0 -125 25t-89 71
t-55.5 110.5t-23.5 143.5zM285 305q0 -68 34 -100.5t93 -32.5q75 0 135.5 32.5t105.5 80.5v274q-192 -41 -280 -105t-88 -149z" />
    <glyph glyph-name="Aogonek" unicode="&#x104;" horiz-adv-x="1194" 
d="M39 0l442 1522h232l442 -1522h-55q-27 -12 -57 -27.5t-55 -38t-41.5 -52.5t-16.5 -70q0 -39 18 -63.5t68 -24.5q38 0 77 14.5t74 36.5l56 -76q-54 -40 -115.5 -65t-144.5 -25q-96 0 -144.5 44.5t-48.5 117.5q0 32 11 64t30.5 61.5t45.5 56t56 47.5l-98 362h-450
l-101 -362h-225zM422 573h336l-49 185q-18 64 -33.5 120.5t-30 109.5t-27 104.5t-24.5 105.5h-4q-12 -54 -25.5 -106t-28 -104.5t-30 -108.5t-33.5 -119z" />
    <glyph glyph-name="aogonek" unicode="&#x105;" horiz-adv-x="991" 
d="M57 266q0 172 150.5 284.5t445.5 168.5v47q0 77 -31.5 109t-103.5 32q-45 0 -88 -10t-82 -27t-73.5 -40t-63.5 -48l-117 144q43 40 94.5 73.5t109 57.5t120.5 37.5t129 13.5q172 0 253 -86.5t81 -255.5v-500q0 -99 6 -161.5t20 -104.5h-16q-37 0 -73.5 -15.5t-66 -41
t-47.5 -60t-18 -71.5q0 -39 19 -63.5t67 -24.5q40 0 79 14.5t73 36.5l57 -76q-28 -20 -56.5 -36.5t-60 -28.5t-67.5 -18.5t-78 -6.5q-96 0 -144.5 44.5t-48.5 117.5q0 33 12 65t33 61t48 55.5t57 47.5q-5 15 -9 29.5t-7 30.5t-5 34.5t-2 42.5q-55 -71 -141.5 -110
t-192.5 -39q-57 0 -105.5 18t-83 53.5t-54 87t-19.5 119.5zM285 305q0 -68 34 -100.5t93 -32.5q75 0 135.5 32.5t105.5 80.5v274q-192 -41 -280 -105t-88 -149z" />
    <glyph glyph-name="Cacute" unicode="&#x106;" horiz-adv-x="1221" 
d="M80 760q0 196 41 343.5t115.5 245t178.5 146.5t230 49q115 0 199.5 -36t143 -102t94.5 -158t55 -204l-226 -40q-15 81 -37 140.5t-54.5 98.5t-76.5 57.5t-104 18.5q-157 0 -237 -143t-80 -414q0 -284 81 -428t240 -144q60 0 105.5 18.5t80 58.5t59 104t42.5 155l223 -37
q-21 -111 -60.5 -205.5t-101 -163.5t-148 -108t-202.5 -39q-128 0 -231.5 48t-176.5 145.5t-113 245.5t-40 348zM492 1614l165 330h244l-250 -330h-159z" />
    <glyph glyph-name="cacute" unicode="&#x107;" horiz-adv-x="958" 
d="M66 543q0 150 38 257.5t100.5 175.5t143 100t166.5 32q91 0 156.5 -26.5t111.5 -73t75 -108.5t48 -132l-209 -51q-13 49 -29 85t-38.5 60t-51.5 35.5t-67 11.5q-45 0 -84 -20t-67 -64t-44 -113.5t-16 -168.5q0 -181 52.5 -277t158.5 -96q36 0 66.5 10t55 33.5t43.5 62
t32 95.5l202 -52q-20 -76 -54 -139t-83.5 -108t-116 -70t-151.5 -25q-88 0 -167.5 34t-139.5 104t-95.5 176.5t-35.5 251.5zM352 1198l166 330h244l-250 -330h-160z" />
    <glyph glyph-name="Ccircumflex" unicode="&#x108;" horiz-adv-x="1221" 
d="M330 1606l225 332h160l225 -332h-139l-166 162l-166 -162h-139zM80 760q0 196 41 343.5t115.5 245t178.5 146.5t230 49q115 0 199.5 -36t143 -102t94.5 -158t55 -204l-226 -40q-15 81 -37 140.5t-54.5 98.5t-76.5 57.5t-104 18.5q-157 0 -237 -143t-80 -414
q0 -284 81 -428t240 -144q60 0 105.5 18.5t80 58.5t59 104t42.5 155l223 -37q-21 -111 -60.5 -205.5t-101 -163.5t-148 -108t-202.5 -39q-128 0 -231.5 48t-176.5 145.5t-113 245.5t-40 348z" />
    <glyph glyph-name="ccircumflex" unicode="&#x109;" horiz-adv-x="958" 
d="M193 1196l225 332h160l225 -332h-139l-166 162l-166 -162h-139zM66 543q0 150 38 257.5t100.5 175.5t143 100t166.5 32q91 0 156.5 -26.5t111.5 -73t75 -108.5t48 -132l-209 -51q-13 49 -29 85t-38.5 60t-51.5 35.5t-67 11.5q-45 0 -84 -20t-67 -64t-44 -113.5
t-16 -168.5q0 -181 52.5 -277t158.5 -96q36 0 66.5 10t55 33.5t43.5 62t32 95.5l202 -52q-20 -76 -54 -139t-83.5 -108t-116 -70t-151.5 -25q-88 0 -167.5 34t-139.5 104t-95.5 176.5t-35.5 251.5z" />
    <glyph glyph-name="Cdotaccent" unicode="&#x10a;" horiz-adv-x="1221" 
d="M80 760q0 196 41 343.5t115.5 245t178.5 146.5t230 49q115 0 199.5 -36t143 -102t94.5 -158t55 -204l-226 -40q-15 81 -37 140.5t-54.5 98.5t-76.5 57.5t-104 18.5q-157 0 -237 -143t-80 -414q0 -284 81 -428t240 -144q60 0 105.5 18.5t80 58.5t59 104t42.5 155l223 -37
q-21 -111 -60.5 -205.5t-101 -163.5t-148 -108t-202.5 -39q-128 0 -231.5 48t-176.5 145.5t-113 245.5t-40 348zM504 1610v221h250v-221h-250z" />
    <glyph glyph-name="cdotaccent" unicode="&#x10b;" horiz-adv-x="958" 
d="M66 543q0 150 38 257.5t100.5 175.5t143 100t166.5 32q91 0 156.5 -26.5t111.5 -73t75 -108.5t48 -132l-209 -51q-13 49 -29 85t-38.5 60t-51.5 35.5t-67 11.5q-45 0 -84 -20t-67 -64t-44 -113.5t-16 -168.5q0 -181 52.5 -277t158.5 -96q36 0 66.5 10t55 33.5t43.5 62
t32 95.5l202 -52q-20 -76 -54 -139t-83.5 -108t-116 -70t-151.5 -25q-88 0 -167.5 34t-139.5 104t-95.5 176.5t-35.5 251.5zM375 1196v221h250v-221h-250z" />
    <glyph glyph-name="Ccaron" unicode="&#x10c;" horiz-adv-x="1221" 
d="M80 760q0 196 41 343.5t115.5 245t178.5 146.5t230 49q115 0 199.5 -36t143 -102t94.5 -158t55 -204l-226 -40q-15 81 -37 140.5t-54.5 98.5t-76.5 57.5t-104 18.5q-157 0 -237 -143t-80 -414q0 -284 81 -428t240 -144q60 0 105.5 18.5t80 58.5t59 104t42.5 155l223 -37
q-21 -111 -60.5 -205.5t-101 -163.5t-148 -108t-202.5 -39q-128 0 -231.5 48t-176.5 145.5t-113 245.5t-40 348zM315 1942h142l166 -164l165 164h138l-226 -332h-159z" />
    <glyph glyph-name="ccaron" unicode="&#x10d;" horiz-adv-x="958" 
d="M66 543q0 150 38 257.5t100.5 175.5t143 100t166.5 32q91 0 156.5 -26.5t111.5 -73t75 -108.5t48 -132l-209 -51q-13 49 -29 85t-38.5 60t-51.5 35.5t-67 11.5q-45 0 -84 -20t-67 -64t-44 -113.5t-16 -168.5q0 -181 52.5 -277t158.5 -96q36 0 66.5 10t55 33.5t43.5 62
t32 95.5l202 -52q-20 -76 -54 -139t-83.5 -108t-116 -70t-151.5 -25q-88 0 -167.5 34t-139.5 104t-95.5 176.5t-35.5 251.5zM178 1532h141l166 -164l166 164h137l-225 -332h-160z" />
    <glyph glyph-name="Dcaron" unicode="&#x10e;" horiz-adv-x="1255" 
d="M141 0v1516h365q155 0 279 -39.5t211 -128.5t133.5 -233t46.5 -353q0 -211 -47.5 -356.5t-135 -235.5t-211 -130t-276.5 -40h-365zM295 1937h141l166 -163l166 163h137l-225 -331h-160zM383 215h149q106 0 182 29.5t124.5 95t71 169.5t22.5 253q0 144 -22.5 245.5
t-71.5 165t-125 92.5t-183 29h-147v-1079z" />
    <glyph glyph-name="dcaron" unicode="&#x10f;" horiz-adv-x="1272" 
d="M68 543q0 147 28.5 253.5t78.5 175.5t118.5 102.5t148.5 33.5q94 0 159 -35.5t118 -101.5v545h233v-1250q0 -99 5.5 -161.5t21.5 -104.5h-240q-5 12 -8.5 31t-6 39t-4 39t-1.5 32q-24 -31 -53 -59.5t-65 -50t-79 -34.5t-94 -13q-79 0 -145 32.5t-114 101t-74.5 174
t-26.5 251.5zM303 537q0 -189 54 -276t151 -87q28 0 58.5 12t59 30.5t53 40t40.5 40.5v496q-45 55 -99 85.5t-114 30.5q-48 0 -85.5 -21.5t-63.5 -66.5t-40 -115.5t-14 -168.5zM1067 1253v263h246v-244l-117 -248h-111l72 229h-90z" />
    <glyph glyph-name="Dcroat" unicode="&#x110;" horiz-adv-x="1255" 
d="M23 696v191h118v629h365q155 0 279 -39.5t211 -128.5t133.5 -233t46.5 -353q0 -211 -47.5 -356.5t-135 -235.5t-211 -130t-276.5 -40h-365v696h-118zM383 215h149q106 0 182 29.5t124.5 95t71 169.5t22.5 253q0 144 -22.5 245.5t-71.5 165t-125 92.5t-183 29h-147v-407
h248v-191h-248v-481z" />
    <glyph glyph-name="dcroat" unicode="&#x111;" horiz-adv-x="1067" 
d="M68 543q0 147 28.5 253.5t78.5 175.5t118.5 102.5t148.5 33.5q94 0 159 -35.5t118 -101.5v221h-197v178h197v146h233v-146h105v-178h-105v-926q0 -99 5.5 -161.5t21.5 -104.5h-240q-5 12 -8.5 31t-6 39t-4 39t-1.5 32q-24 -31 -53 -59.5t-65 -50t-79 -34.5t-94 -13
q-79 0 -145 32.5t-114 101t-74.5 174t-26.5 251.5zM303 537q0 -189 54 -276t151 -87q28 0 58.5 12t59 30.5t53 40t40.5 40.5v496q-45 55 -99 85.5t-114 30.5q-48 0 -85.5 -21.5t-63.5 -66.5t-40 -115.5t-14 -168.5z" />
    <glyph glyph-name="Emacron" unicode="&#x112;" 
d="M141 0v1516h822v-224h-580v-389h420v-217h-420v-469h610v-217h-852zM260 1636v181h574v-181h-574z" />
    <glyph glyph-name="emacron" unicode="&#x113;" horiz-adv-x="987" 
d="M66 543q0 151 38.5 258t101 175.5t142 100t162.5 31.5q91 0 167 -34t130.5 -104t84.5 -178t30 -255v-64h-627q8 -155 67.5 -230t161.5 -75q43 0 78 10t64 29t55 46t51 62l148 -106q-31 -49 -73.5 -91.5t-94.5 -73.5t-112 -49t-126 -18q-94 0 -175.5 33.5t-142 103
t-95.5 176t-35 253.5zM209 1223v180h573v-180h-573zM297 637h408q-8 136 -55.5 206t-141.5 70q-38 0 -73.5 -14.5t-63.5 -47.5t-47.5 -85.5t-26.5 -128.5z" />
    <glyph glyph-name="Ebreve" unicode="&#x114;" 
d="M141 0v1516h822v-224h-580v-389h420v-217h-420v-469h610v-217h-852zM264 1948h137q6 -54 19.5 -91t33.5 -60t46 -33.5t57 -10.5t56.5 10.5t45.5 33.5t33 60t19 91h137q-4 -79 -23 -143.5t-55 -110.5t-89 -71t-124 -25t-124.5 25t-89.5 71t-55.5 110.5t-23.5 143.5z" />
    <glyph glyph-name="ebreve" unicode="&#x115;" horiz-adv-x="987" 
d="M66 543q0 151 38.5 258t101 175.5t142 100t162.5 31.5q91 0 167 -34t130.5 -104t84.5 -178t30 -255v-64h-627q8 -155 67.5 -230t161.5 -75q43 0 78 10t64 29t55 46t51 62l148 -106q-31 -49 -73.5 -91.5t-94.5 -73.5t-112 -49t-126 -18q-94 0 -175.5 33.5t-142 103
t-95.5 176t-35 253.5zM297 637h408q-8 136 -55.5 206t-141.5 70q-38 0 -73.5 -14.5t-63.5 -47.5t-47.5 -85.5t-26.5 -128.5zM213 1536h137q6 -54 19.5 -91t33.5 -60t46 -33.5t57 -10.5t56.5 10.5t45.5 33.5t33 60t19 91h137q-4 -79 -23 -143.5t-55 -110.5t-89 -71t-124 -25
t-124.5 25t-89.5 71t-55.5 110.5t-23.5 143.5z" />
    <glyph glyph-name="Edotaccent" unicode="&#x116;" 
d="M141 0v1516h822v-224h-580v-389h420v-217h-420v-469h610v-217h-852zM434 1612v221h250v-221h-250z" />
    <glyph glyph-name="edotaccent" unicode="&#x117;" horiz-adv-x="987" 
d="M66 543q0 151 38.5 258t101 175.5t142 100t162.5 31.5q91 0 167 -34t130.5 -104t84.5 -178t30 -255v-64h-627q8 -155 67.5 -230t161.5 -75q43 0 78 10t64 29t55 46t51 62l148 -106q-31 -49 -73.5 -91.5t-94.5 -73.5t-112 -49t-126 -18q-94 0 -175.5 33.5t-142 103
t-95.5 176t-35 253.5zM297 637h408q-8 136 -55.5 206t-141.5 70q-38 0 -73.5 -14.5t-63.5 -47.5t-47.5 -85.5t-26.5 -128.5zM369 1196v221h249v-221h-249z" />
    <glyph glyph-name="Eogonek" unicode="&#x118;" 
d="M141 0v1516h822v-224h-580v-389h420v-217h-420v-469h610v-217h-73q-33 0 -72 -11t-72.5 -34.5t-55.5 -59t-22 -83.5q0 -39 19 -63.5t67 -24.5q41 0 80 14.5t74 36.5l55 -76q-55 -40 -116 -65t-144 -25q-97 0 -145.5 44.5t-48.5 117.5q0 32 11.5 64t31 61.5t45.5 56
t55 47.5h-541z" />
    <glyph glyph-name="eogonek" unicode="&#x119;" horiz-adv-x="987" 
d="M66 543q0 151 38.5 258t101 175.5t142 100t162.5 31.5q91 0 167 -34t130.5 -104t84.5 -178t30 -255v-64h-627q8 -155 67.5 -230t161.5 -75q43 0 78 10t64 29t55 46t51 62l148 -106q-23 -39 -47 -66t-48.5 -48.5t-51 -41t-54.5 -41.5q-57 -42 -90 -91t-33 -109
q0 -39 18 -63.5t68 -24.5q38 0 77 14.5t75 36.5l55 -76q-54 -40 -115.5 -65t-144.5 -25q-96 0 -144.5 44.5t-48.5 117.5q0 57 35 112t86 99q-11 -4 -21.5 -4.5t-21.5 -0.5q-94 0 -175.5 33.5t-142 103t-95.5 176t-35 253.5zM297 637h408q-8 136 -55.5 206t-141.5 70
q-38 0 -73.5 -14.5t-63.5 -47.5t-47.5 -85.5t-26.5 -128.5z" />
    <glyph glyph-name="Ecaron" unicode="&#x11a;" 
d="M141 0v1516h822v-224h-580v-389h420v-217h-420v-469h610v-217h-852zM252 1937h141l166 -163l166 163h137l-225 -331h-160z" />
    <glyph glyph-name="ecaron" unicode="&#x11b;" horiz-adv-x="987" 
d="M66 543q0 151 38.5 258t101 175.5t142 100t162.5 31.5q91 0 167 -34t130.5 -104t84.5 -178t30 -255v-64h-627q8 -155 67.5 -230t161.5 -75q43 0 78 10t64 29t55 46t51 62l148 -106q-31 -49 -73.5 -91.5t-94.5 -73.5t-112 -49t-126 -18q-94 0 -175.5 33.5t-142 103
t-95.5 176t-35 253.5zM188 1532h142l166 -164l166 164h137l-226 -332h-159zM297 637h408q-8 136 -55.5 206t-141.5 70q-38 0 -73.5 -14.5t-63.5 -47.5t-47.5 -85.5t-26.5 -128.5z" />
    <glyph glyph-name="Gcircumflex" unicode="&#x11c;" horiz-adv-x="1276" 
d="M320 1606l225 332h160l225 -332h-139l-166 162l-166 -162h-139zM80 762q0 186 38 331t110.5 245.5t177.5 153t239 52.5q105 0 186 -31.5t141 -94.5t100 -156.5t63 -217.5l-220 -45q-18 88 -42 149t-57.5 99.5t-77 56t-99.5 17.5q-68 0 -126 -30t-100.5 -96t-66.5 -171.5
t-24 -257.5q0 -157 23 -266.5t65.5 -178.5t103 -100t135.5 -31q127 0 201.5 87t85.5 272h-254v201h471v-750h-182v201h-4q-15 -41 -45 -81.5t-74 -73t-101.5 -53t-128.5 -20.5q-130 0 -230 53t-168.5 154.5t-104 248t-35.5 333.5z" />
    <glyph glyph-name="gcircumflex" unicode="&#x11d;" horiz-adv-x="1042" 
d="M191 1196l225 332h160l225 -332h-139l-166 162l-166 -162h-139zM16 -160q0 81 46.5 138t123.5 94q-42 24 -65 57t-23 80q0 27 10 53.5t27 51t41 46t51 39.5q-72 53 -110.5 134.5t-38.5 181.5q0 88 29 160.5t81.5 124t127 80t165.5 28.5q94 0 168 -28t125 -81
q22 21 50.5 39t59 32t60.5 23t57 13v-203q-29 0 -69 -4t-86 -18q17 -35 26 -76.5t9 -89.5q0 -90 -28 -162t-80 -122.5t-125.5 -77.5t-164.5 -27q-40 0 -75.5 4.5t-67.5 15.5q-43 -27 -43 -67q0 -15 4.5 -25t17 -17.5t34 -12.5t55.5 -9l153 -16q112 -10 190 -31.5t127 -56.5
t71 -84.5t22 -116.5q0 -76 -38 -135.5t-106 -100.5t-161.5 -62.5t-204.5 -21.5q-123 0 -208 17.5t-137.5 49.5t-76 78.5t-23.5 104.5zM229 -121q0 -38 14 -64t45.5 -42t82 -23.5t123.5 -7.5q58 0 107 8t84 24.5t55 41.5t20 59q0 29 -9.5 51.5t-35.5 38.5t-72 27t-119 18
l-170 17q-6 2 -13 2t-15 2q-50 -29 -73.5 -68.5t-23.5 -83.5zM299 711q0 -107 48.5 -165.5t137.5 -58.5q88 0 134.5 58.5t46.5 165.5q0 108 -46 165.5t-137 57.5q-89 0 -136.5 -59t-47.5 -164z" />
    <glyph glyph-name="Gbreve" unicode="&#x11e;" horiz-adv-x="1276" 
d="M80 762q0 186 38 331t110.5 245.5t177.5 153t239 52.5q105 0 186 -31.5t141 -94.5t100 -156.5t63 -217.5l-220 -45q-18 88 -42 149t-57.5 99.5t-77 56t-99.5 17.5q-68 0 -126 -30t-100.5 -96t-66.5 -171.5t-24 -257.5q0 -157 23 -266.5t65.5 -178.5t103 -100t135.5 -31
q127 0 201.5 87t85.5 272h-254v201h471v-750h-182v201h-4q-15 -41 -45 -81.5t-74 -73t-101.5 -53t-128.5 -20.5q-130 0 -230 53t-168.5 154.5t-104 248t-35.5 333.5zM342 1950h137q6 -54 19.5 -91t33.5 -60t46 -33.5t57 -10.5t56.5 10.5t45.5 33.5t33 60t19 91h137
q-4 -79 -23 -143.5t-55 -110.5t-89 -71t-124 -25t-124.5 25t-89.5 71t-55.5 110.5t-23.5 143.5z" />
    <glyph glyph-name="gbreve" unicode="&#x11f;" horiz-adv-x="1042" 
d="M16 -160q0 81 46.5 138t123.5 94q-42 24 -65 57t-23 80q0 27 10 53.5t27 51t41 46t51 39.5q-72 53 -110.5 134.5t-38.5 181.5q0 88 29 160.5t81.5 124t127 80t165.5 28.5q94 0 168 -28t125 -81q22 21 50.5 39t59 32t60.5 23t57 13v-203q-29 0 -69 -4t-86 -18
q17 -35 26 -76.5t9 -89.5q0 -90 -28 -162t-80 -122.5t-125.5 -77.5t-164.5 -27q-40 0 -75.5 4.5t-67.5 15.5q-43 -27 -43 -67q0 -15 4.5 -25t17 -17.5t34 -12.5t55.5 -9l153 -16q112 -10 190 -31.5t127 -56.5t71 -84.5t22 -116.5q0 -76 -38 -135.5t-106 -100.5t-161.5 -62.5
t-204.5 -21.5q-123 0 -208 17.5t-137.5 49.5t-76 78.5t-23.5 104.5zM229 -121q0 -38 14 -64t45.5 -42t82 -23.5t123.5 -7.5q58 0 107 8t84 24.5t55 41.5t20 59q0 29 -9.5 51.5t-35.5 38.5t-72 27t-119 18l-170 17q-6 2 -13 2t-15 2q-50 -29 -73.5 -68.5t-23.5 -83.5z
M299 711q0 -107 48.5 -165.5t137.5 -58.5q88 0 134.5 58.5t46.5 165.5q0 108 -46 165.5t-137 57.5q-89 0 -136.5 -59t-47.5 -164zM213 1536h137q6 -54 19.5 -91t33.5 -60t46 -33.5t57 -10.5t56.5 10.5t45.5 33.5t33 60t19 91h137q-4 -79 -23 -143.5t-55 -110.5t-89 -71
t-124 -25t-124.5 25t-89.5 71t-55.5 110.5t-23.5 143.5z" />
    <glyph glyph-name="Gdotaccent" unicode="&#x120;" horiz-adv-x="1276" 
d="M80 762q0 186 38 331t110.5 245.5t177.5 153t239 52.5q105 0 186 -31.5t141 -94.5t100 -156.5t63 -217.5l-220 -45q-18 88 -42 149t-57.5 99.5t-77 56t-99.5 17.5q-68 0 -126 -30t-100.5 -96t-66.5 -171.5t-24 -257.5q0 -157 23 -266.5t65.5 -178.5t103 -100t135.5 -31
q127 0 201.5 87t85.5 272h-254v201h471v-750h-182v201h-4q-15 -41 -45 -81.5t-74 -73t-101.5 -53t-128.5 -20.5q-130 0 -230 53t-168.5 154.5t-104 248t-35.5 333.5zM506 1610v221h250v-221h-250z" />
    <glyph glyph-name="gdotaccent" unicode="&#x121;" horiz-adv-x="1042" 
d="M16 -160q0 81 46.5 138t123.5 94q-42 24 -65 57t-23 80q0 27 10 53.5t27 51t41 46t51 39.5q-72 53 -110.5 134.5t-38.5 181.5q0 88 29 160.5t81.5 124t127 80t165.5 28.5q94 0 168 -28t125 -81q22 21 50.5 39t59 32t60.5 23t57 13v-203q-29 0 -69 -4t-86 -18
q17 -35 26 -76.5t9 -89.5q0 -90 -28 -162t-80 -122.5t-125.5 -77.5t-164.5 -27q-40 0 -75.5 4.5t-67.5 15.5q-43 -27 -43 -67q0 -15 4.5 -25t17 -17.5t34 -12.5t55.5 -9l153 -16q112 -10 190 -31.5t127 -56.5t71 -84.5t22 -116.5q0 -76 -38 -135.5t-106 -100.5t-161.5 -62.5
t-204.5 -21.5q-123 0 -208 17.5t-137.5 49.5t-76 78.5t-23.5 104.5zM229 -121q0 -38 14 -64t45.5 -42t82 -23.5t123.5 -7.5q58 0 107 8t84 24.5t55 41.5t20 59q0 29 -9.5 51.5t-35.5 38.5t-72 27t-119 18l-170 17q-6 2 -13 2t-15 2q-50 -29 -73.5 -68.5t-23.5 -83.5z
M299 711q0 -107 48.5 -165.5t137.5 -58.5q88 0 134.5 58.5t46.5 165.5q0 108 -46 165.5t-137 57.5q-89 0 -136.5 -59t-47.5 -164zM368 1196v221h250v-221h-250z" />
    <glyph glyph-name="Gcommaaccent" unicode="&#x122;" horiz-adv-x="1276" 
d="M80 762q0 186 38 331t110.5 245.5t177.5 153t239 52.5q105 0 186 -31.5t141 -94.5t100 -156.5t63 -217.5l-220 -45q-18 88 -42 149t-57.5 99.5t-77 56t-99.5 17.5q-68 0 -126 -30t-100.5 -96t-66.5 -171.5t-24 -257.5q0 -157 23 -266.5t65.5 -178.5t103 -100t135.5 -31
q127 0 201.5 87t85.5 272h-254v201h471v-750h-182v201h-4q-15 -41 -45 -81.5t-74 -73t-101.5 -53t-128.5 -20.5q-130 0 -230 53t-168.5 154.5t-104 248t-35.5 333.5zM541 -106h243v-228l-108 -235h-109l70 209h-96v254z" />
    <glyph glyph-name="gcommaaccent" unicode="&#x123;" horiz-adv-x="1042" 
d="M16 -160q0 81 46.5 138t123.5 94q-42 24 -65 57t-23 80q0 27 10 53.5t27 51t41 46t51 39.5q-72 53 -110.5 134.5t-38.5 181.5q0 88 29 160.5t81.5 124t127 80t165.5 28.5q94 0 168 -28t125 -81q22 21 50.5 39t59 32t60.5 23t57 13v-203q-29 0 -69 -4t-86 -18
q17 -35 26 -76.5t9 -89.5q0 -90 -28 -162t-80 -122.5t-125.5 -77.5t-164.5 -27q-40 0 -75.5 4.5t-67.5 15.5q-43 -27 -43 -67q0 -15 4.5 -25t17 -17.5t34 -12.5t55.5 -9l153 -16q112 -10 190 -31.5t127 -56.5t71 -84.5t22 -116.5q0 -76 -38 -135.5t-106 -100.5t-161.5 -62.5
t-204.5 -21.5q-123 0 -208 17.5t-137.5 49.5t-76 78.5t-23.5 104.5zM229 -121q0 -38 14 -64t45.5 -42t82 -23.5t123.5 -7.5q58 0 107 8t84 24.5t55 41.5t20 59q0 29 -9.5 51.5t-35.5 38.5t-72 27t-119 18l-170 17q-6 2 -13 2t-15 2q-50 -29 -73.5 -68.5t-23.5 -83.5z
M299 711q0 -107 48.5 -165.5t137.5 -58.5q88 0 134.5 58.5t46.5 165.5q0 108 -46 165.5t-137 57.5q-89 0 -136.5 -59t-47.5 -164zM377 1202v211l102 221h99l-66 -196h90v-236h-225z" />
    <glyph glyph-name="Hcircumflex" unicode="&#x124;" horiz-adv-x="1298" 
d="M342 1606l225 332h160l225 -332h-139l-166 162l-166 -162h-139zM141 0v1516h242v-609h532v609h242v-1516h-242v684h-532v-684h-242z" />
    <glyph glyph-name="hcircumflex" unicode="&#x125;" 
d="M-67 1606l225 332h160l225 -332h-139l-166 162l-166 -162h-139zM117 0v1516h233v-572q24 29 58.5 58.5t77.5 53t93 38t105 14.5q125 0 195.5 -76.5t70.5 -228.5v-803h-233v750q0 80 -28.5 118.5t-96.5 38.5q-34 0 -69 -13t-67.5 -32t-60 -41.5t-45.5 -40.5v-780h-233z
" />
    <glyph glyph-name="Hbar" unicode="&#x126;" horiz-adv-x="1298" 
d="M14 1110v201h127v205h242v-205h532v205h242v-205h127v-201h-127v-1110h-242v696h-532v-696h-242v1110h-127zM383 897h532v213h-532v-213z" />
    <glyph glyph-name="hbar" unicode="&#x127;" 
d="M12 1192v178h105v146h233v-146h197v-178h-197v-248q24 29 58.5 58.5t77.5 53t93 38t105 14.5q125 0 195.5 -76.5t70.5 -228.5v-803h-233v750q0 80 -28.5 118.5t-96.5 38.5q-34 0 -69 -13t-67.5 -32t-60 -41.5t-45.5 -40.5v-780h-233v1192h-105z" />
    <glyph glyph-name="Itilde" unicode="&#x128;" horiz-adv-x="547" 
d="M152 0v1516h241v-1516h-241zM-53 1594q0 150 52 217t143 67q45 0 81.5 -18t68 -39t59.5 -39t57 -18q35 0 53.5 24t18.5 86h127q0 -149 -51 -216.5t-140 -67.5q-46 0 -83 18t-68.5 39t-59 39t-55.5 18q-35 0 -53.5 -24t-18.5 -86h-131z" />
    <glyph glyph-name="itilde" unicode="&#x129;" horiz-adv-x="489" 
d="M127 0v1085h233v-1085h-233zM-83 1184q0 150 52 217t143 67q45 0 81.5 -18t68 -39t59.5 -39t57 -18q35 0 53.5 24t18.5 86h127q0 -149 -51 -216.5t-140 -67.5q-46 0 -83 18t-68.5 39t-59 39t-55.5 18q-35 0 -53.5 -24t-18.5 -86h-131z" />
    <glyph glyph-name="Imacron" unicode="&#x12a;" horiz-adv-x="547" 
d="M-14 1636v181h573v-181h-573zM152 0v1516h241v-1516h-241z" />
    <glyph glyph-name="imacron" unicode="&#x12b;" horiz-adv-x="489" 
d="M-43 1223v180h573v-180h-573zM127 0v1085h233v-1085h-233z" />
    <glyph glyph-name="Ibreve" unicode="&#x12c;" horiz-adv-x="547" 
d="M152 0v1516h241v-1516h-241zM-18 1950h137q6 -54 19.5 -91t33.5 -60t46 -33.5t57 -10.5t56.5 10.5t45.5 33.5t33 60t19 91h137q-4 -79 -23 -143.5t-55 -110.5t-89 -71t-124 -25t-124.5 25t-89.5 71t-55.5 110.5t-23.5 143.5z" />
    <glyph glyph-name="ibreve" unicode="&#x12d;" horiz-adv-x="489" 
d="M127 0v1085h233v-1085h-233zM-46 1536h137q6 -54 19.5 -91t33.5 -60t46 -33.5t57 -10.5t56.5 10.5t45.5 33.5t33 60t19 91h137q-4 -79 -23 -143.5t-55 -110.5t-89 -71t-124 -25t-124.5 25t-89.5 71t-55.5 110.5t-23.5 143.5z" />
    <glyph glyph-name="Iogonek" unicode="&#x12e;" horiz-adv-x="547" 
d="M45 -229q0 32 11 63.5t30.5 61t45.5 56t56 48.5h-36v1516h241v-1516q-5 -2 -19.5 -4t-19.5 -4q-29 -9 -56 -26.5t-47.5 -40.5t-33 -52t-12.5 -61q0 -39 18 -63.5t68 -24.5q38 0 77 14.5t74 36.5l56 -76q-54 -40 -115.5 -65t-144.5 -25q-96 0 -144.5 44.5t-48.5 117.5z
" />
    <glyph glyph-name="iogonek" unicode="&#x12f;" horiz-adv-x="489" 
d="M14 -229q0 30 11 61t30.5 61t46 57.5t58.5 49.5h-33v1085h233v-1085h-6q-5 0 -10 -2q-35 -8 -64 -24.5t-51 -39.5q-27 -26 -41 -58.5t-14 -63.5q0 -39 18.5 -63.5t67.5 -24.5q38 0 77.5 14.5t74.5 36.5l55 -76q-54 -40 -115.5 -65t-144.5 -25q-96 0 -144.5 44.5
t-48.5 117.5zM127 1264v219h235v-219h-235z" />
    <glyph glyph-name="Idotaccent" unicode="&#x130;" horiz-adv-x="547" 
d="M152 0v1516h241v-1516h-241zM148 1606v221h250v-221h-250z" />
    <glyph glyph-name="dotlessi" unicode="&#x131;" horiz-adv-x="489" 
d="M127 0v1085h233v-1085h-233z" />
    <glyph glyph-name="IJ" unicode="&#x132;" horiz-adv-x="1454" 
d="M152 0v1516h241v-1516h-241zM574 94l102 176q56 -38 121.5 -62t124.5 -24q75 0 120.5 45t45.5 146v1141h241v-1156q0 -183 -98 -283t-285 -100q-102 0 -198.5 30.5t-173.5 86.5z" />
    <glyph glyph-name="ij" unicode="&#x133;" horiz-adv-x="977" 
d="M127 0v1085h233v-1085h-233zM127 1264v219h235v-219h-235zM452 -227q9 -3 30.5 -4.5t35.5 -1.5q49 0 72.5 29t23.5 91v1198h233v-1220q0 -64 -12 -115t-43 -87t-84 -55.5t-135 -19.5q-12 0 -30.5 0.5t-37 2t-34 3t-19.5 3.5v176zM614 1264v219h235v-219h-235z" />
    <glyph glyph-name="Jcircumflex" unicode="&#x134;" horiz-adv-x="909" 
d="M361 1606l225 332h160l225 -332h-139l-166 162l-166 -162h-139zM29 94l102 176q56 -38 121.5 -62t124.5 -24q75 0 120.5 45t45.5 146v1141h241v-1156q0 -183 -98 -283t-285 -100q-102 0 -198.5 30.5t-173.5 86.5z" />
    <glyph glyph-name="jcircumflex" unicode="&#x135;" horiz-adv-x="489" 
d="M-61 1196l227 332h158l225 -332h-139l-166 164l-166 -164h-139zM-35 -233q9 -2 30.5 -4.5t35.5 -2.5q98 0 98 121v1204h231v-1220q0 -65 -12 -116t-43 -87t-84 -55t-135 -19q-12 0 -30.5 0.5t-37 1.5t-34 2t-19.5 2v173z" />
    <glyph glyph-name="Kcommaaccent" unicode="&#x136;" horiz-adv-x="1202" 
d="M141 0v1516h240v-728q9 17 25.5 44t36 58t41 63t40.5 61l338 502h258l-413 -592l471 -924h-260l-365 719l-172 -236v-483h-240zM524 -106h244v-228l-109 -235h-108l70 209h-97v254z" />
    <glyph glyph-name="kcommaaccent" unicode="&#x137;" horiz-adv-x="981" 
d="M117 0v1516h231v-928q8 16 21.5 38.5t30.5 48t36 52.5t37 53l209 305h238l-289 -399l319 -686h-237l-228 496l-137 -185v-311h-231zM420 -106h244v-228l-109 -235h-109l70 209h-96v254z" />
    <glyph glyph-name="kgreenlandic" unicode="&#x138;" horiz-adv-x="981" 
d="M117 0v1085h231v-497q8 16 21.5 38.5t30.5 48t36 52.5t37 53l209 305h238l-289 -399l319 -686h-237l-228 496l-137 -185v-311h-231z" />
    <glyph glyph-name="Lacute" unicode="&#x139;" horiz-adv-x="1020" 
d="M141 0v1516h242v-1299h584v-217h-826zM174 1608l166 329h244l-250 -329h-160z" />
    <glyph glyph-name="lacute" unicode="&#x13a;" horiz-adv-x="489" 
d="M127 0v1516h233v-1516h-233zM147 1608l166 329h244l-250 -329h-160z" />
    <glyph glyph-name="Lcommaaccent" unicode="&#x13b;" horiz-adv-x="1020" 
d="M141 0v1516h242v-1299h584v-217h-826zM440 -106h244v-228l-109 -235h-108l70 209h-97v254z" />
    <glyph glyph-name="lcommaaccent" unicode="&#x13c;" horiz-adv-x="489" 
d="M127 0v1516h233v-1516h-233zM135 -109h244v-227l-109 -235h-108l69 209h-96v253z" />
    <glyph glyph-name="Lcaron" unicode="&#x13d;" horiz-adv-x="1020" 
d="M141 0v1516h242v-1299h584v-217h-826zM680 1253v263h246v-244l-117 -248h-111l72 229h-90z" />
    <glyph glyph-name="lcaron" unicode="&#x13e;" horiz-adv-x="694" 
d="M127 0v1516h233v-1516h-233zM489 1253v263h246v-244l-117 -248h-110l72 229h-91z" />
    <glyph glyph-name="Ldot" unicode="&#x13f;" horiz-adv-x="1114" 
d="M141 0v1516h242v-1299h584v-217h-826zM680 701v264h277v-264h-277z" />
    <glyph glyph-name="ldot" unicode="&#x140;" horiz-adv-x="813" 
d="M127 0v1516h233v-1516h-233zM519.252 547.406v250.803h263.153v-250.803h-263.153z" />
    <glyph glyph-name="Lslash" unicode="&#x141;" horiz-adv-x="1020" 
d="M23 586v190l118 49v691h242v-609l223 99v-195l-223 -94v-500h584v-217h-826v633z" />
    <glyph glyph-name="lslash" unicode="&#x142;" horiz-adv-x="573" 
d="M43 543v184l127 55v734h233v-658l125 55v-184l-125 -55v-674h-233v596z" />
    <glyph glyph-name="Nacute" unicode="&#x143;" horiz-adv-x="1309" 
d="M141 0v1516h260l412 -805q19 -37 34.5 -67.5t30 -60.5t30 -62.5t34.5 -74.5h4v1070h219v-1516h-223l-450 856q-19 36 -34 65t-29 57.5t-29.5 60t-34.5 73.5h-5v-1112h-219zM557 1604l166 329h244l-250 -329h-160z" />
    <glyph glyph-name="nacute" unicode="&#x144;" 
d="M117 0v1085h233v-141q24 29 58.5 58.5t77.5 53t93 38t105 14.5q125 0 195.5 -76.5t70.5 -228.5v-803h-233v750q0 80 -28.5 118.5t-96.5 38.5q-34 0 -69 -13t-67.5 -32t-60 -41.5t-45.5 -40.5v-780h-233zM383 1198l166 330h244l-250 -330h-160z" />
    <glyph glyph-name="Ncommaaccent" unicode="&#x145;" horiz-adv-x="1309" 
d="M141 0v1516h260l412 -805q19 -37 34.5 -67.5t30 -60.5t30 -62.5t34.5 -74.5h4v1070h219v-1516h-223l-450 856q-19 36 -34 65t-29 57.5t-29.5 60t-34.5 73.5h-5v-1112h-219zM528 -117h244v-227l-108 -236h-109l70 209h-97v254z" />
    <glyph glyph-name="ncommaaccent" unicode="&#x146;" 
d="M117 0v1085h233v-141q24 29 58.5 58.5t77.5 53t93 38t105 14.5q125 0 195.5 -76.5t70.5 -228.5v-803h-233v750q0 80 -28.5 118.5t-96.5 38.5q-34 0 -69 -13t-67.5 -32t-60 -41.5t-45.5 -40.5v-780h-233zM422 -109h244v-227l-109 -235h-108l69 209h-96v253z" />
    <glyph glyph-name="Ncaron" unicode="&#x147;" horiz-adv-x="1309" 
d="M141 0v1516h260l412 -805q19 -37 34.5 -67.5t30 -60.5t30 -62.5t34.5 -74.5h4v1070h219v-1516h-223l-450 856q-19 36 -34 65t-29 57.5t-29.5 60t-34.5 73.5h-5v-1112h-219zM371 1937h141l166 -163l166 163h137l-225 -331h-160z" />
    <glyph glyph-name="ncaron" unicode="&#x148;" 
d="M117 0v1085h233v-141q24 29 58.5 58.5t77.5 53t93 38t105 14.5q125 0 195.5 -76.5t70.5 -228.5v-803h-233v750q0 80 -28.5 118.5t-96.5 38.5q-34 0 -69 -13t-67.5 -32t-60 -41.5t-45.5 -40.5v-780h-233zM238 1532h141l166 -164l166 164h137l-225 -332h-160z" />
    <glyph glyph-name="napostrophe" unicode="&#x149;" horiz-adv-x="1468" 
d="M125 1253v263h246v-244l-117 -248h-111l72 229h-90zM527 0v1085h233v-141q24 29 58.5 58.5t77.5 53t93 38t105 14.5q125 0 195.5 -76.5t70.5 -228.5v-803h-233v750q0 80 -28.5 118.5t-96.5 38.5q-34 0 -69 -13t-67.5 -32t-60 -41.5t-45.5 -40.5v-780h-233z" />
    <glyph glyph-name="Eng" unicode="&#x14a;" horiz-adv-x="1309" 
d="M141 0v1516h260l414 -807q9 -17 27 -51.5t37 -74t36.5 -77.5t26.5 -60h4v1070h219v-1547q0 -90 -25 -161t-73.5 -120t-120 -74.5t-164.5 -25.5q-102 0 -198.5 30.5t-173.5 86.5l102 174q56 -37 121.5 -60.5t124.5 -23.5q36 0 68 10t56 31t39 53.5t17 77.5v37l-446 852
q-19 35 -34 64t-29 57.5t-29.5 60.5t-34.5 74h-5v-1112h-219z" />
    <glyph glyph-name="eng" unicode="&#x14b;" 
d="M117 0v1085h233v-141q24 29 58.5 58.5t77.5 53t93 38t105 14.5q125 0 195.5 -76.5t70.5 -228.5v-938q0 -64 -12 -115t-43 -87t-84 -55.5t-135 -19.5q-12 0 -30.5 0.5t-37 2t-34 3t-19.5 3.5v176q9 -3 30.5 -4.5t35.5 -1.5q49 0 72.5 29t23.5 91v863q0 80 -28.5 118.5
t-96.5 38.5q-34 0 -69 -13t-67.5 -32t-60 -41.5t-45.5 -40.5v-780h-233z" />
    <glyph glyph-name="Omacron" unicode="&#x14c;" horiz-adv-x="1309" 
d="M80 758q0 197 44.5 344.5t122 245.5t182.5 147t226 49t225.5 -49t182 -147t122 -245.5t44.5 -344.5q0 -198 -44.5 -345.5t-122 -245.5t-182 -147t-225.5 -49t-226 49t-182.5 147t-122 245.5t-44.5 345.5zM322 758q0 -278 87 -423t246 -145q158 0 244 145t86 423
q0 276 -86.5 419.5t-243.5 143.5q-158 0 -245.5 -143.5t-87.5 -419.5zM369 1636v181h573v-181h-573z" />
    <glyph glyph-name="omacron" unicode="&#x14d;" horiz-adv-x="1040" 
d="M66 543q0 147 36.5 253.5t98.5 175.5t144.5 102.5t174.5 33.5q91 0 173.5 -33.5t144.5 -102.5t98.5 -175.5t36.5 -253.5q0 -145 -36.5 -251.5t-98.5 -176.5t-144.5 -104t-173.5 -34q-92 0 -174 34t-144.5 104t-99 176.5t-36.5 251.5zM233 1223v180h574v-180h-574z
M299 543q0 -83 12 -152t38.5 -118.5t68.5 -77t102 -27.5q113 0 166 97t53 278q0 82 -12.5 150t-38.5 116.5t-68 75t-100 26.5q-112 0 -166.5 -95.5t-54.5 -272.5z" />
    <glyph glyph-name="Obreve" unicode="&#x14e;" horiz-adv-x="1309" 
d="M80 758q0 197 44.5 344.5t122 245.5t182.5 147t226 49t225.5 -49t182 -147t122 -245.5t44.5 -344.5q0 -198 -44.5 -345.5t-122 -245.5t-182 -147t-225.5 -49t-226 49t-182.5 147t-122 245.5t-44.5 345.5zM322 758q0 -278 87 -423t246 -145q158 0 244 145t86 423
q0 276 -86.5 419.5t-243.5 143.5q-158 0 -245.5 -143.5t-87.5 -419.5zM364 1950h137q6 -54 19.5 -91t33.5 -60t46 -33.5t57 -10.5t56.5 10.5t45.5 33.5t33 60t19 91h137q-4 -79 -23 -143.5t-55 -110.5t-89 -71t-124 -25t-124.5 25t-89.5 71t-55.5 110.5t-23.5 143.5z" />
    <glyph glyph-name="obreve" unicode="&#x14f;" horiz-adv-x="1040" 
d="M66 543q0 147 36.5 253.5t98.5 175.5t144.5 102.5t174.5 33.5q91 0 173.5 -33.5t144.5 -102.5t98.5 -175.5t36.5 -253.5q0 -145 -36.5 -251.5t-98.5 -176.5t-144.5 -104t-173.5 -34q-92 0 -174 34t-144.5 104t-99 176.5t-36.5 251.5zM299 543q0 -83 12 -152t38.5 -118.5
t68.5 -77t102 -27.5q113 0 166 97t53 278q0 82 -12.5 150t-38.5 116.5t-68 75t-100 26.5q-112 0 -166.5 -95.5t-54.5 -272.5zM225 1536h137q6 -54 19.5 -91t33.5 -60t46 -33.5t57 -10.5t56.5 10.5t45.5 33.5t33 60t19 91h137q-4 -79 -23 -143.5t-55 -110.5t-89 -71t-124 -25
t-124.5 25t-89.5 71t-55.5 110.5t-23.5 143.5z" />
    <glyph glyph-name="Ohungarumlaut" unicode="&#x150;" horiz-adv-x="1309" 
d="M80 758q0 197 44.5 344.5t122 245.5t182.5 147t226 49t225.5 -49t182 -147t122 -245.5t44.5 -344.5q0 -198 -44.5 -345.5t-122 -245.5t-182 -147t-225.5 -49t-226 49t-182.5 147t-122 245.5t-44.5 345.5zM322 758q0 -278 87 -423t246 -145q158 0 244 145t86 423
q0 276 -86.5 419.5t-243.5 143.5q-158 0 -245.5 -143.5t-87.5 -419.5zM358 1608l170 329h250l-258 -329h-162zM688 1608l178 329h248l-266 -329h-160z" />
    <glyph glyph-name="ohungarumlaut" unicode="&#x151;" horiz-adv-x="1040" 
d="M66 543q0 147 36.5 253.5t98.5 175.5t144.5 102.5t174.5 33.5q91 0 173.5 -33.5t144.5 -102.5t98.5 -175.5t36.5 -253.5q0 -145 -36.5 -251.5t-98.5 -176.5t-144.5 -104t-173.5 -34q-92 0 -174 34t-144.5 104t-99 176.5t-36.5 251.5zM195 1198l170 330h249l-258 -330
h-161zM299 543q0 -83 12 -152t38.5 -118.5t68.5 -77t102 -27.5q113 0 166 97t53 278q0 82 -12.5 150t-38.5 116.5t-68 75t-100 26.5q-112 0 -166.5 -95.5t-54.5 -272.5zM524 1198l178 330h248l-266 -330h-160z" />
    <glyph glyph-name="OE" unicode="&#x152;" horiz-adv-x="1903" 
d="M80 758q0 197 44.5 344.5t122 245.5t182.5 147t226 49q107 0 198.5 -40.5t154.5 -125.5v138h796v-224h-579v-391h422v-213h-422v-471h612v-217h-829v147q-32 -48 -71 -81.5t-84 -54.5t-95 -30.5t-103 -9.5q-121 0 -226 49t-182.5 147t-122 245.5t-44.5 345.5zM322 758
q0 -278 87 -423t246 -145q158 0 244 145t86 423q0 276 -86.5 419.5t-243.5 143.5q-158 0 -245.5 -143.5t-87.5 -419.5z" />
    <glyph glyph-name="oe" unicode="&#x153;" horiz-adv-x="1653" 
d="M66 543q0 147 36.5 253.5t98.5 175.5t144.5 102.5t174.5 33.5q102 0 187.5 -43t142.5 -131q62 90 147 132t179 42q91 0 167 -34t130.5 -104t85 -178t30.5 -255v-64h-626q8 -155 67.5 -230t161.5 -75q43 0 77.5 10t64 29t55 46t51.5 62l147 -106q-31 -49 -72 -91.5
t-92 -73.5t-112 -49t-131 -18q-104 0 -188.5 42.5t-143.5 127.5q-59 -85 -143.5 -127.5t-184.5 -42.5q-92 0 -174 34t-144.5 104t-99 176.5t-36.5 251.5zM299 543q0 -83 12 -152t38.5 -118.5t68.5 -77t102 -27.5q113 0 166 97t53 278q0 82 -12.5 150t-38.5 116.5t-68 75
t-100 26.5q-112 0 -166.5 -95.5t-54.5 -272.5zM965 637h407q-8 136 -55 206t-141 70q-39 0 -74 -14.5t-63.5 -47.5t-47.5 -85.5t-26 -128.5z" />
    <glyph glyph-name="Racute" unicode="&#x154;" horiz-adv-x="1192" 
d="M141 0v1516h451q114 0 204.5 -27t153.5 -83.5t96 -143t33 -205.5q0 -85 -19.5 -153t-54.5 -119.5t-83 -86.5t-105 -53l291 -645h-248l-270 592h-213v-592h-236zM377 797h205q66 0 116 13t83 43t50 79t17 121q0 68 -16.5 114.5t-49.5 74.5t-83 40t-117 12h-205v-497z
M461 1608l166 329h243l-249 -329h-160z" />
    <glyph glyph-name="racute" unicode="&#x155;" horiz-adv-x="731" 
d="M117 0v1085h233v-167h4q18 33 48 67t70.5 61t92 44.5t113.5 17.5h20l-6 -215q-5 0 -22 1t-31 1q-48 0 -91 -13t-79.5 -36t-66.5 -54.5t-52 -68.5v-723h-233zM291 1198l166 330h243l-249 -330h-160z" />
    <glyph glyph-name="Rcommaaccent" unicode="&#x156;" horiz-adv-x="1192" 
d="M141 0v1516h451q114 0 204.5 -27t153.5 -83.5t96 -143t33 -205.5q0 -85 -19.5 -153t-54.5 -119.5t-83 -86.5t-105 -53l291 -645h-248l-270 592h-213v-592h-236zM377 797h205q66 0 116 13t83 43t50 79t17 121q0 68 -16.5 114.5t-49.5 74.5t-83 40t-117 12h-205v-497z
M506 -106h244v-228l-109 -235h-109l70 209h-96v254z" />
    <glyph glyph-name="rcommaaccent" unicode="&#x157;" horiz-adv-x="731" 
d="M117 0v1085h233v-167h4q18 33 48 67t70.5 61t92 44.5t113.5 17.5h20l-6 -215q-5 0 -22 1t-31 1q-48 0 -91 -13t-79.5 -36t-66.5 -54.5t-52 -68.5v-723h-233zM123 -106h244v-228l-109 -235h-108l69 209h-96v254z" />
    <glyph glyph-name="Rcaron" unicode="&#x158;" horiz-adv-x="1192" 
d="M141 0v1516h451q114 0 204.5 -27t153.5 -83.5t96 -143t33 -205.5q0 -85 -19.5 -153t-54.5 -119.5t-83 -86.5t-105 -53l291 -645h-248l-270 592h-213v-592h-236zM279 1937h141l166 -163l166 163h137l-225 -331h-160zM377 797h205q66 0 116 13t83 43t50 79t17 121
q0 68 -16.5 114.5t-49.5 74.5t-83 40t-117 12h-205v-497z" />
    <glyph glyph-name="rcaron" unicode="&#x159;" horiz-adv-x="731" 
d="M100 1532h142l166 -164l165 164h138l-226 -332h-159zM117 0v1085h233v-167h4q18 33 48 67t70.5 61t92 44.5t113.5 17.5h20l-6 -215q-5 0 -22 1t-31 1q-48 0 -91 -13t-79.5 -36t-66.5 -54.5t-52 -68.5v-723h-233z" />
    <glyph glyph-name="Sacute" unicode="&#x15a;" horiz-adv-x="1161" 
d="M61 338l203 100q25 -54 58 -100.5t74.5 -80.5t91.5 -53.5t110 -19.5q116 0 180 51.5t64 145.5q0 57 -24 99t-64 75t-92.5 60t-110.5 53q-49 22 -100 46t-98 52.5t-88.5 64t-72.5 81t-49 103t-18 130.5q0 89 33.5 162.5t93.5 126t141.5 81.5t177.5 29q94 0 169 -25
t134.5 -69t104 -104.5t76.5 -131.5l-203 -104q-22 48 -49 88.5t-61 70t-77 46t-98 16.5q-94 0 -149.5 -47t-55.5 -129q0 -55 23 -96.5t61.5 -74.5t89 -60.5t105.5 -53.5q50 -22 101.5 -46.5t100 -53.5t91 -64.5t74.5 -81.5t50.5 -104t18.5 -131q0 -84 -32 -159.5t-93 -132.5
t-150.5 -90.5t-203.5 -33.5q-103 0 -185.5 27t-148.5 75t-116 115t-87 148zM416 1608l166 329h243l-250 -329h-159z" />
    <glyph glyph-name="sacute" unicode="&#x15b;" horiz-adv-x="922" 
d="M20 188l144 121q60 -74 139.5 -112.5t161.5 -38.5q83 0 130.5 30t47.5 93q0 44 -24 73.5t-63 50.5t-89 37.5t-102.5 35.5t-102.5 43.5t-89 61t-63 89t-24 127.5q0 73 29 130.5t79 97.5t118.5 60.5t146.5 20.5q57 0 112 -12.5t104 -36.5t91.5 -58t75.5 -77l-140 -127
q-22 26 -49.5 49t-58.5 40.5t-65.5 27.5t-71.5 10q-75 0 -112.5 -29.5t-37.5 -83.5q0 -44 24 -72.5t63 -49.5t88.5 -37.5t102 -35t102 -42.5t88.5 -61t63 -89.5t24 -128.5t-32 -135.5t-87 -100t-128 -61.5t-154 -21q-75 0 -139.5 15t-120 43t-100.5 66.5t-81 86.5zM289 1198
l166 330h243l-249 -330h-160z" />
    <glyph glyph-name="Scircumflex" unicode="&#x15c;" horiz-adv-x="1161" 
d="M262 1606l225 332h160l225 -332h-139l-166 162l-166 -162h-139zM61 338l203 100q25 -54 58 -100.5t74.5 -80.5t91.5 -53.5t110 -19.5q116 0 180 51.5t64 145.5q0 57 -24 99t-64 75t-92.5 60t-110.5 53q-49 22 -100 46t-98 52.5t-88.5 64t-72.5 81t-49 103t-18 130.5
q0 89 33.5 162.5t93.5 126t141.5 81.5t177.5 29q94 0 169 -25t134.5 -69t104 -104.5t76.5 -131.5l-203 -104q-22 48 -49 88.5t-61 70t-77 46t-98 16.5q-94 0 -149.5 -47t-55.5 -129q0 -55 23 -96.5t61.5 -74.5t89 -60.5t105.5 -53.5q50 -22 101.5 -46.5t100 -53.5t91 -64.5
t74.5 -81.5t50.5 -104t18.5 -131q0 -84 -32 -159.5t-93 -132.5t-150.5 -90.5t-203.5 -33.5q-103 0 -185.5 27t-148.5 75t-116 115t-87 148z" />
    <glyph glyph-name="scircumflex" unicode="&#x15d;" horiz-adv-x="922" 
d="M146 1196l225 332h160l225 -332h-139l-166 162l-166 -162h-139zM20 188l144 121q60 -74 139.5 -112.5t161.5 -38.5q83 0 130.5 30t47.5 93q0 44 -24 73.5t-63 50.5t-89 37.5t-102.5 35.5t-102.5 43.5t-89 61t-63 89t-24 127.5q0 73 29 130.5t79 97.5t118.5 60.5
t146.5 20.5q57 0 112 -12.5t104 -36.5t91.5 -58t75.5 -77l-140 -127q-22 26 -49.5 49t-58.5 40.5t-65.5 27.5t-71.5 10q-75 0 -112.5 -29.5t-37.5 -83.5q0 -44 24 -72.5t63 -49.5t88.5 -37.5t102 -35t102 -42.5t88.5 -61t63 -89.5t24 -128.5t-32 -135.5t-87 -100t-128 -61.5
t-154 -21q-75 0 -139.5 15t-120 43t-100.5 66.5t-81 86.5z" />
    <glyph glyph-name="Scedilla" unicode="&#x15e;" horiz-adv-x="1161" 
d="M61 338l203 100q25 -54 58 -100.5t74.5 -80.5t91.5 -53.5t110 -19.5q116 0 180 51.5t64 145.5q0 57 -24 99t-64 75t-92.5 60t-110.5 53q-49 22 -100 46t-98 52.5t-88.5 64t-72.5 81t-49 103t-18 130.5q0 89 33.5 162.5t93.5 126t141.5 81.5t177.5 29q94 0 169 -25
t134.5 -69t104 -104.5t76.5 -131.5l-203 -104q-22 48 -49 88.5t-61 70t-77 46t-98 16.5q-94 0 -149.5 -47t-55.5 -129q0 -55 23 -96.5t61.5 -74.5t89 -60.5t105.5 -53.5q50 -22 101.5 -46.5t100 -53.5t91 -64.5t74.5 -81.5t50.5 -104t18.5 -131q0 -84 -32 -159.5t-93 -132.5
t-150.5 -90.5t-203.5 -33.5q-103 0 -185.5 27t-148.5 75t-116 115t-87 148zM485 -106h244v-228l-108 -235h-109l70 209h-97v254z" />
    <glyph glyph-name="scedilla" unicode="&#x15f;" horiz-adv-x="922" 
d="M20 188l144 121q60 -74 139.5 -112.5t161.5 -38.5q83 0 130.5 30t47.5 93q0 44 -24 73.5t-63 50.5t-89 37.5t-102.5 35.5t-102.5 43.5t-89 61t-63 89t-24 127.5q0 73 29 130.5t79 97.5t118.5 60.5t146.5 20.5q57 0 112 -12.5t104 -36.5t91.5 -58t75.5 -77l-140 -127
q-22 26 -49.5 49t-58.5 40.5t-65.5 27.5t-71.5 10q-75 0 -112.5 -29.5t-37.5 -83.5q0 -44 24 -72.5t63 -49.5t88.5 -37.5t102 -35t102 -42.5t88.5 -61t63 -89.5t24 -128.5t-32 -135.5t-87 -100t-128 -61.5t-154 -21q-75 0 -139.5 15t-120 43t-100.5 66.5t-81 86.5zM350 -106
h244v-228l-109 -235h-108l69 209h-96v254z" />
    <glyph glyph-name="Scaron" unicode="&#x160;" horiz-adv-x="1161" 
d="M61 338l203 100q25 -54 58 -100.5t74.5 -80.5t91.5 -53.5t110 -19.5q116 0 180 51.5t64 145.5q0 57 -24 99t-64 75t-92.5 60t-110.5 53q-49 22 -100 46t-98 52.5t-88.5 64t-72.5 81t-49 103t-18 130.5q0 89 33.5 162.5t93.5 126t141.5 81.5t177.5 29q94 0 169 -25
t134.5 -69t104 -104.5t76.5 -131.5l-203 -104q-22 48 -49 88.5t-61 70t-77 46t-98 16.5q-94 0 -149.5 -47t-55.5 -129q0 -55 23 -96.5t61.5 -74.5t89 -60.5t105.5 -53.5q50 -22 101.5 -46.5t100 -53.5t91 -64.5t74.5 -81.5t50.5 -104t18.5 -131q0 -84 -32 -159.5t-93 -132.5
t-150.5 -90.5t-203.5 -33.5q-103 0 -185.5 27t-148.5 75t-116 115t-87 148zM276 1942h142l166 -164l166 164h137l-225 -332h-160z" />
    <glyph glyph-name="scaron" unicode="&#x161;" horiz-adv-x="922" 
d="M20 188l144 121q60 -74 139.5 -112.5t161.5 -38.5q83 0 130.5 30t47.5 93q0 44 -24 73.5t-63 50.5t-89 37.5t-102.5 35.5t-102.5 43.5t-89 61t-63 89t-24 127.5q0 73 29 130.5t79 97.5t118.5 60.5t146.5 20.5q57 0 112 -12.5t104 -36.5t91.5 -58t75.5 -77l-140 -127
q-22 26 -49.5 49t-58.5 40.5t-65.5 27.5t-71.5 10q-75 0 -112.5 -29.5t-37.5 -83.5q0 -44 24 -72.5t63 -49.5t88.5 -37.5t102 -35t102 -42.5t88.5 -61t63 -89.5t24 -128.5t-32 -135.5t-87 -100t-128 -61.5t-154 -21q-75 0 -139.5 15t-120 43t-100.5 66.5t-81 86.5zM154 1532
h141l166 -164l166 164h137l-225 -332h-160z" />
    <glyph glyph-name="uni021A" unicode="&#x162;" horiz-adv-x="1081" 
d="M430 -104h223v-211l-101 -222h-98l64 199h-88v234zM43 1292v224h993v-224h-374v-1292h-242v1292h-377z" />
    <glyph glyph-name="uni021A" unicode="&#x21a;" horiz-adv-x="1081" 
d="M430 -104h223v-211l-101 -222h-98l64 199h-88v234zM43 1292v224h993v-224h-374v-1292h-242v1292h-377z" />
    <glyph glyph-name="uni021B" unicode="&#x163;" horiz-adv-x="709" 
d="M203 -104h223v-211l-101 -222h-98l64 199h-88v234zM31 899v186h155v381h234v-381h235v-186h-235v-577q0 -42 6 -71t21.5 -47t41.5 -26t66 -8q25 0 51.5 3.5t40.5 8.5v-180q-8 -3 -25.5 -5.5t-40 -4.5t-47.5 -3t-47 -1q-87 0 -144.5 15.5t-92.5 48.5t-49.5 84t-14.5 122
v641h-155z" />
    <glyph glyph-name="uni021B" unicode="&#x21b;" horiz-adv-x="709" 
d="M203 -104h223v-211l-101 -222h-98l64 199h-88v234zM31 899v186h155v381h234v-381h235v-186h-235v-577q0 -42 6 -71t21.5 -47t41.5 -26t66 -8q25 0 51.5 3.5t40.5 8.5v-180q-8 -3 -25.5 -5.5t-40 -4.5t-47.5 -3t-47 -1q-87 0 -144.5 15.5t-92.5 48.5t-49.5 84t-14.5 122
v641h-155z" />
    <glyph glyph-name="Tcaron" unicode="&#x164;" horiz-adv-x="1081" 
d="M43 1292v224h993v-224h-374v-1292h-242v1292h-377zM236 1942h141l166 -164l166 164h137l-225 -332h-160z" />
    <glyph glyph-name="tcaron" unicode="&#x165;" horiz-adv-x="901" 
d="M31 899v186h155v381h234v-381h235v-186h-235v-577q0 -42 6 -71t21.5 -47t41.5 -26t66 -8q25 0 51.5 3.5t40.5 8.5v-180q-8 -3 -25.5 -5.5t-40 -4.5t-47.5 -3t-47 -1q-87 0 -144.5 15.5t-92.5 48.5t-49.5 84t-14.5 122v641h-155zM696 1253v263h246v-244l-117 -248h-110
l71 229h-90z" />
    <glyph glyph-name="Tbar" unicode="&#x166;" horiz-adv-x="1081" 
d="M45 621v204h375v486h-375v205h991v-205h-374v-486h374v-204h-374v-621h-242v621h-375z" />
    <glyph glyph-name="tbar" unicode="&#x167;" horiz-adv-x="709" 
d="M31 469v186h155v244h-155v186h155v381h234v-381h235v-186h-235v-244h235v-186h-235v-147q0 -42 6 -71t21.5 -47t41.5 -26t66 -8q25 0 51.5 3.5t40.5 8.5v-180q-8 -3 -25.5 -5.5t-40 -4.5t-47.5 -3t-47 -1q-87 0 -144.5 15.5t-92.5 48.5t-49.5 84t-14.5 122v211h-155z" />
    <glyph glyph-name="Utilde" unicode="&#x168;" horiz-adv-x="1243" 
d="M125 510v1006h242v-984q0 -87 14 -151.5t44.5 -107t80 -64t121.5 -21.5q70 0 119.5 21t80 63.5t44.5 106.5t14 149v988h231v-1002q0 -124 -28 -224t-88 -170.5t-153.5 -108.5t-223.5 -38q-132 0 -226.5 37t-155 107t-88.5 169t-28 224zM297 1594q0 150 52 217t143 67
q45 0 81.5 -18t68 -39t59.5 -39t57 -18q35 0 53.5 24t18.5 86h127q0 -149 -51 -216.5t-140 -67.5q-46 0 -83 18t-68.5 39t-59 39t-55.5 18q-35 0 -53.5 -24t-18.5 -86h-131z" />
    <glyph glyph-name="utilde" unicode="&#x169;" 
d="M109 283v802h233v-753q0 -81 29 -118.5t100 -37.5q32 0 63.5 10.5t61.5 28t58.5 40.5t54.5 48v782h233v-1085h-233v141q-27 -31 -62 -60.5t-77 -52.5t-91 -37t-104 -14q-125 0 -195.5 77t-70.5 229zM204 1184q0 150 52 217t143 67q45 0 81.5 -18t68 -39t59.5 -39t57 -18
q35 0 53.5 24t18.5 86h127q0 -149 -51 -216.5t-140 -67.5q-46 0 -83 18t-68.5 39t-59 39t-55.5 18q-35 0 -53.5 -24t-18.5 -86h-131z" />
    <glyph glyph-name="Umacron" unicode="&#x16a;" horiz-adv-x="1243" 
d="M125 510v1006h242v-984q0 -87 14 -151.5t44.5 -107t80 -64t121.5 -21.5q70 0 119.5 21t80 63.5t44.5 106.5t14 149v988h231v-1002q0 -124 -28 -224t-88 -170.5t-153.5 -108.5t-223.5 -38q-132 0 -226.5 37t-155 107t-88.5 169t-28 224zM340 1636v181h573v-181h-573z" />
    <glyph glyph-name="umacron" unicode="&#x16b;" 
d="M109 283v802h233v-753q0 -81 29 -118.5t100 -37.5q32 0 63.5 10.5t61.5 28t58.5 40.5t54.5 48v782h233v-1085h-233v141q-27 -31 -62 -60.5t-77 -52.5t-91 -37t-104 -14q-125 0 -195.5 77t-70.5 229zM242 1223v180h573v-180h-573z" />
    <glyph glyph-name="Ubreve" unicode="&#x16c;" horiz-adv-x="1243" 
d="M125 510v1006h242v-984q0 -87 14 -151.5t44.5 -107t80 -64t121.5 -21.5q70 0 119.5 21t80 63.5t44.5 106.5t14 149v988h231v-1002q0 -124 -28 -224t-88 -170.5t-153.5 -108.5t-223.5 -38q-132 0 -226.5 37t-155 107t-88.5 169t-28 224zM329 1950h137q6 -54 19.5 -91
t33.5 -60t46 -33.5t57 -10.5t56.5 10.5t45.5 33.5t33 60t19 91h137q-4 -79 -23 -143.5t-55 -110.5t-89 -71t-124 -25t-124.5 25t-89.5 71t-55.5 110.5t-23.5 143.5z" />
    <glyph glyph-name="ubreve" unicode="&#x16d;" 
d="M109 283v802h233v-753q0 -81 29 -118.5t100 -37.5q32 0 63.5 10.5t61.5 28t58.5 40.5t54.5 48v782h233v-1085h-233v141q-27 -31 -62 -60.5t-77 -52.5t-91 -37t-104 -14q-125 0 -195.5 77t-70.5 229zM235 1536h137q6 -54 19.5 -91t33.5 -60t46 -33.5t57 -10.5t56.5 10.5
t45.5 33.5t33 60t19 91h137q-4 -79 -23 -143.5t-55 -110.5t-89 -71t-124 -25t-124.5 25t-89.5 71t-55.5 110.5t-23.5 143.5z" />
    <glyph glyph-name="Uring" unicode="&#x16e;" horiz-adv-x="1243" 
d="M125 510v1006h242v-984q0 -87 14 -151.5t44.5 -107t80 -64t121.5 -21.5q70 0 119.5 21t80 63.5t44.5 106.5t14 149v988h231v-1002q0 -124 -28 -224t-88 -170.5t-153.5 -108.5t-223.5 -38q-132 0 -226.5 37t-155 107t-88.5 169t-28 224zM436 1794q0 45 13.5 84t38.5 67
t60.5 44t78.5 16t78 -16t60.5 -44t39.5 -67t14 -84t-14 -83.5t-39.5 -67t-60.5 -44.5t-78 -16t-78.5 16t-60.5 44.5t-38.5 67t-13.5 83.5zM547 1794q0 -22 5 -42t15.5 -35.5t25 -24.5t34.5 -9t35 9t25.5 24.5t16 35.5t5.5 42q0 43 -21 75t-61 32q-39 0 -59.5 -32t-20.5 -75z
" />
    <glyph glyph-name="uring" unicode="&#x16f;" 
d="M109 283v802h233v-753q0 -81 29 -118.5t100 -37.5q32 0 63.5 10.5t61.5 28t58.5 40.5t54.5 48v782h233v-1085h-233v141q-27 -31 -62 -60.5t-77 -52.5t-91 -37t-104 -14q-125 0 -195.5 77t-70.5 229zM334 1384q0 45 13.5 84t38.5 67t60 44t78 16t78.5 -16t61 -44t39.5 -67
t14 -84q0 -44 -14 -82.5t-39.5 -67t-61 -44.5t-78.5 -16t-78 16t-60 44.5t-38.5 67t-13.5 82.5zM444 1384q0 -22 5.5 -42t15.5 -35t25 -24t34 -9q20 0 35.5 9t26 24t15.5 35t5 42q0 44 -20.5 75.5t-61.5 31.5q-19 0 -34 -8.5t-25 -23t-15.5 -34t-5.5 -41.5z" />
    <glyph glyph-name="Uhungarumlaut" unicode="&#x170;" horiz-adv-x="1243" 
d="M125 510v1006h242v-984q0 -87 14 -151.5t44.5 -107t80 -64t121.5 -21.5q70 0 119.5 21t80 63.5t44.5 106.5t14 149v988h231v-1002q0 -124 -28 -224t-88 -170.5t-153.5 -108.5t-223.5 -38q-132 0 -226.5 37t-155 107t-88.5 169t-28 224zM342 1608l170 329h250l-258 -329
h-162zM672 1608l178 329h248l-267 -329h-159z" />
    <glyph glyph-name="uhungarumlaut" unicode="&#x171;" 
d="M109 283v802h233v-753q0 -81 29 -118.5t100 -37.5q32 0 63.5 10.5t61.5 28t58.5 40.5t54.5 48v782h233v-1085h-233v141q-27 -31 -62 -60.5t-77 -52.5t-91 -37t-104 -14q-125 0 -195.5 77t-70.5 229zM227 1198l170 330h250l-258 -330h-162zM557 1198l178 330h248
l-266 -330h-160z" />
    <glyph glyph-name="Uogonek" unicode="&#x172;" horiz-adv-x="1243" 
d="M125 510v1006h242v-984q0 -87 14 -151.5t44.5 -107t80 -64t121.5 -21.5q70 0 119.5 21t80 63.5t44.5 106.5t14 149v988h231v-1002q0 -163 -49.5 -284t-157.5 -187q-11 -7 -20.5 -12t-18.5 -9t-18 -8.5t-21 -9.5q-33 -18 -64 -36t-55 -40t-38.5 -50.5t-14.5 -65.5
q0 -39 19 -63.5t67 -24.5q41 0 80 14.5t74 36.5l55 -76q-55 -40 -116 -65t-144 -25q-96 0 -145 44.5t-49 117.5q0 27 8.5 54.5t23.5 53.5t35.5 49.5t44.5 44.5q-129 1 -221 39t-151.5 108t-87 168.5t-27.5 221.5z" />
    <glyph glyph-name="uogonek" unicode="&#x173;" 
d="M109 283v802h233v-753q0 -81 29 -118.5t100 -37.5q32 0 63.5 10.5t61.5 28t58.5 40.5t54.5 48v782h233v-1085h-6q-37 0 -75 -15.5t-68.5 -41t-50 -60t-19.5 -71.5q0 -39 19 -63.5t67 -24.5q40 0 78.5 14.5t73.5 36.5l57 -76q-28 -20 -56.5 -36.5t-60 -28.5t-67.5 -18.5
t-78 -6.5q-96 0 -144.5 44.5t-48.5 117.5q0 32 11.5 64t31.5 61.5t46.5 56t56.5 47.5v141q-27 -31 -62 -60.5t-77 -52.5t-91 -37t-104 -14q-125 0 -195.5 77t-70.5 229z" />
    <glyph glyph-name="Wcircumflex" unicode="&#x174;" horiz-adv-x="1624" 
d="M512 1595l225 332h160l225 -332h-139l-166 162l-166 -162h-139zM45 1516h231l142 -695q12 -56 21.5 -103t18.5 -95t18.5 -102.5t21.5 -125.5h4q10 70 19.5 124t18.5 102.5t18.5 95.5t21.5 104l133 695h215l139 -711q11 -54 20.5 -101.5t18.5 -95.5t17.5 -100t17.5 -113h4
q9 59 18 110t18 99t19 96.5t21 102.5l143 713h213l-338 -1522h-207l-217 1110h-4l-219 -1110h-209z" />
    <glyph glyph-name="wcircumflex" unicode="&#x175;" horiz-adv-x="1337" 
d="M371 1196l225 332h160l225 -332h-139l-166 162l-166 -162h-139zM20 1085h228l104 -454q9 -39 17 -73t15 -69.5t14 -75.5t16 -91h4q8 51 15.5 91t15 76t15.5 70.5t17 75.5l101 450h198l101 -444q9 -41 17.5 -78t16.5 -74.5t15.5 -78t15.5 -88.5h4q8 49 15.5 89.5t15 77.5
t15 73t16.5 77l102 446h203l-266 -1089h-209l-170 749h-4l-174 -749h-207z" />
    <glyph glyph-name="Ycircumflex" unicode="&#x176;" horiz-adv-x="1128" 
d="M18 1516h248l301 -687h4l301 687h236l-424 -904v-612h-242v610zM264 1606l225 332h160l225 -332h-139l-166 162l-166 -162h-139z" />
    <glyph glyph-name="ycircumflex" unicode="&#x177;" horiz-adv-x="958" 
d="M-2 -385l45 184q20 -5 59.5 -11.5t85.5 -6.5q31 0 53.5 8t39.5 24.5t30 42t25 60.5l22 72l-340 1097h242l135 -493q12 -45 23 -85.5t21 -80t19.5 -80.5t18.5 -86h4q11 46 21 88t20.5 83t21.5 83t23 88l135 483h226l-377 -1198q-24 -75 -52.5 -131.5t-67.5 -94
t-92.5 -56.5t-127.5 -19q-75 0 -129.5 10t-83.5 19zM174 1196l225 332h160l225 -332h-139l-166 162l-166 -162h-139z" />
    <glyph glyph-name="Ydieresis" unicode="&#x178;" horiz-adv-x="1128" 
d="M18 1516h248l301 -687h4l301 687h236l-424 -904v-612h-242v610zM281 1604v233h211v-233h-211zM639 1604v233h209v-233h-209z" />
    <glyph glyph-name="Zacute" unicode="&#x179;" horiz-adv-x="1104" 
d="M55 0v176l684 1116h-635v224h926v-181l-676 -1118h676v-217h-975zM438 1608l166 329h244l-250 -329h-160z" />
    <glyph glyph-name="zacute" unicode="&#x17a;" horiz-adv-x="903" 
d="M55 0v145l488 754h-447v186h725v-147l-489 -754h516v-184h-793zM315 1198l166 330h244l-250 -330h-160z" />
    <glyph glyph-name="Zdotaccent" unicode="&#x17b;" horiz-adv-x="1104" 
d="M55 0v176l684 1116h-635v224h926v-181l-676 -1118h676v-217h-975zM426 1612v221h250v-221h-250z" />
    <glyph glyph-name="zdotaccent" unicode="&#x17c;" horiz-adv-x="903" 
d="M55 0v145l488 754h-447v186h725v-147l-489 -754h516v-184h-793zM326 1196v221h249v-221h-249z" />
    <glyph glyph-name="Zcaron" unicode="&#x17d;" horiz-adv-x="1104" 
d="M55 0v176l684 1116h-635v224h926v-181l-676 -1118h676v-217h-975zM246 1942h141l166 -164l166 164h137l-225 -332h-160z" />
    <glyph glyph-name="zcaron" unicode="&#x17e;" horiz-adv-x="903" 
d="M55 0v145l488 754h-447v186h725v-147l-489 -754h516v-184h-793zM145 1532h142l166 -164l165 164h138l-226 -332h-159z" />
    <glyph glyph-name="longs" unicode="&#x17f;" horiz-adv-x="659" 
d="M193 0v1219q0 67 15.5 122t52.5 95t99 62t154 22q15 0 34 -0.5t37 -1.5t31.5 -2.5t16.5 -2.5v-188q-3 1 -12 1.5t-20 1t-21.5 1t-16.5 0.5q-29 0 -54 -5.5t-43.5 -19.5t-29 -38.5t-10.5 -63.5v-1202h-233z" />
    <glyph glyph-name="florin" unicode="&#x192;" horiz-adv-x="741" 
d="M-150 -406l29 185q13 -3 32 -5.5t36 -2.5q65 0 105.5 33t51.5 110l107 793h-162l27 182h160l43 330q9 74 34 130.5t68.5 95t107 58t150.5 19.5q16 0 34.5 -1t35 -2.5t30.5 -3t21 -2.5l-27 -188q-14 2 -34 4t-40 2q-29 0 -54.5 -5.5t-45.5 -19.5t-33.5 -39.5t-17.5 -64.5
l-41 -313h197l-25 -182h-197l-112 -836q-10 -69 -33.5 -122t-65.5 -89.5t-104 -55t-150 -18.5q-16 0 -35 0.5t-37 2t-32.5 2.5t-22.5 3z" />
    <glyph glyph-name="Aringacute" unicode="&#x1fa;" horiz-adv-x="1194" 
d="M494 1896l166 330h244l-250 -330h-160zM39 0l430 1479q-31 29 -47 70.5t-16 90.5q0 45 13.5 84t38.5 67t60 44t78 16t78.5 -16t60.5 -44t39 -67t14 -84q0 -49 -16 -90t-47 -69l430 -1481h-242l-96 362h-455l-98 -362h-225zM420 573h340l-51 193q-18 64 -33.5 120.5
t-30 109.5t-27 104.5t-24.5 105.5h-4q-12 -54 -25.5 -106t-28 -104.5t-30 -108.5t-33.5 -119zM516 1640q0 -22 5.5 -42t15.5 -35t25 -24t34 -9q20 0 35 9t25.5 24t16 35t5.5 42q0 44 -21 75.5t-61 31.5q-19 0 -34 -8.5t-25 -23t-15.5 -34t-5.5 -41.5z" />
    <glyph glyph-name="aringacute" unicode="&#x1fb;" horiz-adv-x="991" 
d="M57 266q0 172 150.5 284.5t445.5 168.5v47q0 77 -31.5 109t-103.5 32q-45 0 -88 -10t-82 -27t-73.5 -40t-63.5 -48l-117 144q43 40 94.5 73.5t109 57.5t120.5 37.5t129 13.5q172 0 253 -86.5t81 -255.5v-500q0 -99 6 -161.5t20 -104.5h-231q-5 15 -9 29.5t-7 30.5
t-5 34.5t-2 42.5q-55 -71 -141.5 -110t-192.5 -39q-57 0 -105.5 18t-83 53.5t-54 87t-19.5 119.5zM285 305q0 -68 34 -100.5t93 -32.5q75 0 135.5 32.5t105.5 80.5v274q-192 -41 -280 -105t-88 -149zM383 1659l166 330h244l-250 -330h-160zM303 1384q0 45 13.5 84t38.5 67
t60 44t78 16t78.5 -16t61 -44t39.5 -67t14 -84q0 -44 -14 -82.5t-39.5 -67t-61 -44.5t-78.5 -16t-78 16t-60 44.5t-38.5 67t-13.5 82.5zM413 1384q0 -22 5.5 -42t15.5 -35t25 -24t34 -9q20 0 35 9t25.5 24t16 35t5.5 42q0 44 -21 75.5t-61 31.5q-19 0 -34 -8.5t-25 -23
t-15.5 -34t-5.5 -41.5z" />
    <glyph glyph-name="AEacute" unicode="&#x1fc;" horiz-adv-x="1761" 
d="M770 1608l166 330h244l-250 -330h-160zM31 0l692 1516h940v-224h-578v-391h420v-213h-420v-471h611v-217h-850v428h-387l-191 -428h-237zM549 631h297v653z" />
    <glyph glyph-name="aeacute" unicode="&#x1fd;" horiz-adv-x="1567" 
d="M678 1198l166 330h244l-250 -330h-160zM57 266q0 172 150.5 284.5t445.5 168.5v47q0 77 -31.5 109t-103.5 32q-45 0 -88 -10t-82 -27t-73.5 -40t-63.5 -48l-117 144q43 40 94.5 73.5t110 57.5t123.5 37.5t135 13.5q102 0 162.5 -31t89.5 -94q60 63 133 94t148 31
q91 0 167 -34t130.5 -104t85 -178t30.5 -255v-64h-626q8 -155 67.5 -230t161.5 -75q43 0 77.5 10t64 29t55 46t51.5 62l147 -106q-31 -49 -72 -91.5t-92 -73.5t-112 -49t-131 -18q-116 0 -210 50.5t-153 156.5q-33 -39 -74 -74.5t-92 -62.5t-112 -43t-134 -16
q-57 0 -105.5 18t-83 53.5t-54 87t-19.5 119.5zM285 305q0 -68 34 -100.5t93 -32.5q69 0 138 33.5t132 101.5q-14 51 -21.5 109.5t-7.5 126.5v14q-97 -21 -166.5 -47.5t-114.5 -58t-66 -68t-21 -78.5zM879 637h407q-8 136 -55 206t-141 70q-39 0 -74 -14.5t-63.5 -47.5
t-47.5 -85.5t-26 -128.5z" />
    <glyph glyph-name="Oslashacute" unicode="&#x1fe;" horiz-adv-x="1309" 
d="M80 758q0 197 44.5 344.5t122 245.5t182.5 147t226 49q174 0 310 -100l104 168l133 -82l-125 -203q71 -97 111.5 -238.5t40.5 -330.5q0 -198 -44.5 -345.5t-122 -245.5t-182 -147t-225.5 -49q-88 0 -166.5 26t-146.5 77l-102 -168l-134 82l123 202q-71 100 -110 240.5
t-39 327.5zM317 758q0 -106 14 -192.5t40 -155.5l481 833q-40 40 -89 61t-108 21q-79 0 -142 -37t-106.5 -108.5t-66.5 -177.5t-23 -244zM453 272q80 -86 202 -86q78 0 140 37.5t105 110t66 179.5t23 245q0 212 -53 348zM551 1608l166 330h244l-250 -330h-160z" />
    <glyph glyph-name="oslashacute" unicode="&#x1ff;" horiz-adv-x="1040" 
d="M66 543q0 147 36.5 253.5t98.5 175.5t144.5 102.5t174.5 33.5q66 0 126.5 -17.5t113.5 -52.5l94 138l113 -74l-105 -160q51 -69 81 -167.5t30 -231.5q0 -145 -36.5 -251.5t-98.5 -176.5t-144.5 -104t-173.5 -34q-66 0 -129 18.5t-117 53.5l-90 -135l-114 74l104 159
q-49 70 -78.5 168t-29.5 228zM293 543q0 -56 5.5 -105t16.5 -92l336 518q-51 51 -131 51q-112 0 -169.5 -97.5t-57.5 -274.5zM381 223q53 -59 139 -59q112 0 168.5 99.5t56.5 279.5q0 115 -24 198zM416 1198l166 330h244l-250 -330h-160z" />
    <glyph glyph-name="Scommaaccent" unicode="&#x218;" horiz-adv-x="1161" 
d="M484 -104h223v-211l-101 -222h-98l64 199h-88v234zM61 338l203 100q25 -54 58 -100.5t74.5 -80.5t91.5 -53.5t110 -19.5q116 0 180 51.5t64 145.5q0 57 -24 99t-64 75t-92.5 60t-110.5 53q-49 22 -100 46t-98 52.5t-88.5 64t-72.5 81t-49 103t-18 130.5q0 89 33.5 162.5
t93.5 126t141.5 81.5t177.5 29q94 0 169 -25t134.5 -69t104 -104.5t76.5 -131.5l-203 -104q-22 48 -49 88.5t-61 70t-77 46t-98 16.5q-94 0 -149.5 -47t-55.5 -129q0 -55 23 -96.5t61.5 -74.5t89 -60.5t105.5 -53.5q50 -22 101.5 -46.5t100 -53.5t91 -64.5t74.5 -81.5
t50.5 -104t18.5 -131q0 -84 -32 -159.5t-93 -132.5t-150.5 -90.5t-203.5 -33.5q-103 0 -185.5 27t-148.5 75t-116 115t-87 148z" />
    <glyph glyph-name="scommaaccent" unicode="&#x219;" horiz-adv-x="922" 
d="M347 -104h223v-211l-101 -222h-98l64 199h-88v234zM20 188l144 121q60 -74 139.5 -112.5t161.5 -38.5q83 0 130.5 30t47.5 93q0 44 -24 73.5t-63 50.5t-89 37.5t-102.5 35.5t-102.5 43.5t-89 61t-63 89t-24 127.5q0 73 29 130.5t79 97.5t118.5 60.5t146.5 20.5
q57 0 112 -12.5t104 -36.5t91.5 -58t75.5 -77l-140 -127q-22 26 -49.5 49t-58.5 40.5t-65.5 27.5t-71.5 10q-75 0 -112.5 -29.5t-37.5 -83.5q0 -44 24 -72.5t63 -49.5t88.5 -37.5t102 -35t102 -42.5t88.5 -61t63 -89.5t24 -128.5t-32 -135.5t-87 -100t-128 -61.5t-154 -21
q-75 0 -139.5 15t-120 43t-100.5 66.5t-81 86.5z" />
    <glyph glyph-name="uni0259" unicode="&#x259;" horiz-adv-x="987" 
d="M921.004 542.033q0 -150.991 -38.4971 -257.984q-38.498 -106.993 -100.994 -175.489t-141.991 -99.9941t-162.49 -31.498q-90.9941 0 -166.99 33.998q-75.9951 33.998 -130.492 103.994q-54.4961 69.9951 -84.4941 177.989q-29.998 107.993 -29.998 254.984v63.9961
h626.961q-7.99902 154.99 -67.4951 229.985q-59.4971 74.9951 -161.49 74.9951q-42.998 0 -77.9951 -9.99902q-34.998 -9.99902 -63.9961 -28.998q-28.999 -18.999 -54.9971 -45.9971t-50.9971 -61.9961l-147.99 105.993q30.998 48.9971 73.4951 91.4941
q42.4971 42.498 94.4941 73.4961t111.993 48.9971t125.992 17.999q93.9941 0 175.489 -33.498t141.991 -102.994t95.4941 -175.989t34.998 -253.484zM690.019 448.039h-407.976q8 -135.992 55.4971 -205.987q47.4971 -69.9961 141.491 -69.9961q37.9971 0 73.4951 14.499
t63.4961 47.4971t47.4971 85.4951t26.499 128.492z" />
    <glyph glyph-name="circumflex" unicode="&#x2c6;" horiz-adv-x="948" 
d="M168 1196l225 332h160l225 -332h-139l-166 162l-166 -162h-139z" />
    <glyph glyph-name="caron" unicode="&#x2c7;" horiz-adv-x="948" 
d="M168 1532h141l166 -164l166 164h137l-225 -332h-160z" />
    <glyph glyph-name="breve" unicode="&#x2d8;" horiz-adv-x="948" 
d="M182 1536h137q6 -54 19.5 -91t33.5 -60t46 -33.5t57 -10.5t56.5 10.5t45.5 33.5t33 60t19 91h137q-4 -79 -23 -143.5t-55 -110.5t-89 -71t-124 -25t-124.5 25t-89.5 71t-55.5 110.5t-23.5 143.5z" />
    <glyph glyph-name="dotaccent" unicode="&#x2d9;" horiz-adv-x="948" 
d="M348 1196v221h250v-221h-250z" />
    <glyph glyph-name="ring" unicode="&#x2da;" horiz-adv-x="948" 
d="M283 1384q0 45 13.5 84t38.5 67t60 44t78 16t78.5 -16t61 -44t39.5 -67t14 -84q0 -44 -14 -82.5t-39.5 -67t-61 -44.5t-78.5 -16t-78 16t-60 44.5t-38.5 67t-13.5 82.5zM393 1384q0 -22 5.5 -42t15.5 -35t25 -24t34 -9q20 0 35 9t25.5 24t16 35t5.5 42q0 44 -21 75.5
t-61 31.5q-19 0 -34 -8.5t-25 -23t-15.5 -34t-5.5 -41.5z" />
    <glyph glyph-name="ogonek" unicode="&#x2db;" horiz-adv-x="948" 
d="M260 -229q0 33 12 65.5t33 62.5t48.5 57t58.5 48h123q-56 -40 -85.5 -90.5t-29.5 -101.5q0 -39 19 -63.5t67 -24.5q40 0 79 14.5t74 36.5l56 -76q-28 -20 -56.5 -36.5t-60 -28.5t-67 -18.5t-76.5 -6.5q-96 0 -145.5 44.5t-49.5 117.5z" />
    <glyph glyph-name="tilde" unicode="&#x2dc;" horiz-adv-x="948" 
d="M143 1184q0 150 52 217t143 67q45 0 81.5 -18t68 -39t59.5 -39t57 -18q35 0 53.5 24t18.5 86h127q0 -149 -51 -216.5t-140 -67.5q-46 0 -83 18t-68.5 39t-59 39t-55.5 18q-35 0 -53.5 -24t-18.5 -86h-131z" />
    <glyph glyph-name="hungarumlaut" unicode="&#x2dd;" horiz-adv-x="948" 
d="M100 1198l170 330h250l-258 -330h-162zM430 1198l178 330h248l-266 -330h-160z" />
    <glyph glyph-name="uni0326" unicode="&#x326;" horiz-adv-x="446" 
d="M111 -104h223v-211l-101 -222h-98l64 199h-88v234z" />
    <glyph glyph-name="tonos" unicode="&#x384;" horiz-adv-x="948" 
d="M350 1194l109 342h243l-190 -342h-162z" />
    <glyph glyph-name="dieresistonos" unicode="&#x385;" horiz-adv-x="948" 
d="M72 1194v238h202v-238h-202zM322 1194l108 342h242l-191 -342h-159zM678 1194v238h203v-238h-203z" />
    <glyph glyph-name="Alphatonos" unicode="&#x386;" horiz-adv-x="1389" 
d="M232 0l442 1522h232l442 -1522h-242l-98 362h-450l-101 -362h-225zM615 573h336l-49 185q-18 64 -33.5 120.5t-30 109.5t-27 104.5t-24.5 105.5h-4q-12 -54 -25.5 -106t-28 -104.5t-30 -108.5t-33.5 -119zM85 1177l109 342h243l-190 -342h-162z" />
    <glyph glyph-name="Epsilontonos" unicode="&#x388;" horiz-adv-x="1518" 
d="M85 1177l109 342h243l-190 -342h-162zM600 0v1516h822v-224h-580v-389h420v-217h-420v-469h610v-217h-852z" />
    <glyph glyph-name="Iotatonos" unicode="&#x38a;" horiz-adv-x="1006" 
d="M611 0v1516h241v-1516h-241zM85 1177l109 342h243l-190 -342h-162z" />
    <glyph glyph-name="Omicrontonos" unicode="&#x38c;" horiz-adv-x="1706" 
d="M85 1177l109 342h243l-190 -342h-162zM477 758q0 197 44.5 344.5t122 245.5t182.5 147t226 49t225.5 -49t182 -147t122 -245.5t44.5 -344.5q0 -198 -44.5 -345.5t-122 -245.5t-182 -147t-225.5 -49t-226 49t-182.5 147t-122 245.5t-44.5 345.5zM719 758q0 -278 87 -423
t246 -145q158 0 244 145t86 423q0 276 -86.5 419.5t-243.5 143.5q-158 0 -245.5 -143.5t-87.5 -419.5z" />
    <glyph glyph-name="Upsilontonos" unicode="&#x38e;" horiz-adv-x="1669" 
d="M559 1516h248l301 -687h4l301 687h236l-424 -904v-612h-242v610zM85 1177l109 342h243l-190 -342h-162z" />
    <glyph glyph-name="Omegatonos" unicode="&#x38f;" horiz-adv-x="1712" 
d="M479 831q0 163 42.5 295t118.5 225t180 143t227 50t227 -51t179 -144t117 -224.5t42 -293.5q0 -122 -29.5 -222t-71.5 -177.5t-88 -131.5t-79 -83h262v-217h-475v199q32 30 73.5 82.5t78 128t62 174.5t25.5 221q0 113 -20.5 207.5t-61 162.5t-101 106t-140.5 38
q-78 0 -138.5 -36.5t-102 -103.5t-63.5 -161.5t-22 -210.5q0 -124 25.5 -223t62.5 -174.5t79 -128t75 -82.5v-199h-475v217h262q-33 28 -79.5 82t-89 131.5t-72.5 178t-30 222.5zM85 1177l109 342h243l-190 -342h-162z" />
    <glyph glyph-name="iotadieresistonos" unicode="&#x390;" horiz-adv-x="489" 
d="M-137 1194v238h192v-238h-192zM102 1194l109 342h223l-190 -342h-142zM129 0v1085h231v-1085h-231zM440 1194v238h191v-238h-191z" />
    <glyph glyph-name="Alpha" unicode="&#x391;" horiz-adv-x="1194" 
d="M39 0l442 1522h232l442 -1522h-242l-98 362h-450l-101 -362h-225zM422 573h336l-49 185q-18 64 -33.5 120.5t-30 109.5t-27 104.5t-24.5 105.5h-4q-12 -54 -25.5 -106t-28 -104.5t-30 -108.5t-33.5 -119z" />
    <glyph glyph-name="Beta" unicode="&#x392;" horiz-adv-x="1212" 
d="M141 0v1516h480q99 0 184 -20t148 -64.5t98.5 -117t35.5 -177.5q0 -82 -20.5 -142t-53 -101.5t-73.5 -67t-82 -38.5v-4q53 -12 101 -37.5t85 -69t58.5 -108.5t21.5 -155q0 -108 -37.5 -186t-102.5 -128.5t-152 -75t-185 -24.5h-506zM379 205h256q135 0 196.5 60t61.5 181
q0 67 -18.5 112t-54.5 72t-88.5 38.5t-119.5 11.5h-233v-475zM379 874h225q62 0 109.5 10.5t79.5 35.5t48.5 65t16.5 100t-14.5 101.5t-44.5 67.5t-77.5 37.5t-113.5 11.5h-229v-429z" />
    <glyph glyph-name="Gamma" unicode="&#x393;" horiz-adv-x="995" 
d="M141 0v1516h807v-224h-565v-1292h-242z" />
    <glyph glyph-name="Delta" unicode="&#x394;" horiz-adv-x="1194" 
d="M39 0l442 1522h232l442 -1522h-1116zM317 190h545l-155 572q-18 63 -33.5 119t-29.5 108.5t-26 103.5t-24 105h-4q-12 -54 -25 -105t-27 -102.5t-29.5 -106.5t-33.5 -118z" />
    <glyph glyph-name="Epsilon" unicode="&#x395;" 
d="M141 0v1516h822v-224h-580v-389h420v-217h-420v-469h610v-217h-852z" />
    <glyph glyph-name="Zeta" unicode="&#x396;" horiz-adv-x="1104" 
d="M55 0v176l684 1116h-635v224h926v-181l-676 -1118h676v-217h-975z" />
    <glyph glyph-name="Eta" unicode="&#x397;" horiz-adv-x="1298" 
d="M141 0v1516h242v-609h532v609h242v-1516h-242v684h-532v-684h-242z" />
    <glyph glyph-name="Theta" unicode="&#x398;" horiz-adv-x="1309" 
d="M514.001 672v180h321.306v-180h-321.306zM80 758q0 197 44.5 344.5t122 245.5t182.5 147t226 49t225.5 -49t182 -147t122 -245.5t44.5 -344.5q0 -198 -44.5 -345.5t-122 -245.5t-182 -147t-225.5 -49t-226 49t-182.5 147t-122 245.5t-44.5 345.5zM322 758q0 -278 87 -423
t246 -145q158 0 244 145t86 423q0 276 -86.5 419.5t-243.5 143.5q-158 0 -245.5 -143.5t-87.5 -419.5z" />
    <glyph glyph-name="Iota" unicode="&#x399;" horiz-adv-x="547" 
d="M152 0v1516h241v-1516h-241z" />
    <glyph glyph-name="Kappa" unicode="&#x39a;" horiz-adv-x="1202" 
d="M141 0v1516h240v-728q9 17 25.5 44t36 58t41 63t40.5 61l338 502h258l-413 -592l471 -924h-260l-365 719l-172 -236v-483h-240z" />
    <glyph glyph-name="Lambda" unicode="&#x39b;" horiz-adv-x="1223" 
d="M1159 0.0927734h-241.984l-201.988 767.953q-15.999 58.9961 -29.998 112.993q-13.999 53.9961 -27.498 106.493t-25.999 104.993q-12.499 52.4971 -25.498 108.494h-4q-11.999 -55.9971 -24.498 -107.994q-12.499 -51.9961 -25.999 -103.993
q-13.499 -51.9971 -27.998 -104.993q-14.499 -52.9971 -30.498 -110.994l-203.987 -772.952h-225.986l432.974 1521.91h230.985z" />
    <glyph glyph-name="Mu" unicode="&#x39c;" horiz-adv-x="1538" 
d="M141 0v1516h305l324 -1180h4l313 1180h308v-1516h-230v1153h-4q-5 -38 -15.5 -86.5t-23.5 -100t-27 -101.5t-26 -91l-219 -774h-182l-219 776q-11 35 -24 84.5t-26 102.5t-24.5 104t-18.5 90h-4v-1157h-211z" />
    <glyph glyph-name="Nu" unicode="&#x39d;" horiz-adv-x="1309" 
d="M141 0v1516h260l412 -805q19 -37 34.5 -67.5t30 -60.5t30 -62.5t34.5 -74.5h4v1070h219v-1516h-223l-450 856q-19 36 -34 65t-29 57.5t-29.5 60t-34.5 73.5h-5v-1112h-219z" />
    <glyph glyph-name="Xi" unicode="&#x39e;" horiz-adv-x="1061" 
d="M72 0v217h348v469h-225v217h225v389h-336v224h899v-224h-334v-389h223v-217h-223v-469h342v-217h-919z" />
    <glyph glyph-name="Omicron" unicode="&#x39f;" horiz-adv-x="1309" 
d="M80 758q0 197 44.5 344.5t122 245.5t182.5 147t226 49t225.5 -49t182 -147t122 -245.5t44.5 -344.5q0 -198 -44.5 -345.5t-122 -245.5t-182 -147t-225.5 -49t-226 49t-182.5 147t-122 245.5t-44.5 345.5zM322 758q0 -278 87 -423t246 -145q158 0 244 145t86 423
q0 276 -86.5 419.5t-243.5 143.5q-158 0 -245.5 -143.5t-87.5 -419.5z" />
    <glyph glyph-name="Pi" unicode="&#x3a0;" horiz-adv-x="1288" 
d="M141 0v1516h1006v-1516h-242v1292h-522v-1292h-242z" />
    <glyph glyph-name="Rho" unicode="&#x3a1;" horiz-adv-x="1153" 
d="M141 0v1516h441q104 0 195 -25t158 -80.5t105.5 -144.5t38.5 -217q0 -138 -41.5 -230t-111.5 -147.5t-161.5 -79t-191.5 -23.5h-194v-569h-238zM379 778h203q68 0 118 14.5t83 46t49 82t16 121.5q0 69 -16 117t-49 78t-83.5 43.5t-119.5 13.5h-201v-516z" />
    <glyph glyph-name="Sigma" unicode="&#x3a3;" horiz-adv-x="1049" 
d="M55 0v176l365 610l-332 549v181h887v-224h-596l309 -506l-334 -569h629v-217h-928z" />
    <glyph glyph-name="Tau" unicode="&#x3a4;" horiz-adv-x="1081" 
d="M43 1292v224h993v-224h-374v-1292h-242v1292h-377z" />
    <glyph glyph-name="Upsilon" unicode="&#x3a5;" horiz-adv-x="1128" 
d="M18 1516h248l301 -687h4l301 687h236l-424 -904v-612h-242v610z" />
    <glyph glyph-name="Phi" unicode="&#x3a6;" horiz-adv-x="1421" 
d="M66 758q0 133 39.5 239.5t110 183t168 122.5t212.5 59v154h229v-154q115 -13 212.5 -58.5t168.5 -122t110.5 -183t39.5 -240.5q0 -128 -39.5 -229.5t-110.5 -174.5t-168.5 -116.5t-212.5 -55.5v-182h-229v182q-115 13 -212.5 56.5t-168 116.5t-110 174t-39.5 229z
M307 758q0 -158 76 -251.5t213 -115.5v758q-137 -25 -213 -126t-76 -265zM825 391q136 22 212.5 116t76.5 251q0 82 -19.5 149t-57 116.5t-91 81.5t-121.5 44v-758z" />
    <glyph glyph-name="Chi" unicode="&#x3a7;" horiz-adv-x="1184" 
d="M37 0l426 809l-371 707h260l254 -508l244 508h233l-364 -699l428 -817h-256l-311 618l-308 -618h-235z" />
    <glyph glyph-name="Psi" unicode="&#x3a8;" horiz-adv-x="1419" 
d="M100 920v596h236v-594q0 -162 64.5 -245t191.5 -95v934h235v-934q64 5 112.5 26t80 61.5t47.5 102.5t16 150v594h236v-596q0 -104 -18 -185.5t-50.5 -143t-78 -104.5t-100 -71t-117 -42t-128.5 -18v-356h-235v356q-99 6 -188.5 35.5t-157 94.5t-107 170.5t-39.5 263.5z
" />
    <glyph glyph-name="Omega" unicode="&#x3a9;" horiz-adv-x="1333" 
d="M100 831q0 163 42.5 295t118.5 225t180 143t227 50t227 -51t179 -144t117 -224.5t42 -293.5q0 -122 -29.5 -222t-71.5 -177.5t-88 -131.5t-79 -83h262v-217h-475v199q32 30 73.5 82.5t78 128t62 174.5t25.5 221q0 113 -20.5 207.5t-61 162.5t-101 106t-140.5 38
q-78 0 -138.5 -36.5t-102 -103.5t-63.5 -161.5t-22 -210.5q0 -124 25.5 -223t62.5 -174.5t79 -128t75 -82.5v-199h-475v217h262q-33 28 -79.5 82t-89 131.5t-72.5 178t-30 222.5z" />
    <glyph glyph-name="Iotadieresis" unicode="&#x3aa;" horiz-adv-x="547" 
d="M-10 1604v233h211v-233h-211zM152 0v1516h241v-1516h-241zM348 1604v233h209v-233h-209z" />
    <glyph glyph-name="Upsilondieresis" unicode="&#x3ab;" horiz-adv-x="1128" 
d="M18 1516h248l301 -687h4l301 687h236l-424 -904v-612h-242v610zM281 1604v233h211v-233h-211zM639 1604v233h209v-233h-209z" />
    <glyph glyph-name="alphatonos" unicode="&#x3ac;" horiz-adv-x="1067" 
d="M68 541q0 146 27 253t75 176.5t114.5 103.5t145.5 34q94 0 163.5 -41.5t123.5 -110.5v129h233v-1085h-233v137q-24 -29 -53 -57t-64.5 -50t-78 -35t-93.5 -13q-79 0 -145 32.5t-114 100.5t-74.5 173.5t-26.5 252.5zM303 543q0 -192 53.5 -283.5t151.5 -91.5q31 0 59 10
t53.5 27t49.5 39t47 47v495q-50 56 -99.5 89.5t-111.5 33.5q-48 0 -86 -21t-64 -65.5t-39.5 -113.5t-13.5 -166zM434 1198l166 330h244l-250 -330h-160z" />
    <glyph glyph-name="epsilontonos" unicode="&#x3ad;" horiz-adv-x="913" 
d="M72 287q0 60 16 108t44 84.5t66 60.5t83 35q-76 22 -122 82.5t-46 153.5q0 68 24.5 123t71 93.5t114 59.5t152.5 21q117 0 203 -25t156 -75l-95 -170q-60 43 -122 59t-119 16q-89 0 -129.5 -38.5t-40.5 -98.5q0 -68 40.5 -96.5t106.5 -28.5h187v-168h-203
q-75 0 -120.5 -41t-45.5 -116q0 -36 10 -63.5t32 -47t57.5 -29.5t86.5 -10q39 0 75 6t70.5 19t69 34t72.5 50l96 -170q-38 -30 -81.5 -55.5t-93 -43.5t-106 -28.5t-120.5 -10.5q-108 0 -182 24.5t-120 66.5t-66.5 98.5t-20.5 120.5zM397 1198l166 330h244l-250 -330h-160z
" />
    <glyph glyph-name="etatonos" unicode="&#x3ae;" 
d="M453 1198l166 330h244l-250 -330h-160zM117 0v1085h233v-141q24 29 58.5 58.5t77.5 53t93 38t105 14.5q125 0 195.5 -76.5t70.5 -228.5v-1213h-233v1160q0 80 -28.5 118.5t-96.5 38.5q-34 0 -69 -13t-67.5 -32t-60 -41.5t-45.5 -40.5v-780h-233z" />
    <glyph glyph-name="iotatonos" unicode="&#x3af;" horiz-adv-x="489" 
d="M167 1198l166 330h244l-250 -330h-160zM127 0v1085h233v-1085h-233z" />
    <glyph glyph-name="upsilondieresistonos" unicode="&#x3b0;" horiz-adv-x="1047" 
d="M117 1194v238h202v-238h-202zM367 1194l108 342h242l-191 -342h-159zM723 1194v238h203v-238h-203zM106 463v622h234v-622q0 -148 44 -215.5t138 -67.5q91 0 138 65.5t47 217.5v622h233v-622q0 -114 -22.5 -204.5t-72 -153t-128.5 -95.5t-193 -33q-117 0 -196.5 34
t-129 97.5t-71 153.5t-21.5 201z" />
    <glyph glyph-name="alpha" unicode="&#x3b1;" horiz-adv-x="1067" 
d="M68 541q0 146 27 253t75 176.5t114.5 103.5t145.5 34q94 0 163.5 -41.5t123.5 -110.5v129h233v-1085h-233v137q-24 -29 -53 -57t-64.5 -50t-78 -35t-93.5 -13q-79 0 -145 32.5t-114 100.5t-74.5 173.5t-26.5 252.5zM303 543q0 -192 53.5 -283.5t151.5 -91.5q31 0 59 10
t53.5 27t49.5 39t47 47v495q-50 56 -99.5 89.5t-111.5 33.5q-48 0 -86 -21t-64 -65.5t-39.5 -113.5t-13.5 -166z" />
    <glyph glyph-name="beta" unicode="&#x3b2;" horiz-adv-x="1141" 
d="M119 -410v1465q0 114 31.5 200t89 144t138.5 87.5t181 29.5q94 0 170 -23.5t129.5 -69.5t82 -113t28.5 -155q0 -62 -17 -115t-45.5 -95t-66.5 -71.5t-80 -44.5q72 -15 131.5 -48.5t102 -84.5t66 -119t23.5 -153q0 -98 -26.5 -179.5t-77 -140t-124.5 -91.5t-169 -33
q-98 0 -161.5 18t-106.5 47l96 162q31 -19 68.5 -31t85.5 -12q38 0 73 15.5t61.5 47t42 80t15.5 113.5q0 80 -21.5 135.5t-66 91t-112.5 53.5t-162 23v178q132 1 192 59t60 164q0 90 -49.5 140.5t-143.5 50.5q-100 0 -152.5 -63t-52.5 -191v-1471h-233z" />
    <glyph glyph-name="gamma" unicode="&#x3b3;" horiz-adv-x="930" 
d="M18 1085h236l147 -548q5 -20 15.5 -59t21.5 -83t21 -86t14 -67h4q10 47 18.5 85t17 72t17 67t17.5 69l147 550h219l-331 -1116v-379h-234v381z" />
    <glyph glyph-name="delta" unicode="&#x3b4;" horiz-adv-x="1040" 
d="M66 543q0 126 28.5 225t76.5 168t111 105t132 36h13q9 0 19.5 -1.5t21.5 -4t19 -6.5q-14 14 -37 38t-50.5 52.5t-57.5 59t-57 59t-50 52.5t-36 38v152h686v-177h-387l258 -262q115 -116 166 -245t51 -287q0 -145 -36 -252t-98 -177t-144.5 -104.5t-174.5 -34.5
t-174.5 34.5t-144.5 104.5t-98.5 176.5t-36.5 250.5zM299 543q0 -86 13.5 -155.5t40.5 -118.5t68.5 -75t98.5 -26q111 0 165 98t54 277q0 70 -9 125t-24.5 97t-35.5 73.5t-41 56.5q-6 3 -20 6t-30.5 5t-32.5 3.5t-26 1.5q-108 0 -164.5 -94.5t-56.5 -273.5z" />
    <glyph glyph-name="epsilon" unicode="&#x3b5;" horiz-adv-x="913" 
d="M72 287q0 60 16 108t44 84.5t66 60.5t83 35q-76 22 -122 82.5t-46 153.5q0 68 24.5 123t71 93.5t114 59.5t152.5 21q117 0 203 -25t156 -75l-95 -170q-60 43 -122 59t-119 16q-89 0 -129.5 -38.5t-40.5 -98.5q0 -68 40.5 -96.5t106.5 -28.5h187v-168h-203
q-75 0 -120.5 -41t-45.5 -116q0 -36 10 -63.5t32 -47t57.5 -29.5t86.5 -10q39 0 75 6t70.5 19t69 34t72.5 50l96 -170q-38 -30 -81.5 -55.5t-93 -43.5t-106 -28.5t-120.5 -10.5q-108 0 -182 24.5t-120 66.5t-66.5 98.5t-20.5 120.5z" />
    <glyph glyph-name="zeta" unicode="&#x3b6;" horiz-adv-x="844" 
d="M76 465q0 128 32.5 242.5t93 219.5t146.5 204.5t193 197.5h-445v187h725v-150q-128 -132 -225 -241t-161.5 -210.5t-97 -204t-32.5 -221.5q0 -71 11.5 -126.5t39.5 -96.5t74.5 -66t116.5 -34q61 -7 112 -24.5t88.5 -50.5t58.5 -84.5t21 -127.5q0 -65 -18.5 -118
t-54.5 -91t-89 -59t-122 -21q-76 0 -142 20.5t-114 55.5l67 119q39 -29 81.5 -42t88.5 -13q60 0 97.5 28.5t37.5 91.5q0 33 -7.5 55.5t-25.5 37.5t-47 23.5t-71 13.5q-114 11 -195.5 52.5t-134 105.5t-77.5 147.5t-25 179.5z" />
    <glyph glyph-name="eta" unicode="&#x3b7;" 
d="M117 0v1085h233v-141q24 29 58.5 58.5t77.5 53t93 38t105 14.5q125 0 195.5 -76.5t70.5 -228.5v-1213h-233v1160q0 80 -28.5 118.5t-96.5 38.5q-34 0 -69 -13t-67.5 -32t-60 -41.5t-45.5 -40.5v-780h-233z" />
    <glyph glyph-name="theta" unicode="&#x3b8;" horiz-adv-x="1030" 
d="M84 760q0 373 108 569.5t322 196.5q108 0 189 -51t135.5 -148.5t82 -239.5t27.5 -325q0 -186 -26.5 -332t-80.5 -246.5t-136 -153.5t-193 -53q-217 0 -322.5 200t-105.5 583zM305 674q1 -122 11.5 -217t35 -159.5t64 -98t98.5 -33.5q57 0 97.5 34t66 99t37.5 159.5
t12 215.5h-422zM305 854h422q-2 109 -14.5 198.5t-38.5 153t-66 98.5t-96 35q-58 0 -97 -35t-63.5 -98.5t-35 -153t-11.5 -198.5z" />
    <glyph glyph-name="iota" unicode="&#x3b9;" horiz-adv-x="489" 
d="M127 0v1085h233v-1085h-233z" />
    <glyph glyph-name="kappa" unicode="&#x3ba;" horiz-adv-x="979" 
d="M116 0v1085h231v-497q8 16 21.5 38.5t30.5 48t36 52.5t37 53l209 305h238l-289 -399l319 -686h-237l-228 496l-137 -185v-311h-231z" />
    <glyph glyph-name="lambda" unicode="&#x3bb;" horiz-adv-x="958" 
d="M-10 1493q29 9 83 19t130 10q73 0 126.5 -19t93 -56.5t68 -94t52.5 -131.5l385 -1221h-240l-135 483q-12 46 -23 88t-21.5 83t-20.5 83t-21 88h-4q-9 -45 -18.5 -86t-19.5 -80.5t-21 -80t-23 -84.5l-135 -494h-228l340 1098l-30 94q-23 70 -55 102.5t-93 32.5
q-46 0 -85.5 -6.5t-59.5 -11.5z" />
    <glyph glyph-name="mu" unicode="&#x3bc;" 
d="M110 -410v1497h235v-753q0 -79 28 -119.5t99 -40.5q65 0 123 34t115 87v792h233v-1087h-233v152q-24 -26 -53 -52.5t-63 -49t-73 -38.5t-84 -20q-61 -3 -92 26v-428h-235z" />
    <glyph glyph-name="nu" unicode="&#x3bd;" horiz-adv-x="932" 
d="M18 1085h236l147 -548q9 -36 17.5 -69t17 -67.5t17.5 -72.5t20 -86h4q10 47 18.5 85t17 72t17 67t17.5 69l147 550h219l-323 -1089h-248z" />
    <glyph glyph-name="xi" unicode="&#x3be;" horiz-adv-x="827" 
d="M70 408q0 99 27.5 173t75 125t110 80.5t131.5 40.5q-48 14 -88.5 39t-70 62t-46 85.5t-16.5 108.5q0 42 8.5 75t23 58t33 43t39.5 31h-209v187h774v-191h-278q-85 -11 -129.5 -61t-44.5 -144q0 -48 14.5 -89.5t46 -71.5t81.5 -47t122 -17v-184q-91 -3 -162.5 -21
t-121.5 -52.5t-76.5 -87t-26.5 -124.5q0 -54 12.5 -98.5t41 -78.5t74 -56t111.5 -29q65 -6 118 -23.5t90.5 -51.5t58 -86.5t20.5 -129.5q0 -65 -18.5 -118t-55 -91t-90 -59t-123.5 -21q-77 0 -142 21.5t-112 56.5l70 119q37 -29 80.5 -43t89.5 -14q59 0 96 28.5t37 93.5
q0 31 -7.5 54t-26 39t-49 25.5t-75.5 15.5q-123 12 -203.5 51.5t-128 97.5t-66.5 130t-19 149z" />
    <glyph glyph-name="omicron" unicode="&#x3bf;" horiz-adv-x="1040" 
d="M66 543q0 147 36.5 253.5t98.5 175.5t144.5 102.5t174.5 33.5q91 0 173.5 -33.5t144.5 -102.5t98.5 -175.5t36.5 -253.5q0 -145 -36.5 -251.5t-98.5 -176.5t-144.5 -104t-173.5 -34q-92 0 -174 34t-144.5 104t-99 176.5t-36.5 251.5zM299 543q0 -83 12 -152t38.5 -118.5
t68.5 -77t102 -27.5q113 0 166 97t53 278q0 82 -12.5 150t-38.5 116.5t-68 75t-100 26.5q-112 0 -166.5 -95.5t-54.5 -272.5z" />
    <glyph glyph-name="pi" unicode="&#x3c0;" horiz-adv-x="1184" 
d="M20 897v188h1143v-188h-157v-897h-232v897h-364v-897h-232v897h-158z" />
    <glyph glyph-name="rho" unicode="&#x3c1;" horiz-adv-x="1067" 
d="M117 -410v953q0 147 35.5 253.5t95.5 175.5t140.5 102.5t170.5 33.5q89 0 169 -33.5t140.5 -102.5t96 -175t36.5 -252q0 -147 -28.5 -253t-78.5 -174.5t-118.5 -101t-148.5 -32.5q-94 0 -159 35.5t-118 101.5v-531h-233zM350 291q45 -56 99 -86.5t114 -30.5q48 0 85.5 21
t63.5 65.5t40 114.5t14 168q0 82 -11.5 150t-36.5 116.5t-64.5 75t-94.5 26.5q-107 0 -158 -96t-51 -272v-252z" />
    <glyph glyph-name="sigma1" unicode="&#x3c2;" horiz-adv-x="958" 
d="M66 543q0 150 38 257.5t100.5 175.5t143 100t166.5 32q91 0 156.5 -26.5t111.5 -73t75 -108.5t48 -132l-209 -51q-13 49 -29 85t-38.5 60t-51.5 35.5t-67 11.5q-45 0 -84 -20t-67 -64t-44 -113.5t-16 -168.5q0 -90 12 -158.5t39 -116t70.5 -74.5t105.5 -34q65 -7 118 -24
t90.5 -50t58 -84.5t20.5 -128.5q0 -65 -18.5 -118t-55 -91t-90 -59t-123.5 -21q-77 0 -142 21.5t-112 56.5l70 119q37 -29 80.5 -43t89.5 -14q59 0 96 28.5t37 93.5q0 31 -7 53.5t-24.5 37.5t-47 23.5t-74.5 12.5q-87 8 -164.5 43.5t-135.5 104t-92 173t-34 249.5z" />
    <glyph glyph-name="sigma" unicode="&#x3c3;" horiz-adv-x="1071" 
d="M66 543q0 147 36.5 250t99.5 168t148 94.5t182 29.5h486v-184h-170q29 -26 52.5 -59t39.5 -76t24.5 -97.5t8.5 -123.5q0 -146 -36.5 -253t-98.5 -177t-144.5 -104t-173.5 -34q-92 0 -174 34t-144.5 104t-99 176.5t-36.5 251.5zM299 543q0 -81 12 -150t38.5 -119t68.5 -78
t102 -28q56 0 97.5 25.5t68.5 74t40 118t13 157.5q0 69 -7.5 123t-23 97t-41 76.5t-61.5 61.5h-76q-112 0 -171.5 -92t-59.5 -266z" />
    <glyph glyph-name="tau" unicode="&#x3c4;" horiz-adv-x="829" 
d="M25 897v188h780v-188h-281v-897h-219v897h-280z" />
    <glyph glyph-name="upsilon" unicode="&#x3c5;" horiz-adv-x="1047" 
d="M106 463v622h234v-622q0 -148 44 -215.5t138 -67.5q91 0 138 65.5t47 217.5v622h233v-622q0 -114 -22.5 -204.5t-72 -153t-128.5 -95.5t-193 -33q-117 0 -196.5 34t-129 97.5t-71 153.5t-21.5 201z" />
    <glyph glyph-name="phi" unicode="&#x3c6;" horiz-adv-x="1307" 
d="M66 543q0 153 41.5 259.5t110 173.5t155 98.5t176.5 33.5v408h209v-408q90 -2 176.5 -33.5t154.5 -98.5t110 -173.5t42 -259.5q0 -149 -41.5 -255t-109 -174t-154.5 -101t-178 -36v-387h-209v387q-90 3 -176.5 35t-155 100t-110 174t-41.5 257zM299 543
q0 -84 16.5 -151.5t48.5 -116t78.5 -75.5t106.5 -30v741q-119 -5 -184.5 -101t-65.5 -267zM758 170q58 3 104.5 29.5t78.5 73.5t49.5 114.5t17.5 153.5q0 87 -17.5 154.5t-50 115t-79 73t-103.5 27.5v-741z" />
    <glyph glyph-name="chi" unicode="&#x3c7;" horiz-adv-x="928" 
d="M25 0l323 563l-295 522h242l188 -348l174 348h224l-295 -514l321 -571h-239l-211 395l-209 -395h-223z" />
    <glyph glyph-name="psi" unicode="&#x3c8;" horiz-adv-x="1380" 
d="M104 477v608h232v-608q0 -136 58.5 -210t178.5 -79v1328h232v-1328q121 7 181.5 80t60.5 209v608h229v-606q0 -111 -25 -202.5t-81.5 -157t-146 -102.5t-218.5 -40v-387h-232v387q-129 3 -218.5 39.5t-145 101.5t-80.5 156.5t-25 202.5z" />
    <glyph glyph-name="omega" unicode="&#x3c9;" horiz-adv-x="1380" 
d="M70 494q0 95 16 182t44.5 163t69 138.5t89.5 109.5h252q-58 -47 -102.5 -109t-75 -136t-46.5 -157.5t-16 -172.5q0 -168 38 -248t116 -80q62 0 96.5 49.5t34.5 137.5v368h207v-368q0 -88 35.5 -137.5t95.5 -49.5q76 0 115.5 79.5t39.5 248.5q0 89 -16 172.5t-46.5 157.5
t-75.5 136t-103 109h254q49 -47 89.5 -109.5t69 -138.5t44.5 -163t16 -182q0 -118 -21 -213.5t-65 -163t-111.5 -104t-159.5 -36.5q-55 0 -99.5 18t-77.5 47.5t-55 65.5t-32 72q-12 -36 -33 -72t-53 -65.5t-76 -47.5t-102 -18q-93 0 -160.5 36.5t-111 104t-64 163
t-20.5 213.5z" />
    <glyph glyph-name="iotadieresis" unicode="&#x3ca;" horiz-adv-x="489" 
d="M-38 1194v233h211v-233h-211zM321 1194v233h209v-233h-209zM127 0v1085h233v-1085h-233z" />
    <glyph glyph-name="upsilondieresis" unicode="&#x3cb;" horiz-adv-x="1047" 
d="M235 1194v233h211v-233h-211zM594 1194v233h209v-233h-209zM106 463v622h234v-622q0 -148 44 -215.5t138 -67.5q91 0 138 65.5t47 217.5v622h233v-622q0 -114 -22.5 -204.5t-72 -153t-128.5 -95.5t-193 -33q-117 0 -196.5 34t-129 97.5t-71 153.5t-21.5 201z" />
    <glyph glyph-name="omicrontonos" unicode="&#x3cc;" horiz-adv-x="1040" 
d="M432 1198l166 330h244l-250 -330h-160zM66 543q0 147 36.5 253.5t98.5 175.5t144.5 102.5t174.5 33.5q91 0 173.5 -33.5t144.5 -102.5t98.5 -175.5t36.5 -253.5q0 -145 -36.5 -251.5t-98.5 -176.5t-144.5 -104t-173.5 -34q-92 0 -174 34t-144.5 104t-99 176.5
t-36.5 251.5zM299 543q0 -83 12 -152t38.5 -118.5t68.5 -77t102 -27.5q113 0 166 97t53 278q0 82 -12.5 150t-38.5 116.5t-68 75t-100 26.5q-112 0 -166.5 -95.5t-54.5 -272.5z" />
    <glyph glyph-name="upsilontonos" unicode="&#x3cd;" horiz-adv-x="1047" 
d="M106 463v622h234v-622q0 -148 44 -215.5t138 -67.5q91 0 138 65.5t47 217.5v622h233v-622q0 -114 -22.5 -204.5t-72 -153t-128.5 -95.5t-193 -33q-117 0 -196.5 34t-129 97.5t-71 153.5t-21.5 201zM436 1198l166 330h244l-250 -330h-160z" />
    <glyph glyph-name="omegatonos" unicode="&#x3ce;" horiz-adv-x="1380" 
d="M610 1198l166 330h244l-250 -330h-160zM70 494q0 95 16 182t44.5 163t69 138.5t89.5 109.5h252q-58 -47 -102.5 -109t-75 -136t-46.5 -157.5t-16 -172.5q0 -168 38 -248t116 -80q62 0 96.5 49.5t34.5 137.5v368h207v-368q0 -88 35.5 -137.5t95.5 -49.5q76 0 115.5 79.5
t39.5 248.5q0 89 -16 172.5t-46.5 157.5t-75.5 136t-103 109h254q49 -47 89.5 -109.5t69 -138.5t44.5 -163t16 -182q0 -118 -21 -213.5t-65 -163t-111.5 -104t-159.5 -36.5q-55 0 -99.5 18t-77.5 47.5t-55 65.5t-32 72q-12 -36 -33 -72t-53 -65.5t-76 -47.5t-102 -18
q-93 0 -160.5 36.5t-111 104t-64 163t-20.5 213.5z" />
    <glyph glyph-name="afii10023" unicode="&#x401;" 
d="M266 1604v233h211v-233h-211zM625 1604v233h209v-233h-209zM141 0v1516h822v-224h-580v-389h420v-217h-420v-469h610v-217h-852z" />
    <glyph glyph-name="afii10051" unicode="&#x402;" horiz-adv-x="1446" 
d="M45 1292v224h991v-224h-374v-420q31 48 68.5 83t78.5 57.5t84.5 33.5t85.5 11q87 0 160.5 -36.5t127.5 -104.5t84.5 -164t30.5 -215q0 -122 -30 -221t-90.5 -169t-150.5 -108.5t-210 -38.5v193q59 0 105.5 21.5t78 62.5t48 100.5t16.5 134.5q0 68 -16.5 125.5t-47 99
t-75 65t-99.5 23.5q-72 0 -132 -32.5t-117 -98.5v-694h-242v1292h-375z" />
    <glyph glyph-name="afii10052" unicode="&#x403;" horiz-adv-x="1020" 
d="M418 1608l166 330h244l-250 -330h-160zM141 0v1516h807v-224h-565v-1292h-242z" />
    <glyph glyph-name="afii10053" unicode="&#x404;" horiz-adv-x="1200" 
d="M80 762q0 196 41 342.5t115.5 244t178.5 146.5t230 49q107 0 187 -31.5t137.5 -89t95 -138.5t59.5 -179l-223 -47q-15 67 -37.5 119t-54 87.5t-73.5 53.5t-97 18q-70 0 -125 -30.5t-94.5 -88t-63 -140.5t-30.5 -187h385v-213h-387q5 -121 28.5 -214.5t63.5 -158t97 -98
t130 -33.5q111 0 176 71t101 222l213 -49q-24 -98 -64.5 -180.5t-100.5 -141.5t-141 -92t-186 -33q-128 0 -231.5 48.5t-176.5 146.5t-113 246.5t-40 349.5z" />
    <glyph glyph-name="afii10054" unicode="&#x405;" horiz-adv-x="1161" 
d="M61 338l203 100q25 -54 58 -100.5t74.5 -80.5t91.5 -53.5t110 -19.5q116 0 180 51.5t64 145.5q0 57 -24 99t-64 75t-92.5 60t-110.5 53q-49 22 -100 46t-98 52.5t-88.5 64t-72.5 81t-49 103t-18 130.5q0 89 33.5 162.5t93.5 126t141.5 81.5t177.5 29q94 0 169 -25
t134.5 -69t104 -104.5t76.5 -131.5l-203 -104q-22 48 -49 88.5t-61 70t-77 46t-98 16.5q-94 0 -149.5 -47t-55.5 -129q0 -55 23 -96.5t61.5 -74.5t89 -60.5t105.5 -53.5q50 -22 101.5 -46.5t100 -53.5t91 -64.5t74.5 -81.5t50.5 -104t18.5 -131q0 -84 -32 -159.5t-93 -132.5
t-150.5 -90.5t-203.5 -33.5q-103 0 -185.5 27t-148.5 75t-116 115t-87 148z" />
    <glyph glyph-name="afii10055" unicode="&#x406;" horiz-adv-x="547" 
d="M152 0v1516h241v-1516h-241z" />
    <glyph glyph-name="afii10056" unicode="&#x407;" horiz-adv-x="547" 
d="M152 0v1516h241v-1516h-241zM-10 1604v233h211v-233h-211zM349 1604v233h209v-233h-209z" />
    <glyph glyph-name="afii10057" unicode="&#x408;" horiz-adv-x="909" 
d="M29 94l102 176q56 -38 121.5 -62t124.5 -24q75 0 120.5 45t45.5 146v1141h241v-1156q0 -183 -98 -283t-285 -100q-102 0 -198.5 30.5t-173.5 86.5z" />
    <glyph glyph-name="afii10058" unicode="&#x409;" horiz-adv-x="1995" 
d="M43 0v203q53 0 89 12t58 36.5t31.5 63.5t9.5 93v1108h990v-627h202q105 0 195.5 -22.5t158 -74t106 -135t38.5 -204.5q0 -132 -41.5 -219.5t-111.5 -139.5t-161.5 -73t-191.5 -21h-432v1292h-510v-882q0 -102 -23 -179t-74 -128.5t-133 -77t-200 -25.5zM1221 209h202
q138 0 202.5 57t64.5 180q0 116 -64 169t-205 53h-200v-459z" />
    <glyph glyph-name="afii10059" unicode="&#x40a;" horiz-adv-x="1927" 
d="M141 0v1516h242v-625h532v625h238v-625h203q104 0 195 -23t158 -75t105.5 -135.5t38.5 -204.5q0 -132 -41.5 -219.5t-111.5 -139.5t-161 -73t-191 -21h-433v668h-532v-668h-242zM1153 209h203q137 0 201.5 57t64.5 180q0 116 -64 169t-204 53h-201v-459z" />
    <glyph glyph-name="afii10060" unicode="&#x40b;" horiz-adv-x="1370" 
d="M45 1292v224h991v-224h-374v-348q24 29 58 58.5t77 53t93 38t105 14.5q62 0 111.5 -19.5t84 -57.5t53 -95.5t18.5 -132.5v-803h-234v750q0 80 -28.5 118.5t-96.5 38.5q-34 0 -69 -13t-67 -32t-59.5 -41.5t-45.5 -40.5v-780h-242v1292h-375z" />
    <glyph glyph-name="afii10061" unicode="&#x40c;" horiz-adv-x="1202" 
d="M530 1608l166 330h244l-250 -330h-160zM141 0v1516h240v-728q9 17 25.5 44t36 58t41 63t40.5 61l338 502h258l-413 -592l471 -924h-260l-365 719l-172 -236v-483h-240z" />
    <glyph glyph-name="afii10062" unicode="&#x40e;" horiz-adv-x="1206" 
d="M59 1516h244l299 -728l37 -102l37 105l268 725h242l-477 -1217q-33 -83 -69 -143.5t-79.5 -100.5t-97.5 -59t-123 -19q-48 0 -85.5 7t-68.5 18.5t-56.5 27t-49.5 33.5l102 179q28 -22 65 -40t87 -18q35 0 60.5 10t46 30.5t37 52t34.5 75.5l20 56zM332 1950h137
q6 -54 19.5 -91t33.5 -60t46 -33.5t57 -10.5t56.5 10.5t45.5 33.5t33 60t19 91h137q-4 -79 -23 -143.5t-55 -110.5t-89 -71t-124 -25t-124.5 25t-89.5 71t-55.5 110.5t-23.5 143.5z" />
    <glyph glyph-name="afii10145" unicode="&#x40f;" horiz-adv-x="1288" 
d="M141 0v1516h242v-1299h522v1299h242v-1516h-383v-410h-240v410h-383z" />
    <glyph glyph-name="afii10017" unicode="&#x410;" horiz-adv-x="1194" 
d="M39 0l442 1522h232l442 -1522h-242l-98 362h-450l-101 -362h-225zM422 573h336l-49 185q-18 64 -33.5 120.5t-30 109.5t-27 104.5t-24.5 105.5h-4q-12 -54 -25.5 -106t-28 -104.5t-30 -108.5t-33.5 -119z" />
    <glyph glyph-name="afii10018" unicode="&#x411;" horiz-adv-x="1153" 
d="M141 0v1516h807v-224h-569v-403h203q104 0 195 -22.5t158 -74t105.5 -135t38.5 -204.5q0 -132 -41.5 -219.5t-111.5 -139.5t-161.5 -73t-191.5 -21h-432zM379 209h203q137 0 201.5 57t64.5 180q0 116 -64 169t-204 53h-201v-459z" />
    <glyph glyph-name="afii10019" unicode="&#x412;" horiz-adv-x="1212" 
d="M141 0v1516h480q99 0 184 -20t148 -64.5t98.5 -117t35.5 -177.5q0 -82 -20.5 -142t-53 -101.5t-73.5 -67t-82 -38.5v-4q53 -12 101 -37.5t85 -69t58.5 -108.5t21.5 -155q0 -108 -37.5 -186t-102.5 -128.5t-152 -75t-185 -24.5h-506zM379 205h256q135 0 196.5 60t61.5 181
q0 67 -18.5 112t-54.5 72t-88.5 38.5t-119.5 11.5h-233v-475zM379 874h225q62 0 109.5 10.5t79.5 35.5t48.5 65t16.5 100t-14.5 101.5t-44.5 67.5t-77.5 37.5t-113.5 11.5h-229v-429z" />
    <glyph glyph-name="afii10020" unicode="&#x413;" horiz-adv-x="995" 
d="M141 0v1516h807v-224h-565v-1292h-242z" />
    <glyph glyph-name="afii10021" unicode="&#x414;" horiz-adv-x="1405" 
d="M14 217h72q71 0 110 54.5t46 156.5l86 1088h876v-1299h154v-629h-240v412h-864v-412h-240v629zM406 217h557v1075h-418l-70 -895q-2 -28 -6 -55.5t-12 -51.5t-20.5 -43t-30.5 -30z" />
    <glyph glyph-name="afii10022" unicode="&#x415;" 
d="M141 0v1516h822v-224h-580v-389h420v-217h-420v-469h610v-217h-852z" />
    <glyph glyph-name="afii10024" unicode="&#x416;" horiz-adv-x="1870" 
d="M25 0l471 926l-412 590h256l338 -502q20 -29 41.5 -61t41 -63t36 -58t26.5 -44v728h224v-728q10 17 26.5 44t36 58t41 63t41.5 61l338 502h256l-412 -590l471 -926h-260l-366 719l-172 -236v-483h-224v483l-172 236l-366 -719h-260z" />
    <glyph glyph-name="afii10025" unicode="&#x417;" horiz-adv-x="1102" 
d="M43 311l201 88q25 -60 54.5 -103t64.5 -70t76 -39.5t90 -12.5q61 0 108.5 18t80.5 50.5t50 78t17 101.5q0 144 -85 212t-269 68h-62v193h88q83 0 139.5 16t91 47.5t49.5 78t15 106.5q0 42 -11 77t-35.5 60.5t-63.5 40t-95 14.5q-88 0 -155 -43.5t-119 -117.5l-168 114
q39 57 87.5 104t107 81t126 52.5t144.5 18.5q102 0 179.5 -28.5t130 -79t79.5 -119.5t27 -150q0 -70 -18.5 -128t-50.5 -103.5t-75.5 -77.5t-93.5 -49q60 -20 109.5 -53t85.5 -81t55.5 -112t19.5 -145q0 -102 -35 -184t-98 -140t-151 -89.5t-195 -31.5q-102 0 -181 25
t-139 70t-103 107t-73 136z" />
    <glyph glyph-name="afii10026" unicode="&#x418;" horiz-adv-x="1309" 
d="M1166.01 0v1516h-259.984l-411.975 -805q-18.999 -37 -34.498 -67.5t-29.998 -60.5t-29.998 -62.5t-34.498 -74.5h-4v1070h-218.986v-1516h222.986l449.973 856q18.999 36 33.998 65t28.998 57.5t29.498 60t34.498 73.5h4.99902v-1112h218.987z" />
    <glyph glyph-name="afii10027" unicode="&#x419;" horiz-adv-x="1309" 
d="M1166.01 0v1516h-259.984l-411.975 -805q-18.999 -37 -34.498 -67.5t-29.998 -60.5t-29.998 -62.5t-34.498 -74.5h-4v1070h-218.986v-1516h222.986l449.973 856q18.999 36 33.998 65t28.998 57.5t29.498 60t34.498 73.5h4.99902v-1112h218.987zM354 1950h137
q6 -54 19.5 -91t33.5 -60t46 -33.5t57 -10.5t56.5 10.5t45.5 33.5t33 60t19 91h137q-4 -79 -23 -143.5t-55 -110.5t-89 -71t-124 -25t-124.5 25t-89.5 71t-55.5 110.5t-23.5 143.5z" />
    <glyph glyph-name="afii10028" unicode="&#x41a;" horiz-adv-x="1202" 
d="M141 0v1516h240v-728q9 17 25.5 44t36 58t41 63t40.5 61l338 502h258l-413 -592l471 -924h-260l-365 719l-172 -236v-483h-240z" />
    <glyph glyph-name="afii10029" unicode="&#x41b;" horiz-adv-x="1366" 
d="M43 0v203q53 0 89 12t58 36.5t31.5 63.5t9.5 93v1108h994v-1516h-242v1292h-510v-882q0 -102 -23 -179t-74 -128.5t-133 -77t-200 -25.5z" />
    <glyph glyph-name="afii10030" unicode="&#x41c;" horiz-adv-x="1538" 
d="M141 0v1516h305l324 -1180h4l313 1180h308v-1516h-230v1153h-4q-5 -38 -15.5 -86.5t-23.5 -100t-27 -101.5t-26 -91l-219 -774h-182l-219 776q-11 35 -24 84.5t-26 102.5t-24.5 104t-18.5 90h-4v-1157h-211z" />
    <glyph glyph-name="afii10031" unicode="&#x41d;" horiz-adv-x="1298" 
d="M141 0v1516h242v-609h532v609h242v-1516h-242v684h-532v-684h-242z" />
    <glyph glyph-name="afii10032" unicode="&#x41e;" horiz-adv-x="1309" 
d="M80 758q0 197 44.5 344.5t122 245.5t182.5 147t226 49t225.5 -49t182 -147t122 -245.5t44.5 -344.5q0 -198 -44.5 -345.5t-122 -245.5t-182 -147t-225.5 -49t-226 49t-182.5 147t-122 245.5t-44.5 345.5zM322 758q0 -278 87 -423t246 -145q158 0 244 145t86 423
q0 276 -86.5 419.5t-243.5 143.5q-158 0 -245.5 -143.5t-87.5 -419.5z" />
    <glyph glyph-name="afii10033" unicode="&#x41f;" horiz-adv-x="1288" 
d="M141 0v1516h1006v-1516h-242v1292h-522v-1292h-242z" />
    <glyph glyph-name="afii10034" unicode="&#x420;" horiz-adv-x="1153" 
d="M141 0v1516h441q104 0 195 -25t158 -80.5t105.5 -144.5t38.5 -217q0 -138 -41.5 -230t-111.5 -147.5t-161.5 -79t-191.5 -23.5h-194v-569h-238zM379 778h203q68 0 118 14.5t83 46t49 82t16 121.5q0 69 -16 117t-49 78t-83.5 43.5t-119.5 13.5h-201v-516z" />
    <glyph glyph-name="afii10035" unicode="&#x421;" horiz-adv-x="1221" 
d="M80 760q0 196 41 343.5t115.5 245t178.5 146.5t230 49q115 0 199.5 -36t143 -102t94.5 -158t55 -204l-226 -40q-15 81 -37 140.5t-54.5 98.5t-76.5 57.5t-104 18.5q-157 0 -237 -143t-80 -414q0 -284 81 -428t240 -144q60 0 105.5 18.5t80 58.5t59 104t42.5 155l223 -37
q-21 -111 -60.5 -205.5t-101 -163.5t-148 -108t-202.5 -39q-128 0 -231.5 48t-176.5 145.5t-113 245.5t-40 348z" />
    <glyph glyph-name="afii10036" unicode="&#x422;" horiz-adv-x="1081" 
d="M43 1292v224h993v-224h-374v-1292h-242v1292h-377z" />
    <glyph glyph-name="afii10037" unicode="&#x423;" horiz-adv-x="1206" 
d="M59 1516h244l299 -728l37 -102l37 105l268 725h242l-477 -1217q-33 -83 -69 -143.5t-79.5 -100.5t-97.5 -59t-123 -19q-48 0 -85.5 7t-68.5 18.5t-56.5 27t-49.5 33.5l102 179q28 -22 65 -40t87 -18q35 0 60.5 10t46 30.5t37 52t34.5 75.5l20 56z" />
    <glyph glyph-name="afii10038" unicode="&#x424;" horiz-adv-x="1421" 
d="M66 758q0 133 39.5 239.5t110 183t168 122.5t212.5 59v154h229v-154q115 -13 212.5 -58.5t168.5 -122t110.5 -183t39.5 -240.5q0 -128 -39.5 -229.5t-110.5 -174.5t-168.5 -116.5t-212.5 -55.5v-182h-229v182q-115 13 -212.5 56.5t-168 116.5t-110 174t-39.5 229z
M307 758q0 -158 76 -251.5t213 -115.5v758q-137 -25 -213 -126t-76 -265zM825 391q136 22 212.5 116t76.5 251q0 82 -19.5 149t-57 116.5t-91 81.5t-121.5 44v-758z" />
    <glyph glyph-name="afii10039" unicode="&#x425;" horiz-adv-x="1184" 
d="M37 0l426 809l-371 707h260l254 -508l244 508h233l-364 -699l428 -817h-256l-311 618l-308 -618h-235z" />
    <glyph glyph-name="afii10040" unicode="&#x426;" horiz-adv-x="1323" 
d="M141 0v1516h242v-1299h522v1299h242v-1299h119v-627h-240v410h-885z" />
    <glyph glyph-name="afii10041" unicode="&#x427;" horiz-adv-x="1225" 
d="M129 1026v492h240v-467q0 -80 10.5 -135.5t35 -90t64.5 -50t99 -15.5q71 0 141 24.5t123 67.5v664h241v-1516h-241v639q-25 -20 -59 -37.5t-74.5 -31t-87 -21.5t-95.5 -8q-95 0 -169 24.5t-124.5 81.5t-77 149.5t-26.5 229.5z" />
    <glyph glyph-name="afii10042" unicode="&#x428;" horiz-adv-x="1911" 
d="M141 0v1516h240v-1299h455v1299h239v-1299h455v1299h239v-1516h-1628z" />
    <glyph glyph-name="afii10043" unicode="&#x429;" horiz-adv-x="1946" 
d="M141 0v1516h240v-1299h455v1299h239v-1299h455v1299h239v-1315h119v-611h-239v410h-1508z" />
    <glyph glyph-name="afii10044" unicode="&#x42a;" horiz-adv-x="1450" 
d="M47 1292v224h629v-627h203q104 0 195 -22.5t158 -74t105.5 -135t38.5 -204.5q0 -132 -41.5 -219.5t-111.5 -139.5t-161.5 -73t-191.5 -21h-432v1292h-391zM676 209h203q137 0 201.5 57t64.5 180q0 116 -64 169t-204 53h-201v-459z" />
    <glyph glyph-name="afii10045" unicode="&#x42b;" horiz-adv-x="1700" 
d="M1305 0v1516h241v-1516h-241zM141 0v1516h238v-627h203q104 0 195 -22.5t158 -74t105.5 -135t38.5 -204.5q0 -132 -41.5 -219.5t-111.5 -139.5t-161.5 -73t-191.5 -21h-432zM379 209h203q137 0 201.5 57t64.5 180q0 116 -64 169t-204 53h-201v-459z" />
    <glyph glyph-name="afii10046" unicode="&#x42c;" horiz-adv-x="1153" 
d="M141 0v1516h238v-627h203q104 0 195 -22.5t158 -74t105.5 -135t38.5 -204.5q0 -132 -41.5 -219.5t-111.5 -139.5t-161.5 -73t-191.5 -21h-432zM379 209h203q137 0 201.5 57t64.5 180q0 116 -64 169t-204 53h-201v-459z" />
    <glyph glyph-name="afii10047" unicode="&#x42d;" horiz-adv-x="1200" 
d="M1118 762q0 196 -40.9971 342.5q-40.998 146.5 -115.493 244q-74.4961 97.5 -178.489 146.5q-103.994 49 -229.986 49q-106.993 0 -186.988 -31.5t-137.491 -89q-57.4971 -57.5 -94.9941 -138.5q-37.498 -81 -59.4971 -179l222.986 -47q14.999 67 37.498 119
t53.9971 87.5t73.4951 53.5t96.9941 18q69.9961 0 124.992 -30.5q54.9971 -30.5 94.4941 -88q39.498 -57.5 62.9961 -140.5q23.499 -83 30.498 -187h-384.977v-213h386.977q-4.99902 -121 -28.498 -214.5q-23.498 -93.5 -63.4961 -158t-96.9941 -98t-129.992 -33.5
q-110.993 0 -175.989 71t-100.993 222l-212.987 -49q23.998 -98 64.4961 -180.5q40.4971 -82.5 100.493 -141.5q59.9971 -59 140.992 -92t185.988 -33q127.992 0 231.486 48.5q103.493 48.5 176.489 146.5q72.9951 98 112.993 246.5q39.9971 148.5 39.9971 349.5z" />
    <glyph glyph-name="afii10048" unicode="&#x42e;" horiz-adv-x="1780" 
d="M141 0v1516h242v-609h217q17 157 65 276.5t120 199.5t165 120.5t199 40.5q116 0 216.5 -49t175 -147t117 -245.5t42.5 -344.5q0 -198 -42.5 -345.5t-117 -245.5t-175 -147t-216.5 -49q-112 0 -209 45t-170.5 134t-119 223t-54.5 311h-213v-684h-242zM836 758
q0 -138 21 -246.5t61 -183.5t98 -114.5t133 -39.5q73 0 130 39.5t97 114.5t61 183.5t21 246.5q0 139 -21 246.5t-61 181.5t-97 112.5t-130 38.5q-75 0 -133 -38.5t-98 -112.5t-61 -181.5t-21 -246.5z" />
    <glyph glyph-name="afii10049" unicode="&#x42f;" horiz-adv-x="1192" 
d="M1051.01 0v1516h-450.973q-113.993 0 -204.487 -27q-90.4951 -27 -153.491 -83.5t-95.9941 -143t-32.998 -205.5q0 -85 19.499 -153t54.4971 -119.5t82.9951 -86.5t104.993 -53l-290.982 -645h247.985l269.983 592h212.987v-592h235.985zM815.023 797h-204.988
q-65.9961 0 -115.992 13q-49.9971 13 -82.9951 43t-49.9971 79t-16.999 121q0 68 16.499 114.5t49.4971 74.5t82.9951 40t116.992 12h204.988v-497z" />
    <glyph glyph-name="afii10065" unicode="&#x430;" horiz-adv-x="991" 
d="M57 266q0 172 150.5 284.5t445.5 168.5v47q0 77 -31.5 109t-103.5 32q-45 0 -88 -10t-82 -27t-73.5 -40t-63.5 -48l-117 144q43 40 94.5 73.5t109 57.5t120.5 37.5t129 13.5q172 0 253 -86.5t81 -255.5v-500q0 -99 6 -161.5t20 -104.5h-231q-5 15 -9 29.5t-7 30.5
t-5 34.5t-2 42.5q-55 -71 -141.5 -110t-192.5 -39q-57 0 -105.5 18t-83 53.5t-54 87t-19.5 119.5zM285 305q0 -68 34 -100.5t93 -32.5q75 0 135.5 32.5t105.5 80.5v274q-192 -41 -280 -105t-88 -149z" />
    <glyph glyph-name="afii10066" unicode="&#x431;" horiz-adv-x="1036" 
d="M66 559q0 97 1 144.5t3 66.5q5 93 18.5 182.5t40 170.5t68 149.5t101 119t140 80t185.5 31.5q23 1 51 2t59 4t63 8.5t64 14.5v-215q-48 -16 -104.5 -20t-116.5 -7q-92 -3 -157 -35.5t-107 -89.5t-63 -137.5t-25 -179.5q23 51 55 88t69 61t77 35.5t79 11.5
q88 0 162.5 -34.5t129 -102.5t85.5 -168.5t31 -232.5q0 -117 -32 -214.5t-91 -167.5t-143 -108.5t-189 -38.5q-97 0 -180 36t-144 108.5t-95.5 181.5t-34.5 256zM299 510q0 -75 14 -138t41.5 -108.5t69 -70.5t96.5 -25q53 0 94.5 24t69.5 68t42.5 107.5t14.5 142.5
q0 76 -13.5 140.5t-40 111t-67 72.5t-94.5 26t-96 -24.5t-71 -70.5t-44.5 -110.5t-15.5 -144.5z" />
    <glyph glyph-name="afii10067" unicode="&#x432;" horiz-adv-x="979" 
d="M119 0v1085h391q67 0 133.5 -11t119.5 -40t85.5 -79.5t32.5 -129.5q0 -57 -16.5 -101t-44 -76t-65 -52t-79.5 -29v-2q50 -8 92.5 -25.5t74 -49t49 -78t17.5 -113.5q0 -79 -32 -135.5t-84.5 -93t-120 -53.5t-137.5 -17h-416zM338 184h174q90 0 132 37t42 105
q0 74 -49.5 110.5t-138.5 36.5h-160v-289zM338 637h154q86 0 129 33.5t43 105.5q0 59 -40.5 91t-125.5 32h-160v-262z" />
    <glyph glyph-name="afii10068" unicode="&#x433;" horiz-adv-x="848" 
d="M119 0v1085h688v-186h-457v-899h-231z" />
    <glyph glyph-name="afii10069" unicode="&#x434;" horiz-adv-x="1122" 
d="M18 199q48 1 78 13t47.5 33t25.5 52t11 70l53 718h748v-886h102v-611h-217v412h-628v-412h-220v611zM338 188h412v711h-301l-39 -549q-3 -65 -23 -105.5t-49 -56.5z" />
    <glyph glyph-name="afii10070" unicode="&#x435;" horiz-adv-x="987" 
d="M66 543q0 151 38.5 258t101 175.5t142 100t162.5 31.5q91 0 167 -34t130.5 -104t84.5 -178t30 -255v-64h-627q8 -155 67.5 -230t161.5 -75q43 0 78 10t64 29t55 46t51 62l148 -106q-31 -49 -73.5 -91.5t-94.5 -73.5t-112 -49t-126 -18q-94 0 -175.5 33.5t-142 103
t-95.5 176t-35 253.5zM297 637h408q-8 136 -55.5 206t-141.5 70q-38 0 -73.5 -14.5t-63.5 -47.5t-47.5 -85.5t-26.5 -128.5z" />
    <glyph glyph-name="afii10072" unicode="&#x436;" horiz-adv-x="1485" 
d="M33 0l317 686l-289 399h238l211 -305q18 -26 36.5 -53t35 -52.5t30.5 -48t23 -38.5v497h215v-497q8 16 22 38.5t31 48t35.5 52.5t36.5 53l211 305h237l-288 -399l317 -686h-235l-230 498l-137 -187v-311h-215v311l-137 187l-230 -498h-235z" />
    <glyph glyph-name="afii10073" unicode="&#x437;" horiz-adv-x="897" 
d="M43 186l150 136q45 -73 103.5 -111.5t141.5 -38.5q91 0 143 42t52 112q0 38 -14 65.5t-45.5 45t-82.5 26t-124 8.5h-48v162h52q126 0 183.5 35t57.5 110q0 28 -10 53.5t-31.5 45t-54.5 30.5t-78 11q-38 0 -68 -8t-55 -23t-46.5 -36t-43.5 -46l-127 137q26 33 61 63.5
t79.5 53.5t97.5 37t115 14q92 0 160.5 -23t114.5 -62.5t68.5 -94t22.5 -117.5q0 -106 -53 -172.5t-152 -83.5q61 -13 105 -37t71.5 -57.5t40.5 -74.5t13 -89q0 -68 -26 -126.5t-77 -102t-125 -68.5t-170 -25q-72 0 -133 16t-111 43.5t-89.5 66t-67.5 83.5z" />
    <glyph glyph-name="afii10074" unicode="&#x438;" horiz-adv-x="1081" 
d="M119 0v1085h213v-706q19 33 52 89t72 123t81 140t81 140.5t71.5 123.5t51.5 90h224v-1085h-217v705q-20 -35 -52.5 -91t-71 -123t-80 -139t-80 -138.5t-71.5 -122.5t-53 -91h-221z" />
    <glyph glyph-name="afii10075" unicode="&#x439;" horiz-adv-x="1081" 
d="M119 0v1085h213v-706q19 33 52 89t72 123t81 140t81 140.5t71.5 123.5t51.5 90h224v-1085h-217v705q-20 -35 -52.5 -91t-71 -123t-80 -139t-80 -138.5t-71.5 -122.5t-53 -91h-221zM252 1536h137q6 -54 19.5 -91t33.5 -60t46 -33.5t57 -10.5t56.5 10.5t45.5 33.5t33 60
t19 91h137q-4 -79 -23 -143.5t-55 -110.5t-89 -71t-124 -25t-124.5 25t-89.5 71t-55.5 110.5t-23.5 143.5z" />
    <glyph glyph-name="afii10076" unicode="&#x43a;" horiz-adv-x="979" 
d="M116 0v1085h231v-497q8 16 21.5 38.5t30.5 48t36 52.5t37 53l209 305h238l-289 -399l319 -686h-237l-228 496l-137 -185v-311h-231z" />
    <glyph glyph-name="afii10077" unicode="&#x43b;" horiz-adv-x="1114" 
d="M23 2v186q48 0 79 6t48 22.5t23.5 46t6.5 77.5v745h815v-1085h-231v899h-352v-563q0 -115 -30 -181.5t-82.5 -100t-123.5 -42.5t-153 -10z" />
    <glyph glyph-name="afii10078" unicode="&#x43c;" horiz-adv-x="1282" 
d="M119 0v1085h280l242 -794h2l238 794h282v-1085h-202v729h-3q-3 -15 -10.5 -42t-15.5 -56t-16.5 -56.5t-12.5 -44.5l-178 -530h-180l-176 528q-4 18 -12.5 46t-17.5 57.5t-16.5 56t-9.5 41.5h-2v-729h-192z" />
    <glyph glyph-name="afii10079" unicode="&#x43d;" horiz-adv-x="1069" 
d="M119 0v1085h231v-423h369v423h231v-1085h-231v473h-369v-473h-231z" />
    <glyph glyph-name="afii10080" unicode="&#x43e;" horiz-adv-x="1040" 
d="M66 543q0 147 36.5 253.5t98.5 175.5t144.5 102.5t174.5 33.5q91 0 173.5 -33.5t144.5 -102.5t98.5 -175.5t36.5 -253.5q0 -145 -36.5 -251.5t-98.5 -176.5t-144.5 -104t-173.5 -34q-92 0 -174 34t-144.5 104t-99 176.5t-36.5 251.5zM299 543q0 -83 12 -152t38.5 -118.5
t68.5 -77t102 -27.5q113 0 166 97t53 278q0 82 -12.5 150t-38.5 116.5t-68 75t-100 26.5q-112 0 -166.5 -95.5t-54.5 -272.5z" />
    <glyph glyph-name="afii10081" unicode="&#x43f;" horiz-adv-x="1069" 
d="M119 0v1085h831v-1085h-231v899h-369v-899h-231z" />
    <glyph glyph-name="afii10082" unicode="&#x440;" horiz-adv-x="1067" 
d="M117 -410v1495h233v-133q24 31 53 59t65 49.5t79 34.5t94 13q79 0 145 -33.5t114 -102.5t74.5 -175t26.5 -252q0 -147 -28.5 -253t-78.5 -174.5t-118.5 -101t-148.5 -32.5q-94 0 -159 35.5t-118 101.5v-531h-233zM350 291q45 -56 99 -86.5t114 -30.5q48 0 85.5 21
t63.5 65.5t40 114.5t14 168q0 189 -54 277.5t-151 88.5q-28 0 -58.5 -12t-59 -30t-53 -40t-40.5 -41v-495z" />
    <glyph glyph-name="afii10083" unicode="&#x441;" horiz-adv-x="958" 
d="M66 543q0 150 38 257.5t100.5 175.5t143 100t166.5 32q91 0 156.5 -26.5t111.5 -73t75 -108.5t48 -132l-209 -51q-13 49 -29 85t-38.5 60t-51.5 35.5t-67 11.5q-45 0 -84 -20t-67 -64t-44 -113.5t-16 -168.5q0 -181 52.5 -277t158.5 -96q36 0 66.5 10t55 33.5t43.5 62
t32 95.5l202 -52q-20 -76 -54 -139t-83.5 -108t-116 -70t-151.5 -25q-88 0 -167.5 34t-139.5 104t-95.5 176.5t-35.5 251.5z" />
    <glyph glyph-name="afii10084" unicode="&#x442;" horiz-adv-x="922" 
d="M35 899v186h852v-186h-309v-899h-232v899h-311z" />
    <glyph glyph-name="afii10085" unicode="&#x443;" horiz-adv-x="958" 
d="M-2 -385l45 184q20 -5 59.5 -11.5t85.5 -6.5q31 0 53.5 8t39.5 24.5t30 42t25 60.5l22 72l-340 1097h242l135 -493q12 -45 23 -85.5t21 -80t19.5 -80.5t18.5 -86h4q11 46 21 88t20.5 83t21.5 83t23 88l135 483h226l-377 -1198q-24 -75 -52.5 -131.5t-67.5 -94
t-92.5 -56.5t-127.5 -19q-75 0 -129.5 10t-83.5 19z" />
    <glyph glyph-name="afii10086" unicode="&#x444;" horiz-adv-x="1628" 
d="M68 541q0 146 26 253t73 176.5t112 103.5t143 34q91 0 159.5 -39.5t116.5 -101.5v549h234v-564q21 29 49 57t62.5 50t76 35.5t90.5 13.5q77 0 141.5 -33.5t111 -102.5t72.5 -175t26 -252q0 -147 -26.5 -253t-73.5 -175t-112 -102t-143 -33q-90 0 -157.5 41.5
t-116.5 107.5v-541h-234v551q-23 -31 -51 -59.5t-62 -50.5t-75 -35.5t-90 -13.5q-78 0 -142.5 32.5t-111 100.5t-72.5 173.5t-26 252.5zM303 543q0 -191 50.5 -280t144.5 -89q61 0 109 34.5t91 84.5v495q-45 54 -94.5 88.5t-107.5 34.5q-46 0 -82 -21t-60.5 -65.5
t-37.5 -114.5t-13 -167zM932 293q48 -57 96 -89t107 -32q90 0 141 88t51 283q0 189 -51.5 277.5t-142.5 88.5q-32 0 -59.5 -10t-52.5 -27.5t-47 -39.5t-42 -46v-493z" />
    <glyph glyph-name="afii10087" unicode="&#x445;" horiz-adv-x="928" 
d="M25 0l323 563l-295 522h242l188 -348l174 348h224l-295 -514l321 -571h-239l-211 395l-209 -395h-223z" />
    <glyph glyph-name="afii10088" unicode="&#x446;" horiz-adv-x="1098" 
d="M119 0v1085h231v-897h369v897h231v-897h105v-598h-219v410h-717z" />
    <glyph glyph-name="afii10089" unicode="&#x447;" horiz-adv-x="1049" 
d="M98 606v479h234v-426q0 -80 28.5 -118.5t96.5 -38.5q34 0 69 13t67 32t59.5 41.5t45.5 40.5v456h234v-1085h-234v465q-24 -29 -58 -58.5t-77 -53t-93 -38t-105 -14.5q-125 0 -196 77t-71 228z" />
    <glyph glyph-name="afii10090" unicode="&#x448;" horiz-adv-x="1626" 
d="M119 0v1085h231v-897h350v897h234v-897h350v897h234v-1085h-1399z" />
    <glyph glyph-name="afii10091" unicode="&#x449;" horiz-adv-x="1663" 
d="M119 0v1085h231v-897h350v897h234v-897h350v897h234v-897h102v-598h-219v410h-1282z" />
    <glyph glyph-name="afii10092" unicode="&#x44a;" horiz-adv-x="1114" 
d="M16 899v186h476v-385h143q89 0 167 -15t136.5 -54t92.5 -107t34 -174q0 -101 -36 -168.5t-95 -108t-136 -57t-159 -16.5h-379v899h-244zM492 188h149q110 0 157.5 44t47.5 118q0 81 -48 118.5t-157 37.5h-149v-318z" />
    <glyph glyph-name="afii10093" unicode="&#x44b;" horiz-adv-x="1413" 
d="M1061 0v1085h233v-1085h-233zM119 0v1085h229v-385h144q89 0 167 -15t136.5 -54t92.5 -107t34 -174q0 -101 -36 -168.5t-95 -108t-136 -57t-159 -16.5h-377zM348 188h150q110 0 157 44t47 118q0 81 -47.5 118.5t-156.5 37.5h-150v-318z" />
    <glyph glyph-name="afii10094" unicode="&#x44c;" horiz-adv-x="973" 
d="M119 0v1085h229v-385h144q89 0 167 -15t136.5 -54t92.5 -107t34 -174q0 -101 -36 -168.5t-95 -108t-136 -57t-159 -16.5h-377zM348 188h150q110 0 157 44t47 118q0 81 -47.5 118.5t-156.5 37.5h-150v-318z" />
    <glyph glyph-name="afii10095" unicode="&#x44d;" horiz-adv-x="940" 
d="M874.004 543q0 150 -37.998 257.5q-37.9971 107.5 -100.493 175.5t-142.991 100t-166.49 32q-77.9951 0 -138.991 -23t-105.994 -63q-44.9971 -40 -76.4951 -95.5t-51.4971 -119.5l198.988 -55q21.999 77 63.9961 119t113.993 42q40.9971 0 77.4951 -16t64.9961 -50
t46.9971 -86t23.499 -124h-347.979v-164h349.979q-5.99902 -143 -62.4961 -224q-56.4961 -81 -152.49 -81q-68.9961 0 -114.993 39.5t-74.9951 126.5l-190.988 -62q22.998 -68 56.9961 -123t81.9951 -93t109.493 -58.5t138.492 -20.5q87.9941 0 167.489 34t139.491 104
q59.9971 70 95.4941 176.5q35.498 106.5 35.498 251.5z" />
    <glyph glyph-name="afii10096" unicode="&#x44e;" horiz-adv-x="1430" 
d="M119 0v1085h231v-423h156q15 114 54 198t95.5 139t127.5 82t149 27q87 0 165.5 -33.5t138 -102.5t94 -175.5t34.5 -253.5q0 -145 -34.5 -251.5t-94 -176.5t-138 -104t-165.5 -34q-82 0 -155.5 30.5t-131 92t-95.5 155t-48 218.5h-152v-473h-231zM731 543q0 -83 11 -153
t35.5 -121t62.5 -80t92 -29q50 0 87 26t62 75.5t37 120.5t12 161q0 83 -11 152.5t-35 120t-61.5 78.5t-90.5 28q-51 0 -88.5 -26t-62.5 -74.5t-37.5 -119t-12.5 -159.5z" />
    <glyph glyph-name="afii10097" unicode="&#x44f;" horiz-adv-x="1010" 
d="M78 0l205 410q-96 32 -145.5 108.5t-49.5 206.5q0 107 35.5 176.5t94 110.5t135 57t157.5 16h381v-1085h-227v375h-170l-179 -375h-237zM309 727q0 -84 46.5 -124t154.5 -40h154v332h-154q-109 0 -155 -43.5t-46 -124.5z" />
    <glyph glyph-name="afii10071" unicode="&#x451;" horiz-adv-x="987" 
d="M208 1194v233h211v-233h-211zM567 1194v233h209v-233h-209zM66 543q0 151 38.5 258t101 175.5t142 100t162.5 31.5q91 0 167 -34t130.5 -104t84.5 -178t30 -255v-64h-627q8 -155 67.5 -230t161.5 -75q43 0 78 10t64 29t55 46t51 62l148 -106q-31 -49 -73.5 -91.5
t-94.5 -73.5t-112 -49t-126 -18q-94 0 -175.5 33.5t-142 103t-95.5 176t-35 253.5zM297 637h408q-8 136 -55.5 206t-141.5 70q-38 0 -73.5 -14.5t-63.5 -47.5t-47.5 -85.5t-26.5 -128.5z" />
    <glyph glyph-name="afii10099" unicode="&#x452;" 
d="M12 1192v178h105v146h233v-146h197v-178h-197v-248q24 29 58.5 58.5t77.5 53t93 38t105 14.5q125 0 195.5 -76.5t70.5 -228.5v-938q0 -64 -12 -115t-43 -87t-84 -55.5t-135 -19.5q-12 0 -30.5 0.5t-37 2t-34 3t-19.5 3.5v176q9 -3 30.5 -4.5t35.5 -1.5q49 0 72.5 29
t23.5 91v863q0 80 -28.5 118.5t-96.5 38.5q-34 0 -69 -13t-67.5 -32t-60 -41.5t-45.5 -40.5v-780h-233v1192h-105z" />
    <glyph glyph-name="afii10100" unicode="&#x453;" horiz-adv-x="848" 
d="M360 1200l166 330h244l-250 -330h-160zM119 0v1085h688v-186h-457v-899h-231z" />
    <glyph glyph-name="afii10101" unicode="&#x454;" horiz-adv-x="940" 
d="M66 543q0 150 38 257.5t100.5 175.5t143 100t166.5 32q78 0 139 -23t106 -63t76.5 -95.5t51.5 -119.5l-199 -55q-22 77 -64 119t-114 42q-41 0 -77.5 -16t-65 -50t-47 -86t-23.5 -124h348v-164h-350q6 -143 62.5 -224t152.5 -81q69 0 115 39.5t75 126.5l191 -62
q-23 -68 -57 -123t-82 -93t-109.5 -58.5t-138.5 -20.5q-88 0 -167.5 34t-139.5 104t-95.5 176.5t-35.5 251.5z" />
    <glyph glyph-name="afii10102" unicode="&#x455;" horiz-adv-x="922" 
d="M20 188l144 121q60 -74 139.5 -112.5t161.5 -38.5q83 0 130.5 30t47.5 93q0 44 -24 73.5t-63 50.5t-89 37.5t-102.5 35.5t-102.5 43.5t-89 61t-63 89t-24 127.5q0 73 29 130.5t79 97.5t118.5 60.5t146.5 20.5q57 0 112 -12.5t104 -36.5t91.5 -58t75.5 -77l-140 -127
q-22 26 -49.5 49t-58.5 40.5t-65.5 27.5t-71.5 10q-75 0 -112.5 -29.5t-37.5 -83.5q0 -44 24 -72.5t63 -49.5t88.5 -37.5t102 -35t102 -42.5t88.5 -61t63 -89.5t24 -128.5t-32 -135.5t-87 -100t-128 -61.5t-154 -21q-75 0 -139.5 15t-120 43t-100.5 66.5t-81 86.5z" />
    <glyph glyph-name="afii10103" unicode="&#x456;" horiz-adv-x="489" 
d="M127 0v1085h233v-1085h-233zM127 1264v219h235v-219h-235z" />
    <glyph glyph-name="afii10104" unicode="&#x457;" horiz-adv-x="489" 
d="M-38 1194v233h211v-233h-211zM321 1194v233h209v-233h-209zM127 0v1085h233v-1085h-233z" />
    <glyph glyph-name="afii10105" unicode="&#x458;" horiz-adv-x="489" 
d="M-35 -227q9 -3 30.5 -4.5t35.5 -1.5q49 0 72.5 29t23.5 91v1198h233v-1220q0 -64 -12 -115t-43 -87t-84 -55.5t-135 -19.5q-12 0 -30.5 0.5t-37 2t-34 3t-19.5 3.5v176zM127 1264v219h235v-219h-235z" />
    <glyph glyph-name="afii10106" unicode="&#x459;" horiz-adv-x="1114" 
d="M23 2v186q48 0 79 6t48 22.5t23.5 46t6.5 77.5v745h813v-385h144q89 0 167 -15t136.5 -54t92.5 -107t34 -174q0 -101 -36 -168.5t-95 -108t-136 -57t-159 -16.5h-377v899h-352v-563q0 -115 -30 -181.5t-82.5 -100t-123.5 -42.5t-153 -10zM993 188h150q110 0 157.5 44
t47.5 118q0 81 -48 118.5t-157 37.5h-150v-318z" />
    <glyph glyph-name="afii10107" unicode="&#x45a;" horiz-adv-x="1069" 
d="M119 0v1085h231v-395h369v395h229v-395h144q89 0 167 -14t136.5 -52t92.5 -105t34 -173q0 -101 -36 -168t-95 -106.5t-136 -55.5t-159 -16h-377v496h-369v-496h-231zM948 188h150q110 0 157.5 42t47.5 116q0 80 -48 115t-157 35h-150v-308z" />
    <glyph glyph-name="afii10108" unicode="&#x45b;" 
d="M12 1192v178h105v146h233v-146h197v-178h-197v-248q24 29 58.5 58.5t77.5 53t93 38t105 14.5q125 0 195.5 -76.5t70.5 -228.5v-803h-233v750q0 80 -28.5 118.5t-96.5 38.5q-34 0 -69 -13t-67.5 -32t-60 -41.5t-45.5 -40.5v-780h-233v1192h-105z" />
    <glyph glyph-name="afii10109" unicode="&#x45c;" horiz-adv-x="979" 
d="M424 1198l166 330h244l-250 -330h-160zM116 0v1085h231v-497q8 16 21.5 38.5t30.5 48t36 52.5t37 53l209 305h238l-289 -399l319 -686h-237l-228 496l-137 -185v-311h-231z" />
    <glyph glyph-name="afii10110" unicode="&#x45e;" horiz-adv-x="958" 
d="M-2 -385l45 184q20 -5 59.5 -11.5t85.5 -6.5q31 0 53.5 8t39.5 24.5t30 42t25 60.5l22 72l-340 1097h242l135 -493q12 -45 23 -85.5t21 -80t19.5 -80.5t18.5 -86h4q11 46 21 88t20.5 83t21.5 83t23 88l135 483h226l-377 -1198q-24 -75 -52.5 -131.5t-67.5 -94
t-92.5 -56.5t-127.5 -19q-75 0 -129.5 10t-83.5 19zM188 1536h137q6 -54 19.5 -91t33.5 -60t46 -33.5t57 -10.5t56.5 10.5t45.5 33.5t33 60t19 91h137q-4 -79 -23 -143.5t-55 -110.5t-89 -71t-124 -25t-124.5 25t-89.5 71t-55.5 110.5t-23.5 143.5z" />
    <glyph glyph-name="afii10193" unicode="&#x45f;" horiz-adv-x="1069" 
d="M119 0v1085h231v-897h369v897h231v-1085h-299v-412h-233v412h-299z" />
    <glyph glyph-name="afii10050" unicode="&#x490;" horiz-adv-x="1020" 
d="M141 0v1516h568v256h239v-480h-565v-1292h-242z" />
    <glyph glyph-name="afii10098" unicode="&#x491;" horiz-adv-x="848" 
d="M119 0v1085h459v338h229v-534h-457v-889h-231z" />
    <glyph glyph-name="Wgrave" unicode="&#x1e80;" horiz-adv-x="1624" 
d="M45 1516h231l142 -695q12 -56 21.5 -103t18.5 -95t18.5 -102.5t21.5 -125.5h4q10 70 19.5 124t18.5 102.5t18.5 95.5t21.5 104l133 695h215l139 -711q11 -54 20.5 -101.5t18.5 -95.5t17.5 -100t17.5 -113h4q9 59 18 110t18 99t19 96.5t21 102.5l143 713h213l-338 -1522
h-207l-217 1110h-4l-219 -1110h-209zM492 1938h245l164 -330h-159z" />
    <glyph glyph-name="wgrave" unicode="&#x1e81;" horiz-adv-x="1337" 
d="M20 1085h228l104 -454q9 -39 17 -73t15 -69.5t14 -75.5t16 -91h4q8 51 15.5 91t15 76t15.5 70.5t17 75.5l101 450h198l101 -444q9 -41 17.5 -78t16.5 -74.5t15.5 -78t15.5 -88.5h4q8 49 15.5 89.5t15 77.5t15 73t16.5 77l102 446h203l-266 -1089h-209l-170 749h-4
l-174 -749h-207zM351 1528h245l164 -330h-159z" />
    <glyph glyph-name="Wacute" unicode="&#x1e82;" horiz-adv-x="1624" 
d="M746 1608l166 330h244l-250 -330h-160zM45 1516h231l142 -695q12 -56 21.5 -103t18.5 -95t18.5 -102.5t21.5 -125.5h4q10 70 19.5 124t18.5 102.5t18.5 95.5t21.5 104l133 695h215l139 -711q11 -54 20.5 -101.5t18.5 -95.5t17.5 -100t17.5 -113h4q9 59 18 110t18 99
t19 96.5t21 102.5l143 713h213l-338 -1522h-207l-217 1110h-4l-219 -1110h-209z" />
    <glyph glyph-name="wacute" unicode="&#x1e83;" horiz-adv-x="1337" 
d="M604 1198l166 330h244l-250 -330h-160zM20 1085h228l104 -454q9 -39 17 -73t15 -69.5t14 -75.5t16 -91h4q8 51 15.5 91t15 76t15.5 70.5t17 75.5l101 450h198l101 -444q9 -41 17.5 -78t16.5 -74.5t15.5 -78t15.5 -88.5h4q8 49 15.5 89.5t15 77.5t15 73t16.5 77l102 446
h203l-266 -1089h-209l-170 749h-4l-174 -749h-207z" />
    <glyph glyph-name="Wdieresis" unicode="&#x1e84;" horiz-adv-x="1624" 
d="M536 1604v233h211v-233h-211zM895 1604v233h209v-233h-209zM45 1516h231l142 -695q12 -56 21.5 -103t18.5 -95t18.5 -102.5t21.5 -125.5h4q10 70 19.5 124t18.5 102.5t18.5 95.5t21.5 104l133 695h215l139 -711q11 -54 20.5 -101.5t18.5 -95.5t17.5 -100t17.5 -113h4
q9 59 18 110t18 99t19 96.5t21 102.5l143 713h213l-338 -1522h-207l-217 1110h-4l-219 -1110h-209z" />
    <glyph glyph-name="wdieresis" unicode="&#x1e85;" horiz-adv-x="1337" 
d="M391 1194v233h211v-233h-211zM750 1194v233h209v-233h-209zM20 1085h228l104 -454q9 -39 17 -73t15 -69.5t14 -75.5t16 -91h4q8 51 15.5 91t15 76t15.5 70.5t17 75.5l101 450h198l101 -444q9 -41 17.5 -78t16.5 -74.5t15.5 -78t15.5 -88.5h4q8 49 15.5 89.5t15 77.5
t15 73t16.5 77l102 446h203l-266 -1089h-209l-170 749h-4l-174 -749h-207z" />
    <glyph glyph-name="Ygrave" unicode="&#x1ef2;" horiz-adv-x="1128" 
d="M18 1516h248l301 -687h4l301 687h236l-424 -904v-612h-242v610zM277 1938h245l164 -330h-159z" />
    <glyph glyph-name="ygrave" unicode="&#x1ef3;" horiz-adv-x="958" 
d="M-2 -385l45 184q20 -5 59.5 -11.5t85.5 -6.5q31 0 53.5 8t39.5 24.5t30 42t25 60.5l22 72l-340 1097h242l135 -493q12 -45 23 -85.5t21 -80t19.5 -80.5t18.5 -86h4q11 46 21 88t20.5 83t21.5 83t23 88l135 483h226l-377 -1198q-24 -75 -52.5 -131.5t-67.5 -94
t-92.5 -56.5t-127.5 -19q-75 0 -129.5 10t-83.5 19zM192 1528h245l164 -330h-159z" />
    <glyph glyph-name="uni2002" unicode="&#x2002;" horiz-adv-x="1024" 
 />
    <glyph glyph-name="uni2003" unicode="&#x2003;" horiz-adv-x="2048" 
 />
    <glyph glyph-name="uni2007" unicode="&#x2007;" horiz-adv-x="1155" 
 />
    <glyph glyph-name="uni2009" unicode="&#x2009;" horiz-adv-x="410" 
 />
    <glyph glyph-name="figuredash" unicode="&#x2012;" horiz-adv-x="1157" 
d="M106 539v200h947v-200h-947z" />
    <glyph glyph-name="endash" unicode="&#x2013;" horiz-adv-x="1165" 
d="M96 537v202h971v-202h-971z" />
    <glyph glyph-name="emdash" unicode="&#x2014;" horiz-adv-x="1573" 
d="M94 537v202h1383v-202h-1383z" />
    <glyph glyph-name="afii00208" unicode="&#x2015;" horiz-adv-x="2048" 
d="M0 545v178h2048v-178h-2048z" />
    <glyph glyph-name="quoteleft" unicode="&#x2018;" horiz-adv-x="498" 
d="M125 1024v244l119 248h110l-71 -230h88v-262h-246z" />
    <glyph glyph-name="quoteright" unicode="&#x2019;" horiz-adv-x="498" 
d="M125 1253v263h246v-244l-117 -248h-111l72 229h-90z" />
    <glyph glyph-name="quotesinglbase" unicode="&#x201a;" horiz-adv-x="498" 
d="M125 0v262h246v-244l-117 -247h-111l72 229h-90z" />
    <glyph glyph-name="quotedblleft" unicode="&#x201c;" horiz-adv-x="899" 
d="M125 1024v244l119 248h110l-71 -230h88v-262h-246zM528 1024v244l117 248h109l-70 -230h88v-262h-244z" />
    <glyph glyph-name="quotedblright" unicode="&#x201d;" horiz-adv-x="899" 
d="M125 1253v263h246v-244l-117 -248h-111l72 229h-90zM528 1253v263h244v-244l-117 -248h-110l71 229h-88z" />
    <glyph glyph-name="quotedblbase" unicode="&#x201e;" horiz-adv-x="899" 
d="M125 0v262h246v-244l-117 -247h-111l72 229h-90zM528 0v262h244v-244l-117 -247h-110l71 229h-88z" />
    <glyph glyph-name="dagger" unicode="&#x2020;" horiz-adv-x="1034" 
d="M68 786v215l362 -26l-37 541h246l-35 -541l363 26v-215l-363 25l35 -1221h-246l37 1221z" />
    <glyph glyph-name="daggerdbl" unicode="&#x2021;" horiz-adv-x="1032" 
d="M88 18v209l342 -26l-29 356l29 348l-342 -24v209l342 -27l-37 453h246l-37 -453l342 27v-209l-342 24l31 -348l-31 -356l342 26v-209l-342 27l37 -455h-246l37 455z" />
    <glyph glyph-name="bullet" unicode="&#x2022;" horiz-adv-x="948" 
d="M221 717q0 55 19 101.5t52.5 80.5t80 53t100.5 19q55 0 102 -19t80.5 -53t52.5 -80.5t19 -101.5t-19 -101t-52.5 -79.5t-80.5 -52.5t-102 -19q-54 0 -100.5 19t-80 52.5t-52.5 79.5t-19 101z" />
    <glyph glyph-name="ellipsis" unicode="&#x2026;" horiz-adv-x="1481" 
d="M121 0v262h250v-262h-250zM614 0v262h250v-262h-250zM1108 0v262h250v-262h-250z" />
    <glyph glyph-name="perthousand" unicode="&#x2030;" horiz-adv-x="2521" 
d="M72 1059q0 236 85 357.5t240 121.5q156 0 240 -120.5t84 -358.5t-84 -358.5t-240 -120.5t-240.5 120.5t-84.5 358.5zM268 1059q0 -81 7.5 -138t23 -94t40 -54t58.5 -17q36 0 60.5 17.5t39.5 54t22 94t7 137.5t-7.5 137t-23.5 93.5t-40 53.5t-58 17q-35 0 -59.5 -17
t-40 -53t-22.5 -93t-7 -138zM416 0l770 1516h196l-770 -1516h-196zM1079 461q0 236 85 356.5t241 120.5q155 0 238 -120.5t83 -356.5q0 -238 -83 -358.5t-238 -120.5q-156 0 -241 120.5t-85 358.5zM1274 461q0 -161 31 -233t100 -72q70 0 99.5 72t29.5 233q0 158 -31 228.5
t-98 70.5q-36 0 -61 -17t-40.5 -53t-22.5 -92.5t-7 -136.5zM1800 461q0 236 85 356.5t241 120.5q155 0 238 -120.5t83 -356.5q0 -238 -83 -358.5t-238 -120.5q-156 0 -241 120.5t-85 358.5zM1995 461q0 -161 31 -233t100 -72q70 0 99.5 72t29.5 233q0 158 -31 228.5
t-98 70.5q-36 0 -61 -17t-40.5 -53t-22.5 -92.5t-7 -136.5z" />
    <glyph glyph-name="minute" unicode="&#x2032;" horiz-adv-x="451" 
d="M102 985l41 412l21 119h211l-121 -531h-152z" />
    <glyph glyph-name="second" unicode="&#x2033;" horiz-adv-x="793" 
d="M102 985l41 412l21 119h209l-121 -531h-150zM449 985l43 412l20 119h207l-121 -531h-149z" />
    <glyph glyph-name="guilsinglleft" unicode="&#x2039;" horiz-adv-x="606" 
d="M49 543l264 540h224l-256 -540l256 -543h-224z" />
    <glyph glyph-name="guilsinglright" unicode="&#x203a;" horiz-adv-x="606" 
d="M68 0l258 543l-258 540h223l266 -540l-266 -543h-223z" />
    <glyph glyph-name="uni2215" unicode="&#x2044;" horiz-adv-x="936" 
d="M-14 0l753 1516h211l-753 -1516h-211z" />
    <glyph glyph-name="uni2215" unicode="&#x2215;" horiz-adv-x="936" 
d="M-14 0l753 1516h211l-753 -1516h-211z" />
    <glyph glyph-name="uni2070" unicode="&#x2070;" horiz-adv-x="883" 
d="M106 1053q0 118 23 208t66.5 150.5t106 91.5t140.5 31q79 0 141.5 -31t105.5 -91.5t66 -150.5t23 -208q0 -119 -23 -208.5t-66 -150t-105.5 -91t-141.5 -30.5q-78 0 -140.5 30.5t-106 91t-66.5 150t-23 208.5zM297 1053q0 -165 34 -242.5t111 -77.5q80 0 113 78t33 242
q0 165 -34 241t-112 76t-111.5 -76.5t-33.5 -240.5z" />
    <glyph glyph-name="uni2074" unicode="&#x2074;" horiz-adv-x="799" 
d="M68 793v127l346 596h190v-568h121v-155h-121v-201h-182v201h-354zM242 940h190v338z" />
    <glyph glyph-name="uni2075" unicode="&#x2075;" horiz-adv-x="793" 
d="M74 768l141 78q15 -29 31 -51t36.5 -36.5t45.5 -22t57 -7.5q37 0 61.5 12.5t39.5 35.5t21.5 55.5t6.5 72.5q0 78 -26 120t-91 42q-46 0 -73.5 -19t-49.5 -53l-145 25l31 496h491l-10 -158h-338l-13 -203q28 23 69.5 37t89.5 14q58 0 104.5 -18.5t79 -56t50 -95.5
t17.5 -137q0 -81 -21 -142t-61 -102t-96.5 -61.5t-128.5 -20.5q-67 0 -117 13.5t-88 39t-65.5 61.5t-48.5 81z" />
    <glyph glyph-name="uni2076" unicode="&#x2076;" horiz-adv-x="823" 
d="M106 1042q0 119 20 211t61 154.5t105 94.5t152 32q55 0 97.5 -13t74.5 -34t55 -48.5t40 -56.5l-144 -84q-21 34 -50.5 59t-76.5 25q-39 0 -66.5 -14.5t-46 -46.5t-28 -82.5t-12.5 -122.5q42 35 90 57.5t102 22.5q67 0 114.5 -22t77.5 -61.5t44 -96t14 -125.5
q0 -68 -21 -126.5t-60.5 -101t-95.5 -66.5t-126 -24q-157 0 -238.5 116.5t-81.5 352.5zM289 971q8 -124 40.5 -185t100.5 -61q59 0 91 41t32 123q0 74 -27 117t-90 43q-47 0 -79.5 -20t-67.5 -58z" />
    <glyph glyph-name="uni2077" unicode="&#x2077;" horiz-adv-x="715" 
d="M90 1358v158h551v-150l-311 -774h-191l312 766h-361z" />
    <glyph glyph-name="uni2078" unicode="&#x2078;" horiz-adv-x="819" 
d="M90 821q0 45 13.5 82t37 68t55.5 56t70 46q-32 20 -58 41.5t-44 48.5t-27.5 60t-9.5 77q0 47 18.5 89.5t54.5 74.5t88.5 51t121.5 19q70 0 122.5 -17t88 -48t53.5 -74t18 -95q0 -41 -9.5 -73.5t-27.5 -58.5t-44 -48t-58 -43q39 -21 71 -44t55 -52.5t35.5 -68.5t12.5 -91
q0 -54 -21.5 -99.5t-62 -78.5t-99.5 -51.5t-134 -18.5q-77 0 -136.5 18t-100.5 51t-62 78.5t-21 100.5zM270 836q0 -56 36.5 -91.5t101.5 -35.5q63 0 99 35t36 92q0 29 -10 51.5t-29 41.5t-46 36.5t-61 35.5q-60 -35 -93.5 -72.5t-33.5 -92.5zM307 1288q0 -53 29.5 -83.5
t83.5 -59.5q50 29 74 60.5t24 78.5q0 21 -5 41t-17 35t-32 24t-50 9q-29 0 -49 -8.5t-33 -23t-19 -33.5t-6 -40z" />
    <glyph glyph-name="uni2079" unicode="&#x2079;" horiz-adv-x="823" 
d="M94 1217q0 68 21.5 126t61 100.5t96 66.5t126.5 24q157 0 237.5 -116.5t80.5 -352.5q0 -238 -80 -365t-256 -127q-56 0 -98 13t-73.5 34t-54.5 48.5t-40 56.5l141 84q23 -34 52.5 -59t76.5 -25q38 0 65.5 15t45.5 47t28 82.5t13 121.5q-42 -35 -90.5 -57.5t-102.5 -22.5
q-68 0 -115.5 22t-77.5 62t-43.5 96.5t-13.5 125.5zM272 1212q0 -37 6 -66.5t20 -50t36.5 -31.5t54.5 -11q48 0 80 20.5t68 59.5q-8 123 -42 184t-102 61q-57 0 -89 -42t-32 -124z" />
    <glyph glyph-name="uni2080" unicode="&#x2080;" horiz-adv-x="883" 
d="M106 55q0 118 23 208t66.5 150.5t106 91.5t140.5 31q79 0 141.5 -31t105.5 -91.5t66 -150.5t23 -208q0 -119 -23 -208.5t-66 -150t-105.5 -91t-141.5 -30.5q-78 0 -140.5 30.5t-106 91t-66.5 150t-23 208.5zM297 55q0 -165 34 -242.5t111 -77.5q80 0 113 78t33 242
q0 165 -34 241t-112 76t-111.5 -76.5t-33.5 -240.5z" />
    <glyph glyph-name="uni2081" unicode="&#x2081;" horiz-adv-x="637" 
d="M99 -406v160h138v569q-26 -11 -60 -18t-76 -7v162q57 3 93.5 16.5t64.5 41.5h170v-764h121v-160h-451z" />
    <glyph glyph-name="uni2082" unicode="&#x2082;" horiz-adv-x="743" 
d="M74 -402v47q0 94 30 161.5t74.5 118.5t97 91.5t97 79t74.5 80.5t30 98q0 49 -23 76.5t-71 27.5t-83 -38.5t-64 -112.5l-160 67q23 59 52 104.5t67 76t86 46t108 15.5q130 0 201.5 -68.5t71.5 -193.5q0 -67 -26 -119t-66 -94.5t-87 -78.5t-88 -71t-70.5 -71.5t-33.5 -79.5
h368v-162h-585z" />
    <glyph glyph-name="uni2083" unicode="&#x2083;" horiz-adv-x="764" 
d="M53 -185l146 72q32 -79 74 -112.5t98 -33.5q65 0 98 37t33 94q0 82 -45 118t-144 36h-43v119h58q85 0 120 34.5t35 94.5q0 43 -24.5 73.5t-77.5 30.5q-51 0 -91.5 -26.5t-78.5 -77.5l-127 92q119 174 309 174q65 0 115.5 -18.5t84.5 -51t51.5 -76.5t17.5 -96
q0 -71 -32 -122t-95 -82q74 -32 109.5 -87.5t35.5 -140.5q0 -65 -22 -116.5t-62 -88t-96.5 -56t-124.5 -19.5q-120 0 -198.5 59.5t-123.5 169.5z" />
    <glyph glyph-name="uni2084" unicode="&#x2084;" horiz-adv-x="799" 
d="M68 -205v127l346 596h190v-568h121v-155h-121v-201h-182v201h-354zM242 -58h190v338z" />
    <glyph glyph-name="uni2085" unicode="&#x2085;" horiz-adv-x="793" 
d="M74 -230l141 78q15 -29 31 -51t36.5 -36.5t45.5 -22t57 -7.5q37 0 61.5 12.5t39.5 35.5t21.5 55.5t6.5 72.5q0 78 -26 120t-91 42q-46 0 -73.5 -19t-49.5 -53l-145 25l31 496h491l-10 -158h-338l-13 -203q28 23 69.5 37t89.5 14q58 0 104.5 -18.5t79 -56t50 -95.5
t17.5 -137q0 -81 -21 -142t-61 -102t-96.5 -61.5t-128.5 -20.5q-67 0 -117 13.5t-88 39t-65.5 61.5t-48.5 81z" />
    <glyph glyph-name="uni2086" unicode="&#x2086;" horiz-adv-x="823" 
d="M106 44q0 119 20 211t61 154.5t105 94.5t152 32q55 0 97.5 -13t74.5 -34t55 -48.5t40 -56.5l-144 -84q-21 34 -50.5 59t-76.5 25q-39 0 -66.5 -14.5t-46 -46.5t-28 -82.5t-12.5 -122.5q42 35 90 57.5t102 22.5q67 0 114.5 -22t77.5 -61.5t44 -96t14 -125.5
q0 -68 -21 -126.5t-60.5 -101t-95.5 -66.5t-126 -24q-157 0 -238.5 116.5t-81.5 352.5zM289 -27q8 -124 40.5 -185t100.5 -61q59 0 91 41t32 123q0 74 -27 117t-90 43q-47 0 -79.5 -20t-67.5 -58z" />
    <glyph glyph-name="uni2087" unicode="&#x2087;" horiz-adv-x="715" 
d="M90 360v158h551v-150l-311 -774h-191l312 766h-361z" />
    <glyph glyph-name="uni2088" unicode="&#x2088;" horiz-adv-x="819" 
d="M90 -177q0 45 13.5 82t37 68t55.5 56t70 46q-32 20 -58 41.5t-44 48.5t-27.5 60t-9.5 77q0 47 18.5 89.5t54.5 74.5t88.5 51t121.5 19q70 0 122.5 -17t88 -48t53.5 -74t18 -95q0 -41 -9.5 -73.5t-27.5 -58.5t-44 -48t-58 -43q39 -21 71 -44t55 -52.5t35.5 -68.5t12.5 -91
q0 -54 -21.5 -99.5t-62 -78.5t-99.5 -51.5t-134 -18.5q-77 0 -136.5 18t-100.5 51t-62 78.5t-21 100.5zM270 -162q0 -56 36.5 -91.5t101.5 -35.5q63 0 99 35t36 92q0 29 -10 51.5t-29 41.5t-46 36.5t-61 35.5q-60 -35 -93.5 -72.5t-33.5 -92.5zM307 290q0 -53 29.5 -83.5
t83.5 -59.5q50 29 74 60.5t24 78.5q0 21 -5 41t-17 35t-32 24t-50 9q-29 0 -49 -8.5t-33 -23t-19 -33.5t-6 -40z" />
    <glyph glyph-name="uni2089" unicode="&#x2089;" horiz-adv-x="823" 
d="M94 219q0 68 21.5 126t61 100.5t96 66.5t126.5 24q157 0 237.5 -116.5t80.5 -352.5q0 -238 -80 -365t-256 -127q-56 0 -98 13t-73.5 34t-54.5 48.5t-40 56.5l141 84q23 -34 52.5 -59t76.5 -25q38 0 65.5 15t45.5 47t28 82.5t13 121.5q-42 -35 -90.5 -57.5t-102.5 -22.5
q-68 0 -115.5 22t-77.5 62t-43.5 96.5t-13.5 125.5zM272 214q0 -37 6 -66.5t20 -50t36.5 -31.5t54.5 -11q48 0 80 20.5t68 59.5q-8 123 -42 184t-102 61q-57 0 -89 -42t-32 -124z" />
    <glyph glyph-name="Euro" unicode="&#x20ac;" horiz-adv-x="1264" 
d="M33 512v170h190q-2 20 -2 40v40v61h-188v170h203q19 144 62.5 248.5t107 171.5t145.5 99t178 32q100 0 178 -32t135 -91t93.5 -142t52.5 -185l-221 -37q-11 62 -28.5 112.5t-45.5 86.5t-67.5 55.5t-94.5 19.5q-109 0 -174 -83t-88 -255h324v-170h-338v-59v-42
q0 -20 2 -40h336v-170h-324q22 -168 86 -250t182 -82q103 0 163.5 71t86.5 218l217 -29q-16 -98 -54 -183.5t-96.5 -149t-138 -100t-178.5 -36.5q-98 0 -181 31t-147 97t-107.5 168.5t-63.5 244.5h-205z" />
    <glyph glyph-name="afii61289" unicode="&#x2113;" horiz-adv-x="1104" 
d="M131 516l184 162v455q0 82 20.5 153.5t61.5 125t102.5 84t143.5 30.5q72 0 122.5 -24t82.5 -61.5t46.5 -85t14.5 -93.5q0 -83 -22 -154t-61 -134.5t-91.5 -122t-113.5 -116.5l-54 -63v-297q0 -48 9.5 -80.5t27 -52.5t42 -28.5t54.5 -8.5q50 0 85 22t61 49l88 -118
q-21 -23 -51 -51t-70.5 -52t-92 -40.5t-114.5 -16.5q-81 0 -136.5 23.5t-89.5 67.5t-49 107t-16 142v145l-110 -104zM567 868q3 4 14.5 18.5t25 31t25 30.5t13.5 17q45 62 75 133.5t30 142.5q0 54 -20 85.5t-60 31.5q-53 0 -78 -50.5t-25 -168.5v-271z" />
    <glyph glyph-name="afii61352" unicode="&#x2116;" horiz-adv-x="2025" 
d="M141 0v1516h260l412 -805q19 -37 34.5 -67.5t30 -60.5t30 -62.5t34.5 -74.5h4v1070h219v-1516h-223l-450 856q-19 36 -34 65t-29 57.5t-29.5 60t-34.5 73.5h-5v-1112h-219zM1307 1145q0 103 25.5 178.5t69.5 124.5t102.5 72.5t123.5 23.5t123.5 -23.5t102.5 -72.5
t70 -124.5t26 -178.5t-26 -178.5t-70 -124.5t-102.5 -73t-123.5 -24t-123 24t-102 73t-70 124.5t-26 178.5zM1341 459v170h580v-170h-580zM1479 1145q0 -58 8 -106.5t26 -83.5t46 -54.5t69 -19.5q79 0 114.5 69.5t35.5 194.5q0 57 -8.5 104t-26.5 81.5t-46.5 53.5t-68.5 19
q-77 0 -113 -68t-36 -190z" />
    <glyph glyph-name="uni2117" unicode="&#x2117;" horiz-adv-x="1468" 
d="M76 756q0 110 22.5 211t64.5 188.5t101 159.5t132.5 122.5t159 78.5t179.5 28q142 0 262.5 -60.5t208.5 -166.5t137.5 -249t49.5 -308q0 -110 -22.5 -211.5t-64.5 -189t-101.5 -159.5t-133 -122.5t-159 -78.5t-179.5 -28q-142 0 -262.5 60.5t-208 166.5t-137 249.5
t-49.5 308.5zM199 760q0 -142 40 -265.5t111.5 -214.5t169.5 -143.5t215 -52.5t215 51.5t169.5 142t111 213.5t39.5 265q0 95 -18 182t-52 162t-82 136t-107.5 104.5t-129.5 67.5t-148 24q-117 0 -215 -51.5t-169 -142t-110.5 -213.5t-39.5 -265zM498 326v858h268
q64 0 115.5 -15t87.5 -47t55.5 -81.5t19.5 -118.5q0 -74 -21 -125.5t-58.5 -84t-91 -47t-117.5 -14.5h-103v-325h-155zM653 788h109q62 0 95.5 28t33.5 99t-34 99t-97 28h-107v-254z" />
    <glyph glyph-name="trademark" unicode="&#x2122;" horiz-adv-x="1573" 
d="M49 1368v148h574v-148h-207v-727h-162v727h-205zM725 641v875h211l166 -637l166 637h211v-875h-156v604l-160 -604h-133l-162 604v-604h-143z" />
    <glyph glyph-name="uni2126" unicode="&#x2126;" horiz-adv-x="1333" 
d="M100 831q0 163 42.5 295t118.5 225t180 143t227 50t227 -51t179 -144t117 -224.5t42 -293.5q0 -122 -29.5 -222t-71.5 -177.5t-88 -131.5t-79 -83h262v-217h-475v199q32 30 73.5 82.5t78 128t62 174.5t25.5 221q0 113 -20.5 207.5t-61 162.5t-101 106t-140.5 38
q-78 0 -138.5 -36.5t-102 -103.5t-63.5 -161.5t-22 -210.5q0 -124 25.5 -223t62.5 -174.5t79 -128t75 -82.5v-199h-475v217h262q-33 28 -79.5 82t-89 131.5t-72.5 178t-30 222.5z" />
    <glyph glyph-name="estimated" unicode="&#x212e;" horiz-adv-x="1427" 
d="M78 653q0 141 44 264.5t126.5 215.5t201.5 145t269 53t268.5 -54t200.5 -147t126 -216.5t46 -262.5h-1004v-450q146 -146 357 -146q92 0 163.5 22t129 62t104 94t88.5 119l76 -47q-47 -73 -101 -133.5t-121.5 -104t-150.5 -68t-188 -24.5q-144 0 -261.5 54t-200.5 147
t-128 216t-45 261zM356 733h719v373q-34 31 -75 58t-86.5 46t-95.5 30t-101 11q-105 0 -196.5 -36.5t-164.5 -108.5v-373z" />
    <glyph glyph-name="partialdiff" unicode="&#x2202;" horiz-adv-x="1038" 
d="M66 516q0 130 31 228t86 164t130.5 99t165.5 33q37 0 75 -9t72.5 -26.5t64 -44.5t50.5 -63q-15 79 -47 151t-76.5 137t-100 123t-116.5 109l125 131q121 -88 206 -190.5t138 -224t77 -264t24 -310.5q0 -144 -33 -253t-92.5 -182t-142.5 -110t-183 -37q-102 0 -185.5 36.5
t-143.5 106t-92.5 169.5t-32.5 227zM299 518q0 -82 13.5 -147.5t41 -111t69 -69.5t97.5 -24q107 0 163 91.5t56 262.5q0 81 -14 145.5t-41.5 109.5t-68.5 69t-95 24q-106 0 -163.5 -87.5t-57.5 -262.5z" />
    <glyph glyph-name="uni2206" unicode="&#x2206;" horiz-adv-x="1194" 
d="M39 0l442 1522h232l442 -1522h-1116zM317 190h545l-155 572q-18 63 -33.5 119t-29.5 108.5t-26 103.5t-24 105h-4q-12 -54 -25 -105t-27 -102.5t-29.5 -106.5t-33.5 -118z" />
    <glyph glyph-name="product" unicode="&#x220f;" horiz-adv-x="1288" 
d="M141 -410v1926h1006v-1926h-242v1702h-522v-1702h-242z" />
    <glyph glyph-name="summation" unicode="&#x2211;" horiz-adv-x="1049" 
d="M57 -217l373 799l-340 737v197h887v-224h-604l325 -710l-354 -775h641v-217h-928v193z" />
    <glyph glyph-name="minus" unicode="&#x2212;" horiz-adv-x="1126" 
d="M104 590v194h918v-194h-918z" />
    <glyph glyph-name="radical" unicode="&#x221a;" horiz-adv-x="1053" 
d="M16 1085h236l147 -548q9 -36 17.5 -69t17 -67.5t17.5 -72.5t20 -86h4q10 47 18.5 85t17 72t17 67t17.5 69l272 981h219l-448 -1520h-248z" />
    <glyph glyph-name="infinity" unicode="&#x221e;" horiz-adv-x="1366" 
d="M51 735q0 189 82.5 288t237.5 99q99 0 175 -57.5t136 -163.5q62 106 139 163.5t176 57.5q156 0 238 -99t82 -288q0 -190 -82 -287.5t-238 -97.5q-99 0 -176 59.5t-139 165.5q-60 -106 -136 -165.5t-175 -59.5q-155 0 -237.5 97.5t-82.5 287.5zM229 735q0 -99 40 -151
t112 -52q39 0 69.5 17t56 45t47 64.5t42.5 76.5q-21 40 -42.5 77.5t-47 66t-56 46t-69.5 17.5q-72 0 -112 -53.5t-40 -153.5zM772 737q20 -40 41.5 -77t47.5 -65.5t57 -45.5t69 -17q75 0 113.5 52t38.5 151q0 100 -38.5 153.5t-113.5 53.5q-38 0 -69 -17t-57 -45.5
t-47.5 -65.5t-41.5 -77z" />
    <glyph glyph-name="integral" unicode="&#x222b;" horiz-adv-x="659" 
d="M33 -233q8 -2 28.5 -4.5t34.5 -2.5q51 0 75 29.5t24 91.5v1338q0 67 15 122.5t52 95.5t98.5 61.5t153.5 21.5q15 0 34.5 -0.5t37.5 -1.5t31 -2.5t16 -2.5v-178q-3 1 -12 1.5t-20 1t-21.5 1t-16.5 0.5q-29 0 -54 -5.5t-43.5 -19.5t-29 -38.5t-10.5 -63.5v-1347
q0 -65 -12 -116t-43 -87t-84 -55t-135 -19q-12 0 -30.5 0.5t-37 1.5t-33 2t-18.5 2v173z" />
    <glyph glyph-name="approxequal" unicode="&#x2248;" horiz-adv-x="1192" 
d="M125 365q7 69 28 119.5t52 83.5t70.5 48.5t84.5 14.5q38 -1 80 -12t84.5 -27.5t83.5 -35.5t78.5 -35t69 -27t55.5 -11q35 -2 59.5 16.5t32.5 71.5l152 -16q-16 -140 -79 -205t-157 -63q-38 0 -80 11t-84.5 27t-84 34.5t-79 34.5t-69.5 26.5t-55 11.5q-19 1 -34.5 -2.5
t-27.5 -13.5t-20.5 -28t-12.5 -46zM137 793q8 69 29 119.5t52 83t71 47.5t86 14q57 -2 121.5 -24.5t125.5 -49.5t114.5 -49t88.5 -23q18 -1 33 2.5t27 13.5t20.5 27.5t12.5 44.5l149 -18q-8 -70 -28.5 -121t-51 -84t-70.5 -49t-86 -14q-38 1 -79.5 12t-84 27.5t-84.5 35
t-79.5 34.5t-69.5 26.5t-55 11.5q-18 1 -32.5 -2.5t-26.5 -14t-20.5 -28t-12.5 -45.5z" />
    <glyph glyph-name="notequal" unicode="&#x2260;" horiz-adv-x="1161" 
d="M125 358v179h307l103 262h-410v178h469l137 377h199l-137 -377h243v-178h-301l-102 -262h403v-179h-463l-129 -360h-198l129 360h-250z" />
    <glyph glyph-name="lessequal" unicode="&#x2264;" horiz-adv-x="1186" 
d="M123 88v184h932v-184h-932zM133 690v152l905 372v-208l-641 -240l641 -234v-206z" />
    <glyph glyph-name="greaterequal" unicode="&#x2265;" horiz-adv-x="1186" 
d="M133 88v184h932v-184h-932zM156 326v206l641 234l-641 240v208l905 -372v-152z" />
    <glyph glyph-name="lozenge" unicode="&#x25ca;" horiz-adv-x="1143" 
d="M78 758l399 758h180l410 -758l-401 -758h-189zM307 758l264 -498l267 498l-267 497z" />
    <glyph glyph-name="uni2713" unicode="&#x2713;" horiz-adv-x="1161" 
d="M18 1087h265l266 -802h4l410 1231h243l-538 -1518h-256z" />
    <glyph glyph-name="uniE000" unicode="&#xe000;" horiz-adv-x="1085" 
d="M0 1085h1085v-1085h-1085v1085z" />
    <glyph glyph-name="uniF8FF" unicode="&#xf8ff;" horiz-adv-x="1577" 
d="M31 633v246l301 -37l-27 342h55v59l342 -26l-36 299h245l-37 -299l343 26v-59h57l-27 -342l299 37v-246l-299 37l27 -342h-57v-54l-343 27l37 -301h-245l36 301l-342 -27v54h-55l27 342zM467 680l16 -227l230 -17v244h-246zM467 831h246v248l-228 -16zM864 436l230 17
l16 227h-246v-244zM864 831h246l-16 232l-230 16v-248z" />
    <glyph glyph-name="NUL" horiz-adv-x="0" 
 />
    <glyph glyph-name="Etatonos" horiz-adv-x="432" 
 />
    <glyph glyph-name="fi" horiz-adv-x="1098" 
d="M37 899v186h156v134q0 67 17 122t54.5 95t96.5 62t143 22q15 0 32.5 -0.5t33 -1.5t27.5 -2.5t15 -2.5v-188q-3 1 -10.5 1.5t-16.5 1.5h-18q-9 1 -14 1q-59 0 -93 -29t-34 -98v-117h178v-186h-178v-899h-233v899h-156zM735 1264v219h236v-219h-236zM737 0v1085h232v-1085
h-232z" />
    <glyph glyph-name="fl" horiz-adv-x="1098" 
d="M37 899v186h156v134q0 67 17 122t54.5 95t96.5 62t143 22q15 0 32.5 -0.5t33 -1.5t27.5 -2.5t15 -2.5v-188q-3 1 -10.5 1.5t-16.5 1.5h-18q-9 1 -14 1q-59 0 -93 -29t-34 -98v-117h178v-186h-178v-899h-233v899h-156zM737 0v1516h232v-1516h-232z" />
    <glyph glyph-name="four.tab" horiz-adv-x="1157" 
d="M76 336v172l565 1008h266v-988h191v-192h-191v-336h-231v336h-600zM305 528h375v660h-4z" />
    <glyph glyph-name="five.tab" horiz-adv-x="1157" 
d="M100 262l158 113q50 -97 123 -151t170 -54q68 0 116.5 26t79.5 71t45.5 106.5t14.5 132.5q0 159 -61 239t-171 80q-78 0 -136.5 -43t-106.5 -118l-168 43l49 809h754l-13 -195h-548l-29 -426q38 53 103 86t161 33q92 0 166.5 -32.5t126.5 -95.5t80 -157t28 -217
q0 -125 -33 -224.5t-95 -169t-152.5 -106.5t-204.5 -37q-89 0 -160 22.5t-126.5 61.5t-97.5 91.5t-73 111.5z" />
    <glyph glyph-name="zero.tab" horiz-adv-x="1157" 
d="M74 758q0 385 130 583.5t376 198.5q122 0 216 -50t157.5 -148.5t96.5 -244.5t33 -339q0 -386 -129.5 -584.5t-373.5 -198.5q-246 0 -376 198.5t-130 584.5zM305 758q0 -156 19 -267t54 -182t86 -104t116 -33q66 0 116.5 33t85 104t52.5 182t18 267t-18.5 266.5t-53.5 181
t-85.5 103t-114.5 32.5q-67 0 -118.5 -32.5t-86 -103t-52.5 -181t-18 -266.5z" />
    </font>
</defs>
</svg>
