<?xml version="1.0" standalone="no"?>
<!DOCTYPE svg PUBLIC "-//W3C//DTD SVG 1.1//EN" "http://www.w3.org/Graphics/SVG/1.1/DTD/svg11.dtd" >
<svg xmlns="http://www.w3.org/2000/svg" xmlns:xlink="http://www.w3.org/1999/xlink" version="1.1">
<metadata>
Created by FontForge 20170731 at Wed Feb 29 01:42:12 2012
 By Aleksey,,,
Copyright (c) The Font Bureau, Inc, 2003. All rights reserved.
</metadata>
<defs>
<font id="BentonSansCond-Book" horiz-adv-x="1157" >
  <font-face 
    font-family="BentonSansCond Book"
    font-weight="390"
    font-stretch="condensed"
    units-per-em="2048"
    panose-1="2 0 6 6 4 0 0 2 0 4"
    ascent="1612"
    descent="-436"
    x-height="1077"
    cap-height="1516"
    bbox="-145 -467 2421 2197"
    underline-thickness="20"
    underline-position="-153"
    unicode-range="U+0020-FB04"
  />
<missing-glyph horiz-adv-x="1024" 
d="M0 0v1434h1024v-1434h-1024zM102 102h820v1229h-820v-1229z" />
    <glyph glyph-name="uniFB00" unicode="ff" horiz-adv-x="1169" 
d="M45 965v112h160v180q0 135 73 198t207 63q5 0 16 -0.5t22 -0.5q13 -1 28 -1v-117q-16 0 -28 1q-11 0 -20 0.5t-11 0.5q-34 0 -62.5 -7.5t-48.5 -24.5t-31.5 -44.5t-11.5 -67.5v-180h203v-112h-203v-965h-133v965h-160zM629 965v112h159v180q0 134 73.5 197.5t207.5 63.5
q5 0 15.5 -0.5t21.5 -0.5q13 -1 29 -1v-117q-17 0 -29 1q-11 0 -20 0.5t-11 0.5q-34 0 -62 -7.5t-48.5 -24.5t-31.5 -44.5t-11 -67.5v-180h202v-112h-202v-965h-134v965h-159z" />
    <glyph glyph-name="uniFB01" unicode="fi" horiz-adv-x="1018" 
d="M45 965v112h160v180q0 135 73 198t207 63q5 0 16 -0.5t22 -0.5q13 -1 28 -1v-117q-16 0 -28 1q-11 0 -20 0.5t-11 0.5q-34 0 -62.5 -7.5t-48.5 -24.5t-31.5 -44.5t-11.5 -67.5v-180h203v-112h-203v-965h-133v965h-160zM733 1313v157h137v-157h-137zM735 0v1077h133v-1077
h-133z" />
    <glyph glyph-name="uniFB02" unicode="fl" horiz-adv-x="1018" 
d="M45 965v112h160v180q0 135 73 198t207 63q5 0 16 -0.5t22 -0.5q13 -1 28 -1v-117q-16 0 -28 1q-11 0 -20 0.5t-11 0.5q-34 0 -62.5 -7.5t-48.5 -24.5t-31.5 -44.5t-11.5 -67.5v-180h203v-112h-203v-965h-133v965h-160zM735 0v1516h133v-1516h-133z" />
    <glyph glyph-name="uniFB03" unicode="ffi" horiz-adv-x="1602" 
d="M45 965v112h160v180q0 135 73 198t207 63q5 0 16 -0.5t22 -0.5q13 -1 28 -1v-117q-16 0 -28 1q-11 0 -20 0.5t-11 0.5q-34 0 -62.5 -7.5t-48.5 -24.5t-31.5 -44.5t-11.5 -67.5v-180h203v-112h-203v-965h-133v965h-160zM629 965v112h159v180q0 134 73.5 197.5t207.5 63.5
q5 0 15.5 -0.5t21.5 -0.5q13 -1 29 -1v-117q-17 0 -29 1q-11 0 -20 0.5t-11 0.5q-34 0 -62 -7.5t-48.5 -24.5t-31.5 -44.5t-11 -67.5v-180h202v-112h-202v-965h-134v965h-159zM1317 1313v157h137v-157h-137zM1319 0v1077h133v-1077h-133z" />
    <glyph glyph-name="uniFB04" unicode="ffl" horiz-adv-x="1602" 
d="M45 965v112h160v180q0 135 73 198t207 63q5 0 16 -0.5t22 -0.5q13 -1 28 -1v-117q-16 0 -28 1q-11 0 -20 0.5t-11 0.5q-34 0 -62.5 -7.5t-48.5 -24.5t-31.5 -44.5t-11.5 -67.5v-180h203v-112h-203v-965h-133v965h-160zM629 965v112h159v180q0 134 73.5 197.5t207.5 63.5
q5 0 15.5 -0.5t21.5 -0.5q13 -1 29 -1v-117q-17 0 -29 1q-11 0 -20 0.5t-11 0.5q-34 0 -62 -7.5t-48.5 -24.5t-31.5 -44.5t-11 -67.5v-180h202v-112h-202v-965h-134v965h-159zM1319 0v1516h133v-1516h-133z" />
    <glyph glyph-name="f_j" unicode="fj" horiz-adv-x="1018" 
d="M45 965v112h160v180q0 135 73 198t207 63q5 0 16 -0.5t22 -0.5q13 -1 28 -1v-117q-16 0 -28 1q-11 0 -20 0.5t-11 0.5q-34 0 -62.5 -7.5t-48.5 -24.5t-31.5 -44.5t-11.5 -67.5v-180h203v-112h-203v-965h-133v965h-160zM596 -295q9 -2 25 -3t28 -1q44 0 65 27.5t21 87.5
v1261h133v-1259q0 -119 -47.5 -173.5t-156.5 -54.5q-6 0 -15.5 0.5t-20 1t-19.5 1t-13 1.5v111zM733 1313v157h137v-157h-137z" />
    <glyph glyph-name=".notdef" horiz-adv-x="1024" 
d="M0 0v1434h1024v-1434h-1024zM102 102h820v1229h-820v-1229z" />
    <glyph glyph-name=".null" horiz-adv-x="0" 
 />
    <glyph glyph-name="nonmarkingreturn" horiz-adv-x="395" 
 />
    <glyph glyph-name="space" unicode=" " horiz-adv-x="395" 
 />
    <glyph glyph-name="exclam" unicode="!" horiz-adv-x="559" 
d="M199 0v186h163v-186h-163zM199 1516h163l-36 -1108h-90z" />
    <glyph glyph-name="quotedbl" unicode="&#x22;" horiz-adv-x="731" 
d="M141 1407v109h135v-109l-28 -406h-76zM459 1407v109h133v-109l-29 -406h-76z" />
    <glyph glyph-name="numbersign" unicode="#" horiz-adv-x="1233" 
d="M76 446v115h223l70 393h-217v115h237l80 447h125l-80 -447h315l78 447h125l-80 -447h207v-115h-227l-72 -393h223v-115h-241l-80 -446h-125l80 446h-314l-79 -446h-125l80 446h-203zM424 559h313l70 397h-313z" />
    <glyph glyph-name="dollar" unicode="$" horiz-adv-x="1137" 
d="M102 328l119 47q54 -114 122 -179.5t169 -78.5v618q-68 32 -133.5 68t-117 84.5t-83 115t-31.5 160.5q0 74 25 137t71.5 110t113 76.5t149.5 35.5v155h110v-157q72 -9 127 -34t97 -63.5t73.5 -87.5t55.5 -106l-115 -55q-23 50 -47.5 88t-53.5 65.5t-63.5 44.5t-77.5 25
v-563q72 -34 144 -72t129.5 -90t93 -124t35.5 -175q0 -82 -28 -149t-79.5 -115.5t-125.5 -77.5t-165 -35v-186h-110v188q-81 7 -144.5 35t-112.5 71.5t-85.5 100.5t-61.5 123zM283 1174q0 -56 18 -100t49 -78.5t72.5 -62.5t89.5 -52v520q-58 -5 -101 -24t-71.5 -49
t-42.5 -69.5t-14 -84.5zM612 115q56 4 104.5 21t84 47t56 74.5t20.5 104.5q0 66 -21.5 115t-58 87.5t-84.5 68.5t-101 57v-575z" />
    <glyph glyph-name="percent" unicode="%" horiz-adv-x="1671" 
d="M102 1085q0 224 74 340.5t213 116.5q136 0 209.5 -116.5t73.5 -340.5t-73.5 -340t-209.5 -116q-139 0 -213 116t-74 340zM221 1085q0 -180 42.5 -265t125.5 -85q84 0 125 85.5t41 264.5q0 178 -43 264.5t-123 86.5q-87 0 -127.5 -85t-40.5 -266zM389 0l770 1516h121
l-770 -1516h-121zM999 436q0 223 74 340t213 117q136 0 208.5 -117t72.5 -340q0 -224 -72.5 -340t-208.5 -116q-139 0 -213 116t-74 340zM1118 436q0 -180 42.5 -266t125.5 -86q84 0 125 86t41 266q0 178 -43 263t-123 85q-86 0 -127 -84t-41 -264z" />
    <glyph glyph-name="ampersand" unicode="&#x26;" horiz-adv-x="1264" 
d="M70 354q0 82 24.5 150.5t66 126.5t96.5 106.5t116 91.5q-45 91 -69.5 182t-24.5 187q0 74 19.5 137t58 109.5t95.5 73t132 26.5q71 0 122.5 -22.5t84.5 -60.5t49 -89.5t16 -109.5q0 -77 -25.5 -140.5t-69.5 -118t-102 -102t-122 -92.5q24 -46 54 -94t64 -99
q57 -80 113.5 -155.5t110.5 -138.5q52 88 81 199.5t41 236.5h127q-17 -150 -56.5 -283.5t-104.5 -236.5q69 -65 132.5 -98.5t123.5 -33.5v-126q-94 5 -174.5 42t-161.5 111q-71 -77 -166 -119.5t-217 -42.5q-108 0 -189 26t-135.5 75t-82 120.5t-27.5 161.5zM205 362
q0 -60 18 -110.5t55 -87t94.5 -56.5t135.5 -20q179 0 291 127q-60 68 -121 151t-129 179q-32 48 -62.5 93t-58.5 91q-48 -36 -89 -76.5t-71 -86t-46.5 -96.5t-16.5 -108zM412 1208q0 -77 18 -149.5t55 -151.5q50 35 94.5 72.5t77.5 79.5t52.5 89.5t19.5 104.5
q0 36 -7.5 67.5t-24.5 55t-45 37.5t-68 14q-44 0 -76.5 -16.5t-53.5 -45.5t-31.5 -69t-10.5 -88z" />
    <glyph glyph-name="quotesingle" unicode="'" horiz-adv-x="420" 
d="M141 1407v109h135v-109l-28 -406h-76z" />
    <glyph glyph-name="parenleft" unicode="(" horiz-adv-x="709" 
d="M109 557q0 145 29.5 278t85 254.5t136.5 232t183 210.5l78 -68q-83 -89 -151 -191.5t-116.5 -217t-75 -240t-26.5 -258.5q0 -134 26.5 -259.5t75 -241t116.5 -218.5t151 -190l-78 -66q-102 100 -183 210.5t-136.5 232t-85 254.5t-29.5 278z" />
    <glyph glyph-name="parenright" unicode=")" horiz-adv-x="709" 
d="M88 -352q83 89 151.5 192t117 218t75.5 240t27 259q0 133 -26.5 259t-75.5 240.5t-117 217.5t-152 190l78 68q102 -100 182.5 -210.5t136.5 -232t85.5 -254.5t29.5 -278t-29.5 -278t-85.5 -254.5t-136.5 -232t-182.5 -210.5z" />
    <glyph glyph-name="asterisk" unicode="*" horiz-adv-x="938" 
d="M80 1092v106l344 -24l-199 288l97 60l149 -320l145 320l97 -60l-199 -288l346 24v-106l-346 24l199 -287l-97 -57l-145 318l-149 -318l-97 57l197 287z" />
    <glyph glyph-name="plus" unicode="+" horiz-adv-x="1081" 
d="M96 612v117h385v442h119v-442h383v-117h-383v-442h-119v442h-385z" />
    <glyph glyph-name="comma" unicode="," horiz-adv-x="481" 
d="M158 0v190h164v-174l-84 -221h-64l49 205h-65z" />
    <glyph glyph-name="hyphen" unicode="-" horiz-adv-x="627" 
d="M115 582v120h399v-120h-399z" />
    <glyph glyph-name="period" unicode="." horiz-adv-x="481" 
d="M158 0v190h164v-190h-164z" />
    <glyph glyph-name="slash" unicode="/" horiz-adv-x="963" 
d="M37 0l749 1516h140l-750 -1516h-139z" />
    <glyph glyph-name="zero" unicode="0" horiz-adv-x="1139" 
d="M96 758q0 190 30.5 336.5t90 246.5t148 151.5t204.5 51.5q117 0 205.5 -51.5t148 -151.5t89.5 -246.5t30 -336.5t-30 -336.5t-89.5 -246.5t-148 -152t-205.5 -52q-116 0 -204.5 52t-148 152t-90 246.5t-30.5 336.5zM236 758q0 -172 22.5 -297.5t65.5 -207t105 -120.5
t140 -39q81 0 143.5 39t105 120.5t65 207t22.5 297.5t-23.5 297t-67 206.5t-105.5 120.5t-140 39q-80 0 -142 -39t-104.5 -120.5t-64.5 -206.5t-22 -297z" />
    <glyph glyph-name="one" unicode="1" horiz-adv-x="768" 
d="M102 0v125h246v1241q-24 -15 -54 -27.5t-62 -22t-65 -15t-61 -5.5v121q76 3 140.5 27t107.5 72h129v-1391h222v-125h-603z" />
    <glyph glyph-name="two" unicode="2" horiz-adv-x="1020" 
d="M84 0v33q0 121 29.5 213t78.5 164.5t111 130t127 109t127 101t111 106.5t78.5 125t29.5 157q0 132 -64.5 207t-187.5 75q-54 0 -99 -18.5t-82.5 -52.5t-68 -82.5t-55.5 -108.5l-115 49q32 78 75 140.5t96 106t117 66.5t138 23q92 0 163 -28.5t119.5 -80.5t73.5 -126
t25 -164q0 -95 -29 -170.5t-77 -139t-109 -117.5t-124.5 -105t-124.5 -102t-109 -109t-77.5 -125.5t-29.5 -151.5h682v-125h-829z" />
    <glyph glyph-name="three" unicode="3" horiz-adv-x="1032" 
d="M37 305l117 47q27 -74 62 -123t77.5 -78.5t92 -42t106.5 -12.5q72 0 129 22.5t96.5 64t60.5 99t21 126.5q0 82 -22.5 145.5t-71.5 106.5t-127 65.5t-189 22.5h-49v114h88q89 0 153 20t104.5 58.5t59.5 94.5t19 128q0 54 -13.5 101t-44 82t-80 55t-120.5 20
q-100 0 -174.5 -48.5t-132.5 -127.5l-97 68q37 52 82.5 94.5t98 73t112 47t125.5 16.5q102 0 173.5 -30t117.5 -81t67 -117.5t21 -139.5q0 -75 -19.5 -135.5t-54 -106.5t-80.5 -77t-100 -46q64 -21 116.5 -54t90.5 -82t59 -114.5t21 -150.5q0 -94 -31 -173.5t-88 -137.5
t-137.5 -91t-179.5 -33q-92 0 -164 22.5t-128.5 65.5t-97.5 104t-69 138z" />
    <glyph glyph-name="four" unicode="4" horiz-adv-x="1059" 
d="M55 371v102l588 1043h156v-1022h215v-123h-215v-371h-133v371h-611zM201 494h467v833h-2z" />
    <glyph glyph-name="five" unicode="5" horiz-adv-x="1020" 
d="M70 270l112 56q27 -53 59 -96.5t70.5 -74.5t84.5 -48t102 -17q82 0 140.5 34t95.5 90t54 129.5t17 152.5q0 93 -19.5 164t-56 120t-87.5 74t-114 25q-51 0 -92 -12t-75.5 -35t-63.5 -55.5t-55 -74.5l-107 27l47 787h686l-8 -127h-561l-37 -541q47 69 117 108t170 39
q87 0 158.5 -31t123.5 -93t80.5 -154t28.5 -215t-30.5 -221.5t-87.5 -167t-138.5 -105.5t-183.5 -37q-78 0 -142 21t-116.5 59.5t-95 94t-76.5 124.5z" />
    <glyph glyph-name="six" unicode="6" horiz-adv-x="1063" 
d="M96 731q0 172 30 320.5t91 258t154 172t219 62.5q67 0 118.5 -16t92 -41.5t70.5 -57.5t53 -63l-103 -76q-20 27 -42 51t-50 42.5t-63.5 29t-81.5 10.5q-91 0 -157.5 -50t-110 -137.5t-65 -207.5t-22.5 -260q31 38 69.5 71t83.5 57t96 38t108 14q107 0 183 -36.5
t124.5 -100.5t71 -151t22.5 -187q0 -107 -28.5 -198.5t-84 -159t-136 -106t-183.5 -38.5q-100 0 -184 45.5t-145 139t-95.5 236.5t-34.5 339zM233 631q17 -271 102.5 -406t225.5 -135q139 0 215 97.5t76 283.5q0 78 -15 143t-48 112.5t-86.5 74t-131.5 26.5
q-102 0 -188.5 -51.5t-149.5 -144.5z" />
    <glyph glyph-name="seven" unicode="7" horiz-adv-x="961" 
d="M88 1389v127h801v-117l-547 -1399h-139l542 1389h-657z" />
    <glyph glyph-name="eight" unicode="8" horiz-adv-x="1061" 
d="M70 356q0 82 26 146.5t72.5 117t109.5 96t138 83.5q-62 36 -115 74.5t-91 84t-59.5 101.5t-21.5 127q0 70 26 135.5t76.5 115t126 79.5t174.5 30q101 0 176 -30t125 -80t74.5 -115t24.5 -135q0 -68 -20.5 -121.5t-58 -98.5t-90 -83t-116.5 -74q75 -41 138.5 -84
t109 -95.5t71 -118.5t25.5 -151q0 -80 -29.5 -151t-87.5 -124.5t-144 -84.5t-198 -31q-114 0 -200.5 31t-144.5 84t-87.5 123.5t-29.5 148.5zM205 365q0 -62 23.5 -113t66.5 -88t103 -57.5t134 -20.5q73 0 133 20t102.5 57t65.5 89t23 117q0 64 -24.5 116t-68.5 96.5
t-105 83.5t-134 78q-76 -41 -135 -81.5t-100 -85t-62.5 -96t-21.5 -115.5zM264 1186q0 -56 19 -100t54.5 -81.5t87 -71t116.5 -67.5q63 34 111 67t81 70t49.5 80.5t16.5 98.5q0 46 -14.5 90t-46.5 78.5t-83 55.5t-123 21q-69 0 -119.5 -20.5t-83.5 -54t-49 -77t-16 -89.5z
" />
    <glyph glyph-name="nine" unicode="9" horiz-adv-x="1063" 
d="M76 1042q0 107 29.5 198.5t85 159t136 106t183.5 38.5q100 0 184 -45t145 -138.5t94.5 -237t33.5 -339.5q0 -172 -29 -320.5t-89 -258t-152.5 -172t-219.5 -62.5q-70 0 -124.5 17t-97 44.5t-74.5 61.5t-56 68l100 74q23 -29 47.5 -55t54.5 -46.5t67.5 -32.5t86.5 -12
q90 0 156.5 50t110.5 138.5t65.5 208.5t20.5 261q-31 -39 -69 -72t-82.5 -57t-96 -38t-109.5 -14q-107 0 -182.5 36.5t-124.5 100.5t-71.5 150.5t-22.5 187.5zM211 1044q0 -77 15 -142.5t49 -113t88.5 -74t132.5 -26.5q100 0 185 52t150 145q-17 270 -103 404t-224 134
q-141 0 -217 -96.5t-76 -282.5z" />
    <glyph glyph-name="colon" unicode=":" horiz-adv-x="485" 
d="M160 0v190h162v-190h-162zM160 889v188h162v-188h-162z" />
    <glyph glyph-name="semicolon" unicode=";" horiz-adv-x="485" 
d="M160 0v190h162v-172l-84 -223h-62l49 205h-65zM160 889v188h162v-188h-162z" />
    <glyph glyph-name="less" unicode="&#x3c;" horiz-adv-x="1167" 
d="M115 610v107l921 459v-129l-780 -383l780 -383v-129z" />
    <glyph glyph-name="equal" unicode="=" horiz-adv-x="1081" 
d="M131 375v117h821v-117h-821zM131 838v118h821v-118h-821z" />
    <glyph glyph-name="greater" unicode="&#x3e;" horiz-adv-x="1167" 
d="M131 152v129l778 383l-778 383v129l922 -459v-107z" />
    <glyph glyph-name="question" unicode="?" horiz-adv-x="938" 
d="M68 1262q32 61 73 113t91.5 89.5t111.5 58.5t135 21q89 0 158.5 -26.5t117 -74t72.5 -112t25 -139.5q0 -74 -17 -129t-45.5 -98t-66 -78.5t-78.5 -69.5q-51 -44 -83.5 -81t-51 -81.5t-25 -102.5t-6.5 -144h-114v122q0 64 12 113.5t35 90.5t55.5 76t73.5 71
q42 34 74.5 65.5t54.5 66.5t33.5 76t11.5 95t-16 97.5t-47 74.5t-76.5 48t-104.5 17q-50 0 -92.5 -16t-78.5 -44.5t-65.5 -68t-54.5 -86.5zM338 0v188h168v-188h-168z" />
    <glyph glyph-name="at" unicode="@" horiz-adv-x="1520" 
d="M84 758q0 183 50.5 328.5t140.5 247t214.5 156t272.5 54.5q147 0 271 -54t213.5 -154t139.5 -241.5t50 -316.5q0 -113 -21.5 -199t-61 -143.5t-94 -87t-120.5 -29.5q-48 0 -84.5 13t-63.5 34.5t-44 50t-25 60.5q-57 -66 -126 -109.5t-155 -43.5q-122 0 -191 85.5
t-69 247.5q1 120 27 221.5t73.5 175t114 115t147.5 41.5q76 0 129.5 -31.5t92.5 -82.5l12 96h110l-73 -602q-13 -91 22.5 -137.5t110.5 -46.5q43 0 80 20.5t64.5 65.5t43 115.5t15.5 170.5q0 157 -43.5 284t-121.5 216.5t-186.5 137.5t-238.5 48t-238 -48.5t-186 -139.5
t-121 -222t-43 -296q0 -168 43 -299t121 -222t186 -138.5t238 -47.5q105 0 192 24.5t168 69.5l37 -67q-83 -48 -185.5 -77.5t-211.5 -29.5q-151 0 -275.5 53t-213.5 154t-138 247t-49 333zM498 668q0 -65 11 -111.5t31.5 -76.5t50.5 -44t68 -14q69 0 124 32.5t114 98.5
l55 438q-42 57 -92.5 87t-116.5 30q-53 0 -97.5 -32t-77 -90.5t-51 -139.5t-19.5 -178z" />
    <glyph glyph-name="A" unicode="A" horiz-adv-x="1139" 
d="M61 0l445 1522h127l444 -1522h-139l-133 469h-479l-133 -469h-132zM360 592h410l-70 248q-40 136 -72 251t-61 226h-4l-30 -112q-15 -56 -31 -114t-33.5 -120t-36.5 -129z" />
    <glyph glyph-name="B" unicode="B" horiz-adv-x="1178" 
d="M164 0v1516h424q224 0 337 -97t113 -284q0 -79 -20.5 -138.5t-54.5 -101.5t-78 -68t-92 -39v-4q59 -13 111 -40t91 -71.5t61.5 -109t22.5 -151.5q0 -96 -29 -172.5t-86.5 -129.5t-142.5 -81.5t-196 -28.5h-461zM301 123h326q167 0 242 76t75 221q0 82 -24.5 139
t-70.5 92.5t-112 51.5t-149 16h-287v-596zM301 840h279q154 0 238.5 65.5t84.5 208.5q0 72 -18 124t-57 85.5t-99.5 49.5t-144.5 16h-283v-549z" />
    <glyph glyph-name="C" unicode="C" horiz-adv-x="1192" 
d="M100 762q0 187 37.5 332.5t106.5 245.5t167 152t220 52q102 0 178.5 -35t131 -97t90 -148.5t56.5 -188.5l-129 -24q-18 88 -45.5 156.5t-67 115t-93.5 70.5t-125 24q-92 0 -164 -45.5t-121.5 -130.5t-75.5 -206t-26 -271q0 -159 26 -283t76.5 -209t123 -129.5
t165.5 -44.5q70 0 125.5 23.5t97.5 70.5t73 119t52 170l125 -20q-23 -108 -62.5 -198.5t-98 -155t-136.5 -100.5t-178 -36q-122 0 -220 51.5t-166.5 151.5t-105.5 247.5t-37 340.5z" />
    <glyph glyph-name="D" unicode="D" horiz-adv-x="1214" 
d="M164 0v1516h317q159 0 278 -45t197.5 -138t118 -235.5t39.5 -337.5t-40 -338t-119.5 -237t-198 -139.5t-275.5 -45.5h-317zM303 127h201q118 0 206 37t146.5 114t87.5 197t29 285q0 322 -116.5 474t-354.5 152h-199v-1259z" />
    <glyph glyph-name="E" unicode="E" horiz-adv-x="1032" 
d="M164 0v1516h751v-130h-612v-520h451v-127h-451v-612h649v-127h-788z" />
    <glyph glyph-name="F" unicode="F" horiz-adv-x="971" 
d="M164 0v1516h743v-130h-604v-526h442v-127h-442v-733h-139z" />
    <glyph glyph-name="G" unicode="G" horiz-adv-x="1239" 
d="M100 764q0 183 36.5 327.5t105 245t167 154t222.5 53.5q100 0 175.5 -34t130.5 -95.5t91.5 -148t58.5 -191.5l-126 -26q-20 90 -48.5 158.5t-69 115t-93.5 70.5t-123 24q-89 0 -161 -44t-122 -127t-77 -204.5t-27 -275.5q0 -163 26 -287.5t76.5 -209t123.5 -128
t167 -43.5q162 0 250.5 124.5t91.5 367.5h-305v123h430v-713h-117v209h-2q-19 -45 -50.5 -87.5t-76 -76t-102.5 -54t-131 -20.5q-124 0 -221 52.5t-163.5 154t-101.5 249t-35 337.5z" />
    <glyph glyph-name="H" unicode="H" horiz-adv-x="1257" 
d="M164 0v1516h139v-650h651v650h140v-1516h-140v737h-651v-737h-139z" />
    <glyph glyph-name="I" unicode="I" horiz-adv-x="492" 
d="M176 0v1516h139v-1516h-139z" />
    <glyph glyph-name="J" unicode="J" horiz-adv-x="870" 
d="M43 96l72 103q57 -45 125 -72t131 -27q44 0 82 13t65.5 40.5t43.5 69.5t16 101v1192h139v-1188q0 -89 -25.5 -154.5t-70.5 -109.5t-107.5 -65.5t-136.5 -21.5q-85 0 -173.5 30t-160.5 89z" />
    <glyph glyph-name="K" unicode="K" horiz-adv-x="1147" 
d="M164 0v1516h139v-826q9 15 26.5 41.5t40 59t47.5 68t50 69.5l420 588h147l-422 -584l494 -932h-148l-434 811l-221 -303v-508h-139z" />
    <glyph glyph-name="L" unicode="L" horiz-adv-x="977" 
d="M164 0v1516h139v-1389h608v-127h-747z" />
    <glyph glyph-name="M" unicode="M" horiz-adv-x="1491" 
d="M164 0v1516h172l409 -1319h5l403 1319h174v-1516h-135v1280h-4q-8 -35 -20 -81t-27 -97t-31.5 -104.5t-32.5 -104.5l-280 -893h-113l-281 897q-15 48 -31 100.5t-30.5 103t-27 96.5t-21.5 83h-4v-1280h-125z" />
    <glyph glyph-name="N" unicode="N" horiz-adv-x="1272" 
d="M164 0v1516h172l506 -984q20 -38 36 -70q16 -33 32 -64l32 -63q16 -32 35 -71h4v1252h127v-1516h-129l-535 1032q-22 43 -40 77.5t-34 67.5l-35 69q-18 36 -40 83h-4v-1329h-127z" />
    <glyph glyph-name="O" unicode="O" horiz-adv-x="1272" 
d="M100 758q0 188 39.5 334.5t111 247t170 152.5t216.5 52q117 0 215.5 -52t169 -152.5t110 -247t39.5 -334.5t-39.5 -334.5t-110 -247t-169 -153t-215.5 -52.5q-118 0 -216.5 52.5t-170 153t-111 247t-39.5 334.5zM240 758q0 -157 28 -279.5t79.5 -207t125 -129
t164.5 -44.5q90 0 162.5 44.5t124 129t79 207t27.5 279.5t-27.5 279.5t-79 207t-124 128.5t-162.5 44q-91 0 -164.5 -44t-125 -128.5t-79.5 -207t-28 -279.5z" />
    <glyph glyph-name="P" unicode="P" horiz-adv-x="1124" 
d="M164 0v1516h416q103 0 186.5 -25t142.5 -76t91 -130t32 -187q0 -121 -35 -204t-97.5 -134.5t-148 -74.5t-186.5 -23h-262v-662h-139zM303 786h270q78 0 138.5 16.5t101 53.5t61.5 95.5t21 142.5q0 79 -20.5 134.5t-61.5 90.5t-101.5 51t-140.5 16h-268v-600z" />
    <glyph glyph-name="Q" unicode="Q" horiz-adv-x="1272" 
d="M100 758q0 188 39.5 334.5t111 247t170.5 152.5t218 52q117 0 214.5 -52t168 -152.5t110 -247t39.5 -334.5q0 -179 -34.5 -318t-97 -237t-149 -154t-190.5 -69q3 -72 24 -118t57 -72.5t86 -37t112 -10.5h86v-123h-109q-105 0 -179 26t-121.5 73.5t-69 114.5t-21.5 149
q-103 13 -188.5 70.5t-147 156t-95.5 236.5t-34 313zM240 758q0 -157 28 -280t80 -208t125.5 -129.5t165.5 -44.5q89 0 161.5 44.5t123.5 129.5t78.5 208t27.5 280t-27.5 279.5t-78.5 207t-123.5 128.5t-161.5 44q-92 0 -165.5 -44t-125.5 -128.5t-80 -207t-28 -279.5z" />
    <glyph glyph-name="R" unicode="R" 
d="M164 0v1516h418q107 0 191 -25.5t141.5 -77t87.5 -129.5t30 -184q0 -95 -24.5 -165.5t-66 -120t-95.5 -79.5t-113 -45l314 -690h-142l-307 670h-297v-670h-137zM301 791h272q80 0 140 16t100.5 52.5t61 95t20.5 143.5q0 78 -20 133t-60.5 89.5t-101.5 50t-142 15.5h-270
v-595z" />
    <glyph glyph-name="S" unicode="S" horiz-adv-x="1100" 
d="M72 330l121 55q27 -64 62 -116.5t80 -90t100.5 -58t123.5 -20.5q71 0 127.5 19t96 54t60.5 84t21 108q0 71 -27 123t-71.5 92.5t-102.5 72t-120 62.5q-72 35 -144 73.5t-129.5 91t-93 125t-35.5 175.5q0 80 30 147t83 115t125.5 75t157.5 27q88 0 157.5 -25.5t123 -69
t92.5 -100.5t65 -120l-121 -55q-20 47 -48.5 91.5t-67.5 78.5t-89 54.5t-114 20.5q-57 0 -104 -17.5t-81 -49t-52.5 -75t-18.5 -95.5q0 -71 26.5 -123t70.5 -92.5t101 -72.5t119 -63q73 -35 145.5 -74t130 -91.5t93.5 -124.5t36 -174q0 -83 -31.5 -154.5t-89 -124
t-139.5 -83t-182 -30.5q-91 0 -165.5 24.5t-135 70.5t-106.5 112t-80 148z" />
    <glyph glyph-name="T" unicode="T" horiz-adv-x="1055" 
d="M59 1386v130h934v-130h-397v-1386h-139v1386h-398z" />
    <glyph glyph-name="U" unicode="U" horiz-adv-x="1229" 
d="M154 492v1024h139v-1002q0 -98 16.5 -175.5t54.5 -131.5t99 -82.5t151 -28.5t152 28.5t101 82.5t56 130.5t17 172.5v1006h133v-1020q0 -112 -26.5 -208t-82.5 -166.5t-142.5 -110.5t-207.5 -40q-123 0 -210.5 38t-143 107t-81 164.5t-25.5 211.5z" />
    <glyph glyph-name="V" unicode="V" horiz-adv-x="1133" 
d="M61 1516h138l239 -842q38 -135 69 -250t60 -225h4q29 112 61 225.5t70 245.5l238 846h131l-440 -1522h-129z" />
    <glyph glyph-name="W" unicode="W" horiz-adv-x="1577" 
d="M70 1516h131l174 -818q14 -63 25.5 -116.5t22.5 -106t22 -109t24 -126.5h4q12 70 23 126.5t22 109t22.5 106t24.5 116.5l164 818h127l170 -840q12 -60 23.5 -113t22 -104.5t20.5 -105t20 -113.5h4q11 57 21.5 110.5t21.5 106t22.5 107t24.5 114.5l176 838h125l-338 -1522
h-116l-262 1270h-5l-262 -1270h-116z" />
    <glyph glyph-name="X" unicode="X" horiz-adv-x="1114" 
d="M39 0l444 823l-372 693h149l305 -574l301 574h135l-370 -691l444 -825h-145l-379 711l-377 -711h-135z" />
    <glyph glyph-name="Y" unicode="Y" horiz-adv-x="1055" 
d="M39 1516h143l346 -754h4l347 754h135l-416 -879v-637h-141v633z" />
    <glyph glyph-name="Z" unicode="Z" horiz-adv-x="1067" 
d="M74 0v106l741 1280h-692v130h854v-105l-741 -1284h741v-127h-903z" />
    <glyph glyph-name="bracketleft" unicode="[" horiz-adv-x="676" 
d="M154 -410v1926h442v-109h-307v-1708h307v-109h-442z" />
    <glyph glyph-name="backslash" unicode="\" horiz-adv-x="956" 
d="M35 1516h139l748 -1516h-138z" />
    <glyph glyph-name="bracketright" unicode="]" horiz-adv-x="676" 
d="M80 -301h307v1708h-307v109h442v-1926h-442v109z" />
    <glyph glyph-name="asciicircum" unicode="^" horiz-adv-x="893" 
d="M174 1186l225 323h95l225 -323h-84l-191 190l-188 -190h-82z" />
    <glyph glyph-name="underscore" unicode="_" horiz-adv-x="877" 
d="M-2 -141h883v-115h-883v115z" />
    <glyph glyph-name="grave" unicode="`" horiz-adv-x="893" 
d="M223 1509h170l164 -315h-90z" />
    <glyph glyph-name="a" unicode="a" horiz-adv-x="952" 
d="M82 252q0 78 33.5 147t106 127t187.5 104.5t279 80.5v73q0 199 -172 199q-51 0 -96.5 -12.5t-86 -34t-76.5 -50t-67 -59.5l-79 80q83 88 185 140.5t230 52.5q152 0 222.5 -82.5t70.5 -233.5v-518q0 -99 6.5 -161.5t20.5 -104.5h-135q-10 32 -16.5 63.5t-6.5 77.5
q-71 -74 -158 -114.5t-192 -40.5q-123 0 -189.5 71.5t-66.5 194.5zM213 266q0 -88 42 -129t120 -41q90 0 170.5 43.5t142.5 112.5v356q-137 -29 -228.5 -67t-146.5 -82t-77.5 -93t-22.5 -100z" />
    <glyph glyph-name="b" unicode="b" horiz-adv-x="1028" 
d="M139 0v1516h133v-578q26 31 57 60.5t67.5 52t80 36t94.5 13.5q79 0 147 -32.5t118.5 -100.5t79 -173.5t28.5 -252.5t-29.5 -252.5t-80.5 -173.5t-120 -100.5t-149 -32.5q-94 0 -164 42t-129 111v-135h-133zM272 256q65 -77 131 -117.5t144 -40.5q57 0 105 24.5t83 78
t54.5 137t19.5 201.5q0 114 -20 198t-55.5 138.5t-83.5 81t-105 26.5q-42 0 -79 -12.5t-70 -34.5t-63.5 -51.5t-60.5 -63.5v-565z" />
    <glyph glyph-name="c" unicode="c" horiz-adv-x="922" 
d="M86 539q0 144 32.5 249.5t88.5 174.5t130.5 103t158.5 34q77 0 134 -25.5t98 -68.5t69 -99.5t47 -118.5l-123 -34q-15 51 -35 93t-47 72t-63 47t-84 17q-54 0 -103 -26t-86.5 -80t-59.5 -137.5t-22 -198.5q0 -102 18.5 -185t54 -141t85.5 -89.5t113 -31.5q94 0 151.5 57
t89.5 175l119 -35q-46 -152 -137.5 -233t-229.5 -81q-84 0 -157 37t-127 108.5t-84.5 176.5t-30.5 240z" />
    <glyph glyph-name="d" unicode="d" horiz-adv-x="1028" 
d="M88 539q0 147 29 253t80 174.5t120 101t148 32.5q94 0 167.5 -44.5t127.5 -113.5v574h133v-1250q0 -99 5.5 -161.5t21.5 -104.5h-140q-4 14 -7.5 32.5t-6.5 38t-4.5 38t-1.5 32.5q-26 -31 -57 -59.5t-68 -50.5t-81 -35.5t-95 -13.5q-79 0 -147 32t-117.5 99.5t-78 173
t-28.5 252.5zM223 539q0 -116 19.5 -199t55 -137t84 -79.5t105.5 -25.5q40 0 77 12t70.5 33t65 49.5t60.5 61.5v567q-63 76 -131 119t-146 43q-57 0 -104.5 -25.5t-82 -79.5t-54 -138t-19.5 -201z" />
    <glyph glyph-name="e" unicode="e" horiz-adv-x="950" 
d="M86 541q0 143 33 248t89 174t129.5 103t154.5 34q89 0 158.5 -36.5t117.5 -106t73 -172t25 -234.5v-31h-647q2 -104 22.5 -183.5t56 -134t86 -82.5t112.5 -28q49 0 87 14.5t68.5 41.5t55 66t47.5 87l100 -55q-28 -62 -65 -112t-83 -85t-101 -53.5t-118 -18.5
q-86 0 -159.5 36t-127 107t-84 176.5t-30.5 244.5zM221 629h512q-4 77 -20 142t-46 112.5t-74 74.5t-104 27q-48 0 -93 -21t-81.5 -65t-61 -111t-32.5 -159z" />
    <glyph glyph-name="f" unicode="f" horiz-adv-x="586" 
d="M45 965v112h160v180q0 135 73 198t207 63q5 0 16 -0.5t22 -0.5q13 -1 28 -1v-117q-16 0 -28 1q-11 0 -20 0.5t-11 0.5q-34 0 -62.5 -7.5t-48.5 -24.5t-31.5 -44.5t-11.5 -67.5v-180h203v-112h-203v-965h-133v965h-160z" />
    <glyph glyph-name="g" unicode="g" horiz-adv-x="993" 
d="M37 -145q0 83 47 146t131 101q-43 23 -66.5 55t-23.5 79q0 46 31.5 89.5t81.5 71.5q-66 51 -104 132.5t-38 181.5q0 87 27.5 158.5t76.5 122.5t116.5 79.5t146.5 28.5q81 0 148 -28t116 -81q42 37 100 63t111 36v-132q-40 0 -82 -7.5t-84 -24.5q53 -88 53 -215
q0 -90 -27 -161.5t-75 -121t-114 -76t-144 -26.5q-42 0 -80 6.5t-70 21.5q-31 -18 -50 -41.5t-19 -52.5q0 -16 5.5 -28t20 -21.5t40.5 -16t67 -12.5l174 -22q94 -12 161 -33.5t109.5 -54.5t62 -78t19.5 -105q0 -71 -34.5 -127t-94.5 -94t-142.5 -58t-178.5 -20
q-112 0 -191.5 18.5t-129.5 52.5t-73.5 83t-23.5 111zM164 -129q0 -42 15 -75.5t50.5 -56t93.5 -34.5t144 -12q69 0 126 13t98.5 36.5t64 56.5t22.5 74q0 36 -12 64t-40.5 49t-75.5 35.5t-118 23.5l-182 23q-8 2 -16.5 3t-16.5 1q-77 -32 -115 -85.5t-38 -115.5zM227 709
q0 -63 16.5 -114t47 -87.5t74.5 -56t100 -19.5q55 0 98.5 19.5t73.5 56t45.5 87.5t15.5 114q0 65 -15 117.5t-45 89t-74 56t-101 19.5q-56 0 -100 -20t-74 -57t-46 -89t-16 -116z" />
    <glyph glyph-name="h" unicode="h" horiz-adv-x="1014" 
d="M139 0v1516h133v-590q28 31 66.5 62t83 56t94.5 40.5t102 15.5q135 0 201 -75.5t66 -223.5v-801h-133v778q0 103 -38 154t-130 51q-42 0 -83.5 -14t-81.5 -37.5t-77.5 -54t-69.5 -62.5v-815h-133z" />
    <glyph glyph-name="i" unicode="i" horiz-adv-x="432" 
d="M147 1313v157h138v-157h-138zM150 0v1077h133v-1077h-133z" />
    <glyph glyph-name="j" unicode="j" horiz-adv-x="432" 
d="M10 -295q10 -2 25.5 -3t27.5 -1q44 0 65.5 27.5t21.5 87.5v1261h133v-1259q0 -119 -48 -173.5t-157 -54.5q-6 0 -15.5 0.5t-20 1t-19.5 1t-13 1.5v111zM147 1313v157h138v-157h-138z" />
    <glyph glyph-name="k" unicode="k" horiz-adv-x="922" 
d="M139 0v1516h133v-1020q9 15 26 40t38.5 55t46 62.5t47.5 63.5l266 360h140l-293 -391l331 -686h-137l-278 575l-187 -245v-330h-133z" />
    <glyph glyph-name="l" unicode="l" horiz-adv-x="432" 
d="M150 0v1516h133v-1516h-133z" />
    <glyph glyph-name="m" unicode="m" horiz-adv-x="1585" 
d="M139 0v1077h133v-151q31 33 68.5 64.5t79.5 55.5t88.5 39t97.5 15q111 0 168.5 -47t77.5 -129q33 34 71.5 66t82 56.5t91.5 39t99 14.5q133 0 196.5 -75.5t63.5 -223.5v-801h-133v778q0 103 -36.5 154t-127.5 51q-40 0 -78.5 -12.5t-75 -35t-72 -52.5t-69.5 -64v-819
h-133v778q0 51 -7.5 89.5t-26.5 64t-50 38.5t-78 13q-38 0 -75 -12.5t-74 -35t-74 -53t-74 -67.5v-815h-133z" />
    <glyph glyph-name="n" unicode="n" horiz-adv-x="1014" 
d="M139 0v1077h133v-151q28 31 66.5 62t83 56t94.5 40.5t102 15.5q135 0 201 -75.5t66 -223.5v-801h-133v778q0 103 -38 154t-130 51q-42 0 -83.5 -14t-81.5 -37.5t-77.5 -54t-69.5 -62.5v-815h-133z" />
    <glyph glyph-name="o" unicode="o" horiz-adv-x="1001" 
d="M86 539q0 136 31 241t86.5 176t132 107.5t166.5 36.5q89 0 164.5 -36.5t131 -107.5t86.5 -176t31 -241q0 -135 -31 -240t-86.5 -176.5t-131 -108.5t-164.5 -37t-165.5 37t-132 108.5t-87 176.5t-31.5 240zM221 541q0 -92 16 -173.5t50.5 -142.5t87.5 -97t127 -36
q69 0 121 33t87 92t52.5 142t17.5 182q0 90 -16.5 170t-50.5 140.5t-86.5 96t-124.5 35.5q-70 0 -122.5 -33t-88 -91.5t-53 -139.5t-17.5 -178z" />
    <glyph glyph-name="p" unicode="p" horiz-adv-x="1028" 
d="M139 -410v1487h133v-137q25 29 55.5 58t67.5 51.5t81 36.5t95 14q79 0 147 -32.5t117.5 -100.5t78 -173.5t28.5 -252.5t-29 -252.5t-79.5 -173.5t-119.5 -100.5t-149 -32.5q-94 0 -165.5 42.5t-127.5 110.5v-545h-133zM272 256q65 -77 131 -117.5t144 -40.5
q57 0 104.5 24.5t82 78t54 137t19.5 201.5q0 114 -19.5 198t-54.5 138.5t-83 81t-105 26.5q-41 0 -78 -13t-71 -35t-65 -51.5t-59 -62.5v-565z" />
    <glyph glyph-name="q" unicode="q" horiz-adv-x="1028" 
d="M88 539q0 146 28.5 252t79 174.5t118.5 101.5t147 33q47 0 87.5 -12t76.5 -33t68.5 -50.5t62.5 -64.5v137h133v-1487h-133v553q-26 -31 -56.5 -60t-67 -51.5t-79.5 -36t-94 -13.5q-79 0 -147 32t-117.5 99.5t-78 173t-28.5 252.5zM223 541q0 -116 19.5 -200t55 -138.5
t84 -80.5t105.5 -26q41 0 76.5 12t67.5 33.5t62.5 50.5t62.5 64v563q-65 76 -130 120t-143 44q-57 0 -104.5 -25.5t-82 -79.5t-54 -137.5t-19.5 -199.5z" />
    <glyph glyph-name="r" unicode="r" horiz-adv-x="694" 
d="M139 0v1077h133v-192h4q25 43 59 82.5t78 68.5t97.5 46.5t118.5 17.5h22l-12 -125h-35q-54 0 -103.5 -17.5t-92 -49.5t-77 -77t-59.5 -100v-731h-133z" />
    <glyph glyph-name="s" unicode="s" horiz-adv-x="877" 
d="M49 205l98 63q53 -86 127 -131t164 -45q113 0 172.5 48t59.5 128q0 53 -24.5 89.5t-64 63.5t-90.5 47t-104 41t-104 46t-90.5 60.5t-64 85t-24.5 120.5q0 60 23.5 111t66.5 88.5t103 58.5t133 21q123 0 208 -54t138 -145l-98 -65q-40 69 -100 110t-148 41
q-50 0 -86.5 -12.5t-60.5 -34.5t-35.5 -51t-11.5 -62q0 -53 24 -89.5t63.5 -62.5t90 -45.5t103 -40t103 -45.5t90 -61t63.5 -87t24 -124q0 -67 -28 -121t-76.5 -92t-114.5 -58.5t-142 -20.5q-136 0 -230.5 59t-156.5 166z" />
    <glyph glyph-name="t" unicode="t" horiz-adv-x="647" 
d="M41 965v112h160v389h133v-389h239v-112h-239v-703q0 -41 6 -72t22.5 -51.5t44.5 -30.5t72 -10q26 0 51.5 4t42.5 11v-113q-20 -6 -52 -10t-64 -4q-68 0 -116.5 13.5t-79.5 43t-45.5 77t-14.5 116.5v729h-160z" />
    <glyph glyph-name="u" unicode="u" horiz-adv-x="1014" 
d="M129 276v801h133v-778q0 -103 39 -154t133 -51q42 0 81.5 12.5t78 35t75.5 53.5t74 69v813h134v-1077h-134v154q-33 -35 -71.5 -67t-82 -56.5t-92 -39t-100.5 -14.5q-134 0 -201 75.5t-67 223.5z" />
    <glyph glyph-name="v" unicode="v" horiz-adv-x="891" 
d="M47 1077h133l187 -641q10 -35 19.5 -67.5t19 -67t20.5 -72.5t23 -84h4q11 45 21 83t19.5 72t18.5 67t20 69l187 641h125l-330 -1083h-137z" />
    <glyph glyph-name="w" unicode="w" horiz-adv-x="1292" 
d="M47 1077h129l146 -579q10 -40 18 -74.5t16.5 -69t16.5 -72t18 -83.5h4q9 45 17 82.5t16 72.5t16.5 71.5t18.5 78.5l129 573h119l131 -569q19 -83 36.5 -155t32.5 -154h4q8 42 16.5 79.5t17.5 74.5t18.5 75.5t19.5 81.5l139 567h119l-278 -1083h-117l-201 862h-4
l-203 -862h-114z" />
    <glyph glyph-name="x" unicode="x" horiz-adv-x="879" 
d="M43 0l328 567l-293 510h139l232 -409l225 409h131l-295 -508l328 -569h-140l-264 469l-262 -469h-129z" />
    <glyph glyph-name="y" unicode="y" horiz-adv-x="920" 
d="M18 -389l27 108q20 -6 54 -10t71 -4t64 10.5t47.5 33t36 56.5t30.5 82l35 103l-336 1087h135l176 -594q13 -45 25 -85.5t23 -79.5t21.5 -78t21.5 -82h4q12 44 23.5 85t23 81.5t23.5 82.5t26 89l172 581h127l-371 -1200q-24 -75 -50 -129.5t-61.5 -90t-84 -52.5
t-115.5 -17q-43 0 -84.5 7.5t-63.5 15.5z" />
    <glyph glyph-name="z" unicode="z" horiz-adv-x="870" 
d="M72 0v90l542 875h-497v112h655v-88l-543 -876h566v-113h-723z" />
    <glyph glyph-name="braceleft" unicode="{" horiz-adv-x="664" 
d="M61 502v102q50 0 86.5 10t60 37t35 74.5t11.5 122.5v391q0 67 13.5 118.5t43.5 86.5t76.5 53.5t112.5 18.5h102v-109h-76q-71 0 -104 -37t-33 -115v-411q0 -75 -10.5 -124.5t-30 -81.5t-47.5 -50.5t-63 -32.5v-4q35 -14 63 -32.5t47.5 -50.5t30 -81.5t10.5 -124.5v-412
q0 -78 33 -114.5t104 -36.5h76v-109h-104q-65 0 -111.5 18t-76 53.5t-43 87t-13.5 118.5v391q0 75 -11.5 122.5t-35 74.5t-60 37t-86.5 10z" />
    <glyph glyph-name="bar" unicode="|" horiz-adv-x="614" 
d="M242 -410v1926h131v-1926h-131z" />
    <glyph glyph-name="braceright" unicode="}" horiz-adv-x="664" 
d="M61 -301h76q72 0 104.5 36.5t32.5 114.5v414q0 75 10.5 124t30 80.5t48 50t63.5 32.5v4q-35 14 -63.5 32t-48 49.5t-30 81t-10.5 124.5v413q0 78 -32.5 115t-104.5 37h-76v109h107q67 0 113.5 -18t75.5 -53t42 -86t13 -118v-393q0 -75 11.5 -122.5t35 -74.5t59.5 -37
t86 -10v-102q-50 0 -86 -10t-59.5 -37t-35 -74.5t-11.5 -122.5v-393q0 -134 -56 -204.5t-186 -70.5h-109v109z" />
    <glyph glyph-name="asciitilde" unicode="~" horiz-adv-x="893" 
d="M156 852q0 116 40 169.5t117 53.5q40 0 76.5 -18t69.5 -39t63 -39t58 -18q35 0 52 24t17 86h86q0 -114 -39 -168.5t-116 -54.5q-39 0 -75.5 18t-70 39.5t-63.5 39.5t-56 18q-37 0 -53 -24.5t-16 -86.5h-90z" />
    <glyph glyph-name="uni00A0" unicode="&#xa0;" horiz-adv-x="197" 
 />
    <glyph glyph-name="exclamdown" unicode="&#xa1;" horiz-adv-x="559" 
d="M197 1329v187h163v-187h-163zM199 0l34 1108h91l36 -1108h-161z" />
    <glyph glyph-name="cent" unicode="&#xa2;" horiz-adv-x="922" 
d="M86 539q0 144 32.5 249.5t88.5 174.5t130.5 103t158.5 34h19q10 0 20 -2l45 202h106l-51 -227q42 -19 75 -48.5t58 -67t43.5 -80.5t32.5 -89l-123 -34q-20 66 -47.5 118.5t-69.5 83.5l-190 -856q17 -6 36.5 -10t41.5 -4q93 0 151 61.5t90 178.5l119 -35
q-46 -152 -137.5 -233t-229.5 -81q-23 0 -46 3.5t-46 9.5l-53 -244h-107l64 287q-48 31 -86.5 78.5t-66.5 111.5t-43 143t-15 173zM221 541q0 -128 28.5 -226t82.5 -155l184 829q-6 2 -12 2h-12q-54 0 -103 -27t-86.5 -82.5t-59.5 -140.5t-22 -200z" />
    <glyph glyph-name="sterling" unicode="&#xa3;" horiz-adv-x="1071" 
d="M39 170q0 48 15 89t43.5 71t68.5 46.5t90 16.5q54 0 101 -24.5t89 -61.5q5 25 7 54t2 63q0 85 -23 163.5t-55 153.5h-227v113h178q-18 42 -35.5 82.5t-30.5 80.5t-21 79t-8 78q0 85 24 153.5t69 116.5t109 74t143 26q92 0 155.5 -31.5t104.5 -84.5t61 -121.5t25 -143.5
l-129 -12q-4 58 -17.5 108t-39.5 86.5t-66.5 57t-98.5 20.5q-94 0 -149 -62t-55 -183q0 -39 8 -79t21.5 -80t31 -81.5t35.5 -83.5h293v-113h-244q28 -72 47 -147.5t19 -159.5q0 -60 -8 -115.5t-23 -103.5q24 -24 48 -47t48.5 -40t50 -27.5t52.5 -10.5q78 0 117 67t42 218
h121q-2 -89 -17.5 -163.5t-47.5 -128t-83.5 -83t-125.5 -29.5q-39 0 -74 12t-66.5 31.5t-60 45t-55.5 53.5q-42 -66 -104.5 -104t-143.5 -38q-41 0 -79 13t-67.5 38t-47 62.5t-17.5 85.5zM150 176q0 -49 30.5 -76.5t73.5 -27.5q51 0 94.5 26.5t71.5 94.5q-40 42 -80 69
t-86 27t-75 -29.5t-29 -83.5z" />
    <glyph glyph-name="yen" unicode="&#xa5;" horiz-adv-x="1055" 
d="M39 1516h143l346 -754h4l347 754h135l-406 -854h348v-113h-362v-195h362v-112h-362v-242h-133v242h-363v112h363v195h-363v113h346z" />
    <glyph glyph-name="brokenbar" unicode="&#xa6;" horiz-adv-x="614" 
d="M242 -410v838h131v-838h-131zM242 678v838h131v-838h-131z" />
    <glyph glyph-name="section" unicode="&#xa7;" horiz-adv-x="940" 
d="M86 600q0 57 20.5 107t53.5 92t75.5 76t86.5 59q-45 36 -76.5 70t-52 70t-30 75t-9.5 84q0 64 22.5 121t64.5 99t102 66.5t134 24.5q91 0 153 -24.5t102.5 -67.5t64 -103t37.5 -130l-123 -29q-12 56 -29.5 100t-44 74.5t-65 46.5t-93.5 16q-49 0 -85.5 -15t-60.5 -40.5
t-36 -59.5t-12 -73q0 -42 14 -78.5t43.5 -71t73.5 -70t104 -77.5q84 -56 146.5 -102t104 -93t62.5 -99t21 -120q0 -57 -20 -107.5t-53 -93t-75 -76.5t-85 -58q43 -37 73.5 -71.5t49.5 -70t27.5 -74t8.5 -83.5q0 -65 -22 -122t-63.5 -99t-101 -66.5t-134.5 -24.5
q-89 0 -149 25.5t-99.5 69t-62 102.5t-35.5 127l123 31q10 -52 25.5 -96t40.5 -76t62.5 -50t92.5 -18q50 0 86 15t59.5 41t35 60.5t11.5 73.5q0 42 -13.5 78.5t-41 71t-71 70.5t-103.5 77q-83 56 -145.5 102.5t-104.5 93.5t-63 99.5t-21 120.5zM215 610q0 -45 15 -82t48 -73
t86.5 -76t131.5 -92q8 -6 16.5 -12.5t17.5 -12.5q91 48 144 112t53 142q0 45 -15 81.5t-48 72.5t-86.5 76.5t-131.5 93.5q-9 6 -17.5 12t-16.5 12q-91 -48 -144 -111.5t-53 -142.5z" />
    <glyph glyph-name="dieresis" unicode="&#xa8;" horiz-adv-x="893" 
d="M219 1192v164h146v-164h-146zM530 1192v164h144v-164h-144z" />
    <glyph glyph-name="copyright" unicode="&#xa9;" horiz-adv-x="1452" 
d="M82 758q0 109 22.5 209.5t63.5 188t99 159t129.5 122.5t155 79t175.5 28t175 -28t154.5 -79t129.5 -122.5t99 -159t63 -188t22 -209.5q0 -164 -49 -307t-135.5 -250t-204.5 -168.5t-256 -61.5t-255.5 61.5t-203.5 168.5t-135 250t-49 307zM168 758q0 -97 19.5 -187.5
t55 -169t85.5 -143t112 -110.5t134.5 -71.5t152.5 -25.5q79 0 151 25.5t134 71.5t112.5 110.5t86 143t54.5 169t19 187.5q0 146 -42.5 274.5t-117.5 224.5t-177 151.5t-222 55.5q-119 0 -221 -55.5t-176.5 -151.5t-117 -224.5t-42.5 -274.5zM426 768q0 105 21 187.5
t60.5 139.5t95.5 87t126 30q58 0 102.5 -20t77 -56.5t54.5 -88t36 -115.5l-100 -19q-22 97 -60 149t-110 52q-48 0 -84.5 -25t-61.5 -70.5t-38 -109t-13 -141.5q0 -82 13 -147t38 -110t61.5 -69t84.5 -24q71 0 112 51.5t66 161.5l99 -19q-14 -69 -37.5 -123.5t-58 -93
t-80 -58.5t-103.5 -20q-69 0 -124.5 29.5t-95 86.5t-60.5 141t-21 194z" />
    <glyph glyph-name="ordfeminine" unicode="&#xaa;" horiz-adv-x="743" 
d="M88 936q0 56 23.5 105.5t74.5 91.5t132 75.5t196 57.5v49q0 65 -28 99t-87 34q-69 0 -125 -33t-102 -80l-68 66q67 68 140 105.5t164 37.5q110 0 160 -60t50 -169v-365q0 -66 4.5 -111.5t18.5 -80.5h-111q-6 23 -11 44.5t-5 47.5q-51 -50 -109.5 -78.5t-130.5 -28.5
q-91 0 -138.5 51t-47.5 142zM195 946q0 -57 27.5 -83.5t78.5 -26.5q62 0 116 31t97 77v242q-94 -21 -155.5 -48t-98 -58.5t-51 -65.5t-14.5 -68z" />
    <glyph glyph-name="guillemotleft" unicode="&#xab;" horiz-adv-x="893" 
d="M76 541l248 536h135l-244 -536l244 -541h-135zM422 541l250 536h135l-246 -536l246 -541h-135z" />
    <glyph glyph-name="logicalnot" unicode="&#xac;" horiz-adv-x="1081" 
d="M96 612v117h887v-559h-119v442h-768z" />
    <glyph glyph-name="uni00AD" unicode="&#xad;" horiz-adv-x="627" 
d="M115 582v120h399v-120h-399z" />
    <glyph glyph-name="registered" unicode="&#xae;" horiz-adv-x="1452" 
d="M82 758q0 109 22.5 209.5t63.5 188t99 159t129.5 122.5t155 79t175.5 28t175 -28t154.5 -79t129.5 -122.5t99 -159t63 -188t22 -209.5q0 -164 -49 -307t-135.5 -250t-204.5 -168.5t-256 -61.5t-255.5 61.5t-203.5 168.5t-135 250t-49 307zM168 758q0 -146 42.5 -275
t117.5 -225.5t177 -152.5t222 -56q79 0 151 25.5t134 71.5t112.5 111t86 143.5t54.5 169t19 188.5q0 97 -19.5 187.5t-55 169t-85.5 143.5t-112 111t-134.5 71.5t-152.5 25.5q-79 0 -151 -25.5t-134 -71.5t-112.5 -110.5t-86 -143t-54.5 -169t-19 -188.5zM483 348v844h242
q122 0 189 -59t67 -181q0 -52 -12.5 -91t-33.5 -66.5t-49 -45t-59 -26.5l166 -375h-112l-160 361h-133v-361h-105zM588 801h131q77 0 116 35t39 116q0 78 -39 110t-116 32h-131v-293z" />
    <glyph glyph-name="macron" unicode="&#xaf;" horiz-adv-x="893" 
d="M195 1270v116h501v-116h-501z" />
    <glyph glyph-name="degree" unicode="&#xb0;" horiz-adv-x="702" 
d="M102 1262q0 61 18 113t51 89.5t79 58.5t102 21q55 0 100 -21t77.5 -58.5t50.5 -89.5t18 -113q0 -62 -18 -113.5t-50.5 -89.5t-77.5 -59t-100 -21q-56 0 -102 21t-79 59t-51 89.5t-18 113.5zM205 1262q0 -43 10.5 -78.5t29.5 -61t46 -39.5t61 -14q33 0 59.5 14t45.5 39.5
t29 61t10 78.5t-10 78t-29 60.5t-45.5 39.5t-59.5 14q-34 0 -61 -14t-46 -39.5t-29.5 -60.5t-10.5 -78z" />
    <glyph glyph-name="plusminus" unicode="&#xb1;" horiz-adv-x="1085" 
d="M96 131v113h385v420h-385v114h385v430h121v-430h385v-114h-385v-420h385v-113h-891z" />
    <glyph glyph-name="uni00B2" unicode="&#xb2;" horiz-adv-x="766" 
d="M123 639v39q0 67 16.5 119t44 92.5t62 72.5t71 60.5t71 56t62 59t44 69.5t16.5 87q0 66 -30.5 104t-92.5 38q-54 0 -92 -41t-66 -115l-100 41q43 108 107.5 163.5t154.5 55.5q114 0 174 -65.5t60 -176.5q0 -52 -15.5 -93.5t-41 -76.5t-58.5 -64.5t-67.5 -57.5
t-68.5 -55.5t-61 -58t-45.5 -66t-21.5 -78.5h379v-109h-502z" />
    <glyph glyph-name="uni00B3" unicode="&#xb3;" horiz-adv-x="766" 
d="M100 842l97 41q18 -44 38 -73t42 -46.5t46.5 -25t53.5 -7.5q72 0 112.5 44.5t40.5 113.5q0 42 -11 74.5t-35.5 55t-63.5 34.5t-96 12h-43v88h63q91 0 131.5 40.5t40.5 113.5q0 27 -7 50.5t-23 41t-40.5 27.5t-58.5 10q-51 0 -91.5 -28.5t-78.5 -78.5l-82 57
q53 75 117.5 114.5t142.5 39.5q61 0 105 -18.5t72.5 -49.5t41.5 -71.5t13 -85.5q0 -72 -33 -122.5t-92 -76.5q69 -31 105 -85t36 -142q0 -57 -18.5 -105t-53 -82.5t-83 -53.5t-109.5 -19q-104 0 -171.5 56.5t-107.5 156.5z" />
    <glyph glyph-name="acute" unicode="&#xb4;" horiz-adv-x="893" 
d="M336 1194l166 315h168l-246 -315h-88z" />
    <glyph glyph-name="uni00B5" unicode="&#xb5;" horiz-adv-x="1018" 
d="M131 -410v1489h135v-780q0 -102 38 -153.5t132 -51.5q41 0 80 12.5t77.5 34.5t75.5 52.5t74 66.5v819h138v-1079h-138v156q-32 -32 -69 -63t-78 -55t-86 -39.5t-94 -16.5q-48 0 -86 11t-64 40v-443h-135z" />
    <glyph glyph-name="paragraph" unicode="&#xb6;" horiz-adv-x="1087" 
d="M102 1102q0 89 26 164.5t75.5 131t122 87t166.5 31.5h436v-1926h-123v1807h-172v-1807h-119v1104q-198 4 -305 106t-107 302z" />
    <glyph glyph-name="uni2219" unicode="&#xb7;" horiz-adv-x="545" 
d="M184 541v192h176v-192h-176z" />
    <glyph glyph-name="uni2219" unicode="&#x2219;" horiz-adv-x="545" 
d="M184 541v192h176v-192h-176z" />
    <glyph glyph-name="cedilla" unicode="&#xb8;" horiz-adv-x="893" 
d="M225 -338l47 72q41 -28 85 -44t94 -16q65 0 97 25t32 72q0 34 -19.5 52.5t-56.5 18.5q-29 0 -51.5 -12t-40.5 -29l-58 27l49 182h84l-32 -123q18 14 41.5 22.5t54.5 8.5q24 0 47 -8t42 -25t30.5 -43t11.5 -63q0 -48 -19 -83.5t-51.5 -59.5t-74 -36t-86.5 -12
q-62 0 -120.5 20t-105.5 54z" />
    <glyph glyph-name="uni00B9" unicode="&#xb9;" horiz-adv-x="690" 
d="M168 633v104h137v645q-28 -12 -62.5 -19t-72.5 -7v102q51 3 88.5 16.5t63.5 41.5h100v-779h121v-104h-375z" />
    <glyph glyph-name="ordmasculine" unicode="&#xba;" horiz-adv-x="743" 
d="M76 1143q0 97 22 172t61.5 126t93.5 77t118 26t118.5 -26t94.5 -77t62 -126t22 -172t-22 -171.5t-62 -125.5t-94.5 -77t-118.5 -26q-63 0 -117 26t-93.5 77t-62 125.5t-22.5 171.5zM182 1145q0 -62 11 -118t34 -98.5t58.5 -67.5t85.5 -25q48 0 83.5 23t59 64.5t35.5 98
t12 123.5q0 61 -11 116.5t-34 96.5t-59 65.5t-86 24.5q-47 0 -82.5 -23t-59 -63.5t-35.5 -96t-12 -120.5z" />
    <glyph glyph-name="guillemotright" unicode="&#xbb;" horiz-adv-x="893" 
d="M88 0l246 541l-246 536h135l248 -536l-248 -541h-135zM436 0l244 541l-244 536h135l246 -536l-246 -541h-135z" />
    <glyph glyph-name="onequarter" unicode="&#xbc;" horiz-adv-x="1579" 
d="M168 633v104h137v645q-28 -12 -62.5 -19t-72.5 -7v102q51 3 88.5 16.5t63.5 41.5h100v-779h121v-104h-375zM371 0l770 1516h121l-770 -1516h-121zM891 213v76l336 594h116v-570h119v-100h-119v-213h-110v213h-342zM1012 313h221v400z" />
    <glyph glyph-name="onehalf" unicode="&#xbd;" horiz-adv-x="1661" 
d="M168 633v104h137v645q-28 -12 -62.5 -19t-72.5 -7v102q51 3 88.5 16.5t63.5 41.5h100v-779h121v-104h-375zM371 0l770 1516h121l-770 -1516h-121zM1010 0v39q0 67 16.5 118.5t44 92t62 72t71 60t71 56t62 59t44 69.5t16.5 87q0 66 -30.5 104t-92.5 38q-54 0 -92 -40
t-66 -114l-98 41q42 106 106 161.5t154 55.5q114 0 172.5 -65.5t58.5 -176.5q0 -69 -26.5 -120.5t-67 -93.5t-88 -78t-89 -74.5t-71.5 -82.5t-34 -102h378v-106h-501z" />
    <glyph glyph-name="threequarters" unicode="&#xbe;" horiz-adv-x="1612" 
d="M100 842l97 41q18 -44 38 -73t42 -46.5t46.5 -25t53.5 -7.5q72 0 112.5 44.5t40.5 113.5q0 42 -11 74.5t-35.5 55t-63.5 34.5t-96 12h-43v88h63q91 0 131.5 40.5t40.5 113.5q0 27 -7 50.5t-23 41t-40.5 27.5t-58.5 10q-51 0 -91.5 -28.5t-78.5 -78.5l-82 57
q53 75 117.5 114.5t142.5 39.5q61 0 105 -18.5t72.5 -49.5t41.5 -71.5t13 -85.5q0 -72 -33 -122.5t-92 -76.5q69 -31 105 -85t36 -142q0 -57 -18.5 -105t-53 -82.5t-83 -53.5t-109.5 -19q-104 0 -171.5 56.5t-107.5 156.5zM406 0l770 1516h118l-768 -1516h-120zM926 213v76
l334 594h116v-570h119v-100h-119v-213h-110v213h-340zM1044 313h224v400z" />
    <glyph glyph-name="questiondown" unicode="&#xbf;" horiz-adv-x="938" 
d="M86 324q0 73 17 128t46 98t66.5 78t79.5 70q51 44 83 81.5t50 81.5t24.5 102.5t6.5 144.5h114v-123q0 -64 -12 -113.5t-35 -90t-55.5 -76t-73.5 -70.5q-42 -35 -74 -66.5t-54 -66t-33 -75.5t-11 -95t15.5 -98t46 -75t76 -48t104.5 -17q50 0 92.5 16t78.5 44.5t65.5 68
t54.5 86.5l112 -55q-32 -62 -73 -113.5t-91.5 -89.5t-112 -59t-134.5 -21q-89 0 -158.5 27t-117 74t-72.5 112t-25 140zM432 1327v189h168v-189h-168z" />
    <glyph glyph-name="Agrave" unicode="&#xc0;" horiz-adv-x="1139" 
d="M61 0l445 1522h127l444 -1522h-139l-133 469h-479l-133 -469h-132zM289 1927h170l164 -315h-91zM360 592h410l-70 248q-40 136 -72 251t-61 226h-4l-30 -112q-15 -56 -31 -114t-33.5 -120t-36.5 -129z" />
    <glyph glyph-name="Aacute" unicode="&#xc1;" horiz-adv-x="1139" 
d="M61 0l445 1522h127l444 -1522h-139l-133 469h-479l-133 -469h-132zM360 592h410l-70 248q-40 136 -72 251t-61 226h-4l-30 -112q-15 -56 -31 -114t-33.5 -120t-36.5 -129zM512 1612l166 315h168l-246 -315h-88z" />
    <glyph glyph-name="Acircumflex" unicode="&#xc2;" horiz-adv-x="1139" 
d="M61 0l445 1522h127l444 -1522h-139l-133 469h-479l-133 -469h-132zM295 1585l225 324h96l226 -324h-86l-189 191l-186 -191h-86zM360 592h410l-70 248q-40 136 -72 251t-61 226h-4l-30 -112q-15 -56 -31 -114t-33.5 -120t-36.5 -129z" />
    <glyph glyph-name="Atilde" unicode="&#xc3;" horiz-adv-x="1139" 
d="M61 0l445 1522h127l444 -1522h-139l-133 469h-479l-133 -469h-132zM279 1608q0 115 40 169t117 54q40 0 76.5 -18t69.5 -39.5t63 -39.5t57 -18q36 0 53 24.5t17 86.5h86q0 -115 -39 -169t-117 -54q-39 0 -75.5 18t-69.5 39t-63 39t-56 18q-37 0 -53 -24t-16 -86h-90z
M360 592h410l-70 248q-40 136 -72 251t-61 226h-4l-30 -112q-15 -56 -31 -114t-33.5 -120t-36.5 -129z" />
    <glyph glyph-name="Adieresis" unicode="&#xc4;" horiz-adv-x="1139" 
d="M61 0l445 1522h127l444 -1522h-139l-133 469h-479l-133 -469h-132zM342 1610v164h145v-164h-145zM360 592h410l-70 248q-40 136 -72 251t-61 226h-4l-30 -112q-15 -56 -31 -114t-33.5 -120t-36.5 -129zM653 1610v164h144v-164h-144z" />
    <glyph glyph-name="Aring" unicode="&#xc5;" horiz-adv-x="1139" 
d="M61 0l431 1477q-42 21 -66.5 65t-24.5 103q0 40 12 74.5t33.5 60t52 39.5t68.5 14t69 -14t53 -39.5t34 -60t12 -74.5q0 -59 -23 -103t-65 -65l430 -1477h-139l-133 469h-479l-133 -469h-132zM358 592h412l-70 250q-40 136 -72 251t-61 226h-4l-30 -112q-15 -56 -31 -114
t-33.5 -120t-36.5 -129zM479 1645q0 -50 23 -83.5t65 -33.5q44 0 67 33.5t23 83.5q0 49 -23 81.5t-67 32.5q-42 0 -65 -32.5t-23 -81.5z" />
    <glyph glyph-name="AE" unicode="&#xc6;" horiz-adv-x="1686" 
d="M49 0l699 1516h819v-130h-611v-520h449v-127h-449v-612h648v-127h-787v489h-409l-224 -489h-135zM461 608h356v774z" />
    <glyph glyph-name="Ccedilla" unicode="&#xc7;" horiz-adv-x="1192" 
d="M100 762q0 187 37.5 332.5t106.5 245.5t167 152t220 52q102 0 178.5 -35t131 -97t90 -148.5t56.5 -188.5l-129 -24q-18 88 -45.5 156.5t-67 115t-93.5 70.5t-125 24q-92 0 -164 -45.5t-121.5 -130.5t-75.5 -206t-26 -271q0 -159 26 -283t76.5 -209t123 -129.5
t165.5 -44.5q70 0 125.5 23.5t97.5 70.5t73 119t52 170l125 -20q-23 -108 -62.5 -198.5t-98 -155t-136.5 -100.5t-178 -36h-2l-23 -84q19 14 42 22.5t54 8.5q24 0 47.5 -8t42 -25t30 -43t11.5 -63q0 -48 -19 -83.5t-51 -59.5t-74 -36t-87 -12q-62 0 -120.5 20t-104.5 54
l47 72q40 -28 84.5 -44t93.5 -16q65 0 97 25t32 72q0 34 -19.5 52.5t-56.5 18.5q-29 0 -51 -12t-41 -29l-57 27l41 149q-103 17 -185.5 76.5t-140 158.5t-88.5 237t-31 313z" />
    <glyph glyph-name="Egrave" unicode="&#xc8;" horiz-adv-x="1032" 
d="M164 0v1516h751v-130h-612v-520h451v-127h-451v-612h649v-127h-788zM293 1927h170l164 -315h-90z" />
    <glyph glyph-name="Eacute" unicode="&#xc9;" horiz-adv-x="1032" 
d="M164 0v1516h751v-130h-612v-520h451v-127h-451v-612h649v-127h-788zM424 1612l166 315h168l-246 -315h-88z" />
    <glyph glyph-name="Ecircumflex" unicode="&#xca;" horiz-adv-x="1032" 
d="M164 0v1516h751v-130h-612v-520h451v-127h-451v-612h649v-127h-788zM262 1604l225 323h97l225 -323h-86l-188 190l-187 -190h-86z" />
    <glyph glyph-name="Edieresis" unicode="&#xcb;" horiz-adv-x="1032" 
d="M164 0v1516h751v-130h-612v-520h451v-127h-451v-612h649v-127h-788zM309 1610v164h146v-164h-146zM621 1610v164h143v-164h-143z" />
    <glyph glyph-name="Igrave" unicode="&#xcc;" horiz-adv-x="492" 
d="M23 1927h170l163 -315h-90zM176 0v1516h139v-1516h-139z" />
    <glyph glyph-name="Iacute" unicode="&#xcd;" horiz-adv-x="492" 
d="M135 1612l166 315h168l-246 -315h-88zM176 0v1516h139v-1516h-139z" />
    <glyph glyph-name="Icircumflex" unicode="&#xce;" horiz-adv-x="492" 
d="M-29 1604l226 323h96l225 -323h-86l-188 190l-187 -190h-86zM176 0v1516h139v-1516h-139z" />
    <glyph glyph-name="Idieresis" unicode="&#xcf;" horiz-adv-x="492" 
d="M18 1610v164h146v-164h-146zM176 0v1516h139v-1516h-139zM330 1610v164h143v-164h-143z" />
    <glyph glyph-name="Eth" unicode="&#xd0;" horiz-adv-x="1214" 
d="M31 741v121h133v654h317q159 0 278 -45t197.5 -138t118 -235.5t39.5 -337.5t-40 -338t-119.5 -237t-198 -139.5t-275.5 -45.5h-317v741h-133zM303 127h201q118 0 206 37t146.5 114t87.5 197t29 285q0 322 -116.5 474t-354.5 152h-199v-524h272v-121h-272v-614z" />
    <glyph glyph-name="Ntilde" unicode="&#xd1;" horiz-adv-x="1272" 
d="M164 0v1516h172l506 -984q20 -38 36.5 -70.5t31.5 -63.5l32 -63q16 -32 35 -71h4v1252h127v-1516h-129l-535 1032q-22 43 -40 77.5t-34 67.5l-35 69q-18 36 -40 83h-4v-1329h-127zM346 1608q0 115 40 169t118 54q40 0 76 -18t69 -39.5t63 -39.5t58 -18q35 0 52.5 24.5
t17.5 86.5h86q0 -115 -39.5 -169t-116.5 -54q-39 0 -75.5 18t-69.5 39t-63 39t-56 18q-37 0 -53.5 -24t-16.5 -86h-90z" />
    <glyph glyph-name="Ograve" unicode="&#xd2;" horiz-adv-x="1272" 
d="M100 758q0 188 39.5 334.5t111 247t170 152.5t216.5 52q117 0 215.5 -52t169 -152.5t110 -247t39.5 -334.5t-39.5 -334.5t-110 -247t-169 -153t-215.5 -52.5q-118 0 -216.5 52.5t-170 153t-111 247t-39.5 334.5zM240 758q0 -157 28 -279.5t79.5 -207t125 -129
t164.5 -44.5q90 0 162.5 44.5t124 129t79 207t27.5 279.5t-27.5 279.5t-79 207t-124 128.5t-162.5 44q-91 0 -164.5 -44t-125 -128.5t-79.5 -207t-28 -279.5zM414 1927h170l164 -315h-91z" />
    <glyph glyph-name="Oacute" unicode="&#xd3;" horiz-adv-x="1272" 
d="M100 758q0 188 39.5 334.5t111 247t170 152.5t216.5 52q117 0 215.5 -52t169 -152.5t110 -247t39.5 -334.5t-39.5 -334.5t-110 -247t-169 -153t-215.5 -52.5q-118 0 -216.5 52.5t-170 153t-111 247t-39.5 334.5zM240 758q0 -157 28 -279.5t79.5 -207t125 -129
t164.5 -44.5q90 0 162.5 44.5t124 129t79 207t27.5 279.5t-27.5 279.5t-79 207t-124 128.5t-162.5 44q-91 0 -164.5 -44t-125 -128.5t-79.5 -207t-28 -279.5zM526 1612l166 315h168l-246 -315h-88z" />
    <glyph glyph-name="Ocircumflex" unicode="&#xd4;" horiz-adv-x="1272" 
d="M100 758q0 188 39.5 334.5t111 247t170 152.5t216.5 52q117 0 215.5 -52t169 -152.5t110 -247t39.5 -334.5t-39.5 -334.5t-110 -247t-169 -153t-215.5 -52.5q-118 0 -216.5 52.5t-170 153t-111 247t-39.5 334.5zM240 758q0 -157 28 -279.5t79.5 -207t125 -129
t164.5 -44.5q90 0 162.5 44.5t124 129t79 207t27.5 279.5t-27.5 279.5t-79 207t-124 128.5t-162.5 44q-91 0 -164.5 -44t-125 -128.5t-79.5 -207t-28 -279.5zM362 1604l226 323h96l225 -323h-86l-188 190l-186 -190h-87z" />
    <glyph glyph-name="Otilde" unicode="&#xd5;" horiz-adv-x="1272" 
d="M100 758q0 188 39.5 334.5t111 247t170 152.5t216.5 52q117 0 215.5 -52t169 -152.5t110 -247t39.5 -334.5t-39.5 -334.5t-110 -247t-169 -153t-215.5 -52.5q-118 0 -216.5 52.5t-170 153t-111 247t-39.5 334.5zM240 758q0 -157 28 -279.5t79.5 -207t125 -129
t164.5 -44.5q90 0 162.5 44.5t124 129t79 207t27.5 279.5t-27.5 279.5t-79 207t-124 128.5t-162.5 44q-91 0 -164.5 -44t-125 -128.5t-79.5 -207t-28 -279.5zM346 1608q0 115 40 169t118 54q40 0 76 -18t69 -39.5t63 -39.5t58 -18q35 0 52.5 24.5t17.5 86.5h86
q0 -115 -39.5 -169t-116.5 -54q-39 0 -75.5 18t-69.5 39t-63 39t-56 18q-37 0 -53.5 -24t-16.5 -86h-90z" />
    <glyph glyph-name="Odieresis" unicode="&#xd6;" horiz-adv-x="1272" 
d="M100 758q0 188 39.5 334.5t111 247t170 152.5t216.5 52q117 0 215.5 -52t169 -152.5t110 -247t39.5 -334.5t-39.5 -334.5t-110 -247t-169 -153t-215.5 -52.5q-118 0 -216.5 52.5t-170 153t-111 247t-39.5 334.5zM240 758q0 -157 28 -279.5t79.5 -207t125 -129
t164.5 -44.5q90 0 162.5 44.5t124 129t79 207t27.5 279.5t-27.5 279.5t-79 207t-124 128.5t-162.5 44q-91 0 -164.5 -44t-125 -128.5t-79.5 -207t-28 -279.5zM410 1610v164h145v-164h-145zM721 1610v164h143v-164h-143z" />
    <glyph glyph-name="multiply" unicode="&#xd7;" horiz-adv-x="1081" 
d="M131 342l330 328l-330 327l80 80l328 -327l327 327l80 -80l-328 -327l328 -328l-80 -78l-327 328l-328 -328z" />
    <glyph glyph-name="Oslash" unicode="&#xd8;" horiz-adv-x="1272" 
d="M100 758q0 188 39.5 334.5t111 247t170 152.5t216.5 52q81 0 155 -25.5t134 -76.5l86 164l92 -50l-100 -194q78 -99 122.5 -250.5t44.5 -353.5q0 -188 -39.5 -334.5t-110 -247t-169 -153t-215.5 -52.5q-169 0 -293 103l-84 -160l-92 49l98 191q-78 100 -122 251.5
t-44 352.5zM240 758q0 -152 26 -271t76 -204l522 1038q-93 96 -227 96q-91 0 -164.5 -44t-125 -128.5t-79.5 -207t-28 -279.5zM403 197q98 -101 234 -101q90 0 163 44.5t124.5 129.5t79.5 208t28 280q0 153 -26.5 272t-77.5 203z" />
    <glyph glyph-name="Ugrave" unicode="&#xd9;" horiz-adv-x="1229" 
d="M154 492v1024h139v-1002q0 -98 16.5 -175.5t54.5 -131.5t99 -82.5t151 -28.5t152 28.5t101 82.5t56 130.5t17 172.5v1006h133v-1020q0 -112 -26.5 -208t-82.5 -166.5t-142.5 -110.5t-207.5 -40q-123 0 -210.5 38t-143 107t-81 164.5t-25.5 211.5zM391 1927h170l164 -315
h-90z" />
    <glyph glyph-name="Uacute" unicode="&#xda;" horiz-adv-x="1229" 
d="M154 492v1024h139v-1002q0 -98 16.5 -175.5t54.5 -131.5t99 -82.5t151 -28.5t152 28.5t101 82.5t56 130.5t17 172.5v1006h133v-1020q0 -112 -26.5 -208t-82.5 -166.5t-142.5 -110.5t-207.5 -40q-123 0 -210.5 38t-143 107t-81 164.5t-25.5 211.5zM504 1612l166 315h168
l-246 -315h-88z" />
    <glyph glyph-name="Ucircumflex" unicode="&#xdb;" horiz-adv-x="1229" 
d="M154 492v1024h139v-1002q0 -98 16.5 -175.5t54.5 -131.5t99 -82.5t151 -28.5t152 28.5t101 82.5t56 130.5t17 172.5v1006h133v-1020q0 -112 -26.5 -208t-82.5 -166.5t-142.5 -110.5t-207.5 -40q-123 0 -210.5 38t-143 107t-81 164.5t-25.5 211.5zM342 1604l225 323h97
l225 -323h-86l-189 190l-186 -190h-86z" />
    <glyph glyph-name="Udieresis" unicode="&#xdc;" horiz-adv-x="1229" 
d="M154 492v1024h139v-1002q0 -98 16.5 -175.5t54.5 -131.5t99 -82.5t151 -28.5t152 28.5t101 82.5t56 130.5t17 172.5v1006h133v-1020q0 -112 -26.5 -208t-82.5 -166.5t-142.5 -110.5t-207.5 -40q-123 0 -210.5 38t-143 107t-81 164.5t-25.5 211.5zM387 1610v164h145v-164
h-145zM698 1610v164h144v-164h-144z" />
    <glyph glyph-name="Yacute" unicode="&#xdd;" horiz-adv-x="1055" 
d="M39 1516h143l346 -754h4l347 754h135l-416 -879v-637h-141v633zM418 1612l166 315h168l-246 -315h-88z" />
    <glyph glyph-name="Thorn" unicode="&#xde;" horiz-adv-x="1124" 
d="M164 0v1516h139v-283h277q103 0 186.5 -24.5t142.5 -75.5t91 -129.5t32 -186.5q0 -121 -35 -204.5t-97.5 -135t-148 -74t-186.5 -22.5h-262v-381h-139zM303 504h270q78 0 138.5 17t101 53.5t61.5 95t21 141.5q0 158 -82 226.5t-242 68.5h-268v-602z" />
    <glyph glyph-name="germandbls" unicode="&#xdf;" horiz-adv-x="1059" 
d="M135 0v1090q0 101 25.5 180.5t74 134t118 83t157.5 28.5q84 0 150 -23t111.5 -67t70 -109t24.5 -150q0 -57 -15.5 -108.5t-44.5 -93t-70.5 -71t-94.5 -44.5q71 -12 133 -42t107.5 -82t71.5 -126t26 -174q0 -99 -22.5 -181.5t-66.5 -142t-109 -92.5t-150 -33
q-88 0 -149.5 23.5t-104.5 60.5l69 95q36 -31 78.5 -48.5t104.5 -17.5q47 0 86.5 19.5t68.5 60.5t45.5 103.5t16.5 148.5q0 96 -24.5 163.5t-73.5 111t-123 65t-172 26.5v109q73 1 127 21.5t88.5 55t51.5 82t17 103.5q0 116 -60 178t-169 62q-118 0 -178 -77.5t-60 -225.5
v-1096h-135z" />
    <glyph glyph-name="agrave" unicode="&#xe0;" horiz-adv-x="952" 
d="M82 252q0 78 33.5 147t106 127t187.5 104.5t279 80.5v73q0 199 -172 199q-51 0 -96.5 -12.5t-86 -34t-76.5 -50t-67 -59.5l-79 80q83 88 185 140.5t230 52.5q152 0 222.5 -82.5t70.5 -233.5v-518q0 -99 6.5 -161.5t20.5 -104.5h-135q-10 32 -16.5 63.5t-6.5 77.5
q-71 -74 -158 -114.5t-192 -40.5q-123 0 -189.5 71.5t-66.5 194.5zM213 266q0 -88 42 -129t120 -41q90 0 170.5 43.5t142.5 112.5v356q-137 -29 -228.5 -67t-146.5 -82t-77.5 -93t-22.5 -100zM252 1509h170l164 -315h-90z" />
    <glyph glyph-name="aacute" unicode="&#xe1;" horiz-adv-x="952" 
d="M82 252q0 78 33.5 147t106 127t187.5 104.5t279 80.5v73q0 199 -172 199q-51 0 -96.5 -12.5t-86 -34t-76.5 -50t-67 -59.5l-79 80q83 88 185 140.5t230 52.5q152 0 222.5 -82.5t70.5 -233.5v-518q0 -99 6.5 -161.5t20.5 -104.5h-135q-10 32 -16.5 63.5t-6.5 77.5
q-71 -74 -158 -114.5t-192 -40.5q-123 0 -189.5 71.5t-66.5 194.5zM213 266q0 -88 42 -129t120 -41q90 0 170.5 43.5t142.5 112.5v356q-137 -29 -228.5 -67t-146.5 -82t-77.5 -93t-22.5 -100zM365 1194l165 315h168l-245 -315h-88z" />
    <glyph glyph-name="acircumflex" unicode="&#xe2;" horiz-adv-x="952" 
d="M82 252q0 78 33.5 147t106 127t187.5 104.5t279 80.5v73q0 199 -172 199q-51 0 -96.5 -12.5t-86 -34t-76.5 -50t-67 -59.5l-79 80q83 88 185 140.5t230 52.5q152 0 222.5 -82.5t70.5 -233.5v-518q0 -99 6.5 -161.5t20.5 -104.5h-135q-10 32 -16.5 63.5t-6.5 77.5
q-71 -74 -158 -114.5t-192 -40.5q-123 0 -189.5 71.5t-66.5 194.5zM201 1186l225 323h96l226 -323h-86l-189 190l-186 -190h-86zM213 266q0 -88 42 -129t120 -41q90 0 170.5 43.5t142.5 112.5v356q-137 -29 -228.5 -67t-146.5 -82t-77.5 -93t-22.5 -100z" />
    <glyph glyph-name="atilde" unicode="&#xe3;" horiz-adv-x="952" 
d="M82 252q0 78 33.5 147t106 127t187.5 104.5t279 80.5v73q0 199 -172 199q-51 0 -96.5 -12.5t-86 -34t-76.5 -50t-67 -59.5l-79 80q83 88 185 140.5t230 52.5q152 0 222.5 -82.5t70.5 -233.5v-518q0 -99 6.5 -161.5t20.5 -104.5h-135q-10 32 -16.5 63.5t-6.5 77.5
q-71 -74 -158 -114.5t-192 -40.5q-123 0 -189.5 71.5t-66.5 194.5zM184 1190q0 115 40.5 169t117.5 54q40 0 76.5 -18t69.5 -39.5t63 -39.5t57 -18q35 0 52.5 24.5t17.5 86.5h86q0 -115 -39 -169t-117 -54q-39 0 -75.5 18t-69.5 39t-63 39t-56 18q-37 0 -53.5 -24t-16.5 -86
h-90zM213 266q0 -88 42 -129t120 -41q90 0 170.5 43.5t142.5 112.5v356q-137 -29 -228.5 -67t-146.5 -82t-77.5 -93t-22.5 -100z" />
    <glyph glyph-name="adieresis" unicode="&#xe4;" horiz-adv-x="952" 
d="M82 252q0 78 33.5 147t106 127t187.5 104.5t279 80.5v73q0 199 -172 199q-51 0 -96.5 -12.5t-86 -34t-76.5 -50t-67 -59.5l-79 80q83 88 185 140.5t230 52.5q152 0 222.5 -82.5t70.5 -233.5v-518q0 -99 6.5 -161.5t20.5 -104.5h-135q-10 32 -16.5 63.5t-6.5 77.5
q-71 -74 -158 -114.5t-192 -40.5q-123 0 -189.5 71.5t-66.5 194.5zM213 266q0 -88 42 -129t120 -41q90 0 170.5 43.5t142.5 112.5v356q-137 -29 -228.5 -67t-146.5 -82t-77.5 -93t-22.5 -100zM248 1192v164h145v-164h-145zM559 1192v164h143v-164h-143z" />
    <glyph glyph-name="aring" unicode="&#xe5;" horiz-adv-x="952" 
d="M82 252q0 78 33.5 147t106 127t187.5 104.5t279 80.5v73q0 199 -172 199q-51 0 -96.5 -12.5t-86 -34t-76.5 -50t-67 -59.5l-79 80q83 88 185 140.5t230 52.5q152 0 222.5 -82.5t70.5 -233.5v-518q0 -99 6.5 -161.5t20.5 -104.5h-135q-10 32 -16.5 63.5t-6.5 77.5
q-71 -74 -158 -114.5t-192 -40.5q-123 0 -189.5 71.5t-66.5 194.5zM213 266q0 -88 42 -129t120 -41q90 0 170.5 43.5t142.5 112.5v356q-137 -29 -228.5 -67t-146.5 -82t-77.5 -93t-22.5 -100zM307 1366q0 41 12 75.5t33.5 59.5t52 39t68.5 14q37 0 68 -14t53.5 -39
t34.5 -59.5t12 -75.5t-12 -75.5t-34 -60t-53 -40t-69 -14.5t-68.5 14.5t-52 40t-33.5 60t-12 75.5zM385 1366q0 -50 23 -84.5t65 -34.5q43 0 66.5 34.5t23.5 84.5q0 48 -23.5 81.5t-66.5 33.5q-42 0 -65 -33.5t-23 -81.5z" />
    <glyph glyph-name="ae" unicode="&#xe6;" horiz-adv-x="1546" 
d="M82 248q0 78 33.5 147.5t106 128.5t187.5 106t279 81v73q0 199 -172 199q-51 0 -96.5 -12.5t-86 -34t-76.5 -50t-67 -59.5l-79 80q82 88 185 140.5t232 52.5q114 0 175.5 -49t82.5 -138q28 47 63.5 82t74.5 58.5t80.5 35t82.5 11.5q89 0 159 -36.5t118 -106t73 -172
t25 -234.5v-31h-647q2 -104 22.5 -183.5t56 -134t86 -82.5t112.5 -28q49 0 87 14.5t68.5 41.5t55 66t47.5 87l100 -55q-56 -125 -147 -197t-220 -72q-108 0 -193 55t-136 165q-29 -36 -71 -74.5t-95 -70t-116 -52t-134 -20.5q-62 0 -109.5 19t-80 53.5t-49.5 84t-17 111.5z
M213 262q0 -88 42 -129t120 -41q85 0 172 47t174 144q-16 54 -24.5 118t-8.5 140q0 17 1 34.5t3 32.5q-140 -30 -232.5 -69t-147 -83.5t-77 -93.5t-22.5 -100zM817 629h514q-4 77 -20.5 142t-46.5 112.5t-74.5 74.5t-104.5 27q-48 0 -93 -21t-81.5 -65t-61 -111t-32.5 -159z
" />
    <glyph glyph-name="ccedilla" unicode="&#xe7;" horiz-adv-x="922" 
d="M86 539q0 144 32.5 249.5t88.5 174.5t130.5 103t158.5 34q77 0 134 -25.5t98 -68.5t69 -99.5t47 -118.5l-123 -34q-15 51 -35 93t-47 72t-63 47t-84 17q-54 0 -103 -26t-86.5 -80t-59.5 -137.5t-22 -198.5q0 -102 18.5 -185t54 -141t85.5 -89.5t113 -31.5q94 0 151.5 57
t89.5 175l119 -35q-45 -149 -134.5 -229.5t-223.5 -84.5l-25 -90q19 14 42 22.5t54 8.5q25 0 48.5 -8t42.5 -25t30.5 -43t11.5 -63q0 -48 -19 -83.5t-51.5 -59.5t-74.5 -36t-88 -12q-62 0 -120 20t-103 54l45 72q40 -28 85 -44t93 -16q66 0 97.5 25t31.5 72q0 34 -19 52.5
t-57 18.5q-28 0 -49.5 -12t-40.5 -29l-59 27l43 156q-71 15 -130.5 59t-103 114t-68 166t-24.5 216z" />
    <glyph glyph-name="egrave" unicode="&#xe8;" horiz-adv-x="950" 
d="M86 541q0 143 33 248t89 174t129.5 103t154.5 34q89 0 158.5 -36.5t117.5 -106t73 -172t25 -234.5v-31h-647q2 -104 22.5 -183.5t56 -134t86 -82.5t112.5 -28q49 0 87 14.5t68.5 41.5t55 66t47.5 87l100 -55q-28 -62 -65 -112t-83 -85t-101 -53.5t-118 -18.5
q-86 0 -159.5 36t-127 107t-84 176.5t-30.5 244.5zM221 629h512q-4 77 -20 142t-46 112.5t-74 74.5t-104 27q-48 0 -93 -21t-81.5 -65t-61 -111t-32.5 -159zM252 1509h170l164 -315h-90z" />
    <glyph glyph-name="eacute" unicode="&#xe9;" horiz-adv-x="950" 
d="M86 541q0 143 33 248t89 174t129.5 103t154.5 34q89 0 158.5 -36.5t117.5 -106t73 -172t25 -234.5v-31h-647q2 -104 22.5 -183.5t56 -134t86 -82.5t112.5 -28q49 0 87 14.5t68.5 41.5t55 66t47.5 87l100 -55q-28 -62 -65 -112t-83 -85t-101 -53.5t-118 -18.5
q-86 0 -159.5 36t-127 107t-84 176.5t-30.5 244.5zM221 629h512q-4 77 -20 142t-46 112.5t-74 74.5t-104 27q-48 0 -93 -21t-81.5 -65t-61 -111t-32.5 -159zM365 1194l165 315h168l-245 -315h-88z" />
    <glyph glyph-name="ecircumflex" unicode="&#xea;" horiz-adv-x="950" 
d="M86 541q0 143 33 248t89 174t129.5 103t154.5 34q89 0 158.5 -36.5t117.5 -106t73 -172t25 -234.5v-31h-647q2 -104 22.5 -183.5t56 -134t86 -82.5t112.5 -28q49 0 87 14.5t68.5 41.5t55 66t47.5 87l100 -55q-28 -62 -65 -112t-83 -85t-101 -53.5t-118 -18.5
q-86 0 -159.5 36t-127 107t-84 176.5t-30.5 244.5zM201 1186l225 323h96l226 -323h-86l-189 190l-186 -190h-86zM221 629h512q-4 77 -20 142t-46 112.5t-74 74.5t-104 27q-48 0 -93 -21t-81.5 -65t-61 -111t-32.5 -159z" />
    <glyph glyph-name="edieresis" unicode="&#xeb;" horiz-adv-x="950" 
d="M86 541q0 143 33 248t89 174t129.5 103t154.5 34q89 0 158.5 -36.5t117.5 -106t73 -172t25 -234.5v-31h-647q2 -104 22.5 -183.5t56 -134t86 -82.5t112.5 -28q49 0 87 14.5t68.5 41.5t55 66t47.5 87l100 -55q-28 -62 -65 -112t-83 -85t-101 -53.5t-118 -18.5
q-86 0 -159.5 36t-127 107t-84 176.5t-30.5 244.5zM221 629h512q-4 77 -20 142t-46 112.5t-74 74.5t-104 27q-48 0 -93 -21t-81.5 -65t-61 -111t-32.5 -159zM248 1192v164h145v-164h-145zM559 1192v164h143v-164h-143z" />
    <glyph glyph-name="igrave" unicode="&#xec;" horiz-adv-x="432" 
d="M-59 1509h170l163 -315h-90zM150 0v1077h133v-1077h-133z" />
    <glyph glyph-name="iacute" unicode="&#xed;" horiz-adv-x="432" 
d="M150 0v1077h133v-1077h-133zM160 1194l166 315h168l-246 -315h-88z" />
    <glyph glyph-name="icircumflex" unicode="&#xee;" horiz-adv-x="432" 
d="M-57 1186l225 323h96l225 -323h-86l-188 190l-186 -190h-86zM150 0v1077h133v-1077h-133z" />
    <glyph glyph-name="idieresis" unicode="&#xef;" horiz-adv-x="432" 
d="M-10 1192v164h145v-164h-145zM150 0v1077h133v-1077h-133zM301 1192v164h143v-164h-143z" />
    <glyph glyph-name="eth" unicode="&#xf0;" horiz-adv-x="1001" 
d="M86 530q0 132 29.5 233.5t83 170.5t127.5 104t163 35q41 0 80.5 -10.5t75 -31t64.5 -51t49 -71.5q-9 36 -22 75.5t-31.5 82.5t-44.5 88.5t-62 93.5l-154 -88l-49 88l135 80q-26 28 -56.5 56t-67.5 57l75 84q85 -63 154 -135l158 90l49 -88l-140 -82q60 -79 101 -166
t65.5 -182t35.5 -200t11 -220q0 -141 -32 -247.5t-87.5 -177t-131 -106t-162.5 -35.5q-92 0 -168.5 37.5t-131.5 109t-85.5 174t-30.5 232.5zM221 532q0 -90 16.5 -170t51 -140t87.5 -95t126 -35q68 0 120 32.5t87 91t53 139t18 177.5q0 91 -17.5 169.5t-52 136.5
t-86.5 91.5t-122 33.5q-69 0 -121.5 -31t-88 -87.5t-53.5 -136t-18 -176.5z" />
    <glyph glyph-name="ntilde" unicode="&#xf1;" horiz-adv-x="1014" 
d="M139 0v1077h133v-151q28 31 66.5 62t83 56t94.5 40.5t102 15.5q135 0 201 -75.5t66 -223.5v-801h-133v778q0 103 -38 154t-130 51q-42 0 -83.5 -14t-81.5 -37.5t-77.5 -54t-69.5 -62.5v-815h-133zM217 1190q0 115 40 169t118 54q40 0 76 -18t69 -39.5t63 -39.5t58 -18
q35 0 52.5 24.5t17.5 86.5h86q0 -115 -39.5 -169t-116.5 -54q-39 0 -75.5 18t-69.5 39t-63 39t-56 18q-37 0 -53.5 -24t-16.5 -86h-90z" />
    <glyph glyph-name="ograve" unicode="&#xf2;" horiz-adv-x="1001" 
d="M86 539q0 136 31 241t86.5 176t132 107.5t166.5 36.5q89 0 164.5 -36.5t131 -107.5t86.5 -176t31 -241q0 -135 -31 -240t-86.5 -176.5t-131 -108.5t-164.5 -37t-165.5 37t-132 108.5t-87 176.5t-31.5 240zM221 541q0 -92 16 -173.5t50.5 -142.5t87.5 -97t127 -36
q69 0 121 33t87 92t52.5 142t17.5 182q0 90 -16.5 170t-50.5 140.5t-86.5 96t-124.5 35.5q-70 0 -122.5 -33t-88 -91.5t-53 -139.5t-17.5 -178zM279 1509h170l163 -315h-90z" />
    <glyph glyph-name="oacute" unicode="&#xf3;" horiz-adv-x="1001" 
d="M86 539q0 136 31 241t86.5 176t132 107.5t166.5 36.5q89 0 164.5 -36.5t131 -107.5t86.5 -176t31 -241q0 -135 -31 -240t-86.5 -176.5t-131 -108.5t-164.5 -37t-165.5 37t-132 108.5t-87 176.5t-31.5 240zM221 541q0 -92 16 -173.5t50.5 -142.5t87.5 -97t127 -36
q69 0 121 33t87 92t52.5 142t17.5 182q0 90 -16.5 170t-50.5 140.5t-86.5 96t-124.5 35.5q-70 0 -122.5 -33t-88 -91.5t-53 -139.5t-17.5 -178zM391 1194l166 315h168l-246 -315h-88z" />
    <glyph glyph-name="ocircumflex" unicode="&#xf4;" horiz-adv-x="1001" 
d="M86 539q0 136 31 241t86.5 176t132 107.5t166.5 36.5q89 0 164.5 -36.5t131 -107.5t86.5 -176t31 -241q0 -135 -31 -240t-86.5 -176.5t-131 -108.5t-164.5 -37t-165.5 37t-132 108.5t-87 176.5t-31.5 240zM221 541q0 -92 16 -173.5t50.5 -142.5t87.5 -97t127 -36
q69 0 121 33t87 92t52.5 142t17.5 182q0 90 -16.5 170t-50.5 140.5t-86.5 96t-124.5 35.5q-70 0 -122.5 -33t-88 -91.5t-53 -139.5t-17.5 -178zM227 1186l226 323h96l225 -323h-86l-188 190l-187 -190h-86z" />
    <glyph glyph-name="otilde" unicode="&#xf5;" horiz-adv-x="1001" 
d="M86 539q0 136 31 241t86.5 176t132 107.5t166.5 36.5q89 0 164.5 -36.5t131 -107.5t86.5 -176t31 -241q0 -135 -31 -240t-86.5 -176.5t-131 -108.5t-164.5 -37t-165.5 37t-132 108.5t-87 176.5t-31.5 240zM211 1190q0 115 40 169t118 54q40 0 76 -18t69 -39.5t63 -39.5
t58 -18q35 0 52.5 24.5t17.5 86.5h86q0 -115 -39.5 -169t-116.5 -54q-39 0 -75.5 18t-70 39t-63 39t-55.5 18q-37 0 -53.5 -24t-16.5 -86h-90zM221 541q0 -92 16 -173.5t50.5 -142.5t87.5 -97t127 -36q69 0 121 33t87 92t52.5 142t17.5 182q0 90 -16.5 170t-50.5 140.5
t-86.5 96t-124.5 35.5q-70 0 -122.5 -33t-88 -91.5t-53 -139.5t-17.5 -178z" />
    <glyph glyph-name="odieresis" unicode="&#xf6;" horiz-adv-x="1001" 
d="M86 539q0 136 31 241t86.5 176t132 107.5t166.5 36.5q89 0 164.5 -36.5t131 -107.5t86.5 -176t31 -241q0 -135 -31 -240t-86.5 -176.5t-131 -108.5t-164.5 -37t-165.5 37t-132 108.5t-87 176.5t-31.5 240zM221 541q0 -92 16 -173.5t50.5 -142.5t87.5 -97t127 -36
q69 0 121 33t87 92t52.5 142t17.5 182q0 90 -16.5 170t-50.5 140.5t-86.5 96t-124.5 35.5q-70 0 -122.5 -33t-88 -91.5t-53 -139.5t-17.5 -178zM274 1192v164h146v-164h-146zM586 1192v164h143v-164h-143z" />
    <glyph glyph-name="divide" unicode="&#xf7;" horiz-adv-x="1081" 
d="M96 612v117h887v-117h-887zM463 221v174h151v-174h-151zM463 944v174h151v-174h-151z" />
    <glyph glyph-name="oslash" unicode="&#xf8;" horiz-adv-x="1001" 
d="M84 -33l109 172q-51 71 -79 171.5t-28 228.5q0 136 31 241t86.5 176t132 107.5t166.5 36.5q69 0 129.5 -21.5t109.5 -64.5l93 147l81 -51l-106 -170q51 -71 78.5 -171t27.5 -230q0 -135 -31 -240t-86.5 -176.5t-131 -108.5t-164.5 -37q-69 0 -130 22t-112 64l-94 -147z
M219 541q0 -81 13 -154t40 -133l404 651q-32 38 -75.5 59t-98.5 21q-70 0 -123 -33t-88.5 -92t-53.5 -140.5t-18 -178.5zM324 174q32 -40 76.5 -61t101.5 -21q69 0 121.5 33t87.5 92t53 142t18 182q0 80 -12.5 151.5t-40.5 130.5z" />
    <glyph glyph-name="ugrave" unicode="&#xf9;" horiz-adv-x="1014" 
d="M129 276v801h133v-778q0 -103 39 -154t133 -51q42 0 81.5 12.5t78 35t75.5 53.5t74 69v813h134v-1077h-134v154q-33 -35 -71.5 -67t-82 -56.5t-92 -39t-100.5 -14.5q-134 0 -201 75.5t-67 223.5zM285 1509h170l163 -315h-90z" />
    <glyph glyph-name="uacute" unicode="&#xfa;" horiz-adv-x="1014" 
d="M129 276v801h133v-778q0 -103 39 -154t133 -51q42 0 81.5 12.5t78 35t75.5 53.5t74 69v813h134v-1077h-134v154q-33 -35 -71.5 -67t-82 -56.5t-92 -39t-100.5 -14.5q-134 0 -201 75.5t-67 223.5zM397 1194l166 315h168l-246 -315h-88z" />
    <glyph glyph-name="ucircumflex" unicode="&#xfb;" horiz-adv-x="1014" 
d="M129 276v801h133v-778q0 -103 39 -154t133 -51q42 0 81.5 12.5t78 35t75.5 53.5t74 69v813h134v-1077h-134v154q-33 -35 -71.5 -67t-82 -56.5t-92 -39t-100.5 -14.5q-134 0 -201 75.5t-67 223.5zM233 1186l226 323h96l225 -323h-86l-188 190l-187 -190h-86z" />
    <glyph glyph-name="udieresis" unicode="&#xfc;" horiz-adv-x="1014" 
d="M129 276v801h133v-778q0 -103 39 -154t133 -51q42 0 81.5 12.5t78 35t75.5 53.5t74 69v813h134v-1077h-134v154q-33 -35 -71.5 -67t-82 -56.5t-92 -39t-100.5 -14.5q-134 0 -201 75.5t-67 223.5zM279 1192v164h145v-164h-145zM590 1192v164h143v-164h-143z" />
    <glyph glyph-name="yacute" unicode="&#xfd;" horiz-adv-x="920" 
d="M18 -389l27 108q20 -6 54 -10t71 -4t64 10.5t47.5 33t36 56.5t30.5 82l35 103l-336 1087h135l176 -594q13 -45 25 -85.5t23 -79.5t21.5 -78t21.5 -82h4q12 44 23.5 85t23 81.5t23.5 82.5t26 89l172 581h127l-371 -1200q-24 -75 -50 -129.5t-61.5 -90t-84 -52.5
t-115.5 -17q-43 0 -84.5 7.5t-63.5 15.5zM348 1194l166 315h168l-246 -315h-88z" />
    <glyph glyph-name="thorn" unicode="&#xfe;" horiz-adv-x="1028" 
d="M139 -410v1923h133v-573q25 29 55.5 58t67.5 51.5t81 36.5t95 14q79 0 147 -32.5t117.5 -100.5t78 -173.5t28.5 -252.5t-29 -252.5t-79.5 -173.5t-119.5 -100.5t-149 -32.5q-94 0 -165.5 42.5t-127.5 110.5v-545h-133zM272 256q65 -77 131 -117.5t144 -40.5
q57 0 104.5 24.5t82 78t54 137t19.5 201.5q0 114 -19.5 198t-54.5 138.5t-83 81t-105 26.5q-41 0 -78 -13t-71 -35t-65 -51.5t-59 -62.5v-565z" />
    <glyph glyph-name="ydieresis" unicode="&#xff;" horiz-adv-x="920" 
d="M18 -389l27 108q20 -6 54 -10t71 -4t64 10.5t47.5 33t36 56.5t30.5 82l35 103l-336 1087h135l176 -594q13 -45 25 -85.5t23 -79.5t21.5 -78t21.5 -82h4q12 44 23.5 85t23 81.5t23.5 82.5t26 89l172 581h127l-371 -1200q-24 -75 -50 -129.5t-61.5 -90t-84 -52.5
t-115.5 -17q-43 0 -84.5 7.5t-63.5 15.5zM229 1192v164h146v-164h-146zM541 1192v164h143v-164h-143z" />
    <glyph glyph-name="Amacron" unicode="&#x100;" horiz-adv-x="1139" 
d="M61 0l445 1522h127l444 -1522h-139l-133 469h-479l-133 -469h-132zM317 1636v117h502v-117h-502zM360 592h410l-70 248q-40 136 -72 251t-61 226h-4l-30 -112q-15 -56 -31 -114t-33.5 -120t-36.5 -129z" />
    <glyph glyph-name="amacron" unicode="&#x101;" horiz-adv-x="952" 
d="M82 252q0 78 33.5 147t106 127t187.5 104.5t279 80.5v73q0 199 -172 199q-51 0 -96.5 -12.5t-86 -34t-76.5 -50t-67 -59.5l-79 80q83 88 185 140.5t230 52.5q152 0 222.5 -82.5t70.5 -233.5v-518q0 -99 6.5 -161.5t20.5 -104.5h-135q-10 32 -16.5 63.5t-6.5 77.5
q-71 -74 -158 -114.5t-192 -40.5q-123 0 -189.5 71.5t-66.5 194.5zM213 266q0 -88 42 -129t120 -41q90 0 170.5 43.5t142.5 112.5v356q-137 -29 -228.5 -67t-146.5 -82t-77.5 -93t-22.5 -100zM231 1219v116h502v-116h-502z" />
    <glyph glyph-name="Abreve" unicode="&#x102;" horiz-adv-x="1139" 
d="M61 0l445 1522h127l444 -1522h-139l-133 469h-479l-133 -469h-132zM307 1927h90q13 -117 55 -170t117 -53q78 0 119.5 53t52.5 170h90q-3 -77 -21.5 -138.5t-51.5 -104.5t-80.5 -66t-108.5 -23t-108 23t-80 66t-51.5 104.5t-22.5 138.5zM360 592h410l-70 248
q-40 136 -72 251t-61 226h-4l-30 -112q-15 -56 -31 -114t-33.5 -120t-36.5 -129z" />
    <glyph glyph-name="abreve" unicode="&#x103;" horiz-adv-x="952" 
d="M82 252q0 78 33.5 147t106 127t187.5 104.5t279 80.5v73q0 199 -172 199q-51 0 -96.5 -12.5t-86 -34t-76.5 -50t-67 -59.5l-79 80q83 88 185 140.5t230 52.5q152 0 222.5 -82.5t70.5 -233.5v-518q0 -99 6.5 -161.5t20.5 -104.5h-135q-10 32 -16.5 63.5t-6.5 77.5
q-71 -74 -158 -114.5t-192 -40.5q-123 0 -189.5 71.5t-66.5 194.5zM213 266q0 -88 42 -129t120 -41q90 0 170.5 43.5t142.5 112.5v356q-137 -29 -228.5 -67t-146.5 -82t-77.5 -93t-22.5 -100zM213 1518h90q12 -118 54.5 -171t117.5 -53q77 0 119 53.5t53 170.5h90
q-3 -77 -21.5 -138.5t-51.5 -104.5t-80.5 -66t-108.5 -23q-62 0 -109 23t-80 66t-51 104.5t-22 138.5z" />
    <glyph glyph-name="Aogonek" unicode="&#x104;" horiz-adv-x="1139" 
d="M61 0l445 1522h127l444 -1522h-39q-27 -21 -51.5 -44t-42.5 -48.5t-28.5 -53.5t-10.5 -59q0 -45 21.5 -71.5t72.5 -26.5q74 0 162 49l37 -59q-54 -37 -107.5 -54.5t-119.5 -17.5q-85 0 -128.5 42.5t-43.5 115.5q0 31 11 62t30 60t44 56t54 49l-133 469h-479l-133 -469
h-132zM360 592h410l-70 248q-40 136 -72 251t-61 226h-4l-30 -112q-15 -56 -31 -114t-33.5 -120t-36.5 -129z" />
    <glyph glyph-name="aogonek" unicode="&#x105;" horiz-adv-x="952" 
d="M82 252q0 78 33.5 147t106 127t187.5 104.5t279 80.5v73q0 199 -172 199q-51 0 -96.5 -12.5t-86 -34t-76.5 -50t-67 -59.5l-79 80q83 88 185 140.5t230 52.5q152 0 222.5 -82.5t70.5 -233.5v-518q0 -99 6.5 -161.5t20.5 -104.5h-31q-32 -17 -58 -40t-45 -49.5t-29.5 -56
t-10.5 -59.5q0 -45 20.5 -71.5t71.5 -26.5q38 0 77.5 12t84.5 37l37 -59q-54 -37 -107.5 -54.5t-118.5 -17.5q-86 0 -130 42.5t-44 115.5q0 31 12 63t32 62t47 57t57 49q-10 31 -16.5 61.5t-6.5 75.5q-71 -74 -158 -114.5t-192 -40.5q-123 0 -189.5 71.5t-66.5 194.5z
M213 266q0 -88 42 -129t120 -41q90 0 170.5 43.5t142.5 112.5v356q-137 -29 -228.5 -67t-146.5 -82t-77.5 -93t-22.5 -100z" />
    <glyph glyph-name="Cacute" unicode="&#x106;" horiz-adv-x="1192" 
d="M100 762q0 187 37.5 332.5t106.5 245.5t167 152t220 52q102 0 178.5 -35t131 -97t90 -148.5t56.5 -188.5l-129 -24q-18 88 -45.5 156.5t-67 115t-93.5 70.5t-125 24q-92 0 -164 -45.5t-121.5 -130.5t-75.5 -206t-26 -271q0 -159 26 -283t76.5 -209t123 -129.5
t165.5 -44.5q70 0 125.5 23.5t97.5 70.5t73 119t52 170l125 -20q-23 -108 -62.5 -198.5t-98 -155t-136.5 -100.5t-178 -36q-122 0 -220 51.5t-166.5 151.5t-105.5 247.5t-37 340.5zM506 1612l166 315h168l-246 -315h-88z" />
    <glyph glyph-name="cacute" unicode="&#x107;" horiz-adv-x="922" 
d="M86 539q0 144 32.5 249.5t88.5 174.5t130.5 103t158.5 34q77 0 134 -25.5t98 -68.5t69 -99.5t47 -118.5l-123 -34q-15 51 -35 93t-47 72t-63 47t-84 17q-54 0 -103 -26t-86.5 -80t-59.5 -137.5t-22 -198.5q0 -102 18.5 -185t54 -141t85.5 -89.5t113 -31.5q94 0 151.5 57
t89.5 175l119 -35q-46 -152 -137.5 -233t-229.5 -81q-84 0 -157 37t-127 108.5t-84.5 176.5t-30.5 240zM358 1194l166 315h168l-246 -315h-88z" />
    <glyph glyph-name="Ccircumflex" unicode="&#x108;" horiz-adv-x="1192" 
d="M348 1602l225 323h97l225 -323h-86l-189 190l-186 -190h-86zM100 762q0 187 37.5 332.5t106.5 245.5t167 152t220 52q102 0 178.5 -35t131 -97t90 -148.5t56.5 -188.5l-129 -24q-18 88 -45.5 156.5t-67 115t-93.5 70.5t-125 24q-92 0 -164 -45.5t-121.5 -130.5
t-75.5 -206t-26 -271q0 -159 26 -283t76.5 -209t123 -129.5t165.5 -44.5q70 0 125.5 23.5t97.5 70.5t73 119t52 170l125 -20q-23 -108 -62.5 -198.5t-98 -155t-136.5 -100.5t-178 -36q-122 0 -220 51.5t-166.5 151.5t-105.5 247.5t-37 340.5z" />
    <glyph glyph-name="ccircumflex" unicode="&#x109;" horiz-adv-x="922" 
d="M201 1186l225 323h97l225 -323h-86l-189 190l-186 -190h-86zM86 539q0 144 32.5 249.5t88.5 174.5t130.5 103t158.5 34q77 0 134 -25.5t98 -68.5t69 -99.5t47 -118.5l-123 -34q-15 51 -35 93t-47 72t-63 47t-84 17q-54 0 -103 -26t-86.5 -80t-59.5 -137.5t-22 -198.5
q0 -102 18.5 -185t54 -141t85.5 -89.5t113 -31.5q94 0 151.5 57t89.5 175l119 -35q-46 -152 -137.5 -233t-229.5 -81q-84 0 -157 37t-127 108.5t-84.5 176.5t-30.5 240z" />
    <glyph glyph-name="Cdotaccent" unicode="&#x10a;" horiz-adv-x="1192" 
d="M100 762q0 187 37.5 332.5t106.5 245.5t167 152t220 52q102 0 178.5 -35t131 -97t90 -148.5t56.5 -188.5l-129 -24q-18 88 -45.5 156.5t-67 115t-93.5 70.5t-125 24q-92 0 -164 -45.5t-121.5 -130.5t-75.5 -206t-26 -271q0 -159 26 -283t76.5 -209t123 -129.5
t165.5 -44.5q70 0 125.5 23.5t97.5 70.5t73 119t52 170l125 -20q-23 -108 -62.5 -198.5t-98 -155t-136.5 -100.5t-178 -36q-122 0 -220 51.5t-166.5 151.5t-105.5 247.5t-37 340.5zM541 1612v162h161v-162h-161z" />
    <glyph glyph-name="cdotaccent" unicode="&#x10b;" horiz-adv-x="922" 
d="M86 539q0 144 32.5 249.5t88.5 174.5t130.5 103t158.5 34q77 0 134 -25.5t98 -68.5t69 -99.5t47 -118.5l-123 -34q-15 51 -35 93t-47 72t-63 47t-84 17q-54 0 -103 -26t-86.5 -80t-59.5 -137.5t-22 -198.5q0 -102 18.5 -185t54 -141t85.5 -89.5t113 -31.5q94 0 151.5 57
t89.5 175l119 -35q-46 -152 -137.5 -233t-229.5 -81q-84 0 -157 37t-127 108.5t-84.5 176.5t-30.5 240zM396 1194v162h161v-162h-161z" />
    <glyph glyph-name="Ccaron" unicode="&#x10c;" horiz-adv-x="1192" 
d="M100 762q0 187 37.5 332.5t106.5 245.5t167 152t220 52q102 0 178.5 -35t131 -97t90 -148.5t56.5 -188.5l-129 -24q-18 88 -45.5 156.5t-67 115t-93.5 70.5t-125 24q-92 0 -164 -45.5t-121.5 -130.5t-75.5 -206t-26 -271q0 -159 26 -283t76.5 -209t123 -129.5
t165.5 -44.5q70 0 125.5 23.5t97.5 70.5t73 119t52 170l125 -20q-23 -108 -62.5 -198.5t-98 -155t-136.5 -100.5t-178 -36q-122 0 -220 51.5t-166.5 151.5t-105.5 247.5t-37 340.5zM336 1933h88l188 -194l187 194h84l-226 -323h-96z" />
    <glyph glyph-name="ccaron" unicode="&#x10d;" horiz-adv-x="922" 
d="M86 539q0 144 32.5 249.5t88.5 174.5t130.5 103t158.5 34q77 0 134 -25.5t98 -68.5t69 -99.5t47 -118.5l-123 -34q-15 51 -35 93t-47 72t-63 47t-84 17q-54 0 -103 -26t-86.5 -80t-59.5 -137.5t-22 -198.5q0 -102 18.5 -185t54 -141t85.5 -89.5t113 -31.5q94 0 151.5 57
t89.5 175l119 -35q-46 -152 -137.5 -233t-229.5 -81q-84 0 -157 37t-127 108.5t-84.5 176.5t-30.5 240zM195 1516h88l188 -195l186 195h84l-225 -324h-96z" />
    <glyph glyph-name="Dcaron" unicode="&#x10e;" horiz-adv-x="1214" 
d="M164 0v1516h317q159 0 278 -45t197.5 -138t118 -235.5t39.5 -337.5t-40 -338t-119.5 -237t-198 -139.5t-275.5 -45.5h-317zM303 127h201q118 0 206 37t146.5 114t87.5 197t29 285q0 322 -116.5 474t-354.5 152h-199v-1259zM303 1923h88l189 -194l186 194h84l-225 -324
h-97z" />
    <glyph glyph-name="dcaron" unicode="&#x10f;" horiz-adv-x="1145" 
d="M88 539q0 147 29 253t80 174.5t120 101t148 32.5q94 0 167.5 -44.5t127.5 -113.5v574h133v-1250q0 -99 5.5 -161.5t21.5 -104.5h-140q-4 14 -7.5 32.5t-6.5 38t-4.5 38t-1.5 32.5q-26 -31 -57 -59.5t-68 -50.5t-81 -35.5t-95 -13.5q-79 0 -147 32t-117.5 99.5t-78 173
t-28.5 252.5zM223 539q0 -116 19.5 -199t55 -137t84 -79.5t105.5 -25.5q40 0 77 12t70.5 33t65 49.5t60.5 61.5v567q-63 76 -131 119t-146 43q-57 0 -104.5 -25.5t-82 -79.5t-54 -138t-19.5 -201zM1030 1325v191h162v-177l-86 -221h-64l52 207h-64z" />
    <glyph glyph-name="Dcroat" unicode="&#x110;" horiz-adv-x="1214" 
d="M31 741v121h133v654h317q159 0 278 -45t197.5 -138t118 -235.5t39.5 -337.5t-40 -338t-119.5 -237t-198 -139.5t-275.5 -45.5h-317v741h-133zM303 127h201q118 0 206 37t146.5 114t87.5 197t29 285q0 322 -116.5 474t-354.5 152h-199v-524h272v-121h-272v-614z" />
    <glyph glyph-name="dcroat" unicode="&#x111;" horiz-adv-x="1028" 
d="M88 537q0 147 28.5 253t79 175t118.5 102t147 33q47 0 89.5 -12.5t80 -34t70 -51.5t59.5 -64v285h-219v116h219v177h133v-177h108v-116h-108v-957q0 -99 5.5 -161.5t21.5 -104.5h-140q-4 14 -7.5 32.5t-6.5 38t-4.5 38t-1.5 32.5q-26 -31 -57 -59.5t-68 -50.5t-81 -35.5
t-95 -13.5q-79 0 -147 31.5t-117.5 99t-78 172.5t-28.5 252zM223 539q0 -116 19.5 -199.5t55 -137.5t84 -80t105.5 -26q41 0 77 11.5t69 32t64 49t63 63.5v567q-65 76 -132 120t-145 44q-57 0 -104.5 -25.5t-82 -79.5t-54 -138t-19.5 -201z" />
    <glyph glyph-name="Emacron" unicode="&#x112;" horiz-adv-x="1032" 
d="M164 0v1516h751v-130h-612v-520h451v-127h-451v-612h649v-127h-788zM287 1636v117h501v-117h-501z" />
    <glyph glyph-name="emacron" unicode="&#x113;" horiz-adv-x="950" 
d="M86 541q0 143 33 248t89 174t129.5 103t154.5 34q89 0 158.5 -36.5t117.5 -106t73 -172t25 -234.5v-31h-647q2 -104 22.5 -183.5t56 -134t86 -82.5t112.5 -28q49 0 87 14.5t68.5 41.5t55 66t47.5 87l100 -55q-28 -62 -65 -112t-83 -85t-101 -53.5t-118 -18.5
q-86 0 -159.5 36t-127 107t-84 176.5t-30.5 244.5zM221 629h512q-4 77 -20 142t-46 112.5t-74 74.5t-104 27q-48 0 -93 -21t-81.5 -65t-61 -111t-32.5 -159zM227 1219v116h502v-116h-502z" />
    <glyph glyph-name="Ebreve" unicode="&#x114;" horiz-adv-x="1032" 
d="M164 0v1516h751v-130h-612v-520h451v-127h-451v-612h649v-127h-788zM282 1932h90q13 -117 55 -170.5t117 -53.5q77 0 119 53.5t53 170.5h91q-3 -77 -21.5 -138.5t-51.5 -104.5t-81 -66t-109 -23t-108 23t-80 66t-51.5 104.5t-22.5 138.5z" />
    <glyph glyph-name="ebreve" unicode="&#x115;" horiz-adv-x="950" 
d="M86 541q0 143 33 248t89 174t129.5 103t154.5 34q89 0 158.5 -36.5t117.5 -106t73 -172t25 -234.5v-31h-647q2 -104 22.5 -183.5t56 -134t86 -82.5t112.5 -28q49 0 87 14.5t68.5 41.5t55 66t47.5 87l100 -55q-28 -62 -65 -112t-83 -85t-101 -53.5t-118 -18.5
q-86 0 -159.5 36t-127 107t-84 176.5t-30.5 244.5zM221 629h512q-4 77 -20 142t-46 112.5t-74 74.5t-104 27q-48 0 -93 -21t-81.5 -65t-61 -111t-32.5 -159zM221 1518h90q13 -117 55 -170.5t117 -53.5q77 0 119 53.5t53 170.5h91q-3 -77 -21.5 -138.5t-51.5 -104.5t-81 -66
t-109 -23t-108 23t-80 66t-51.5 104.5t-22.5 138.5z" />
    <glyph glyph-name="Edotaccent" unicode="&#x116;" horiz-adv-x="1032" 
d="M164 0v1516h751v-130h-612v-520h451v-127h-451v-612h649v-127h-788zM471 1612v162h162v-162h-162z" />
    <glyph glyph-name="edotaccent" unicode="&#x117;" horiz-adv-x="950" 
d="M86 541q0 143 33 248t89 174t129.5 103t154.5 34q89 0 158.5 -36.5t117.5 -106t73 -172t25 -234.5v-31h-647q2 -104 22.5 -183.5t56 -134t86 -82.5t112.5 -28q49 0 87 14.5t68.5 41.5t55 66t47.5 87l100 -55q-28 -62 -65 -112t-83 -85t-101 -53.5t-118 -18.5
q-86 0 -159.5 36t-127 107t-84 176.5t-30.5 244.5zM221 629h512q-4 77 -20 142t-46 112.5t-74 74.5t-104 27q-48 0 -93 -21t-81.5 -65t-61 -111t-32.5 -159zM393 1194v162h162v-162h-162z" />
    <glyph glyph-name="Eogonek" unicode="&#x118;" horiz-adv-x="1032" 
d="M164 0v1516h751v-130h-612v-520h451v-127h-451v-612h649v-127h-71q-36 0 -75.5 -14t-72 -40.5t-53.5 -64.5t-21 -86q0 -45 22 -71.5t73 -26.5q73 0 161 49l37 -59q-54 -37 -107.5 -54.5t-119.5 -17.5q-85 0 -129.5 42.5t-44.5 115.5q0 31 11.5 62t30.5 60t44 56t53 49
h-526z" />
    <glyph glyph-name="eogonek" unicode="&#x119;" horiz-adv-x="950" 
d="M86 541q0 143 33 248t89 174t129.5 103t154.5 34q89 0 158.5 -36.5t117.5 -106t73 -172t25 -234.5v-25h-647q2 -106 22.5 -187t56 -136.5t86 -84t112.5 -28.5q49 0 87.5 15t69.5 43t55 67.5t44 87.5l100 -53q-19 -44 -37.5 -75.5t-39.5 -57.5t-45.5 -49.5t-55.5 -51.5
q-26 -23 -50 -47t-42 -50.5t-28.5 -57t-10.5 -66.5q0 -45 20.5 -71.5t73.5 -26.5q37 0 76 12t86 37l35 -59q-54 -37 -107.5 -54.5t-118.5 -17.5q-86 0 -130 42.5t-44 115.5q0 57 35 112t86 99q-15 -3 -33 -5t-35 -2q-86 0 -159.5 36t-127 107t-84 176.5t-30.5 244.5z
M221 629h512q-4 77 -20 142.5t-46 113.5t-74 75t-104 27q-48 0 -93 -21.5t-81.5 -65.5t-61 -111.5t-32.5 -159.5z" />
    <glyph glyph-name="Ecaron" unicode="&#x11a;" horiz-adv-x="1032" 
d="M164 0v1516h751v-130h-612v-520h451v-127h-451v-612h649v-127h-788zM270 1923h88l189 -194l186 194h84l-225 -324h-96z" />
    <glyph glyph-name="ecaron" unicode="&#x11b;" horiz-adv-x="950" 
d="M86 541q0 143 33 248t89 174t129.5 103t154.5 34q89 0 158.5 -36.5t117.5 -106t73 -172t25 -234.5v-31h-647q2 -104 22.5 -183.5t56 -134t86 -82.5t112.5 -28q49 0 87 14.5t68.5 41.5t55 66t47.5 87l100 -55q-28 -62 -65 -112t-83 -85t-101 -53.5t-118 -18.5
q-86 0 -159.5 36t-127 107t-84 176.5t-30.5 244.5zM201 1516h88l188 -195l187 195h84l-226 -324h-96zM221 629h512q-4 77 -20 142t-46 112.5t-74 74.5t-104 27q-48 0 -93 -21t-81.5 -65t-61 -111t-32.5 -159z" />
    <glyph glyph-name="Gcircumflex" unicode="&#x11c;" horiz-adv-x="1239" 
d="M346 1602l225 323h97l225 -323h-86l-189 190l-186 -190h-86zM100 764q0 183 36.5 327.5t105 245t167 154t222.5 53.5q100 0 175.5 -34t130.5 -95.5t91.5 -148t58.5 -191.5l-126 -26q-20 90 -48.5 158.5t-69 115t-93.5 70.5t-123 24q-89 0 -161 -44t-122 -127t-77 -204.5
t-27 -275.5q0 -163 26 -287.5t76.5 -209t123.5 -128t167 -43.5q162 0 250.5 124.5t91.5 367.5h-305v123h430v-713h-117v209h-2q-19 -45 -50.5 -87.5t-76 -76t-102.5 -54t-131 -20.5q-124 0 -221 52.5t-163.5 154t-101.5 249t-35 337.5z" />
    <glyph glyph-name="gcircumflex" unicode="&#x11d;" horiz-adv-x="993" 
d="M205 1186l225 323h97l225 -323h-86l-189 190l-186 -190h-86zM37 -145q0 83 47 146t131 101q-43 23 -66.5 55t-23.5 79q0 46 31.5 89.5t81.5 71.5q-66 51 -104 132.5t-38 181.5q0 87 27.5 158.5t76.5 122.5t116.5 79.5t146.5 28.5q81 0 148 -28t116 -81q42 37 100 63
t111 36v-132q-40 0 -82 -7.5t-84 -24.5q53 -88 53 -215q0 -90 -27 -161.5t-75 -121t-114 -76t-144 -26.5q-42 0 -80 6.5t-70 21.5q-31 -18 -50 -41.5t-19 -52.5q0 -16 5.5 -28t20 -21.5t40.5 -16t67 -12.5l174 -22q94 -12 161 -33.5t109.5 -54.5t62 -78t19.5 -105
q0 -71 -34.5 -127t-94.5 -94t-142.5 -58t-178.5 -20q-112 0 -191.5 18.5t-129.5 52.5t-73.5 83t-23.5 111zM164 -129q0 -42 15 -75.5t50.5 -56t93.5 -34.5t144 -12q69 0 126 13t98.5 36.5t64 56.5t22.5 74q0 36 -12 64t-40.5 49t-75.5 35.5t-118 23.5l-182 23q-8 2 -16.5 3
t-16.5 1q-77 -32 -115 -85.5t-38 -115.5zM227 709q0 -63 16.5 -114t47 -87.5t74.5 -56t100 -19.5q55 0 98.5 19.5t73.5 56t45.5 87.5t15.5 114q0 65 -15 117.5t-45 89t-74 56t-101 19.5q-56 0 -100 -20t-74 -57t-46 -89t-16 -116z" />
    <glyph glyph-name="Gbreve" unicode="&#x11e;" horiz-adv-x="1239" 
d="M100 764q0 183 36.5 327.5t105 245t167 154t222.5 53.5q100 0 175.5 -34t130.5 -95.5t91.5 -148t58.5 -191.5l-126 -26q-20 90 -48.5 158.5t-69 115t-93.5 70.5t-123 24q-89 0 -161 -44t-122 -127t-77 -204.5t-27 -275.5q0 -163 26 -287.5t76.5 -209t123.5 -128
t167 -43.5q162 0 250.5 124.5t91.5 367.5h-305v123h430v-713h-117v209h-2q-19 -45 -50.5 -87.5t-76 -76t-102.5 -54t-131 -20.5q-124 0 -221 52.5t-163.5 154t-101.5 249t-35 337.5zM364 1936h90q13 -117 55 -170.5t117 -53.5q77 0 119 53.5t53 170.5h91
q-3 -77 -21.5 -138.5t-51.5 -104.5t-81 -66t-109 -23t-108 23t-80 66t-51.5 104.5t-22.5 138.5z" />
    <glyph glyph-name="gbreve" unicode="&#x11f;" horiz-adv-x="993" 
d="M37 -145q0 83 47 146t131 101q-43 23 -66.5 55t-23.5 79q0 46 31.5 89.5t81.5 71.5q-66 51 -104 132.5t-38 181.5q0 87 27.5 158.5t76.5 122.5t116.5 79.5t146.5 28.5q81 0 148 -28t116 -81q42 37 100 63t111 36v-132q-40 0 -82 -7.5t-84 -24.5q53 -88 53 -215
q0 -90 -27 -161.5t-75 -121t-114 -76t-144 -26.5q-42 0 -80 6.5t-70 21.5q-31 -18 -50 -41.5t-19 -52.5q0 -16 5.5 -28t20 -21.5t40.5 -16t67 -12.5l174 -22q94 -12 161 -33.5t109.5 -54.5t62 -78t19.5 -105q0 -71 -34.5 -127t-94.5 -94t-142.5 -58t-178.5 -20
q-112 0 -191.5 18.5t-129.5 52.5t-73.5 83t-23.5 111zM164 -129q0 -42 15 -75.5t50.5 -56t93.5 -34.5t144 -12q69 0 126 13t98.5 36.5t64 56.5t22.5 74q0 36 -12 64t-40.5 49t-75.5 35.5t-118 23.5l-182 23q-8 2 -16.5 3t-16.5 1q-77 -32 -115 -85.5t-38 -115.5zM227 709
q0 -63 16.5 -114t47 -87.5t74.5 -56t100 -19.5q55 0 98.5 19.5t73.5 56t45.5 87.5t15.5 114q0 65 -15 117.5t-45 89t-74 56t-101 19.5q-56 0 -100 -20t-74 -57t-46 -89t-16 -116zM219 1518h90q13 -117 55 -170.5t117 -53.5q77 0 119 53.5t53 170.5h91q-3 -77 -21.5 -138.5
t-51.5 -104.5t-81 -66t-109 -23t-108 23t-80 66t-51.5 104.5t-22.5 138.5z" />
    <glyph glyph-name="Gdotaccent" unicode="&#x120;" horiz-adv-x="1239" 
d="M100 764q0 183 36.5 327.5t105 245t167 154t222.5 53.5q100 0 175.5 -34t130.5 -95.5t91.5 -148t58.5 -191.5l-126 -26q-20 90 -48.5 158.5t-69 115t-93.5 70.5t-123 24q-89 0 -161 -44t-122 -127t-77 -204.5t-27 -275.5q0 -163 26 -287.5t76.5 -209t123.5 -128
t167 -43.5q162 0 250.5 124.5t91.5 367.5h-305v123h430v-713h-117v209h-2q-19 -45 -50.5 -87.5t-76 -76t-102.5 -54t-131 -20.5q-124 0 -221 52.5t-163.5 154t-101.5 249t-35 337.5zM543 1612v162h161v-162h-161z" />
    <glyph glyph-name="gdotaccent" unicode="&#x121;" horiz-adv-x="993" 
d="M37 -145q0 83 47 146t131 101q-43 23 -66.5 55t-23.5 79q0 46 31.5 89.5t81.5 71.5q-66 51 -104 132.5t-38 181.5q0 87 27.5 158.5t76.5 122.5t116.5 79.5t146.5 28.5q81 0 148 -28t116 -81q42 37 100 63t111 36v-132q-40 0 -82 -7.5t-84 -24.5q53 -88 53 -215
q0 -90 -27 -161.5t-75 -121t-114 -76t-144 -26.5q-42 0 -80 6.5t-70 21.5q-31 -18 -50 -41.5t-19 -52.5q0 -16 5.5 -28t20 -21.5t40.5 -16t67 -12.5l174 -22q94 -12 161 -33.5t109.5 -54.5t62 -78t19.5 -105q0 -71 -34.5 -127t-94.5 -94t-142.5 -58t-178.5 -20
q-112 0 -191.5 18.5t-129.5 52.5t-73.5 83t-23.5 111zM164 -129q0 -42 15 -75.5t50.5 -56t93.5 -34.5t144 -12q69 0 126 13t98.5 36.5t64 56.5t22.5 74q0 36 -12 64t-40.5 49t-75.5 35.5t-118 23.5l-182 23q-8 2 -16.5 3t-16.5 1q-77 -32 -115 -85.5t-38 -115.5zM227 709
q0 -63 16.5 -114t47 -87.5t74.5 -56t100 -19.5q55 0 98.5 19.5t73.5 56t45.5 87.5t15.5 114q0 65 -15 117.5t-45 89t-74 56t-101 19.5q-56 0 -100 -20t-74 -57t-46 -89t-16 -116zM394 1194v162h161v-162h-161z" />
    <glyph glyph-name="Gcommaaccent" unicode="&#x122;" horiz-adv-x="1239" 
d="M100 764q0 183 36.5 327.5t105 245t167 154t222.5 53.5q100 0 175.5 -34t130.5 -95.5t91.5 -148t58.5 -191.5l-126 -26q-20 90 -48.5 158.5t-69 115t-93.5 70.5t-123 24q-89 0 -161 -44t-122 -127t-77 -204.5t-27 -275.5q0 -163 26 -287.5t76.5 -209t123.5 -128
t167 -43.5q162 0 250.5 124.5t91.5 367.5h-305v123h430v-713h-117v209h-2q-19 -45 -50.5 -87.5t-76 -76t-102.5 -54t-131 -20.5q-124 0 -221 52.5t-163.5 154t-101.5 249t-35 337.5zM563 -100h152v-162l-76 -203h-59l45 189h-62v176z" />
    <glyph glyph-name="gcommaaccent" unicode="&#x123;" horiz-adv-x="993" 
d="M37 -145q0 83 47 146t131 101q-43 23 -66.5 55t-23.5 79q0 46 31.5 89.5t81.5 71.5q-66 51 -104 132.5t-38 181.5q0 87 27.5 158.5t76.5 122.5t116.5 79.5t146.5 28.5q81 0 148 -28t116 -81q42 37 100 63t111 36v-132q-40 0 -82 -7.5t-84 -24.5q53 -88 53 -215
q0 -90 -27 -161.5t-75 -121t-114 -76t-144 -26.5q-42 0 -80 6.5t-70 21.5q-31 -18 -50 -41.5t-19 -52.5q0 -16 5.5 -28t20 -21.5t40.5 -16t67 -12.5l174 -22q94 -12 161 -33.5t109.5 -54.5t62 -78t19.5 -105q0 -71 -34.5 -127t-94.5 -94t-142.5 -58t-178.5 -20
q-112 0 -191.5 18.5t-129.5 52.5t-73.5 83t-23.5 111zM164 -129q0 -42 15 -75.5t50.5 -56t93.5 -34.5t144 -12q69 0 126 13t98.5 36.5t64 56.5t22.5 74q0 36 -12 64t-40.5 49t-75.5 35.5t-118 23.5l-182 23q-8 2 -16.5 3t-16.5 1q-77 -32 -115 -85.5t-38 -115.5zM227 709
q0 -63 16.5 -114t47 -87.5t74.5 -56t100 -19.5q55 0 98.5 19.5t73.5 56t45.5 87.5t15.5 114q0 65 -15 117.5t-45 89t-74 56t-101 19.5q-56 0 -100 -20t-74 -57t-46 -89t-16 -116zM399 1196v156l74 200h57l-45 -186h60v-170h-146z" />
    <glyph glyph-name="Hcircumflex" unicode="&#x124;" horiz-adv-x="1257" 
d="M354 1602l225 323h97l225 -323h-86l-189 190l-186 -190h-86zM164 0v1516h139v-650h651v650h140v-1516h-140v737h-651v-737h-139z" />
    <glyph glyph-name="hcircumflex" unicode="&#x125;" horiz-adv-x="1014" 
d="M-63 1602l225 323h97l225 -323h-86l-189 190l-186 -190h-86zM139 0v1516h133v-590q28 31 66.5 62t83 56t94.5 40.5t102 15.5q135 0 201 -75.5t66 -223.5v-801h-133v778q0 103 -38 154t-130 51q-42 0 -83.5 -14t-81.5 -37.5t-77.5 -54t-69.5 -62.5v-815h-133z" />
    <glyph glyph-name="Hbar" unicode="&#x126;" horiz-adv-x="1257" 
d="M23 1128v123h141v265h139v-265h651v265h140v-265h141v-123h-141v-1128h-140v741h-651v-741h-139v1128h-141zM303 862h651v266h-651v-266z" />
    <glyph glyph-name="hbar" unicode="&#x127;" horiz-adv-x="1014" 
d="M31 1223v116h108v177h133v-177h220v-116h-220v-297q28 31 66.5 62t83 56t94.5 40.5t102 15.5q135 0 201 -75.5t66 -223.5v-801h-133v778q0 103 -38 154t-130 51q-42 0 -83.5 -14t-81.5 -37.5t-77.5 -54t-69.5 -62.5v-815h-133v1223h-108z" />
    <glyph glyph-name="Itilde" unicode="&#x128;" horiz-adv-x="492" 
d="M176 0v1516h139v-1516h-139zM-40 1606q0 115 40 169t117 54q40 0 76.5 -18t69.5 -39.5t63 -39.5t58 -18q35 0 52 24.5t17 86.5h86q0 -115 -39 -169t-116 -54q-39 0 -75.5 18t-70 39t-63.5 39t-56 18q-37 0 -53 -24t-16 -86h-90z" />
    <glyph glyph-name="itilde" unicode="&#x129;" horiz-adv-x="432" 
d="M150 0v1077h133v-1077h-133zM-70 1190q0 115 40 169t117 54q40 0 76.5 -18t69.5 -39.5t63 -39.5t58 -18q35 0 52 24.5t17 86.5h86q0 -115 -39 -169t-116 -54q-39 0 -75.5 18t-70 39t-63.5 39t-56 18q-37 0 -53 -24t-16 -86h-90z" />
    <glyph glyph-name="Imacron" unicode="&#x12a;" horiz-adv-x="492" 
d="M-6 1636v117h502v-117h-502zM176 0v1516h139v-1516h-139z" />
    <glyph glyph-name="imacron" unicode="&#x12b;" horiz-adv-x="432" 
d="M-35 1219v116h502v-116h-502zM150 0v1077h133v-1077h-133z" />
    <glyph glyph-name="Ibreve" unicode="&#x12c;" horiz-adv-x="492" 
d="M176 0v1516h139v-1516h-139zM-16 1936h90q13 -117 55 -170.5t117 -53.5q77 0 119 53.5t53 170.5h91q-3 -77 -21.5 -138.5t-51.5 -104.5t-81 -66t-109 -23t-108 23t-80 66t-51.5 104.5t-22.5 138.5z" />
    <glyph glyph-name="ibreve" unicode="&#x12d;" horiz-adv-x="432" 
d="M150 0v1077h133v-1077h-133zM-44 1518h90q13 -117 55 -170.5t117 -53.5q77 0 119 53.5t53 170.5h91q-3 -77 -21.5 -138.5t-51.5 -104.5t-81 -66t-109 -23t-108 23t-80 66t-51.5 104.5t-22.5 138.5z" />
    <glyph glyph-name="Iogonek" unicode="&#x12e;" horiz-adv-x="492" 
d="M47 -227q0 31 11.5 62t31 60t45 56t53.5 49h-12v1516h139v-1516q-7 -3 -13 -6q-5 -2 -10.5 -5t-10.5 -5q-60 -31 -92.5 -83.5t-32.5 -105.5q0 -45 20.5 -71.5t73.5 -26.5q37 0 76 12t86 37l37 -59q-54 -37 -108 -54.5t-120 -17.5q-85 0 -129.5 42.5t-44.5 115.5z" />
    <glyph glyph-name="iogonek" unicode="&#x12f;" horiz-adv-x="432" 
d="M18 -227q0 31 10.5 60t28.5 56.5t42 52.5t51 48v1087h133v-1077q-36 -9 -64.5 -31.5t-49 -51t-31.5 -61t-11 -61.5q0 -45 21 -71.5t73 -26.5q71 0 162 49l35 -59q-54 -37 -107 -54.5t-118 -17.5q-87 0 -131 42.5t-44 115.5zM147 1313v157h138v-157h-138z" />
    <glyph glyph-name="Idotaccent" unicode="&#x130;" horiz-adv-x="492" 
d="M176 0v1516h139v-1516h-139zM165 1610v162h161v-162h-161z" />
    <glyph glyph-name="dotlessi" unicode="&#x131;" horiz-adv-x="432" 
d="M150 0v1077h133v-1077h-133z" />
    <glyph glyph-name="IJ" unicode="&#x132;" horiz-adv-x="1360" 
d="M176 0v1516h139v-1516h-139zM532 96l72 103q57 -45 125 -72t131 -27q44 0 82 13t65.5 40.5t43.5 69.5t16 101v1192h139v-1188q0 -89 -25.5 -154.5t-70.5 -109.5t-107.5 -65.5t-136.5 -21.5q-85 0 -173.5 30t-160.5 89z" />
    <glyph glyph-name="ij" unicode="&#x133;" horiz-adv-x="864" 
d="M147 1313v157h138v-157h-138zM150 0v1077h133v-1077h-133zM440 -295q10 -2 25.5 -3t27.5 -1q44 0 65.5 27.5t21.5 87.5v1261h133v-1259q0 -119 -48 -173.5t-157 -54.5q-6 0 -15.5 0.5t-20 1t-19.5 1t-13 1.5v111zM577 1313v157h138v-157h-138z" />
    <glyph glyph-name="Jcircumflex" unicode="&#x134;" horiz-adv-x="870" 
d="M373 1602l225 323h97l225 -323h-86l-189 190l-186 -190h-86zM43 96l72 103q57 -45 125 -72t131 -27q44 0 82 13t65.5 40.5t43.5 69.5t16 101v1192h139v-1188q0 -89 -25.5 -154.5t-70.5 -109.5t-107.5 -65.5t-136.5 -21.5q-85 0 -173.5 30t-160.5 89z" />
    <glyph glyph-name="jcircumflex" unicode="&#x135;" horiz-adv-x="432" 
d="M-57 1186l225 323h96l225 -323h-86l-188 192l-186 -192h-86zM10 -297q10 -2 25.5 -3t27.5 -1q44 0 65.5 27.5t21.5 87.5v1263h133v-1259q0 -120 -48 -174t-157 -54q-6 0 -15.5 0.5t-20 1t-19.5 1t-13 1.5v109z" />
    <glyph glyph-name="Kcommaaccent" unicode="&#x136;" horiz-adv-x="1147" 
d="M164 0v1516h139v-826q9 15 26.5 41.5t40 59t47.5 68t50 69.5l420 588h147l-422 -584l494 -932h-148l-434 811l-221 -303v-508h-139zM539 -100h151v-162l-76 -203h-59l45 189h-61v176z" />
    <glyph glyph-name="kcommaaccent" unicode="&#x137;" horiz-adv-x="922" 
d="M139 0v1516h133v-1020q9 15 26 40t38.5 55t46 62.5t47.5 63.5l266 360h140l-293 -391l331 -686h-137l-278 575l-187 -245v-330h-133zM426 -100h152v-162l-76 -203h-60l45 189h-61v176z" />
    <glyph glyph-name="kgreenlandic" unicode="&#x138;" horiz-adv-x="922" 
d="M139 0v1077h133v-581q9 15 26 40t38.5 55t46 62.5t47.5 63.5l266 360h140l-293 -391l331 -686h-137l-278 575l-187 -245v-330h-133z" />
    <glyph glyph-name="Lacute" unicode="&#x139;" horiz-adv-x="977" 
d="M164 0v1516h139v-1389h608v-127h-747zM188 1612l166 315h168l-246 -315h-88z" />
    <glyph glyph-name="lacute" unicode="&#x13a;" horiz-adv-x="432" 
d="M150 0v1516h133v-1516h-133zM168 1612l166 315h168l-246 -315h-88z" />
    <glyph glyph-name="Lcommaaccent" unicode="&#x13b;" horiz-adv-x="977" 
d="M164 0v1516h139v-1389h608v-127h-747zM459 -100h153v-162l-75 -203h-62l45 189h-61v176z" />
    <glyph glyph-name="lcommaaccent" unicode="&#x13c;" horiz-adv-x="432" 
d="M141 -100h152v-162l-76 -203h-59l45 189h-62v176zM150 0v1516h133v-1516h-133z" />
    <glyph glyph-name="Lcaron" unicode="&#x13d;" horiz-adv-x="977" 
d="M164 0v1516h139v-1389h608v-127h-747zM686 1325v191h162v-177l-86 -221h-64l52 207h-64z" />
    <glyph glyph-name="lcaron" unicode="&#x13e;" horiz-adv-x="549" 
d="M150 0v1516h133v-1516h-133zM432 1325v191h162v-177l-86 -221h-64l52 207h-64z" />
    <glyph glyph-name="Ldot" unicode="&#x13f;" horiz-adv-x="1004" 
d="M164 0v1516h139v-1389h608v-127h-747zM647 717v192h176v-192h-176z" />
    <glyph glyph-name="ldot" unicode="&#x140;" horiz-adv-x="684" 
d="M150 0v1516h133v-1516h-133zM472.428 553.438v189.316h173.541v-189.316h-173.541z" />
    <glyph glyph-name="Lslash" unicode="&#x141;" horiz-adv-x="977" 
d="M31 578v120l133 64v754h139v-695l264 133v-120l-264 -129v-578h608v-127h-747v641z" />
    <glyph glyph-name="lslash" unicode="&#x142;" horiz-adv-x="514" 
d="M37 537v118l153 76v785h134v-730l153 76v-119l-153 -75v-668h-134v612z" />
    <glyph glyph-name="Nacute" unicode="&#x143;" horiz-adv-x="1272" 
d="M164 0v1516h172l506 -984q20 -38 36.5 -70.5t31.5 -63.5l32 -63q16 -32 35 -71h4v1252h127v-1516h-129l-535 1032q-22 43 -40 77.5t-34 67.5l-35 69q-18 36 -40 83h-4v-1329h-127zM569 1602l166 315h168l-246 -315h-88z" />
    <glyph glyph-name="nacute" unicode="&#x144;" horiz-adv-x="1014" 
d="M139 0v1077h133v-151q28 31 66.5 62t83 56t94.5 40.5t102 15.5q135 0 201 -75.5t66 -223.5v-801h-133v778q0 103 -38 154t-130 51q-42 0 -83.5 -14t-81.5 -37.5t-77.5 -54t-69.5 -62.5v-815h-133zM375 1194l166 315h168l-246 -315h-88z" />
    <glyph glyph-name="Ncommaaccent" unicode="&#x145;" horiz-adv-x="1272" 
d="M164 0v1516h172l506 -984q20 -38 36.5 -70.5t31.5 -63.5l32 -63q16 -32 35 -71h4v1252h127v-1516h-129l-535 1032q-22 43 -40 77.5t-34 67.5l-35 69q-18 36 -40 83h-4v-1329h-127zM543 -102h151v-162l-76 -203h-59l45 188h-61v177z" />
    <glyph glyph-name="ncommaaccent" unicode="&#x146;" horiz-adv-x="1014" 
d="M139 0v1077h133v-151q28 31 66.5 62t83 56t94.5 40.5t102 15.5q135 0 201 -75.5t66 -223.5v-801h-133v778q0 103 -38 154t-130 51q-42 0 -83.5 -14t-81.5 -37.5t-77.5 -54t-69.5 -62.5v-815h-133zM432 -100h152v-162l-76 -203h-59l45 189h-62v176z" />
    <glyph glyph-name="Ncaron" unicode="&#x147;" horiz-adv-x="1272" 
d="M164 0v1516h172l506 -984q20 -38 36.5 -70.5t31.5 -63.5l32 -63q16 -32 35 -71h4v1252h127v-1516h-129l-535 1032q-22 43 -40 77.5t-34 67.5l-35 69q-18 36 -40 83h-4v-1329h-127zM391 1923h88l189 -194l186 194h84l-225 -324h-97z" />
    <glyph glyph-name="ncaron" unicode="&#x148;" horiz-adv-x="1014" 
d="M139 0v1077h133v-151q28 31 66.5 62t83 56t94.5 40.5t102 15.5q135 0 201 -75.5t66 -223.5v-801h-133v778q0 103 -38 154t-130 51q-42 0 -83.5 -14t-81.5 -37.5t-77.5 -54t-69.5 -62.5v-815h-133zM246 1516h88l188 -195l187 195h84l-226 -324h-96z" />
    <glyph glyph-name="napostrophe" unicode="&#x149;" horiz-adv-x="1395" 
d="M160 1325v191h162v-177l-86 -221h-64l51 207h-63zM518 0v1077h133v-151q28 31 66.5 62t83 56t94.5 40.5t102 15.5q135 0 201 -75.5t66 -223.5v-801h-133v778q0 103 -38 154t-130 51q-42 0 -83.5 -14t-81.5 -37.5t-77.5 -54t-69.5 -62.5v-815h-133z" />
    <glyph glyph-name="Eng" unicode="&#x14a;" horiz-adv-x="1272" 
d="M164 0v1516h172l508 -984q1 -4 11 -24l24 -48q14 -28 30.5 -60.5t31 -61.5t24.5 -49.5t12 -24.5h4v1252h127v-1575q0 -89 -25 -155t-70 -109.5t-107 -65t-136 -21.5q-43 0 -87.5 7.5t-87.5 22.5t-84 37.5t-77 51.5l72 101q57 -44 125 -70.5t131 -26.5q44 0 83 12.5
t68.5 39t46.5 67.5t17 98v72l-533 1030q-22 43 -40 77.5t-34 67.5l-35 69q-18 36 -40 83h-4v-1329h-127z" />
    <glyph glyph-name="eng" unicode="&#x14b;" horiz-adv-x="1014" 
d="M139 0v1077h133v-151q28 31 66.5 62t83 56t94.5 40.5t102 15.5q135 0 201 -75.5t66 -223.5v-983q0 -119 -47 -173.5t-156 -54.5q-5 0 -15 0.5t-20.5 1t-20 1t-12.5 1.5v111q8 -2 24.5 -3t27.5 -1q43 0 64.5 27.5t21.5 87.5v962q0 103 -38 154t-130 51q-42 0 -83.5 -14
t-81.5 -37.5t-77.5 -54t-69.5 -62.5v-815h-133z" />
    <glyph glyph-name="Omacron" unicode="&#x14c;" horiz-adv-x="1272" 
d="M100 758q0 188 39.5 334.5t111 247t170 152.5t216.5 52q117 0 215.5 -52t169 -152.5t110 -247t39.5 -334.5t-39.5 -334.5t-110 -247t-169 -153t-215.5 -52.5q-118 0 -216.5 52.5t-170 153t-111 247t-39.5 334.5zM240 758q0 -157 28 -279.5t79.5 -207t125 -129
t164.5 -44.5q90 0 162.5 44.5t124 129t79 207t27.5 279.5t-27.5 279.5t-79 207t-124 128.5t-162.5 44q-91 0 -164.5 -44t-125 -128.5t-79.5 -207t-28 -279.5zM385 1636v117h502v-117h-502z" />
    <glyph glyph-name="omacron" unicode="&#x14d;" horiz-adv-x="1001" 
d="M86 539q0 136 31 241t86.5 176t132 107.5t166.5 36.5q89 0 164.5 -36.5t131 -107.5t86.5 -176t31 -241q0 -135 -31 -240t-86.5 -176.5t-131 -108.5t-164.5 -37t-165.5 37t-132 108.5t-87 176.5t-31.5 240zM221 541q0 -92 16 -173.5t50.5 -142.5t87.5 -97t127 -36
q69 0 121 33t87 92t52.5 142t17.5 182q0 90 -16.5 170t-50.5 140.5t-86.5 96t-124.5 35.5q-70 0 -122.5 -33t-88 -91.5t-53 -139.5t-17.5 -178zM250 1219v116h502v-116h-502z" />
    <glyph glyph-name="Obreve" unicode="&#x14e;" horiz-adv-x="1272" 
d="M100 758q0 188 39.5 334.5t111 247t170 152.5t216.5 52q117 0 215.5 -52t169 -152.5t110 -247t39.5 -334.5t-39.5 -334.5t-110 -247t-169 -153t-215.5 -52.5q-118 0 -216.5 52.5t-170 153t-111 247t-39.5 334.5zM240 758q0 -157 28 -279.5t79.5 -207t125 -129
t164.5 -44.5q90 0 162.5 44.5t124 129t79 207t27.5 279.5t-27.5 279.5t-79 207t-124 128.5t-162.5 44q-91 0 -164.5 -44t-125 -128.5t-79.5 -207t-28 -279.5zM374 1936h90q13 -117 55 -170.5t117 -53.5q77 0 119 53.5t53 170.5h91q-3 -77 -21.5 -138.5t-51.5 -104.5t-81 -66
t-109 -23t-108 23t-80 66t-51.5 104.5t-22.5 138.5z" />
    <glyph glyph-name="obreve" unicode="&#x14f;" horiz-adv-x="1001" 
d="M86 539q0 136 31 241t86.5 176t132 107.5t166.5 36.5q89 0 164.5 -36.5t131 -107.5t86.5 -176t31 -241q0 -135 -31 -240t-86.5 -176.5t-131 -108.5t-164.5 -37t-165.5 37t-132 108.5t-87 176.5t-31.5 240zM221 541q0 -92 16 -173.5t50.5 -142.5t87.5 -97t127 -36
q69 0 121 33t87 92t52.5 142t17.5 182q0 90 -16.5 170t-50.5 140.5t-86.5 96t-124.5 35.5q-70 0 -122.5 -33t-88 -91.5t-53 -139.5t-17.5 -178zM233 1518h90q13 -117 55 -170.5t117 -53.5q77 0 119 53.5t53 170.5h91q-3 -77 -21.5 -138.5t-51.5 -104.5t-81 -66t-109 -23
t-108 23t-80 66t-51.5 104.5t-22.5 138.5z" />
    <glyph glyph-name="Ohungarumlaut" unicode="&#x150;" horiz-adv-x="1272" 
d="M100 758q0 188 39.5 334.5t111 247t170 152.5t216.5 52q117 0 215.5 -52t169 -152.5t110 -247t39.5 -334.5t-39.5 -334.5t-110 -247t-169 -153t-215.5 -52.5q-118 0 -216.5 52.5t-170 153t-111 247t-39.5 334.5zM240 758q0 -157 28 -279.5t79.5 -207t125 -129
t164.5 -44.5q90 0 162.5 44.5t124 129t79 207t27.5 279.5t-27.5 279.5t-79 207t-124 128.5t-162.5 44q-91 0 -164.5 -44t-125 -128.5t-79.5 -207t-28 -279.5zM389 1604l162 315h174l-244 -315h-92zM672 1604l168 315h172l-248 -315h-92z" />
    <glyph glyph-name="ohungarumlaut" unicode="&#x151;" horiz-adv-x="1001" 
d="M86 539q0 136 31 241t86.5 176t132 107.5t166.5 36.5q89 0 164.5 -36.5t131 -107.5t86.5 -176t31 -241q0 -135 -31 -240t-86.5 -176.5t-131 -108.5t-164.5 -37t-165.5 37t-132 108.5t-87 176.5t-31.5 240zM221 541q0 -92 16 -173.5t50.5 -142.5t87.5 -97t127 -36
q69 0 121 33t87 92t52.5 142t17.5 182q0 90 -16.5 170t-50.5 140.5t-86.5 96t-124.5 35.5q-70 0 -122.5 -33t-88 -91.5t-53 -139.5t-17.5 -178zM223 1194l162 315h174l-244 -315h-92zM506 1194l168 315h172l-248 -315h-92z" />
    <glyph glyph-name="OE" unicode="&#x152;" horiz-adv-x="1894" 
d="M100 758q0 188 39.5 334.5t111 247t170 152.5t216.5 52q134 0 236 -68.5t165 -199.5v240h740v-130h-613v-520h451v-127h-451v-612h650v-127h-777v244q-63 -134 -165 -203.5t-236 -69.5q-118 0 -216.5 52.5t-170 153t-111 247t-39.5 334.5zM240 758q0 -157 28 -279.5
t79.5 -207t125 -129t164.5 -44.5q90 0 162.5 44.5t124 129t79 207t27.5 279.5t-27.5 279.5t-79 207t-124 128.5t-162.5 44q-91 0 -164.5 -44t-125 -128.5t-79.5 -207t-28 -279.5z" />
    <glyph glyph-name="oe" unicode="&#x153;" horiz-adv-x="1640" 
d="M86 539q0 136 31 241t86.5 176t132 107.5t166.5 36.5q115 0 203.5 -61.5t138.5 -182.5q52 123 140.5 183.5t195.5 60.5q90 0 159.5 -36.5t117 -106t72.5 -172t25 -234.5v-31h-645q5 -208 78 -318t197 -110q49 0 87.5 14.5t69 41.5t55 66t46.5 87l100 -55
q-54 -125 -144.5 -197t-219.5 -72q-112 0 -199 61.5t-135 182.5q-50 -119 -138.5 -181.5t-203.5 -62.5q-89 0 -165.5 37t-132 108.5t-87 176.5t-31.5 240zM221 541q0 -92 16 -173.5t50.5 -142.5t87.5 -97t127 -36q69 0 121 33t87 92t52.5 142t17.5 182q0 90 -16.5 170
t-50.5 140.5t-86.5 96t-124.5 35.5q-70 0 -122.5 -33t-88 -91.5t-53 -139.5t-17.5 -178zM911 629h512q-4 77 -20 142t-46 112.5t-74.5 74.5t-104.5 27q-48 0 -93 -21t-81 -65t-60.5 -111t-32.5 -159z" />
    <glyph glyph-name="Racute" unicode="&#x154;" 
d="M164 0v1516h418q107 0 191 -25.5t141.5 -77t87.5 -129.5t30 -184q0 -95 -24.5 -165.5t-66 -120t-95.5 -79.5t-113 -45l314 -690h-142l-307 670h-297v-670h-137zM301 791h272q80 0 140 16t100.5 52.5t61 95t20.5 143.5q0 78 -20 133t-60.5 89.5t-101.5 50t-142 15.5h-270
v-595zM469 1612l166 315h168l-246 -315h-88z" />
    <glyph glyph-name="racute" unicode="&#x155;" horiz-adv-x="694" 
d="M139 0v1077h133v-192h4q25 43 59 82.5t78 68.5t97.5 46.5t118.5 17.5h22l-12 -125h-35q-54 0 -103.5 -17.5t-92 -49.5t-77 -77t-59.5 -100v-731h-133zM311 1194l166 315h168l-246 -315h-88z" />
    <glyph glyph-name="Rcommaaccent" unicode="&#x156;" 
d="M164 0v1516h418q107 0 191 -25.5t141.5 -77t87.5 -129.5t30 -184q0 -95 -24.5 -165.5t-66 -120t-95.5 -79.5t-113 -45l314 -690h-142l-307 670h-297v-670h-137zM301 791h272q80 0 140 16t100.5 52.5t61 95t20.5 143.5q0 78 -20 133t-60.5 89.5t-101.5 50t-142 15.5h-270
v-595zM520 -100h152v-162l-76 -203h-59l45 189h-62v176z" />
    <glyph glyph-name="rcommaaccent" unicode="&#x157;" horiz-adv-x="694" 
d="M133 -100h152v-162l-76 -203h-59l45 189h-62v176zM139 0v1077h133v-192h4q25 43 59 82.5t78 68.5t97.5 46.5t118.5 17.5h22l-12 -125h-35q-54 0 -103.5 -17.5t-92 -49.5t-77 -77t-59.5 -100v-731h-133z" />
    <glyph glyph-name="Rcaron" unicode="&#x158;" 
d="M164 0v1516h418q107 0 191 -25.5t141.5 -77t87.5 -129.5t30 -184q0 -95 -24.5 -165.5t-66 -120t-95.5 -79.5t-113 -45l314 -690h-142l-307 670h-297v-670h-137zM301 791h272q80 0 140 16t100.5 52.5t61 95t20.5 143.5q0 78 -20 133t-60.5 89.5t-101.5 50t-142 15.5h-270
v-595zM301 1923h88l189 -194l186 194h84l-225 -324h-97z" />
    <glyph glyph-name="rcaron" unicode="&#x159;" horiz-adv-x="694" 
d="M111 1516h88l188 -195l186 195h84l-225 -324h-96zM139 0v1077h133v-192h4q25 43 59 82.5t78 68.5t97.5 46.5t118.5 17.5h22l-12 -125h-35q-54 0 -103.5 -17.5t-92 -49.5t-77 -77t-59.5 -100v-731h-133z" />
    <glyph glyph-name="Sacute" unicode="&#x15a;" horiz-adv-x="1100" 
d="M72 330l121 55q27 -64 62 -116.5t80 -90t100.5 -58t123.5 -20.5q71 0 127.5 19t96 54t60.5 84t21 108q0 71 -27 123t-71.5 92.5t-102.5 72t-120 62.5q-72 35 -144 73.5t-129.5 91t-93 125t-35.5 175.5q0 80 30 147t83 115t125.5 75t157.5 27q88 0 157.5 -25.5t123 -69
t92.5 -100.5t65 -120l-121 -55q-20 47 -48.5 91.5t-67.5 78.5t-89 54.5t-114 20.5q-57 0 -104 -17.5t-81 -49t-52.5 -75t-18.5 -95.5q0 -71 26.5 -123t70.5 -92.5t101 -72.5t119 -63q73 -35 145.5 -74t130 -91.5t93.5 -124.5t36 -174q0 -83 -31.5 -154.5t-89 -124
t-139.5 -83t-182 -30.5q-91 0 -165.5 24.5t-135 70.5t-106.5 112t-80 148zM393 1612l166 315h168l-246 -315h-88z" />
    <glyph glyph-name="sacute" unicode="&#x15b;" horiz-adv-x="877" 
d="M49 205l98 63q53 -86 127 -131t164 -45q113 0 172.5 48t59.5 128q0 53 -24.5 89.5t-64 63.5t-90.5 47t-104 41t-104 46t-90.5 60.5t-64 85t-24.5 120.5q0 60 23.5 111t66.5 88.5t103 58.5t133 21q123 0 208 -54t138 -145l-98 -65q-40 69 -100 110t-148 41
q-50 0 -86.5 -12.5t-60.5 -34.5t-35.5 -51t-11.5 -62q0 -53 24 -89.5t63.5 -62.5t90 -45.5t103 -40t103 -45.5t90 -61t63.5 -87t24 -124q0 -67 -28 -121t-76.5 -92t-114.5 -58.5t-142 -20.5q-136 0 -230.5 59t-156.5 166zM297 1194l166 315h168l-246 -315h-88z" />
    <glyph glyph-name="Scircumflex" unicode="&#x15c;" horiz-adv-x="1100" 
d="M260 1602l225 323h97l225 -323h-86l-189 190l-186 -190h-86zM72 330l121 55q27 -64 62 -116.5t80 -90t100.5 -58t123.5 -20.5q71 0 127.5 19t96 54t60.5 84t21 108q0 71 -27 123t-71.5 92.5t-102.5 72t-120 62.5q-72 35 -144 73.5t-129.5 91t-93 125t-35.5 175.5
q0 80 30 147t83 115t125.5 75t157.5 27q88 0 157.5 -25.5t123 -69t92.5 -100.5t65 -120l-121 -55q-20 47 -48.5 91.5t-67.5 78.5t-89 54.5t-114 20.5q-57 0 -104 -17.5t-81 -49t-52.5 -75t-18.5 -95.5q0 -71 26.5 -123t70.5 -92.5t101 -72.5t119 -63q73 -35 145.5 -74
t130 -91.5t93.5 -124.5t36 -174q0 -83 -31.5 -154.5t-89 -124t-139.5 -83t-182 -30.5q-91 0 -165.5 24.5t-135 70.5t-106.5 112t-80 148z" />
    <glyph glyph-name="scircumflex" unicode="&#x15d;" horiz-adv-x="877" 
d="M159 1186l225 323h97l225 -323h-86l-189 190l-186 -190h-86zM49 205l98 63q53 -86 127 -131t164 -45q113 0 172.5 48t59.5 128q0 53 -24.5 89.5t-64 63.5t-90.5 47t-104 41t-104 46t-90.5 60.5t-64 85t-24.5 120.5q0 60 23.5 111t66.5 88.5t103 58.5t133 21
q123 0 208 -54t138 -145l-98 -65q-40 69 -100 110t-148 41q-50 0 -86.5 -12.5t-60.5 -34.5t-35.5 -51t-11.5 -62q0 -53 24 -89.5t63.5 -62.5t90 -45.5t103 -40t103 -45.5t90 -61t63.5 -87t24 -124q0 -67 -28 -121t-76.5 -92t-114.5 -58.5t-142 -20.5q-136 0 -230.5 59
t-156.5 166z" />
    <glyph glyph-name="Scedilla" unicode="&#x15e;" horiz-adv-x="1100" 
d="M72 330l121 55q27 -64 62 -116.5t80 -90t100.5 -58t123.5 -20.5q71 0 127.5 19t96 54t60.5 84t21 108q0 71 -27 123t-71.5 92.5t-102.5 72t-120 62.5q-72 35 -144 73.5t-129.5 91t-93 125t-35.5 175.5q0 80 30 147t83 115t125.5 75t157.5 27q88 0 157.5 -25.5t123 -69
t92.5 -100.5t65 -120l-121 -55q-20 47 -48.5 91.5t-67.5 78.5t-89 54.5t-114 20.5q-57 0 -104 -17.5t-81 -49t-52.5 -75t-18.5 -95.5q0 -71 26.5 -123t70.5 -92.5t101 -72.5t119 -63q73 -35 145.5 -74t130 -91.5t93.5 -124.5t36 -174q0 -83 -31.5 -154.5t-89 -124
t-139.5 -83t-182 -30.5q-91 0 -165.5 24.5t-135 70.5t-106.5 112t-80 148zM485 -100h152v-162l-76 -203h-59l45 189h-62v176z" />
    <glyph glyph-name="scedilla" unicode="&#x15f;" horiz-adv-x="877" 
d="M49 205l98 63q53 -86 127 -131t164 -45q113 0 172.5 48t59.5 128q0 53 -24.5 89.5t-64 63.5t-90.5 47t-104 41t-104 46t-90.5 60.5t-64 85t-24.5 120.5q0 60 23.5 111t66.5 88.5t103 58.5t133 21q123 0 208 -54t138 -145l-98 -65q-40 69 -100 110t-148 41
q-50 0 -86.5 -12.5t-60.5 -34.5t-35.5 -51t-11.5 -62q0 -53 24 -89.5t63.5 -62.5t90 -45.5t103 -40t103 -45.5t90 -61t63.5 -87t24 -124q0 -67 -28 -121t-76.5 -92t-114.5 -58.5t-142 -20.5q-136 0 -230.5 59t-156.5 166zM365 -100h151v-162l-76 -203h-59l45 189h-61v176z
" />
    <glyph glyph-name="Scaron" unicode="&#x160;" horiz-adv-x="1100" 
d="M72 330l121 55q27 -64 62 -116.5t80 -90t100.5 -58t123.5 -20.5q71 0 127.5 19t96 54t60.5 84t21 108q0 71 -27 123t-71.5 92.5t-102.5 72t-120 62.5q-72 35 -144 73.5t-129.5 91t-93 125t-35.5 175.5q0 80 30 147t83 115t125.5 75t157.5 27q88 0 157.5 -25.5t123 -69
t92.5 -100.5t65 -120l-121 -55q-20 47 -48.5 91.5t-67.5 78.5t-89 54.5t-114 20.5q-57 0 -104 -17.5t-81 -49t-52.5 -75t-18.5 -95.5q0 -71 26.5 -123t70.5 -92.5t101 -72.5t119 -63q73 -35 145.5 -74t130 -91.5t93.5 -124.5t36 -174q0 -83 -31.5 -154.5t-89 -124
t-139.5 -83t-182 -30.5q-91 0 -165.5 24.5t-135 70.5t-106.5 112t-80 148zM276 1933h89l188 -194l186 194h84l-225 -323h-96z" />
    <glyph glyph-name="scaron" unicode="&#x161;" horiz-adv-x="877" 
d="M49 205l98 63q53 -86 127 -131t164 -45q113 0 172.5 48t59.5 128q0 53 -24.5 89.5t-64 63.5t-90.5 47t-104 41t-104 46t-90.5 60.5t-64 85t-24.5 120.5q0 60 23.5 111t66.5 88.5t103 58.5t133 21q123 0 208 -54t138 -145l-98 -65q-40 69 -100 110t-148 41
q-50 0 -86.5 -12.5t-60.5 -34.5t-35.5 -51t-11.5 -62q0 -53 24 -89.5t63.5 -62.5t90 -45.5t103 -40t103 -45.5t90 -61t63.5 -87t24 -124q0 -67 -28 -121t-76.5 -92t-114.5 -58.5t-142 -20.5q-136 0 -230.5 59t-156.5 166zM166 1516h88l188 -195l187 195h84l-226 -324h-96z
" />
    <glyph glyph-name="uni021A" unicode="&#x162;" horiz-adv-x="1055" 
d="M455 -100h143v-156l-73 -199h-56l43 185h-57v170zM59 1386v130h934v-130h-397v-1386h-139v1386h-398z" />
    <glyph glyph-name="uni021A" unicode="&#x21a;" horiz-adv-x="1055" 
d="M455 -100h143v-156l-73 -199h-56l43 185h-57v170zM59 1386v130h934v-130h-397v-1386h-139v1386h-398z" />
    <glyph glyph-name="uni021B" unicode="&#x163;" horiz-adv-x="647" 
d="M203 -100h143v-156l-73 -199h-56l43 185h-57v170zM41 965v112h160v389h133v-389h239v-112h-239v-703q0 -41 6 -72t22.5 -51.5t44.5 -30.5t72 -10q26 0 51.5 4t42.5 11v-113q-20 -6 -52 -10t-64 -4q-68 0 -116.5 13.5t-79.5 43t-45.5 77t-14.5 116.5v729h-160z" />
    <glyph glyph-name="uni021B" unicode="&#x21b;" horiz-adv-x="647" 
d="M203 -100h143v-156l-73 -199h-56l43 185h-57v170zM41 965v112h160v389h133v-389h239v-112h-239v-703q0 -41 6 -72t22.5 -51.5t44.5 -30.5t72 -10q26 0 51.5 4t42.5 11v-113q-20 -6 -52 -10t-64 -4q-68 0 -116.5 13.5t-79.5 43t-45.5 77t-14.5 116.5v729h-160z" />
    <glyph glyph-name="Tcaron" unicode="&#x164;" horiz-adv-x="1055" 
d="M59 1386v130h934v-130h-397v-1386h-139v1386h-398zM252 1933h88l188 -194l187 194h84l-226 -323h-96z" />
    <glyph glyph-name="tcaron" unicode="&#x165;" horiz-adv-x="709" 
d="M41 965v112h160v389h133v-389h239v-112h-239v-703q0 -41 6 -72t22.5 -51.5t44.5 -30.5t72 -10q26 0 51.5 4t42.5 11v-113q-20 -6 -52 -10t-64 -4q-68 0 -116.5 13.5t-79.5 43t-45.5 77t-14.5 116.5v729h-160zM592 1325v191h162v-177l-86 -221h-64l51 207h-63z" />
    <glyph glyph-name="Tbar" unicode="&#x166;" horiz-adv-x="1055" 
d="M59 696v125h398v572h-398v123h934v-123h-397v-572h397v-125h-397v-696h-139v696h-398z" />
    <glyph glyph-name="tbar" unicode="&#x167;" horiz-adv-x="647" 
d="M41 508v115h160v342h-160v112h160v389h133v-389h239v-112h-239v-342h239v-115h-239v-246q0 -41 6 -72t22.5 -51.5t44.5 -30.5t72 -10q26 0 51.5 4t42.5 11v-113q-20 -6 -52 -10t-64 -4q-68 0 -116.5 13.5t-79.5 43t-45.5 77t-14.5 116.5v272h-160z" />
    <glyph glyph-name="Utilde" unicode="&#x168;" horiz-adv-x="1229" 
d="M154 492v1024h139v-1002q0 -98 16.5 -175.5t54.5 -131.5t99 -82.5t151 -28.5t152 28.5t101 82.5t56 130.5t17 172.5v1006h133v-1020q0 -112 -26.5 -208t-82.5 -166.5t-142.5 -110.5t-207.5 -40q-123 0 -210.5 38t-143 107t-81 164.5t-25.5 211.5zM326 1606q0 115 40 169
t117 54q40 0 76.5 -18t69.5 -39.5t63 -39.5t58 -18q35 0 52 24.5t17 86.5h86q0 -115 -39 -169t-116 -54q-39 0 -75.5 18t-70 39t-63.5 39t-56 18q-37 0 -53 -24t-16 -86h-90z" />
    <glyph glyph-name="utilde" unicode="&#x169;" horiz-adv-x="1014" 
d="M129 276v801h133v-778q0 -103 39 -154t133 -51q42 0 81.5 12.5t78 35t75.5 53.5t74 69v813h134v-1077h-134v154q-33 -35 -71.5 -67t-82 -56.5t-92 -39t-100.5 -14.5q-134 0 -201 75.5t-67 223.5zM217 1190q0 115 40 169t117 54q40 0 76.5 -18t69.5 -39.5t63 -39.5t58 -18
q35 0 52 24.5t17 86.5h86q0 -115 -39 -169t-116 -54q-39 0 -75.5 18t-70 39t-63.5 39t-56 18q-37 0 -53 -24t-16 -86h-90z" />
    <glyph glyph-name="Umacron" unicode="&#x16a;" horiz-adv-x="1229" 
d="M154 492v1024h139v-1002q0 -98 16.5 -175.5t54.5 -131.5t99 -82.5t151 -28.5t152 28.5t101 82.5t56 130.5t17 172.5v1006h133v-1020q0 -112 -26.5 -208t-82.5 -166.5t-142.5 -110.5t-207.5 -40q-123 0 -210.5 38t-143 107t-81 164.5t-25.5 211.5zM365 1636v117h501v-117
h-501z" />
    <glyph glyph-name="umacron" unicode="&#x16b;" horiz-adv-x="1014" 
d="M129 276v801h133v-778q0 -103 39 -154t133 -51q42 0 81.5 12.5t78 35t75.5 53.5t74 69v813h134v-1077h-134v154q-33 -35 -71.5 -67t-82 -56.5t-92 -39t-100.5 -14.5q-134 0 -201 75.5t-67 223.5zM256 1219v116h502v-116h-502z" />
    <glyph glyph-name="Ubreve" unicode="&#x16c;" horiz-adv-x="1229" 
d="M154 492v1024h139v-1002q0 -98 16.5 -175.5t54.5 -131.5t99 -82.5t151 -28.5t152 28.5t101 82.5t56 130.5t17 172.5v1006h133v-1020q0 -112 -26.5 -208t-82.5 -166.5t-142.5 -110.5t-207.5 -40q-123 0 -210.5 38t-143 107t-81 164.5t-25.5 211.5zM352 1936h90
q13 -117 55 -170.5t117 -53.5q77 0 119 53.5t53 170.5h91q-3 -77 -21.5 -138.5t-51.5 -104.5t-81 -66t-109 -23t-108 23t-80 66t-51.5 104.5t-22.5 138.5z" />
    <glyph glyph-name="ubreve" unicode="&#x16d;" horiz-adv-x="1014" 
d="M129 276v801h133v-778q0 -103 39 -154t133 -51q42 0 81.5 12.5t78 35t75.5 53.5t74 69v813h134v-1077h-134v154q-33 -35 -71.5 -67t-82 -56.5t-92 -39t-100.5 -14.5q-134 0 -201 75.5t-67 223.5zM241 1518h90q13 -117 55 -170.5t117 -53.5q77 0 119 53.5t53 170.5h91
q-3 -77 -21.5 -138.5t-51.5 -104.5t-81 -66t-109 -23t-108 23t-80 66t-51.5 104.5t-22.5 138.5z" />
    <glyph glyph-name="Uring" unicode="&#x16e;" horiz-adv-x="1229" 
d="M154 492v1024h139v-1002q0 -98 16.5 -175.5t54.5 -131.5t99 -82.5t151 -28.5t152 28.5t101 82.5t56 130.5t17 172.5v1006h133v-1020q0 -112 -26.5 -208t-82.5 -166.5t-142.5 -110.5t-207.5 -40q-123 0 -210.5 38t-143 107t-81 164.5t-25.5 211.5zM449 1776
q0 40 11.5 74.5t33.5 60t52 39.5t68 14t69 -14t53 -39.5t34 -60t12 -74.5q0 -41 -12 -76t-33.5 -60.5t-52.5 -40t-70 -14.5q-38 0 -68 14.5t-52 40t-33.5 60.5t-11.5 76zM526 1776q0 -50 23 -84.5t65 -34.5q44 0 67.5 34.5t23.5 84.5q0 48 -23.5 81t-67.5 33q-21 0 -37 -9
t-27.5 -24.5t-17.5 -36t-6 -44.5z" />
    <glyph glyph-name="uring" unicode="&#x16f;" horiz-adv-x="1014" 
d="M129 276v801h133v-778q0 -103 39 -154t133 -51q42 0 81.5 12.5t78 35t75.5 53.5t74 69v813h134v-1077h-134v154q-33 -35 -71.5 -67t-82 -56.5t-92 -39t-100.5 -14.5q-134 0 -201 75.5t-67 223.5zM336 1366q0 41 11.5 75.5t33.5 59.5t52.5 39t68.5 14q37 0 68 -14
t53.5 -39t34.5 -59.5t12 -75.5t-12 -75.5t-34 -60t-53 -40t-69 -14.5t-68.5 14.5t-52.5 40t-33.5 60t-11.5 75.5zM414 1366q0 -50 23 -84.5t65 -34.5q43 0 66.5 34.5t23.5 84.5q0 48 -23.5 81.5t-66.5 33.5q-42 0 -65 -33.5t-23 -81.5z" />
    <glyph glyph-name="Uhungarumlaut" unicode="&#x170;" horiz-adv-x="1229" 
d="M154 492v1024h139v-1002q0 -98 16.5 -175.5t54.5 -131.5t99 -82.5t151 -28.5t152 28.5t101 82.5t56 130.5t17 172.5v1006h133v-1020q0 -112 -26.5 -208t-82.5 -166.5t-142.5 -110.5t-207.5 -40q-123 0 -210.5 38t-143 107t-81 164.5t-25.5 211.5zM375 1604l162 315h174
l-244 -315h-92zM657 1604l168 315h172l-247 -315h-93z" />
    <glyph glyph-name="uhungarumlaut" unicode="&#x171;" horiz-adv-x="1014" 
d="M129 276v801h133v-778q0 -103 39 -154t133 -51q42 0 81.5 12.5t78 35t75.5 53.5t74 69v813h134v-1077h-134v154q-33 -35 -71.5 -67t-82 -56.5t-92 -39t-100.5 -14.5q-134 0 -201 75.5t-67 223.5zM258 1194l162 315h174l-244 -315h-92zM541 1194l168 315h172l-248 -315
h-92z" />
    <glyph glyph-name="Uogonek" unicode="&#x172;" horiz-adv-x="1229" 
d="M154 492v1024h139v-1002q0 -98 16.5 -175.5t54.5 -131.5t99 -82.5t151 -28.5t152 28.5t101 82.5t56 130.5t17 172.5v1006h133v-1020q0 -78 -12 -148t-37.5 -129t-65 -106.5t-94.5 -79.5q-21 -12 -37.5 -19.5t-31.5 -12.5t-31 -10t-35 -14q-25 -12 -47 -31.5t-38 -43.5
t-25 -51.5t-9 -55.5q0 -45 20.5 -71.5t71.5 -26.5q39 0 78 12t84 37l37 -59q-54 -37 -107 -54.5t-118 -17.5q-87 0 -130.5 42.5t-43.5 115.5q0 52 30 104t76 94q-121 1 -207 39.5t-141 107t-80.5 163.5t-25.5 211z" />
    <glyph glyph-name="uogonek" unicode="&#x173;" horiz-adv-x="1014" 
d="M129 276v801h133v-778q0 -103 39 -154t133 -51q42 0 81.5 12.5t78 35t75.5 53.5t74 69v813h134v-1077q-41 -15 -72 -38t-52 -50t-31.5 -57t-10.5 -60q0 -45 20.5 -71.5t71.5 -26.5q38 0 77.5 12t84.5 37l36 -59q-54 -37 -107.5 -54.5t-119.5 -17.5q-85 0 -128.5 42.5
t-43.5 115.5q0 31 11 62t30.5 60t45 56t54.5 49v154q-33 -35 -71.5 -67t-82 -56.5t-92 -39t-100.5 -14.5q-134 0 -201 75.5t-67 223.5z" />
    <glyph glyph-name="Wcircumflex" unicode="&#x174;" horiz-adv-x="1577" 
d="M516 1585l225 323h97l225 -323h-86l-189 190l-186 -190h-86zM70 1516h131l174 -818q14 -63 25.5 -116.5t22.5 -106t22 -109t24 -126.5h4q12 70 23 126.5t22 109t22.5 106t24.5 116.5l164 818h127l170 -840q12 -60 23.5 -113t22 -104.5t20.5 -105t20 -113.5h4
q11 57 21.5 110.5t21.5 106t22.5 107t24.5 114.5l176 838h125l-338 -1522h-116l-262 1270h-5l-262 -1270h-116z" />
    <glyph glyph-name="wcircumflex" unicode="&#x175;" horiz-adv-x="1292" 
d="M375 1186l225 323h97l225 -323h-86l-189 190l-186 -190h-86zM47 1077h129l146 -579q10 -40 18 -74.5t16.5 -69t16.5 -72t18 -83.5h4q9 45 17 82.5t16 72.5t16.5 71.5t18.5 78.5l129 573h119l131 -569q19 -83 36.5 -155t32.5 -154h4q8 42 16.5 79.5t17.5 74.5t18.5 75.5
t19.5 81.5l139 567h119l-278 -1083h-117l-201 862h-4l-203 -862h-114z" />
    <glyph glyph-name="Ycircumflex" unicode="&#x176;" horiz-adv-x="1055" 
d="M39 1516h143l346 -754h4l347 754h135l-416 -879v-637h-141v633zM256 1602l225 323h97l225 -323h-86l-189 190l-186 -190h-86z" />
    <glyph glyph-name="ycircumflex" unicode="&#x177;" horiz-adv-x="920" 
d="M18 -389l27 108q20 -6 54 -10t71 -4t64 10.5t47.5 33t36 56.5t30.5 82l35 103l-336 1087h135l176 -594q13 -45 25 -85.5t23 -79.5t21.5 -78t21.5 -82h4q12 44 23.5 85t23 81.5t23.5 82.5t26 89l172 581h127l-371 -1200q-24 -75 -50 -129.5t-61.5 -90t-84 -52.5
t-115.5 -17q-43 0 -84.5 7.5t-63.5 15.5zM178 1186l225 323h97l225 -323h-86l-189 190l-186 -190h-86z" />
    <glyph glyph-name="Ydieresis" unicode="&#x178;" horiz-adv-x="1055" 
d="M39 1516h143l346 -754h4l347 754h135l-416 -879v-637h-141v633zM301 1610v164h145v-164h-145zM612 1610v164h144v-164h-144z" />
    <glyph glyph-name="Zacute" unicode="&#x179;" horiz-adv-x="1067" 
d="M74 0v106l741 1280h-692v130h854v-105l-741 -1284h741v-127h-903zM430 1612l166 315h168l-246 -315h-88z" />
    <glyph glyph-name="zacute" unicode="&#x17a;" horiz-adv-x="870" 
d="M72 0v90l542 875h-497v112h655v-88l-543 -876h566v-113h-723zM334 1194l166 315h168l-246 -315h-88z" />
    <glyph glyph-name="Zdotaccent" unicode="&#x17b;" horiz-adv-x="1067" 
d="M74 0v106l741 1280h-692v130h854v-105l-741 -1284h741v-127h-903zM453 1612v162h161v-162h-161z" />
    <glyph glyph-name="zdotaccent" unicode="&#x17c;" horiz-adv-x="870" 
d="M72 0v90l542 875h-497v112h655v-88l-543 -876h566v-113h-723zM354 1194v162h162v-162h-162z" />
    <glyph glyph-name="Zcaron" unicode="&#x17d;" horiz-adv-x="1067" 
d="M74 0v106l741 1280h-692v130h854v-105l-741 -1284h741v-127h-903zM260 1933h88l189 -194l186 194h84l-225 -323h-97z" />
    <glyph glyph-name="zcaron" unicode="&#x17e;" horiz-adv-x="870" 
d="M72 0v90l542 875h-497v112h655v-88l-543 -876h566v-113h-723zM162 1516h88l188 -195l187 195h84l-226 -324h-96z" />
    <glyph glyph-name="longs" unicode="&#x17f;" horiz-adv-x="586" 
d="M205 0v1257q0 135 73 198t207 63q5 0 15.5 -0.5t21.5 -0.5t19.5 -0.5t9.5 -0.5v-117q-1 0 -9.5 0.5t-19 0.5t-20 0.5t-10.5 0.5q-34 0 -62.5 -7.5t-48.5 -24.5t-31.5 -44.5t-11.5 -67.5v-1257h-133z" />
    <glyph glyph-name="florin" unicode="&#x192;" horiz-adv-x="680" 
d="M-145 -408l20 115q28 -6 59 -6q32 0 61 8.5t52 26.5t38.5 47t20.5 70l125 895h-165l18 114h162l55 395q10 75 37 125t67.5 81t92 44t110.5 13q20 0 41 -1t35 -3l-18 -119q-16 2 -31 4t-31 2q-71 0 -115 -31.5t-57 -114.5l-53 -395h201l-17 -114h-201l-124 -908
q-10 -70 -35 -118.5t-63 -78.5t-88.5 -43.5t-110.5 -13.5q-22 0 -45 1.5t-41 4.5z" />
    <glyph glyph-name="Aringacute" unicode="&#x1fa;" horiz-adv-x="1139" 
d="M510 1882l166 315h168l-246 -315h-88zM61 0l431 1477q-42 21 -66.5 65t-24.5 103q0 40 12 74.5t33.5 60t52 39.5t68.5 14t69 -14t53 -39.5t34 -60t12 -74.5q0 -59 -23 -103t-65 -65l430 -1477h-139l-133 469h-479l-133 -469h-132zM358 592h412l-70 250q-40 136 -72 251
t-61 226h-4l-30 -112q-15 -56 -31 -114t-33.5 -120t-36.5 -129zM479 1645q0 -50 23 -83.5t65 -33.5q44 0 67 33.5t23 83.5q0 49 -23 81.5t-67 32.5q-42 0 -65 -32.5t-23 -81.5z" />
    <glyph glyph-name="aringacute" unicode="&#x1fb;" horiz-adv-x="952" 
d="M82 252q0 78 33.5 147t106 127t187.5 104.5t279 80.5v73q0 199 -172 199q-51 0 -96.5 -12.5t-86 -34t-76.5 -50t-67 -59.5l-79 80q83 88 185 140.5t230 52.5q152 0 222.5 -82.5t70.5 -233.5v-518q0 -99 6.5 -161.5t20.5 -104.5h-135q-10 32 -16.5 63.5t-6.5 77.5
q-71 -74 -158 -114.5t-192 -40.5q-123 0 -189.5 71.5t-66.5 194.5zM213 266q0 -88 42 -129t120 -41q90 0 170.5 43.5t142.5 112.5v356q-137 -29 -228.5 -67t-146.5 -82t-77.5 -93t-22.5 -100zM371 1624l166 315h168l-246 -315h-88zM308 1366q0 41 11.5 75.5t33.5 59.5t52 39
t68 14t69 -14t53 -39t34 -59.5t12 -75.5t-12 -75.5t-33.5 -60t-52.5 -40t-70 -14.5q-38 0 -68 14.5t-52 40t-33.5 60t-11.5 75.5zM385 1366q0 -50 23 -84.5t65 -34.5q44 0 67.5 34.5t23.5 84.5q0 48 -23.5 81.5t-67.5 33.5q-42 0 -65 -33.5t-23 -81.5z" />
    <glyph glyph-name="AEacute" unicode="&#x1fc;" horiz-adv-x="1686" 
d="M723 1610l166 315h168l-246 -315h-88zM49 0l699 1516h819v-130h-611v-520h449v-127h-449v-612h648v-127h-787v489h-409l-224 -489h-135zM461 608h356v774z" />
    <glyph glyph-name="aeacute" unicode="&#x1fd;" horiz-adv-x="1546" 
d="M684 1194l166 315h168l-246 -315h-88zM82 248q0 78 33.5 147.5t106 128.5t187.5 106t279 81v73q0 199 -172 199q-51 0 -96.5 -12.5t-86 -34t-76.5 -50t-67 -59.5l-79 80q82 88 185 140.5t232 52.5q114 0 175.5 -49t82.5 -138q28 47 63.5 82t74.5 58.5t80.5 35t82.5 11.5
q89 0 159 -36.5t118 -106t73 -172t25 -234.5v-31h-647q2 -104 22.5 -183.5t56 -134t86 -82.5t112.5 -28q49 0 87 14.5t68.5 41.5t55 66t47.5 87l100 -55q-56 -125 -147 -197t-220 -72q-108 0 -193 55t-136 165q-29 -36 -71 -74.5t-95 -70t-116 -52t-134 -20.5
q-62 0 -109.5 19t-80 53.5t-49.5 84t-17 111.5zM213 262q0 -88 42 -129t120 -41q85 0 172 47t174 144q-16 54 -24.5 118t-8.5 140q0 17 1 34.5t3 32.5q-140 -30 -232.5 -69t-147 -83.5t-77 -93.5t-22.5 -100zM817 629h514q-4 77 -20.5 142t-46.5 112.5t-74.5 74.5t-104.5 27
q-48 0 -93 -21t-81.5 -65t-61 -111t-32.5 -159z" />
    <glyph glyph-name="Oslashacute" unicode="&#x1fe;" horiz-adv-x="1272" 
d="M100 758q0 188 39.5 334.5t111 247t170 152.5t216.5 52q81 0 155 -25.5t134 -76.5l86 164l92 -50l-100 -194q78 -99 122.5 -250.5t44.5 -353.5q0 -188 -39.5 -334.5t-110 -247t-169 -153t-215.5 -52.5q-169 0 -293 103l-84 -160l-92 49l98 191q-78 100 -122 251.5
t-44 352.5zM240 758q0 -152 26 -271t76 -204l522 1038q-93 96 -227 96q-91 0 -164.5 -44t-125 -128.5t-79.5 -207t-28 -279.5zM403 197q98 -101 234 -101q90 0 163 44.5t124.5 129.5t79.5 208t28 280q0 153 -26.5 272t-77.5 203zM578 1610l166 315h168l-246 -315h-88z" />
    <glyph glyph-name="oslashacute" unicode="&#x1ff;" horiz-adv-x="1001" 
d="M84 -33l109 172q-51 71 -79 171.5t-28 228.5q0 136 31 241t86.5 176t132 107.5t166.5 36.5q69 0 129.5 -21.5t109.5 -64.5l93 147l81 -51l-106 -170q51 -71 78.5 -171t27.5 -230q0 -135 -31 -240t-86.5 -176.5t-131 -108.5t-164.5 -37q-69 0 -130 22t-112 64l-94 -147z
M219 541q0 -81 13 -154t40 -133l404 651q-32 38 -75.5 59t-98.5 21q-70 0 -123 -33t-88.5 -92t-53.5 -140.5t-18 -178.5zM324 174q32 -40 76.5 -61t101.5 -21q69 0 121.5 33t87.5 92t53 142t18 182q0 80 -12.5 151.5t-40.5 130.5zM442 1194l166 315h168l-246 -315h-88z" />
    <glyph glyph-name="Scommaaccent" unicode="&#x218;" horiz-adv-x="1100" 
d="M485 -100h143v-156l-73 -199h-56l43 185h-57v170zM72 330l121 55q27 -64 62 -116.5t80 -90t100.5 -58t123.5 -20.5q71 0 127.5 19t96 54t60.5 84t21 108q0 71 -27 123t-71.5 92.5t-102.5 72t-120 62.5q-72 35 -144 73.5t-129.5 91t-93 125t-35.5 175.5q0 80 30 147
t83 115t125.5 75t157.5 27q88 0 157.5 -25.5t123 -69t92.5 -100.5t65 -120l-121 -55q-20 47 -48.5 91.5t-67.5 78.5t-89 54.5t-114 20.5q-57 0 -104 -17.5t-81 -49t-52.5 -75t-18.5 -95.5q0 -71 26.5 -123t70.5 -92.5t101 -72.5t119 -63q73 -35 145.5 -74t130 -91.5
t93.5 -124.5t36 -174q0 -83 -31.5 -154.5t-89 -124t-139.5 -83t-182 -30.5q-91 0 -165.5 24.5t-135 70.5t-106.5 112t-80 148z" />
    <glyph glyph-name="scommaaccent" unicode="&#x219;" horiz-adv-x="877" 
d="M365 -100h143v-156l-73 -199h-56l43 185h-57v170zM49 205l98 63q53 -86 127 -131t164 -45q113 0 172.5 48t59.5 128q0 53 -24.5 89.5t-64 63.5t-90.5 47t-104 41t-104 46t-90.5 60.5t-64 85t-24.5 120.5q0 60 23.5 111t66.5 88.5t103 58.5t133 21q123 0 208 -54t138 -145
l-98 -65q-40 69 -100 110t-148 41q-50 0 -86.5 -12.5t-60.5 -34.5t-35.5 -51t-11.5 -62q0 -53 24 -89.5t63.5 -62.5t90 -45.5t103 -40t103 -45.5t90 -61t63.5 -87t24 -124q0 -67 -28 -121t-76.5 -92t-114.5 -58.5t-142 -20.5q-136 0 -230.5 59t-156.5 166z" />
    <glyph glyph-name="uni0259" unicode="&#x259;" horiz-adv-x="950" 
d="M864.005 536.033q0 -142.991 -32.998 -247.985q-32.9971 -104.993 -88.9941 -173.989t-129.492 -102.993q-73.4951 -33.998 -154.49 -33.998q-88.9951 0 -158.49 36.4971q-69.4961 36.498 -117.493 105.994t-72.9951 171.989q-24.999 102.494 -24.999 234.485v30.998
h646.961q-2 103.994 -22.499 183.489t-55.9961 133.992q-35.498 54.4961 -85.9951 82.4951q-50.4971 27.998 -112.493 27.998q-48.9971 0 -86.9951 -14.499q-37.9971 -14.499 -68.4951 -41.498q-30.498 -26.998 -54.9971 -65.9961q-24.498 -38.9971 -47.4971 -86.9941
l-99.9941 54.9961q27.999 61.9971 64.9961 111.993q36.998 49.9971 82.9951 84.9951t100.994 53.4971q54.9961 18.499 117.992 18.499q85.9951 0 159.49 -35.998q73.4961 -35.998 126.993 -106.993q53.4961 -70.9961 83.9941 -176.489q30.498 -105.494 30.498 -244.485z
M729.014 448.038h-511.969q4 -76.9951 19.999 -141.991t45.9971 -112.493t73.9951 -74.4951t103.994 -26.998q47.9971 0 92.9941 20.998q44.9971 20.999 81.4951 64.9961q36.4971 43.9971 60.9961 110.993q24.498 66.9961 32.498 158.99z" />
    <glyph glyph-name="circumflex" unicode="&#x2c6;" horiz-adv-x="893" 
d="M172 1186l225 323h97l225 -323h-86l-189 190l-186 -190h-86z" />
    <glyph glyph-name="caron" unicode="&#x2c7;" horiz-adv-x="893" 
d="M172 1516h88l189 -195l186 195h84l-225 -324h-97z" />
    <glyph glyph-name="breve" unicode="&#x2d8;" horiz-adv-x="893" 
d="M184 1518h90q13 -117 55 -170.5t117 -53.5q77 0 119 53.5t53 170.5h91q-3 -77 -21.5 -138.5t-51.5 -104.5t-81 -66t-109 -23t-108 23t-80 66t-51.5 104.5t-22.5 138.5z" />
    <glyph glyph-name="dotaccent" unicode="&#x2d9;" horiz-adv-x="893" 
d="M365 1194v162h161v-162h-161z" />
    <glyph glyph-name="ring" unicode="&#x2da;" horiz-adv-x="893" 
d="M279 1366q0 41 11.5 75.5t33.5 59.5t52 39t68 14t69 -14t53 -39t34 -59.5t12 -75.5t-12 -75.5t-33.5 -60t-52.5 -40t-70 -14.5q-38 0 -68 14.5t-52 40t-33.5 60t-11.5 75.5zM356 1366q0 -50 23 -84.5t65 -34.5q44 0 67.5 34.5t23.5 84.5q0 48 -23.5 81.5t-67.5 33.5
q-42 0 -65 -33.5t-23 -81.5z" />
    <glyph glyph-name="ogonek" unicode="&#x2db;" horiz-adv-x="893" 
d="M266 -227q0 32 12.5 64.5t33.5 63t48.5 58t57.5 49.5h82q-60 -46 -92.5 -101.5t-32.5 -111.5q0 -45 20.5 -71.5t71.5 -26.5q38 0 77.5 12t86.5 37l35 -59q-54 -37 -107.5 -54.5t-118.5 -17.5q-86 0 -130 42.5t-44 115.5z" />
    <glyph glyph-name="tilde" unicode="&#x2dc;" horiz-adv-x="893" 
d="M156 1190q0 115 40 169t117 54q40 0 76.5 -18t69.5 -39.5t63 -39.5t58 -18q35 0 52 24.5t17 86.5h86q0 -115 -39 -169t-116 -54q-39 0 -75.5 18t-70 39t-63.5 39t-56 18q-37 0 -53 -24t-16 -86h-90z" />
    <glyph glyph-name="hungarumlaut" unicode="&#x2dd;" horiz-adv-x="893" 
d="M139 1194l162 315h174l-244 -315h-92zM422 1194l168 315h172l-248 -315h-92z" />
    <glyph glyph-name="uni0326" unicode="&#x326;" horiz-adv-x="399" 
d="M129 -100h143v-156l-73 -199h-56l43 185h-57v170z" />
    <glyph glyph-name="tonos" unicode="&#x384;" horiz-adv-x="893" 
d="M352 1192l115 336h158l-179 -336h-94z" />
    <glyph glyph-name="dieresistonos" unicode="&#x385;" horiz-adv-x="893" 
d="M143 1192v170h133v-170h-133zM346 1192l113 336h157l-180 -336h-90zM623 1192v170h133v-170h-133z" />
    <glyph glyph-name="Alphatonos" unicode="&#x386;" horiz-adv-x="1348" 
d="M268 0l445 1522h127l444 -1522h-139l-133 469h-479l-133 -469h-132zM567 592h410l-70 248q-40 136 -72 251t-61 226h-4l-30 -112q-15 -56 -31 -114t-33.5 -120t-36.5 -129zM138 1183l115 336h158l-179 -336h-94z" />
    <glyph glyph-name="Epsilontonos" unicode="&#x388;" horiz-adv-x="1491" 
d="M138 1183l115 336h158l-179 -336h-94zM623 0v1516h751v-130h-612v-520h451v-127h-451v-612h649v-127h-788z" />
    <glyph glyph-name="Etatonos" unicode="&#x389;" horiz-adv-x="1716" 
d="M138 1183l115 336h158l-179 -336h-94zM623 0v1516h139v-650h651v650h140v-1516h-140v737h-651v-737h-139z" />
    <glyph glyph-name="Iotatonos" unicode="&#x38a;" horiz-adv-x="950" 
d="M635 0v1516h139v-1516h-139zM138 1183l115 336h158l-179 -336h-94z" />
    <glyph glyph-name="Omicrontonos" unicode="&#x38c;" horiz-adv-x="1683" 
d="M138 1183l115 336h158l-179 -336h-94zM512 758q0 188 39.5 334.5t111 247t170 152.5t216.5 52q117 0 215.5 -52t169 -152.5t110 -247t39.5 -334.5t-39.5 -334.5t-110 -247t-169 -153t-215.5 -52.5q-118 0 -216.5 52.5t-170 153t-111 247t-39.5 334.5zM652 758
q0 -157 28 -279.5t79.5 -207t125 -129t164.5 -44.5q90 0 162.5 44.5t124 129t79 207t27.5 279.5t-27.5 279.5t-79 207t-124 128.5t-162.5 44q-91 0 -164.5 -44t-125 -128.5t-79.5 -207t-28 -279.5z" />
    <glyph glyph-name="Upsilontonos" unicode="&#x38e;" horiz-adv-x="1595" 
d="M580 1516h143l346 -754h4l347 754h135l-416 -879v-637h-141v633zM138 1183l115 336h158l-179 -336h-94z" />
    <glyph glyph-name="Omegatonos" unicode="&#x38f;" horiz-adv-x="1673" 
d="M512 811q0 156 36.5 290t104.5 232.5t165.5 154.5t219.5 56q123 0 219.5 -57t163.5 -156t102 -232.5t35 -287.5q0 -115 -24 -217.5t-63.5 -189t-92 -156.5t-109.5 -121h277v-127h-414v123q56 51 108 118.5t91.5 152t63.5 186.5t24 223q0 130 -25.5 242t-74 194.5
t-120 129t-163.5 46.5q-89 0 -160 -44t-121 -124.5t-77 -193t-27 -248.5q0 -122 23.5 -224.5t63.5 -187t92 -152t108 -118.5v-123h-412v127h276q-57 49 -109 119t-92.5 157t-64.5 190t-24 218zM138 1183l115 336h158l-179 -336h-94z" />
    <glyph glyph-name="iotadieresistonos" unicode="&#x390;" horiz-adv-x="432" 
d="M-80 1192v170h129v-170h-129zM119 1192l112 336h154l-180 -336h-86zM150 0v1077h133v-1077h-133zM391 1192v170h129v-170h-129z" />
    <glyph glyph-name="Alpha" unicode="&#x391;" horiz-adv-x="1139" 
d="M61 0l445 1522h127l444 -1522h-139l-133 469h-479l-133 -469h-132zM360 592h410l-70 248q-40 136 -72 251t-61 226h-4l-30 -112q-15 -56 -31 -114t-33.5 -120t-36.5 -129z" />
    <glyph glyph-name="Beta" unicode="&#x392;" horiz-adv-x="1178" 
d="M164 0v1516h424q224 0 337 -97t113 -284q0 -79 -20.5 -138.5t-54.5 -101.5t-78 -68t-92 -39v-4q59 -13 111 -40t91 -71.5t61.5 -109t22.5 -151.5q0 -96 -29 -172.5t-86.5 -129.5t-142.5 -81.5t-196 -28.5h-461zM301 123h326q167 0 242 76t75 221q0 82 -24.5 139
t-70.5 92.5t-112 51.5t-149 16h-287v-596zM301 840h279q154 0 238.5 65.5t84.5 208.5q0 72 -18 124t-57 85.5t-99.5 49.5t-144.5 16h-283v-549z" />
    <glyph glyph-name="Gamma" unicode="&#x393;" horiz-adv-x="971" 
d="M164 0v1516h743v-130h-604v-1386h-139z" />
    <glyph glyph-name="Delta" unicode="&#x394;" horiz-adv-x="1139" 
d="M61 0l445 1522h127l444 -1522h-1016zM225 117h682l-209 723q-38 136 -70 251t-61 226h-4l-30 -112q-15 -56 -31 -113.5t-33.5 -119t-36.5 -128.5z" />
    <glyph glyph-name="Epsilon" unicode="&#x395;" horiz-adv-x="1032" 
d="M164 0v1516h751v-130h-612v-520h451v-127h-451v-612h649v-127h-788z" />
    <glyph glyph-name="Zeta" unicode="&#x396;" horiz-adv-x="1067" 
d="M74 0v106l741 1280h-692v130h854v-105l-741 -1284h741v-127h-903z" />
    <glyph glyph-name="Eta" unicode="&#x397;" horiz-adv-x="1257" 
d="M164 0v1516h139v-650h651v650h140v-1516h-140v737h-651v-737h-139z" />
    <glyph glyph-name="Theta" unicode="&#x398;" horiz-adv-x="1272" 
d="M531.501 705v120h279.306v-120h-279.306zM100 758q0 188 39.5 334.5t111 247t170 152.5t216.5 52q117 0 215.5 -52t169 -152.5t110 -247t39.5 -334.5t-39.5 -334.5t-110 -247t-169 -153t-215.5 -52.5q-118 0 -216.5 52.5t-170 153t-111 247t-39.5 334.5zM240 758
q0 -157 28 -279.5t79.5 -207t125 -129t164.5 -44.5q90 0 162.5 44.5t124 129t79 207t27.5 279.5t-27.5 279.5t-79 207t-124 128.5t-162.5 44q-91 0 -164.5 -44t-125 -128.5t-79.5 -207t-28 -279.5z" />
    <glyph glyph-name="Iota" unicode="&#x399;" horiz-adv-x="492" 
d="M176 0v1516h139v-1516h-139z" />
    <glyph glyph-name="Kappa" unicode="&#x39a;" horiz-adv-x="1147" 
d="M164 0v1516h139v-826q9 15 26.5 41.5t40 59t47.5 68t50 69.5l420 588h147l-422 -584l494 -932h-148l-434 811l-221 -303v-508h-139z" />
    <glyph glyph-name="Lambda" unicode="&#x39b;" horiz-adv-x="1182" 
d="M1094 0.0927734h-137.992l-238.985 841.948q-37.9971 134.992 -68.9951 249.984q-30.998 114.993 -59.9971 224.986h-3.99902q-28.998 -111.993 -60.9961 -225.485q-31.998 -113.493 -69.9961 -245.485l-237.985 -845.948h-130.992l439.973 1521.91h128.992z" />
    <glyph glyph-name="Mu" unicode="&#x39c;" horiz-adv-x="1491" 
d="M164 0v1516h172l409 -1319h5l403 1319h174v-1516h-135v1280h-4q-8 -35 -20 -81t-27 -97t-31.5 -104.5t-32.5 -104.5l-280 -893h-113l-281 897q-15 48 -31 100.5t-30.5 103t-27 96.5t-21.5 83h-4v-1280h-125z" />
    <glyph glyph-name="Nu" unicode="&#x39d;" horiz-adv-x="1272" 
d="M164 0v1516h172l506 -984q20 -38 36 -70q16 -33 32 -64l32 -63q16 -32 35 -71h4v1252h127v-1516h-129l-535 1032q-22 43 -40 77.5t-34 67.5l-35 69q-18 36 -40 83h-4v-1329h-127z" />
    <glyph glyph-name="Xi" unicode="&#x39e;" horiz-adv-x="981" 
d="M84 0v127h338v612h-217v127h217v520h-324v130h785v-130h-324v-520h219v-127h-219v-612h338v-127h-813z" />
    <glyph glyph-name="Omicron" unicode="&#x39f;" horiz-adv-x="1272" 
d="M100 758q0 188 39.5 334.5t111 247t170 152.5t216.5 52q117 0 215.5 -52t169 -152.5t110 -247t39.5 -334.5t-39.5 -334.5t-110 -247t-169 -153t-215.5 -52.5q-118 0 -216.5 52.5t-170 153t-111 247t-39.5 334.5zM240 758q0 -157 28 -279.5t79.5 -207t125 -129
t164.5 -44.5q90 0 162.5 44.5t124 129t79 207t27.5 279.5t-27.5 279.5t-79 207t-124 128.5t-162.5 44q-91 0 -164.5 -44t-125 -128.5t-79.5 -207t-28 -279.5z" />
    <glyph glyph-name="Pi" unicode="&#x3a0;" horiz-adv-x="1249" 
d="M164 0v1516h921v-1516h-141v1386h-641v-1386h-139z" />
    <glyph glyph-name="Rho" unicode="&#x3a1;" horiz-adv-x="1124" 
d="M164 0v1516h416q103 0 186.5 -25t142.5 -76t91 -130t32 -187q0 -121 -35 -204t-97.5 -134.5t-148 -74.5t-186.5 -23h-262v-662h-139zM303 786h270q78 0 138.5 16.5t101 53.5t61.5 95.5t21 142.5q0 79 -20.5 134.5t-61.5 90.5t-101.5 51t-140.5 16h-268v-600z" />
    <glyph glyph-name="Sigma" unicode="&#x3a3;" horiz-adv-x="973" 
d="M74 0v106l393 682l-369 623v105h787v-130h-625l356 -598l-380 -661h663v-127h-825z" />
    <glyph glyph-name="Tau" unicode="&#x3a4;" horiz-adv-x="1055" 
d="M59 1386v130h934v-130h-397v-1386h-139v1386h-398z" />
    <glyph glyph-name="Upsilon" unicode="&#x3a5;" horiz-adv-x="1055" 
d="M39 1516h143l346 -754h4l347 754h135l-416 -879v-637h-141v633z" />
    <glyph glyph-name="Phi" unicode="&#x3a6;" horiz-adv-x="1333" 
d="M82 758q0 125 37.5 229t105.5 180t163 121.5t210 54.5v173h137v-173q114 -9 209 -54.5t163.5 -121.5t106 -180t37.5 -229q0 -123 -37.5 -223.5t-106 -173t-163.5 -116t-209 -52.5v-193h-137v193q-115 9 -210 52.5t-163 116.5t-105.5 173.5t-37.5 222.5zM221 758
q0 -98 26.5 -176.5t75.5 -134.5t118.5 -89t156.5 -41v904q-87 -10 -156.5 -46.5t-118.5 -95.5t-75.5 -140t-26.5 -181zM735 317q86 8 156 41t119 89t75.5 134.5t26.5 176.5q0 100 -26.5 181.5t-75.5 141t-119 95.5t-156 45v-904z" />
    <glyph glyph-name="Chi" unicode="&#x3a7;" horiz-adv-x="1114" 
d="M39 0l444 823l-372 693h149l305 -574l301 574h135l-370 -691l444 -825h-145l-379 711l-377 -711h-135z" />
    <glyph glyph-name="Psi" unicode="&#x3a8;" horiz-adv-x="1272" 
d="M113 918v598h139v-596q0 -103 23 -178.5t64 -125.5t99 -76t129 -30v1006h138v-1006q72 4 130 29t99.5 74.5t63.5 125t22 181.5v596h139v-598q0 -101 -18 -179.5t-49.5 -137t-75 -99.5t-94 -67t-106 -39t-111.5 -15v-381h-138v381q-84 4 -165 31t-145.5 89t-104 163.5
t-39.5 253.5z" />
    <glyph glyph-name="Omega" unicode="&#x3a9;" horiz-adv-x="1272" 
d="M113 811q0 156 36.5 290t104.5 232.5t165.5 154.5t219.5 56q123 0 219.5 -57t163.5 -156t102 -232.5t35 -287.5q0 -115 -24 -217.5t-63.5 -189t-92 -156.5t-109.5 -121h277v-127h-414v123q56 51 108 118.5t91.5 152t63.5 186.5t24 223q0 130 -25.5 242t-74 194.5
t-120 129t-163.5 46.5q-89 0 -160 -44t-121 -124.5t-77 -193t-27 -248.5q0 -122 23.5 -224.5t63.5 -187t92 -152t108 -118.5v-123h-412v127h276q-57 49 -109 119t-92.5 157t-64.5 190t-24 218z" />
    <glyph glyph-name="Iotadieresis" unicode="&#x3aa;" horiz-adv-x="492" 
d="M18 1610v164h146v-164h-146zM176 0v1516h139v-1516h-139zM330 1610v164h143v-164h-143z" />
    <glyph glyph-name="Upsilondieresis" unicode="&#x3ab;" horiz-adv-x="1055" 
d="M39 1516h143l346 -754h4l347 754h135l-416 -879v-637h-141v633zM301 1610v164h145v-164h-145zM612 1610v164h144v-164h-144z" />
    <glyph glyph-name="alphatonos" unicode="&#x3ac;" horiz-adv-x="1028" 
d="M88 539q0 146 28.5 252t79 174.5t118.5 101.5t147 33q47 0 87.5 -12t76.5 -33t68.5 -50.5t62.5 -64.5v137h133v-1077h-133v143q-26 -31 -56.5 -60t-67 -51.5t-79.5 -36t-94 -13.5q-79 0 -147 32t-117.5 99.5t-78 173t-28.5 252.5zM223 541q0 -116 19.5 -200t55 -138.5
t84 -80.5t105.5 -26q41 0 76.5 12t67.5 33.5t62.5 50.5t62.5 64v563q-65 76 -130 120t-143 44q-57 0 -104.5 -25.5t-82 -79.5t-54 -137.5t-19.5 -199.5zM440 1194l166 315h168l-246 -315h-88z" />
    <glyph glyph-name="epsilontonos" unicode="&#x3ad;" horiz-adv-x="889" 
d="M86 285q0 61 17.5 110.5t46.5 86t68 59.5t81 32q-82 19 -127 82.5t-45 151.5q0 65 23 119t67.5 92.5t110 60t149.5 21.5q85 0 168 -22t146 -72l-66 -101q-29 23 -59.5 38.5t-62 24.5t-62 13t-58.5 4q-58 0 -101 -14t-71 -39.5t-41.5 -60.5t-13.5 -76q0 -46 15 -78.5
t42 -53.5t64 -30.5t80 -9.5h176v-107h-209q-41 0 -78.5 -13t-66 -39t-45.5 -66t-17 -95q0 -46 11.5 -84.5t39 -66t72.5 -43t111 -15.5q83 0 156 27.5t145 83.5l61 -99q-77 -60 -167 -94.5t-200 -34.5q-98 0 -166 24t-111.5 65.5t-63 97.5t-19.5 121zM424 1194l166 315h168
l-246 -315h-88z" />
    <glyph glyph-name="etatonos" unicode="&#x3ae;" horiz-adv-x="1014" 
d="M469 1194l166 315h168l-246 -315h-88zM139 0v1077h133v-151q28 31 66.5 62t83 56t94.5 40.5t102 15.5q135 0 201 -75.5t66 -223.5v-1211h-133v1188q0 103 -38 154t-130 51q-42 0 -83.5 -14t-81.5 -37.5t-77.5 -54t-69.5 -62.5v-815h-133z" />
    <glyph glyph-name="iotatonos" unicode="&#x3af;" horiz-adv-x="432" 
d="M175 1194l166 315h168l-246 -315h-88zM150 0v1077h133v-1077h-133z" />
    <glyph glyph-name="upsilondieresistonos" unicode="&#x3b0;" horiz-adv-x="1004" 
d="M192 1192v170h133v-170h-133zM395 1192l113 336h157l-180 -336h-90zM672 1192v170h133v-170h-133zM129 455v622h133v-620q0 -89 13 -156t41.5 -113t74.5 -69t111 -23q124 0 181.5 88t57.5 273v620h133v-622q0 -111 -20 -199.5t-64.5 -150.5t-115.5 -95t-172 -33
q-107 0 -178.5 35t-115 98.5t-61.5 151.5t-18 193z" />
    <glyph glyph-name="alpha" unicode="&#x3b1;" horiz-adv-x="1028" 
d="M88 539q0 146 28.5 252t79 174.5t118.5 101.5t147 33q47 0 87.5 -12t76.5 -33t68.5 -50.5t62.5 -64.5v137h133v-1077h-133v143q-26 -31 -56.5 -60t-67 -51.5t-79.5 -36t-94 -13.5q-79 0 -147 32t-117.5 99.5t-78 173t-28.5 252.5zM223 541q0 -116 19.5 -200t55 -138.5
t84 -80.5t105.5 -26q41 0 76.5 12t67.5 33.5t62.5 50.5t62.5 64v563q-65 76 -130 120t-143 44q-57 0 -104.5 -25.5t-82 -79.5t-54 -137.5t-19.5 -199.5z" />
    <glyph glyph-name="beta" unicode="&#x3b2;" horiz-adv-x="1059" 
d="M135 -410v1500q0 101 25.5 180.5t74 134t118 83t157.5 28.5q84 0 150 -23t111.5 -67t70 -109t24.5 -150q0 -57 -15.5 -108.5t-44.5 -93t-70.5 -71t-94.5 -44.5q71 -12 133 -42t107.5 -82t71.5 -126t26 -174q0 -99 -22.5 -181.5t-66.5 -142t-109 -92.5t-150 -33
q-88 0 -149.5 23.5t-104.5 60.5l69 95q36 -31 78.5 -48.5t104.5 -17.5q47 0 86.5 19.5t68.5 60.5t45.5 103.5t16.5 148.5q0 96 -24.5 163.5t-73.5 111t-123 65t-172 26.5v109q73 1 127 21.5t88.5 55t51.5 82t17 103.5q0 116 -60 178t-169 62q-118 0 -178 -77.5t-60 -225.5
v-1506h-135z" />
    <glyph glyph-name="gamma" unicode="&#x3b3;" horiz-adv-x="891" 
d="M47 1077h133l187 -641l82 -291h4q11 45 21 83t19.5 72t18.5 67t20 69l187 641h125l-330 -1089v-398h-137v398z" />
    <glyph glyph-name="delta" unicode="&#x3b4;" horiz-adv-x="1001" 
d="M86 541q0 115 27 211t76.5 165t119 107.5t154.5 38.5q7 0 18.5 -1t24.5 -3t25.5 -5.5t21.5 -9.5q-35 38 -81.5 88t-95.5 102.5t-95 102.5t-80 88v91h628v-111h-444l322 -346q106 -113 157 -239t51 -277q0 -135 -30.5 -240.5t-85.5 -178t-131 -110t-166 -37.5
q-91 0 -167 37.5t-131.5 109.5t-86.5 177t-31 240zM221 541q0 -99 18 -182t53 -142t88 -92t122 -33q67 0 118.5 32t87 91t54 141.5t18.5 184.5q0 78 -12.5 139t-32.5 109t-44.5 84.5t-47.5 64.5q-10 5 -27 9.5t-36.5 8t-39.5 5.5t-38 2q-65 0 -117.5 -29.5t-89 -84t-56 -133
t-18.5 -175.5z" />
    <glyph glyph-name="epsilon" unicode="&#x3b5;" horiz-adv-x="889" 
d="M86 285q0 61 17.5 110.5t46.5 86t68 59.5t81 32q-82 19 -127 82.5t-45 151.5q0 65 23 119t67.5 92.5t110 60t149.5 21.5q85 0 168 -22t146 -72l-66 -101q-29 23 -59.5 38.5t-62 24.5t-62 13t-58.5 4q-58 0 -101 -14t-71 -39.5t-41.5 -60.5t-13.5 -76q0 -46 15 -78.5
t42 -53.5t64 -30.5t80 -9.5h176v-107h-209q-41 0 -78.5 -13t-66 -39t-45.5 -66t-17 -95q0 -46 11.5 -84.5t39 -66t72.5 -43t111 -15.5q83 0 156 27.5t145 83.5l61 -99q-77 -60 -167 -94.5t-200 -34.5q-98 0 -166 24t-111.5 65.5t-63 97.5t-19.5 121z" />
    <glyph glyph-name="zeta" unicode="&#x3b6;" horiz-adv-x="797" 
d="M88 463q0 144 40.5 271t111 242t164.5 219.5t202 205.5h-489v115h655v-91q-120 -121 -221 -231.5t-174 -223.5t-113.5 -234t-40.5 -263q0 -79 15 -144t49.5 -113t92 -79t142.5 -43q59 -8 104.5 -25.5t76.5 -46.5t47 -72t16 -102q0 -60 -17.5 -106t-49 -78t-77 -48.5
t-100.5 -16.5q-65 0 -125 19t-108 56l47 74q38 -32 84.5 -47.5t91.5 -15.5q31 0 58.5 8.5t48 27t32 46.5t11.5 67q0 34 -7.5 59t-25.5 42.5t-49 29t-78 17.5q-114 14 -193 57t-128 107t-71 145t-22 172z" />
    <glyph glyph-name="eta" unicode="&#x3b7;" horiz-adv-x="1014" 
d="M139 0v1077h133v-151q28 31 66.5 62t83 56t94.5 40.5t102 15.5q135 0 201 -75.5t66 -223.5v-1211h-133v1188q0 103 -38 154t-130 51q-42 0 -83.5 -14t-81.5 -37.5t-77.5 -54t-69.5 -62.5v-815h-133z" />
    <glyph glyph-name="theta" unicode="&#x3b8;" horiz-adv-x="1006" 
d="M104 764q0 376 102 568t296 192q98 0 173 -50.5t125.5 -147.5t76.5 -238.5t26 -323.5q0 -186 -24.5 -332t-75 -247.5t-126 -154.5t-177.5 -53q-198 0 -297 197.5t-99 589.5zM236 709q1 -302 64 -459.5t200 -157.5q67 0 117.5 40.5t85 119.5t52 193.5t17.5 263.5h-536z
M236 817h536q-2 135 -19 244.5t-51 187t-84.5 120t-117.5 42.5q-69 0 -118.5 -42t-81.5 -119.5t-47.5 -187.5t-16.5 -245z" />
    <glyph glyph-name="iota" unicode="&#x3b9;" horiz-adv-x="432" 
d="M150 0v1077h133v-1077h-133z" />
    <glyph glyph-name="kappa" unicode="&#x3ba;" horiz-adv-x="922" 
d="M139 0v1077h133v-581q9 15 26 40t38.5 55t46 62.5t47.5 63.5l266 360h140l-293 -391l331 -686h-137l-278 575l-187 -245v-330h-133z" />
    <glyph glyph-name="lambda" unicode="&#x3bb;" horiz-adv-x="920" 
d="M10 1495q22 8 63 15.5t85 7.5q67 0 115.5 -17.5t84.5 -53t62 -90t49 -128.5l379 -1229h-131l-172 582q-14 47 -26 89t-23 83l-24 80q-11 41 -23 86h-5q-11 -42 -21 -81.5t-21 -78.5t-23 -79t-25 -85l-176 -596h-131l336 1087l-43 134q-15 47 -30.5 81t-36 56.5
t-47.5 33.5t-64 11t-71 -5t-54 -12z" />
    <glyph glyph-name="mu" unicode="&#x3bc;" horiz-adv-x="1018" 
d="M131 -410v1489h135v-780q0 -102 38 -153.5t132 -51.5q41 0 80 12.5t77.5 34.5t75.5 52.5t74 66.5v819h138v-1079h-138v156q-32 -32 -69 -63t-78 -55t-86 -39.5t-94 -16.5q-48 0 -86 11t-64 40v-443h-135z" />
    <glyph glyph-name="nu" unicode="&#x3bd;" horiz-adv-x="891" 
d="M47 1077h133l187 -641q10 -35 19.5 -67.5t19 -67t20.5 -72.5t23 -84h4q11 45 21 83t19.5 72t18.5 67t20 69l187 641h125l-330 -1083h-137z" />
    <glyph glyph-name="xi" unicode="&#x3be;" horiz-adv-x="772" 
d="M88 420q0 98 24 172.5t68 127.5t105.5 85t136.5 45q-48 15 -88.5 41.5t-70 65t-46 88.5t-16.5 112q0 51 11 90.5t28.5 69t40 50.5t45.5 34h-209v115h684v-117h-287q-40 -9 -73.5 -27t-58 -46.5t-38.5 -70t-14 -98.5t18.5 -105.5t55 -83t90 -54t124.5 -19.5v-111
q-209 -8 -306 -99.5t-97 -254.5q0 -65 14.5 -122.5t48 -103.5t88 -76.5t134.5 -39.5q66 -8 114.5 -25.5t80.5 -47.5t47.5 -73.5t15.5 -103.5q0 -59 -17.5 -105.5t-50 -78.5t-78.5 -49t-104 -17q-66 0 -124.5 20.5t-104.5 57.5l49 74q38 -32 84.5 -48t91.5 -16q31 0 58.5 8.5
t47.5 27t31.5 47t11.5 67.5q0 33 -7.5 58t-27 43.5t-53 30.5t-84.5 19q-114 14 -189.5 56.5t-120.5 103t-64 134t-19 149.5z" />
    <glyph glyph-name="omicron" unicode="&#x3bf;" horiz-adv-x="1001" 
d="M86 539q0 136 31 241t86.5 176t132 107.5t166.5 36.5q89 0 164.5 -36.5t131 -107.5t86.5 -176t31 -241q0 -135 -31 -240t-86.5 -176.5t-131 -108.5t-164.5 -37t-165.5 37t-132 108.5t-87 176.5t-31.5 240zM221 541q0 -92 16 -173.5t50.5 -142.5t87.5 -97t127 -36
q69 0 121 33t87 92t52.5 142t17.5 182q0 90 -16.5 170t-50.5 140.5t-86.5 96t-124.5 35.5q-70 0 -122.5 -33t-88 -91.5t-53 -139.5t-17.5 -178z" />
    <glyph glyph-name="pi" unicode="&#x3c0;" horiz-adv-x="1130" 
d="M27 969v112h1077v-112h-170v-969h-131v969h-475v-969h-131v969h-170z" />
    <glyph glyph-name="rho" unicode="&#x3c1;" horiz-adv-x="1028" 
d="M139 -410v949q0 136 29 241t80.5 176t123.5 107.5t158 36.5q89 0 164.5 -36t130.5 -107t86 -175.5t31 -240.5q0 -147 -29 -252.5t-79.5 -173.5t-119.5 -100.5t-149 -32.5q-94 0 -165.5 42.5t-127.5 110.5v-545h-133zM272 256q65 -77 131 -117.5t144 -40.5
q57 0 104.5 24.5t82 78t54 137t19.5 201.5q0 90 -16 171t-50 141.5t-86.5 96t-124.5 35.5q-65 0 -113 -33t-80.5 -91.5t-48.5 -139.5t-16 -178v-285z" />
    <glyph glyph-name="sigma1" unicode="&#x3c2;" horiz-adv-x="903" 
d="M86 539q0 144 32.5 249.5t88.5 174.5t130.5 103t158.5 34q77 0 134 -25.5t98 -68.5t69 -99.5t47 -118.5l-123 -34q-15 51 -35 93t-47 72t-63 47t-84 17q-54 0 -103 -26t-86.5 -80t-59.5 -137.5t-22 -198.5q0 -205 69 -321.5t214 -133.5q132 -15 196 -71.5t64 -176.5
q0 -59 -17.5 -105.5t-50.5 -78.5t-79 -49t-103 -17q-68 0 -126.5 20.5t-104.5 57.5l49 74q38 -32 85 -48t93 -16q31 0 57.5 8.5t46.5 27t31.5 47t11.5 67.5q0 33 -7 58.5t-26 44t-52 30t-85 16.5q-90 9 -163.5 47.5t-126.5 108.5t-82 171.5t-29 236.5z" />
    <glyph glyph-name="sigma" unicode="&#x3c3;" horiz-adv-x="1022" 
d="M86 539q0 136 31.5 237.5t87 168t132.5 99.5t169 33h426v-112h-199q85 -57 133.5 -162t48.5 -260q0 -137 -31 -242.5t-86.5 -177.5t-131 -109t-164.5 -37t-165.5 37t-132 108.5t-87 176.5t-31.5 240zM221 541q0 -92 16 -173.5t50.5 -142.5t87.5 -97t127 -36
q69 0 121 33.5t87 93t52.5 142t17.5 180.5q0 70 -10.5 133t-33.5 117t-59.5 98t-88.5 76h-84q-69 0 -122 -30t-89 -85.5t-54 -133.5t-18 -175z" />
    <glyph glyph-name="tau" unicode="&#x3c4;" horiz-adv-x="776" 
d="M39 963v114h698v-114h-284v-963h-129v963h-285z" />
    <glyph glyph-name="upsilon" unicode="&#x3c5;" horiz-adv-x="1004" 
d="M129 455v622h133v-620q0 -89 13 -156t41.5 -113t74.5 -69t111 -23q124 0 181.5 88t57.5 273v620h133v-622q0 -111 -20 -199.5t-64.5 -150.5t-115.5 -95t-172 -33q-107 0 -178.5 35t-115 98.5t-61.5 151.5t-18 193z" />
    <glyph glyph-name="phi" unicode="&#x3c6;" horiz-adv-x="1243" 
d="M86 541q0 144 40 248.5t106 172.5t151 101.5t176 36.5v416h125v-416q91 -3 176 -36.5t151 -101.5t106 -172.5t40 -248.5q0 -141 -38.5 -245.5t-103.5 -173.5t-151 -104t-180 -38v-390h-125v390q-92 2 -177.5 36.5t-151 103.5t-105 173.5t-39.5 247.5zM219 541
q0 -107 26 -188.5t71.5 -138t107.5 -86.5t135 -34v889q-73 -3 -135 -32.5t-107.5 -85t-71.5 -137t-26 -187.5zM684 94q70 3 131.5 32t108 84.5t73.5 137.5t27 191t-27 191t-73.5 137.5t-108 84t-131.5 31.5v-889z" />
    <glyph glyph-name="chi" unicode="&#x3c7;" horiz-adv-x="879" 
d="M43 0l328 567l-293 510h139l232 -409l225 409h131l-295 -508l328 -569h-140l-264 469l-262 -469h-129z" />
    <glyph glyph-name="psi" unicode="&#x3c8;" horiz-adv-x="1278" 
d="M125 481v596h133v-592q0 -81 16.5 -150.5t54 -120.5t97 -81t145.5 -33v1416h131v-1416q86 5 147 35t99.5 81t56 119.5t17.5 149.5v592h131v-592q0 -106 -24.5 -197t-78 -158.5t-139.5 -108t-209 -44.5v-387h-131v387q-123 4 -208.5 43.5t-138 106.5t-76 157.5
t-23.5 196.5z" />
    <glyph glyph-name="omega" unicode="&#x3c9;" horiz-adv-x="1307" 
d="M88 485q0 96 15.5 183t44 163t69.5 138.5t92 109.5h156q-122 -97 -183 -248t-61 -335q0 -398 199 -398q40 0 72 17.5t54.5 48.5t34 73t11.5 91v403h121v-403q0 -49 12 -91t34 -73t54 -48.5t72 -17.5q99 0 149.5 97.5t50.5 300.5q0 184 -61 335t-184 248h155
q52 -47 94 -109.5t70.5 -138.5t44 -163t15.5 -183q0 -119 -20 -213t-60 -159.5t-101 -100.5t-143 -35q-50 0 -91 18t-72 47.5t-51 66t-28 73.5q-8 -37 -27.5 -73.5t-50 -66t-71.5 -47.5t-92 -18q-83 0 -144 35t-101 100.5t-59.5 159.5t-19.5 213z" />
    <glyph glyph-name="iotadieresis" unicode="&#x3ca;" horiz-adv-x="432" 
d="M-9 1192v164h146v-164h-146zM302 1192v164h144v-164h-144zM150 0v1077h133v-1077h-133z" />
    <glyph glyph-name="upsilondieresis" unicode="&#x3cb;" horiz-adv-x="1004" 
d="M268 1192v164h146v-164h-146zM579 1192v164h144v-164h-144zM129 455v622h133v-620q0 -89 13 -156t41.5 -113t74.5 -69t111 -23q124 0 181.5 88t57.5 273v620h133v-622q0 -111 -20 -199.5t-64.5 -150.5t-115.5 -95t-172 -33q-107 0 -178.5 35t-115 98.5t-61.5 151.5
t-18 193z" />
    <glyph glyph-name="omicrontonos" unicode="&#x3cc;" horiz-adv-x="1001" 
d="M449 1194l166 315h168l-246 -315h-88zM86 539q0 136 31 241t86.5 176t132 107.5t166.5 36.5q89 0 164.5 -36.5t131 -107.5t86.5 -176t31 -241q0 -135 -31 -240t-86.5 -176.5t-131 -108.5t-164.5 -37t-165.5 37t-132 108.5t-87 176.5t-31.5 240zM221 541q0 -92 16 -173.5
t50.5 -142.5t87.5 -97t127 -36q69 0 121 33t87 92t52.5 142t17.5 182q0 90 -16.5 170t-50.5 140.5t-86.5 96t-124.5 35.5q-70 0 -122.5 -33t-88 -91.5t-53 -139.5t-17.5 -178z" />
    <glyph glyph-name="upsilontonos" unicode="&#x3cd;" horiz-adv-x="1004" 
d="M129 455v622h133v-620q0 -89 13 -156t41.5 -113t74.5 -69t111 -23q124 0 181.5 88t57.5 273v620h133v-622q0 -111 -20 -199.5t-64.5 -150.5t-115.5 -95t-172 -33q-107 0 -178.5 35t-115 98.5t-61.5 151.5t-18 193zM447 1194l166 315h168l-246 -315h-88z" />
    <glyph glyph-name="omegatonos" unicode="&#x3ce;" horiz-adv-x="1307" 
d="M610 1194l166 315h168l-246 -315h-88zM88 485q0 96 15.5 183t44 163t69.5 138.5t92 109.5h156q-122 -97 -183 -248t-61 -335q0 -398 199 -398q40 0 72 17.5t54.5 48.5t34 73t11.5 91v403h121v-403q0 -49 12 -91t34 -73t54 -48.5t72 -17.5q99 0 149.5 97.5t50.5 300.5
q0 184 -61 335t-184 248h155q52 -47 94 -109.5t70.5 -138.5t44 -163t15.5 -183q0 -119 -20 -213t-60 -159.5t-101 -100.5t-143 -35q-50 0 -91 18t-72 47.5t-51 66t-28 73.5q-8 -37 -27.5 -73.5t-50 -66t-71.5 -47.5t-92 -18q-83 0 -144 35t-101 100.5t-59.5 159.5t-19.5 213
z" />
    <glyph glyph-name="afii10023" unicode="&#x401;" horiz-adv-x="1032" 
d="M309 1608v164h146v-164h-146zM620 1608v164h144v-164h-144zM164 0v1516h751v-130h-612v-520h451v-127h-451v-612h649v-127h-788z" />
    <glyph glyph-name="afii10051" unicode="&#x402;" horiz-adv-x="1378" 
d="M59 1386v130h934v-130h-397v-512q68 90 152.5 135.5t171.5 45.5q80 0 148 -36t118 -103t78 -162.5t28 -214.5q0 -118 -26 -217t-78 -170.5t-128.5 -111.5t-176.5 -40v115q67 0 118.5 30t86 84.5t52 130t17.5 166.5q0 87 -17.5 160.5t-52 127.5t-85 84t-115.5 30
q-83 0 -152.5 -44.5t-138.5 -125.5v-758h-139v1386h-398z" />
    <glyph glyph-name="afii10052" unicode="&#x403;" horiz-adv-x="977" 
d="M453 1610l166 315h168l-246 -315h-88zM164 0v1516h743v-130h-604v-1386h-139z" />
    <glyph glyph-name="afii10053" unicode="&#x404;" horiz-adv-x="1186" 
d="M100 764q0 186 37.5 331t106.5 245t167 152t220 52q99 0 174 -33.5t130 -93.5t91.5 -142.5t58.5 -180.5l-129 -27q-19 84 -46.5 149.5t-67 111t-92.5 69.5t-123 24q-87 0 -156 -41t-118 -117t-77.5 -184.5t-33.5 -242.5h426v-125h-426q4 -146 31.5 -261t77.5 -194.5
t120.5 -121.5t159.5 -42q138 0 220.5 93.5t123.5 279.5l123 -25q-23 -104 -63 -190.5t-98 -148.5t-134.5 -96t-173.5 -34q-122 0 -220 51.5t-166.5 151.5t-105.5 248t-37 342z" />
    <glyph glyph-name="afii10054" unicode="&#x405;" horiz-adv-x="1100" 
d="M72 330l121 55q27 -64 62 -116.5t80 -90t100.5 -58t123.5 -20.5q71 0 127.5 19t96 54t60.5 84t21 108q0 71 -27 123t-71.5 92.5t-102.5 72t-120 62.5q-72 35 -144 73.5t-129.5 91t-93 125t-35.5 175.5q0 80 30 147t83 115t125.5 75t157.5 27q88 0 157.5 -25.5t123 -69
t92.5 -100.5t65 -120l-121 -55q-20 47 -48.5 91.5t-67.5 78.5t-89 54.5t-114 20.5q-57 0 -104 -17.5t-81 -49t-52.5 -75t-18.5 -95.5q0 -71 26.5 -123t70.5 -92.5t101 -72.5t119 -63q73 -35 145.5 -74t130 -91.5t93.5 -124.5t36 -174q0 -83 -31.5 -154.5t-89 -124
t-139.5 -83t-182 -30.5q-91 0 -165.5 24.5t-135 70.5t-106.5 112t-80 148z" />
    <glyph glyph-name="afii10055" unicode="&#x406;" horiz-adv-x="492" 
d="M176 0v1516h139v-1516h-139z" />
    <glyph glyph-name="afii10056" unicode="&#x407;" horiz-adv-x="492" 
d="M176 0v1516h139v-1516h-139zM19 1608v164h146v-164h-146zM330 1608v164h144v-164h-144z" />
    <glyph glyph-name="afii10057" unicode="&#x408;" horiz-adv-x="870" 
d="M43 96l72 103q57 -45 125 -72t131 -27q44 0 82 13t65.5 40.5t43.5 69.5t16 101v1192h139v-1188q0 -89 -25.5 -154.5t-70.5 -109.5t-107.5 -65.5t-136.5 -21.5q-85 0 -173.5 30t-160.5 89z" />
    <glyph glyph-name="afii10058" unicode="&#x409;" horiz-adv-x="1989" 
d="M41 0v119q65 0 107 13.5t66 42.5t33 75.5t9 111.5v1154h911v-709h277q103 0 187 -23t142.5 -71.5t90.5 -122.5t32 -176q0 -116 -35 -195t-96.5 -127.5t-147 -70t-185.5 -21.5h-404v1386h-631v-1024q0 -93 -18 -161.5t-59.5 -113t-110 -66t-168.5 -21.5zM1167 123h271
q79 0 139.5 16t101 50.5t61.5 89t21 131.5q0 144 -82 207t-243 63h-269v-557z" />
    <glyph glyph-name="afii10059" unicode="&#x40a;" horiz-adv-x="1915" 
d="M164 0v1516h139v-654h651v654h138v-707h276q104 0 188 -23.5t143.5 -72t91.5 -123t32 -176.5q0 -116 -35.5 -195t-97.5 -127.5t-148 -70t-186 -21.5h-402v733h-651v-733h-139zM1092 123h272q78 0 138.5 16t101 50.5t61.5 89t21 131.5q0 144 -82 207t-242 63h-270v-557z
" />
    <glyph glyph-name="afii10060" unicode="&#x40b;" horiz-adv-x="1339" 
d="M59 1386v130h934v-130h-397v-460q29 31 67.5 62t83 56t94 40.5t101.5 15.5q136 0 202 -75.5t66 -223.5v-801h-133v778q0 103 -38.5 154t-129.5 51q-41 0 -83 -14t-82.5 -37.5t-78 -54t-69.5 -62.5v-815h-139v1386h-398z" />
    <glyph glyph-name="afii10061" unicode="&#x40c;" horiz-adv-x="1147" 
d="M522 1610l166 315h168l-246 -315h-88zM164 0v1516h139v-826q9 15 26.5 41.5t40 59t47.5 68t50 69.5l420 588h147l-422 -584l494 -932h-148l-434 811l-221 -303v-508h-139z" />
    <glyph glyph-name="afii10062" unicode="&#x40e;" horiz-adv-x="1120" 
d="M61 1516h144l348 -857l41 -108l37 111l315 854h141l-469 -1240q-27 -74 -56.5 -129t-67 -92.5t-87 -56t-116.5 -18.5q-60 0 -101 13t-75 32l53 108q23 -14 53 -24.5t68 -10.5q41 0 70.5 10.5t53 35.5t44.5 66t45 101l28 72zM311 1936h90q13 -117 55 -170.5t117 -53.5
q77 0 119 53.5t53 170.5h91q-3 -77 -21.5 -138.5t-51.5 -104.5t-81 -66t-109 -23t-108 23t-80 66t-51.5 104.5t-22.5 138.5z" />
    <glyph glyph-name="afii10145" unicode="&#x40f;" horiz-adv-x="1249" 
d="M164 0v1516h139v-1389h641v1389h141v-1516h-393v-410h-139v410h-389z" />
    <glyph glyph-name="afii10017" unicode="&#x410;" horiz-adv-x="1139" 
d="M61 0l445 1522h127l444 -1522h-139l-133 469h-479l-133 -469h-132zM360 592h410l-70 248q-40 136 -72 251t-61 226h-4l-30 -112q-15 -56 -31 -114t-33.5 -120t-36.5 -129z" />
    <glyph glyph-name="afii10018" unicode="&#x411;" horiz-adv-x="1124" 
d="M164 0v1516h743v-130h-604v-579h277q103 0 186.5 -23t142.5 -71.5t91 -122.5t32 -176q0 -116 -35 -195t-97.5 -127.5t-148 -70t-186.5 -21.5h-401zM303 123h270q78 0 138.5 16t101 50.5t61.5 89t21 131.5q0 144 -82 207t-242 63h-268v-557z" />
    <glyph glyph-name="afii10019" unicode="&#x412;" horiz-adv-x="1178" 
d="M164 0v1516h424q224 0 337 -97t113 -284q0 -79 -20.5 -138.5t-54.5 -101.5t-78 -68t-92 -39v-4q59 -13 111 -40t91 -71.5t61.5 -109t22.5 -151.5q0 -96 -29 -172.5t-86.5 -129.5t-142.5 -81.5t-196 -28.5h-461zM301 123h326q167 0 242 76t75 221q0 82 -24.5 139
t-70.5 92.5t-112 51.5t-149 16h-287v-596zM301 840h279q154 0 238.5 65.5t84.5 208.5q0 72 -18 124t-57 85.5t-99.5 49.5t-144.5 16h-283v-549z" />
    <glyph glyph-name="afii10020" unicode="&#x413;" horiz-adv-x="971" 
d="M164 0v1516h743v-130h-604v-1386h-139z" />
    <glyph glyph-name="afii10021" unicode="&#x414;" horiz-adv-x="1350" 
d="M6 127h72q84 0 127 63.5t49 176.5l88 1149h817v-1389h125v-537h-139v410h-1000v-410h-139v537zM299 127h719v1259h-547l-78 -1028q-3 -38 -9 -74.5t-16.5 -67t-27 -54t-41.5 -35.5z" />
    <glyph glyph-name="afii10022" unicode="&#x415;" horiz-adv-x="1032" 
d="M164 0v1516h751v-130h-612v-520h451v-127h-451v-612h649v-127h-788z" />
    <glyph glyph-name="afii10024" unicode="&#x416;" horiz-adv-x="1821" 
d="M39 0l496 932l-422 584h145l422 -588q24 -34 49 -69.5t47.5 -68t40.5 -59t27 -41.5v826h131v-826q10 15 27.5 41.5t40 59t48 68t50.5 69.5l420 588h147l-422 -584l494 -932h-148l-434 811l-223 -303v-508h-131v508l-221 303l-437 -811h-147z" />
    <glyph glyph-name="afii10025" unicode="&#x417;" horiz-adv-x="1067" 
d="M70 305l117 47q27 -74 62 -123t77.5 -78.5t92 -42t106.5 -12.5q72 0 129 22.5t96.5 64t60.5 99t21 126.5q0 82 -22.5 145.5t-71.5 106.5t-127 65.5t-189 22.5h-49v114h88q89 0 153 20t104.5 58.5t59.5 94.5t19 128q0 54 -13.5 101t-44 82t-80 55t-120.5 20
q-100 0 -174.5 -48.5t-132.5 -127.5l-97 68q37 52 82.5 94.5t98 73t112 47t125.5 16.5q102 0 173.5 -30t117.5 -81t67 -117.5t21 -139.5q0 -75 -19.5 -135.5t-54 -106.5t-80.5 -77t-100 -46q64 -21 116.5 -54t90.5 -82t59 -114.5t21 -150.5q0 -94 -31 -173.5t-88 -137.5
t-137.5 -91t-179.5 -33q-92 0 -164 22.5t-128.5 65.5t-97.5 104t-69 138z" />
    <glyph glyph-name="afii10026" unicode="&#x418;" horiz-adv-x="1272" 
d="M1106.01 0v1516h-171.989l-505.969 -984q-19.999 -38 -35.998 -70q-15.999 -33 -31.998 -64l-31.998 -63q-15.999 -32 -34.998 -71h-4v1252h-126.992v-1516h128.992l534.968 1032q21.998 43 39.9971 77.5t33.998 67.5l34.998 69q17.999 36 39.9971 83h4v-1329h126.992z
" />
    <glyph glyph-name="afii10027" unicode="&#x419;" horiz-adv-x="1272" 
d="M1106.01 0v1516h-171.989l-505.969 -984q-19.999 -38 -35.998 -70q-15.999 -33 -31.998 -64l-31.998 -63q-15.999 -32 -34.998 -71h-4v1252h-126.992v-1516h128.992l534.968 1032q21.998 43 39.9971 77.5t33.998 67.5l34.998 69q17.999 36 39.9971 83h4v-1329h126.992z
M360 1936h90q13 -117 55 -170.5t117 -53.5q77 0 119 53.5t53 170.5h91q-3 -77 -21.5 -138.5t-51.5 -104.5t-81 -66t-109 -23t-108 23t-80 66t-51.5 104.5t-22.5 138.5z" />
    <glyph glyph-name="afii10028" unicode="&#x41a;" horiz-adv-x="1147" 
d="M164 0v1516h139v-826q9 15 26.5 41.5t40 59t47.5 68t50 69.5l420 588h147l-422 -584l494 -932h-148l-434 811l-221 -303v-508h-139z" />
    <glyph glyph-name="afii10029" unicode="&#x41b;" horiz-adv-x="1331" 
d="M41 0v119q65 0 107 13.5t66 42.5t33 75.5t9 111.5v1154h913v-1516h-141v1386h-631v-1024q0 -93 -18 -161.5t-59.5 -113t-110 -66t-168.5 -21.5z" />
    <glyph glyph-name="afii10030" unicode="&#x41c;" horiz-adv-x="1491" 
d="M164 0v1516h172l409 -1319h5l403 1319h174v-1516h-135v1280h-4q-8 -35 -20 -81t-27 -97t-31.5 -104.5t-32.5 -104.5l-280 -893h-113l-281 897q-15 48 -31 100.5t-30.5 103t-27 96.5t-21.5 83h-4v-1280h-125z" />
    <glyph glyph-name="afii10031" unicode="&#x41d;" horiz-adv-x="1257" 
d="M164 0v1516h139v-650h651v650h140v-1516h-140v737h-651v-737h-139z" />
    <glyph glyph-name="afii10032" unicode="&#x41e;" horiz-adv-x="1272" 
d="M100 758q0 188 39.5 334.5t111 247t170 152.5t216.5 52q117 0 215.5 -52t169 -152.5t110 -247t39.5 -334.5t-39.5 -334.5t-110 -247t-169 -153t-215.5 -52.5q-118 0 -216.5 52.5t-170 153t-111 247t-39.5 334.5zM240 758q0 -157 28 -279.5t79.5 -207t125 -129
t164.5 -44.5q90 0 162.5 44.5t124 129t79 207t27.5 279.5t-27.5 279.5t-79 207t-124 128.5t-162.5 44q-91 0 -164.5 -44t-125 -128.5t-79.5 -207t-28 -279.5z" />
    <glyph glyph-name="afii10033" unicode="&#x41f;" horiz-adv-x="1249" 
d="M164 0v1516h921v-1516h-141v1386h-641v-1386h-139z" />
    <glyph glyph-name="afii10034" unicode="&#x420;" horiz-adv-x="1124" 
d="M164 0v1516h416q103 0 186.5 -25t142.5 -76t91 -130t32 -187q0 -121 -35 -204t-97.5 -134.5t-148 -74.5t-186.5 -23h-262v-662h-139zM303 786h270q78 0 138.5 16.5t101 53.5t61.5 95.5t21 142.5q0 79 -20.5 134.5t-61.5 90.5t-101.5 51t-140.5 16h-268v-600z" />
    <glyph glyph-name="afii10035" unicode="&#x421;" horiz-adv-x="1192" 
d="M100 762q0 187 37.5 332.5t106.5 245.5t167 152t220 52q102 0 178.5 -35t131 -97t90 -148.5t56.5 -188.5l-129 -24q-18 88 -45.5 156.5t-67 115t-93.5 70.5t-125 24q-92 0 -164 -45.5t-121.5 -130.5t-75.5 -206t-26 -271q0 -159 26 -283t76.5 -209t123 -129.5
t165.5 -44.5q70 0 125.5 23.5t97.5 70.5t73 119t52 170l125 -20q-23 -108 -62.5 -198.5t-98 -155t-136.5 -100.5t-178 -36q-122 0 -220 51.5t-166.5 151.5t-105.5 247.5t-37 340.5z" />
    <glyph glyph-name="afii10036" unicode="&#x422;" horiz-adv-x="1055" 
d="M59 1386v130h934v-130h-397v-1386h-139v1386h-398z" />
    <glyph glyph-name="afii10037" unicode="&#x423;" horiz-adv-x="1120" 
d="M61 1516h144l348 -857l41 -108l37 111l315 854h141l-469 -1240q-27 -74 -56.5 -129t-67 -92.5t-87 -56t-116.5 -18.5q-60 0 -101 13t-75 32l53 108q23 -14 53 -24.5t68 -10.5q41 0 70.5 10.5t53 35.5t44.5 66t45 101l28 72z" />
    <glyph glyph-name="afii10038" unicode="&#x424;" horiz-adv-x="1333" 
d="M82 758q0 125 37.5 229t105.5 180t163 121.5t210 54.5v173h137v-173q114 -9 209 -54.5t163.5 -121.5t106 -180t37.5 -229q0 -123 -37.5 -223.5t-106 -173t-163.5 -116t-209 -52.5v-193h-137v193q-115 9 -210 52.5t-163 116.5t-105.5 173.5t-37.5 222.5zM221 758
q0 -98 26.5 -176.5t75.5 -134.5t118.5 -89t156.5 -41v904q-87 -10 -156.5 -46.5t-118.5 -95.5t-75.5 -140t-26.5 -181zM735 317q86 8 156 41t119 89t75.5 134.5t26.5 176.5q0 100 -26.5 181.5t-75.5 141t-119 95.5t-156 45v-904z" />
    <glyph glyph-name="afii10039" unicode="&#x425;" horiz-adv-x="1114" 
d="M39 0l444 823l-372 693h149l305 -574l301 574h135l-370 -691l444 -825h-145l-379 711l-377 -711h-135z" />
    <glyph glyph-name="afii10040" unicode="&#x426;" horiz-adv-x="1270" 
d="M164 0v1516h139v-1389h641v1389h141v-1389h115v-537h-139v410h-897z" />
    <glyph glyph-name="afii10041" unicode="&#x427;" horiz-adv-x="1169" 
d="M154 1061v457h139v-447q0 -102 12.5 -172t41 -113t76 -62t116.5 -19q41 0 86 8t88 24t82.5 38.5t70.5 51.5v689h140v-1516h-140v711q-31 -29 -72 -52t-87.5 -39t-96 -25t-96.5 -9q-94 0 -162 24.5t-112 81t-65 147t-21 222.5z" />
    <glyph glyph-name="afii10042" unicode="&#x428;" horiz-adv-x="1858" 
d="M164 0v1516h139v-1389h557v1389h139v-1389h555v1389h140v-1516h-1530z" />
    <glyph glyph-name="afii10043" unicode="&#x429;" horiz-adv-x="1880" 
d="M164 0v1516h139v-1389h557v1389h139v-1389h555v1389h140v-1393h116v-533h-139v410h-1507z" />
    <glyph glyph-name="afii10044" unicode="&#x42a;" horiz-adv-x="1432" 
d="M49 1386v130h561v-709h277q103 0 187 -23t143.5 -71.5t91.5 -122.5t32 -176q0 -116 -35 -195t-97.5 -127.5t-148 -70t-186.5 -21.5h-401v1386h-424zM610 123h271q79 0 139.5 16t101 50.5t61.5 89t21 131.5q0 144 -82 207t-243 63h-269v-557z" />
    <glyph glyph-name="afii10045" unicode="&#x42b;" horiz-adv-x="1614" 
d="M1298 0v1516h139v-1516h-139zM164 0v1516h139v-709h277q103 0 186.5 -23t142.5 -71.5t91 -122.5t32 -176q0 -116 -35 -195t-97.5 -127.5t-148 -70t-186.5 -21.5h-401zM303 123h270q78 0 138.5 16t101 50.5t61.5 89t21 131.5q0 144 -82 207t-242 63h-268v-557z" />
    <glyph glyph-name="afii10046" unicode="&#x42c;" horiz-adv-x="1124" 
d="M164 0v1516h139v-709h277q103 0 186.5 -23t142.5 -71.5t91 -122.5t32 -176q0 -116 -35 -195t-97.5 -127.5t-148 -70t-186.5 -21.5h-401zM303 123h270q78 0 138.5 16t101 50.5t61.5 89t21 131.5q0 144 -82 207t-242 63h-268v-557z" />
    <glyph glyph-name="afii10047" unicode="&#x42d;" horiz-adv-x="1186" 
d="M1084.01 764q0 186 -37.4971 331q-37.498 145 -106.494 245q-68.9951 100 -166.989 152t-219.987 52q-98.9932 0 -173.989 -33.5q-74.9951 -33.5 -129.992 -93.5q-54.9961 -60 -91.4941 -142.5t-58.4961 -180.5l128.992 -27q18.999 84 46.4971 149.5t66.9961 111
q39.4971 45.5 92.4941 69.5t122.992 24q86.9951 0 155.99 -41q68.9961 -41 117.993 -117t77.4951 -184.5t33.498 -242.5h-425.974v-125h425.974q-4 -146 -31.498 -261t-77.4951 -194.5t-120.493 -121.5q-70.4951 -42 -159.49 -42q-137.991 0 -220.486 93.5t-123.492 279.5
l-122.992 -25q22.998 -104 62.9961 -190.5q39.9971 -86.5 97.9941 -148.5q57.9961 -62 134.491 -96t173.489 -34q121.993 0 219.987 51.5q97.9932 51.5 166.489 151.5t105.494 248q36.9971 148 36.9971 342z" />
    <glyph glyph-name="afii10048" unicode="&#x42e;" horiz-adv-x="1686" 
d="M164 0v1516h139v-650h256q12 162 54 288t109 213t156 132t195 45q112 0 206 -52t162 -152.5t106 -247t38 -334.5t-38 -334.5t-106 -247t-162 -153t-206 -52.5q-113 0 -207 51t-162 149t-106.5 240.5t-40.5 325.5h-254v-737h-139zM696 758q0 -157 26.5 -280.5t75.5 -209
t118.5 -131t156.5 -45.5q84 0 153 45.5t118 131t75.5 209t26.5 280.5t-26.5 280t-75.5 208t-118 130t-153 45q-87 0 -156.5 -45t-118.5 -130t-75.5 -208t-26.5 -280z" />
    <glyph glyph-name="afii10049" unicode="&#x42f;" 
d="M991.01 0v1516h-417.975q-106.993 0 -190.988 -25.5q-83.9941 -25.5 -141.491 -77q-57.4961 -51.5 -87.4941 -129.5q-29.999 -78 -29.999 -184q0 -95 24.499 -165.5q24.498 -70.5 65.9961 -120q41.4971 -49.5 95.4941 -79.5t112.993 -45l-313.981 -690h141.992
l306.98 670h296.982v-670h136.991zM854.019 791h-271.983q-79.9951 0 -139.991 16q-59.9971 16 -100.494 52.5q-40.498 36.5 -60.9961 95q-20.499 58.5 -20.499 143.5q0 78 19.999 133q19.998 55 60.4961 89.5q40.4971 34.5 101.494 50q60.9961 15.5 141.991 15.5h269.983
v-595z" />
    <glyph glyph-name="afii10065" unicode="&#x430;" horiz-adv-x="952" 
d="M82 252q0 78 33.5 147t106 127t187.5 104.5t279 80.5v73q0 199 -172 199q-51 0 -96.5 -12.5t-86 -34t-76.5 -50t-67 -59.5l-79 80q83 88 185 140.5t230 52.5q152 0 222.5 -82.5t70.5 -233.5v-518q0 -99 6.5 -161.5t20.5 -104.5h-135q-10 32 -16.5 63.5t-6.5 77.5
q-71 -74 -158 -114.5t-192 -40.5q-123 0 -189.5 71.5t-66.5 194.5zM213 266q0 -88 42 -129t120 -41q90 0 170.5 43.5t142.5 112.5v356q-137 -29 -228.5 -67t-146.5 -82t-77.5 -93t-22.5 -100z" />
    <glyph glyph-name="afii10066" unicode="&#x431;" horiz-adv-x="1001" 
d="M86 543v47v66q0 35 0.5 62t1.5 30q1 77 9 161.5t28.5 167t56.5 157.5t93.5 133t139.5 93.5t195 38.5q54 2 106 5t115 20v-125q-53 -16 -104.5 -20t-112.5 -7q-98 -3 -173 -37.5t-126 -102.5t-78.5 -170.5t-31.5 -242.5q21 64 54.5 113.5t74 83t86.5 50.5t94 17
q89 0 163 -37t127 -107.5t82 -174t29 -236.5q0 -128 -29.5 -230t-84 -173t-130.5 -109.5t-169 -38.5q-91 0 -167 37.5t-131.5 109.5t-86.5 177.5t-31 241.5zM221 530q0 -89 16.5 -168.5t51 -139.5t87.5 -95t126 -35q68 0 120 32.5t87 90.5t53 138.5t18 176.5q0 89 -16.5 169
t-50.5 140t-86.5 95t-124.5 35q-69 0 -121.5 -33t-88 -91.5t-53.5 -139t-18 -175.5z" />
    <glyph glyph-name="afii10067" unicode="&#x432;" horiz-adv-x="924" 
d="M139 0v1077h336q72 0 133.5 -15t107 -46.5t71.5 -81t26 -117.5q0 -57 -15 -100.5t-41 -75t-61.5 -51.5t-77.5 -29v-2q49 -8 91 -27t72.5 -51.5t47.5 -79t17 -110.5q0 -68 -24.5 -121.5t-68.5 -91.5t-106.5 -58t-138.5 -20h-369zM268 111h232q108 0 161.5 49.5t53.5 142.5
q0 54 -17.5 91.5t-49.5 61.5t-76.5 35t-98.5 11h-205v-391zM268 608h199q51 0 92 10t69.5 32t44 57.5t15.5 85.5q0 83 -55.5 127.5t-163.5 44.5h-201v-357z" />
    <glyph glyph-name="afii10068" unicode="&#x433;" horiz-adv-x="805" 
d="M139 0v1077h623v-112h-490v-965h-133z" />
    <glyph glyph-name="afii10069" unicode="&#x434;" horiz-adv-x="1049" 
d="M16 117q53 3 89 20t58 45t32.5 65.5t13.5 82.5l53 747h641v-960h90v-527h-125v410h-723v-410h-129v527zM246 115h526v850h-387l-45 -643q-5 -79 -29.5 -133t-64.5 -74z" />
    <glyph glyph-name="afii10070" unicode="&#x435;" horiz-adv-x="950" 
d="M86 541q0 143 33 248t89 174t129.5 103t154.5 34q89 0 158.5 -36.5t117.5 -106t73 -172t25 -234.5v-31h-647q2 -104 22.5 -183.5t56 -134t86 -82.5t112.5 -28q49 0 87 14.5t68.5 41.5t55 66t47.5 87l100 -55q-28 -62 -65 -112t-83 -85t-101 -53.5t-118 -18.5
q-86 0 -159.5 36t-127 107t-84 176.5t-30.5 244.5zM221 629h512q-4 77 -20 142t-46 112.5t-74 74.5t-104 27q-48 0 -93 -21t-81.5 -65t-61 -111t-32.5 -159z" />
    <glyph glyph-name="afii10072" unicode="&#x436;" horiz-adv-x="1430" 
d="M47 0l332 686l-293 391h139l267 -360q23 -31 47.5 -63.5t46 -62.5t39 -55t26.5 -40v581h127v-581q9 15 27 40t40 55t46.5 62.5t46.5 63.5l266 360h139l-292 -391l331 -686h-137l-278 575l-189 -245v-330h-127v330l-188 245l-279 -575h-137z" />
    <glyph glyph-name="afii10073" unicode="&#x437;" horiz-adv-x="864" 
d="M70 170l88 80q48 -79 114 -119.5t154 -40.5q57 0 102 15.5t76.5 44t48.5 67.5t17 86q0 50 -16.5 87t-54.5 61.5t-100 36.5t-153 12h-33v106h35q79 0 135.5 10.5t93 34t53.5 61t17 91.5q0 37 -12.5 71.5t-38.5 61t-67 42t-99 15.5q-40 0 -72.5 -9t-60.5 -25t-51.5 -38.5
t-44.5 -50.5l-78 80q50 66 126.5 109t186.5 43q85 0 147.5 -22.5t103.5 -60.5t61 -90t20 -110q0 -109 -54.5 -177t-156.5 -87q64 -13 109 -37.5t73.5 -58t41 -76t12.5 -92.5q0 -67 -25 -124.5t-72 -99.5t-114.5 -66t-151.5 -24q-122 0 -212.5 51t-147.5 142z" />
    <glyph glyph-name="afii10074" unicode="&#x438;" horiz-adv-x="1047" 
d="M139 0v1077h125v-862q33 58 74.5 128t87 146.5t93.5 156.5t94 156.5t87.5 146.5t75.5 128h133v-1077h-127v860q-35 -60 -76.5 -130t-87 -145.5t-92.5 -154t-92.5 -154t-88 -146t-77.5 -130.5h-129z" />
    <glyph glyph-name="afii10075" unicode="&#x439;" horiz-adv-x="1047" 
d="M139 0v1077h125v-862q33 58 74.5 128t87 146.5t93.5 156.5t94 156.5t87.5 146.5t75.5 128h133v-1077h-127v860q-35 -60 -76.5 -130t-87 -145.5t-92.5 -154t-92.5 -154t-88 -146t-77.5 -130.5h-129zM268 1518h90q13 -117 55 -170.5t117 -53.5q77 0 119 53.5t53 170.5h91
q-3 -77 -21.5 -138.5t-51.5 -104.5t-81 -66t-109 -23t-108 23t-80 66t-51.5 104.5t-22.5 138.5z" />
    <glyph glyph-name="afii10076" unicode="&#x43a;" horiz-adv-x="922" 
d="M139 0v1077h133v-581q9 15 26 40t38.5 55t46 62.5t47.5 63.5l266 360h140l-293 -391l331 -686h-137l-278 575l-187 -245v-330h-133z" />
    <glyph glyph-name="afii10077" unicode="&#x43b;" horiz-adv-x="1065" 
d="M25 0v111q55 0 90.5 6.5t55.5 26t28 56t8 95.5v782h717v-1077h-131v965h-455v-668q0 -96 -21 -154t-60.5 -89.5t-98 -42t-133.5 -11.5z" />
    <glyph glyph-name="afii10078" unicode="&#x43c;" horiz-adv-x="1227" 
d="M139 0v1077h160l313 -905h2l312 905h161v-1077h-118v844h-2q-2 -7 -11 -34l-20 -58q-10 -32 -19.5 -59.5t-11.5 -35.5l-239 -657h-111l-236 649q-2 9 -11.5 37.5t-21 61.5t-20.5 61t-10 35h-2v-844h-115z" />
    <glyph glyph-name="afii10079" unicode="&#x43d;" horiz-adv-x="1024" 
d="M139 0v1077h133v-442h482v442h131v-1077h-131v520h-482v-520h-133z" />
    <glyph glyph-name="afii10080" unicode="&#x43e;" horiz-adv-x="1001" 
d="M86 539q0 136 31 241t86.5 176t132 107.5t166.5 36.5q89 0 164.5 -36.5t131 -107.5t86.5 -176t31 -241q0 -135 -31 -240t-86.5 -176.5t-131 -108.5t-164.5 -37t-165.5 37t-132 108.5t-87 176.5t-31.5 240zM221 541q0 -92 16 -173.5t50.5 -142.5t87.5 -97t127 -36
q69 0 121 33t87 92t52.5 142t17.5 182q0 90 -16.5 170t-50.5 140.5t-86.5 96t-124.5 35.5q-70 0 -122.5 -33t-88 -91.5t-53 -139.5t-17.5 -178z" />
    <glyph glyph-name="afii10081" unicode="&#x43f;" horiz-adv-x="1024" 
d="M139 0v1077h746v-1077h-131v965h-482v-965h-133z" />
    <glyph glyph-name="afii10082" unicode="&#x440;" horiz-adv-x="1028" 
d="M139 -410v1487h133v-137q25 29 55.5 58t67.5 51.5t81 36.5t95 14q79 0 147 -32.5t117.5 -100.5t78 -173.5t28.5 -252.5t-29 -252.5t-79.5 -173.5t-119.5 -100.5t-149 -32.5q-94 0 -165.5 42.5t-127.5 110.5v-545h-133zM272 256q65 -77 131 -117.5t144 -40.5
q57 0 104.5 24.5t82 78t54 137t19.5 201.5q0 114 -19.5 198t-54.5 138.5t-83 81t-105 26.5q-41 0 -78 -13t-71 -35t-65 -51.5t-59 -62.5v-565z" />
    <glyph glyph-name="afii10083" unicode="&#x441;" horiz-adv-x="922" 
d="M86 539q0 144 32.5 249.5t88.5 174.5t130.5 103t158.5 34q77 0 134 -25.5t98 -68.5t69 -99.5t47 -118.5l-123 -34q-15 51 -35 93t-47 72t-63 47t-84 17q-54 0 -103 -26t-86.5 -80t-59.5 -137.5t-22 -198.5q0 -102 18.5 -185t54 -141t85.5 -89.5t113 -31.5q94 0 151.5 57
t89.5 175l119 -35q-46 -152 -137.5 -233t-229.5 -81q-84 0 -157 37t-127 108.5t-84.5 176.5t-30.5 240z" />
    <glyph glyph-name="afii10084" unicode="&#x442;" horiz-adv-x="856" 
d="M43 965v112h770v-112h-317v-965h-134v965h-319z" />
    <glyph glyph-name="afii10085" unicode="&#x443;" horiz-adv-x="920" 
d="M18 -389l27 108q20 -6 54 -10t71 -4t64 10.5t47.5 33t36 56.5t30.5 82l35 103l-336 1087h135l176 -594q13 -45 25 -85.5t23 -79.5t21.5 -78t21.5 -82h4q12 44 23.5 85t23 81.5t23.5 82.5t26 89l172 581h127l-371 -1200q-24 -75 -50 -129.5t-61.5 -90t-84 -52.5
t-115.5 -17q-43 0 -84.5 7.5t-63.5 15.5z" />
    <glyph glyph-name="afii10086" unicode="&#x444;" horiz-adv-x="1579" 
d="M88 539q0 146 27.5 252t75.5 174.5t113 101.5t140 33q44 0 84 -12.5t75 -33.5t65.5 -50t56.5 -62v574h133v-576q23 29 52 58t64 51.5t76 36.5t89 14q75 0 139.5 -32.5t112.5 -100.5t75 -173.5t27 -252.5t-27.5 -252.5t-75.5 -173.5t-113.5 -100.5t-141.5 -32.5
q-44 0 -83 12t-73.5 33t-65 49.5t-55.5 62.5v-549h-133v551q-26 -31 -55 -59.5t-63.5 -50.5t-75.5 -35.5t-89 -13.5q-75 0 -139.5 32t-112.5 99.5t-75 173t-27 252.5zM223 541q0 -116 18.5 -199.5t51.5 -137.5t78 -80t98 -26q38 0 72 11.5t65 32t60.5 49t58.5 63.5v565
q-60 76 -123.5 120t-134.5 44q-54 0 -98.5 -25.5t-77 -79t-50.5 -137t-18 -200.5zM858 258q62 -78 124 -120t134 -42q53 0 97.5 25.5t76.5 79t50 137.5t18 201q0 114 -18.5 198t-51.5 138.5t-77.5 81t-96.5 26.5q-40 0 -74 -12.5t-65 -34.5t-60 -51.5t-57 -63.5v-563z" />
    <glyph glyph-name="afii10087" unicode="&#x445;" horiz-adv-x="879" 
d="M43 0l328 567l-293 510h139l232 -409l225 409h131l-295 -508l328 -569h-140l-264 469l-262 -469h-129z" />
    <glyph glyph-name="afii10088" unicode="&#x446;" horiz-adv-x="1036" 
d="M139 0v1077h133v-962h482v962h131v-962h94v-525h-129v410h-711z" />
    <glyph glyph-name="afii10089" unicode="&#x447;" horiz-adv-x="1004" 
d="M111 645v432h131v-409q0 -62 11 -106t33.5 -72t57 -41t82.5 -13q45 0 89 16t84 43t74 61.5t60 70.5v450h133v-1077h-133v500q-24 -33 -58.5 -65.5t-78.5 -58t-97 -41.5t-114 -16q-139 0 -206.5 83.5t-67.5 242.5z" />
    <glyph glyph-name="afii10090" unicode="&#x448;" horiz-adv-x="1610" 
d="M139 0v1077h133v-962h467v962h133v-962h467v962h134v-1077h-1334z" />
    <glyph glyph-name="afii10091" unicode="&#x449;" horiz-adv-x="1624" 
d="M139 0v1077h133v-962h467v962h133v-962h467v962h134v-962h92v-525h-127v410h-1299z" />
    <glyph glyph-name="afii10092" unicode="&#x44a;" horiz-adv-x="1024" 
d="M16 965v112h377v-436h199q91 0 161.5 -16.5t119.5 -54t74.5 -98.5t25.5 -150q0 -82 -27 -142.5t-76.5 -100.5t-119 -59.5t-154.5 -19.5h-334v965h-246zM393 115h203q128 0 188 52.5t60 156.5q0 57 -15.5 94.5t-46.5 60t-77.5 32t-108.5 9.5h-203v-405z" />
    <glyph glyph-name="afii10093" unicode="&#x44b;" horiz-adv-x="1280" 
d="M1008 0v1077h133v-1077h-133zM139 0v1077h133v-436h197q91 0 161.5 -16.5t119.5 -54t74.5 -98.5t25.5 -150q0 -82 -27 -142.5t-76.5 -100.5t-119 -59.5t-154.5 -19.5h-334zM272 115h201q128 0 188 52.5t60 156.5q0 57 -15 94.5t-46 60t-77.5 32t-109.5 9.5h-201v-405z
" />
    <glyph glyph-name="afii10094" unicode="&#x44c;" horiz-adv-x="903" 
d="M139 0v1077h133v-436h197q91 0 161.5 -16.5t119.5 -54t74.5 -98.5t25.5 -150q0 -82 -27 -142.5t-76.5 -100.5t-119 -59.5t-154.5 -19.5h-334zM272 115h201q128 0 188 52.5t60 156.5q0 57 -15 94.5t-46 60t-77.5 32t-109.5 9.5h-201v-405z" />
    <glyph glyph-name="afii10095" unicode="&#x44d;" horiz-adv-x="915" 
d="M829.005 539q0 144 -32.498 249.5t-88.4941 174.5q-55.9971 69 -130.492 103t-158.49 34q-73.9951 0 -129.992 -24.5q-55.9961 -24.5 -96.9941 -65.5q-40.9971 -41 -68.9951 -95.5q-27.999 -54.5 -47.998 -115.5l120.993 -35q14.999 48 34.498 88.5t46.4971 70
t62.9961 46t82.9951 16.5q50.9971 0 97.4941 -22.5t83.4941 -69.5q36.998 -47 60.4971 -119q23.498 -72 29.498 -170h-435.974v-106h437.974q-3 -92 -23.499 -167t-55.9961 -128q-35.498 -53 -84.4951 -82t-108.993 -29q-91.9951 0 -148.491 57t-90.4941 166l-114.993 -36
q46.9971 -149 136.991 -225.5q89.9951 -76.5 223.986 -76.5q83.9951 0 156.99 37q72.9961 37 126.993 108.5q53.9961 71.5 84.4941 176.5t30.498 240z" />
    <glyph glyph-name="afii10096" unicode="&#x44e;" horiz-adv-x="1350" 
d="M139 0v1077h133v-444h209q10 114 43 201t84 146t118 89.5t144 30.5q85 0 157.5 -36.5t125 -107.5t82 -176t29.5 -241q0 -135 -29.5 -240t-82 -176.5t-125 -108.5t-157.5 -37q-84 0 -154.5 36t-122.5 105.5t-82.5 170t-33.5 229.5h-205v-518h-133zM610 541
q0 -92 15 -173.5t46.5 -143.5t81 -98t117.5 -36q63 0 111 33t81 93t49.5 143t16.5 182q0 90 -15 171t-46.5 142t-80.5 97t-116 36q-65 0 -113.5 -33.5t-81 -93t-49 -141t-16.5 -178.5z" />
    <glyph glyph-name="afii10097" unicode="&#x44f;" horiz-adv-x="956" 
d="M96 0l221 449q-108 29 -159.5 103t-51.5 202q0 84 26.5 144.5t75.5 100.5t117 59t152 19h340v-1077h-129v430h-248l-207 -430h-137zM236 752q0 -114 59.5 -160.5t181.5 -46.5h211v418h-211q-126 0 -183.5 -52t-57.5 -159z" />
    <glyph glyph-name="afii10071" unicode="&#x451;" horiz-adv-x="950" 
d="M248 1192v164h146v-164h-146zM559 1192v164h144v-164h-144zM86 541q0 143 33 248t89 174t129.5 103t154.5 34q89 0 158.5 -36.5t117.5 -106t73 -172t25 -234.5v-31h-647q2 -104 22.5 -183.5t56 -134t86 -82.5t112.5 -28q49 0 87 14.5t68.5 41.5t55 66t47.5 87l100 -55
q-28 -62 -65 -112t-83 -85t-101 -53.5t-118 -18.5q-86 0 -159.5 36t-127 107t-84 176.5t-30.5 244.5zM221 629h512q-4 77 -20 142t-46 112.5t-74 74.5t-104 27q-48 0 -93 -21t-81.5 -65t-61 -111t-32.5 -159z" />
    <glyph glyph-name="afii10099" unicode="&#x452;" horiz-adv-x="1014" 
d="M31 1223v116h108v177h133v-177h220v-116h-220v-297q28 31 66.5 62t83 56t94.5 40.5t102 15.5q135 0 201 -75.5t66 -223.5v-983q0 -119 -47 -173.5t-156 -54.5q-5 0 -15 0.5t-20.5 1t-20 1t-12.5 1.5v111q8 -2 24.5 -3t27.5 -1q43 0 64.5 27.5t21.5 87.5v962
q0 103 -38 154t-130 51q-42 0 -83.5 -14t-81.5 -37.5t-77.5 -54t-69.5 -62.5v-815h-133v1223h-108z" />
    <glyph glyph-name="afii10100" unicode="&#x453;" horiz-adv-x="805" 
d="M389 1196l166 315h168l-246 -315h-88zM139 0v1077h623v-112h-490v-965h-133z" />
    <glyph glyph-name="afii10101" unicode="&#x454;" horiz-adv-x="915" 
d="M86 539q0 144 32.5 249.5t88.5 174.5t130.5 103t158.5 34q74 0 130 -24.5t97 -65.5t69 -95.5t48 -115.5l-121 -35q-15 48 -34.5 88.5t-46.5 70t-63 46t-83 16.5q-51 0 -97.5 -22.5t-83.5 -69.5t-60.5 -119t-29.5 -170h436v-106h-438q3 -92 23.5 -167t56 -128t84.5 -82
t109 -29q92 0 148.5 57t90.5 166l115 -36q-47 -149 -137 -225.5t-224 -76.5q-84 0 -157 37t-127 108.5t-84.5 176.5t-30.5 240z" />
    <glyph glyph-name="afii10102" unicode="&#x455;" horiz-adv-x="877" 
d="M49 205l98 63q53 -86 127 -131t164 -45q113 0 172.5 48t59.5 128q0 53 -24.5 89.5t-64 63.5t-90.5 47t-104 41t-104 46t-90.5 60.5t-64 85t-24.5 120.5q0 60 23.5 111t66.5 88.5t103 58.5t133 21q123 0 208 -54t138 -145l-98 -65q-40 69 -100 110t-148 41
q-50 0 -86.5 -12.5t-60.5 -34.5t-35.5 -51t-11.5 -62q0 -53 24 -89.5t63.5 -62.5t90 -45.5t103 -40t103 -45.5t90 -61t63.5 -87t24 -124q0 -67 -28 -121t-76.5 -92t-114.5 -58.5t-142 -20.5q-136 0 -230.5 59t-156.5 166z" />
    <glyph glyph-name="afii10103" unicode="&#x456;" horiz-adv-x="432" 
d="M147 1313v157h138v-157h-138zM150 0v1077h133v-1077h-133z" />
    <glyph glyph-name="afii10104" unicode="&#x457;" horiz-adv-x="432" 
d="M-9 1192v164h146v-164h-146zM302 1192v164h144v-164h-144zM150 0v1077h133v-1077h-133z" />
    <glyph glyph-name="afii10105" unicode="&#x458;" horiz-adv-x="432" 
d="M10 -295q10 -2 25.5 -3t27.5 -1q44 0 65.5 27.5t21.5 87.5v1261h133v-1259q0 -119 -48 -173.5t-157 -54.5q-6 0 -15.5 0.5t-20 1t-19.5 1t-13 1.5v111zM147 1313v157h138v-157h-138z" />
    <glyph glyph-name="afii10106" unicode="&#x459;" horiz-adv-x="1415" 
d="M25 0v111q55 0 90.5 6.5t55.5 26t28 56t8 95.5v782h717v-436h198q90 0 160.5 -16.5t119 -54t74 -98.5t25.5 -150q0 -82 -27 -142.5t-76 -100.5t-118 -59.5t-154 -19.5h-333v965h-455v-668q0 -96 -21 -154t-60.5 -89.5t-98 -42t-133.5 -11.5zM924 115h200q130 0 190 52.5
t60 156.5q0 57 -15.5 94.5t-46.5 60t-77.5 32t-108.5 9.5h-202v-405z" />
    <glyph glyph-name="afii10107" unicode="&#x45a;" horiz-adv-x="1376" 
d="M139 0v1077h131v-440h484v440h131v-438h198q90 0 160.5 -16.5t119 -54t74 -98t25.5 -148.5q0 -83 -27 -143.5t-76 -100t-118 -59t-154 -19.5h-333v518h-482v-518h-133zM885 115h200q130 0 190 51.5t60 155.5q0 57 -15.5 94.5t-46.5 60t-77.5 32t-108.5 9.5h-202v-403z
" />
    <glyph glyph-name="afii10108" unicode="&#x45b;" horiz-adv-x="1014" 
d="M31 1223v116h108v177h133v-177h220v-116h-220v-297q28 31 66.5 62t83 56t94.5 40.5t102 15.5q135 0 201 -75.5t66 -223.5v-801h-133v778q0 103 -38 154t-130 51q-42 0 -83.5 -14t-81.5 -37.5t-77.5 -54t-69.5 -62.5v-815h-133v1223h-108z" />
    <glyph glyph-name="afii10109" unicode="&#x45c;" horiz-adv-x="922" 
d="M420 1194l166 315h168l-246 -315h-88zM139 0v1077h133v-581q9 15 26 40t38.5 55t46 62.5t47.5 63.5l266 360h140l-293 -391l331 -686h-137l-278 575l-187 -245v-330h-133z" />
    <glyph glyph-name="afii10110" unicode="&#x45e;" horiz-adv-x="920" 
d="M18 -389l27 108q20 -6 54 -10t71 -4t64 10.5t47.5 33t36 56.5t30.5 82l35 103l-336 1087h135l176 -594q13 -45 25 -85.5t23 -79.5t21.5 -78t21.5 -82h4q12 44 23.5 85t23 81.5t23.5 82.5t26 89l172 581h127l-371 -1200q-24 -75 -50 -129.5t-61.5 -90t-84 -52.5
t-115.5 -17q-43 0 -84.5 7.5t-63.5 15.5zM190 1518h90q13 -117 55 -170.5t117 -53.5q77 0 119 53.5t53 170.5h91q-3 -77 -21.5 -138.5t-51.5 -104.5t-81 -66t-109 -23t-108 23t-80 66t-51.5 104.5t-22.5 138.5z" />
    <glyph glyph-name="afii10193" unicode="&#x45f;" horiz-adv-x="1024" 
d="M139 0v1077h133v-962h482v962h131v-1077h-305v-410h-134v410h-307z" />
    <glyph glyph-name="afii10050" unicode="&#x490;" horiz-adv-x="979" 
d="M164 0v1516h608v256h137v-386h-604v-1386h-141z" />
    <glyph glyph-name="afii10098" unicode="&#x491;" horiz-adv-x="805" 
d="M139 0v1077h490v346h133v-462h-490v-961h-133z" />
    <glyph glyph-name="Wgrave" unicode="&#x1e80;" horiz-adv-x="1577" 
d="M70 1516h131l174 -818q14 -63 25.5 -116.5t22.5 -106t22 -109t24 -126.5h4q12 70 23 126.5t22 109t22.5 106t24.5 116.5l164 818h127l170 -840q12 -60 23.5 -113t22 -104.5t20.5 -105t20 -113.5h4q11 57 21.5 110.5t21.5 106t22.5 107t24.5 114.5l176 838h125l-338 -1522
h-116l-262 1270h-5l-262 -1270h-116zM502 1925h170l164 -315h-90z" />
    <glyph glyph-name="wgrave" unicode="&#x1e81;" horiz-adv-x="1292" 
d="M47 1077h129l146 -579q10 -40 18 -74.5t16.5 -69t16.5 -72t18 -83.5h4q9 45 17 82.5t16 72.5t16.5 71.5t18.5 78.5l129 573h119l131 -569q19 -83 36.5 -155t32.5 -154h4q8 42 16.5 79.5t17.5 74.5t18.5 75.5t19.5 81.5l139 567h119l-278 -1083h-117l-201 862h-4
l-203 -862h-114zM360 1509h170l164 -315h-90z" />
    <glyph glyph-name="Wacute" unicode="&#x1e82;" horiz-adv-x="1577" 
d="M752 1610l166 315h168l-246 -315h-88zM70 1516h131l174 -818q14 -63 25.5 -116.5t22.5 -106t22 -109t24 -126.5h4q12 70 23 126.5t22 109t22.5 106t24.5 116.5l164 818h127l170 -840q12 -60 23.5 -113t22 -104.5t20.5 -105t20 -113.5h4q11 57 21.5 110.5t21.5 106
t22.5 107t24.5 114.5l176 838h125l-338 -1522h-116l-262 1270h-5l-262 -1270h-116z" />
    <glyph glyph-name="wacute" unicode="&#x1e83;" horiz-adv-x="1292" 
d="M610 1194l166 315h168l-246 -315h-88zM47 1077h129l146 -579q10 -40 18 -74.5t16.5 -69t16.5 -72t18 -83.5h4q9 45 17 82.5t16 72.5t16.5 71.5t18.5 78.5l129 573h119l131 -569q19 -83 36.5 -155t32.5 -154h4q8 42 16.5 79.5t17.5 74.5t18.5 75.5t19.5 81.5l139 567h119
l-278 -1083h-117l-201 862h-4l-203 -862h-114z" />
    <glyph glyph-name="Wdieresis" unicode="&#x1e84;" horiz-adv-x="1577" 
d="M563 1608v164h146v-164h-146zM874 1608v164h144v-164h-144zM70 1516h131l174 -818q14 -63 25.5 -116.5t22.5 -106t22 -109t24 -126.5h4q12 70 23 126.5t22 109t22.5 106t24.5 116.5l164 818h127l170 -840q12 -60 23.5 -113t22 -104.5t20.5 -105t20 -113.5h4
q11 57 21.5 110.5t21.5 106t22.5 107t24.5 114.5l176 838h125l-338 -1522h-116l-262 1270h-5l-262 -1270h-116z" />
    <glyph glyph-name="wdieresis" unicode="&#x1e85;" horiz-adv-x="1292" 
d="M420 1192v164h146v-164h-146zM731 1192v164h144v-164h-144zM47 1077h129l146 -579q10 -40 18 -74.5t16.5 -69t16.5 -72t18 -83.5h4q9 45 17 82.5t16 72.5t16.5 71.5t18.5 78.5l129 573h119l131 -569q19 -83 36.5 -155t32.5 -154h4q8 42 16.5 79.5t17.5 74.5t18.5 75.5
t19.5 81.5l139 567h119l-278 -1083h-117l-201 862h-4l-203 -862h-114z" />
    <glyph glyph-name="Ygrave" unicode="&#x1ef2;" horiz-adv-x="1055" 
d="M39 1516h143l346 -754h4l347 754h135l-416 -879v-637h-141v633zM270 1925h170l164 -315h-90z" />
    <glyph glyph-name="ygrave" unicode="&#x1ef3;" horiz-adv-x="920" 
d="M18 -389l27 108q20 -6 54 -10t71 -4t64 10.5t47.5 33t36 56.5t30.5 82l35 103l-336 1087h135l176 -594q13 -45 25 -85.5t23 -79.5t21.5 -78t21.5 -82h4q12 44 23.5 85t23 81.5t23.5 82.5t26 89l172 581h127l-371 -1200q-24 -75 -50 -129.5t-61.5 -90t-84 -52.5
t-115.5 -17q-43 0 -84.5 7.5t-63.5 15.5zM201 1509h170l164 -315h-90z" />
    <glyph glyph-name="uni2002" unicode="&#x2002;" horiz-adv-x="395" 
 />
    <glyph glyph-name="uni2003" unicode="&#x2003;" horiz-adv-x="395" 
 />
    <glyph glyph-name="uni2007" unicode="&#x2007;" horiz-adv-x="395" 
 />
    <glyph glyph-name="uni2009" unicode="&#x2009;" horiz-adv-x="395" 
 />
    <glyph glyph-name="figuredash" unicode="&#x2012;" 
d="M137 582v120h883v-120h-883z" />
    <glyph glyph-name="endash" unicode="&#x2013;" horiz-adv-x="1130" 
d="M111 582v123h907v-123h-907z" />
    <glyph glyph-name="emdash" unicode="&#x2014;" horiz-adv-x="1554" 
d="M111 582v123h1331v-123h-1331z" />
    <glyph glyph-name="afii00208" unicode="&#x2015;" horiz-adv-x="0" 
 />
    <glyph glyph-name="quoteleft" unicode="&#x2018;" horiz-adv-x="483" 
d="M160 1118v176l86 222h63l-49 -207h62v-191h-162z" />
    <glyph glyph-name="quoteright" unicode="&#x2019;" horiz-adv-x="483" 
d="M160 1325v191h162v-177l-86 -221h-64l51 207h-63z" />
    <glyph glyph-name="quotesinglbase" unicode="&#x201a;" horiz-adv-x="483" 
d="M160 0v190h162v-176l-86 -221h-64l51 207h-63z" />
    <glyph glyph-name="quotedblleft" unicode="&#x201c;" horiz-adv-x="817" 
d="M160 1118v176l86 222h63l-49 -207h62v-191h-162zM496 1118v176l84 222h61l-47 -207h61v-191h-159z" />
    <glyph glyph-name="quotedblright" unicode="&#x201d;" horiz-adv-x="817" 
d="M160 1325v191h162v-177l-86 -221h-64l51 207h-63zM496 1325v191h157v-177l-84 -221h-61l47 207h-59z" />
    <glyph glyph-name="quotedblbase" unicode="&#x201e;" horiz-adv-x="817" 
d="M160 0v190h162v-176l-86 -221h-64l51 207h-63zM496 0v190h157v-176l-84 -221h-61l47 207h-59z" />
    <glyph glyph-name="dagger" unicode="&#x2020;" horiz-adv-x="971" 
d="M86 852v131l350 -22l-24 555h145l-22 -555l350 22v-131l-350 20l22 -1282h-145l24 1282z" />
    <glyph glyph-name="daggerdbl" unicode="&#x2021;" horiz-adv-x="969" 
d="M96 61v129l340 -20l-16 389l16 379l-340 -20v129l340 -21l-24 490h145l-25 -490l340 21v-129l-340 20l19 -379l-19 -389l340 20v-129l-340 21l25 -492h-145l24 492z" />
    <glyph glyph-name="bullet" unicode="&#x2022;" horiz-adv-x="948" 
d="M236 717q0 52 18 96t49.5 75.5t75 49.5t94.5 18q52 0 96 -18t76 -49.5t50 -75.5t18 -96q0 -51 -18 -95t-50 -75.5t-76 -49.5t-96 -18q-51 0 -94.5 18t-75 49.5t-49.5 75.5t-18 95z" />
    <glyph glyph-name="ellipsis" unicode="&#x2026;" horiz-adv-x="1446" 
d="M158 0v190h164v-190h-164zM639 0v190h164v-190h-164zM1120 0v190h164v-190h-164z" />
    <glyph glyph-name="perthousand" unicode="&#x2030;" horiz-adv-x="2341" 
d="M102 1085q0 224 74 340.5t213 116.5q136 0 209.5 -116.5t73.5 -340.5t-73.5 -340t-209.5 -116q-139 0 -213 116t-74 340zM221 1085q0 -180 42.5 -265t125.5 -85q84 0 125 85.5t41 264.5q0 178 -43 264.5t-123 86.5q-87 0 -127.5 -85t-40.5 -266zM389 0l770 1516h121
l-770 -1516h-121zM999 436q0 223 74 340t213 117q136 0 208.5 -117t72.5 -340q0 -224 -72.5 -340t-208.5 -116q-139 0 -213 116t-74 340zM1118 436q0 -180 42.5 -266t125.5 -86q84 0 125 86t41 266q0 178 -43 263t-123 85q-86 0 -127 -84t-41 -264zM1671 436q0 223 74 340
t211 117t209.5 -117t72.5 -340q0 -224 -72.5 -340t-209.5 -116t-211 116t-74 340zM1788 436q0 -180 43 -266t125 -86q85 0 125.5 86t40.5 266q0 178 -43.5 263t-122.5 85q-85 0 -126.5 -84t-41.5 -264z" />
    <glyph glyph-name="minute" unicode="&#x2032;" horiz-adv-x="420" 
d="M127 1004l39 403l18 109h135l-116 -512h-76z" />
    <glyph glyph-name="second" unicode="&#x2033;" horiz-adv-x="731" 
d="M127 1004l39 403l18 109h135l-116 -512h-76zM440 1004l43 403l19 109h133l-119 -512h-76z" />
    <glyph glyph-name="guilsinglleft" unicode="&#x2039;" horiz-adv-x="547" 
d="M68 541l247 536h136l-244 -536l244 -541h-136z" />
    <glyph glyph-name="guilsinglright" unicode="&#x203a;" horiz-adv-x="547" 
d="M96 0l244 541l-244 536h133l252 -536l-252 -541h-133z" />
    <glyph glyph-name="uni2215" unicode="&#x2044;" horiz-adv-x="881" 
d="M-4 0l766 1516h123l-764 -1516h-125z" />
    <glyph glyph-name="uni2215" unicode="&#x2215;" horiz-adv-x="881" 
d="M-4 0l766 1516h123l-764 -1516h-125z" />
    <glyph glyph-name="uni2070" unicode="&#x2070;" horiz-adv-x="817" 
d="M115 1073q0 224 74.5 341.5t218.5 117.5q145 0 219.5 -117.5t74.5 -341.5t-74.5 -340.5t-219.5 -116.5q-144 0 -218.5 116.5t-74.5 340.5zM231 1073q0 -97 12 -164.5t34.5 -110t55.5 -62t75 -19.5q44 0 77.5 19.5t56 62t33.5 110t11 164.5t-12 164.5t-35 110.5t-56 62.5
t-75 19.5q-43 0 -76 -19.5t-55.5 -62.5t-34 -110.5t-11.5 -164.5z" />
    <glyph glyph-name="uni2074" unicode="&#x2074;" horiz-adv-x="707" 
d="M61 846v76l334 594h117v-570h121v-100h-121v-213h-109v213h-342zM180 944h226v406z" />
    <glyph glyph-name="uni2075" unicode="&#x2075;" horiz-adv-x="723" 
d="M98 791l88 47q16 -31 32 -53.5t35 -37.5t43.5 -22.5t57.5 -7.5q46 0 75.5 17t46 45.5t22.5 66t6 78.5q0 93 -29.5 142.5t-103.5 49.5q-57 0 -88 -22.5t-50 -53.5l-94 15l29 461h407l-8 -105h-309l-17 -254q28 26 66.5 40.5t85.5 14.5q51 0 92 -15.5t70 -49.5t45 -89
t16 -134q0 -158 -70 -233t-190 -75q-52 0 -91.5 12t-69.5 34.5t-53.5 55t-43.5 73.5z" />
    <glyph glyph-name="uni2076" unicode="&#x2076;" horiz-adv-x="750" 
d="M115 1067q0 100 16 185.5t51 147.5t90.5 97t133.5 35q43 0 76.5 -10t60.5 -27t47.5 -39t36.5 -45l-84 -59q-25 34 -57.5 59t-84.5 25q-90 0 -132 -84t-46 -238q37 34 82.5 61t102.5 27q66 0 111 -21.5t72.5 -60t39.5 -90.5t12 -112q0 -64 -17 -119t-50 -95.5t-81 -64
t-110 -23.5t-112 27t-85 82.5t-54 140.5t-19 201zM227 1001q8 -140 48 -213t112 -73t110 51.5t38 151.5q0 41 -7 75.5t-23.5 59.5t-44 39t-67.5 14q-52 0 -91.5 -27.5t-74.5 -77.5z" />
    <glyph glyph-name="uni2077" unicode="&#x2077;" horiz-adv-x="639" 
d="M98 1411v105h471v-101l-317 -782h-115l316 778h-355z" />
    <glyph glyph-name="uni2078" unicode="&#x2078;" horiz-adv-x="748" 
d="M98 848q0 46 13 82.5t37 66t57.5 54t73.5 47.5q-34 20 -61 41t-45.5 46.5t-28 57t-9.5 70.5q0 44 15 83.5t45 69.5t75 48t105 18q61 0 106 -17t74.5 -46.5t44 -69.5t14.5 -86q0 -39 -9.5 -69.5t-27.5 -55.5t-45 -46t-61 -42q42 -23 75 -47t56 -53t35 -65.5t12 -84.5
t-17 -90.5t-51.5 -74.5t-86 -50.5t-119.5 -18.5t-120 18t-87 49.5t-52.5 74t-17.5 90.5zM209 854q0 -32 11.5 -58.5t33 -46.5t52 -31t69.5 -11q75 0 119.5 40.5t44.5 108.5q0 34 -12 60t-34 48.5t-53.5 43t-70.5 43.5q-39 -23 -69 -43.5t-50.5 -43.5t-30.5 -49.5t-10 -60.5z
M244 1313q0 -29 8.5 -52t26 -42t43 -36.5t59.5 -35.5q32 18 55.5 34.5t39 35.5t23 41t7.5 51q0 24 -6.5 47.5t-21.5 41.5t-39.5 29t-61.5 11q-35 0 -60.5 -11t-41.5 -28.5t-23.5 -40t-7.5 -45.5z" />
    <glyph glyph-name="uni2079" unicode="&#x2079;" horiz-adv-x="750" 
d="M106 1231q0 64 17 119t50 95.5t81.5 63.5t110.5 23t112 -27t85 -82t54 -140t19 -200q0 -101 -16 -187t-50.5 -148t-89.5 -97t-133 -35q-43 0 -77.5 10.5t-61.5 27.5t-47.5 38.5t-36.5 44.5l84 60q26 -34 58 -59t85 -25q45 0 77 21.5t53.5 62.5t32.5 101t13 138
q-18 -18 -38.5 -34t-43.5 -28.5t-48.5 -20t-53.5 -7.5q-66 0 -111 21.5t-73 60t-40 90.5t-12 113zM215 1231q0 -42 7 -77.5t23.5 -60.5t43.5 -39t67 -14q54 0 93.5 28.5t74.5 76.5q-9 142 -49 215.5t-113 73.5q-71 0 -109 -53t-38 -150z" />
    <glyph glyph-name="uni2080" unicode="&#x2080;" horiz-adv-x="817" 
d="M115 34q0 224 74.5 341.5t218.5 117.5q145 0 219.5 -117.5t74.5 -341.5t-74.5 -340.5t-219.5 -116.5q-144 0 -218.5 116.5t-74.5 340.5zM231 34q0 -97 12 -164.5t34.5 -110t55.5 -62t75 -19.5q44 0 77.5 19.5t56 62t33.5 110t11 164.5t-12 164.5t-35 110.5t-56 62.5
t-75 19.5q-43 0 -76 -19.5t-55.5 -62.5t-34 -110.5t-11.5 -164.5z" />
    <glyph glyph-name="uni2081" unicode="&#x2081;" horiz-adv-x="596" 
d="M114 -406v104h137v647q-28 -12 -62.5 -19t-72.5 -7v102q52 2 88.5 15t62.5 41h101v-779h120v-104h-374z" />
    <glyph glyph-name="uni2082" unicode="&#x2082;" horiz-adv-x="678" 
d="M86 -398v39q0 88 29 151t72.5 110.5t94 85.5t94 77t72.5 84.5t29 107.5q0 66 -30.5 104t-92.5 38q-55 0 -93.5 -40t-65.5 -114l-101 41q84 215 262 215q113 0 173.5 -63.5t60.5 -178.5q0 -68 -27 -119.5t-67.5 -93.5t-89 -78.5t-90.5 -75t-71.5 -82.5t-33.5 -101h381
v-107h-506z" />
    <glyph glyph-name="uni2083" unicode="&#x2083;" horiz-adv-x="698" 
d="M66 -197l96 41q18 -43 37.5 -72t41.5 -47t47.5 -25.5t55.5 -7.5q72 0 113 44.5t41 113.5q0 43 -11 76.5t-36 56t-65 34t-97 11.5h-43v88h63q91 0 131.5 39.5t40.5 112.5q0 27 -7 50.5t-22 41.5t-39.5 28.5t-58.5 10.5q-52 0 -93 -27.5t-79 -77.5l-82 58q106 149 262 149
q61 0 105 -18t72.5 -49t41.5 -71t13 -85q0 -72 -33 -122.5t-92 -78.5q69 -29 104 -83.5t35 -141.5q0 -57 -18 -105t-52 -82.5t-82.5 -53.5t-109.5 -19q-106 0 -173 55.5t-107 155.5z" />
    <glyph glyph-name="uni2084" unicode="&#x2084;" horiz-adv-x="707" 
d="M61 -193v76l334 594h117v-570h121v-100h-121v-213h-109v213h-342zM180 -95h226v406z" />
    <glyph glyph-name="uni2085" unicode="&#x2085;" horiz-adv-x="723" 
d="M98 -248l88 47q16 -31 32 -53.5t35 -37.5t43.5 -22.5t57.5 -7.5q46 0 75.5 17t46 45.5t22.5 66t6 78.5q0 93 -29.5 142.5t-103.5 49.5q-57 0 -88 -22.5t-50 -53.5l-94 15l29 461h407l-8 -105h-309l-17 -254q28 26 66.5 40.5t85.5 14.5q51 0 92 -15.5t70 -49.5t45 -89
t16 -134q0 -158 -70 -233t-190 -75q-52 0 -91.5 12t-69.5 34.5t-53.5 55t-43.5 73.5z" />
    <glyph glyph-name="uni2086" unicode="&#x2086;" horiz-adv-x="750" 
d="M115 28q0 100 16 185.5t51 147.5t90.5 97t133.5 35q43 0 76.5 -10t60.5 -27t47.5 -39t36.5 -45l-84 -59q-25 34 -57.5 59t-84.5 25q-90 0 -132 -84t-46 -238q37 34 82.5 61t102.5 27q66 0 111 -21.5t72.5 -60t39.5 -90.5t12 -112q0 -64 -17 -119t-50 -95.5t-81 -64
t-110 -23.5t-112 27t-85 82.5t-54 140.5t-19 201zM227 -38q8 -140 48 -213t112 -73t110 51.5t38 151.5q0 41 -7 75.5t-23.5 59.5t-44 39t-67.5 14q-52 0 -91.5 -27.5t-74.5 -77.5z" />
    <glyph glyph-name="uni2087" unicode="&#x2087;" horiz-adv-x="639" 
d="M98 372v105h471v-101l-317 -782h-115l316 778h-355z" />
    <glyph glyph-name="uni2088" unicode="&#x2088;" horiz-adv-x="748" 
d="M98 -191q0 46 13 82.5t37 66t57.5 54t73.5 47.5q-34 20 -61 41t-45.5 46.5t-28 57t-9.5 70.5q0 44 15 83.5t45 69.5t75 48t105 18q61 0 106 -17t74.5 -46.5t44 -69.5t14.5 -86q0 -39 -9.5 -69.5t-27.5 -55.5t-45 -46t-61 -42q42 -23 75 -47t56 -53t35 -65.5t12 -84.5
t-17 -90.5t-51.5 -74.5t-86 -50.5t-119.5 -18.5t-120 18t-87 49.5t-52.5 74t-17.5 90.5zM209 -185q0 -32 11.5 -58.5t33 -46.5t52 -31t69.5 -11q75 0 119.5 40.5t44.5 108.5q0 34 -12 60t-34 48.5t-53.5 43t-70.5 43.5q-39 -23 -69 -43.5t-50.5 -43.5t-30.5 -49.5t-10 -60.5
zM244 274q0 -29 8.5 -52t26 -42t43 -36.5t59.5 -35.5q32 18 55.5 34.5t39 35.5t23 41t7.5 51q0 24 -6.5 47.5t-21.5 41.5t-39.5 29t-61.5 11q-35 0 -60.5 -11t-41.5 -28.5t-23.5 -40t-7.5 -45.5z" />
    <glyph glyph-name="uni2089" unicode="&#x2089;" horiz-adv-x="750" 
d="M106 192q0 64 17 119t50 95.5t81.5 63.5t110.5 23t112 -27t85 -82t54 -140t19 -200q0 -101 -16 -187t-50.5 -148t-89.5 -97t-133 -35q-43 0 -77.5 10.5t-61.5 27.5t-47.5 38.5t-36.5 44.5l84 60q26 -34 58 -59t85 -25q45 0 77 21.5t53.5 62.5t32.5 101t13 138
q-18 -18 -38.5 -34t-43.5 -28.5t-48.5 -20t-53.5 -7.5q-66 0 -111 21.5t-73 60t-40 90.5t-12 113zM215 192q0 -42 7 -77.5t23.5 -60.5t43.5 -39t67 -14q54 0 93.5 28.5t74.5 76.5q-9 142 -49 215.5t-113 73.5q-71 0 -109 -53t-38 -150z" />
    <glyph glyph-name="Euro" unicode="&#x20ac;" horiz-adv-x="1225" 
d="M31 547v112h207q0 26 -1 52.5t-1 52.5v46q0 24 2 46h-207v113h215q16 152 56.5 261t101 178.5t138.5 102.5t169 33q94 0 165.5 -33.5t123 -91t84.5 -135.5t49 -166l-132 -24q-14 71 -36 131t-56 103.5t-82 68t-114 24.5q-134 0 -219.5 -110t-110.5 -342h377v-113h-387
v-88v-56q0 -27 2 -53h385v-112h-377q25 -227 108 -340t230 -113q67 0 117.5 24.5t87 69.5t61 108.5t39.5 141.5l127 -22q-17 -94 -52 -175t-89 -141t-127 -94.5t-164 -34.5q-95 0 -174.5 33.5t-140.5 104t-101 179.5t-57 259h-217z" />
    <glyph glyph-name="afii61289" unicode="&#x2113;" horiz-adv-x="1104" 
d="M176 471l189 184v465q0 83 17.5 149.5t50.5 113.5t82 72.5t112 25.5q57 0 96.5 -20.5t64 -52.5t35.5 -70t11 -72q0 -73 -19 -140t-52.5 -130t-80 -123.5t-100.5 -120.5l-76 -95v-342q0 -110 43 -158t117 -48q30 0 55.5 7.5t47 19.5t40.5 27.5t35 31.5l47 -66
q-21 -21 -48 -43.5t-61.5 -41.5t-76.5 -31.5t-93 -12.5q-69 0 -116 23t-76.5 63t-42 95t-12.5 120v252l-146 -147zM506 766l100 127q27 39 51.5 82.5t43 89t29.5 91t11 87.5q0 62 -25.5 100.5t-76.5 38.5q-66 0 -99.5 -59t-33.5 -190v-367z" />
    <glyph glyph-name="afii61352" unicode="&#x2116;" horiz-adv-x="1939" 
d="M164 0v1516h172l506 -984q20 -38 36.5 -70.5t31.5 -63.5l32 -63q16 -32 35 -71h4v1252h127v-1516h-129l-535 1032q-22 43 -40 77.5t-34 67.5l-35 69q-18 36 -40 83h-4v-1329h-127zM1270 1143q0 97 22 172t61.5 126t93.5 77t118 26t118.5 -26t94.5 -77t62 -126t22 -172
t-22 -171.5t-62 -125.5t-94.5 -77t-118.5 -26q-63 0 -117 26t-93.5 77t-62 125.5t-22.5 171.5zM1305 504v104h530v-104h-530zM1376 1145q0 -62 11 -118t34 -98.5t58.5 -67.5t85.5 -25q48 0 83.5 23t59 64.5t35.5 98t12 123.5q0 61 -11 116.5t-34 96.5t-59 65.5t-86 24.5
q-47 0 -82.5 -23t-59 -63.5t-35.5 -96t-12 -120.5z" />
    <glyph glyph-name="uni2117" unicode="&#x2117;" horiz-adv-x="1452" 
d="M82 758q0 109 22.5 209.5t63.5 188t99 159t129.5 122.5t155 79t175.5 28t175 -28t154.5 -79t129.5 -122.5t99 -159t63 -188t22 -209.5q0 -164 -49 -307t-135.5 -250t-204.5 -168.5t-256 -61.5t-255.5 61.5t-203.5 168.5t-135 250t-49 307zM168 758q0 -97 19.5 -187.5
t55 -169t85.5 -143t112 -110.5t134.5 -71.5t152.5 -25.5q79 0 151 25.5t134 71.5t112.5 110.5t86 143t54.5 169t19 187.5q0 146 -42.5 274.5t-117.5 224.5t-177 151.5t-222 55.5q-119 0 -221 -55.5t-176.5 -151.5t-117 -224.5t-42.5 -274.5zM506 313v865h248
q125 0 193.5 -59.5t68.5 -184.5q0 -69 -19.5 -117.5t-55 -78.5t-85.5 -44t-111 -14h-131v-367h-108zM614 780h136q76 0 117.5 34.5t41.5 117.5q0 80 -41.5 112.5t-119.5 32.5h-134v-297z" />
    <glyph glyph-name="trademark" unicode="&#x2122;" horiz-adv-x="1513" 
d="M51 1419v97h549v-97h-223v-786h-105v786h-221zM713 633v883h125l217 -728l217 728h129v-883h-103v670l-200 -670h-88l-203 674v-674h-94z" />
    <glyph glyph-name="uni2126" unicode="&#x2126;" horiz-adv-x="1272" 
d="M113 811q0 156 36.5 290t104.5 232.5t165.5 154.5t219.5 56q123 0 219.5 -57t163.5 -156t102 -232.5t35 -287.5q0 -115 -24 -217.5t-63.5 -189t-92 -156.5t-109.5 -121h277v-127h-414v123q56 51 108 118.5t91.5 152t63.5 186.5t24 223q0 130 -25.5 242t-74 194.5
t-120 129t-163.5 46.5q-89 0 -160 -44t-121 -124.5t-77 -193t-27 -248.5q0 -122 23.5 -224.5t63.5 -187t92 -152t108 -118.5v-123h-412v127h276q-57 49 -109 119t-92.5 157t-64.5 190t-24 218z" />
    <glyph glyph-name="estimated" unicode="&#x212e;" horiz-adv-x="1427" 
d="M78 653q0 141 44 264.5t126.5 215.5t201.5 145t269 53t268.5 -54t200.5 -147t126 -216.5t46 -262.5h-1004v-450q146 -146 357 -146q92 0 163.5 22t129 62t104 94t88.5 119l76 -47q-47 -73 -101 -133.5t-121.5 -104t-150.5 -68t-188 -24.5q-144 0 -261.5 54t-200.5 147
t-128 216t-45 261zM356 733h719v373q-34 31 -75 58t-86.5 46t-95.5 30t-101 11q-105 0 -196.5 -36.5t-164.5 -108.5v-373z" />
    <glyph glyph-name="partialdiff" unicode="&#x2202;" horiz-adv-x="1001" 
d="M86 530q0 132 29.5 233.5t83 170.5t127.5 104t163 35q41 0 80.5 -10.5t75 -31t64.5 -51t49 -71.5q-20 84 -52 157t-76 138.5t-100 124t-124 113.5l75 84q120 -90 203 -192t134 -222t74 -261t23 -308q0 -141 -32 -247.5t-87.5 -177t-131 -106t-162.5 -35.5
q-92 0 -168.5 37.5t-131.5 109t-85.5 174t-30.5 232.5zM221 532q0 -90 16.5 -170t51 -140t87.5 -95t126 -35q68 0 120 32.5t87 91t53 139t18 177.5q0 91 -17.5 169.5t-52 136.5t-86.5 91.5t-122 33.5q-69 0 -121.5 -31t-88 -87.5t-53.5 -136t-18 -176.5z" />
    <glyph glyph-name="uni2206" unicode="&#x2206;" horiz-adv-x="1139" 
d="M61 0l445 1522h127l444 -1522h-1016zM225 117h682l-209 723q-38 136 -70 251t-61 226h-4l-30 -112q-15 -56 -31 -113.5t-33.5 -119t-36.5 -128.5z" />
    <glyph glyph-name="product" unicode="&#x220f;" horiz-adv-x="1249" 
d="M164 -410v1926h921v-1926h-141v1796h-641v-1796h-139z" />
    <glyph glyph-name="summation" unicode="&#x2211;" horiz-adv-x="973" 
d="M74 -299l395 883l-371 821v111h787v-130h-627l360 -802l-385 -867h666v-127h-825v111z" />
    <glyph glyph-name="minus" unicode="&#x2212;" horiz-adv-x="1081" 
d="M96 612v117h887v-117h-887z" />
    <glyph glyph-name="radical" unicode="&#x221a;" horiz-adv-x="1014" 
d="M43 1077h133l189 -641q9 -35 18 -67.5t18.5 -67t20 -72.5t22.5 -84h5q11 45 21 83t20 72t19 67t19 69l318 1080h125l-459 -1522h-139z" />
    <glyph glyph-name="infinity" unicode="&#x221e;" horiz-adv-x="1323" 
d="M66 735q0 172 74 262t216 90q99 0 173 -64t133 -179q58 115 133 179t174 64q142 0 215 -90t73 -262q0 -173 -73 -261.5t-215 -88.5q-98 0 -173.5 66t-133.5 182q-59 -116 -133.5 -182t-172.5 -66q-142 0 -216 88.5t-74 261.5zM182 735q0 -115 45.5 -175t130.5 -60
q45 0 80 19t64.5 51.5t54 75t47.5 89.5q-23 46 -47.5 89t-54 76t-64.5 53t-80 20q-85 0 -130.5 -61t-45.5 -177zM721 739q22 -47 46.5 -90t54 -76t65 -53t80.5 -20q86 0 131 60t45 175q0 116 -45 177t-131 61q-45 0 -80.5 -19.5t-65 -51.5t-54 -74.5t-46.5 -88.5z" />
    <glyph glyph-name="integral" unicode="&#x222b;" horiz-adv-x="586" 
d="M68 -297q8 -2 23 -3t28 -1q43 0 64.5 27.5t21.5 87.5v1443q0 136 73 198.5t207 62.5q5 0 15.5 -0.5t21.5 -0.5t19.5 -0.5t9.5 -0.5v-115q-1 1 -9.5 1.5t-19.5 0.5h-20h-10q-34 0 -62.5 -7.5t-48.5 -24t-31.5 -43.5t-11.5 -66v-1444q0 -120 -48 -174t-157 -54h-15l-20 2
q-10 0 -18.5 0.5t-11.5 1.5v109z" />
    <glyph glyph-name="approxequal" unicode="&#x2248;" horiz-adv-x="1139" 
d="M131 420q11 109 68 159.5t139 45.5q32 -1 72 -12t83 -27t87.5 -35t85 -35t75 -27t58.5 -12q41 -3 67.5 16t32.5 78l100 -10q-11 -111 -64.5 -161.5t-139.5 -45.5q-34 1 -75 12.5t-84.5 28t-87.5 35.5t-84 35.5t-73.5 27.5t-56.5 13q-44 0 -71 -20t-34 -78zM143 801
q6 55 23.5 95t44.5 65.5t62.5 36.5t76.5 10q32 -2 72 -13.5t83 -28t87 -35t84 -35t74.5 -28t58.5 -12.5q42 -2 68.5 18t31.5 80l101 -10q-11 -111 -65.5 -162.5t-139.5 -46.5q-33 1 -74 12t-84.5 27.5t-87.5 35.5t-84 35.5t-74 27.5t-57 12q-42 3 -69 -17t-33 -80z" />
    <glyph glyph-name="notequal" unicode="&#x2260;" horiz-adv-x="1151" 
d="M131 389v115h322l139 323h-461v117h506l162 391h123l-162 -391h262v-117h-305l-142 -323h447v-115h-492l-155 -389h-125l158 389h-277z" />
    <glyph glyph-name="lessequal" unicode="&#x2264;" horiz-adv-x="1165" 
d="M115 137v113h919v-113h-919zM123 696v101l897 368v-129l-733 -288l733 -291v-129z" />
    <glyph glyph-name="greaterequal" unicode="&#x2265;" horiz-adv-x="1167" 
d="M131 137v113h920v-113h-920zM158 328v129l731 288l-731 291v129l895 -368v-101z" />
    <glyph glyph-name="lozenge" unicode="&#x25ca;" horiz-adv-x="1130" 
d="M102 758l402 758h119l405 -758l-403 -758h-121zM242 758l321 -600l324 600l-324 600z" />
    <glyph glyph-name="uni2713" unicode="&#x2713;" horiz-adv-x="1161" 
d="M18 1087h265l266 -802h4l410 1231h243l-538 -1518h-256z" />
    <glyph glyph-name="uniE000" unicode="&#xe000;" horiz-adv-x="1075" 
d="M0 1075h1075v-1075h-1075v1075z" />
    </font>
</defs>
</svg>
