<?xml version="1.0" standalone="no"?>
<!DOCTYPE svg PUBLIC "-//W3C//DTD SVG 1.1//EN" "http://www.w3.org/Graphics/SVG/1.1/DTD/svg11.dtd" >
<svg xmlns="http://www.w3.org/2000/svg" xmlns:xlink="http://www.w3.org/1999/xlink" version="1.1">
<metadata>
Created by FontForge 20170731 at Wed Feb 22 20:06:10 2012
 By Aleksey,,,
Copyright (c) The Font Bureau, Inc., 2008. All rights reserved.
</metadata>
<defs>
<font id="BentonSans-Regular" horiz-adv-x="650" >
  <font-face 
    font-family="BentonSans Regular"
    font-weight="400"
    font-stretch="normal"
    units-per-em="1000"
    panose-1="2 0 5 3 0 0 0 2 0 4"
    ascent="787"
    descent="-213"
    x-height="528"
    cap-height="740"
    bbox="-94 -248 1352 1078"
    underline-thickness="50"
    underline-position="-200"
    unicode-range="U+0020-FB04"
  />
<missing-glyph horiz-adv-x="500" 
d="M0 0v700h500v-700h-500zM50 650v-600h400v600h-400z" />
    <glyph glyph-name="f_f" unicode="ff" horiz-adv-x="645" 
d="M203 0h-86v457h-92v71h92v71q0 68 38 105.5t114 37.5q9 0 27 -1.5t21 -1.5v-69q-18 2 -35 2q-79 0 -79 -74v-70h213v69q0 145 158 145q9 0 27.5 -1.5t22.5 -1.5v-70q-14 3 -37 3q-85 0 -85 -74v-70h116v-71h-116v-457h-86v457h-213v-457z" />
    <glyph glyph-name="f_i" unicode="fi" horiz-adv-x="591" 
d="M203 0h-86v457h-92v71h92v71q0 68 38 105.5t114 37.5q9 0 26.5 -1.5t21.5 -1.5v-70q-9 2 -35 2q-79 0 -79 -74v-69h110v-71h-110v-457zM502 0h-86v528h86v-528zM503 638h-88v87h88v-87z" />
    <glyph glyph-name="f_l" unicode="fl" horiz-adv-x="589" 
d="M203 0h-86v457h-92v71h92v71q0 68 38 105.5t114 37.5q9 0 26.5 -1.5t21.5 -1.5v-70q-9 2 -35 2q-79 0 -79 -74v-69h110v-71h-110v-457zM502 0h-86v740h86v-740z" />
    <glyph glyph-name="f_f_i" unicode="ffi" horiz-adv-x="881" 
d="M203 0h-86v457h-92v71h92v71q0 68 38 105.5t114 37.5q9 0 27 -1.5t21 -1.5v-70q-9 2 -35 2q-79 0 -79 -74v-69h213v68q0 69 38.5 107.5t113.5 38.5q8 0 25.5 -1.5t21.5 -1.5v-70q-8 2 -35 2q-78 0 -78 -74v-69h109v-71h-109v-457h-86v457h-213v-457zM800 0h-86v528h86
v-528zM801 638h-88v87h88v-87z" />
    <glyph glyph-name="f_f_l" unicode="ffl" horiz-adv-x="881" 
d="M203 0h-86v457h-92v71h92v71q0 68 38 105.5t114 37.5q9 0 27 -1.5t21 -1.5v-70q-9 2 -35 2q-79 0 -79 -74v-69h213v68q0 69 38.5 107.5t113.5 38.5q8 0 25.5 -1.5t21.5 -1.5v-70q-8 2 -35 2q-78 0 -78 -74v-69h109v-71h-109v-457h-86v457h-213v-457zM800 0h-86v740h86
v-740z" />
    <glyph glyph-name="f_j" unicode="fj" horiz-adv-x="589" 
d="M203 0h-86v457h-92v71h92v71q0 68 38 105.5t114 37.5q9 0 26.5 -1.5t21.5 -1.5v-70q-9 2 -35 2q-79 0 -79 -74v-69h110v-71h-110v-457zM380 -201q-24 0 -52 4v65q16 -4 35 -4q53 0 53 61v603h86v-609q0 -58 -28 -89t-94 -31zM503 638h-88v87h88v-87z" />
    <glyph glyph-name=".notdef" horiz-adv-x="500" 
d="M0 0v700h500v-700h-500zM50 650v-600h400v600h-400z" />
    <glyph glyph-name=".null" horiz-adv-x="0" 
 />
    <glyph glyph-name="nonmarkingreturn" horiz-adv-x="333" 
 />
    <glyph glyph-name="space" unicode=" " horiz-adv-x="234" 
 />
    <glyph glyph-name="exclam" unicode="!" horiz-adv-x="321" 
d="M190 208h-56l-26 532h107zM213 0h-103v103h103v-103z" />
    <glyph glyph-name="quotedbl" unicode="&#x22;" horiz-adv-x="415" 
d="M143 485h-48l-17 196v59h82v-59zM319 485h-47l-17 196v59h81v-59z" />
    <glyph glyph-name="numbersign" unicode="#" horiz-adv-x="718" 
d="M190 0h-79l44 211h-115v69h130l37 180h-124v69h139l44 211h79l-44 -211h177l44 211h79l-44 -211h120v-69h-134l-38 -180h129v-69h-143l-45 -211h-79l44 211h-176zM287 460l-38 -180h177l37 180h-176z" />
    <glyph glyph-name="dollar" unicode="$" horiz-adv-x="654" 
d="M295 -93v88q-89 7 -148 47.5t-91 96.5l64 42q35 -52 76 -81t102 -35v286q-51 15 -84.5 28.5t-68 36.5t-51.5 57.5t-17 80.5q0 80 58.5 133.5t159.5 59.5v72h62v-74q134 -13 205 -126l-63 -47q-29 46 -61 70.5t-83 30.5v-258q55 -15 90.5 -29.5t73 -39t56 -61.5t18.5 -88
q0 -85 -62.5 -140.5t-173.5 -62.5v-87h-62zM355 335v-270q154 11 154 125q0 59 -39 90t-115 55zM298 432v243q-68 -4 -102.5 -35t-34.5 -79q0 -51 34.5 -79.5t102.5 -49.5z" />
    <glyph glyph-name="percent" unicode="%" horiz-adv-x="995" 
d="M231 299q-82 0 -127.5 61t-45.5 163q0 104 47 166t127 62q79 0 125 -61t46 -164q0 -102 -46 -164.5t-126 -62.5zM764 -10q-81 0 -126.5 61.5t-45.5 162.5q0 104 47 166t127 62q79 0 125 -61t46 -164q0 -101 -46.5 -164t-126.5 -63zM316 0h-78l442 740h78zM765 55
q46 0 71 44.5t25 116.5q0 75 -25 117.5t-72 42.5t-71.5 -43.5t-24.5 -115.5q0 -75 25 -118.5t72 -43.5zM232 365q45 0 70 44t25 115q0 75 -25 118t-71 43q-47 0 -71.5 -43.5t-24.5 -115.5q0 -75 25 -118t72 -43z" />
    <glyph glyph-name="ampersand" unicode="&#x26;" horiz-adv-x="725" 
d="M284 -14q-120 0 -184.5 53.5t-64.5 143.5q0 76 46.5 129.5t126.5 95.5q-50 89 -50 169q0 74 47 125.5t133 51.5q78 0 120 -41.5t42 -104.5q0 -72 -48.5 -122t-136.5 -94q16 -25 64 -86q66 -85 119 -138q57 78 73 204h80q-21 -151 -94 -249q74 -57 147 -57v-76
q-114 4 -202 74q-91 -78 -218 -78zM283 444q67 35 102.5 71t35.5 87q0 35 -21.5 58.5t-61.5 23.5q-46 0 -71.5 -27.5t-25.5 -74.5q0 -66 42 -138zM290 59q91 0 155 52q-55 52 -134 151q-45 57 -68 91q-120 -70 -120 -161q0 -65 42.5 -99t124.5 -34z" />
    <glyph glyph-name="quotesingle" unicode="'" horiz-adv-x="239" 
d="M143 485h-48l-17 196v59h82v-59z" />
    <glyph glyph-name="parenleft" unicode="(" horiz-adv-x="399" 
d="M351 -164l-41 -41q-251 211 -251 480q0 141 63 258t188 222l39 -43q-197 -187 -197 -437q0 -253 199 -439z" />
    <glyph glyph-name="parenright" unicode=")" horiz-adv-x="399" 
d="M89 -205l-41 41q93 88 145.5 200t52.5 239q0 251 -197 437l40 43q125 -105 187.5 -222t62.5 -258q0 -270 -250 -480z" />
    <glyph glyph-name="asterisk" unicode="*" horiz-adv-x="508" 
d="M254 506l-77 -163l-57 33l102 148l-180 -12v62l181 -13l-103 148l57 34l77 -163l77 163l57 -34l-102 -148l180 13v-62l-180 12l102 -148l-56 -33z" />
    <glyph glyph-name="plus" unicode="+" horiz-adv-x="638" 
d="M356 77h-74v220h-216v72h216v220h74v-220h217v-72h-217v-220z" />
    <glyph glyph-name="comma" unicode="," horiz-adv-x="271" 
d="M136 -105h-40l27 105h-39v105h103v-93z" />
    <glyph glyph-name="hyphen" unicode="-" horiz-adv-x="357" 
d="M295 280h-233v68h233v-68z" />
    <glyph glyph-name="period" unicode="." horiz-adv-x="271" 
d="M187 0h-103v105h103v-105z" />
    <glyph glyph-name="slash" unicode="/" horiz-adv-x="566" 
d="M113 0h-90l430 740h90z" />
    <glyph glyph-name="zero" unicode="0" horiz-adv-x="661" 
d="M331 -14q-131 0 -205 104t-74 280t74 280t205 104t204 -104t73 -280t-73 -280t-204 -104zM331 63q90 0 140 79t50 228q0 148 -50.5 227t-139.5 79q-92 0 -141.5 -78.5t-49.5 -227.5q0 -148 51 -227.5t140 -79.5z" />
    <glyph glyph-name="one" unicode="1" horiz-adv-x="437" 
d="M403 0h-349v78h139v570q-64 -34 -137 -34v78q93 3 141 48h82v-662h124v-78z" />
    <glyph glyph-name="two" unicode="2" horiz-adv-x="592" 
d="M533 0h-489v16q0 87 52.5 165.5t190.5 166.5q87 56 121.5 97t34.5 98q0 61 -37 97t-102 36q-114 0 -181 -122l-68 42q87 158 253 158q102 0 161.5 -56.5t59.5 -148.5q0 -74 -40.5 -130.5t-145.5 -122.5q-187 -119 -200 -218h390v-78z" />
    <glyph glyph-name="three" unicode="3" horiz-adv-x="597" 
d="M287 -14q-83 0 -150.5 35t-110.5 100l64 48q74 -106 197 -106q78 0 123 37t45 103q0 78 -53.5 115t-174.5 37h-30v73h35q111 0 158 32.5t47 96.5q0 118 -147 118q-103 0 -174 -84l-57 53q94 109 238 109q112 0 169.5 -52t57.5 -133q0 -69 -38 -114.5t-106 -60.5
q162 -32 162 -192q0 -95 -69.5 -155t-185.5 -60z" />
    <glyph glyph-name="four" unicode="4" horiz-adv-x="619" 
d="M472 0h-85v171h-357v67l337 502h105v-492h125v-77h-125v-171zM385 637l-258 -389h260v389h-2z" />
    <glyph glyph-name="five" unicode="5" horiz-adv-x="587" 
d="M285 -14q-80 0 -145 34t-106 92l59 54q82 -103 190 -103q86 0 131 51.5t45 128.5q0 83 -44 127.5t-117 44.5q-102 0 -163 -86l-63 22l29 389h402l-7 -79h-324l-18 -236q57 64 161 64t167.5 -66t63.5 -176q0 -115 -70.5 -188t-190.5 -73z" />
    <glyph glyph-name="six" unicode="6" horiz-adv-x="619" 
d="M322 -14q-121 0 -195.5 94.5t-74.5 276.5q0 177 85 287t215 110q108 0 181 -58l-44 -65q-61 46 -140 46q-95 0 -152 -85.5t-59 -219.5q90 94 206 94q111 0 172 -63t61 -169q0 -108 -72 -178t-183 -70zM327 61q76 0 120.5 45.5t44.5 125.5q0 73 -39.5 116t-121.5 43
q-56 0 -107.5 -27.5t-83.5 -70.5q10 -117 60 -174.5t127 -57.5z" />
    <glyph glyph-name="seven" unicode="7" horiz-adv-x="547" 
d="M202 0h-90l306 661h-375v79h467v-74z" />
    <glyph glyph-name="eight" unicode="8" horiz-adv-x="613" 
d="M307 -16q-125 0 -198 55.5t-73 141.5q0 72 48 121t142 89q-79 37 -117.5 78t-38.5 105q0 73 64.5 127.5t172.5 54.5q109 0 172 -54t63 -128q0 -62 -38.5 -103t-118.5 -77q99 -43 145 -89.5t46 -123.5q0 -85 -72.5 -141t-196.5 -56zM311 426q81 36 113.5 66t32.5 77
q0 46 -38.5 79.5t-111.5 33.5q-72 0 -111.5 -32.5t-39.5 -77.5q0 -48 34.5 -78.5t120.5 -67.5zM307 57q81 0 131.5 35t50.5 94q0 55 -44.5 93t-143.5 79q-95 -43 -136 -81t-41 -91q0 -57 51 -93t132 -36z" />
    <glyph glyph-name="nine" unicode="9" horiz-adv-x="619" 
d="M267 -14q-114 0 -189 64l43 65q68 -53 149 -53q94 0 151 86t59 220q-90 -94 -206 -94q-111 0 -171.5 63t-60.5 169q0 108 72 178t183 70q120 0 194.5 -94.5t74.5 -276.5q0 -177 -84.5 -287t-214.5 -110zM288 349q56 0 107 27.5t83 70.5q-9 117 -59 174t-127 57
q-76 0 -120.5 -45t-44.5 -125q0 -73 39 -116t122 -43z" />
    <glyph glyph-name="colon" unicode=":" horiz-adv-x="275" 
d="M189 422h-103v106h103v-106zM189 0h-103v105h103v-105z" />
    <glyph glyph-name="semicolon" unicode=";" horiz-adv-x="275" 
d="M137 -105h-40l28 105h-39v105h103v-92zM189 422h-103v106h103v-106z" />
    <glyph glyph-name="less" unicode="&#x3c;" horiz-adv-x="638" 
d="M582 145v-77l-529 227v58l529 227v-77l-432 -179z" />
    <glyph glyph-name="equal" unicode="=" horiz-adv-x="638" 
d="M571 405h-505v69h505v-69zM571 177h-505v69h505v-69z" />
    <glyph glyph-name="greater" unicode="&#x3e;" horiz-adv-x="638" 
d="M587 295l-529 -227v77l432 179l-432 179v77l529 -227v-58z" />
    <glyph glyph-name="question" unicode="?" horiz-adv-x="549" 
d="M283 207h-70q-3 32 -3 67q0 53 22 88.5t71 64.5q63 39 86 65.5t23 75.5q0 50 -37 79t-101 29q-105 0 -178 -96l-59 49q99 125 243 125q101 0 160 -50t59 -131q0 -66 -32 -106t-94 -76q-61 -35 -75.5 -67t-14.5 -117zM299 0h-102v103h102v-103z" />
    <glyph glyph-name="at" unicode="@" horiz-adv-x="868" 
d="M431 -14q-170 0 -277 106.5t-107 276.5t109.5 277.5t278.5 107.5q168 0 277 -105t109 -269q0 -103 -48.5 -164t-125.5 -61q-97 0 -121 76q-76 -71 -164 -71q-67 0 -107 40.5t-40 118.5q0 116 58 193t148 77q74 0 127 -53l7 45h70l-44 -296q-6 -37 13.5 -60t60.5 -23
q52 0 85 45.5t33 130.5q0 146 -95 238t-243 92q-149 0 -243.5 -94.5t-94.5 -244.5q0 -149 94 -244t241 -95q109 0 201 52l21 -36q-99 -60 -223 -60zM379 217q68 0 131 60l30 199q-46 53 -115 53q-61 0 -100 -59.5t-39 -143.5q0 -109 93 -109z" />
    <glyph glyph-name="A" unicode="A" horiz-adv-x="680" 
d="M117 0h-85l262 743h92l262 -743h-91l-73 212h-294zM337 636l-120 -347h240l-118 347h-2z" />
    <glyph glyph-name="B" unicode="B" horiz-adv-x="691" 
d="M377 0h-286v740h265q122 0 187.5 -47t65.5 -138q0 -72 -38 -115t-99 -56v-2q73 -14 117 -58.5t44 -121.5q0 -94 -67 -148t-189 -54zM178 341v-264h193q175 0 175 131q0 133 -193 133h-175zM178 662v-245h170q175 0 175 124q0 64 -41.5 92.5t-131.5 28.5h-172z" />
    <glyph glyph-name="C" unicode="C" horiz-adv-x="705" 
d="M369 -14q-143 0 -228.5 103.5t-85.5 283.5q0 172 87 276.5t227 104.5q217 0 274 -227l-84 -23q-25 87 -69 128t-122 41q-103 0 -163.5 -81t-60.5 -218q0 -146 60.5 -227t165.5 -81q155 0 201 179l83 -19q-28 -113 -100 -176.5t-185 -63.5z" />
    <glyph glyph-name="D" unicode="D" horiz-adv-x="715" 
d="M286 0h-195v740h195q181 0 277 -92t96 -276q0 -185 -97 -278.5t-276 -93.5zM179 659v-580h118q137 0 205.5 70.5t68.5 222.5q0 147 -69.5 217t-206.5 70h-116z" />
    <glyph glyph-name="E" unicode="E" horiz-adv-x="609" 
d="M566 0h-475v740h454v-81h-366v-231h272v-79h-272v-269h387v-80z" />
    <glyph glyph-name="F" unicode="F" horiz-adv-x="569" 
d="M179 0h-88v740h444v-81h-356v-238h262v-79h-262v-342z" />
    <glyph glyph-name="G" unicode="G" horiz-adv-x="730" 
d="M364 -14q-146 0 -227.5 107t-81.5 280q0 174 87.5 277.5t227.5 103.5q216 0 274 -229l-82 -21q-26 90 -71 129.5t-122 39.5q-95 0 -160 -75t-65 -222q0 -150 63 -230.5t165 -80.5q88 0 141 57t54 158h-170v74h255v-354h-77v111h-2q-25 -53 -77.5 -89t-131.5 -36z" />
    <glyph glyph-name="H" unicode="H" horiz-adv-x="739" 
d="M179 0h-88v740h88v-310h381v310h88v-740h-88v349h-381v-349z" />
    <glyph glyph-name="I" unicode="I" horiz-adv-x="290" 
d="M189 0h-88v740h88v-740z" />
    <glyph glyph-name="J" unicode="J" horiz-adv-x="505" 
d="M212 -14q-118 0 -188 97l59 50q51 -70 126 -70q125 0 125 143v534h88v-540q0 -103 -55.5 -158.5t-154.5 -55.5z" />
    <glyph glyph-name="K" unicode="K" horiz-adv-x="678" 
d="M179 0h-88v740h88v-382l335 382h106l-254 -282l289 -458h-101l-246 391l-129 -141v-250z" />
    <glyph glyph-name="L" unicode="L" horiz-adv-x="569" 
d="M535 0h-444v740h88v-660h356v-80z" />
    <glyph glyph-name="M" unicode="M" horiz-adv-x="878" 
d="M172 0h-81v740h115l233 -629h2l229 629h117v-740h-87v599h-2q-6 -24 -45 -136l-177 -463h-79l-177 463q-32 86 -46 139h-2v-602z" />
    <glyph glyph-name="N" unicode="N" horiz-adv-x="749" 
d="M174 0h-83v740h93l389 -585h2v585h83v-740h-79l-403 601h-2v-601z" />
    <glyph glyph-name="O" unicode="O" horiz-adv-x="749" 
d="M375 -14q-140 0 -230 104.5t-90 279.5t90 279.5t230 104.5t229 -104t89 -280t-89 -280t-229 -104zM375 65q103 0 166.5 81.5t63.5 223.5t-63.5 223t-166.5 81q-104 0 -167.5 -81t-63.5 -223t63.5 -223.5t167.5 -81.5z" />
    <glyph glyph-name="P" unicode="P" horiz-adv-x="649" 
d="M179 0h-88v740h251q125 0 196 -52t71 -158q0 -112 -74 -164.5t-199 -52.5h-157v-313zM179 660v-269h162q91 0 136 31.5t45 104.5q0 70 -45 101.5t-137 31.5h-161z" />
    <glyph glyph-name="Q" unicode="Q" horiz-adv-x="749" 
d="M627 -188h-77q-109 0 -166 49t-59 130q-120 16 -195 118.5t-75 260.5q0 174 91 279t229 105q137 0 227.5 -105t90.5 -279q0 -161 -78 -263.5t-201 -116.5q7 -59 46.5 -80.5t115.5 -21.5h51v-76zM375 64q102 0 165.5 82t63.5 224t-63 223t-166 81q-104 0 -168 -81
t-64 -223t64 -224t168 -82z" />
    <glyph glyph-name="R" unicode="R" horiz-adv-x="677" 
d="M178 0h-87v740h254q127 0 195 -53t68 -154q0 -167 -172 -203l182 -330h-96l-177 319h-167v-319zM178 660v-263h162q91 0 136 30t45 103q0 70 -45 100t-137 30h-161z" />
    <glyph glyph-name="S" unicode="S" horiz-adv-x="657" 
d="M334 -14q-104 0 -177 52t-103 141l74 33q55 -148 210 -148q79 0 126 32t47 90q0 55 -39 88t-147 67q-131 40 -188.5 84t-57.5 133q0 85 66.5 140.5t171.5 55.5q100 0 165 -45t96 -121l-70 -39q-56 125 -192 125q-69 0 -109.5 -30.5t-40.5 -78.5q0 -57 40 -86t155 -65
q123 -38 180 -85.5t57 -136.5q0 -92 -73 -149t-191 -57z" />
    <glyph glyph-name="T" unicode="T" horiz-adv-x="623" 
d="M355 0h-88v659h-235v81h559v-81h-236v-659z" />
    <glyph glyph-name="U" unicode="U" horiz-adv-x="717" 
d="M359 -13q-137 0 -206 74t-69 195v484h88v-472q0 -93 46.5 -147.5t141.5 -54.5q94 0 140 53t46 147v474h87v-482q0 -121 -71 -196t-203 -75z" />
    <glyph glyph-name="V" unicode="V" horiz-adv-x="666" 
d="M374 -3h-82l-260 743h90l212 -625h2l213 625h85z" />
    <glyph glyph-name="W" unicode="W" horiz-adv-x="931" 
d="M314 0h-81l-197 740h89l109 -429q32 -121 43 -181h2q15 79 42 180l103 430h89l106 -433q36 -149 41 -177h2q8 40 41 174l108 436h84l-196 -740h-81l-149 619h-2z" />
    <glyph glyph-name="X" unicode="X" horiz-adv-x="670" 
d="M123 0h-91l254 395l-223 345h101l175 -275l172 275h93l-221 -344l255 -396h-96l-209 326z" />
    <glyph glyph-name="Y" unicode="Y" horiz-adv-x="631" 
d="M359 0h-88v324l-249 416h94l201 -341l200 341h92l-250 -416v-324z" />
    <glyph glyph-name="Z" unicode="Z" horiz-adv-x="630" 
d="M581 0h-541v62l433 604h-405v74h513v-64l-430 -603h430v-73z" />
    <glyph glyph-name="bracketleft" unicode="[" horiz-adv-x="399" 
d="M355 -200h-271v940h271v-64h-184v-812h184v-64z" />
    <glyph glyph-name="backslash" unicode="\" horiz-adv-x="556" 
d="M538 0h-90l-430 740h90z" />
    <glyph glyph-name="bracketright" unicode="]" horiz-adv-x="399" 
d="M314 -200h-271v64h184v811h-184v65h271v-940z" />
    <glyph glyph-name="asciicircum" unicode="^" horiz-adv-x="638" 
d="M64 336l228 404h57l227 -404h-76l-180 317l-179 -317h-77z" />
    <glyph glyph-name="underscore" unicode="_" horiz-adv-x="500" 
d="M500 -132h-500v67h500v-67z" />
    <glyph glyph-name="grave" unicode="`" horiz-adv-x="500" 
d="M335 585h-57l-142 158h105z" />
    <glyph glyph-name="a" unicode="a" horiz-adv-x="553" 
d="M193 -8q-69 0 -109 35t-40 98q0 84 82 138.5t271 81.5v24q0 98 -100 98q-99 0 -191 -80l-45 54q107 98 245 98q176 0 176 -176v-233q0 -93 15 -130h-88q-12 38 -12 73q-87 -81 -204 -81zM218 60q100 0 179 77v148q-145 -23 -206.5 -59t-61.5 -88q0 -38 23.5 -58t65.5 -20
z" />
    <glyph glyph-name="b" unicode="b" horiz-adv-x="599" 
d="M327 -8q-92 0 -165 76v-68h-86v740h86v-286q76 85 174 85q95 0 155 -70.5t60 -203.5t-61.5 -203t-162.5 -70zM315 62q71 0 110.5 50t39.5 152q0 98 -41 149.5t-108 51.5q-80 0 -154 -81v-242q71 -80 153 -80z" />
    <glyph glyph-name="c" unicode="c" horiz-adv-x="536" 
d="M281 -11q-98 0 -166.5 73t-68.5 202q0 135 72 205t170 70q146 0 207 -148l-73 -30q-40 105 -136 105q-64 0 -108.5 -49t-44.5 -153q0 -96 41.5 -149.5t109.5 -53.5q51 0 84 24.5t58 81.5l71 -28q-34 -72 -85 -111t-131 -39z" />
    <glyph glyph-name="d" unicode="d" horiz-adv-x="599" 
d="M262 -8q-95 0 -155 69t-60 202t62 204.5t163 71.5q96 0 164 -78v279h86v-610q0 -94 16 -130h-90q-12 34 -12 75q-76 -83 -174 -83zM283 63q79 0 153 81v242q-71 80 -152 80q-71 0 -111 -51t-40 -153q0 -97 41.5 -148t108.5 -51z" />
    <glyph glyph-name="e" unicode="e" horiz-adv-x="552" 
d="M285 -11q-100 0 -169.5 72t-69.5 203q0 69 21.5 123.5t56.5 86.5t76.5 48.5t84.5 16.5q99 0 159.5 -70.5t60.5 -208.5v-18h-373q2 -86 46.5 -134.5t112.5 -48.5q54 0 90.5 21t68.5 65l50 -44q-78 -112 -215 -112zM134 309h289q-5 73 -40.5 115.5t-98.5 42.5
q-57 0 -99 -40t-51 -118z" />
    <glyph glyph-name="f" unicode="f" horiz-adv-x="344" 
d="M203 0h-86v457h-92v71h92v71q0 143 159 143q8 0 27 -1.5t22 -1.5v-70q-12 3 -37 3q-85 0 -85 -74v-70h116v-71h-116v-457z" />
    <glyph glyph-name="g" unicode="g" horiz-adv-x="575" 
d="M272 -203q-255 0 -255 131q0 80 96 117q-45 21 -45 67q0 47 66 85q-81 52 -81 152q0 83 60.5 136.5t154.5 53.5t156 -55q54 41 125 49v-76q-51 0 -95 -17q27 -38 27 -91q0 -85 -60 -136.5t-153 -51.5q-40 0 -84 13q-37 -17 -37 -41q0 -17 16 -25t57 -12l108 -9
q202 -14 202 -137q0 -73 -70 -113t-188 -40zM269 224q61 0 96.5 33t35.5 90q0 58 -35 91.5t-98 33.5q-61 0 -97 -34t-36 -91t36.5 -90t97.5 -33zM283 -138q78 0 123 22t45 58t-32 53t-114 23l-100 7l-30 3q-78 -28 -78 -87q0 -40 44.5 -59.5t141.5 -19.5z" />
    <glyph glyph-name="h" unicode="h" horiz-adv-x="588" 
d="M163 0h-87v740h87v-291q92 90 198 90q75 0 115.5 -41.5t40.5 -116.5v-381h-86v362q0 53 -23.5 78t-73.5 25q-81 0 -171 -85v-380z" />
    <glyph glyph-name="i" unicode="i" horiz-adv-x="250" 
d="M168 0h-86v528h86v-528zM170 641h-90v84h90v-84z" />
    <glyph glyph-name="j" unicode="j" horiz-adv-x="250" 
d="M46 -201q-24 0 -52 4v65q18 -4 34 -4q54 0 54 61v603h86v-609q0 -58 -27.5 -89t-94.5 -31zM170 641h-90v84h90v-84z" />
    <glyph glyph-name="k" unicode="k" horiz-adv-x="540" 
d="M162 0h-86v740h86v-476l236 264h98l-173 -189l192 -339h-92l-156 275l-105 -113v-162z" />
    <glyph glyph-name="l" unicode="l" horiz-adv-x="250" 
d="M168 0h-86v740h86v-740z" />
    <glyph glyph-name="m" unicode="m" horiz-adv-x="917" 
d="M162 0h-86v528h86v-80q91 91 190 91q115 0 145 -93q95 93 195 93q78 0 115.5 -42t37.5 -116v-381h-86v362q0 54 -20.5 78.5t-71.5 24.5q-73 0 -163 -85v-380h-86v362q0 54 -20.5 78.5t-71.5 24.5q-72 0 -164 -85v-380z" />
    <glyph glyph-name="n" unicode="n" horiz-adv-x="588" 
d="M163 0h-87v528h87v-79q92 90 198 90q75 0 115.5 -41.5t40.5 -116.5v-381h-86v362q0 53 -23.5 78t-73.5 25q-81 0 -171 -85v-380z" />
    <glyph glyph-name="o" unicode="o" horiz-adv-x="583" 
d="M292 -11q-103 0 -174.5 72.5t-71.5 202.5t71 202.5t175 72.5q103 0 174 -72.5t71 -202.5t-71 -202.5t-174 -72.5zM292 62q74 0 116 55t42 147q0 87 -41 144t-117 57q-75 0 -117 -55t-42 -146q0 -89 41 -145.5t118 -56.5z" />
    <glyph glyph-name="p" unicode="p" horiz-adv-x="599" 
d="M162 -200h-86v728h86v-73q76 84 174 84q95 0 155 -70.5t60 -203.5t-61.5 -203t-162.5 -70q-92 0 -165 76v-268zM315 62q71 0 110.5 50t39.5 152q0 98 -41 149.5t-108 51.5q-80 0 -154 -81v-242q71 -80 153 -80z" />
    <glyph glyph-name="q" unicode="q" horiz-adv-x="599" 
d="M522 -200h-86v275q-76 -83 -174 -83q-95 0 -155 69t-60 202t62 204.5t163 71.5q92 0 164 -77v66h86v-728zM283 63q79 0 153 81v242q-71 80 -152 80q-71 0 -111 -51t-40 -153q0 -97 41.5 -148t108.5 -51z" />
    <glyph glyph-name="r" unicode="r" horiz-adv-x="400" 
d="M162 0h-86v528h86v-98h2q70 109 204 109h11l-6 -80q-3 1 -25 1q-124 0 -186 -119v-341z" />
    <glyph glyph-name="s" unicode="s" horiz-adv-x="512" 
d="M254 -10q-69 0 -125.5 24.5t-90.5 65.5l52 52q68 -73 165 -73q127 0 127 83q0 38 -31.5 57.5t-104.5 36.5q-97 23 -143 56t-46 103q0 62 50.5 103t134.5 41q121 0 202 -76l-45 -57q-68 63 -153 63q-54 0 -80.5 -20t-26.5 -51q0 -35 29 -53t96 -33q52 -13 83 -23.5
t61 -29.5t43.5 -46.5t13.5 -67.5q0 -74 -59 -114.5t-152 -40.5z" />
    <glyph glyph-name="t" unicode="t" horiz-adv-x="377" 
d="M261 -7q-81 0 -114 32t-33 103v329h-92v71h92v188h86v-188h137v-71h-137v-310q0 -44 18 -64t64 -20q30 0 54 7v-71q-30 -6 -75 -6z" />
    <glyph glyph-name="u" unicode="u" horiz-adv-x="588" 
d="M227 -10q-75 0 -115.5 41t-40.5 116v381h86v-363q0 -53 23.5 -78t73.5 -25q81 0 171 85v381h87v-528h-87v79q-91 -89 -198 -89z" />
    <glyph glyph-name="v" unicode="v" horiz-adv-x="515" 
d="M301 -2h-87l-194 530h92l148 -428h2l146 428h86z" />
    <glyph glyph-name="w" unicode="w" horiz-adv-x="752" 
d="M262 0h-79l-161 528h89l69 -248q31 -110 46 -176h2q22 90 46 177l67 247h75l69 -252q22 -76 44 -172h2q26 101 46 170l72 254h81l-161 -528h-80l-112 413h-2z" />
    <glyph glyph-name="x" unicode="x" horiz-adv-x="518" 
d="M117 0h-90l188 273l-175 255h94l129 -193l128 193h91l-176 -254l187 -274h-93l-142 210z" />
    <glyph glyph-name="y" unicode="y" horiz-adv-x="533" 
d="M106 -203q-56 0 -99 13l20 69q34 -9 78 -9q40 0 62.5 17.5t38.5 57.5l20 52l-204 531h91l155 -427h2l155 427h87l-226 -588q-29 -75 -68 -109t-112 -34z" />
    <glyph glyph-name="z" unicode="z" horiz-adv-x="510" 
d="M471 0h-432v52l309 406h-285v70h393v-54l-310 -405h325v-69z" />
    <glyph glyph-name="braceleft" unicode="{" horiz-adv-x="391" 
d="M353 -200h-77q-132 0 -132 138v180q0 70 -25.5 95t-85.5 25v64q60 0 85.5 25t25.5 95v180q0 138 132 138h77v-64h-44q-78 0 -78 -77v-184q0 -69 -20.5 -99t-64.5 -45v-2q44 -15 64.5 -45t20.5 -99v-184q0 -77 78 -77h44v-64z" />
    <glyph glyph-name="bar" unicode="|" horiz-adv-x="355" 
d="M219 -200h-84v940h84v-940z" />
    <glyph glyph-name="braceright" unicode="}" horiz-adv-x="391" 
d="M120 -200h-82v64h44q78 0 78 77v189q0 68 20 96t65 43v2q-45 15 -65 43t-20 96v189q0 80 -75 80h-44l-3 61h82q67 0 97 -33t30 -100v-185q0 -70 25.5 -95t85.5 -25v-64q-60 0 -85.5 -25t-25.5 -95v-185q0 -67 -30 -100t-97 -33z" />
    <glyph glyph-name="asciitilde" unicode="~" horiz-adv-x="638" 
d="M456 267q-36 2 -147 36t-131 35q-48 3 -53 -46l-56 7q6 59 35.5 86t77.5 25q38 -2 148 -36.5t130 -35.5q49 -2 54 48l55 -6q-6 -60 -36 -88t-77 -25z" />
    <glyph glyph-name="uni00A0" unicode="&#xa0;" horiz-adv-x="234" 
 />
    <glyph glyph-name="exclamdown" unicode="&#xa1;" horiz-adv-x="321" 
d="M213 0h-107l25 532h56zM211 637h-103v103h103v-103z" />
    <glyph glyph-name="cent" unicode="&#xa2;" horiz-adv-x="538" 
d="M130 -129l41 146q-57 32 -91 95.5t-34 151.5q0 134 72 204.5t170 70.5q19 0 28 -1l28 100h54l-31 -111q85 -31 129 -136l-70 -30q-30 74 -82 96l-108 -391q21 -7 48 -7q50 0 84.5 25t61.5 83l68 -28q-70 -150 -217 -150q-31 0 -61 8l-35 -126h-55zM194 89l104 378h-12
q-65 0 -111.5 -49.5t-46.5 -153.5q0 -121 66 -175z" />
    <glyph glyph-name="sterling" unicode="&#xa3;" horiz-adv-x="624" 
d="M218 354h-130v64h94q-46 83 -46 145q0 85 53 138t144 53q99 0 147 -53.5t58 -134.5l-80 -12q-12 126 -125 126q-53 0 -82.5 -31.5t-29.5 -84.5q0 -24 9.5 -53t16 -42t26.5 -51h173v-64h-142q29 -65 29 -131q0 -60 -17 -108q23 -19 37 -29t36 -19t42 -9q47 0 67 29.5
t24 98.5h78q-5 -200 -160 -200q-72 0 -156 72q-52 -72 -143 -72q-45 0 -79.5 27t-34.5 76q0 52 33 83.5t87 31.5q48 0 106 -40q3 23 3 52q0 64 -38 138zM234 101q-52 45 -87 45q-26 0 -41 -15t-15 -40q0 -23 15 -36.5t39 -13.5q62 0 89 60z" />
    <glyph glyph-name="yen" unicode="&#xa5;" horiz-adv-x="629" 
d="M358 0h-88v117h-189v64h189v88h-189v64h186l-243 407h94l198 -336l197 336h92l-245 -407h189v-64h-191v-88h191v-64h-191v-117z" />
    <glyph glyph-name="brokenbar" unicode="&#xa6;" horiz-adv-x="355" 
d="M219 331h-84v409h84v-409zM219 -200h-84v409h84v-409z" />
    <glyph glyph-name="section" unicode="&#xa7;" horiz-adv-x="540" 
d="M270 -200q-164 0 -201 145l70 24q15 -51 43 -76t85 -25q53 0 77 23.5t24 60.5q0 35 -26.5 63.5t-96.5 68.5q-108 63 -149.5 104t-41.5 103q0 99 122 162q-51 38 -71 70t-20 75q0 64 50.5 110t134.5 46q169 0 204 -145l-72 -26q-29 104 -129 104q-53 0 -79.5 -24.5
t-26.5 -60.5q0 -34 27.5 -62.5t99.5 -69.5q108 -63 149.5 -104t41.5 -103q0 -101 -121 -163q50 -37 68 -68.5t18 -75.5q0 -65 -48 -110.5t-132 -45.5zM310 136q99 46 99 115q0 40 -30.5 69t-129.5 88l-20 10q-98 -46 -98 -115q0 -40 30.5 -69t129.5 -88q8 -3 19 -10z" />
    <glyph glyph-name="dieresis" unicode="&#xa8;" horiz-adv-x="510" 
d="M390 583h-89v94h89v-94zM207 583h-88v94h88v-94z" />
    <glyph glyph-name="copyright" unicode="&#xa9;" horiz-adv-x="864" 
d="M432 -14q-161 0 -271.5 111.5t-110.5 271.5q0 161 111 273t272 112q160 0 270.5 -111.5t110.5 -271.5q0 -161 -111 -273t-271 -112zM433 32q139 0 235 98t96 239t-96.5 240t-235.5 99q-140 0 -236 -98t-96 -239t96.5 -240t236.5 -99zM430 155q-80 0 -128 60.5t-48 160.5
q0 97 48 157t129 60q123 0 157 -133l-54 -14q-14 49 -38 72.5t-65 23.5q-53 0 -85 -45.5t-32 -120.5q0 -78 31.5 -123t86.5 -45q80 0 106 102q51 -14 56 -14q-37 -141 -164 -141z" />
    <glyph glyph-name="ordfeminine" unicode="&#xaa;" horiz-adv-x="421" 
d="M157 367q-50 0 -79 25t-29 70q0 60 57.5 98t189.5 56v16q0 67 -67 67q-72 0 -132 -55l-37 37q74 71 176 71q126 0 126 -124v-161q0 -63 13 -92h-70q-8 24 -9 50q-64 -58 -139 -58zM174 421q66 0 122 53v100q-102 -15 -141.5 -41t-39.5 -62q0 -50 59 -50z" />
    <glyph glyph-name="guillemotleft" unicode="&#xab;" horiz-adv-x="542" 
d="M279 0h-87l-151 265l151 263h87l-147 -263zM489 0h-86l-153 265l153 263h86l-149 -263z" />
    <glyph glyph-name="logicalnot" unicode="&#xac;" horiz-adv-x="633" 
d="M567 371v-289h-71v220h-430v69h501z" />
    <glyph glyph-name="registered" unicode="&#xae;" horiz-adv-x="544" 
d="M272 291q-97 0 -164 67.5t-67 165.5t67.5 165.5t164.5 67.5t163.5 -67.5t66.5 -164.5q0 -98 -67 -166t-164 -68zM273 324q83 0 140 58t57 142t-57.5 142.5t-140.5 58.5q-82 0 -139.5 -58.5t-57.5 -141.5q0 -84 57.5 -142.5t140.5 -58.5zM186 400v257h91q92 0 92 -74
q0 -56 -54 -71l61 -112h-43l-58 107h-49v-107h-40zM226 540h49q55 0 55 41q0 40 -56 40h-48v-81z" />
    <glyph glyph-name="macron" unicode="&#xaf;" horiz-adv-x="500" 
d="M385 583h-270v69h270v-69z" />
    <glyph glyph-name="degree" unicode="&#xb0;" horiz-adv-x="405" 
d="M203 466q-63 0 -104.5 41t-41.5 103t41.5 102.5t104.5 40.5q62 0 103.5 -40.5t41.5 -102.5t-41.5 -103t-103.5 -41zM203 517q38 0 62.5 26t24.5 67t-24.5 66.5t-62.5 25.5q-39 0 -63.5 -25.5t-24.5 -66.5t25 -67t63 -26z" />
    <glyph glyph-name="plusminus" unicode="&#xb1;" horiz-adv-x="638" 
d="M66 44v68h217v208h-217v71h217v220h73v-220h217v-71h-217v-208h217v-68h-507z" />
    <glyph glyph-name="two.sups" unicode="&#xb2;" horiz-adv-x="452" 
d="M66 276v21q0 56 32 104.5t118 102.5q52 33 71.5 56t19.5 55q0 33 -19.5 52.5t-56.5 19.5q-65 0 -106 -80l-55 34q57 109 163 109q69 0 107 -36.5t38 -97.5q0 -47 -26.5 -83.5t-94.5 -76.5q-100 -62 -110 -116h233v-64h-314z" />
    <glyph glyph-name="three.sups" unicode="&#xb3;" horiz-adv-x="452" 
d="M224 268q-112 0 -170 96l50 39q45 -72 117 -72q45 0 69 21.5t24 56.5q0 44 -29.5 65t-96.5 21h-28v55h31q60 0 87 17.5t27 54.5q0 29 -20 47t-59 18q-59 0 -107 -56l-46 42q66 77 157 77q73 0 110.5 -34.5t37.5 -87.5q0 -79 -77 -104q88 -27 88 -115q0 -63 -45 -102
t-120 -39z" />
    <glyph glyph-name="acute" unicode="&#xb4;" horiz-adv-x="500" 
d="M222 585h-57l94 158h105z" />
    <glyph glyph-name="mu" unicode="&#xb5;" horiz-adv-x="593" 
d="M162 -200h-86v728h86v-363q0 -104 98 -104q79 0 171 85v382h86v-528h-86v85q-89 -87 -177 -92q-64 -2 -92 29v-222z" />
    <glyph glyph-name="paragraph" unicode="&#xb6;" horiz-adv-x="623" 
d="M370 -200h-69v533q-119 2 -181 53t-62 149q0 90 60.5 147.5t168.5 57.5h251v-940h-68v870h-100v-870z" />
    <glyph glyph-name="periodcentered" unicode="&#xb7;" horiz-adv-x="273" 
d="M189 269h-105v105h105v-105z" />
    <glyph glyph-name="cedilla" unicode="&#xb8;" horiz-adv-x="500" 
d="M253 -196q-73 0 -128 36l20 33q45 -30 100 -30q69 0 69 45q0 34 -40 34q-25 0 -50 -20l-31 15l26 83h47l-15 -52q23 15 56 15q29 0 50 -18t21 -50q0 -45 -35 -68t-90 -23z" />
    <glyph glyph-name="one.sups" unicode="&#xb9;" horiz-adv-x="356" 
d="M76 276v61h85v333q-39 -17 -83 -17v58q62 2 88 29h68v-403h77v-61h-235z" />
    <glyph glyph-name="ordmasculine" unicode="&#xba;" horiz-adv-x="436" 
d="M218 367q-73 0 -124 50.5t-51 141.5q0 93 50.5 143t124.5 50t124.5 -50t50.5 -143q0 -91 -51 -141.5t-124 -50.5zM218 420q50 0 79 39t29 101q0 59 -28 99.5t-80 40.5q-50 0 -79 -39t-29 -101q0 -60 27.5 -100t80.5 -40z" />
    <glyph glyph-name="guillemotright" unicode="&#xbb;" horiz-adv-x="542" 
d="M140 0h-87l148 265l-148 263h87l152 -263zM349 0h-86l148 265l-148 263h86l152 -263z" />
    <glyph glyph-name="onequarter" unicode="&#xbc;" horiz-adv-x="958" 
d="M93 276v62h83v324q-34 -14 -81 -14v63q63 1 89 29h65v-402h75v-62h-231zM751 0v109h-213v48l207 309h79v-295h75v-62h-75v-109h-73zM230 0l443 740h78l-443 -740h-78zM616 168h138v208z" />
    <glyph glyph-name="onehalf" unicode="&#xbd;" horiz-adv-x="995" 
d="M608 0v21q0 55 32 103.5t119 103.5q49 32 69 55.5t20 55.5q0 33 -19.5 52.5t-55.5 19.5q-65 0 -106 -80l-55 34q57 109 163 109q67 0 106 -36.5t39 -97.5q0 -47 -26.5 -83.5t-93.5 -76.5q-101 -63 -109 -116h232v-64h-315zM230 0l443 740h78l-443 -740h-78zM93 276v62h83
v324q-34 -14 -81 -14v63q63 1 89 29h65v-402h75v-62h-231z" />
    <glyph glyph-name="threequarters" unicode="&#xbe;" horiz-adv-x="987" 
d="M224 268q-112 0 -170 96l50 39q45 -72 117 -72q45 0 69 21.5t24 56.5q0 44 -29.5 65t-96.5 21h-28v55h31q60 0 87 17.5t27 54.5q0 29 -20 47t-59 18q-59 0 -107 -56l-46 42q66 77 157 77q73 0 110.5 -34.5t37.5 -87.5q0 -79 -77 -104q88 -27 88 -115q0 -63 -45 -102
t-120 -39zM780 0v109h-213v48l207 309h79v-295h75v-62h-75v-109h-73zM260 0l442 740h78l-442 -740h-78zM645 168h138v208z" />
    <glyph glyph-name="questiondown" unicode="&#xbf;" horiz-adv-x="549" 
d="M269 -14q-101 0 -160 50t-59 131q0 66 32 106t94 76q61 35 75.5 67t14.5 117h70q3 -31 3 -67q0 -53 -22 -88.5t-70 -64.5q-63 -38 -86.5 -65t-23.5 -76q0 -50 37 -79t101 -29q105 0 178 96l59 -49q-99 -125 -243 -125zM352 637h-102v103h102v-103z" />
    <glyph glyph-name="Agrave" unicode="&#xc0;" horiz-adv-x="680" 
d="M117 0h-85l262 743h92l262 -743h-91l-73 212h-294zM337 636l-120 -347h240l-118 347h-2zM371 787h-57l-142 158h105z" />
    <glyph glyph-name="Aacute" unicode="&#xc1;" horiz-adv-x="680" 
d="M117 0h-85l262 743h92l262 -743h-91l-73 212h-294zM337 636l-120 -347h240l-118 347h-2zM366 787h-57l94 158h105z" />
    <glyph glyph-name="Acircumflex" unicode="&#xc2;" horiz-adv-x="680" 
d="M117 0h-85l262 743h92l262 -743h-91l-73 212h-294zM337 636l-120 -347h240l-118 347h-2zM230 784h-52l129 161h63l129 -161h-52l-109 94z" />
    <glyph glyph-name="Atilde" unicode="&#xc3;" horiz-adv-x="680" 
d="M117 0h-85l262 743h92l262 -743h-91l-73 212h-294zM337 636l-120 -347h240l-118 347h-2zM414 782q-32 0 -80 28t-66 28q-22 0 -31.5 -12.5t-9.5 -41.5h-53q0 119 92 119q32 0 80 -28t67 -28q41 0 41 54h51q0 -119 -91 -119z" />
    <glyph glyph-name="Adieresis" unicode="&#xc4;" horiz-adv-x="680" 
d="M117 0h-85l262 743h92l262 -743h-91l-73 212h-294zM337 636l-120 -347h240l-118 347h-2zM474 785h-89v94h89v-94zM291 785h-88v94h88v-94z" />
    <glyph glyph-name="Aring" unicode="&#xc5;" horiz-adv-x="680" 
d="M394 721l254 -721h-91l-73 212h-294l-73 -212h-85l254 721q-41 26 -41 79q0 40 27 66.5t68 26.5t68 -26.5t27 -66.5q0 -53 -41 -79zM337 636l-120 -347h240l-118 347h-2zM340 745q23 0 37.5 15.5t14.5 39.5q0 23 -15 38.5t-37 15.5t-37 -15.5t-15 -38.5q0 -24 14.5 -39.5
t37.5 -15.5z" />
    <glyph glyph-name="AE" unicode="&#xc6;" horiz-adv-x="1010" 
d="M114 0h-89l421 740h499v-81h-365v-231h271v-79h-271v-269h386v-80h-473v228h-250zM492 668l-205 -362h206v362h-1z" />
    <glyph glyph-name="Ccedilla" unicode="&#xc7;" horiz-adv-x="705" 
d="M370 -196q-74 0 -129 36l21 33q45 -30 99 -30q69 0 69 45q0 34 -40 34q-25 0 -50 -20l-30 15l21 71q-126 14 -201 116.5t-75 268.5q0 171 87.5 276t226.5 105q217 0 274 -227l-84 -23q-25 88 -69 131.5t-122 43.5q-103 0 -163.5 -83.5t-60.5 -221.5q0 -146 61 -230
t165 -84q153 0 201 185l83 -19q-27 -111 -96.5 -174t-178.5 -66l-12 -38q23 15 56 15q30 0 50.5 -18t20.5 -50q0 -45 -35 -68t-89 -23z" />
    <glyph glyph-name="Egrave" unicode="&#xc8;" horiz-adv-x="609" 
d="M566 0h-475v740h454v-81h-366v-231h272v-79h-272v-269h387v-80zM369 787h-57l-142 158h105z" />
    <glyph glyph-name="Eacute" unicode="&#xc9;" horiz-adv-x="609" 
d="M566 0h-475v740h454v-81h-366v-231h272v-79h-272v-269h387v-80zM323 787h-57l94 158h105z" />
    <glyph glyph-name="Ecircumflex" unicode="&#xca;" horiz-adv-x="609" 
d="M566 0h-475v740h454v-81h-366v-231h272v-79h-272v-269h387v-80zM208 784h-52l129 161h63l129 -161h-52l-109 94z" />
    <glyph glyph-name="Edieresis" unicode="&#xcb;" horiz-adv-x="609" 
d="M566 0h-475v740h454v-81h-366v-231h272v-79h-272v-269h387v-80zM457 785h-89v94h89v-94zM274 785h-88v94h88v-94z" />
    <glyph glyph-name="Igrave" unicode="&#xcc;" horiz-adv-x="290" 
d="M189 0h-88v740h88v-740zM182 787h-57l-142 158h105z" />
    <glyph glyph-name="Iacute" unicode="&#xcd;" horiz-adv-x="290" 
d="M189 0h-88v740h88v-740zM173 787h-57l94 158h105z" />
    <glyph glyph-name="Icircumflex" unicode="&#xce;" horiz-adv-x="290" 
d="M189 0h-88v740h88v-740zM36 784h-52l129 161h63l129 -161h-52l-109 94z" />
    <glyph glyph-name="Idieresis" unicode="&#xcf;" horiz-adv-x="290" 
d="M189 0h-88v740h88v-740zM280 785h-89v94h89v-94zM97 785h-88v94h88v-94z" />
    <glyph glyph-name="Eth" unicode="&#xd0;" horiz-adv-x="715" 
d="M286 0h-195v352h-80v72h80v316h195q181 0 277 -92.5t96 -277.5q0 -183 -97 -276.5t-276 -93.5zM179 352v-273h118q137 0 205.5 70.5t68.5 222.5q0 147 -69.5 217t-206.5 70h-116v-235h158v-72h-158z" />
    <glyph glyph-name="Ntilde" unicode="&#xd1;" horiz-adv-x="749" 
d="M174 0h-83v740h93l389 -585h2v585h83v-740h-79l-403 601h-2v-601zM457 782q-32 0 -80 28t-66 28q-22 0 -31.5 -12.5t-9.5 -41.5h-53q0 119 92 119q32 0 80 -28t67 -28q41 0 41 54h51q0 -119 -91 -119z" />
    <glyph glyph-name="Ograve" unicode="&#xd2;" horiz-adv-x="749" 
d="M375 -14q-140 0 -230 104.5t-90 279.5t90 279.5t230 104.5t229 -104t89 -280t-89 -280t-229 -104zM375 65q103 0 166.5 81.5t63.5 223.5t-63.5 223t-166.5 81q-104 0 -167.5 -81t-63.5 -223t63.5 -223.5t167.5 -81.5zM415 787h-57l-142 158h105z" />
    <glyph glyph-name="Oacute" unicode="&#xd3;" horiz-adv-x="749" 
d="M375 -14q-140 0 -230 104.5t-90 279.5t90 279.5t230 104.5t229 -104t89 -280t-89 -280t-229 -104zM375 65q103 0 166.5 81.5t63.5 223.5t-63.5 223t-166.5 81q-104 0 -167.5 -81t-63.5 -223t63.5 -223.5t167.5 -81.5zM386 787h-57l94 158h105z" />
    <glyph glyph-name="Ocircumflex" unicode="&#xd4;" horiz-adv-x="749" 
d="M375 -14q-140 0 -230 104.5t-90 279.5t90 279.5t230 104.5t229 -104t89 -280t-89 -280t-229 -104zM375 65q103 0 166.5 81.5t63.5 223.5t-63.5 223t-166.5 81q-104 0 -167.5 -81t-63.5 -223t63.5 -223.5t167.5 -81.5zM265 784h-52l129 161h63l129 -161h-52l-109 94z" />
    <glyph glyph-name="Otilde" unicode="&#xd5;" horiz-adv-x="749" 
d="M375 -14q-140 0 -230 104.5t-90 279.5t90 279.5t230 104.5t229 -104t89 -280t-89 -280t-229 -104zM375 65q103 0 166.5 81.5t63.5 223.5t-63.5 223t-166.5 81q-104 0 -167.5 -81t-63.5 -223t63.5 -223.5t167.5 -81.5zM447 782q-32 0 -80 28t-66 28q-22 0 -31.5 -12.5
t-9.5 -41.5h-53q0 119 92 119q32 0 80 -28t67 -28q41 0 41 54h51q0 -119 -91 -119z" />
    <glyph glyph-name="Odieresis" unicode="&#xd6;" horiz-adv-x="749" 
d="M375 -14q-140 0 -230 104.5t-90 279.5t90 279.5t230 104.5t229 -104t89 -280t-89 -280t-229 -104zM375 65q103 0 166.5 81.5t63.5 223.5t-63.5 223t-166.5 81q-104 0 -167.5 -81t-63.5 -223t63.5 -223.5t167.5 -81.5zM508 785h-89v94h89v-94zM325 785h-88v94h88v-94z" />
    <glyph glyph-name="multiply" unicode="&#xd7;" horiz-adv-x="638" 
d="M319 268l-170 -171l-51 52l169 169l-169 169l51 51l169 -170l169 170l51 -51l-169 -169l170 -169l-51 -51z" />
    <glyph glyph-name="Oslash" unicode="&#xd8;" horiz-adv-x="749" 
d="M690 724l-72 -92q75 -104 75 -262q0 -176 -89 -280t-229 -104q-118 0 -203 76l-65 -82l-49 36l73 92q-76 103 -76 262q0 175 90 279.5t230 104.5q119 0 201 -76l66 82zM561 565l-340 -437q62 -65 154 -65q103 0 167 82.5t64 224.5q0 117 -45 195zM187 174l339 438
q-59 64 -151 64q-104 0 -168.5 -82t-64.5 -224q0 -118 45 -196z" />
    <glyph glyph-name="Ugrave" unicode="&#xd9;" horiz-adv-x="717" 
d="M359 -13q-137 0 -206 74t-69 195v484h88v-472q0 -93 46.5 -147.5t141.5 -54.5q94 0 140 53t46 147v474h87v-482q0 -121 -71 -196t-203 -75zM404 787h-57l-142 158h105z" />
    <glyph glyph-name="Uacute" unicode="&#xda;" horiz-adv-x="717" 
d="M359 -13q-137 0 -206 74t-69 195v484h88v-472q0 -93 46.5 -147.5t141.5 -54.5q94 0 140 53t46 147v474h87v-482q0 -121 -71 -196t-203 -75zM362 787h-57l94 158h105z" />
    <glyph glyph-name="Ucircumflex" unicode="&#xdb;" horiz-adv-x="717" 
d="M359 -13q-137 0 -206 74t-69 195v484h88v-472q0 -93 46.5 -147.5t141.5 -54.5q94 0 140 53t46 147v474h87v-482q0 -121 -71 -196t-203 -75zM249 784h-52l129 161h63l129 -161h-52l-109 94z" />
    <glyph glyph-name="Udieresis" unicode="&#xdc;" horiz-adv-x="717" 
d="M359 -13q-137 0 -206 74t-69 195v484h88v-472q0 -93 46.5 -147.5t141.5 -54.5q94 0 140 53t46 147v474h87v-482q0 -121 -71 -196t-203 -75zM493 785h-89v94h89v-94zM310 785h-88v94h88v-94z" />
    <glyph glyph-name="Yacute" unicode="&#xdd;" horiz-adv-x="631" 
d="M359 0h-88v324l-249 416h94l201 -341l200 341h92l-250 -416v-324zM289 794h-57l94 158h105z" />
    <glyph glyph-name="Thorn" unicode="&#xde;" horiz-adv-x="653" 
d="M179 0h-88v740h88v-135h162q125 -1 196.5 -53t71.5 -158q0 -113 -75 -166t-199 -53h-156v-175zM179 523v-268h160q91 0 136 31.5t45 104.5q0 70 -45 101t-137 31h-159z" />
    <glyph glyph-name="germandbls" unicode="&#xdf;" horiz-adv-x="626" 
d="M382 -11q-104 0 -159 60l47 52q46 -43 111 -43q54 0 86.5 39.5t32.5 105.5q0 87 -58.5 126t-173.5 44v65q84 1 124 34t40 88q0 51 -35 79t-97 28q-138 0 -138 -153v-514h-86v510q0 111 60.5 170.5t165.5 59.5q98 0 155 -46t57 -129q0 -57 -34.5 -97t-94.5 -57
q86 -12 141 -61.5t55 -142.5q0 -100 -53.5 -159t-145.5 -59z" />
    <glyph glyph-name="agrave" unicode="&#xe0;" horiz-adv-x="553" 
d="M193 -8q-69 0 -109 35t-40 98q0 84 82 138.5t271 81.5v24q0 98 -100 98q-99 0 -191 -80l-45 54q107 98 245 98q176 0 176 -176v-233q0 -93 15 -130h-88q-12 38 -12 73q-87 -81 -204 -81zM218 60q100 0 179 77v148q-145 -23 -206.5 -59t-61.5 -88q0 -38 23.5 -58t65.5 -20
zM333 585h-57l-142 158h105z" />
    <glyph glyph-name="aacute" unicode="&#xe1;" horiz-adv-x="553" 
d="M193 -8q-69 0 -109 35t-40 98q0 84 82 138.5t271 81.5v24q0 98 -100 98q-99 0 -191 -80l-45 54q107 98 245 98q176 0 176 -176v-233q0 -93 15 -130h-88q-12 38 -12 73q-87 -81 -204 -81zM218 60q100 0 179 77v148q-145 -23 -206.5 -59t-61.5 -88q0 -38 23.5 -58t65.5 -20
zM294 585h-57l94 158h105z" />
    <glyph glyph-name="acircumflex" unicode="&#xe2;" horiz-adv-x="553" 
d="M193 -8q-69 0 -109 35t-40 98q0 84 82 138.5t271 81.5v24q0 98 -100 98q-99 0 -191 -80l-45 54q107 98 245 98q176 0 176 -176v-233q0 -93 15 -130h-88q-12 38 -12 73q-87 -81 -204 -81zM218 60q100 0 179 77v148q-145 -23 -206.5 -59t-61.5 -88q0 -38 23.5 -58t65.5 -20
zM173 582h-52l129 161h63l129 -161h-52l-109 94z" />
    <glyph glyph-name="atilde" unicode="&#xe3;" horiz-adv-x="553" 
d="M193 -8q-69 0 -109 35t-40 98q0 84 82 138.5t271 81.5v24q0 98 -100 98q-99 0 -191 -80l-45 54q107 98 245 98q176 0 176 -176v-233q0 -93 15 -130h-88q-12 38 -12 73q-87 -81 -204 -81zM218 60q100 0 179 77v148q-145 -23 -206.5 -59t-61.5 -88q0 -38 23.5 -58t65.5 -20
zM354 580q-32 0 -80 28t-66 28q-22 0 -31.5 -12.5t-9.5 -41.5h-53q0 119 92 119q32 0 80 -28t67 -28q41 0 41 54h51q0 -119 -91 -119z" />
    <glyph glyph-name="adieresis" unicode="&#xe4;" horiz-adv-x="553" 
d="M193 -8q-69 0 -109 35t-40 98q0 84 82 138.5t271 81.5v24q0 98 -100 98q-99 0 -191 -80l-45 54q107 98 245 98q176 0 176 -176v-233q0 -93 15 -130h-88q-12 38 -12 73q-87 -81 -204 -81zM218 60q100 0 179 77v148q-145 -23 -206.5 -59t-61.5 -88q0 -38 23.5 -58t65.5 -20
zM422 583h-89v94h89v-94zM239 583h-88v94h88v-94z" />
    <glyph glyph-name="aring" unicode="&#xe5;" horiz-adv-x="553" 
d="M193 -8q-69 0 -109 35t-40 98q0 84 82 138.5t271 81.5v24q0 98 -100 98q-99 0 -191 -80l-45 54q107 98 245 98q176 0 176 -176v-233q0 -93 15 -130h-88q-12 38 -12 73q-87 -81 -204 -81zM218 60q100 0 179 77v148q-145 -23 -206.5 -59t-61.5 -88q0 -38 23.5 -58t65.5 -20
zM288 577q-41 0 -68 27t-27 68q0 40 27 66.5t68 26.5t68 -26.5t27 -66.5q0 -41 -27 -68t-68 -27zM288 617q23 0 37.5 15.5t14.5 39.5q0 23 -15 38.5t-37 15.5t-37 -15.5t-15 -38.5q0 -24 14.5 -39.5t37.5 -15.5z" />
    <glyph glyph-name="ae" unicode="&#xe6;" horiz-adv-x="894" 
d="M192 -11q-69 0 -109 35t-40 98q0 85 82 140.5t271 82.5v24q0 98 -100 98q-99 0 -191 -80l-44 54q107 98 244 98q123 0 150 -101q26 44 72 72.5t100 28.5q96 0 158 -71t62 -208v-15h-372q2 -89 46.5 -137.5t112.5 -48.5q54 0 90 21t68 65l50 -44q-78 -112 -215 -112
q-135 0 -196 112q-107 -112 -239 -112zM217 58q104 0 193 93q-15 44 -15 100q0 29 1 36q-144 -24 -206 -61.5t-62 -90.5q0 -37 23.5 -57t65.5 -20zM477 309h288q-5 73 -40.5 115.5t-98.5 42.5q-57 0 -98.5 -40t-50.5 -118z" />
    <glyph glyph-name="ccedilla" unicode="&#xe7;" horiz-adv-x="538" 
d="M281 -196q-74 0 -129 36l21 33q45 -30 99 -30q69 0 69 45q0 34 -40 34q-25 0 -50 -20l-30 15l22 76q-85 13 -141 83.5t-56 187.5q0 135 72 205t170 70q146 0 207 -148l-73 -30q-22 56 -54 83t-82 27q-64 0 -108.5 -51.5t-44.5 -155.5q0 -96 41.5 -152.5t109.5 -56.5
q50 0 83 26.5t59 85.5l71 -28q-67 -144 -206 -149l-13 -42q23 15 56 15q30 0 50.5 -18t20.5 -50q0 -45 -35 -68t-89 -23z" />
    <glyph glyph-name="egrave" unicode="&#xe8;" horiz-adv-x="552" 
d="M285 -11q-100 0 -169.5 72t-69.5 203q0 69 21.5 123.5t56.5 86.5t76.5 48.5t84.5 16.5q99 0 159.5 -70.5t60.5 -208.5v-18h-373q2 -86 46.5 -134.5t112.5 -48.5q54 0 90.5 21t68.5 65l50 -44q-78 -112 -215 -112zM134 309h289q-5 73 -40.5 115.5t-98.5 42.5
q-57 0 -99 -40t-51 -118zM320 585h-57l-142 158h105z" />
    <glyph glyph-name="eacute" unicode="&#xe9;" horiz-adv-x="552" 
d="M285 -11q-100 0 -169.5 72t-69.5 203q0 69 21.5 123.5t56.5 86.5t76.5 48.5t84.5 16.5q99 0 159.5 -70.5t60.5 -208.5v-18h-373q2 -86 46.5 -134.5t112.5 -48.5q54 0 90.5 21t68.5 65l50 -44q-78 -112 -215 -112zM134 309h289q-5 73 -40.5 115.5t-98.5 42.5
q-57 0 -99 -40t-51 -118zM295 585h-57l94 158h105z" />
    <glyph glyph-name="ecircumflex" unicode="&#xea;" horiz-adv-x="552" 
d="M285 -11q-100 0 -169.5 72t-69.5 203q0 69 21.5 123.5t56.5 86.5t76.5 48.5t84.5 16.5q99 0 159.5 -70.5t60.5 -208.5v-18h-373q2 -86 46.5 -134.5t112.5 -48.5q54 0 90.5 21t68.5 65l50 -44q-78 -112 -215 -112zM134 309h289q-5 73 -40.5 115.5t-98.5 42.5
q-57 0 -99 -40t-51 -118zM173 582h-52l129 161h63l129 -161h-52l-109 94z" />
    <glyph glyph-name="edieresis" unicode="&#xeb;" horiz-adv-x="552" 
d="M285 -11q-100 0 -169.5 72t-69.5 203q0 69 21.5 123.5t56.5 86.5t76.5 48.5t84.5 16.5q99 0 159.5 -70.5t60.5 -208.5v-18h-373q2 -86 46.5 -134.5t112.5 -48.5q54 0 90.5 21t68.5 65l50 -44q-78 -112 -215 -112zM134 309h289q-5 73 -40.5 115.5t-98.5 42.5
q-57 0 -99 -40t-51 -118zM414 583h-89v94h89v-94zM231 583h-88v94h88v-94z" />
    <glyph glyph-name="igrave" unicode="&#xec;" horiz-adv-x="250" 
d="M168 0h-86v528h86v-528zM163 585h-57l-142 158h105z" />
    <glyph glyph-name="iacute" unicode="&#xed;" horiz-adv-x="250" 
d="M168 0h-86v528h86v-528zM157 585h-57l94 158h105z" />
    <glyph glyph-name="icircumflex" unicode="&#xee;" horiz-adv-x="250" 
d="M168 0h-86v528h86v-528zM16 582h-52l129 161h63l129 -161h-52l-109 94z" />
    <glyph glyph-name="idieresis" unicode="&#xef;" horiz-adv-x="250" 
d="M168 0h-86v528h86v-528zM260 583h-89v94h89v-94zM77 583h-88v94h88v-94z" />
    <glyph glyph-name="eth" unicode="&#xf0;" horiz-adv-x="583" 
d="M292 -11q-107 0 -176 72t-69 193q0 122 65.5 190.5t165.5 68.5q47 0 91.5 -23.5t71.5 -63.5q-25 102 -84 169l-103 -40l-26 54l86 33q-27 26 -74 56l42 53q59 -34 102 -75l97 39l25 -55l-80 -33q110 -137 110 -364q0 -125 -69 -199.5t-175 -74.5zM292 60q73 0 115.5 53.5
t42.5 142.5q0 84 -42.5 136.5t-115.5 52.5q-74 0 -116.5 -51t-42.5 -139q0 -86 42 -140.5t117 -54.5z" />
    <glyph glyph-name="ntilde" unicode="&#xf1;" horiz-adv-x="588" 
d="M163 0h-87v528h87v-79q92 90 198 90q75 0 115.5 -41.5t40.5 -116.5v-381h-86v362q0 53 -23.5 78t-73.5 25q-81 0 -171 -85v-380zM374 580q-32 0 -80 28t-66 28q-22 0 -31.5 -12.5t-9.5 -41.5h-53q0 119 92 119q32 0 80 -28t67 -28q41 0 41 54h51q0 -119 -91 -119z" />
    <glyph glyph-name="ograve" unicode="&#xf2;" horiz-adv-x="583" 
d="M292 -11q-103 0 -174.5 72.5t-71.5 202.5t71 202.5t175 72.5q103 0 174 -72.5t71 -202.5t-71 -202.5t-174 -72.5zM292 62q74 0 116 55t42 147q0 87 -41 144t-117 57q-75 0 -117 -55t-42 -146q0 -89 41 -145.5t118 -56.5zM332 585h-57l-142 158h105z" />
    <glyph glyph-name="oacute" unicode="&#xf3;" horiz-adv-x="583" 
d="M292 -11q-103 0 -174.5 72.5t-71.5 202.5t71 202.5t175 72.5q103 0 174 -72.5t71 -202.5t-71 -202.5t-174 -72.5zM292 62q74 0 116 55t42 147q0 87 -41 144t-117 57q-75 0 -117 -55t-42 -146q0 -89 41 -145.5t118 -56.5zM305 585h-57l94 158h105z" />
    <glyph glyph-name="ocircumflex" unicode="&#xf4;" horiz-adv-x="583" 
d="M292 -11q-103 0 -174.5 72.5t-71.5 202.5t71 202.5t175 72.5q103 0 174 -72.5t71 -202.5t-71 -202.5t-174 -72.5zM292 62q74 0 116 55t42 147q0 87 -41 144t-117 57q-75 0 -117 -55t-42 -146q0 -89 41 -145.5t118 -56.5zM182 582h-52l129 161h63l129 -161h-52l-109 94z
" />
    <glyph glyph-name="otilde" unicode="&#xf5;" horiz-adv-x="583" 
d="M292 -11q-103 0 -174.5 72.5t-71.5 202.5t71 202.5t175 72.5q103 0 174 -72.5t71 -202.5t-71 -202.5t-174 -72.5zM292 62q74 0 116 55t42 147q0 87 -41 144t-117 57q-75 0 -117 -55t-42 -146q0 -89 41 -145.5t118 -56.5zM367 580q-32 0 -80 28t-66 28q-22 0 -31.5 -12.5
t-9.5 -41.5h-53q0 119 92 119q32 0 80 -28t67 -28q41 0 41 54h51q0 -119 -91 -119z" />
    <glyph glyph-name="odieresis" unicode="&#xf6;" horiz-adv-x="583" 
d="M292 -11q-103 0 -174.5 72.5t-71.5 202.5t71 202.5t175 72.5q103 0 174 -72.5t71 -202.5t-71 -202.5t-174 -72.5zM292 62q74 0 116 55t42 147q0 87 -41 144t-117 57q-75 0 -117 -55t-42 -146q0 -89 41 -145.5t118 -56.5zM425 583h-89v94h89v-94zM242 583h-88v94h88v-94z
" />
    <glyph glyph-name="divide" unicode="&#xf7;" horiz-adv-x="638" 
d="M573 297h-507v72h507v-72zM364 106h-94v92h94v-92zM364 467h-94v92h94v-92z" />
    <glyph glyph-name="oslash" unicode="&#xf8;" horiz-adv-x="583" 
d="M529 525l-54 -68q62 -75 62 -193q0 -130 -71 -202.5t-174 -72.5q-80 0 -141 44l-54 -68l-42 36l55 69q-64 75 -64 194q0 130 71 202.5t175 72.5q80 0 142 -44l52 66zM162 132l226 301q-40 35 -96 35q-75 0 -118 -56.5t-43 -147.5q0 -77 31 -132zM422 392l-227 -300
q40 -34 97 -34q75 0 117.5 57t42.5 149q0 76 -30 128z" />
    <glyph glyph-name="ugrave" unicode="&#xf9;" horiz-adv-x="588" 
d="M227 -10q-75 0 -115.5 41t-40.5 116v381h86v-363q0 -53 23.5 -78t73.5 -25q81 0 171 85v381h87v-528h-87v79q-91 -89 -198 -89zM337 585h-57l-142 158h105z" />
    <glyph glyph-name="uacute" unicode="&#xfa;" horiz-adv-x="588" 
d="M227 -10q-75 0 -115.5 41t-40.5 116v381h86v-363q0 -53 23.5 -78t73.5 -25q81 0 171 85v381h87v-528h-87v79q-91 -89 -198 -89zM303 585h-57l94 158h105z" />
    <glyph glyph-name="ucircumflex" unicode="&#xfb;" horiz-adv-x="588" 
d="M227 -10q-75 0 -115.5 41t-40.5 116v381h86v-363q0 -53 23.5 -78t73.5 -25q81 0 171 85v381h87v-528h-87v79q-91 -89 -198 -89zM182 582h-52l129 161h63l129 -161h-52l-109 94z" />
    <glyph glyph-name="udieresis" unicode="&#xfc;" horiz-adv-x="588" 
d="M227 -10q-75 0 -115.5 41t-40.5 116v381h86v-363q0 -53 23.5 -78t73.5 -25q81 0 171 85v381h87v-528h-87v79q-91 -89 -198 -89zM428 583h-89v94h89v-94zM245 583h-88v94h88v-94z" />
    <glyph glyph-name="yacute" unicode="&#xfd;" horiz-adv-x="533" 
d="M106 -203q-56 0 -99 13l20 69q34 -9 78 -9q40 0 62.5 17.5t38.5 57.5l20 52l-204 531h91l155 -427h2l155 427h87l-226 -588q-29 -75 -68 -109t-112 -34zM240 585h-57l94 158h105z" />
    <glyph glyph-name="thorn" unicode="&#xfe;" horiz-adv-x="599" 
d="M162 -200h-86v940h86v-285q76 84 174 84q95 0 155 -70.5t60 -203.5t-61.5 -203t-162.5 -70q-92 0 -165 76v-268zM315 62q71 0 110.5 50t39.5 152q0 98 -41 149.5t-108 51.5q-80 0 -154 -81v-242q71 -80 153 -80z" />
    <glyph glyph-name="ydieresis" unicode="&#xff;" horiz-adv-x="533" 
d="M106 -203q-56 0 -99 13l20 69q34 -9 78 -9q40 0 62.5 17.5t38.5 57.5l20 52l-204 531h91l155 -427h2l155 427h87l-226 -588q-29 -75 -68 -109t-112 -34zM403 583h-89v94h89v-94zM220 583h-88v94h88v-94z" />
    <glyph glyph-name="Amacron" unicode="&#x100;" horiz-adv-x="680" 
d="M117 0h-85l262 743h92l262 -743h-91l-73 212h-294zM337 636l-120 -347h240l-118 347h-2zM474 784h-270v69h270v-69z" />
    <glyph glyph-name="amacron" unicode="&#x101;" horiz-adv-x="553" 
d="M193 -8q-69 0 -109 35t-40 98q0 84 82 138.5t271 81.5v24q0 98 -100 98q-99 0 -191 -80l-45 54q107 98 245 98q176 0 176 -176v-233q0 -93 15 -130h-88q-12 38 -12 73q-87 -81 -204 -81zM218 60q100 0 179 77v148q-145 -23 -206.5 -59t-61.5 -88q0 -38 23.5 -58t65.5 -20
zM411 583h-270v69h270v-69z" />
    <glyph glyph-name="Abreve" unicode="&#x102;" horiz-adv-x="680" 
d="M117 0h-85l262 743h92l262 -743h-91l-73 212h-294zM337 636l-120 -347h240l-118 347h-2zM339 780q-69 0 -110 45.5t-45 122.5h52q12 -104 103 -104t103 104h52q-4 -77 -45 -122.5t-110 -45.5z" />
    <glyph glyph-name="abreve" unicode="&#x103;" horiz-adv-x="553" 
d="M193 -8q-69 0 -109 35t-40 98q0 84 82 138.5t271 81.5v24q0 98 -100 98q-99 0 -191 -80l-45 54q107 98 245 98q176 0 176 -176v-233q0 -93 15 -130h-88q-12 38 -12 73q-87 -81 -204 -81zM218 60q100 0 179 77v148q-145 -23 -206.5 -59t-61.5 -88q0 -38 23.5 -58t65.5 -20
zM276 579q-69 0 -110 45.5t-45 122.5h52q12 -104 103 -104t103 104h52q-4 -77 -45 -122.5t-110 -45.5z" />
    <glyph glyph-name="Aogonek" unicode="&#x104;" horiz-adv-x="680" 
d="M572 -187q-46 0 -71.5 20.5t-25.5 56.5q0 57 81 111l-72 211h-294l-73 -212h-85l262 743h92l262 -743h-40q-66 -49 -66 -97q0 -46 51 -46q40 0 93 24l18 -30q-68 -38 -132 -38zM337 636l-120 -347h240l-118 347h-2z" />
    <glyph glyph-name="aogonek" unicode="&#x105;" horiz-adv-x="553" 
d="M424 -187q-46 0 -71.5 20.5t-25.5 56.5q0 57 81 111q-11 40 -11 72q-87 -81 -204 -81q-69 0 -109 35t-40 98q0 84 82 138.5t271 81.5v24q0 98 -100 98q-99 0 -191 -80l-45 54q107 98 245 98q176 0 176 -176v-233q0 -93 15 -130h-37q-66 -49 -66 -97q0 -46 51 -46
q40 0 93 24l18 -30q-68 -38 -132 -38zM218 60q100 0 179 77v148q-145 -23 -206.5 -59t-61.5 -88q0 -38 23.5 -58t65.5 -20z" />
    <glyph glyph-name="Cacute" unicode="&#x106;" horiz-adv-x="705" 
d="M359 786h-57l94 158h105zM369 -14q-143 0 -228.5 103.5t-85.5 283.5q0 172 87 276.5t227 104.5q217 0 274 -227l-84 -23q-25 87 -69 128t-122 41q-103 0 -163.5 -81t-60.5 -218q0 -146 60.5 -227t165.5 -81q155 0 201 179l83 -19q-28 -113 -100 -176.5t-185 -63.5z" />
    <glyph glyph-name="cacute" unicode="&#x107;" horiz-adv-x="536" 
d="M288 585h-57l94 158h105zM281 -11q-98 0 -166.5 73t-68.5 202q0 135 72 205t170 70q146 0 207 -148l-73 -30q-40 105 -136 105q-64 0 -108.5 -49t-44.5 -153q0 -96 41.5 -149.5t109.5 -53.5q51 0 84 24.5t58 81.5l71 -28q-34 -72 -85 -111t-131 -39z" />
    <glyph glyph-name="Ccircumflex" unicode="&#x108;" horiz-adv-x="705" 
d="M257 783h-52l129 161h63l129 -161h-52l-109 94zM369 -14q-143 0 -228.5 103.5t-85.5 283.5q0 172 87 276.5t227 104.5q217 0 274 -227l-84 -23q-25 87 -69 128t-122 41q-103 0 -163.5 -81t-60.5 -218q0 -146 60.5 -227t165.5 -81q155 0 201 179l83 -19
q-28 -113 -100 -176.5t-185 -63.5z" />
    <glyph glyph-name="ccircumflex" unicode="&#x109;" horiz-adv-x="536" 
d="M162 582h-52l129 161h63l129 -161h-52l-109 94zM281 -11q-98 0 -166.5 73t-68.5 202q0 135 72 205t170 70q146 0 207 -148l-73 -30q-40 105 -136 105q-64 0 -108.5 -49t-44.5 -153q0 -96 41.5 -149.5t109.5 -53.5q51 0 84 24.5t58 81.5l71 -28q-34 -72 -85 -111t-131 -39
z" />
    <glyph glyph-name="Cdotaccent" unicode="&#x10a;" horiz-adv-x="705" 
d="M369 -14q-143 0 -228.5 103.5t-85.5 283.5q0 172 87 276.5t227 104.5q217 0 274 -227l-84 -23q-25 87 -69 128t-122 41q-103 0 -163.5 -81t-60.5 -218q0 -146 60.5 -227t165.5 -81q155 0 201 179l83 -19q-28 -113 -100 -176.5t-185 -63.5zM415 790h-100v90h100v-90z" />
    <glyph glyph-name="cdotaccent" unicode="&#x10b;" horiz-adv-x="536" 
d="M281 -11q-98 0 -166.5 73t-68.5 202q0 135 72 205t170 70q146 0 207 -148l-73 -30q-40 105 -136 105q-64 0 -108.5 -49t-44.5 -153q0 -96 41.5 -149.5t109.5 -53.5q51 0 84 24.5t58 81.5l71 -28q-34 -72 -85 -111t-131 -39zM322 589h-100v90h100v-90z" />
    <glyph glyph-name="Ccaron" unicode="&#x10c;" horiz-adv-x="705" 
d="M383 787h-63l-129 161h53l108 -94l108 94h52zM369 -14q-143 0 -228.5 103.5t-85.5 283.5q0 172 87 276.5t227 104.5q217 0 274 -227l-84 -23q-25 87 -69 128t-122 41q-103 0 -163.5 -81t-60.5 -218q0 -146 60.5 -227t165.5 -81q155 0 201 179l83 -19
q-28 -113 -100 -176.5t-185 -63.5z" />
    <glyph glyph-name="ccaron" unicode="&#x10d;" horiz-adv-x="536" 
d="M299 586h-63l-129 161h53l108 -94l108 94h52zM281 -11q-98 0 -166.5 73t-68.5 202q0 135 72 205t170 70q146 0 207 -148l-73 -30q-40 105 -136 105q-64 0 -108.5 -49t-44.5 -153q0 -96 41.5 -149.5t109.5 -53.5q51 0 84 24.5t58 81.5l71 -28q-34 -72 -85 -111t-131 -39z
" />
    <glyph glyph-name="Dcaron" unicode="&#x10e;" horiz-adv-x="715" 
d="M388 787h-63l-129 161h53l108 -94l108 94h52zM286 0h-195v740h195q181 0 277 -92t96 -276q0 -185 -97 -278.5t-276 -93.5zM179 659v-580h118q137 0 205.5 70.5t68.5 222.5q0 147 -69.5 217t-206.5 70h-116z" />
    <glyph glyph-name="dcaron" unicode="&#x10f;" horiz-adv-x="599" 
d="M587 574l25 100h-36v97h93v-86l-46 -111h-36zM262 -8q-95 0 -155 69t-60 202t62 204.5t163 71.5q96 0 164 -78v279h86v-610q0 -94 16 -130h-90q-12 34 -12 75q-76 -83 -174 -83zM283 63q79 0 153 81v242q-71 80 -152 80q-71 0 -111 -51t-40 -153q0 -97 41.5 -148
t108.5 -51z" />
    <glyph glyph-name="Dcroat" unicode="&#x110;" horiz-adv-x="715" 
d="M286 0h-195v352h-80v72h80v316h195q181 0 277 -92.5t96 -277.5q0 -183 -97 -276.5t-276 -93.5zM179 352v-273h118q137 0 205.5 70.5t68.5 222.5q0 147 -69.5 217t-206.5 70h-116v-235h158v-72h-158z" />
    <glyph glyph-name="dcroat" unicode="&#x111;" horiz-adv-x="599" 
d="M331 597v62h106v81h85v-81h83v-62h-83v-467q0 -94 16 -130h-89q-12 29 -12 80q-78 -89 -174 -89q-95 0 -155 69t-60 202t60.5 205t156.5 72q101 0 172 -85v143h-106zM283 60q76 0 154 80v248q-79 79 -156 79q-66 0 -107 -51.5t-41 -152.5q0 -98 41.5 -150.5t108.5 -52.5z
" />
    <glyph glyph-name="Emacron" unicode="&#x112;" horiz-adv-x="609" 
d="M566 0h-475v740h454v-81h-366v-231h272v-79h-272v-269h387v-80zM459 784h-270v69h270v-69z" />
    <glyph glyph-name="emacron" unicode="&#x113;" horiz-adv-x="552" 
d="M285 -11q-100 0 -169.5 72t-69.5 203q0 69 21.5 123.5t56.5 86.5t76.5 48.5t84.5 16.5q99 0 159.5 -70.5t60.5 -208.5v-18h-373q2 -86 46.5 -134.5t112.5 -48.5q54 0 90.5 21t68.5 65l50 -44q-78 -112 -215 -112zM134 309h289q-5 73 -40.5 115.5t-98.5 42.5
q-57 0 -99 -40t-51 -118zM410 583h-270v69h270v-69z" />
    <glyph glyph-name="Ebreve" unicode="&#x114;" horiz-adv-x="609" 
d="M566 0h-475v740h454v-81h-366v-231h272v-79h-272v-269h387v-80zM306 778q-69 0 -110 45.5t-45 122.5h52q12 -104 103 -104t103 104h52q-4 -77 -45 -122.5t-110 -45.5z" />
    <glyph glyph-name="ebreve" unicode="&#x115;" horiz-adv-x="552" 
d="M285 -11q-100 0 -169.5 72t-69.5 203q0 69 21.5 123.5t56.5 86.5t76.5 48.5t84.5 16.5q99 0 159.5 -70.5t60.5 -208.5v-18h-373q2 -86 46.5 -134.5t112.5 -48.5q54 0 90.5 21t68.5 65l50 -44q-78 -112 -215 -112zM134 309h289q-5 73 -40.5 115.5t-98.5 42.5
q-57 0 -99 -40t-51 -118zM277 579q-69 0 -110 45.5t-45 122.5h52q12 -104 103 -104t103 104h52q-4 -77 -45 -122.5t-110 -45.5z" />
    <glyph glyph-name="Edotaccent" unicode="&#x116;" horiz-adv-x="609" 
d="M566 0h-475v740h454v-81h-366v-231h272v-79h-272v-269h387v-80zM374 790h-100v90h100v-90z" />
    <glyph glyph-name="edotaccent" unicode="&#x117;" horiz-adv-x="552" 
d="M285 -11q-100 0 -169.5 72t-69.5 203q0 69 21.5 123.5t56.5 86.5t76.5 48.5t84.5 16.5q99 0 159.5 -70.5t60.5 -208.5v-18h-373q2 -86 46.5 -134.5t112.5 -48.5q54 0 90.5 21t68.5 65l50 -44q-78 -112 -215 -112zM134 309h289q-5 73 -40.5 115.5t-98.5 42.5
q-57 0 -99 -40t-51 -118zM325 589h-100v90h100v-90z" />
    <glyph glyph-name="Eogonek" unicode="&#x118;" horiz-adv-x="609" 
d="M566 0h-81q-66 -49 -66 -97q0 -46 51 -46q40 0 93 24l18 -30q-68 -38 -132 -38q-46 0 -71.5 20.5t-25.5 56.5q0 56 79 110h-340v740h454v-81h-366v-231h272v-79h-272v-269h387v-80z" />
    <glyph glyph-name="eogonek" unicode="&#x119;" horiz-adv-x="552" 
d="M310 -187q-46 0 -71.5 20.5t-25.5 56.5q0 49 64 99q-98 3 -164.5 74.5t-66.5 200.5q0 69 21.5 123.5t56.5 86.5t76.5 48.5t84.5 16.5q99 0 159.5 -70.5t60.5 -208.5v-18h-373q2 -86 46.5 -134.5t112.5 -48.5q54 0 90.5 21t68.5 65l50 -44q-63 -90 -162 -107
q-58 -46 -58 -91q0 -46 51 -46q40 0 93 24l18 -30q-68 -38 -132 -38zM134 309h289q-5 73 -40.5 115.5t-98.5 42.5q-57 0 -99 -40t-51 -118z" />
    <glyph glyph-name="Ecaron" unicode="&#x11a;" horiz-adv-x="609" 
d="M355 787h-63l-129 161h53l108 -94l108 94h52zM566 0h-475v740h454v-81h-366v-231h272v-79h-272v-269h387v-80z" />
    <glyph glyph-name="ecaron" unicode="&#x11b;" horiz-adv-x="552" 
d="M285 -11q-100 0 -169.5 72t-69.5 203q0 69 21.5 123.5t56.5 86.5t76.5 48.5t84.5 16.5q99 0 159.5 -70.5t60.5 -208.5v-18h-373q2 -86 46.5 -134.5t112.5 -48.5q54 0 90.5 21t68.5 65l50 -44q-78 -112 -215 -112zM134 309h289q-5 73 -40.5 115.5t-98.5 42.5
q-57 0 -99 -40t-51 -118zM306 586h-63l-129 161h53l108 -94l108 94h52z" />
    <glyph glyph-name="Gcircumflex" unicode="&#x11c;" horiz-adv-x="730" 
d="M260 783h-52l129 161h63l129 -161h-52l-109 94zM364 -14q-146 0 -227.5 107t-81.5 280q0 174 87.5 277.5t227.5 103.5q216 0 274 -229l-82 -21q-26 90 -71 129.5t-122 39.5q-95 0 -160 -75t-65 -222q0 -150 63 -230.5t165 -80.5q88 0 141 57t54 158h-170v74h255v-354h-77
v111h-2q-25 -53 -77.5 -89t-131.5 -36z" />
    <glyph glyph-name="gcircumflex" unicode="&#x11d;" horiz-adv-x="575" 
d="M272 -203q-255 0 -255 131q0 80 96 117q-45 21 -45 67q0 47 66 85q-81 52 -81 152q0 83 60.5 136.5t154.5 53.5t156 -55q54 41 125 49v-76q-51 0 -95 -17q27 -38 27 -91q0 -85 -60 -136.5t-153 -51.5q-40 0 -84 13q-37 -17 -37 -41q0 -17 16 -25t57 -12l108 -9
q202 -14 202 -137q0 -73 -70 -113t-188 -40zM269 224q61 0 96.5 33t35.5 90q0 58 -35 91.5t-98 33.5q-61 0 -97 -34t-36 -91t36.5 -90t97.5 -33zM283 -138q78 0 123 22t45 58t-32 53t-114 23l-100 7l-30 3q-78 -28 -78 -87q0 -40 44.5 -59.5t141.5 -19.5zM159 582h-52
l129 161h63l129 -161h-52l-109 94z" />
    <glyph glyph-name="Gbreve" unicode="&#x11e;" horiz-adv-x="730" 
d="M364 -14q-146 0 -227.5 107t-81.5 280q0 174 87.5 277.5t227.5 103.5q216 0 274 -229l-82 -21q-26 90 -71 129.5t-122 39.5q-95 0 -160 -75t-65 -222q0 -150 63 -230.5t165 -80.5q88 0 141 57t54 158h-170v74h255v-354h-77v111h-2q-25 -53 -77.5 -89t-131.5 -36zM364 780
q-69 0 -110 45.5t-45 122.5h52q12 -104 103 -104t103 104h52q-4 -77 -45 -122.5t-110 -45.5z" />
    <glyph glyph-name="gbreve" unicode="&#x11f;" horiz-adv-x="575" 
d="M272 -203q-255 0 -255 131q0 80 96 117q-45 21 -45 67q0 47 66 85q-81 52 -81 152q0 83 60.5 136.5t154.5 53.5t156 -55q54 41 125 49v-76q-51 0 -95 -17q27 -38 27 -91q0 -85 -60 -136.5t-153 -51.5q-40 0 -84 13q-37 -17 -37 -41q0 -17 16 -25t57 -12l108 -9
q202 -14 202 -137q0 -73 -70 -113t-188 -40zM269 224q61 0 96.5 33t35.5 90q0 58 -35 91.5t-98 33.5q-61 0 -97 -34t-36 -91t36.5 -90t97.5 -33zM283 -138q78 0 123 22t45 58t-32 53t-114 23l-100 7l-30 3q-78 -28 -78 -87q0 -40 44.5 -59.5t141.5 -19.5zM276 579
q-69 0 -110 45.5t-45 122.5h52q12 -104 103 -104t103 104h52q-4 -77 -45 -122.5t-110 -45.5z" />
    <glyph glyph-name="Gdotaccent" unicode="&#x120;" horiz-adv-x="730" 
d="M364 -14q-146 0 -227.5 107t-81.5 280q0 174 87.5 277.5t227.5 103.5q216 0 274 -229l-82 -21q-26 90 -71 129.5t-122 39.5q-95 0 -160 -75t-65 -222q0 -150 63 -230.5t165 -80.5q88 0 141 57t54 158h-170v74h255v-354h-77v111h-2q-25 -53 -77.5 -89t-131.5 -36zM413 790
h-100v90h100v-90z" />
    <glyph glyph-name="gdotaccent" unicode="&#x121;" horiz-adv-x="575" 
d="M272 -203q-255 0 -255 131q0 80 96 117q-45 21 -45 67q0 47 66 85q-81 52 -81 152q0 83 60.5 136.5t154.5 53.5t156 -55q54 41 125 49v-76q-51 0 -95 -17q27 -38 27 -91q0 -85 -60 -136.5t-153 -51.5q-40 0 -84 13q-37 -17 -37 -41q0 -17 16 -25t57 -12l108 -9
q202 -14 202 -137q0 -73 -70 -113t-188 -40zM269 224q61 0 96.5 33t35.5 90q0 58 -35 91.5t-98 33.5q-61 0 -97 -34t-36 -91t36.5 -90t97.5 -33zM283 -138q78 0 123 22t45 58t-32 53t-114 23l-100 7l-30 3q-78 -28 -78 -87q0 -40 44.5 -59.5t141.5 -19.5zM317 589h-100v90
h100v-90z" />
    <glyph glyph-name="Gcommaaccent" unicode="&#x122;" horiz-adv-x="730" 
d="M329 -248l26 102h-37v98h95v-88l-47 -112h-37zM364 -14q-146 0 -227.5 107t-81.5 280q0 174 87.5 277.5t227.5 103.5q216 0 274 -229l-82 -21q-26 90 -71 129.5t-122 39.5q-95 0 -160 -75t-65 -222q0 -150 63 -230.5t165 -80.5q88 0 141 57t54 158h-170v74h255v-354h-77
v111h-2q-25 -53 -77.5 -89t-131.5 -36z" />
    <glyph glyph-name="gcommaaccent" unicode="&#x123;" horiz-adv-x="575" 
d="M272 -203q-255 0 -255 131q0 80 96 117q-45 21 -45 67q0 47 66 85q-81 52 -81 152q0 83 60.5 136.5t154.5 53.5t156 -55q54 41 125 49v-76q-51 0 -95 -17q27 -38 27 -91q0 -85 -60 -136.5t-153 -51.5q-40 0 -84 13q-37 -17 -37 -41q0 -17 16 -25t57 -12l108 -9
q202 -14 202 -137q0 -73 -70 -113t-188 -40zM269 224q61 0 96.5 33t35.5 90q0 58 -35 91.5t-98 33.5q-61 0 -97 -34t-36 -91t36.5 -90t97.5 -33zM283 -138q78 0 123 22t45 58t-32 53t-114 23l-100 7l-30 3q-78 -28 -78 -87q0 -40 44.5 -59.5t141.5 -19.5zM228 583v88l47 112
h37l-26 -101h37v-99h-95z" />
    <glyph glyph-name="Hcircumflex" unicode="&#x124;" horiz-adv-x="739" 
d="M260 783h-52l129 161h63l129 -161h-52l-109 94zM179 0h-88v740h88v-310h381v310h88v-740h-88v349h-381v-349z" />
    <glyph glyph-name="hcircumflex" unicode="&#x125;" horiz-adv-x="588" 
d="M10 783h-52l129 161h63l129 -161h-52l-109 94zM163 0h-87v740h87v-291q92 90 198 90q75 0 115.5 -41.5t40.5 -116.5v-381h-86v362q0 53 -23.5 78t-73.5 25q-81 0 -171 -85v-380z" />
    <glyph glyph-name="Hbar" unicode="&#x126;" horiz-adv-x="739" 
d="M12 544v71h80v125h87v-125h381v125h88v-125h80v-71h-80v-544h-88v349h-381v-349h-87v544h-80zM179 430h381v114h-381v-114z" />
    <glyph glyph-name="hbar" unicode="&#x127;" horiz-adv-x="588" 
d="M-6 597v62h83v81h86v-81h105v-62h-105v-148q92 90 198 90q75 0 115.5 -41.5t40.5 -116.5v-381h-86v363q0 102 -97 102q-80 0 -171 -84v-381h-86v597h-83z" />
    <glyph glyph-name="Itilde" unicode="&#x128;" horiz-adv-x="290" 
d="M189 0h-88v740h88v-740zM220 781q-32 0 -80 28t-66 28q-22 0 -31.5 -12.5t-9.5 -41.5h-53q0 119 92 119q32 0 80 -28t67 -28q41 0 41 54h51q0 -119 -91 -119z" />
    <glyph glyph-name="itilde" unicode="&#x129;" horiz-adv-x="250" 
d="M168 0h-86v528h86v-528zM200 580q-32 0 -80 28t-66 28q-22 0 -31.5 -12.5t-9.5 -41.5h-53q0 119 92 119q32 0 80 -28t67 -28q41 0 41 54h51q0 -119 -91 -119z" />
    <glyph glyph-name="Imacron" unicode="&#x12a;" horiz-adv-x="290" 
d="M189 0h-88v740h88v-740zM280 784h-270v69h270v-69z" />
    <glyph glyph-name="imacron" unicode="&#x12b;" horiz-adv-x="250" 
d="M168 0h-86v528h86v-528zM260 583h-270v69h270v-69z" />
    <glyph glyph-name="Ibreve" unicode="&#x12c;" horiz-adv-x="290" 
d="M189 0h-88v740h88v-740zM145 778q-69 0 -110 45.5t-45 122.5h52q12 -104 103 -104t103 104h52q-4 -77 -45 -122.5t-110 -45.5z" />
    <glyph glyph-name="ibreve" unicode="&#x12d;" horiz-adv-x="250" 
d="M168 0h-86v528h86v-528zM125 579q-69 0 -110 45.5t-45 122.5h52q12 -104 103 -104t103 104h52q-4 -77 -45 -122.5t-110 -45.5z" />
    <glyph glyph-name="Iogonek" unicode="&#x12e;" horiz-adv-x="290" 
d="M116 -187q-46 0 -71.5 20.5t-25.5 56.5q0 28 23 58t59 54v738h88v-740h-37q-66 -49 -66 -97q0 -46 51 -46q40 0 93 24l18 -30q-68 -38 -132 -38z" />
    <glyph glyph-name="iogonek" unicode="&#x12f;" horiz-adv-x="250" 
d="M97 -187q-46 0 -71.5 20.5t-25.5 56.5q0 28 23 58t59 54v526h86v-528h-35q-66 -49 -66 -97q0 -46 51 -46q40 0 93 24l18 -30q-68 -38 -132 -38zM170 641h-90v84h90v-84z" />
    <glyph glyph-name="Idotaccent" unicode="&#x130;" horiz-adv-x="290" 
d="M189 0h-88v740h88v-740zM195 790h-100v90h100v-90z" />
    <glyph glyph-name="dotlessi" unicode="&#x131;" horiz-adv-x="250" 
d="M168 0h-86v528h86v-528z" />
    <glyph glyph-name="IJ" unicode="&#x132;" horiz-adv-x="755" 
d="M189 0h-88v740h88v-740zM462 -13q-118 0 -188 97l59 50q51 -70 126 -70q125 0 125 143v534h88v-540q0 -103 -55.5 -158.5t-154.5 -55.5z" />
    <glyph glyph-name="ij" unicode="&#x133;" horiz-adv-x="500" 
d="M168 0h-86v528h86v-528zM170 641h-90v84h90v-84zM296 -200q-24 0 -52 4v65q18 -4 34 -4q54 0 54 61v603h86v-609q0 -58 -27.5 -89t-94.5 -31zM420 642h-90v84h90v-84z" />
    <glyph glyph-name="Jcircumflex" unicode="&#x134;" horiz-adv-x="505" 
d="M268 783h-52l129 161h63l129 -161h-52l-109 94zM212 -14q-118 0 -188 97l59 50q51 -70 126 -70q125 0 125 143v534h88v-540q0 -103 -55.5 -158.5t-154.5 -55.5z" />
    <glyph glyph-name="jcircumflex" unicode="&#x135;" horiz-adv-x="250" 
d="M46 -201q-28 0 -52 3v65q18 -4 35 -4q54 0 54 61v604h85v-610q0 -58 -27.5 -88.5t-94.5 -30.5zM17 582h-52l129 161h63l129 -161h-52l-109 94z" />
    <glyph glyph-name="Kcommaaccent" unicode="&#x136;" horiz-adv-x="678" 
d="M302 -248l26 102h-37v98h95v-88l-47 -112h-37zM179 0h-88v740h88v-382l335 382h106l-254 -282l289 -458h-101l-246 391l-129 -141v-250z" />
    <glyph glyph-name="kcommaaccent" unicode="&#x137;" horiz-adv-x="540" 
d="M233 -248l26 102h-37v98h95v-88l-47 -112h-37zM162 0h-86v740h86v-476l236 264h98l-173 -189l192 -339h-92l-156 275l-105 -113v-162z" />
    <glyph glyph-name="kgreenlandic" unicode="&#x138;" horiz-adv-x="540" 
d="M77 0v528h85v-264l236 264h98l-173 -188l192 -340h-92l-156 276l-105 -114v-162h-85z" />
    <glyph glyph-name="Lacute" unicode="&#x139;" horiz-adv-x="569" 
d="M162 786h-57l94 158h105zM535 0h-444v740h88v-660h356v-80z" />
    <glyph glyph-name="lacute" unicode="&#x13a;" horiz-adv-x="250" 
d="M152 786h-57l94 158h105zM168 0h-86v740h86v-740z" />
    <glyph glyph-name="Lcommaaccent" unicode="&#x13b;" horiz-adv-x="569" 
d="M248 -248l26 102h-37v98h95v-88l-47 -112h-37zM535 0h-444v740h88v-660h356v-80z" />
    <glyph glyph-name="lcommaaccent" unicode="&#x13c;" horiz-adv-x="250" 
d="M90 -248l26 102h-37v98h95v-88l-47 -112h-37zM168 0h-86v740h86v-740z" />
    <glyph glyph-name="Lcaron" unicode="&#x13d;" horiz-adv-x="569" 
d="M314 539l26 102h-37v98h95v-88l-47 -112h-37zM535 0h-444v740h88v-660h356v-80z" />
    <glyph glyph-name="lcaron" unicode="&#x13e;" horiz-adv-x="250" 
d="M232 574l25 100h-36v97h93v-86l-46 -111h-36zM168 0h-86v740h86v-740z" />
    <glyph glyph-name="Ldot" unicode="&#x13f;" horiz-adv-x="582" 
d="M378 355v90h94v-90h-94zM535 0h-444v740h88v-660h356v-80z" />
    <glyph glyph-name="ldot" unicode="&#x140;" horiz-adv-x="352" 
d="M254 279v90h94v-90h-94zM168 0h-86v740h86v-740z" />
    <glyph glyph-name="Lslash" unicode="&#x141;" horiz-adv-x="569" 
d="M535 0h-443v342l-85 -22v71l85 23v326h88v-303l155 42v-72l-155 -41v-286h355v-80z" />
    <glyph glyph-name="lslash" unicode="&#x142;" horiz-adv-x="304" 
d="M110 0v438l-89 -24v67l89 24v235h85v-213l90 24v-67l-90 -24v-460h-85z" />
    <glyph glyph-name="Nacute" unicode="&#x143;" horiz-adv-x="749" 
d="M358 786h-57l94 158h105zM174 0h-83v740h93l389 -585h2v585h83v-740h-79l-403 601h-2v-601z" />
    <glyph glyph-name="nacute" unicode="&#x144;" horiz-adv-x="588" 
d="M286 585h-57l94 158h105zM163 0h-87v528h87v-79q92 90 198 90q75 0 115.5 -41.5t40.5 -116.5v-381h-86v362q0 53 -23.5 78t-73.5 25q-81 0 -171 -85v-380z" />
    <glyph glyph-name="Ncommaaccent" unicode="&#x145;" horiz-adv-x="749" 
d="M338 -248l26 102h-37v98h95v-88l-47 -112h-37zM174 0h-83v740h93l389 -585h2v585h83v-740h-79l-403 601h-2v-601z" />
    <glyph glyph-name="ncommaaccent" unicode="&#x146;" horiz-adv-x="588" 
d="M258 -248l26 102h-37v98h95v-88l-47 -112h-37zM163 0h-87v528h87v-79q92 90 198 90q75 0 115.5 -41.5t40.5 -116.5v-381h-86v362q0 53 -23.5 78t-73.5 25q-81 0 -171 -85v-380z" />
    <glyph glyph-name="Ncaron" unicode="&#x147;" horiz-adv-x="749" 
d="M405 787h-63l-129 161h53l108 -94l108 94h52zM174 0h-83v740h93l389 -585h2v585h83v-740h-79l-403 601h-2v-601z" />
    <glyph glyph-name="ncaron" unicode="&#x148;" horiz-adv-x="588" 
d="M325 586h-63l-129 161h53l108 -94l108 94h52zM163 0h-87v528h87v-79q92 90 198 90q75 0 115.5 -41.5t40.5 -116.5v-381h-86v362q0 53 -23.5 78t-73.5 25q-81 0 -171 -85v-380z" />
    <glyph glyph-name="napostrophe" unicode="&#x149;" horiz-adv-x="805" 
d="M134 530h-40l27 105h-36v105h100v-97zM380 0h-87v528h87v-79q92 90 198 90q75 0 115.5 -41.5t40.5 -116.5v-381h-86v362q0 53 -23.5 78t-73.5 25q-81 0 -171 -85v-380z" />
    <glyph glyph-name="Eng" unicode="&#x14a;" horiz-adv-x="749" 
d="M92 0v740h92l390 -585h2v585h82v-733q0 -101 -52.5 -154.5t-151.5 -53.5q-122 0 -189 99l55 51q52 -77 130 -77q120 0 124 132v4l-398 594h-2v-602h-82z" />
    <glyph glyph-name="eng" unicode="&#x14b;" horiz-adv-x="588" 
d="M77 0v528h86v-86q93 97 196 97q77 0 117.5 -40t40.5 -115v-466q0 -58 -27.5 -88.5t-94.5 -30.5q-30 0 -51 3v65q16 -4 34 -4q54 0 54 59v441q0 104 -98 104q-81 0 -171 -85v-382h-86z" />
    <glyph glyph-name="Omacron" unicode="&#x14c;" horiz-adv-x="749" 
d="M508 784h-270v69h270v-69zM375 -14q-140 0 -230 104.5t-90 279.5t90 279.5t230 104.5t229 -104t89 -280t-89 -280t-229 -104zM375 65q103 0 166.5 81.5t63.5 223.5t-63.5 223t-166.5 81q-104 0 -167.5 -81t-63.5 -223t63.5 -223.5t167.5 -81.5z" />
    <glyph glyph-name="omacron" unicode="&#x14d;" horiz-adv-x="583" 
d="M426 583h-270v69h270v-69zM292 -11q-103 0 -174.5 72.5t-71.5 202.5t71 202.5t175 72.5q103 0 174 -72.5t71 -202.5t-71 -202.5t-174 -72.5zM292 62q74 0 116 55t42 147q0 87 -41 144t-117 57q-75 0 -117 -55t-42 -146q0 -89 41 -145.5t118 -56.5z" />
    <glyph glyph-name="Obreve" unicode="&#x14e;" horiz-adv-x="749" 
d="M375 -14q-140 0 -230 104.5t-90 279.5t90 279.5t230 104.5t229 -104t89 -280t-89 -280t-229 -104zM375 65q103 0 166.5 81.5t63.5 223.5t-63.5 223t-166.5 81q-104 0 -167.5 -81t-63.5 -223t63.5 -223.5t167.5 -81.5zM373 780q-69 0 -110 45.5t-45 122.5h52
q12 -104 103 -104t103 104h52q-4 -77 -45 -122.5t-110 -45.5z" />
    <glyph glyph-name="obreve" unicode="&#x14f;" horiz-adv-x="583" 
d="M292 -11q-103 0 -174.5 72.5t-71.5 202.5t71 202.5t175 72.5q103 0 174 -72.5t71 -202.5t-71 -202.5t-174 -72.5zM292 62q74 0 116 55t42 147q0 87 -41 144t-117 57q-75 0 -117 -55t-42 -146q0 -89 41 -145.5t118 -56.5zM291 579q-69 0 -110 45.5t-45 122.5h52
q12 -104 103 -104t103 104h52q-4 -77 -45 -122.5t-110 -45.5z" />
    <glyph glyph-name="Ohungarumlaut" unicode="&#x150;" horiz-adv-x="749" 
d="M458 786h-59l100 158h106zM291 786h-58l97 158h106zM375 -14q-140 0 -230 104.5t-90 279.5t90 279.5t230 104.5t229 -104t89 -280t-89 -280t-229 -104zM375 65q103 0 166.5 81.5t63.5 223.5t-63.5 223t-166.5 81q-104 0 -167.5 -81t-63.5 -223t63.5 -223.5t167.5 -81.5z
" />
    <glyph glyph-name="ohungarumlaut" unicode="&#x151;" horiz-adv-x="583" 
d="M383 585h-59l100 158h106zM216 585h-58l97 158h106zM292 -11q-103 0 -174.5 72.5t-71.5 202.5t71 202.5t175 72.5q103 0 174 -72.5t71 -202.5t-71 -202.5t-174 -72.5zM292 62q74 0 116 55t42 147q0 87 -41 144t-117 57q-75 0 -117 -55t-42 -146q0 -89 41 -145.5
t118 -56.5z" />
    <glyph glyph-name="OE" unicode="&#x152;" horiz-adv-x="1121" 
d="M375 -14q-138 0 -229 105t-91 279t91 279t229 105q78 0 138.5 -37.5t96.5 -103.5v127h447v-81h-366v-231h272v-79h-272v-269h386v-80h-467v129q-36 -66 -96.5 -104.5t-138.5 -38.5zM375 65q102 0 165.5 81.5t63.5 223.5t-63 223t-166 81q-104 0 -168 -81t-64 -223
t64 -223.5t168 -81.5z" />
    <glyph glyph-name="oe" unicode="&#x153;" horiz-adv-x="947" 
d="M290 -11q-103 0 -173.5 72.5t-70.5 202.5t70.5 202.5t173.5 72.5q67 0 119.5 -35t79.5 -95q24 57 77 93.5t115 36.5q96 0 158 -71t62 -208v-15h-371q1 -89 45 -137.5t113 -48.5q54 0 89.5 21t67.5 65l51 -44q-78 -112 -215 -112q-63 0 -117 35t-77 92
q-28 -58 -79.5 -92.5t-117.5 -34.5zM290 61q74 0 115.5 55t41.5 148q0 87 -40.5 144t-116.5 57q-74 0 -115.5 -55t-41.5 -146q0 -89 40 -146t117 -57zM531 309h288q-5 73 -40.5 115.5t-98.5 42.5q-57 0 -98.5 -40t-50.5 -118z" />
    <glyph glyph-name="Racute" unicode="&#x154;" horiz-adv-x="677" 
d="M337 786h-57l94 158h105zM178 0h-87v740h254q127 0 195 -53t68 -154q0 -167 -172 -203l182 -330h-96l-177 319h-167v-319zM178 660v-263h162q91 0 136 30t45 103q0 70 -45 100t-137 30h-161z" />
    <glyph glyph-name="racute" unicode="&#x155;" horiz-adv-x="400" 
d="M200 585h-57l94 158h105zM162 0h-86v528h86v-98h2q70 109 204 109h11l-6 -80q-3 1 -25 1q-124 0 -186 -119v-341z" />
    <glyph glyph-name="Rcommaaccent" unicode="&#x156;" horiz-adv-x="677" 
d="M302 -248l26 102h-37v98h95v-88l-47 -112h-37zM178 0h-87v740h254q127 0 195 -53t68 -154q0 -167 -172 -203l182 -330h-96l-177 319h-167v-319zM178 660v-263h162q91 0 136 30t45 103q0 70 -45 100t-137 30h-161z" />
    <glyph glyph-name="rcommaaccent" unicode="&#x157;" horiz-adv-x="400" 
d="M84 -248l26 102h-37v98h95v-88l-47 -112h-37zM162 0h-86v528h86v-98h2q70 109 204 109h11l-6 -80q-3 1 -25 1q-124 0 -186 -119v-341z" />
    <glyph glyph-name="Rcaron" unicode="&#x158;" horiz-adv-x="677" 
d="M369 787h-63l-129 161h53l108 -94l108 94h52zM178 0h-87v740h254q127 0 195 -53t68 -154q0 -167 -172 -203l182 -330h-96l-177 319h-167v-319zM178 660v-263h162q91 0 136 30t45 103q0 70 -45 100t-137 30h-161z" />
    <glyph glyph-name="rcaron" unicode="&#x159;" horiz-adv-x="400" 
d="M231 586h-63l-129 161h53l108 -94l108 94h52zM162 0h-86v528h86v-98h2q70 109 204 109h11l-6 -80q-3 1 -25 1q-124 0 -186 -119v-341z" />
    <glyph glyph-name="Sacute" unicode="&#x15a;" horiz-adv-x="657" 
d="M327 786h-57l94 158h105zM334 -14q-104 0 -177 52t-103 141l74 33q55 -148 210 -148q79 0 126 32t47 90q0 55 -39 88t-147 67q-131 40 -188.5 84t-57.5 133q0 85 66.5 140.5t171.5 55.5q100 0 165 -45t96 -121l-70 -39q-56 125 -192 125q-69 0 -109.5 -30.5t-40.5 -78.5
q0 -57 40 -86t155 -65q123 -38 180 -85.5t57 -136.5q0 -92 -73 -149t-191 -57z" />
    <glyph glyph-name="sacute" unicode="&#x15b;" horiz-adv-x="512" 
d="M255 585h-57l94 158h105zM254 -10q-69 0 -125.5 24.5t-90.5 65.5l52 52q68 -73 165 -73q127 0 127 83q0 38 -31.5 57.5t-104.5 36.5q-97 23 -143 56t-46 103q0 62 50.5 103t134.5 41q121 0 202 -76l-45 -57q-68 63 -153 63q-54 0 -80.5 -20t-26.5 -51q0 -35 29 -53
t96 -33q52 -13 83 -23.5t61 -29.5t43.5 -46.5t13.5 -67.5q0 -74 -59 -114.5t-152 -40.5z" />
    <glyph glyph-name="Scircumflex" unicode="&#x15c;" horiz-adv-x="657" 
d="M216 783h-52l129 161h63l129 -161h-52l-109 94zM334 -14q-104 0 -177 52t-103 141l74 33q55 -148 210 -148q79 0 126 32t47 90q0 55 -39 88t-147 67q-131 40 -188.5 84t-57.5 133q0 85 66.5 140.5t171.5 55.5q100 0 165 -45t96 -121l-70 -39q-56 125 -192 125
q-69 0 -109.5 -30.5t-40.5 -78.5q0 -57 40 -86t155 -65q123 -38 180 -85.5t57 -136.5q0 -92 -73 -149t-191 -57z" />
    <glyph glyph-name="scircumflex" unicode="&#x15d;" horiz-adv-x="512" 
d="M133 582h-52l129 161h63l129 -161h-52l-109 94zM254 -10q-69 0 -125.5 24.5t-90.5 65.5l52 52q68 -73 165 -73q127 0 127 83q0 38 -31.5 57.5t-104.5 36.5q-97 23 -143 56t-46 103q0 62 50.5 103t134.5 41q121 0 202 -76l-45 -57q-68 63 -153 63q-54 0 -80.5 -20
t-26.5 -51q0 -35 29 -53t96 -33q52 -13 83 -23.5t61 -29.5t43.5 -46.5t13.5 -67.5q0 -74 -59 -114.5t-152 -40.5z" />
    <glyph glyph-name="Scedilla" unicode="&#x15e;" horiz-adv-x="657" 
d="M330 -196q-73 0 -128 36l20 33q45 -30 100 -30q69 0 69 45q0 34 -40 34q-25 0 -50 -20l-31 15l22 71q-88 10 -149.5 60.5t-88.5 130.5l74 33q55 -148 210 -148q79 0 126 32t47 90q0 55 -39 88t-147 67q-131 40 -188.5 84t-57.5 133q0 85 66.5 140.5t171.5 55.5
q100 0 165 -45t96 -121l-70 -39q-56 125 -192 125q-69 0 -109.5 -30.5t-40.5 -78.5q0 -57 40 -86t155 -65q123 -38 180 -85.5t57 -136.5q0 -91 -71.5 -147.5t-187.5 -58.5l-11 -38q23 15 56 15q29 0 50 -18t21 -50q0 -45 -35 -68t-90 -23z" />
    <glyph glyph-name="scedilla" unicode="&#x15f;" horiz-adv-x="512" 
d="M258 -196q-73 0 -128 36l20 33q45 -30 100 -30q69 0 69 45q0 34 -40 34q-25 0 -50 -20l-31 15l23 75q-119 10 -183 88l52 52q68 -73 165 -73q127 0 127 83q0 38 -31.5 57.5t-104.5 36.5q-97 23 -143 56t-46 103q0 62 50.5 103t134.5 41q121 0 202 -76l-45 -57
q-68 63 -153 63q-54 0 -80.5 -20t-26.5 -51q0 -35 29 -53t96 -33q52 -13 83 -23.5t61 -29.5t43.5 -46.5t13.5 -67.5q0 -71 -54.5 -111t-142.5 -43l-12 -43q23 15 56 15q29 0 50 -18t21 -50q0 -45 -35 -68t-90 -23z" />
    <glyph glyph-name="Scaron" unicode="&#x160;" horiz-adv-x="657" 
d="M334 -14q-104 0 -177 52t-103 141l74 33q55 -148 210 -148q79 0 126 32t47 90q0 55 -39 88t-147 67q-131 40 -188.5 84t-57.5 133q0 85 66.5 140.5t171.5 55.5q100 0 165 -45t96 -121l-70 -39q-56 125 -192 125q-69 0 -109.5 -30.5t-40.5 -78.5q0 -57 40 -86t155 -65
q123 -38 180 -85.5t57 -136.5q0 -92 -73 -149t-191 -57zM359 795h-63l-129 161h53l108 -94l108 94h52z" />
    <glyph glyph-name="scaron" unicode="&#x161;" horiz-adv-x="512" 
d="M254 -10q-69 0 -125.5 24.5t-90.5 65.5l52 52q68 -73 165 -73q127 0 127 83q0 38 -31.5 57.5t-104.5 36.5q-97 23 -143 56t-46 103q0 62 50.5 103t134.5 41q121 0 202 -76l-45 -57q-68 63 -153 63q-54 0 -80.5 -20t-26.5 -51q0 -35 29 -53t96 -33q52 -13 83 -23.5
t61 -29.5t43.5 -46.5t13.5 -67.5q0 -74 -59 -114.5t-152 -40.5zM286 586h-63l-129 161h53l108 -94l108 94h52z" />
    <glyph glyph-name="Tcommaaccent" unicode="&#x162;" horiz-adv-x="623" 
d="M275 -248l26 102h-37v98h95v-88l-47 -112h-37zM355 0h-88v659h-235v81h559v-81h-236v-659z" />
    <glyph glyph-name="Tcommaaccent" unicode="&#x21a;" horiz-adv-x="623" 
d="M275 -248l26 102h-37v98h95v-88l-47 -112h-37zM355 0h-88v659h-235v81h559v-81h-236v-659z" />
    <glyph glyph-name="tcommaaccent" unicode="&#x163;" horiz-adv-x="376" 
d="M134 -248l26 102h-37v98h95v-88l-47 -112h-37zM261 -7q-81 0 -114 32t-33 103v329h-92v71h92v188h86v-188h137v-71h-137v-310q0 -44 18 -64t64 -20q30 0 54 7v-71q-30 -6 -75 -6z" />
    <glyph glyph-name="tcommaaccent" unicode="&#x21b;" horiz-adv-x="376" 
d="M134 -248l26 102h-37v98h95v-88l-47 -112h-37zM261 -7q-81 0 -114 32t-33 103v329h-92v71h92v188h86v-188h137v-71h-137v-310q0 -44 18 -64t64 -20q30 0 54 7v-71q-30 -6 -75 -6z" />
    <glyph glyph-name="Tcaron" unicode="&#x164;" horiz-adv-x="623" 
d="M342 787h-63l-129 161h53l108 -94l108 94h52zM355 0h-88v659h-235v81h559v-81h-236v-659z" />
    <glyph glyph-name="tcaron" unicode="&#x165;" horiz-adv-x="376" 
d="M275 610l25 99h-36v97h93v-86l-46 -110h-36zM261 -7q-81 0 -114 32t-33 103v329h-92v71h92v188h86v-188h137v-71h-137v-310q0 -44 18 -64t64 -20q30 0 54 7v-71q-30 -6 -75 -6z" />
    <glyph glyph-name="Tbar" unicode="&#x166;" horiz-adv-x="623" 
d="M32 329v71h236v259h-236v81h559v-81h-236v-259h235v-71h-235v-329h-87v329h-236z" />
    <glyph glyph-name="tbar" unicode="&#x167;" horiz-adv-x="376" 
d="M22 244v63h92v151h-92v70h92v188h85v-188h137v-70h-137v-151h137v-63h-137v-97q0 -44 17.5 -64t63.5 -20q30 0 55 7v-71q-32 -6 -75 -6q-81 0 -113.5 32t-32.5 103v116h-92z" />
    <glyph glyph-name="Utilde" unicode="&#x168;" horiz-adv-x="717" 
d="M359 -13q-137 0 -206 74t-69 195v484h88v-472q0 -93 46.5 -147.5t141.5 -54.5q94 0 140 53t46 147v474h87v-482q0 -121 -71 -196t-203 -75zM432 781q-32 0 -80 28t-66 28q-22 0 -31.5 -12.5t-9.5 -41.5h-53q0 119 92 119q32 0 80 -28t67 -28q41 0 41 54h51
q0 -119 -91 -119z" />
    <glyph glyph-name="utilde" unicode="&#x169;" horiz-adv-x="588" 
d="M227 -10q-75 0 -115.5 41t-40.5 116v381h86v-363q0 -53 23.5 -78t73.5 -25q81 0 171 85v381h87v-528h-87v79q-91 -89 -198 -89zM369 580q-32 0 -80 28t-66 28q-22 0 -31.5 -12.5t-9.5 -41.5h-53q0 119 92 119q32 0 80 -28t67 -28q41 0 41 54h51q0 -119 -91 -119z" />
    <glyph glyph-name="Umacron" unicode="&#x16a;" horiz-adv-x="717" 
d="M359 -13q-137 0 -206 74t-69 195v484h88v-472q0 -93 46.5 -147.5t141.5 -54.5q94 0 140 53t46 147v474h87v-482q0 -121 -71 -196t-203 -75zM493 784h-270v69h270v-69z" />
    <glyph glyph-name="umacron" unicode="&#x16b;" horiz-adv-x="588" 
d="M227 -10q-75 0 -115.5 41t-40.5 116v381h86v-363q0 -53 23.5 -78t73.5 -25q81 0 171 85v381h87v-528h-87v79q-91 -89 -198 -89zM428 583h-270v69h270v-69z" />
    <glyph glyph-name="Ubreve" unicode="&#x16c;" horiz-adv-x="717" 
d="M359 -13q-137 0 -206 74t-69 195v484h88v-472q0 -93 46.5 -147.5t141.5 -54.5q94 0 140 53t46 147v474h87v-482q0 -121 -71 -196t-203 -75zM358 780q-69 0 -110 45.5t-45 122.5h52q12 -104 103 -104t103 104h52q-4 -77 -45 -122.5t-110 -45.5z" />
    <glyph glyph-name="ubreve" unicode="&#x16d;" horiz-adv-x="588" 
d="M227 -10q-75 0 -115.5 41t-40.5 116v381h86v-363q0 -53 23.5 -78t73.5 -25q81 0 171 85v381h87v-528h-87v79q-91 -89 -198 -89zM293 579q-69 0 -110 45.5t-45 122.5h52q12 -104 103 -104t103 104h52q-4 -77 -45 -122.5t-110 -45.5z" />
    <glyph glyph-name="Uring" unicode="&#x16e;" horiz-adv-x="717" 
d="M358 778q-41 0 -68 27t-27 68q0 40 27 66.5t68 26.5t68 -26.5t27 -66.5q0 -41 -27 -68t-68 -27zM358 818q23 0 37.5 15.5t14.5 39.5q0 23 -15 38.5t-37 15.5t-37 -15.5t-15 -38.5q0 -24 14.5 -39.5t37.5 -15.5zM359 -13q-137 0 -206 74t-69 195v484h88v-472
q0 -93 46.5 -147.5t141.5 -54.5q94 0 140 53t46 147v474h87v-482q0 -121 -71 -196t-203 -75z" />
    <glyph glyph-name="uring" unicode="&#x16f;" horiz-adv-x="588" 
d="M293 577q-41 0 -68 27t-27 68q0 40 27 66.5t68 26.5t68 -26.5t27 -66.5q0 -41 -27 -68t-68 -27zM293 617q23 0 37.5 15.5t14.5 39.5q0 23 -15 38.5t-37 15.5t-37 -15.5t-15 -38.5q0 -24 14.5 -39.5t37.5 -15.5zM227 -10q-75 0 -115.5 41t-40.5 116v381h86v-363
q0 -53 23.5 -78t73.5 -25q81 0 171 85v381h87v-528h-87v79q-91 -89 -198 -89z" />
    <glyph glyph-name="Uhungarumlaut" unicode="&#x170;" horiz-adv-x="717" 
d="M359 -13q-137 0 -206 74t-69 195v484h88v-472q0 -93 46.5 -147.5t141.5 -54.5q94 0 140 53t46 147v474h87v-482q0 -121 -71 -196t-203 -75zM444 786h-59l100 158h106zM277 786h-58l97 158h106z" />
    <glyph glyph-name="uhungarumlaut" unicode="&#x171;" horiz-adv-x="588" 
d="M227 -10q-75 0 -115.5 41t-40.5 116v381h86v-363q0 -53 23.5 -78t73.5 -25q81 0 171 85v381h87v-528h-87v79q-91 -89 -198 -89zM383 585h-59l100 158h106zM216 585h-58l97 158h106z" />
    <glyph glyph-name="Uogonek" unicode="&#x172;" horiz-adv-x="717" 
d="M368 -187q-46 0 -71.5 20.5t-25.5 56.5q0 49 63 98q-125 7 -187.5 80t-62.5 188v484h88v-472q0 -93 46.5 -147.5t141.5 -54.5q94 0 140 53t46 147v474h87v-482q0 -113 -62.5 -186.5t-180.5 -82.5q-52 -43 -52 -86q0 -46 51 -46q40 0 93 24l18 -30q-68 -38 -132 -38z" />
    <glyph glyph-name="uogonek" unicode="&#x173;" horiz-adv-x="588" 
d="M227 -10q-75 0 -115.5 41t-40.5 116v381h86v-363q0 -53 23.5 -78t73.5 -25q81 0 171 85v381h87v-528h-37q-66 -49 -66 -97q0 -46 51 -46q40 0 93 24l18 -30q-68 -38 -132 -38q-46 0 -71.5 20.5t-25.5 56.5q0 59 83 112v77q-91 -89 -198 -89z" />
    <glyph glyph-name="Wcircumflex" unicode="&#x174;" horiz-adv-x="931" 
d="M356 783h-52l129 161h63l129 -161h-52l-109 94zM314 0h-81l-197 740h89l109 -429q32 -121 43 -181h2q15 79 42 180l103 430h89l106 -433q36 -149 41 -177h2q8 40 41 174l108 436h84l-196 -740h-81l-149 619h-2z" />
    <glyph glyph-name="wcircumflex" unicode="&#x175;" horiz-adv-x="753" 
d="M267 582h-52l129 161h63l129 -161h-52l-109 94zM262 0h-79l-161 528h89l69 -248q31 -110 46 -176h2q22 90 46 177l67 247h75l69 -252q22 -76 44 -172h2q26 101 46 170l72 254h81l-161 -528h-80l-112 413h-2z" />
    <glyph glyph-name="Ycircumflex" unicode="&#x176;" horiz-adv-x="631" 
d="M359 0h-88v324l-249 416h94l201 -341l200 341h92l-250 -416v-324zM206 783h-52l129 161h63l129 -161h-52l-109 94z" />
    <glyph glyph-name="ycircumflex" unicode="&#x177;" horiz-adv-x="533" 
d="M106 -203q-56 0 -99 13l20 69q34 -9 78 -9q40 0 62.5 17.5t38.5 57.5l20 52l-204 531h91l155 -427h2l155 427h87l-226 -588q-29 -75 -68 -109t-112 -34zM160 582h-52l129 161h63l129 -161h-52l-109 94z" />
    <glyph glyph-name="Ydieresis" unicode="&#x178;" horiz-adv-x="631" 
d="M359 0h-88v324l-249 416h94l201 -341l200 341h92l-250 -416v-324zM450 785h-89v94h89v-94zM267 785h-88v94h88v-94z" />
    <glyph glyph-name="Zacute" unicode="&#x179;" horiz-adv-x="630" 
d="M306 786h-57l94 158h105zM581 0h-541v62l433 604h-405v74h513v-64l-430 -603h430v-73z" />
    <glyph glyph-name="zacute" unicode="&#x17a;" horiz-adv-x="510" 
d="M254 585h-57l94 158h105zM471 0h-432v52l309 406h-285v70h393v-54l-310 -405h325v-69z" />
    <glyph glyph-name="Zdotaccent" unicode="&#x17b;" horiz-adv-x="630" 
d="M581 0h-541v62l433 604h-405v74h513v-64l-430 -603h430v-73zM364 790h-100v90h100v-90z" />
    <glyph glyph-name="zdotaccent" unicode="&#x17c;" horiz-adv-x="510" 
d="M471 0h-432v52l309 406h-285v70h393v-54l-310 -405h325v-69zM305 589h-100v90h100v-90z" />
    <glyph glyph-name="Zcaron" unicode="&#x17d;" horiz-adv-x="630" 
d="M581 0h-541v62l433 604h-405v74h513v-64l-430 -603h430v-73zM348 795h-63l-129 161h53l108 -94l108 94h52z" />
    <glyph glyph-name="zcaron" unicode="&#x17e;" horiz-adv-x="510" 
d="M471 0h-432v52l309 406h-285v70h393v-54l-310 -405h325v-69zM287 586h-63l-129 161h53l108 -94l108 94h52z" />
    <glyph glyph-name="longs" unicode="&#x17f;" horiz-adv-x="344" 
d="M117 599q0 143 159 143q8 0 27 -1.5t22 -1.5v-70q-12 3 -37 3q-85 0 -85 -74v-598h-86v599z" />
    <glyph glyph-name="florin" unicode="&#x192;" horiz-adv-x="349" 
d="M-94 -198l9 65q14 -2 36 -2q86 0 96 79l64 465h-92l9 67h92l16 123q19 143 178 143q9 0 27.5 -1.5t22.5 -1.5l-10 -67q-14 2 -36 2q-87 0 -96 -74l-16 -124h116l-9 -67h-116l-65 -473q-19 -137 -177 -137q-25 0 -49 3z" />
    <glyph glyph-name="Aringacute" unicode="&#x1fa;" horiz-adv-x="676" 
d="M394 721l254 -721h-91l-73 212h-294l-73 -212h-85l254 721q-41 26 -41 79q0 40 27 66.5t68 26.5t68 -26.5t27 -66.5q0 -53 -41 -79zM337 636l-120 -347h240l-118 347h-2zM320 920h-57l94 158h105zM340 745q23 0 37.5 15.5t14.5 39.5q0 23 -15 38.5t-37 15.5t-37 -15.5
t-15 -38.5q0 -24 14.5 -39.5t37.5 -15.5z" />
    <glyph glyph-name="aringacute" unicode="&#x1fb;" horiz-adv-x="549" 
d="M250 807h-57l94 158h105zM193 -8q-69 0 -109 35t-40 98q0 84 82 138.5t271 81.5v24q0 98 -100 98q-99 0 -191 -80l-45 54q107 98 245 98q176 0 176 -176v-233q0 -93 15 -130h-88q-12 38 -12 73q-87 -81 -204 -81zM218 60q100 0 179 77v148q-145 -23 -206.5 -59t-61.5 -88
q0 -38 23.5 -58t65.5 -20zM288 577q-41 0 -68 27t-27 68q0 40 27 66.5t68 26.5t68 -26.5t27 -66.5q0 -41 -27 -68t-68 -27zM288 617q23 0 37.5 15.5t14.5 39.5q0 23 -15 38.5t-37 15.5t-37 -15.5t-15 -38.5q0 -24 14.5 -39.5t37.5 -15.5z" />
    <glyph glyph-name="AEacute" unicode="&#x1fc;" horiz-adv-x="1019" 
d="M491 784h-57l94 158h105zM114 0h-89l421 740h499v-81h-365v-231h271v-79h-271v-269h386v-80h-473v228h-250zM492 668l-205 -362h206v362h-1z" />
    <glyph glyph-name="aeacute" unicode="&#x1fd;" horiz-adv-x="901" 
d="M192 -11q-69 0 -109 35t-40 98q0 85 82 140.5t271 82.5v24q0 98 -100 98q-99 0 -191 -80l-44 54q107 98 244 98q123 0 150 -101q26 44 72 72.5t100 28.5q96 0 158 -71t62 -208v-15h-372q2 -89 46.5 -137.5t112.5 -48.5q54 0 90 21t68 65l50 -44q-78 -112 -215 -112
q-135 0 -196 112q-107 -112 -239 -112zM217 58q104 0 193 93q-15 44 -15 100q0 29 1 36q-144 -24 -206 -61.5t-62 -90.5q0 -37 23.5 -57t65.5 -20zM477 309h288q-5 73 -40.5 115.5t-98.5 42.5q-57 0 -98.5 -40t-50.5 -118zM426 585h-57l94 158h105z" />
    <glyph glyph-name="Oslashacute" unicode="&#x1fe;" horiz-adv-x="753" 
d="M690 724l-72 -92q75 -104 75 -262q0 -176 -89 -280t-229 -104q-118 0 -203 76l-65 -82l-49 36l73 92q-76 103 -76 262q0 175 90 279.5t230 104.5q119 0 201 -76l66 82zM561 565l-340 -437q62 -65 154 -65q103 0 167 82.5t64 224.5q0 117 -45 195zM187 174l339 438
q-59 64 -151 64q-104 0 -168.5 -82t-64.5 -224q0 -118 45 -196zM351 784h-57l94 158h105z" />
    <glyph glyph-name="oslashacute" unicode="&#x1ff;" horiz-adv-x="543" 
d="M529 525l-54 -68q62 -75 62 -193q0 -130 -71 -202.5t-174 -72.5q-80 0 -141 44l-54 -68l-42 36l55 69q-64 75 -64 194q0 130 71 202.5t175 72.5q80 0 142 -44l52 66zM162 132l226 301q-40 35 -96 35q-75 0 -118 -56.5t-43 -147.5q0 -77 31 -132zM422 392l-227 -300
q40 -34 97 -34q75 0 117.5 57t42.5 149q0 76 -30 128zM268 585h-57l94 158h105z" />
    <glyph glyph-name="Scommaaccent" unicode="&#x218;" horiz-adv-x="657" 
d="M292 -248l26 102h-37v98h95v-88l-47 -112h-37zM334 -14q-104 0 -177 52t-103 141l74 33q55 -148 210 -148q79 0 126 32t47 90q0 55 -39 88t-147 67q-131 40 -188.5 84t-57.5 133q0 85 66.5 140.5t171.5 55.5q100 0 165 -45t96 -121l-70 -39q-56 125 -192 125
q-69 0 -109.5 -30.5t-40.5 -78.5q0 -57 40 -86t155 -65q123 -38 180 -85.5t57 -136.5q0 -92 -73 -149t-191 -57z" />
    <glyph glyph-name="scommaaccent" unicode="&#x219;" horiz-adv-x="512" 
d="M219 -248l26 102h-37v98h95v-88l-47 -112h-37zM254 -10q-69 0 -125.5 24.5t-90.5 65.5l52 52q68 -73 165 -73q127 0 127 83q0 38 -31.5 57.5t-104.5 36.5q-97 23 -143 56t-46 103q0 62 50.5 103t134.5 41q121 0 202 -76l-45 -57q-68 63 -153 63q-54 0 -80.5 -20
t-26.5 -51q0 -35 29 -53t96 -33q52 -13 83 -23.5t61 -29.5t43.5 -46.5t13.5 -67.5q0 -74 -59 -114.5t-152 -40.5z" />
    <glyph glyph-name="schwa" unicode="&#x259;" horiz-adv-x="552" 
d="M267 539q100 0 169 -72t69 -203q0 -69 -21.5 -123.5t-56.5 -86.5t-76 -48.5t-84 -16.5q-96 0 -158 71t-62 207v18h373q-2 87 -46.5 135.5t-112.5 48.5q-54 0 -90.5 -21t-68.5 -65l-50 43q79 113 215 113zM418 219h-290q5 -73 41 -116t99 -43q57 0 99 40.5t51 118.5z" />
    <glyph glyph-name="circumflex" unicode="&#x2c6;" horiz-adv-x="518" 
d="M150 582h-52l129 161h63l129 -161h-52l-109 94z" />
    <glyph glyph-name="caron" unicode="&#x2c7;" horiz-adv-x="518" 
d="M290 586h-63l-129 161h53l108 -94l108 94h52z" />
    <glyph glyph-name="breve" unicode="&#x2d8;" horiz-adv-x="500" 
d="M250 579q-69 0 -110 45.5t-45 122.5h52q12 -104 103 -104t103 104h52q-4 -77 -45 -122.5t-110 -45.5z" />
    <glyph glyph-name="dotaccent" unicode="&#x2d9;" horiz-adv-x="500" 
d="M300 589h-100v90h100v-90z" />
    <glyph glyph-name="ring" unicode="&#x2da;" horiz-adv-x="540" 
d="M270 577q-41 0 -68 27t-27 68q0 40 27 66.5t68 26.5t68 -26.5t27 -66.5q0 -41 -27 -68t-68 -27zM270 617q23 0 37.5 15.5t14.5 39.5q0 23 -15 38.5t-37 15.5t-37 -15.5t-15 -38.5q0 -24 14.5 -39.5t37.5 -15.5z" />
    <glyph glyph-name="ogonek" unicode="&#x2db;" horiz-adv-x="500" 
d="M253 -187q-46 0 -71.5 20.5t-25.5 56.5q0 29 25 60t64 56h53q-75 -52 -75 -103q0 -46 51 -46q40 0 93 24l18 -30q-68 -38 -132 -38z" />
    <glyph glyph-name="tilde" unicode="&#x2dc;" horiz-adv-x="508" 
d="M328 580q-32 0 -80 28t-66 28q-22 0 -31.5 -12.5t-9.5 -41.5h-53q0 119 92 119q32 0 80 -28t67 -28q41 0 41 54h51q0 -119 -91 -119z" />
    <glyph glyph-name="hungarumlaut" unicode="&#x2dd;" horiz-adv-x="509" 
d="M301 585h-59l100 158h106zM134 585h-58l97 158h106z" />
    <glyph glyph-name="commaaccent" unicode="&#x326;" horiz-adv-x="271" 
d="M99 -248l26 102h-37v98h95v-88l-47 -112h-37z" />
    <glyph glyph-name="tonos" unicode="&#x384;" horiz-adv-x="500" 
d="M175 583l65 166h94l-102 -166h-57z" />
    <glyph glyph-name="dieresistonos" unicode="&#x385;" horiz-adv-x="514" 
d="M80 583v93h78v-93h-78zM357 583v93h77v-93h-77zM194 583l65 166h94l-103 -166h-56z" />
    <glyph glyph-name="Alphatonos" unicode="&#x386;" horiz-adv-x="689" 
d="M126 0h-85l262 743h92l262 -743h-91l-73 212h-294zM346 636l-120 -347h240l-118 347h-2zM11 574l65 166h94l-102 -166h-57z" />
    <glyph glyph-name="Epsilontonos" unicode="&#x388;" horiz-adv-x="732" 
d="M-22 574l65 166h94l-102 -166h-57zM689 0h-475v740h454v-81h-366v-231h272v-79h-272v-269h387v-80z" />
    <glyph glyph-name="Etatonos" unicode="&#x389;" horiz-adv-x="862" 
d="M-22 574l65 166h94l-102 -166h-57zM302 0h-88v740h88v-310h381v310h88v-740h-88v349h-381v-349z" />
    <glyph glyph-name="Iotatonos" unicode="&#x38a;" horiz-adv-x="413" 
d="M312 0h-88v740h88v-740zM-22 574l65 166h94l-102 -166h-57z" />
    <glyph glyph-name="Omicrontonos" unicode="&#x38c;" horiz-adv-x="839" 
d="M-22 574l65 166h94l-102 -166h-57zM465 -14q-140 0 -230 104.5t-90 279.5t90 279.5t230 104.5t229 -104t89 -280t-89 -280t-229 -104zM465 65q103 0 166.5 81.5t63.5 223.5t-63.5 223t-166.5 81q-104 0 -167.5 -81t-63.5 -223t63.5 -223.5t167.5 -81.5z" />
    <glyph glyph-name="Upsilontonos" unicode="&#x38e;" horiz-adv-x="795" 
d="M523 0h-88v324l-249 416h94l201 -341l200 341h92l-250 -416v-324zM-22 574l65 166h94l-102 -166h-57z" />
    <glyph glyph-name="Omegatonos" unicode="&#x38f;" horiz-adv-x="836" 
d="M462 755q144 0 226.5 -104.5t82.5 -255.5q0 -98 -43.5 -182.5t-119.5 -141.5h155v-71h-235v71q157 132 157 323q0 125 -59.5 206.5t-164.5 81.5q-102 0 -162 -79.5t-60 -207.5q0 -192 157 -324v-71h-236v71h155q-76 55 -119 140.5t-43 183.5q0 152 83 256t226 104z
M-22 574l65 166h94l-102 -166h-57z" />
    <glyph glyph-name="iotadieresistonos" unicode="&#x390;" horiz-adv-x="250" 
d="M-55 583v93h78v-93h-78zM222 583v93h77v-93h-77zM59 583l65 166h94l-103 -166h-56zM168 0h-86v528h86v-528z" />
    <glyph glyph-name="Alpha" unicode="&#x391;" horiz-adv-x="680" 
d="M117 0h-85l262 743h92l262 -743h-91l-73 212h-294zM337 636l-120 -347h240l-118 347h-2z" />
    <glyph glyph-name="Beta" unicode="&#x392;" horiz-adv-x="691" 
d="M377 0h-286v740h265q122 0 187.5 -47t65.5 -138q0 -72 -38 -115t-99 -56v-2q73 -14 117 -58.5t44 -121.5q0 -94 -67 -148t-189 -54zM178 341v-264h193q175 0 175 131q0 133 -193 133h-175zM178 662v-245h170q175 0 175 124q0 64 -41.5 92.5t-131.5 28.5h-172z" />
    <glyph glyph-name="Gamma" unicode="&#x393;" horiz-adv-x="570" 
d="M177 667v-667h-86v740h445v-73h-359z" />
    <glyph glyph-name="uni0394" unicode="&#x394;" horiz-adv-x="676" 
d="M30 0l267 744h82l267 -744h-616zM135 71h400l-198 560h-2z" />
    <glyph glyph-name="Epsilon" unicode="&#x395;" horiz-adv-x="609" 
d="M566 0h-475v740h454v-81h-366v-231h272v-79h-272v-269h387v-80z" />
    <glyph glyph-name="Zeta" unicode="&#x396;" horiz-adv-x="630" 
d="M581 0h-541v62l433 604h-405v74h513v-64l-430 -603h430v-73z" />
    <glyph glyph-name="Eta" unicode="&#x397;" horiz-adv-x="739" 
d="M179 0h-88v740h88v-310h381v310h88v-740h-88v349h-381v-349z" />
    <glyph glyph-name="Theta" unicode="&#x398;" horiz-adv-x="749" 
d="M495 340h-233v68h233v-68zM375 -14q-140 0 -230 104.5t-90 279.5t90 279.5t230 104.5t229 -104t89 -280t-89 -280t-229 -104zM375 65q103 0 166.5 81.5t63.5 223.5t-63.5 223t-166.5 81q-104 0 -167.5 -81t-63.5 -223t63.5 -223.5t167.5 -81.5z" />
    <glyph glyph-name="Iota" unicode="&#x399;" horiz-adv-x="290" 
d="M189 0h-88v740h88v-740z" />
    <glyph glyph-name="Kappa" unicode="&#x39a;" horiz-adv-x="678" 
d="M179 0h-88v740h88v-382l335 382h106l-254 -282l289 -458h-101l-246 391l-129 -141v-250z" />
    <glyph glyph-name="Lambda" unicode="&#x39b;" horiz-adv-x="666" 
d="M292 743h82l260 -743h-90l-212 625h-2l-213 -625h-85z" />
    <glyph glyph-name="Mu" unicode="&#x39c;" horiz-adv-x="878" 
d="M172 0h-81v740h115l233 -629h2l229 629h117v-740h-87v599h-2q-6 -24 -45 -136l-177 -463h-79l-177 463q-32 86 -46 139h-2v-602z" />
    <glyph glyph-name="Nu" unicode="&#x39d;" horiz-adv-x="749" 
d="M174 0h-83v740h93l389 -585h2v585h83v-740h-79l-403 601h-2v-601z" />
    <glyph glyph-name="Xi" unicode="&#x39e;" horiz-adv-x="577" 
d="M532 0h-487v71h202v282h-133v69h133v245h-195v73h472v-73h-194v-245h133v-69h-133v-282h202v-71z" />
    <glyph glyph-name="Omicron" unicode="&#x39f;" horiz-adv-x="749" 
d="M375 -14q-140 0 -230 104.5t-90 279.5t90 279.5t230 104.5t229 -104t89 -280t-89 -280t-229 -104zM375 65q103 0 166.5 81.5t63.5 223.5t-63.5 223t-166.5 81q-104 0 -167.5 -81t-63.5 -223t63.5 -223.5t167.5 -81.5z" />
    <glyph glyph-name="Pi" unicode="&#x3a0;" horiz-adv-x="728" 
d="M91 0v740h546v-740h-86v667h-374v-667h-86z" />
    <glyph glyph-name="Rho" unicode="&#x3a1;" horiz-adv-x="649" 
d="M179 0h-88v740h251q125 0 196 -52t71 -158q0 -112 -74 -164.5t-199 -52.5h-157v-313zM179 660v-269h162q91 0 136 31.5t45 104.5q0 70 -45 101.5t-137 31.5h-161z" />
    <glyph glyph-name="Sigma" unicode="&#x3a3;" horiz-adv-x="595" 
d="M382 387l-227 -316h387v-71h-489v62l232 322l-220 284v72h465v-73h-365z" />
    <glyph glyph-name="Tau" unicode="&#x3a4;" horiz-adv-x="623" 
d="M355 0h-88v659h-235v81h559v-81h-236v-659z" />
    <glyph glyph-name="Upsilon" unicode="&#x3a5;" horiz-adv-x="631" 
d="M359 0h-88v324l-249 416h94l201 -341l200 341h92l-250 -416v-324z" />
    <glyph glyph-name="Phi" unicode="&#x3a6;" horiz-adv-x="820" 
d="M451 740v-79q141 -6 226.5 -80.5t85.5 -201.5t-85 -201t-227 -82v-96h-83v96q-143 8 -227.5 81.5t-84.5 200.5q0 129 85.5 203t226.5 80v79h83zM451 593v-429q101 5 165 60.5t64 154.5q0 100 -64 155t-165 59zM368 164v429q-101 -3 -165 -60t-64 -154q0 -99 63 -154.5
t166 -60.5z" />
    <glyph glyph-name="Chi" unicode="&#x3a7;" horiz-adv-x="670" 
d="M123 0h-91l254 395l-223 345h101l175 -275l172 275h93l-221 -344l255 -396h-96l-209 326z" />
    <glyph glyph-name="Psi" unicode="&#x3a8;" horiz-adv-x="740" 
d="M680 740v-289q0 -72 -23 -125t-62.5 -82.5t-84.5 -44t-98 -16.5v-183h-83v183q-53 2 -98 16.5t-84.5 44t-62 82.5t-22.5 125v289h83v-291q0 -93 49 -141t135 -53v485h83v-485q185 10 185 194v291h83z" />
    <glyph glyph-name="uni03A9" unicode="&#x3a9;" horiz-adv-x="748" 
d="M374 755q144 0 226.5 -104.5t82.5 -255.5q0 -98 -43.5 -182.5t-119.5 -141.5h155v-71h-235v71q157 132 157 323q0 125 -59.5 206.5t-164.5 81.5q-102 0 -162 -79.5t-60 -207.5q0 -192 157 -324v-71h-236v71h155q-76 55 -119 140.5t-43 183.5q0 152 83 256t226 104z" />
    <glyph glyph-name="Iotadieresis" unicode="&#x3aa;" horiz-adv-x="290" 
d="M189 0h-88v740h88v-740zM280 785h-89v94h89v-94zM97 785h-88v94h88v-94z" />
    <glyph glyph-name="Upsilondieresis" unicode="&#x3ab;" horiz-adv-x="631" 
d="M359 0h-88v324l-249 416h94l201 -341l200 341h92l-250 -416v-324zM450 785h-89v94h89v-94zM267 785h-88v94h88v-94z" />
    <glyph glyph-name="alphatonos" unicode="&#x3ac;" horiz-adv-x="599" 
d="M262 583l65 166h94l-102 -166h-57zM522 0h-86v75q-76 -83 -174 -83q-95 0 -155 69t-60 202t62 204.5t163 71.5q92 0 164 -77v66h86v-528zM283 63q79 0 153 81v242q-71 80 -152 80q-71 0 -111 -51t-40 -153q0 -97 41.5 -148t108.5 -51z" />
    <glyph glyph-name="epsilontonos" unicode="&#x3ad;" horiz-adv-x="517" 
d="M234 583l65 166h94l-102 -166h-57zM442 107l31 -54q-97 -64 -216 -64q-107 0 -158 41t-51 109q0 57 34.5 94.5t87.5 47.5q-45 9 -71.5 40.5t-26.5 74.5q0 65 51.5 104.5t140.5 39.5q117 0 193 -51l-29 -55q-65 43 -155 43q-59 0 -91.5 -25.5t-32.5 -65.5q0 -41 32 -61.5
t84 -20.5h99v-53h-119q-49 0 -83 -26.5t-34 -73.5q0 -98 139 -98q89 0 175 54z" />
    <glyph glyph-name="etatonos" unicode="&#x3ae;" horiz-adv-x="588" 
d="M276 583l65 166h94l-102 -166h-57zM75 0v529h84v-89q94 100 203 100q159 0 159 -163v-577h-85v555q0 114 -105 114q-80 0 -172 -83v-386h-84z" />
    <glyph glyph-name="iotatonos" unicode="&#x3af;" horiz-adv-x="250" 
d="M94 583l65 166h94l-102 -166h-57zM168 0h-86v528h86v-528z" />
    <glyph glyph-name="upsilondieresistonos" unicode="&#x3b0;" horiz-adv-x="593" 
d="M111 583v93h78v-93h-78zM388 583v93h77v-93h-77zM225 583l65 166h94l-103 -166h-56zM293 58q71 0 105 40t34 126v305h85v-306q0 -114 -53 -174t-170 -60q-121 0 -172 61t-51 173v306h84v-305q0 -84 33 -125t105 -41z" />
    <glyph glyph-name="alpha" unicode="&#x3b1;" horiz-adv-x="599" 
d="M522 0h-86v75q-76 -83 -174 -83q-95 0 -155 69t-60 202t62 204.5t163 71.5q92 0 164 -77v66h86v-528zM283 63q79 0 153 81v242q-71 80 -152 80q-71 0 -111 -51t-40 -153q0 -97 41.5 -148t108.5 -51z" />
    <glyph glyph-name="beta" unicode="&#x3b2;" horiz-adv-x="626" 
d="M393 -10q-99 0 -166 62l39 46q51 -45 119 -45q58 0 91 39.5t33 108.5q0 85 -62.5 126.5t-161.5 43.5v59q81 0 117.5 35t36.5 88q0 57 -38 89.5t-98 32.5q-69 0 -107 -42t-38 -124v-709h-83v708q0 115 60.5 173t165.5 58q96 0 156 -47t60 -133q0 -54 -35 -95.5t-95 -54.5
q87 -10 144 -64.5t57 -140.5q0 -103 -53 -158.5t-142 -55.5z" />
    <glyph glyph-name="gamma" unicode="&#x3b3;" horiz-adv-x="515" 
d="M301 -200h-87v198l-194 530h92l148 -428h2l146 428h86l-193 -530v-198z" />
    <glyph glyph-name="delta" unicode="&#x3b4;" horiz-adv-x="586" 
d="M539 264q0 -128 -73.5 -201.5t-172.5 -73.5q-100 0 -173 73t-73 202q0 108 57 176.5t160 74.5q27 0 45 -7q-22 20 -98.5 86t-101.5 89v57h385v-63h-271l192 -167q62 -54 93 -112t31 -134zM455 263q0 117 -88 189q-24 11 -66 11q-82 0 -126 -52.5t-44 -147.5
q0 -92 45 -152t117 -60q71 0 116.5 59.5t45.5 152.5z" />
    <glyph glyph-name="epsilon" unicode="&#x3b5;" horiz-adv-x="517" 
d="M442 107l31 -54q-97 -64 -216 -64q-107 0 -158 41t-51 109q0 57 34.5 94.5t87.5 47.5q-45 9 -71.5 40.5t-26.5 74.5q0 65 51.5 104.5t140.5 39.5q117 0 193 -51l-29 -55q-65 43 -155 43q-59 0 -91.5 -25.5t-32.5 -65.5q0 -41 32 -61.5t84 -20.5h99v-53h-119
q-49 0 -83 -26.5t-34 -73.5q0 -98 139 -98q89 0 175 54z" />
    <glyph glyph-name="zeta" unicode="&#x3b6;" horiz-adv-x="455" 
d="M456 740v-49q-83 -70 -133.5 -117.5t-99 -105.5t-70 -115.5t-21.5 -119.5q0 -80 39 -125t132 -55q72 -8 108 -36.5t36 -87.5t-39 -93t-106 -34q-79 0 -134 38l20 41q46 -33 109 -33q39 0 63.5 18.5t24.5 54.5q0 33 -21 48.5t-75 21.5q-124 13 -181.5 75.5t-57.5 159.5
q0 66 22 127.5t66.5 118.5t92.5 103t118 102h-285v63h392z" />
    <glyph glyph-name="eta" unicode="&#x3b7;" horiz-adv-x="588" 
d="M75 0v529h84v-89q94 100 203 100q159 0 159 -163v-577h-85v555q0 114 -105 114q-80 0 -172 -83v-386h-84z" />
    <glyph glyph-name="theta" unicode="&#x3b8;" horiz-adv-x="582" 
d="M57 367q0 186 60 282t174 96q115 0 174 -97t59 -280t-58 -281t-176 -98q-233 0 -233 378zM290 685q-149 0 -152 -282h305q-3 282 -153 282zM291 49q81 0 116.5 74t35.5 222h-305q2 -150 37.5 -223t115.5 -73z" />
    <glyph glyph-name="iota" unicode="&#x3b9;" horiz-adv-x="244" 
d="M168 0h-86v528h86v-528z" />
    <glyph glyph-name="kappa" unicode="&#x3ba;" horiz-adv-x="540" 
d="M76 0v528h85v-264l236 264h98l-173 -188l192 -340h-92l-156 276l-105 -114v-162h-85z" />
    <glyph glyph-name="lambda" unicode="&#x3bb;" horiz-adv-x="525" 
d="M101 752q65 0 104.5 -30.5t62.5 -93.5l237 -628h-86l-156 431h-1l-158 -431h-83l203 533l-29 76q-28 73 -102 73q-37 0 -91 -13l-18 67q62 16 117 16z" />
    <glyph glyph-name="uni03BC" unicode="&#x3bc;" horiz-adv-x="588" 
d="M227 -10q-39 0 -70 11v-201h-86v728h86v-363q0 -53 23.5 -78t73.5 -25q81 0 171 85v381h87v-528h-87v79q-91 -89 -198 -89z" />
    <glyph glyph-name="nu" unicode="&#x3bd;" horiz-adv-x="515" 
d="M301 -2h-87l-194 530h92l148 -428h2l146 428h86z" />
    <glyph glyph-name="xi" unicode="&#x3be;" horiz-adv-x="452" 
d="M468 676h-158q-112 -28 -112 -123q0 -52 36.5 -87.5t117.5 -35.5v-59q-98 -2 -161 -42.5t-63 -119.5q0 -65 41.5 -106.5t132.5 -49.5q71 -7 107 -35.5t36 -88.5q0 -59 -39 -93t-106 -34q-79 0 -134 38l20 41q46 -33 109 -33q39 0 63.5 18.5t24.5 54.5q0 33 -21 49.5
t-75 21.5q-238 23 -238 212q0 86 57 140.5t143 64.5q-61 12 -95 52t-34 93q0 84 77 123h-133v63h404v-64z" />
    <glyph glyph-name="omicron" unicode="&#x3bf;" horiz-adv-x="583" 
d="M292 -11q-103 0 -174.5 72.5t-71.5 202.5t71 202.5t175 72.5q103 0 174 -72.5t71 -202.5t-71 -202.5t-174 -72.5zM292 62q74 0 116 55t42 147q0 87 -41 144t-117 57q-75 0 -117 -55t-42 -146q0 -89 41 -145.5t118 -56.5z" />
    <glyph glyph-name="pi" unicode="&#x3c0;" horiz-adv-x="651" 
d="M9 464v65h633v-65h-97v-464h-84v464h-271v-464h-84v464h-97z" />
    <glyph glyph-name="rho" unicode="&#x3c1;" horiz-adv-x="588" 
d="M540 264q0 -134 -57 -204t-155 -70q-101 0 -178 88v-278h-84v464q0 132 68.5 204t169.5 72q107 0 171.5 -68.5t64.5 -207.5zM456 264q0 100 -41.5 152t-112.5 52q-70 0 -111 -58t-41 -154v-120q40 -43 74.5 -62t77.5 -19q71 0 112.5 53.5t41.5 155.5z" />
    <glyph glyph-name="sigma1" unicode="&#x3c2;" horiz-adv-x="539" 
d="M131 263q0 -191 173 -210q71 -7 107 -35.5t36 -88.5q0 -59 -39 -93t-106 -34q-79 0 -134 38l20 41q46 -33 109 -33q39 0 63.5 18.5t24.5 54.5q0 33 -21 49t-75 22q-118 13 -180 84t-62 188q0 72 21.5 127.5t57.5 86.5t77.5 46.5t85.5 15.5q84 0 131 -39.5t75 -113.5
l-71 -25q-22 59 -53 86.5t-82 27.5q-68 0 -113 -55.5t-45 -157.5z" />
    <glyph glyph-name="sigma" unicode="&#x3c3;" horiz-adv-x="599" 
d="M293 -11q-100 0 -173 73t-73 202q0 65 21.5 117t57.5 83.5t80 48t92 16.5h257v-64h-112q44 -29 70 -81t26 -120q0 -128 -73.5 -201.5t-172.5 -73.5zM293 51q71 0 116.5 59.5t45.5 152.5q0 140 -109 202h-49q-73 0 -119.5 -54.5t-46.5 -147.5q0 -92 45 -152t117 -60z" />
    <glyph glyph-name="tau" unicode="&#x3c4;" horiz-adv-x="463" 
d="M271 0h-84v465h-164v64h417v-64h-169v-465z" />
    <glyph glyph-name="upsilon" unicode="&#x3c5;" horiz-adv-x="593" 
d="M293 58q71 0 105 40t34 126v305h85v-306q0 -114 -53 -174t-170 -60q-121 0 -172 61t-51 173v306h84v-305q0 -84 33 -125t105 -41z" />
    <glyph glyph-name="phi" unicode="&#x3c6;" horiz-adv-x="717" 
d="M321 539v201h76v-201q54 -2 101.5 -18.5t86.5 -48.5t62 -85.5t23 -122.5q0 -132 -78.5 -201.5t-194.5 -72.5v-190h-76v190q-116 3 -195 72t-79 202q0 134 79.5 203t194.5 72zM397 474v-422q83 4 136 58.5t53 153.5q0 97 -53.5 151.5t-135.5 58.5zM321 52v422
q-85 -4 -137.5 -58.5t-52.5 -151.5t52.5 -152t137.5 -60z" />
    <glyph glyph-name="chi" unicode="&#x3c7;" horiz-adv-x="518" 
d="M117 0h-90l188 273l-175 255h94l129 -193l128 193h91l-176 -254l187 -274h-93l-142 210z" />
    <glyph glyph-name="psi" unicode="&#x3c8;" horiz-adv-x="741" 
d="M329 -200v189q-263 7 -263 246v294h84v-294q0 -80 44 -127.5t135 -50.5v683h83v-683q91 4 135 51t44 127v294h84v-293q0 -112 -63 -177.5t-200 -69.5v-189h-83z" />
    <glyph glyph-name="omega" unicode="&#x3c9;" horiz-adv-x="759" 
d="M342 358h76v-192q0 -48 24.5 -78t67.5 -30q55 0 87 48.5t32 137.5q0 90 -36 164.5t-102 120.5h94q60 -45 94 -121.5t34 -169.5q0 -113 -50 -181t-141 -68q-56 0 -93.5 30t-48.5 69q-12 -40 -48.5 -69.5t-93.5 -29.5q-91 0 -141 68t-50 181q0 93 34 169.5t94 121.5h94
q-66 -46 -102 -120.5t-36 -164.5q0 -88 32 -137t87 -49q43 0 67.5 30t24.5 78v192z" />
    <glyph glyph-name="iotadieresis" unicode="&#x3ca;" horiz-adv-x="250" 
d="M168 0h-86v528h86v-528zM260 583h-89v94h89v-94zM77 583h-88v94h88v-94z" />
    <glyph glyph-name="upsilondieresis" unicode="&#x3cb;" horiz-adv-x="593" 
d="M422 583h-89v94h89v-94zM239 583h-88v94h88v-94zM293 58q71 0 105 40t34 126v305h85v-306q0 -114 -53 -174t-170 -60q-121 0 -172 61t-51 173v306h84v-305q0 -84 33 -125t105 -41z" />
    <glyph glyph-name="omicrontonos" unicode="&#x3cc;" horiz-adv-x="583" 
d="M263 583l65 166h94l-102 -166h-57zM292 -11q-103 0 -174.5 72.5t-71.5 202.5t71 202.5t175 72.5q103 0 174 -72.5t71 -202.5t-71 -202.5t-174 -72.5zM292 62q74 0 116 55t42 147q0 87 -41 144t-117 57q-75 0 -117 -55t-42 -146q0 -89 41 -145.5t118 -56.5z" />
    <glyph glyph-name="upsilontonos" unicode="&#x3cd;" horiz-adv-x="593" 
d="M264 583l65 166h94l-102 -166h-57zM298 58q71 0 105 40t34 126v305h85v-306q0 -114 -53 -174t-170 -60q-121 0 -172 61t-51 173v306h84v-305q0 -84 33 -125t105 -41z" />
    <glyph glyph-name="omegatonos" unicode="&#x3ce;" horiz-adv-x="759" 
d="M318 583l65 166h94l-102 -166h-57zM342 358h76v-192q0 -48 24.5 -78t67.5 -30q55 0 87 48.5t32 137.5q0 90 -36 164.5t-102 120.5h94q60 -45 94 -121.5t34 -169.5q0 -113 -50 -181t-141 -68q-56 0 -93.5 30t-48.5 69q-12 -40 -48.5 -69.5t-93.5 -29.5q-91 0 -141 68
t-50 181q0 93 34 169.5t94 121.5h94q-66 -46 -102 -120.5t-36 -164.5q0 -88 32 -137t87 -49q43 0 67.5 30t24.5 78v192z" />
    <glyph glyph-name="afii10023" unicode="&#x401;" horiz-adv-x="609" 
d="M566 0h-475v740h454v-81h-366v-231h272v-79h-272v-269h387v-80zM457 785h-89v94h89v-94zM274 785h-88v94h88v-94z" />
    <glyph glyph-name="afii10051" unicode="&#x402;" horiz-adv-x="818" 
d="M358 363v-363h-87v667h-239v73h564v-73h-238v-250q83 96 194 96q94 0 156.5 -69t62.5 -182q0 -118 -65 -190t-182 -72v63q81 0 122 52t41 140q0 79 -43.5 132.5t-116.5 53.5q-86 0 -169 -78z" />
    <glyph glyph-name="afii10052" unicode="&#x403;" horiz-adv-x="567" 
d="M307 787h-57l94 158h105zM177 667v-667h-86v740h445v-73h-359z" />
    <glyph glyph-name="afii10053" unicode="&#x404;" horiz-adv-x="702" 
d="M373 -15q-141 0 -229.5 105.5t-88.5 283.5q0 174 89 277.5t225 103.5q201 0 270 -210l-80 -29q-54 166 -191 166q-95 0 -156.5 -76t-67.5 -196h284v-69h-285q6 -126 69 -205.5t161 -79.5q44 0 78.5 15t57.5 42t37 55.5t25 64.5l80 -25q-13 -41 -32.5 -76t-51.5 -70.5
t-82 -56t-112 -20.5z" />
    <glyph glyph-name="afii10054" unicode="&#x405;" horiz-adv-x="657" 
d="M334 -14q-104 0 -177 52t-103 141l74 33q55 -148 210 -148q79 0 126 32t47 90q0 55 -39 88t-147 67q-131 40 -188.5 84t-57.5 133q0 85 66.5 140.5t171.5 55.5q100 0 165 -45t96 -121l-70 -39q-56 125 -192 125q-69 0 -109.5 -30.5t-40.5 -78.5q0 -57 40 -86t155 -65
q123 -38 180 -85.5t57 -136.5q0 -92 -73 -149t-191 -57z" />
    <glyph glyph-name="afii10055" unicode="&#x406;" horiz-adv-x="290" 
d="M189 0h-88v740h88v-740z" />
    <glyph glyph-name="afii10056" unicode="&#x407;" horiz-adv-x="290" 
d="M189 0h-88v740h88v-740zM280 785h-89v94h89v-94zM97 785h-88v94h88v-94z" />
    <glyph glyph-name="afii10057" unicode="&#x408;" horiz-adv-x="505" 
d="M212 -14q-118 0 -188 97l59 50q51 -70 126 -70q125 0 125 143v534h88v-540q0 -103 -55.5 -158.5t-154.5 -55.5z" />
    <glyph glyph-name="afii10058" unicode="&#x409;" horiz-adv-x="1128" 
d="M226 667v-483q0 -96 -48.5 -140t-163.5 -44v70q72 0 98.5 25.5t26.5 87.5v557h525v-317h154q128 0 200.5 -52.5t72.5 -160.5q0 -106 -74 -158t-199 -52h-240v667h-352zM664 68h157q93 0 139.5 38t46.5 103t-46.5 103.5t-139.5 38.5h-157v-283z" />
    <glyph glyph-name="afii10059" unicode="&#x40a;" horiz-adv-x="1112" 
d="M560 0v349h-381v-349h-88v740h88v-310h381v310h88v-310h154q126 0 199.5 -55.5t73.5 -164.5q0 -106 -74 -158t-199 -52h-242zM648 68h157q93 0 139.5 38t46.5 103t-46.5 103t-139.5 38h-157v-282z" />
    <glyph glyph-name="afii10060" unicode="&#x40b;" horiz-adv-x="785" 
d="M270 0v667h-239v73h564v-73h-238v-244q91 99 202 99q159 0 159 -162v-360h-84v337q0 114 -106 114q-82 0 -171 -83v-368h-87z" />
    <glyph glyph-name="afii10061" unicode="&#x40c;" horiz-adv-x="678" 
d="M343 787h-57l94 158h105zM179 0h-88v740h88v-382l335 382h106l-254 -282l289 -458h-101l-246 391l-129 -141v-250z" />
    <glyph glyph-name="afii10062" unicode="&#x40e;" horiz-adv-x="670" 
d="M98 80q35 -20 78 -20q46 0 71 21t50 76q1 1 8 16.5t7 16.5l-279 550h89l198 -399l32 -67l30 67l179 399h88q-29 -65 -140 -301t-141 -301q-38 -81 -78.5 -115t-111.5 -34q-66 0 -119 29zM350 780q-69 0 -110 45.5t-45 122.5h52q12 -104 103 -104t103 104h52
q-4 -77 -45 -122.5t-110 -45.5z" />
    <glyph glyph-name="afii10145" unicode="&#x40f;" horiz-adv-x="740" 
d="M91 0v740h86v-667h386v667h86v-740h-236v-171h-84v171h-238z" />
    <glyph glyph-name="afii10017" unicode="&#x410;" horiz-adv-x="680" 
d="M117 0h-85l262 743h92l262 -743h-91l-73 212h-294zM337 636l-120 -347h240l-118 347h-2z" />
    <glyph glyph-name="afii10018" unicode="&#x411;" horiz-adv-x="640" 
d="M91 0v740h463v-73h-378v-251h154q127 0 200 -52t73 -157q0 -104 -74 -155.5t-199 -51.5h-239zM176 68h157q93 0 139.5 37t46.5 100q0 64 -46.5 101.5t-139.5 37.5h-157v-276z" />
    <glyph glyph-name="afii10019" unicode="&#x412;" horiz-adv-x="691" 
d="M377 0h-286v740h265q122 0 187.5 -47t65.5 -138q0 -72 -38 -115t-99 -56v-2q73 -14 117 -58.5t44 -121.5q0 -94 -67 -148t-189 -54zM178 341v-264h193q175 0 175 131q0 133 -193 133h-175zM178 662v-245h170q175 0 175 124q0 64 -41.5 92.5t-131.5 28.5h-172z" />
    <glyph glyph-name="afii10020" unicode="&#x413;" horiz-adv-x="572" 
d="M92 0v740h445v-73h-359v-667h-86z" />
    <glyph glyph-name="afii10021" unicode="&#x414;" horiz-adv-x="785" 
d="M675 73h75v-244h-86v171h-557v-171h-86v244h25q59 1 78 28.5t28 119.5l49 519h474v-667zM589 73v588h-312l-41 -449q-7 -64 -15.5 -95t-28.5 -44h397z" />
    <glyph glyph-name="afii10022" unicode="&#x415;" horiz-adv-x="609" 
d="M566 0h-475v740h454v-81h-366v-231h272v-79h-272v-269h387v-80z" />
    <glyph glyph-name="afii10024" unicode="&#x416;" horiz-adv-x="1081" 
d="M499 0v248l-131 143l-247 -391h-98l289 456l-255 284h100l342 -386v386h84v-386l341 386h101l-255 -284l288 -456h-98l-246 391l-131 -143v-248h-84z" />
    <glyph glyph-name="afii10025" unicode="&#x417;" horiz-adv-x="600" 
d="M289 -15q-173 0 -264 135l55 47q31 -49 83 -80.5t122 -31.5q77 0 124.5 41.5t47.5 108.5q0 154 -206 154h-45v66h44q93 0 142.5 32.5t49.5 95.5q0 61 -37.5 95.5t-113.5 34.5q-107 0 -181 -90l-49 52q38 47 101 78t137 31q111 0 169.5 -49.5t58.5 -139.5q0 -68 -44 -114
t-120 -56q89 -10 136 -61.5t47 -133.5q0 -98 -71 -156.5t-186 -58.5z" />
    <glyph glyph-name="afii10026" unicode="&#x418;" horiz-adv-x="749" 
d="M658 0h-83v601h-2l-403 -601h-79v740h83v-585h2l389 585h93v-740z" />
    <glyph glyph-name="afii10027" unicode="&#x419;" horiz-adv-x="749" 
d="M373 780q-69 0 -110 45.5t-45 122.5h52q12 -104 103 -104t103 104h52q-4 -77 -45 -122.5t-110 -45.5zM575 0h83v740h-93l-389 -585h-2v585h-83v-740h79l403 601h2v-601z" />
    <glyph glyph-name="afii10028" unicode="&#x41a;" horiz-adv-x="678" 
d="M179 0h-88v740h88v-382l335 382h106l-254 -282l289 -458h-101l-246 391l-129 -141v-250z" />
    <glyph glyph-name="afii10029" unicode="&#x41b;" horiz-adv-x="755" 
d="M226 667v-483q0 -96 -48.5 -140t-163.5 -44v70q72 0 98.5 25.5t26.5 87.5v557h525v-740h-86v667h-352z" />
    <glyph glyph-name="afii10030" unicode="&#x41c;" horiz-adv-x="878" 
d="M172 0h-81v740h115l233 -629h2l229 629h117v-740h-87v599h-2q-6 -24 -45 -136l-177 -463h-79l-177 463q-32 86 -46 139h-2v-602z" />
    <glyph glyph-name="afii10031" unicode="&#x41d;" horiz-adv-x="739" 
d="M179 0h-88v740h88v-310h381v310h88v-740h-88v349h-381v-349z" />
    <glyph glyph-name="afii10032" unicode="&#x41e;" horiz-adv-x="749" 
d="M375 -14q-140 0 -230 104.5t-90 279.5t90 279.5t230 104.5t229 -104t89 -280t-89 -280t-229 -104zM375 65q103 0 166.5 81.5t63.5 223.5t-63.5 223t-166.5 81q-104 0 -167.5 -81t-63.5 -223t63.5 -223.5t167.5 -81.5z" />
    <glyph glyph-name="afii10033" unicode="&#x41f;" horiz-adv-x="740" 
d="M91 0v740h558v-740h-86v667h-386v-667h-86z" />
    <glyph glyph-name="afii10034" unicode="&#x420;" horiz-adv-x="649" 
d="M179 0h-88v740h251q125 0 196 -52t71 -158q0 -112 -74 -164.5t-199 -52.5h-157v-313zM179 660v-269h162q91 0 136 31.5t45 104.5q0 70 -45 101.5t-137 31.5h-161z" />
    <glyph glyph-name="afii10035" unicode="&#x421;" horiz-adv-x="705" 
d="M369 -14q-143 0 -228.5 103.5t-85.5 283.5q0 172 87 276.5t227 104.5q217 0 274 -227l-84 -23q-25 87 -69 128t-122 41q-103 0 -163.5 -81t-60.5 -218q0 -146 60.5 -227t165.5 -81q155 0 201 179l83 -19q-28 -113 -100 -176.5t-185 -63.5z" />
    <glyph glyph-name="afii10036" unicode="&#x422;" horiz-adv-x="623" 
d="M355 0h-88v659h-235v81h559v-81h-236v-659z" />
    <glyph glyph-name="afii10037" unicode="&#x423;" horiz-adv-x="670" 
d="M98 80q35 -20 78 -20q46 0 71 21t50 76q1 1 8 16.5t7 16.5l-279 550h89l198 -399l32 -67l30 67l179 399h88q-29 -65 -140 -301t-141 -301q-38 -81 -78.5 -115t-111.5 -34q-66 0 -119 29z" />
    <glyph glyph-name="afii10038" unicode="&#x424;" horiz-adv-x="760" 
d="M340 0v96q-124 6 -205 77t-81 196t81 196.5t205 77.5v97h79v-97q124 -6 205.5 -77.5t81.5 -196.5t-81.5 -196t-205.5 -77v-96h-79zM622 369q0 87 -55 145t-148 64v-420q93 7 148 64.5t55 146.5zM138 369q0 -88 54.5 -146t147.5 -64v419q-92 -6 -147 -63.5t-55 -145.5z
" />
    <glyph glyph-name="afii10039" unicode="&#x425;" horiz-adv-x="670" 
d="M123 0h-91l254 395l-223 345h101l175 -275l172 275h93l-221 -344l255 -396h-96l-209 326z" />
    <glyph glyph-name="afii10040" unicode="&#x426;" horiz-adv-x="759" 
d="M639 0h-548v740h86v-667h386v667h86v-667h75v-244h-85v171z" />
    <glyph glyph-name="afii10041" unicode="&#x427;" horiz-adv-x="684" 
d="M508 0v341q-35 -26 -93.5 -42t-117.5 -16q-110 0 -161.5 52.5t-51.5 177.5v228h85v-221q0 -93 32.5 -130.5t114.5 -37.5q52 0 104.5 14.5t87.5 40.5v333h85v-740h-85z" />
    <glyph glyph-name="afii10042" unicode="&#x428;" horiz-adv-x="1025" 
d="M934 740v-740h-843v740h85v-667h293v667h86v-667h292v667h87z" />
    <glyph glyph-name="afii10043" unicode="&#x429;" horiz-adv-x="1043" 
d="M924 0h-833v740h85v-667h293v667h86v-667h292v667h87v-667h74v-244h-84v171z" />
    <glyph glyph-name="afii10044" unicode="&#x42a;" horiz-adv-x="767" 
d="M193 0v667h-185v73h271v-317h154q128 0 200.5 -52.5t72.5 -160.5q0 -106 -74 -158t-199 -52h-240zM279 68h157q93 0 139 37.5t46 103.5q0 65 -46.5 103.5t-138.5 38.5h-157v-283z" />
    <glyph glyph-name="afii10045" unicode="&#x42b;" horiz-adv-x="869" 
d="M778 0h-88v740h88v-740zM91 0v740h85v-317h154q128 0 200.5 -52.5t72.5 -160.5q0 -106 -74 -158t-199 -52h-239zM176 68h157q93 0 139.5 38t46.5 103t-46.5 103.5t-139.5 38.5h-157v-283z" />
    <glyph glyph-name="afii10046" unicode="&#x42c;" horiz-adv-x="640" 
d="M91 0v740h85v-317h154q128 0 200.5 -52.5t72.5 -160.5q0 -106 -74 -158t-199 -52h-239zM176 68h157q93 0 139.5 38t46.5 103t-46.5 103.5t-139.5 38.5h-157v-283z" />
    <glyph glyph-name="afii10047" unicode="&#x42d;" horiz-adv-x="702" 
d="M330 -15q-63 0 -113 20.5t-82 55.5t-51.5 70.5t-31.5 76.5l79 25q11 -36 25 -64.5t37 -55.5t57.5 -42t78.5 -15q99 0 161.5 79.5t68.5 205.5h-285v69h284q-6 120 -67.5 196t-156.5 76q-78 0 -121.5 -45t-68.5 -121l-81 29q69 210 271 210q135 0 224 -103.5t89 -277.5
q0 -178 -88.5 -283.5t-228.5 -105.5z" />
    <glyph glyph-name="afii10048" unicode="&#x42e;" horiz-adv-x="1015" 
d="M638 -15q-130 0 -220.5 97t-99.5 260h-141v-342h-86v740h86v-325h143q12 156 101.5 248t216.5 92q136 0 228.5 -104.5t92.5 -280.5t-92.5 -280.5t-228.5 -104.5zM638 56q105 0 170 87.5t65 226.5t-65 225.5t-170 86.5t-170 -86.5t-65 -225.5t65 -226.5t170 -87.5z" />
    <glyph glyph-name="afii10049" unicode="&#x42f;" horiz-adv-x="677" 
d="M586 0h-87v319h-167l-177 -319h-96l182 330q-172 36 -172 203q0 101 68 154t195 53h254v-740zM499 397v263h-161q-92 0 -137 -30t-45 -100q0 -73 45 -103t136 -30h162z" />
    <glyph glyph-name="afii10065" unicode="&#x430;" horiz-adv-x="553" 
d="M193 -8q-69 0 -109 35t-40 98q0 84 82 138.5t271 81.5v24q0 98 -100 98q-99 0 -191 -80l-45 54q107 98 245 98q176 0 176 -176v-233q0 -93 15 -130h-88q-12 38 -12 73q-87 -81 -204 -81zM218 60q100 0 179 77v148q-145 -23 -206.5 -59t-61.5 -88q0 -38 23.5 -58t65.5 -20
z" />
    <glyph glyph-name="afii10066" unicode="&#x431;" horiz-adv-x="586" 
d="M292 -11q-105 0 -174.5 77t-69.5 204q0 74 2 98q2 54 9.5 99t27.5 95.5t51.5 85.5t85.5 58.5t125 25.5q82 2 130 14v-77q-41 -11 -125 -13q-218 -6 -223 -262q24 57 74.5 89t104.5 32q95 0 161.5 -72t66.5 -191q0 -117 -71 -190t-175 -73zM292 51q69 0 115.5 55.5
t46.5 145.5q0 91 -46.5 147t-115.5 56t-114.5 -55.5t-45.5 -146.5q0 -90 46 -146t114 -56z" />
    <glyph glyph-name="afii10067" unicode="&#x432;" horiz-adv-x="535" 
d="M75 0v529h202q86 0 141 -31.5t55 -97.5q0 -53 -30.5 -84.5t-80.5 -40.5v-1q129 -19 129 -131q0 -68 -54.5 -105.5t-142.5 -37.5h-219zM155 59h130q61 0 92.5 24.5t31.5 67.5q0 93 -136 93h-118v-185zM155 296h115q124 0 124 89q0 39 -31.5 61.5t-91.5 22.5h-116v-173z
" />
    <glyph glyph-name="afii10068" unicode="&#x433;" horiz-adv-x="463" 
d="M439 529v-64h-280v-465h-84v529h364z" />
    <glyph glyph-name="afii10069" unicode="&#x434;" horiz-adv-x="618" 
d="M94 -200h-82v264q57 2 80 27t28 73l31 365h381v-465h55v-264h-80v200h-413v-200zM448 60v405h-219l-26 -306q-6 -76 -56 -99h301z" />
    <glyph glyph-name="afii10070" unicode="&#x435;" horiz-adv-x="552" 
d="M285 -11q-100 0 -169.5 72t-69.5 203q0 69 21.5 123.5t56.5 86.5t76.5 48.5t84.5 16.5q99 0 159.5 -70.5t60.5 -208.5v-18h-373q2 -86 46.5 -134.5t112.5 -48.5q54 0 90.5 21t68.5 65l50 -44q-78 -112 -215 -112zM134 309h289q-5 73 -40.5 115.5t-98.5 42.5
q-57 0 -99 -40t-51 -118z" />
    <glyph glyph-name="afii10072" unicode="&#x436;" horiz-adv-x="855" 
d="M468 529v-276l248 276h90l-174 -194l192 -335h-87l-157 274q-86 -93 -112 -122v-152h-81v152l-112 122l-157 -274h-88l193 335l-174 194h90l248 -276v276h81z" />
    <glyph glyph-name="afii10073" unicode="&#x437;" horiz-adv-x="494" 
d="M244 -11q-142 0 -212 98l51 42q58 -77 160 -77q63 0 100 27.5t37 71.5q0 47 -42 70.5t-139 23.5h-20v50h22q88 0 127 22t39 72q0 38 -30.5 62.5t-92.5 24.5q-82 0 -138 -58l-45 42q73 80 187 80q95 0 144.5 -39.5t49.5 -101.5q0 -54 -29.5 -87t-86.5 -40
q130 -25 130 -129q0 -67 -57 -110.5t-155 -43.5z" />
    <glyph glyph-name="afii10074" unicode="&#x438;" horiz-adv-x="613" 
d="M538 529v-529h-81v412q-28 -40 -142 -197t-155 -215h-85v529h80v-413l295 413h88z" />
    <glyph glyph-name="afii10075" unicode="&#x439;" horiz-adv-x="613" 
d="M538 529v-529h-81v412q-28 -40 -142 -197t-155 -215h-85v529h80v-413l295 413h88zM305 579q-69 0 -110 45.5t-45 122.5h52q12 -104 103 -104t103 104h52q-4 -77 -45 -122.5t-110 -45.5z" />
    <glyph glyph-name="afii10076" unicode="&#x43a;" horiz-adv-x="540" 
d="M76 0v528h85v-264l236 264h98l-173 -188l192 -340h-92l-156 276l-105 -114v-162h-85z" />
    <glyph glyph-name="afii10077" unicode="&#x43b;" horiz-adv-x="609" 
d="M450 0v465h-256v-315q0 -92 -43 -120.5t-144 -28.5v61q64 1 83.5 16.5t19.5 69.5v381h424v-529h-84z" />
    <glyph glyph-name="afii10078" unicode="&#x43c;" horiz-adv-x="709" 
d="M146 0h-71v529h103l176 -440h2l174 440h103v-529h-74v419h-1q-2 -7 -20 -53t-20 -52l-131 -314h-69l-130 311q-2 7 -21 55t-20 53h-1v-419z" />
    <glyph glyph-name="afii10079" unicode="&#x43d;" horiz-adv-x="598" 
d="M75 0v529h84v-221h279v221h84v-529h-84v241h-279v-241h-84z" />
    <glyph glyph-name="afii10080" unicode="&#x43e;" horiz-adv-x="583" 
d="M292 -11q-103 0 -174.5 72.5t-71.5 202.5t71 202.5t175 72.5q103 0 174 -72.5t71 -202.5t-71 -202.5t-174 -72.5zM292 62q74 0 116 55t42 147q0 87 -41 144t-117 57q-75 0 -117 -55t-42 -146q0 -89 41 -145.5t118 -56.5z" />
    <glyph glyph-name="afii10081" unicode="&#x43f;" horiz-adv-x="596" 
d="M75 0v529h446v-529h-85v465h-277v-465h-84z" />
    <glyph glyph-name="afii10082" unicode="&#x440;" horiz-adv-x="599" 
d="M162 -200h-86v728h86v-73q76 84 174 84q95 0 155 -70.5t60 -203.5t-61.5 -203t-162.5 -70q-92 0 -165 76v-268zM315 62q71 0 110.5 50t39.5 152q0 98 -41 149.5t-108 51.5q-80 0 -154 -81v-242q71 -80 153 -80z" />
    <glyph glyph-name="afii10083" unicode="&#x441;" horiz-adv-x="536" 
d="M281 -11q-98 0 -166.5 73t-68.5 202q0 135 72 205t170 70q146 0 207 -148l-73 -30q-40 105 -136 105q-64 0 -108.5 -49t-44.5 -153q0 -96 41.5 -149.5t109.5 -53.5q51 0 84 24.5t58 81.5l71 -28q-34 -72 -85 -111t-131 -39z" />
    <glyph glyph-name="afii10084" unicode="&#x442;" horiz-adv-x="504" 
d="M210 0v465h-186v64h457v-64h-187v-465h-84z" />
    <glyph glyph-name="afii10085" unicode="&#x443;" horiz-adv-x="533" 
d="M106 -203q-56 0 -99 13l20 69q34 -9 78 -9q40 0 62.5 17.5t38.5 57.5l20 52l-204 531h91l155 -427h2l155 427h87l-226 -588q-29 -75 -68 -109t-112 -34z" />
    <glyph glyph-name="afii10086" unicode="&#x444;" horiz-adv-x="941" 
d="M429 -200v285q-73 -95 -174 -95q-95 0 -151 69t-56 203t57 206t151 72q98 0 173 -91v291h84v-297q71 96 173 96q95 0 151 -70.5t56 -204.5t-56 -204t-151 -70q-98 0 -173 88v-278h-84zM284 56q78 0 145 80v252q-39 43 -72 62t-75 19q-69 0 -109 -52.5t-40 -154.5
q0 -99 40.5 -152.5t110.5 -53.5zM659 55q69 0 109.5 53.5t40.5 155.5q0 100 -40.5 152t-111.5 52q-79 0 -144 -80v-252q39 -43 71.5 -62t74.5 -19z" />
    <glyph glyph-name="afii10087" unicode="&#x445;" horiz-adv-x="518" 
d="M117 0h-90l188 273l-175 255h94l129 -193l128 193h91l-176 -254l187 -274h-93l-142 210z" />
    <glyph glyph-name="afii10088" unicode="&#x446;" horiz-adv-x="606" 
d="M496 0h-421v529h84v-465h277v465h85v-465h55v-264h-80v200z" />
    <glyph glyph-name="afii10089" unicode="&#x447;" horiz-adv-x="583" 
d="M508 529v-529h-84v252q-93 -99 -203 -99q-159 0 -159 162v214h85v-191q0 -114 105 -114q82 0 172 83v222h84z" />
    <glyph glyph-name="afii10090" unicode="&#x448;" horiz-adv-x="928" 
d="M853 529v-529h-778v529h84v-465h262v465h85v-465h262v465h85z" />
    <glyph glyph-name="afii10091" unicode="&#x449;" horiz-adv-x="938" 
d="M828 0h-753v529h84v-465h262v465h85v-465h262v465h85v-465h55v-264h-80v200z" />
    <glyph glyph-name="afii10092" unicode="&#x44a;" horiz-adv-x="606" 
d="M237 529v-198h112q110 0 167 -36.5t57 -127.5q0 -85 -60 -126t-162 -41h-197v465h-142v64h225zM352 271h-115v-210h115q141 0 141 107q0 55 -34 79t-107 24z" />
    <glyph glyph-name="afii10093" unicode="&#x44b;" horiz-adv-x="716" 
d="M644 0h-86v528h86v-528zM75 0v529h84v-198h111q111 0 168 -36.5t57 -127.5q0 -85 -60.5 -126t-162.5 -41h-197zM159 271v-210h114q141 0 141 107q0 55 -34 79t-106 24h-115z" />
    <glyph glyph-name="afii10094" unicode="&#x44c;" horiz-adv-x="528" 
d="M75 0v529h84v-198h111q111 0 168 -36.5t57 -127.5q0 -85 -60.5 -126t-162.5 -41h-197zM159 271v-210h114q141 0 141 107q0 55 -34 79t-106 24h-115z" />
    <glyph glyph-name="afii10095" unicode="&#x44d;" horiz-adv-x="532" 
d="M249 -11q-77 0 -126 36t-84 105l67 31q26 -57 59 -83.5t83 -26.5q68 0 109.5 54.5t43.5 136.5h-203v53h202q-5 88 -49.5 135t-108.5 47q-50 0 -80 -26t-52 -81l-69 29q28 69 75 105t127 36q44 0 85.5 -15.5t77.5 -46.5t57.5 -86.5t21.5 -127.5q0 -126 -68 -200.5
t-168 -74.5z" />
    <glyph glyph-name="afii10096" unicode="&#x44e;" horiz-adv-x="803" 
d="M511 -11q-92 0 -162 64.5t-81 175.5h-108v-229h-84v529h84v-233h108q9 115 79 179.5t164 64.5q100 0 173 -72.5t73 -203.5q0 -128 -73.5 -201.5t-172.5 -73.5zM511 51q71 0 116.5 59.5t45.5 152.5q0 94 -45.5 153.5t-116.5 59.5q-72 0 -117 -59t-45 -154q0 -92 45 -152
t117 -60z" />
    <glyph glyph-name="afii10097" unicode="&#x44f;" horiz-adv-x="542" 
d="M468 529v-529h-84v205h-107q-22 0 -31 1l-117 -206h-87l126 218q-120 24 -120 148q0 83 60 123t163 40h197zM270 266h114v202h-113q-141 0 -141 -103q0 -53 34 -76t106 -23z" />
    <glyph glyph-name="afii10071" unicode="&#x451;" horiz-adv-x="552" 
d="M285 -11q-100 0 -169.5 72t-69.5 203q0 69 21.5 123.5t56.5 86.5t76.5 48.5t84.5 16.5q99 0 159.5 -70.5t60.5 -208.5v-18h-373q2 -86 46.5 -134.5t112.5 -48.5q54 0 90.5 21t68.5 65l50 -44q-78 -112 -215 -112zM134 309h289q-5 73 -40.5 115.5t-98.5 42.5
q-57 0 -99 -40t-51 -118zM414 583h-89v94h89v-94zM231 583h-88v94h88v-94z" />
    <glyph glyph-name="afii10099" unicode="&#x452;" horiz-adv-x="588" 
d="M-4 586v57h79v97h84v-97h109v-57h-109v-146q94 100 203 100q158 0 158 -163v-468q0 -111 -114 -111q-41 0 -61 5v60q15 -5 36 -5q54 0 55 61v436q0 114 -105 114q-81 0 -172 -83v-386h-84v586h-79z" />
    <glyph glyph-name="afii10100" unicode="&#x453;" horiz-adv-x="463" 
d="M240 585h-57l94 158h105zM439 529v-64h-280v-465h-84v529h364z" />
    <glyph glyph-name="afii10101" unicode="&#x454;" horiz-adv-x="532" 
d="M283 -11q-100 0 -168 74.5t-68 200.5q0 72 21.5 127.5t57.5 86.5t77.5 46.5t85.5 15.5q80 0 127 -36t75 -105l-69 -29q-22 55 -52 81t-80 26q-64 0 -108.5 -47t-49.5 -135h202v-53h-203q2 -82 43.5 -136.5t109.5 -54.5q50 0 83 26.5t59 83.5l67 -31q-35 -69 -84 -105
t-126 -36z" />
    <glyph glyph-name="afii10102" unicode="&#x455;" horiz-adv-x="512" 
d="M254 -10q-69 0 -125.5 24.5t-90.5 65.5l52 52q68 -73 165 -73q127 0 127 83q0 38 -31.5 57.5t-104.5 36.5q-97 23 -143 56t-46 103q0 62 50.5 103t134.5 41q121 0 202 -76l-45 -57q-68 63 -153 63q-54 0 -80.5 -20t-26.5 -51q0 -35 29 -53t96 -33q52 -13 83 -23.5
t61 -29.5t43.5 -46.5t13.5 -67.5q0 -74 -59 -114.5t-152 -40.5z" />
    <glyph glyph-name="afii10103" unicode="&#x456;" horiz-adv-x="250" 
d="M168 0h-86v528h86v-528zM170 641h-90v84h90v-84z" />
    <glyph glyph-name="afii10104" unicode="&#x457;" horiz-adv-x="250" 
d="M168 0h-86v528h86v-528zM260 583h-89v94h89v-94zM77 583h-88v94h88v-94z" />
    <glyph glyph-name="afii10105" unicode="&#x458;" horiz-adv-x="250" 
d="M46 -201q-24 0 -52 4v65q18 -4 34 -4q54 0 54 61v603h86v-609q0 -58 -27.5 -89t-94.5 -31zM170 641h-90v84h90v-84z" />
    <glyph glyph-name="afii10106" unicode="&#x459;" horiz-adv-x="903" 
d="M450 0v465h-256v-315q0 -92 -43 -120.5t-144 -28.5v61q64 1 83.5 16.5t19.5 69.5v381h424v-198h111q111 0 168 -36.5t57 -127.5q0 -85 -60.5 -126t-162.5 -41h-197zM534 271v-210h114q141 0 141 107q0 55 -34 79t-106 24h-115z" />
    <glyph glyph-name="afii10107" unicode="&#x45a;" horiz-adv-x="892" 
d="M438 0v271h-279v-271h-84v529h84v-191h279v191h84v-191h111q109 0 167 -39.5t58 -131.5q0 -85 -60.5 -126t-162.5 -41h-197zM522 271v-210h114q141 0 141 107q0 55 -34 79t-106 24h-115z" />
    <glyph glyph-name="afii10108" unicode="&#x45b;" horiz-adv-x="588" 
d="M-6 597v62h83v81h86v-81h105v-62h-105v-148q92 90 198 90q75 0 115.5 -41.5t40.5 -116.5v-381h-86v363q0 102 -97 102q-80 0 -171 -84v-381h-86v597h-83z" />
    <glyph glyph-name="afii10109" unicode="&#x45c;" horiz-adv-x="540" 
d="M276 585h-57l94 158h105zM76 0v528h85v-264l236 264h98l-173 -188l192 -340h-92l-156 276l-105 -114v-162h-85z" />
    <glyph glyph-name="afii10110" unicode="&#x45e;" horiz-adv-x="533" 
d="M106 -203q-56 0 -99 13l20 69q34 -9 78 -9q40 0 62.5 17.5t38.5 57.5l20 52l-204 531h91l155 -427h2l155 427h87l-226 -588q-29 -75 -68 -109t-112 -34zM266 579q-69 0 -110 45.5t-45 122.5h52q12 -104 103 -104t103 104h52q-4 -77 -45 -122.5t-110 -45.5z" />
    <glyph glyph-name="afii10193" unicode="&#x45f;" horiz-adv-x="596" 
d="M75 0v529h84v-465h277v465h85v-529h-179v-200h-85v200h-182z" />
    <glyph glyph-name="afii10050" unicode="&#x490;" horiz-adv-x="572" 
d="M453 740v125h84v-198h-359v-667h-86v740h361z" />
    <glyph glyph-name="afii10098" unicode="&#x491;" horiz-adv-x="463" 
d="M355 695h84v-230h-280v-465h-84v529h280v166z" />
    <glyph glyph-name="Wgrave" unicode="&#x1e80;" horiz-adv-x="931" 
d="M314 0h-81l-197 740h89l109 -429q32 -121 43 -181h2q15 79 42 180l103 430h89l106 -433q36 -149 41 -177h2q8 40 41 174l108 436h84l-196 -740h-81l-149 619h-2zM540 786h-57l-142 158h105z" />
    <glyph glyph-name="wgrave" unicode="&#x1e81;" horiz-adv-x="753" 
d="M262 0h-79l-161 528h89l69 -248q31 -110 46 -176h2q22 90 46 177l67 247h75l69 -252q22 -76 44 -172h2q26 101 46 170l72 254h81l-161 -528h-80l-112 413h-2zM408 585h-57l-142 158h105z" />
    <glyph glyph-name="Wacute" unicode="&#x1e82;" horiz-adv-x="931" 
d="M450 786h-57l94 158h105zM314 0h-81l-197 740h89l109 -429q32 -121 43 -181h2q15 79 42 180l103 430h89l106 -433q36 -149 41 -177h2q8 40 41 174l108 436h84l-196 -740h-81l-149 619h-2z" />
    <glyph glyph-name="wacute" unicode="&#x1e83;" horiz-adv-x="753" 
d="M404 585h-57l94 158h105zM262 0h-79l-161 528h89l69 -248q31 -110 46 -176h2q22 90 46 177l67 247h75l69 -252q22 -76 44 -172h2q26 101 46 170l72 254h81l-161 -528h-80l-112 413h-2z" />
    <glyph glyph-name="Wdieresis" unicode="&#x1e84;" horiz-adv-x="931" 
d="M600 784h-89v94h89v-94zM417 784h-88v94h88v-94zM314 0h-81l-197 740h89l109 -429q32 -121 43 -181h2q15 79 42 180l103 430h89l106 -433q36 -149 41 -177h2q8 40 41 174l108 436h84l-196 -740h-81l-149 619h-2z" />
    <glyph glyph-name="wdieresis" unicode="&#x1e85;" horiz-adv-x="753" 
d="M510 583h-89v94h89v-94zM327 583h-88v94h88v-94zM262 0h-79l-161 528h89l69 -248q31 -110 46 -176h2q22 90 46 177l67 247h75l69 -252q22 -76 44 -172h2q26 101 46 170l72 254h81l-161 -528h-80l-112 413h-2z" />
    <glyph glyph-name="Ygrave" unicode="&#x1ef2;" horiz-adv-x="631" 
d="M359 0h-88v324l-249 416h94l201 -341l200 341h92l-250 -416v-324zM362 786h-57l-142 158h105z" />
    <glyph glyph-name="ygrave" unicode="&#x1ef3;" horiz-adv-x="533" 
d="M106 -203q-56 0 -99 13l20 69q34 -9 78 -9q40 0 62.5 17.5t38.5 57.5l20 52l-204 531h91l155 -427h2l155 427h87l-226 -588q-29 -75 -68 -109t-112 -34zM309 585h-57l-142 158h105z" />
    <glyph glyph-name="space.en" unicode="&#x2002;" horiz-adv-x="500" 
 />
    <glyph glyph-name="space.em" unicode="&#x2003;" horiz-adv-x="1000" 
 />
    <glyph glyph-name="space.tab" unicode="&#x2007;" horiz-adv-x="325" 
 />
    <glyph glyph-name="space.thin" unicode="&#x2009;" horiz-adv-x="200" 
 />
    <glyph glyph-name="endash.tab" unicode="&#x2012;" 
d="M583 275h-515v76h515v-76z" />
    <glyph glyph-name="endash" unicode="&#x2013;" horiz-adv-x="645" 
d="M580 275h-515v76h515v-76z" />
    <glyph glyph-name="emdash" unicode="&#x2014;" horiz-adv-x="928" 
d="M863 275h-798v76h798v-76z" />
    <glyph glyph-name="emdash.em_salt" unicode="&#x2015;" horiz-adv-x="1000" 
d="M0 275v76h1000v-76h-1000z" />
    <glyph glyph-name="quoteleft" unicode="&#x2018;" horiz-adv-x="271" 
d="M185 530h-100v97l52 113h40l-28 -105h36v-105z" />
    <glyph glyph-name="quoteright" unicode="&#x2019;" horiz-adv-x="271" 
d="M134 530h-40l27 105h-36v105h100v-97z" />
    <glyph glyph-name="quotesinglbase" unicode="&#x201a;" horiz-adv-x="271" 
d="M134 -105h-40l27 105h-36v105h100v-96z" />
    <glyph glyph-name="quotedblleft" unicode="&#x201c;" horiz-adv-x="465" 
d="M185 530h-100v97l52 113h40l-28 -105h36v-105zM380 530h-100v97l52 113h39l-27 -105h36v-105z" />
    <glyph glyph-name="quotedblright" unicode="&#x201d;" horiz-adv-x="465" 
d="M134 530h-40l27 105h-36v105h100v-97zM328 530h-39l27 105h-36v105h100v-97z" />
    <glyph glyph-name="quotedblbase" unicode="&#x201e;" horiz-adv-x="465" 
d="M134 -105h-40l27 105h-36v105h100v-96zM328 -105h-39l27 105h-36v105h100v-96z" />
    <glyph glyph-name="dagger" unicode="&#x2020;" horiz-adv-x="566" 
d="M329 -200h-93l15 613l-206 -11v82l206 -13l-15 269h93l-15 -269l206 13v-82l-206 11z" />
    <glyph glyph-name="daggerdbl" unicode="&#x2021;" horiz-adv-x="566" 
d="M329 -200h-93l15 233l-196 -13v80l196 -12l-11 184l11 180l-196 -11v79l196 -12l-15 232h93l-15 -232l196 12v-79l-196 11l11 -180l-11 -184l196 12v-80l-196 13z" />
    <glyph glyph-name="bullet" unicode="&#x2022;" horiz-adv-x="463" 
d="M231 229q-53 0 -87 34.5t-34 86.5q0 53 34 87.5t87 34.5t87.5 -34.5t34.5 -87.5t-34.5 -87t-87.5 -34z" />
    <glyph glyph-name="ellipsis" unicode="&#x2026;" horiz-adv-x="812" 
d="M728 0h-103v105h103v-105zM187 0h-103v105h103v-105zM457 0h-103v105h103v-105z" />
    <glyph glyph-name="perthousand" unicode="&#x2030;" horiz-adv-x="1411" 
d="M231 299q-82 0 -127.5 61t-45.5 163q0 104 47 166t127 62q79 0 125 -61t46 -164q0 -102 -46 -164.5t-126 -62.5zM764 -10q-81 0 -126.5 61.5t-45.5 162.5q0 104 47 166t127 62q79 0 125 -61t46 -164q0 -101 -46.5 -164t-126.5 -63zM1180 -10q-81 0 -126.5 61.5
t-45.5 162.5q0 104 47 166t126 62t125 -61t46 -164q0 -101 -46 -164t-126 -63zM316 0h-78l442 740h78zM1180 55q46 0 71 44.5t25 116.5q0 75 -25 117.5t-71 42.5q-47 0 -72 -44t-25 -115q0 -75 25.5 -118.5t71.5 -43.5zM765 55q46 0 71 44.5t25 116.5q0 75 -25 117.5
t-72 42.5t-71.5 -43.5t-24.5 -115.5q0 -75 25 -118.5t72 -43.5zM232 365q45 0 70 44t25 115q0 75 -25 118t-71 43q-47 0 -71.5 -43.5t-24.5 -115.5q0 -75 25 -118t72 -43z" />
    <glyph glyph-name="prime" unicode="&#x2032;" horiz-adv-x="239" 
d="M69 486l18 196l10 58h81l-61 -254h-48z" />
    <glyph glyph-name="primedbl" unicode="&#x2033;" horiz-adv-x="415" 
d="M69 486l18 196l10 58h81l-61 -254h-48zM245 486l18 196l10 58h81l-61 -254h-48z" />
    <glyph glyph-name="guilsinglleft" unicode="&#x2039;" horiz-adv-x="333" 
d="M279 0h-87l-151 265l151 263h87l-147 -263z" />
    <glyph glyph-name="guilsinglright" unicode="&#x203a;" horiz-adv-x="333" 
d="M140 0h-87l148 265l-148 263h87l152 -263z" />
    <glyph glyph-name="fraction" unicode="&#x2044;" horiz-adv-x="480" 
d="M63 0h-79l434 740h78z" />
    <glyph glyph-name="zero.sups" unicode="&#x2070;" horiz-adv-x="483" 
d="M242 268q-87 0 -134 64t-47 175t47.5 176.5t133.5 65.5t133.5 -65.5t47.5 -176.5t-47.5 -175t-133.5 -64zM242 327q53 0 81 46t28 134q0 86 -29 133.5t-80 47.5q-54 0 -82 -47t-28 -134q0 -88 29 -134t81 -46z" />
    <glyph glyph-name="four.sups" unicode="&#x2074;" horiz-adv-x="449" 
d="M266 276v108h-213v47l208 309h76v-295h75v-61h-75v-108h-71zM130 442h138v208z" />
    <glyph glyph-name="five.sups" unicode="&#x2075;" horiz-adv-x="434" 
d="M211 268q-102 0 -163 84l43 42q48 -68 120 -68q49 0 75 29t26 73q0 48 -25 74t-66 26q-54 0 -91 -49l-56 20l17 241h264l-5 -61h-201l-10 -132q31 36 98 36q64 0 105 -41t41 -113q0 -75 -46.5 -118t-125.5 -43z" />
    <glyph glyph-name="six.sups" unicode="&#x2076;" horiz-adv-x="454" 
d="M237 268q-81 0 -128.5 59t-47.5 175t51.5 181.5t139.5 65.5q84 0 136 -47l-35 -50q-50 37 -102 37q-115 0 -120 -169q54 54 124 54q72 0 110.5 -39.5t38.5 -108.5q0 -70 -45 -114t-122 -44zM238 326q45 0 70.5 26t25.5 72q0 93 -93 93q-62 0 -108 -58q6 -66 34.5 -99.5
t70.5 -33.5z" />
    <glyph glyph-name="seven.sups" unicode="&#x2077;" horiz-adv-x="409" 
d="M94 276l185 401h-226v63h304v-55l-188 -409h-75z" />
    <glyph glyph-name="eight.sups" unicode="&#x2078;" horiz-adv-x="450" 
d="M225 268q-82 0 -128.5 34.5t-46.5 89.5q0 44 28 74.5t81 54.5q-45 22 -66.5 47t-21.5 64q0 48 41.5 82.5t112.5 34.5q72 0 113 -34.5t41 -82.5q0 -67 -92 -108q57 -27 85 -56.5t28 -75.5q0 -54 -47 -89t-128 -35zM224 321q47 0 76 20t29 54q0 31 -28 55t-84 46
q-52 -23 -75 -46t-23 -55q0 -33 29 -53.5t76 -20.5zM229 547q46 21 64 37.5t18 42.5q0 27 -22 46.5t-63 19.5t-63.5 -18.5t-22.5 -45.5q0 -28 19 -44t70 -38z" />
    <glyph glyph-name="nine.sups" unicode="&#x2079;" horiz-adv-x="454" 
d="M202 268q-85 0 -136 46l35 49q49 -36 102 -36q117 0 120 168q-56 -54 -124 -54q-71 0 -109.5 40.5t-38.5 108.5q0 70 44.5 114.5t121.5 44.5q81 0 129 -59.5t48 -174.5t-53 -181t-139 -66zM213 498q62 0 108 58q-6 66 -34.5 100t-70.5 34q-44 0 -70 -26.5t-26 -72.5
q0 -93 93 -93z" />
    <glyph glyph-name="zero.sinf" unicode="&#x2080;" horiz-adv-x="483" 
d="M242 -207q-87 0 -134 64t-47 175t47.5 176.5t133.5 65.5t133.5 -65.5t47.5 -176.5t-47.5 -175t-133.5 -64zM242 -148q53 0 81 46t28 134q0 86 -29 133.5t-80 47.5q-54 0 -82 -47t-28 -134q0 -88 29 -134t81 -46z" />
    <glyph glyph-name="one.sinf" unicode="&#x2081;" horiz-adv-x="360" 
d="M73 -199v61h85v333q-39 -17 -83 -17v58q62 2 88 29h68v-403h77v-61h-235z" />
    <glyph glyph-name="two.sinf" unicode="&#x2082;" horiz-adv-x="452" 
d="M66 -199v21q0 56 32 104.5t118 102.5q52 33 71.5 56t19.5 55q0 33 -19.5 52.5t-56.5 19.5q-65 0 -106 -80l-55 34q57 109 163 109q69 0 107 -36.5t38 -97.5q0 -47 -26.5 -83.5t-94.5 -76.5q-100 -62 -110 -116h233v-64h-314z" />
    <glyph glyph-name="three.sinf" unicode="&#x2083;" horiz-adv-x="452" 
d="M224 -207q-112 0 -170 96l50 39q45 -72 117 -72q45 0 69 21.5t24 56.5q0 44 -29.5 65t-96.5 21h-28v55h31q60 0 87 17.5t27 54.5q0 29 -20 47t-59 18q-59 0 -107 -56l-46 42q66 77 157 77q73 0 110.5 -34.5t37.5 -87.5q0 -79 -77 -104q88 -27 88 -115q0 -63 -45 -102
t-120 -39z" />
    <glyph glyph-name="four.sinf" unicode="&#x2084;" horiz-adv-x="449" 
d="M266 -199v108h-213v47l208 309h76v-295h75v-61h-75v-108h-71zM130 -33h138v208z" />
    <glyph glyph-name="five.sinf" unicode="&#x2085;" horiz-adv-x="434" 
d="M211 -207q-102 0 -163 84l43 42q48 -68 120 -68q49 0 75 29t26 73q0 48 -25 74t-66 26q-54 0 -91 -49l-56 20l17 241h264l-5 -61h-201l-10 -132q31 36 98 36q64 0 105 -41t41 -113q0 -75 -46.5 -118t-125.5 -43z" />
    <glyph glyph-name="six.sinf" unicode="&#x2086;" horiz-adv-x="454" 
d="M237 -207q-81 0 -128.5 59t-47.5 175t51.5 181.5t139.5 65.5q84 0 136 -47l-35 -50q-50 37 -102 37q-115 0 -120 -169q54 54 124 54q72 0 110.5 -39.5t38.5 -108.5q0 -70 -45 -114t-122 -44zM238 -149q45 0 70.5 26t25.5 72q0 93 -93 93q-62 0 -108 -58q6 -66 34.5 -99.5
t70.5 -33.5z" />
    <glyph glyph-name="seven.sinf" unicode="&#x2087;" horiz-adv-x="409" 
d="M94 -199l185 401h-226v63h304v-55l-188 -409h-75z" />
    <glyph glyph-name="eight.sinf" unicode="&#x2088;" horiz-adv-x="450" 
d="M225 -207q-82 0 -128.5 34.5t-46.5 89.5q0 44 28 74.5t81 54.5q-45 22 -66.5 47t-21.5 64q0 48 41.5 82.5t112.5 34.5q72 0 113 -34.5t41 -82.5q0 -67 -92 -108q57 -27 85 -56.5t28 -75.5q0 -54 -47 -89t-128 -35zM224 -154q47 0 76 20t29 54q0 31 -28 55t-84 46
q-52 -23 -75 -46t-23 -55q0 -33 29 -53.5t76 -20.5zM229 72q46 21 64 37.5t18 42.5q0 27 -22 46.5t-63 19.5t-63.5 -18.5t-22.5 -45.5q0 -28 19 -44t70 -38z" />
    <glyph glyph-name="nine.sinf" unicode="&#x2089;" horiz-adv-x="454" 
d="M202 -207q-85 0 -136 46l35 49q49 -36 102 -36q117 0 120 168q-56 -54 -124 -54q-71 0 -109.5 40.5t-38.5 108.5q0 70 44.5 114.5t121.5 44.5q81 0 129 -59.5t48 -174.5t-53 -181t-139 -66zM213 23q62 0 108 58q-6 66 -34.5 100t-70.5 34q-44 0 -70 -26.5t-26 -72.5
q0 -93 93 -93z" />
    <glyph glyph-name="Euro" unicode="&#x20ac;" horiz-adv-x="721" 
d="M138 411h-117v65h124q21 137 96 207.5t178 70.5q99 0 156.5 -54.5t84.5 -154.5l-79 -25q-24 83 -58 120t-104 37q-72 0 -122 -50.5t-67 -150.5h214v-65h-221q-1 -11 -1 -35q0 -9 0.5 -26t0.5 -25h221v-66h-213q33 -197 190 -197q69 0 108.5 40.5t61.5 126.5l79 -23
q-60 -220 -250 -220q-106 0 -179 69t-95 204h-125v66h117q-1 16 -1 48q0 26 1 38z" />
    <glyph glyph-name="litre" unicode="&#x2113;" horiz-adv-x="539" 
d="M414 116l33 -45q-67 -72 -150 -72q-63 0 -92 35.5t-33 106.5q-1 5 -1 118l-68 -69l-30 53l98 91v221q0 84 34.5 132.5t104.5 48.5q59 0 87 -36.5t28 -88.5q0 -68 -33 -125.5t-97 -118.5l-39 -43v-153q0 -51 15 -75t51 -24q48 0 92 44zM367 608q0 68 -49 68
q-34 0 -48 -28.5t-14 -90.5v-158l33 37q78 90 78 172z" />
    <glyph glyph-name="afii61352" unicode="&#x2116;" horiz-adv-x="1145" 
d="M771 238v60h309v-60h-309zM926 362q-71 0 -123 50.5t-52 141.5q0 93 51.5 143t123.5 50q71 0 122.5 -50t51.5 -143q0 -91 -51.5 -141.5t-122.5 -50.5zM926 409q49 0 80 40.5t31 104.5q0 65 -30.5 104.5t-80.5 39.5q-51 0 -81.5 -39t-30.5 -105q0 -64 31 -104.5t81 -40.5z
M174 0h-83v740h93l389 -585h2v585h83v-740h-79l-403 601h-2v-601z" />
    <glyph glyph-name="copyrightsound" unicode="&#x2117;" horiz-adv-x="864" 
d="M432 -14q-161 0 -271.5 111.5t-110.5 271.5q0 161 111 273t272 112q160 0 270.5 -111.5t110.5 -271.5q0 -161 -111 -273t-271 -112zM433 32q139 0 235 98t96 239t-96.5 240t-235.5 99q-140 0 -236 -98t-96 -239t96.5 -240t236.5 -99zM362 161h-59v421h148q151 0 151 -119
q0 -63 -41 -94t-115 -31h-84v-177zM362 530v-141h87q94 0 94 71q0 70 -95 70h-86z" />
    <glyph glyph-name="trademark" unicode="&#x2122;" horiz-adv-x="885" 
d="M481 317h-59v423h84l118 -340l119 340h84v-423h-63v322l-115 -322h-53l-115 321v-321zM222 317h-64v368h-128v55h321v-55h-129v-368z" />
    <glyph glyph-name="Omega" unicode="&#x2126;" horiz-adv-x="748" 
d="M374 755q144 0 226.5 -104.5t82.5 -255.5q0 -98 -43.5 -182.5t-119.5 -141.5h155v-71h-235v71q157 132 157 323q0 125 -59.5 206.5t-164.5 81.5q-102 0 -162 -79.5t-60 -207.5q0 -192 157 -324v-71h-236v71h155q-76 55 -119 140.5t-43 183.5q0 152 83 256t226 104z" />
    <glyph glyph-name="estimated" unicode="&#x212e;" horiz-adv-x="697" 
d="M664 318h-490v-220q71 -71 174 -71q84 0 137.5 37t99.5 108l37 -23q-50 -78 -114 -119.5t-160 -41.5q-138 0 -224 96t-86 235q0 141 85.5 236t227.5 95t226.5 -95.5t86.5 -236.5zM525 358v182q-76 71 -175 71q-105 0 -176 -71v-182h351z" />
    <glyph glyph-name="partialdiff" unicode="&#x2202;" horiz-adv-x="586" 
d="M285 756q120 -90 186.5 -216t66.5 -278q0 -121 -71 -197t-175 -76t-174 73t-70 190q0 119 65.5 191t161.5 72q45 0 91 -22.5t74 -64.5q-22 81 -75.5 155t-120.5 126zM292 51q69 0 115.5 56t46.5 146t-46.5 146t-115.5 56t-114.5 -56t-45.5 -147q0 -90 46 -145.5
t114 -55.5z" />
    <glyph glyph-name="Delta" unicode="&#x2206;" horiz-adv-x="676" 
d="M30 0l267 744h82l267 -744h-616zM135 71h400l-198 560h-2z" />
    <glyph glyph-name="product" unicode="&#x220f;" horiz-adv-x="730" 
d="M92 -200v940h546v-940h-86v867h-374v-867h-86z" />
    <glyph glyph-name="summation" unicode="&#x2211;" horiz-adv-x="595" 
d="M375 287l-228 -416h395v-71h-489v62l232 422l-220 384v72h465v-73h-371z" />
    <glyph glyph-name="minus" unicode="&#x2212;" horiz-adv-x="638" 
d="M573 297h-507v72h507v-72z" />
    <glyph glyph-name="radical" unicode="&#x221a;" horiz-adv-x="598" 
d="M305 -2h-90l-192 527h95l142 -411h2l217 625h95z" />
    <glyph glyph-name="infinity" unicode="&#x221e;" horiz-adv-x="769" 
d="M205 183q-83 0 -126.5 45t-43.5 131t44 132t126 46q107 0 180 -117q71 117 179 117q82 0 126 -46t44 -132t-43.5 -131t-126.5 -45q-107 0 -179 119q-74 -119 -180 -119zM208 249q46 0 77.5 28t64.5 82q-34 55 -65 83.5t-77 28.5q-49 0 -75.5 -29t-26.5 -83
q0 -53 26.5 -81.5t75.5 -28.5zM561 249q50 0 76.5 28.5t26.5 81.5q0 54 -26.5 83t-76.5 29q-45 0 -77 -28.5t-64 -81.5q32 -54 64 -83t77 -29z" />
    <glyph glyph-name="integral" unicode="&#x222b;" horiz-adv-x="344" 
d="M117 599q0 143 159 143q8 0 27 -1.5t22 -1.5v-70q-12 3 -37 3q-85 0 -85 -74v-679q0 -58 -27.5 -89t-94.5 -31q-24 0 -52 4v65q18 -4 34 -4q54 0 54 61v674z" />
    <glyph glyph-name="approxequal" unicode="&#x2248;" horiz-adv-x="610" 
d="M423 144q-36 2 -132 38.5t-116 37.5q-49 3 -54 -47l-55 8q6 59 35.5 86.5t76.5 24.5q38 -2 133.5 -38.5t114.5 -37.5q49 -3 54 46l56 -6q-12 -117 -113 -112zM430 352q-37 2 -132.5 38.5t-115.5 37.5q-48 3 -54 -46l-55 7q6 59 35.5 86.5t76.5 25.5q38 -2 133 -39
t115 -38q50 -3 54 47l56 -6q-6 -60 -36 -88t-77 -25z" />
    <glyph glyph-name="notequal" unicode="&#x2260;" horiz-adv-x="638" 
d="M135 -1l82 178h-151v69h179l75 159h-254v69h283l89 193h78l-89 -193h144v-69h-172l-76 -159h248v-69h-276l-82 -178h-78z" />
    <glyph glyph-name="lessequal" unicode="&#x2264;" horiz-adv-x="638" 
d="M582 141l-529 190v57l529 192v-76l-420 -145l420 -142v-76zM53 44v68h529v-68h-529z" />
    <glyph glyph-name="greaterequal" unicode="&#x2265;" horiz-adv-x="638" 
d="M58 141v76l420 142l-420 145v76l529 -192v-57zM58 44v68h529v-68h-529z" />
    <glyph glyph-name="lozenge" unicode="&#x25ca;" 
d="M289 740h71l235 -370l-233 -370h-73l-234 370zM325 86l183 284l-183 285l-182 -285z" />
    <glyph glyph-name="u2022.check" unicode="&#x2713;" horiz-adv-x="598" 
d="M305 -2h-90l-192 527h95l142 -411h2l217 625h95z" />
    <glyph glyph-name="apple" unicode="&#xf8ff;" horiz-adv-x="760" 
d="M178 142l2 28l-27 -2v72l31 -2l6 100l-180 -15v93l180 -15l-6 102l-31 -2v72l27 -2l-2 26h72l-2 -30l101 -7l-15 180h93l-15 -180l101 7l-2 30h72l-2 -26l27 2v-72l-31 2l-7 -102l180 15v-93l-180 15l7 -100l31 2v-72l-27 2l2 -28h-72l2 32l-101 6l15 -180h-93l15 180
l-101 -6l2 -32h-72zM238 401h111v111l-105 -6zM522 401l-6 105l-104 6v-111h110zM238 338l6 -104l105 -6v110h-111zM522 338h-110v-110l104 6z" />
    <glyph glyph-name="NUL" horiz-adv-x="0" 
 />
    <glyph glyph-name="zero.salt_slash" horiz-adv-x="661" 
d="M331 -14q-131 0 -204.5 104t-73.5 280t73.5 280t204.5 104t204 -104t73 -280t-73 -280t-204 -104zM140 370q0 -101 25 -173l306 399q-50 80 -140 80q-92 0 -141.5 -78t-49.5 -228zM331 63q91 0 140.5 79t49.5 228q0 95 -24 169l-307 -397q50 -79 141 -79z" />
    <glyph glyph-name="endash.en_salt" horiz-adv-x="500" 
d="M0 276v75h500v-75h-500z" />
    <glyph glyph-name="registered.salt_big" horiz-adv-x="864" 
d="M432 -14q-161 0 -271.5 111.5t-110.5 271.5q0 161 111 273t272 112q160 0 270.5 -111.5t110.5 -271.5q0 -161 -111 -273t-271 -112zM433 32q139 0 235 98t96 239t-96.5 240t-235.5 99q-140 0 -236 -98t-96 -239t96.5 -240t236.5 -99zM350 167h-59v421h148q72 0 111.5 -31
t39.5 -89q0 -93 -93 -116l100 -185h-64l-95 178h-88v-178zM350 535v-143h86q95 0 95 73q0 70 -96 70h-85z" />
    <glyph glyph-name="A.sc" horiz-adv-x="586" 
d="M28 0l223 594h85l222 -594h-87l-58 162h-244l-61 -162h-80zM192 228h196l-61 168l-35 99h-3l-35 -97z" />
    <glyph glyph-name="B.sc" horiz-adv-x="590" 
d="M78 0v592h230q106 0 160.5 -33.5t54.5 -114.5q0 -56 -32 -91t-79 -45v-2q130 -22 130 -144q0 -81 -57 -121.5t-160 -40.5h-247zM160 527v-191h139q141 0 141 96q0 52 -32.5 73.5t-104.5 21.5h-143zM160 271v-206h158q73 0 107 24.5t34 77.5q0 104 -155 104h-144z" />
    <glyph glyph-name="C.sc" horiz-adv-x="603" 
d="M316 -11q-121 0 -195 83t-74 226q0 139 75 222t194 83q187 0 236 -182l-79 -21q-20 67 -56.5 100.5t-101.5 33.5q-84 0 -133.5 -64t-49.5 -170q0 -113 49.5 -177.5t135.5 -64.5q127 0 165 142l79 -18q-24 -91 -85.5 -142t-159.5 -51z" />
    <glyph glyph-name="D.sc" horiz-adv-x="614" 
d="M78 0v592h171q318 0 318 -294q0 -298 -318 -298h-171zM162 523v-454h95q115 0 170 53.5t55 174.5q0 118 -56 172t-170 54h-94z" />
    <glyph glyph-name="E.sc" horiz-adv-x="525" 
d="M487 0h-409v592h392v-70h-308v-177h228v-69h-228v-206h325v-70z" />
    <glyph glyph-name="F.sc" horiz-adv-x="490" 
d="M162 0h-84v592h383v-70h-299v-186h220v-68h-220v-268z" />
    <glyph glyph-name="G.sc" horiz-adv-x="628" 
d="M307 -11q-123 0 -191.5 86.5t-68.5 222.5q0 138 75 221.5t196 83.5q186 0 235 -184l-76 -19q-22 69 -60 101.5t-99 32.5q-82 0 -134 -60t-52 -173q0 -116 50 -180t137 -64q73 0 118 44.5t46 120.5h-141v66h218v-288h-69v88h-1q-54 -99 -183 -99z" />
    <glyph glyph-name="H.sc" horiz-adv-x="636" 
d="M162 0h-84v592h84v-244h311v244h85v-592h-85v275h-311v-275z" />
    <glyph glyph-name="I.sc" horiz-adv-x="255" 
d="M171 0h-85v592h85v-592z" />
    <glyph glyph-name="J.sc" horiz-adv-x="436" 
d="M16 44l39 60q63 -47 125 -47q101 0 101 108v427h85v-428q0 -175 -181 -175q-93 0 -169 55z" />
    <glyph glyph-name="K.sc" horiz-adv-x="585" 
d="M162 0h-84v592h84v-297l135 145l141 152h96l-214 -226l242 -366h-95l-203 304l-102 -105v-199z" />
    <glyph glyph-name="L.sc" horiz-adv-x="490" 
d="M461 0h-383v592h84v-522h299v-70z" />
    <glyph glyph-name="M.sc" horiz-adv-x="751" 
d="M153 0h-75v592h110l187 -492h2l184 492h113v-592h-82v482h-1q-12 -44 -36 -110q-1 -7 -71 -181t-74 -191h-75q-3 18 -73 193t-71 180l-37 111h-1v-484z" />
    <glyph glyph-name="N.sc" horiz-adv-x="640" 
d="M156 0h-78v592h89l237 -336l83 -117h1v453h79v-592h-78l-257 360l-75 105h-1v-465z" />
    <glyph glyph-name="O.sc" horiz-adv-x="644" 
d="M323 -11q-118 0 -196.5 83t-78.5 224t78.5 224t196.5 83q116 0 194.5 -83t78.5 -224q0 -140 -78.5 -223.5t-194.5 -83.5zM323 59q85 0 137 64t52 173q0 110 -52 173t-137 63q-86 0 -138.5 -63t-52.5 -173q0 -109 53 -173t138 -64z" />
    <glyph glyph-name="P.sc" horiz-adv-x="558" 
d="M161 0h-83v592h215q110 0 170 -39t60 -131q0 -176 -233 -176h-129v-246zM161 524v-214h133q75 0 111 25t36 84q0 57 -36 81t-112 24h-132z" />
    <glyph glyph-name="Q.sc" horiz-adv-x="644" 
d="M540 -88v-66h-66q-98 0 -147.5 41t-50.5 108q-101 15 -164.5 95.5t-63.5 205.5q0 141 78.5 224t196.5 83q116 0 194.5 -83t78.5 -224q0 -128 -66.5 -209.5t-169.5 -93.5q4 -46 36.5 -63.5t99.5 -17.5h44zM323 57q84 0 136 64.5t52 174.5q0 111 -52 174.5t-136 63.5
q-86 0 -138.5 -63.5t-52.5 -174.5q0 -110 53 -174.5t138 -64.5z" />
    <glyph glyph-name="R.sc" horiz-adv-x="582" 
d="M161 0h-83v592h219q226 0 226 -167q0 -136 -142 -162l151 -263h-91l-146 254h-134v-254zM161 524v-208h132q75 0 111 24t36 82q0 56 -36.5 79t-110.5 23h-132z" />
    <glyph glyph-name="S.sc" horiz-adv-x="567" 
d="M290 -12q-86 0 -149.5 39.5t-92.5 111.5l68 35q20 -57 67 -87.5t109 -30.5q66 0 103 24.5t37 70.5q0 27 -9 45.5t-34 32t-43 19.5t-61 18q-28 7 -37 9.5t-34 10t-34.5 11.5t-29.5 13.5t-28 17.5l-21 21t-18 26.5t-9.5 32t-4.5 39.5q0 72 56.5 114t147.5 42
q167 0 225 -129l-63 -38q-44 99 -161 99q-58 0 -90.5 -22t-32.5 -64q0 -34 22.5 -57t45 -31t77.5 -22q12 -3 18 -5q34 -9 49.5 -13.5t45 -15t44 -22t32 -29.5t24.5 -42.5t7 -55.5q0 -81 -63 -124.5t-163 -43.5z" />
    <glyph glyph-name="T.sc" horiz-adv-x="536" 
d="M311 0h-85v522h-197v70h479v-70h-197v-522z" />
    <glyph glyph-name="U.sc" horiz-adv-x="613" 
d="M307 -11q-115 0 -175.5 61t-60.5 160v382h85v-377q0 -73 37 -114.5t115 -41.5q77 0 114 41.5t37 114.5v377h84v-381q0 -100 -60 -161t-176 -61z" />
    <glyph glyph-name="V.sc" horiz-adv-x="574" 
d="M327 -2h-80l-219 594h87l138 -386l35 -100h2l35 99l140 387h81z" />
    <glyph glyph-name="W.sc" horiz-adv-x="796" 
d="M275 0h-75l-169 592h86l88 -329q20 -71 36 -142h2q5 26 33 141l84 330h83l86 -332q28 -111 33 -139h2q7 30 34 137l88 334h79l-165 -592h-76l-122 479h-2z" />
    <glyph glyph-name="X.sc" horiz-adv-x="570" 
d="M114 0h-90l212 317l-187 275h95l147 -217l143 217h88l-186 -280l211 -312h-94l-170 253z" />
    <glyph glyph-name="Y.sc" horiz-adv-x="549" 
d="M231 0v258l-212 334h91l167 -266l165 266h87l-212 -334v-258h-86z" />
    <glyph glyph-name="Z.sc" horiz-adv-x="544" 
d="M501 0h-466v59l361 464h-337v69h442v-60l-358 -464h358v-68z" />
    <glyph glyph-name="ampersand.sc" horiz-adv-x="626" 
d="M493 299h73q-17 -116 -80 -197q55 -38 118 -43v-67q-93 2 -172 57q-78 -60 -182 -60q-110 0 -165 42.5t-55 117.5q0 64 38.5 104.5t108.5 77.5q-40 70 -40 131q0 60 39 101.5t114 41.5q64 0 97.5 -32t33.5 -90q0 -59 -38.5 -96t-109.5 -73q20 -31 60 -74q60 -68 97 -101
q53 67 63 160zM214 463q0 -51 30 -102q52 27 79.5 53.5t27.5 63.5q0 68 -60 68q-38 0 -57.5 -22.5t-19.5 -60.5zM251 51q66 0 122 42q-47 44 -99 105q-35 38 -67 83q-47 -27 -72.5 -56t-25.5 -69q0 -50 37 -77.5t105 -27.5z" />
    <glyph glyph-name="AE.sc" horiz-adv-x="876" 
d="M217 180l-109 -180h-88l363 592h437v-70h-307v-178h228v-67h-228v-207h324v-70h-407v180h-213zM429 531l-172 -285h173v285h-1z" />
    <glyph glyph-name="OE.sc" horiz-adv-x="954" 
d="M320 -11q-117 0 -194.5 83t-77.5 224t78.5 224t193.5 83q136 0 199 -115v104h379v-70h-307v-178h227v-67h-227v-207h324v-70h-396v104q-62 -115 -199 -115zM322 59q85 0 137 64t52 173q0 110 -52 173.5t-137 63.5t-137.5 -63.5t-52.5 -173.5q0 -109 52.5 -173t137.5 -64z
" />
    <glyph glyph-name="Eth.sc" horiz-adv-x="614" 
d="M78 0v280h-67v58h67v254h171q318 0 318 -294q0 -298 -318 -298h-171zM162 279v-210h95q115 0 170 53.5t55 174.5q0 118 -56 172t-170 54h-94v-185h127v-59h-127z" />
    <glyph glyph-name="Thorn.sc" horiz-adv-x="569" 
d="M163 0h-84v592h84v-106h135q232 0 232 -170q0 -175 -237 -175h-130v-141zM163 420v-216h134q150 0 150 109q0 107 -151 107h-133z" />
    <glyph glyph-name="Lslash.sc" horiz-adv-x="490" 
d="M461 69v-69h-383v269l-67 -17v58l67 17v265h84v-243l127 33v-58l-127 -33v-222h299z" />
    <glyph glyph-name="Oslash.sc" horiz-adv-x="644" 
d="M118 -33l-44 34l51 71q-77 85 -77 224q0 141 78.5 224t196.5 83q85 0 152 -48l52 71l44 -33l-53 -73q78 -83 78 -224q0 -140 -78.5 -223.5t-194.5 -83.5q-88 0 -155 48zM323 56q85 0 138 65t53 175q0 99 -44 162l-261 -363q48 -39 114 -39zM174 135l260 362
q-47 39 -111 39q-86 0 -139.5 -64.5t-53.5 -175.5q0 -98 44 -161z" />
    <glyph glyph-name="Aacute.sc" horiz-adv-x="586" 
d="M317 643h-57l94 158h105zM28 0l223 594h85l222 -594h-87l-58 162h-244l-61 -162h-80zM192 228h196l-61 168l-35 99h-3l-35 -97z" />
    <glyph glyph-name="Abreve.sc" horiz-adv-x="586" 
d="M28 0l223 594h85l222 -594h-87l-58 162h-244l-61 -162h-80zM192 228h196l-61 168l-35 99h-3l-35 -97zM292 637q-69 0 -110 45.5t-45 122.5h52q12 -104 103 -104t103 104h52q-4 -77 -45 -122.5t-110 -45.5z" />
    <glyph glyph-name="Acircumflex.sc" horiz-adv-x="586" 
d="M183 640h-52l129 161h63l129 -161h-52l-109 94zM28 0l223 594h85l222 -594h-87l-58 162h-244l-61 -162h-80zM192 228h196l-61 168l-35 99h-3l-35 -97z" />
    <glyph glyph-name="Adieresis.sc" horiz-adv-x="586" 
d="M427 641h-89v94h89v-94zM244 641h-88v94h88v-94zM28 0l223 594h85l222 -594h-87l-58 162h-244l-61 -162h-80zM192 228h196l-61 168l-35 99h-3l-35 -97z" />
    <glyph glyph-name="Agrave.sc" horiz-adv-x="586" 
d="M28 0l223 594h85l222 -594h-87l-58 162h-244l-61 -162h-80zM192 228h196l-61 168l-35 99h-3l-35 -97zM327 643h-57l-142 158h105z" />
    <glyph glyph-name="Amacron.sc" horiz-adv-x="586" 
d="M28 0l223 594h85l222 -594h-87l-58 162h-244l-61 -162h-80zM192 228h196l-61 168l-35 99h-3l-35 -97zM427 641h-270v69h270v-69z" />
    <glyph glyph-name="Aogonek.sc" horiz-adv-x="586" 
d="M482 -187q-46 0 -71.5 20.5t-25.5 56.5q0 29 24 59t61 54l-57 159h-244l-61 -162h-80l223 594h85l222 -594h-40q-66 -49 -66 -97q0 -46 51 -46q40 0 93 24l18 -30q-68 -38 -132 -38zM192 228h196l-61 168l-35 99h-3l-35 -97z" />
    <glyph glyph-name="Aring.sc" horiz-adv-x="586" 
d="M28 0l214 569q-45 27 -45 82q0 40 27 66.5t68 26.5t68 -26.5t27 -66.5q0 -54 -43 -80l214 -571h-87l-58 162h-244l-61 -162h-80zM192 228h196l-61 168l-35 99h-3l-35 -97zM292 596q23 0 37.5 15.5t14.5 39.5q0 23 -15 38.5t-37 15.5t-37 -15.5t-15 -38.5
q0 -24 14.5 -39.5t37.5 -15.5z" />
    <glyph glyph-name="Atilde.sc" horiz-adv-x="586" 
d="M28 0l223 594h85l222 -594h-87l-58 162h-244l-61 -162h-80zM192 228h196l-61 168l-35 99h-3l-35 -97zM366 638q-32 0 -80 28t-66 28q-22 0 -31.5 -12.5t-9.5 -41.5h-53q0 119 92 119q32 0 80 -28t67 -28q41 0 41 54h51q0 -119 -91 -119z" />
    <glyph glyph-name="Cacute.sc" horiz-adv-x="603" 
d="M302 643h-57l94 158h105zM316 -11q-121 0 -195 83t-74 226q0 139 75 222t194 83q187 0 236 -182l-79 -21q-20 67 -56.5 100.5t-101.5 33.5q-84 0 -133.5 -64t-49.5 -170q0 -113 49.5 -177.5t135.5 -64.5q127 0 165 142l79 -18q-24 -91 -85.5 -142t-159.5 -51z" />
    <glyph glyph-name="Ccaron.sc" horiz-adv-x="603" 
d="M332 644h-63l-129 161h53l108 -94l108 94h52zM316 -11q-121 0 -195 83t-74 226q0 139 75 222t194 83q187 0 236 -182l-79 -21q-20 67 -56.5 100.5t-101.5 33.5q-84 0 -133.5 -64t-49.5 -170q0 -113 49.5 -177.5t135.5 -64.5q127 0 165 142l79 -18q-24 -91 -85.5 -142
t-159.5 -51z" />
    <glyph glyph-name="Ccedilla.sc" horiz-adv-x="603" 
d="M303 -196q-73 0 -128 36l20 33q45 -30 100 -30q69 0 69 45q0 34 -40 34q-25 0 -50 -20l-31 15l24 76q-101 16 -160.5 96.5t-59.5 208.5q0 139 75 222t194 83q187 0 236 -182l-79 -21q-20 67 -56.5 100.5t-101.5 33.5q-84 0 -133.5 -64t-49.5 -170q0 -113 49.5 -177.5
t135.5 -64.5q127 0 165 142l79 -18q-24 -91 -85.5 -142t-159.5 -51h-3l-12 -41q23 15 56 15q29 0 50 -18t21 -50q0 -45 -35 -68t-90 -23z" />
    <glyph glyph-name="Ccircumflex.sc" horiz-adv-x="603" 
d="M204 640h-52l129 161h63l129 -161h-52l-109 94zM316 -11q-121 0 -195 83t-74 226q0 139 75 222t194 83q187 0 236 -182l-79 -21q-20 67 -56.5 100.5t-101.5 33.5q-84 0 -133.5 -64t-49.5 -170q0 -113 49.5 -177.5t135.5 -64.5q127 0 165 142l79 -18q-24 -91 -85.5 -142
t-159.5 -51z" />
    <glyph glyph-name="Cdotaccent.sc" horiz-adv-x="603" 
d="M316 -11q-121 0 -195 83t-74 226q0 139 75 222t194 83q187 0 236 -182l-79 -21q-20 67 -56.5 100.5t-101.5 33.5q-84 0 -133.5 -64t-49.5 -170q0 -113 49.5 -177.5t135.5 -64.5q127 0 165 142l79 -18q-24 -91 -85.5 -142t-159.5 -51zM362 647h-100v90h100v-90z" />
    <glyph glyph-name="Dcaron.sc" horiz-adv-x="614" 
d="M78 0v592h171q318 0 318 -294q0 -298 -318 -298h-171zM162 523v-454h95q115 0 170 53.5t55 174.5q0 118 -56 172t-170 54h-94zM338 644h-63l-129 161h53l108 -94l108 94h52z" />
    <glyph glyph-name="Dcroat.sc" horiz-adv-x="614" 
d="M78 0v280h-67v58h67v254h171q318 0 318 -294q0 -298 -318 -298h-171zM162 279v-210h95q115 0 170 53.5t55 174.5q0 118 -56 172t-170 54h-94v-185h127v-59h-127z" />
    <glyph glyph-name="Eacute.sc" horiz-adv-x="525" 
d="M269 643h-57l94 158h105zM487 0h-409v592h392v-70h-308v-177h228v-69h-228v-206h325v-70z" />
    <glyph glyph-name="Ebreve.sc" horiz-adv-x="525" 
d="M487 0h-409v592h392v-70h-308v-177h228v-69h-228v-206h325v-70zM269 637q-69 0 -110 45.5t-45 122.5h52q12 -104 103 -104t103 104h52q-4 -77 -45 -122.5t-110 -45.5z" />
    <glyph glyph-name="Ecaron.sc" horiz-adv-x="525" 
d="M303 644h-63l-129 161h53l108 -94l108 94h52zM487 0h-409v592h392v-70h-308v-177h228v-69h-228v-206h325v-70z" />
    <glyph glyph-name="Ecircumflex.sc" horiz-adv-x="525" 
d="M163 640h-52l129 161h63l129 -161h-52l-109 94zM487 0h-409v592h392v-70h-308v-177h228v-69h-228v-206h325v-70z" />
    <glyph glyph-name="Edieresis.sc" horiz-adv-x="525" 
d="M407 641h-89v94h89v-94zM224 641h-88v94h88v-94zM487 0h-409v592h392v-70h-308v-177h228v-69h-228v-206h325v-70z" />
    <glyph glyph-name="Edotaccent.sc" horiz-adv-x="525" 
d="M322 647h-100v90h100v-90zM487 0h-409v592h392v-70h-308v-177h228v-69h-228v-206h325v-70z" />
    <glyph glyph-name="Egrave.sc" horiz-adv-x="525" 
d="M330 643h-57l-142 158h105zM487 0h-409v592h392v-70h-308v-177h228v-69h-228v-206h325v-70z" />
    <glyph glyph-name="Emacron.sc" horiz-adv-x="525" 
d="M399 641h-270v69h270v-69zM487 0h-409v592h392v-70h-308v-177h228v-69h-228v-206h325v-70z" />
    <glyph glyph-name="Eogonek.sc" horiz-adv-x="525" 
d="M487 0h-56q-66 -49 -66 -97q0 -46 51 -46q40 0 93 24l18 -30q-68 -38 -132 -38q-46 0 -71.5 20.5t-25.5 56.5q0 56 79 110h-299v592h392v-70h-308v-177h228v-69h-228v-206h325v-70z" />
    <glyph glyph-name="Gbreve.sc" horiz-adv-x="628" 
d="M307 -11q-123 0 -191.5 86.5t-68.5 222.5q0 138 75 221.5t196 83.5q186 0 235 -184l-76 -19q-22 69 -60 101.5t-99 32.5q-82 0 -134 -60t-52 -173q0 -116 50 -180t137 -64q73 0 118 44.5t46 120.5h-141v66h218v-288h-69v88h-1q-54 -99 -183 -99zM313 637q-69 0 -110 45.5
t-45 122.5h52q12 -104 103 -104t103 104h52q-4 -77 -45 -122.5t-110 -45.5z" />
    <glyph glyph-name="Gcircumflex.sc" horiz-adv-x="628" 
d="M209 640h-52l129 161h63l129 -161h-52l-109 94zM307 -11q-123 0 -191.5 86.5t-68.5 222.5q0 138 75 221.5t196 83.5q186 0 235 -184l-76 -19q-22 69 -60 101.5t-99 32.5q-82 0 -134 -60t-52 -173q0 -116 50 -180t137 -64q73 0 118 44.5t46 120.5h-141v66h218v-288h-69v88
h-1q-54 -99 -183 -99z" />
    <glyph glyph-name="Gcommaaccent.sc" horiz-adv-x="628" 
d="M281 -248l26 102h-37v98h95v-88l-47 -112h-37zM307 -11q-123 0 -191.5 86.5t-68.5 222.5q0 138 75 221.5t196 83.5q186 0 235 -184l-76 -19q-22 69 -60 101.5t-99 32.5q-82 0 -134 -60t-52 -173q0 -116 50 -180t137 -64q73 0 118 44.5t46 120.5h-141v66h218v-288h-69v88
h-1q-54 -99 -183 -99z" />
    <glyph glyph-name="Gdotaccent.sc" horiz-adv-x="628" 
d="M307 -11q-123 0 -191.5 86.5t-68.5 222.5q0 138 75 221.5t196 83.5q186 0 235 -184l-76 -19q-22 69 -60 101.5t-99 32.5q-82 0 -134 -60t-52 -173q0 -116 50 -180t137 -64q73 0 118 44.5t46 120.5h-141v66h218v-288h-69v88h-1q-54 -99 -183 -99zM368 647h-100v90h100v-90
z" />
    <glyph glyph-name="Hbar.sc" horiz-adv-x="636" 
d="M11 425v62h67v105h84v-105h311v105h85v-105h67v-62h-67v-425h-85v275h-311v-275h-84v425h-67zM162 348h311v77h-311v-77z" />
    <glyph glyph-name="Hcircumflex.sc" horiz-adv-x="636" 
d="M208 640h-52l129 161h63l129 -161h-52l-109 94zM162 0h-84v592h84v-244h311v244h85v-592h-85v275h-311v-275z" />
    <glyph glyph-name="Iacute.sc" horiz-adv-x="255" 
d="M149 643h-57l94 158h105zM171 0h-85v592h85v-592z" />
    <glyph glyph-name="Ibreve.sc" horiz-adv-x="255" 
d="M171 0h-85v592h85v-592zM128 637q-69 0 -110 45.5t-45 122.5h52q12 -104 103 -104t103 104h52q-4 -77 -45 -122.5t-110 -45.5z" />
    <glyph glyph-name="Icircumflex.sc" horiz-adv-x="255" 
d="M19 640h-52l129 161h63l129 -161h-52l-109 94zM171 0h-85v592h85v-592z" />
    <glyph glyph-name="Idieresis.sc" horiz-adv-x="255" 
d="M263 641h-89v94h89v-94zM80 641h-88v94h88v-94zM171 0h-85v592h85v-592z" />
    <glyph glyph-name="Idotaccent.sc" horiz-adv-x="255" 
d="M171 0h-85v592h85v-592zM178 647h-100v90h100v-90z" />
    <glyph glyph-name="Igrave.sc" horiz-adv-x="255" 
d="M171 0h-85v592h85v-592zM163 643h-57l-142 158h105z" />
    <glyph glyph-name="IJ.sc" horiz-adv-x="661" 
d="M171 0h-85v592h85v-592zM241 45l39 60q63 -47 125 -47q101 0 101 108v427h85v-428q0 -175 -181 -175q-93 0 -169 55z" />
    <glyph glyph-name="Imacron.sc" horiz-adv-x="255" 
d="M171 0h-85v592h85v-592zM263 641h-270v69h270v-69z" />
    <glyph glyph-name="Iogonek.sc" horiz-adv-x="255" 
d="M171 0h-35q-62 -48 -62 -97q0 -46 50 -46q40 0 93 24l18 -30q-66 -38 -132 -38q-46 0 -71 20.5t-25 56.5q0 59 79 113v589h85v-592z" />
    <glyph glyph-name="Itilde.sc" horiz-adv-x="255" 
d="M171 0h-85v592h85v-592zM202 639q-32 0 -80 28t-66 28q-22 0 -31.5 -12.5t-9.5 -41.5h-53q0 119 92 119q32 0 80 -28t67 -28q41 0 41 54h51q0 -119 -91 -119z" />
    <glyph glyph-name="Jcircumflex.sc" horiz-adv-x="436" 
d="M214 640h-52l129 161h63l129 -161h-52l-109 94zM16 44l39 60q63 -47 125 -47q101 0 101 108v427h85v-428q0 -175 -181 -175q-93 0 -169 55z" />
    <glyph glyph-name="Kcommaaccent.sc" horiz-adv-x="585" 
d="M256 -248l26 102h-37v98h95v-88l-47 -112h-37zM162 0h-84v592h84v-297l135 145l141 152h96l-214 -226l242 -366h-95l-203 304l-102 -105v-199z" />
    <glyph glyph-name="Lacute.sc" horiz-adv-x="490" 
d="M461 0h-383v592h84v-522h299v-70zM149 643h-57l94 158h105z" />
    <glyph glyph-name="Lcaron.sc" horiz-adv-x="490" 
d="M277 396l26 100h-37v96h93v-86l-46 -110h-36zM461 0h-383v592h84v-522h299v-70z" />
    <glyph glyph-name="Lcommaaccent.sc" horiz-adv-x="490" 
d="M461 0h-383v592h84v-522h299v-70zM208 -248l26 102h-37v98h95v-88l-47 -112h-37z" />
    <glyph glyph-name="Ldot.sc" horiz-adv-x="515" 
d="M331 277v90h94v-90h-94zM461 0h-383v592h84v-522h299v-70z" />
    <glyph glyph-name="Nacute.sc" horiz-adv-x="640" 
d="M318 643h-57l94 158h105zM156 0h-78v592h89l237 -336l83 -117h1v453h79v-592h-78l-257 360l-75 105h-1v-465z" />
    <glyph glyph-name="Ncaron.sc" horiz-adv-x="640" 
d="M350 644h-63l-129 161h53l108 -94l108 94h52zM156 0h-78v592h89l237 -336l83 -117h1v453h79v-592h-78l-257 360l-75 105h-1v-465z" />
    <glyph glyph-name="Ncommaaccent.sc" horiz-adv-x="640" 
d="M283 -248l26 102h-37v98h95v-88l-47 -112h-37zM156 0h-78v592h89l237 -336l83 -117h1v453h79v-592h-78l-257 360l-75 105h-1v-465z" />
    <glyph glyph-name="Ntilde.sc" horiz-adv-x="640" 
d="M156 0h-78v592h89l237 -336l83 -117h1v453h79v-592h-78l-257 360l-75 105h-1v-465zM393 638q-32 0 -80 28t-66 28q-22 0 -31.5 -12.5t-9.5 -41.5h-53q0 119 92 119q32 0 80 -28t67 -28q41 0 41 54h51q0 -119 -91 -119z" />
    <glyph glyph-name="Eng.sc" horiz-adv-x="640" 
d="M78 0v592h89l237 -336l83 -117h1v453h79v-618q0 -175 -176 -175q-95 0 -169 54l39 59q63 -47 125 -47q100 0 101 106v31l-255 358l-75 105h-1v-465h-78z" />
    <glyph glyph-name="Oacute.sc" horiz-adv-x="644" 
d="M323 -11q-118 0 -196.5 83t-78.5 224t78.5 224t196.5 83q116 0 194.5 -83t78.5 -224q0 -140 -78.5 -223.5t-194.5 -83.5zM323 59q85 0 137 64t52 173q0 110 -52 173t-137 63q-86 0 -138.5 -63t-52.5 -173q0 -109 53 -173t138 -64zM321 643h-57l94 158h105z" />
    <glyph glyph-name="Obreve.sc" horiz-adv-x="644" 
d="M323 -11q-118 0 -196.5 83t-78.5 224t78.5 224t196.5 83q116 0 194.5 -83t78.5 -224q0 -140 -78.5 -223.5t-194.5 -83.5zM323 59q85 0 137 64t52 173q0 110 -52 173t-137 63q-86 0 -138.5 -63t-52.5 -173q0 -109 53 -173t138 -64zM321 638q-69 0 -110 45.5t-45 122.5h52
q12 -104 103 -104t103 104h52q-4 -77 -45 -122.5t-110 -45.5z" />
    <glyph glyph-name="Ocircumflex.sc" horiz-adv-x="644" 
d="M212 640h-52l129 161h63l129 -161h-52l-109 94zM323 -11q-118 0 -196.5 83t-78.5 224t78.5 224t196.5 83q116 0 194.5 -83t78.5 -224q0 -140 -78.5 -223.5t-194.5 -83.5zM323 59q85 0 137 64t52 173q0 110 -52 173t-137 63q-86 0 -138.5 -63t-52.5 -173q0 -109 53 -173
t138 -64z" />
    <glyph glyph-name="Odieresis.sc" horiz-adv-x="644" 
d="M456 641h-89v94h89v-94zM273 641h-88v94h88v-94zM323 -11q-118 0 -196.5 83t-78.5 224t78.5 224t196.5 83q116 0 194.5 -83t78.5 -224q0 -140 -78.5 -223.5t-194.5 -83.5zM323 59q85 0 137 64t52 173q0 110 -52 173t-137 63q-86 0 -138.5 -63t-52.5 -173q0 -109 53 -173
t138 -64z" />
    <glyph glyph-name="Ograve.sc" horiz-adv-x="644" 
d="M323 -11q-118 0 -196.5 83t-78.5 224t78.5 224t196.5 83q116 0 194.5 -83t78.5 -224q0 -140 -78.5 -223.5t-194.5 -83.5zM323 59q85 0 137 64t52 173q0 110 -52 173t-137 63q-86 0 -138.5 -63t-52.5 -173q0 -109 53 -173t138 -64zM379 643h-57l-142 158h105z" />
    <glyph glyph-name="Ohungarumlaut.sc" horiz-adv-x="644" 
d="M323 -11q-118 0 -196.5 83t-78.5 224t78.5 224t196.5 83q116 0 194.5 -83t78.5 -224q0 -140 -78.5 -223.5t-194.5 -83.5zM323 59q85 0 137 64t52 173q0 110 -52 173t-137 63q-86 0 -138.5 -63t-52.5 -173q0 -109 53 -173t138 -64zM408 643h-59l100 158h106zM241 643h-58
l97 158h106z" />
    <glyph glyph-name="Omacron.sc" horiz-adv-x="644" 
d="M323 -11q-118 0 -196.5 83t-78.5 224t78.5 224t196.5 83q116 0 194.5 -83t78.5 -224q0 -140 -78.5 -223.5t-194.5 -83.5zM323 59q85 0 137 64t52 173q0 110 -52 173t-137 63q-86 0 -138.5 -63t-52.5 -173q0 -109 53 -173t138 -64zM456 641h-270v69h270v-69z" />
    <glyph glyph-name="Otilde.sc" horiz-adv-x="644" 
d="M323 -11q-118 0 -196.5 83t-78.5 224t78.5 224t196.5 83q116 0 194.5 -83t78.5 -224q0 -140 -78.5 -223.5t-194.5 -83.5zM323 59q85 0 137 64t52 173q0 110 -52 173t-137 63q-86 0 -138.5 -63t-52.5 -173q0 -109 53 -173t138 -64zM395 638q-32 0 -80 28t-66 28
q-22 0 -31.5 -12.5t-9.5 -41.5h-53q0 119 92 119q32 0 80 -28t67 -28q41 0 41 54h51q0 -119 -91 -119z" />
    <glyph glyph-name="Racute.sc" horiz-adv-x="582" 
d="M290 643h-57l94 158h105zM161 0h-83v592h219q226 0 226 -167q0 -136 -142 -162l151 -263h-91l-146 254h-134v-254zM161 524v-208h132q75 0 111 24t36 82q0 56 -36.5 79t-110.5 23h-132z" />
    <glyph glyph-name="Rcaron.sc" horiz-adv-x="582" 
d="M322 644h-63l-129 161h53l108 -94l108 94h52zM161 0h-83v592h219q226 0 226 -167q0 -136 -142 -162l151 -263h-91l-146 254h-134v-254zM161 524v-208h132q75 0 111 24t36 82q0 56 -36.5 79t-110.5 23h-132z" />
    <glyph glyph-name="Rcommaaccent.sc" horiz-adv-x="582" 
d="M255 -248l26 102h-37v98h95v-88l-47 -112h-37zM161 0h-83v592h219q226 0 226 -167q0 -136 -142 -162l151 -263h-91l-146 254h-134v-254zM161 524v-208h132q75 0 111 24t36 82q0 56 -36.5 79t-110.5 23h-132z" />
    <glyph glyph-name="Sacute.sc" horiz-adv-x="567" 
d="M282 643h-57l94 158h105zM290 -12q-86 0 -149.5 39.5t-92.5 111.5l68 35q20 -57 67 -87.5t109 -30.5q66 0 103 24.5t37 70.5q0 27 -9 45.5t-34 32t-43 19.5t-61 18q-28 7 -37 9.5t-34 10t-34.5 11.5t-29.5 13.5t-28 17.5l-21 21t-18 26.5t-9.5 32t-4.5 39.5
q0 72 56.5 114t147.5 42q167 0 225 -129l-63 -38q-44 99 -161 99q-58 0 -90.5 -22t-32.5 -64q0 -34 22.5 -57t45 -31t77.5 -22q12 -3 18 -5q34 -9 49.5 -13.5t45 -15t44 -22t32 -29.5t24.5 -42.5t7 -55.5q0 -81 -63 -124.5t-163 -43.5z" />
    <glyph glyph-name="Scaron.sc" horiz-adv-x="567" 
d="M314 644h-63l-129 161h53l108 -94l108 94h52zM290 -12q-86 0 -149.5 39.5t-92.5 111.5l68 35q20 -57 67 -87.5t109 -30.5q66 0 103 24.5t37 70.5q0 27 -9 45.5t-34 32t-43 19.5t-61 18q-28 7 -37 9.5t-34 10t-34.5 11.5t-29.5 13.5t-28 17.5l-21 21t-18 26.5t-9.5 32
t-4.5 39.5q0 72 56.5 114t147.5 42q167 0 225 -129l-63 -38q-44 99 -161 99q-58 0 -90.5 -22t-32.5 -64q0 -34 22.5 -57t45 -31t77.5 -22q12 -3 18 -5q34 -9 49.5 -13.5t45 -15t44 -22t32 -29.5t24.5 -42.5t7 -55.5q0 -81 -63 -124.5t-163 -43.5z" />
    <glyph glyph-name="Scedilla.sc" horiz-adv-x="567" 
d="M285 -196q-73 0 -128 36l20 33q45 -30 100 -30q69 0 69 45q0 34 -40 34q-25 0 -50 -20l-31 15l23 74q-71 8 -123 46.5t-77 101.5l68 35q20 -57 67 -87.5t109 -30.5q66 0 103 24.5t37 70.5q0 27 -9 45.5t-34 32t-43 19.5t-61 18q-28 7 -37 9.5t-34 10t-34.5 11.5
t-29.5 13.5t-28 17.5l-21 21t-18 26.5t-9.5 32t-4.5 39.5q0 72 56.5 114t147.5 42q167 0 225 -129l-63 -38q-44 99 -161 99q-58 0 -90.5 -22t-32.5 -64q0 -34 22.5 -57t45 -31t77.5 -22q12 -3 18 -5q34 -9 49.5 -13.5t45 -15t44 -22t32 -29.5t24.5 -42.5t7 -55.5
q0 -80 -61.5 -123t-160.5 -45l-11 -40q23 15 56 15q29 0 50 -18t21 -50q0 -45 -35 -68t-90 -23z" />
    <glyph glyph-name="Scircumflex.sc" horiz-adv-x="567" 
d="M166 640h-52l129 161h63l129 -161h-52l-109 94zM290 -12q-86 0 -149.5 39.5t-92.5 111.5l68 35q20 -57 67 -87.5t109 -30.5q66 0 103 24.5t37 70.5q0 27 -9 45.5t-34 32t-43 19.5t-61 18q-28 7 -37 9.5t-34 10t-34.5 11.5t-29.5 13.5t-28 17.5l-21 21t-18 26.5t-9.5 32
t-4.5 39.5q0 72 56.5 114t147.5 42q167 0 225 -129l-63 -38q-44 99 -161 99q-58 0 -90.5 -22t-32.5 -64q0 -34 22.5 -57t45 -31t77.5 -22q12 -3 18 -5q34 -9 49.5 -13.5t45 -15t44 -22t32 -29.5t24.5 -42.5t7 -55.5q0 -81 -63 -124.5t-163 -43.5z" />
    <glyph glyph-name="Scommaaccent.sc" horiz-adv-x="567" 
d="M247 -248l26 102h-37v98h95v-88l-47 -112h-37zM290 -12q-86 0 -149.5 39.5t-92.5 111.5l68 35q20 -57 67 -87.5t109 -30.5q66 0 103 24.5t37 70.5q0 27 -9 45.5t-34 32t-43 19.5t-61 18q-28 7 -37 9.5t-34 10t-34.5 11.5t-29.5 13.5t-28 17.5l-21 21t-18 26.5t-9.5 32
t-4.5 39.5q0 72 56.5 114t147.5 42q167 0 225 -129l-63 -38q-44 99 -161 99q-58 0 -90.5 -22t-32.5 -64q0 -34 22.5 -57t45 -31t77.5 -22q12 -3 18 -5q34 -9 49.5 -13.5t45 -15t44 -22t32 -29.5t24.5 -42.5t7 -55.5q0 -81 -63 -124.5t-163 -43.5z" />
    <glyph glyph-name="Tbar.sc" horiz-adv-x="536" 
d="M29 249v61h197v212h-197v70h479v-70h-197v-212h197v-61h-197v-249h-85v249h-197z" />
    <glyph glyph-name="Tcaron.sc" horiz-adv-x="536" 
d="M311 0h-85v522h-197v70h479v-70h-197v-522zM298 644h-63l-129 161h53l108 -94l108 94h52z" />
    <glyph glyph-name="Tcommaaccent.sc" horiz-adv-x="536" 
d="M311 0h-85v522h-197v70h479v-70h-197v-522zM231 -248l26 102h-37v98h95v-88l-47 -112h-37z" />
    <glyph glyph-name="Uacute.sc" horiz-adv-x="613" 
d="M283 643h-57l94 158h105zM307 -11q-115 0 -175.5 61t-60.5 160v382h85v-377q0 -73 37 -114.5t115 -41.5q77 0 114 41.5t37 114.5v377h84v-381q0 -100 -60 -161t-176 -61z" />
    <glyph glyph-name="Ubreve.sc" horiz-adv-x="613" 
d="M307 -11q-115 0 -175.5 61t-60.5 160v382h85v-377q0 -73 37 -114.5t115 -41.5q77 0 114 41.5t37 114.5v377h84v-381q0 -100 -60 -161t-176 -61zM306 637q-69 0 -110 45.5t-45 122.5h52q12 -104 103 -104t103 104h52q-4 -77 -45 -122.5t-110 -45.5z" />
    <glyph glyph-name="Ucircumflex.sc" horiz-adv-x="613" 
d="M197 640h-52l129 161h63l129 -161h-52l-109 94zM307 -11q-115 0 -175.5 61t-60.5 160v382h85v-377q0 -73 37 -114.5t115 -41.5q77 0 114 41.5t37 114.5v377h84v-381q0 -100 -60 -161t-176 -61z" />
    <glyph glyph-name="Udieresis.sc" horiz-adv-x="613" 
d="M441 641h-89v94h89v-94zM258 641h-88v94h88v-94zM307 -11q-115 0 -175.5 61t-60.5 160v382h85v-377q0 -73 37 -114.5t115 -41.5q77 0 114 41.5t37 114.5v377h84v-381q0 -100 -60 -161t-176 -61z" />
    <glyph glyph-name="Ugrave.sc" horiz-adv-x="613" 
d="M363 643h-57l-142 158h105zM307 -11q-115 0 -175.5 61t-60.5 160v382h85v-377q0 -73 37 -114.5t115 -41.5q77 0 114 41.5t37 114.5v377h84v-381q0 -100 -60 -161t-176 -61z" />
    <glyph glyph-name="Uhungarumlaut.sc" horiz-adv-x="613" 
d="M392 643h-59l100 158h106zM225 643h-58l97 158h106zM307 -11q-115 0 -175.5 61t-60.5 160v382h85v-377q0 -73 37 -114.5t115 -41.5q77 0 114 41.5t37 114.5v377h84v-381q0 -100 -60 -161t-176 -61z" />
    <glyph glyph-name="Umacron.sc" horiz-adv-x="613" 
d="M441 641h-270v69h270v-69zM307 -11q-115 0 -175.5 61t-60.5 160v382h85v-377q0 -73 37 -114.5t115 -41.5q77 0 114 41.5t37 114.5v377h84v-381q0 -100 -60 -161t-176 -61z" />
    <glyph glyph-name="Uogonek.sc" horiz-adv-x="613" 
d="M311 -187q-46 0 -71.5 20.5t-25.5 56.5q0 49 65 100q-101 7 -154.5 67t-53.5 153v382h85v-377q0 -73 37 -114.5t115 -41.5q77 0 114 41.5t37 114.5v377h84v-381q0 -94 -53.5 -154t-155.5 -67q-53 -44 -53 -87q0 -46 51 -46q40 0 93 24l18 -30q-68 -38 -132 -38z" />
    <glyph glyph-name="Uring.sc" horiz-adv-x="613" 
d="M306 635q-41 0 -68 27t-27 68q0 40 27 66.5t68 26.5t68 -26.5t27 -66.5q0 -41 -27 -68t-68 -27zM306 675q23 0 37.5 15.5t14.5 39.5q0 23 -15 38.5t-37 15.5t-37 -15.5t-15 -38.5q0 -24 14.5 -39.5t37.5 -15.5zM307 -11q-115 0 -175.5 61t-60.5 160v382h85v-377
q0 -73 37 -114.5t115 -41.5q77 0 114 41.5t37 114.5v377h84v-381q0 -100 -60 -161t-176 -61z" />
    <glyph glyph-name="Utilde.sc" horiz-adv-x="613" 
d="M307 -11q-115 0 -175.5 61t-60.5 160v382h85v-377q0 -73 37 -114.5t115 -41.5q77 0 114 41.5t37 114.5v377h84v-381q0 -100 -60 -161t-176 -61zM380 638q-32 0 -80 28t-66 28q-22 0 -31.5 -12.5t-9.5 -41.5h-53q0 119 92 119q32 0 80 -28t67 -28q41 0 41 54h51
q0 -119 -91 -119z" />
    <glyph glyph-name="Wacute.sc" horiz-adv-x="796" 
d="M275 0h-75l-169 592h86l88 -329q20 -71 36 -142h2q5 26 33 141l84 330h83l86 -332q28 -111 33 -139h2q7 30 34 137l88 334h79l-165 -592h-76l-122 479h-2zM428 643h-57l94 158h105z" />
    <glyph glyph-name="Wcircumflex.sc" horiz-adv-x="796" 
d="M289 640h-52l129 161h63l129 -161h-52l-109 94zM275 0h-75l-169 592h86l88 -329q20 -71 36 -142h2q5 26 33 141l84 330h83l86 -332q28 -111 33 -139h2q7 30 34 137l88 334h79l-165 -592h-76l-122 479h-2z" />
    <glyph glyph-name="Wdieresis.sc" horiz-adv-x="796" 
d="M532 641h-89v94h89v-94zM349 641h-88v94h88v-94zM275 0h-75l-169 592h86l88 -329q20 -71 36 -142h2q5 26 33 141l84 330h83l86 -332q28 -111 33 -139h2q7 30 34 137l88 334h79l-165 -592h-76l-122 479h-2z" />
    <glyph glyph-name="Wgrave.sc" horiz-adv-x="796" 
d="M275 0h-75l-169 592h86l88 -329q20 -71 36 -142h2q5 26 33 141l84 330h83l86 -332q28 -111 33 -139h2q7 30 34 137l88 334h79l-165 -592h-76l-122 479h-2zM427 643h-57l-142 158h105z" />
    <glyph glyph-name="Yacute.sc" horiz-adv-x="549" 
d="M273 643h-57l94 158h105zM231 0v258l-212 334h91l167 -266l165 266h87l-212 -334v-258h-86z" />
    <glyph glyph-name="Ycircumflex.sc" horiz-adv-x="549" 
d="M165 640h-52l129 161h63l129 -161h-52l-109 94zM231 0v258l-212 334h91l167 -266l165 266h87l-212 -334v-258h-86z" />
    <glyph glyph-name="Ydieresis.sc" horiz-adv-x="549" 
d="M409 641h-89v94h89v-94zM226 641h-88v94h88v-94zM231 0v258l-212 334h91l167 -266l165 266h87l-212 -334v-258h-86z" />
    <glyph glyph-name="Ygrave.sc" horiz-adv-x="549" 
d="M231 0v258l-212 334h91l167 -266l165 266h87l-212 -334v-258h-86zM338 643h-57l-142 158h105z" />
    <glyph glyph-name="Zacute.sc" horiz-adv-x="544" 
d="M271 643h-57l94 158h105zM501 0h-466v59l361 464h-337v69h442v-60l-358 -464h358v-68z" />
    <glyph glyph-name="Zcaron.sc" horiz-adv-x="544" 
d="M302 644h-63l-129 161h53l108 -94l108 94h52zM501 0h-466v59l361 464h-337v69h442v-60l-358 -464h358v-68z" />
    <glyph glyph-name="Zdotaccent.sc" horiz-adv-x="544" 
d="M501 0h-466v59l361 464h-337v69h442v-60l-358 -464h358v-68zM321 647h-100v90h100v-90z" />
    <glyph glyph-name="exclamdown.sc" horiz-adv-x="279" 
d="M188 592v-87h-96v87h96zM167 424l24 -424h-101l22 424h55z" />
    <glyph glyph-name="exclam.sc" horiz-adv-x="279" 
d="M89 592h101l-22 -424h-55zM92 88h96v-88h-96v88z" />
    <glyph glyph-name="questiondown.sc" horiz-adv-x="472" 
d="M209 505v87h97v-87h-97zM223 426h68q3 -17 3 -52q0 -43 -18.5 -70.5t-59.5 -51.5q-53 -29 -73.5 -50.5t-20.5 -58.5q0 -87 116 -87q91 0 156 77l49 -51q-81 -95 -211 -95q-93 0 -142.5 41t-49.5 108q0 55 28 87t82 62q48 27 61.5 53.5t11.5 87.5z" />
    <glyph glyph-name="question.sc" horiz-adv-x="475" 
d="M249 167h-68q-3 16 -3 52q0 43 18.5 70.5t59.5 50.5q53 30 73.5 51.5t20.5 58.5q0 87 -116 87q-91 0 -156 -77l-49 50q79 95 211 95q93 0 142.5 -40.5t49.5 -107.5q0 -55 -28.5 -87.5t-82.5 -61.5q-47 -27 -60.5 -54t-11.5 -87zM262 88v-88h-96v88h96z" />
    <glyph glyph-name="slash.sc" horiz-adv-x="477" 
d="M110 0h-87l344 592h87z" />
    <glyph glyph-name="backslash.sc" horiz-adv-x="477" 
d="M110 592l344 -592h-87l-344 592h87z" />
    <glyph glyph-name="zero.tab_salt_slash" 
d="M326 -14q-132 0 -205.5 104t-73.5 280t73.5 280t205.5 104q131 0 204 -104t73 -280t-73 -280t-204 -104zM134 370q0 -105 25 -173l306 400q-50 79 -139 79q-92 0 -142 -78t-50 -228zM326 63q90 0 140 79t50 228q0 97 -24 169l-307 -397q52 -79 141 -79z" />
    <glyph glyph-name="zero.tab" 
d="M325 -14q-130 0 -202.5 104t-72.5 280t72.5 280t202.5 104t202.5 -104t72.5 -280t-72.5 -280t-202.5 -104zM325 62q90 0 140.5 79.5t50.5 228.5t-51 228.5t-140 79.5q-90 0 -140.5 -79t-50.5 -229q0 -148 51 -228t140 -80z" />
    <glyph glyph-name="one.tab" 
d="M142 0v78h158v570q-26 -14 -74 -24t-82 -10v78q113 4 160 48h81v-662h145v-78h-388z" />
    <glyph glyph-name="two.tab" 
d="M75 0v16q0 88 51 164.5t190 166.5q86 55 120.5 97.5t34.5 99.5q0 62 -36.5 97t-104.5 35q-116 0 -178 -122l-65 40q82 160 246 160q103 0 163 -56t60 -149q0 -74 -40 -130t-144 -123q-191 -121 -202 -218h389v-78h-484z" />
    <glyph glyph-name="three.tab" 
d="M311 -14q-171 0 -258 136l63 49q76 -107 193 -107q78 0 122 37t44 102q0 79 -52 115.5t-172 36.5h-29v73h34q110 0 157 32.5t47 97.5q0 118 -146 118q-102 0 -173 -83l-57 51q95 110 236 110q111 0 168.5 -52.5t57.5 -133.5q0 -70 -39 -116t-108 -58q165 -33 165 -193
q0 -94 -69.5 -154.5t-183.5 -60.5z" />
    <glyph glyph-name="four.tab" 
d="M404 0v171h-349v67l329 502h104v-492h117v-77h-117v-171h-84zM146 248h258v390h-2z" />
    <glyph glyph-name="five.tab" 
d="M316 -14q-80 0 -144.5 34t-104.5 93l59 54q72 -103 187 -103q86 0 131 51.5t45 128.5q0 83 -44 128.5t-116 45.5q-100 0 -162 -89l-61 23l28 388h399l-6 -77h-323l-18 -236q58 65 159 65q102 0 166 -67.5t64 -177.5q0 -114 -71 -187.5t-188 -73.5z" />
    <glyph glyph-name="six.tab" 
d="M337 -14q-117 0 -191.5 95t-74.5 276q0 176 83.5 286.5t207.5 110.5q117 0 188 -57l-45 -68q-62 48 -142 48q-93 0 -149 -85.5t-58 -219.5q88 94 203 94q110 0 170 -63t60 -169q0 -108 -69 -178t-183 -70zM342 61q75 0 119 45.5t44 125.5q0 74 -38.5 117t-120.5 43
q-115 0 -188 -99q10 -117 59 -174.5t125 -57.5z" />
    <glyph glyph-name="seven.tab" 
d="M164 0l306 660h-375v80h466v-75l-308 -665h-89z" />
    <glyph glyph-name="eight.tab" 
d="M325 -14q-122 0 -194.5 55t-72.5 140q0 72 47.5 121.5t140.5 89.5q-78 36 -116 77.5t-38 105.5q0 73 63.5 126t169.5 53q108 0 171 -53t63 -126q0 -62 -39.5 -103.5t-119.5 -76.5q99 -44 145.5 -90.5t46.5 -123.5q0 -84 -72 -139.5t-195 -55.5zM325 56q81 0 131 35.5
t50 94.5q0 56 -44 94t-142 79q-94 -43 -134.5 -81t-40.5 -92q0 -57 50.5 -93.5t129.5 -36.5zM330 426q81 36 112.5 66t31.5 78q0 46 -37.5 80t-110.5 34q-71 0 -110 -33t-39 -78q0 -49 34.5 -79.5t118.5 -67.5z" />
    <glyph glyph-name="nine.tab" 
d="M288 -14q-123 0 -201 67l44 65q37 -30 70.5 -43.5t84.5 -13.5q94 0 150 86t58 221q-91 -93 -203 -93q-111 0 -171 62.5t-60 168.5q0 109 69 178.5t183 69.5q117 0 192 -95t75 -276q0 -176 -83.5 -286.5t-207.5 -110.5zM303 347q114 0 189 100q-10 117 -59 174.5
t-125 57.5t-119.5 -45t-43.5 -125q0 -74 38.5 -118t119.5 -44z" />
    <glyph glyph-name="plus.tab" 
d="M289 77v220h-217v72h217v220h73v-220h217v-72h-217v-220h-73z" />
    <glyph glyph-name="minus.tab" 
d="M72 297v72h507v-72h-507z" />
    <glyph glyph-name="multiply.tab" 
d="M155 98l-50 51l169 169l-169 169l50 51l169 -170l170 170l50 -51l-169 -169l170 -169l-50 -50l-170 169z" />
    <glyph glyph-name="divide.tab" 
d="M277 106v92h93v-92h-93zM72 297v72h507v-72h-507zM277 467v92h93v-92h-93z" />
    <glyph glyph-name="equal.tab" 
d="M72 177v69h505v-69h-505zM72 405v69h505v-69h-505z" />
    <glyph glyph-name="less.tab" 
d="M588 68l-529 228v57l529 227v-76l-432 -180l432 -179v-77z" />
    <glyph glyph-name="greater.tab" 
d="M64 68v77l433 179l-433 180v76l529 -227v-57z" />
    <glyph glyph-name="dollar.tab" 
d="M298 -93v88q-162 12 -239 144l63 40q35 -53 77 -82.5t101 -33.5v288q-50 15 -83.5 29t-67.5 37.5t-51 57.5t-17 80q0 79 58 133t159 59v72h58v-75q139 -13 204 -125l-62 -44q-29 47 -62.5 70t-81.5 29v-258q52 -14 88 -28.5t73.5 -39.5t56.5 -63t19 -88
q0 -87 -61.5 -141.5t-173.5 -60.5v-88h-58zM300 429v249q-20 -2 -39 -6.5t-43.5 -16t-39.5 -35.5t-15 -58q0 -53 37 -83.5t100 -49.5zM354 63q155 12 155 127q0 60 -41 92.5t-114 54.5v-274z" />
    <glyph glyph-name="cent.tab" 
d="M187 -129l41 145q-60 33 -92.5 99.5t-32.5 148.5q0 134 71.5 204.5t169.5 70.5q10 0 28 -2l28 101h54l-32 -112q91 -32 131 -135l-69 -29q-28 74 -84 100l-110 -400q24 -8 50 -8q97 0 148 113l66 -28q-70 -150 -217 -150q-31 0 -61 8l-35 -126h-54zM185 264
q0 -120 64 -177l107 386q-2 0 -6.5 0.5t-7.5 0.5q-64 0 -110.5 -52t-46.5 -158z" />
    <glyph glyph-name="Euro.tab" 
d="M382 -14q-105 0 -176 68t-92 206h-118v64h112q-1 14 -1 89h-111v62h117q20 139 93.5 209t174.5 70q182 0 236 -212l-78 -21q-23 83 -56.5 120.5t-102.5 37.5q-72 0 -120.5 -51t-62.5 -153h210v-62h-216q-2 -30 0 -89h216v-64h-209q28 -199 184 -199q69 0 107.5 41
t59.5 127l78 -20q-61 -223 -245 -223z" />
    <glyph glyph-name="sterling.tab" 
d="M102 355v63h94q-45 84 -45 146q0 84 53.5 137t142.5 53q98 0 146 -54t55 -134l-77 -12q-10 127 -124 127q-53 0 -82.5 -30.5t-29.5 -85.5q0 -22 9 -50.5t16 -43.5t26 -53h172v-63h-142q30 -71 30 -132q0 -57 -16 -108q23 -20 36.5 -31t35.5 -21t42 -10q41 0 60.5 31
t24.5 102h74q-3 -93 -37 -146.5t-114 -53.5q-70 0 -155 75q-49 -75 -137 -75q-46 0 -80 27t-34 76q0 52 32.5 83.5t85.5 31.5q48 0 100 -41q4 30 3 67q-4 56 -38 125h-127zM161 41q62 0 89 62q-50 46 -87 46q-25 0 -40 -15.5t-15 -41.5q0 -23 15 -37t38 -14z" />
    <glyph glyph-name="yen.tab" 
d="M281 0v117h-187v65h187v88h-187v63h184l-241 407h94l195 -337l195 337h92l-243 -407h187v-63h-189v-88h189v-65h-189v-117h-87z" />
    <glyph glyph-name="florin.tab" 
d="M65 -199l9 65q16 -2 36 -2q86 0 97 79l64 467h-92l9 66h92l16 124q19 142 178 142q43 0 49 -3l-9 -66q-16 2 -36 2q-87 0 -96 -74l-17 -125h116l-8 -66h-116l-66 -475q-19 -136 -176 -136q-44 0 -50 2z" />
    <glyph glyph-name="numbersign.tab" 
d="M93 0l41 212h-103v68h116l36 181h-111v68h123l42 211h73l-43 -211h172l43 211h71l-42 -211h107v-68h-119l-36 -181h115v-68h-127l-42 -212h-72l41 212h-171l-43 -212h-71zM219 280h172l36 181h-172z" />
    <glyph glyph-name="percent.tab" horiz-adv-x="980" 
d="M237 299q-78 0 -122.5 60.5t-44.5 163.5q0 106 46 166.5t123 60.5t121.5 -59.5t44.5 -164.5q0 -103 -45 -165t-123 -62zM238 366q45 0 69.5 43t24.5 115q0 75 -24.5 117t-70.5 42q-45 0 -69.5 -42.5t-24.5 -114.5q0 -75 25 -117.5t70 -42.5zM743 -10q-79 0 -123 60.5
t-44 163.5q0 106 45.5 166.5t122.5 60.5t122 -59.5t45 -164.5q0 -103 -45 -165t-123 -62zM744 57q45 0 69.5 43.5t24.5 115.5q0 75 -25 116.5t-70 41.5t-70 -42.5t-25 -114.5q0 -75 25 -117.5t71 -42.5zM245 0l425 740h66l-426 -740h-65z" />
    <glyph glyph-name="prime.tab" horiz-adv-x="325" 
d="M115 486l17 196l10 58h82l-62 -254h-47z" />
    <glyph glyph-name="primedbl.tab" 
d="M189 486l17 196l10 58h82l-62 -254h-47zM365 486l17 196l10 58h82l-62 -254h-47z" />
    <glyph glyph-name="period.tab" horiz-adv-x="325" 
d="M112 0v105h102v-105h-102z" />
    <glyph glyph-name="comma.tab" horiz-adv-x="325" 
d="M123 -105l28 105h-39v105h102v-93l-51 -117h-40z" />
    <glyph glyph-name="colon.tab" horiz-adv-x="325" 
d="M112 0v105h102v-105h-102zM112 423v105h102v-105h-102z" />
    <glyph glyph-name="semicolon.tab" horiz-adv-x="325" 
d="M123 -105l27 105h-38v105h102v-92l-52 -118h-39zM112 423v105h102v-105h-102z" />
    <glyph glyph-name="parenleft.tab" horiz-adv-x="325" 
d="M273 -205q-250 210 -250 480q0 141 62.5 258t187.5 222l39 -42q-197 -187 -197 -438q0 -127 52.5 -239.5t145.5 -199.5z" />
    <glyph glyph-name="parenright.tab" horiz-adv-x="325" 
d="M52 -205l-41 41q94 87 146.5 199t52.5 240q0 251 -197 438l39 42q125 -105 187.5 -222t62.5 -258q0 -270 -250 -480z" />
    <glyph glyph-name="asterisk.tab" 
d="M248 344l-56 33l102 148l-180 -13v62l180 -12l-102 148l56 33l77 -163l78 163l56 -33l-102 -148l180 12v-62l-180 13l102 -148l-56 -33l-78 163z" />
    <glyph glyph-name="periodcentered.tab" horiz-adv-x="325" 
d="M111 269v105h104v-105h-104z" />
    <glyph glyph-name="space.tab_en" 
 />
    <glyph glyph-name="space.tab_em" horiz-adv-x="1300" 
 />
    <glyph glyph-name="space.tab_thin" horiz-adv-x="163" 
 />
    <glyph glyph-name="zero.sc_salt_slash" horiz-adv-x="536" 
d="M268 -14q-108 0 -168 84.5t-60 225.5t60 224.5t168 83.5t168.5 -83.5t60.5 -224.5t-60.5 -225.5t-168.5 -84.5zM268 55q70 0 108.5 62t38.5 179q0 76 -19 133l-231 -320q38 -54 103 -54zM121 296q0 -79 18 -133l232 319q-37 54 -103 54q-70 0 -108.5 -61.5t-38.5 -178.5z
" />
    <glyph glyph-name="zero.sc" horiz-adv-x="536" 
d="M268 -14q-108 0 -168 84.5t-60 225.5t60 224.5t168 83.5t168.5 -83.5t60.5 -224.5t-60.5 -225.5t-168.5 -84.5zM268 55q70 0 108 61.5t38 179.5q0 116 -38.5 178t-107.5 62q-70 0 -108.5 -61.5t-38.5 -178.5t39 -179t108 -62z" />
    <glyph glyph-name="one.sc" horiz-adv-x="398" 
d="M371 0h-327v72h133v436q-60 -32 -131 -32v72q88 2 135 44h71v-520h119v-72z" />
    <glyph glyph-name="two.sc" horiz-adv-x="482" 
d="M435 0h-400v16q0 71 43 133.5t155 134.5q65 41 92 74.5t27 75.5q0 47 -27 73.5t-79 26.5q-91 0 -139 -99l-62 36q67 134 205 134q84 0 133 -46t49 -120q0 -61 -33.5 -105t-115.5 -97q-147 -95 -154 -166h306v-71z" />
    <glyph glyph-name="three.sc" horiz-adv-x="492" 
d="M236 -14q-138 0 -213 113l56 44q58 -87 156 -87q61 0 95 28.5t34 77.5q0 62 -39 90t-133 28h-26v66h29q87 0 122 24t35 74q0 42 -27.5 66.5t-86.5 24.5q-78 0 -137 -69l-52 47q80 92 195 92q92 0 140.5 -43.5t48.5 -108.5q0 -54 -31 -91.5t-86 -47.5q63 -9 97.5 -49.5
t34.5 -103.5q0 -76 -59 -125.5t-153 -49.5z" />
    <glyph glyph-name="four.sc" horiz-adv-x="504" 
d="M389 0h-80v135h-285v59l270 398h95v-389h99v-68h-99v-135zM308 493l-193 -290h194v290h-1z" />
    <glyph glyph-name="five.sc" horiz-adv-x="477" 
d="M233 -14q-65 0 -120 29t-89 77l53 52q62 -86 155 -86q66 0 100.5 39t34.5 98q0 63 -33.5 97.5t-90.5 34.5q-80 0 -129 -71l-57 19l23 317h333l-6 -72h-262l-13 -177q42 49 125 49q86 0 138.5 -53t52.5 -142q0 -93 -59 -152t-156 -59z" />
    <glyph glyph-name="six.sc" horiz-adv-x="503" 
d="M263 -14q-97 0 -159 77.5t-62 222.5q0 141 69 229.5t172 88.5q91 0 154 -47l-39 -60q-50 40 -114 40q-72 0 -116 -64.5t-46 -167.5q27 30 69.5 51t89.5 21q91 0 141 -51.5t50 -137.5q0 -89 -56.5 -145.5t-152.5 -56.5zM266 52q58 0 92.5 35.5t34.5 98.5q0 57 -30 91
t-93 34q-89 0 -147 -76q8 -89 47 -136t96 -47z" />
    <glyph glyph-name="seven.sc" horiz-adv-x="446" 
d="M173 0h-84l242 520h-297v72h383v-68z" />
    <glyph glyph-name="eight.sc" horiz-adv-x="500" 
d="M250 -14q-104 0 -162 44.5t-58 113.5q0 58 37 97t109 71q-59 28 -88.5 62t-29.5 84q0 60 53 103t139 43q90 0 141 -42.5t51 -103.5q0 -49 -29.5 -82t-90.5 -61q75 -33 111.5 -71t36.5 -99q0 -68 -58.5 -113.5t-161.5 -45.5zM254 345q60 26 84 49.5t24 58.5q0 36 -28 62
t-84 26q-53 0 -82.5 -25.5t-29.5 -59.5q0 -37 26 -61t90 -50zM250 49q62 0 100 27.5t38 72.5q0 42 -34 72t-108 60q-72 -31 -103 -61t-31 -71q0 -44 38.5 -72t99.5 -28z" />
    <glyph glyph-name="nine.sc" horiz-adv-x="505" 
d="M222 -14q-100 0 -165 56l39 60q56 -47 125 -47q71 0 115 64.5t47 167.5q-27 -30 -69 -51t-90 -21q-91 0 -142 52t-51 137q0 88 57.5 144t153.5 56q98 0 159.5 -76.5t61.5 -221.5q0 -141 -69 -230.5t-172 -89.5zM235 279q88 0 147 76q-6 89 -45.5 135.5t-97.5 46.5
t-92.5 -34.5t-34.5 -96.5q0 -58 30 -92.5t93 -34.5z" />
    <glyph glyph-name="plus.sc" horiz-adv-x="638" 
d="M356 46h-74v220h-216v72h216v220h74v-220h217v-72h-217v-220z" />
    <glyph glyph-name="minus.sc" horiz-adv-x="638" 
d="M573 266h-507v72h507v-72z" />
    <glyph glyph-name="multiply.sc" horiz-adv-x="638" 
d="M319 252l-170 -171l-51 52l169 169l-169 169l51 51l169 -170l169 170l51 -51l-169 -169l170 -169l-51 -51z" />
    <glyph glyph-name="divide.sc" horiz-adv-x="638" 
d="M573 266h-507v72h507v-72zM364 75h-94v92h94v-92zM364 436h-94v92h94v-92z" />
    <glyph glyph-name="equal.sc" horiz-adv-x="638" 
d="M571 381h-505v69h505v-69zM571 153h-505v69h505v-69z" />
    <glyph glyph-name="less.sc" horiz-adv-x="638" 
d="M582 123v-77l-529 227v58l529 227v-77l-432 -179z" />
    <glyph glyph-name="greater.sc" horiz-adv-x="638" 
d="M587 273l-529 -227v77l432 179l-432 179v77l529 -227v-58z" />
    <glyph glyph-name="dollar.sc" horiz-adv-x="554" 
d="M306 -75h-60v70q-130 13 -193 121q5 2 30.5 18t30.5 19q55 -85 133 -93v219q-83 23 -128.5 59t-45.5 105q0 63 47 106.5t126 48.5v58h59v-60q108 -10 166 -105l-58 -40q-23 36 -47 55.5t-62 25.5v-197q44 -13 71.5 -24t58 -31t45 -50t14.5 -71q0 -68 -49.5 -112.5
t-137.5 -52.5v-69zM247 350v185q-49 -4 -74.5 -28t-25.5 -59q0 -38 26 -59.5t74 -38.5zM304 262v-204q51 4 83 27t32 68t-28.5 67.5t-86.5 41.5z" />
    <glyph glyph-name="Euro.sc" horiz-adv-x="591" 
d="M341 -13q-87 0 -146.5 54t-77.5 165h-99v54h93q-1 14 -1 36q0 19 1 30h-93v54h98q16 109 79 167t146 58q151 0 199 -174l-70 -21q-19 66 -47 96.5t-82 30.5q-55 0 -94.5 -40t-51.5 -117h169v-54h-174v-30q0 -25 1 -36h173v-54h-167q27 -151 146 -151q52 0 84.5 33
t50.5 101l70 -18q-51 -184 -207 -184z" />
    <glyph glyph-name="sterling.sc" horiz-adv-x="524" 
d="M121 -14q-42 0 -72.5 23t-30.5 68q0 44 30 70.5t77 26.5q44 0 86 -35q2 20 2 39q-1 44 -32 104h-111v53h77q-38 67 -38 113q0 68 47.5 111t125.5 43q86 0 127.5 -44t49.5 -114l-75 -11q-11 104 -100 104q-44 0 -68.5 -23.5t-24.5 -64.5q0 -43 43 -114h144v-53h-116
q25 -55 25 -105q0 -43 -12 -82q52 -45 91 -45q34 0 51.5 24.5t20.5 79.5h69q-9 -168 -134 -168q-60 0 -134 56q-43 -56 -118 -56zM123 40q52 0 70 44q-37 37 -68 37q-22 0 -35.5 -11t-13.5 -29q0 -41 47 -41z" />
    <glyph glyph-name="yen.sc" horiz-adv-x="536" 
d="M227 0v97h-150v55h150v63h-150v54h148l-196 323h88l153 -259l152 259h86l-197 -323h151v-54h-152v-63h152v-54h-152v-98h-83z" />
    <glyph glyph-name="florin.sc" horiz-adv-x="337" 
d="M-60 -171l9 63q16 -3 32 -3q65 0 74 60q30 207 50 361h-72l7 61h74q6 52 12 94q17 116 149 116q5 0 26 -1l21 -1l-10 -64q-16 3 -32 3q-66 0 -74 -56l-12 -91h94l-8 -61h-93l-53 -372q-16 -111 -147 -111q-41 0 -47 2z" />
    <glyph glyph-name="numbersign.sc" horiz-adv-x="619" 
d="M178 0h-76l35 165h-91v67h106l27 130h-98v67h112l35 163h76l-35 -163h132l35 163h75l-34 -163h97v-67h-111l-28 -130h104v-67h-118l-35 -165h-76l34 165h-131zM255 362l-28 -130h132l28 130h-132z" />
    <glyph glyph-name="percent.sc" horiz-adv-x="824" 
d="M176 240q-66 0 -104 50t-38 132q0 84 39.5 134.5t104.5 50.5q62 0 100.5 -50t38.5 -133q0 -81 -38.5 -132.5t-102.5 -51.5zM177 299q35 0 54 34t19 90q0 59 -19 92t-55 33t-55.5 -34t-19.5 -90q0 -59 19.5 -92t56.5 -33zM650 -12q-65 0 -104 50.5t-39 131.5
q0 84 40 134.5t104 50.5q63 0 101 -49.5t38 -133.5q0 -81 -38 -132.5t-102 -51.5zM650 46q36 0 54.5 34.5t18.5 91.5q0 59 -19 92t-54 33t-54.5 -34t-19.5 -91q0 -60 19 -93t55 -33zM196 0l354 592h75l-354 -592h-75z" />
    <glyph glyph-name="perthousand.sc" horiz-adv-x="1167" 
d="M174 240q-66 0 -104 50t-38 132q0 84 39 134.5t104 50.5q63 0 101 -50t38 -133q0 -82 -38 -133t-102 -51zM174 299q36 0 55 34t19 90q0 58 -19.5 91.5t-54.5 33.5q-36 0 -56 -34t-20 -90q0 -59 20 -92t56 -33zM647 -12q-65 0 -103.5 50.5t-38.5 131.5q0 84 40 134.5
t104 50.5q63 0 101 -49.5t38 -133.5q0 -81 -38.5 -132.5t-102.5 -51.5zM648 46q35 0 53.5 34.5t18.5 91.5q0 59 -18.5 92t-54.5 33q-35 0 -54.5 -34t-19.5 -91q0 -59 19.5 -92.5t55.5 -33.5zM995 -12q-66 0 -104 50t-38 132q0 84 39.5 134.5t104.5 50.5q63 0 101 -49.5
t38 -133.5q0 -81 -38.5 -132.5t-102.5 -51.5zM996 46q35 0 54 34.5t19 91.5q0 59 -19 92t-55 33q-35 0 -55 -34t-20 -91q0 -59 20 -92.5t56 -33.5zM194 0l354 592h75l-354 -592h-75z" />
    <glyph glyph-name="ordfeminine.sc" horiz-adv-x="428" 
d="M107 231h-64l136 362h68l136 -362h-68l-33 92h-140zM198 482l-40 -110h107l-40 109l-12 37h-2z" />
    <glyph glyph-name="ordmasculine.sc" horiz-adv-x="436" 
d="M218 219q-73 0 -123.5 50.5t-50.5 141.5q0 92 50 142.5t124 50.5t124.5 -50.5t50.5 -142.5q0 -91 -51 -141.5t-124 -50.5zM218 271q51 0 80 39t29 102q0 59 -28.5 99.5t-80.5 40.5q-50 0 -79 -39t-29 -101q0 -60 27.5 -100.5t80.5 -40.5z" />
    <glyph glyph-name="zero.numr" horiz-adv-x="443" 
d="M222 263q-87 0 -134 64t-47 175t47.5 176.5t133.5 65.5t133.5 -65.5t47.5 -176.5t-47.5 -175t-133.5 -64zM222 322q53 0 81 46t28 134q0 86 -29 133.5t-80 47.5q-54 0 -82 -47t-28 -134q0 -88 29 -134t81 -46z" />
    <glyph glyph-name="one.numr" horiz-adv-x="320" 
d="M53 271v61h85v333q-39 -17 -83 -17v58q62 2 88 29h68v-403h77v-61h-235z" />
    <glyph glyph-name="two.numr" horiz-adv-x="412" 
d="M46 271v21q0 56 32 104.5t118 102.5q52 33 71.5 56t19.5 55q0 33 -19.5 52.5t-56.5 19.5q-65 0 -106 -80l-55 34q57 109 163 109q69 0 107 -36.5t38 -97.5q0 -47 -26.5 -83.5t-94.5 -76.5q-100 -62 -110 -116h233v-64h-314z" />
    <glyph glyph-name="three.numr" horiz-adv-x="412" 
d="M204 263q-112 0 -170 96l50 39q45 -72 117 -72q45 0 69 21.5t24 56.5q0 44 -29.5 65t-96.5 21h-28v55h31q60 0 87 17.5t27 54.5q0 29 -20 47t-59 18q-59 0 -107 -56l-46 42q66 77 157 77q73 0 110.5 -34.5t37.5 -87.5q0 -79 -77 -104q88 -27 88 -115q0 -63 -45 -102
t-120 -39z" />
    <glyph glyph-name="four.numr" horiz-adv-x="409" 
d="M246 271v108h-213v47l208 309h76v-295h75v-61h-75v-108h-71zM110 437h138v208z" />
    <glyph glyph-name="five.numr" horiz-adv-x="394" 
d="M191 263q-102 0 -163 84l43 42q48 -68 120 -68q49 0 75 29t26 73q0 48 -25 74t-66 26q-54 0 -91 -49l-56 20l17 241h264l-5 -61h-201l-10 -132q31 36 98 36q64 0 105 -41t41 -113q0 -75 -46.5 -118t-125.5 -43z" />
    <glyph glyph-name="six.numr" horiz-adv-x="414" 
d="M217 263q-81 0 -128.5 59t-47.5 175t51.5 181.5t139.5 65.5q84 0 136 -47l-35 -50q-50 37 -102 37q-115 0 -120 -169q54 54 124 54q72 0 110.5 -39.5t38.5 -108.5q0 -70 -45 -114t-122 -44zM218 321q45 0 70.5 26t25.5 72q0 93 -93 93q-62 0 -108 -58q6 -66 34.5 -99.5
t70.5 -33.5z" />
    <glyph glyph-name="seven.numr" horiz-adv-x="369" 
d="M74 271l185 401h-226v63h304v-55l-188 -409h-75z" />
    <glyph glyph-name="eight.numr" horiz-adv-x="410" 
d="M205 263q-82 0 -128.5 34.5t-46.5 89.5q0 44 28 74.5t81 54.5q-45 22 -66.5 47t-21.5 64q0 48 41.5 82.5t112.5 34.5q72 0 113 -34.5t41 -82.5q0 -67 -92 -108q57 -27 85 -56.5t28 -75.5q0 -54 -47 -89t-128 -35zM204 316q47 0 76 20t29 54q0 31 -28 55t-84 46
q-52 -23 -75 -46t-23 -55q0 -33 29 -53.5t76 -20.5zM209 542q46 21 64 37.5t18 42.5q0 27 -22 46.5t-63 19.5t-63.5 -18.5t-22.5 -45.5q0 -28 19 -44t70 -38z" />
    <glyph glyph-name="nine.numr" horiz-adv-x="414" 
d="M182 263q-85 0 -136 46l35 49q49 -36 102 -36q117 0 120 168q-56 -54 -124 -54q-71 0 -109.5 40.5t-38.5 108.5q0 70 44.5 114.5t121.5 44.5q81 0 129 -59.5t48 -174.5t-53 -181t-139 -66zM193 493q62 0 108 58q-6 66 -34.5 100t-70.5 34q-44 0 -70 -26.5t-26 -72.5
q0 -93 93 -93z" />
    <glyph glyph-name="zero.dnom" horiz-adv-x="443" 
d="M222 -7q-87 0 -134 64t-47 175t47.5 176.5t133.5 65.5t133.5 -65.5t47.5 -176.5t-47.5 -175t-133.5 -64zM222 52q53 0 81 46t28 134q0 86 -29 133.5t-80 47.5q-54 0 -82 -47t-28 -134q0 -88 29 -134t81 -46z" />
    <glyph glyph-name="one.dnom" horiz-adv-x="320" 
d="M53 1v61h85v333q-39 -17 -83 -17v58q62 2 88 29h68v-403h77v-61h-235z" />
    <glyph glyph-name="two.dnom" horiz-adv-x="412" 
d="M46 1v21q0 56 32 104.5t118 102.5q52 33 71.5 56t19.5 55q0 33 -19.5 52.5t-56.5 19.5q-65 0 -106 -80l-55 34q57 109 163 109q69 0 107 -36.5t38 -97.5q0 -47 -26.5 -83.5t-94.5 -76.5q-100 -62 -110 -116h233v-64h-314z" />
    <glyph glyph-name="three.dnom" horiz-adv-x="412" 
d="M204 -7q-112 0 -170 96l50 39q45 -72 117 -72q45 0 69 21.5t24 56.5q0 44 -29.5 65t-96.5 21h-28v55h31q60 0 87 17.5t27 54.5q0 29 -20 47t-59 18q-59 0 -107 -56l-46 42q66 77 157 77q73 0 110.5 -34.5t37.5 -87.5q0 -79 -77 -104q88 -27 88 -115q0 -63 -45 -102
t-120 -39z" />
    <glyph glyph-name="four.dnom" horiz-adv-x="409" 
d="M246 1v108h-213v47l208 309h76v-295h75v-61h-75v-108h-71zM110 167h138v208z" />
    <glyph glyph-name="five.dnom" horiz-adv-x="394" 
d="M191 -7q-102 0 -163 84l43 42q48 -68 120 -68q49 0 75 29t26 73q0 48 -25 74t-66 26q-54 0 -91 -49l-56 20l17 241h264l-5 -61h-201l-10 -132q31 36 98 36q64 0 105 -41t41 -113q0 -75 -46.5 -118t-125.5 -43z" />
    <glyph glyph-name="six.dnom" horiz-adv-x="414" 
d="M217 -7q-81 0 -128.5 59t-47.5 175t51.5 181.5t139.5 65.5q84 0 136 -47l-35 -50q-50 37 -102 37q-115 0 -120 -169q54 54 124 54q72 0 110.5 -39.5t38.5 -108.5q0 -70 -45 -114t-122 -44zM218 51q45 0 70.5 26t25.5 72q0 93 -93 93q-62 0 -108 -58q6 -66 34.5 -99.5
t70.5 -33.5z" />
    <glyph glyph-name="seven.dnom" horiz-adv-x="369" 
d="M74 1l185 401h-226v63h304v-55l-188 -409h-75z" />
    <glyph glyph-name="eight.dnom" horiz-adv-x="410" 
d="M205 -7q-82 0 -128.5 34.5t-46.5 89.5q0 44 28 74.5t81 54.5q-45 22 -66.5 47t-21.5 64q0 48 41.5 82.5t112.5 34.5q72 0 113 -34.5t41 -82.5q0 -67 -92 -108q57 -27 85 -56.5t28 -75.5q0 -54 -47 -89t-128 -35zM204 46q47 0 76 20t29 54q0 31 -28 55t-84 46
q-52 -23 -75 -46t-23 -55q0 -33 29 -53.5t76 -20.5zM209 272q46 21 64 37.5t18 42.5q0 27 -22 46.5t-63 19.5t-63.5 -18.5t-22.5 -45.5q0 -28 19 -44t70 -38z" />
    <glyph glyph-name="nine.dnom" horiz-adv-x="414" 
d="M182 -7q-85 0 -136 46l35 49q49 -36 102 -36q117 0 120 168q-56 -54 -124 -54q-71 0 -109.5 40.5t-38.5 108.5q0 70 44.5 114.5t121.5 44.5q81 0 129 -59.5t48 -174.5t-53 -181t-139 -66zM193 223q62 0 108 58q-6 66 -34.5 100t-70.5 34q-44 0 -70 -26.5t-26 -72.5
q0 -93 93 -93z" />
    <glyph glyph-name="space.frac" horiz-adv-x="150" 
 />
    <glyph glyph-name="i.trk" horiz-adv-x="250" 
d="M168 0h-86v528h86v-528zM170 641h-90v84h90v-84z" />
    <glyph glyph-name="space.thin_fra" horiz-adv-x="120" 
 />
    <glyph glyph-name="fi" horiz-adv-x="591" 
d="M203 0h-86v457h-92v71h92v71q0 68 38 105.5t114 37.5q9 0 26.5 -1.5t21.5 -1.5v-70q-9 2 -35 2q-79 0 -79 -74v-69h110v-71h-110v-457zM502 0h-86v528h86v-528zM503 638h-88v87h88v-87z" />
    <glyph glyph-name="fl" horiz-adv-x="589" 
d="M203 0h-86v457h-92v71h92v71q0 68 38 105.5t114 37.5q9 0 26.5 -1.5t21.5 -1.5v-70q-9 2 -35 2q-79 0 -79 -74v-69h110v-71h-110v-457zM502 0h-86v740h86v-740z" />
    <glyph glyph-name="fi.sc" horiz-adv-x="745" 
d="M162 0h-84v592h383v-70h-299v-186h220v-68h-220v-268zM661 0h-85v592h85v-592z" />
    <glyph glyph-name="fl.sc" horiz-adv-x="980" 
d="M162 0h-84v592h383v-70h-299v-186h220v-68h-220v-268zM951 0h-383v592h84v-522h299v-70z" />
    <glyph glyph-name="germandbls.sc" horiz-adv-x="1134" 
d="M290 -12q-86 0 -149.5 39.5t-92.5 111.5l68 35q20 -57 67 -87.5t109 -30.5q66 0 103 24.5t37 70.5q0 27 -9 45.5t-34 32t-43 19.5t-61 18q-28 7 -37 9.5t-34 10t-34.5 11.5t-29.5 13.5t-28 17.5l-21 21t-18 26.5t-9.5 32t-4.5 39.5q0 72 56.5 114t147.5 42
q167 0 225 -129l-63 -38q-44 99 -161 99q-58 0 -90.5 -22t-32.5 -64q0 -34 22.5 -57t45 -31t77.5 -22q12 -3 18 -5q34 -9 49.5 -13.5t45 -15t44 -22t32 -29.5t24.5 -42.5t7 -55.5q0 -81 -63 -124.5t-163 -43.5zM857 -12q-86 0 -149.5 39.5t-92.5 111.5l68 35
q20 -57 67 -87.5t109 -30.5q66 0 103 24.5t37 70.5q0 27 -9 45.5t-34 32t-43 19.5t-61 18q-28 7 -37 9.5t-34 10t-34.5 11.5t-29.5 13.5t-28 17.5l-21 21t-18 26.5t-9.5 32t-4.5 39.5q0 72 56.5 114t147.5 42q167 0 225 -129l-63 -38q-44 99 -161 99q-58 0 -90.5 -22
t-32.5 -64q0 -34 22.5 -57t45 -31t77.5 -22q12 -3 18 -5q34 -9 49.5 -13.5t45 -15t44 -22t32 -29.5t24.5 -42.5t7 -55.5q0 -81 -63 -124.5t-163 -43.5z" />
    <glyph glyph-name="onesuperior" horiz-adv-x="356" 
d="M76 276v61h85v333q-39 -17 -83 -17v58q62 2 88 29h68v-403h77v-61h-235z" />
    <glyph glyph-name="twosuperior" horiz-adv-x="452" 
d="M66 276v21q0 56 32 104.5t118 102.5q52 33 71.5 56t19.5 55q0 33 -19.5 52.5t-56.5 19.5q-65 0 -106 -80l-55 34q57 109 163 109q69 0 107 -36.5t38 -97.5q0 -47 -26.5 -83.5t-94.5 -76.5q-100 -62 -110 -116h233v-64h-314z" />
    <glyph glyph-name="threesuperior" horiz-adv-x="452" 
d="M224 268q-112 0 -170 96l50 39q45 -72 117 -72q45 0 69 21.5t24 56.5q0 44 -29.5 65t-96.5 21h-28v55h31q60 0 87 17.5t27 54.5q0 29 -20 47t-59 18q-59 0 -107 -56l-46 42q66 77 157 77q73 0 110.5 -34.5t37.5 -87.5q0 -79 -77 -104q88 -27 88 -115q0 -63 -45 -102
t-120 -39z" />
    <glyph glyph-name="slash.tab" 
d="M66 0l430 740h89l-430 -740h-89z" />
    <glyph glyph-name="fraction.sc" horiz-adv-x="394" 
d="M63 0h-79l347 592h78z" />
    <glyph glyph-name="Tcedilla" horiz-adv-x="626" 
d="M319 -196q-73 0 -128 36l20 33q45 -30 100 -30q69 0 69 45q0 34 -40 34q-25 0 -50 -20l-31 15l26 83h-18v659h-235v81h559v-81h-236v-659h-23l-15 -52q23 15 56 15q29 0 50 -18t21 -50q0 -45 -35 -68t-90 -23z" />
    <glyph glyph-name="tcedilla" horiz-adv-x="386" 
d="M225 -196q-73 0 -128 36l20 33q45 -30 100 -30q69 0 69 45q0 34 -40 34q-25 0 -50 -20l-31 15l26 83h4q-44 11 -62.5 42t-18.5 86v329h-92v71h92v188h86v-188h137v-71h-137v-310q0 -44 18 -64t64 -20q30 0 54 7v-71q-30 -6 -75 -6q-17 0 -25 1l-13 -46q23 15 56 15
q29 0 50 -18t21 -50q0 -45 -35 -68t-90 -23z" />
    </font>
</defs>
</svg>
