<?xml version="1.0" standalone="no"?>
<!DOCTYPE svg PUBLIC "-//W3C//DTD SVG 1.1//EN" "http://www.w3.org/Graphics/SVG/1.1/DTD/svg11.dtd" >
<svg xmlns="http://www.w3.org/2000/svg" xmlns:xlink="http://www.w3.org/1999/xlink" version="1.1">
<metadata>
Created by FontForge 20170731 at Wed Feb 22 20:06:20 2012
 By Aleksey,,,
Copyright (c) The Font Bureau, Inc, 2003. All rights reserved.
</metadata>
<defs>
<font id="BentonSansCond-Medium" horiz-adv-x="517" >
  <font-face 
    font-family="BentonSansCond Medium"
    font-weight="500"
    font-stretch="condensed"
    units-per-em="1000"
    panose-1="2 0 6 6 4 0 0 2 0 4"
    ascent="787"
    descent="-213"
    x-height="530"
    cap-height="740"
    bbox="-73 -283 1220 1087"
    underline-thickness="20"
    underline-position="-173"
    unicode-range="U+0020-FB04"
  />
<missing-glyph horiz-adv-x="500" 
d="M0 0v700h500v-700h-500zM50 650v-600h400v600h-400z" />
    <glyph glyph-name="f_f" unicode="ff" horiz-adv-x="644" 
d="M94 0v439h-76v91h76v65q0 70 36 108.5t121 38.5q46 0 58 -3v-92q-8 2 -34 2q-67 0 -67 -62v-57h97v-91h-97v-439h-114zM416 0v439h-76v91h76v65q0 70 36 108.5t121 38.5q46 0 58 -3v-92q-8 2 -34 2q-67 0 -67 -62v-57h97v-91h-97v-439h-114z" />
    <glyph glyph-name="f_i" unicode="fi" horiz-adv-x="536" 
d="M359 617v107h115v-107h-115zM94 0v439h-76v91h76v65q0 147 152 147q41 0 53 -3v-92q-8 2 -29 2q-62 0 -62 -62v-57h87v-91h-87v-439h-114zM360 0v530h113v-530h-113z" />
    <glyph glyph-name="f_l" unicode="fl" horiz-adv-x="536" 
d="M94 0v439h-76v91h76v65q0 147 152 147q41 0 53 -3v-92q-8 2 -29 2q-62 0 -62 -62v-57h87v-91h-87v-439h-114zM360 0v740h113v-740h-113z" />
    <glyph glyph-name="f_f_i" unicode="ffi" horiz-adv-x="883" 
d="M94 0v439h-76v91h76v65q0 70 36 108.5t121 38.5q46 0 58 -3v-92q-8 2 -34 2q-67 0 -67 -62v-57h97v-91h-97v-439h-114zM416 0v439h-76v91h76v65q0 70 36 108.5t121 38.5q46 0 58 -3v-92q-8 2 -34 2q-67 0 -67 -62v-57h97v-91h-97v-439h-114zM706 617v107h115v-107h-115z
M706 0v530h114v-530h-114z" />
    <glyph glyph-name="f_f_l" unicode="ffl" horiz-adv-x="883" 
d="M94 0v439h-76v91h76v65q0 70 36 108.5t121 38.5q46 0 58 -3v-92q-8 2 -34 2q-67 0 -67 -62v-57h97v-91h-97v-439h-114zM416 0v439h-76v91h76v65q0 70 36 108.5t121 38.5q46 0 58 -3v-92q-8 2 -34 2q-67 0 -67 -62v-57h97v-91h-97v-439h-114zM706 0v740h114v-740h-114z
" />
    <glyph glyph-name="f_j" unicode="fj" horiz-adv-x="561" 
d="M94 0v439h-76v91h76v65q0 70 36 108.5t121 38.5q46 0 58 -3v-92q-8 2 -34 2q-67 0 -67 -62v-57h97v-91h-97v-439h-114zM384 617v107h115v-107h-115zM364 -201q-47 0 -59 4v86q9 -3 32 -3q47 0 47 59v585h114v-596q0 -67 -29 -101t-105 -34z" />
    <glyph glyph-name=".notdef" horiz-adv-x="500" 
d="M0 0v700h500v-700h-500zM50 650v-600h400v600h-400z" />
    <glyph glyph-name=".null" horiz-adv-x="0" 
 />
    <glyph glyph-name="nonmarkingreturn" horiz-adv-x="333" 
 />
    <glyph glyph-name="space" unicode=" " horiz-adv-x="211" 
 />
    <glyph glyph-name="exclam" unicode="!" horiz-adv-x="297" 
d="M106 212l-26 528h139l-25 -528h-88zM86 0v121h128v-121h-128z" />
    <glyph glyph-name="quotedbl" unicode="&#x22;" horiz-adv-x="387" 
d="M242 480l-14 201v59h101v-59l-14 -201h-73zM72 480l-14 201v59h102v-59l-14 -201h-74z" />
    <glyph glyph-name="numbersign" unicode="#" horiz-adv-x="632" 
d="M85 0l36 204h-95v90h111l27 152h-101v90h118l36 204h103l-36 -204h117l36 204h103l-36 -204h102v-90h-118l-28 -152h109v-90h-125l-35 -204h-104l36 204h-116l-36 -204h-104zM240 292h117l28 156h-117z" />
    <glyph glyph-name="dollar" unicode="$" horiz-adv-x="569" 
d="M241 1q-149 19 -204 183l100 31q41 -100 108 -118v240q-42 18 -68.5 32.5t-56.5 39t-45 60.5t-15 82q0 77 48.5 128.5t132.5 61.5v78h84v-79q126 -19 180 -162l-97 -40q-32 80 -86 101v-218q37 -15 58 -25t52 -30t48 -41t29.5 -54t12.5 -73q0 -81 -51.5 -134.5
t-145.5 -63.5v-93h-84v94zM245 644q-35 -7 -54.5 -29.5t-19.5 -55.5q0 -62 74 -103v188zM322 94q88 16 88 94q0 70 -88 114v-208z" />
    <glyph glyph-name="percent" unicode="%" horiz-adv-x="879" 
d="M194 283q-76 0 -117.5 59.5t-41.5 174.5t41.5 174.5t117.5 59.5t117 -59.5t41 -174.5t-41 -174.5t-117 -59.5zM203 0l376 740h96l-376 -740h-96zM686 -9q-76 0 -117.5 59.5t-41.5 174.5q0 114 41.5 173.5t117.5 59.5t116.5 -59.5t40.5 -173.5q0 -115 -40.5 -174.5
t-116.5 -59.5zM194 369q34 0 48.5 34.5t14.5 113.5q0 78 -15 112.5t-48 34.5q-34 0 -48.5 -34t-14.5 -113q0 -78 15 -113t48 -35zM686 76q34 0 48.5 35t14.5 114q0 77 -15 111.5t-48 34.5q-35 0 -49.5 -33.5t-14.5 -112.5t15 -114t49 -35z" />
    <glyph glyph-name="ampersand" unicode="&#x26;" horiz-adv-x="635" 
d="M253 -14q-109 0 -170 49.5t-61 138.5q0 77 38.5 129.5t107.5 97.5q-44 91 -44 175q0 80 46 129t127 49q78 0 117 -42t39 -105q0 -72 -40.5 -122t-114.5 -99q1 -1 46 -72q60 -83 89 -114q36 73 45 177h100q-17 -144 -70 -238q58 -46 115 -49v-100q-101 3 -183 64
q-74 -68 -187 -68zM261 458q93 66 93 140q0 65 -56 65q-67 0 -67 -81q0 -55 30 -124zM257 77q68 0 109 38q-44 49 -105 135q-34 48 -50 74q-76 -62 -76 -138q0 -48 31 -78.5t91 -30.5z" />
    <glyph glyph-name="quotesingle" unicode="'" horiz-adv-x="220" 
d="M72 480l-14 201v59h103v-59l-14 -201h-75z" />
    <glyph glyph-name="parenleft" unicode="(" horiz-adv-x="354" 
d="M256 -205q-214 209 -214 482q0 270 214 481l67 -52q-162 -196 -162 -429q0 -122 44 -234t119 -197z" />
    <glyph glyph-name="parenright" unicode=")" horiz-adv-x="354" 
d="M98 -205l-68 51q163 195 163 430q0 121 -43.5 232.5t-118.5 197.5l67 52q214 -209 214 -482q0 -270 -214 -481z" />
    <glyph glyph-name="asterisk" unicode="*" horiz-adv-x="472" 
d="M169 349l-69 40l93 132l-160 -13v76l163 -14l-96 134l69 41l67 -149l68 149l68 -41l-94 -134l161 14v-76l-161 13l94 -132l-68 -40l-68 147z" />
    <glyph glyph-name="plus" unicode="+" horiz-adv-x="550" 
d="M226 84v204h-175v95h175v205h98v-205h175v-95h-175v-204h-98z" />
    <glyph glyph-name="comma" unicode="," horiz-adv-x="241" 
d="M72 -107l35 107h-48v128h122v-115l-55 -120h-54z" />
    <glyph glyph-name="hyphen" unicode="-" horiz-adv-x="312" 
d="M44 268v88h224v-88h-224z" />
    <glyph glyph-name="hyphen" unicode="&#xad;" horiz-adv-x="312" 
d="M44 268v88h224v-88h-224z" />
    <glyph glyph-name="period" unicode="." horiz-adv-x="241" 
d="M59 0v128h122v-128h-122z" />
    <glyph glyph-name="slash" unicode="/" horiz-adv-x="512" 
d="M14 0l366 740h117l-365 -740h-118z" />
    <glyph glyph-name="zero" unicode="0" horiz-adv-x="579" 
d="M289 -14q-122 0 -186.5 98t-64.5 286t64.5 286t186.5 98t186.5 -98t64.5 -286t-64.5 -286t-186.5 -98zM289 89q68 0 101 66.5t33 214.5q0 147 -33.5 213t-100.5 66q-68 0 -101 -65.5t-33 -213.5t33.5 -214.5t100.5 -66.5z" />
    <glyph glyph-name="one" unicode="1" horiz-adv-x="394" 
d="M36 0v101h117v522q-55 -34 -115 -34v103q78 3 118 48h111v-639h104v-101h-335z" />
    <glyph glyph-name="two" unicode="2" 
d="M29 0v16q0 68 18.5 123.5t47.5 92.5t64 69t70.5 58.5t64.5 53.5t47.5 62t18.5 77q0 97 -94 97q-85 0 -132 -113l-96 42q74 176 235 176q95 0 148 -54t53 -143q0 -48 -17 -91t-44.5 -74t-60.5 -59.5t-66.5 -54.5t-61 -52t-45 -58t-18.5 -67h313v-101h-445z" />
    <glyph glyph-name="three" unicode="3" horiz-adv-x="525" 
d="M251 -13q-176 0 -242 165l98 43q24 -59 57 -84.5t82 -25.5q58 0 91.5 33t33.5 88q0 71 -41.5 104t-131.5 33h-30v94h43q78 0 111 30t33 91q0 94 -100 94q-78 0 -134 -79l-82 56q86 125 227 125q97 0 150 -51t53 -133q0 -66 -32.5 -112t-83.5 -63q132 -44 132 -191
q0 -98 -64.5 -157.5t-169.5 -59.5z" />
    <glyph glyph-name="four" unicode="4" horiz-adv-x="554" 
d="M321 0v157h-300v91l285 492h128v-482h103v-101h-103v-157h-113zM138 258h185v324h-1z" />
    <glyph glyph-name="five" unicode="5" horiz-adv-x="518" 
d="M256 -14q-88 0 -144 40t-92 116l96 45q50 -103 135 -103q63 0 94 42.5t31 116.5q0 76 -31 115t-85 39q-75 0 -121 -71l-84 19l24 395h371l-6 -104h-271l-15 -209q44 65 137 65t144 -63.5t51 -181.5q0 -122 -62 -191.5t-172 -69.5z" />
    <glyph glyph-name="six" unicode="6" horiz-adv-x="540" 
d="M283 -14q-115 0 -180 94t-65 277q0 189 68 293t192 104q123 0 190 -112l-91 -55q-43 68 -103 68q-137 0 -143 -256q72 72 163 72q96 0 147.5 -63t51.5 -173t-61.5 -179.5t-168.5 -69.5zM289 83q55 0 84 38t29 110q0 141 -111 141q-83 0 -140 -66q14 -223 138 -223z" />
    <glyph glyph-name="seven" unicode="7" horiz-adv-x="470" 
d="M79 0l250 636h-305v104h426v-94l-252 -646h-119z" />
    <glyph glyph-name="eight" unicode="8" horiz-adv-x="539" 
d="M270 -16q-118 0 -181.5 54.5t-63.5 141.5q0 68 40 114t114 87q-61 37 -93 82t-32 110q0 76 56.5 129.5t159.5 53.5q105 0 160 -52.5t55 -129.5q0 -59 -31.5 -100t-92.5 -77q74 -41 113.5 -90t39.5 -125q0 -87 -65.5 -142.5t-178.5 -55.5zM277 438q50 29 73 57.5t23 69.5
t-25 69t-77 28q-51 0 -77.5 -27t-26.5 -68q0 -42 27 -70.5t83 -58.5zM269 75q60 0 94 31.5t34 82.5q0 48 -33 81t-102 70q-62 -36 -92 -70.5t-30 -80.5q0 -50 35 -82t94 -32z" />
    <glyph glyph-name="nine" unicode="9" horiz-adv-x="540" 
d="M244 -14q-128 0 -196 116l90 55q16 -22 28 -36t34 -26t47 -12q68 0 104 67t38 191q-70 -72 -163 -72q-95 0 -147 63t-52 173t63 179.5t168 69.5q116 0 180 -93.5t64 -277.5q0 -190 -66.5 -293.5t-191.5 -103.5zM251 368q81 0 138 66q-13 221 -137 221q-114 0 -114 -146
q0 -141 113 -141z" />
    <glyph glyph-name="colon" unicode=":" horiz-adv-x="247" 
d="M62 402v128h122v-128h-122zM62 0v128h122v-128h-122z" />
    <glyph glyph-name="semicolon" unicode=";" horiz-adv-x="247" 
d="M62 402v128h122v-128h-122zM74 -107l35 107h-47v128h122v-113l-56 -122h-54z" />
    <glyph glyph-name="less" unicode="&#x3c;" horiz-adv-x="574" 
d="M510 65l-450 221v76l450 221v-100l-335 -159l335 -159v-100z" />
    <glyph glyph-name="equal" unicode="=" horiz-adv-x="550" 
d="M61 392v89h428v-89h-428zM61 171v89h428v-89h-428z" />
    <glyph glyph-name="greater" unicode="&#x3e;" horiz-adv-x="574" 
d="M65 65v100l334 159l-334 159v100l450 -221v-76z" />
    <glyph glyph-name="question" unicode="?" horiz-adv-x="484" 
d="M176 211q-2 21 -2 60q0 57 23 95t69 80q37 33 54 60t17 66t-23 61t-65 22q-77 0 -123 -100l-94 39q69 160 224 160q91 0 141.5 -48.5t50.5 -124.5q0 -34 -7 -60.5t-23.5 -49.5t-28.5 -35.5t-37 -35.5q-50 -47 -64.5 -80.5t-14.5 -108.5h-97zM159 0v122h129v-122h-129z
" />
    <glyph glyph-name="at" unicode="@" horiz-adv-x="749" 
d="M372 -14q-156 0 -246 100.5t-90 282.5q0 175 94 280t246 105q150 0 243.5 -102.5t93.5 -271.5q0 -108 -42.5 -166.5t-120.5 -58.5q-91 0 -116 79q-60 -74 -132 -74q-58 0 -89.5 44t-30.5 123q1 119 47.5 191t121.5 72q64 0 101 -54l5 45h88l-37 -293q-10 -78 55 -78
q42 0 67 41.5t25 127.5q0 149 -77 235.5t-203 86.5q-127 0 -203.5 -88t-76.5 -243q0 -162 75 -247.5t204 -85.5q100 0 175 46l25 -43q-83 -54 -202 -54zM334 234q42 0 84 45l25 193q-32 41 -75 41q-42 0 -67.5 -48.5t-27.5 -127.5q-1 -103 61 -103z" />
    <glyph glyph-name="A" unicode="A" horiz-adv-x="583" 
d="M178 177l-49 -177h-110l216 743h113l216 -743h-118l-48 177h-220zM370 280l-24 90q-44 158 -56 215h-2q-12 -55 -57 -214l-25 -91h164z" />
    <glyph glyph-name="B" unicode="B" horiz-adv-x="592" 
d="M69 0v740h234q105 0 166.5 -44t61.5 -141q0 -73 -32.5 -114t-79.5 -56v-2q130 -30 130 -181q0 -100 -65.5 -151t-167.5 -51h-247zM185 427h110q63 0 93.5 23t30.5 80q0 58 -28.5 82t-93.5 24h-112v-209zM185 100h125q65 0 95.5 29t30.5 89q0 63 -34 88.5t-103 25.5h-114
v-232z" />
    <glyph glyph-name="C" unicode="C" horiz-adv-x="596" 
d="M313 -13q-128 0 -201 97t-73 287q0 187 74.5 285t201.5 98q107 0 164 -63.5t76 -180.5l-110 -20q-15 81 -45.5 117.5t-87.5 36.5q-76 0 -115.5 -69.5t-39.5 -202.5q0 -279 157 -279q59 0 91 37.5t49 126.5l109 -18q-49 -252 -250 -252z" />
    <glyph glyph-name="D" unicode="D" horiz-adv-x="613" 
d="M69 0v740h178q159 0 243 -86t84 -282q0 -198 -84.5 -285t-242.5 -87h-178zM187 105h73q104 0 149.5 61t45.5 206q0 140 -45.5 200t-150.5 60h-72v-527z" />
    <glyph glyph-name="E" unicode="E" 
d="M69 0v740h401v-109h-283v-190h205v-106h-205v-229h298v-106h-416z" />
    <glyph glyph-name="F" unicode="F" horiz-adv-x="486" 
d="M69 0v740h394v-109h-276v-200h200v-106h-200v-325h-118z" />
    <glyph glyph-name="G" unicode="G" horiz-adv-x="623" 
d="M302 -13q-126 0 -194.5 101t-68.5 284q0 182 72.5 282t203.5 100q101 0 158.5 -60.5t80.5 -183.5l-107 -22q-17 85 -48.5 121t-86.5 36q-72 0 -113.5 -65t-41.5 -206q0 -281 160 -281q130 0 140 175h-124v98h230v-366h-89v98h-2q-17 -45 -61.5 -78t-108.5 -33z" />
    <glyph glyph-name="H" unicode="H" horiz-adv-x="634" 
d="M69 0v740h118v-297h260v297h118v-740h-118v334h-260v-334h-118z" />
    <glyph glyph-name="I" unicode="I" horiz-adv-x="267" 
d="M74 0v740h118v-740h-118z" />
    <glyph glyph-name="J" unicode="J" horiz-adv-x="444" 
d="M196 -11q-103 0 -182 57l50 86q60 -42 120 -42q81 0 81 93v557h118v-564q0 -90 -48.5 -138.5t-138.5 -48.5z" />
    <glyph glyph-name="K" unicode="K" horiz-adv-x="587" 
d="M69 0v740h117v-355q18 33 70 110l165 245h126l-202 -289l230 -451h-127l-178 351l-84 -115v-236h-117z" />
    <glyph glyph-name="L" unicode="L" horiz-adv-x="498" 
d="M69 0v740h118v-634h285v-106h-403z" />
    <glyph glyph-name="M" unicode="M" horiz-adv-x="751" 
d="M69 0v740h149l158 -576h2l153 576h150v-740h-112v563h-2q-10 -68 -45 -185l-107 -378h-89l-107 379q-29 95 -45 186h-2v-565h-103z" />
    <glyph glyph-name="N" unicode="N" horiz-adv-x="639" 
d="M69 0v740h127l201 -393q29 -57 63 -129h2v522h107v-740h-109l-220 418q-44 87 -62 125h-2v-543h-107z" />
    <glyph glyph-name="O" unicode="O" horiz-adv-x="639" 
d="M320 -14q-124 0 -202.5 99t-78.5 285t78.5 285t202.5 99q123 0 201.5 -99t78.5 -285t-78.5 -285t-201.5 -99zM320 93q77 0 119 71.5t42 205.5t-42 204.5t-119 70.5q-78 0 -120.5 -70.5t-42.5 -204.5t42.5 -205.5t120.5 -71.5z" />
    <glyph glyph-name="P" unicode="P" horiz-adv-x="563" 
d="M69 0v740h215q110 0 176.5 -55t66.5 -173q0 -125 -69 -179.5t-178 -54.5h-95v-278h-116zM185 380h99q68 0 99 30t31 99q0 66 -31.5 94.5t-99.5 28.5h-98v-252z" />
    <glyph glyph-name="Q" unicode="Q" horiz-adv-x="639" 
d="M465 -193q-204 0 -206 189q-100 19 -160 115.5t-60 258.5q0 185 79 284.5t203 99.5q123 0 201 -99.5t78 -284.5q0 -167 -62.5 -263t-165.5 -113q6 -54 35 -71t95 -17h42v-99h-79zM321 90q76 0 118 73t42 207t-42 204.5t-118 70.5q-78 0 -121 -70.5t-43 -204.5t43 -207
t121 -73z" />
    <glyph glyph-name="R" unicode="R" horiz-adv-x="582" 
d="M69 0v740h220q238 0 238 -224q0 -79 -35 -130.5t-93 -70.5l142 -315h-121l-132 289h-104v-289h-115zM184 389h100q67 0 98.5 28.5t31.5 96.5q0 65 -31.5 91.5t-98.5 26.5h-100v-243z" />
    <glyph glyph-name="S" unicode="S" horiz-adv-x="567" 
d="M292 -13q-181 0 -262 178l99 49q58 -124 163 -124q56 0 87.5 25t31.5 71q0 27 -10.5 48t-34 38t-42.5 27.5t-55 26.5q-98 45 -133 74q-75 60 -75 159q0 86 61.5 140.5t156.5 54.5q163 0 236 -161l-99 -51q-24 52 -56.5 80t-82.5 28q-46 0 -73 -23t-27 -63q0 -48 34 -77.5
t102 -61.5q33 -15 43 -19.5t40.5 -20.5t42 -26t33 -30t30.5 -38t16.5 -44.5t7.5 -56.5q0 -86 -63 -144.5t-171 -58.5z" />
    <glyph glyph-name="T" unicode="T" horiz-adv-x="528" 
d="M205 0v631h-184v109h485v-109h-183v-631h-118z" />
    <glyph glyph-name="U" unicode="U" horiz-adv-x="607" 
d="M304 -13q-243 0 -243 262v491h118v-480q0 -87 29.5 -127.5t97.5 -40.5t97 40.5t29 125.5v482h113v-489q0 -126 -59 -195t-182 -69z" />
    <glyph glyph-name="V" unicode="V" horiz-adv-x="573" 
d="M230 -3l-211 743h118l99 -375q26 -97 53 -211h2q18 83 53 209l100 377h110l-211 -743h-113z" />
    <glyph glyph-name="W" unicode="W" horiz-adv-x="793" 
d="M187 -3l-165 743h113l69 -339q25 -120 39 -208h2q13 85 38 208l65 339h105l68 -347q27 -136 36 -200h2q10 63 37 199l70 348h104l-165 -743h-101l-106 542h-2l-107 -542h-102z" />
    <glyph glyph-name="X" unicode="X" horiz-adv-x="578" 
d="M18 0l208 395l-181 345h127l124 -248l119 248h114l-178 -341l209 -399h-125l-152 302l-150 -302h-115z" />
    <glyph glyph-name="Y" unicode="Y" horiz-adv-x="551" 
d="M216 0v298l-207 442h121l147 -335h2l147 335h115l-207 -441v-299h-118z" />
    <glyph glyph-name="Z" unicode="Z" horiz-adv-x="539" 
d="M27 0v86l334 545h-310v109h452v-88l-330 -546h330v-106h-476z" />
    <glyph glyph-name="bracketleft" unicode="[" horiz-adv-x="358" 
d="M63 -200v940h266v-85h-149v-771h149v-84h-266z" />
    <glyph glyph-name="backslash" unicode="\" horiz-adv-x="502" 
d="M375 0l-366 740h118l365 -740h-117z" />
    <glyph glyph-name="bracketright" unicode="]" horiz-adv-x="358" 
d="M28 -200v84h150v771h-150v85h266v-940h-266z" />
    <glyph glyph-name="asciicircum" unicode="^" horiz-adv-x="462" 
d="M82 584l110 162h78l109 -162h-67l-82 79l-81 -79h-67z" />
    <glyph glyph-name="underscore" unicode="_" horiz-adv-x="434" 
d="M-5 -141v86h444v-86h-444z" />
    <glyph glyph-name="grave" unicode="`" horiz-adv-x="463" 
d="M219 585l-122 161h120l80 -161h-78z" />
    <glyph glyph-name="a" unicode="a" horiz-adv-x="484" 
d="M156 -6q-58 0 -93 35.5t-35 100.5q0 166 291 221v23q0 37 -15.5 53t-50.5 16q-80 0 -150 -61l-57 70q96 89 221 89q163 0 163 -167v-244q0 -91 13 -130h-113q-11 37 -11 67q-57 -73 -163 -73zM201 84q67 0 118 55v134q-180 -39 -180 -124q0 -65 62 -65z" />
    <glyph glyph-name="b" unicode="b" horiz-adv-x="521" 
d="M306 -8q-84 0 -135 65v-57h-114v739h114v-274q59 76 142 76q81 0 128.5 -69t47.5 -206t-50 -205.5t-133 -68.5zM275 85q99 0 99 180q0 179 -100 179q-48 0 -103 -61v-241q46 -57 104 -57z" />
    <glyph glyph-name="c" unicode="c" horiz-adv-x="468" 
d="M246 -11q-92 0 -153 70.5t-61 205.5q0 138 63.5 207t155.5 69q83 0 126.5 -44t64.5 -122l-102 -25q-13 49 -33.5 71.5t-57.5 22.5q-47 0 -75 -43.5t-28 -135.5q0 -182 103 -182q37 0 60.5 22.5t35.5 75.5l99 -25q-44 -167 -198 -167z" />
    <glyph glyph-name="d" unicode="d" horiz-adv-x="521" 
d="M209 -8q-81 0 -128.5 68t-47.5 205t50.5 206.5t132.5 69.5t135 -67v266h114v-610q0 -95 13 -130h-117q-10 27 -10 69q-60 -77 -142 -77zM248 85q25 0 55 19t48 41v242q-46 57 -104 57q-99 0 -99 -182q0 -177 100 -177z" />
    <glyph glyph-name="e" unicode="e" horiz-adv-x="482" 
d="M251 -11q-97 0 -158 69.5t-61 206.5q0 138 63.5 207t153.5 69q93 0 147 -70t54 -209v-31h-306q4 -74 33 -111.5t79 -37.5q40 0 67 17.5t54 54.5l72 -52q-31 -50 -83.5 -81.5t-114.5 -31.5zM145 311h199q-8 135 -96 135q-41 0 -69 -32.5t-34 -102.5z" />
    <glyph glyph-name="f" unicode="f" horiz-adv-x="322" 
d="M94 0v439h-76v91h76v65q0 70 36 108.5t121 38.5q46 0 58 -3v-92q-8 2 -34 2q-67 0 -67 -62v-57h97v-91h-97v-439h-114z" />
    <glyph glyph-name="g" unicode="g" horiz-adv-x="509" 
d="M378 488q46 43 111 52v-99q-39 0 -76 -11q17 -36 17 -81q0 -87 -52.5 -138.5t-141.5 -51.5q-40 0 -70 10q-21 -13 -21 -33q0 -15 11 -21t43 -10l75 -8q109 -10 154.5 -42.5t45.5 -98.5q0 -73 -69 -114.5t-180 -41.5q-115 0 -166 31t-51 91q0 73 83 113q-43 25 -43 67
q0 53 63 93q-73 53 -73 154q0 86 54 139t143 53q92 0 143 -53zM237 238q43 0 65.5 28.5t22.5 80.5q0 109 -89 109q-43 0 -66.5 -29t-23.5 -80q0 -52 24 -80.5t67 -28.5zM159 15q-47 -28 -47 -74q0 -37 29 -52t100 -15q59 0 94.5 16.5t35.5 48.5q0 30 -23.5 45t-91.5 21
l-83 8z" />
    <glyph glyph-name="h" unicode="h" 
d="M57 0v740h114v-279q27 33 70 56.5t93 23.5q62 0 96 -38t34 -111v-392h-114v366q0 40 -14.5 58.5t-46.5 18.5q-56 0 -118 -62v-381h-114z" />
    <glyph glyph-name="i" unicode="i" horiz-adv-x="239" 
d="M62 617v107h115v-107h-115zM62 0v530h114v-530h-114z" />
    <glyph glyph-name="j" unicode="j" horiz-adv-x="239" 
d="M62 617v107h115v-107h-115zM42 -201q-47 0 -59 4v86q9 -3 32 -3q47 0 47 59v585h114v-596q0 -67 -29 -101t-105 -34z" />
    <glyph glyph-name="k" unicode="k" horiz-adv-x="479" 
d="M57 0v740h113v-453q11 23 61 94l102 149h116l-141 -195l156 -335h-116l-111 242l-67 -90v-152h-113z" />
    <glyph glyph-name="l" unicode="l" horiz-adv-x="239" 
d="M62 0v740h114v-740h-114z" />
    <glyph glyph-name="m" unicode="m" horiz-adv-x="791" 
d="M57 0v530h114v-69q26 32 69.5 56t87.5 24q54 0 81.5 -18.5t37.5 -59.5q68 78 161 78q62 0 96 -38t34 -111v-392h-114v366q0 40 -14.5 58.5t-46.5 18.5q-45 0 -109 -53v-390h-114v366q0 41 -12.5 59t-45.5 18q-48 0 -111 -61v-382h-114z" />
    <glyph glyph-name="n" unicode="n" 
d="M57 0v530h114v-69q27 33 70 56.5t93 23.5q62 0 96 -38t34 -111v-392h-114v366q0 40 -14.5 58.5t-46.5 18.5q-56 0 -118 -62v-381h-114z" />
    <glyph glyph-name="o" unicode="o" horiz-adv-x="508" 
d="M254 -11q-96 0 -159 70.5t-63 205.5q0 136 63 206t159 70t158.5 -70t62.5 -206q0 -135 -63 -205.5t-158 -70.5zM254 82q107 0 107 183q0 180 -107 180q-108 0 -108 -180q0 -183 108 -183z" />
    <glyph glyph-name="p" unicode="p" horiz-adv-x="521" 
d="M57 -200v730h114v-65q59 76 142 76q81 0 128.5 -69t47.5 -206t-50 -205.5t-133 -68.5q-82 0 -135 67v-259h-114zM275 85q99 0 99 180q0 179 -100 179q-25 0 -55 -19t-48 -41v-242q46 -57 104 -57z" />
    <glyph glyph-name="q" unicode="q" horiz-adv-x="521" 
d="M350 -200v267q-62 -76 -141 -76q-81 0 -128.5 67.5t-47.5 205.5q0 137 48 207t129 70t140 -74v63h114v-730h-114zM248 82q46 0 102 60v242q-53 60 -103 60q-99 0 -99 -179q0 -183 100 -183z" />
    <glyph glyph-name="r" unicode="r" horiz-adv-x="357" 
d="M57 0v530h114v-82h2q21 38 61.5 65.5t96.5 27.5h10l-3 -105q-1 0 -11 0.5t-15 0.5q-90 0 -141 -84v-353h-114z" />
    <glyph glyph-name="s" unicode="s" horiz-adv-x="450" 
d="M225 -11q-139 0 -215 103l70 59q60 -74 147 -74t87 60q0 31 -28 51t-68 32.5t-80 28.5t-68 51.5t-28 89.5q0 70 51.5 110.5t130.5 40.5q56 0 105.5 -24t81.5 -66l-68 -62q-53 62 -120 62q-73 0 -73 -55q0 -26 20 -44.5t50 -27.5t65.5 -23t65.5 -29.5t50 -48.5t20 -79
q0 -72 -56.5 -113.5t-139.5 -41.5z" />
    <glyph glyph-name="t" unicode="t" horiz-adv-x="346" 
d="M238 -6q-83 0 -115 30.5t-32 101.5v313h-76v91h76v186h114v-186h115v-91h-115v-282q0 -42 14 -58t52 -16q27 0 45 6v-88q-19 -7 -78 -7z" />
    <glyph glyph-name="u" unicode="u" 
d="M183 -11q-62 0 -96 38t-34 111v392h114v-368q0 -40 14.5 -58t48.5 -18q52 0 116 62v382h114v-530h-114v69q-70 -80 -163 -80z" />
    <glyph glyph-name="v" unicode="v" horiz-adv-x="455" 
d="M167 -2l-158 532h115l72 -268q21 -84 35 -144h2q13 59 34 143l72 269h107l-158 -532h-121z" />
    <glyph glyph-name="w" unicode="w" horiz-adv-x="653" 
d="M140 -2l-130 532h111l51 -222q17 -73 30 -151h2q10 59 31 153l49 220h97l49 -217q24 -107 32 -156h2q7 42 30 155l50 218h99l-130 -532h-102l-83 366h-2l-85 -366h-101z" />
    <glyph glyph-name="x" unicode="x" horiz-adv-x="453" 
d="M12 0l158 275l-144 255h118l92 -170l85 170h109l-144 -251l157 -279h-117l-103 193l-102 -193h-109z" />
    <glyph glyph-name="y" unicode="y" horiz-adv-x="468" 
d="M103 -202q-60 0 -104 14l22 90q39 -9 71 -9q29 0 44.5 15t27.5 51l11 35l-166 536h118l66 -241q27 -97 40 -162h2q18 76 42 167l66 236h110l-184 -585q-25 -78 -61 -112.5t-105 -34.5z" />
    <glyph glyph-name="z" unicode="z" horiz-adv-x="441" 
d="M27 0v71l238 368h-218v91h354v-72l-239 -368h252v-90h-387z" />
    <glyph glyph-name="braceleft" unicode="{" horiz-adv-x="359" 
d="M249 -200q-131 0 -131 140v174q0 69 -20.5 91.5t-73.5 22.5v84q53 0 73.5 23t20.5 91v174q0 140 134 140h86v-85h-37q-67 0 -67 -74v-164q0 -69 -18.5 -100t-58.5 -46v-2q40 -15 58.5 -46t18.5 -100v-166q0 -38 16 -55.5t51 -17.5h37v-84h-89z" />
    <glyph glyph-name="bar" unicode="|" horiz-adv-x="327" 
d="M106 -200v940h115v-940h-115z" />
    <glyph glyph-name="braceright" unicode="}" horiz-adv-x="359" 
d="M21 -200v84h37q35 0 51 17.5t16 55.5v171q0 69 18 97.5t59 43.5v2q-41 15 -59 43.5t-18 97.5v169q0 74 -67 74h-37v85h92q68 0 98 -34t30 -101v-179q0 -68 20.5 -91t73.5 -23v-84q-53 0 -73.5 -22.5t-20.5 -91.5v-179q0 -135 -125 -135h-95z" />
    <glyph glyph-name="asciitilde" unicode="~" horiz-adv-x="463" 
d="M299 389q-33 0 -74 28t-56 28q-35 0 -35 -54h-64q0 139 95 139q32 0 73 -28t57 -28q35 0 35 54h62q0 -139 -93 -139z" />
    <glyph glyph-name="uni00A0" unicode="&#xa0;" horiz-adv-x="105" 
 />
    <glyph glyph-name="exclamdown" unicode="&#xa1;" horiz-adv-x="297" 
d="M82 619v121h129v-121h-129zM78 0l24 528h89l25 -528h-138z" />
    <glyph glyph-name="cent" unicode="&#xa2;" horiz-adv-x="468" 
d="M148 14q-116 65 -116 251q0 138 63.5 207t155.5 69h4l17 86h83l-20 -102q75 -34 107 -150l-102 -25q-13 47 -30 70l-70 -341h9q73 0 96 102l99 -25q-44 -167 -198 -167q-14 0 -20 1l-21 -101h-83zM240 449q-43 -5 -68.5 -50.5t-25.5 -133.5q0 -94 28 -141z" />
    <glyph glyph-name="sterling" unicode="&#xa3;" horiz-adv-x="573" 
d="M196 337h-122v83h83q-42 88 -42 144q0 86 51 138t137 52q175 0 196 -195l-106 -14q-5 54 -25 83t-64 29q-78 0 -78 -90q0 -49 46 -147h148v-83h-113q21 -63 21 -121q0 -56 -18 -102q45 -34 76 -34q35 0 51.5 26.5t17.5 94.5h100q-2 -103 -37 -159t-119 -56q-67 0 -132 59
q-53 -59 -133 -59q-51 0 -87 28.5t-36 80.5q0 55 35 90t88 35q46 0 93 -35q1 7 1 23q0 56 -32 129zM208 103q-42 42 -73 42q-20 0 -31.5 -12.5t-11.5 -34.5q0 -20 12 -32t32 -12q48 0 72 49z" />
    <glyph glyph-name="yen" unicode="&#xa5;" horiz-adv-x="551" 
d="M331 238v-69h165v-83h-165v-86h-112v86h-164v83h164v69h-164v83h153l-199 419h121l147 -336h2l147 336h115l-199 -419h154v-83h-165z" />
    <glyph glyph-name="brokenbar" unicode="&#xa6;" horiz-adv-x="327" 
d="M106 331v409h115v-409h-115zM106 -200v409h115v-409h-115z" />
    <glyph glyph-name="section" unicode="&#xa7;" horiz-adv-x="496" 
d="M244 -204q-90 0 -132.5 42.5t-61.5 122.5l98 27q23 -101 94 -101q72 0 72 70q0 34 -25.5 61.5t-82.5 65.5q-36 24 -53.5 36t-43.5 34t-38 39.5t-21.5 43.5t-9.5 55q0 49 28 90t71 69q-67 61 -67 136q0 71 48.5 119.5t131.5 48.5q92 0 134.5 -42.5t62.5 -123.5l-101 -27
q-11 50 -32.5 75t-61.5 25q-37 0 -56 -18.5t-19 -50.5q0 -34 26.5 -61t85.5 -66q45 -30 66 -45t49 -42t39 -55.5t11 -64.5q0 -49 -28.5 -91t-70.5 -69q64 -58 64 -135q0 -72 -47 -120t-130 -48zM291 152q63 39 63 90q0 38 -25.5 65.5t-96.5 73.5l-26 17q-64 -38 -64 -89
q0 -38 26 -66t97 -74q4 -3 13 -8.5t13 -8.5z" />
    <glyph glyph-name="dieresis" unicode="&#xa8;" horiz-adv-x="463" 
d="M268 583v114h102v-114h-102zM93 583v114h103v-114h-103z" />
    <glyph glyph-name="copyright" unicode="&#xa9;" horiz-adv-x="717" 
d="M358 -14q-138 0 -229.5 110.5t-91.5 272.5t92.5 273.5t229.5 111.5q138 0 229.5 -110.5t91.5 -272.5t-92.5 -273.5t-229.5 -111.5zM359 41q113 0 187 94t74 234t-74.5 235t-187.5 95t-187 -94t-74 -234t74.5 -235t187.5 -95zM359 155q-71 0 -111 56.5t-40 162.5
q0 103 40.5 160t111.5 57q110 0 137 -139l-70 -13q-9 42 -24 62t-43 20q-37 0 -56.5 -39.5t-19.5 -107.5q0 -70 19.5 -108.5t56.5 -38.5q28 0 44.5 20.5t25.5 66.5l70 -14q-30 -145 -141 -145z" />
    <glyph glyph-name="ordfeminine" unicode="&#xaa;" horiz-adv-x="379" 
d="M130 363q-42 0 -67 24.5t-25 72.5q0 115 204 155v18q0 52 -44 52q-51 0 -106 -47l-43 50q70 65 162 65q59 0 86 -29.5t27 -90.5v-171q0 -66 10 -93h-84q-8 30 -8 49q-47 -55 -112 -55zM161 430q43 0 81 40v95q-122 -27 -122 -92q0 -43 41 -43z" />
    <glyph glyph-name="guillemotleft" unicode="&#xab;" horiz-adv-x="498" 
d="M358 0l-129 265l129 264h109l-126 -264l126 -265h-109zM155 0l-129 265l129 264h109l-125 -264l125 -265h-109z" />
    <glyph glyph-name="logicalnot" unicode="&#xac;" horiz-adv-x="550" 
d="M499 383v-299h-98v204h-350v95h448z" />
    <glyph glyph-name="registered" unicode="&#xae;" horiz-adv-x="717" 
d="M358 -14q-138 0 -229.5 110.5t-91.5 272.5t92.5 273.5t229.5 111.5q138 0 229.5 -110.5t91.5 -272.5t-92.5 -273.5t-229.5 -111.5zM359 38q113 0 187.5 95t74.5 236q0 140 -75 236.5t-188 96.5t-187.5 -95t-74.5 -236t75 -237t188 -96zM232 171v413h129q64 0 99.5 -32
t35.5 -96q0 -88 -67 -117l72 -168h-81l-67 157h-46v-157h-75zM307 390h50q64 0 64 63q0 32 -15.5 46.5t-48.5 14.5h-50v-124z" />
    <glyph glyph-name="macron" unicode="&#xaf;" horiz-adv-x="463" 
d="M91 611v88h280v-88h-280z" />
    <glyph glyph-name="degree" unicode="&#xb0;" horiz-adv-x="347" 
d="M174 461q-59 0 -96 41t-37 105t37 105t96 41q58 0 94.5 -40.5t36.5 -104.5t-36.5 -105.5t-94.5 -41.5zM174 521q29 0 45.5 23t16.5 63t-16.5 63t-45.5 23t-46 -23t-17 -63t17 -63t46 -23z" />
    <glyph glyph-name="plusminus" unicode="&#xb1;" horiz-adv-x="551" 
d="M51 42v88h177v183h-177v92h177v199h96v-199h176v-92h-176v-183h176v-88h-449z" />
    <glyph glyph-name="twosuperior" unicode="&#xb2;" horiz-adv-x="386" 
d="M46 288v23q0 53 20 93.5t48 64.5t56 44.5t48 46.5t20 58q0 48 -44 48q-40 0 -69 -73l-79 33q50 122 154 122q62 0 95.5 -33.5t33.5 -94.5q0 -38 -17 -69.5t-42.5 -52.5t-51 -40t-44.5 -41.5t-22 -46.5h177v-82h-283z" />
    <glyph glyph-name="threesuperior" unicode="&#xb3;" horiz-adv-x="386" 
d="M191 282q-110 0 -156 114l71 35q29 -70 82 -70q30 0 47 17t17 45q0 39 -22 57t-70 18h-20v57h27q76 0 76 64q0 21 -13 35t-37 14q-41 0 -81 -53l-62 44q59 89 149 89q62 0 96.5 -33t34.5 -85q0 -70 -62 -99q72 -31 72 -111q0 -63 -41 -100.5t-108 -37.5z" />
    <glyph glyph-name="acute" unicode="&#xb4;" horiz-adv-x="463" 
d="M166 585l81 161h119l-122 -161h-78z" />
    <glyph glyph-name="mu" unicode="&#xb5;" horiz-adv-x="519" 
d="M55 -200v731h115v-368q0 -40 14.5 -59t47.5 -19q52 0 116 59v387h114v-531h-114v74q-65 -71 -133 -78q-30 -2 -45 13v-209h-115z" />
    <glyph glyph-name="paragraph" unicode="&#xb6;" horiz-adv-x="560" 
d="M246 -200v530q-98 2 -152 54t-54 149q0 90 52.5 148.5t141.5 58.5h267v-940h-91v847h-74v-847h-90z" />
    <glyph glyph-name="periodcentered" unicode="&#xb7;" horiz-adv-x="267" 
d="M66 240v129h135v-129h-135z" />
    <glyph glyph-name="periodcentered" unicode="&#x2219;" horiz-adv-x="267" 
d="M66 240v129h135v-129h-135z" />
    <glyph glyph-name="cedilla" unicode="&#xb8;" horiz-adv-x="463" 
d="M236 -206q-72 0 -125 35l27 46q41 -28 94 -28q54 0 54 38q0 30 -32 30q-22 0 -42 -18l-36 16l27 93h54l-16 -57q21 14 52 14q28 0 47.5 -18t19.5 -52q0 -44 -35.5 -71.5t-88.5 -27.5z" />
    <glyph glyph-name="onesuperior" unicode="&#xb9;" horiz-adv-x="338" 
d="M63 288v80h68v274q-29 -12 -66 -12v81q51 3 76 28h84v-371h59v-80h-221z" />
    <glyph glyph-name="ordmasculine" unicode="&#xba;" horiz-adv-x="386" 
d="M193 364q-68 0 -112.5 50t-44.5 145q0 96 44.5 145.5t112.5 49.5t112.5 -49.5t44.5 -145.5t-44.5 -145.5t-112.5 -49.5zM193 430q73 0 73 129q0 126 -73 126t-73 -126q0 -129 73 -129z" />
    <glyph glyph-name="guillemotright" unicode="&#xbb;" horiz-adv-x="498" 
d="M234 0l125 265l-125 264h109l128 -264l-128 -265h-109zM31 0l126 265l-126 264h109l129 -264l-129 -265h-109z" />
    <glyph glyph-name="onequarter" unicode="&#xbc;" horiz-adv-x="840" 
d="M63 288v80h68v274q-29 -12 -66 -12v81q51 3 76 28h84v-371h59v-80h-221zM198 0l376 740h96l-376 -740h-96zM653 0v98h-173v62l169 292h93v-277h59v-77h-59v-98h-89zM566 173h89v156z" />
    <glyph glyph-name="onehalf" unicode="&#xbd;" horiz-adv-x="880" 
d="M63 288v80h68v274q-29 -12 -66 -12v81q51 3 76 28h84v-371h59v-80h-221zM198 0l376 740h96l-376 -740h-96zM538 0v23q0 53 20 93.5t48 64.5t56.5 44.5t48.5 46.5t20 58q0 48 -45 48q-40 0 -69 -74l-78 34q48 122 153 122q62 0 95.5 -33.5t33.5 -94.5q0 -38 -17 -69.5
t-42.5 -52.5t-51 -40t-44.5 -41.5t-22 -46.5h177v-82h-283z" />
    <glyph glyph-name="threequarters" unicode="&#xbe;" horiz-adv-x="863" 
d="M191 282q-110 0 -156 114l71 35q29 -70 82 -70q30 0 47 17t17 45q0 39 -22 57t-70 18h-20v57h27q76 0 76 64q0 21 -13 35t-37 14q-41 0 -81 -53l-62 44q59 89 149 89q62 0 96.5 -33t34.5 -85q0 -70 -62 -99q72 -31 72 -111q0 -63 -41 -100.5t-108 -37.5zM221 0l375 740
h96l-375 -740h-96zM676 0v98h-173v62l169 292h92v-277h59v-77h-59v-98h-88zM588 173h89v156z" />
    <glyph glyph-name="questiondown" unicode="&#xbf;" horiz-adv-x="484" 
d="M196 618v122h129v-122h-129zM228 -14q-91 0 -141.5 48.5t-50.5 124.5q0 34 7 60.5t23.5 49.5t28.5 35.5t37 35.5q50 47 64.5 80.5t14.5 108.5h97q2 -21 2 -60q0 -57 -23 -95t-69 -80q-37 -33 -54 -60t-17 -66t23 -61t65 -22q77 0 123 100l94 -39q-69 -160 -224 -160z" />
    <glyph glyph-name="Agrave" unicode="&#xc0;" horiz-adv-x="583" 
d="M178 177l-49 -177h-110l216 743h113l216 -743h-118l-48 177h-220zM370 280l-24 90q-44 158 -56 215h-2q-12 -55 -57 -214l-25 -91h164zM263 785l-122 161h120l80 -161h-78z" />
    <glyph glyph-name="Aacute" unicode="&#xc1;" horiz-adv-x="583" 
d="M178 177l-49 -177h-110l216 743h113l216 -743h-118l-48 177h-220zM370 280l-24 90q-44 158 -56 215h-2q-12 -55 -57 -214l-25 -91h164zM241 785l81 161h119l-122 -161h-78z" />
    <glyph glyph-name="Acircumflex" unicode="&#xc2;" horiz-adv-x="583" 
d="M178 177l-49 -177h-110l216 743h113l216 -743h-118l-48 177h-220zM370 280l-24 90q-44 158 -56 215h-2q-12 -55 -57 -214l-25 -91h164zM142 779l110 162h78l110 -162h-68l-81 79l-81 -79h-68z" />
    <glyph glyph-name="Atilde" unicode="&#xc3;" horiz-adv-x="583" 
d="M178 177l-49 -177h-110l216 743h113l216 -743h-118l-48 177h-220zM370 280l-24 90q-44 158 -56 215h-2q-12 -55 -57 -214l-25 -91h164zM359 776q-33 0 -74 28t-56 28q-35 0 -35 -54h-64q0 139 95 139q32 0 73 -28t57 -28q35 0 35 54h62q0 -139 -93 -139z" />
    <glyph glyph-name="Adieresis" unicode="&#xc4;" horiz-adv-x="583" 
d="M178 177l-49 -177h-110l216 743h113l216 -743h-118l-48 177h-220zM370 280l-24 90q-44 158 -56 215h-2q-12 -55 -57 -214l-25 -91h164zM328 783v114h102v-114h-102zM153 783v114h103v-114h-103z" />
    <glyph glyph-name="Aring" unicode="&#xc5;" horiz-adv-x="583" 
d="M177 177l-48 -177h-110l210 722q-31 29 -31 79q0 45 25.5 74t67.5 29t68 -29t26 -74q0 -50 -31 -78l210 -723h-118l-47 177h-222zM291 747q19 0 29.5 15.5t10.5 38.5q0 22 -10.5 37t-29.5 15q-18 0 -28.5 -15t-10.5 -37q0 -23 10.5 -38.5t28.5 -15.5zM371 280l-25 94
q-44 158 -56 215h-2q-12 -55 -57 -214l-26 -95h166z" />
    <glyph glyph-name="AE" unicode="&#xc6;" horiz-adv-x="860" 
d="M15 0l338 740h459v-109h-282v-191h205v-104h-205v-230h298v-106h-415v209h-189l-93 -209h-116zM268 308h145v319z" />
    <glyph glyph-name="Ccedilla" unicode="&#xc7;" horiz-adv-x="596" 
d="M265 -9q-106 17 -166 113t-60 267q0 187 74.5 285t201.5 98q107 0 164 -63.5t76 -180.5l-110 -20q-15 81 -45.5 117.5t-87.5 36.5q-76 0 -115.5 -69.5t-39.5 -202.5q0 -279 157 -279q59 0 91 37.5t49 126.5l109 -18q-49 -248 -245 -252l-10 -38q21 14 52 14
q28 0 47.5 -18t19.5 -52q0 -44 -35.5 -71.5t-88.5 -27.5q-72 0 -125 35l27 46q41 -28 94 -28q54 0 54 38q0 30 -32 30q-22 0 -42 -18l-36 16z" />
    <glyph glyph-name="Egrave" unicode="&#xc8;" 
d="M69 0v740h401v-109h-283v-190h205v-106h-205v-229h298v-106h-416zM246 785l-122 161h120l80 -161h-78z" />
    <glyph glyph-name="Eacute" unicode="&#xc9;" 
d="M69 0v740h401v-109h-283v-190h205v-106h-205v-229h298v-106h-416zM198 785l81 161h119l-122 -161h-78z" />
    <glyph glyph-name="Ecircumflex" unicode="&#xca;" 
d="M69 0v740h401v-109h-283v-190h205v-106h-205v-229h298v-106h-416zM119 784l110 162h78l110 -162h-68l-81 79l-81 -79h-68z" />
    <glyph glyph-name="Edieresis" unicode="&#xcb;" 
d="M69 0v740h401v-109h-283v-190h205v-106h-205v-229h298v-106h-416zM305 783v114h102v-114h-102zM130 783v114h103v-114h-103z" />
    <glyph glyph-name="Igrave" unicode="&#xcc;" horiz-adv-x="267" 
d="M74 0v740h118v-740h-118zM121 785l-122 161h120l80 -161h-78z" />
    <glyph glyph-name="Iacute" unicode="&#xcd;" horiz-adv-x="267" 
d="M74 0v740h118v-740h-118zM68 785l81 161h119l-122 -161h-78z" />
    <glyph glyph-name="Icircumflex" unicode="&#xce;" horiz-adv-x="267" 
d="M74 0v740h118v-740h-118zM-16 784l110 162h78l110 -162h-68l-81 79l-81 -79h-68z" />
    <glyph glyph-name="Idieresis" unicode="&#xcf;" horiz-adv-x="267" 
d="M74 0v740h118v-740h-118zM170 783v114h102v-114h-102zM-5 783v114h103v-114h-103z" />
    <glyph glyph-name="Eth" unicode="&#xd0;" horiz-adv-x="613" 
d="M69 340h-58v93h58v307h178q159 0 243 -86t84 -282q0 -198 -84.5 -285t-242.5 -87h-178v340zM187 433h121v-93h-121v-235h73q104 0 149.5 61t45.5 206q0 140 -45.5 200t-150.5 60h-72v-199z" />
    <glyph glyph-name="Ntilde" unicode="&#xd1;" horiz-adv-x="639" 
d="M69 0v740h127l201 -393q29 -57 63 -129h2v522h107v-740h-109l-220 418q-44 87 -62 125h-2v-543h-107zM388 776q-33 0 -74 28t-56 28q-35 0 -35 -54h-64q0 139 95 139q32 0 73 -28t57 -28q35 0 35 54h62q0 -139 -93 -139z" />
    <glyph glyph-name="Ograve" unicode="&#xd2;" horiz-adv-x="639" 
d="M320 -14q-124 0 -202.5 99t-78.5 285t78.5 285t202.5 99q123 0 201.5 -99t78.5 -285t-78.5 -285t-201.5 -99zM320 93q77 0 119 71.5t42 205.5t-42 204.5t-119 70.5q-78 0 -120.5 -70.5t-42.5 -204.5t42.5 -205.5t120.5 -71.5zM308 785l-122 161h120l80 -161h-78z" />
    <glyph glyph-name="Oacute" unicode="&#xd3;" horiz-adv-x="639" 
d="M320 -14q-124 0 -202.5 99t-78.5 285t78.5 285t202.5 99q123 0 201.5 -99t78.5 -285t-78.5 -285t-201.5 -99zM320 93q77 0 119 71.5t42 205.5t-42 204.5t-119 70.5q-78 0 -120.5 -70.5t-42.5 -204.5t42.5 -205.5t120.5 -71.5zM255 785l81 161h119l-122 -161h-78z" />
    <glyph glyph-name="Ocircumflex" unicode="&#xd4;" horiz-adv-x="639" 
d="M320 -14q-124 0 -202.5 99t-78.5 285t78.5 285t202.5 99q123 0 201.5 -99t78.5 -285t-78.5 -285t-201.5 -99zM320 93q77 0 119 71.5t42 205.5t-42 204.5t-119 70.5q-78 0 -120.5 -70.5t-42.5 -204.5t42.5 -205.5t120.5 -71.5zM171 784l110 162h78l110 -162h-68l-81 79
l-81 -79h-68z" />
    <glyph glyph-name="Otilde" unicode="&#xd5;" horiz-adv-x="639" 
d="M320 -14q-124 0 -202.5 99t-78.5 285t78.5 285t202.5 99q123 0 201.5 -99t78.5 -285t-78.5 -285t-201.5 -99zM320 93q77 0 119 71.5t42 205.5t-42 204.5t-119 70.5q-78 0 -120.5 -70.5t-42.5 -204.5t42.5 -205.5t120.5 -71.5zM388 776q-33 0 -74 28t-56 28q-35 0 -35 -54
h-64q0 139 95 139q32 0 73 -28t57 -28q35 0 35 54h62q0 -139 -93 -139z" />
    <glyph glyph-name="Odieresis" unicode="&#xd6;" horiz-adv-x="639" 
d="M320 -14q-124 0 -202.5 99t-78.5 285t78.5 285t202.5 99q123 0 201.5 -99t78.5 -285t-78.5 -285t-201.5 -99zM320 93q77 0 119 71.5t42 205.5t-42 204.5t-119 70.5q-78 0 -120.5 -70.5t-42.5 -204.5t42.5 -205.5t120.5 -71.5zM357 783v114h102v-114h-102zM182 783v114
h103v-114h-103z" />
    <glyph glyph-name="multiply" unicode="&#xd7;" horiz-adv-x="550" 
d="M123 120l-64 64l152 152l-152 151l64 64l152 -152l151 152l64 -64l-152 -151l152 -152l-64 -64l-151 152z" />
    <glyph glyph-name="Oslash" unicode="&#xd8;" horiz-adv-x="639" 
d="M526 648q74 -101 74 -278q0 -186 -78.5 -285t-201.5 -99q-86 0 -153 50l-50 -82l-65 40l60 99q-73 102 -73 277q0 186 78.5 285t202.5 99q86 0 151 -49l51 82l65 -40zM181 200l235 407q-40 40 -96 40q-78 0 -121.5 -71.5t-43.5 -205.5q0 -101 26 -170zM457 540l-236 -407
q39 -42 99 -42q77 0 120 72.5t43 206.5q0 103 -26 170z" />
    <glyph glyph-name="Ugrave" unicode="&#xd9;" horiz-adv-x="607" 
d="M304 -13q-243 0 -243 262v491h118v-480q0 -87 29.5 -127.5t97.5 -40.5t97 40.5t29 125.5v482h113v-489q0 -126 -59 -195t-182 -69zM291 785l-122 161h120l80 -161h-78z" />
    <glyph glyph-name="Uacute" unicode="&#xda;" horiz-adv-x="607" 
d="M304 -13q-243 0 -243 262v491h118v-480q0 -87 29.5 -127.5t97.5 -40.5t97 40.5t29 125.5v482h113v-489q0 -126 -59 -195t-182 -69zM238 785l81 161h119l-122 -161h-78z" />
    <glyph glyph-name="Ucircumflex" unicode="&#xdb;" horiz-adv-x="607" 
d="M304 -13q-243 0 -243 262v491h118v-480q0 -87 29.5 -127.5t97.5 -40.5t97 40.5t29 125.5v482h113v-489q0 -126 -59 -195t-182 -69zM156 784l110 162h78l110 -162h-68l-81 79l-81 -79h-68z" />
    <glyph glyph-name="Udieresis" unicode="&#xdc;" horiz-adv-x="607" 
d="M304 -13q-243 0 -243 262v491h118v-480q0 -87 29.5 -127.5t97.5 -40.5t97 40.5t29 125.5v482h113v-489q0 -126 -59 -195t-182 -69zM340 783v114h102v-114h-102zM165 783v114h103v-114h-103z" />
    <glyph glyph-name="Yacute" unicode="&#xdd;" horiz-adv-x="551" 
d="M216 0v298l-207 442h121l147 -335h2l147 335h115l-207 -441v-299h-118zM210 785l81 161h119l-122 -161h-78z" />
    <glyph glyph-name="Thorn" unicode="&#xde;" horiz-adv-x="563" 
d="M69 0v740h116v-127h99q110 0 176.5 -55t66.5 -173q0 -125 -69 -179.5t-178 -54.5h-95v-151h-116zM185 254h99q68 0 99 30t31 98q0 66 -31.5 94.5t-99.5 28.5h-98v-251z" />
    <glyph glyph-name="germandbls" unicode="&#xdf;" horiz-adv-x="557" 
d="M335 -10q-84 0 -131 32l47 79q35 -21 75 -21t67 32t27 93q0 76 -41.5 109.5t-135.5 38.5v87q123 1 123 109q0 44 -24.5 68.5t-69.5 24.5q-100 0 -100 -124v-518h-114v515q0 109 57.5 167t157.5 58q93 0 146.5 -46t53.5 -130q0 -58 -29 -100.5t-73 -58.5
q73 -16 115.5 -66.5t42.5 -131.5q0 -97 -51.5 -157t-142.5 -60z" />
    <glyph glyph-name="agrave" unicode="&#xe0;" horiz-adv-x="484" 
d="M156 -6q-58 0 -93 35.5t-35 100.5q0 166 291 221v23q0 37 -15.5 53t-50.5 16q-80 0 -150 -61l-57 70q96 89 221 89q163 0 163 -167v-244q0 -91 13 -130h-113q-11 37 -11 67q-57 -73 -163 -73zM201 84q67 0 118 55v134q-180 -39 -180 -124q0 -65 62 -65zM230 585l-122 161
h120l80 -161h-78z" />
    <glyph glyph-name="aacute" unicode="&#xe1;" horiz-adv-x="484" 
d="M156 -6q-58 0 -93 35.5t-35 100.5q0 166 291 221v23q0 37 -15.5 53t-50.5 16q-80 0 -150 -61l-57 70q96 89 221 89q163 0 163 -167v-244q0 -91 13 -130h-113q-11 37 -11 67q-57 -73 -163 -73zM201 84q67 0 118 55v134q-180 -39 -180 -124q0 -65 62 -65zM177 585l81 161
h119l-122 -161h-78z" />
    <glyph glyph-name="acircumflex" unicode="&#xe2;" horiz-adv-x="484" 
d="M156 -6q-58 0 -93 35.5t-35 100.5q0 166 291 221v23q0 37 -15.5 53t-50.5 16q-80 0 -150 -61l-57 70q96 89 221 89q163 0 163 -167v-244q0 -91 13 -130h-113q-11 37 -11 67q-57 -73 -163 -73zM201 84q67 0 118 55v134q-180 -39 -180 -124q0 -65 62 -65zM93 584l110 162
h78l110 -162h-68l-81 79l-81 -79h-68z" />
    <glyph glyph-name="atilde" unicode="&#xe3;" horiz-adv-x="484" 
d="M156 -6q-58 0 -93 35.5t-35 100.5q0 166 291 221v23q0 37 -15.5 53t-50.5 16q-80 0 -150 -61l-57 70q96 89 221 89q163 0 163 -167v-244q0 -91 13 -130h-113q-11 37 -11 67q-57 -73 -163 -73zM201 84q67 0 118 55v134q-180 -39 -180 -124q0 -65 62 -65zM310 576
q-33 0 -74 28t-56 28q-35 0 -35 -54h-64q0 139 95 139q32 0 73 -28t57 -28q35 0 35 54h62q0 -139 -93 -139z" />
    <glyph glyph-name="adieresis" unicode="&#xe4;" horiz-adv-x="484" 
d="M156 -6q-58 0 -93 35.5t-35 100.5q0 166 291 221v23q0 37 -15.5 53t-50.5 16q-80 0 -150 -61l-57 70q96 89 221 89q163 0 163 -167v-244q0 -91 13 -130h-113q-11 37 -11 67q-57 -73 -163 -73zM201 84q67 0 118 55v134q-180 -39 -180 -124q0 -65 62 -65zM279 583v114h102
v-114h-102zM104 583v114h103v-114h-103z" />
    <glyph glyph-name="aring" unicode="&#xe5;" horiz-adv-x="484" 
d="M156 -6q-58 0 -93 35.5t-35 100.5q0 166 291 221v23q0 37 -15.5 53t-50.5 16q-80 0 -150 -61l-57 70q96 89 221 89q163 0 163 -167v-244q0 -91 13 -130h-113q-11 37 -11 67q-57 -73 -163 -73zM201 84q67 0 118 55v134q-180 -39 -180 -124q0 -65 62 -65zM242 573
q-41 0 -67 29.5t-26 73.5q0 45 25.5 74t67.5 29t68 -29t26 -74q0 -44 -26.5 -73.5t-67.5 -29.5zM242 622q19 0 29.5 15.5t10.5 38.5q0 22 -10.5 37t-29.5 15q-18 0 -28.5 -15t-10.5 -37q0 -23 10.5 -38.5t28.5 -15.5z" />
    <glyph glyph-name="ae" unicode="&#xe6;" horiz-adv-x="765" 
d="M357 90q-81 -96 -201 -96q-58 0 -93 35.5t-35 100.5q0 166 291 221v23q0 37 -15.5 53t-50.5 16q-80 0 -150 -61l-57 70q96 89 226 89q95 0 123 -61q58 61 137 61q93 0 147.5 -70t54.5 -209v-31h-306q4 -74 33 -111.5t79 -37.5q40 0 67 17.5t54 54.5l72 -52
q-71 -113 -199 -113q-121 0 -177 101zM319 272q-180 -40 -180 -123q0 -65 62 -65q71 0 132 66q-14 51 -14 115v7zM429 311h199q-8 135 -96 135q-41 0 -69 -32.5t-34 -102.5z" />
    <glyph glyph-name="ccedilla" unicode="&#xe7;" horiz-adv-x="468" 
d="M202 -7q-75 16 -122.5 85.5t-47.5 186.5q0 138 63.5 207t155.5 69q83 0 126.5 -44t64.5 -122l-102 -25q-13 49 -33.5 71.5t-57.5 22.5q-47 0 -75 -43.5t-28 -135.5q0 -182 103 -182q37 0 60.5 22.5t35.5 75.5l99 -25q-42 -161 -189 -167l-11 -40q21 14 52 14
q28 0 47.5 -18t19.5 -52q0 -44 -35.5 -71.5t-88.5 -27.5q-72 0 -125 35l27 46q41 -28 94 -28q54 0 54 38q0 30 -32 30q-22 0 -42 -18l-36 16z" />
    <glyph glyph-name="egrave" unicode="&#xe8;" horiz-adv-x="482" 
d="M251 -11q-97 0 -158 69.5t-61 206.5q0 138 63.5 207t153.5 69q93 0 147 -70t54 -209v-31h-306q4 -74 33 -111.5t79 -37.5q40 0 67 17.5t54 54.5l72 -52q-31 -50 -83.5 -81.5t-114.5 -31.5zM145 311h199q-8 135 -96 135q-41 0 -69 -32.5t-34 -102.5zM229 585l-122 161h120
l80 -161h-78z" />
    <glyph glyph-name="eacute" unicode="&#xe9;" horiz-adv-x="482" 
d="M251 -11q-97 0 -158 69.5t-61 206.5q0 138 63.5 207t153.5 69q93 0 147 -70t54 -209v-31h-306q4 -74 33 -111.5t79 -37.5q40 0 67 17.5t54 54.5l72 -52q-31 -50 -83.5 -81.5t-114.5 -31.5zM145 311h199q-8 135 -96 135q-41 0 -69 -32.5t-34 -102.5zM176 585l81 161h119
l-122 -161h-78z" />
    <glyph glyph-name="ecircumflex" unicode="&#xea;" horiz-adv-x="482" 
d="M251 -11q-97 0 -158 69.5t-61 206.5q0 138 63.5 207t153.5 69q93 0 147 -70t54 -209v-31h-306q4 -74 33 -111.5t79 -37.5q40 0 67 17.5t54 54.5l72 -52q-31 -50 -83.5 -81.5t-114.5 -31.5zM145 311h199q-8 135 -96 135q-41 0 -69 -32.5t-34 -102.5zM92 584l110 162h78
l110 -162h-68l-81 79l-81 -79h-68z" />
    <glyph glyph-name="edieresis" unicode="&#xeb;" horiz-adv-x="482" 
d="M251 -11q-97 0 -158 69.5t-61 206.5q0 138 63.5 207t153.5 69q93 0 147 -70t54 -209v-31h-306q4 -74 33 -111.5t79 -37.5q40 0 67 17.5t54 54.5l72 -52q-31 -50 -83.5 -81.5t-114.5 -31.5zM145 311h199q-8 135 -96 135q-41 0 -69 -32.5t-34 -102.5zM278 583v114h102v-114
h-102zM103 583v114h103v-114h-103z" />
    <glyph glyph-name="igrave" unicode="&#xec;" horiz-adv-x="239" 
d="M62 0v530h114v-530h-114zM92 585l-122 161h120l80 -161h-78z" />
    <glyph glyph-name="iacute" unicode="&#xed;" horiz-adv-x="239" 
d="M62 0v530h114v-530h-114zM69 585l81 161h119l-122 -161h-78z" />
    <glyph glyph-name="icircumflex" unicode="&#xee;" horiz-adv-x="239" 
d="M62 0v530h114v-530h-114zM-30 584l110 162h78l110 -162h-68l-81 79l-81 -79h-68z" />
    <glyph glyph-name="idieresis" unicode="&#xef;" horiz-adv-x="239" 
d="M62 0v530h114v-530h-114zM156 583v114h102v-114h-102zM-19 583v114h103v-114h-103z" />
    <glyph glyph-name="eth" unicode="&#xf0;" horiz-adv-x="507" 
d="M300 582l-72 -41l-38 68l59 34q-20 22 -53 49l61 64q40 -29 75 -65l74 43l38 -68l-62 -36q92 -133 92 -357q0 -137 -60 -210.5t-160 -73.5q-101 0 -161.5 70.5t-60.5 192.5q0 123 55.5 189.5t146.5 66.5q38 0 73.5 -18t54.5 -52q-15 74 -62 144zM254 81q52 0 79.5 45
t27.5 128q0 80 -27.5 125t-79.5 45t-80 -43.5t-28 -127.5q0 -82 27 -127t81 -45z" />
    <glyph glyph-name="ntilde" unicode="&#xf1;" 
d="M57 0v530h114v-69q27 33 70 56.5t93 23.5q62 0 96 -38t34 -111v-392h-114v366q0 40 -14.5 58.5t-46.5 18.5q-56 0 -118 -62v-381h-114zM326 576q-33 0 -74 28t-56 28q-35 0 -35 -54h-64q0 139 95 139q32 0 73 -28t57 -28q35 0 35 54h62q0 -139 -93 -139z" />
    <glyph glyph-name="ograve" unicode="&#xf2;" horiz-adv-x="508" 
d="M254 -11q-96 0 -159 70.5t-63 205.5q0 136 63 206t159 70t158.5 -70t62.5 -206q0 -135 -63 -205.5t-158 -70.5zM254 82q107 0 107 183q0 180 -107 180q-108 0 -108 -180q0 -183 108 -183zM242 585l-122 161h120l80 -161h-78z" />
    <glyph glyph-name="oacute" unicode="&#xf3;" horiz-adv-x="508" 
d="M254 -11q-96 0 -159 70.5t-63 205.5q0 136 63 206t159 70t158.5 -70t62.5 -206q0 -135 -63 -205.5t-158 -70.5zM254 82q107 0 107 183q0 180 -107 180q-108 0 -108 -180q0 -183 108 -183zM189 585l81 161h119l-122 -161h-78z" />
    <glyph glyph-name="ocircumflex" unicode="&#xf4;" horiz-adv-x="508" 
d="M254 -11q-96 0 -159 70.5t-63 205.5q0 136 63 206t159 70t158.5 -70t62.5 -206q0 -135 -63 -205.5t-158 -70.5zM254 82q107 0 107 183q0 180 -107 180q-108 0 -108 -180q0 -183 108 -183zM105 584l110 162h78l110 -162h-68l-81 79l-81 -79h-68z" />
    <glyph glyph-name="otilde" unicode="&#xf5;" horiz-adv-x="508" 
d="M254 -11q-96 0 -159 70.5t-63 205.5q0 136 63 206t159 70t158.5 -70t62.5 -206q0 -135 -63 -205.5t-158 -70.5zM254 82q107 0 107 183q0 180 -107 180q-108 0 -108 -180q0 -183 108 -183zM322 576q-33 0 -74 28t-56 28q-35 0 -35 -54h-64q0 139 95 139q32 0 73 -28
t57 -28q35 0 35 54h62q0 -139 -93 -139z" />
    <glyph glyph-name="odieresis" unicode="&#xf6;" horiz-adv-x="508" 
d="M254 -11q-96 0 -159 70.5t-63 205.5q0 136 63 206t159 70t158.5 -70t62.5 -206q0 -135 -63 -205.5t-158 -70.5zM254 82q107 0 107 183q0 180 -107 180q-108 0 -108 -180q0 -183 108 -183zM291 583v114h102v-114h-102zM116 583v114h103v-114h-103z" />
    <glyph glyph-name="divide" unicode="&#xf7;" horiz-adv-x="550" 
d="M222 466v106h105v-106h-105zM51 288v95h448v-95h-448zM222 98v107h105v-107h-105z" />
    <glyph glyph-name="oslash" unicode="&#xf8;" horiz-adv-x="508" 
d="M421 460q54 -74 54 -195q0 -135 -63 -205.5t-158 -70.5q-67 0 -120 35l-44 -66l-56 36l51 78q-53 75 -53 193q0 136 63 206t159 70q67 0 117 -34l46 67l55 -36zM154 169l164 253q-25 25 -64 25q-54 0 -82.5 -47.5t-28.5 -134.5q0 -52 11 -96zM352 362l-166 -253
q26 -29 68 -29q54 0 82 48t28 137q0 57 -12 97z" />
    <glyph glyph-name="ugrave" unicode="&#xf9;" 
d="M183 -11q-62 0 -96 38t-34 111v392h114v-368q0 -40 14.5 -58t48.5 -18q52 0 116 62v382h114v-530h-114v69q-70 -80 -163 -80zM246 585l-122 161h120l80 -161h-78z" />
    <glyph glyph-name="uacute" unicode="&#xfa;" 
d="M183 -11q-62 0 -96 38t-34 111v392h114v-368q0 -40 14.5 -58t48.5 -18q52 0 116 62v382h114v-530h-114v69q-70 -80 -163 -80zM193 585l81 161h119l-122 -161h-78z" />
    <glyph glyph-name="ucircumflex" unicode="&#xfb;" 
d="M183 -11q-62 0 -96 38t-34 111v392h114v-368q0 -40 14.5 -58t48.5 -18q52 0 116 62v382h114v-530h-114v69q-70 -80 -163 -80zM108 584l110 162h78l110 -162h-68l-81 79l-81 -79h-68z" />
    <glyph glyph-name="udieresis" unicode="&#xfc;" 
d="M183 -11q-62 0 -96 38t-34 111v392h114v-368q0 -40 14.5 -58t48.5 -18q52 0 116 62v382h114v-530h-114v69q-70 -80 -163 -80zM294 583v114h102v-114h-102zM119 583v114h103v-114h-103z" />
    <glyph glyph-name="yacute" unicode="&#xfd;" horiz-adv-x="468" 
d="M103 -202q-60 0 -104 14l22 90q39 -9 71 -9q29 0 44.5 15t27.5 51l11 35l-166 536h118l66 -241q27 -97 40 -162h2q18 76 42 167l66 236h110l-184 -585q-25 -78 -61 -112.5t-105 -34.5zM169 585l81 161h119l-122 -161h-78z" />
    <glyph glyph-name="thorn" unicode="&#xfe;" horiz-adv-x="521" 
d="M57 -200v940h114v-275q59 76 142 76q81 0 128.5 -69t47.5 -206t-50 -205.5t-133 -68.5q-82 0 -135 67v-259h-114zM275 85q99 0 99 180q0 179 -100 179q-25 0 -55 -19t-48 -41v-242q46 -57 104 -57z" />
    <glyph glyph-name="ydieresis" unicode="&#xff;" horiz-adv-x="468" 
d="M103 -202q-60 0 -104 14l22 90q39 -9 71 -9q29 0 44.5 15t27.5 51l11 35l-166 536h118l66 -241q27 -97 40 -162h2q18 76 42 167l66 236h110l-184 -585q-25 -78 -61 -112.5t-105 -34.5zM271 583v114h102v-114h-102zM96 583v114h103v-114h-103z" />
    <glyph glyph-name="Amacron" unicode="&#x100;" horiz-adv-x="583" 
d="M178 177l-49 -177h-110l216 743h113l216 -743h-118l-48 177h-220zM370 280l-24 90q-44 158 -56 215h-2q-12 -55 -57 -214l-25 -91h164zM152 799v88h280v-88h-280z" />
    <glyph glyph-name="amacron" unicode="&#x101;" horiz-adv-x="484" 
d="M156 -6q-58 0 -93 35.5t-35 100.5q0 166 291 221v23q0 37 -15.5 53t-50.5 16q-80 0 -150 -61l-57 70q96 89 221 89q163 0 163 -167v-244q0 -91 13 -130h-113q-11 37 -11 67q-57 -73 -163 -73zM201 84q67 0 118 55v134q-180 -39 -180 -124q0 -65 62 -65zM108 597v88h280
v-88h-280z" />
    <glyph glyph-name="Abreve" unicode="&#x102;" horiz-adv-x="583" 
d="M178 177l-49 -177h-110l216 743h113l216 -743h-118l-48 177h-220zM370 280l-24 90q-44 158 -56 215h-2q-12 -55 -57 -214l-25 -91h164zM292 779q-68 0 -103.5 45.5t-39.5 125.5h67q10 -95 76 -95t75 95h67q-4 -80 -39.5 -125.5t-102.5 -45.5z" />
    <glyph glyph-name="abreve" unicode="&#x103;" horiz-adv-x="484" 
d="M156 -6q-58 0 -93 35.5t-35 100.5q0 166 291 221v23q0 37 -15.5 53t-50.5 16q-80 0 -150 -61l-57 70q96 89 221 89q163 0 163 -167v-244q0 -91 13 -130h-113q-11 37 -11 67q-57 -73 -163 -73zM201 84q67 0 118 55v134q-180 -39 -180 -124q0 -65 62 -65zM243 579
q-68 0 -103.5 45.5t-39.5 125.5h67q9 -95 76 -95q65 0 75 95h67q-4 -80 -39.5 -125.5t-102.5 -45.5z" />
    <glyph glyph-name="Aogonek" unicode="&#x104;" horiz-adv-x="583" 
d="M398 177h-220l-49 -177h-110l216 743h113l216 -743h-27q-83 -36 -83 -92q0 -43 42 -43q33 0 74 25l27 -37q-59 -44 -127 -44q-45 0 -69.5 21.5t-24.5 57.5q0 62 70 112zM370 280l-24 90q-44 158 -56 215h-2q-12 -55 -57 -214l-25 -91h164z" />
    <glyph glyph-name="aogonek" unicode="&#x105;" horiz-adv-x="484" 
d="M201 84q67 0 118 55v134q-180 -39 -180 -124q0 -65 62 -65zM435 0q-37 0 -68.5 -28t-31.5 -64q0 -43 42 -43q35 0 74 25l28 -37q-61 -44 -128 -44q-45 0 -69.5 21.5t-24.5 57.5q0 60 73 112q-11 37 -11 67q-57 -73 -163 -73q-58 0 -93 35.5t-35 100.5q0 166 291 221v23
q0 37 -15.5 53t-50.5 16q-80 0 -150 -61l-57 70q96 89 221 89q163 0 163 -167v-244q0 -91 13 -130h-8z" />
    <glyph glyph-name="Cacute" unicode="&#x106;" horiz-adv-x="596" 
d="M313 -13q-128 0 -201 97t-73 287q0 187 74.5 285t201.5 98q107 0 164 -63.5t76 -180.5l-110 -20q-15 81 -45.5 117.5t-87.5 36.5q-76 0 -115.5 -69.5t-39.5 -202.5q0 -279 157 -279q59 0 91 37.5t49 126.5l109 -18q-49 -252 -250 -252zM240 788l81 161h119l-122 -161h-78
z" />
    <glyph glyph-name="cacute" unicode="&#x107;" horiz-adv-x="468" 
d="M246 -11q-92 0 -153 70.5t-61 205.5q0 138 63.5 207t155.5 69q83 0 126.5 -44t64.5 -122l-102 -25q-13 49 -33.5 71.5t-57.5 22.5q-47 0 -75 -43.5t-28 -135.5q0 -182 103 -182q37 0 60.5 22.5t35.5 75.5l99 -25q-44 -167 -198 -167zM172 585l81 161h119l-122 -161h-78z
" />
    <glyph glyph-name="Ccircumflex" unicode="&#x108;" horiz-adv-x="596" 
d="M161 784l110 162h78l110 -162h-68l-81 79l-81 -79h-68zM313 -13q-128 0 -201 97t-73 287q0 187 74.5 285t201.5 98q107 0 164 -63.5t76 -180.5l-110 -20q-15 81 -45.5 117.5t-87.5 36.5q-76 0 -115.5 -69.5t-39.5 -202.5q0 -279 157 -279q59 0 91 37.5t49 126.5l109 -18
q-49 -252 -250 -252z" />
    <glyph glyph-name="ccircumflex" unicode="&#x109;" horiz-adv-x="468" 
d="M94 584l110 162h78l110 -162h-68l-81 79l-81 -79h-68zM246 -11q-92 0 -153 70.5t-61 205.5q0 138 63.5 207t155.5 69q83 0 126.5 -44t64.5 -122l-102 -25q-13 49 -33.5 71.5t-57.5 22.5q-47 0 -75 -43.5t-28 -135.5q0 -182 103 -182q37 0 60.5 22.5t35.5 75.5l99 -25
q-44 -167 -198 -167z" />
    <glyph glyph-name="Cdotaccent" unicode="&#x10a;" horiz-adv-x="596" 
d="M313 -13q-128 0 -201 97t-73 287q0 187 74.5 285t201.5 98q107 0 164 -63.5t76 -180.5l-110 -20q-15 81 -45.5 117.5t-87.5 36.5q-76 0 -115.5 -69.5t-39.5 -202.5q0 -279 157 -279q59 0 91 37.5t49 126.5l109 -18q-49 -252 -250 -252zM246 786v108h122v-108h-122z" />
    <glyph glyph-name="cdotaccent" unicode="&#x10b;" horiz-adv-x="468" 
d="M246 -11q-92 0 -153 70.5t-61 205.5q0 138 63.5 207t155.5 69q83 0 126.5 -44t64.5 -122l-102 -25q-13 49 -33.5 71.5t-57.5 22.5q-47 0 -75 -43.5t-28 -135.5q0 -182 103 -182q37 0 60.5 22.5t35.5 75.5l99 -25q-44 -167 -198 -167zM183 584v108h122v-108h-122z" />
    <glyph glyph-name="Ccaron" unicode="&#x10c;" horiz-adv-x="596" 
d="M313 -13q-128 0 -201 97t-73 287q0 187 74.5 285t201.5 98q107 0 164 -63.5t76 -180.5l-110 -20q-15 81 -45.5 117.5t-87.5 36.5q-76 0 -115.5 -69.5t-39.5 -202.5q0 -279 157 -279q59 0 91 37.5t49 126.5l109 -18q-49 -252 -250 -252zM264 786l-110 162h69l81 -80l81 80
h67l-110 -162h-78z" />
    <glyph glyph-name="ccaron" unicode="&#x10d;" horiz-adv-x="468" 
d="M246 -11q-92 0 -153 70.5t-61 205.5q0 138 63.5 207t155.5 69q83 0 126.5 -44t64.5 -122l-102 -25q-13 49 -33.5 71.5t-57.5 22.5q-47 0 -75 -43.5t-28 -135.5q0 -182 103 -182q37 0 60.5 22.5t35.5 75.5l99 -25q-44 -167 -198 -167zM197 586l-110 162h69l81 -80l81 80
h67l-110 -162h-78z" />
    <glyph glyph-name="Dcaron" unicode="&#x10e;" horiz-adv-x="613" 
d="M69 0v740h178q159 0 243 -86t84 -282q0 -198 -84.5 -285t-242.5 -87h-178zM187 105h73q104 0 149.5 61t45.5 206q0 140 -45.5 200t-150.5 60h-72v-527zM254 784l-110 162h69l81 -80l81 80h67l-110 -162h-78z" />
    <glyph glyph-name="dcaron" unicode="&#x10f;" horiz-adv-x="621" 
d="M209 -8q-81 0 -128.5 68t-47.5 205t50.5 206.5t132.5 69.5t135 -67v266h114v-610q0 -95 13 -130h-117q-10 27 -10 69q-60 -77 -142 -77zM248 85q25 0 55 19t48 41v242q-46 57 -104 57q-99 0 -99 -182q0 -177 100 -177zM530 500l35 112h-44v128h120v-119l-57 -121h-54z
" />
    <glyph glyph-name="Dcroat" unicode="&#x110;" horiz-adv-x="613" 
d="M69 340h-58v93h58v307h178q159 0 243 -86t84 -282q0 -198 -84.5 -285t-242.5 -87h-178v340zM187 433h121v-93h-121v-235h73q104 0 149.5 61t45.5 206q0 140 -45.5 200t-150.5 60h-72v-199z" />
    <glyph glyph-name="dcroat" unicode="&#x111;" horiz-adv-x="521" 
d="M351 582h-96v87h96v71h114v-71h51v-87h-51v-452q0 -95 13 -130h-117q-10 27 -10 69q-60 -77 -142 -77q-81 0 -128.5 68t-47.5 205t50.5 206.5t132.5 69.5t135 -67v108zM248 85q25 0 55 19t48 41v242q-46 57 -104 57q-99 0 -99 -182q0 -177 100 -177z" />
    <glyph glyph-name="Emacron" unicode="&#x112;" 
d="M69 0v740h401v-109h-283v-190h205v-106h-205v-229h298v-106h-416zM127 799v88h280v-88h-280z" />
    <glyph glyph-name="emacron" unicode="&#x113;" horiz-adv-x="482" 
d="M251 -11q-97 0 -158 69.5t-61 206.5q0 138 63.5 207t153.5 69q93 0 147 -70t54 -209v-31h-306q4 -74 33 -111.5t79 -37.5q40 0 67 17.5t54 54.5l72 -52q-31 -50 -83.5 -81.5t-114.5 -31.5zM145 311h199q-8 135 -96 135q-41 0 -69 -32.5t-34 -102.5zM102 597v88h280v-88
h-280z" />
    <glyph glyph-name="Ebreve" unicode="&#x114;" 
d="M69 0v740h401v-109h-283v-190h205v-106h-205v-229h298v-106h-416zM272 780q-68 0 -103.5 45.5t-39.5 125.5h67q10 -95 76 -95t75 95h67q-4 -80 -39.5 -125.5t-102.5 -45.5z" />
    <glyph glyph-name="ebreve" unicode="&#x115;" horiz-adv-x="482" 
d="M251 -11q-97 0 -158 69.5t-61 206.5q0 138 63.5 207t153.5 69q93 0 147 -70t54 -209v-31h-306q4 -74 33 -111.5t79 -37.5q40 0 67 17.5t54 54.5l72 -52q-31 -50 -83.5 -81.5t-114.5 -31.5zM145 311h199q-8 135 -96 135q-41 0 -69 -32.5t-34 -102.5zM247 579
q-68 0 -103.5 45.5t-39.5 125.5h67q9 -95 76 -95q65 0 75 95h67q-4 -80 -39.5 -125.5t-102.5 -45.5z" />
    <glyph glyph-name="Edotaccent" unicode="&#x116;" 
d="M69 0v740h401v-109h-283v-190h205v-106h-205v-229h298v-106h-416zM212 787v108h122v-108h-122z" />
    <glyph glyph-name="edotaccent" unicode="&#x117;" horiz-adv-x="482" 
d="M251 -11q-97 0 -158 69.5t-61 206.5q0 138 63.5 207t153.5 69q93 0 147 -70t54 -209v-31h-306q4 -74 33 -111.5t79 -37.5q40 0 67 17.5t54 54.5l72 -52q-31 -50 -83.5 -81.5t-114.5 -31.5zM145 311h199q-8 135 -96 135q-41 0 -69 -32.5t-34 -102.5zM180 584v108h122v-108
h-122z" />
    <glyph glyph-name="Eogonek" unicode="&#x118;" 
d="M333 0h-264v740h401v-109h-283v-190h205v-106h-205v-229h298v-106h-36q-38 0 -73 -24.5t-35 -67.5t42 -43q34 0 75 25l27 -37q-61 -44 -127 -44q-46 0 -70.5 21.5t-24.5 57.5q0 60 70 112z" />
    <glyph glyph-name="eogonek" unicode="&#x119;" horiz-adv-x="482" 
d="M351 6q-60 -44 -60 -98q0 -43 42 -43q33 0 74 25l27 -37q-59 -44 -127 -44q-45 0 -69.5 21.5t-24.5 57.5q0 53 59 103q-7 -2 -21 -2q-97 0 -158 69.5t-61 206.5q0 138 63.5 207t153.5 69q93 0 147 -70t54 -209v-31h-306q4 -74 33 -111.5t79 -37.5q40 0 67 17.5t54 54.5
l72 -52q-11 -18 -24.5 -33.5t-20 -21.5t-28 -22t-25.5 -19zM145 311h199q-8 135 -96 135q-41 0 -69 -32.5t-34 -102.5z" />
    <glyph glyph-name="Ecaron" unicode="&#x11a;" 
d="M69 0v740h401v-109h-283v-190h205v-106h-205v-229h298v-106h-416zM233 784l-110 162h69l81 -80l81 80h67l-110 -162h-78z" />
    <glyph glyph-name="ecaron" unicode="&#x11b;" horiz-adv-x="482" 
d="M251 -11q-97 0 -158 69.5t-61 206.5q0 138 63.5 207t153.5 69q93 0 147 -70t54 -209v-31h-306q4 -74 33 -111.5t79 -37.5q40 0 67 17.5t54 54.5l72 -52q-31 -50 -83.5 -81.5t-114.5 -31.5zM145 311h199q-8 135 -96 135q-41 0 -69 -32.5t-34 -102.5zM202 586l-110 162h69
l81 -80l81 80h67l-110 -162h-78z" />
    <glyph glyph-name="Gcircumflex" unicode="&#x11c;" horiz-adv-x="623" 
d="M156 784l110 162h78l110 -162h-68l-81 79l-81 -79h-68zM302 -13q-126 0 -194.5 101t-68.5 284q0 182 72.5 282t203.5 100q101 0 158.5 -60.5t80.5 -183.5l-107 -22q-17 85 -48.5 121t-86.5 36q-72 0 -113.5 -65t-41.5 -206q0 -281 160 -281q130 0 140 175h-124v98h230
v-366h-89v98h-2q-17 -45 -61.5 -78t-108.5 -33z" />
    <glyph glyph-name="gcircumflex" unicode="&#x11d;" horiz-adv-x="509" 
d="M378 488q46 43 111 52v-99q-39 0 -76 -11q17 -36 17 -81q0 -87 -52.5 -138.5t-141.5 -51.5q-40 0 -70 10q-21 -13 -21 -33q0 -15 11 -21t43 -10l75 -8q109 -10 154.5 -42.5t45.5 -98.5q0 -73 -69 -114.5t-180 -41.5q-115 0 -166 31t-51 91q0 73 83 113q-43 25 -43 67
q0 53 63 93q-73 53 -73 154q0 86 54 139t143 53q92 0 143 -53zM237 238q43 0 65.5 28.5t22.5 80.5q0 109 -89 109q-43 0 -66.5 -29t-23.5 -80q0 -52 24 -80.5t67 -28.5zM159 15q-47 -28 -47 -74q0 -37 29 -52t100 -15q59 0 94.5 16.5t35.5 48.5q0 30 -23.5 45t-91.5 21
l-83 8zM93 584l110 162h78l110 -162h-68l-81 79l-81 -79h-68z" />
    <glyph glyph-name="Gbreve" unicode="&#x11e;" horiz-adv-x="623" 
d="M302 -13q-126 0 -194.5 101t-68.5 284q0 182 72.5 282t203.5 100q101 0 158.5 -60.5t80.5 -183.5l-107 -22q-17 85 -48.5 121t-86.5 36q-72 0 -113.5 -65t-41.5 -206q0 -281 160 -281q130 0 140 175h-124v98h230v-366h-89v98h-2q-17 -45 -61.5 -78t-108.5 -33zM310 781
q-68 0 -103.5 45.5t-39.5 125.5h67q10 -95 76 -95t75 95h67q-4 -80 -39.5 -125.5t-102.5 -45.5z" />
    <glyph glyph-name="gbreve" unicode="&#x11f;" horiz-adv-x="509" 
d="M378 488q46 43 111 52v-99q-39 0 -76 -11q17 -36 17 -81q0 -87 -52.5 -138.5t-141.5 -51.5q-40 0 -70 10q-21 -13 -21 -33q0 -15 11 -21t43 -10l75 -8q109 -10 154.5 -42.5t45.5 -98.5q0 -73 -69 -114.5t-180 -41.5q-115 0 -166 31t-51 91q0 73 83 113q-43 25 -43 67
q0 53 63 93q-73 53 -73 154q0 86 54 139t143 53q92 0 143 -53zM237 238q43 0 65.5 28.5t22.5 80.5q0 109 -89 109q-43 0 -66.5 -29t-23.5 -80q0 -52 24 -80.5t67 -28.5zM159 15q-47 -28 -47 -74q0 -37 29 -52t100 -15q59 0 94.5 16.5t35.5 48.5q0 30 -23.5 45t-91.5 21
l-83 8zM247 579q-68 0 -103.5 45.5t-39.5 125.5h67q9 -95 76 -95q65 0 75 95h67q-4 -80 -39.5 -125.5t-102.5 -45.5z" />
    <glyph glyph-name="Gdotaccent" unicode="&#x120;" horiz-adv-x="623" 
d="M302 -13q-126 0 -194.5 101t-68.5 284q0 182 72.5 282t203.5 100q101 0 158.5 -60.5t80.5 -183.5l-107 -22q-17 85 -48.5 121t-86.5 36q-72 0 -113.5 -65t-41.5 -206q0 -281 160 -281q130 0 140 175h-124v98h230v-366h-89v98h-2q-17 -45 -61.5 -78t-108.5 -33zM247 786
v108h122v-108h-122z" />
    <glyph glyph-name="gdotaccent" unicode="&#x121;" horiz-adv-x="509" 
d="M378 488q46 43 111 52v-99q-39 0 -76 -11q17 -36 17 -81q0 -87 -52.5 -138.5t-141.5 -51.5q-40 0 -70 10q-21 -13 -21 -33q0 -15 11 -21t43 -10l75 -8q109 -10 154.5 -42.5t45.5 -98.5q0 -73 -69 -114.5t-180 -41.5q-115 0 -166 31t-51 91q0 73 83 113q-43 25 -43 67
q0 53 63 93q-73 53 -73 154q0 86 54 139t143 53q92 0 143 -53zM237 238q43 0 65.5 28.5t22.5 80.5q0 109 -89 109q-43 0 -66.5 -29t-23.5 -80q0 -52 24 -80.5t67 -28.5zM159 15q-47 -28 -47 -74q0 -37 29 -52t100 -15q59 0 94.5 16.5t35.5 48.5q0 30 -23.5 45t-91.5 21
l-83 8zM180 584v108h122v-108h-122z" />
    <glyph glyph-name="Gcommaaccent" unicode="&#x122;" horiz-adv-x="623" 
d="M277 -278l34 102h-47v124h119v-111l-53 -115h-53zM302 -13q-126 0 -194.5 101t-68.5 284q0 182 72.5 282t203.5 100q101 0 158.5 -60.5t80.5 -183.5l-107 -22q-17 85 -48.5 121t-86.5 36q-72 0 -113.5 -65t-41.5 -206q0 -281 160 -281q130 0 140 175h-124v98h230v-366
h-89v98h-2q-17 -45 -61.5 -78t-108.5 -33z" />
    <glyph glyph-name="gcommaaccent" unicode="&#x123;" horiz-adv-x="509" 
d="M378 488q46 43 111 52v-99q-39 0 -76 -11q17 -36 17 -81q0 -87 -52.5 -138.5t-141.5 -51.5q-40 0 -70 10q-21 -13 -21 -33q0 -15 11 -21t43 -10l75 -8q109 -10 154.5 -42.5t45.5 -98.5q0 -73 -69 -114.5t-180 -41.5q-115 0 -166 31t-51 91q0 73 83 113q-43 25 -43 67
q0 53 63 93q-73 53 -73 154q0 86 54 139t143 53q92 0 143 -53zM237 238q43 0 65.5 28.5t22.5 80.5q0 109 -89 109q-43 0 -66.5 -29t-23.5 -80q0 -52 24 -80.5t67 -28.5zM159 15q-47 -28 -47 -74q0 -37 29 -52t100 -15q59 0 94.5 16.5t35.5 48.5q0 30 -23.5 45t-91.5 21
l-83 8zM282 798l-32 -96h44v-115h-110v103l50 108h48z" />
    <glyph glyph-name="Hcircumflex" unicode="&#x124;" horiz-adv-x="634" 
d="M167 784l110 162h78l110 -162h-68l-81 79l-81 -79h-68zM69 0v740h118v-297h260v297h118v-740h-118v334h-260v-334h-118z" />
    <glyph glyph-name="hcircumflex" unicode="&#x125;" 
d="M-33 784l110 162h78l110 -162h-68l-81 79l-81 -79h-68zM57 0v740h114v-279q27 33 70 56.5t93 23.5q62 0 96 -38t34 -111v-392h-114v366q0 40 -14.5 58.5t-46.5 18.5q-56 0 -118 -62v-381h-114z" />
    <glyph glyph-name="Hbar" unicode="&#x126;" horiz-adv-x="634" 
d="M7 542v98h62v100h118v-100h260v100h118v-100h62v-98h-62v-542h-118v340h-260v-340h-118v542h-62zM187 438h260v104h-260v-104z" />
    <glyph glyph-name="hbar" unicode="&#x127;" 
d="M57 0v582h-51v87h51v71h114v-71h96v-87h-96v-121q27 33 70 56.5t93 23.5q62 0 96 -38t34 -111v-392h-114v366q0 40 -14.5 58.5t-46.5 18.5q-56 0 -118 -62v-381h-114z" />
    <glyph glyph-name="Itilde" unicode="&#x128;" horiz-adv-x="267" 
d="M74 0v740h118v-740h-118zM203 776q-33 0 -74 28t-56 28q-35 0 -35 -54h-64q0 139 95 139q32 0 73 -28t57 -28q35 0 35 54h62q0 -139 -93 -139z" />
    <glyph glyph-name="itilde" unicode="&#x129;" horiz-adv-x="239" 
d="M62 0v530h114v-530h-114zM188 576q-33 0 -74 28t-56 28q-35 0 -35 -54h-64q0 139 95 139q32 0 73 -28t57 -28q35 0 35 54h62q0 -139 -93 -139z" />
    <glyph glyph-name="Imacron" unicode="&#x12a;" horiz-adv-x="267" 
d="M74 0v740h118v-740h-118zM-7 799v88h280v-88h-280z" />
    <glyph glyph-name="imacron" unicode="&#x12b;" horiz-adv-x="239" 
d="M62 0v530h114v-530h-114zM-21 597v88h280v-88h-280z" />
    <glyph glyph-name="Ibreve" unicode="&#x12c;" horiz-adv-x="267" 
d="M74 0v740h118v-740h-118zM134 781q-68 0 -103.5 45.5t-39.5 125.5h67q10 -95 76 -95t75 95h67q-4 -80 -39.5 -125.5t-102.5 -45.5z" />
    <glyph glyph-name="ibreve" unicode="&#x12d;" horiz-adv-x="239" 
d="M62 0v530h114v-530h-114zM120 579q-68 0 -103.5 45.5t-39.5 125.5h67q10 -95 76 -95t75 95h67q-4 -80 -39.5 -125.5t-102.5 -45.5z" />
    <glyph glyph-name="Iogonek" unicode="&#x12e;" horiz-adv-x="267" 
d="M192 740v-740l-19 -4q-30 -10 -51.5 -34t-21.5 -54q0 -43 42 -43q33 0 74 25l27 -37q-59 -44 -127 -44q-45 0 -69.5 21.5t-24.5 57.5q0 60 70 112h-18v740h118z" />
    <glyph glyph-name="iogonek" unicode="&#x12f;" horiz-adv-x="239" 
d="M62 617v107h115v-107h-115zM62 0v530h114v-530q-5 0 -8 -1q-34 -7 -56 -31q-27 -25 -27 -60q0 -43 42 -43q33 0 74 25l27 -37q-59 -44 -127 -44q-45 0 -69.5 21.5t-24.5 57.5q0 29 20 59.5t51 52.5h-16z" />
    <glyph glyph-name="Idotaccent" unicode="&#x130;" horiz-adv-x="267" 
d="M74 0v740h118v-740h-118zM72 784v108h122v-108h-122z" />
    <glyph glyph-name="dotlessi" unicode="&#x131;" horiz-adv-x="239" 
d="M62 0v530h114v-530h-114z" />
    <glyph glyph-name="IJ" unicode="&#x132;" horiz-adv-x="710" 
d="M74 0v740h118v-740h-118zM462 -11q-103 0 -182 57l50 86q60 -42 120 -42q81 0 81 93v557h118v-564q0 -90 -48.5 -138.5t-138.5 -48.5z" />
    <glyph glyph-name="ij" unicode="&#x133;" horiz-adv-x="477" 
d="M62 617v107h115v-107h-115zM62 0v530h114v-530h-114zM300 617v107h115v-107h-115zM280 -201q-47 0 -59 4v86q9 -3 32 -3q47 0 47 59v585h114v-596q0 -67 -29 -101t-105 -34z" />
    <glyph glyph-name="Jcircumflex" unicode="&#x134;" horiz-adv-x="444" 
d="M176 784l110 162h78l110 -162h-68l-81 79l-81 -79h-68zM196 -11q-103 0 -182 57l50 86q60 -42 120 -42q81 0 81 93v557h118v-564q0 -90 -48.5 -138.5t-138.5 -48.5z" />
    <glyph glyph-name="jcircumflex" unicode="&#x135;" horiz-adv-x="239" 
d="M42 -201q-41 0 -59 3v84q18 -3 32 -3q48 0 48 59v588h113v-596q0 -68 -29 -101.5t-105 -33.5zM-30 584l111 162h77l110 -162h-68l-81 80l-81 -80h-68z" />
    <glyph glyph-name="Kcommaaccent" unicode="&#x136;" horiz-adv-x="587" 
d="M269 -278l34 102h-47v124h119v-111l-53 -115h-53zM69 0v740h117v-355q18 33 70 110l165 245h126l-202 -289l230 -451h-127l-178 351l-84 -115v-236h-117z" />
    <glyph glyph-name="kcommaaccent" unicode="&#x137;" horiz-adv-x="479" 
d="M218 -278l34 102h-47v124h119v-111l-53 -115h-53zM57 0v740h113v-453q11 23 61 94l102 149h116l-141 -195l156 -335h-116l-111 242l-67 -90v-152h-113z" />
    <glyph glyph-name="kgreenlandic" unicode="&#x138;" horiz-adv-x="479" 
d="M57 0v530h113v-243q11 23 61 94l102 149h116l-141 -195l156 -335h-116l-111 242l-67 -90v-152h-113z" />
    <glyph glyph-name="Lacute" unicode="&#x139;" horiz-adv-x="498" 
d="M69 0v740h118v-634h285v-106h-403zM85 785l81 161h119l-122 -161h-78z" />
    <glyph glyph-name="lacute" unicode="&#x13a;" horiz-adv-x="239" 
d="M62 0v740h114v-740h-114zM72 785l81 161h119l-122 -161h-78z" />
    <glyph glyph-name="Lcommaaccent" unicode="&#x13b;" horiz-adv-x="498" 
d="M228 -278l34 102h-47v124h119v-111l-53 -115h-53zM69 0v740h118v-634h285v-106h-403z" />
    <glyph glyph-name="lcommaaccent" unicode="&#x13c;" horiz-adv-x="239" 
d="M79 -279l34 102h-47v124h119v-111l-53 -115h-53zM62 0v740h114v-740h-114z" />
    <glyph glyph-name="Lcaron" unicode="&#x13d;" horiz-adv-x="498" 
d="M69 0v740h118v-634h285v-106h-403zM341 500l35 112h-44v128h120v-119l-57 -121h-54z" />
    <glyph glyph-name="lcaron" unicode="&#x13e;" horiz-adv-x="339" 
d="M62 0v740h114v-740h-114zM248 500l35 112h-44v128h120v-119l-57 -121h-54z" />
    <glyph glyph-name="Ldot" unicode="&#x13f;" horiz-adv-x="544" 
d="M69 0v740h118v-634h285v-106h-403zM332 342v129h135v-129h-135z" />
    <glyph glyph-name="ldot" unicode="&#x140;" horiz-adv-x="397" 
d="M62 0v740h114v-740h-114zM254 267v123h128v-123h-128z" />
    <glyph glyph-name="Lslash" unicode="&#x141;" horiz-adv-x="498" 
d="M69 0v309l-58 -23v93l58 24v337h118v-297l109 48v-95l-109 -46v-244h285v-106h-403z" />
    <glyph glyph-name="lslash" unicode="&#x142;" horiz-adv-x="280" 
d="M83 0v291l-62 -26v90l62 27v358h114v-321l61 27v-90l-61 -27v-329h-114z" />
    <glyph glyph-name="Nacute" unicode="&#x143;" horiz-adv-x="639" 
d="M69 0v740h127l201 -393q29 -57 63 -129h2v522h107v-740h-109l-220 418q-44 87 -62 125h-2v-543h-107zM272 783l81 161h119l-122 -161h-78z" />
    <glyph glyph-name="nacute" unicode="&#x144;" 
d="M57 0v530h114v-69q27 33 70 56.5t93 23.5q62 0 96 -38t34 -111v-392h-114v366q0 40 -14.5 58.5t-46.5 18.5q-56 0 -118 -62v-381h-114zM187 585l81 161h119l-122 -161h-78z" />
    <glyph glyph-name="Ncommaaccent" unicode="&#x145;" horiz-adv-x="639" 
d="M271 -283l34 102h-47v124h119v-111l-53 -115h-53zM69 0v740h127l201 -393q29 -57 63 -129h2v522h107v-740h-109l-220 418q-44 87 -62 125h-2v-543h-107z" />
    <glyph glyph-name="ncommaaccent" unicode="&#x146;" 
d="M219 -279l34 102h-47v124h119v-111l-53 -115h-53zM57 0v530h114v-69q27 33 70 56.5t93 23.5q62 0 96 -38t34 -111v-392h-114v366q0 40 -14.5 58.5t-46.5 18.5q-56 0 -118 -62v-381h-114z" />
    <glyph glyph-name="Ncaron" unicode="&#x147;" horiz-adv-x="639" 
d="M69 0v740h127l201 -393q29 -57 63 -129h2v522h107v-740h-109l-220 418q-44 87 -62 125h-2v-543h-107zM291 784l-110 162h69l81 -80l81 80h67l-110 -162h-78z" />
    <glyph glyph-name="ncaron" unicode="&#x148;" 
d="M57 0v530h114v-69q27 33 70 56.5t93 23.5q62 0 96 -38t34 -111v-392h-114v366q0 40 -14.5 58.5t-46.5 18.5q-56 0 -118 -62v-381h-114zM226 586l-110 162h69l81 -80l81 80h67l-110 -162h-78z" />
    <glyph glyph-name="napostrophe" unicode="&#x149;" horiz-adv-x="717" 
d="M70 500l35 112h-44v128h120v-119l-57 -121h-54zM257 0v530h114v-69q27 33 70 56.5t93 23.5q62 0 96 -38t34 -111v-392h-114v366q0 40 -14.5 58.5t-46.5 18.5q-56 0 -118 -62v-381h-114z" />
    <glyph glyph-name="Eng" unicode="&#x14a;" horiz-adv-x="639" 
d="M382 -201q-103 0 -182 57l50 85q62 -41 120 -41q38 0 62 21t26 63v18l-218 416q-37 70 -62 125h-2v-543h-107v740h127l202 -394q37 -69 62 -128h2v522h107v-755q0 -89 -48.5 -137.5t-138.5 -48.5z" />
    <glyph glyph-name="eng" unicode="&#x14b;" 
d="M330 -201q-47 0 -59 4v86q9 -3 32 -3q47 0 47 59v421q0 40 -14.5 58.5t-46.5 18.5q-56 0 -118 -62v-381h-114v530h114v-69q27 33 70 56.5t93 23.5q62 0 96 -38t34 -111v-458q0 -67 -29 -101t-105 -34z" />
    <glyph glyph-name="Omacron" unicode="&#x14c;" horiz-adv-x="639" 
d="M320 -14q-124 0 -202.5 99t-78.5 285t78.5 285t202.5 99q123 0 201.5 -99t78.5 -285t-78.5 -285t-201.5 -99zM320 93q77 0 119 71.5t42 205.5t-42 204.5t-119 70.5q-78 0 -120.5 -70.5t-42.5 -204.5t42.5 -205.5t120.5 -71.5zM180 799v88h280v-88h-280z" />
    <glyph glyph-name="omacron" unicode="&#x14d;" horiz-adv-x="508" 
d="M254 -11q-96 0 -159 70.5t-63 205.5q0 136 63 206t159 70t158.5 -70t62.5 -206q0 -135 -63 -205.5t-158 -70.5zM254 82q107 0 107 183q0 180 -107 180q-108 0 -108 -180q0 -183 108 -183zM114 597v88h280v-88h-280z" />
    <glyph glyph-name="Obreve" unicode="&#x14e;" horiz-adv-x="639" 
d="M320 -14q-124 0 -202.5 99t-78.5 285t78.5 285t202.5 99q123 0 201.5 -99t78.5 -285t-78.5 -285t-201.5 -99zM320 93q77 0 119 71.5t42 205.5t-42 204.5t-119 70.5q-78 0 -120.5 -70.5t-42.5 -204.5t42.5 -205.5t120.5 -71.5zM321 781q-68 0 -103.5 45.5t-39.5 125.5h67
q9 -95 76 -95q65 0 75 95h67q-4 -80 -39.5 -125.5t-102.5 -45.5z" />
    <glyph glyph-name="obreve" unicode="&#x14f;" horiz-adv-x="508" 
d="M254 -11q-96 0 -159 70.5t-63 205.5q0 136 63 206t159 70t158.5 -70t62.5 -206q0 -135 -63 -205.5t-158 -70.5zM254 82q107 0 107 183q0 180 -107 180q-108 0 -108 -180q0 -183 108 -183zM253 579q-68 0 -103.5 45.5t-39.5 125.5h67q9 -95 76 -95q65 0 75 95h67
q-4 -80 -39.5 -125.5t-102.5 -45.5z" />
    <glyph glyph-name="Ohungarumlaut" unicode="&#x150;" horiz-adv-x="639" 
d="M320 -14q-124 0 -202.5 99t-78.5 285t78.5 285t202.5 99q123 0 201.5 -99t78.5 -285t-78.5 -285t-201.5 -99zM320 93q77 0 119 71.5t42 205.5t-42 204.5t-119 70.5q-78 0 -120.5 -70.5t-42.5 -204.5t42.5 -205.5t120.5 -71.5zM336 785l87 161h121l-130 -161h-78zM175 785
l83 161h122l-126 -161h-79z" />
    <glyph glyph-name="ohungarumlaut" unicode="&#x151;" horiz-adv-x="508" 
d="M254 -11q-96 0 -159 70.5t-63 205.5q0 136 63 206t159 70t158.5 -70t62.5 -206q0 -135 -63 -205.5t-158 -70.5zM254 82q107 0 107 183q0 180 -107 180q-108 0 -108 -180q0 -183 108 -183zM256 585l87 161h121l-130 -161h-78zM95 585l83 161h122l-126 -161h-79z" />
    <glyph glyph-name="OE" unicode="&#x152;" horiz-adv-x="929" 
d="M492 673v67h389v-109h-283v-191h206v-104h-206v-230h299v-106h-405v72q-57 -86 -172 -86q-124 0 -202.5 99t-78.5 285t78.5 285t202.5 99q112 0 172 -81zM320 93q77 0 119 71.5t42 205.5t-42 204.5t-119 70.5q-78 0 -120.5 -70.5t-42.5 -204.5t42.5 -205.5t120.5 -71.5z
" />
    <glyph glyph-name="oe" unicode="&#x153;" horiz-adv-x="807" 
d="M415 456q59 85 159 85q93 0 147.5 -70t54.5 -209v-31h-306q4 -74 33 -111.5t79 -37.5q40 0 67 17.5t54 54.5l72 -52q-71 -113 -199 -113q-105 0 -162 83q-57 -83 -160 -83q-96 0 -159 70.5t-63 205.5q0 136 63 206t159 70q106 0 161 -85zM471 311h199q-8 135 -96 135
q-41 0 -69 -32.5t-34 -102.5zM254 82q107 0 107 183q0 180 -107 180q-108 0 -108 -180q0 -183 108 -183z" />
    <glyph glyph-name="Racute" unicode="&#x154;" horiz-adv-x="582" 
d="M69 0v740h220q238 0 238 -224q0 -79 -35 -130.5t-93 -70.5l142 -315h-121l-132 289h-104v-289h-115zM184 389h100q67 0 98.5 28.5t31.5 96.5q0 65 -31.5 91.5t-98.5 26.5h-100v-243zM225 785l81 161h119l-122 -161h-78z" />
    <glyph glyph-name="racute" unicode="&#x155;" horiz-adv-x="357" 
d="M57 0v530h114v-82h2q21 38 61.5 65.5t96.5 27.5h10l-3 -105q-1 0 -11 0.5t-15 0.5q-90 0 -141 -84v-353h-114zM142 585l81 161h119l-122 -161h-78z" />
    <glyph glyph-name="Rcommaaccent" unicode="&#x156;" horiz-adv-x="582" 
d="M260 -278l34 102h-47v124h119v-111l-53 -115h-53zM69 0v740h220q238 0 238 -224q0 -79 -35 -130.5t-93 -70.5l142 -315h-121l-132 289h-104v-289h-115zM184 389h100q67 0 98.5 28.5t31.5 96.5q0 65 -31.5 91.5t-98.5 26.5h-100v-243z" />
    <glyph glyph-name="rcommaaccent" unicode="&#x157;" horiz-adv-x="357" 
d="M57 0v530h114v-82h2q21 38 61.5 65.5t96.5 27.5h10l-3 -105q-1 0 -11 0.5t-15 0.5q-90 0 -141 -84v-353h-114zM73 -278l34 102h-47v124h119v-111l-53 -115h-53z" />
    <glyph glyph-name="Rcaron" unicode="&#x158;" horiz-adv-x="582" 
d="M69 0v740h220q238 0 238 -224q0 -79 -35 -130.5t-93 -70.5l142 -315h-121l-132 289h-104v-289h-115zM184 389h100q67 0 98.5 28.5t31.5 96.5q0 65 -31.5 91.5t-98.5 26.5h-100v-243zM246 784l-110 162h69l81 -80l81 80h67l-110 -162h-78z" />
    <glyph glyph-name="rcaron" unicode="&#x159;" horiz-adv-x="357" 
d="M57 0v530h114v-82h2q21 38 61.5 65.5t96.5 27.5h10l-3 -105q-1 0 -11 0.5t-15 0.5q-90 0 -141 -84v-353h-114zM159 586l-110 162h69l81 -80l81 80h67l-110 -162h-78z" />
    <glyph glyph-name="Sacute" unicode="&#x15a;" horiz-adv-x="567" 
d="M292 -13q-181 0 -262 178l99 49q58 -124 163 -124q56 0 87.5 25t31.5 71q0 27 -10.5 48t-34 38t-42.5 27.5t-55 26.5q-98 45 -133 74q-75 60 -75 159q0 86 61.5 140.5t156.5 54.5q163 0 236 -161l-99 -51q-24 52 -56.5 80t-82.5 28q-46 0 -73 -23t-27 -63q0 -48 34 -77.5
t102 -61.5q33 -15 43 -19.5t40.5 -20.5t42 -26t33 -30t30.5 -38t16.5 -44.5t7.5 -56.5q0 -86 -63 -144.5t-171 -58.5zM203 785l81 161h119l-122 -161h-78z" />
    <glyph glyph-name="sacute" unicode="&#x15b;" horiz-adv-x="450" 
d="M225 -11q-139 0 -215 103l70 59q60 -74 147 -74t87 60q0 31 -28 51t-68 32.5t-80 28.5t-68 51.5t-28 89.5q0 70 51.5 110.5t130.5 40.5q56 0 105.5 -24t81.5 -66l-68 -62q-53 62 -120 62q-73 0 -73 -55q0 -26 20 -44.5t50 -27.5t65.5 -23t65.5 -29.5t50 -48.5t20 -79
q0 -72 -56.5 -113.5t-139.5 -41.5zM141 585l81 161h119l-122 -161h-78z" />
    <glyph glyph-name="Scircumflex" unicode="&#x15c;" horiz-adv-x="567" 
d="M128 784l110 162h78l110 -162h-68l-81 79l-81 -79h-68zM292 -13q-181 0 -262 178l99 49q58 -124 163 -124q56 0 87.5 25t31.5 71q0 27 -10.5 48t-34 38t-42.5 27.5t-55 26.5q-98 45 -133 74q-75 60 -75 159q0 86 61.5 140.5t156.5 54.5q163 0 236 -161l-99 -51
q-24 52 -56.5 80t-82.5 28q-46 0 -73 -23t-27 -63q0 -48 34 -77.5t102 -61.5q33 -15 43 -19.5t40.5 -20.5t42 -26t33 -30t30.5 -38t16.5 -44.5t7.5 -56.5q0 -86 -63 -144.5t-171 -58.5z" />
    <glyph glyph-name="scircumflex" unicode="&#x15d;" horiz-adv-x="450" 
d="M71 584l110 162h78l110 -162h-68l-81 79l-81 -79h-68zM225 -11q-139 0 -215 103l70 59q60 -74 147 -74t87 60q0 31 -28 51t-68 32.5t-80 28.5t-68 51.5t-28 89.5q0 70 51.5 110.5t130.5 40.5q56 0 105.5 -24t81.5 -66l-68 -62q-53 62 -120 62q-73 0 -73 -55
q0 -26 20 -44.5t50 -27.5t65.5 -23t65.5 -29.5t50 -48.5t20 -79q0 -72 -56.5 -113.5t-139.5 -41.5z" />
    <glyph glyph-name="Scedilla" unicode="&#x15e;" horiz-adv-x="567" 
d="M250 -278l34 102h-47v124h119v-111l-53 -115h-53zM292 -13q-181 0 -262 178l99 49q58 -124 163 -124q56 0 87.5 25t31.5 71q0 27 -10.5 48t-34 38t-42.5 27.5t-55 26.5q-98 45 -133 74q-75 60 -75 159q0 86 61.5 140.5t156.5 54.5q163 0 236 -161l-99 -51
q-24 52 -56.5 80t-82.5 28q-46 0 -73 -23t-27 -63q0 -48 34 -77.5t102 -61.5q33 -15 43 -19.5t40.5 -20.5t42 -26t33 -30t30.5 -38t16.5 -44.5t7.5 -56.5q0 -86 -63 -144.5t-171 -58.5z" />
    <glyph glyph-name="scedilla" unicode="&#x15f;" horiz-adv-x="450" 
d="M184 -278l34 102h-47v124h119v-111l-53 -115h-53zM225 -11q-139 0 -215 103l70 59q60 -74 147 -74t87 60q0 31 -28 51t-68 32.5t-80 28.5t-68 51.5t-28 89.5q0 70 51.5 110.5t130.5 40.5q56 0 105.5 -24t81.5 -66l-68 -62q-53 62 -120 62q-73 0 -73 -55q0 -26 20 -44.5
t50 -27.5t65.5 -23t65.5 -29.5t50 -48.5t20 -79q0 -72 -56.5 -113.5t-139.5 -41.5z" />
    <glyph glyph-name="Scaron" unicode="&#x160;" horiz-adv-x="567" 
d="M292 -13q-181 0 -262 178l99 49q58 -124 163 -124q56 0 87.5 25t31.5 71q0 27 -10.5 48t-34 38t-42.5 27.5t-55 26.5q-98 45 -133 74q-75 60 -75 159q0 86 61.5 140.5t156.5 54.5q163 0 236 -161l-99 -51q-24 52 -56.5 80t-82.5 28q-46 0 -73 -23t-27 -63q0 -48 34 -77.5
t102 -61.5q33 -15 43 -19.5t40.5 -20.5t42 -26t33 -30t30.5 -38t16.5 -44.5t7.5 -56.5q0 -86 -63 -144.5t-171 -58.5zM245 786l-110 162h69l81 -80l81 80h67l-110 -162h-78z" />
    <glyph glyph-name="scaron" unicode="&#x161;" horiz-adv-x="450" 
d="M225 -11q-139 0 -215 103l70 59q60 -74 147 -74t87 60q0 31 -28 51t-68 32.5t-80 28.5t-68 51.5t-28 89.5q0 70 51.5 110.5t130.5 40.5q56 0 105.5 -24t81.5 -66l-68 -62q-53 62 -120 62q-73 0 -73 -55q0 -26 20 -44.5t50 -27.5t65.5 -23t65.5 -29.5t50 -48.5t20 -79
q0 -72 -56.5 -113.5t-139.5 -41.5zM185 586l-110 162h69l81 -80l81 80h67l-110 -162h-78z" />
    <glyph glyph-name="Tcommaaccent" unicode="&#x162;" horiz-adv-x="528" 
d="M222 -262l31 97h-43v114h109v-103l-49 -108h-48zM205 0v631h-184v109h485v-109h-183v-631h-118z" />
    <glyph glyph-name="Tcommaaccent" unicode="&#x21a;" horiz-adv-x="528" 
d="M222 -262l31 97h-43v114h109v-103l-49 -108h-48zM205 0v631h-184v109h485v-109h-183v-631h-118z" />
    <glyph glyph-name="tcommaaccent" unicode="&#x163;" horiz-adv-x="346" 
d="M111 -262l31 97h-43v114h109v-103l-49 -108h-48zM238 -6q-83 0 -115 30.5t-32 101.5v313h-76v91h76v186h114v-186h115v-91h-115v-282q0 -42 14 -58t52 -16q27 0 45 6v-88q-19 -7 -78 -7z" />
    <glyph glyph-name="tcommaaccent" unicode="&#x21b;" horiz-adv-x="346" 
d="M111 -262l31 97h-43v114h109v-103l-49 -108h-48zM238 -6q-83 0 -115 30.5t-32 101.5v313h-76v91h76v186h114v-186h115v-91h-115v-282q0 -42 14 -58t52 -16q27 0 45 6v-88q-19 -7 -78 -7z" />
    <glyph glyph-name="Tcaron" unicode="&#x164;" horiz-adv-x="528" 
d="M205 0v631h-184v109h485v-109h-183v-631h-118zM225 786l-110 162h69l81 -80l81 80h67l-110 -162h-78z" />
    <glyph glyph-name="tcaron" unicode="&#x165;" horiz-adv-x="440" 
d="M238 -6q-83 0 -115 30.5t-32 101.5v313h-76v91h76v186h114v-186h115v-91h-115v-282q0 -42 14 -58t52 -16q27 0 45 6v-88q-19 -7 -78 -7zM349 500l35 112h-44v128h120v-119l-57 -121h-54z" />
    <glyph glyph-name="Tbar" unicode="&#x166;" horiz-adv-x="528" 
d="M22 303v100h183v237h-183v100h484v-100h-183v-237h183v-100h-183v-303h-118v303h-183z" />
    <glyph glyph-name="tbar" unicode="&#x167;" horiz-adv-x="346" 
d="M238 -6q-83 0 -115 30.5t-32 101.5v103h-76v91h76v119h-76v91h76v186h114v-186h115v-91h-115v-119h115v-91h-115v-72q0 -42 14 -58t52 -16q27 0 45 6v-88q-19 -7 -78 -7z" />
    <glyph glyph-name="Utilde" unicode="&#x168;" horiz-adv-x="607" 
d="M304 -13q-243 0 -243 262v491h118v-480q0 -87 29.5 -127.5t97.5 -40.5t97 40.5t29 125.5v482h113v-489q0 -126 -59 -195t-182 -69zM374 776q-33 0 -74 28t-56 28q-35 0 -35 -54h-64q0 139 95 139q32 0 73 -28t57 -28q35 0 35 54h62q0 -139 -93 -139z" />
    <glyph glyph-name="utilde" unicode="&#x169;" 
d="M183 -11q-62 0 -96 38t-34 111v392h114v-368q0 -40 14.5 -58t48.5 -18q52 0 116 62v382h114v-530h-114v69q-70 -80 -163 -80zM329 576q-33 0 -74 28t-56 28q-35 0 -35 -54h-64q0 139 95 139q32 0 73 -28t57 -28q35 0 35 54h62q0 -139 -93 -139z" />
    <glyph glyph-name="Umacron" unicode="&#x16a;" horiz-adv-x="607" 
d="M304 -13q-243 0 -243 262v491h118v-480q0 -87 29.5 -127.5t97.5 -40.5t97 40.5t29 125.5v482h113v-489q0 -126 -59 -195t-182 -69zM166 799v88h280v-88h-280z" />
    <glyph glyph-name="umacron" unicode="&#x16b;" 
d="M183 -11q-62 0 -96 38t-34 111v392h114v-368q0 -40 14.5 -58t48.5 -18q52 0 116 62v382h114v-530h-114v69q-70 -80 -163 -80zM118 597v88h280v-88h-280z" />
    <glyph glyph-name="Ubreve" unicode="&#x16c;" horiz-adv-x="607" 
d="M304 -13q-243 0 -243 262v491h118v-480q0 -87 29.5 -127.5t97.5 -40.5t97 40.5t29 125.5v482h113v-489q0 -126 -59 -195t-182 -69zM304 781q-68 0 -103.5 45.5t-39.5 125.5h67q10 -95 76 -95t75 95h67q-4 -80 -39.5 -125.5t-102.5 -45.5z" />
    <glyph glyph-name="ubreve" unicode="&#x16d;" 
d="M183 -11q-62 0 -96 38t-34 111v392h114v-368q0 -40 14.5 -58t48.5 -18q52 0 116 62v382h114v-530h-114v69q-70 -80 -163 -80zM258 579q-68 0 -103.5 45.5t-39.5 125.5h67q10 -95 76 -95t75 95h67q-4 -80 -39.5 -125.5t-102.5 -45.5z" />
    <glyph glyph-name="Uring" unicode="&#x16e;" horiz-adv-x="607" 
d="M304 -13q-243 0 -243 262v491h118v-480q0 -87 29.5 -127.5t97.5 -40.5t97 40.5t29 125.5v482h113v-489q0 -126 -59 -195t-182 -69zM306 773q-41 0 -67 29.5t-26 73.5q0 45 25.5 74t67.5 29t68 -29t26 -74q0 -44 -26.5 -73.5t-67.5 -29.5zM306 822q19 0 29.5 15.5
t10.5 38.5q0 22 -10.5 37t-29.5 15q-18 0 -28.5 -15t-10.5 -37q0 -23 10.5 -38.5t28.5 -15.5z" />
    <glyph glyph-name="uring" unicode="&#x16f;" 
d="M183 -11q-62 0 -96 38t-34 111v392h114v-368q0 -40 14.5 -58t48.5 -18q52 0 116 62v382h114v-530h-114v69q-70 -80 -163 -80zM256 573q-41 0 -67 29.5t-26 73.5q0 45 25.5 74t67.5 29t68 -29t26 -74q0 -44 -26.5 -73.5t-67.5 -29.5zM256 622q19 0 29.5 15.5t10.5 38.5
q0 22 -10.5 37t-29.5 15q-18 0 -28.5 -15t-10.5 -37q0 -23 10.5 -38.5t28.5 -15.5z" />
    <glyph glyph-name="Uhungarumlaut" unicode="&#x170;" horiz-adv-x="607" 
d="M304 -13q-243 0 -243 262v491h118v-480q0 -87 29.5 -127.5t97.5 -40.5t97 40.5t29 125.5v482h113v-489q0 -126 -59 -195t-182 -69zM328 785l87 161h121l-130 -161h-78zM167 785l83 161h122l-126 -161h-79z" />
    <glyph glyph-name="uhungarumlaut" unicode="&#x171;" 
d="M183 -11q-62 0 -96 38t-34 111v392h114v-368q0 -40 14.5 -58t48.5 -18q52 0 116 62v382h114v-530h-114v69q-70 -80 -163 -80zM272 585l87 161h121l-130 -161h-78zM111 585l83 161h122l-126 -161h-79z" />
    <glyph glyph-name="Uogonek" unicode="&#x172;" horiz-adv-x="607" 
d="M299 -13q-238 3 -238 262v491h118v-480q0 -87 29.5 -127.5t97.5 -40.5t97 40.5t29 125.5v482h113v-489q0 -168 -101 -230q-10 -6 -38 -19q-21 -11 -32 -18t-25.5 -18.5t-20.5 -25.5t-6 -32q0 -43 42 -43q34 0 75 25l27 -37q-61 -44 -127 -44q-46 0 -70.5 21.5t-24.5 57.5
q0 51 55 99z" />
    <glyph glyph-name="uogonek" unicode="&#x173;" 
d="M457 0q-37 0 -70.5 -28t-33.5 -64q0 -43 42 -43q35 0 74 25l28 -37q-61 -44 -128 -44q-45 0 -69.5 21.5t-24.5 57.5q0 61 71 112v69q-70 -80 -163 -80q-62 0 -96 38t-34 111v392h114v-368q0 -40 14.5 -58t48.5 -18q52 0 116 62v382h114v-530h-3z" />
    <glyph glyph-name="Wcircumflex" unicode="&#x174;" horiz-adv-x="793" 
d="M250 779l110 162h78l110 -162h-68l-81 79l-81 -79h-68zM187 -3l-165 743h113l69 -339q25 -120 39 -208h2q13 85 38 208l65 339h105l68 -347q27 -136 36 -200h2q10 63 37 199l70 348h104l-165 -743h-101l-106 542h-2l-107 -542h-102z" />
    <glyph glyph-name="wcircumflex" unicode="&#x175;" horiz-adv-x="653" 
d="M181 584l110 162h78l110 -162h-68l-81 79l-81 -79h-68zM140 -2l-130 532h111l51 -222q17 -73 30 -151h2q10 59 31 153l49 220h97l49 -217q24 -107 32 -156h2q7 42 30 155l50 218h99l-130 -532h-102l-83 366h-2l-85 -366h-101z" />
    <glyph glyph-name="Ycircumflex" unicode="&#x176;" horiz-adv-x="551" 
d="M216 0v298l-207 442h121l147 -335h2l147 335h115l-207 -441v-299h-118zM129 784l110 162h78l110 -162h-68l-81 79l-81 -79h-68z" />
    <glyph glyph-name="ycircumflex" unicode="&#x177;" horiz-adv-x="468" 
d="M103 -202q-60 0 -104 14l22 90q39 -9 71 -9q29 0 44.5 15t27.5 51l11 35l-166 536h118l66 -241q27 -97 40 -162h2q18 76 42 167l66 236h110l-184 -585q-25 -78 -61 -112.5t-105 -34.5zM85 584l110 162h78l110 -162h-68l-81 79l-81 -79h-68z" />
    <glyph glyph-name="Ydieresis" unicode="&#x178;" horiz-adv-x="551" 
d="M216 0v298l-207 442h121l147 -335h2l147 335h115l-207 -441v-299h-118zM312 783v114h102v-114h-102zM137 783v114h103v-114h-103z" />
    <glyph glyph-name="Zacute" unicode="&#x179;" horiz-adv-x="539" 
d="M27 0v86l334 545h-310v109h452v-88l-330 -546h330v-106h-476zM214 785l81 161h119l-122 -161h-78z" />
    <glyph glyph-name="zacute" unicode="&#x17a;" horiz-adv-x="441" 
d="M27 0v71l238 368h-218v91h354v-72l-239 -368h252v-90h-387zM154 585l81 161h119l-122 -161h-78z" />
    <glyph glyph-name="Zdotaccent" unicode="&#x17b;" horiz-adv-x="539" 
d="M27 0v86l334 545h-310v109h452v-88l-330 -546h330v-106h-476zM208 787v108h122v-108h-122z" />
    <glyph glyph-name="zdotaccent" unicode="&#x17c;" horiz-adv-x="441" 
d="M27 0v71l238 368h-218v91h354v-72l-239 -368h252v-90h-387zM159 584v108h122v-108h-122z" />
    <glyph glyph-name="Zcaron" unicode="&#x17d;" horiz-adv-x="539" 
d="M27 0v86l334 545h-310v109h452v-88l-330 -546h330v-106h-476zM230 786l-110 162h69l81 -80l81 80h67l-110 -162h-78z" />
    <glyph glyph-name="zcaron" unicode="&#x17e;" horiz-adv-x="441" 
d="M27 0v71l238 368h-218v91h354v-72l-239 -368h252v-90h-387zM181 586l-110 162h69l81 -80l81 80h67l-110 -162h-78z" />
    <glyph glyph-name="longs" unicode="&#x17f;" horiz-adv-x="322" 
d="M94 0v595q0 70 36 108.5t121 38.5q46 0 58 -3v-92q-8 2 -34 2q-67 0 -67 -62v-587h-114z" />
    <glyph glyph-name="florin" unicode="&#x192;" horiz-adv-x="362" 
d="M103 345h-79l13 89h78l21 161q9 75 51 111.5t125 36.5q23 0 59 -4l-13 -92q-27 3 -36 3q-67 0 -74 -63l-20 -153h96l-12 -89h-96l-55 -408q-10 -70 -49.5 -104.5t-122.5 -34.5q-42 0 -62 4l14 90q16 -4 33 -4q67 0 77 70z" />
    <glyph glyph-name="Aringacute" unicode="&#x1fa;" horiz-adv-x="583" 
d="M241 926l81 161h119l-122 -161h-78zM177 177l-48 -177h-110l210 722q-31 29 -31 79q0 45 25.5 74t67.5 29t68 -29t26 -74q0 -50 -31 -78l210 -723h-118l-47 177h-222zM291 747q19 0 29.5 15.5t10.5 38.5q0 22 -10.5 37t-29.5 15q-18 0 -28.5 -15t-10.5 -37
q0 -23 10.5 -38.5t28.5 -15.5zM371 280l-25 94q-44 158 -56 215h-2q-12 -55 -57 -214l-26 -95h166z" />
    <glyph glyph-name="aringacute" unicode="&#x1fb;" horiz-adv-x="484" 
d="M156 -6q-58 0 -93 35.5t-35 100.5q0 166 291 221v23q0 37 -15.5 53t-50.5 16q-80 0 -150 -61l-57 70q96 89 221 89q163 0 163 -167v-244q0 -91 13 -130h-113q-11 37 -11 67q-57 -73 -163 -73zM201 84q67 0 118 55v134q-180 -39 -180 -124q0 -65 62 -65zM187 810l81 161
h119l-122 -161h-78zM241 573q-41 0 -67 29.5t-26 73.5q0 45 25.5 74t67.5 29t68 -29t26 -74q0 -44 -26.5 -73.5t-67.5 -29.5zM241 622q19 0 29.5 15.5t10.5 38.5q0 22 -10.5 37t-29.5 15q-18 0 -28.5 -15t-10.5 -37q0 -23 10.5 -38.5t28.5 -15.5z" />
    <glyph glyph-name="AEacute" unicode="&#x1fc;" horiz-adv-x="860" 
d="M376 785l81 161h119l-122 -161h-78zM15 0l338 740h459v-109h-282v-191h205v-104h-205v-230h298v-106h-415v209h-189l-93 -209h-116zM268 308h145v319z" />
    <glyph glyph-name="aeacute" unicode="&#x1fd;" horiz-adv-x="765" 
d="M357 90q-81 -96 -201 -96q-58 0 -93 35.5t-35 100.5q0 166 291 221v23q0 37 -15.5 53t-50.5 16q-80 0 -150 -61l-57 70q96 89 226 89q95 0 123 -61q58 61 137 61q93 0 147.5 -70t54.5 -209v-31h-306q4 -74 33 -111.5t79 -37.5q40 0 67 17.5t54 54.5l72 -52
q-71 -113 -199 -113q-121 0 -177 101zM319 272q-180 -40 -180 -123q0 -65 62 -65q71 0 132 66q-14 51 -14 115v7zM429 311h199q-8 135 -96 135q-41 0 -69 -32.5t-34 -102.5zM331 585l81 161h119l-122 -161h-78z" />
    <glyph glyph-name="Oslashacute" unicode="&#x1fe;" horiz-adv-x="639" 
d="M526 648q74 -101 74 -278q0 -186 -78.5 -285t-201.5 -99q-86 0 -153 50l-50 -82l-65 40l60 99q-73 102 -73 277q0 186 78.5 285t202.5 99q86 0 151 -49l51 82l65 -40zM181 200l235 407q-40 40 -96 40q-78 0 -121.5 -71.5t-43.5 -205.5q0 -101 26 -170zM457 540l-236 -407
q39 -42 99 -42q77 0 120 72.5t43 206.5q0 103 -26 170zM269 785l81 161h119l-122 -161h-78z" />
    <glyph glyph-name="oslashacute" unicode="&#x1ff;" horiz-adv-x="508" 
d="M421 460q54 -74 54 -195q0 -135 -63 -205.5t-158 -70.5q-67 0 -120 35l-44 -66l-56 36l51 78q-53 75 -53 193q0 136 63 206t159 70q67 0 117 -34l46 67l55 -36zM154 169l164 253q-25 25 -64 25q-54 0 -82.5 -47.5t-28.5 -134.5q0 -52 11 -96zM352 362l-166 -253
q26 -29 68 -29q54 0 82 48t28 137q0 57 -12 97zM203 585l81 161h119l-122 -161h-78z" />
    <glyph glyph-name="Scommaaccent" unicode="&#x218;" horiz-adv-x="567" 
d="M248 -262l31 97h-43v114h109v-103l-49 -108h-48zM292 -13q-181 0 -262 178l99 49q58 -124 163 -124q56 0 87.5 25t31.5 71q0 27 -10.5 48t-34 38t-42.5 27.5t-55 26.5q-98 45 -133 74q-75 60 -75 159q0 86 61.5 140.5t156.5 54.5q163 0 236 -161l-99 -51q-24 52 -56.5 80
t-82.5 28q-46 0 -73 -23t-27 -63q0 -48 34 -77.5t102 -61.5q33 -15 43 -19.5t40.5 -20.5t42 -26t33 -30t30.5 -38t16.5 -44.5t7.5 -56.5q0 -86 -63 -144.5t-171 -58.5z" />
    <glyph glyph-name="scommaaccent" unicode="&#x219;" horiz-adv-x="450" 
d="M181 -262l31 97h-43v114h109v-103l-49 -108h-48zM225 -11q-139 0 -215 103l70 59q60 -74 147 -74t87 60q0 31 -28 51t-68 32.5t-80 28.5t-68 51.5t-28 89.5q0 70 51.5 110.5t130.5 40.5q56 0 105.5 -24t81.5 -66l-68 -62q-53 62 -120 62q-73 0 -73 -55q0 -26 20 -44.5
t50 -27.5t65.5 -23t65.5 -29.5t50 -48.5t20 -79q0 -72 -56.5 -113.5t-139.5 -41.5z" />
    <glyph glyph-name="schwa" unicode="&#x259;" horiz-adv-x="482" 
d="M231 541q97 0 158 -69.5t61 -206.5q0 -138 -63.5 -207t-153.5 -69q-93 0 -147 70t-54 209v31h306q-4 74 -33 111.5t-79 37.5q-40 0 -67 -17.5t-54 -54.5l-72 52q31 50 83.5 81.5t114.5 31.5zM337 219h-199q8 -135 96 -135q41 0 69 32.5t34 102.5z" />
    <glyph glyph-name="circumflex" unicode="&#x2c6;" horiz-adv-x="463" 
d="M82 584l110 162h78l110 -162h-68l-81 79l-81 -79h-68z" />
    <glyph glyph-name="caron" unicode="&#x2c7;" horiz-adv-x="463" 
d="M192 586l-110 162h69l81 -80l81 80h67l-110 -162h-78z" />
    <glyph glyph-name="breve" unicode="&#x2d8;" horiz-adv-x="463" 
d="M232 579q-68 0 -103.5 45.5t-39.5 125.5h67q10 -95 76 -95t75 95h67q-4 -80 -39.5 -125.5t-102.5 -45.5z" />
    <glyph glyph-name="dotaccent" unicode="&#x2d9;" horiz-adv-x="463" 
d="M170 584v108h122v-108h-122z" />
    <glyph glyph-name="ring" unicode="&#x2da;" horiz-adv-x="463" 
d="M231 573q-41 0 -67 29.5t-26 73.5q0 45 25.5 74t67.5 29t68 -29t26 -74q0 -44 -26.5 -73.5t-67.5 -29.5zM231 622q19 0 29.5 15.5t10.5 38.5q0 22 -10.5 37t-29.5 15q-18 0 -28.5 -15t-10.5 -37q0 -23 10.5 -38.5t28.5 -15.5z" />
    <glyph glyph-name="ogonek" unicode="&#x2db;" horiz-adv-x="463" 
d="M222 -191q-46 0 -70.5 21.5t-24.5 57.5q0 62 74 114h60q-56 -40 -56 -94q0 -43 42 -43q34 0 75 25l27 -37q-61 -44 -127 -44z" />
    <glyph glyph-name="tilde" unicode="&#x2dc;" horiz-adv-x="463" 
d="M299 576q-33 0 -74 28t-56 28q-35 0 -35 -54h-64q0 139 95 139q32 0 73 -28t57 -28q35 0 35 54h62q0 -139 -93 -139z" />
    <glyph glyph-name="hungarumlaut" unicode="&#x2dd;" horiz-adv-x="463" 
d="M210 585l87 161h121l-130 -161h-78zM49 585l83 161h122l-126 -161h-79z" />
    <glyph glyph-name="commaaccent" unicode="&#x326;" horiz-adv-x="218" 
d="M66 -262l31 97h-43v114h109v-103l-49 -108h-48z" />
    <glyph glyph-name="tonos" unicode="&#x384;" horiz-adv-x="463" 
d="M171 583l53 167h119l-93 -167h-79z" />
    <glyph glyph-name="dieresistonos" unicode="&#x385;" horiz-adv-x="463" 
d="M331 583v116h99v-116h-99zM35 583v116h99v-116h-99zM157 583l53 167h118l-93 -167h-78z" />
    <glyph glyph-name="Alphatonos" unicode="&#x386;" horiz-adv-x="678" 
d="M272 177l-49 -177h-110l216 743h113l216 -743h-118l-48 177h-220zM464 280l-24 90q-44 158 -56 215h-2q-12 -55 -57 -214l-25 -91h164zM41 574l53 167h119l-93 -167h-79z" />
    <glyph glyph-name="Epsilontonos" unicode="&#x388;" horiz-adv-x="741" 
d="M41 574l53 167h119l-93 -167h-79zM293 0v740h401v-109h-283v-190h205v-106h-205v-229h298v-106h-416z" />
    <glyph glyph-name="Etatonos" unicode="&#x389;" horiz-adv-x="858" 
d="M41 574l53 167h119l-93 -167h-79zM293 0v740h118v-297h260v297h118v-740h-118v334h-260v-334h-118z" />
    <glyph glyph-name="Iotatonos" unicode="&#x38a;" horiz-adv-x="491" 
d="M298 0v740h118v-740h-118zM41 574l53 167h119l-93 -167h-79z" />
    <glyph glyph-name="Omicrontonos" unicode="&#x38c;" horiz-adv-x="833" 
d="M41 574l53 167h119l-93 -167h-79zM514 -14q-124 0 -202.5 99t-78.5 285t78.5 285t202.5 99q123 0 201.5 -99t78.5 -285t-78.5 -285t-201.5 -99zM514 93q77 0 119 71.5t42 205.5t-42 204.5t-119 70.5q-78 0 -120.5 -70.5t-42.5 -204.5t42.5 -205.5t120.5 -71.5z" />
    <glyph glyph-name="Upsilontonos" unicode="&#x38e;" horiz-adv-x="815" 
d="M480 0v298l-207 442h121l147 -335h2l147 335h115l-207 -441v-299h-118zM41 574l53 167h119l-93 -167h-79z" />
    <glyph glyph-name="Omegatonos" unicode="&#x38f;" horiz-adv-x="836" 
d="M238 0v106h128q-47 41 -89.5 118t-42.5 182q0 157 77.5 252.5t199.5 95.5t199 -96t77 -252q0 -73 -25.5 -140t-51.5 -101t-54 -59h128v-106h-232v97q44 41 80.5 116t36.5 180q0 114 -41 182.5t-117 68.5q-75 0 -117 -67.5t-42 -182.5q0 -107 36.5 -182t81.5 -115v-97
h-232zM41 574l53 167h119l-93 -167h-79z" />
    <glyph glyph-name="iotadieresistonos" unicode="&#x390;" horiz-adv-x="239" 
d="M-67 583v116h94v-116h-94zM63 0v530h113v-530h-113zM50 583l53 167h109l-93 -167h-69zM215 583v116h93v-116h-93z" />
    <glyph glyph-name="Alpha" unicode="&#x391;" horiz-adv-x="583" 
d="M178 177l-49 -177h-110l216 743h113l216 -743h-118l-48 177h-220zM370 280l-24 90q-44 158 -56 215h-2q-12 -55 -57 -214l-25 -91h164z" />
    <glyph glyph-name="Beta" unicode="&#x392;" horiz-adv-x="592" 
d="M69 0v740h234q105 0 166.5 -44t61.5 -141q0 -73 -32.5 -114t-79.5 -56v-2q130 -30 130 -181q0 -100 -65.5 -151t-167.5 -51h-247zM185 427h110q63 0 93.5 23t30.5 80q0 58 -28.5 82t-93.5 24h-112v-209zM185 100h125q65 0 95.5 29t30.5 89q0 63 -34 88.5t-103 25.5h-114
v-232z" />
    <glyph glyph-name="Gamma" unicode="&#x393;" horiz-adv-x="486" 
d="M187 0h-118v740h394v-109h-276v-631z" />
    <glyph glyph-name="uni0394" unicode="&#x394;" horiz-adv-x="583" 
d="M19 0l216 743h113l216 -743h-545zM421 93l-76 279q-40 141 -55 213h-2q-13 -58 -56 -211l-77 -281h266z" />
    <glyph glyph-name="Epsilon" unicode="&#x395;" 
d="M69 0v740h401v-109h-283v-190h205v-106h-205v-229h298v-106h-416z" />
    <glyph glyph-name="Zeta" unicode="&#x396;" horiz-adv-x="539" 
d="M27 0v86l334 545h-310v109h452v-88l-330 -546h330v-106h-476z" />
    <glyph glyph-name="Eta" unicode="&#x397;" horiz-adv-x="634" 
d="M69 0v740h118v-297h260v297h118v-740h-118v334h-260v-334h-118z" />
    <glyph glyph-name="Theta" unicode="&#x398;" horiz-adv-x="639" 
d="M251 328v88h157v-88h-157zM320 -14q-124 0 -202.5 99t-78.5 285t78.5 285t202.5 99q123 0 201.5 -99t78.5 -285t-78.5 -285t-201.5 -99zM320 93q77 0 119 71.5t42 205.5t-42 204.5t-119 70.5q-78 0 -120.5 -70.5t-42.5 -204.5t42.5 -205.5t120.5 -71.5z" />
    <glyph glyph-name="Iota" unicode="&#x399;" horiz-adv-x="267" 
d="M74 0v740h118v-740h-118z" />
    <glyph glyph-name="Kappa" unicode="&#x39a;" horiz-adv-x="587" 
d="M69 0v740h117v-355q18 33 70 110l165 245h126l-202 -289l230 -451h-127l-178 351l-84 -115v-236h-117z" />
    <glyph glyph-name="Lambda" unicode="&#x39b;" horiz-adv-x="597" 
d="M355 743l211 -743h-118l-99 375q-26 97 -53 211h-2q-18 -83 -53 -209l-100 -377h-110l211 743h113z" />
    <glyph glyph-name="Mu" unicode="&#x39c;" horiz-adv-x="751" 
d="M69 0v740h149l158 -576h2l153 576h150v-740h-112v563h-2q-10 -68 -45 -185l-107 -378h-89l-107 379q-29 95 -45 186h-2v-565h-103z" />
    <glyph glyph-name="Nu" unicode="&#x39d;" horiz-adv-x="639" 
d="M69 0v740h127l201 -393q29 -57 63 -129h2v522h107v-740h-109l-220 418q-44 87 -62 125h-2v-543h-107z" />
    <glyph glyph-name="Xi" unicode="&#x39e;" horiz-adv-x="518" 
d="M35 0v106h170v229h-110v106h110v190h-164v109h439v-109h-163v-190h109v-106h-109v-229h167v-106h-449z" />
    <glyph glyph-name="Omicron" unicode="&#x39f;" horiz-adv-x="639" 
d="M320 -14q-124 0 -202.5 99t-78.5 285t78.5 285t202.5 99q123 0 201.5 -99t78.5 -285t-78.5 -285t-201.5 -99zM320 93q77 0 119 71.5t42 205.5t-42 204.5t-119 70.5q-78 0 -120.5 -70.5t-42.5 -204.5t42.5 -205.5t120.5 -71.5z" />
    <glyph glyph-name="Pi" unicode="&#x3a0;" horiz-adv-x="629" 
d="M69 0v740h491v-740h-118v631h-255v-631h-118z" />
    <glyph glyph-name="Rho" unicode="&#x3a1;" horiz-adv-x="563" 
d="M69 0v740h215q110 0 176.5 -55t66.5 -173q0 -125 -69 -179.5t-178 -54.5h-95v-278h-116zM185 380h99q68 0 99 30t31 99q0 66 -31.5 94.5t-99.5 28.5h-98v-252z" />
    <glyph glyph-name="Sigma" unicode="&#x3a3;" horiz-adv-x="512" 
d="M27 0v86l178 298l-162 268v88h433v-109h-291l151 -247l-163 -278h307v-106h-453z" />
    <glyph glyph-name="Tau" unicode="&#x3a4;" horiz-adv-x="528" 
d="M205 0v631h-184v109h485v-109h-183v-631h-118z" />
    <glyph glyph-name="Upsilon" unicode="&#x3a5;" horiz-adv-x="551" 
d="M216 0v298l-207 442h121l147 -335h2l147 335h115l-207 -441v-299h-118z" />
    <glyph glyph-name="Phi" unicode="&#x3a6;" horiz-adv-x="694" 
d="M291 0v89q-117 13 -188 86t-71 195q0 127 71.5 204.5t187.5 90.5v75h112v-75q116 -13 187.5 -90t71.5 -205q0 -122 -71.5 -195.5t-187.5 -85.5v-89h-112zM150 370q0 -76 37 -122t104 -57v370q-67 -12 -104 -62t-37 -129zM544 370q0 80 -37 129.5t-104 61.5v-370
q67 11 104 57t37 122z" />
    <glyph glyph-name="Chi" unicode="&#x3a7;" horiz-adv-x="578" 
d="M18 0l208 395l-181 345h127l124 -248l119 248h114l-178 -341l209 -399h-125l-152 302l-150 -302h-115z" />
    <glyph glyph-name="Psi" unicode="&#x3a8;" horiz-adv-x="693" 
d="M644 740v-291q0 -262 -240 -275v-174h-115v174q-240 13 -240 275v291h115v-290q0 -154 125 -166v456h115v-456q64 5 94.5 43.5t30.5 122.5v290h115z" />
    <glyph glyph-name="uni03A9" unicode="&#x3a9;" horiz-adv-x="651" 
d="M53 0v106h128q-47 41 -89.5 118t-42.5 182q0 157 77.5 252.5t199.5 95.5t199 -96t77 -252q0 -73 -25.5 -140t-51.5 -101t-54 -59h128v-106h-232v97q44 41 80.5 116t36.5 180q0 114 -41 182.5t-117 68.5q-75 0 -117 -67.5t-42 -182.5q0 -107 36.5 -182t81.5 -115v-97h-232
z" />
    <glyph glyph-name="Iotadieresis" unicode="&#x3aa;" horiz-adv-x="267" 
d="M74 0v740h118v-740h-118zM170 783v114h102v-114h-102zM-5 783v114h103v-114h-103z" />
    <glyph glyph-name="Upsilondieresis" unicode="&#x3ab;" horiz-adv-x="551" 
d="M216 0v298l-207 442h121l147 -335h2l147 335h115l-207 -441v-299h-118zM312 783v114h102v-114h-102zM137 783v114h103v-114h-103z" />
    <glyph glyph-name="alphatonos" unicode="&#x3ac;" horiz-adv-x="521" 
d="M350 0v67q-62 -76 -141 -76q-81 0 -128.5 67.5t-47.5 205.5q0 137 48 207t129 70t140 -74v63h114v-530h-114zM248 82q46 0 102 60v242q-53 60 -103 60q-99 0 -99 -179q0 -183 100 -183zM212 585l81 161h119l-122 -161h-78z" />
    <glyph glyph-name="epsilontonos" unicode="&#x3ad;" horiz-adv-x="446" 
d="M374 139l47 -83q-86 -67 -196 -67q-99 0 -144.5 41.5t-45.5 109.5q0 56 28 92.5t74 48.5q-38 11 -60 41t-22 74q0 67 47 106t130 39q108 0 175 -49l-46 -83q-52 37 -118 37q-42 0 -62.5 -18t-20.5 -49q0 -61 72 -61h91v-82h-99q-37 0 -59 -20.5t-22 -56.5q0 -73 91 -73
q72 0 140 53zM194 585l81 161h119l-122 -161h-78z" />
    <glyph glyph-name="etatonos" unicode="&#x3ae;" 
d="M221 585l81 161h119l-122 -161h-78zM57 0v530h114v-69q27 33 70 56.5t93 23.5q62 0 96 -38t34 -111v-592h-114v566q0 40 -14.5 58.5t-46.5 18.5q-56 0 -118 -62v-381h-114z" />
    <glyph glyph-name="iotatonos" unicode="&#x3af;" horiz-adv-x="239" 
d="M81 585l81 161h119l-122 -161h-78zM62 0v530h114v-530h-114z" />
    <glyph glyph-name="upsilondieresistonos" unicode="&#x3b0;" horiz-adv-x="511" 
d="M353 583v116h99v-116h-99zM57 583v116h99v-116h-99zM179 583l53 167h118l-93 -167h-78zM255 88q45 0 67.5 32.5t22.5 105.5v304h114v-304q0 -116 -48 -176.5t-155 -60.5q-109 0 -156.5 61t-47.5 176v304h114v-304q0 -72 21.5 -105t67.5 -33z" />
    <glyph glyph-name="alpha" unicode="&#x3b1;" horiz-adv-x="521" 
d="M350 0v67q-62 -76 -141 -76q-81 0 -128.5 67.5t-47.5 205.5q0 137 48 207t129 70t140 -74v63h114v-530h-114zM248 82q46 0 102 60v242q-53 60 -103 60q-99 0 -99 -179q0 -183 100 -183z" />
    <glyph glyph-name="beta" unicode="&#x3b2;" horiz-adv-x="557" 
d="M335 -10q-84 0 -131 32l47 79q35 -21 75 -21t67 32t27 93q0 76 -41.5 109.5t-135.5 38.5v87q123 1 123 109q0 44 -24.5 68.5t-69.5 24.5q-100 0 -100 -124v-718h-114v715q0 109 57.5 167t157.5 58q93 0 146.5 -46t53.5 -130q0 -58 -29 -100.5t-73 -58.5
q73 -16 115.5 -66.5t42.5 -131.5q0 -97 -51.5 -157t-142.5 -60z" />
    <glyph glyph-name="gamma" unicode="&#x3b3;" horiz-adv-x="454" 
d="M170 -200v186l-161 544h115l72 -268q2 -7 10 -39t15.5 -61t9.5 -44h2q13 59 34 143l72 269h107l-162 -545v-185h-114z" />
    <glyph glyph-name="delta" unicode="&#x3b4;" horiz-adv-x="508" 
d="M254 -11q-96 0 -159 71t-63 205q0 118 50 189.5t120 71.5q25 0 36 -6q-8 8 -40.5 41.5t-60.5 63t-40 41.5v74h335v-86h-189l126 -128q106 -107 106 -260q0 -135 -62.5 -206t-158.5 -71zM254 82q107 0 107 183q0 110 -54 172q-14 8 -53 8q-52 0 -80 -46.5t-28 -133.5
t27 -135t81 -48z" />
    <glyph glyph-name="epsilon" unicode="&#x3b5;" horiz-adv-x="446" 
d="M374 139l47 -83q-86 -67 -196 -67q-99 0 -144.5 41.5t-45.5 109.5q0 56 28 92.5t74 48.5q-38 11 -60 41t-22 74q0 67 47 106t130 39q108 0 175 -49l-46 -83q-52 37 -118 37q-42 0 -62.5 -18t-20.5 -49q0 -61 72 -61h91v-82h-99q-37 0 -59 -20.5t-22 -56.5q0 -73 91 -73
q72 0 140 53z" />
    <glyph glyph-name="zeta" unicode="&#x3b6;" horiz-adv-x="412" 
d="M265 -200q-75 0 -125 37l33 58q36 -27 83 -27q66 0 66 59q0 31 -16 44.5t-58 18.5q-106 11 -158.5 74.5t-52.5 162.5q0 119 57.5 219t169.5 203h-217v91h354v-73q-71 -73 -111 -119t-76 -99.5t-50.5 -103t-14.5 -106.5q0 -73 26 -111t92 -47q65 -7 101 -39t36 -101
q0 -64 -36.5 -102.5t-102.5 -38.5z" />
    <glyph glyph-name="eta" unicode="&#x3b7;" 
d="M57 0v530h114v-69q27 33 70 56.5t93 23.5q62 0 96 -38t34 -111v-592h-114v566q0 40 -14.5 58.5t-46.5 18.5q-56 0 -118 -62v-381h-114z" />
    <glyph glyph-name="theta" unicode="&#x3b8;" horiz-adv-x="503" 
d="M41 371q0 183 53 278.5t157 95.5t158 -96.5t54 -276.5q0 -185 -53.5 -284t-159.5 -99q-209 0 -209 382zM250 654q-99 0 -101 -237h206q-3 237 -105 237zM251 81q104 0 104 248h-206q1 -125 24 -186.5t78 -61.5z" />
    <glyph glyph-name="iota" unicode="&#x3b9;" horiz-adv-x="239" 
d="M62 0v530h114v-530h-114z" />
    <glyph glyph-name="kappa" unicode="&#x3ba;" horiz-adv-x="478" 
d="M56 0v530h113v-243q11 23 61 94l102 149h116l-141 -195l156 -335h-116l-111 242l-67 -90v-152h-113z" />
    <glyph glyph-name="lambda" unicode="&#x3bb;" horiz-adv-x="468" 
d="M9 0l166 536l-15 46q-12 36 -27.5 51t-44.5 15q-32 0 -71 -9l-22 90q44 14 104 14q69 0 105 -34.5t61 -112.5l188 -596h-117l-66 236q-24 91 -42 167h-2q-13 -65 -40 -162l-66 -241h-111z" />
    <glyph glyph-name="uni03BC" unicode="&#x3bc;" 
d="M53 -200v731h115v-368q0 -40 14.5 -59t47.5 -19q52 0 116 59v387h114v-531h-114v74q-65 -71 -133 -78q-30 -2 -45 13v-209h-115z" />
    <glyph glyph-name="nu" unicode="&#x3bd;" horiz-adv-x="455" 
d="M167 -2l-158 532h115l72 -268q21 -84 35 -144h2q13 59 34 143l72 269h107l-158 -532h-121z" />
    <glyph glyph-name="xi" unicode="&#x3be;" horiz-adv-x="404" 
d="M257 -203q-74 0 -124 38l34 58q35 -28 83 -28q65 0 65 60q0 31 -16.5 45.5t-60.5 19.5q-204 20 -204 209q0 91 47 142.5t121 62.5q-49 14 -78.5 50.5t-29.5 93.5q0 69 51 101h-102v91h378v-93h-136q-85 -11 -85 -100q0 -50 31.5 -80t97.5 -30v-90q-189 -6 -189 -139
q0 -114 117 -128q69 -6 104.5 -38.5t35.5 -103.5q0 -64 -36.5 -102.5t-103.5 -38.5z" />
    <glyph glyph-name="omicron" unicode="&#x3bf;" horiz-adv-x="508" 
d="M254 -11q-96 0 -159 70.5t-63 205.5q0 136 63 206t159 70t158.5 -70t62.5 -206q0 -135 -63 -205.5t-158 -70.5zM254 82q107 0 107 183q0 180 -107 180q-108 0 -108 -180q0 -183 108 -183z" />
    <glyph glyph-name="pi" unicode="&#x3c0;" horiz-adv-x="578" 
d="M10 438v92h558v-92h-77v-438h-113v438h-178v-438h-113v438h-77z" />
    <glyph glyph-name="rho" unicode="&#x3c1;" horiz-adv-x="521" 
d="M57 -200v465q0 136 61 206t155 70q93 0 154 -70t62 -205q0 -137 -50 -205.5t-133 -68.5q-82 0 -135 67v-259h-114zM171 265v-123q46 -57 104 -57q99 0 99 180t-101 180q-102 0 -102 -180z" />
    <glyph glyph-name="sigma1" unicode="&#x3c2;" horiz-adv-x="468" 
d="M257 -203q-74 0 -124 38l34 58q35 -28 83 -28q65 0 65 60q0 31 -15.5 44.5t-59.5 17.5q-92 8 -150 76t-58 202q0 138 63.5 207t155.5 69q83 0 126.5 -44t64.5 -122l-102 -25q-13 49 -33.5 71.5t-57.5 22.5q-47 0 -75 -43.5t-28 -135.5q0 -90 25.5 -135t85.5 -52
q69 -7 104.5 -38t35.5 -102q0 -64 -36.5 -102.5t-103.5 -38.5z" />
    <glyph glyph-name="sigma" unicode="&#x3c3;" horiz-adv-x="523" 
d="M254 -11q-96 0 -159 70.5t-63 205.5q0 136 63 200.5t165 64.5h237v-90h-83q61 -55 61 -174q0 -136 -63 -206.5t-158 -70.5zM254 82q107 0 107 183q0 68 -15 108t-50 67h-37q-55 0 -84 -45t-29 -130q0 -183 108 -183z" />
    <glyph glyph-name="tau" unicode="&#x3c4;" horiz-adv-x="405" 
d="M256 0h-107v438h-137v92h381v-92h-137v-438z" />
    <glyph glyph-name="upsilon" unicode="&#x3c5;" horiz-adv-x="511" 
d="M255 88q45 0 67.5 32.5t22.5 105.5v304h114v-304q0 -116 -48 -176.5t-155 -60.5q-109 0 -156.5 61t-47.5 176v304h114v-304q0 -72 21.5 -105t67.5 -33z" />
    <glyph glyph-name="phi" unicode="&#x3c6;" horiz-adv-x="638" 
d="M268 -200v189q-98 3 -167 71t-69 205q0 138 68.5 205.5t167.5 70.5v199h102v-199q99 -3 167.5 -70.5t68.5 -205.5q0 -136 -68.5 -204.5t-167.5 -71.5v-189h-102zM268 83v362q-58 -2 -90 -49.5t-32 -130.5q0 -82 32 -130.5t90 -51.5zM370 83q57 3 89.5 50.5t32.5 130.5
q0 84 -32.5 131.5t-89.5 49.5v-362z" />
    <glyph glyph-name="chi" unicode="&#x3c7;" horiz-adv-x="453" 
d="M12 0l158 275l-144 255h118l92 -170l85 170h109l-144 -251l157 -279h-117l-103 193l-102 -193h-109z" />
    <glyph glyph-name="psi" unicode="&#x3c8;" horiz-adv-x="674" 
d="M280 -200v189q-229 4 -229 244v297h113v-297q0 -137 116 -141v648h113v-648q118 6 118 141v297h112v-296q0 -241 -230 -245v-189h-113z" />
    <glyph glyph-name="omega" unicode="&#x3c9;" horiz-adv-x="674" 
d="M208 -11q-88 0 -131 66.5t-43 185.5q0 91 29 167t78 123h123q-56 -45 -86.5 -119t-30.5 -162q0 -160 75 -160q30 0 47 24t17 67v180h101v-180q0 -42 17.5 -66.5t46.5 -24.5q76 0 76 160q0 88 -30.5 162t-87.5 119h124q49 -47 78 -123t29 -167q0 -119 -43.5 -185.5
t-130.5 -66.5q-50 0 -84 29.5t-45 69.5q-13 -41 -45 -70t-84 -29z" />
    <glyph glyph-name="iotadieresis" unicode="&#x3ca;" horiz-adv-x="239" 
d="M156 583v114h102v-114h-102zM-19 583v114h103v-114h-103zM62 0v530h114v-530h-114z" />
    <glyph glyph-name="upsilondieresis" unicode="&#x3cb;" horiz-adv-x="511" 
d="M290 583v114h102v-114h-102zM115 583v114h103v-114h-103zM255 88q45 0 67.5 32.5t22.5 105.5v304h114v-304q0 -116 -48 -176.5t-155 -60.5q-109 0 -156.5 61t-47.5 176v304h114v-304q0 -72 21.5 -105t67.5 -33z" />
    <glyph glyph-name="omicrontonos" unicode="&#x3cc;" horiz-adv-x="508" 
d="M211 585l81 161h119l-122 -161h-78zM254 -11q-96 0 -159 70.5t-63 205.5q0 136 63 206t159 70t158.5 -70t62.5 -206q0 -135 -63 -205.5t-158 -70.5zM254 82q107 0 107 183q0 180 -107 180q-108 0 -108 -180q0 -183 108 -183z" />
    <glyph glyph-name="upsilontonos" unicode="&#x3cd;" horiz-adv-x="511" 
d="M255 88q45 0 67.5 32.5t22.5 105.5v304h114v-304q0 -116 -48 -176.5t-155 -60.5q-109 0 -156.5 61t-47.5 176v304h114v-304q0 -72 21.5 -105t67.5 -33zM213 585l81 161h119l-122 -161h-78z" />
    <glyph glyph-name="omegatonos" unicode="&#x3ce;" horiz-adv-x="674" 
d="M298 585l81 161h119l-122 -161h-78zM208 -11q-88 0 -131 66.5t-43 185.5q0 91 29 167t78 123h123q-56 -45 -86.5 -119t-30.5 -162q0 -160 75 -160q30 0 47 24t17 67v180h101v-180q0 -42 17.5 -66.5t46.5 -24.5q76 0 76 160q0 88 -30.5 162t-87.5 119h124q49 -47 78 -123
t29 -167q0 -119 -43.5 -185.5t-130.5 -66.5q-50 0 -84 29.5t-45 69.5q-13 -41 -45 -70t-84 -29z" />
    <glyph glyph-name="afii10023" unicode="&#x401;" 
d="M305 783v114h102v-114h-102zM130 783v114h103v-114h-103zM69 0v740h401v-109h-283v-190h205v-106h-205v-229h298v-106h-416z" />
    <glyph glyph-name="afii10051" unicode="&#x402;" horiz-adv-x="706" 
d="M205 0v631h-183v109h484v-109h-183v-205q59 90 155 90q86 0 141.5 -69.5t55.5 -184.5q0 -121 -60.5 -191.5t-174.5 -70.5v94q58 0 89.5 41t31.5 115q0 68 -31.5 110.5t-84.5 42.5q-67 0 -122 -64v-339h-118z" />
    <glyph glyph-name="afii10052" unicode="&#x403;" horiz-adv-x="498" 
d="M204 785l81 161h119l-122 -161h-78zM187 0h-118v740h394v-109h-276v-631z" />
    <glyph glyph-name="afii10053" unicode="&#x404;" horiz-adv-x="586" 
d="M313 -14q-128 0 -201 97.5t-73 288.5q0 186 74.5 284t201.5 98q186 0 234 -214l-109 -23q-16 69 -46 102.5t-82 33.5q-67 0 -106.5 -57.5t-46.5 -160.5h188v-104h-189q5 -119 45 -182.5t111 -63.5q54 0 86 34.5t49 108.5l104 -24q-53 -218 -240 -218z" />
    <glyph glyph-name="afii10054" unicode="&#x405;" horiz-adv-x="567" 
d="M292 -13q-181 0 -262 178l99 49q58 -124 163 -124q56 0 87.5 25t31.5 71q0 27 -10.5 48t-34 38t-42.5 27.5t-55 26.5q-98 45 -133 74q-75 60 -75 159q0 86 61.5 140.5t156.5 54.5q163 0 236 -161l-99 -51q-24 52 -56.5 80t-82.5 28q-46 0 -73 -23t-27 -63q0 -48 34 -77.5
t102 -61.5q33 -15 43 -19.5t40.5 -20.5t42 -26t33 -30t30.5 -38t16.5 -44.5t7.5 -56.5q0 -86 -63 -144.5t-171 -58.5z" />
    <glyph glyph-name="afii10055" unicode="&#x406;" horiz-adv-x="267" 
d="M74 0v740h118v-740h-118z" />
    <glyph glyph-name="afii10056" unicode="&#x407;" horiz-adv-x="267" 
d="M74 0v740h118v-740h-118zM170 783v114h102v-114h-102zM-5 783v114h103v-114h-103z" />
    <glyph glyph-name="afii10057" unicode="&#x408;" horiz-adv-x="444" 
d="M196 -11q-103 0 -182 57l50 86q60 -42 120 -42q81 0 81 93v557h118v-564q0 -90 -48.5 -138.5t-138.5 -48.5z" />
    <glyph glyph-name="afii10058" unicode="&#x409;" horiz-adv-x="974" 
d="M21 0v99q51 0 71.5 23.5t20.5 76.5v541h483v-306h99q111 0 177 -50.5t66 -162.5q0 -62 -20 -106.5t-55.5 -69t-77.5 -35t-94 -10.5h-211v631h-249v-431q0 -102 -48.5 -151t-161.5 -49zM596 102h99q67 0 98.5 28t31.5 88q0 56 -31.5 82t-99.5 26h-98v-224z" />
    <glyph glyph-name="afii10059" unicode="&#x40a;" horiz-adv-x="941" 
d="M69 0v740h118v-305h260v305h116v-305h99q111 0 177 -51t66 -163q0 -62 -20 -106.5t-55.5 -69t-77.5 -35t-94 -10.5h-211v326h-260v-326h-118zM563 102h99q67 0 98.5 28t31.5 88q0 56 -31.5 82t-99.5 26h-98v-224z" />
    <glyph glyph-name="afii10060" unicode="&#x40b;" horiz-adv-x="669" 
d="M205 0v631h-183v109h484v-109h-183v-170q27 33 70 56.5t93 23.5q62 0 96 -38t34 -111v-392h-114v366q0 40 -14.5 58.5t-46.5 18.5q-56 0 -118 -62v-381h-118z" />
    <glyph glyph-name="afii10061" unicode="&#x40c;" horiz-adv-x="587" 
d="M259 785l81 161h119l-122 -161h-78zM69 0v740h117v-355q18 33 70 110l165 245h126l-202 -289l230 -451h-127l-178 351l-84 -115v-236h-117z" />
    <glyph glyph-name="afii10062" unicode="&#x40e;" horiz-adv-x="589" 
d="M89 118q36 -28 74 -28q33 0 51 18t36 64l10 27l-231 541h119l146 -355l18 -50l18 51l131 354h118l-233 -594q-33 -83 -73.5 -120t-106.5 -37q-70 0 -127 42zM305 781q-68 0 -103.5 45.5t-39.5 125.5h67q9 -95 76 -95q65 0 75 95h67q-4 -80 -39.5 -125.5t-102.5 -45.5z
" />
    <glyph glyph-name="afii10145" unicode="&#x40f;" horiz-adv-x="629" 
d="M69 0v740h118v-634h255v634h118v-740h-187v-200h-117v200h-187z" />
    <glyph glyph-name="afii10017" unicode="&#x410;" horiz-adv-x="583" 
d="M178 177l-49 -177h-110l216 743h113l216 -743h-118l-48 177h-220zM370 280l-24 90q-44 158 -56 215h-2q-12 -55 -57 -214l-25 -91h164z" />
    <glyph glyph-name="afii10018" unicode="&#x411;" horiz-adv-x="563" 
d="M69 0v740h394v-109h-278v-197h99q111 0 177 -50.5t66 -162.5q0 -62 -20 -106.5t-55.5 -69t-77.5 -35t-94 -10.5h-211zM185 102h99q67 0 98.5 28t31.5 88q0 56 -31.5 82t-99.5 26h-98v-224z" />
    <glyph glyph-name="afii10019" unicode="&#x412;" horiz-adv-x="592" 
d="M69 0v740h234q105 0 166.5 -44t61.5 -141q0 -73 -32.5 -114t-79.5 -56v-2q130 -30 130 -181q0 -100 -65.5 -151t-167.5 -51h-247zM185 427h110q63 0 93.5 23t30.5 80q0 58 -28.5 82t-93.5 24h-112v-209zM185 100h125q65 0 95.5 29t30.5 89q0 63 -34 88.5t-103 25.5h-114
v-232z" />
    <glyph glyph-name="afii10020" unicode="&#x413;" horiz-adv-x="486" 
d="M187 0h-118v740h394v-109h-276v-631z" />
    <glyph glyph-name="afii10021" unicode="&#x414;" horiz-adv-x="686" 
d="M7 -201v307h35q70 0 76 103l42 531h428v-634h75v-307h-117v201h-422v-201h-117zM198 106h272v525h-204l-34 -437q-4 -70 -34 -88z" />
    <glyph glyph-name="afii10022" unicode="&#x415;" 
d="M69 0v740h401v-109h-283v-190h205v-106h-205v-229h298v-106h-416z" />
    <glyph glyph-name="afii10024" unicode="&#x416;" horiz-adv-x="913" 
d="M595 351l-84 -115v-236h-109v236l-84 115l-179 -351h-127l230 452l-201 288h125l165 -245q38 -54 71 -110v355h109v-355q33 56 71 110l165 245h125l-201 -288l230 -452h-127z" />
    <glyph glyph-name="afii10025" unicode="&#x417;" horiz-adv-x="538" 
d="M263 -13q-176 0 -242 165l98 43q24 -59 57 -84.5t82 -25.5q58 0 91.5 33t33.5 88q0 71 -41.5 104t-131.5 33h-30v94h43q78 0 111 30t33 91q0 94 -100 94q-78 0 -134 -79l-82 56q86 125 227 125q97 0 150 -51t53 -133q0 -66 -32.5 -112t-83.5 -63q132 -44 132 -191
q0 -98 -64.5 -157.5t-169.5 -59.5z" />
    <glyph glyph-name="afii10026" unicode="&#x418;" horiz-adv-x="639" 
d="M569 740v-740h-107v543h-2q-18 -38 -62 -125l-220 -418h-109v740h107v-522h2q34 72 63 129l201 393h127z" />
    <glyph glyph-name="afii10027" unicode="&#x419;" horiz-adv-x="639" 
d="M569 0v740h-127l-201 -393q-29 -57 -63 -129h-2v522h-107v-740h109l220 418q44 87 62 125h2v-543h107zM316 781q-68 0 -103.5 45.5t-39.5 125.5h67q10 -95 76 -95t75 95h67q-4 -80 -39.5 -125.5t-102.5 -45.5z" />
    <glyph glyph-name="afii10028" unicode="&#x41a;" horiz-adv-x="587" 
d="M69 0v740h117v-355q18 33 70 110l165 245h126l-202 -289l230 -451h-127l-178 351l-84 -115v-236h-117z" />
    <glyph glyph-name="afii10029" unicode="&#x41b;" horiz-adv-x="667" 
d="M231 631v-431q0 -102 -48.5 -151t-161.5 -49v99q51 0 71.5 23.5t20.5 76.5v541h485v-740h-118v631h-249z" />
    <glyph glyph-name="afii10030" unicode="&#x41c;" horiz-adv-x="751" 
d="M69 0v740h149l158 -576h2l153 576h150v-740h-112v563h-2q-10 -68 -45 -185l-107 -378h-89l-107 379q-29 95 -45 186h-2v-565h-103z" />
    <glyph glyph-name="afii10031" unicode="&#x41d;" horiz-adv-x="634" 
d="M69 0v740h118v-297h260v297h118v-740h-118v334h-260v-334h-118z" />
    <glyph glyph-name="afii10032" unicode="&#x41e;" horiz-adv-x="639" 
d="M320 -14q-124 0 -202.5 99t-78.5 285t78.5 285t202.5 99q123 0 201.5 -99t78.5 -285t-78.5 -285t-201.5 -99zM320 93q77 0 119 71.5t42 205.5t-42 204.5t-119 70.5q-78 0 -120.5 -70.5t-42.5 -204.5t42.5 -205.5t120.5 -71.5z" />
    <glyph glyph-name="afii10033" unicode="&#x41f;" horiz-adv-x="629" 
d="M69 0v740h491v-740h-118v631h-255v-631h-118z" />
    <glyph glyph-name="afii10034" unicode="&#x420;" horiz-adv-x="563" 
d="M69 0v740h215q110 0 176.5 -55t66.5 -173q0 -125 -69 -179.5t-178 -54.5h-95v-278h-116zM185 380h99q68 0 99 30t31 99q0 66 -31.5 94.5t-99.5 28.5h-98v-252z" />
    <glyph glyph-name="afii10035" unicode="&#x421;" horiz-adv-x="596" 
d="M313 -13q-128 0 -201 97t-73 287q0 187 74.5 285t201.5 98q107 0 164 -63.5t76 -180.5l-110 -20q-15 81 -45.5 117.5t-87.5 36.5q-76 0 -115.5 -69.5t-39.5 -202.5q0 -279 157 -279q59 0 91 37.5t49 126.5l109 -18q-49 -252 -250 -252z" />
    <glyph glyph-name="afii10036" unicode="&#x422;" horiz-adv-x="528" 
d="M205 0v631h-184v109h485v-109h-183v-631h-118z" />
    <glyph glyph-name="afii10037" unicode="&#x423;" horiz-adv-x="589" 
d="M89 118q36 -28 74 -28q33 0 51 18t36 64l10 27l-231 541h119l146 -355l18 -50l18 51l131 354h118l-233 -594q-33 -83 -73.5 -120t-106.5 -37q-70 0 -127 42z" />
    <glyph glyph-name="afii10038" unicode="&#x424;" horiz-adv-x="694" 
d="M291 0v89q-117 13 -188 86t-71 195q0 127 71.5 204.5t187.5 90.5v75h112v-75q116 -13 187.5 -90t71.5 -205q0 -122 -71.5 -195.5t-187.5 -85.5v-89h-112zM150 370q0 -76 37 -122t104 -57v370q-67 -12 -104 -62t-37 -129zM544 370q0 80 -37 129.5t-104 61.5v-370
q67 11 104 57t37 122z" />
    <glyph glyph-name="afii10039" unicode="&#x425;" horiz-adv-x="578" 
d="M18 0l208 395l-181 345h127l124 -248l119 248h114l-178 -341l209 -399h-125l-152 302l-150 -302h-115z" />
    <glyph glyph-name="afii10040" unicode="&#x426;" horiz-adv-x="646" 
d="M501 -200v200h-432v740h118v-634h255v634h118v-634h58v-306h-117z" />
    <glyph glyph-name="afii10041" unicode="&#x427;" horiz-adv-x="598" 
d="M411 0v312q-59 -48 -154 -48q-97 0 -145.5 54t-48.5 183v240h117v-228q0 -79 22.5 -110.5t79.5 -31.5q74 0 129 45v324h118v-740h-118z" />
    <glyph glyph-name="afii10042" unicode="&#x428;" horiz-adv-x="933" 
d="M69 0v740h117v-634h222v634h117v-634h222v634h117v-740h-795z" />
    <glyph glyph-name="afii10043" unicode="&#x429;" horiz-adv-x="950" 
d="M69 0v740h117v-634h222v634h117v-634h222v634h117v-642h58v-298h-117v200h-736z" />
    <glyph glyph-name="afii10044" unicode="&#x42a;" horiz-adv-x="708" 
d="M214 0v631h-191v109h307v-306h99q111 0 177 -50.5t66 -162.5q0 -62 -20 -106.5t-55.5 -69t-77.5 -35t-94 -10.5h-211zM330 102h99q67 0 98.5 28t31.5 88q0 56 -31.5 82t-99.5 26h-98v-224z" />
    <glyph glyph-name="afii10045" unicode="&#x42b;" horiz-adv-x="830" 
d="M637 0v740h118v-740h-118zM69 0v740h116v-306h99q111 0 177 -50.5t66 -162.5q0 -62 -20 -106.5t-55.5 -69t-77.5 -35t-94 -10.5h-211zM185 102h99q67 0 98.5 28t31.5 88q0 56 -31.5 82t-99.5 26h-98v-224z" />
    <glyph glyph-name="afii10046" unicode="&#x42c;" horiz-adv-x="563" 
d="M69 0v740h116v-306h99q111 0 177 -50.5t66 -162.5q0 -62 -20 -106.5t-55.5 -69t-77.5 -35t-94 -10.5h-211zM185 102h99q67 0 98.5 28t31.5 88q0 56 -31.5 82t-99.5 26h-98v-224z" />
    <glyph glyph-name="afii10047" unicode="&#x42d;" horiz-adv-x="586" 
d="M272 -14q-187 0 -240 218l104 24q17 -74 49 -108.5t86 -34.5q71 0 111 63.5t45 182.5h-189v104h188q-7 103 -46.5 160.5t-106.5 57.5q-52 0 -82 -33.5t-46 -102.5l-109 23q48 214 234 214q127 0 201.5 -98t74.5 -284q0 -191 -73 -288.5t-201 -97.5z" />
    <glyph glyph-name="afii10048" unicode="&#x42e;" horiz-adv-x="869" 
d="M561 -14q-113 0 -187 90t-83 258h-104v-334h-118v740h118v-297h106q16 150 88.5 230.5t179.5 80.5q119 0 194 -99t75 -285t-75 -285t-194 -99zM561 85q71 0 111 75t40 210t-39.5 209t-111.5 74q-73 0 -113 -74t-40 -209t40 -210t113 -75z" />
    <glyph glyph-name="afii10049" unicode="&#x42f;" horiz-adv-x="582" 
d="M513 740v-740h-115v289h-104l-132 -289h-121l142 315q-58 19 -93 70.5t-35 130.5q0 224 238 224h220zM298 389h100v243h-100q-67 0 -98.5 -26.5t-31.5 -91.5q0 -68 31.5 -96.5t98.5 -28.5z" />
    <glyph glyph-name="afii10065" unicode="&#x430;" horiz-adv-x="484" 
d="M156 -6q-58 0 -93 35.5t-35 100.5q0 166 291 221v23q0 37 -15.5 53t-50.5 16q-80 0 -150 -61l-57 70q96 89 221 89q163 0 163 -167v-244q0 -91 13 -130h-113q-11 37 -11 67q-57 -73 -163 -73zM201 84q67 0 118 55v134q-180 -39 -180 -124q0 -65 62 -65z" />
    <glyph glyph-name="afii10066" unicode="&#x431;" horiz-adv-x="506" 
d="M254 -11q-99 0 -160.5 73t-61.5 211q0 79 2 103q3 58 12 106.5t28.5 96t48.5 80.5t75 53.5t106 21.5q77 3 116 14v-105q-28 -9 -108 -13q-164 -6 -172 -216q21 47 58.5 71.5t78.5 24.5q88 0 143.5 -69t55.5 -194q0 -116 -60.5 -187t-161.5 -71zM254 82q51 0 79.5 44.5
t28.5 122.5q0 77 -27 124t-78 47q-52 0 -81.5 -46t-29.5 -125q0 -76 28 -121.5t80 -45.5z" />
    <glyph glyph-name="afii10067" unicode="&#x432;" horiz-adv-x="478" 
d="M58 0v530h191q181 0 181 -127q0 -53 -28 -85t-72 -41v-1q114 -19 114 -130q0 -72 -53.5 -109t-129.5 -37h-203zM165 90h85q85 0 85 69q0 72 -92 72h-78v-141zM165 311h75q84 0 84 68q0 60 -81 60h-78v-128z" />
    <glyph glyph-name="afii10068" unicode="&#x433;" horiz-adv-x="414" 
d="M394 530v-91h-223v-439h-113v530h336z" />
    <glyph glyph-name="afii10069" unicode="&#x434;" horiz-adv-x="548" 
d="M116 -201h-107v298q44 1 60 20.5t19 61.5l26 351h365v-433h50v-298h-106v201h-307v-201zM366 92v347h-147l-19 -268q-3 -62 -35 -79h201z" />
    <glyph glyph-name="afii10070" unicode="&#x435;" horiz-adv-x="482" 
d="M251 -11q-97 0 -158 69.5t-61 206.5q0 138 63.5 207t153.5 69q93 0 147 -70t54 -209v-31h-306q4 -74 33 -111.5t79 -37.5q40 0 67 17.5t54 54.5l72 -52q-31 -50 -83.5 -81.5t-114.5 -31.5zM145 311h199q-8 135 -96 135q-41 0 -69 -32.5t-34 -102.5z" />
    <glyph glyph-name="afii10072" unicode="&#x436;" horiz-adv-x="725" 
d="M16 0l155 335l-141 195h116l103 -149q52 -77 61 -94v243h105v-243q9 17 61 94l103 149h116l-141 -195l155 -335h-115l-112 243l-67 -91v-152h-105v152l-67 91l-112 -243h-115z" />
    <glyph glyph-name="afii10073" unicode="&#x437;" horiz-adv-x="438" 
d="M217 -11q-132 0 -196 102l73 66q45 -73 120 -73q44 0 69.5 20.5t25.5 54.5q0 38 -29.5 54.5t-100.5 16.5h-23v79h25q61 0 89.5 17t28.5 54q0 30 -21.5 49t-63.5 19q-35 0 -57.5 -13.5t-46.5 -41.5l-62 67q65 82 172 82q87 0 133 -40.5t46 -104.5q0 -52 -26 -84.5
t-74 -40.5q112 -24 112 -126q0 -68 -51.5 -112.5t-142.5 -44.5z" />
    <glyph glyph-name="afii10074" unicode="&#x438;" horiz-adv-x="528" 
d="M471 530v-530h-106v344q-131 -228 -199 -344h-108v530h104v-345l200 345h109z" />
    <glyph glyph-name="afii10075" unicode="&#x439;" horiz-adv-x="528" 
d="M471 530v-530h-106v344q-131 -228 -199 -344h-108v530h104v-345l200 345h109zM266 579q-68 0 -103.5 45.5t-39.5 125.5h67q10 -95 76 -95t75 95h67q-4 -80 -39.5 -125.5t-102.5 -45.5z" />
    <glyph glyph-name="afii10076" unicode="&#x43a;" horiz-adv-x="478" 
d="M56 0v530h113v-243q11 23 61 94l102 149h116l-141 -195l156 -335h-116l-111 242l-67 -90v-152h-113z" />
    <glyph glyph-name="afii10077" unicode="&#x43b;" horiz-adv-x="544" 
d="M373 0v439h-172v-275q0 -54 -13.5 -88t-42.5 -49.5t-58 -20.5t-76 -5v91q48 0 62.5 14t14.5 60v364h398v-530h-113z" />
    <glyph glyph-name="afii10078" unicode="&#x43c;" horiz-adv-x="626" 
d="M152 0h-94v530h137l118 -388h1l116 388h138v-530h-99v356h-1q-2 -9 -7 -27.5t-11.5 -40.5t-8.5 -29l-87 -259h-88l-86 258q-2 10 -13.5 49t-13.5 49h-1v-356z" />
    <glyph glyph-name="afii10079" unicode="&#x43d;" horiz-adv-x="522" 
d="M58 0v530h113v-207h180v207h113v-530h-113v231h-180v-231h-113z" />
    <glyph glyph-name="afii10080" unicode="&#x43e;" horiz-adv-x="508" 
d="M254 -11q-96 0 -159 70.5t-63 205.5q0 136 63 206t159 70t158.5 -70t62.5 -206q0 -135 -63 -205.5t-158 -70.5zM254 82q107 0 107 183q0 180 -107 180q-108 0 -108 -180q0 -183 108 -183z" />
    <glyph glyph-name="afii10081" unicode="&#x43f;" horiz-adv-x="522" 
d="M58 0v530h406v-530h-113v439h-180v-439h-113z" />
    <glyph glyph-name="afii10082" unicode="&#x440;" horiz-adv-x="521" 
d="M57 -200v730h114v-65q59 76 142 76q81 0 128.5 -69t47.5 -206t-50 -205.5t-133 -68.5q-82 0 -135 67v-259h-114zM275 85q99 0 99 180q0 179 -100 179q-25 0 -55 -19t-48 -41v-242q46 -57 104 -57z" />
    <glyph glyph-name="afii10083" unicode="&#x441;" horiz-adv-x="468" 
d="M246 -11q-92 0 -153 70.5t-61 205.5q0 138 63.5 207t155.5 69q83 0 126.5 -44t64.5 -122l-102 -25q-13 49 -33.5 71.5t-57.5 22.5q-47 0 -75 -43.5t-28 -135.5q0 -182 103 -182q37 0 60.5 22.5t35.5 75.5l99 -25q-44 -167 -198 -167z" />
    <glyph glyph-name="afii10084" unicode="&#x442;" horiz-adv-x="450" 
d="M169 0v439h-152v91h416v-91h-151v-439h-113z" />
    <glyph glyph-name="afii10085" unicode="&#x443;" horiz-adv-x="468" 
d="M103 -202q-60 0 -104 14l22 90q39 -9 71 -9q29 0 44.5 15t27.5 51l11 35l-166 536h118l66 -241q27 -97 40 -162h2q18 76 42 167l66 236h110l-184 -585q-25 -78 -61 -112.5t-105 -34.5z" />
    <glyph glyph-name="afii10086" unicode="&#x444;" horiz-adv-x="795" 
d="M341 -200v269q-59 -78 -136 -78q-79 0 -125.5 67.5t-46.5 205.5t47 207.5t126 69.5q82 0 135 -69v268h114v-275q56 76 136 76q78 0 124.5 -69t46.5 -206q0 -138 -47 -206.5t-126 -68.5q-80 0 -134 73v-264h-114zM243 85q47 0 98 58v242q-50 60 -99 60q-94 0 -94 -180
t95 -180zM554 84q94 0 94 181q0 179 -95 179q-48 0 -98 -60v-241q49 -59 99 -59z" />
    <glyph glyph-name="afii10087" unicode="&#x445;" horiz-adv-x="453" 
d="M12 0l158 275l-144 255h118l92 -170l85 170h109l-144 -251l157 -279h-117l-103 193l-102 -193h-109z" />
    <glyph glyph-name="afii10088" unicode="&#x446;" horiz-adv-x="536" 
d="M408 0h-350v530h113v-438h180v438h113v-438h51v-292h-107v200z" />
    <glyph glyph-name="afii10089" unicode="&#x447;" horiz-adv-x="512" 
d="M455 530v-530h-114v227q-27 -33 -70 -56.5t-93 -23.5q-62 0 -96 38t-34 111v234h114v-208q0 -40 14.5 -58.5t46.5 -18.5q56 0 118 62v223h114z" />
    <glyph glyph-name="afii10090" unicode="&#x448;" horiz-adv-x="794" 
d="M741 530v-530h-683v530h113v-438h171v438h114v-438h171v438h114z" />
    <glyph glyph-name="afii10091" unicode="&#x449;" horiz-adv-x="812" 
d="M684 0h-626v530h113v-438h171v438h114v-438h171v438h114v-438h50v-292h-107v200z" />
    <glyph glyph-name="afii10092" unicode="&#x44a;" horiz-adv-x="544" 
d="M127 0v439h-119v91h232v-188h70q98 0 154 -37.5t56 -133.5q0 -48 -17 -82.5t-47.5 -53t-65.5 -27t-78 -8.5h-185zM240 247v-155h73q100 0 100 79q0 39 -23.5 57.5t-76.5 18.5h-73z" />
    <glyph glyph-name="afii10093" unicode="&#x44b;" horiz-adv-x="690" 
d="M518 0v530h114v-530h-114zM58 0v530h112v-188h70q98 0 154 -37.5t56 -133.5q0 -48 -17 -82.5t-47.5 -53t-65.5 -27t-78 -8.5h-184zM170 92h73q100 0 100 79q0 39 -23.5 57.5t-76.5 18.5h-73v-155z" />
    <glyph glyph-name="afii10094" unicode="&#x44c;" horiz-adv-x="475" 
d="M58 0v530h112v-188h70q98 0 154 -37.5t56 -133.5q0 -48 -17 -82.5t-47.5 -53t-65.5 -27t-78 -8.5h-184zM170 92h73q100 0 100 79q0 39 -23.5 57.5t-76.5 18.5h-73v-155z" />
    <glyph glyph-name="afii10095" unicode="&#x44d;" horiz-adv-x="459" 
d="M213 -11q-142 0 -189 144l93 30q27 -81 93 -81q46 0 74 39.5t31 109.5h-171v80h170q-5 67 -33.5 101t-70.5 34q-65 0 -87 -79l-97 27q46 147 182 147q92 0 155.5 -69t63.5 -207q0 -135 -61 -205.5t-153 -70.5z" />
    <glyph glyph-name="afii10096" unicode="&#x44e;" horiz-adv-x="698" 
d="M455 -11q-84 0 -142 62t-68 180h-74v-231h-113v530h113v-207h76q14 107 70.5 162.5t137.5 55.5q92 0 151.5 -70t59.5 -206q0 -135 -60 -205.5t-151 -70.5zM455 78q48 0 72.5 49t24.5 138q0 185 -97 185q-98 0 -98 -185q0 -86 24 -136.5t74 -50.5z" />
    <glyph glyph-name="afii10097" unicode="&#x44f;" horiz-adv-x="493" 
d="M38 0l100 200q-95 32 -95 154q0 176 206 176h186v-530h-111v183h-83l-87 -183h-116zM249 275h75v162h-75q-98 0 -98 -82q0 -41 23 -60.5t75 -19.5z" />
    <glyph glyph-name="afii10071" unicode="&#x451;" horiz-adv-x="482" 
d="M277 583v114h102v-114h-102zM102 583v114h103v-114h-103zM251 -11q-97 0 -158 69.5t-61 206.5q0 138 63.5 207t153.5 69q93 0 147 -70t54 -209v-31h-306q4 -74 33 -111.5t79 -37.5q40 0 67 17.5t54 54.5l72 -52q-31 -50 -83.5 -81.5t-114.5 -31.5zM145 311h199
q-8 135 -96 135q-41 0 -69 -32.5t-34 -102.5z" />
    <glyph glyph-name="afii10099" unicode="&#x452;" 
d="M330 -201q-47 0 -59 4v86q9 -3 32 -3q47 0 47 59v421q0 40 -14.5 58.5t-46.5 18.5q-56 0 -118 -62v-381h-114v582h-51v87h51v71h114v-71h96v-87h-96v-121q27 33 70 56.5t93 23.5q62 0 96 -38t34 -111v-458q0 -67 -29 -101t-105 -34z" />
    <glyph glyph-name="afii10100" unicode="&#x453;" horiz-adv-x="414" 
d="M176 586l81 161h119l-122 -161h-78zM394 530v-91h-223v-439h-113v530h336z" />
    <glyph glyph-name="afii10101" unicode="&#x454;" horiz-adv-x="459" 
d="M246 -11q-92 0 -153 70.5t-61 205.5q0 138 63.5 207t155.5 69q137 0 182 -147l-97 -27q-22 79 -87 79q-42 0 -70.5 -34t-33.5 -101h170v-80h-171q3 -70 31 -109.5t74 -39.5q66 0 93 81l93 -30q-47 -144 -189 -144z" />
    <glyph glyph-name="afii10102" unicode="&#x455;" horiz-adv-x="450" 
d="M225 -11q-139 0 -215 103l70 59q60 -74 147 -74t87 60q0 31 -28 51t-68 32.5t-80 28.5t-68 51.5t-28 89.5q0 70 51.5 110.5t130.5 40.5q56 0 105.5 -24t81.5 -66l-68 -62q-53 62 -120 62q-73 0 -73 -55q0 -26 20 -44.5t50 -27.5t65.5 -23t65.5 -29.5t50 -48.5t20 -79
q0 -72 -56.5 -113.5t-139.5 -41.5z" />
    <glyph glyph-name="afii10103" unicode="&#x456;" horiz-adv-x="239" 
d="M62 617v107h115v-107h-115zM62 0v530h114v-530h-114z" />
    <glyph glyph-name="afii10104" unicode="&#x457;" horiz-adv-x="239" 
d="M156 583v114h102v-114h-102zM-19 583v114h103v-114h-103zM62 0v530h114v-530h-114z" />
    <glyph glyph-name="afii10105" unicode="&#x458;" horiz-adv-x="239" 
d="M62 617v107h115v-107h-115zM42 -201q-47 0 -59 4v86q9 -3 32 -3q47 0 47 59v585h114v-596q0 -67 -29 -101t-105 -34z" />
    <glyph glyph-name="afii10106" unicode="&#x459;" horiz-adv-x="544" 
d="M373 0v439h-172v-275q0 -54 -13.5 -88t-42.5 -49.5t-58 -20.5t-76 -5v91q48 0 62.5 14t14.5 60v364h397v-188h70q98 0 154 -37.5t56 -133.5q0 -48 -17 -82.5t-47.5 -53t-65.5 -27t-78 -8.5h-184zM485 247v-155h73q100 0 100 79q0 39 -23.5 57.5t-76.5 18.5h-73z" />
    <glyph glyph-name="afii10107" unicode="&#x45a;" horiz-adv-x="522" 
d="M58 0v530h113v-193h180v193h112v-193h70q47 0 82.5 -7t65.5 -25t46 -52t16 -84q0 -91 -58 -130t-150 -39h-184v242h-180v-242h-113zM463 92h73q100 0 100 77q0 39 -23.5 56t-76.5 17h-73v-150z" />
    <glyph glyph-name="afii10108" unicode="&#x45b;" 
d="M57 0v582h-51v87h51v71h114v-71h96v-87h-96v-121q27 33 70 56.5t93 23.5q62 0 96 -38t34 -111v-392h-114v366q0 40 -14.5 58.5t-46.5 18.5q-56 0 -118 -62v-381h-114z" />
    <glyph glyph-name="afii10109" unicode="&#x45c;" horiz-adv-x="478" 
d="M207 585l81 161h119l-122 -161h-78zM56 0v530h113v-243q11 23 61 94l102 149h116l-141 -195l156 -335h-116l-111 242l-67 -90v-152h-113z" />
    <glyph glyph-name="afii10110" unicode="&#x45e;" horiz-adv-x="468" 
d="M103 -202q-60 0 -104 14l22 90q39 -9 71 -9q29 0 44.5 15t27.5 51l11 35l-166 536h118l66 -241q27 -97 40 -162h2q18 76 42 167l66 236h110l-184 -585q-25 -78 -61 -112.5t-105 -34.5zM235 579q-68 0 -103.5 45.5t-39.5 125.5h67q9 -95 76 -95q65 0 75 95h67
q-4 -80 -39.5 -125.5t-102.5 -45.5z" />
    <glyph glyph-name="afii10193" unicode="&#x45f;" horiz-adv-x="522" 
d="M204 -201v201h-146v530h113v-438h180v438h113v-530h-146v-201h-114z" />
    <glyph glyph-name="afii10050" unicode="&#x490;" horiz-adv-x="498" 
d="M69 0v740h277v125h117v-234h-276v-631h-118z" />
    <glyph glyph-name="afii10098" unicode="&#x491;" horiz-adv-x="414" 
d="M394 695v-261h-223v-434h-113v530h224v165h112z" />
    <glyph glyph-name="Wgrave" unicode="&#x1e80;" horiz-adv-x="793" 
d="M187 -3l-165 743h113l69 -339q25 -120 39 -208h2q13 85 38 208l65 339h105l68 -347q27 -136 36 -200h2q10 63 37 199l70 348h104l-165 -743h-101l-106 542h-2l-107 -542h-102zM362 785l-122 161h120l80 -161h-78z" />
    <glyph glyph-name="wgrave" unicode="&#x1e81;" horiz-adv-x="653" 
d="M140 -2l-130 532h111l51 -222q17 -73 30 -151h2q10 59 31 153l49 220h97l49 -217q24 -107 32 -156h2q7 42 30 155l50 218h99l-130 -532h-102l-83 366h-2l-85 -366h-101zM293 585l-122 161h120l80 -161h-78z" />
    <glyph glyph-name="Wacute" unicode="&#x1e82;" horiz-adv-x="793" 
d="M364 785l81 161h119l-122 -161h-78zM187 -3l-165 743h113l69 -339q25 -120 39 -208h2q13 85 38 208l65 339h105l68 -347q27 -136 36 -200h2q10 63 37 199l70 348h104l-165 -743h-101l-106 542h-2l-107 -542h-102z" />
    <glyph glyph-name="wacute" unicode="&#x1e83;" horiz-adv-x="653" 
d="M295 585l81 161h119l-122 -161h-78zM140 -2l-130 532h111l51 -222q17 -73 30 -151h2q10 59 31 153l49 220h97l49 -217q24 -107 32 -156h2q7 42 30 155l50 218h99l-130 -532h-102l-83 366h-2l-85 -366h-101z" />
    <glyph glyph-name="Wdieresis" unicode="&#x1e84;" horiz-adv-x="793" 
d="M437 783v114h102v-114h-102zM262 783v114h103v-114h-103zM187 -3l-165 743h113l69 -339q25 -120 39 -208h2q13 85 38 208l65 339h105l68 -347q27 -136 36 -200h2q10 63 37 199l70 348h104l-165 -743h-101l-106 542h-2l-107 -542h-102z" />
    <glyph glyph-name="wdieresis" unicode="&#x1e85;" horiz-adv-x="653" 
d="M366 583v114h102v-114h-102zM191 583v114h103v-114h-103zM140 -2l-130 532h111l51 -222q17 -73 30 -151h2q10 59 31 153l49 220h97l49 -217q24 -107 32 -156h2q7 42 30 155l50 218h99l-130 -532h-102l-83 366h-2l-85 -366h-101z" />
    <glyph glyph-name="Ygrave" unicode="&#x1ef2;" horiz-adv-x="551" 
d="M216 0v298l-207 442h121l147 -335h2l147 335h115l-207 -441v-299h-118zM257 785l-122 161h120l80 -161h-78z" />
    <glyph glyph-name="ygrave" unicode="&#x1ef3;" horiz-adv-x="468" 
d="M103 -202q-60 0 -104 14l22 90q39 -9 71 -9q29 0 44.5 15t27.5 51l11 35l-166 536h118l66 -241q27 -97 40 -162h2q18 76 42 167l66 236h110l-184 -585q-25 -78 -61 -112.5t-105 -34.5zM215 585l-122 161h120l80 -161h-78z" />
    <glyph glyph-name="space.en" unicode="&#x2002;" horiz-adv-x="500" 
 />
    <glyph glyph-name="space.em" unicode="&#x2003;" horiz-adv-x="1000" 
 />
    <glyph glyph-name="space.tab_en" unicode="&#x2007;" horiz-adv-x="564" 
 />
    <glyph glyph-name="space.thin" unicode="&#x2009;" horiz-adv-x="200" 
 />
    <glyph glyph-name="endash.tab" unicode="&#x2012;" horiz-adv-x="565" 
d="M52 263v98h462v-98h-462z" />
    <glyph glyph-name="endash" unicode="&#x2013;" horiz-adv-x="569" 
d="M47 262v99h474v-99h-474z" />
    <glyph glyph-name="emdash" unicode="&#x2014;" horiz-adv-x="768" 
d="M46 262v99h675v-99h-675z" />
    <glyph glyph-name="emdash.em_salt" unicode="&#x2015;" horiz-adv-x="1000" 
d="M0 266v87h1000v-87h-1000z" />
    <glyph glyph-name="quoteleft" unicode="&#x2018;" horiz-adv-x="243" 
d="M61 500v119l58 121h54l-35 -112h43v-128h-120z" />
    <glyph glyph-name="quoteright" unicode="&#x2019;" horiz-adv-x="243" 
d="M70 500l35 112h-44v128h120v-119l-57 -121h-54z" />
    <glyph glyph-name="quotesinglbase" unicode="&#x201a;" horiz-adv-x="243" 
d="M70 -112l35 112h-44v128h120v-119l-57 -121h-54z" />
    <glyph glyph-name="quotedblleft" unicode="&#x201c;" horiz-adv-x="439" 
d="M258 500v119l57 121h53l-34 -112h43v-128h-119zM61 500v119l58 121h54l-35 -112h43v-128h-120z" />
    <glyph glyph-name="quotedblright" unicode="&#x201d;" horiz-adv-x="439" 
d="M266 500l35 112h-43v128h119v-119l-57 -121h-54zM70 500l35 112h-44v128h120v-119l-57 -121h-54z" />
    <glyph glyph-name="quotedblbase" unicode="&#x201e;" horiz-adv-x="439" 
d="M266 -112l35 112h-43v128h119v-119l-57 -121h-54zM70 -112l35 112h-44v128h120v-119l-57 -121h-54z" />
    <glyph glyph-name="dagger" unicode="&#x2020;" horiz-adv-x="505" 
d="M192 -200l18 596l-177 -12v105l177 -13l-18 264h120l-17 -264l177 13v-105l-177 12l17 -596h-120z" />
    <glyph glyph-name="daggerdbl" unicode="&#x2021;" horiz-adv-x="504" 
d="M192 -200l18 222l-167 -13v102l167 -13l-14 174l14 170l-167 -12v102l167 -13l-18 221h120l-18 -221l167 13v-102l-167 12l15 -170l-15 -174l167 13v-102l-167 13l18 -222h-120z" />
    <glyph glyph-name="bullet" unicode="&#x2022;" horiz-adv-x="463" 
d="M231 227q-53 0 -88 35t-35 88q0 54 35 89t88 35q54 0 89 -35t35 -89q0 -53 -35 -88t-89 -35z" />
    <glyph glyph-name="ellipsis" unicode="&#x2026;" horiz-adv-x="723" 
d="M541 0v128h122v-128h-122zM300 0v128h122v-128h-122zM59 0v128h122v-128h-122z" />
    <glyph glyph-name="perthousand" unicode="&#x2030;" horiz-adv-x="1231" 
d="M194 283q-76 0 -117.5 59.5t-41.5 174.5t41.5 174.5t117.5 59.5t117 -59.5t41 -174.5t-41 -174.5t-117 -59.5zM203 0l376 740h96l-376 -740h-96zM1038 -9q-76 0 -117.5 59.5t-41.5 174.5q0 114 41.5 173.5t117.5 59.5t116.5 -59.5t40.5 -173.5q0 -115 -40.5 -174.5
t-116.5 -59.5zM686 -9q-76 0 -117.5 59.5t-41.5 174.5q0 114 41.5 173.5t117.5 59.5t116.5 -59.5t40.5 -173.5q0 -115 -40.5 -174.5t-116.5 -59.5zM194 369q34 0 48.5 34.5t14.5 113.5q0 78 -15 112.5t-48 34.5q-34 0 -48.5 -34t-14.5 -113q0 -78 15 -113t48 -35zM1038 76
q34 0 48.5 35t14.5 114q0 77 -15 111.5t-48 34.5q-35 0 -49.5 -33.5t-14.5 -112.5t15 -114t49 -35zM686 76q34 0 48.5 35t14.5 114q0 77 -15 111.5t-48 34.5q-35 0 -49.5 -33.5t-14.5 -112.5t15 -114t49 -35z" />
    <glyph glyph-name="prime" unicode="&#x2032;" horiz-adv-x="220" 
d="M50 481l20 201l10 58h103l-59 -259h-74z" />
    <glyph glyph-name="primedbl" unicode="&#x2033;" horiz-adv-x="387" 
d="M219 481l21 201l10 58h101l-59 -259h-73zM50 481l20 201l10 58h102l-59 -259h-73z" />
    <glyph glyph-name="guilsinglleft" unicode="&#x2039;" horiz-adv-x="296" 
d="M153 0l-129 265l129 264h109l-125 -264l125 -265h-109z" />
    <glyph glyph-name="guilsinglright" unicode="&#x203a;" horiz-adv-x="296" 
d="M33 0l126 265l-126 264h109l130 -264l-130 -265h-109z" />
    <glyph glyph-name="fraction" unicode="&#x2044;" horiz-adv-x="457" 
d="M-7 0l368 740h103l-368 -740h-103z" />
    <glyph glyph-name="fraction" unicode="&#x2215;" horiz-adv-x="457" 
d="M-7 0l368 740h103l-368 -740h-103z" />
    <glyph glyph-name="zero.sups" unicode="&#x2070;" horiz-adv-x="431" 
d="M216 280q-78 0 -121 60t-43 174t43 174.5t121 60.5t121 -60.5t43 -174.5t-43 -174t-121 -60zM216 358q38 0 54.5 37t16.5 119q0 81 -17 118t-54 37q-38 0 -54.5 -37t-16.5 -118t17 -118.5t54 -37.5z" />
    <glyph glyph-name="four.sups" unicode="&#x2074;" horiz-adv-x="390" 
d="M206 289v98h-173v62l169 291h93v-277h59v-76h-59v-98h-89zM118 459h93v165z" />
    <glyph glyph-name="five.sups" unicode="&#x2075;" horiz-adv-x="387" 
d="M192 280q-62 0 -97.5 24t-58.5 71l69 38q15 -30 34 -43.5t49 -13.5q63 0 63 86q0 79 -57 79q-38 0 -60 -35l-71 12l15 242h240l-5 -77h-165l-6 -99q30 25 77 25q59 0 91 -37.5t32 -112.5q0 -78 -39.5 -118.5t-110.5 -40.5z" />
    <glyph glyph-name="six.sups" unicode="&#x2076;" horiz-adv-x="402" 
d="M208 280q-156 0 -156 229q0 240 165 240q87 0 130 -74l-70 -41q-26 41 -62 41q-38 0 -55 -30t-20 -100q46 39 94 39q122 0 122 -149q0 -68 -40.5 -111.5t-107.5 -43.5zM210 354q60 0 60 80q0 78 -57 78q-37 0 -72 -38q7 -120 69 -120z" />
    <glyph glyph-name="seven.sups" unicode="&#x2077;" horiz-adv-x="349" 
d="M68 289l152 374h-176v77h269v-73l-152 -378h-93z" />
    <glyph glyph-name="eight.sups" unicode="&#x2078;" horiz-adv-x="400" 
d="M200 280q-74 0 -115 33t-41 88q0 74 86 123q-35 21 -51.5 46t-16.5 65q0 48 37 81t101 33q66 0 102 -31t36 -83q0 -38 -16.5 -62.5t-51.5 -46.5q43 -24 64 -51t21 -74q0 -54 -41.5 -87.5t-113.5 -33.5zM199 346q30 0 48 17t18 45q0 26 -16.5 43.5t-54.5 37.5
q-32 -19 -47 -37t-15 -44q0 -28 18 -45t49 -17zM205 559q48 28 48 68q0 53 -51 53q-26 0 -39 -14.5t-13 -36.5q0 -25 13 -39.5t42 -30.5z" />
    <glyph glyph-name="nine.sups" unicode="&#x2079;" horiz-adv-x="402" 
d="M186 280q-87 0 -130 74l69 41q28 -41 63 -41q37 0 54 30t20 100q-46 -39 -94 -39q-122 0 -122 149q0 68 41 111.5t108 43.5q155 0 155 -229q0 -240 -164 -240zM190 514q36 0 72 39q-8 120 -70 120q-59 0 -59 -81q0 -78 57 -78z" />
    <glyph glyph-name="zero.sinf" unicode="&#x2080;" horiz-adv-x="431" 
d="M216 -208q-78 0 -121 60t-43 174t43 174.5t121 60.5t121 -60.5t43 -174.5t-43 -174t-121 -60zM216 -130q38 0 54.5 37t16.5 119q0 81 -17 118t-54 37q-38 0 -54.5 -37t-16.5 -118t17 -118.5t54 -37.5z" />
    <glyph glyph-name="one.sinf" unicode="&#x2081;" horiz-adv-x="311" 
d="M48 -199v78h67v278q-29 -12 -66 -12v79q52 3 77 28h83v-373h59v-78h-220z" />
    <glyph glyph-name="two.sinf" unicode="&#x2082;" horiz-adv-x="363" 
d="M36 -197v23q0 51 20.5 91t49 65.5t57.5 47.5t49.5 47.5t20.5 55.5q0 51 -46 51q-43 0 -72 -74l-78 33q23 60 59.5 89t93.5 29q63 0 98 -33.5t35 -94.5q0 -36 -18 -67.5t-43.5 -53.5t-51.5 -42t-46 -42.5t-22 -45.5h180v-79h-286z" />
    <glyph glyph-name="three.sinf" unicode="&#x2083;" horiz-adv-x="373" 
d="M183 -203q-112 0 -157 112l71 35q29 -71 84 -71q31 0 47.5 17.5t16.5 46.5q0 40 -22 57.5t-70 17.5h-21v58h28q76 0 76 63q0 22 -13 36.5t-37 14.5q-44 0 -83 -51l-62 45q58 85 151 85q62 0 96.5 -33t34.5 -85q0 -70 -62 -100q71 -31 71 -111q0 -63 -41 -100t-108 -37z
" />
    <glyph glyph-name="four.sinf" unicode="&#x2084;" horiz-adv-x="390" 
d="M206 -199v98h-173v62l169 291h93v-277h59v-76h-59v-98h-89zM118 -29h93v165z" />
    <glyph glyph-name="five.sinf" unicode="&#x2085;" horiz-adv-x="387" 
d="M192 -208q-62 0 -97.5 24t-58.5 71l69 38q15 -30 34 -43.5t49 -13.5q63 0 63 86q0 79 -57 79q-38 0 -60 -35l-71 12l15 242h240l-5 -77h-165l-6 -99q30 25 77 25q59 0 91 -37.5t32 -112.5q0 -78 -39.5 -118.5t-110.5 -40.5z" />
    <glyph glyph-name="six.sinf" unicode="&#x2086;" horiz-adv-x="402" 
d="M208 -208q-156 0 -156 229q0 240 165 240q87 0 130 -74l-70 -41q-26 41 -62 41q-38 0 -55 -30t-20 -100q46 39 94 39q122 0 122 -149q0 -68 -40.5 -111.5t-107.5 -43.5zM210 -134q60 0 60 80q0 78 -57 78q-37 0 -72 -38q7 -120 69 -120z" />
    <glyph glyph-name="seven.sinf" unicode="&#x2087;" horiz-adv-x="349" 
d="M68 -199l152 374h-176v77h269v-73l-152 -378h-93z" />
    <glyph glyph-name="eight.sinf" unicode="&#x2088;" horiz-adv-x="400" 
d="M200 -208q-74 0 -115 33t-41 88q0 74 86 123q-35 21 -51.5 46t-16.5 65q0 48 37 81t101 33q66 0 102 -31t36 -83q0 -38 -16.5 -62.5t-51.5 -46.5q43 -24 64 -51t21 -74q0 -54 -41.5 -87.5t-113.5 -33.5zM199 -142q30 0 48 17t18 45q0 26 -16.5 43.5t-54.5 37.5
q-32 -19 -47 -37t-15 -44q0 -28 18 -45t49 -17zM205 71q48 28 48 68q0 53 -51 53q-26 0 -39 -14.5t-13 -36.5q0 -25 13 -39.5t42 -30.5z" />
    <glyph glyph-name="nine.sinf" unicode="&#x2089;" horiz-adv-x="402" 
d="M186 -208q-87 0 -130 74l69 41q28 -41 63 -41q37 0 54 30t20 100q-46 -39 -94 -39q-122 0 -122 149q0 68 41 111.5t108 43.5q155 0 155 -229q0 -240 -164 -240zM190 26q36 0 72 39q-8 120 -70 120q-59 0 -59 -81q0 -78 57 -78z" />
    <glyph glyph-name="Euro" unicode="&#x20ac;" horiz-adv-x="617" 
d="M108 402h-92v83h99q18 137 81 203t160 66q95 0 151.5 -58.5t72.5 -161.5l-108 -18q-11 65 -38 99.5t-77 34.5q-106 0 -128 -165h158v-83h-165v-29q0 -27 1 -40h164v-83h-158q11 -83 42.5 -122.5t88.5 -39.5q97 0 122 141l106 -14q-17 -101 -76 -165t-152 -64
q-207 0 -244 264h-100v83h93q-1 13 -1 39v30z" />
    <glyph glyph-name="litre" unicode="&#x2113;" horiz-adv-x="539" 
d="M296 -1q-76 0 -108.5 42t-33.5 124v71l-54 -51l-36 67l90 79v222q0 84 41.5 138t118.5 54q65 0 97.5 -38.5t32.5 -90.5q0 -74 -36 -133t-105 -124l-26 -31v-145q0 -83 65 -83q38 0 71 35l43 -58q-70 -78 -160 -78zM277 424l38 47q51 70 51 135q0 57 -39 57q-26 0 -38 -25
t-12 -82v-132z" />
    <glyph glyph-name="afii61352" unicode="&#x2116;" horiz-adv-x="989" 
d="M655 224v83h283v-83h-283zM795 364q-68 0 -112.5 50t-44.5 145q0 96 44.5 145.5t112.5 49.5t112.5 -49.5t44.5 -145.5t-44.5 -145.5t-112.5 -49.5zM795 430q73 0 73 129q0 126 -73 126t-73 -126q0 -129 73 -129zM69 0v740h127l201 -393q29 -57 63 -129h2v522h107v-740
h-109l-220 418q-44 87 -62 125h-2v-543h-107z" />
    <glyph glyph-name="copyrightsound" unicode="&#x2117;" horiz-adv-x="717" 
d="M358 -14q-138 0 -229.5 110.5t-91.5 272.5t92.5 273.5t229.5 111.5q138 0 229.5 -110.5t91.5 -272.5t-92.5 -273.5t-229.5 -111.5zM359 41q113 0 187 94t74 234t-74.5 235t-187.5 95t-187 -94t-74 -234t74.5 -235t187.5 -95zM243 159v419h131q136 0 136 -128
q0 -132 -141 -132h-50v-159h-76zM319 385h53q63 0 63 62t-64 62h-52v-124z" />
    <glyph glyph-name="trademark" unicode="&#x2122;" horiz-adv-x="768" 
d="M354 313v427h103l81 -311l81 311h103v-427h-76v295l-78 -295h-65l-79 295v-295h-70zM124 313v355h-100v72h280v-72h-101v-355h-79z" />
    <glyph glyph-name="Omega" unicode="&#x2126;" horiz-adv-x="651" 
d="M53 0v106h128q-47 41 -89.5 118t-42.5 182q0 157 77.5 252.5t199.5 95.5t199 -96t77 -252q0 -73 -25.5 -140t-51.5 -101t-54 -59h128v-106h-232v97q44 41 80.5 116t36.5 180q0 114 -41 182.5t-117 68.5q-75 0 -117 -67.5t-42 -182.5q0 -107 36.5 -182t81.5 -115v-97h-232
z" />
    <glyph glyph-name="estimated" unicode="&#x212e;" horiz-adv-x="697" 
d="M664 318h-490v-220q71 -71 174 -71q84 0 137.5 37t99.5 108l37 -23q-50 -78 -114 -119.5t-160 -41.5q-138 0 -224 96t-86 235q0 141 85.5 236t227.5 95t226.5 -95.5t86.5 -236.5zM525 358v182q-76 71 -175 71q-105 0 -176 -71v-182h351z" />
    <glyph glyph-name="partialdiff" unicode="&#x2202;" horiz-adv-x="507" 
d="M257 756q116 -85 166.5 -200t50.5 -283q0 -137 -60 -210.5t-160 -73.5q-101 0 -161.5 70.5t-60.5 192.5q0 123 55.5 189.5t146.5 66.5q38 0 73.5 -18t54.5 -52q-27 137 -166 254zM254 81q52 0 79.5 45t27.5 128q0 80 -27.5 125t-79.5 45t-80 -43.5t-28 -127.5
q0 -82 27 -127t81 -45z" />
    <glyph glyph-name="Delta" unicode="&#x2206;" horiz-adv-x="583" 
d="M19 0l216 743h113l216 -743h-545zM421 93l-76 279q-40 141 -55 213h-2q-13 -58 -56 -211l-77 -281h266z" />
    <glyph glyph-name="product" unicode="&#x220f;" horiz-adv-x="629" 
d="M69 -200v940h491v-940h-118v831h-255v-831h-118z" />
    <glyph glyph-name="summation" unicode="&#x2211;" horiz-adv-x="512" 
d="M28 -200v94l182 390l-166 360v96h433v-109h-295l159 -347l-173 -378h313v-106h-453z" />
    <glyph glyph-name="minus" unicode="&#x2212;" horiz-adv-x="550" 
d="M51 288v95h448v-95h-448z" />
    <glyph glyph-name="radical" unicode="&#x221a;" horiz-adv-x="514" 
d="M166 -2l-158 532h115l72 -268q21 -84 35 -144h2q13 59 34 143l133 479h107l-219 -742h-121z" />
    <glyph glyph-name="infinity" unicode="&#x221e;" horiz-adv-x="667" 
d="M181 171q-75 0 -115.5 48t-40.5 140q0 91 40.5 140t115.5 49q91 0 152 -108q63 108 154 108q76 0 116 -48.5t40 -140.5t-40 -140t-116 -48q-90 0 -154 110q-62 -110 -152 -110zM186 260q34 0 57 25t48 74q-17 33 -28.5 51t-32 34t-44.5 16q-35 0 -54.5 -26t-19.5 -75
q0 -48 19.5 -73.5t54.5 -25.5zM482 260q74 0 74 99q0 101 -74 101q-34 0 -57.5 -26t-47.5 -74q24 -48 47.5 -74t57.5 -26z" />
    <glyph glyph-name="integral" unicode="&#x222b;" horiz-adv-x="322" 
d="M74 -201q-43 0 -58 3v84q15 -3 31 -3q48 0 48 59v653q0 71 35.5 109t120.5 38q46 0 58 -3v-87q-8 2 -34 2q-67 0 -67 -62v-658q0 -68 -29 -101.5t-105 -33.5z" />
    <glyph glyph-name="approxequal" unicode="&#x2248;" horiz-adv-x="582" 
d="M400 140q-41 1 -121.5 36t-99.5 35q-40 2 -46 -44l-72 11q7 65 38 98t77 32q41 -1 121 -36.5t99 -35.5q39 -2 45 43l74 -8q-7 -66 -37.5 -99t-77.5 -32zM406 348q-41 1 -121.5 36.5t-99.5 35.5q-37 2 -45 -44l-73 11q7 65 38 98t78 31q41 -1 121 -36t99 -35q39 -2 45 43
l73 -9q-7 -66 -38 -99.5t-77 -31.5z" />
    <glyph glyph-name="notequal" unicode="&#x2260;" horiz-adv-x="567" 
d="M120 -1l63 176h-122v87h150l50 128h-200v87h229l67 184h97l-67 -184h119v-87h-147l-50 -128h197v-87h-226l-63 -176h-97z" />
    <glyph glyph-name="lessequal" unicode="&#x2264;" horiz-adv-x="579" 
d="M507 159l-442 178v74l442 182v-102l-313 -117l313 -114v-101zM60 43v90h455v-90h-455z" />
    <glyph glyph-name="greaterequal" unicode="&#x2265;" horiz-adv-x="579" 
d="M76 159v101l313 114l-313 117v102l442 -182v-74zM65 43v90h455v-90h-455z" />
    <glyph glyph-name="lozenge" unicode="&#x25ca;" horiz-adv-x="558" 
d="M233 0l-195 370l195 370h88l200 -370l-196 -370h-92zM279 127l130 243l-130 243l-129 -243z" />
    <glyph glyph-name="u2022.check" unicode="&#x2713;" horiz-adv-x="567" 
d="M326 -1h-125l-192 532h129l130 -392h2l200 601h119z" />
    <glyph glyph-name="apple" unicode="&#xf8ff;" horiz-adv-x="770" 
d="M176 578v29l167 -13l-18 146h120l-18 -146l167 13v-29h28l-13 -167l146 18v-120l-146 18l13 -167h-28v-26l-167 13l18 -147h-120l18 147l-167 -13v26h-27l13 167l-147 -18v120l147 -18l-13 167h27zM534 519l-112 8v-121h120zM348 406v121l-111 -8l-9 -113h120zM422 332
v-119l112 8l8 111h-120zM236 221l112 -8v119h-120z" />
    <glyph glyph-name="NUL" horiz-adv-x="0" 
 />
    <glyph glyph-name="fi" horiz-adv-x="536" 
d="M359 617v107h115v-107h-115zM94 0v439h-76v91h76v65q0 147 152 147q41 0 53 -3v-92q-8 2 -29 2q-62 0 -62 -62v-57h87v-91h-87v-439h-114zM360 0v530h113v-530h-113z" />
    <glyph glyph-name="fl" horiz-adv-x="536" 
d="M94 0v439h-76v91h76v65q0 147 152 147q41 0 53 -3v-92q-8 2 -29 2q-62 0 -62 -62v-57h87v-91h-87v-439h-114zM360 0v740h113v-740h-113z" />
    <glyph glyph-name="four.tab" horiz-adv-x="565" 
d="M330 0v164h-293v84l276 492h130v-482h93v-94h-93v-164h-113zM149 258h183v322h-2z" />
    <glyph glyph-name="five.tab" horiz-adv-x="565" 
d="M272 -12q-148 0 -223 140l77 55q51 -100 143 -100q63 0 94 45t31 119q0 76 -29.5 116t-83.5 40q-69 0 -119 -79l-82 21l24 395h368l-6 -95h-268l-14 -208q43 58 129 58q91 0 143.5 -63.5t52.5 -181.5q0 -123 -63 -192.5t-174 -69.5z" />
    <glyph glyph-name="zero.tab" horiz-adv-x="565" 
d="M283 -12q-120 0 -183.5 97t-63.5 285t63.5 285t183.5 97t183 -97.5t63 -284.5t-63 -284.5t-183 -97.5zM283 84q133 0 133 286q0 285 -133 285q-67 0 -100.5 -68t-33.5 -217q0 -286 134 -286z" />
    <glyph glyph-name="eight.tab" horiz-adv-x="565" 
d="M283 -14q-114 0 -178.5 54t-64.5 141q0 123 153 207q-63 37 -94 78.5t-31 107.5q0 75 58 127t157 52q100 0 157 -52t57 -127q0 -111 -127 -182q38 -21 62.5 -39t47.5 -43t34 -57t11 -72q0 -86 -65 -140.5t-177 -54.5zM282 73q59 0 93.5 31t34.5 82q0 49 -32 82.5
t-101 69.5q-62 -35 -92 -70.5t-30 -81.5q0 -49 35 -81t92 -32zM289 439q51 30 74 58.5t23 69.5q0 40 -25 68.5t-77 28.5q-50 0 -77 -27.5t-27 -66.5q0 -44 26 -72.5t83 -58.5z" />
    <glyph glyph-name="one.tab" horiz-adv-x="565" 
d="M102 0v95h137v534q-23 -14 -64 -24t-71 -10v97q98 4 138 48h111v-645h121v-95h-372z" />
    <glyph glyph-name="three.tab" horiz-adv-x="565" 
d="M268 -12q-155 0 -230 151l83 49q50 -105 145 -105q56 0 86.5 32.5t30.5 91.5q0 77 -38.5 108t-131.5 31h-26v89h31q88 0 120 28t32 90q0 101 -101 101q-78 0 -130 -86l-78 54q74 130 218 130q102 0 153.5 -51t51.5 -136q0 -70 -32.5 -114t-92.5 -57q142 -31 142 -189
q0 -97 -62.5 -157t-170.5 -60z" />
    <glyph glyph-name="seven.tab" horiz-adv-x="565" 
d="M128 0l253 642h-309v98h428v-92l-254 -648h-118z" />
    <glyph glyph-name="nine.tab" horiz-adv-x="565" 
d="M255 -12q-123 0 -185 96l65 62q27 -33 53 -49t64 -16q67 0 105 69t42 191q-72 -72 -158 -72q-95 0 -146.5 63.5t-51.5 172.5q0 110 61 178.5t168 68.5q112 0 176.5 -93t64.5 -276q0 -184 -71.5 -289.5t-186.5 -105.5zM264 364q78 0 134 69q-10 223 -131 223
q-55 0 -84 -37.5t-29 -108.5q0 -146 110 -146z" />
    <glyph glyph-name="six.tab" horiz-adv-x="565" 
d="M292 -12q-111 0 -176 93.5t-65 275.5q0 184 71.5 289.5t187.5 105.5q121 0 180 -92l-66 -63q-25 30 -50 44t-62 14q-68 0 -105.5 -67t-40.5 -189q67 72 157 72q95 0 146.5 -63t51.5 -173t-61 -178.5t-168 -68.5zM297 80q54 0 83.5 40t29.5 111q0 145 -110 145
q-79 0 -134 -70q10 -226 131 -226z" />
    <glyph glyph-name="two.tab" horiz-adv-x="565" 
d="M54 0v16q0 100 40 174t148 153q78 61 109 102t31 101q0 51 -25 79t-72 28q-87 0 -133 -121l-90 42q68 178 227 178q98 0 152 -53t54 -148q0 -72 -33 -128.5t-113 -116.5q-86 -66 -126 -114t-45 -96h320v-96h-444z" />
    <glyph glyph-name="minus.tab" horiz-adv-x="565" 
d="M60 293v95h445v-95h-445z" />
    <glyph glyph-name="multiply.tab" horiz-adv-x="565" 
d="M138 112l-66 67l144 142l-144 143l66 67l144 -144l143 144l67 -67l-144 -142l145 -143l-66 -66l-144 143z" />
    <glyph glyph-name="plusminus.tab" horiz-adv-x="565" 
d="M58 42v88h177v183h-177v92h177v199h96v-199h176v-92h-176v-183h176v-88h-449z" />
    <glyph glyph-name="less.tab" horiz-adv-x="565" 
d="M503 71l-443 216v74l443 217v-102l-326 -152l326 -152v-101z" />
    <glyph glyph-name="dollar.tab" horiz-adv-x="565" 
d="M252 84v253q-43 18 -71.5 34t-58 41.5t-44.5 60.5t-15 79q0 81 50 134t137 60v73h75v-76q125 -21 178 -145l-86 -45q-37 81 -94 98v-227q45 -20 74.5 -37.5t62 -45t48.5 -64.5t16 -84q0 -83 -51 -135.5t-148 -61.5v-89h-75v89q-141 17 -207 167l88 39q47 -102 121 -118z
M252 458v196q-32 -6 -55.5 -28t-23.5 -62q0 -64 79 -106zM323 306v-223q92 14 92 97q0 45 -23.5 73.5t-68.5 52.5z" />
    <glyph glyph-name="yen.tab" horiz-adv-x="565" 
d="M224 0v106h-154v76h154v75h-154v74h147l-193 409h121l141 -319h1q7 23 138 319h116l-194 -409h148v-74h-155v-75h155v-76h-155v-106h-116z" />
    <glyph glyph-name="Euro.tab" horiz-adv-x="565" 
d="M326 -12q-200 0 -236 266h-85v75h79q-1 12 -1 77h-78v74h84q17 139 79 205.5t156 66.5t143.5 -55t70.5 -160l-102 -23q-16 76 -39 108.5t-72 32.5q-52 0 -83.5 -44.5t-40.5 -130.5h143v-74h-148v-77h148v-75h-142q9 -87 39.5 -128.5t85.5 -41.5q50 0 76.5 36t40.5 113
l101 -20q-49 -225 -219 -225z" />
    <glyph glyph-name="greater.tab" horiz-adv-x="565" 
d="M68 71v101l326 152l-326 152v102l443 -217v-74z" />
    <glyph glyph-name="sterling.tab" horiz-adv-x="565" 
d="M137 -12q-48 0 -81.5 28t-33.5 80q0 53 32.5 84.5t81.5 31.5q46 0 86 -35q0 101 -34 170h-113v74h77q-37 81 -37 144q0 83 49.5 135t132.5 52q174 0 190 -193l-99 -16q-10 116 -87 116q-36 0 -56 -24t-20 -69q0 -53 43 -145h145v-74h-113q23 -67 23 -128q0 -53 -18 -104
q41 -39 72 -39q32 0 46 27.5t17 98.5h94q-2 -104 -32.5 -159t-108.5 -55q-69 0 -134 59q-48 -59 -122 -59zM139 55q49 0 68 48q-34 41 -68 41q-19 0 -30.5 -12t-11.5 -33q0 -20 12 -32t30 -12z" />
    <glyph glyph-name="ordfeminine.tab" horiz-adv-x="565" 
d="M226 362q-42 0 -67 25t-25 70q0 125 202 157v18q0 50 -46 50q-52 0 -94 -48l-50 38q52 77 155 77q118 0 118 -123v-165q0 -66 10 -92h-85q-7 24 -8 46q-48 -53 -110 -53zM256 431q43 0 80 35v94q-120 -22 -120 -89q0 -40 40 -40z" />
    <glyph glyph-name="slash.tab" horiz-adv-x="565" 
d="M44 0l364 740h113l-364 -740h-113z" />
    <glyph glyph-name="lessequal.tab" horiz-adv-x="565" 
d="M502 159l-442 178v74l442 182v-102l-313 -117l313 -114v-101zM55 43v90h455v-90h-455z" />
    <glyph glyph-name="equal.tab" horiz-adv-x="565" 
d="M60 175v88h444v-88h-444zM60 389v89h444v-89h-444z" />
    <glyph glyph-name="plus.tab" horiz-adv-x="565" 
d="M234 96v197h-176v95h176v198h98v-198h175v-95h-175v-197h-98z" />
    <glyph glyph-name="divide.tab" horiz-adv-x="565" 
d="M229 102v106h105v-106h-105zM58 293v95h449v-95h-449zM229 473v106h105v-106h-105z" />
    <glyph glyph-name="hyphen.tab" horiz-adv-x="565" 
d="M170 262v100h225v-100h-225z" />
    <glyph glyph-name="cent.tab" horiz-adv-x="565" 
d="M174 -129l29 140q-58 29 -90 94t-32 160q0 137 63 206t155 69h3l17 98h73l-22 -110q87 -33 121 -151l-94 -27q-16 64 -47 86l-67 -361h12q73 0 105 107l92 -26q-48 -166 -198 -166q-8 0 -24 2l-23 -121h-73zM189 265q0 -106 35 -154l63 341q-44 -4 -71 -50.5t-27 -136.5z
" />
    <glyph glyph-name="greaterequal.tab" horiz-adv-x="565" 
d="M66 159v101l313 114l-313 117v102l442 -182v-74zM55 43v90h455v-90h-455z" />
    <glyph glyph-name="ordmasculine.tab" horiz-adv-x="565" 
d="M283 361q-68 0 -112.5 49.5t-44.5 144.5q0 96 44.5 145.5t112.5 49.5t112 -49.5t44 -145.5q0 -95 -44.5 -144.5t-111.5 -49.5zM283 427q71 0 71 128q0 127 -71 127q-73 0 -73 -127q0 -128 73 -128z" />
    <glyph glyph-name="florin.tab" horiz-adv-x="565" 
d="M41 -199l11 86q14 -2 34 -2q69 0 77 69l59 420h-78q2 5 11 85h78l18 136q10 76 50 111.5t129 35.5q6 0 57 -3l-12 -87q-14 2 -34 2q-70 0 -76 -62l-19 -133h97l-11 -85h-97l-60 -435q-10 -73 -49 -106.5t-124 -33.5q-10 0 -32 1t-29 1z" />
    <glyph glyph-name="percent.tab" horiz-adv-x="854" 
d="M201 293q-75 0 -114 60t-39 167q0 109 39.5 168.5t114.5 59.5t114 -59.5t39 -166.5q0 -106 -39.5 -167.5t-114.5 -61.5zM201 373q63 0 63 148q0 146 -63 146q-62 0 -62 -145q0 -149 62 -149zM653 -8q-75 0 -114 60t-39 166q0 108 40 168.5t114 60.5q75 0 114 -60t39 -167
q0 -106 -39.5 -167t-114.5 -61zM654 72q62 0 62 147t-63 147q-62 0 -62 -146q0 -148 63 -148zM215 0l345 740h79l-344 -740h-80z" />
    <glyph glyph-name="approxequal.tab" horiz-adv-x="565" 
d="M392 140q-41 1 -121.5 36t-99.5 35q-40 2 -46 -44l-72 11q7 65 38 98t77 32q41 -1 121 -36.5t99 -35.5q39 -2 45 43l74 -8q-7 -66 -37.5 -99t-77.5 -32zM398 348q-41 1 -121.5 36.5t-99.5 35.5q-37 2 -45 -44l-73 11q7 65 38 98t78 31q41 -1 121 -36t99 -35q39 -2 45 43
l73 -9q-7 -66 -38 -99.5t-77 -31.5z" />
    <glyph glyph-name="numbersign.tab" horiz-adv-x="565" 
d="M75 0l31 204h-76v89h89l25 154h-83v89h95l31 204h95l-33 -204h109l32 204h94l-32 -204h82v-89h-94l-25 -154h89v-89h-101l-31 -204h-94l30 204h-107l-32 -204h-94zM212 293h109l25 154h-109z" />
    <glyph glyph-name="comma.tab" horiz-adv-x="283" 
d="M95 -112l33 112h-51v128h128v-115l-59 -125h-51z" />
    <glyph glyph-name="parenright.tab" horiz-adv-x="565" 
d="M198 -205l-65 47q159 190 159 438q0 249 -157 436l63 49q213 -211 213 -485t-213 -485z" />
    <glyph glyph-name="period.tab" horiz-adv-x="283" 
d="M77 0v128h128v-128h-128z" />
    <glyph glyph-name="colon.tab" horiz-adv-x="283" 
d="M77 0v127h127v-127h-127zM77 403v128h127v-128h-127z" />
    <glyph glyph-name="parenleft.tab" horiz-adv-x="565" 
d="M368 -205q-213 211 -213 485t213 485l62 -49q-156 -191 -156 -436q0 -252 158 -438q-39 -38 -64 -47z" />
    <glyph glyph-name="semicolon.tab" horiz-adv-x="283" 
d="M94 -112l33 112h-50v127h127v-112l-58 -127h-52zM77 403v128h127v-128h-127z" />
    <glyph glyph-name="onehalf.tab" horiz-adv-x="851" 
d="M503 0v22q0 60 25 106.5t91 93.5q33 26 47 39t26 34t12 46q0 56 -49 56q-50 0 -78 -77l-71 34q48 122 153 122q65 0 100.5 -35.5t35.5 -98.5q0 -86 -97 -152q-82 -63 -90 -112h189v-78h-294zM53 274v77h70v294q-32 -13 -69 -13v79q55 3 77 29h85v-389h61v-77h-224zM203 0
l319 740h94l-319 -740h-94z" />
    <glyph glyph-name="onequarter.tab" horiz-adv-x="851" 
d="M64 274v77h70v294q-32 -13 -69 -13v79q54 3 76 29h85v-389h62v-77h-224zM640 0v105h-183v60l178 304h95v-289h62v-75h-62v-105h-90zM214 0l319 740h94l-318 -740h-95zM552 180h90v159z" />
    <glyph glyph-name="threequarters.tab" horiz-adv-x="851" 
d="M192 264q-105 0 -152 108l64 37q32 -68 83 -68q63 0 63 68q0 41 -20.5 58.5t-72.5 17.5h-26v68h28q47 0 65 15t18 49q0 53 -50 53q-42 0 -80 -54l-58 43q53 89 144 89q68 0 101 -33.5t33 -89.5q0 -81 -66 -103q75 -24 75 -115q0 -66 -39 -104.5t-110 -38.5zM661 0v105
h-182v60l177 304h95v-289h62v-75h-62v-105h-90zM239 0l319 740h94l-319 -740h-94zM573 180h90v159z" />
    <glyph glyph-name="notequal.tab" horiz-adv-x="565" 
d="M115 -1l63 176h-122v87h150l50 128h-200v87h229l67 184h97l-67 -184h119v-87h-147l-50 -128h197v-87h-226l-63 -176h-97z" />
    <glyph glyph-name="space.tab" horiz-adv-x="283" 
 />
    <glyph glyph-name="quotesingle.tab" horiz-adv-x="565" 
d="M244 478l-14 201v61h106v-61l-14 -201h-78z" />
    <glyph glyph-name="quotedbl.tab" horiz-adv-x="565" 
d="M159 478l-15 201v61h106v-61l-15 -201h-76zM331 478l-15 201v61h105v-61l-14 -201h-76z" />
    <glyph glyph-name="ffl.sc" horiz-adv-x="1234" 
d="M1220 0h-342v592h115v-493h227v-99zM581 0h-115v592h343v-101h-228v-143h164v-98h-164v-250zM170 0h-115v592h343v-101h-228v-143h164v-98h-164v-250z" />
    <glyph glyph-name="Aring.sc" horiz-adv-x="499" 
d="M118 0h-105l176 575q-33 26 -33 76q0 45 26.5 74t67.5 29t67.5 -29t26.5 -74q0 -52 -34 -76l176 -575h-113l-41 141h-172zM226 378l-44 -154h128q-31 116 -42 153q-7 29 -20 71h-2q-5 -20 -20 -70zM250 598q19 0 30.5 14.5t11.5 38.5q0 23 -11.5 37.5t-30.5 14.5
t-30 -14.5t-11 -37.5t11 -38t30 -15z" />
    <glyph glyph-name="yen.sc" horiz-adv-x="470" 
d="M290 0h-110v86h-125v64h125v55h-125v64h120l-159 323h112l71 -162q6 -12 21 -45t17 -38q4 8 19.5 42.5t18.5 41.5l71 161h108l-159 -323h121v-64h-126v-55h126v-64h-126v-86z" />
    <glyph glyph-name="Ograve.sc" horiz-adv-x="545" 
d="M333 638h-77l-122 161h119zM273 -10q-105 0 -173.5 78t-68.5 228t68 228t174 78q105 0 173 -78t68 -228t-68 -228t-173 -78zM273 90q61 0 95 51.5t34 154.5q0 102 -34 153t-95 51q-62 0 -95.5 -50.5t-33.5 -153.5q0 -206 129 -206z" />
    <glyph glyph-name="dollar.sc" horiz-adv-x="496" 
d="M282 1v-74h-72v75q-127 16 -173 146q2 1 22 7.5t41.5 12.5t23.5 7q30 -73 88 -88v183q-37 15 -60 27t-47.5 32t-36 48t-11.5 64q0 63 40.5 104t112.5 49v62h72v-62q106 -17 153 -132l-83 -33q-27 61 -72 77v-166q43 -18 65.5 -30t50.5 -33.5t40.5 -50.5t12.5 -67
q0 -64 -44 -107t-123 -51zM280 240v-156q71 8 71 67q0 54 -71 89zM154 447q0 -46 58 -77v140q-58 -12 -58 -63z" />
    <glyph glyph-name="four.sc" horiz-adv-x="469" 
d="M368 0h-103v122h-244v84l232 386h115v-377h84v-93h-84v-122zM266 444l-134 -229h135v229h-1z" />
    <glyph glyph-name="questiondown.sc" horiz-adv-x="423" 
d="M168 485v106h121v-106h-121zM180 423h96q1 -17 1 -48q-1 -47 -19.5 -77.5t-53.5 -57.5t-50 -47t-15 -48q0 -60 80 -60q69 0 103 70l90 -38q-26 -62 -80 -96t-127 -34q-83 0 -129 40.5t-46 105.5q0 37 14 68t30 48t45 41q36 28 50 54.5t11 78.5z" />
    <glyph glyph-name="perthousand.sc" horiz-adv-x="1111" 
d="M173 231q-68 0 -104 50.5t-36 135.5t37 136t104 51q65 0 100.5 -50.5t35.5 -135.5t-35.5 -136t-101.5 -51zM289 0h-96l304 592h96zM939 -9q-68 0 -104 50.5t-36 134.5q0 86 37 137t104 51q65 0 101.5 -50.5t36.5 -135.5q0 -84 -36.5 -135.5t-102.5 -51.5zM616 -9
q-67 0 -103.5 50.5t-36.5 134.5q0 86 37.5 137t102.5 51q66 0 102 -50.5t36 -135.5q0 -84 -36 -135.5t-102 -51.5zM173 307q48 0 48 110t-48 110q-51 0 -51 -109q0 -111 51 -111zM940 67q48 0 48 110q0 109 -49 109q-50 0 -50 -108q0 -111 51 -111zM616 67q48 0 48 110
q0 109 -48 109q-50 0 -50 -108q0 -111 50 -111z" />
    <glyph glyph-name="Ccedilla.sc" horiz-adv-x="509" 
d="M260 -198q-72 0 -125 35l24 41q41 -28 93 -28q51 0 51 37q0 30 -31 30q-22 0 -39 -17l-36 16l21 79q-88 15 -137.5 90.5t-49.5 211.5q0 151 64 228t171 77q96 0 145 -50t64 -148l-105 -21q-11 63 -35.5 90t-69.5 27q-121 0 -121 -203q0 -208 123 -208q47 0 72.5 28
t38.5 97l105 -18q-19 -95 -68.5 -149t-142.5 -56l-10 -39q19 14 52 14q27 0 46.5 -18.5t19.5 -51.5q0 -44 -33 -69t-87 -25z" />
    <glyph glyph-name="Otilde.sc" horiz-adv-x="545" 
d="M347 629q-32 0 -73.5 28t-56.5 28q-35 0 -35 -54h-63q0 139 94 139q33 0 74 -28t56 -28q35 0 35 54h63q0 -139 -94 -139zM273 -10q-105 0 -173.5 78t-68.5 228t68 228t174 78q105 0 173 -78t68 -228t-68 -228t-173 -78zM273 90q61 0 95 51.5t34 154.5q0 102 -34 153
t-95 51q-62 0 -95.5 -50.5t-33.5 -153.5q0 -206 129 -206z" />
    <glyph glyph-name="Ucircumflex.sc" horiz-adv-x="515" 
d="M180 636h-68l110 163h78l110 -163h-68l-81 80zM260 -8q-108 0 -159.5 57t-51.5 159v384h114v-373q0 -65 23 -97.5t76 -32.5q52 0 74 32t22 97v374h112v-383q0 -103 -51.5 -160t-158.5 -57z" />
    <glyph glyph-name="Ecircumflex.sc" horiz-adv-x="439" 
d="M144 636h-68l110 163h78l110 -163h-68l-81 80zM416 0h-361v592h349v-101h-234v-134h168v-97h-168v-161h246v-99z" />
    <glyph glyph-name="Uacute.sc" horiz-adv-x="515" 
d="M284 638h-78l81 161h120zM260 -8q-108 0 -159.5 57t-51.5 159v384h114v-373q0 -65 23 -97.5t76 -32.5q52 0 74 32t22 97v374h112v-383q0 -103 -51.5 -160t-158.5 -57z" />
    <glyph glyph-name="five.sc" horiz-adv-x="450" 
d="M219 -11q-137 0 -198 128l94 43q22 -43 43.5 -60.5t57.5 -17.5q49 0 73 30.5t24 84.5q0 56 -23.5 85t-64.5 29q-60 0 -96 -63l-80 18l21 326h317l-8 -98h-220l-11 -146q31 50 105 50q79 0 122.5 -52t43.5 -147q0 -98 -53.5 -154t-146.5 -56z" />
    <glyph glyph-name="Oslash.sc" horiz-adv-x="555" 
d="M273 -10q-70 0 -125 35l-40 -65q-1 1 -29 17.5t-31 17.5l48 77q-65 79 -65 224q0 150 68 228t174 78q70 0 124 -36l41 64l59 -36l-47 -75q64 -80 64 -223q0 -149 -68 -227.5t-173 -78.5zM144 296q0 -74 26 -118l169 295q-27 27 -66 27q-62 0 -95.5 -50.5t-33.5 -153.5z
M273 90q61 0 94.5 51.5t33.5 154.5q0 74 -26 118l-171 -297q24 -27 69 -27z" />
    <glyph glyph-name="Edieresis.sc" horiz-adv-x="439" 
d="M373 636h-102v114h102v-114zM200 636h-104v114h104v-114zM416 0h-361v592h349v-101h-234v-134h168v-97h-168v-161h246v-99z" />
    <glyph glyph-name="D.sc" horiz-adv-x="523" 
d="M213 0h-158v592h158q135 0 206.5 -67t71.5 -227q0 -161 -72.5 -229.5t-205.5 -68.5zM170 500v-402h53q84 0 119.5 45.5t35.5 153.5q0 106 -36 154.5t-120 48.5h-52z" />
    <glyph glyph-name="H.sc" horiz-adv-x="543" 
d="M170 0h-115v592h115v-231h203v231h115v-592h-115v260h-203v-260z" />
    <glyph glyph-name="Ydieresis.sc" horiz-adv-x="474" 
d="M292 0h-113v236l-173 356h114l79 -172q7 -14 21.5 -47.5t17.5 -40.5h1l40 87l78 173h110l-175 -356v-236zM210 636h-104v114h104v-114zM383 636h-102v114h102v-114z" />
    <glyph glyph-name="L.sc" horiz-adv-x="412" 
d="M397 0h-342v592h115v-493h227v-99z" />
    <glyph glyph-name="P.sc" horiz-adv-x="483" 
d="M169 0h-114v592h190q215 0 215 -189q0 -71 -31.5 -115.5t-77.5 -60.5t-107 -16h-75v-211zM169 494v-190h79q53 0 78 23.5t25 73.5t-24.5 71.5t-79.5 21.5h-78z" />
    <glyph glyph-name="T.sc" horiz-adv-x="450" 
d="M281 0h-115v491h-151v101h419v-101h-153v-491z" />
    <glyph glyph-name="X.sc" horiz-adv-x="487" 
d="M124 0h-106l169 313l-151 279h117l96 -187l92 187h105l-149 -276l172 -316h-117l-115 224z" />
    <glyph glyph-name="exclamdown.sc" horiz-adv-x="263" 
d="M192 489h-120v103h120v-103zM197 0h-129l21 422h86z" />
    <glyph glyph-name="Udieresis.sc" horiz-adv-x="515" 
d="M405 636h-102v114h102v-114zM232 636h-104v114h104v-114zM260 -8q-108 0 -159.5 57t-51.5 159v384h114v-373q0 -65 23 -97.5t76 -32.5q52 0 74 32t22 97v374h112v-383q0 -103 -51.5 -160t-158.5 -57z" />
    <glyph glyph-name="ordfeminine.sc" horiz-adv-x="395" 
d="M117 222h-80l115 371h91l114 -371h-86l-21 74h-110zM185 461l-28 -101h76q0 1 -13.5 49.5t-13.5 50.5l-4 18q-5 17 -5 20h-2z" />
    <glyph glyph-name="zero.sc" horiz-adv-x="489" 
d="M245 -10q-103 0 -158 77.5t-55 228.5q0 150 55 228t158 78t157.5 -78t54.5 -228q0 -151 -54.5 -228.5t-157.5 -77.5zM245 84q53 0 77.5 48.5t24.5 163.5q0 114 -25.5 162.5t-76.5 48.5q-53 0 -78 -48.5t-25 -162.5t26 -163t77 -49z" />
    <glyph glyph-name="Agrave.sc" horiz-adv-x="499" 
d="M118 0h-105l182 593h110l181 -593h-113l-41 141h-172zM295 638h-78l-122 161h120zM226 378l-44 -154h128l-42 153q-8 32 -20 71h-2q-4 -16 -10.5 -37t-9.5 -33z" />
    <glyph glyph-name="ffi.sc" horiz-adv-x="1056" 
d="M998 0h-115v592h115v-592zM581 0h-115v592h343v-101h-228v-143h164v-98h-164v-250zM170 0h-115v592h343v-101h-228v-143h164v-98h-164v-250z" />
    <glyph glyph-name="Egrave.sc" horiz-adv-x="439" 
d="M288 638h-78l-122 161h120zM416 0h-361v592h349v-101h-234v-134h168v-97h-168v-161h246v-99z" />
    <glyph glyph-name="germandbls.sc" horiz-adv-x="972" 
d="M730 -10q-155 0 -222 148l92 44q47 -97 130 -97q93 0 93 67q0 35 -25.5 56t-85.5 47q-35 15 -53.5 24t-46.5 27t-42.5 35.5t-25.5 45t-11 61.5q0 67 51.5 111t134.5 44q145 0 202 -131l-92 -45q-36 82 -108 82q-37 0 -58 -15.5t-21 -44.5q0 -37 26 -58.5t84 -46.5
q37 -16 55.5 -25t47 -26.5t42.5 -34.5t25 -44t11 -59q0 -72 -53 -118.5t-150 -46.5zM244 -10q-155 0 -222 148l92 44q47 -97 130 -97q93 0 93 67q0 35 -25.5 56t-85.5 47q-35 15 -53.5 24t-46.5 27t-42.5 35.5t-25.5 45t-11 61.5q0 67 51.5 111t134.5 44q145 0 202 -131
l-92 -45q-36 82 -108 82q-37 0 -58 -15.5t-21 -44.5q0 -37 26 -58.5t84 -46.5q37 -16 55.5 -25t47 -26.5t42.5 -34.5t25 -44t11 -59q0 -72 -53 -118.5t-150 -46.5z" />
    <glyph glyph-name="Ntilde.sc" horiz-adv-x="544" 
d="M55 0h104v418h2q23 -41 37 -68.5t24 -45.5l164 -304h106v592h-103v-401h-2q-40 80 -50 98l-159 303h-123v-592zM355 629q-33 0 -74 28t-56 28q-35 0 -35 -54h-64q0 139 95 139q32 0 73 -28t57 -28q35 0 35 54h62q0 -139 -93 -139z" />
    <glyph glyph-name="ampersand.sc" horiz-adv-x="546" 
d="M219 -10q-99 0 -150 41.5t-51 114.5q0 62 33 104t90 77q-34 71 -34 131q0 66 39.5 106t111.5 40q66 0 99 -34t33 -91q0 -58 -34.5 -97.5t-93.5 -75.5q19 -31 44 -59q26 -35 64 -76q33 56 40 135h93q-16 -118 -59 -189q34 -25 87 -27v-96q-84 -3 -155 46q-62 -50 -157 -50
zM205 460q0 -41 21 -87q36 24 54.5 46.5t18.5 52.5q0 51 -41 51q-53 0 -53 -63zM222 78q51 0 79 23q-20 22 -66 81q-35 42 -54 72q-60 -47 -60 -97q0 -79 101 -79z" />
    <glyph glyph-name="slash.sc" horiz-adv-x="429" 
d="M122 0h-108l293 592h108z" />
    <glyph glyph-name="Atilde.sc" horiz-adv-x="499" 
d="M118 0h-105l182 593h110l181 -593h-113l-41 141h-172zM324 629q-32 0 -73.5 28t-56.5 28q-35 0 -35 -54h-63q0 139 94 139q33 0 74 -28t56 -28q35 0 35 54h63q0 -139 -94 -139zM226 378l-44 -154h128l-42 153q-8 32 -20 71h-2q-4 -16 -10.5 -37t-9.5 -33z" />
    <glyph glyph-name="Zcaron.sc" horiz-adv-x="458" 
d="M272 638h-78l-110 163h69l81 -81l80 81h68zM431 0h-410v77l269 416h-249v99h390v-79l-266 -415h266v-98z" />
    <glyph glyph-name="Odieresis.sc" horiz-adv-x="545" 
d="M418 636h-102v114h102v-114zM245 636h-104v114h104v-114zM273 -10q-105 0 -173.5 78t-68.5 228t68 228t174 78q105 0 173 -78t68 -228t-68 -228t-173 -78zM273 90q61 0 95 51.5t34 154.5q0 102 -34 153t-95 51q-62 0 -95.5 -50.5t-33.5 -153.5q0 -206 129 -206z" />
    <glyph glyph-name="Acircumflex.sc" horiz-adv-x="499" 
d="M118 0h-105l182 593h110l181 -593h-113l-41 141h-172zM169 633h-67l110 162h78l109 -162h-68l-81 79zM226 378l-44 -154h128l-42 153q-8 32 -20 71h-2q-4 -16 -10.5 -37t-9.5 -33z" />
    <glyph glyph-name="exclam.sc" horiz-adv-x="263" 
d="M67 592h129l-22 -422h-85zM71 103h121v-103h-121v103z" />
    <glyph glyph-name="C.sc" horiz-adv-x="509" 
d="M266 -10q-109 0 -172 76.5t-63 230.5q0 151 64 228t171 77q96 0 145 -50t64 -148l-105 -21q-11 63 -35.5 90t-69.5 27q-121 0 -121 -203q0 -208 123 -208q47 0 72.5 28t38.5 97l105 -18q-40 -206 -217 -206z" />
    <glyph glyph-name="G.sc" horiz-adv-x="533" 
d="M252 -8q-110 0 -165.5 79.5t-55.5 226.5t62.5 225.5t173.5 78.5q84 0 136 -47.5t73 -152.5l-103 -20q-14 66 -39 92t-67 26q-122 0 -122 -200q0 -212 126 -212q104 0 112 124h-100v87h200v-299h-83v80h-2q-16 -39 -53 -63.5t-93 -24.5z" />
    <glyph glyph-name="K.sc" horiz-adv-x="500" 
d="M168 0h-113v592h113v-262q6 9 16.5 24t26 36.5t25.5 35.5l118 166h118l-172 -231l191 -361h-120l-143 275l-60 -75v-200z" />
    <glyph glyph-name="O.sc" horiz-adv-x="545" 
d="M273 -10q-105 0 -173.5 78t-68.5 228t68 228t174 78q105 0 173 -78t68 -228t-68 -228t-173 -78zM273 90q61 0 95 51.5t34 154.5q0 102 -34 153t-95 51q-62 0 -95.5 -50.5t-33.5 -153.5q0 -206 129 -206z" />
    <glyph glyph-name="S.sc" horiz-adv-x="485" 
d="M244 -10q-155 0 -222 148l92 44q47 -97 130 -97q93 0 93 67q0 35 -25.5 56t-85.5 47q-35 15 -53.5 24t-46.5 27t-42.5 35.5t-25.5 45t-11 61.5q0 67 51.5 111t134.5 44q145 0 202 -131l-92 -45q-36 82 -108 82q-37 0 -58 -15.5t-21 -44.5q0 -37 26 -58.5t84 -46.5
q37 -16 55.5 -25t47 -26.5t42.5 -34.5t25 -44t11 -59q0 -72 -53 -118.5t-150 -46.5z" />
    <glyph glyph-name="W.sc" horiz-adv-x="684" 
d="M254 -1h-100l-137 593h111l59 -298q15 -69 24 -127h2q6 44 23 126l59 299h102l61 -299q15 -72 24 -126h1q4 26 23 124l57 301h103l-134 -593h-99l-87 433h-1z" />
    <glyph glyph-name="Eth.sc" horiz-adv-x="525" 
d="M213 0h-158v271h-49v73h49v248h158q135 0 206.5 -67t71.5 -227q0 -161 -72.5 -229.5t-205.5 -68.5zM170 271v-173h53q84 0 119.5 45.5t35.5 153.5q0 106 -36 154.5t-120 48.5h-52v-156h86v-73h-86z" />
    <glyph glyph-name="ff.sc" horiz-adv-x="825" 
d="M581 0h-115v592h343v-101h-228v-143h164v-98h-164v-250zM170 0h-115v592h343v-101h-228v-143h164v-98h-164v-250z" />
    <glyph glyph-name="Ocircumflex.sc" horiz-adv-x="545" 
d="M192 636h-67l110 163h78l109 -163h-68l-81 80zM273 -10q-105 0 -173.5 78t-68.5 228t68 228t174 78q105 0 173 -78t68 -228t-68 -228t-173 -78zM273 90q61 0 95 51.5t34 154.5q0 102 -34 153t-95 51q-62 0 -95.5 -50.5t-33.5 -153.5q0 -206 129 -206z" />
    <glyph glyph-name="Igrave.sc" horiz-adv-x="236" 
d="M180 638h-77l-122 161h119zM177 0h-115v592h115v-592z" />
    <glyph glyph-name="one.sc" horiz-adv-x="358" 
d="M337 0h-304v98h105v382q-48 -30 -104 -30v100q68 2 107 42h104v-494h92v-98z" />
    <glyph glyph-name="fi.sc" horiz-adv-x="646" 
d="M587 0h-115v592h115v-592zM170 0h-115v592h343v-101h-228v-143h164v-98h-164v-250z" />
    <glyph glyph-name="question.sc" horiz-adv-x="423" 
d="M243 168h-96q-2 34 -1 48q1 47 19.5 77.5t53.5 57.5q34 25 49.5 45.5t15.5 49.5q0 60 -80 60q-69 0 -103 -70l-90 38q26 62 80 96t127 34q83 0 129 -40.5t46 -105.5q0 -37 -14 -68t-30 -48t-45 -41q-36 -28 -50 -54.5t-11 -78.5zM255 106v-106h-121v106h121z" />
    <glyph glyph-name="two.sc" horiz-adv-x="439" 
d="M402 0h-376v16q0 83 36 146.5t126 125.5q59 42 83.5 72.5t24.5 72.5q0 75 -74 75q-34 0 -57.5 -20.5t-43.5 -71.5l-89 39q60 148 195 148q80 0 126 -44.5t46 -118.5q0 -63 -28.5 -109t-95.5 -95q-113 -84 -122 -138h249v-98z" />
    <glyph glyph-name="fraction.sc" horiz-adv-x="383" 
d="M96 0h-103l294 592h103z" />
    <glyph glyph-name="f_j.sc" horiz-adv-x="691" 
d="M170 0h-115v592h343v-101h-228v-143h164v-98h-164v-250zM316 37l50 84q47 -32 92 -32q70 0 70 79v424h115v-440q0 -161 -172 -161q-90 0 -155 46z" />
    <glyph glyph-name="Lslash.sc" horiz-adv-x="413" 
d="M397 0h-342v253l-49 -15v77l49 15v262h115v-227l84 26v-78q-84 -25 -84 -26v-188h227v-99z" />
    <glyph glyph-name="Scaron.sc" horiz-adv-x="481" 
d="M280 638h-78l-110 163h69l81 -81l80 81h68zM244 -10q-155 0 -222 148l92 44q47 -97 130 -97q93 0 93 67q0 35 -25.5 56t-85.5 47q-35 15 -53.5 24t-46.5 27t-42.5 35.5t-25.5 45t-11 61.5q0 67 51.5 111t134.5 44q145 0 202 -131l-92 -45q-36 82 -108 82q-37 0 -58 -15.5
t-21 -44.5q0 -37 26 -58.5t84 -46.5q37 -16 55.5 -25t47 -26.5t42.5 -34.5t25 -44t11 -59q0 -72 -53 -118.5t-150 -46.5z" />
    <glyph glyph-name="Iacute.sc" horiz-adv-x="236" 
d="M136 638h-78l80 161h120zM177 0h-115v592h115v-592z" />
    <glyph glyph-name="B.sc" horiz-adv-x="499" 
d="M269 0h-213v592h200q194 0 194 -149q0 -57 -28.5 -90t-73.5 -44v-1q119 -25 119 -145q0 -72 -52 -117.5t-146 -45.5zM167 262v-172h92q51 0 74.5 20.5t23.5 63.5q0 88 -105 88h-85zM167 499v-155h83q92 0 92 79q0 39 -21.5 57.5t-70.5 18.5h-83z" />
    <glyph glyph-name="F.sc" horiz-adv-x="414" 
d="M170 0h-115v592h343v-101h-228v-143h164v-98h-164v-250z" />
    <glyph glyph-name="J.sc" horiz-adv-x="382" 
d="M6 37l50 84q47 -32 92 -32q70 0 70 79v424h115v-440q0 -161 -172 -161q-90 0 -155 46z" />
    <glyph glyph-name="N.sc" horiz-adv-x="544" 
d="M159 0h-104v592h123l159 -303q10 -18 50 -98h2v401h103v-592h-106l-164 304q-10 18 -24 45.5t-37 68.5h-2v-418z" />
    <glyph glyph-name="R.sc" horiz-adv-x="502" 
d="M168 0h-113v592h196q100 0 155.5 -45t55.5 -138q0 -136 -107 -168l114 -241h-118l-106 223h-77v-223zM168 494v-182h79q53 0 77 21t24 72q0 49 -24 69t-77 20h-79z" />
    <glyph glyph-name="nine.sc" horiz-adv-x="458" 
d="M204 -11q-107 0 -162 93l79 45q17 -25 35.5 -35t49.5 -10q106 0 113 186q-22 -27 -56.5 -44t-71.5 -17q-79 0 -123.5 53.5t-44.5 141.5q0 90 51.5 145t143.5 55q95 0 150.5 -75t55.5 -222t-60.5 -231.5t-159.5 -84.5zM212 299q65 0 107 49q-7 162 -105 162
q-88 0 -88 -104q0 -107 86 -107z" />
    <glyph glyph-name="three.sc" horiz-adv-x="451" 
d="M216 -12q-139 0 -199 130l88 42q22 -44 47 -60.5t62 -16.5q93 0 93 85q0 56 -30.5 77.5t-104.5 21.5h-23v88h25q72 0 97.5 19t25.5 63q0 69 -80 69q-62 0 -101 -62l-78 51q65 108 188 108q87 0 132 -41.5t45 -109.5q0 -52 -27.5 -88.5t-77.5 -47.5q118 -28 118 -152
q0 -79 -54 -127.5t-146 -48.5z" />
    <glyph glyph-name="V.sc" horiz-adv-x="488" 
d="M297 -2h-107l-177 594h113l92 -338q7 -27 27 -114h2q4 14 13 52.5t16 62.5l93 337h106z" />
    <glyph glyph-name="Z.sc" horiz-adv-x="460" 
d="M431 0h-410v77l269 416h-249v99h390v-79l-266 -415h266v-98z" />
    <glyph glyph-name="Idieresis.sc" horiz-adv-x="236" 
d="M258 636h-102v114h102v-114zM84 636h-103v114h103v-114zM177 0h-115v592h115v-592z" />
    <glyph glyph-name="OE.sc" horiz-adv-x="778" 
d="M271 -10q-105 0 -172.5 78t-67.5 228t67.5 228t172.5 78q82 0 128 -61v51h343v-100h-233v-136h168v-95h-168v-163h245v-98h-355v51q-46 -61 -128 -61zM271 89q126 0 126 207q0 204 -126 204q-127 0 -127 -204q0 -207 127 -207z" />
    <glyph glyph-name="seven.sc" horiz-adv-x="399" 
d="M179 0h-110l201 493h-247v99h357v-92z" />
    <glyph glyph-name="AE.sc" horiz-adv-x="729" 
d="M117 0h-109l286 592h403v-98h-234v-139h169v-93h-169v-166h246v-96h-355v156h-160q-3 -16 -77 -156zM235 242h119v253h-1q-1 -9 -45 -102.5t-73 -150.5z" />
    <glyph glyph-name="backslash.sc" horiz-adv-x="429" 
d="M122 592l293 -592h-108l-293 592h108z" />
    <glyph glyph-name="Ugrave.sc" horiz-adv-x="515" 
d="M322 638h-78l-122 161h120zM260 -8q-108 0 -159.5 57t-51.5 159v384h114v-373q0 -65 23 -97.5t76 -32.5q52 0 74 32t22 97v374h112v-383q0 -103 -51.5 -160t-158.5 -57z" />
    <glyph glyph-name="florin.sc" horiz-adv-x="305" 
d="M-64 -158l10 78q14 -2 30 -2q53 0 60 53l45 324h-61l8 76h63l15 103q9 60 42.5 90t108.5 30q8 0 29 -2l22 -1l-10 -77q-16 2 -29 2q-54 0 -60 -48q-8 -49 -14 -97h79l-10 -76h-78q-5 -30 -24.5 -170.5t-24.5 -171.5q-9 -58 -42 -86t-104 -28q-43 0 -55 3z" />
    <glyph glyph-name="six.sc" horiz-adv-x="458" 
d="M240 -10q-96 0 -151 74.5t-55 221.5q0 148 60.5 232.5t159.5 84.5q104 0 158 -92l-85 -48q-15 25 -31 36t-44 11q-106 0 -113 -184q22 25 57 42t72 17q79 0 123 -54t44 -142q0 -89 -52 -144t-143 -55zM243 79q89 0 89 106q0 107 -86 107q-65 0 -106 -50q8 -163 103 -163z
" />
    <glyph glyph-name="percent.sc" horiz-adv-x="771" 
d="M167 231q-69 0 -104.5 50.5t-35.5 135.5t37 136t104 51q65 0 100.5 -50.5t35.5 -135.5t-35.5 -136t-101.5 -51zM283 0h-96l304 592h96zM610 -9q-67 0 -103.5 50.5t-36.5 134.5q0 86 37.5 137t102.5 51q66 0 102 -50.5t36 -135.5q0 -84 -36 -135.5t-102 -51.5zM167 310
q49 0 49 107t-49 107q-51 0 -51 -106q0 -108 51 -108zM610 70q48 0 48 107q0 106 -48 106q-50 0 -50 -105q0 -108 50 -108z" />
    <glyph glyph-name="Yacute.sc" horiz-adv-x="474" 
d="M292 0h-113v236l-173 356h114l79 -172q7 -14 21.5 -47.5t17.5 -40.5h1l40 87l78 173h110l-175 -356v-236zM255 638h-77l80 161h120z" />
    <glyph glyph-name="sterling.sc" horiz-adv-x="477" 
d="M111 -11q-44 0 -73.5 23.5t-29.5 69.5t29.5 73t73.5 27q42 0 75 -31q1 8 1 26q-2 40 -27 93h-100v67h64q-33 64 -33 111q0 68 44 110t117 42q150 0 166 -162l-94 -14q-4 43 -19 66.5t-49 23.5q-60 0 -60 -65q0 -42 36 -112h121v-67h-90q17 -46 17 -97q0 -42 -14 -76
q29 -27 54 -27q28 0 42 21.5t15 75.5h87q-3 -86 -33 -132t-98 -46q-59 0 -113 43q-41 -43 -109 -43zM114 51q40 0 56 34q-30 34 -55 34q-16 0 -25.5 -9t-9.5 -25q0 -34 34 -34z" />
    <glyph glyph-name="Adieresis.sc" horiz-adv-x="499" 
d="M118 0h-105l182 593h110l181 -593h-113l-41 141h-172zM226 378l-44 -154h128l-42 153q-8 32 -20 71h-2q-4 -16 -10.5 -37t-9.5 -33zM221 636h-103v114h103v-114zM395 636h-102v114h102v-114z" />
    <glyph glyph-name="numbersign.sc" horiz-adv-x="545" 
d="M172 0h-101l28 153h-76v95h93l18 98h-81v93h99l27 153h101l-27 -153h85l28 153h101l-28 -153h81v-93h-99l-17 -98h86v-95h-104l-27 -153h-101l27 153h-85zM235 347l-18 -101h87l18 101h-87z" />
    <glyph glyph-name="Aacute.sc" horiz-adv-x="499" 
d="M118 0h-105l182 593h110l181 -593h-113l-41 141h-172zM288 638h-78l81 161h120zM226 378l-44 -154h128l-42 153q-8 32 -20 71h-2q-4 -16 -10.5 -37t-9.5 -33z" />
    <glyph glyph-name="Icircumflex.sc" horiz-adv-x="236" 
d="M38 636h-68l110 163h78l110 -163h-68l-81 80zM177 0h-115v592h115v-592z" />
    <glyph glyph-name="eight.sc" horiz-adv-x="449" 
d="M224 -12q-98 0 -150.5 43t-52.5 113q0 105 122 167q-49 28 -74.5 62t-25.5 84q0 62 49.5 103t131.5 41q86 0 133 -40.5t47 -103.5q0 -88 -100 -144q60 -31 91 -69t31 -99q0 -70 -53.5 -113.5t-148.5 -43.5zM229 356q72 40 72 94q0 29 -18.5 48t-57.5 19
q-38 0 -58.5 -17.5t-20.5 -46.5q0 -32 19.5 -53.5t63.5 -43.5zM224 71q43 0 69 21.5t26 56.5q0 68 -100 116q-92 -47 -92 -116q0 -35 26.5 -56.5t70.5 -21.5z" />
    <glyph glyph-name="Eacute.sc" horiz-adv-x="439" 
d="M243 638h-78l80 161h120zM416 0h-361v592h349v-101h-234v-134h168v-97h-168v-161h246v-99z" />
    <glyph glyph-name="fl.sc" horiz-adv-x="823" 
d="M808 0h-342v592h115v-493h227v-99zM170 0h-115v592h343v-101h-228v-143h164v-98h-164v-250z" />
    <glyph glyph-name="A.sc" horiz-adv-x="499" 
d="M118 0h-105l182 593h110l181 -593h-113l-41 141h-172zM226 378l-44 -154h128l-42 153q-8 32 -20 71h-2q-4 -16 -10.5 -37t-9.5 -33z" />
    <glyph glyph-name="E.sc" horiz-adv-x="441" 
d="M416 0h-361v592h349v-101h-234v-134h168v-97h-168v-161h246v-99z" />
    <glyph glyph-name="I.sc" horiz-adv-x="239" 
d="M177 0h-115v592h115v-592z" />
    <glyph glyph-name="Thorn.sc" horiz-adv-x="480" 
d="M168 0h-112v592h113v-89h76q213 0 213 -189q0 -192 -216 -192h-74v-122zM168 405v-190h79q54 0 78.5 22.5t24.5 73.5q0 49 -25 71.5t-79 22.5h-78z" />
    <glyph glyph-name="M.sc" horiz-adv-x="643" 
d="M154 0h-99v592h145l122 -440h2l117 440h146v-592h-107v339q0 7 0.5 35t0.5 64h-1q-14 -68 -27 -119q-1 -5 -42.5 -139.5t-49.5 -179.5h-88q-3 15 -44.5 152t-46.5 168q-7 26 -28 118h-1q1 -17 1 -100v-338z" />
    <glyph glyph-name="Q.sc" horiz-adv-x="546" 
d="M466 -68v-91h-67q-181 0 -185 158q-83 19 -133 93.5t-50 203.5q0 150 68 228t174 78q105 0 173 -78t68 -228q0 -132 -53 -207t-140 -91q4 -40 27.5 -53t79.5 -13h38zM274 86q61 0 94 52.5t33 157.5q0 204 -128 204q-129 0 -129 -204q0 -104 34 -157t96 -53z" />
    <glyph glyph-name="U.sc" horiz-adv-x="519" 
d="M260 -8q-108 0 -159.5 57t-51.5 159v384h114v-373q0 -65 23 -97.5t76 -32.5q52 0 74 32t22 97v374h112v-383q0 -103 -51.5 -160t-158.5 -57z" />
    <glyph glyph-name="Y.sc" horiz-adv-x="474" 
d="M292 0h-113v236l-173 356h114l79 -172q7 -14 21.5 -47.5t17.5 -40.5h1l40 87l78 173h110l-175 -356v-236z" />
    <glyph glyph-name="Oacute.sc" horiz-adv-x="545" 
d="M292 638h-78l80 161h120zM273 -10q-105 0 -173.5 78t-68.5 228t68 228t174 78q105 0 173 -78t68 -228t-68 -228t-173 -78zM273 90q61 0 95 51.5t34 154.5q0 102 -34 153t-95 51q-62 0 -95.5 -50.5t-33.5 -153.5q0 -206 129 -206z" />
    <glyph glyph-name="ordmasculine.sc" horiz-adv-x="385" 
d="M193 213q-68 0 -113 49.5t-45 144.5q0 96 45 145.5t113 49.5t112.5 -49.5t44.5 -145.5q0 -95 -45 -144.5t-112 -49.5zM193 284q71 0 71 123t-71 123q-73 0 -73 -123t73 -123z" />
    <glyph glyph-name="Euro.sc" horiz-adv-x="510" 
d="M295 -10q-172 0 -205 210h-76v68h71q-1 10 -1 27v21h-70v69h76q14 110 69.5 164t136.5 54q79 0 123 -45.5t62 -134.5l-94 -16q-12 55 -32 77.5t-59 22.5q-88 0 -102 -122h118v-69h-123v-21q0 -18 1 -27h122v-68h-117q9 -63 34.5 -90t69.5 -27q39 0 61.5 24.5t34.5 82.5
l91 -12q-39 -188 -191 -188z" />
    <glyph glyph-name="Tcedilla" horiz-adv-x="528" 
d="M224 -278l34 102h-47v124h119v-111l-53 -115h-53zM205 0v631h-184v109h485v-109h-183v-631h-118z" />
    <glyph glyph-name="tcedilla" horiz-adv-x="346" 
d="M114 -278l34 102h-47v124h119v-111l-53 -115h-53zM238 -6q-83 0 -115 30.5t-32 101.5v313h-76v91h76v186h114v-186h115v-91h-115v-282q0 -42 14 -58t52 -16q27 0 45 6v-88q-19 -7 -78 -7z" />
    <glyph glyph-name="Abreve.sc" horiz-adv-x="499" 
d="M13 0h105l42 141h172l41 -141h113l-181 593h-110zM247 628q-68 0 -103.5 45.5t-39.5 125.5h67q9 -95 76 -95q65 0 75 95h67q-4 -80 -39.5 -125.5t-102.5 -45.5zM182 224l44 154q3 12 9.5 33t10.5 37h2q12 -39 20 -71l42 -153h-128z" />
    <glyph glyph-name="Amacron.sc" horiz-adv-x="499" 
d="M13 0h105l42 141h172l41 -141h113l-181 593h-110zM109 649v88h280v-88h-280zM182 224l44 154q3 12 9.5 33t10.5 37h2q12 -39 20 -71l42 -153h-128z" />
    <glyph glyph-name="Aogonek.sc" horiz-adv-x="499" 
d="M398 -191q-45 0 -69.5 21.5t-24.5 57.5q0 61 69 112l-41 141h-172l-42 -141h-105l182 593h110l181 -593h-19q-36 0 -61 -28.5t-25 -64.5q0 -43 42 -43q31 0 75 25l27 -37q-62 -43 -127 -43zM182 224h128l-42 153q-8 32 -20 71h-2q-4 -16 -10.5 -37t-9.5 -33z" />
    <glyph glyph-name="Cacute.sc" horiz-adv-x="509" 
d="M194 637l81 161h119l-122 -161h-78zM266 -10q177 0 217 206l-105 18q-13 -69 -38.5 -97t-72.5 -28q-123 0 -123 208q0 203 121 203q45 0 69.5 -27t35.5 -90l105 21q-15 98 -64 148t-145 50q-107 0 -171 -77t-64 -228q0 -154 63 -230.5t172 -76.5z" />
    <glyph glyph-name="Ccaron.sc" horiz-adv-x="509" 
d="M217 638l-110 162h69l81 -80l81 80h67l-110 -162h-78zM266 -10q177 0 217 206l-105 18q-13 -69 -38.5 -97t-72.5 -28q-123 0 -123 208q0 203 121 203q45 0 69.5 -27t35.5 -90l105 21q-15 98 -64 148t-145 50q-107 0 -171 -77t-64 -228q0 -154 63 -230.5t172 -76.5z" />
    <glyph glyph-name="Ccircumflex.sc" horiz-adv-x="509" 
d="M110 636l110 162h78l110 -162h-68l-81 79l-81 -79h-68zM266 -10q177 0 217 206l-105 18q-13 -69 -38.5 -97t-72.5 -28q-123 0 -123 208q0 203 121 203q45 0 69.5 -27t35.5 -90l105 21q-15 98 -64 148t-145 50q-107 0 -171 -77t-64 -228q0 -154 63 -230.5t172 -76.5z" />
    <glyph glyph-name="Cdotaccent.sc" horiz-adv-x="509" 
d="M266 -10q177 0 217 206l-105 18q-13 -69 -38.5 -97t-72.5 -28q-123 0 -123 208q0 203 121 203q45 0 69.5 -27t35.5 -90l105 21q-15 98 -64 148t-145 50q-107 0 -171 -77t-64 -228q0 -154 63 -230.5t172 -76.5zM199 648v108h122v-108h-122z" />
    <glyph glyph-name="Dcaron.sc" horiz-adv-x="523" 
d="M55 0h158q133 0 205.5 68.5t72.5 229.5q0 160 -71.5 227t-206.5 67h-158v-592zM170 98v402h52q84 0 120 -48.5t36 -154.5q0 -108 -35.5 -153.5t-119.5 -45.5h-53zM218 638l-110 162h69l81 -80l81 80h67l-110 -162h-78z" />
    <glyph glyph-name="Dcroat.sc" horiz-adv-x="525" 
d="M213 0h-158v271h-49v73h49v248h158q135 0 206.5 -67t71.5 -227q0 -161 -72.5 -229.5t-205.5 -68.5zM170 271v-173h53q84 0 119.5 45.5t35.5 153.5q0 106 -36 154.5t-120 48.5h-52v-156h86v-73h-86z" />
    <glyph glyph-name="Ebreve.sc" horiz-adv-x="441" 
d="M55 0h361v99h-246v161h168v97h-168v134h234v101h-349v-592zM229 628q-68 0 -103.5 45.5t-39.5 125.5h67q9 -95 76 -95q65 0 75 95h67q-4 -80 -39.5 -125.5t-102.5 -45.5z" />
    <glyph glyph-name="Ecaron.sc" horiz-adv-x="441" 
d="M190 638l-110 162h69l81 -80l81 80h67l-110 -162h-78zM55 0h361v99h-246v161h168v97h-168v134h234v101h-349v-592z" />
    <glyph glyph-name="Edotaccent.sc" horiz-adv-x="441" 
d="M173 639v108h122v-108h-122zM55 0h361v99h-246v161h168v97h-168v134h234v101h-349v-592z" />
    <glyph glyph-name="Emacron.sc" horiz-adv-x="441" 
d="M89 649v88h280v-88h-280zM55 0h361v99h-246v161h168v97h-168v134h234v101h-349v-592z" />
    <glyph glyph-name="Eogonek.sc" horiz-adv-x="441" 
d="M289 -191q-45 0 -69.5 21.5t-24.5 57.5q0 60 70 112h-210v592h349v-101h-234v-134h168v-97h-168v-161h246v-99h-43q-45 0 -73 -27.5t-28 -65.5q0 -43 42 -43q31 0 75 25l27 -37q-62 -43 -127 -43z" />
    <glyph glyph-name="Gbreve.sc" horiz-adv-x="533" 
d="M252 -8q56 0 93 24.5t53 63.5h2v-80h83v299h-200v-87h100q-8 -124 -112 -124q-126 0 -126 212q0 200 122 200q42 0 67 -26t39 -92l103 20q-21 105 -73 152.5t-136 47.5q-111 0 -173.5 -78.5t-62.5 -225.5t55.5 -226.5t165.5 -79.5zM260 630q-68 0 -103.5 45.5
t-39.5 125.5h67q10 -95 76 -95t75 95h67q-4 -80 -39.5 -125.5t-102.5 -45.5z" />
    <glyph glyph-name="Gcircumflex.sc" horiz-adv-x="533" 
d="M109 636l110 162h78l110 -162h-68l-81 79l-81 -79h-68zM252 -8q56 0 93 24.5t53 63.5h2v-80h83v299h-200v-87h100q-8 -124 -112 -124q-126 0 -126 212q0 200 122 200q42 0 67 -26t39 -92l103 20q-21 105 -73 152.5t-136 47.5q-111 0 -173.5 -78.5t-62.5 -225.5
t55.5 -226.5t165.5 -79.5z" />
    <glyph glyph-name="Gcommaaccent.sc" horiz-adv-x="533" 
d="M229 -262l31 97h-43v114h109v-103l-49 -108h-48zM252 -8q-110 0 -165.5 79.5t-55.5 226.5t62.5 225.5t173.5 78.5q84 0 136 -47.5t73 -152.5l-103 -20q-14 66 -39 92t-67 26q-122 0 -122 -200q0 -212 126 -212q104 0 112 124h-100v87h200v-299h-83v80h-2
q-16 -39 -53 -63.5t-93 -24.5z" />
    <glyph glyph-name="Gdotaccent.sc" horiz-adv-x="533" 
d="M252 -8q56 0 93 24.5t53 63.5h2v-80h83v299h-200v-87h100q-8 -124 -112 -124q-126 0 -126 212q0 200 122 200q42 0 67 -26t39 -92l103 20q-21 105 -73 152.5t-136 47.5q-111 0 -173.5 -78.5t-62.5 -225.5t55.5 -226.5t165.5 -79.5zM201 639v108h122v-108h-122z" />
    <glyph glyph-name="Hbar.sc" horiz-adv-x="543" 
d="M56 0v426h-48v83h48v83h114v-83h204v83h114v-83h47v-83h-47v-426h-114v266h-204v-266h-114zM170 356h204v70h-204v-70z" />
    <glyph glyph-name="Hcircumflex.sc" horiz-adv-x="543" 
d="M123 636l110 162h78l110 -162h-68l-81 79l-81 -79h-68zM55 0h115v260h203v-260h115v592h-115v-231h-203v231h-115v-592z" />
    <glyph glyph-name="Ibreve.sc" horiz-adv-x="236" 
d="M62 0h115v592h-115v-592zM119 628q-68 0 -103.5 45.5t-39.5 125.5h67q9 -95 76 -95q65 0 75 95h67q-4 -80 -39.5 -125.5t-102.5 -45.5z" />
    <glyph glyph-name="Idotaccent.sc" horiz-adv-x="236" 
d="M62 0h115v592h-115v-592zM57 639v108h122v-108h-122z" />
    <glyph glyph-name="IJ.sc" horiz-adv-x="617" 
d="M177 0h-115v592h115v-592zM241 37l50 84q47 -32 92 -32q70 0 70 79v424h115v-440q0 -161 -172 -161q-90 0 -155 46z" />
    <glyph glyph-name="Imacron.sc" horiz-adv-x="236" 
d="M62 0h115v592h-115v-592zM-22 649v88h280v-88h-280z" />
    <glyph glyph-name="Iogonek.sc" horiz-adv-x="236" 
d="M106 -191q-45 0 -69.5 21.5t-24.5 57.5q0 61 68 112h-18v592h112v-592h-12q-33 -12 -53 -37.5t-20 -55.5q0 -43 42 -43q31 0 75 25l27 -37q-62 -43 -127 -43z" />
    <glyph glyph-name="Itilde.sc" horiz-adv-x="236" 
d="M62 0h115v592h-115v-592zM187 628q-33 0 -74 28t-56 28q-35 0 -35 -54h-64q0 139 95 139q32 0 73 -28t57 -28q35 0 35 54h62q0 -139 -93 -139z" />
    <glyph glyph-name="Jcircumflex.sc" horiz-adv-x="382" 
d="M126 645l110 162h78l110 -162h-68l-81 79l-81 -79h-68zM6 37q65 -46 155 -46q172 0 172 161v440h-115v-424q0 -79 -70 -79q-45 0 -92 32z" />
    <glyph glyph-name="Kcommaaccent.sc" horiz-adv-x="500" 
d="M229 -262l31 97h-43v114h109v-103l-49 -108h-48zM168 0h-113v592h113v-262q6 9 16.5 24t26 36.5t25.5 35.5l118 166h118l-172 -231l191 -361h-120l-143 275l-60 -75v-200z" />
    <glyph glyph-name="Lacute.sc" horiz-adv-x="412" 
d="M55 0h342v99h-227v493h-115v-592zM66 637l81 161h119l-122 -161h-78z" />
    <glyph glyph-name="Lcaron.sc" horiz-adv-x="412" 
d="M397 0h-342v592h115v-493h227v-99zM272 368l33 105h-41v119h112v-111l-53 -113h-51z" />
    <glyph glyph-name="Lcommaaccent.sc" horiz-adv-x="412" 
d="M397 0h-342v592h115v-493h227v-99zM185 -262l31 97h-43v114h109v-103l-49 -108h-48z" />
    <glyph glyph-name="Ldot.sc" horiz-adv-x="462" 
d="M397 0h-342v592h115v-493h227v-99zM286 271v110h115v-110h-115z" />
    <glyph glyph-name="Nacute.sc" horiz-adv-x="544" 
d="M223 637l81 161h119l-122 -161h-78zM55 0h104v418h2q23 -41 37 -68.5t24 -45.5l164 -304h106v592h-103v-401h-2q-40 80 -50 98l-159 303h-123v-592z" />
    <glyph glyph-name="Ncaron.sc" horiz-adv-x="544" 
d="M242 638l-110 162h69l81 -80l81 80h67l-110 -162h-78zM55 0h104v418h2q23 -41 37 -68.5t24 -45.5l164 -304h106v592h-103v-401h-2q-40 80 -50 98l-159 303h-123v-592z" />
    <glyph glyph-name="Ncommaaccent.sc" horiz-adv-x="544" 
d="M227 -262l31 97h-43v114h109v-103l-49 -108h-48zM159 0h-104v592h123l159 -303q10 -18 50 -98h2v401h103v-592h-106l-164 304q-10 18 -24 45.5t-37 68.5h-2v-418z" />
    <glyph glyph-name="Eng.sc" horiz-adv-x="544" 
d="M320 -200q-90 0 -155 46l50 84q47 -32 92 -32q82 0 82 79v18l-167 309q-10 18 -24 45.5t-37 68.5h-2v-418h-104v592h123l159 -303q10 -18 50 -98h2v401h103v-631q0 -161 -172 -161z" />
    <glyph glyph-name="Obreve.sc" horiz-adv-x="545" 
d="M273 -10q105 0 173 78t68 228t-68 228t-173 78q-106 0 -174 -78t-68 -228t68.5 -228t173.5 -78zM273 90q-129 0 -129 206q0 103 33.5 153.5t95.5 50.5q61 0 95 -51t34 -153q0 -103 -34 -154.5t-95 -51.5zM273 630q-68 0 -103.5 45.5t-39.5 125.5h67q9 -95 76 -95
q65 0 75 95h67q-4 -80 -39.5 -125.5t-102.5 -45.5z" />
    <glyph glyph-name="Ohungarumlaut.sc" horiz-adv-x="545" 
d="M273 -10q105 0 173 78t68 228t-68 228t-173 78q-106 0 -174 -78t-68 -228t68.5 -228t173.5 -78zM273 90q-129 0 -129 206q0 103 33.5 153.5t95.5 50.5q61 0 95 -51t34 -153q0 -103 -34 -154.5t-95 -51.5zM288 637l87 161h121l-130 -161h-78zM127 637l83 161h122
l-126 -161h-79z" />
    <glyph glyph-name="Omacron.sc" horiz-adv-x="545" 
d="M273 -10q105 0 173 78t68 228t-68 228t-173 78q-106 0 -174 -78t-68 -228t68.5 -228t173.5 -78zM273 90q-129 0 -129 206q0 103 33.5 153.5t95.5 50.5q61 0 95 -51t34 -153q0 -103 -34 -154.5t-95 -51.5zM132 649v88h280v-88h-280z" />
    <glyph glyph-name="Racute.sc" horiz-adv-x="502" 
d="M194 637l81 161h119l-122 -161h-78zM55 0h113v223h77l106 -223h118l-114 241q107 32 107 168q0 93 -55.5 138t-155.5 45h-196v-592zM168 312v182h79q53 0 77 -20t24 -69q0 -51 -24 -72t-77 -21h-79z" />
    <glyph glyph-name="Rcaron.sc" horiz-adv-x="502" 
d="M209 638l-110 162h69l81 -80l81 80h67l-110 -162h-78zM55 0h113v223h77l106 -223h118l-114 241q107 32 107 168q0 93 -55.5 138t-155.5 45h-196v-592zM168 312v182h79q53 0 77 -20t24 -69q0 -51 -24 -72t-77 -21h-79z" />
    <glyph glyph-name="Rcommaaccent.sc" horiz-adv-x="502" 
d="M219 -262l31 97h-43v114h109v-103l-49 -108h-48zM168 0h-113v592h196q100 0 155.5 -45t55.5 -138q0 -136 -107 -168l114 -241h-118l-106 223h-77v-223zM168 494v-182h79q53 0 77 21t24 72q0 49 -24 69t-77 20h-79z" />
    <glyph glyph-name="Sacute.sc" horiz-adv-x="485" 
d="M171 637l81 161h119l-122 -161h-78zM244 -10q97 0 150 46.5t53 118.5q0 32 -11 59t-25 44t-42.5 34.5t-47 26.5t-55.5 25q-58 25 -84 46.5t-26 58.5q0 29 21 44.5t58 15.5q72 0 108 -82l92 45q-57 131 -202 131q-83 0 -134.5 -44t-51.5 -111q0 -34 11 -61.5t25.5 -45
t42.5 -35.5t46.5 -27t53.5 -24q60 -26 85.5 -47t25.5 -56q0 -67 -93 -67q-83 0 -130 97l-92 -44q67 -148 222 -148z" />
    <glyph glyph-name="Scedilla.sc" horiz-adv-x="485" 
d="M22 138l92 44q47 -97 130 -97q93 0 93 67q0 35 -25.5 56t-85.5 47q-35 15 -53.5 24t-46.5 27t-42.5 35.5t-25.5 45t-11 61.5q0 67 51.5 111t134.5 44q145 0 202 -131l-92 -45q-36 82 -108 82q-37 0 -58 -15.5t-21 -44.5q0 -37 26 -58.5t84 -46.5q37 -16 55.5 -25
t47 -26.5t42.5 -34.5t25 -44t11 -59q0 -68 -48.5 -114t-137.5 -50l5 15h-54l-4 -14q-128 16 -186 146zM245 -206q-72 0 -125 35l27 46q41 -28 94 -28q54 0 54 38q0 30 -32 30q-22 0 -42 -18l-36 16l23 79q22 -2 36 -2q12 0 17 1l-11 -42q21 14 52 14q28 0 47.5 -18t19.5 -52
q0 -44 -35.5 -71.5t-88.5 -27.5z" />
    <glyph glyph-name="Scircumflex.sc" horiz-adv-x="485" 
d="M81 636l110 162h78l110 -162h-68l-81 79l-81 -79h-68zM244 -10q97 0 150 46.5t53 118.5q0 32 -11 59t-25 44t-42.5 34.5t-47 26.5t-55.5 25q-58 25 -84 46.5t-26 58.5q0 29 21 44.5t58 15.5q72 0 108 -82l92 45q-57 131 -202 131q-83 0 -134.5 -44t-51.5 -111
q0 -34 11 -61.5t25.5 -45t42.5 -35.5t46.5 -27t53.5 -24q60 -26 85.5 -47t25.5 -56q0 -67 -93 -67q-83 0 -130 97l-92 -44q67 -148 222 -148z" />
    <glyph glyph-name="Scommaaccent.sc" horiz-adv-x="485" 
d="M197 -262l31 97h-43v114h109v-103l-49 -108h-48zM244 -10q-155 0 -222 148l92 44q47 -97 130 -97q93 0 93 67q0 35 -25.5 56t-85.5 47q-35 15 -53.5 24t-46.5 27t-42.5 35.5t-25.5 45t-11 61.5q0 67 51.5 111t134.5 44q145 0 202 -131l-92 -45q-36 82 -108 82
q-37 0 -58 -15.5t-21 -44.5q0 -37 26 -58.5t84 -46.5q37 -16 55.5 -25t47 -26.5t42.5 -34.5t25 -44t11 -59q0 -72 -53 -118.5t-150 -46.5z" />
    <glyph glyph-name="Tbar.sc" horiz-adv-x="450" 
d="M167 0v224h-151v89h151v187h-151v92h418v-92h-153v-187h153v-89h-153v-224h-114z" />
    <glyph glyph-name="Tcaron.sc" horiz-adv-x="450" 
d="M166 0h115v491h153v101h-419v-101h151v-491zM185 638l-110 162h69l81 -80l81 80h67l-110 -162h-78z" />
    <glyph glyph-name="Tcommaaccent.sc" horiz-adv-x="450" 
d="M281 0h-115v491h-151v101h419v-101h-153v-491zM182 -262l31 97h-43v114h109v-103l-49 -108h-48z" />
    <glyph glyph-name="Ubreve.sc" horiz-adv-x="519" 
d="M260 -8q107 0 158.5 57t51.5 160v383h-112v-374q0 -65 -22 -97t-74 -32q-53 0 -76 32.5t-23 97.5v373h-114v-384q0 -102 51.5 -159t159.5 -57zM261 628q-68 0 -103.5 45.5t-39.5 125.5h67q9 -95 76 -95q65 0 75 95h67q-4 -80 -39.5 -125.5t-102.5 -45.5z" />
    <glyph glyph-name="Uhungarumlaut.sc" horiz-adv-x="519" 
d="M291 637l87 161h121l-130 -161h-78zM130 637l83 161h122l-126 -161h-79zM260 -8q107 0 158.5 57t51.5 160v383h-112v-374q0 -65 -22 -97t-74 -32q-53 0 -76 32.5t-23 97.5v373h-114v-384q0 -102 51.5 -159t159.5 -57z" />
    <glyph glyph-name="Umacron.sc" horiz-adv-x="519" 
d="M120 649v88h280v-88h-280zM260 -8q107 0 158.5 57t51.5 160v383h-112v-374q0 -65 -22 -97t-74 -32q-53 0 -76 32.5t-23 97.5v373h-114v-384q0 -102 51.5 -159t159.5 -57z" />
    <glyph glyph-name="Uogonek.sc" horiz-adv-x="519" 
d="M295 -191q-45 0 -69.5 21.5t-24.5 57.5q0 62 59 104q-108 0 -159.5 57t-51.5 159v384h114v-373q0 -65 23 -97.5t76 -32.5q52 0 74 32t22 97v374h112v-385q0 -149 -111 -201q-39 -19 -60 -40.5t-21 -56.5q0 -45 42 -45q31 0 75 25l27 -37q-62 -43 -127 -43z" />
    <glyph glyph-name="Uring.sc" horiz-adv-x="519" 
d="M260 625q-41 0 -67 29.5t-26 73.5q0 45 25.5 74t67.5 29t68 -29t26 -74q0 -44 -26.5 -73.5t-67.5 -29.5zM260 674q19 0 29.5 15.5t10.5 38.5q0 22 -10.5 37t-29.5 15q-18 0 -28.5 -15t-10.5 -37q0 -23 10.5 -38.5t28.5 -15.5zM260 -8q107 0 158.5 57t51.5 160v383h-112
v-374q0 -65 -22 -97t-74 -32q-53 0 -76 32.5t-23 97.5v373h-114v-384q0 -102 51.5 -159t159.5 -57z" />
    <glyph glyph-name="Utilde.sc" horiz-adv-x="519" 
d="M260 -8q107 0 158.5 57t51.5 160v383h-112v-374q0 -65 -22 -97t-74 -32q-53 0 -76 32.5t-23 97.5v373h-114v-384q0 -102 51.5 -159t159.5 -57zM330 628q-33 0 -74 28t-56 28q-35 0 -35 -54h-64q0 139 95 139q32 0 73 -28t57 -28q35 0 35 54h62q0 -139 -93 -139z" />
    <glyph glyph-name="Wacute.sc" horiz-adv-x="679" 
d="M154 -1h100l91 433h1l87 -433h99l134 593h-103l-57 -301q-19 -98 -23 -124h-1q-9 54 -24 126l-61 299h-102l-59 -299q-17 -82 -23 -126h-2q-9 58 -24 127l-59 298h-111zM289 637l81 161h119l-122 -161h-78z" />
    <glyph glyph-name="Wcircumflex.sc" horiz-adv-x="679" 
d="M154 -1h100l91 433h1l87 -433h99l134 593h-103l-57 -301q-19 -98 -23 -124h-1q-9 54 -24 126l-61 299h-102l-59 -299q-17 -82 -23 -126h-2q-9 58 -24 127l-59 298h-111zM194 636l110 162h78l110 -162h-68l-81 79l-81 -79h-68z" />
    <glyph glyph-name="Wdieresis.sc" horiz-adv-x="679" 
d="M154 -1h100l91 433h1l87 -433h99l134 593h-103l-57 -301q-19 -98 -23 -124h-1q-9 54 -24 126l-61 299h-102l-59 -299q-17 -82 -23 -126h-2q-9 58 -24 127l-59 298h-111zM205 635v114h103v-114h-103zM380 635v114h102v-114h-102z" />
    <glyph glyph-name="Wgrave.sc" horiz-adv-x="679" 
d="M154 -1h100l91 433h1l87 -433h99l134 593h-103l-57 -301q-19 -98 -23 -124h-1q-9 54 -24 126l-61 299h-102l-59 -299q-17 -82 -23 -126h-2q-9 58 -24 127l-59 298h-111zM323 637l-122 161h120l80 -161h-78z" />
    <glyph glyph-name="Ycircumflex.sc" horiz-adv-x="474" 
d="M179 0h113v236l175 356h-110l-78 -173l-40 -87h-1q-3 7 -17.5 40.5t-21.5 47.5l-79 172h-114l173 -356v-236zM89 636l110 162h78l110 -162h-68l-81 79l-81 -79h-68z" />
    <glyph glyph-name="Ygrave.sc" horiz-adv-x="474" 
d="M179 0h113v236l175 356h-110l-78 -173l-40 -87h-1q-3 7 -17.5 40.5t-21.5 47.5l-79 172h-114l173 -356v-236zM213 637l-122 161h120l80 -161h-78z" />
    <glyph glyph-name="Zacute.sc" horiz-adv-x="460" 
d="M170 637l81 161h119l-122 -161h-78zM21 0h410v98h-266l266 415v79h-390v-99h249l-269 -416v-77z" />
    <glyph glyph-name="Zdotaccent.sc" horiz-adv-x="460" 
d="M21 0h410v98h-266l266 415v79h-390v-99h249l-269 -416v-77zM169 639v108h122v-108h-122z" />
    <glyph glyph-name="registered.salt_big" horiz-adv-x="474" 
d="M237 292q-83 0 -138 66.5t-55 164.5q0 97 55.5 164t138.5 67t138 -66.5t55 -163.5q0 -98 -55.5 -165t-138.5 -67zM238 325q67 0 111.5 57t44.5 141q0 83 -45 140.5t-112 57.5t-111.5 -56.5t-44.5 -140.5t44.5 -141.5t112.5 -57.5zM161 403v249h78q81 0 81 -78
q0 -52 -39 -70l43 -101h-50l-41 94h-25v-94h-47zM208 536h28q38 0 38 37q0 35 -38 35h-28v-72z" />
    <glyph glyph-name="space.frac" horiz-adv-x="150" 
 />
    <glyph glyph-name="one.sups" horiz-adv-x="305" 
d="M49 289v78h67v278q-29 -12 -66 -12v79q52 3 77 28h83v-373h59v-78h-220z" />
    <glyph glyph-name="two.sups" horiz-adv-x="363" 
d="M36 291v23q0 51 20.5 91t49 65.5t57.5 47.5t49.5 47.5t20.5 55.5q0 51 -46 51q-43 0 -72 -74l-78 33q23 60 59.5 89t93.5 29q63 0 98 -33.5t35 -94.5q0 -36 -18 -67.5t-43.5 -53.5t-51.5 -42t-46 -42.5t-22 -45.5h180v-79h-286z" />
    <glyph glyph-name="three.sups" horiz-adv-x="373" 
d="M183 285q-112 0 -157 112l71 35q29 -71 84 -71q31 0 47.5 17.5t16.5 46.5q0 40 -22 57.5t-70 17.5h-21v58h28q76 0 76 63q0 22 -13 36.5t-37 14.5q-44 0 -83 -51l-62 45q58 85 151 85q62 0 96.5 -33t34.5 -85q0 -70 -62 -100q71 -31 71 -111q0 -63 -41 -100t-108 -37z
" />
    <glyph glyph-name="zero.numr" horiz-adv-x="391" 
d="M196 275q-78 0 -121 60t-43 174t43 174.5t121 60.5t121 -60.5t43 -174.5t-43 -174t-121 -60zM196 353q38 0 54.5 37t16.5 119q0 81 -17 118t-54 37q-38 0 -54.5 -37t-16.5 -118t17 -118.5t54 -37.5z" />
    <glyph glyph-name="one.numr" horiz-adv-x="271" 
d="M28 284v78h67v278q-29 -12 -66 -12v79q52 3 77 28h83v-373h59v-78h-220z" />
    <glyph glyph-name="two.numr" horiz-adv-x="323" 
d="M16 286v23q0 51 20.5 91t49.5 65.5t57.5 47.5t49 47.5t20.5 55.5q0 51 -46 51q-43 0 -72 -74l-78 33q23 60 59.5 89t93.5 29q63 0 98 -33.5t35 -94.5q0 -36 -18 -67.5t-43.5 -53.5t-51.5 -42t-46 -42.5t-22 -45.5h180v-79h-286z" />
    <glyph glyph-name="three.numr" horiz-adv-x="333" 
d="M163 280q-112 0 -157 112l71 35q29 -71 84 -71q31 0 47.5 17.5t16.5 46.5q0 40 -22 57.5t-70 17.5h-21v58h28q76 0 76 63q0 22 -13 36.5t-37 14.5q-44 0 -83 -51l-62 45q58 85 151 85q62 0 96.5 -33t34.5 -85q0 -70 -62 -100q71 -31 71 -111q0 -63 -41 -100t-108 -37z
" />
    <glyph glyph-name="four.numr" horiz-adv-x="350" 
d="M186 284v98h-173v62l169 291h93v-277h59v-76h-59v-98h-89zM98 454h93v165z" />
    <glyph glyph-name="five.numr" horiz-adv-x="347" 
d="M172 275q-62 0 -97.5 24t-58.5 71l69 38q15 -30 34 -43.5t49 -13.5q63 0 63 86q0 79 -57 79q-38 0 -60 -35l-71 12l15 242h240l-5 -77h-165l-6 -99q30 25 77 25q59 0 91 -37.5t32 -112.5q0 -78 -39.5 -118.5t-110.5 -40.5z" />
    <glyph glyph-name="six.numr" horiz-adv-x="362" 
d="M188 275q-156 0 -156 229q0 240 165 240q87 0 130 -74l-70 -41q-26 41 -62 41q-38 0 -55 -30t-20 -100q46 39 94 39q122 0 122 -149q0 -68 -40.5 -111.5t-107.5 -43.5zM190 349q60 0 60 80q0 78 -57 78q-37 0 -72 -38q7 -120 69 -120z" />
    <glyph glyph-name="seven.numr" horiz-adv-x="309" 
d="M48 284l152 374h-176v77h269v-73l-152 -378h-93z" />
    <glyph glyph-name="eight.numr" horiz-adv-x="360" 
d="M180 275q-74 0 -115 33t-41 88q0 74 86 123q-35 21 -51.5 46t-16.5 65q0 48 37 81t101 33q66 0 102 -31t36 -83q0 -38 -16.5 -62.5t-51.5 -46.5q43 -24 64 -51t21 -74q0 -54 -41.5 -87.5t-113.5 -33.5zM179 341q30 0 48 17t18 45q0 26 -16.5 43.5t-54.5 37.5
q-32 -19 -47 -37t-15 -44q0 -28 18 -45t49 -17zM185 554q48 28 48 68q0 53 -51 53q-26 0 -39 -14.5t-13 -36.5q0 -25 13 -39.5t42 -30.5z" />
    <glyph glyph-name="nine.numr" horiz-adv-x="362" 
d="M166 275q-87 0 -130 74l69 41q28 -41 63 -41q37 0 54 30t20 100q-46 -39 -94 -39q-122 0 -122 149q0 68 41 111.5t108 43.5q155 0 155 -229q0 -240 -164 -240zM170 509q36 0 72 39q-8 120 -70 120q-59 0 -59 -81q0 -78 57 -78z" />
    <glyph glyph-name="zero.dnom" horiz-adv-x="391" 
d="M196 -8q-78 0 -121 60t-43 174t43 174.5t121 60.5t121 -60.5t43 -174.5t-43 -174t-121 -60zM196 70q38 0 54.5 37t16.5 119q0 81 -17 118t-54 37q-38 0 -54.5 -37t-16.5 -118t17 -118.5t54 -37.5z" />
    <glyph glyph-name="one.dnom" horiz-adv-x="271" 
d="M28 1v78h67v278q-29 -12 -66 -12v79q52 3 77 28h83v-373h59v-78h-220z" />
    <glyph glyph-name="two.dnom" horiz-adv-x="323" 
d="M16 3v23q0 51 20.5 91t49.5 65.5t57.5 47.5t49 47.5t20.5 55.5q0 51 -46 51q-43 0 -72 -74l-78 33q23 60 59.5 89t93.5 29q63 0 98 -33.5t35 -94.5q0 -36 -18 -67.5t-43.5 -53.5t-51.5 -42t-46 -42.5t-22 -45.5h180v-79h-286z" />
    <glyph glyph-name="three.dnom" horiz-adv-x="333" 
d="M163 -3q-112 0 -157 112l71 35q29 -71 84 -71q31 0 47.5 17.5t16.5 46.5q0 40 -22 57.5t-70 17.5h-21v58h28q76 0 76 63q0 22 -13 36.5t-37 14.5q-44 0 -83 -51l-62 45q58 85 151 85q62 0 96.5 -33t34.5 -85q0 -70 -62 -100q71 -31 71 -111q0 -63 -41 -100t-108 -37z" />
    <glyph glyph-name="four.dnom" horiz-adv-x="350" 
d="M186 1v98h-173v62l169 291h93v-277h59v-76h-59v-98h-89zM98 171h93v165z" />
    <glyph glyph-name="five.dnom" horiz-adv-x="347" 
d="M172 -8q-62 0 -97.5 24t-58.5 71l69 38q15 -30 34 -43.5t49 -13.5q63 0 63 86q0 79 -57 79q-38 0 -60 -35l-71 12l15 242h240l-5 -77h-165l-6 -99q30 25 77 25q59 0 91 -37.5t32 -112.5q0 -78 -39.5 -118.5t-110.5 -40.5z" />
    <glyph glyph-name="six.dnom" horiz-adv-x="362" 
d="M188 -8q-156 0 -156 229q0 240 165 240q87 0 130 -74l-70 -41q-26 41 -62 41q-38 0 -55 -30t-20 -100q46 39 94 39q122 0 122 -149q0 -68 -40.5 -111.5t-107.5 -43.5zM190 66q60 0 60 80q0 78 -57 78q-37 0 -72 -38q7 -120 69 -120z" />
    <glyph glyph-name="seven.dnom" horiz-adv-x="309" 
d="M48 1l152 374h-176v77h269v-73l-152 -378h-93z" />
    <glyph glyph-name="eight.dnom" horiz-adv-x="360" 
d="M180 -8q-74 0 -115 33t-41 88q0 74 86 123q-35 21 -51.5 46t-16.5 65q0 48 37 81t101 33q66 0 102 -31t36 -83q0 -38 -16.5 -62.5t-51.5 -46.5q43 -24 64 -51t21 -74q0 -54 -41.5 -87.5t-113.5 -33.5zM179 58q30 0 48 17t18 45q0 26 -16.5 43.5t-54.5 37.5
q-32 -19 -47 -37t-15 -44q0 -28 18 -45t49 -17zM185 271q48 28 48 68q0 53 -51 53q-26 0 -39 -14.5t-13 -36.5q0 -25 13 -39.5t42 -30.5z" />
    <glyph glyph-name="nine.dnom" horiz-adv-x="362" 
d="M166 -8q-87 0 -130 74l69 41q28 -41 63 -41q37 0 54 30t20 100q-46 -39 -94 -39q-122 0 -122 149q0 68 41 111.5t108 43.5q155 0 155 -229q0 -240 -164 -240zM170 226q36 0 72 39q-8 120 -70 120q-59 0 -59 -81q0 -78 57 -78z" />
    <glyph glyph-name="i.trk" horiz-adv-x="239" 
d="M62 617v107h115v-107h-115zM62 0v530h114v-530h-114z" />
    <glyph glyph-name="plus.sc" horiz-adv-x="550" 
d="M226 49v204h-175v95h175v205h98v-205h175v-95h-175v-204h-98z" />
    <glyph glyph-name="minus.sc" horiz-adv-x="550" 
d="M51 253v95h448v-95h-448z" />
    <glyph glyph-name="multiply.sc" horiz-adv-x="550" 
d="M123 85l-64 64l152 152l-152 151l64 64l152 -152l151 152l64 -64l-152 -151l152 -152l-64 -64l-151 152z" />
    <glyph glyph-name="divide.sc" horiz-adv-x="550" 
d="M222 432v106h105v-106h-105zM51 254v95h448v-95h-448zM222 64v107h105v-107h-105z" />
    <glyph glyph-name="equal.sc" horiz-adv-x="550" 
d="M61 367v89h428v-89h-428zM61 146v89h428v-89h-428z" />
    <glyph glyph-name="less.sc" horiz-adv-x="574" 
d="M510 42l-450 221v76l450 221v-100l-335 -159l335 -159v-100z" />
    <glyph glyph-name="greater.sc" horiz-adv-x="574" 
d="M65 42v100l334 159l-334 159v100l450 -221v-76z" />
    <glyph glyph-name="zero.tab_salt_slash" horiz-adv-x="564" 
d="M282 -14q-122 0 -186.5 98t-64.5 286t64.5 286t186.5 98t186.5 -98t64.5 -286t-64.5 -286t-186.5 -98zM282 83q68 0 101 69t33 218q0 85 -13 150l-214 -382q33 -55 93 -55zM148 370q0 -90 12 -150l213 382q-32 53 -91 53q-67 0 -100.5 -68t-33.5 -217z" />
    <glyph glyph-name="zero.sc_salt_slash" horiz-adv-x="507" 
d="M254 -11q-103 0 -158 78.5t-55 228.5t55 228t158 78t157.5 -78t54.5 -228t-54.5 -228.5t-157.5 -78.5zM254 76q52 0 77.5 52t25.5 168q0 52 -7 101l-167 -280q25 -41 71 -41zM151 296q0 -58 6 -99l167 278q-25 40 -70 40q-52 0 -77.5 -51.5t-25.5 -167.5z" />
    <glyph glyph-name="zero.salt_slash" horiz-adv-x="579" 
d="M289 -14q-122 0 -186.5 98t-64.5 286t64.5 286t186.5 98t186.5 -98t64.5 -286t-64.5 -286t-186.5 -98zM289 83q68 0 101 69t33 218q0 85 -13 150l-214 -382q33 -55 93 -55zM155 370q0 -90 12 -150l213 382q-32 53 -91 53q-67 0 -100.5 -68t-33.5 -217z" />
    <glyph glyph-name="asterisk.tab" horiz-adv-x="564" 
d="M213 361l-59 34l89 132l-160 -10v66l162 -11l-91 134l59 34l69 -144l71 144l59 -34l-90 -133l160 10v-66l-160 10l90 -132l-58 -34l-71 142z" />
    <glyph glyph-name="periodcentered.tab" horiz-adv-x="282" 
d="M81 247v119h121v-119h-121z" />
    <glyph glyph-name="space.tab_em" horiz-adv-x="1130" 
 />
    <glyph glyph-name="space.tab_thin" horiz-adv-x="140" 
 />
    </font>
</defs>
</svg>
