<?xml version="1.0" standalone="no"?>
<!DOCTYPE svg PUBLIC "-//W3C//DTD SVG 1.1//EN" "http://www.w3.org/Graphics/SVG/1.1/DTD/svg11.dtd" >
<svg xmlns="http://www.w3.org/2000/svg" xmlns:xlink="http://www.w3.org/1999/xlink" version="1.1">
<metadata>
Created by FontForge 20170731 at Wed Feb 29 01:40:12 2012
 By Aleksey,,,
Copyright (c) The Font Bureau, Inc., 2008. All rights reserved.
</metadata>
<defs>
<font id="BentonSans-MediumItalic" horiz-adv-x="1331" >
  <font-face 
    font-family="BentonSans Medium"
    font-weight="500"
    font-style="italic"
    font-stretch="normal"
    units-per-em="2048"
    panose-1="2 0 6 3 0 0 0 9 0 4"
    ascent="1612"
    descent="-436"
    x-height="1087"
    cap-height="1516"
    bbox="-258 -555 2857 2240"
    underline-thickness="50"
    underline-position="-150"
    slope="-10"
    unicode-range="U+0020-FB04"
  />
<missing-glyph horiz-adv-x="748" 
d="M68 0v1365h544v-1365h-544zM136 68h408v1229h-408v-1229z" />
    <glyph glyph-name="uniFB00" unicode="ff" horiz-adv-x="1397" 
d="M74 897l35 190h182l22 134q12 68 38 123.5t69 95t103 61t139 21.5q18 0 42.5 -2t48.5 -4t43.5 -5t26.5 -4l-35 -180q-12 3 -34.5 5.5t-46.5 2.5q-29 0 -53 -5.5t-42 -21t-31 -43t-20 -71.5l-18 -107h389l22 134q11 68 34.5 123.5t67 95t109.5 61t162 21.5q18 0 44.5 -2
t52.5 -4t47 -5l28 -4l-35 -182q-12 3 -42.5 6.5t-61.5 3.5q-29 0 -55 -5.5t-47 -21t-35.5 -43t-20.5 -71.5l-18 -107h227l-35 -190h-227l-158 -897h-252l158 897h-389l-158 -897h-252l158 897h-182z" />
    <glyph glyph-name="uniFB01" unicode="fi" horiz-adv-x="1245" 
d="M70 887l36 200h185l22 134q11 68 35.5 123.5t66 95t100.5 61t138 21.5q23 0 49 -2t48.5 -4t40 -5t24.5 -4l-35 -190q-14 3 -36 5.5t-48 2.5q-29 0 -51.5 -4.5t-39 -18.5t-27.5 -40t-17 -68l-18 -107h196l-37 -200h-196l-156 -887h-252l156 887h-184zM707 0l192 1087h252
l-193 -1087h-251zM930 1278l37 217h256l-37 -217h-256z" />
    <glyph glyph-name="uniFB02" unicode="fl" horiz-adv-x="1245" 
d="M70 887l36 200h185l22 134q11 68 35.5 123.5t66 95t100.5 61t138 21.5q23 0 49 -2t48.5 -4t40 -5t24.5 -4l-35 -190q-14 3 -36 5.5t-48 2.5q-29 0 -51.5 -4.5t-39 -18.5t-27.5 -40t-17 -68l-18 -107h196l-37 -200h-196l-156 -887h-252l156 887h-184zM707 0l266 1516h252
l-267 -1516h-251z" />
    <glyph glyph-name="uniFB03" unicode="ffi" horiz-adv-x="1884" 
d="M74 897l35 190h182l22 134q12 68 38 123.5t69 95t103 61t139 21.5q18 0 42.5 -2t48.5 -4t43.5 -5t26.5 -4l-35 -180q-12 3 -34.5 5.5t-46.5 2.5q-29 0 -53 -5.5t-42 -21t-31 -43t-20 -71.5l-18 -107h389l22 134q11 68 35.5 123.5t66 95t100.5 61t138 21.5q23 0 49 -2
t48.5 -4t40 -5t24.5 -4l-33 -180q-14 3 -36 5.5t-48 2.5q-29 0 -51.5 -6t-39.5 -22t-28.5 -43.5t-17.5 -69.5l-18 -107h196l-34 -190h-197l-158 -897h-252l158 897h-389l-158 -897h-252l158 897h-182zM1348 0l192 1087h252l-193 -1087h-251zM1571 1278l37 217h256l-37 -217
h-256z" />
    <glyph glyph-name="uniFB04" unicode="ffl" horiz-adv-x="1884" 
d="M111 897l34 190h185l22 134q11 68 37 123.5t68.5 95t102.5 61t138 21.5q19 0 44 -2t49 -4t43 -5t26 -4l-33 -180q-14 3 -36.5 5.5t-47.5 2.5q-28 0 -51.5 -5.5t-42 -21t-31 -43t-18.5 -71.5l-18 -107h387l22 134q12 68 36.5 123.5t66 95t100 61t137.5 21.5q23 0 49 -2
t49.5 -4t41 -5t24.5 -4l-33 -180q-15 3 -37.5 5.5t-48.5 2.5q-29 0 -51 -6t-39 -22t-28.5 -43.5t-18.5 -69.5l-18 -107h196l-35 -190h-196l-158 -897h-252l158 897h-387l-158 -897h-252l158 897h-184zM1384 0l269 1516h252l-269 -1516h-252z" />
    <glyph glyph-name="f_j" unicode="fj" horiz-adv-x="1245" 
d="M74 897l35 190h182l22 134q12 68 36.5 123.5t66 95t100 61t137.5 21.5q23 0 49 -2t49.5 -4t41 -5t24.5 -4l-33 -180q-15 3 -37.5 5.5t-48.5 2.5q-28 0 -50.5 -6t-39 -22t-28.5 -43.5t-19 -69.5l-18 -107h196l-34 -190h-197l-158 -897h-252l158 897h-182zM446 -403l31 176
q17 -3 44.5 -6t53.5 -3q25 0 43.5 6.5t31.5 21t22 39t16 60.5l211 1196h252l-221 -1255q-10 -56 -30 -101.5t-54 -78t-84.5 -50.5t-120.5 -18q-65 0 -115.5 4t-79.5 9zM930 1278l39 217h256l-39 -217h-256z" />
    <glyph glyph-name=".notdef" horiz-adv-x="748" 
d="M68 0v1365h544v-1365h-544zM136 68h408v1229h-408v-1229z" />
    <glyph glyph-name=".null" horiz-adv-x="0" 
 />
    <glyph glyph-name="nonmarkingreturn" horiz-adv-x="682" 
 />
    <glyph glyph-name="space" unicode=" " horiz-adv-x="514" 
 />
    <glyph glyph-name="exclam" unicode="!" horiz-adv-x="705" 
d="M80 0l45 256h281l-46 -256h-280zM209 453l119 1063h315l-254 -1063h-180z" />
    <glyph glyph-name="quotedbl" unicode="&#x22;" horiz-adv-x="895" 
d="M221 979l35 401l23 136h223l-23 -136l-104 -401h-154zM602 979l35 401l22 136h224l-23 -136l-104 -401h-154z" />
    <glyph glyph-name="numbersign" unicode="#" horiz-adv-x="1516" 
d="M49 408v190h270l68 320h-250v190h289l86 408h227l-84 -408h295l86 408h228l-86 -408h252v-190h-291l-68 -320h270v-190h-309l-86 -408h-227l86 408h-297l-86 -408h-227l86 408h-232zM547 598h297l67 320h-297z" />
    <glyph glyph-name="dollar" unicode="$" horiz-adv-x="1348" 
d="M14 342l203 96q15 -35 40 -72.5t60 -71t81 -61t104 -40.5l88 495q-72 28 -141 61.5t-123 79t-87.5 107t-33.5 147.5t24 153t63.5 117t92 84.5t109 56t114 31t107.5 9.5h16l25 143h162l-29 -157q142 -26 233.5 -103t141.5 -213l-209 -78q-32 81 -82.5 125.5t-124.5 63.5
l-80 -451q74 -29 147 -64t131.5 -84.5t95 -118t36.5 -165.5q0 -89 -26 -157t-69 -118t-100 -83.5t-119.5 -53.5t-126 -29t-119.5 -9l-28 -172h-162l33 186q-159 28 -269 116t-178 230zM444 1120q0 -36 14 -65t39 -53t59.5 -44t74.5 -38l71 411h-10q-61 0 -107 -15.5
t-77.5 -43.5t-47.5 -67t-16 -85zM647 180q149 6 220 61.5t71 170.5q0 40 -16 72t-44.5 58t-67 48t-83.5 41z" />
    <glyph glyph-name="percent" unicode="%" horiz-adv-x="2124" 
d="M145 956q0 142 38 251t100.5 183t142.5 112t164 38q85 0 148 -28t104 -78.5t61.5 -120t20.5 -152.5q0 -137 -37 -244.5t-98.5 -181.5t-141.5 -113.5t-166 -39.5q-85 0 -148 28t-105 77.5t-62.5 118.5t-20.5 150zM356 936q0 -84 33 -130t103 -46q51 0 92 38.5t69.5 99.5
t44 137t15.5 151q0 81 -31.5 127.5t-103.5 46.5q-52 0 -93 -38.5t-69.5 -99t-44 -136t-15.5 -150.5zM369 0l1161 1516h225l-1161 -1516h-225zM1202 354q0 142 37.5 251t100 183t142.5 112t165 38q84 0 146.5 -28t103.5 -78t61 -119t20 -152q0 -137 -36.5 -245t-98 -182.5
t-141 -114t-166.5 -39.5q-85 0 -148 28t-104 77.5t-61.5 118.5t-20.5 150zM1413 334q0 -82 32 -129t103 -47q52 0 92.5 38.5t68.5 100t43 137t15 150.5q0 83 -30.5 128.5t-102.5 45.5q-52 0 -93 -38.5t-69.5 -99.5t-43.5 -136.5t-15 -149.5z" />
    <glyph glyph-name="ampersand" unicode="&#x26;" horiz-adv-x="1483" 
d="M-20 354q0 111 36 191t96 137t138 96.5t162 71.5q-23 69 -34 137.5t-11 134.5q0 93 29 170.5t83.5 133.5t132 87t174.5 31q98 0 165.5 -26t109 -68.5t60 -96.5t18.5 -110q0 -106 -38 -180.5t-100.5 -128.5t-142 -92t-162.5 -70q16 -34 35.5 -68.5t42.5 -68.5
q53 -79 95.5 -140t82.5 -108q68 82 116 181.5t79 201.5h219q-40 -145 -108.5 -276.5t-161.5 -237.5q54 -32 116.5 -44.5t147.5 -14.5l-39 -217q-60 0 -114 6.5t-103.5 20.5t-96.5 36.5t-92 54.5q-89 -60 -190.5 -93.5t-212.5 -33.5q-139 0 -239.5 30t-165.5 81.5t-96 121.5
t-31 150zM240 387q0 -98 69 -154.5t219 -56.5q68 0 128 16t114 44q-49 55 -98.5 123t-102.5 155q-26 42 -49 83.5t-43 84.5q-51 -24 -94 -52t-75 -63.5t-50 -79.5t-18 -100zM606 1126q0 -45 6.5 -93.5t22.5 -102.5q60 24 112.5 51t91 62.5t61 81t22.5 106.5q0 21 -7 42
t-22.5 38t-40.5 28t-61 11q-41 0 -75 -12.5t-58.5 -39.5t-38 -69.5t-13.5 -102.5z" />
    <glyph glyph-name="quotesingle" unicode="'" horiz-adv-x="514" 
d="M221 979l35 401l23 136h223l-23 -136l-104 -401h-154z" />
    <glyph glyph-name="parenleft" unicode="(" horiz-adv-x="821" 
d="M57 410q0 187 48.5 347.5t140.5 301t223.5 264.5t298.5 238l94 -131q-119 -95 -218 -211t-170.5 -249.5t-111.5 -281.5t-40 -305q0 -99 16.5 -193.5t47.5 -181.5t75.5 -166t99.5 -147l-143 -107q-174 180 -267.5 384.5t-93.5 437.5z" />
    <glyph glyph-name="parenright" unicode=")" horiz-adv-x="821" 
d="M-113 -289q121 94 221.5 211t173.5 251.5t113.5 283.5t40.5 307q0 198 -62 370.5t-171 309.5l137 115q175 -180 268.5 -384t93.5 -436q0 -186 -49 -347t-141 -302t-224 -265.5t-298 -238.5z" />
    <glyph glyph-name="asterisk" unicode="*" horiz-adv-x="1040" 
d="M125 1092l27 157l346 -86l-150 322l156 57l94 -340l207 289l129 -111l-252 -250l354 -36l-28 -158l-344 84l149 -320l-156 -57l-96 340l-207 -289l-127 109l250 252z" />
    <glyph glyph-name="plus" unicode="+" horiz-adv-x="1315" 
d="M127 598v203h418v430h207v-430h417v-203h-417v-430h-207v430h-418z" />
    <glyph glyph-name="comma" unicode="," horiz-adv-x="565" 
d="M6 -229l111 229h-107l47 266h281l-41 -231l-174 -264h-117z" />
    <glyph glyph-name="hyphen" unicode="-" horiz-adv-x="731" 
d="M78 553l33 180h505l-32 -180h-506z" />
    <glyph glyph-name="period" unicode="." horiz-adv-x="565" 
d="M10 0l47 266h281l-47 -266h-281z" />
    <glyph glyph-name="slash" unicode="/" horiz-adv-x="1245" 
d="M-86 0l1147 1516h270l-1147 -1516h-270z" />
    <glyph glyph-name="zero" unicode="0" horiz-adv-x="1368" 
d="M76 578q0 140 23.5 266t68 233t107 193.5t140.5 147.5t169.5 93.5t193.5 32.5q133 0 230.5 -44.5t161.5 -124.5t95 -191t31 -244q0 -140 -23.5 -266.5t-67.5 -234t-106.5 -194.5t-140.5 -147.5t-170 -93.5t-194 -33q-133 0 -230.5 45t-161.5 125.5t-95 192t-31 244.5z
M328 565q0 -186 70.5 -277t209.5 -91q73 0 133.5 29.5t108.5 81.5t84 123.5t60 156t36 177.5t12 189q0 183 -70.5 273t-207.5 90q-72 0 -132.5 -29t-109 -80.5t-85 -122t-61 -154t-36.5 -177t-12 -189.5z" />
    <glyph glyph-name="one" unicode="1" horiz-adv-x="918" 
d="M-45 0l41 225h278l181 1030q-30 -14 -66 -26.5t-74.5 -22t-76 -15t-70.5 -5.5l43 231q88 3 164 27t135 72h240l-226 -1291h246l-39 -225h-776z" />
    <glyph glyph-name="two" unicode="2" horiz-adv-x="1214" 
d="M-61 0l4 33q18 144 69.5 249.5t123.5 183.5t158 134t172.5 101.5t168 86.5t144.5 89t101 108.5t38 144.5q0 87 -54.5 136t-173.5 49q-43 0 -85.5 -7.5t-86 -27.5t-89 -54.5t-93.5 -88.5l-172 139q61 74 125.5 125t133.5 83t141.5 46t148.5 14q117 0 203 -29.5
t142.5 -80.5t84.5 -120.5t28 -150.5q0 -107 -35 -189.5t-93.5 -147t-134 -115.5t-157 -95t-162.5 -85t-149.5 -86.5t-119.5 -98.5t-72 -121h768l-41 -225h-1036z" />
    <glyph glyph-name="three" unicode="3" horiz-adv-x="1229" 
d="M-70 285l209 114q31 -57 70 -95t85.5 -61.5t100 -33.5t113.5 -10q69 0 126.5 13.5t99 45t64.5 84.5t23 131q0 58 -20 99t-63.5 67t-111.5 38.5t-163 12.5h-57l32 213h66q122 0 201 17.5t124.5 49.5t63.5 78t18 103q0 40 -13 70t-43 50.5t-78.5 31t-119.5 10.5
q-37 0 -78 -5t-84 -18t-87.5 -35.5t-88.5 -56.5l-133 168q97 85 226.5 131.5t277.5 46.5q129 0 220.5 -27t150 -74t86 -111t27.5 -138q0 -86 -23.5 -153t-67.5 -116t-107 -81t-142 -47q67 -13 115 -44t78 -75t44 -99.5t14 -117.5q0 -125 -47 -217.5t-125.5 -153t-182 -90
t-216.5 -29.5q-224 0 -367 83t-217 231z" />
    <glyph glyph-name="four" unicode="4" horiz-adv-x="1296" 
d="M-25 311l35 201l850 1004h279l-172 -984h256l-39 -221h-256l-56 -311h-237l53 311h-713zM285 532h442l119 674h-4z" />
    <glyph glyph-name="five" unicode="5" horiz-adv-x="1204" 
d="M-61 221l192 152q28 -35 63 -67.5t80.5 -57t104 -39t133.5 -14.5q79 0 141.5 24.5t105.5 71t66 114t23 154.5q0 51 -16.5 95t-50 76.5t-84 50.5t-117.5 18q-87 0 -162 -34t-133 -112l-166 58l200 805h857l-56 -222h-635l-102 -395q21 21 51 41.5t66.5 36.5t79 25.5
t90.5 9.5q108 0 190 -32t137 -89.5t83 -138t28 -177.5q0 -150 -49 -263.5t-131 -189t-190 -113.5t-226 -38q-119 0 -209.5 20.5t-158.5 55t-118 79.5t-87 95z" />
    <glyph glyph-name="six" unicode="6" horiz-adv-x="1282" 
d="M72 561q0 155 27.5 288.5t77 242.5t117 193.5t147.5 142t169.5 87t182.5 29.5q81 0 149 -9.5t123 -25.5t97 -37.5t71 -44.5l-133 -196q-31 21 -63.5 37.5t-70 28t-81 18t-94.5 6.5q-82 0 -155 -34t-132.5 -100t-103 -162t-66.5 -220q31 25 73.5 53t95.5 52t117 39.5
t138 15.5q98 0 175 -28t130 -80t80.5 -126.5t27.5 -167.5q0 -143 -47 -253.5t-126.5 -185.5t-184 -114t-219.5 -39q-125 0 -222.5 40t-164 116t-101 185.5t-34.5 248.5zM313 547q0 -107 24.5 -176.5t65 -110t94 -56.5t111.5 -16q70 0 128 23.5t100 68t65 110t23 149.5
q0 48 -13 87t-42 67t-76.5 43.5t-116.5 15.5q-58 0 -109 -13t-96.5 -34t-84.5 -48.5t-73 -56.5v-53z" />
    <glyph glyph-name="seven" unicode="7" horiz-adv-x="1092" 
d="M59 0l818 1290h-725l38 226h988l-35 -209l-824 -1307h-260z" />
    <glyph glyph-name="eight" unicode="8" horiz-adv-x="1280" 
d="M0 365q0 90 35.5 160.5t94.5 124t136 92t160 65.5q-45 29 -85 62.5t-69 74t-46 89.5t-17 108q0 86 37.5 159.5t105.5 127.5t162 85t207 31q138 0 235 -32.5t158 -84.5t89 -117.5t28 -131.5q0 -86 -31.5 -149.5t-81 -110t-109 -78.5t-116.5 -54q54 -30 103.5 -66t87 -81
t59.5 -100.5t22 -124.5q0 -111 -45.5 -194t-125 -138.5t-186.5 -83t-230 -27.5q-147 0 -255.5 31.5t-180.5 85t-107 125t-35 152.5zM262 383q0 -45 20 -84t60 -67t98 -44t135 -16q68 0 128.5 14.5t105.5 44.5t71.5 75.5t26.5 107.5q0 51 -25 92t-67 75.5t-96.5 65
t-112.5 60.5q-79 -28 -142.5 -60.5t-108.5 -72t-69 -87t-24 -104.5zM457 1143q0 -45 20 -82t54.5 -67.5t80 -57.5t97.5 -53q142 56 206 124.5t64 155.5q0 34 -13.5 66.5t-44 57t-80 39.5t-120.5 15q-63 0 -112 -15t-83 -41.5t-51.5 -62.5t-17.5 -79z" />
    <glyph glyph-name="nine" unicode="9" horiz-adv-x="1282" 
d="M39 96l141 187q29 -21 61.5 -38t71 -29.5t83.5 -19t100 -6.5q81 0 154.5 35t133 101.5t103 164.5t65.5 224q-31 -26 -73.5 -55t-95.5 -53t-117 -40t-138 -16q-98 0 -175 28t-130 80.5t-80.5 126.5t-27.5 166q0 144 47 254.5t126.5 185.5t184 113.5t219.5 38.5
q125 0 222.5 -39.5t164 -115t101 -185t34.5 -248.5q0 -155 -27 -288.5t-75.5 -243t-115.5 -194t-147 -142t-170.5 -87.5t-184.5 -30q-82 0 -149.5 8.5t-123 24.5t-100.5 39.5t-82 52.5zM362 979q0 -48 12 -88t40 -68t74.5 -43.5t115.5 -15.5q58 0 110.5 13.5t98.5 35.5
t85.5 50t72.5 57q0 12 1 24t1 25q0 105 -24 173.5t-65 108.5t-94.5 56t-111.5 16q-70 0 -128 -22.5t-100 -66.5t-65 -108t-23 -147z" />
    <glyph glyph-name="colon" unicode=":" horiz-adv-x="584" 
d="M18 0l48 266h280l-47 -266h-281zM164 821l47 266h281l-48 -266h-280z" />
    <glyph glyph-name="semicolon" unicode=";" horiz-adv-x="584" 
d="M12 -229l111 229h-105l48 266h280l-39 -227l-178 -268h-117zM164 821l47 266h281l-48 -266h-280z" />
    <glyph glyph-name="less" unicode="&#x3c;" horiz-adv-x="1315" 
d="M100 590v147l1084 471v-213l-809 -331l809 -332v-213z" />
    <glyph glyph-name="equal" unicode="=" horiz-adv-x="1315" 
d="M125 342v186h1034v-186h-1034zM125 809v186h1034v-186h-1034z" />
    <glyph glyph-name="greater" unicode="&#x3e;" horiz-adv-x="1315" 
d="M109 119v213l809 332l-809 331v213l1083 -471v-147z" />
    <glyph glyph-name="question" unicode="?" horiz-adv-x="1151" 
d="M147 1335q52 54 115 93.5t131 65t139.5 38t141.5 12.5q120 0 207 -28t143.5 -75.5t83.5 -111t27 -133.5q0 -68 -14 -119.5t-38 -92t-56 -71t-68.5 -55t-75.5 -45.5t-76 -41q-64 -34 -105 -62.5t-66.5 -63.5t-38 -81.5t-19.5 -115.5h-207q3 55 7.5 95.5t12.5 82.5
q12 63 37.5 107t61.5 77.5t82.5 59.5t101.5 53q40 20 77.5 39t65.5 44t45 60t17 86q0 77 -56 121.5t-178 44.5q-91 0 -177.5 -31t-170.5 -108zM254 0l45 256h281l-45 -256h-281z" />
    <glyph glyph-name="at" unicode="@" horiz-adv-x="1778" 
d="M94 756q0 172 59 316.5t164.5 249.5t252.5 163.5t323 58.5t322 -56.5t251 -158t163.5 -242.5t58.5 -309q0 -105 -26.5 -190.5t-75.5 -146t-119.5 -93.5t-157.5 -33q-113 0 -176 39.5t-86 114.5q-63 -63 -142 -99t-186 -36q-64 0 -116.5 20t-90.5 60t-59 100t-21 139
q0 122 31.5 223.5t86.5 174t129.5 113t160.5 40.5q47 0 84 -8.5t66.5 -22.5t53 -33.5t43.5 -41.5l15 90h196l-96 -608q-11 -70 22 -110t111 -40q49 0 91.5 22t73.5 65t49 107t18 148q0 145 -49 265.5t-138 207t-213 134.5t-274 48t-274 -49.5t-212.5 -138.5t-137 -212.5
t-48.5 -270.5q0 -149 47.5 -273t134.5 -213.5t209.5 -139.5t272.5 -50q118 0 214.5 26t184.5 80l55 -88q-92 -60 -209.5 -93.5t-250.5 -33.5q-177 0 -322 58t-248 162.5t-159 248.5t-56 316zM631 674q0 -96 39 -141.5t121 -45.5q58 0 112 25.5t105 75.5l57 362
q-42 48 -86.5 69t-106.5 21q-57 0 -101.5 -30.5t-75.5 -81.5t-47.5 -117t-16.5 -137z" />
    <glyph glyph-name="A" unicode="A" horiz-adv-x="1407" 
d="M-82 0l795 1522h252l258 -1522h-252l-60 385h-544l-199 -385h-250zM471 598h410l-95 602h-4z" />
    <glyph glyph-name="B" unicode="B" horiz-adv-x="1417" 
d="M39 0l266 1516h488q122 0 219.5 -20.5t166 -62.5t105.5 -106t37 -151q0 -102 -28.5 -171t-76 -114.5t-108.5 -70.5t-125 -38l-2 -4q60 -11 109 -36t84 -64.5t54 -94t19 -124.5q0 -85 -22.5 -152.5t-61.5 -118.5t-92.5 -87t-116.5 -58.5t-131.5 -32.5t-138.5 -10h-645z
M330 221h354q70 0 127.5 12.5t98.5 41t64 75.5t23 117q0 108 -85 156.5t-259 48.5h-243zM446 879h293q72 0 131.5 12t103 39.5t67.5 74t24 115.5q0 45 -18 77.5t-56 53.5t-97.5 31t-143.5 10h-232z" />
    <glyph glyph-name="C" unicode="C" horiz-adv-x="1448" 
d="M82 602q0 143 27 269t76.5 230.5t118.5 186.5t153 139t180.5 87t200.5 30q149 0 250.5 -38.5t165.5 -106.5t95 -160.5t40 -200.5l-254 -20q-6 70 -24 124.5t-54 91.5t-93 56t-141 19q-105 0 -193.5 -51t-153 -143.5t-100.5 -222t-36 -286.5q0 -192 85.5 -297.5
t252.5 -105.5q70 0 128.5 17t108 55t91.5 100.5t79 152.5l226 -82q-47 -113 -108 -201.5t-140 -149t-177.5 -92.5t-219.5 -32q-137 0 -245.5 44t-183.5 125.5t-115 198.5t-40 263z" />
    <glyph glyph-name="D" unicode="D" horiz-adv-x="1470" 
d="M39 0l266 1516h361q170 0 304.5 -39.5t228 -118t143 -194.5t49.5 -269q0 -234 -65 -403t-182.5 -278.5t-281 -161.5t-360.5 -52h-463zM332 213h209q295 0 443.5 169.5t148.5 500.5q0 99 -27.5 176t-85.5 130.5t-148.5 81t-216.5 27.5h-133z" />
    <glyph glyph-name="E" unicode="E" horiz-adv-x="1251" 
d="M39 0l266 1516h959l-43 -238h-703l-65 -377h510l-39 -227h-510l-78 -441h741l-41 -233h-997z" />
    <glyph glyph-name="F" unicode="F" horiz-adv-x="1163" 
d="M39 0l266 1516h934l-43 -238h-678l-69 -406h485l-41 -227h-485l-113 -645h-256z" />
    <glyph glyph-name="G" unicode="G" horiz-adv-x="1511" 
d="M86 584q0 154 28.5 285.5t79.5 238t121.5 188t155 137t179 83.5t194.5 28q253 0 387 -120.5t162 -358.5l-246 -33q-14 146 -93 211.5t-227 65.5q-98 0 -185 -45t-153 -133.5t-104.5 -218.5t-38.5 -300q0 -103 24 -180.5t68 -129t105 -77.5t135 -26q73 0 136.5 22
t115 65.5t89 108t58.5 148.5h-301l39 217h547l-135 -760h-211l39 219h-4q-23 -41 -61.5 -85t-92 -80t-120.5 -59.5t-148 -23.5q-138 0 -240.5 47t-169.5 129t-100 194t-33 243z" />
    <glyph glyph-name="H" unicode="H" horiz-adv-x="1524" 
d="M39 0l266 1516h256l-106 -605h667l107 605h256l-266 -1516h-256l118 674h-667l-119 -674h-256z" />
    <glyph glyph-name="I" unicode="I" horiz-adv-x="635" 
d="M55 0l267 1516h256l-267 -1516h-256z" />
    <glyph glyph-name="J" unicode="J" horiz-adv-x="1055" 
d="M-74 164l166 168q31 -32 61 -56t60.5 -41t64 -25.5t72.5 -8.5q48 0 87 9t69.5 35.5t52.5 73.5t35 123l188 1074h256l-194 -1115q-19 -107 -56.5 -187.5t-95.5 -134.5t-138 -81t-185 -27q-79 0 -143 14.5t-117 40t-97.5 61t-85.5 77.5z" />
    <glyph glyph-name="K" unicode="K" horiz-adv-x="1409" 
d="M39 0l266 1516h256l-123 -693l721 693h281l-611 -586l408 -930h-270l-336 760l-244 -236l-92 -524h-256z" />
    <glyph glyph-name="L" unicode="L" horiz-adv-x="1163" 
d="M39 0l266 1516h256l-225 -1283h676l-41 -233h-932z" />
    <glyph glyph-name="M" unicode="M" horiz-adv-x="1808" 
d="M39 0l266 1516h338l184 -1203h4l596 1203h342l-266 -1516h-248l201 1137h-4q-31 -81 -67 -158t-74 -156l-432 -823h-228l-137 823q-6 41 -11.5 76t-10.5 72t-9 79.5t-6 98.5h-4l-203 -1149h-231z" />
    <glyph glyph-name="N" unicode="N" horiz-adv-x="1542" 
d="M39 0l266 1516h260l506 -1088h4l193 1088h235l-266 -1516h-233l-529 1110h-4l-195 -1110h-237z" />
    <glyph glyph-name="O" unicode="O" horiz-adv-x="1544" 
d="M82 618q0 151 31.5 278.5t86.5 230.5t130.5 181t164.5 130.5t187 79t199 26.5q128 0 235 -45t184.5 -128.5t120.5 -203t43 -268.5q0 -150 -30.5 -277.5t-84 -230.5t-127.5 -181.5t-161.5 -131.5t-184 -80t-196.5 -27q-133 0 -243 45.5t-189 129.5t-122.5 203.5
t-43.5 268.5zM340 621q0 -99 23 -176.5t68 -131t110.5 -82t150.5 -28.5q98 0 190.5 42.5t164.5 128.5t115.5 216.5t43.5 306.5q0 97 -23 174t-67.5 129.5t-110 80.5t-151.5 28q-96 0 -188.5 -41.5t-164.5 -126t-116.5 -214t-44.5 -306.5z" />
    <glyph glyph-name="P" unicode="P" horiz-adv-x="1337" 
d="M39 0l266 1516h449q131 0 237.5 -23t181.5 -71.5t115.5 -123.5t40.5 -180q0 -104 -24.5 -184.5t-67.5 -141t-101.5 -102t-127 -67t-144 -37t-151.5 -11.5h-320l-100 -575h-254zM432 799h305q74 0 135.5 14t105.5 47.5t68.5 89.5t24.5 140q0 50 -18.5 86t-59 59.5
t-103.5 35t-151 11.5h-221z" />
    <glyph glyph-name="Q" unicode="Q" horiz-adv-x="1544" 
d="M82 618q0 151 31 278.5t86 230.5t130.5 181t164 130.5t186.5 79t199 26.5q129 0 236 -45t184.5 -128.5t120 -203t42.5 -268.5q0 -213 -59 -377.5t-158 -280t-227.5 -180t-267.5 -77.5q-1 -10 -1 -20q0 -39 11 -63q12 -30 45 -45.5t89 -19.5t140 -4h99l-41 -227h-168
q-227 0 -335 101q-92 86 -92 238q0 27 3 56q-96 25 -173.5 79t-131.5 133t-83.5 181t-29.5 225zM338 621q0 -99 23.5 -176.5t69.5 -131t112.5 -82t152.5 -28.5q96 0 187.5 42.5t162.5 128.5t114.5 216.5t43.5 306.5q0 97 -23.5 174t-68.5 129.5t-111 80.5t-151 28
q-97 0 -189 -41.5t-164 -126t-115.5 -214t-43.5 -306.5z" />
    <glyph glyph-name="R" unicode="R" horiz-adv-x="1395" 
d="M39 0l266 1516h461q135 0 240 -24.5t176.5 -74t109 -123t37.5 -170.5q0 -104 -30 -188.5t-84 -148t-128.5 -103.5t-164.5 -55l229 -629h-256l-217 598h-283l-104 -598h-252zM436 821h305q68 0 128 10.5t105 40t71 83.5t26 141q0 101 -78.5 143.5t-242.5 42.5h-234z" />
    <glyph glyph-name="S" unicode="S" horiz-adv-x="1360" 
d="M10 371l232 78q24 -69 57 -116.5t80.5 -77t110.5 -43t147 -13.5q60 0 115.5 9.5t98 34.5t68 66.5t25.5 106.5q0 59 -32 100t-84.5 72.5t-119.5 56.5t-137.5 51.5t-137.5 58t-119.5 76t-84.5 105t-32 145.5q0 118 42.5 205t115.5 145t170 86.5t206 28.5q122 0 211.5 -23.5
t155 -66t112 -101t82.5 -128.5l-223 -105q-47 89 -132.5 140t-221.5 51q-59 0 -107.5 -12t-83 -37t-53 -62t-18.5 -88q0 -55 32 -94t84.5 -69t119.5 -55t137.5 -51.5t137.5 -58.5t119.5 -76.5t84.5 -105.5t32 -145q0 -125 -44.5 -217.5t-122.5 -153t-185.5 -90t-233.5 -29.5
q-129 0 -229.5 26t-174.5 77t-123.5 126t-76.5 173z" />
    <glyph glyph-name="T" unicode="T" horiz-adv-x="1280" 
d="M145 1278l43 238h1170l-43 -238h-457l-223 -1278h-256l223 1278h-457z" />
    <glyph glyph-name="U" unicode="U" horiz-adv-x="1456" 
d="M116 351q-5 43 -5 89q0 75 14 156l160 920h256l-162 -934q-11 -64 -11 -118q0 -20 2 -38q6 -70 37 -118.5t92 -74.5t156 -26q79 0 139.5 17.5t104 55.5t72 99.5t43.5 148.5l172 988h252l-178 -1018q-93 -525 -617 -525q-171 0 -282 48t-171 132t-74 198z" />
    <glyph glyph-name="V" unicode="V" horiz-adv-x="1376" 
d="M184 1516h254l174 -1182h4l594 1182h248l-784 -1522h-242z" />
    <glyph glyph-name="W" unicode="W" horiz-adv-x="1913" 
d="M193 1516h256l45 -785q5 -91 10 -176.5t8 -175.5h4q34 90 68 174.5t71 175.5l320 787h246l51 -791q3 -48 5.5 -90.5t4.5 -83.5t3.5 -82.5t2.5 -89.5h4q19 50 35 91t31.5 80.5t32 80t36.5 88.5l320 797h240l-656 -1516h-223l-70 1161h-4l-489 -1161h-226z" />
    <glyph glyph-name="X" unicode="X" horiz-adv-x="1407" 
d="M-72 0l641 819l-317 697h262l236 -517l391 517h270l-565 -728l360 -788h-262l-278 608l-467 -608h-271z" />
    <glyph glyph-name="Y" unicode="Y" horiz-adv-x="1333" 
d="M166 1516h260l256 -646l481 646h273l-660 -863l-114 -653h-256l114 653z" />
    <glyph glyph-name="Z" unicode="Z" horiz-adv-x="1300" 
d="M-61 0l36 199l1004 1083h-760l41 234h1083l-34 -203l-996 -1084h805l-41 -229h-1138z" />
    <glyph glyph-name="bracketleft" unicode="[" horiz-adv-x="852" 
d="M-47 -410l338 1926h620l-30 -181h-367l-274 -1564h366l-33 -181h-620z" />
    <glyph glyph-name="backslash" unicode="\" horiz-adv-x="1184" 
d="M162 1516h246l614 -1516h-246z" />
    <glyph glyph-name="bracketright" unicode="]" horiz-adv-x="852" 
d="M-131 -410l31 181h368l275 1564h-367l31 181h620l-338 -1926h-620z" />
    <glyph glyph-name="asciicircum" unicode="^" horiz-adv-x="1315" 
d="M117 678l471 838h147l471 -838h-213l-331 582l-332 -582h-213z" />
    <glyph glyph-name="underscore" unicode="_" horiz-adv-x="1014" 
d="M-186 -297l32 182h1014l-31 -182h-1015z" />
    <glyph glyph-name="grave" unicode="`" horiz-adv-x="1024" 
d="M274 1542h271l160 -340h-166z" />
    <glyph glyph-name="a" unicode="a" horiz-adv-x="1147" 
d="M-18 246q0 98 45 178.5t140.5 140t243 97t351.5 49.5l6 30q5 24 5 44q1 49 -29 77q-42 39 -148 39q-45 0 -92 -7.5t-93.5 -22t-90.5 -34.5t-82 -44l-97 163q39 29 92.5 56.5t118.5 48.5t139.5 34t155.5 13q120 0 197.5 -30.5t119.5 -85.5q40 -54 50 -130q4 -28 4 -60
q0 -51 -10 -108l-76 -428q-8 -45 -13.5 -79t-7.5 -64t-1.5 -59.5t5.5 -63.5h-253q-3 21 -4.5 37t-2 31.5t1 32.5t5.5 38q-92 -84 -189.5 -120.5t-191.5 -36.5q-69 0 -124.5 19t-94.5 53.5t-59.5 83.5t-20.5 108zM238 297q0 -54 38.5 -87.5t112.5 -33.5q84 0 158 35t143 92
l41 238q-141 -12 -235.5 -33t-151.5 -51.5t-81.5 -70.5t-24.5 -89z" />
    <glyph glyph-name="b" unicode="b" horiz-adv-x="1231" 
d="M8 0l266 1516h252l-100 -572q22 30 55.5 59.5t76 52.5t93 37.5t107.5 14.5q87 0 155 -30t115.5 -85.5t72.5 -135t25 -179.5q0 -164 -41 -293t-110.5 -218.5t-162.5 -137t-198 -47.5q-116 0 -196.5 30t-141.5 97l-18 -109h-250zM309 291q48 -56 109 -82.5t135 -26.5
q60 0 117 28t101.5 85t71.5 143t27 203q0 118 -55.5 185t-161.5 67q-38 0 -75.5 -11.5t-71.5 -30.5t-62.5 -42t-48.5 -47z" />
    <glyph glyph-name="c" unicode="c" horiz-adv-x="1096" 
d="M31 446q0 123 25.5 220t69.5 170.5t101.5 125t122 84t131.5 47.5t129 15q109 0 184 -24.5t124.5 -69.5t78 -107.5t43.5 -138.5l-225 -41q-12 51 -29 84t-42.5 52.5t-61 27.5t-84.5 8q-62 0 -119 -28t-100 -85.5t-68.5 -144t-25.5 -203.5q0 -125 51.5 -190.5t163.5 -65.5
q41 0 76 8t66.5 29t60.5 58t59 96l196 -82q-29 -62 -68.5 -119t-95 -100.5t-131 -69t-176.5 -25.5q-98 0 -181 30t-144.5 89.5t-96 147t-34.5 202.5z" />
    <glyph glyph-name="d" unicode="d" horiz-adv-x="1231" 
d="M29 412q0 181 46 312.5t119.5 216.5t164.5 126t182 41q120 0 203.5 -34.5t134.5 -90.5l92 533h252l-219 -1250q-8 -47 -13 -84t-7.5 -68t-1 -58.5t6.5 -55.5h-260q-6 28 -7 64v9q0 33 7 70q-57 -75 -138.5 -118t-191.5 -43q-76 0 -143 25t-117.5 77.5t-80 134
t-29.5 193.5zM283 432q0 -122 56.5 -186t162.5 -64q71 0 135 34t123 97l84 471q-44 50 -102 79.5t-142 29.5q-53 0 -109 -24.5t-102.5 -79.5t-76 -142.5t-29.5 -214.5z" />
    <glyph glyph-name="e" unicode="e" horiz-adv-x="1135" 
d="M31 440q0 131 29.5 231.5t77.5 175t110 124.5t127 80.5t127 43.5t112 13q122 0 209 -40.5t137 -116.5t64 -185q5 -40 5 -84q0 -75 -15 -162l-10 -59h-728v-25q0 -80 23.5 -130t60 -78.5t81.5 -39t89 -10.5q55 0 100.5 9t84 27t71 44t62.5 61l156 -131q-40 -47 -90.5 -86
t-113.5 -66.5t-139.5 -43t-168.5 -15.5q-100 0 -184.5 29.5t-146 87.5t-96 145t-34.5 201zM303 649h504q3 26 3 49q0 30 -4 56q-8 47 -32.5 80t-68 51t-109.5 18q-48 0 -92.5 -15.5t-82.5 -47t-68.5 -79.5t-49.5 -112z" />
    <glyph glyph-name="f" unicode="f" horiz-adv-x="756" 
d="M70 887l36 200h185l22 134q11 68 34.5 123.5t67 95t109.5 61t162 21.5q18 0 44.5 -2t52.5 -4t47 -5l28 -4l-37 -192q-12 3 -42.5 6.5t-61.5 3.5q-29 0 -55 -4t-46 -17.5t-34.5 -39.5t-20.5 -70l-18 -107h227l-37 -200h-227l-156 -887h-252l156 887h-184z" />
    <glyph glyph-name="g" unicode="g" horiz-adv-x="1198" 
d="M-147 -139q0 55 23.5 98t58.5 74.5t75 52.5t74 33q-28 20 -42.5 45.5t-14.5 60.5q0 25 8 52t27.5 54t52.5 53t82 48q-57 50 -85 114.5t-28 139.5q0 102 40 180.5t108 132.5t158.5 81.5t191.5 27.5q115 0 197 -34t134 -91q31 23 69.5 43t78.5 35.5t79.5 25.5t71.5 13
l-34 -203q-50 -2 -102 -8t-95 -19q9 -29 14.5 -61t5.5 -64q0 -102 -38.5 -179.5t-105 -129t-155 -78t-188.5 -26.5q-60 0 -110.5 9t-94.5 26q-41 -28 -41 -58q0 -24 17.5 -38.5t52.5 -25t88 -19t125 -19.5q79 -12 154.5 -29t134.5 -48t95 -80t36 -124q0 -100 -46.5 -167
t-123.5 -107.5t-176 -58t-205 -17.5q-157 0 -265 24.5t-175 64t-97 91t-30 105.5zM115 -100q0 -34 16.5 -60t56.5 -44t107.5 -27t169.5 -9q55 0 104 5.5t86 18.5t58.5 35t21.5 56t-21 57.5t-57.5 39.5t-87 26.5t-110.5 19.5q-60 10 -117.5 18.5t-108.5 20.5
q-24 -11 -45 -27.5t-37.5 -36.5t-26 -43.5t-9.5 -49.5zM322 678q0 -84 51 -130t157 -46q52 0 96.5 14t76 43.5t49.5 75.5t18 110q0 83 -47.5 130t-155.5 47q-51 0 -95.5 -15t-77.5 -45.5t-52.5 -76.5t-19.5 -107z" />
    <glyph glyph-name="h" unicode="h" horiz-adv-x="1214" 
d="M8 0l268 1516h252l-102 -582q28 32 67.5 63.5t88 56t105 39.5t118.5 15q165 0 237 -89q51 -63 52 -164q0 -40 -9 -87l-135 -768h-252l125 713q6 30 6 55q0 50 -22 80q-33 46 -129 45q-35 0 -71.5 -10t-73.5 -27.5t-72.5 -42.5t-67.5 -55l-133 -758h-252z" />
    <glyph glyph-name="i" unicode="i" horiz-adv-x="557" 
d="M18 0l193 1087h252l-193 -1087h-252zM242 1278l39 217h256l-39 -217h-256z" />
    <glyph glyph-name="j" unicode="j" horiz-adv-x="557" 
d="M-242 -403l31 176q17 -3 44.5 -6t53.5 -3q51 0 76 27.5t37 99.5l213 1196h252l-221 -1255q-11 -56 -31 -101.5t-54 -78t-84.5 -50.5t-121.5 -18q-65 0 -115.5 4t-79.5 9zM244 1278l37 217h256l-37 -217h-256z" />
    <glyph glyph-name="k" unicode="k" horiz-adv-x="1133" 
d="M8 0l266 1516h252l-155 -889l481 460h268l-424 -401l262 -686h-253l-201 522l-182 -170l-62 -352h-252z" />
    <glyph glyph-name="l" unicode="l" horiz-adv-x="557" 
d="M18 0l267 1516h252l-267 -1516h-252z" />
    <glyph glyph-name="m" unicode="m" horiz-adv-x="1872" 
d="M8 0l193 1087h252l-27 -153q28 32 65 63.5t82.5 56t99.5 39.5t115 15q62 0 110 -13.5t82.5 -37.5t56 -57.5t30.5 -73.5q75 81 173.5 131.5t221.5 50.5q166 0 238 -89q52 -64 51 -164q0 -40 -8 -87l-135 -768h-252l125 713q5 28 5 53q0 50 -22 81q-34 46 -129 46
q-66 0 -134 -36.5t-134 -96.5l-133 -760h-252l125 713q6 30 6 55q-1 50 -23 80q-34 46 -128 45q-69 0 -136.5 -37.5t-132.5 -97.5l-133 -758h-252z" />
    <glyph glyph-name="n" unicode="n" horiz-adv-x="1214" 
d="M8 0l193 1087h252l-27 -153q28 32 67.5 63.5t88 56t105 39.5t118.5 15q165 0 237 -89q51 -63 52 -164q0 -40 -9 -87l-135 -768h-252l125 713q6 30 6 55q0 50 -22 80q-33 46 -129 45q-35 0 -71.5 -10t-73.5 -27.5t-72.5 -42.5t-67.5 -55l-133 -758h-252z" />
    <glyph glyph-name="o" unicode="o" horiz-adv-x="1200" 
d="M31 449q0 119 25 214t68.5 168t101.5 125.5t124 86t137 49.5t140 16q96 0 181 -29.5t148.5 -88.5t100.5 -146.5t37 -204.5q0 -118 -25 -212.5t-68 -168.5t-101.5 -127t-124.5 -87t-137 -50.5t-140 -16.5q-96 0 -181 30t-148.5 89.5t-100.5 148t-37 204.5zM285 444
q0 -58 13 -106.5t40.5 -83t72 -53.5t107.5 -19q66 0 124.5 29.5t102.5 87t69.5 142t25.5 194.5q0 58 -13.5 107t-42 83.5t-73.5 54t-107 19.5q-67 0 -125 -30.5t-101 -88.5t-68 -143t-25 -193z" />
    <glyph glyph-name="p" unicode="p" horiz-adv-x="1231" 
d="M-66 -412l267 1499h252l-27 -143q25 34 60.5 63.5t78 52t91 35.5t100.5 13q86 0 154.5 -29t116.5 -84t73.5 -135t25.5 -182q0 -168 -42.5 -298t-113.5 -218.5t-164 -134t-194 -45.5q-112 0 -193.5 31t-139.5 96l-91 -521h-254zM309 291q25 -26 51 -46t55 -34t63 -21.5
t75 -7.5q55 0 111.5 26t102 81.5t74.5 142t29 207.5q0 124 -57.5 189t-159.5 65q-35 0 -70.5 -10t-69.5 -27.5t-64.5 -41.5t-53.5 -52z" />
    <glyph glyph-name="q" unicode="q" horiz-adv-x="1231" 
d="M29 412q0 122 21.5 221t58 176.5t86.5 134t107 93t118.5 54t122.5 17.5q65 0 117 -10t93 -27t72 -40t54 -48l18 104h252l-264 -1497h-252l96 547q-57 -72 -138.5 -113.5t-191.5 -41.5q-84 0 -152 28t-116.5 82.5t-75 134.5t-26.5 185zM283 432q0 -122 56.5 -186
t162.5 -64q71 0 135 34t123 97l84 471q-44 50 -102 79.5t-142 29.5q-53 0 -109 -24.5t-102.5 -79.5t-76 -142.5t-29.5 -214.5z" />
    <glyph glyph-name="r" unicode="r" horiz-adv-x="834" 
d="M8 0l193 1087h252l-31 -178h2q31 39 72 74.5t92.5 63.5t114.5 44.5t139 16.5h10l-41 -225q-20 2 -39.5 3t-30.5 1q-48 0 -97.5 -14.5t-96.5 -41t-89.5 -63t-76.5 -80.5l-121 -688h-252z" />
    <glyph glyph-name="s" unicode="s" horiz-adv-x="1051" 
d="M-45 174l162 139q55 -63 141 -101t199 -40h12q36 0 69 5q38 6 66 21.5t44 41.5t16 67q0 36 -23.5 61t-62.5 43.5t-88.5 34t-101 33t-101 39.5t-88.5 54t-62.5 77.5t-23.5 108.5q0 89 33.5 154.5t89 109t128 65t150.5 21.5q89 0 162.5 -13.5t131.5 -36t102 -53.5t75 -65
l-151 -156q-57 59 -135.5 93t-174.5 34q-80 0 -123 -29.5t-43 -90.5q0 -37 23.5 -62t62.5 -44t88.5 -34t101 -32t101 -38.5t88.5 -53t62.5 -75.5t23.5 -106q0 -73 -19.5 -128.5t-53 -96t-78.5 -67.5t-96.5 -43.5t-106 -23.5t-106.5 -7q-93 0 -169.5 14.5t-137.5 40.5
t-107.5 61.5t-79.5 77.5z" />
    <glyph glyph-name="t" unicode="t" horiz-adv-x="811" 
d="M61 887l37 200h185l65 379h252l-65 -379h270l-37 -200h-270l-97 -543q-8 -42 -8 -72q1 -34 15 -54q14 -18 42.5 -26t77.5 -8q25 0 54 4t49 9l-19 -195q-11 -3 -33 -6t-48.5 -5t-54 -3.5t-48.5 -1.5q-107 0 -169.5 22.5t-92.5 64.5t-33 101q-1 11 -1 23q0 50 11 110
l103 580h-185z" />
    <glyph glyph-name="u" unicode="u" horiz-adv-x="1212" 
d="M52 174q-5 29 -5 61q0 39 8 84l135 768h252l-127 -718q-5 -28 -5 -51q0 -52 24 -84q34 -46 127 -46q71 0 144 38t138 98l136 763h251l-192 -1087h-252l27 154q-28 -32 -67 -64t-87.5 -57t-105 -40.5t-117.5 -15.5q-81 0 -140.5 23t-95.5 66.5t-48 107.5z" />
    <glyph glyph-name="v" unicode="v" horiz-adv-x="1059" 
d="M80 1087h256l113 -802h4l399 802h248l-578 -1091h-254z" />
    <glyph glyph-name="w" unicode="w" horiz-adv-x="1544" 
d="M86 1087h252l33 -450q5 -85 10 -167.5t8 -178.5h4q22 54 40.5 98t35 84.5t34 80.5t38.5 87l194 446h205l39 -454q4 -45 7.5 -85t6.5 -79.5t5.5 -82.5t5.5 -95h4q21 52 38.5 94.5t33.5 81.5l34 78q16 39 35 84l199 458h229l-506 -1087h-233l-66 758h-4l-330 -758h-231z
" />
    <glyph glyph-name="x" unicode="x" horiz-adv-x="1071" 
d="M-94 0l465 569l-244 518h262l160 -339l268 339h258l-434 -532l262 -555h-262l-178 377l-297 -377h-260z" />
    <glyph glyph-name="y" unicode="y" horiz-adv-x="1100" 
d="M-176 -375l84 205q13 -6 34 -13t44.5 -13.5t48 -10.5t45.5 -4q60 0 98.5 29.5t67.5 85.5l49 90l-211 1093h260l129 -792h4l410 792h252l-693 -1251q-35 -65 -71.5 -113t-78.5 -80.5t-92.5 -48.5t-113.5 -16q-91 0 -158.5 15t-107.5 32z" />
    <glyph glyph-name="z" unicode="z" horiz-adv-x="1044" 
d="M-63 0l24 145l684 742h-508l37 200h830l-27 -151l-686 -741h590l-35 -195h-909z" />
    <glyph glyph-name="braceleft" unicode="{" horiz-adv-x="842" 
d="M8 463l33 180q63 0 108 10t76.5 37.5t52 75.5t33.5 123l62 350q23 134 108 205.5t219 71.5h213l-30 -181h-80q-84 0 -129.5 -40.5t-59.5 -118.5l-55 -316q-13 -75 -33.5 -127t-49 -87t-64.5 -56t-80 -35l-2 -4q39 -14 68 -35t45 -56t18.5 -87t-10.5 -127l-56 -316
q-14 -78 18 -118.5t115 -40.5h80l-33 -181h-182q-82 0 -137.5 21t-86.5 58t-40 88.5t2 113.5l62 346q13 75 9 123t-26.5 75.5t-64 37.5t-103.5 10z" />
    <glyph glyph-name="bar" unicode="|" horiz-adv-x="772" 
d="M252 -410v1926h248v-1926h-248z" />
    <glyph glyph-name="braceright" unicode="}" horiz-adv-x="842" 
d="M-143 -410l30 181h82q84 0 128.5 40.5t58.5 118.5l59 336q13 75 33 124t48 80t63 49t79 32l2 4q-39 14 -68 32t-46 49t-20.5 80t9.5 124l60 336q14 78 -17 118.5t-114 40.5h-80l31 181h202q82 0 135 -17.5t81 -51.5t34.5 -82.5t-4.5 -109.5l-63 -366q-13 -75 -9.5 -123
t25.5 -75.5t63.5 -37.5t104.5 -10l-33 -180q-64 0 -109 -10t-76.5 -37.5t-51.5 -75.5t-33 -123l-66 -371q-23 -134 -96 -195t-209 -61h-233z" />
    <glyph glyph-name="asciitilde" unicode="~" horiz-adv-x="1315" 
d="M129 606q9 74 30.5 126t54 85t75 47t92.5 13q41 -1 91.5 -12t103.5 -26.5t106 -33t101 -33t87 -26t64 -11.5q20 -1 37 3t30 15t21.5 30t11.5 48l152 -18q-9 -75 -30.5 -128t-54 -86.5t-75 -48.5t-92.5 -13q-40 1 -89.5 11.5t-102.5 25.5t-107 32.5t-102 32.5t-87.5 25.5
t-64.5 11.5q-40 3 -66 -16.5t-32 -75.5z" />
    <glyph glyph-name="glyph98" unicode="&#xa0;" horiz-adv-x="514" 
 />
    <glyph glyph-name="exclamdown" unicode="&#xa1;" horiz-adv-x="694" 
d="M51 0l256 1065h180l-120 -1065h-316zM291 1260l45 256h280l-45 -256h-280z" />
    <glyph glyph-name="cent" unicode="&#xa2;" horiz-adv-x="1108" 
d="M31 446q0 123 25.5 220t69 170.5t101 125t121.5 84t131 47.5t129 15q50 0 97 -6l96 205h139l-111 -238q47 -20 81.5 -50t59.5 -68.5t41 -84.5t27 -98l-217 -41q-12 59 -35.5 96.5t-58.5 57.5l-317 -695q21 -8 44.5 -11t49.5 -3q37 0 71 10t66.5 33t63.5 62t61 98l192 -80
q-30 -62 -71.5 -119.5t-99 -101.5t-132.5 -70.5t-170 -26.5q-40 0 -77.5 6t-71.5 15l-123 -262h-139l145 313q-88 57 -138 156t-50 241zM270 438q0 -119 54 -188l303 657q-8 2 -17 2h-18q-62 0 -120 -29.5t-103 -89t-72 -147.5t-27 -205z" />
    <glyph glyph-name="sterling" unicode="&#xa3;" horiz-adv-x="1325" 
d="M-61 188q0 65 23 114t62 81.5t90.5 49t108.5 16.5q76 0 135.5 -26.5t112.5 -64.5q12 55 12 123q0 54 -9.5 105.5t-24.5 103.5h-279l29 168h194q-20 63 -35.5 126t-15.5 128q0 103 35.5 183t97.5 135.5t145.5 84.5t178.5 29q129 0 210.5 -35t128 -93t64 -132.5
t17.5 -153.5l-232 -20q1 46 -6.5 86.5t-29 71t-59 48t-95.5 17.5q-44 0 -82 -12.5t-66.5 -40t-44.5 -71t-16 -105.5t17.5 -121.5t39.5 -124.5h338l-29 -168h-262q19 -75 19 -164q0 -83 -19.5 -157.5t-54.5 -137.5q38 -24 78.5 -39.5t87.5 -15.5q37 0 70.5 9t59.5 33.5
t42.5 68.5t21.5 114h217q-10 -93 -35.5 -172t-71.5 -136.5t-115.5 -89.5t-166.5 -32q-50 0 -93 9t-81 24.5t-71 36t-62 43.5q-65 -54 -144 -83.5t-169 -29.5q-62 0 -111.5 16t-84 44.5t-52.5 68.5t-18 88zM111 197q0 -38 26 -62t80 -24q43 0 90.5 20.5t85.5 65.5
q-43 42 -84 70t-88 28q-46 0 -78 -22.5t-32 -75.5z" />
    <glyph glyph-name="yen" unicode="&#xa5;" horiz-adv-x="1323" 
d="M68 199l30 172h367l24 143h-366l31 168h362l-344 834h262l244 -646l469 646h270l-637 -834h367l-31 -168h-371l-24 -143h371l-31 -172h-371l-35 -199h-256l35 199h-366z" />
    <glyph glyph-name="brokenbar" unicode="&#xa6;" horiz-adv-x="772" 
d="M252 -410v838h248v-838h-248zM252 678v838h248v-838h-248z" />
    <glyph glyph-name="section" unicode="&#xa7;" horiz-adv-x="1139" 
d="M-16 -51l202 31q6 -47 18.5 -85.5t36.5 -66t63 -42.5t97 -15q92 0 136.5 42.5t44.5 110.5q0 43 -21.5 80.5t-57.5 71.5t-81.5 67t-92.5 67t-92.5 71.5t-81.5 81t-57.5 94.5t-21.5 112q0 68 23.5 124.5t62.5 102t89.5 80t104.5 58.5q-49 49 -79.5 108t-30.5 134
q0 81 31.5 149t87 116.5t132 75.5t167.5 27q121 0 201 -29t128.5 -78t72 -113t32.5 -134l-201 -31q-5 44 -19 81t-41 64t-68 42.5t-99 15.5q-46 0 -81.5 -12t-59.5 -33t-36 -49.5t-12 -61.5q0 -41 22 -77t58 -69.5t82.5 -66t94.5 -67t94.5 -71.5t82.5 -80.5t58 -95
t22 -112.5q0 -68 -24 -125.5t-63.5 -103.5t-91 -81.5t-105.5 -59.5q46 -50 76 -108t30 -130q0 -81 -30 -149t-84 -117t-129.5 -76t-165.5 -27q-125 0 -203.5 31.5t-124.5 82.5t-66.5 115.5t-29.5 129.5zM295 623q0 -48 25 -88.5t65 -77.5t91 -73t104 -75q97 44 146.5 91
t49.5 112q0 48 -25 88.5t-66 77.5t-92.5 72t-103.5 73q-96 -43 -145 -90t-49 -110z" />
    <glyph glyph-name="dieresis" unicode="&#xa8;" horiz-adv-x="1055" 
d="M293 1196l43 248h229l-43 -248h-229zM686 1196l43 248h229l-43 -248h-229z" />
    <glyph glyph-name="copyright" unicode="&#xa9;" horiz-adv-x="1772" 
d="M104 756q0 110 27.5 211t78 188.5t122 159.5t158.5 122.5t188 78.5t211 28t210.5 -27.5t187.5 -78t158 -121.5t121 -158t77.5 -188t27.5 -211t-27.5 -211.5t-78.5 -189t-122 -159.5t-158.5 -122.5t-188.5 -78.5t-211 -28t-211 27.5t-187.5 78t-157 121.5t-121 158.5
t-77.5 188.5t-27 211zM233 760q0 -141 50 -263t138 -212.5t208 -142.5t260 -52t259.5 51.5t207 141t137 211t49.5 262.5t-50.5 263.5t-138.5 212.5t-208.5 141.5t-259.5 51.5t-258.5 -51t-207 -140t-137 -211t-49.5 -263zM520 766q0 102 25.5 184t73 140t115 89t151.5 31
q70 0 125 -19t96 -54.5t67.5 -86t40.5 -112.5l-145 -37q-12 41 -27 72.5t-36.5 53.5t-50.5 33t-68 11q-48 0 -86 -22t-64.5 -61.5t-40.5 -95.5t-14 -124q0 -145 54 -226t151 -81q77 0 122 45.5t66 138.5q42 -12 70 -19.5t45 -12t25 -6t10 -1.5q-18 -66 -46 -119t-70 -90.5
t-98.5 -57.5t-129.5 -20q-81 0 -148 30.5t-114 88.5t-73 140.5t-26 187.5z" />
    <glyph glyph-name="ordfeminine" unicode="&#xaa;" horiz-adv-x="879" 
d="M128 950q6 66 39 119t98.5 92t165.5 64t240 35l4 22q5 26 2.5 47t-15.5 35.5t-38 22.5t-64 8q-129 0 -254 -88l-76 114q79 56 167.5 85.5t195.5 29.5q87 0 142 -21.5t84 -60.5t35 -93.5t-5 -121.5l-51 -289q-6 -32 -9.5 -58.5t-5 -49t-0.5 -42t6 -38.5h-186q-3 25 -4 48
t4 52q-65 -59 -134 -88t-134 -29q-51 0 -91.5 15.5t-67.5 43.5t-40 65t-8 81zM316 975q-3 -37 21 -61.5t80 -24.5q52 0 104 25.5t100 62.5l29 160q-96 -7 -159.5 -21t-102 -34t-55 -47t-17.5 -60z" />
    <glyph glyph-name="guillemotleft" unicode="&#xab;" horiz-adv-x="1204" 
d="M29 545l424 542h243l-411 -542l219 -545h-244zM510 545l424 542h244l-412 -542l219 -545h-244z" />
    <glyph glyph-name="logicalnot" unicode="&#xac;" horiz-adv-x="1309" 
d="M137 600v217h1034v-641h-204v424h-830z" />
    <glyph glyph-name="registered" unicode="&#xae;" horiz-adv-x="1098" 
d="M98 1073q0 100 37 186.5t101 150.5t150.5 101t186.5 37q99 0 185 -36.5t149.5 -100.5t100 -150t36.5 -186q0 -101 -36.5 -188t-100.5 -151t-151 -101t-187 -37t-186 36.5t-149.5 100.5t-99.5 150.5t-36 187.5zM182 1075q0 -84 29.5 -157t82 -127t124 -84.5t155.5 -30.5
q82 0 153 30.5t123.5 83.5t82 126t29.5 157t-30 156.5t-82.5 126t-124.5 84t-155 30.5q-82 0 -153 -30.5t-123 -83.5t-81.5 -125t-29.5 -156zM389 823v520h193q93 0 143.5 -39.5t50.5 -119.5q0 -63 -27 -97.5t-73 -50.5l112 -213h-110l-105 199h-81v-199h-103zM492 1102h83
q48 0 74.5 17t26.5 59q0 38 -26.5 55.5t-74.5 17.5h-83v-149z" />
    <glyph glyph-name="macron" unicode="&#xaf;" horiz-adv-x="1014" 
d="M272 1196l33 186h629l-33 -186h-629z" />
    <glyph glyph-name="degree" unicode="&#xb0;" horiz-adv-x="829" 
d="M184 1198q0 81 31 145t79.5 108.5t109 67.5t120.5 23q69 0 123 -21.5t91.5 -58.5t57 -87t19.5 -107q0 -81 -30.5 -145.5t-79.5 -109t-109.5 -68t-120.5 -23.5q-68 0 -122 21.5t-91.5 59t-57.5 87.5t-20 108zM332 1204q0 -33 10 -61t28.5 -48.5t45.5 -32t61 -11.5
q35 0 69.5 13.5t61.5 40t43.5 65.5t16.5 90q0 33 -10 61t-29.5 48.5t-47 32t-61.5 11.5q-35 0 -69 -13.5t-60.5 -40t-42.5 -65.5t-16 -90z" />
    <glyph glyph-name="plusminus" unicode="&#xb1;" horiz-adv-x="1315" 
d="M137 59v191h420v381h-420v198h420v433h203v-433h420v-198h-420v-381h420v-191h-1043z" />
    <glyph glyph-name="uni00B2" unicode="&#xb2;" horiz-adv-x="952" 
d="M90 553l8 49q16 91 50 157.5t79.5 115t98 82.5t105 60.5t101 49.5t86 49.5t60 60t22.5 80.5q0 44 -28 74.5t-84 30.5q-27 0 -55 -5.5t-57 -20t-59 -39.5t-61 -64l-131 108q80 105 180 150t209 45q75 0 129.5 -19t90.5 -52t53.5 -78.5t17.5 -98.5q0 -70 -21.5 -122
t-57 -92t-81.5 -69.5t-95.5 -54.5t-98.5 -47.5t-90.5 -48.5t-72 -57.5t-42.5 -73.5h465l-29 -170h-692z" />
    <glyph glyph-name="uni00B3" unicode="&#xb3;" horiz-adv-x="952" 
d="M96 743l148 97q21 -39 45 -65t51 -41t56.5 -21t60.5 -6q91 0 138.5 40.5t47.5 112.5q2 60 -43 93.5t-147 33.5h-80l26 148h86q109 0 160 29.5t51 101.5q0 41 -27 69.5t-94 28.5q-60 0 -117 -21t-116 -69l-92 127q88 76 181.5 105.5t186.5 29.5q75 0 129.5 -18t90 -49.5
t52.5 -73.5t17 -90q0 -90 -46.5 -152t-145.5 -94q75 -25 108 -77.5t33 -117.5q0 -81 -31.5 -142.5t-85.5 -102.5t-125.5 -61.5t-152.5 -20.5q-137 0 -228.5 54.5t-136.5 151.5z" />
    <glyph glyph-name="acute" unicode="&#xb4;" horiz-adv-x="1014" 
d="M412 1202l241 340h271l-346 -340h-166z" />
    <glyph glyph-name="uni00B5" unicode="&#xb5;" horiz-adv-x="1221" 
d="M-63 -410l264 1497h252l-127 -718q-17 -90 16 -134.5t129 -44.5q71 0 141 36t140 98l135 763h252l-193 -1087h-252l27 154q-28 -29 -62.5 -58t-76.5 -52.5t-90 -38.5t-103 -15q-40 0 -71 12.5t-50 34.5l-80 -447h-251z" />
    <glyph glyph-name="paragraph" unicode="&#xb6;" horiz-adv-x="1280" 
d="M135 1034q0 109 37 198t105.5 152t164.5 97.5t213 34.5h600l-337 -1926h-181l305 1731h-180l-305 -1731h-180l188 1072q-100 6 -179.5 34t-135 76t-85.5 114t-30 148z" />
    <glyph glyph-name="periodcentered" unicode="&#xb7;" horiz-adv-x="575" 
d="M104 541l48 266h290l-47 -266h-291z" />
    <glyph glyph-name="cedilla" unicode="&#xb8;" horiz-adv-x="1014" 
d="M66 -332l65 82q40 -31 87.5 -46t107.5 -15q57 0 90 20.5t33 67.5q0 25 -17.5 40t-48.5 15q-46 0 -92 -37l-66 35l84 170h115l-45 -104q20 14 47 22t61 8q59 0 97.5 -35t38.5 -94q0 -58 -25.5 -97.5t-65 -63.5t-87.5 -34t-93 -10q-53 0 -95.5 5.5t-77 15t-62 23.5
t-51.5 32z" />
    <glyph glyph-name="uni00B9" unicode="&#xb9;" horiz-adv-x="760" 
d="M109 551l28 166h176l111 624q-40 -17 -87.5 -27.5t-92.5 -10.5l26 151q62 2 109 16.5t82 45.5h198l-139 -799h154l-29 -166h-536z" />
    <glyph glyph-name="ordmasculine" unicode="&#xba;" horiz-adv-x="913" 
d="M150 1075q0 88 19.5 156.5t52 120t75 87t88 57.5t91 32t85.5 10q74 0 137 -20.5t109.5 -62t73 -103t26.5 -142.5q0 -86 -19.5 -154t-52 -119.5t-75 -88t-88.5 -59.5t-92 -33.5t-86 -10.5q-74 0 -137 21t-109 62.5t-72 103.5t-26 143zM334 1075q0 -39 8.5 -73.5t28 -60
t51 -40t76.5 -14.5q46 0 86.5 22.5t71 64t48 101t17.5 133.5q0 39 -9 73.5t-28.5 59.5t-50.5 39.5t-76 14.5q-46 0 -86.5 -22.5t-71 -64t-48 -100.5t-17.5 -133z" />
    <glyph glyph-name="guillemotright" unicode="&#xbb;" horiz-adv-x="1204" 
d="M-49 0l411 545l-217 542h244l229 -542l-421 -545h-246zM434 0l410 545l-217 542h243l230 -542l-422 -545h-244z" />
    <glyph glyph-name="onequarter" unicode="&#xbc;" horiz-adv-x="2060" 
d="M66 539l28 168h176l111 622q-40 -17 -87.5 -28t-92.5 -11l26 154q62 2 109 16t82 45h198l-139 -798h154l-29 -168h-536zM358 0l1160 1516h225l-1159 -1516h-226zM1143 213l22 131l537 623h211l-103 -590h154l-29 -164h-153l-37 -211h-203l37 211h-436zM1368 367h248
l65 370z" />
    <glyph glyph-name="onehalf" unicode="&#xbd;" horiz-adv-x="2167" 
d="M66 539l28 168h176l111 622q-40 -17 -87.5 -28t-92.5 -11l26 154q62 2 109 16t82 45h198l-139 -798h154l-29 -168h-536zM358 0l1160 1516h225l-1159 -1516h-226zM1251 4l9 47q16 92 50 158.5t79 115t98 83t105.5 61t101 49.5t86 49.5t60 60t22.5 81.5q0 43 -29 72.5
t-86 29.5q-26 0 -54 -5t-57.5 -19.5t-59.5 -39t-60 -63.5l-130 107q79 106 179.5 151t210.5 45q73 0 127.5 -19t90 -52t53 -79t17.5 -100q0 -69 -21.5 -121t-57 -91.5t-81.5 -69.5t-95.5 -55t-98 -47.5t-90 -48.5t-71.5 -57t-42 -73h465l-30 -170h-691z" />
    <glyph glyph-name="threequarters" unicode="&#xbe;" horiz-adv-x="2171" 
d="M53 733l148 96q21 -39 45 -64.5t51 -41t56.5 -21.5t60.5 -6q91 0 138.5 40t47.5 112q2 60 -43 93.5t-147 33.5h-80l26 147h86q109 0 160 31t51 102q0 20 -6.5 38t-20.5 31t-37.5 20.5t-56.5 7.5q-60 0 -117 -20t-116 -68l-92 125q88 78 181 107.5t187 29.5
q75 0 129.5 -18.5t90 -50t52.5 -74.5t17 -91q0 -88 -46.5 -150t-145.5 -93q75 -25 108 -78t33 -119q0 -81 -31.5 -142t-85.5 -102.5t-125.5 -62.5t-152.5 -21q-137 0 -228.5 55t-136.5 154zM469 0l1159 1516h225l-1159 -1516h-225zM1253 213l23 131l536 623h211l-102 -590
h154l-29 -164h-154l-37 -211h-202l37 211h-437zM1479 367h247l66 370z" />
    <glyph glyph-name="questiondown" unicode="&#xbf;" horiz-adv-x="1151" 
d="M23 319q0 68 14 120t38 92.5t56 71t68 55t75 45t76 40.5q64 34 105 63t66.5 64t38.5 81.5t20 115.5h206q-2 -28 -3.5 -51.5t-4 -44.5t-5.5 -41t-7 -41q-12 -63 -37.5 -107t-61.5 -77.5t-82.5 -59.5t-101.5 -53q-41 -20 -77.5 -39t-65 -44t-45 -60t-16.5 -87
q0 -77 55.5 -121t177.5 -44q91 0 178 31t170 108l150 -156q-53 -54 -115.5 -93t-130.5 -65t-139.5 -38.5t-141.5 -12.5q-120 0 -206.5 28t-143 75.5t-83.5 110.5t-27 134zM578 1260l45 256h280l-45 -256h-280z" />
    <glyph glyph-name="Agrave" unicode="&#xc0;" horiz-adv-x="1407" 
d="M-82 0l795 1522h252l258 -1522h-252l-60 385h-544l-199 -385h-250zM471 598h410l-95 602h-4zM514 1952h271l160 -340h-166z" />
    <glyph glyph-name="Aacute" unicode="&#xc1;" horiz-adv-x="1407" 
d="M-82 0l795 1522h252l258 -1522h-252l-60 385h-544l-199 -385h-250zM471 598h410l-95 602h-4zM754 1612l241 340h271l-346 -340h-166z" />
    <glyph glyph-name="Acircumflex" unicode="&#xc2;" horiz-adv-x="1407" 
d="M-82 0l795 1522h252l258 -1522h-252l-60 385h-544l-199 -385h-250zM471 598h410l-95 602h-4zM505 1612l320 340h174l199 -340h-148l-170 172l-229 -172h-146z" />
    <glyph glyph-name="Atilde" unicode="&#xc3;" horiz-adv-x="1407" 
d="M-82 0l795 1522h252l258 -1522h-252l-60 385h-544l-199 -385h-250zM471 598h410l-95 602h-4zM488 1602q8 75 29 129t52.5 88.5t73 51t92.5 16.5q49 0 88.5 -18t73.5 -39.5t63 -39.5t58 -18q42 0 67.5 25.5t36.5 85.5h146q-20 -149 -86 -217t-164 -68q-48 0 -87 18
t-72.5 39.5t-63.5 39.5t-60 18q-43 0 -68 -25.5t-34 -85.5h-145z" />
    <glyph glyph-name="Adieresis" unicode="&#xc4;" horiz-adv-x="1407" 
d="M-82 0l795 1522h252l258 -1522h-252l-60 385h-544l-199 -385h-250zM471 598h410l-95 602h-4zM539 1606l43 248h229l-43 -248h-229zM932 1606l43 248h229l-43 -248h-229z" />
    <glyph glyph-name="Aring" unicode="&#xc5;" horiz-adv-x="1407" 
d="M-82 0l778 1491q-23 22 -34 53t-11 66q0 53 20 95t52.5 71.5t74 45t85.5 15.5q43 0 77.5 -14.5t58 -39t36 -58t12.5 -70.5q0 -63 -27 -109t-67 -73l250 -1473h-250l-62 395h-540l-203 -395h-250zM469 588h414l-95 612h-4zM762 1614q0 -37 21 -62.5t63 -25.5q21 0 41 8
t35.5 24t24.5 38t9 51q0 37 -22 62.5t-64 25.5q-21 0 -40.5 -8.5t-34.5 -24.5t-24 -38t-9 -50z" />
    <glyph glyph-name="AE" unicode="&#xc6;" horiz-adv-x="2114" 
d="M-96 0l1128 1516h1092l-41 -238h-703l-65 -377h510l-41 -227h-510l-78 -441h743l-41 -233h-997l78 436h-490l-323 -436h-262zM647 651h369l117 652h-3z" />
    <glyph glyph-name="Ccedilla" unicode="&#xc7;" horiz-adv-x="1448" 
d="M82 602q0 143 27 269t76.5 230.5t118.5 186.5t153 139t180.5 87t200.5 30q149 0 250.5 -38.5t165.5 -106.5t95 -160.5t40 -200.5l-254 -20q-6 70 -24 124.5t-54 91.5t-93 56t-141 19q-105 0 -193.5 -51t-153 -143.5t-100.5 -222t-36 -286.5q0 -192 85.5 -297.5
t252.5 -105.5q70 0 128.5 17t108 55t91.5 100.5t79 152.5l226 -82q-47 -113 -108 -201.5t-140 -149t-177.5 -92.5t-219.5 -32q-137 0 -245.5 44t-183.5 125.5t-115 198.5t-40 263zM281 -332l65 82q40 -31 87.5 -46t107.5 -15q57 0 90 20.5t33 67.5q0 25 -17.5 40t-48.5 15
q-46 0 -92 -37l-66 35l84 170h115l-45 -104q20 14 47 22t61 8q59 0 97.5 -35t38.5 -94q0 -58 -25.5 -97.5t-65 -63.5t-87.5 -34t-93 -10q-53 0 -95.5 5.5t-77 15t-62 23.5t-51.5 32z" />
    <glyph glyph-name="Egrave" unicode="&#xc8;" horiz-adv-x="1251" 
d="M39 0l266 1516h959l-43 -238h-703l-65 -377h510l-39 -227h-510l-78 -441h741l-41 -233h-997zM456 1952h271l160 -340h-166z" />
    <glyph glyph-name="Eacute" unicode="&#xc9;" horiz-adv-x="1251" 
d="M600 1612l241 340h271l-346 -340h-166zM39 0l266 1516h959l-43 -238h-703l-65 -377h510l-39 -227h-510l-78 -441h741l-41 -233h-997z" />
    <glyph glyph-name="Ecircumflex" unicode="&#xca;" horiz-adv-x="1251" 
d="M438 1612l320 340h174l199 -340h-148l-170 172l-229 -172h-146zM39 0l266 1516h959l-43 -238h-703l-65 -377h510l-39 -227h-510l-78 -441h741l-41 -233h-997z" />
    <glyph glyph-name="Edieresis" unicode="&#xcb;" horiz-adv-x="1251" 
d="M471 1606l43 248h229l-43 -248h-229zM864 1606l43 248h229l-43 -248h-229zM39 0l266 1516h959l-43 -238h-703l-65 -377h510l-39 -227h-510l-78 -441h741l-41 -233h-997z" />
    <glyph glyph-name="Igrave" unicode="&#xcc;" horiz-adv-x="635" 
d="M55 0l267 1516h256l-267 -1516h-256zM142 1952h271l160 -340h-166z" />
    <glyph glyph-name="Iacute" unicode="&#xcd;" horiz-adv-x="635" 
d="M55 0l267 1516h256l-267 -1516h-256zM352 1612l241 340h271l-346 -340h-166z" />
    <glyph glyph-name="Icircumflex" unicode="&#xce;" horiz-adv-x="635" 
d="M55 0l267 1516h256l-267 -1516h-256zM123 1612l320 340h174l199 -340h-148l-170 172l-229 -172h-146z" />
    <glyph glyph-name="Idieresis" unicode="&#xcf;" horiz-adv-x="635" 
d="M55 0l267 1516h256l-267 -1516h-256zM155 1606l43 248h229l-43 -248h-229zM548 1606l43 248h229l-43 -248h-229z" />
    <glyph glyph-name="Eth" unicode="&#xd0;" horiz-adv-x="1470" 
d="M10 686l35 197h150l110 633h359q171 0 306 -39.5t228.5 -118t143 -194.5t49.5 -269q0 -234 -65 -403t-182.5 -278.5t-281.5 -161.5t-362 -52h-461l121 686h-150zM334 229h209q296 0 441.5 161.5t145.5 492.5q0 198 -115 296.5t-364 98.5h-133l-69 -395h317l-35 -197h-317
z" />
    <glyph glyph-name="Ntilde" unicode="&#xd1;" horiz-adv-x="1542" 
d="M39 0l266 1516h260l506 -1088h4l193 1088h235l-266 -1516h-233l-529 1110h-4l-195 -1110h-237zM555 1602q8 75 29 129t52.5 88.5t73 51t92.5 16.5q49 0 88.5 -18t73.5 -39.5t63 -39.5t58 -18q42 0 67.5 25.5t36.5 85.5h146q-20 -149 -86 -217t-164 -68q-48 0 -87 18
t-72.5 39.5t-63.5 39.5t-60 18q-43 0 -68 -25.5t-34 -85.5h-145z" />
    <glyph glyph-name="Ograve" unicode="&#xd2;" horiz-adv-x="1544" 
d="M82 618q0 151 31.5 278.5t86.5 230.5t130.5 181t164.5 130.5t187 79t199 26.5q128 0 235 -45t184.5 -128.5t120.5 -203t43 -268.5q0 -150 -30.5 -277.5t-84 -230.5t-127.5 -181.5t-161.5 -131.5t-184 -80t-196.5 -27q-133 0 -243 45.5t-189 129.5t-122.5 203.5
t-43.5 268.5zM340 621q0 -99 23 -176.5t68 -131t110.5 -82t150.5 -28.5q98 0 190.5 42.5t164.5 128.5t115.5 216.5t43.5 306.5q0 97 -23 174t-67.5 129.5t-110 80.5t-151.5 28q-96 0 -188.5 -41.5t-164.5 -126t-116.5 -214t-44.5 -306.5zM604 1952h271l160 -340h-166z" />
    <glyph glyph-name="Oacute" unicode="&#xd3;" horiz-adv-x="1544" 
d="M746 1612l241 340h271l-346 -340h-166zM82 618q0 151 31.5 278.5t86.5 230.5t130.5 181t164.5 130.5t187 79t199 26.5q128 0 235 -45t184.5 -128.5t120.5 -203t43 -268.5q0 -150 -30.5 -277.5t-84 -230.5t-127.5 -181.5t-161.5 -131.5t-184 -80t-196.5 -27
q-133 0 -243 45.5t-189 129.5t-122.5 203.5t-43.5 268.5zM340 621q0 -99 23 -176.5t68 -131t110.5 -82t150.5 -28.5q98 0 190.5 42.5t164.5 128.5t115.5 216.5t43.5 306.5q0 97 -23 174t-67.5 129.5t-110 80.5t-151.5 28q-96 0 -188.5 -41.5t-164.5 -126t-116.5 -214
t-44.5 -306.5z" />
    <glyph glyph-name="Ocircumflex" unicode="&#xd4;" horiz-adv-x="1544" 
d="M575 1612l320 340h174l199 -340h-148l-170 172l-229 -172h-146zM82 618q0 151 31.5 278.5t86.5 230.5t130.5 181t164.5 130.5t187 79t199 26.5q128 0 235 -45t184.5 -128.5t120.5 -203t43 -268.5q0 -150 -30.5 -277.5t-84 -230.5t-127.5 -181.5t-161.5 -131.5t-184 -80
t-196.5 -27q-133 0 -243 45.5t-189 129.5t-122.5 203.5t-43.5 268.5zM340 621q0 -99 23 -176.5t68 -131t110.5 -82t150.5 -28.5q98 0 190.5 42.5t164.5 128.5t115.5 216.5t43.5 306.5q0 97 -23 174t-67.5 129.5t-110 80.5t-151.5 28q-96 0 -188.5 -41.5t-164.5 -126
t-116.5 -214t-44.5 -306.5z" />
    <glyph glyph-name="Otilde" unicode="&#xd5;" horiz-adv-x="1544" 
d="M82 618q0 151 31.5 278.5t86.5 230.5t130.5 181t164.5 130.5t187 79t199 26.5q128 0 235 -45t184.5 -128.5t120.5 -203t43 -268.5q0 -150 -30.5 -277.5t-84 -230.5t-127.5 -181.5t-161.5 -131.5t-184 -80t-196.5 -27q-133 0 -243 45.5t-189 129.5t-122.5 203.5
t-43.5 268.5zM340 621q0 -99 23 -176.5t68 -131t110.5 -82t150.5 -28.5q98 0 190.5 42.5t164.5 128.5t115.5 216.5t43.5 306.5q0 97 -23 174t-67.5 129.5t-110 80.5t-151.5 28q-96 0 -188.5 -41.5t-164.5 -126t-116.5 -214t-44.5 -306.5zM557 1602q8 75 29 129t52.5 88.5
t73 51t92.5 16.5q49 0 88.5 -18t73.5 -39.5t63 -39.5t58 -18q42 0 67.5 25.5t36.5 85.5h146q-20 -149 -86 -217t-164 -68q-48 0 -87 18t-72.5 39.5t-63.5 39.5t-60 18q-43 0 -68 -25.5t-34 -85.5h-145z" />
    <glyph glyph-name="Odieresis" unicode="&#xd6;" horiz-adv-x="1544" 
d="M606 1606l43 248h229l-43 -248h-229zM999 1606l43 248h229l-43 -248h-229zM82 618q0 151 31.5 278.5t86.5 230.5t130.5 181t164.5 130.5t187 79t199 26.5q128 0 235 -45t184.5 -128.5t120.5 -203t43 -268.5q0 -150 -30.5 -277.5t-84 -230.5t-127.5 -181.5t-161.5 -131.5
t-184 -80t-196.5 -27q-133 0 -243 45.5t-189 129.5t-122.5 203.5t-43.5 268.5zM340 621q0 -99 23 -176.5t68 -131t110.5 -82t150.5 -28.5q98 0 190.5 42.5t164.5 128.5t115.5 216.5t43.5 306.5q0 97 -23 174t-67.5 129.5t-110 80.5t-151.5 28q-96 0 -188.5 -41.5
t-164.5 -126t-116.5 -214t-44.5 -306.5z" />
    <glyph glyph-name="multiply" unicode="&#xd7;" horiz-adv-x="1315" 
d="M166 322l336 333l-336 334l147 148l336 -334l334 334l147 -148l-333 -332l336 -333l-148 -148l-336 334l-336 -336z" />
    <glyph glyph-name="Oslash" unicode="&#xd8;" horiz-adv-x="1544" 
d="M-29 49l199 199q-43 75 -65.5 168t-22.5 202q0 151 31 278.5t86 230.5t130.5 181t164 130.5t186.5 79t199 26.5q123 0 225.5 -41t179.5 -117l178 181l111 -99l-199 -202q42 -76 65 -167.5t23 -199.5q0 -150 -30.5 -277.5t-84.5 -230.5t-128 -181.5t-161 -131.5t-184 -80
t-196 -27q-127 0 -232 40.5t-184 117.5l-178 -180zM334 621q0 -54 6 -102.5t20 -90.5l756 776q-93 113 -266 113q-97 0 -189.5 -42.5t-165 -129t-117 -217t-44.5 -307.5zM426 307q95 -112 270 -112q96 0 188 43.5t164 131.5t116 219.5t44 307.5q0 53 -6 99.5t-20 86.5z" />
    <glyph glyph-name="Ugrave" unicode="&#xd9;" horiz-adv-x="1456" 
d="M116 351q-5 43 -5 89q0 75 14 156l160 920h256l-162 -934q-11 -64 -11 -118q0 -20 2 -38q6 -70 37 -118.5t92 -74.5t156 -26q79 0 139.5 17.5t104 55.5t72 99.5t43.5 148.5l172 988h252l-178 -1018q-93 -525 -617 -525q-171 0 -282 48t-171 132t-74 198zM559 1952h271
l160 -340h-166z" />
    <glyph glyph-name="Uacute" unicode="&#xda;" horiz-adv-x="1456" 
d="M703 1612l241 340h271l-346 -340h-166zM116 351q-5 43 -5 89q0 75 14 156l160 920h256l-162 -934q-11 -64 -11 -118q0 -20 2 -38q6 -70 37 -118.5t92 -74.5t156 -26q79 0 139.5 17.5t104 55.5t72 99.5t43.5 148.5l172 988h252l-178 -1018q-93 -525 -617 -525
q-171 0 -282 48t-171 132t-74 198z" />
    <glyph glyph-name="Ucircumflex" unicode="&#xdb;" horiz-adv-x="1456" 
d="M530 1612l320 340h174l199 -340h-148l-170 172l-229 -172h-146zM116 351q-5 43 -5 89q0 75 14 156l160 920h256l-162 -934q-11 -64 -11 -118q0 -20 2 -38q6 -70 37 -118.5t92 -74.5t156 -26q79 0 139.5 17.5t104 55.5t72 99.5t43.5 148.5l172 988h252l-178 -1018
q-93 -525 -617 -525q-171 0 -282 48t-171 132t-74 198z" />
    <glyph glyph-name="Udieresis" unicode="&#xdc;" horiz-adv-x="1456" 
d="M563 1606l43 248h229l-43 -248h-229zM956 1606l43 248h229l-43 -248h-229zM116 351q-5 43 -5 89q0 75 14 156l160 920h256l-162 -934q-11 -64 -11 -118q0 -20 2 -38q6 -70 37 -118.5t92 -74.5t156 -26q79 0 139.5 17.5t104 55.5t72 99.5t43.5 148.5l172 988h252
l-178 -1018q-93 -525 -617 -525q-171 0 -282 48t-171 132t-74 198z" />
    <glyph glyph-name="Yacute" unicode="&#xdd;" horiz-adv-x="1333" 
d="M166 1516h260l256 -646l481 646h273l-660 -863l-114 -653h-256l114 653zM641 1612l241 340h271l-346 -340h-166z" />
    <glyph glyph-name="Thorn" unicode="&#xde;" horiz-adv-x="1341" 
d="M39 0l266 1516h256l-43 -252h178q134 0 242.5 -26.5t185.5 -79t118.5 -131t41.5 -183.5q0 -107 -26 -188t-71 -140t-105 -98t-129 -62.5t-143 -33t-146 -9.5h-314l-55 -313h-256zM391 541h289q74 0 136.5 12.5t107.5 44t70.5 85t25.5 136.5q0 50 -20 88.5t-62 65t-108 40
t-158 13.5h-197z" />
    <glyph glyph-name="germandbls" unicode="&#xdf;" horiz-adv-x="1321" 
d="M8 0l185 1049q23 126 72 215t118 145t155.5 81.5t184.5 25.5q114 0 199.5 -24.5t142.5 -69.5t86 -107t29 -137q0 -80 -22 -140.5t-62 -104t-95 -71.5t-122 -43q70 -12 129 -45t102 -82.5t66.5 -114.5t23.5 -141q0 -120 -39.5 -207t-104 -143t-146 -82.5t-165.5 -26.5
q-75 0 -133.5 12t-104 31t-79.5 42.5t-59 46.5l137 153q20 -18 43 -34t50 -28t58.5 -19t69.5 -7q109 0 171.5 65t62.5 193q0 64 -26.5 114.5t-76.5 86t-123 55t-166 21.5l31 186q92 1 156.5 18t105 48.5t58.5 77t18 104.5q0 34 -13 63.5t-40 51.5t-69 34.5t-99 12.5
q-56 0 -101 -13.5t-79.5 -45t-58.5 -84t-38 -130.5l-182 -1032h-250z" />
    <glyph glyph-name="agrave" unicode="&#xe0;" horiz-adv-x="1147" 
d="M-18 246q0 98 45 178.5t140.5 140t243 97t351.5 49.5l6 30q5 24 5 44q1 49 -29 77q-42 39 -148 39q-45 0 -92 -7.5t-93.5 -22t-90.5 -34.5t-82 -44l-97 163q39 29 92.5 56.5t118.5 48.5t139.5 34t155.5 13q120 0 197.5 -30.5t119.5 -85.5q40 -54 50 -130q4 -28 4 -60
q0 -51 -10 -108l-76 -428q-8 -45 -13.5 -79t-7.5 -64t-1.5 -59.5t5.5 -63.5h-253q-3 21 -4.5 37t-2 31.5t1 32.5t5.5 38q-92 -84 -189.5 -120.5t-191.5 -36.5q-69 0 -124.5 19t-94.5 53.5t-59.5 83.5t-20.5 108zM238 297q0 -54 38.5 -87.5t112.5 -33.5q84 0 158 35t143 92
l41 238q-141 -12 -235.5 -33t-151.5 -51.5t-81.5 -70.5t-24.5 -89zM333 1542h271l160 -340h-166z" />
    <glyph glyph-name="aacute" unicode="&#xe1;" horiz-adv-x="1147" 
d="M-18 246q0 98 45 178.5t140.5 140t243 97t351.5 49.5l6 30q5 24 5 44q1 49 -29 77q-42 39 -148 39q-45 0 -92 -7.5t-93.5 -22t-90.5 -34.5t-82 -44l-97 163q39 29 92.5 56.5t118.5 48.5t139.5 34t155.5 13q120 0 197.5 -30.5t119.5 -85.5q40 -54 50 -130q4 -28 4 -60
q0 -51 -10 -108l-76 -428q-8 -45 -13.5 -79t-7.5 -64t-1.5 -59.5t5.5 -63.5h-253q-3 21 -4.5 37t-2 31.5t1 32.5t5.5 38q-92 -84 -189.5 -120.5t-191.5 -36.5q-69 0 -124.5 19t-94.5 53.5t-59.5 83.5t-20.5 108zM238 297q0 -54 38.5 -87.5t112.5 -33.5q84 0 158 35t143 92
l41 238q-141 -12 -235.5 -33t-151.5 -51.5t-81.5 -70.5t-24.5 -89zM478 1202l241 340h271l-346 -340h-166z" />
    <glyph glyph-name="acircumflex" unicode="&#xe2;" horiz-adv-x="1147" 
d="M-18 246q0 98 45 178.5t140.5 140t243 97t351.5 49.5l6 30q5 24 5 44q1 49 -29 77q-42 39 -148 39q-45 0 -92 -7.5t-93.5 -22t-90.5 -34.5t-82 -44l-97 163q39 29 92.5 56.5t118.5 48.5t139.5 34t155.5 13q120 0 197.5 -30.5t119.5 -85.5q40 -54 50 -130q4 -28 4 -60
q0 -51 -10 -108l-76 -428q-8 -45 -13.5 -79t-7.5 -64t-1.5 -59.5t5.5 -63.5h-253q-3 21 -4.5 37t-2 31.5t1 32.5t5.5 38q-92 -84 -189.5 -120.5t-191.5 -36.5q-69 0 -124.5 19t-94.5 53.5t-59.5 83.5t-20.5 108zM238 297q0 -54 38.5 -87.5t112.5 -33.5q84 0 158 35t143 92
l41 238q-141 -12 -235.5 -33t-151.5 -51.5t-81.5 -70.5t-24.5 -89zM305 1202l320 340h174l199 -340h-148l-170 172l-229 -172h-146z" />
    <glyph glyph-name="atilde" unicode="&#xe3;" horiz-adv-x="1147" 
d="M-18 246q0 98 45 178.5t140.5 140t243 97t351.5 49.5l6 30q5 24 5 44q1 49 -29 77q-42 39 -148 39q-45 0 -92 -7.5t-93.5 -22t-90.5 -34.5t-82 -44l-97 163q39 29 92.5 56.5t118.5 48.5t139.5 34t155.5 13q120 0 197.5 -30.5t119.5 -85.5q40 -54 50 -130q4 -28 4 -60
q0 -51 -10 -108l-76 -428q-8 -45 -13.5 -79t-7.5 -64t-1.5 -59.5t5.5 -63.5h-253q-3 21 -4.5 37t-2 31.5t1 32.5t5.5 38q-92 -84 -189.5 -120.5t-191.5 -36.5q-69 0 -124.5 19t-94.5 53.5t-59.5 83.5t-20.5 108zM238 297q0 -54 38.5 -87.5t112.5 -33.5q84 0 158 35t143 92
l41 238q-141 -12 -235.5 -33t-151.5 -51.5t-81.5 -70.5t-24.5 -89zM287 1192q8 75 29 129t52.5 88.5t73 51t92.5 16.5q49 0 88.5 -18t73.5 -39.5t63 -39.5t58 -18q42 0 67.5 25.5t36.5 85.5h146q-20 -149 -86 -217t-164 -68q-48 0 -87 18t-72.5 39.5t-63.5 39.5t-60 18
q-43 0 -68 -25.5t-34 -85.5h-145z" />
    <glyph glyph-name="adieresis" unicode="&#xe4;" horiz-adv-x="1147" 
d="M-18 246q0 98 45 178.5t140.5 140t243 97t351.5 49.5l6 30q5 24 5 44q1 49 -29 77q-42 39 -148 39q-45 0 -92 -7.5t-93.5 -22t-90.5 -34.5t-82 -44l-97 163q39 29 92.5 56.5t118.5 48.5t139.5 34t155.5 13q120 0 197.5 -30.5t119.5 -85.5q40 -54 50 -130q4 -28 4 -60
q0 -51 -10 -108l-76 -428q-8 -45 -13.5 -79t-7.5 -64t-1.5 -59.5t5.5 -63.5h-253q-3 21 -4.5 37t-2 31.5t1 32.5t5.5 38q-92 -84 -189.5 -120.5t-191.5 -36.5q-69 0 -124.5 19t-94.5 53.5t-59.5 83.5t-20.5 108zM238 297q0 -54 38.5 -87.5t112.5 -33.5q84 0 158 35t143 92
l41 238q-141 -12 -235.5 -33t-151.5 -51.5t-81.5 -70.5t-24.5 -89zM338 1196l43 248h229l-43 -248h-229zM731 1196l43 248h229l-43 -248h-229z" />
    <glyph glyph-name="aring" unicode="&#xe5;" horiz-adv-x="1147" 
d="M-18 246q0 98 45 178.5t140.5 140t243 97t351.5 49.5l6 30q5 24 5 44q1 49 -29 77q-42 39 -148 39q-45 0 -92 -7.5t-93.5 -22t-90.5 -34.5t-82 -44l-97 163q39 29 92.5 56.5t118.5 48.5t139.5 34t155.5 13q120 0 197.5 -30.5t119.5 -85.5q40 -54 50 -130q4 -28 4 -60
q0 -51 -10 -108l-76 -428q-8 -45 -13.5 -79t-7.5 -64t-1.5 -59.5t5.5 -63.5h-253q-3 21 -4.5 37t-2 31.5t1 32.5t5.5 38q-92 -84 -189.5 -120.5t-191.5 -36.5q-69 0 -124.5 19t-94.5 53.5t-59.5 83.5t-20.5 108zM238 297q0 -54 38.5 -87.5t112.5 -33.5q84 0 158 35t143 92
l41 238q-141 -12 -235.5 -33t-151.5 -51.5t-81.5 -70.5t-24.5 -89zM480 1374q0 53 19.5 95.5t52 72t74 45t85.5 15.5t78 -14.5t57.5 -39t36 -58t12.5 -71.5q0 -54 -19.5 -97.5t-52 -73.5t-74 -46t-85.5 -16t-78 15t-57.5 40.5t-36 60t-12.5 72.5zM590 1378q0 -37 21 -62.5
t63 -25.5q22 0 42 8t35.5 24t24.5 38t9 51q0 37 -22 62.5t-64 25.5q-22 0 -41.5 -8.5t-34.5 -24.5t-24 -38t-9 -50z" />
    <glyph glyph-name="ae" unicode="&#xe6;" horiz-adv-x="1819" 
d="M-18 246q0 98 45 178.5t140.5 140t243 97t351.5 49.5l6 30q17 82 -22.5 121t-145.5 39q-45 0 -92.5 -7.5t-95 -22t-92 -34.5t-82.5 -44l-97 163q39 29 92.5 56.5t118.5 48.5t139.5 34t155.5 13q65 0 114.5 -10t85.5 -28.5t60 -44.5t39 -58q43 37 89.5 64t92.5 44t89.5 25
t80.5 8q121 0 207.5 -40.5t136.5 -116.5t64 -185t-10 -246l-10 -59h-728v-25q0 -80 23 -130t59 -78.5t81 -39t89 -10.5q109 0 184.5 36.5t135.5 104.5l156 -131q-40 -47 -91 -86t-114 -66.5t-139 -43t-166 -15.5q-141 0 -243 55t-155 167q-43 -39 -98 -77.5t-118.5 -69.5
t-134.5 -50.5t-146 -19.5q-69 0 -124.5 19t-94.5 53.5t-59.5 83.5t-20.5 108zM238 297q0 -54 38.5 -87.5t112.5 -33.5q43 0 88.5 13t90.5 35.5t87.5 52.5t79.5 63q-6 46 -6 100q0 55 6 105q-143 -11 -238.5 -33t-153 -53.5t-81.5 -72.5t-24 -89zM985 649h502q6 58 -0.5 105
t-30 80t-66 51t-108.5 18q-49 0 -94.5 -15.5t-84 -47t-69 -79.5t-49.5 -112z" />
    <glyph glyph-name="ccedilla" unicode="&#xe7;" horiz-adv-x="1096" 
d="M31 446q0 123 25.5 220t69.5 170.5t101.5 125t122 84t131.5 47.5t129 15q109 0 184 -24.5t124.5 -69.5t78 -107.5t43.5 -138.5l-225 -41q-12 51 -29 84t-42.5 52.5t-61 27.5t-84.5 8q-62 0 -119 -28t-100 -85.5t-68.5 -144t-25.5 -203.5q0 -125 51.5 -190.5t163.5 -65.5
q41 0 76 8t66.5 29t60.5 58t59 96l196 -82q-29 -62 -68.5 -119t-95 -100.5t-131 -69t-176.5 -25.5q-98 0 -181 30t-144.5 89.5t-96 147t-34.5 202.5zM107 -332l65 82q40 -31 87.5 -46t107.5 -15q57 0 90 20.5t33 67.5q0 25 -17.5 40t-48.5 15q-46 0 -92 -37l-66 35l84 170
h115l-45 -104q20 14 47 22t61 8q59 0 97.5 -35t38.5 -94q0 -58 -25.5 -97.5t-65 -63.5t-87.5 -34t-93 -10q-53 0 -95.5 5.5t-77 15t-62 23.5t-51.5 32z" />
    <glyph glyph-name="egrave" unicode="&#xe8;" horiz-adv-x="1135" 
d="M31 440q0 131 29.5 231.5t77.5 175t110 124.5t127 80.5t127 43.5t112 13q122 0 209 -40.5t137 -116.5t64 -185q5 -40 5 -84q0 -75 -15 -162l-10 -59h-728v-25q0 -80 23.5 -130t60 -78.5t81.5 -39t89 -10.5q55 0 100.5 9t84 27t71 44t62.5 61l156 -131q-40 -47 -90.5 -86
t-113.5 -66.5t-139.5 -43t-168.5 -15.5q-100 0 -184.5 29.5t-146 87.5t-96 145t-34.5 201zM303 649h504q3 26 3 49q0 30 -4 56q-8 47 -32.5 80t-68 51t-109.5 18q-48 0 -92.5 -15.5t-82.5 -47t-68.5 -79.5t-49.5 -112zM327 1542h271l160 -340h-166z" />
    <glyph glyph-name="eacute" unicode="&#xe9;" horiz-adv-x="1135" 
d="M471 1202l241 340h271l-346 -340h-166zM31 440q0 131 29.5 231.5t77.5 175t110 124.5t127 80.5t127 43.5t112 13q122 0 209 -40.5t137 -116.5t64 -185q5 -40 5 -84q0 -75 -15 -162l-10 -59h-728v-25q0 -80 23.5 -130t60 -78.5t81.5 -39t89 -10.5q55 0 100.5 9t84 27
t71 44t62.5 61l156 -131q-40 -47 -90.5 -86t-113.5 -66.5t-139.5 -43t-168.5 -15.5q-100 0 -184.5 29.5t-146 87.5t-96 145t-34.5 201zM303 649h504q3 26 3 49q0 30 -4 56q-8 47 -32.5 80t-68 51t-109.5 18q-48 0 -92.5 -15.5t-82.5 -47t-68.5 -79.5t-49.5 -112z" />
    <glyph glyph-name="ecircumflex" unicode="&#xea;" horiz-adv-x="1135" 
d="M299 1202l320 340h174l199 -340h-148l-170 172l-229 -172h-146zM31 440q0 131 29.5 231.5t77.5 175t110 124.5t127 80.5t127 43.5t112 13q122 0 209 -40.5t137 -116.5t64 -185q5 -40 5 -84q0 -75 -15 -162l-10 -59h-728v-25q0 -80 23.5 -130t60 -78.5t81.5 -39t89 -10.5
q55 0 100.5 9t84 27t71 44t62.5 61l156 -131q-40 -47 -90.5 -86t-113.5 -66.5t-139.5 -43t-168.5 -15.5q-100 0 -184.5 29.5t-146 87.5t-96 145t-34.5 201zM303 649h504q3 26 3 49q0 30 -4 56q-8 47 -32.5 80t-68 51t-109.5 18q-48 0 -92.5 -15.5t-82.5 -47t-68.5 -79.5
t-49.5 -112z" />
    <glyph glyph-name="edieresis" unicode="&#xeb;" horiz-adv-x="1135" 
d="M332 1196l43 248h229l-43 -248h-229zM725 1196l43 248h229l-43 -248h-229zM31 440q0 131 29.5 231.5t77.5 175t110 124.5t127 80.5t127 43.5t112 13q122 0 209 -40.5t137 -116.5t64 -185q5 -40 5 -84q0 -75 -15 -162l-10 -59h-728v-25q0 -80 23.5 -130t60 -78.5t81.5 -39
t89 -10.5q55 0 100.5 9t84 27t71 44t62.5 61l156 -131q-40 -47 -90.5 -86t-113.5 -66.5t-139.5 -43t-168.5 -15.5q-100 0 -184.5 29.5t-146 87.5t-96 145t-34.5 201zM303 649h504q3 26 3 49q0 30 -4 56q-8 47 -32.5 80t-68 51t-109.5 18q-48 0 -92.5 -15.5t-82.5 -47
t-68.5 -79.5t-49.5 -112z" />
    <glyph glyph-name="igrave" unicode="&#xec;" horiz-adv-x="557" 
d="M20 0l193 1087h252l-193 -1087h-252zM23 1542h271l160 -340h-166z" />
    <glyph glyph-name="iacute" unicode="&#xed;" horiz-adv-x="557" 
d="M247 1202l241 340h271l-346 -340h-166zM20 0l193 1087h252l-193 -1087h-252z" />
    <glyph glyph-name="icircumflex" unicode="&#xee;" horiz-adv-x="557" 
d="M13 1202l320 340h174l199 -340h-148l-170 172l-229 -172h-146zM20 0l193 1087h252l-193 -1087h-252z" />
    <glyph glyph-name="idieresis" unicode="&#xef;" horiz-adv-x="557" 
d="M46 1196l43 248h229l-43 -248h-229zM439 1196l43 248h229l-43 -248h-229zM20 0l193 1087h252l-193 -1087h-252z" />
    <glyph glyph-name="eth" unicode="&#xf0;" horiz-adv-x="1198" 
d="M29 428q0 106 23 192t62.5 152.5t91.5 114.5t110.5 79t120 45.5t118.5 14.5q111 0 192.5 -43.5t129.5 -122.5q-4 90 -28.5 168.5t-62.5 147.5l-198 -78l-47 141l159 64q-58 72 -112 112l145 141q104 -76 176 -174l193 76l47 -141l-158 -62q59 -117 85 -245t26 -256
q0 -202 -45.5 -348.5t-126 -242t-190 -141t-236.5 -45.5q-113 0 -201.5 33t-149 92.5t-92.5 142.5t-32 183zM283 428q0 -118 56.5 -182t172.5 -64q64 0 121.5 22.5t101 71t69 124t25.5 180.5q0 116 -60.5 183.5t-180.5 67.5q-58 0 -113 -23.5t-97.5 -73t-68.5 -125.5
t-26 -181z" />
    <glyph glyph-name="ntilde" unicode="&#xf1;" horiz-adv-x="1214" 
d="M8 0l193 1087h252l-27 -153q28 32 67.5 63.5t88 56t105 39.5t118.5 15q165 0 237 -89q51 -63 52 -164q0 -40 -9 -87l-135 -768h-252l125 713q6 30 6 55q0 50 -22 80q-33 46 -129 45q-35 0 -71.5 -10t-73.5 -27.5t-72.5 -42.5t-67.5 -55l-133 -758h-252zM322 1192
q8 75 29 129t52.5 88.5t73 51t92.5 16.5q49 0 88.5 -18t73.5 -39.5t63 -39.5t58 -18q42 0 67.5 25.5t36.5 85.5h146q-20 -149 -86 -217t-164 -68q-48 0 -87 18t-72.5 39.5t-63.5 39.5t-60 18q-43 0 -68 -25.5t-34 -85.5h-145z" />
    <glyph glyph-name="ograve" unicode="&#xf2;" horiz-adv-x="1200" 
d="M31 449q0 119 25 214t68.5 168t101.5 125.5t124 86t137 49.5t140 16q96 0 181 -29.5t148.5 -88.5t100.5 -146.5t37 -204.5q0 -118 -25 -212.5t-68 -168.5t-101.5 -127t-124.5 -87t-137 -50.5t-140 -16.5q-96 0 -181 30t-148.5 89.5t-100.5 148t-37 204.5zM285 444
q0 -58 13 -106.5t40.5 -83t72 -53.5t107.5 -19q66 0 124.5 29.5t102.5 87t69.5 142t25.5 194.5q0 58 -13.5 107t-42 83.5t-73.5 54t-107 19.5q-67 0 -125 -30.5t-101 -88.5t-68 -143t-25 -193zM362 1542h271l160 -340h-166z" />
    <glyph glyph-name="oacute" unicode="&#xf3;" horiz-adv-x="1200" 
d="M504 1202l241 340h271l-346 -340h-166zM31 449q0 119 25 214t68.5 168t101.5 125.5t124 86t137 49.5t140 16q96 0 181 -29.5t148.5 -88.5t100.5 -146.5t37 -204.5q0 -118 -25 -212.5t-68 -168.5t-101.5 -127t-124.5 -87t-137 -50.5t-140 -16.5q-96 0 -181 30t-148.5 89.5
t-100.5 148t-37 204.5zM285 444q0 -58 13 -106.5t40.5 -83t72 -53.5t107.5 -19q66 0 124.5 29.5t102.5 87t69.5 142t25.5 194.5q0 58 -13.5 107t-42 83.5t-73.5 54t-107 19.5q-67 0 -125 -30.5t-101 -88.5t-68 -143t-25 -193z" />
    <glyph glyph-name="ocircumflex" unicode="&#xf4;" horiz-adv-x="1200" 
d="M333 1202l320 340h174l199 -340h-148l-170 172l-229 -172h-146zM31 449q0 119 25 214t68.5 168t101.5 125.5t124 86t137 49.5t140 16q96 0 181 -29.5t148.5 -88.5t100.5 -146.5t37 -204.5q0 -118 -25 -212.5t-68 -168.5t-101.5 -127t-124.5 -87t-137 -50.5t-140 -16.5
q-96 0 -181 30t-148.5 89.5t-100.5 148t-37 204.5zM285 444q0 -58 13 -106.5t40.5 -83t72 -53.5t107.5 -19q66 0 124.5 29.5t102.5 87t69.5 142t25.5 194.5q0 58 -13.5 107t-42 83.5t-73.5 54t-107 19.5q-67 0 -125 -30.5t-101 -88.5t-68 -143t-25 -193z" />
    <glyph glyph-name="otilde" unicode="&#xf5;" horiz-adv-x="1200" 
d="M31 449q0 119 25 214t68.5 168t101.5 125.5t124 86t137 49.5t140 16q96 0 181 -29.5t148.5 -88.5t100.5 -146.5t37 -204.5q0 -118 -25 -212.5t-68 -168.5t-101.5 -127t-124.5 -87t-137 -50.5t-140 -16.5q-96 0 -181 30t-148.5 89.5t-100.5 148t-37 204.5zM285 444
q0 -58 13 -106.5t40.5 -83t72 -53.5t107.5 -19q66 0 124.5 29.5t102.5 87t69.5 142t25.5 194.5q0 58 -13.5 107t-42 83.5t-73.5 54t-107 19.5q-67 0 -125 -30.5t-101 -88.5t-68 -143t-25 -193zM316 1192q8 75 29 129t52.5 88.5t73 51t92.5 16.5q49 0 88.5 -18t73.5 -39.5
t63 -39.5t58 -18q42 0 67.5 25.5t36.5 85.5h146q-20 -149 -86 -217t-164 -68q-48 0 -87 18t-72.5 39.5t-63.5 39.5t-60 18q-43 0 -68 -25.5t-34 -85.5h-145z" />
    <glyph glyph-name="odieresis" unicode="&#xf6;" horiz-adv-x="1200" 
d="M365 1196l43 248h229l-43 -248h-229zM758 1196l43 248h229l-43 -248h-229zM31 449q0 119 25 214t68.5 168t101.5 125.5t124 86t137 49.5t140 16q96 0 181 -29.5t148.5 -88.5t100.5 -146.5t37 -204.5q0 -118 -25 -212.5t-68 -168.5t-101.5 -127t-124.5 -87t-137 -50.5
t-140 -16.5q-96 0 -181 30t-148.5 89.5t-100.5 148t-37 204.5zM285 444q0 -58 13 -106.5t40.5 -83t72 -53.5t107.5 -19q66 0 124.5 29.5t102.5 87t69.5 142t25.5 194.5q0 58 -13.5 107t-42 83.5t-73.5 54t-107 19.5q-67 0 -125 -30.5t-101 -88.5t-68 -143t-25 -193z" />
    <glyph glyph-name="divide" unicode="&#xf7;" horiz-adv-x="1315" 
d="M127 598v203h1042v-203h-1042zM528 207v215h234v-215h-234zM528 975v215h234v-215h-234z" />
    <glyph glyph-name="oslash" unicode="&#xf8;" horiz-adv-x="1200" 
d="M-49 20l155 150q-37 56 -56 125t-19 154q0 119 25 214t68.5 168t101.5 125.5t124 86t137 49.5t140 16q88 0 165.5 -24.5t139.5 -73.5l149 145l90 -98l-149 -148q34 -54 53 -121t19 -149q0 -118 -25 -212.5t-68 -168.5t-101.5 -127t-124.5 -87t-137 -50.5t-140 -16.5
q-87 0 -163 23.5t-138 71.5l-154 -150zM281 444q0 -27 2.5 -53t7.5 -51l487 504q-29 31 -72 48t-102 17q-67 0 -125.5 -32t-102.5 -92t-69.5 -146.5t-25.5 -194.5zM346 233q29 -29 71 -45t101 -16q66 0 125 31t104 90.5t71 145.5t26 196q0 26 -2.5 50.5t-7.5 47.5z" />
    <glyph glyph-name="ugrave" unicode="&#xf9;" horiz-adv-x="1212" 
d="M52 174q-5 29 -5 61q0 39 8 84l135 768h252l-127 -718q-5 -28 -5 -51q0 -52 24 -84q34 -46 127 -46q71 0 144 38t138 98l136 763h251l-192 -1087h-252l27 154q-28 -32 -67 -64t-87.5 -57t-105 -40.5t-117.5 -15.5q-81 0 -140.5 23t-95.5 66.5t-48 107.5zM366 1542h271
l160 -340h-166z" />
    <glyph glyph-name="uacute" unicode="&#xfa;" horiz-adv-x="1212" 
d="M510 1202l241 340h271l-346 -340h-166zM52 174q-5 29 -5 61q0 39 8 84l135 768h252l-127 -718q-5 -28 -5 -51q0 -52 24 -84q34 -46 127 -46q71 0 144 38t138 98l136 763h251l-192 -1087h-252l27 154q-28 -32 -67 -64t-87.5 -57t-105 -40.5t-117.5 -15.5q-81 0 -140.5 23
t-95.5 66.5t-48 107.5z" />
    <glyph glyph-name="ucircumflex" unicode="&#xfb;" horiz-adv-x="1212" 
d="M337 1202l320 340h174l199 -340h-148l-170 172l-229 -172h-146zM52 174q-5 29 -5 61q0 39 8 84l135 768h252l-127 -718q-5 -28 -5 -51q0 -52 24 -84q34 -46 127 -46q71 0 144 38t138 98l136 763h251l-192 -1087h-252l27 154q-28 -32 -67 -64t-87.5 -57t-105 -40.5
t-117.5 -15.5q-81 0 -140.5 23t-95.5 66.5t-48 107.5z" />
    <glyph glyph-name="udieresis" unicode="&#xfc;" horiz-adv-x="1212" 
d="M371 1196l43 248h229l-43 -248h-229zM764 1196l43 248h229l-43 -248h-229zM52 174q-5 29 -5 61q0 39 8 84l135 768h252l-127 -718q-5 -28 -5 -51q0 -52 24 -84q34 -46 127 -46q71 0 144 38t138 98l136 763h251l-192 -1087h-252l27 154q-28 -32 -67 -64t-87.5 -57
t-105 -40.5t-117.5 -15.5q-81 0 -140.5 23t-95.5 66.5t-48 107.5z" />
    <glyph glyph-name="yacute" unicode="&#xfd;" horiz-adv-x="1100" 
d="M-176 -375l84 205q13 -6 34 -13t44.5 -13.5t48 -10.5t45.5 -4q60 0 98.5 29.5t67.5 85.5l49 90l-211 1093h260l129 -792h4l410 792h252l-693 -1251q-35 -65 -71.5 -113t-78.5 -80.5t-92.5 -48.5t-113.5 -16q-91 0 -158.5 15t-107.5 32zM453 1202l241 340h271l-346 -340
h-166z" />
    <glyph glyph-name="thorn" unicode="&#xfe;" horiz-adv-x="1231" 
d="M-66 -412l340 1928h252l-100 -572q25 34 60.5 63.5t78 52t91 35.5t100.5 13q86 0 154.5 -29t116.5 -84t73.5 -135t25.5 -182q0 -168 -42.5 -298t-113.5 -218.5t-164 -134t-194 -45.5q-112 0 -193.5 31t-139.5 96l-91 -521h-254zM309 291q25 -26 51 -46t55 -34t63 -21.5
t75 -7.5q55 0 111.5 26t102 81.5t74.5 142t29 207.5q0 124 -57.5 189t-159.5 65q-35 0 -70.5 -10t-69.5 -27.5t-64.5 -41.5t-53.5 -52z" />
    <glyph glyph-name="ydieresis" unicode="&#xff;" horiz-adv-x="1100" 
d="M-176 -375l84 205q13 -6 34 -13t44.5 -13.5t48 -10.5t45.5 -4q60 0 98.5 29.5t67.5 85.5l49 90l-211 1093h260l129 -792h4l410 792h252l-693 -1251q-35 -65 -71.5 -113t-78.5 -80.5t-92.5 -48.5t-113.5 -16q-91 0 -158.5 15t-107.5 32zM313 1196l43 248h229l-43 -248
h-229zM706 1196l43 248h229l-43 -248h-229z" />
    <glyph glyph-name="Amacron" unicode="&#x100;" horiz-adv-x="1407" 
d="M-82 0l795 1522h252l258 -1522h-252l-60 385h-544l-199 -385h-250zM471 598h410l-95 602h-4zM538 1599l33 186h629l-33 -186h-629z" />
    <glyph glyph-name="amacron" unicode="&#x101;" horiz-adv-x="1147" 
d="M-18 246q0 98 45 178.5t140.5 140t243 97t351.5 49.5l6 30q5 24 5 44q1 49 -29 77q-42 39 -148 39q-45 0 -92 -7.5t-93.5 -22t-90.5 -34.5t-82 -44l-97 163q39 29 92.5 56.5t118.5 48.5t139.5 34t155.5 13q120 0 197.5 -30.5t119.5 -85.5q40 -54 50 -130q4 -28 4 -60
q0 -51 -10 -108l-76 -428q-8 -45 -13.5 -79t-7.5 -64t-1.5 -59.5t5.5 -63.5h-253q-3 21 -4.5 37t-2 31.5t1 32.5t5.5 38q-92 -84 -189.5 -120.5t-191.5 -36.5q-69 0 -124.5 19t-94.5 53.5t-59.5 83.5t-20.5 108zM238 297q0 -54 38.5 -87.5t112.5 -33.5q84 0 158 35t143 92
l41 238q-141 -12 -235.5 -33t-151.5 -51.5t-81.5 -70.5t-24.5 -89zM338 1196l33 186h629l-33 -186h-629z" />
    <glyph glyph-name="Abreve" unicode="&#x102;" horiz-adv-x="1407" 
d="M-82 0l795 1522h252l258 -1522h-252l-60 385h-544l-199 -385h-250zM471 598h410l-95 602h-4zM586 1957h140q1 -57 12.5 -94.5t33.5 -59.5t54 -31t74 -9q32 0 64.5 8.5t61.5 30.5t52 59.5t37 95.5h141q-12 -80 -43 -146.5t-78 -114.5t-108.5 -74.5t-134.5 -26.5
q-90 0 -151 27.5t-97 75.5t-49.5 114.5t-8.5 144.5z" />
    <glyph glyph-name="abreve" unicode="&#x103;" horiz-adv-x="1147" 
d="M-18 246q0 98 45 178.5t140.5 140t243 97t351.5 49.5l6 30q5 24 5 44q1 49 -29 77q-42 39 -148 39q-45 0 -92 -7.5t-93.5 -22t-90.5 -34.5t-82 -44l-97 163q39 29 92.5 56.5t118.5 48.5t139.5 34t155.5 13q120 0 197.5 -30.5t119.5 -85.5q40 -54 50 -130q4 -28 4 -60
q0 -51 -10 -108l-76 -428q-8 -45 -13.5 -79t-7.5 -64t-1.5 -59.5t5.5 -63.5h-253q-3 21 -4.5 37t-2 31.5t1 32.5t5.5 38q-92 -84 -189.5 -120.5t-191.5 -36.5q-69 0 -124.5 19t-94.5 53.5t-59.5 83.5t-20.5 108zM238 297q0 -54 38.5 -87.5t112.5 -33.5q84 0 158 35t143 92
l41 238q-141 -12 -235.5 -33t-151.5 -51.5t-81.5 -70.5t-24.5 -89zM386 1554h140q1 -57 12.5 -94.5t33.5 -59.5t54 -31t74 -9q32 0 64.5 8.5t61.5 30.5t52 59.5t37 95.5h141q-12 -80 -43 -146.5t-78 -114.5t-108.5 -74.5t-134.5 -26.5q-90 0 -151 27.5t-97 75.5t-49.5 114.5
t-8.5 144.5z" />
    <glyph glyph-name="Aogonek" unicode="&#x104;" horiz-adv-x="1407" 
d="M-82 0l795 1522h252l258 -1522h-252l-60 385h-544l-199 -385h-250zM471 598h410l-95 602h-4zM766 -238q0 39 17 74t47 66t70 59t85 55h150q-84 -52 -134.5 -107.5t-50.5 -111.5q0 -29 21.5 -49t75.5 -20q42 0 83 9.5t84 26.5l37 -79q-62 -34 -125 -51t-137 -17
q-116 0 -169.5 41t-53.5 104z" />
    <glyph glyph-name="aogonek" unicode="&#x105;" horiz-adv-x="1147" 
d="M-18 246q0 98 45 178.5t140.5 140t243 97t351.5 49.5l6 30q17 82 -24.5 121t-147.5 39q-45 0 -92 -7.5t-93.5 -22t-90.5 -34.5t-82 -44l-97 163q39 29 92.5 56.5t118.5 48.5t139.5 34t155.5 13q120 0 197.5 -30.5t119 -85t51 -131t-6.5 -167.5l-76 -428q-8 -45 -13.5 -79
t-7.5 -64t-1.5 -59.5t5.5 -63.5h-253q-3 21 -4.5 37t-2 31.5t1 32.5t5.5 38q-92 -84 -189.5 -120.5t-191.5 -36.5q-69 0 -124.5 19t-94.5 53.5t-59.5 83.5t-20.5 108zM238 297q0 -54 38.5 -87.5t112.5 -33.5q84 0 158 35t143 92l41 238q-141 -12 -235.5 -33t-151.5 -51.5
t-81.5 -70.5t-24.5 -89zM455 -238q0 39 17 74t46.5 66t69 59t84.5 55h151q-83 -52 -133.5 -107.5t-50.5 -111.5q0 -29 20.5 -49t73.5 -20q42 0 84 9.5t84 26.5l37 -79q-60 -34 -124 -51t-138 -17q-58 0 -99.5 11t-68.5 30t-40 45.5t-13 58.5z" />
    <glyph glyph-name="Cacute" unicode="&#x106;" horiz-adv-x="1448" 
d="M699 1605l241 340h271l-346 -340h-166zM82 602q0 143 27 269t76.5 230.5t118.5 186.5t153 139t180.5 87t200.5 30q149 0 250.5 -38.5t165.5 -106.5t95 -160.5t40 -200.5l-254 -20q-6 70 -24 124.5t-54 91.5t-93 56t-141 19q-105 0 -193.5 -51t-153 -143.5t-100.5 -222
t-36 -286.5q0 -192 85.5 -297.5t252.5 -105.5q70 0 128.5 17t108 55t91.5 100.5t79 152.5l226 -82q-47 -113 -108 -201.5t-140 -149t-177.5 -92.5t-219.5 -32q-137 0 -245.5 44t-183.5 125.5t-115 198.5t-40 263z" />
    <glyph glyph-name="cacute" unicode="&#x107;" horiz-adv-x="1096" 
d="M453 1202l241 340h271l-346 -340h-166zM31 446q0 123 25.5 220t69.5 170.5t101.5 125t122 84t131.5 47.5t129 15q109 0 184 -24.5t124.5 -69.5t78 -107.5t43.5 -138.5l-225 -41q-12 51 -29 84t-42.5 52.5t-61 27.5t-84.5 8q-62 0 -119 -28t-100 -85.5t-68.5 -144
t-25.5 -203.5q0 -125 51.5 -190.5t163.5 -65.5q41 0 76 8t66.5 29t60.5 58t59 96l196 -82q-29 -62 -68.5 -119t-95 -100.5t-131 -69t-176.5 -25.5q-98 0 -181 30t-144.5 89.5t-96 147t-34.5 202.5z" />
    <glyph glyph-name="Ccircumflex" unicode="&#x108;" horiz-adv-x="1448" 
d="M526 1610l320 340h174l199 -340h-148l-170 172l-229 -172h-146zM82 602q0 143 27 269t76.5 230.5t118.5 186.5t153 139t180.5 87t200.5 30q149 0 250.5 -38.5t165.5 -106.5t95 -160.5t40 -200.5l-254 -20q-6 70 -24 124.5t-54 91.5t-93 56t-141 19q-105 0 -193.5 -51
t-153 -143.5t-100.5 -222t-36 -286.5q0 -192 85.5 -297.5t252.5 -105.5q70 0 128.5 17t108 55t91.5 100.5t79 152.5l226 -82q-47 -113 -108 -201.5t-140 -149t-177.5 -92.5t-219.5 -32q-137 0 -245.5 44t-183.5 125.5t-115 198.5t-40 263z" />
    <glyph glyph-name="ccircumflex" unicode="&#x109;" horiz-adv-x="1096" 
d="M290 1202l320 340h174l199 -340h-148l-170 172l-229 -172h-146zM31 446q0 123 25.5 220t69.5 170.5t101.5 125t122 84t131.5 47.5t129 15q109 0 184 -24.5t124.5 -69.5t78 -107.5t43.5 -138.5l-225 -41q-12 51 -29 84t-42.5 52.5t-61 27.5t-84.5 8q-62 0 -119 -28
t-100 -85.5t-68.5 -144t-25.5 -203.5q0 -125 51.5 -190.5t163.5 -65.5q41 0 76 8t66.5 29t60.5 58t59 96l196 -82q-29 -62 -68.5 -119t-95 -100.5t-131 -69t-176.5 -25.5q-98 0 -181 30t-144.5 89.5t-96 147t-34.5 202.5z" />
    <glyph glyph-name="Cdotaccent" unicode="&#x10a;" horiz-adv-x="1448" 
d="M82 602q0 143 27 269t76.5 230.5t118.5 186.5t153 139t180.5 87t200.5 30q149 0 250.5 -38.5t165.5 -106.5t95 -160.5t40 -200.5l-254 -20q-6 70 -24 124.5t-54 91.5t-93 56t-141 19q-105 0 -193.5 -51t-153 -143.5t-100.5 -222t-36 -286.5q0 -192 85.5 -297.5
t252.5 -105.5q70 0 128.5 17t108 55t91.5 100.5t79 152.5l226 -82q-47 -113 -108 -201.5t-140 -149t-177.5 -92.5t-219.5 -32q-137 0 -245.5 44t-183.5 125.5t-115 198.5t-40 263zM742 1627l41 227h270l-41 -227h-270z" />
    <glyph glyph-name="cdotaccent" unicode="&#x10b;" horiz-adv-x="1096" 
d="M31 446q0 123 25.5 220t69.5 170.5t101.5 125t122 84t131.5 47.5t129 15q109 0 184 -24.5t124.5 -69.5t78 -107.5t43.5 -138.5l-225 -41q-12 51 -29 84t-42.5 52.5t-61 27.5t-84.5 8q-62 0 -119 -28t-100 -85.5t-68.5 -144t-25.5 -203.5q0 -125 51.5 -190.5t163.5 -65.5
q41 0 76 8t66.5 29t60.5 58t59 96l196 -82q-29 -62 -68.5 -119t-95 -100.5t-131 -69t-176.5 -25.5q-98 0 -181 30t-144.5 89.5t-96 147t-34.5 202.5zM510 1219l41 227h270l-41 -227h-270z" />
    <glyph glyph-name="Ccaron" unicode="&#x10c;" horiz-adv-x="1448" 
d="M586 1951h147l168 -172l232 172h145l-319 -340h-174zM82 602q0 143 27 269t76.5 230.5t118.5 186.5t153 139t180.5 87t200.5 30q149 0 250.5 -38.5t165.5 -106.5t95 -160.5t40 -200.5l-254 -20q-6 70 -24 124.5t-54 91.5t-93 56t-141 19q-105 0 -193.5 -51t-153 -143.5
t-100.5 -222t-36 -286.5q0 -192 85.5 -297.5t252.5 -105.5q70 0 128.5 17t108 55t91.5 100.5t79 152.5l226 -82q-47 -113 -108 -201.5t-140 -149t-177.5 -92.5t-219.5 -32q-137 0 -245.5 44t-183.5 125.5t-115 198.5t-40 263z" />
    <glyph glyph-name="ccaron" unicode="&#x10d;" horiz-adv-x="1096" 
d="M340 1548h147l168 -172l232 172h145l-319 -340h-174zM31 446q0 123 25.5 220t69.5 170.5t101.5 125t122 84t131.5 47.5t129 15q109 0 184 -24.5t124.5 -69.5t78 -107.5t43.5 -138.5l-225 -41q-12 51 -29 84t-42.5 52.5t-61 27.5t-84.5 8q-62 0 -119 -28t-100 -85.5
t-68.5 -144t-25.5 -203.5q0 -125 51.5 -190.5t163.5 -65.5q41 0 76 8t66.5 29t60.5 58t59 96l196 -82q-29 -62 -68.5 -119t-95 -100.5t-131 -69t-176.5 -25.5q-98 0 -181 30t-144.5 89.5t-96 147t-34.5 202.5z" />
    <glyph glyph-name="Dcaron" unicode="&#x10e;" horiz-adv-x="1470" 
d="M578 1951h147l168 -172l232 172h145l-319 -340h-174zM39 0l266 1516h361q170 0 304.5 -39.5t228 -118t143 -194.5t49.5 -269q0 -234 -65 -403t-182.5 -278.5t-281 -161.5t-360.5 -52h-463zM332 213h209q295 0 443.5 169.5t148.5 500.5q0 99 -27.5 176t-85.5 130.5
t-148.5 81t-216.5 27.5h-133z" />
    <glyph glyph-name="dcaron" unicode="&#x10f;" horiz-adv-x="1231" 
d="M29 412q0 181 46 312.5t119.5 216.5t164.5 126t182 41q120 0 203.5 -34.5t134.5 -90.5l92 533h252l-219 -1250q-8 -47 -13 -84t-7.5 -68t-1 -58.5t6.5 -55.5h-260q-6 28 -7 64.5t7 78.5q-57 -75 -138.5 -118t-191.5 -43q-76 0 -143 25t-117.5 77.5t-80 134t-29.5 193.5z
M283 432q0 -122 56.5 -186t162.5 -64q71 0 135 34t123 97l84 471q-44 50 -102 79.5t-142 29.5q-53 0 -109 -24.5t-102.5 -79.5t-76 -142.5t-29.5 -214.5zM1298 1192l101 211h-96l40 237h244l-37 -206l-149 -242h-103z" />
    <glyph glyph-name="Dcroat" unicode="&#x110;" horiz-adv-x="1470" 
d="M10 686l35 197h150l110 633h359q171 0 306 -39.5t228.5 -118t143 -194.5t49.5 -269q0 -234 -65 -403t-182.5 -278.5t-281.5 -161.5t-362 -52h-461l121 686h-150zM334 229h209q296 0 441.5 161.5t145.5 492.5q0 198 -115 296.5t-364 98.5h-133l-69 -395h317l-35 -197h-317
z" />
    <glyph glyph-name="dcroat" unicode="&#x111;" horiz-adv-x="1231" 
d="M29 412q0 181 46 312.5t119.5 216.5t164.5 126t182 41q120 0 203.5 -34.5t134.5 -90.5l92 533h252l-219 -1250q-8 -47 -13 -84t-7.5 -68t-1 -58.5t6.5 -55.5h-260q-6 28 -7 64.5t7 78.5q-57 -75 -138.5 -118t-191.5 -43q-76 0 -143 25t-117.5 77.5t-80 134t-29.5 193.5z
M283 432q0 -122 56.5 -186t162.5 -64q71 0 135 34t123 97l84 471q-44 50 -102 79.5t-142 29.5q-53 0 -109 -24.5t-102.5 -79.5t-76 -142.5t-29.5 -214.5zM719 1198l31 168h598l-31 -168h-598z" />
    <glyph glyph-name="Emacron" unicode="&#x112;" horiz-adv-x="1251" 
d="M39 0l266 1516h959l-43 -238h-703l-65 -377h510l-39 -227h-510l-78 -441h741l-41 -233h-997zM471 1599l33 186h629l-33 -186h-629z" />
    <glyph glyph-name="emacron" unicode="&#x113;" horiz-adv-x="1135" 
d="M31 440q0 131 29.5 231.5t77.5 175t110 124.5t127 80.5t127 43.5t112 13q122 0 209 -40.5t137 -116.5t64 -185q5 -40 5 -84q0 -75 -15 -162l-10 -59h-728v-25q0 -80 23.5 -130t60 -78.5t81.5 -39t89 -10.5q55 0 100.5 9t84 27t71 44t62.5 61l156 -131q-40 -47 -90.5 -86
t-113.5 -66.5t-139.5 -43t-168.5 -15.5q-100 0 -184.5 29.5t-146 87.5t-96 145t-34.5 201zM303 649h504q3 26 3 49q0 30 -4 56q-8 47 -32.5 80t-68 51t-109.5 18q-48 0 -92.5 -15.5t-82.5 -47t-68.5 -79.5t-49.5 -112zM331 1196l33 186h629l-33 -186h-629z" />
    <glyph glyph-name="Ebreve" unicode="&#x114;" horiz-adv-x="1251" 
d="M39 0l266 1516h959l-43 -238h-703l-65 -377h510l-39 -227h-510l-78 -441h741l-41 -233h-997zM508 1962h140q1 -57 12.5 -94.5t33.5 -59.5t54 -31t74 -9q32 0 64.5 8.5t61.5 30.5t52 59.5t37 95.5h141q-12 -80 -43 -146.5t-78 -114.5t-108.5 -74.5t-134.5 -26.5
q-90 0 -151 27.5t-97 75.5t-49.5 114.5t-8.5 144.5z" />
    <glyph glyph-name="ebreve" unicode="&#x115;" horiz-adv-x="1135" 
d="M31 440q0 131 29.5 231.5t77.5 175t110 124.5t127 80.5t127 43.5t112 13q122 0 209 -40.5t137 -116.5t64 -185q5 -40 5 -84q0 -75 -15 -162l-10 -59h-728v-25q0 -80 23.5 -130t60 -78.5t81.5 -39t89 -10.5q55 0 100.5 9t84 27t71 44t62.5 61l156 -131q-40 -47 -90.5 -86
t-113.5 -66.5t-139.5 -43t-168.5 -15.5q-100 0 -184.5 29.5t-146 87.5t-96 145t-34.5 201zM303 649h504q3 26 3 49q0 30 -4 56q-8 47 -32.5 80t-68 51t-109.5 18q-48 0 -92.5 -15.5t-82.5 -47t-68.5 -79.5t-49.5 -112zM379 1554h140q1 -57 12.5 -94.5t33.5 -59.5t54 -31
t74 -9q32 0 64.5 8.5t61.5 30.5t52 59.5t37 95.5h141q-12 -80 -43 -146.5t-78 -114.5t-108.5 -74.5t-134.5 -26.5q-90 0 -151 27.5t-97 75.5t-49.5 114.5t-8.5 144.5z" />
    <glyph glyph-name="Edotaccent" unicode="&#x116;" horiz-adv-x="1251" 
d="M39 0l266 1516h959l-43 -238h-703l-65 -377h510l-39 -227h-510l-78 -441h741l-41 -233h-997zM654 1622l41 227h270l-41 -227h-270z" />
    <glyph glyph-name="edotaccent" unicode="&#x117;" horiz-adv-x="1135" 
d="M31 440q0 131 29.5 231.5t77.5 175t110 124.5t127 80.5t127 43.5t112 13q122 0 209 -40.5t137 -116.5t64 -185q5 -40 5 -84q0 -75 -15 -162l-10 -59h-728v-25q0 -80 23.5 -130t60 -78.5t81.5 -39t89 -10.5q55 0 100.5 9t84 27t71 44t62.5 61l156 -131q-40 -47 -90.5 -86
t-113.5 -66.5t-139.5 -43t-168.5 -15.5q-100 0 -184.5 29.5t-146 87.5t-96 145t-34.5 201zM303 649h504q3 26 3 49q0 30 -4 56q-8 47 -32.5 80t-68 51t-109.5 18q-48 0 -92.5 -15.5t-82.5 -47t-68.5 -79.5t-49.5 -112zM514 1219l41 227h270l-41 -227h-270z" />
    <glyph glyph-name="Eogonek" unicode="&#x118;" horiz-adv-x="1251" 
d="M39 0l266 1516h959l-43 -238h-703l-65 -377h510l-39 -227h-510l-78 -441h741l-41 -233h-997zM567 -238q0 39 17.5 74t47 66t69.5 59t85 55h150q-84 -52 -134 -107.5t-50 -111.5q0 -29 21 -49t75 -20q42 0 83 9.5t85 26.5l37 -79q-62 -34 -125 -51t-137 -17
q-117 0 -170.5 41t-53.5 104z" />
    <glyph glyph-name="eogonek" unicode="&#x119;" horiz-adv-x="1135" 
d="M292 -238q0 39 17.5 74t47 66t69 59t84.5 55h151q-83 -52 -133.5 -107.5t-50.5 -111.5q0 -29 20 -49t74 -20q42 0 84 9.5t84 26.5l37 -79q-60 -34 -124 -51t-138 -17q-58 0 -100 11t-69 30t-40 45.5t-13 58.5zM31 440q0 131 29.5 231.5t77.5 175t110 124.5t127 80.5
t127 43.5t112 13q122 0 209 -40.5t137 -116.5t64 -185q5 -40 5 -84q0 -75 -15 -162l-10 -59h-728v-25q0 -80 23.5 -130t60 -78.5t81.5 -39t89 -10.5q55 0 100.5 9t84 27t71 44t62.5 61l156 -131q-40 -47 -90.5 -86t-113.5 -66.5t-139.5 -43t-168.5 -15.5q-100 0 -184.5 29.5
t-146 87.5t-96 145t-34.5 201zM303 649h504q3 26 3 49q0 30 -4 56q-8 47 -32.5 80t-68 51t-109.5 18q-48 0 -92.5 -15.5t-82.5 -47t-68.5 -79.5t-49.5 -112z" />
    <glyph glyph-name="Ecaron" unicode="&#x11a;" horiz-adv-x="1251" 
d="M498 1951h147l168 -172l232 172h145l-319 -340h-174zM39 0l266 1516h959l-43 -238h-703l-65 -377h510l-39 -227h-510l-78 -441h741l-41 -233h-997z" />
    <glyph glyph-name="ecaron" unicode="&#x11b;" horiz-adv-x="1135" 
d="M359 1548h147l168 -172l232 172h145l-319 -340h-174zM31 440q0 131 29.5 231.5t77.5 175t110 124.5t127 80.5t127 43.5t112 13q122 0 209 -40.5t137 -116.5t64 -185q5 -40 5 -84q0 -75 -15 -162l-10 -59h-728v-25q0 -80 23.5 -130t60 -78.5t81.5 -39t89 -10.5
q55 0 100.5 9t84 27t71 44t62.5 61l156 -131q-40 -47 -90.5 -86t-113.5 -66.5t-139.5 -43t-168.5 -15.5q-100 0 -184.5 29.5t-146 87.5t-96 145t-34.5 201zM303 649h504q3 26 3 49q0 30 -4 56q-8 47 -32.5 80t-68 51t-109.5 18q-48 0 -92.5 -15.5t-82.5 -47t-68.5 -79.5
t-49.5 -112z" />
    <glyph glyph-name="Gcircumflex" unicode="&#x11c;" horiz-adv-x="1511" 
d="M559 1610l320 340h174l199 -340h-148l-170 172l-229 -172h-146zM86 584q0 154 28.5 285.5t79.5 238t121.5 188t155 137t179 83.5t194.5 28q253 0 387 -120.5t162 -358.5l-246 -33q-14 146 -93 211.5t-227 65.5q-98 0 -185 -45t-153 -133.5t-104.5 -218.5t-38.5 -300
q0 -103 24 -180.5t68 -129t105 -77.5t135 -26q73 0 136.5 22t115 65.5t89 108t58.5 148.5h-301l39 217h547l-135 -760h-211l39 219h-4q-23 -41 -61.5 -85t-92 -80t-120.5 -59.5t-148 -23.5q-138 0 -240.5 47t-169.5 129t-100 194t-33 243z" />
    <glyph glyph-name="gcircumflex" unicode="&#x11d;" horiz-adv-x="1198" 
d="M305 1202l320 340h174l199 -340h-148l-170 172l-229 -172h-146zM-147 -139q0 55 23.5 98t58.5 74.5t75 52.5t74 33q-28 20 -42.5 45.5t-14.5 60.5q0 25 8 52t27.5 54t52.5 53t82 48q-57 50 -85 114.5t-28 139.5q0 102 40 180.5t108 132.5t158.5 81.5t191.5 27.5
q115 0 197 -34t134 -91q31 23 69.5 43t78.5 35.5t79.5 25.5t71.5 13l-34 -203q-50 -2 -102 -8t-95 -19q9 -29 14.5 -61t5.5 -64q0 -102 -38.5 -179.5t-105 -129t-155 -78t-188.5 -26.5q-60 0 -110.5 9t-94.5 26q-41 -28 -41 -58q0 -24 17.5 -38.5t52.5 -25t88 -19t125 -19.5
q79 -12 154.5 -29t134.5 -48t95 -80t36 -124q0 -100 -46.5 -167t-123.5 -107.5t-176 -58t-205 -17.5q-157 0 -265 24.5t-175 64t-97 91t-30 105.5zM115 -100q0 -34 16.5 -60t56.5 -44t107.5 -27t169.5 -9q55 0 104 5.5t86 18.5t58.5 35t21.5 56t-21 57.5t-57.5 39.5
t-87 26.5t-110.5 19.5q-60 10 -117.5 18.5t-108.5 20.5q-24 -11 -45 -27.5t-37.5 -36.5t-26 -43.5t-9.5 -49.5zM322 678q0 -84 51 -130t157 -46q52 0 96.5 14t76 43.5t49.5 75.5t18 110q0 83 -47.5 130t-155.5 47q-51 0 -95.5 -15t-77.5 -45.5t-52.5 -76.5t-19.5 -107z" />
    <glyph glyph-name="Gbreve" unicode="&#x11e;" horiz-adv-x="1511" 
d="M86 584q0 154 28.5 285.5t79.5 238t121.5 188t155 137t179 83.5t194.5 28q253 0 387 -120.5t162 -358.5l-246 -33q-14 146 -93 211.5t-227 65.5q-98 0 -185 -45t-153 -133.5t-104.5 -218.5t-38.5 -300q0 -103 24 -180.5t68 -129t105 -77.5t135 -26q73 0 136.5 22
t115 65.5t89 108t58.5 148.5h-301l39 217h547l-135 -760h-211l39 219h-4q-23 -41 -61.5 -85t-92 -80t-120.5 -59.5t-148 -23.5q-138 0 -240.5 47t-169.5 129t-100 194t-33 243zM609 1957h140q1 -57 12.5 -94.5t33.5 -59.5t54 -31t74 -9q32 0 64.5 8.5t61.5 30.5t52 59.5
t37 95.5h141q-12 -80 -43 -146.5t-78 -114.5t-108.5 -74.5t-134.5 -26.5q-90 0 -151 27.5t-97 75.5t-49.5 114.5t-8.5 144.5z" />
    <glyph glyph-name="gbreve" unicode="&#x11f;" horiz-adv-x="1198" 
d="M-147 -139q0 55 23.5 98t58.5 74.5t75 52.5t74 33q-28 20 -42.5 45.5t-14.5 60.5q0 25 8 52t27.5 54t52.5 53t82 48q-57 50 -85 114.5t-28 139.5q0 102 40 180.5t108 132.5t158.5 81.5t191.5 27.5q115 0 197 -34t134 -91q31 23 69.5 43t78.5 35.5t79.5 25.5t71.5 13
l-34 -203q-50 -2 -102 -8t-95 -19q9 -29 14.5 -61t5.5 -64q0 -102 -38.5 -179.5t-105 -129t-155 -78t-188.5 -26.5q-60 0 -110.5 9t-94.5 26q-41 -28 -41 -58q0 -24 17.5 -38.5t52.5 -25t88 -19t125 -19.5q79 -12 154.5 -29t134.5 -48t95 -80t36 -124q0 -100 -46.5 -167
t-123.5 -107.5t-176 -58t-205 -17.5q-157 0 -265 24.5t-175 64t-97 91t-30 105.5zM115 -100q0 -34 16.5 -60t56.5 -44t107.5 -27t169.5 -9q55 0 104 5.5t86 18.5t58.5 35t21.5 56t-21 57.5t-57.5 39.5t-87 26.5t-110.5 19.5q-60 10 -117.5 18.5t-108.5 20.5
q-24 -11 -45 -27.5t-37.5 -36.5t-26 -43.5t-9.5 -49.5zM322 678q0 -84 51 -130t157 -46q52 0 96.5 14t76 43.5t49.5 75.5t18 110q0 83 -47.5 130t-155.5 47q-51 0 -95.5 -15t-77.5 -45.5t-52.5 -76.5t-19.5 -107zM359 1554h140q1 -57 12.5 -94.5t33.5 -59.5t54 -31t74 -9
q32 0 64.5 8.5t61.5 30.5t52 59.5t37 95.5h141q-12 -80 -43 -146.5t-78 -114.5t-108.5 -74.5t-134.5 -26.5q-90 0 -151 27.5t-97 75.5t-49.5 114.5t-8.5 144.5z" />
    <glyph glyph-name="Gdotaccent" unicode="&#x120;" horiz-adv-x="1511" 
d="M86 584q0 154 28.5 285.5t79.5 238t121.5 188t155 137t179 83.5t194.5 28q253 0 387 -120.5t162 -358.5l-246 -33q-14 146 -93 211.5t-227 65.5q-98 0 -185 -45t-153 -133.5t-104.5 -218.5t-38.5 -300q0 -103 24 -180.5t68 -129t105 -77.5t135 -26q73 0 136.5 22
t115 65.5t89 108t58.5 148.5h-301l39 217h547l-135 -760h-211l39 219h-4q-23 -41 -61.5 -85t-92 -80t-120.5 -59.5t-148 -23.5q-138 0 -240.5 47t-169.5 129t-100 194t-33 243zM774 1627l41 227h270l-41 -227h-270z" />
    <glyph glyph-name="gdotaccent" unicode="&#x121;" horiz-adv-x="1198" 
d="M-147 -139q0 55 23.5 98t58.5 74.5t75 52.5t74 33q-28 20 -42.5 45.5t-14.5 60.5q0 25 8 52t27.5 54t52.5 53t82 48q-57 50 -85 114.5t-28 139.5q0 102 40 180.5t108 132.5t158.5 81.5t191.5 27.5q115 0 197 -34t134 -91q31 23 69.5 43t78.5 35.5t79.5 25.5t71.5 13
l-34 -203q-50 -2 -102 -8t-95 -19q9 -29 14.5 -61t5.5 -64q0 -102 -38.5 -179.5t-105 -129t-155 -78t-188.5 -26.5q-60 0 -110.5 9t-94.5 26q-41 -28 -41 -58q0 -24 17.5 -38.5t52.5 -25t88 -19t125 -19.5q79 -12 154.5 -29t134.5 -48t95 -80t36 -124q0 -100 -46.5 -167
t-123.5 -107.5t-176 -58t-205 -17.5q-157 0 -265 24.5t-175 64t-97 91t-30 105.5zM115 -100q0 -34 16.5 -60t56.5 -44t107.5 -27t169.5 -9q55 0 104 5.5t86 18.5t58.5 35t21.5 56t-21 57.5t-57.5 39.5t-87 26.5t-110.5 19.5q-60 10 -117.5 18.5t-108.5 20.5
q-24 -11 -45 -27.5t-37.5 -36.5t-26 -43.5t-9.5 -49.5zM322 678q0 -84 51 -130t157 -46q52 0 96.5 14t76 43.5t49.5 75.5t18 110q0 83 -47.5 130t-155.5 47q-51 0 -95.5 -15t-77.5 -45.5t-52.5 -76.5t-19.5 -107zM500 1219l41 227h270l-41 -227h-270z" />
    <glyph glyph-name="Gcommaaccent" unicode="&#x122;" horiz-adv-x="1511" 
d="M424 -555l105 217h-101l45 246h252l-37 -215l-155 -248h-109zM86 584q0 154 28.5 285.5t79.5 238t121.5 188t155 137t179 83.5t194.5 28q253 0 387 -120.5t162 -358.5l-246 -33q-14 146 -93 211.5t-227 65.5q-98 0 -185 -45t-153 -133.5t-104.5 -218.5t-38.5 -300
q0 -103 24 -180.5t68 -129t105 -77.5t135 -26q73 0 136.5 22t115 65.5t89 108t58.5 148.5h-301l39 217h547l-135 -760h-211l39 219h-4q-23 -41 -61.5 -85t-92 -80t-120.5 -59.5t-148 -23.5q-138 0 -240.5 47t-169.5 129t-100 194t-33 243z" />
    <glyph glyph-name="gcommaaccent" unicode="&#x123;" horiz-adv-x="1198" 
d="M-147 -139q0 55 23.5 98t58.5 74.5t75 52.5t74 33q-28 20 -42.5 45.5t-14.5 60.5q0 25 8 52t27.5 54t52.5 53t82 48q-57 50 -85 114.5t-28 139.5q0 102 40 180.5t108 132.5t158.5 81.5t191.5 27.5q115 0 197 -34t134 -91q31 23 69.5 43t78.5 35.5t79.5 25.5t71.5 13
l-34 -203q-50 -2 -102 -8t-95 -19q9 -29 14.5 -61t5.5 -64q0 -102 -38.5 -179.5t-105 -129t-155 -78t-188.5 -26.5q-60 0 -110.5 9t-94.5 26q-41 -28 -41 -58q0 -24 17.5 -38.5t52.5 -25t88 -19t125 -19.5q79 -12 154.5 -29t134.5 -48t95 -80t36 -124q0 -100 -46.5 -167
t-123.5 -107.5t-176 -58t-205 -17.5q-157 0 -265 24.5t-175 64t-97 91t-30 105.5zM115 -100q0 -34 16.5 -60t56.5 -44t107.5 -27t169.5 -9q55 0 104 5.5t86 18.5t58.5 35t21.5 56t-21 57.5t-57.5 39.5t-87 26.5t-110.5 19.5q-60 10 -117.5 18.5t-108.5 20.5
q-24 -11 -45 -27.5t-37.5 -36.5t-26 -43.5t-9.5 -49.5zM322 678q0 -84 51 -130t157 -46q52 0 96.5 14t76 43.5t49.5 75.5t18 110q0 83 -47.5 130t-155.5 47q-51 0 -95.5 -15t-77.5 -45.5t-52.5 -76.5t-19.5 -107zM506 1196l37 215l155 248h107l-105 -217h101l-43 -246h-252z
" />
    <glyph glyph-name="Hcircumflex" unicode="&#x124;" horiz-adv-x="1524" 
d="M565 1610l320 340h174l199 -340h-148l-170 172l-229 -172h-146zM39 0l266 1516h256l-106 -605h667l107 605h256l-266 -1516h-256l118 674h-667l-119 -674h-256z" />
    <glyph glyph-name="hcircumflex" unicode="&#x125;" horiz-adv-x="1214" 
d="M70 1612l320 340h174l199 -340h-148l-170 172l-229 -172h-146zM8 0l268 1516h252l-102 -582q28 32 67.5 63.5t88 56t105 39.5t118.5 15q165 0 237 -89q51 -63 52 -164q0 -40 -9 -87l-135 -768h-252l125 713q6 30 6 55q0 50 -22 80q-33 46 -129 45q-35 0 -71.5 -10
t-73.5 -27.5t-72.5 -42.5t-67.5 -55l-133 -758h-252z" />
    <glyph glyph-name="Hbar" unicode="&#x126;" horiz-adv-x="1524" 
d="M41 0l192 1094h-149l35 196h148l40 226h256l-40 -226h668l40 226h256l-40 -226h148l-34 -196h-148l-192 -1094h-256l118 674h-667l-119 -674h-256zM457 911h667l32 183h-667z" />
    <glyph glyph-name="hbar" unicode="&#x127;" horiz-adv-x="1214" 
d="M8 0l212 1198h-148l30 168h147l27 150h252l-26 -150h192l-28 -168h-194l-46 -264q28 32 67.5 63.5t88 56t105 39.5t118.5 15q165 0 237 -89t43 -251l-135 -768h-252l125 713q17 89 -16 134.5t-129 45.5q-35 0 -71.5 -10t-73.5 -27.5t-72.5 -42.5t-67.5 -55l-133 -758
h-252z" />
    <glyph glyph-name="Itilde" unicode="&#x128;" horiz-adv-x="635" 
d="M55 0l267 1516h256l-267 -1516h-256zM106 1600q8 75 29 129t52.5 88.5t73 51t92.5 16.5q49 0 88.5 -18t73.5 -39.5t63 -39.5t58 -18q42 0 67.5 25.5t36.5 85.5h146q-20 -149 -86 -217t-164 -68q-48 0 -87 18t-72.5 39.5t-63.5 39.5t-60 18q-43 0 -68 -25.5t-34 -85.5
h-145z" />
    <glyph glyph-name="itilde" unicode="&#x129;" horiz-adv-x="557" 
d="M20 0l193 1087h252l-193 -1087h-252zM-5 1192q8 75 29 129t52.5 88.5t73 51t92.5 16.5q49 0 88.5 -18t73.5 -39.5t63 -39.5t58 -18q42 0 67.5 25.5t36.5 85.5h146q-20 -149 -86 -217t-164 -68q-48 0 -87 18t-72.5 39.5t-63.5 39.5t-60 18q-43 0 -68 -25.5t-34 -85.5h-145
z" />
    <glyph glyph-name="Imacron" unicode="&#x12a;" horiz-adv-x="635" 
d="M55 0l267 1516h256l-267 -1516h-256zM154 1599l33 186h629l-33 -186h-629z" />
    <glyph glyph-name="imacron" unicode="&#x12b;" horiz-adv-x="557" 
d="M20 0l193 1087h252l-193 -1087h-252zM46 1196l33 186h629l-33 -186h-629z" />
    <glyph glyph-name="Ibreve" unicode="&#x12c;" horiz-adv-x="635" 
d="M55 0l267 1516h256l-267 -1516h-256zM202 1962h140q1 -57 12.5 -94.5t33.5 -59.5t54 -31t74 -9q32 0 64.5 8.5t61.5 30.5t52 59.5t37 95.5h141q-12 -80 -43 -146.5t-78 -114.5t-108.5 -74.5t-134.5 -26.5q-90 0 -151 27.5t-97 75.5t-49.5 114.5t-8.5 144.5z" />
    <glyph glyph-name="ibreve" unicode="&#x12d;" horiz-adv-x="557" 
d="M20 0l193 1087h252l-193 -1087h-252zM94 1554h140q1 -57 12.5 -94.5t33.5 -59.5t54 -31t74 -9q32 0 64.5 8.5t61.5 30.5t52 59.5t37 95.5h141q-12 -80 -43 -146.5t-78 -114.5t-108.5 -74.5t-134.5 -26.5q-90 0 -151 27.5t-97 75.5t-49.5 114.5t-8.5 144.5z" />
    <glyph glyph-name="Iogonek" unicode="&#x12e;" horiz-adv-x="635" 
d="M-152 -238q0 39 17.5 74t47.5 66t70 59t85 55h151q-83 -52 -133.5 -107.5t-50.5 -111.5q0 -29 20 -49t74 -20q42 0 84 9.5t84 26.5l37 -79q-60 -34 -124 -51t-138 -17q-117 0 -170.5 41t-53.5 104zM55 0l267 1516h256l-267 -1516h-256z" />
    <glyph glyph-name="iogonek" unicode="&#x12f;" horiz-adv-x="557" 
d="M-193 -238q0 39 17.5 74t47.5 66t70 59t85 55h151q-41 -26 -75.5 -53t-59 -54.5t-38 -55.5t-13.5 -56q0 -29 21 -49t75 -20q42 0 84 9.5t84 26.5l37 -79q-60 -34 -124 -51t-138 -17q-117 0 -170.5 41t-53.5 104zM18 0l193 1087h252l-193 -1087h-252zM242 1278l39 217h256
l-39 -217h-256z" />
    <glyph glyph-name="Idotaccent" unicode="&#x130;" horiz-adv-x="635" 
d="M55 0l267 1516h256l-267 -1516h-256zM337 1622l41 227h270l-41 -227h-270z" />
    <glyph glyph-name="dotlessi" unicode="&#x131;" horiz-adv-x="557" 
d="M20 0l193 1087h252l-193 -1087h-252z" />
    <glyph glyph-name="IJ" unicode="&#x132;" horiz-adv-x="1608" 
d="M55 0l267 1516h256l-267 -1516h-256zM479 164l166 168q31 -32 61 -56t60.5 -41t64 -25.5t72.5 -8.5q48 0 87 9t69.5 35.5t52.5 73.5t35 123l188 1074h256l-194 -1115q-19 -107 -56.5 -187.5t-95.5 -134.5t-138 -81t-185 -27q-79 0 -143 14.5t-117 40t-97.5 61t-85.5 77.5
z" />
    <glyph glyph-name="ij" unicode="&#x133;" horiz-adv-x="1114" 
d="M18 0l193 1087h252l-193 -1087h-252zM242 1278l39 217h256l-39 -217h-256zM315 -403l31 176q17 -3 44.5 -6t53.5 -3q51 0 76 27.5t37 99.5l213 1196h252l-221 -1255q-11 -56 -31 -101.5t-54 -78t-84.5 -50.5t-121.5 -18q-65 0 -115.5 4t-79.5 9zM801 1278l37 217h256
l-37 -217h-256z" />
    <glyph glyph-name="Jcircumflex" unicode="&#x134;" horiz-adv-x="1055" 
d="M573 1610l320 340h174l199 -340h-148l-170 172l-229 -172h-146zM-74 164l166 168q31 -32 61 -56t60.5 -41t64 -25.5t72.5 -8.5q48 0 87 9t69.5 35.5t52.5 73.5t35 123l188 1074h256l-194 -1115q-19 -107 -56.5 -187.5t-95.5 -134.5t-138 -81t-185 -27q-79 0 -143 14.5
t-117 40t-97.5 61t-85.5 77.5z" />
    <glyph glyph-name="jcircumflex" unicode="&#x135;" horiz-adv-x="557" 
d="M-242 -403l31 176q19 -3 46.5 -6t51.5 -3q25 0 44 6.5t32.5 21t22.5 39t16 60.5l211 1196h252l-221 -1255q-10 -56 -30 -101.5t-54.5 -78t-85 -50.5t-121.5 -18q-65 0 -114.5 4t-80.5 9zM12 1202l320 340h174l199 -340h-148l-170 172l-229 -172h-146z" />
    <glyph glyph-name="Kcommaaccent" unicode="&#x136;" horiz-adv-x="1409" 
d="M383 -555l105 217h-101l45 246h252l-37 -215l-155 -248h-109zM39 0l266 1516h256l-123 -693l721 693h281l-611 -586l408 -930h-270l-336 760l-244 -236l-92 -524h-256z" />
    <glyph glyph-name="kcommaaccent" unicode="&#x137;" horiz-adv-x="1133" 
d="M244 -555l105 217h-101l45 246h252l-37 -215l-155 -248h-109zM8 0l266 1516h252l-155 -889l481 460h268l-424 -401l262 -686h-253l-201 522l-182 -170l-62 -352h-252z" />
    <glyph glyph-name="kgreenlandic" unicode="&#x138;" horiz-adv-x="1133" 
d="M10 0l191 1087h252l-80 -452l479 452h270l-426 -399l262 -688h-251l-201 522l-182 -166l-62 -356h-252z" />
    <glyph glyph-name="Lacute" unicode="&#x139;" horiz-adv-x="1163" 
d="M370 1605l241 340h271l-346 -340h-166zM39 0l266 1516h256l-225 -1283h676l-41 -233h-932z" />
    <glyph glyph-name="lacute" unicode="&#x13a;" horiz-adv-x="557" 
d="M339 1605l241 340h271l-346 -340h-166zM18 0l267 1516h252l-267 -1516h-252z" />
    <glyph glyph-name="Lcommaaccent" unicode="&#x13b;" horiz-adv-x="1163" 
d="M280 -555l105 217h-101l45 246h252l-37 -215l-155 -248h-109zM39 0l266 1516h256l-225 -1283h676l-41 -233h-932z" />
    <glyph glyph-name="lcommaaccent" unicode="&#x13c;" horiz-adv-x="557" 
d="M-40 -555l105 217h-101l45 246h252l-37 -215l-155 -248h-109zM18 0l267 1516h252l-267 -1516h-252z" />
    <glyph glyph-name="Lcaron" unicode="&#x13d;" horiz-adv-x="1163" 
d="M39 0l266 1516h256l-225 -1283h676l-41 -233h-932zM705 1055l104 215h-100l43 246h252l-37 -213l-156 -248h-106z" />
    <glyph glyph-name="lcaron" unicode="&#x13e;" horiz-adv-x="557" 
d="M18 0l267 1516h252l-267 -1516h-252zM606 1192l101 211h-97l41 237h244l-37 -206l-149 -242h-103z" />
    <glyph glyph-name="Ldot" unicode="&#x13f;" horiz-adv-x="1214" 
d="M39 0l266 1516h256l-225 -1283h676l-41 -233h-932zM760 719l41 227h250l-41 -227h-250z" />
    <glyph glyph-name="ldot" unicode="&#x140;" horiz-adv-x="803" 
d="M18 0l267 1516h252l-267 -1516h-252zM516 565l39 226h250l-39 -226h-250z" />
    <glyph glyph-name="Lslash" unicode="&#x141;" horiz-adv-x="1163" 
d="M-18 635l34 196l177 46l112 639h256l-100 -572l319 82l-32 -197l-322 -81l-90 -515h676l-41 -233h-932l119 680z" />
    <glyph glyph-name="lslash" unicode="&#x142;" horiz-adv-x="657" 
d="M55 807l33 188l168 43l84 478h252l-72 -410l166 43l-33 -188l-166 -43l-161 -918h-252l149 850z" />
    <glyph glyph-name="Nacute" unicode="&#x143;" horiz-adv-x="1542" 
d="M746 1605l241 340h271l-346 -340h-166zM39 0l266 1516h260l506 -1088h4l193 1088h235l-266 -1516h-233l-529 1110h-4l-195 -1110h-237z" />
    <glyph glyph-name="nacute" unicode="&#x144;" horiz-adv-x="1214" 
d="M510 1202l241 340h271l-346 -340h-166zM8 0l193 1087h252l-27 -153q28 32 67.5 63.5t88 56t105 39.5t118.5 15q165 0 237 -89q51 -63 52 -164q0 -40 -9 -87l-135 -768h-252l125 713q6 30 6 55q0 50 -22 80q-33 46 -129 45q-35 0 -71.5 -10t-73.5 -27.5t-72.5 -42.5
t-67.5 -55l-133 -758h-252z" />
    <glyph glyph-name="Ncommaaccent" unicode="&#x145;" horiz-adv-x="1542" 
d="M448 -555l105 217h-101l45 246h252l-37 -215l-155 -248h-109zM39 0l266 1516h260l506 -1088h4l193 1088h235l-266 -1516h-233l-529 1110h-4l-195 -1110h-237z" />
    <glyph glyph-name="ncommaaccent" unicode="&#x146;" horiz-adv-x="1214" 
d="M285 -555l105 217h-101l45 246h252l-37 -215l-155 -248h-109zM8 0l193 1087h252l-27 -153q28 32 67.5 63.5t88 56t105 39.5t118.5 15q165 0 237 -89q51 -63 52 -164q0 -40 -9 -87l-135 -768h-252l125 713q6 30 6 55q0 50 -22 80q-33 46 -129 45q-35 0 -71.5 -10
t-73.5 -27.5t-72.5 -42.5t-67.5 -55l-133 -758h-252z" />
    <glyph glyph-name="Ncaron" unicode="&#x147;" horiz-adv-x="1542" 
d="M633 1951h147l168 -172l232 172h145l-319 -340h-174zM39 0l266 1516h260l506 -1088h4l193 1088h235l-266 -1516h-233l-529 1110h-4l-195 -1110h-237z" />
    <glyph glyph-name="ncaron" unicode="&#x148;" horiz-adv-x="1214" 
d="M399 1548h147l168 -172l232 172h145l-319 -340h-174zM8 0l193 1087h252l-27 -153q28 32 67.5 63.5t88 56t105 39.5t118.5 15q165 0 237 -89q51 -63 52 -164q0 -40 -9 -87l-135 -768h-252l125 713q6 30 6 55q0 50 -22 80q-33 46 -129 45q-35 0 -71.5 -10t-73.5 -27.5
t-72.5 -42.5t-67.5 -55l-133 -758h-252z" />
    <glyph glyph-name="napostrophe" unicode="&#x149;" horiz-adv-x="1735" 
d="M217 1020l113 229h-94l45 267h270l-41 -244l-176 -252h-117zM526 0l193 1087h252l-27 -153q28 32 67.5 63.5t88 56t105 39.5t118.5 15q165 0 237 -89q51 -63 52 -164q0 -40 -9 -87l-135 -768h-252l125 713q6 30 6 55q0 50 -22 80q-33 46 -129 45q-35 0 -71.5 -10
t-73.5 -27.5t-72.5 -42.5t-67.5 -55l-133 -758h-252z" />
    <glyph glyph-name="Eng" unicode="&#x14a;" horiz-adv-x="1544" 
d="M41 0l266 1516h260l506 -1088h2l193 1088h237l-268 -1516q-38 -209 -146.5 -312.5t-308.5 -103.5q-79 0 -144.5 14t-119.5 39.5t-98 60.5t-80 77l145 157q51 -65 123.5 -103t151.5 -38q43 0 80 10.5t68 36t54 67.5t37 105l-522 1100h-4l-197 -1110h-235z" />
    <glyph glyph-name="eng" unicode="&#x14b;" horiz-adv-x="1214" 
d="M8 0l193 1087h252l-27 -153q28 32 67.5 63.5t88 56t105 39.5t118.5 15q165 0 238 -89t44 -251l-163 -936q-10 -56 -30 -101.5t-54.5 -78t-85 -50.5t-121.5 -18q-65 0 -114.5 4t-80.5 9l31 176q19 -3 46.5 -6t51.5 -3q51 0 76 27.5t37 99.5l145 822q16 89 -17.5 134.5
t-129.5 45.5q-35 0 -71.5 -10t-73.5 -27.5t-72.5 -42.5t-67.5 -55l-133 -758h-252z" />
    <glyph glyph-name="Omacron" unicode="&#x14c;" horiz-adv-x="1544" 
d="M606 1599l33 186h629l-33 -186h-629zM82 618q0 151 31.5 278.5t86.5 230.5t130.5 181t164.5 130.5t187 79t199 26.5q128 0 235 -45t184.5 -128.5t120.5 -203t43 -268.5q0 -150 -30.5 -277.5t-84 -230.5t-127.5 -181.5t-161.5 -131.5t-184 -80t-196.5 -27
q-133 0 -243 45.5t-189 129.5t-122.5 203.5t-43.5 268.5zM340 621q0 -99 23 -176.5t68 -131t110.5 -82t150.5 -28.5q98 0 190.5 42.5t164.5 128.5t115.5 216.5t43.5 306.5q0 97 -23 174t-67.5 129.5t-110 80.5t-151.5 28q-96 0 -188.5 -41.5t-164.5 -126t-116.5 -214
t-44.5 -306.5z" />
    <glyph glyph-name="omacron" unicode="&#x14d;" horiz-adv-x="1200" 
d="M364 1196l33 186h629l-33 -186h-629zM31 449q0 119 25 214t68.5 168t101.5 125.5t124 86t137 49.5t140 16q96 0 181 -29.5t148.5 -88.5t100.5 -146.5t37 -204.5q0 -118 -25 -212.5t-68 -168.5t-101.5 -127t-124.5 -87t-137 -50.5t-140 -16.5q-96 0 -181 30t-148.5 89.5
t-100.5 148t-37 204.5zM285 444q0 -58 13 -106.5t40.5 -83t72 -53.5t107.5 -19q66 0 124.5 29.5t102.5 87t69.5 142t25.5 194.5q0 58 -13.5 107t-42 83.5t-73.5 54t-107 19.5q-67 0 -125 -30.5t-101 -88.5t-68 -143t-25 -193z" />
    <glyph glyph-name="Obreve" unicode="&#x14e;" horiz-adv-x="1544" 
d="M82 618q0 151 31.5 278.5t86.5 230.5t130.5 181t164.5 130.5t187 79t199 26.5q128 0 235 -45t184.5 -128.5t120.5 -203t43 -268.5q0 -150 -30.5 -277.5t-84 -230.5t-127.5 -181.5t-161.5 -131.5t-184 -80t-196.5 -27q-133 0 -243 45.5t-189 129.5t-122.5 203.5
t-43.5 268.5zM340 621q0 -99 23 -176.5t68 -131t110.5 -82t150.5 -28.5q98 0 190.5 42.5t164.5 128.5t115.5 216.5t43.5 306.5q0 97 -23 174t-67.5 129.5t-110 80.5t-151.5 28q-96 0 -188.5 -41.5t-164.5 -126t-116.5 -214t-44.5 -306.5zM654 1962h140q1 -57 12.5 -94.5
t33.5 -59.5t54 -31t74 -9q32 0 64.5 8.5t61.5 30.5t52 59.5t37 95.5h141q-12 -80 -43 -146.5t-78 -114.5t-108.5 -74.5t-134.5 -26.5q-90 0 -151 27.5t-97 75.5t-49.5 114.5t-8.5 144.5z" />
    <glyph glyph-name="obreve" unicode="&#x14f;" horiz-adv-x="1200" 
d="M31 449q0 119 25 214t68.5 168t101.5 125.5t124 86t137 49.5t140 16q96 0 181 -29.5t148.5 -88.5t100.5 -146.5t37 -204.5q0 -118 -25 -212.5t-68 -168.5t-101.5 -127t-124.5 -87t-137 -50.5t-140 -16.5q-96 0 -181 30t-148.5 89.5t-100.5 148t-37 204.5zM285 444
q0 -58 13 -106.5t40.5 -83t72 -53.5t107.5 -19q66 0 124.5 29.5t102.5 87t69.5 142t25.5 194.5q0 58 -13.5 107t-42 83.5t-73.5 54t-107 19.5q-67 0 -125 -30.5t-101 -88.5t-68 -143t-25 -193zM412 1554h140q1 -57 12.5 -94.5t33.5 -59.5t54 -31t74 -9q32 0 64.5 8.5
t61.5 30.5t52 59.5t37 95.5h141q-12 -80 -43 -146.5t-78 -114.5t-108.5 -74.5t-134.5 -26.5q-90 0 -151 27.5t-97 75.5t-49.5 114.5t-8.5 144.5z" />
    <glyph glyph-name="Ohungarumlaut" unicode="&#x150;" horiz-adv-x="1544" 
d="M567 1605l254 340h274l-360 -340h-168zM933 1605l265 340h274l-371 -340h-168zM82 618q0 151 31.5 278.5t86.5 230.5t130.5 181t164.5 130.5t187 79t199 26.5q128 0 235 -45t184.5 -128.5t120.5 -203t43 -268.5q0 -150 -30.5 -277.5t-84 -230.5t-127.5 -181.5
t-161.5 -131.5t-184 -80t-196.5 -27q-133 0 -243 45.5t-189 129.5t-122.5 203.5t-43.5 268.5zM340 621q0 -99 23 -176.5t68 -131t110.5 -82t150.5 -28.5q98 0 190.5 42.5t164.5 128.5t115.5 216.5t43.5 306.5q0 97 -23 174t-67.5 129.5t-110 80.5t-151.5 28
q-96 0 -188.5 -41.5t-164.5 -126t-116.5 -214t-44.5 -306.5z" />
    <glyph glyph-name="ohungarumlaut" unicode="&#x151;" horiz-adv-x="1200" 
d="M344 1202l254 340h274l-360 -340h-168zM710 1202l265 340h274l-371 -340h-168zM31 449q0 119 25 214t68.5 168t101.5 125.5t124 86t137 49.5t140 16q96 0 181 -29.5t148.5 -88.5t100.5 -146.5t37 -204.5q0 -118 -25 -212.5t-68 -168.5t-101.5 -127t-124.5 -87t-137 -50.5
t-140 -16.5q-96 0 -181 30t-148.5 89.5t-100.5 148t-37 204.5zM285 444q0 -58 13 -106.5t40.5 -83t72 -53.5t107.5 -19q66 0 124.5 29.5t102.5 87t69.5 142t25.5 194.5q0 58 -13.5 107t-42 83.5t-73.5 54t-107 19.5q-67 0 -125 -30.5t-101 -88.5t-68 -143t-25 -193z" />
    <glyph glyph-name="OE" unicode="&#x152;" horiz-adv-x="2263" 
d="M82 618q0 151 31 278.5t85.5 230.5t128 181t159 130.5t179 79t187.5 26.5q170 0 279.5 -64t164.5 -186l41 222h936l-43 -238h-702l-66 -377h510l-39 -227h-510l-77 -441h741l-41 -233h-969l35 193q-87 -107 -208 -164.5t-261 -57.5q-120 0 -222.5 45.5t-177.5 129.5
t-118 203.5t-43 268.5zM338 621q0 -99 23.5 -176.5t69.5 -131t112.5 -82t152.5 -28.5q96 0 187.5 42.5t162.5 128.5t114.5 216.5t43.5 306.5q0 97 -23.5 174t-68.5 129.5t-111 80.5t-151 28q-97 0 -189 -41.5t-164 -126t-115.5 -214t-43.5 -306.5z" />
    <glyph glyph-name="oe" unicode="&#x153;" horiz-adv-x="1919" 
d="M31 449q0 119 25 214t68.5 168t101.5 125.5t124 86t137 49.5t140 16q121 0 216 -51.5t152 -145.5q46 52 99 89.5t106.5 61.5t104 35t92.5 11q122 0 208.5 -40.5t137 -116.5t64 -185t-10.5 -246l-10 -59h-727v-25q0 -80 23 -130t60 -78.5t82 -39t89 -10.5q55 0 100 9
t83.5 27t71 44t62.5 61l156 -131q-40 -47 -90.5 -86t-113.5 -66.5t-139.5 -43t-168.5 -15.5q-125 0 -219.5 48t-151.5 139q-41 -47 -88.5 -82t-99.5 -58.5t-107 -35t-110 -11.5q-96 0 -181 30t-148.5 89.5t-100.5 148t-37 204.5zM285 444q0 -58 12 -106.5t39.5 -83.5
t71 -54.5t106.5 -19.5q66 0 125 30t104 87.5t71 142.5t26 195q0 58 -13 107t-41 84.5t-72 55t-106 19.5q-67 0 -125.5 -31t-102.5 -89.5t-69.5 -143.5t-25.5 -193zM1085 649h504q6 58 -1 105t-32 80t-68.5 51t-109.5 18q-48 0 -92 -15.5t-82.5 -47t-69 -79.5t-49.5 -112z
" />
    <glyph glyph-name="Racute" unicode="&#x154;" horiz-adv-x="1395" 
d="M672 1605l241 340h271l-346 -340h-166zM39 0l266 1516h461q135 0 240 -24.5t176.5 -74t109 -123t37.5 -170.5q0 -104 -30 -188.5t-84 -148t-128.5 -103.5t-164.5 -55l229 -629h-256l-217 598h-283l-104 -598h-252zM436 821h305q68 0 128 10.5t105 40t71 83.5t26 141
q0 101 -78.5 143.5t-242.5 42.5h-234z" />
    <glyph glyph-name="racute" unicode="&#x155;" horiz-adv-x="834" 
d="M323 1202l241 340h271l-346 -340h-166zM8 0l193 1087h252l-31 -178h2q31 39 72 74.5t92.5 63.5t114.5 44.5t139 16.5h10l-41 -225q-20 2 -39.5 3t-30.5 1q-48 0 -97.5 -14.5t-96.5 -41t-89.5 -63t-76.5 -80.5l-121 -688h-252z" />
    <glyph glyph-name="Rcommaaccent" unicode="&#x156;" horiz-adv-x="1395" 
d="M375 -555l105 217h-101l45 246h252l-37 -215l-155 -248h-109zM39 0l266 1516h461q135 0 240 -24.5t176.5 -74t109 -123t37.5 -170.5q0 -104 -30 -188.5t-84 -148t-128.5 -103.5t-164.5 -55l229 -629h-256l-217 598h-283l-104 -598h-252zM436 821h305q68 0 128 10.5
t105 40t71 83.5t26 141q0 101 -78.5 143.5t-242.5 42.5h-234z" />
    <glyph glyph-name="rcommaaccent" unicode="&#x157;" horiz-adv-x="834" 
d="M-46 -555l105 217h-101l45 246h252l-37 -215l-155 -248h-109zM8 0l193 1087h252l-31 -178h2q31 39 72 74.5t92.5 63.5t114.5 44.5t139 16.5h10l-41 -225q-20 2 -39.5 3t-30.5 1q-48 0 -97.5 -14.5t-96.5 -41t-89.5 -63t-76.5 -80.5l-121 -688h-252z" />
    <glyph glyph-name="Rcaron" unicode="&#x158;" horiz-adv-x="1395" 
d="M559 1951h147l168 -172l232 172h145l-319 -340h-174zM39 0l266 1516h461q135 0 240 -24.5t176.5 -74t109 -123t37.5 -170.5q0 -104 -30 -188.5t-84 -148t-128.5 -103.5t-164.5 -55l229 -629h-256l-217 598h-283l-104 -598h-252zM436 821h305q68 0 128 10.5t105 40
t71 83.5t26 141q0 101 -78.5 143.5t-242.5 42.5h-234z" />
    <glyph glyph-name="rcaron" unicode="&#x159;" horiz-adv-x="834" 
d="M210 1548h147l168 -172l232 172h145l-319 -340h-174zM8 0l193 1087h252l-31 -178h2q31 39 72 74.5t92.5 63.5t114.5 44.5t139 16.5h10l-41 -225q-20 2 -39.5 3t-30.5 1q-48 0 -97.5 -14.5t-96.5 -41t-89.5 -63t-76.5 -80.5l-121 -688h-252z" />
    <glyph glyph-name="Sacute" unicode="&#x15a;" horiz-adv-x="1360" 
d="M654 1605l241 340h271l-346 -340h-166zM10 371l232 78q24 -69 57 -116.5t80.5 -77t110.5 -43t147 -13.5q60 0 115.5 9.5t98 34.5t68 66.5t25.5 106.5q0 59 -32 100t-84.5 72.5t-119.5 56.5t-137.5 51.5t-137.5 58t-119.5 76t-84.5 105t-32 145.5q0 118 42.5 205
t115.5 145t170 86.5t206 28.5q122 0 211.5 -23.5t155 -66t112 -101t82.5 -128.5l-223 -105q-47 89 -132.5 140t-221.5 51q-59 0 -107.5 -12t-83 -37t-53 -62t-18.5 -88q0 -55 32 -94t84.5 -69t119.5 -55t137.5 -51.5t137.5 -58.5t119.5 -76.5t84.5 -105.5t32 -145
q0 -125 -44.5 -217.5t-122.5 -153t-185.5 -90t-233.5 -29.5q-129 0 -229.5 26t-174.5 77t-123.5 126t-76.5 173z" />
    <glyph glyph-name="sacute" unicode="&#x15b;" horiz-adv-x="1051" 
d="M428 1202l241 340h271l-346 -340h-166zM-45 174l162 139q55 -63 141 -101t199 -40h12q36 0 69 5q38 6 66 21.5t44 41.5t16 67q0 36 -23.5 61t-62.5 43.5t-88.5 34t-101 33t-101 39.5t-88.5 54t-62.5 77.5t-23.5 108.5q0 89 33.5 154.5t89 109t128 65t150.5 21.5
q89 0 162.5 -13.5t131.5 -36t102 -53.5t75 -65l-151 -156q-57 59 -135.5 93t-174.5 34q-80 0 -123 -29.5t-43 -90.5q0 -37 23.5 -62t62.5 -44t88.5 -34t101 -32t101 -38.5t88.5 -53t62.5 -75.5t23.5 -106q0 -73 -19.5 -128.5t-53 -96t-78.5 -67.5t-96.5 -43.5t-106 -23.5
t-106.5 -7q-93 0 -169.5 14.5t-137.5 40.5t-107.5 61.5t-79.5 77.5z" />
    <glyph glyph-name="Scircumflex" unicode="&#x15c;" horiz-adv-x="1360" 
d="M477 1610l320 340h174l199 -340h-148l-170 172l-229 -172h-146zM10 371l232 78q24 -69 57 -116.5t80.5 -77t110.5 -43t147 -13.5q60 0 115.5 9.5t98 34.5t68 66.5t25.5 106.5q0 59 -32 100t-84.5 72.5t-119.5 56.5t-137.5 51.5t-137.5 58t-119.5 76t-84.5 105t-32 145.5
q0 118 42.5 205t115.5 145t170 86.5t206 28.5q122 0 211.5 -23.5t155 -66t112 -101t82.5 -128.5l-223 -105q-47 89 -132.5 140t-221.5 51q-59 0 -107.5 -12t-83 -37t-53 -62t-18.5 -88q0 -55 32 -94t84.5 -69t119.5 -55t137.5 -51.5t137.5 -58.5t119.5 -76.5t84.5 -105.5
t32 -145q0 -125 -44.5 -217.5t-122.5 -153t-185.5 -90t-233.5 -29.5q-129 0 -229.5 26t-174.5 77t-123.5 126t-76.5 173z" />
    <glyph glyph-name="scircumflex" unicode="&#x15d;" horiz-adv-x="1051" 
d="M238 1202l320 340h174l199 -340h-148l-170 172l-229 -172h-146zM-45 174l162 139q55 -63 141 -101t199 -40h12q36 0 69 5q38 6 66 21.5t44 41.5t16 67q0 36 -23.5 61t-62.5 43.5t-88.5 34t-101 33t-101 39.5t-88.5 54t-62.5 77.5t-23.5 108.5q0 89 33.5 154.5t89 109
t128 65t150.5 21.5q89 0 162.5 -13.5t131.5 -36t102 -53.5t75 -65l-151 -156q-57 59 -135.5 93t-174.5 34q-80 0 -123 -29.5t-43 -90.5q0 -37 23.5 -62t62.5 -44t88.5 -34t101 -32t101 -38.5t88.5 -53t62.5 -75.5t23.5 -106q0 -73 -19.5 -128.5t-53 -96t-78.5 -67.5
t-96.5 -43.5t-106 -23.5t-106.5 -7q-93 0 -169.5 14.5t-137.5 40.5t-107.5 61.5t-79.5 77.5z" />
    <glyph glyph-name="Scedilla" unicode="&#x15e;" horiz-adv-x="1360" 
d="M10 371l232 78q24 -69 57 -116.5t80.5 -77t110.5 -43t147 -13.5q60 0 115.5 9.5t98 34.5t68 66.5t25.5 106.5q0 59 -32 100t-84.5 72.5t-119.5 56.5t-137.5 51.5t-137.5 58t-119.5 76t-84.5 105t-32 145.5q0 118 42.5 205t115.5 145t170 86.5t206 28.5q122 0 211.5 -23.5
t155 -66t112 -101t82.5 -128.5l-223 -105q-47 89 -132.5 140t-221.5 51q-59 0 -107.5 -12t-83 -37t-53 -62t-18.5 -88q0 -55 32 -94t84.5 -69t119.5 -55t137.5 -51.5t137.5 -58.5t119.5 -76.5t84.5 -105.5t32 -145q0 -125 -44.5 -217.5t-122.5 -153t-185.5 -90t-233.5 -29.5
q-129 0 -229.5 26t-174.5 77t-123.5 126t-76.5 173zM238 -332l65 82q40 -31 87.5 -46t107.5 -15q57 0 90 20.5t33 67.5q0 25 -17.5 40t-48.5 15q-46 0 -92 -37l-66 35l84 170h115l-45 -104q20 14 47 22t61 8q59 0 97.5 -35t38.5 -94q0 -58 -25.5 -97.5t-65 -63.5t-87.5 -34
t-93 -10q-53 0 -95.5 5.5t-77 15t-62 23.5t-51.5 32z" />
    <glyph glyph-name="scedilla" unicode="&#x15f;" horiz-adv-x="1051" 
d="M-45 174l162 139q55 -63 141 -101t199 -40h12q36 0 69 5q38 6 66 21.5t44 41.5t16 67q0 36 -23.5 61t-62.5 43.5t-88.5 34t-101 33t-101 39.5t-88.5 54t-62.5 77.5t-23.5 108.5q0 89 33.5 154.5t89 109t128 65t150.5 21.5q89 0 162.5 -13.5t131.5 -36t102 -53.5t75 -65
l-151 -156q-57 59 -135.5 93t-174.5 34q-80 0 -123 -29.5t-43 -90.5q0 -37 23.5 -62t62.5 -44t88.5 -34t101 -32t101 -38.5t88.5 -53t62.5 -75.5t23.5 -106q0 -73 -19.5 -128.5t-53 -96t-78.5 -67.5t-96.5 -43.5t-106 -23.5t-106.5 -7q-93 0 -169.5 14.5t-137.5 40.5
t-107.5 61.5t-79.5 77.5zM82 -332l65 82q40 -31 87.5 -46t107.5 -15q57 0 90 20.5t33 67.5q0 25 -17.5 40t-48.5 15q-46 0 -92 -37l-66 35l84 170h115l-45 -104q20 14 47 22t61 8q59 0 97.5 -35t38.5 -94q0 -58 -25.5 -97.5t-65 -63.5t-87.5 -34t-93 -10q-53 0 -95.5 5.5
t-77 15t-62 23.5t-51.5 32z" />
    <glyph glyph-name="Scaron" unicode="&#x160;" horiz-adv-x="1360" 
d="M543 1958h147l168 -172l232 172h145l-319 -340h-174zM10 371l232 78q24 -69 57 -116.5t80.5 -77t110.5 -43t147 -13.5q60 0 115.5 9.5t98 34.5t68 66.5t25.5 106.5q0 59 -32 100t-84.5 72.5t-119.5 56.5t-137.5 51.5t-137.5 58t-119.5 76t-84.5 105t-32 145.5
q0 118 42.5 205t115.5 145t170 86.5t206 28.5q122 0 211.5 -23.5t155 -66t112 -101t82.5 -128.5l-223 -105q-47 89 -132.5 140t-221.5 51q-59 0 -107.5 -12t-83 -37t-53 -62t-18.5 -88q0 -55 32 -94t84.5 -69t119.5 -55t137.5 -51.5t137.5 -58.5t119.5 -76.5t84.5 -105.5
t32 -145q0 -125 -44.5 -217.5t-122.5 -153t-185.5 -90t-233.5 -29.5q-129 0 -229.5 26t-174.5 77t-123.5 126t-76.5 173z" />
    <glyph glyph-name="scaron" unicode="&#x161;" horiz-adv-x="1051" 
d="M319 1548h147l168 -172l232 172h145l-319 -340h-174zM-45 174l162 139q55 -63 141 -101t199 -40h12q36 0 69 5q38 6 66 21.5t44 41.5t16 67q0 36 -23.5 61t-62.5 43.5t-88.5 34t-101 33t-101 39.5t-88.5 54t-62.5 77.5t-23.5 108.5q0 89 33.5 154.5t89 109t128 65
t150.5 21.5q89 0 162.5 -13.5t131.5 -36t102 -53.5t75 -65l-151 -156q-57 59 -135.5 93t-174.5 34q-80 0 -123 -29.5t-43 -90.5q0 -37 23.5 -62t62.5 -44t88.5 -34t101 -32t101 -38.5t88.5 -53t62.5 -75.5t23.5 -106q0 -73 -19.5 -128.5t-53 -96t-78.5 -67.5t-96.5 -43.5
t-106 -23.5t-106.5 -7q-93 0 -169.5 14.5t-137.5 40.5t-107.5 61.5t-79.5 77.5z" />
    <glyph glyph-name="uni021A" unicode="&#x162;" horiz-adv-x="1280" 
d="M319 -555l105 217h-101l45 246h252l-37 -215l-155 -248h-109zM145 1278l43 238h1170l-43 -238h-457l-223 -1278h-256l223 1278h-457z" />
    <glyph glyph-name="uni021A" unicode="&#x21a;" horiz-adv-x="1280" 
d="M319 -555l105 217h-101l45 246h252l-37 -215l-155 -248h-109zM145 1278l43 238h1170l-43 -238h-457l-223 -1278h-256l223 1278h-457z" />
    <glyph glyph-name="uni021B" unicode="&#x163;" horiz-adv-x="811" 
d="M72 -555l105 217h-101l45 246h252l-37 -215l-155 -248h-109zM61 887l37 200h185l65 379h252l-65 -379h270l-37 -200h-270l-97 -543q-8 -42 -8 -72q1 -34 15 -54q14 -18 42.5 -26t77.5 -8q25 0 54 4t49 9l-19 -195q-11 -3 -33 -6t-48.5 -5t-54 -3.5t-48.5 -1.5
q-107 0 -169.5 22.5t-92.5 64.5t-33 101q-1 11 -1 23q0 50 11 110l103 580h-185z" />
    <glyph glyph-name="uni021B" unicode="&#x21b;" horiz-adv-x="811" 
d="M72 -555l105 217h-101l45 246h252l-37 -215l-155 -248h-109zM61 887l37 200h185l65 379h252l-65 -379h270l-37 -200h-270l-97 -543q-8 -42 -8 -72q1 -34 15 -54q14 -18 42.5 -26t77.5 -8q25 0 54 4t49 9l-19 -195q-11 -3 -33 -6t-48.5 -5t-54 -3.5t-48.5 -1.5
q-107 0 -169.5 22.5t-92.5 64.5t-33 101q-1 11 -1 23q0 50 11 110l103 580h-185z" />
    <glyph glyph-name="Tcaron" unicode="&#x164;" horiz-adv-x="1280" 
d="M504 1951h147l168 -172l232 172h145l-319 -340h-174zM145 1278l43 238h1170l-43 -238h-457l-223 -1278h-256l223 1278h-457z" />
    <glyph glyph-name="tcaron" unicode="&#x165;" horiz-adv-x="811" 
d="M61 887l37 200h185l65 379h252l-65 -379h270l-37 -200h-270l-97 -543q-8 -45 -7.5 -76t14 -49.5t42.5 -26.5t78 -8q25 0 54 4t49 9l-19 -195q-11 -3 -33 -6t-48.5 -5t-54 -3.5t-48.5 -1.5q-107 0 -169.5 22.5t-92.5 64.5t-33 101t10 133l103 580h-185zM711 1241l100 209
h-96l41 238h243l-36 -207l-150 -240h-102z" />
    <glyph glyph-name="Tbar" unicode="&#x166;" horiz-adv-x="1280" 
d="M31 623l37 196h454l80 459h-457l43 238h1170l-43 -238h-457l-80 -459h459l-35 -196h-459l-108 -623h-256l108 623h-456z" />
    <glyph glyph-name="tbar" unicode="&#x167;" horiz-adv-x="811" 
d="M-10 477l33 170h179l42 240h-183l39 200h183l65 379h252l-65 -379h270l-39 -200h-270l-42 -240h273l-31 -170h-272l-21 -123q-8 -48 -9 -80.5t11.5 -52.5t41 -28.5t79.5 -8.5q25 0 54 4t51 9l-19 -195q-11 -3 -32.5 -6t-47.5 -5t-53.5 -3.5t-48.5 -1.5q-108 0 -171 22.5
t-93 64.5t-33 101t10 133l29 170h-182z" />
    <glyph glyph-name="Utilde" unicode="&#x168;" horiz-adv-x="1456" 
d="M116 351q-5 43 -5 89q0 75 14 156l160 920h256l-162 -934q-11 -64 -11 -118q0 -20 2 -38q6 -70 37 -118.5t92 -74.5t156 -26q79 0 139.5 17.5t104 55.5t72 99.5t43.5 148.5l172 988h252l-178 -1018q-93 -525 -617 -525q-171 0 -282 48t-171 132t-74 198zM508 1600
q8 75 29 129t52.5 88.5t73 51t92.5 16.5q49 0 88.5 -18t73.5 -39.5t63 -39.5t58 -18q42 0 67.5 25.5t36.5 85.5h146q-20 -149 -86 -217t-164 -68q-48 0 -87 18t-72.5 39.5t-63.5 39.5t-60 18q-43 0 -68 -25.5t-34 -85.5h-145z" />
    <glyph glyph-name="utilde" unicode="&#x169;" horiz-adv-x="1212" 
d="M52 174q-5 29 -5 61q0 39 8 84l135 768h252l-127 -718q-5 -28 -5 -51q0 -52 24 -84q34 -46 127 -46q71 0 144 38t138 98l136 763h251l-192 -1087h-252l27 154q-28 -32 -67 -64t-87.5 -57t-105 -40.5t-117.5 -15.5q-81 0 -140.5 23t-95.5 66.5t-48 107.5zM316 1192
q8 75 29 129t52.5 88.5t73 51t92.5 16.5q49 0 88.5 -18t73.5 -39.5t63 -39.5t58 -18q42 0 67.5 25.5t36.5 85.5h146q-20 -149 -86 -217t-164 -68q-48 0 -87 18t-72.5 39.5t-63.5 39.5t-60 18q-43 0 -68 -25.5t-34 -85.5h-145z" />
    <glyph glyph-name="Umacron" unicode="&#x16a;" horiz-adv-x="1456" 
d="M116 351q-5 43 -5 89q0 75 14 156l160 920h256l-162 -934q-11 -64 -11 -118q0 -20 2 -38q6 -70 37 -118.5t92 -74.5t156 -26q79 0 139.5 17.5t104 55.5t72 99.5t43.5 148.5l172 988h252l-178 -1018q-93 -525 -617 -525q-171 0 -282 48t-171 132t-74 198zM563 1599l33 186
h629l-33 -186h-629z" />
    <glyph glyph-name="umacron" unicode="&#x16b;" horiz-adv-x="1212" 
d="M52 174q-5 29 -5 61q0 39 8 84l135 768h252l-127 -718q-5 -28 -5 -51q0 -52 24 -84q34 -46 127 -46q71 0 144 38t138 98l136 763h251l-192 -1087h-252l27 154q-28 -32 -67 -64t-87.5 -57t-105 -40.5t-117.5 -15.5q-81 0 -140.5 23t-95.5 66.5t-48 107.5zM370 1196l33 186
h629l-33 -186h-629z" />
    <glyph glyph-name="Ubreve" unicode="&#x16c;" horiz-adv-x="1456" 
d="M116 351q-5 43 -5 89q0 75 14 156l160 920h256l-162 -934q-11 -64 -11 -118q0 -20 2 -38q6 -70 37 -118.5t92 -74.5t156 -26q79 0 139.5 17.5t104 55.5t72 99.5t43.5 148.5l172 988h252l-178 -1018q-93 -525 -617 -525q-171 0 -282 48t-171 132t-74 198zM601 1962h140
q1 -57 12.5 -94.5t33.5 -59.5t54 -31t74 -9q32 0 64.5 8.5t61.5 30.5t52 59.5t37 95.5h141q-12 -80 -43 -146.5t-78 -114.5t-108.5 -74.5t-134.5 -26.5q-90 0 -151 27.5t-97 75.5t-49.5 114.5t-8.5 144.5z" />
    <glyph glyph-name="ubreve" unicode="&#x16d;" horiz-adv-x="1212" 
d="M52 174q-5 29 -5 61q0 39 8 84l135 768h252l-127 -718q-5 -28 -5 -51q0 -52 24 -84q34 -46 127 -46q71 0 144 38t138 98l136 763h251l-192 -1087h-252l27 154q-28 -32 -67 -64t-87.5 -57t-105 -40.5t-117.5 -15.5q-81 0 -140.5 23t-95.5 66.5t-48 107.5zM400 1554h140
q1 -57 12.5 -94.5t33.5 -59.5t54 -31t74 -9q32 0 64.5 8.5t61.5 30.5t52 59.5t37 95.5h141q-12 -80 -43 -146.5t-78 -114.5t-108.5 -74.5t-134.5 -26.5q-90 0 -151 27.5t-97 75.5t-49.5 114.5t-8.5 144.5z" />
    <glyph glyph-name="Uring" unicode="&#x16e;" horiz-adv-x="1456" 
d="M705 1777q0 53 19.5 95.5t52 72t74 45t85.5 15.5t78 -14.5t57.5 -39t36 -58t12.5 -71.5q0 -54 -19.5 -97.5t-52 -73.5t-74 -46t-85.5 -16t-78 15t-57.5 40.5t-36 60t-12.5 72.5zM815 1781q0 -37 21 -62.5t63 -25.5q22 0 42 8t35.5 24t24.5 38t9 51q0 37 -22 62.5
t-64 25.5q-22 0 -41.5 -8.5t-34.5 -24.5t-24 -38t-9 -50zM116 351q-5 43 -5 89q0 75 14 156l160 920h256l-162 -934q-11 -64 -11 -118q0 -20 2 -38q6 -70 37 -118.5t92 -74.5t156 -26q79 0 139.5 17.5t104 55.5t72 99.5t43.5 148.5l172 988h252l-178 -1018
q-93 -525 -617 -525q-171 0 -282 48t-171 132t-74 198z" />
    <glyph glyph-name="uring" unicode="&#x16f;" horiz-adv-x="1212" 
d="M512 1374q0 53 19.5 95.5t52 72t74 45t85.5 15.5t78 -14.5t57.5 -39t36 -58t12.5 -71.5q0 -54 -19.5 -97.5t-52 -73.5t-74 -46t-85.5 -16t-78 15t-57.5 40.5t-36 60t-12.5 72.5zM622 1378q0 -37 21 -62.5t63 -25.5q22 0 42 8t35.5 24t24.5 38t9 51q0 37 -22 62.5
t-64 25.5q-22 0 -41.5 -8.5t-34.5 -24.5t-24 -38t-9 -50zM52 174q-5 29 -5 61q0 39 8 84l135 768h252l-127 -718q-5 -28 -5 -51q0 -52 24 -84q34 -46 127 -46q71 0 144 38t138 98l136 763h251l-192 -1087h-252l27 154q-28 -32 -67 -64t-87.5 -57t-105 -40.5t-117.5 -15.5
q-81 0 -140.5 23t-95.5 66.5t-48 107.5z" />
    <glyph glyph-name="Uhungarumlaut" unicode="&#x170;" horiz-adv-x="1456" 
d="M116 351q-5 43 -5 89q0 75 14 156l160 920h256l-162 -934q-11 -64 -11 -118q0 -20 2 -38q6 -70 37 -118.5t92 -74.5t156 -26q79 0 139.5 17.5t104 55.5t72 99.5t43.5 148.5l172 988h252l-178 -1018q-93 -525 -617 -525q-171 0 -282 48t-171 132t-74 198zM569 1605
l254 340h274l-360 -340h-168zM935 1605l265 340h274l-371 -340h-168z" />
    <glyph glyph-name="uhungarumlaut" unicode="&#x171;" horiz-adv-x="1212" 
d="M52 174q-5 29 -5 61q0 39 8 84l135 768h252l-127 -718q-5 -28 -5 -51q0 -52 24 -84q34 -46 127 -46q71 0 144 38t138 98l136 763h251l-192 -1087h-252l27 154q-28 -32 -67 -64t-87.5 -57t-105 -40.5t-117.5 -15.5q-81 0 -140.5 23t-95.5 66.5t-48 107.5zM369 1202
l254 340h274l-360 -340h-168zM735 1202l265 340h274l-371 -340h-168z" />
    <glyph glyph-name="Uogonek" unicode="&#x172;" horiz-adv-x="1456" 
d="M366 -238q0 39 17.5 74t47 66t69 59t84.5 55h151q-83 -52 -133.5 -107.5t-50.5 -111.5q0 -29 20 -49t74 -20q42 0 84 9.5t84 26.5l37 -79q-60 -34 -124 -51t-138 -17q-58 0 -100 11t-69 30t-40 45.5t-13 58.5zM116 351q-5 43 -5 89q0 75 14 156l160 920h256l-162 -934
q-11 -64 -11 -118q0 -20 2 -38q6 -70 37 -118.5t92 -74.5t156 -26q79 0 139.5 17.5t104 55.5t72 99.5t43.5 148.5l172 988h252l-178 -1018q-93 -525 -617 -525q-171 0 -282 48t-171 132t-74 198z" />
    <glyph glyph-name="uogonek" unicode="&#x173;" horiz-adv-x="1212" 
d="M63.5 174.5q-11.5 63.5 2.5 144.5l135 768h252l-127 -718q-15 -90 18.5 -135.5t127.5 -45.5q71 0 144 38t138 98l136 763h251l-192 -1087h-252l27 154q-28 -32 -67 -64t-87.5 -57t-105 -40.5t-117.5 -15.5q-81 0 -140.5 23t-95.5 67t-47.5 107.5zM492 -238q0 39 17.5 74
t47 66t69.5 59t85 55h150q-84 -52 -134 -107.5t-50 -111.5q0 -29 21 -49t75 -20q42 0 83 9.5t85 26.5l37 -79q-62 -34 -125 -51t-137 -17q-117 0 -170.5 41t-53.5 104z" />
    <glyph glyph-name="Wcircumflex" unicode="&#x174;" horiz-adv-x="1913" 
d="M759 1610l320 340h174l199 -340h-148l-170 172l-229 -172h-146zM193 1516h256l45 -785q5 -91 10 -176.5t8 -175.5h4q34 90 68 174.5t71 175.5l320 787h246l51 -791q3 -48 5.5 -90.5t4.5 -83.5t3.5 -82.5t2.5 -89.5h4q19 50 35 91t31.5 80.5t32 80t36.5 88.5l320 797h240
l-656 -1516h-223l-70 1161h-4l-489 -1161h-226z" />
    <glyph glyph-name="wcircumflex" unicode="&#x175;" horiz-adv-x="1544" 
d="M503 1202l320 340h174l199 -340h-148l-170 172l-229 -172h-146zM86 1087h252l33 -450q5 -85 10 -167.5t8 -178.5h4q22 54 40.5 98t35 84.5t34 80.5t38.5 87l194 446h205l39 -454q4 -45 7.5 -85t6.5 -79.5t5.5 -82.5t5.5 -95h4q21 52 38.5 94.5t33.5 81.5l34 78
q16 39 35 84l199 458h229l-506 -1087h-233l-66 758h-4l-330 -758h-231z" />
    <glyph glyph-name="Ycircumflex" unicode="&#x176;" horiz-adv-x="1333" 
d="M166 1516h260l256 -646l481 646h273l-660 -863l-114 -653h-256l114 653zM464 1610l320 340h174l199 -340h-148l-170 172l-229 -172h-146z" />
    <glyph glyph-name="ycircumflex" unicode="&#x177;" horiz-adv-x="1100" 
d="M-176 -375l84 205q13 -6 34 -13t44.5 -13.5t48 -10.5t45.5 -4q60 0 98.5 29.5t67.5 85.5l49 90l-211 1093h260l129 -792h4l410 792h252l-693 -1251q-35 -65 -71.5 -113t-78.5 -80.5t-92.5 -48.5t-113.5 -16q-91 0 -158.5 15t-107.5 32zM282 1202l320 340h174l199 -340
h-148l-170 172l-229 -172h-146z" />
    <glyph glyph-name="Ydieresis" unicode="&#x178;" horiz-adv-x="1333" 
d="M166 1516h260l256 -646l481 646h273l-660 -863l-114 -653h-256l114 653zM502 1606l43 248h229l-43 -248h-229zM895 1606l43 248h229l-43 -248h-229z" />
    <glyph glyph-name="Zacute" unicode="&#x179;" horiz-adv-x="1300" 
d="M625 1605l241 340h271l-346 -340h-166zM-61 0l36 199l1004 1083h-760l41 234h1083l-34 -203l-996 -1084h805l-41 -229h-1138z" />
    <glyph glyph-name="zacute" unicode="&#x17a;" horiz-adv-x="1044" 
d="M426 1202l241 340h271l-346 -340h-166zM-63 0l24 145l684 742h-508l37 200h830l-27 -151l-686 -741h590l-35 -195h-909z" />
    <glyph glyph-name="Zdotaccent" unicode="&#x17b;" horiz-adv-x="1300" 
d="M-61 0l36 199l1004 1083h-760l41 234h1083l-34 -203l-996 -1084h805l-41 -229h-1138zM668 1622l41 227h270l-41 -227h-270z" />
    <glyph glyph-name="zdotaccent" unicode="&#x17c;" horiz-adv-x="1044" 
d="M-63 0l24 145l684 742h-508l37 200h830l-27 -151l-686 -741h590l-35 -195h-909zM469 1219l41 227h270l-41 -227h-270z" />
    <glyph glyph-name="Zcaron" unicode="&#x17d;" horiz-adv-x="1300" 
d="M512 1958h147l168 -172l232 172h145l-319 -340h-174zM-61 0l36 199l1004 1083h-760l41 234h1083l-34 -203l-996 -1084h805l-41 -229h-1138z" />
    <glyph glyph-name="zcaron" unicode="&#x17e;" horiz-adv-x="1044" 
d="M317 1548h147l168 -172l232 172h145l-319 -340h-174zM-63 0l24 145l684 742h-508l37 200h830l-27 -151l-686 -741h590l-35 -195h-909z" />
    <glyph glyph-name="longs" unicode="&#x17f;" horiz-adv-x="776" 
d="M104 0l215 1212q11 65 35 121.5t71.5 98.5t123.5 66t190 24q17 0 39.5 -1.5t44 -3.5t38 -4.5t20.5 -3.5l-31 -190q-8 3 -28.5 5.5t-45.5 2.5q-42 0 -77.5 -6t-62.5 -22.5t-45 -46.5t-26 -78l-209 -1174h-252z" />
    <glyph glyph-name="florin" unicode="&#x192;" horiz-adv-x="788" 
d="M-258 -406l33 179q12 -3 38 -4.5t46 -1.5q78 0 126.5 37t63.5 124l156 885h-189l33 182h189l32 203q12 70 38 129t73 102.5t120 68t179 24.5q18 0 41 -1t45 -2.5t39 -3.5t24 -4l-34 -182q-13 3 -38 4.5t-46 1.5q-34 0 -65 -5.5t-56 -21t-43 -43t-25 -71.5l-33 -199h238
l-33 -182h-237l-164 -926q-11 -64 -35.5 -119t-70.5 -95.5t-118.5 -63.5t-179.5 -23q-18 0 -40.5 1t-44 2.5t-38.5 2.5t-24 2z" />
    <glyph glyph-name="Aringacute" unicode="&#x1fa;" horiz-adv-x="1401" 
d="M766 1900l241 340h271l-346 -340h-166zM-82 0l778 1491q-23 22 -34 53t-11 66q0 53 20 95t52.5 71.5t74 45t85.5 15.5q43 0 77.5 -14.5t58 -39t36 -58t12.5 -70.5q0 -63 -27 -109t-67 -73l250 -1473h-250l-62 395h-540l-203 -395h-250zM469 588h414l-95 612h-4zM762 1614
q0 -37 21 -62.5t63 -25.5q21 0 41 8t35.5 24t24.5 38t9 51q0 37 -22 62.5t-64 25.5q-21 0 -40.5 -8.5t-34.5 -24.5t-24 -38t-9 -50z" />
    <glyph glyph-name="aringacute" unicode="&#x1fb;" horiz-adv-x="1133" 
d="M592 1687l241 340h271l-346 -340h-166zM-18 246q0 98 45 178.5t140.5 140t243 97t351.5 49.5l6 30q5 24 5 44q1 49 -29 77q-42 39 -148 39q-45 0 -92 -7.5t-93.5 -22t-90.5 -34.5t-82 -44l-97 163q39 29 92.5 56.5t118.5 48.5t139.5 34t155.5 13q120 0 197.5 -30.5
t119.5 -85.5q40 -54 50 -130q4 -28 4 -60q0 -51 -10 -108l-76 -428q-8 -45 -13.5 -79t-7.5 -64t-1.5 -59.5t5.5 -63.5h-253q-3 21 -4.5 37t-2 31.5t1 32.5t5.5 38q-92 -84 -189.5 -120.5t-191.5 -36.5q-69 0 -124.5 19t-94.5 53.5t-59.5 83.5t-20.5 108zM238 297
q0 -54 38.5 -87.5t112.5 -33.5q84 0 158 35t143 92l41 238q-141 -12 -235.5 -33t-151.5 -51.5t-81.5 -70.5t-24.5 -89zM480 1374q0 53 19.5 95.5t52 72t74 45t85.5 15.5t78 -14.5t57.5 -39t36 -58t12.5 -71.5q0 -54 -19.5 -97.5t-52 -73.5t-74 -46t-85.5 -16t-78 15
t-57.5 40.5t-36 60t-12.5 72.5zM590 1378q0 -37 21 -62.5t63 -25.5q22 0 42 8t35.5 24t24.5 38t9 51q0 37 -22 62.5t-64 25.5q-22 0 -41.5 -8.5t-34.5 -24.5t-24 -38t-9 -50z" />
    <glyph glyph-name="AEacute" unicode="&#x1fc;" horiz-adv-x="2126" 
d="M1086 1601l241 340h271l-346 -340h-166zM-96 0l1128 1516h1092l-41 -238h-703l-65 -377h510l-41 -227h-510l-78 -441h743l-41 -233h-997l78 436h-490l-323 -436h-262zM647 651h369l117 652h-3z" />
    <glyph glyph-name="aeacute" unicode="&#x1fd;" horiz-adv-x="1810" 
d="M844 1202l241 340h271l-346 -340h-166zM-18 246q0 98 45 178.5t140.5 140t243 97t351.5 49.5l6 30q17 82 -22.5 121t-145.5 39q-45 0 -92.5 -7.5t-95 -22t-92 -34.5t-82.5 -44l-97 163q39 29 92.5 56.5t118.5 48.5t139.5 34t155.5 13q65 0 114.5 -10t85.5 -28.5t60 -44.5
t39 -58q43 37 89.5 64t92.5 44t89.5 25t80.5 8q121 0 207.5 -40.5t136.5 -116.5t64 -185t-10 -246l-10 -59h-728v-25q0 -80 23 -130t59 -78.5t81 -39t89 -10.5q109 0 184.5 36.5t135.5 104.5l156 -131q-40 -47 -91 -86t-114 -66.5t-139 -43t-166 -15.5q-141 0 -243 55
t-155 167q-43 -39 -98 -77.5t-118.5 -69.5t-134.5 -50.5t-146 -19.5q-69 0 -124.5 19t-94.5 53.5t-59.5 83.5t-20.5 108zM238 297q0 -54 38.5 -87.5t112.5 -33.5q43 0 88.5 13t90.5 35.5t87.5 52.5t79.5 63q-6 46 -6 100q0 55 6 105q-143 -11 -238.5 -33t-153 -53.5
t-81.5 -72.5t-24 -89zM985 649h502q6 58 -0.5 105t-30 80t-66 51t-108.5 18q-49 0 -94.5 -15.5t-84 -47t-69 -79.5t-49.5 -112z" />
    <glyph glyph-name="Oslashacute" unicode="&#x1fe;" horiz-adv-x="1550" 
d="M-29 49l199 199q-43 75 -65.5 168t-22.5 202q0 151 31 278.5t86 230.5t130.5 181t164 130.5t186.5 79t199 26.5q123 0 225.5 -41t179.5 -117l178 181l111 -99l-199 -202q42 -76 65 -167.5t23 -199.5q0 -150 -30.5 -277.5t-84.5 -230.5t-128 -181.5t-161 -131.5t-184 -80
t-196 -27q-127 0 -232 40.5t-184 117.5l-178 -180zM334 621q0 -54 6 -102.5t20 -90.5l756 776q-93 113 -266 113q-97 0 -189.5 -42.5t-165 -129t-117 -217t-44.5 -307.5zM426 307q95 -112 270 -112q96 0 188 43.5t164 131.5t116 219.5t44 307.5q0 53 -6 99.5t-20 86.5z
M744 1601l241 340h271l-346 -340h-166z" />
    <glyph glyph-name="oslashacute" unicode="&#x1ff;" horiz-adv-x="1204" 
d="M-49 20l155 150q-37 56 -56 125t-19 154q0 119 25 214t68.5 168t101.5 125.5t124 86t137 49.5t140 16q88 0 165.5 -24.5t139.5 -73.5l149 145l90 -98l-149 -148q34 -54 53 -121t19 -149q0 -118 -25 -212.5t-68 -168.5t-101.5 -127t-124.5 -87t-137 -50.5t-140 -16.5
q-87 0 -163 23.5t-138 71.5l-154 -150zM281 444q0 -27 2.5 -53t7.5 -51l487 504q-29 31 -72 48t-102 17q-67 0 -125.5 -32t-102.5 -92t-69.5 -146.5t-25.5 -194.5zM346 233q29 -29 71 -45t101 -16q66 0 125 31t104 90.5t71 145.5t26 196q0 26 -2.5 50.5t-7.5 47.5zM502 1202
l241 340h271l-346 -340h-166z" />
    <glyph glyph-name="Scommaaccent" unicode="&#x218;" horiz-adv-x="1360" 
d="M358 -555l105 217h-101l45 246h252l-37 -215l-155 -248h-109zM10 371l232 78q24 -69 57 -116.5t80.5 -77t110.5 -43t147 -13.5q60 0 115.5 9.5t98 34.5t68 66.5t25.5 106.5q0 59 -32 100t-84.5 72.5t-119.5 56.5t-137.5 51.5t-137.5 58t-119.5 76t-84.5 105t-32 145.5
q0 118 42.5 205t115.5 145t170 86.5t206 28.5q122 0 211.5 -23.5t155 -66t112 -101t82.5 -128.5l-223 -105q-47 89 -132.5 140t-221.5 51q-59 0 -107.5 -12t-83 -37t-53 -62t-18.5 -88q0 -55 32 -94t84.5 -69t119.5 -55t137.5 -51.5t137.5 -58.5t119.5 -76.5t84.5 -105.5
t32 -145q0 -125 -44.5 -217.5t-122.5 -153t-185.5 -90t-233.5 -29.5q-129 0 -229.5 26t-174.5 77t-123.5 126t-76.5 173z" />
    <glyph glyph-name="scommaaccent" unicode="&#x219;" horiz-adv-x="1051" 
d="M203 -555l105 217h-101l45 246h252l-37 -215l-155 -248h-109zM-45 174l162 139q55 -63 141 -101t199 -40h12q36 0 69 5q38 6 66 21.5t44 41.5t16 67q0 36 -23.5 61t-62.5 43.5t-88.5 34t-101 33t-101 39.5t-88.5 54t-62.5 77.5t-23.5 108.5q0 89 33.5 154.5t89 109
t128 65t150.5 21.5q89 0 162.5 -13.5t131.5 -36t102 -53.5t75 -65l-151 -156q-57 59 -135.5 93t-174.5 34q-80 0 -123 -29.5t-43 -90.5q0 -37 23.5 -62t62.5 -44t88.5 -34t101 -32t101 -38.5t88.5 -53t62.5 -75.5t23.5 -106q0 -73 -19.5 -128.5t-53 -96t-78.5 -67.5
t-96.5 -43.5t-106 -23.5t-106.5 -7q-93 0 -169.5 14.5t-137.5 40.5t-107.5 61.5t-79.5 77.5z" />
    <glyph glyph-name="uni0259" unicode="&#x259;" horiz-adv-x="1137" 
d="M51 319.5q-14 108.5 10 245.5l10 60h727v24q0 80 -23 130t-60 78.5t-82 39t-89 10.5q-55 0 -100 -9t-83.5 -27t-71 -44.5t-62.5 -60.5l-156 131q40 47 90.5 86t113.5 66.5t139.5 43t168.5 15.5q100 0 184.5 -29.5t146 -87.5t96 -145t34.5 -201q0 -131 -29.5 -231.5
t-77.5 -174.5t-110 -124.5t-127 -81t-127.5 -43.5t-112.5 -13q-122 0 -208.5 40.5t-136.5 117t-64 185zM268 436q-6 -57 1.5 -104t32 -80.5t68 -51.5t109.5 -18q48 0 92.5 15.5t82.5 47t68.5 79t49.5 112.5h-504z" />
    <glyph glyph-name="circumflex" unicode="&#x2c6;" horiz-adv-x="1085" 
d="M276 1202l320 340h174l199 -340h-148l-170 172l-229 -172h-146z" />
    <glyph glyph-name="caron" unicode="&#x2c7;" horiz-adv-x="1085" 
d="M336 1548h147l168 -172l232 172h145l-319 -340h-174z" />
    <glyph glyph-name="breve" unicode="&#x2d8;" horiz-adv-x="1014" 
d="M320 1554h140q1 -57 12.5 -94.5t33.5 -59.5t54 -31t74 -9q32 0 64.5 8.5t61.5 30.5t52 59.5t37 95.5h141q-12 -80 -43 -146.5t-78 -114.5t-108.5 -74.5t-134.5 -26.5q-90 0 -151 27.5t-97 75.5t-49.5 114.5t-8.5 144.5z" />
    <glyph glyph-name="dotaccent" unicode="&#x2d9;" horiz-adv-x="1014" 
d="M455 1219l41 227h270l-41 -227h-270z" />
    <glyph glyph-name="ring" unicode="&#x2da;" horiz-adv-x="1096" 
d="M455 1374q0 53 19.5 95.5t52 72t74 45t85.5 15.5t78 -14.5t57.5 -39t36 -58t12.5 -71.5q0 -54 -19.5 -97.5t-52 -73.5t-74 -46t-85.5 -16t-78 15t-57.5 40.5t-36 60t-12.5 72.5zM565 1378q0 -37 21 -62.5t63 -25.5q22 0 42 8t35.5 24t24.5 38t9 51q0 37 -22 62.5
t-64 25.5q-22 0 -41.5 -8.5t-34.5 -24.5t-24 -38t-9 -50z" />
    <glyph glyph-name="ogonek" unicode="&#x2db;" horiz-adv-x="1014" 
d="M147 -238q0 39 17.5 74t47 66t69 59t84.5 55h151q-83 -52 -133.5 -107.5t-50.5 -111.5q0 -29 20 -49t74 -20q42 0 84 9.5t84 26.5l37 -79q-60 -34 -124 -51t-138 -17q-58 0 -100 11t-69 30t-40 45.5t-13 58.5z" />
    <glyph glyph-name="tilde" unicode="&#x2dc;" horiz-adv-x="1044" 
d="M238 1192q8 75 29 129t52.5 88.5t73 51t92.5 16.5q49 0 88.5 -18t73.5 -39.5t63 -39.5t58 -18q42 0 67.5 25.5t36.5 85.5h146q-20 -149 -86 -217t-164 -68q-48 0 -87 18t-72.5 39.5t-63.5 39.5t-60 18q-43 0 -68 -25.5t-34 -85.5h-145z" />
    <glyph glyph-name="hungarumlaut" unicode="&#x2dd;" horiz-adv-x="1051" 
d="M209 1202l254 340h274l-360 -340h-168zM575 1202l265 340h274l-371 -340h-168z" />
    <glyph glyph-name="uni0326" unicode="&#x326;" horiz-adv-x="565" 
d="M-39 -555l105 217h-101l45 246h252l-37 -215l-155 -248h-109z" />
    <glyph glyph-name="tonos" unicode="&#x384;" horiz-adv-x="1024" 
d="M303 1196l193 352h260l-281 -352h-172z" />
    <glyph glyph-name="dieresistonos" unicode="&#x385;" horiz-adv-x="1071" 
d="M63 1196l41 262h215l-40 -262h-216zM324 1196l190 352h262l-282 -352h-170zM731 1196l43 262h215l-41 -262h-217z" />
    <glyph glyph-name="Alphatonos" unicode="&#x386;" horiz-adv-x="1436" 
d="M-53 0l795 1522h252l258 -1522h-252l-60 385h-544l-199 -385h-250zM500 598h410l-95 602h-4zM62 1164l193 352h260l-281 -352h-172z" />
    <glyph glyph-name="Epsilontonos" unicode="&#x388;" horiz-adv-x="1556" 
d="M32 1164l193 352h260l-281 -352h-172zM344 0l266 1516h959l-43 -238h-703l-65 -377h510l-39 -227h-510l-78 -441h741l-41 -233h-997z" />
    <glyph glyph-name="Etatonos" unicode="&#x389;" horiz-adv-x="1829" 
d="M32 1164l193 352h260l-281 -352h-172zM344 0l266 1516h256l-106 -605h667l107 605h256l-266 -1516h-256l118 674h-667l-119 -674h-256z" />
    <glyph glyph-name="Iotatonos" unicode="&#x38a;" horiz-adv-x="940" 
d="M360 0l267 1516h256l-267 -1516h-256zM32 1164l193 352h260l-281 -352h-172z" />
    <glyph glyph-name="Omicrontonos" unicode="&#x38c;" horiz-adv-x="1780" 
d="M32 1164l193 352h260l-281 -352h-172zM318 618q0 151 31.5 278.5t86.5 230.5t130.5 181t164.5 130.5t187 79t199 26.5q128 0 235 -45t184.5 -128.5t120.5 -203t43 -268.5q0 -150 -30.5 -277.5t-84 -230.5t-127.5 -181.5t-161.5 -131.5t-184 -80t-196.5 -27
q-133 0 -243 45.5t-189 129.5t-122.5 203.5t-43.5 268.5zM576 621q0 -99 23 -176.5t68 -131t110.5 -82t150.5 -28.5q98 0 190.5 42.5t164.5 128.5t115.5 216.5t43.5 306.5q0 97 -23 174t-67.5 129.5t-110 80.5t-151.5 28q-96 0 -188.5 -41.5t-164.5 -126t-116.5 -214
t-44.5 -306.5z" />
    <glyph glyph-name="Upsilontonos" unicode="&#x38e;" horiz-adv-x="1733" 
d="M565 1516h260l256 -646l481 646h273l-660 -863l-114 -653h-256l114 653zM32 1164l193 352h260l-281 -352h-172z" />
    <glyph glyph-name="Omegatonos" unicode="&#x38f;" horiz-adv-x="1769" 
d="M225 0l35 225h288q-62 54 -105.5 123t-68 148.5t-29 168t10.5 181.5q22 139 85 265.5t161.5 222.5t230 153t291.5 57q105 0 190 -28t149 -77.5t108 -117t68.5 -147t29 -167t-9.5 -176.5q-33 -197 -140.5 -347t-271.5 -259h287l-37 -225h-512l37 225q72 46 134.5 106.5
t111.5 134t83 159.5t49 184q17 103 7.5 195t-47 161t-103.5 109.5t-162 40.5q-95 0 -175.5 -37t-143.5 -104.5t-106.5 -162.5t-63.5 -210q-59 -356 164 -576l-37 -225h-508zM32 1164l193 352h260l-281 -352h-172z" />
    <glyph glyph-name="iotadieresistonos" unicode="&#x390;" horiz-adv-x="557" 
d="M-81 1196l41 262h215l-40 -262h-216zM180 1196l190 352h262l-282 -352h-170zM587 1196l43 262h215l-41 -262h-217zM19 0l193 1087h252l-193 -1087h-252z" />
    <glyph glyph-name="Alpha" unicode="&#x391;" horiz-adv-x="1407" 
d="M-82 0l795 1522h252l258 -1522h-252l-60 385h-544l-199 -385h-250zM471 598h410l-95 602h-4z" />
    <glyph glyph-name="Beta" unicode="&#x392;" horiz-adv-x="1417" 
d="M39 0l266 1516h488q122 0 219.5 -20.5t166 -62.5t105.5 -106t37 -151q0 -102 -28.5 -171t-76 -114.5t-108.5 -70.5t-125 -38l-2 -4q60 -11 109 -36t84 -64.5t54 -94t19 -124.5q0 -85 -22.5 -152.5t-61.5 -118.5t-92.5 -87t-116.5 -58.5t-131.5 -32.5t-138.5 -10h-645z
M330 221h354q70 0 127.5 12.5t98.5 41t64 75.5t23 117q0 108 -85 156.5t-259 48.5h-243zM446 879h293q72 0 131.5 12t103 39.5t67.5 74t24 115.5q0 45 -18 77.5t-56 53.5t-97.5 31t-143.5 10h-232z" />
    <glyph glyph-name="Gamma" unicode="&#x393;" horiz-adv-x="1167" 
d="M39 0l266 1516h938l-39 -232h-680l-229 -1284h-256z" />
    <glyph glyph-name="Delta" unicode="&#x394;" horiz-adv-x="1401" 
d="M-84 0l801 1522h241l265 -1522h-1307zM258 201h688l-162 962h-2z" />
    <glyph glyph-name="Epsilon" unicode="&#x395;" horiz-adv-x="1251" 
d="M39 0l266 1516h959l-43 -238h-703l-65 -377h510l-39 -227h-510l-78 -441h741l-41 -233h-997z" />
    <glyph glyph-name="Zeta" unicode="&#x396;" horiz-adv-x="1300" 
d="M-61 0l36 199l1004 1083h-760l41 234h1083l-34 -203l-996 -1084h805l-41 -229h-1138z" />
    <glyph glyph-name="Eta" unicode="&#x397;" horiz-adv-x="1524" 
d="M39 0l266 1516h256l-106 -605h667l107 605h256l-266 -1516h-256l118 674h-667l-119 -674h-256z" />
    <glyph glyph-name="Theta" unicode="&#x398;" horiz-adv-x="1544" 
d="M82 618q0 151 31.5 278.5t86.5 230.5t130.5 181t164.5 130.5t187 79t199 26.5q128 0 235 -45t184.5 -128.5t120.5 -203t43 -268.5q0 -150 -30.5 -277.5t-84 -230.5t-127.5 -181.5t-161.5 -131.5t-184 -80t-196.5 -27q-133 0 -243 45.5t-189 129.5t-122.5 203.5
t-43.5 268.5zM340 621q0 -99 23 -176.5t68 -131t110.5 -82t150.5 -28.5q98 0 190.5 42.5t164.5 128.5t115.5 216.5t43.5 306.5q0 97 -23 174t-67.5 129.5t-110 80.5t-151.5 28q-96 0 -188.5 -41.5t-164.5 -126t-116.5 -214t-44.5 -306.5zM518 676l31 182h479l-31 -182h-479z
" />
    <glyph glyph-name="Iota" unicode="&#x399;" horiz-adv-x="635" 
d="M55 0l267 1516h256l-267 -1516h-256z" />
    <glyph glyph-name="Kappa" unicode="&#x39a;" horiz-adv-x="1409" 
d="M39 0l266 1516h256l-123 -693l721 693h281l-611 -586l408 -930h-270l-336 760l-244 -236l-92 -524h-256z" />
    <glyph glyph-name="Lambda" unicode="&#x39b;" horiz-adv-x="1376" 
d="M1190.01 0.0927734h-253.985l-173.989 1181.93h-4l-593.963 -1181.93h-247.985l783.952 1521.91h241.985z" />
    <glyph glyph-name="Mu" unicode="&#x39c;" horiz-adv-x="1808" 
d="M39 0l266 1516h338l184 -1203h4l596 1203h342l-266 -1516h-248l201 1137h-4q-31 -81 -67 -158t-74 -156l-432 -823h-228l-137 823q-6 41 -11.5 76t-10.5 72t-9 79.5t-6 98.5h-4l-203 -1149h-231z" />
    <glyph glyph-name="Nu" unicode="&#x39d;" horiz-adv-x="1542" 
d="M39 0l266 1516h260l506 -1088h4l193 1088h235l-266 -1516h-233l-529 1110h-4l-195 -1110h-237z" />
    <glyph glyph-name="Xi" unicode="&#x39e;" horiz-adv-x="1251" 
d="M-37 0l37 225h406l83 449h-268l35 219h268l74 391h-393l39 232h1028l-39 -232h-393l-72 -391h266l-35 -219h-266l-86 -449h408l-39 -225h-1053z" />
    <glyph glyph-name="Omicron" unicode="&#x39f;" horiz-adv-x="1544" 
d="M82 618q0 151 31.5 278.5t86.5 230.5t130.5 181t164.5 130.5t187 79t199 26.5q128 0 235 -45t184.5 -128.5t120.5 -203t43 -268.5q0 -150 -30.5 -277.5t-84 -230.5t-127.5 -181.5t-161.5 -131.5t-184 -80t-196.5 -27q-133 0 -243 45.5t-189 129.5t-122.5 203.5
t-43.5 268.5zM340 621q0 -99 23 -176.5t68 -131t110.5 -82t150.5 -28.5q98 0 190.5 42.5t164.5 128.5t115.5 216.5t43.5 306.5q0 97 -23 174t-67.5 129.5t-110 80.5t-151.5 28q-96 0 -188.5 -41.5t-164.5 -126t-116.5 -214t-44.5 -306.5z" />
    <glyph glyph-name="Pi" unicode="&#x3a0;" horiz-adv-x="1509" 
d="M39 0l266 1516h1168l-267 -1516h-256l230 1284h-656l-229 -1284h-256z" />
    <glyph glyph-name="Rho" unicode="&#x3a1;" horiz-adv-x="1337" 
d="M39 0l266 1516h449q131 0 237.5 -23t181.5 -71.5t115.5 -123.5t40.5 -180q0 -104 -24.5 -184.5t-67.5 -141t-101.5 -102t-127 -67t-144 -37t-151.5 -11.5h-320l-100 -575h-254zM432 799h305q74 0 135.5 14t105.5 47.5t68.5 89.5t24.5 140q0 50 -18.5 86t-59 59.5
t-103.5 35t-151 11.5h-221z" />
    <glyph glyph-name="Sigma" unicode="&#x3a3;" horiz-adv-x="1217" 
d="M-39 0l31 193l536 593l-315 502l37 228h973l-37 -232h-688l319 -508l-502 -551h705l-37 -225h-1022z" />
    <glyph glyph-name="Tau" unicode="&#x3a4;" horiz-adv-x="1280" 
d="M145 1278l43 238h1170l-43 -238h-457l-223 -1278h-256l223 1278h-457z" />
    <glyph glyph-name="Upsilon" unicode="&#x3a5;" horiz-adv-x="1333" 
d="M166 1516h260l256 -646l481 646h273l-660 -863l-114 -653h-256l114 653z" />
    <glyph glyph-name="Phi" unicode="&#x3a6;" horiz-adv-x="1702" 
d="M112 715q9 148 70.5 266t161 202t229.5 131.5t277 55.5l26 146h242l-27 -152q131 -10 233.5 -48.5t171.5 -105.5t102 -161t24 -215q-10 -144 -69.5 -259t-157.5 -198.5t-229 -133.5t-284 -63l-32 -180h-242l33 182q-127 12 -229 50t-172 104t-104 160.5t-24 218.5z
M362 727q-10 -77 9.5 -135.5t62 -100t105 -65t139.5 -29.5l137 758q-90 -7 -169 -41.5t-139 -91t-98 -132t-47 -163.5zM917 395q86 8 164 41t139.5 87.5t101.5 130t50 167.5q9 78 -10.5 137.5t-62 100t-104.5 63.5t-138 29z" />
    <glyph glyph-name="Chi" unicode="&#x3a7;" horiz-adv-x="1407" 
d="M-72 0l641 819l-317 697h262l236 -517l391 517h270l-565 -728l360 -788h-262l-278 608l-467 -608h-271z" />
    <glyph glyph-name="Psi" unicode="&#x3a8;" horiz-adv-x="1559" 
d="M141 768q-6 86 12 195l99 553h243l-100 -568q-16 -91 -7 -158.5t40 -112.5t82.5 -69t120.5 -28l168 936h243l-168 -938q74 1 135 22.5t107.5 64.5t78.5 108.5t48 154.5l102 588h240l-109 -613q-26 -150 -82.5 -254t-139 -169.5t-188 -96t-229.5 -31.5l-63 -352h-244
l64 354q-70 5 -135 22t-120.5 48.5t-98 79t-68 113t-31.5 151.5z" />
    <glyph glyph-name="Omega" unicode="&#x3a9;" horiz-adv-x="1540" 
d="M-4 0l35 225h288q-62 54 -105.5 123t-68 148.5t-29 168t10.5 181.5q22 139 85 265.5t161.5 222.5t230 153t291.5 57q105 0 190 -28t149 -77.5t108 -117t68.5 -147t29 -167t-9.5 -176.5q-33 -197 -140.5 -347t-271.5 -259h287l-37 -225h-512l37 225q72 46 134.5 106.5
t111.5 134t83 159.5t49 184q17 103 7.5 195t-47 161t-103.5 109.5t-162 40.5q-95 0 -175.5 -37t-143.5 -104.5t-106.5 -162.5t-63.5 -210q-59 -356 164 -576l-37 -225h-508z" />
    <glyph glyph-name="Iotadieresis" unicode="&#x3aa;" horiz-adv-x="635" 
d="M55 0l267 1516h256l-267 -1516h-256zM155 1606l43 248h229l-43 -248h-229zM548 1606l43 248h229l-43 -248h-229z" />
    <glyph glyph-name="Upsilondieresis" unicode="&#x3ab;" horiz-adv-x="1333" 
d="M166 1516h260l256 -646l481 646h273l-660 -863l-114 -653h-256l114 653zM502 1606l43 248h229l-43 -248h-229zM895 1606l43 248h229l-43 -248h-229z" />
    <glyph glyph-name="alphatonos" unicode="&#x3ac;" horiz-adv-x="1231" 
d="M557 1196l193 352h260l-281 -352h-172zM29 412q0 122 21.5 221t58 176.5t86.5 134t107 93t118.5 54t122.5 17.5q65 0 117 -10t93 -27t72 -40t54 -48l18 104h252l-193 -1087h-251l24 137q-57 -72 -138.5 -113.5t-191.5 -41.5q-84 0 -152 28t-116.5 82.5t-75 134.5
t-26.5 185zM283 432q0 -122 56.5 -186t162.5 -64q71 0 135 34t123 97l84 471q-44 50 -102 79.5t-142 29.5q-53 0 -109 -24.5t-102.5 -79.5t-76 -142.5t-29.5 -214.5z" />
    <glyph glyph-name="epsilontonos" unicode="&#x3ad;" horiz-adv-x="1057" 
d="M512 1196l193 352h260l-281 -352h-172zM18 244q0 73 26.5 130t69.5 98.5t97.5 67.5t110.5 38q-78 23 -122 76t-44 134q0 69 29 128t86 102t140.5 67.5t192.5 24.5q124 0 227 -24.5t181 -81.5l-107 -168q-72 46 -149.5 62.5t-151.5 16.5q-111 0 -169 -42.5t-58 -108.5
q0 -32 13 -54t36 -35.5t54.5 -19.5t68.5 -6h199l-27 -162h-221q-53 0 -96.5 -13.5t-74 -37.5t-47 -56t-16.5 -69q0 -28 10 -52.5t34 -42.5t63 -28t98 -10q81 0 171.5 25.5t186.5 79.5l76 -179q-99 -60 -219 -93.5t-262 -33.5q-92 0 -167 15t-128 47t-82 82.5t-29 122.5z" />
    <glyph glyph-name="etatonos" unicode="&#x3ae;" horiz-adv-x="1214" 
d="M579 1196l193 352h260l-281 -352h-172zM8 0l193 1090h252l-31 -175q28 29 69 63t92 63.5t112 49t130 19.5q158 0 229 -84t40 -256l-207 -1182h-252l196 1117q8 40 5.5 73t-18.5 57t-46 37t-78 13q-41 0 -83.5 -13t-82 -32.5t-74 -42.5t-59.5 -43l-135 -754h-252z" />
    <glyph glyph-name="iotatonos" unicode="&#x3af;" horiz-adv-x="557" 
d="M249 1196l193 352h260l-281 -352h-172zM19 0l193 1087h252l-193 -1087h-252z" />
    <glyph glyph-name="upsilondieresistonos" unicode="&#x3b0;" horiz-adv-x="1200" 
d="M235 1196l41 262h215l-40 -262h-216zM496 1196l190 352h262l-282 -352h-170zM903 1196l43 262h215l-41 -262h-217zM68 342q0 31 3.5 62t8.5 63l110 623h252l-110 -621q-5 -26 -7.5 -49t-2.5 -43q0 -94 47.5 -137t144.5 -43q54 0 97.5 14t76 45.5t55 81t35.5 121.5
l111 631h252l-113 -631q-19 -112 -54 -201.5t-96.5 -151.5t-156 -95.5t-232.5 -33.5q-115 0 -195 27.5t-130.5 76.5t-73 116t-22.5 145z" />
    <glyph glyph-name="alpha" unicode="&#x3b1;" horiz-adv-x="1231" 
d="M29 412q0 122 21.5 221t58 176.5t86.5 134t107 93t118.5 54t122.5 17.5q65 0 117 -10t93 -27t72 -40t54 -48l18 104h252l-193 -1087h-251l24 137q-57 -72 -138.5 -113.5t-191.5 -41.5q-84 0 -152 28t-116.5 82.5t-75 134.5t-26.5 185zM283 432q0 -122 56.5 -186
t162.5 -64q71 0 135 34t123 97l84 471q-44 50 -102 79.5t-142 29.5q-53 0 -109 -24.5t-102.5 -79.5t-76 -142.5t-29.5 -214.5z" />
    <glyph glyph-name="beta" unicode="&#x3b2;" horiz-adv-x="1321" 
d="M-66 -412l254 1436q24 136 74.5 229.5t120.5 152t157 84.5t185 26q113 0 199.5 -25t145 -70.5t88.5 -110t30 -143.5t-23.5 -139.5t-64.5 -104t-97 -71.5t-120 -43q70 -15 130 -44.5t104 -75.5t68.5 -108t24.5 -141q0 -120 -40 -206.5t-104.5 -143t-144.5 -83.5t-161 -27
q-86 0 -149 15t-108.5 37t-77 47t-52.5 46l129 145q16 -16 37.5 -33t49 -31t62.5 -23t78 -9q51 0 95.5 17.5t78 50.5t53 81.5t19.5 110.5q0 71 -29 120.5t-80.5 81t-122.5 46t-155 16.5l28 185q94 1 157.5 18.5t102.5 49t55.5 76t16.5 99.5q0 39 -13.5 73t-41 59.5t-69 40
t-97.5 14.5q-57 0 -104 -16.5t-84 -52.5t-62.5 -93.5t-40.5 -138.5l-254 -1424h-248z" />
    <glyph glyph-name="gamma" unicode="&#x3b3;" horiz-adv-x="1059" 
d="M80 1087h256l113 -802h4l399 802h248l-578 -1091l-73 -408h-252l71 408z" />
    <glyph glyph-name="delta" unicode="&#x3b4;" horiz-adv-x="1206" 
d="M33 453q0 123 34 229t98.5 186.5t158.5 129.5t215 57q14 0 32 -2.5t29 -5.5l-293 292l29 177h829l-35 -199h-493l313 -311q80 -79 115 -167t35 -200t-23 -205t-64 -166.5t-97 -128t-122 -90.5t-140 -54t-150 -18q-95 0 -180.5 29.5t-150 89t-102.5 149t-38 208.5z
M285 442q0 -58 14 -108t43 -86.5t73 -57t105 -20.5q71 0 130.5 34.5t103 97t68 148t24.5 187.5q0 43 -6 78.5t-20 65.5t-36 55.5t-53 48.5q-7 3 -16.5 5t-20 3t-20.5 1.5t-17 0.5q-90 0 -159.5 -34t-117 -95t-71.5 -144t-24 -180z" />
    <glyph glyph-name="epsilon" unicode="&#x3b5;" horiz-adv-x="1057" 
d="M18 244q0 73 26.5 130t69.5 98.5t97.5 67.5t110.5 38q-78 23 -122 76t-44 134q0 69 29 128t86 102t140.5 67.5t192.5 24.5q124 0 227 -24.5t181 -81.5l-107 -168q-72 46 -149.5 62.5t-151.5 16.5q-111 0 -169 -42.5t-58 -108.5q0 -32 13 -54t36 -35.5t54.5 -19.5t68.5 -6
h199l-27 -162h-221q-53 0 -96.5 -13.5t-74 -37.5t-47 -56t-16.5 -69q0 -28 10 -52.5t34 -42.5t63 -28t98 -10q81 0 171.5 25.5t186.5 79.5l76 -179q-99 -60 -219 -93.5t-262 -33.5q-92 0 -167 15t-128 47t-82 82.5t-29 122.5z" />
    <glyph glyph-name="zeta" unicode="&#x3b6;" horiz-adv-x="909" 
d="M35 377q0 125 38 239.5t123 227.5t221 229t331 244h-525l35 199h829l-26 -148q-150 -109 -265.5 -201t-201.5 -173t-144 -154t-94 -143t-51.5 -140t-15.5 -145q0 -110 53.5 -170.5t179.5 -75.5q71 -8 120.5 -27t81 -50.5t46 -76.5t14.5 -106q0 -65 -19 -122.5t-59.5 -101
t-104.5 -69t-155 -25.5q-86 0 -153.5 23.5t-114.5 58.5l80 115q43 -32 91.5 -46.5t101.5 -14.5q80 0 117.5 36.5t37.5 104.5q0 25 -8 44.5t-28 33.5t-54.5 23t-87.5 14q-98 7 -171.5 38t-122.5 82t-74 121t-25 156z" />
    <glyph glyph-name="eta" unicode="&#x3b7;" horiz-adv-x="1214" 
d="M8 0l193 1090h252l-31 -175q28 29 69 63t92 63.5t112 49t130 19.5q158 0 229 -84t40 -256l-207 -1182h-252l196 1117q8 40 5.5 73t-18.5 57t-46 37t-78 13q-41 0 -83.5 -13t-82 -32.5t-74 -42.5t-59.5 -43l-135 -754h-252z" />
    <glyph glyph-name="theta" unicode="&#x3b8;" horiz-adv-x="1180" 
d="M79 419.5q-9 144.5 20 332.5q30 189 81.5 333.5t126.5 242.5t174.5 148t225.5 50q115 0 199 -50.5t132.5 -148.5t60.5 -242t-17 -331q-30 -184 -81.5 -328.5t-126.5 -244t-175.5 -152t-228.5 -52.5q-120 0 -204 51t-131 149t-56 242.5zM304.5 458.5q-3.5 -95.5 14.5 -161
t59 -99.5t110 -34q73 0 128 35.5t96.5 102t71 161t50.5 213.5h-506q-20 -122 -23.5 -217.5zM353 854h504q17 112 18 202t-18.5 153.5t-61.5 97.5t-110 34q-72 0 -125 -35t-92 -98.5t-66.5 -153.5t-48.5 -200z" />
    <glyph glyph-name="iota" unicode="&#x3b9;" horiz-adv-x="549" 
d="M20 0l193 1087h252l-193 -1087h-252z" />
    <glyph glyph-name="kappa" unicode="&#x3ba;" horiz-adv-x="1130" 
d="M9 0l191 1087h252l-80 -452l479 452h270l-426 -399l262 -688h-251l-201 522l-182 -166l-62 -356h-252z" />
    <glyph glyph-name="lambda" unicode="&#x3bb;" horiz-adv-x="1098" 
d="M-96 0l602 1102l-19 94q-12 59 -46.5 86t-102.5 27q-65 0 -120 -11.5t-89 -19.5l-18 213q51 14 119.5 25.5t168.5 11.5q75 0 128 -18t90 -53.5t59.5 -87t34.5 -118.5l241 -1251h-247l-134 778l-413 -778h-254z" />
    <glyph glyph-name="mu" unicode="&#x3bc;" horiz-adv-x="1212" 
d="M-76 -412l266 1499h252l-127 -718q-15 -90 18.5 -135.5t127.5 -45.5q71 0 144 38t138 98l136 763h251l-192 -1087h-252l27 154q-28 -32 -67 -64t-87.5 -57t-105 -40.5t-117.5 -15.5q-25 0 -47.5 3t-42.5 6l-68 -398h-254z" />
    <glyph glyph-name="nu" unicode="&#x3bd;" horiz-adv-x="1059" 
d="M80 1087h256l113 -802h4l399 802h248l-578 -1091h-254z" />
    <glyph glyph-name="xi" unicode="&#x3be;" horiz-adv-x="956" 
d="M16 346q0 109 40 194t108 145t157.5 94t188.5 42q-46 11 -85 32.5t-67.5 54t-44.5 76t-16 97.5q0 38 9.5 73.5t29 66t48 55.5t67.5 41h-236l33 199h880l-32 -201h-297q-134 -8 -201.5 -71.5t-67.5 -162.5q0 -92 61 -145t195 -53l-30 -185q-111 -2 -203 -19t-158 -54
t-102.5 -95.5t-36.5 -142.5q0 -47 12 -84t41 -65t78 -46t123 -26q70 -8 120 -27t81.5 -50.5t46 -76.5t14.5 -106q0 -65 -19 -122.5t-59.5 -101t-104.5 -69t-155 -25.5q-87 0 -154.5 23.5t-113.5 58.5l80 115q43 -32 91 -46.5t99 -14.5q82 0 120 36.5t38 104.5q0 25 -8 44.5
t-28 34.5t-54 24.5t-86 15.5q-112 11 -189 40.5t-124 75.5t-68 108t-21 138z" />
    <glyph glyph-name="omicron" unicode="&#x3bf;" horiz-adv-x="1200" 
d="M31 449q0 119 25 214t68.5 168t101.5 125.5t124 86t137 49.5t140 16q96 0 181 -29.5t148.5 -88.5t100.5 -146.5t37 -204.5q0 -118 -25 -212.5t-68 -168.5t-101.5 -127t-124.5 -87t-137 -50.5t-140 -16.5q-96 0 -181 30t-148.5 89.5t-100.5 148t-37 204.5zM285 444
q0 -58 13 -106.5t40.5 -83t72 -53.5t107.5 -19q66 0 124.5 29.5t102.5 87t69.5 142t25.5 194.5q0 58 -13.5 107t-42 83.5t-73.5 54t-107 19.5q-67 0 -125 -30.5t-101 -88.5t-68 -143t-25 -193z" />
    <glyph glyph-name="pi" unicode="&#x3c0;" horiz-adv-x="1350" 
d="M33 889l33 201h1325l-33 -201h-187l-159 -889h-252l160 889h-449l-160 -889h-252l162 889h-188z" />
    <glyph glyph-name="rho" unicode="&#x3c1;" horiz-adv-x="1223" 
d="M-72 -412l174 996q25 134 76 233t124.5 164t167.5 97t204 32q101 0 183.5 -31t141 -90.5t90 -147t31.5 -200.5q0 -139 -36.5 -259.5t-102.5 -210t-158 -140.5t-202 -51q-66 0 -118 11.5t-93.5 31.5t-74 48.5t-59.5 63.5l-96 -547h-252zM303 307q20 -24 44.5 -46t54 -38.5
t65.5 -26.5t78 -10q68 0 126.5 32t101 91.5t67 143t24.5 186.5q0 53 -13.5 97.5t-39.5 77t-66 51t-92 18.5q-120 0 -199 -86.5t-108 -245.5z" />
    <glyph glyph-name="sigma1" unicode="&#x3c2;" horiz-adv-x="1079" 
d="M33 446q0 119 25 214.5t67.5 169t100 127t122 87.5t133.5 50t135 16q108 0 182 -23.5t122.5 -69t76 -112t43.5 -151.5l-225 -41q-10 51 -24.5 88t-38.5 61.5t-58.5 36.5t-85.5 12q-60 0 -117.5 -32t-103.5 -92.5t-74 -149t-28 -201.5q0 -57 11 -103.5t37.5 -80t69 -54
t105.5 -26.5q92 -8 154 -28t99 -52.5t52.5 -78.5t15.5 -107q0 -65 -19 -122.5t-59.5 -101t-104.5 -69t-154 -25.5q-87 0 -154.5 23.5t-114.5 58.5l80 115q42 -32 91 -46.5t100 -14.5q81 0 119 36.5t38 104.5q0 54 -40 81t-138 34q-95 6 -176 35t-139.5 85t-91.5 141.5
t-33 204.5z" />
    <glyph glyph-name="sigma" unicode="&#x3c3;" horiz-adv-x="1225" 
d="M33 453q0 112 23.5 203t65 162t98 122.5t123.5 84.5t141.5 49t150.5 16h579l-32 -201h-187q19 -15 38 -40t34 -58t24 -74.5t9 -89.5q0 -109 -23 -200t-64 -163t-97 -126t-122 -89.5t-140 -53.5t-150 -18q-95 0 -180.5 29.5t-150 89t-102.5 149t-38 208.5zM285 442
q0 -58 14 -108t43 -86.5t73 -57t105 -20.5q71 0 130.5 34.5t103 97t68 148t24.5 187.5q0 54 -12.5 97t-32.5 74t-46 51.5t-53 29.5h-75q-79 0 -142.5 -32.5t-107.5 -91t-68 -141t-24 -182.5z" />
    <glyph glyph-name="tau" unicode="&#x3c4;" horiz-adv-x="981" 
d="M55 889l33 201h905l-32 -201h-330l-160 -889h-252l160 889h-324z" />
    <glyph glyph-name="upsilon" unicode="&#x3c5;" horiz-adv-x="1200" 
d="M68 342q0 31 3.5 62t8.5 63l110 623h252l-110 -621q-5 -26 -7.5 -49t-2.5 -43q0 -94 47.5 -137t144.5 -43q54 0 97.5 14t76 45.5t55 81t35.5 121.5l111 631h252l-113 -631q-19 -112 -54 -201.5t-96.5 -151.5t-156 -95.5t-232.5 -33.5q-115 0 -195 27.5t-130.5 76.5
t-73 116t-22.5 145z" />
    <glyph glyph-name="phi" unicode="&#x3c6;" horiz-adv-x="1485" 
d="M33 453q0 114 24.5 207t68.5 165.5t105 126t134.5 88.5t156.5 52t172 18l70 406h225l-74 -410q92 -7 176 -38t147.5 -88t101.5 -141.5t38 -199.5q0 -114 -24.5 -207t-68.5 -166t-105.5 -127.5t-135 -90t-156.5 -53t-171 -18.5l-68 -389h-223l68 394q-93 7 -176.5 38.5
t-147 89t-100.5 143t-37 200.5zM285 446q0 -59 17 -106t48.5 -81.5t76 -56t99.5 -28.5l136 735q-84 -3 -153.5 -37t-119 -94.5t-77 -144.5t-27.5 -187zM750 170q83 3 152 37.5t119 95t77.5 145.5t27.5 189q0 60 -17.5 107t-49.5 81t-76 54t-98 26z" />
    <glyph glyph-name="chi" unicode="&#x3c7;" horiz-adv-x="1071" 
d="M-94 0l465 569l-244 518h262l160 -339l268 339h258l-434 -532l262 -555h-262l-178 377l-297 -377h-260z" />
    <glyph glyph-name="psi" unicode="&#x3c8;" horiz-adv-x="1569" 
d="M63 367q0 56 9 118l108 605h250l-106 -613q-5 -20 -7 -39.5t-2 -36.5q0 -97 58 -149t184 -55q6 31 18 97.5t28 155t34.5 193.5t37.5 213t37.5 213t34.5 194t28 155.5t18 97.5h249l-235 -1319q80 1 138.5 18.5t99 52t65.5 85t37 118.5l108 619h250q-4 -18 -12.5 -66
t-19.5 -110.5t-23 -132t-22.5 -132t-19 -110.5t-11.5 -66q-23 -125 -64.5 -216.5t-114.5 -152t-181.5 -91t-264.5 -31.5q-2 -10 -7 -40.5t-12 -70.5t-14.5 -85t-14.5 -85.5t-12 -71t-7 -41.5h-250l67 394q-120 2 -207 30t-143 78.5t-82.5 120.5t-26.5 156z" />
    <glyph glyph-name="omega" unicode="&#x3c9;" horiz-adv-x="1602" 
d="M37 369q0 103 26 209t73.5 202t113 176.5t143.5 133.5h283q-89 -51 -160.5 -128.5t-121.5 -171t-77.5 -197t-27.5 -206.5q0 -192 153 -192q71 0 121 49t70 159l61 336h224l-66 -360q-2 -13 -3 -25t-1 -26q0 -36 10.5 -61t28.5 -41t42.5 -23.5t53.5 -7.5q62 0 110 30
t80.5 85.5t49 134.5t16.5 176q0 154 -52 272.5t-138 196.5h270q75 -78 122.5 -196.5t47.5 -277.5q0 -129 -31 -245t-91 -203.5t-148.5 -139t-204.5 -51.5q-70 0 -122.5 17t-89.5 44.5t-59 64t-32 75.5q-21 -41 -50 -77.5t-69 -64t-92 -43.5t-119 -16q-93 0 -158.5 29
t-106.5 81.5t-60 124t-19 157.5z" />
    <glyph glyph-name="iotadieresis" unicode="&#x3ca;" horiz-adv-x="557" 
d="M44 1196l43 248h229l-43 -248h-229zM437 1196l43 248h229l-43 -248h-229zM19 0l193 1087h252l-193 -1087h-252z" />
    <glyph glyph-name="upsilondieresis" unicode="&#x3cb;" horiz-adv-x="1200" 
d="M352 1196l43 248h229l-43 -248h-229zM745 1196l43 248h229l-43 -248h-229zM68 342q0 31 3.5 62t8.5 63l110 623h252l-110 -621q-5 -26 -7.5 -49t-2.5 -43q0 -94 47.5 -137t144.5 -43q54 0 97.5 14t76 45.5t55 81t35.5 121.5l111 631h252l-113 -631q-19 -112 -54 -201.5
t-96.5 -151.5t-156 -95.5t-232.5 -33.5q-115 0 -195 27.5t-130.5 76.5t-73 116t-22.5 145z" />
    <glyph glyph-name="omicrontonos" unicode="&#x3cc;" horiz-adv-x="1206" 
d="M536 1196l193 352h260l-281 -352h-172zM31 449q0 119 25 214t68.5 168t101.5 125.5t124 86t137 49.5t140 16q96 0 181 -29.5t148.5 -88.5t100.5 -146.5t37 -204.5q0 -118 -25 -212.5t-68 -168.5t-101.5 -127t-124.5 -87t-137 -50.5t-140 -16.5q-96 0 -181 30t-148.5 89.5
t-100.5 148t-37 204.5zM285 444q0 -58 13 -106.5t40.5 -83t72 -53.5t107.5 -19q66 0 124.5 29.5t102.5 87t69.5 142t25.5 194.5q0 58 -13.5 107t-42 83.5t-73.5 54t-107 19.5q-67 0 -125 -30.5t-101 -88.5t-68 -143t-25 -193z" />
    <glyph glyph-name="upsilontonos" unicode="&#x3cd;" horiz-adv-x="1200" 
d="M571 1196l193 352h260l-281 -352h-172zM68 342q0 31 3.5 62t8.5 63l110 623h252l-110 -621q-5 -26 -7.5 -49t-2.5 -43q0 -94 47.5 -137t144.5 -43q54 0 97.5 14t76 45.5t55 81t35.5 121.5l111 631h252l-113 -631q-19 -112 -54 -201.5t-96.5 -151.5t-156 -95.5
t-232.5 -33.5q-115 0 -195 27.5t-130.5 76.5t-73 116t-22.5 145z" />
    <glyph glyph-name="omegatonos" unicode="&#x3ce;" horiz-adv-x="1608" 
d="M801 1196l193 352h260l-281 -352h-172zM51 369q0 103 26 209t73.5 202t113 176.5t143.5 133.5h283q-89 -51 -160.5 -128.5t-121.5 -171t-77.5 -197t-27.5 -206.5q0 -192 153 -192q71 0 121 49t70 159l61 336h224l-66 -360q-2 -13 -3 -25t-1 -26q0 -36 10.5 -61t28.5 -41
t42.5 -23.5t53.5 -7.5q62 0 110 30t80.5 85.5t49 134.5t16.5 176q0 154 -52 272.5t-138 196.5h270q75 -78 122.5 -196.5t47.5 -277.5q0 -129 -31 -245t-91 -203.5t-148.5 -139t-204.5 -51.5q-70 0 -122.5 17t-89.5 44.5t-59 64t-32 75.5q-21 -41 -50 -77.5t-69 -64
t-92 -43.5t-119 -16q-93 0 -158.5 29t-106.5 81.5t-60 124t-19 157.5z" />
    <glyph glyph-name="afii10023" unicode="&#x401;" horiz-adv-x="1251" 
d="M471 1606l43 248h229l-43 -248h-229zM864 1606l43 248h229l-43 -248h-229zM39 0l266 1516h959l-43 -238h-703l-65 -377h510l-39 -227h-510l-78 -441h741l-41 -233h-997z" />
    <glyph glyph-name="afii10051" unicode="&#x402;" horiz-adv-x="1698" 
d="M152 1284l36 232h1178l-39 -232h-459l-80 -430q98 100 206.5 145t211.5 45q85 0 155.5 -29t120.5 -84t77.5 -135t27.5 -182q0 -134 -44 -246.5t-128.5 -194t-206.5 -127.5t-278 -46l33 193q87 0 155 28t114.5 78t70.5 118.5t24 149.5q0 56 -15 102t-45 79t-74.5 51
t-102.5 18q-87 0 -168.5 -32t-159.5 -91l-123 -694h-256l229 1284h-460z" />
    <glyph glyph-name="afii10052" unicode="&#x403;" horiz-adv-x="1163" 
d="M637 1601l241 340h271l-346 -340h-166zM39 0l266 1516h938l-39 -232h-680l-229 -1284h-256z" />
    <glyph glyph-name="afii10053" unicode="&#x404;" horiz-adv-x="1454" 
d="M84 608q0 213 58.5 386t161 295t241 188.5t299.5 66.5q144 0 241 -36t159 -97t94.5 -140t47.5 -165l-251 -49q-10 52 -29 99t-53.5 82t-87.5 56t-131 21q-86 0 -161 -33t-134.5 -91t-102 -138t-63.5 -174h504l-35 -220h-498q-3 -11 -3.5 -23t-0.5 -26q0 -90 21 -166.5
t63 -131.5t105.5 -86t148.5 -31q75 0 133.5 22.5t105.5 62t84 93t68 116.5l215 -106q-43 -85 -98.5 -160t-130 -131t-169.5 -88.5t-218 -32.5q-135 0 -243.5 43.5t-184 126t-116 200.5t-40.5 267z" />
    <glyph glyph-name="afii10054" unicode="&#x405;" horiz-adv-x="1360" 
d="M10 371l232 78q24 -69 57 -116.5t80.5 -77t110.5 -43t147 -13.5q60 0 115.5 9.5t98 34.5t68 66.5t25.5 106.5q0 59 -32 100t-84.5 72.5t-119.5 56.5t-137.5 51.5t-137.5 58t-119.5 76t-84.5 105t-32 145.5q0 118 42.5 205t115.5 145t170 86.5t206 28.5q122 0 211.5 -23.5
t155 -66t112 -101t82.5 -128.5l-223 -105q-47 89 -132.5 140t-221.5 51q-59 0 -107.5 -12t-83 -37t-53 -62t-18.5 -88q0 -55 32 -94t84.5 -69t119.5 -55t137.5 -51.5t137.5 -58.5t119.5 -76.5t84.5 -105.5t32 -145q0 -125 -44.5 -217.5t-122.5 -153t-185.5 -90t-233.5 -29.5
q-129 0 -229.5 26t-174.5 77t-123.5 126t-76.5 173z" />
    <glyph glyph-name="afii10055" unicode="&#x406;" horiz-adv-x="635" 
d="M55 0l267 1516h256l-267 -1516h-256z" />
    <glyph glyph-name="afii10056" unicode="&#x407;" horiz-adv-x="635" 
d="M55 0l267 1516h256l-267 -1516h-256zM155 1606l43 248h229l-43 -248h-229zM548 1606l43 248h229l-43 -248h-229z" />
    <glyph glyph-name="afii10057" unicode="&#x408;" horiz-adv-x="1055" 
d="M-74 164l166 168q31 -32 61 -56t60.5 -41t64 -25.5t72.5 -8.5q48 0 87 9t69.5 35.5t52.5 73.5t35 123l188 1074h256l-194 -1115q-19 -107 -56.5 -187.5t-95.5 -134.5t-138 -81t-185 -27q-79 0 -143 14.5t-117 40t-97.5 61t-85.5 77.5z" />
    <glyph glyph-name="afii10058" unicode="&#x409;" horiz-adv-x="2302" 
d="M-109 0l35 219q64 0 111 11.5t79.5 35.5t52 61.5t28.5 88.5l196 1100h1133l-107 -578h195q127 0 232 -22.5t180 -72t116 -128.5t41 -191q0 -101 -23.5 -179.5t-65.5 -136.5t-101 -98t-130 -64.5t-151.5 -35t-165.5 -10.5h-542l229 1284h-623l-157 -866q-19 -104 -60 -182
t-109 -130.5t-165 -79t-228 -26.5zM1290 213h273q177 0 270.5 69.5t93.5 206.5q0 48 -17 89t-54.5 70.5t-97 46t-144.5 16.5h-232z" />
    <glyph glyph-name="afii10059" unicode="&#x40a;" horiz-adv-x="2269" 
d="M39 0l266 1516h256l-110 -629h673l113 629h254l-105 -578h197q127 0 231.5 -22.5t179 -72t115.5 -128.5t41 -191q0 -152 -51.5 -253t-138.5 -161t-202 -85t-242 -25h-545l116 655h-673l-119 -655h-256zM1260 213h270q177 0 271.5 69.5t94.5 206.5q0 48 -17 89t-54.5 70.5
t-97.5 46t-146 16.5h-231z" />
    <glyph glyph-name="afii10060" unicode="&#x40b;" horiz-adv-x="1593" 
d="M145 1284l37 232h1178l-39 -232h-459l-82 -432q29 28 70 62.5t92.5 63.5t113 49t130.5 20q159 0 229 -84.5t39 -255.5l-125 -707h-252l115 639q7 40 5 73.5t-17.5 57.5t-46 37.5t-78.5 13.5q-41 0 -83.5 -13.5t-82.5 -33.5t-74.5 -43t-58.5 -43l-123 -688h-256l229 1284
h-461z" />
    <glyph glyph-name="afii10061" unicode="&#x40c;" horiz-adv-x="1409" 
d="M760 1601l241 340h271l-346 -340h-166zM39 0l266 1516h256l-123 -693l721 693h281l-611 -586l408 -930h-270l-336 760l-244 -236l-92 -524h-256z" />
    <glyph glyph-name="afii10062" unicode="&#x40e;" horiz-adv-x="1417" 
d="M-33 72l152 190q15 -12 32 -23.5t36.5 -20.5t43.5 -15t54 -6q43 0 76.5 12t62 34.5t54 55t52.5 72.5l37 53l-370 1092h260l219 -703l45 -149l90 147l453 705h264q-21 -28 -61 -89t-92.5 -143t-114 -178.5t-125 -196.5t-125 -196.5t-114 -178.5t-92.5 -143.5t-61 -89.5
q-55 -87 -108 -148.5t-111 -101t-123.5 -58t-146.5 -18.5q-58 0 -100.5 7.5t-76 20.5t-59.5 31t-51 38zM566 1962h140q1 -57 12.5 -94.5t33.5 -59.5t54 -31t74 -9q32 0 64.5 8.5t61.5 30.5t52 59.5t37 95.5h141q-12 -80 -43 -146.5t-78 -114.5t-108.5 -74.5t-134.5 -26.5
q-90 0 -151 27.5t-97 75.5t-49.5 114.5t-8.5 144.5z" />
    <glyph glyph-name="afii10145" unicode="&#x40f;" horiz-adv-x="1524" 
d="M39 0l266 1516h256l-229 -1285h669l230 1285h256l-268 -1516h-461l-66 -377h-252l66 377h-467z" />
    <glyph glyph-name="afii10017" unicode="&#x410;" horiz-adv-x="1407" 
d="M-82 0l795 1522h252l258 -1522h-252l-60 385h-544l-199 -385h-250zM471 598h410l-95 602h-4z" />
    <glyph glyph-name="afii10018" unicode="&#x411;" horiz-adv-x="1337" 
d="M39 0l266 1516h932l-39 -232h-678l-71 -373h196q128 0 233.5 -22t180.5 -70t116.5 -124.5t41.5 -184.5q0 -98 -23.5 -174t-65.5 -133t-100 -95.5t-128.5 -62.5t-150.5 -34.5t-165 -10.5h-545zM328 213h270q176 0 270.5 66.5t94.5 197.5q0 45 -17.5 83.5t-55.5 66.5
t-98.5 43.5t-146.5 15.5h-231z" />
    <glyph glyph-name="afii10019" unicode="&#x412;" horiz-adv-x="1417" 
d="M39 0l266 1516h488q122 0 219.5 -20.5t166 -62.5t105.5 -106t37 -151q0 -102 -28.5 -171t-76 -114.5t-108.5 -70.5t-125 -38l-2 -4q60 -11 109 -36t84 -64.5t54 -94t19 -124.5q0 -85 -22.5 -152.5t-61.5 -118.5t-92.5 -87t-116.5 -58.5t-131.5 -32.5t-138.5 -10h-645z
M330 221h354q70 0 127.5 12.5t98.5 41t64 75.5t23 117q0 108 -85 156.5t-259 48.5h-243zM446 879h293q72 0 131.5 12t103 39.5t67.5 74t24 115.5q0 45 -18 77.5t-56 53.5t-97.5 31t-143.5 10h-232z" />
    <glyph glyph-name="afii10020" unicode="&#x413;" horiz-adv-x="1163" 
d="M39 0l266 1516h938l-39 -232h-680l-229 -1284h-256z" />
    <glyph glyph-name="afii10021" unicode="&#x414;" horiz-adv-x="1647" 
d="M-170 -377l100 608h62q52 1 88.5 13t63.5 40.5t47.5 75.5t41.5 117l285 1039h1032l-229 -1285h180l-102 -608h-252l63 377h-1065l-63 -377h-252zM358 231h707l192 1053h-550l-234 -844q-12 -38 -23.5 -71t-24.5 -59.5t-29 -46.5t-38 -32z" />
    <glyph glyph-name="afii10022" unicode="&#x415;" horiz-adv-x="1251" 
d="M39 0l266 1516h959l-43 -238h-703l-65 -377h510l-39 -227h-510l-78 -441h741l-41 -233h-997z" />
    <glyph glyph-name="afii10024" unicode="&#x416;" horiz-adv-x="2216" 
d="M-102 0l751 942l-405 574h280l480 -668l120 668h250l-123 -668l729 668h273l-613 -588l408 -928h-270l-334 739l-244 -217l-92 -522h-252l94 526l-166 209l-596 -735h-290z" />
    <glyph glyph-name="afii10025" unicode="&#x417;" horiz-adv-x="1233" 
d="M-70 285l209 114q31 -57 70 -95t85.5 -61.5t100 -33.5t113.5 -10q69 0 126.5 13.5t99 45t64.5 84.5t23 131q0 58 -20 99t-63.5 67t-111.5 38.5t-163 12.5h-57l32 213h66q122 0 201 17.5t124.5 49.5t63.5 78t18 103q0 40 -13 70t-43 50.5t-78.5 31t-119.5 10.5
q-37 0 -78 -5t-84 -18t-87.5 -35.5t-88.5 -56.5l-133 168q97 85 226.5 131.5t277.5 46.5q129 0 220.5 -27t150 -74t86 -111t27.5 -138q0 -86 -23.5 -153t-67.5 -116t-107 -81t-142 -47q67 -13 115 -44t78 -75t44 -99.5t14 -117.5q0 -125 -47 -217.5t-125.5 -153t-182 -90
t-216.5 -29.5q-224 0 -367 83t-217 231z" />
    <glyph glyph-name="afii10026" unicode="&#x418;" horiz-adv-x="1546" 
d="M39 0l268 1516h236l-193 -1059l905 1059h254l-268 -1516h-235l192 1061l-922 -1061h-237z" />
    <glyph glyph-name="afii10027" unicode="&#x419;" horiz-adv-x="1546" 
d="M39 0l268 1516h236l-193 -1059l905 1059h254l-268 -1516h-235l192 1061l-922 -1061h-237zM639 1962h140q1 -57 12.5 -94.5t33.5 -59.5t54 -31t74 -9q32 0 64.5 8.5t61.5 30.5t52 59.5t37 95.5h141q-12 -80 -43 -146.5t-78 -114.5t-108.5 -74.5t-134.5 -26.5
q-90 0 -151 27.5t-97 75.5t-49.5 114.5t-8.5 144.5z" />
    <glyph glyph-name="afii10028" unicode="&#x41a;" horiz-adv-x="1409" 
d="M39 0l266 1516h256l-123 -693l721 693h281l-611 -586l408 -930h-270l-336 760l-244 -236l-92 -524h-256z" />
    <glyph glyph-name="afii10029" unicode="&#x41b;" horiz-adv-x="1565" 
d="M-109 0l35 219q64 0 111 11.5t79.5 35.5t52 61.5t28.5 88.5l196 1100h1135l-268 -1516h-256l229 1284h-623l-157 -866q-19 -104 -60 -182t-109 -130.5t-165 -79t-228 -26.5z" />
    <glyph glyph-name="afii10030" unicode="&#x41c;" horiz-adv-x="1808" 
d="M39 0l266 1516h338l184 -1203h4l596 1203h342l-266 -1516h-248l201 1137h-4q-31 -81 -67 -158t-74 -156l-432 -823h-228l-137 823q-6 41 -11.5 76t-10.5 72t-9 79.5t-6 98.5h-4l-203 -1149h-231z" />
    <glyph glyph-name="afii10031" unicode="&#x41d;" horiz-adv-x="1524" 
d="M39 0l266 1516h256l-106 -605h667l107 605h256l-266 -1516h-256l118 674h-667l-119 -674h-256z" />
    <glyph glyph-name="afii10032" unicode="&#x41e;" horiz-adv-x="1544" 
d="M82 618q0 151 31.5 278.5t86.5 230.5t130.5 181t164.5 130.5t187 79t199 26.5q128 0 235 -45t184.5 -128.5t120.5 -203t43 -268.5q0 -150 -30.5 -277.5t-84 -230.5t-127.5 -181.5t-161.5 -131.5t-184 -80t-196.5 -27q-133 0 -243 45.5t-189 129.5t-122.5 203.5
t-43.5 268.5zM340 621q0 -99 23 -176.5t68 -131t110.5 -82t150.5 -28.5q98 0 190.5 42.5t164.5 128.5t115.5 216.5t43.5 306.5q0 97 -23 174t-67.5 129.5t-110 80.5t-151.5 28q-96 0 -188.5 -41.5t-164.5 -126t-116.5 -214t-44.5 -306.5z" />
    <glyph glyph-name="afii10033" unicode="&#x41f;" horiz-adv-x="1524" 
d="M39 0l268 1516h1180l-268 -1516h-254l229 1284h-670l-229 -1284h-256z" />
    <glyph glyph-name="afii10034" unicode="&#x420;" horiz-adv-x="1337" 
d="M39 0l266 1516h449q131 0 237.5 -23t181.5 -71.5t115.5 -123.5t40.5 -180q0 -104 -24.5 -184.5t-67.5 -141t-101.5 -102t-127 -67t-144 -37t-151.5 -11.5h-320l-100 -575h-254zM432 799h305q74 0 135.5 14t105.5 47.5t68.5 89.5t24.5 140q0 50 -18.5 86t-59 59.5
t-103.5 35t-151 11.5h-221z" />
    <glyph glyph-name="afii10035" unicode="&#x421;" horiz-adv-x="1448" 
d="M82 602q0 143 27 269t76.5 230.5t118.5 186.5t153 139t180.5 87t200.5 30q149 0 250.5 -38.5t165.5 -106.5t95 -160.5t40 -200.5l-254 -20q-6 70 -24 124.5t-54 91.5t-93 56t-141 19q-105 0 -193.5 -51t-153 -143.5t-100.5 -222t-36 -286.5q0 -192 85.5 -297.5
t252.5 -105.5q70 0 128.5 17t108 55t91.5 100.5t79 152.5l226 -82q-47 -113 -108 -201.5t-140 -149t-177.5 -92.5t-219.5 -32q-137 0 -245.5 44t-183.5 125.5t-115 198.5t-40 263z" />
    <glyph glyph-name="afii10036" unicode="&#x422;" horiz-adv-x="1280" 
d="M145 1278l43 238h1170l-43 -238h-457l-223 -1278h-256l223 1278h-457z" />
    <glyph glyph-name="afii10037" unicode="&#x423;" horiz-adv-x="1417" 
d="M-33 72l152 190q15 -12 32 -23.5t36.5 -20.5t43.5 -15t54 -6q43 0 76.5 12t62 34.5t54 55t52.5 72.5l37 53l-370 1092h260l219 -703l45 -149l90 147l453 705h264q-21 -28 -61 -89t-92.5 -143t-114 -178.5t-125 -196.5t-125 -196.5t-114 -178.5t-92.5 -143.5t-61 -89.5
q-55 -87 -108 -148.5t-111 -101t-123.5 -58t-146.5 -18.5q-58 0 -100.5 7.5t-76 20.5t-59.5 31t-51 38z" />
    <glyph glyph-name="afii10038" unicode="&#x424;" horiz-adv-x="1702" 
d="M112 715q9 148 70.5 266t161 202t229.5 131.5t277 55.5l26 146h242l-27 -152q131 -10 233.5 -48.5t171.5 -105.5t102 -161t24 -215q-10 -144 -69.5 -259t-157.5 -198.5t-229 -133.5t-284 -63l-32 -180h-242l33 182q-127 12 -229 50t-172 104t-104 160.5t-24 218.5z
M362 727q-10 -77 9.5 -135.5t62 -100t105 -65t139.5 -29.5l137 758q-90 -7 -169 -41.5t-139 -91t-98 -132t-47 -163.5zM917 395q86 8 164 41t139.5 87.5t101.5 130t50 167.5q9 78 -10.5 137.5t-62 100t-104.5 63.5t-138 29z" />
    <glyph glyph-name="afii10039" unicode="&#x425;" horiz-adv-x="1407" 
d="M-72 0l641 819l-317 697h262l236 -517l391 517h270l-565 -728l360 -788h-262l-278 608l-467 -608h-271z" />
    <glyph glyph-name="afii10040" unicode="&#x426;" horiz-adv-x="1585" 
d="M39 0l268 1516h256l-231 -1285h669l230 1285h256l-230 -1285h181l-103 -608h-252l66 377h-1110z" />
    <glyph glyph-name="afii10041" unicode="&#x427;" horiz-adv-x="1401" 
d="M181.5 797q-14.5 90 8.5 223l86 496h254l-84 -469q-13 -75 -9 -128t29 -86t72 -48t121 -15q44 0 89.5 6t90 17t86.5 27t78 36l117 660h256l-266 -1516h-256l114 639q-34 -18 -79 -34t-98 -28t-112 -19t-120 -7q-108 0 -187.5 23.5t-127.5 78t-62.5 144.5z" />
    <glyph glyph-name="afii10042" unicode="&#x428;" horiz-adv-x="2118" 
d="M39 0l266 1516h256l-229 -1285h504l229 1285h256l-227 -1285h501l230 1285h256l-269 -1516h-1773z" />
    <glyph glyph-name="afii10043" unicode="&#x429;" horiz-adv-x="2177" 
d="M39 0l266 1516h256l-229 -1285h504l229 1285h256l-227 -1285h501l230 1285h256l-230 -1285h181l-103 -608h-252l66 377h-1704z" />
    <glyph glyph-name="afii10044" unicode="&#x42a;" horiz-adv-x="1581" 
d="M119 1284l37 232h647l-107 -578h197q127 0 232 -22.5t180 -72t116 -128.5t41 -191q0 -101 -23.5 -179.5t-65.5 -136.5t-101 -98t-130 -64.5t-151.5 -35t-165.5 -10.5h-542l229 1284h-393zM569 213h273q177 0 270.5 69.5t93.5 206.5q0 48 -17 89t-54.5 70.5t-97 46
t-144.5 16.5h-231z" />
    <glyph glyph-name="afii10045" unicode="&#x42b;" horiz-adv-x="1855" 
d="M1298 0l267 1516h256l-267 -1516h-256zM39 0l266 1516h256l-106 -578h196q127 0 231.5 -22.5t179.5 -72t116 -128.5t41 -191q0 -101 -23.5 -179.5t-65.5 -136.5t-101 -98t-129.5 -64.5t-150.5 -35t-165 -10.5h-545zM328 213h270q178 0 272.5 69.5t94.5 206.5q0 48 -17 89
t-54.5 70.5t-98 46t-146.5 16.5h-231z" />
    <glyph glyph-name="afii10046" unicode="&#x42c;" horiz-adv-x="1337" 
d="M39 0l266 1516h256l-106 -578h196q127 0 231.5 -22.5t179.5 -72t116 -128.5t41 -191q0 -101 -23.5 -179.5t-65.5 -136.5t-101 -98t-129.5 -64.5t-150.5 -35t-165 -10.5h-545zM328 213h270q178 0 272.5 69.5t94.5 206.5q0 48 -17 89t-54.5 70.5t-98 46t-146.5 16.5h-231z
" />
    <glyph glyph-name="afii10047" unicode="&#x42d;" horiz-adv-x="1454" 
d="M72 410l243 47q12 -52 32.5 -98.5t56 -81.5t89.5 -55.5t132 -20.5q86 0 162 33t136.5 93t104 144.5t64.5 187.5h-510l34 220h500q2 12 2 20v21q-1 84 -21.5 157t-62.5 127t-105.5 85.5t-148.5 31.5q-74 0 -133.5 -22t-107.5 -60.5t-86.5 -91.5t-71.5 -115l-209 103
q43 84 99 158.5t130.5 130t170.5 88t219 32.5q135 0 243 -43.5t183.5 -125.5t116 -200.5t40.5 -267.5q0 -213 -58.5 -385.5t-161 -295t-242 -189t-300.5 -66.5q-143 0 -239.5 36t-158 97t-94.5 140.5t-48 165.5z" />
    <glyph glyph-name="afii10048" unicode="&#x42e;" horiz-adv-x="2144" 
d="M39 0l266 1516h256l-106 -609h250q37 152 111.5 270.5t176 200t222.5 124t251 42.5q129 0 238 -45t188.5 -129.5t124.5 -206t45 -274.5q0 -143 -28.5 -266.5t-80 -225.5t-123.5 -181.5t-158 -133.5t-184 -82.5t-202 -28.5q-134 0 -246.5 44t-193.5 126.5t-127 202
t-47 270.5q0 16 1 31t3 31h-260l-121 -676h-256zM928 631q0 -95 23.5 -175t70 -138t114.5 -90.5t158 -32.5q108 0 201.5 50.5t162 141.5t107.5 217.5t39 278.5q0 95 -23 174.5t-68.5 136.5t-113 89t-155.5 32q-107 0 -201 -48t-164 -136.5t-110.5 -215.5t-40.5 -284z" />
    <glyph glyph-name="afii10049" unicode="&#x42f;" horiz-adv-x="1405" 
d="M-12 0l487 645q-136 38 -205 127t-69 229q0 135 46.5 232.5t130.5 160.5t201.5 92.5t260.5 29.5h538l-268 -1516h-250l111 606h-256l-449 -606h-278zM455 1028q0 -102 75.5 -155.5t233.5 -53.5h240l86 469h-261q-183 0 -278.5 -64.5t-95.5 -195.5z" />
    <glyph glyph-name="afii10065" unicode="&#x430;" horiz-adv-x="1147" 
d="M-18 246q0 98 45 178.5t140.5 140t243 97t351.5 49.5l6 30q5 24 5 44q1 49 -29 77q-42 39 -148 39q-45 0 -92 -7.5t-93.5 -22t-90.5 -34.5t-82 -44l-97 163q39 29 92.5 56.5t118.5 48.5t139.5 34t155.5 13q120 0 197.5 -30.5t119.5 -85.5q40 -54 50 -130q4 -28 4 -60
q0 -51 -10 -108l-76 -428q-8 -45 -13.5 -79t-7.5 -64t-1.5 -59.5t5.5 -63.5h-253q-3 21 -4.5 37t-2 31.5t1 32.5t5.5 38q-92 -84 -189.5 -120.5t-191.5 -36.5q-69 0 -124.5 19t-94.5 53.5t-59.5 83.5t-20.5 108zM238 297q0 -54 38.5 -87.5t112.5 -33.5q84 0 158 35t143 92
l41 238q-141 -12 -235.5 -33t-151.5 -51.5t-81.5 -70.5t-24.5 -89z" />
    <glyph glyph-name="afii10066" unicode="&#x431;" horiz-adv-x="1204" 
d="M33 453q0 45 5 92.5t19 109.5q32 177 88 329.5t148 266t226 180.5t323 72q54 2 126.5 5.5t161.5 23.5l-38 -246q-59 -15 -127 -19.5t-146 -9.5q-103 -2 -181 -34.5t-135 -85.5t-94.5 -123t-58.5 -148q36 40 80 69t90.5 48t94 28t90.5 9q87 0 159 -28t124 -81t81 -130
t29 -175q0 -137 -44 -252t-123 -199t-188.5 -131t-240.5 -47q-104 0 -190 32.5t-148 94t-96.5 150t-34.5 199.5zM285 434q0 -61 16 -109.5t46.5 -83t74 -53t98.5 -18.5q71 0 130.5 31t102.5 86t67 130.5t24 164.5q0 120 -59 187t-171 67q-67 0 -126.5 -27.5t-104.5 -79
t-71.5 -126.5t-26.5 -169z" />
    <glyph glyph-name="afii10067" unicode="&#x432;" horiz-adv-x="1120" 
d="M23 0l192 1090h401q209 0 310.5 -59.5t101.5 -182.5q0 -126 -73.5 -196t-202.5 -89v-2q50 -10 91 -27t70.5 -44t45.5 -65.5t16 -90.5q0 -88 -34 -151t-92.5 -103.5t-135.5 -60t-164 -19.5h-526zM289 182h223q108 0 166.5 42t58.5 120q0 34 -15.5 56.5t-44 36.5t-70 20
t-93.5 6h-174zM371 643h198q48 0 88 7.5t68 24t43.5 43.5t15.5 66q0 63 -55.5 92t-159.5 29h-149z" />
    <glyph glyph-name="afii10068" unicode="&#x433;" horiz-adv-x="963" 
d="M8 0l193 1090h772l-33 -201h-520l-160 -889h-252z" />
    <glyph glyph-name="afii10069" unicode="&#x434;" horiz-adv-x="1317" 
d="M-162 -412l105 613q57 1 94.5 11.5t62.5 30.5t40 49.5t26 67.5l190 730h844l-160 -889h121l-104 -613h-236l72 412h-746l-71 -412h-238zM291 186h495l129 703h-358l-145 -545q-35 -123 -121 -158z" />
    <glyph glyph-name="afii10070" unicode="&#x435;" horiz-adv-x="1135" 
d="M31 440q0 131 29.5 231.5t77.5 175t110 124.5t127 80.5t127 43.5t112 13q122 0 209 -40.5t137 -116.5t64 -185q5 -40 5 -84q0 -75 -15 -162l-10 -59h-728v-25q0 -80 23.5 -130t60 -78.5t81.5 -39t89 -10.5q55 0 100.5 9t84 27t71 44t62.5 61l156 -131q-40 -47 -90.5 -86
t-113.5 -66.5t-139.5 -43t-168.5 -15.5q-100 0 -184.5 29.5t-146 87.5t-96 145t-34.5 201zM303 649h504q3 26 3 49q0 30 -4 56q-8 47 -32.5 80t-68 51t-109.5 18q-48 0 -92.5 -15.5t-82.5 -47t-68.5 -79.5t-49.5 -112z" />
    <glyph glyph-name="afii10072" unicode="&#x436;" horiz-adv-x="1753" 
d="M-98 0l524 700l-270 390h252l329 -447l84 447h244l-82 -447l496 447h260l-428 -410l264 -680h-252l-205 502l-184 -156l-60 -346h-245l63 346q-11 13 -32.5 40t-44.5 54q-26 32 -56 68l-393 -508h-264z" />
    <glyph glyph-name="afii10073" unicode="&#x437;" horiz-adv-x="1036" 
d="M-8 211l166 125q16 -32 38.5 -62.5t55 -54t75.5 -37.5t101 -14q52 0 94.5 13t73 37t47 57.5t16.5 74.5q0 66 -53 102.5t-176 36.5h-80l27 150h76q127 0 195.5 37.5t68.5 122.5q0 51 -38 82.5t-126 31.5q-46 0 -84.5 -8.5t-71 -24t-60.5 -37t-54 -46.5l-103 137
q31 32 73.5 63.5t94 56.5t112 40.5t128.5 15.5q91 0 158.5 -19.5t111.5 -55t66 -84t22 -105.5q0 -62 -17.5 -110t-50 -83.5t-78 -58.5t-100.5 -33q49 -10 84 -33t57 -54.5t32 -69t10 -74.5q0 -78 -33.5 -143t-94.5 -111.5t-147 -72.5t-190 -26q-97 0 -166.5 20t-119.5 53
t-83 75t-57 86z" />
    <glyph glyph-name="afii10074" unicode="&#x438;" horiz-adv-x="1284" 
d="M8 0l193 1090h237l-133 -719q23 21 57.5 58.5t77 85.5t90 103t96.5 111.5t96.5 111.5t90 103t77 86t56.5 60h262l-192 -1090h-240l133 717q-31 -30 -83 -86.5t-114 -126.5t-129 -146.5t-129 -146t-113.5 -125.5t-82.5 -86h-250z" />
    <glyph glyph-name="afii10075" unicode="&#x439;" horiz-adv-x="1284" 
d="M8 0l193 1090h237l-133 -719q23 21 57.5 58.5t77 85.5t90 103t96.5 111.5t96.5 111.5t90 103t77 86t56.5 60h262l-192 -1090h-240l133 717q-31 -30 -83 -86.5t-114 -126.5t-129 -146.5t-129 -146t-113.5 -125.5t-82.5 -86h-250zM431 1554h140q1 -57 12.5 -94.5
t33.5 -59.5t54 -31t74 -9q32 0 64.5 8.5t61.5 30.5t52 59.5t37 95.5h141q-12 -80 -43 -146.5t-78 -114.5t-108.5 -74.5t-134.5 -26.5q-90 0 -151 27.5t-97 75.5t-49.5 114.5t-8.5 144.5z" />
    <glyph glyph-name="afii10076" unicode="&#x43a;" horiz-adv-x="1130" 
d="M9 0l191 1087h252l-80 -452l479 452h270l-426 -399l262 -688h-251l-201 522l-182 -166l-62 -356h-252z" />
    <glyph glyph-name="afii10077" unicode="&#x43b;" horiz-adv-x="1288" 
d="M-88 2l29 188q57 0 94.5 6t61.5 22t37 44.5t22 73.5l133 754h923l-192 -1090h-252l160 889h-420l-100 -545q-13 -80 -37.5 -136t-58 -94t-76 -60t-93 -33.5t-109 -15t-122.5 -3.5z" />
    <glyph glyph-name="afii10078" unicode="&#x43c;" horiz-adv-x="1489" 
d="M8 0l193 1090h307l149 -809h5l434 809h311l-193 -1090h-221l140 772h-3q-5 -17 -20 -46t-32 -60.5t-33 -61t-23 -47.5l-317 -557h-199l-113 555q-2 19 -7.5 50.5t-12 64.5t-11.5 63t-6 45h-2l-141 -778h-205z" />
    <glyph glyph-name="afii10079" unicode="&#x43d;" horiz-adv-x="1233" 
d="M8 0l193 1090h252l-78 -428h454l76 428h252l-192 -1090h-252l82 449h-455l-80 -449h-252z" />
    <glyph glyph-name="afii10080" unicode="&#x43e;" horiz-adv-x="1200" 
d="M31 449q0 119 25 214t68.5 168t101.5 125.5t124 86t137 49.5t140 16q96 0 181 -29.5t148.5 -88.5t100.5 -146.5t37 -204.5q0 -118 -25 -212.5t-68 -168.5t-101.5 -127t-124.5 -87t-137 -50.5t-140 -16.5q-96 0 -181 30t-148.5 89.5t-100.5 148t-37 204.5zM285 444
q0 -58 13 -106.5t40.5 -83t72 -53.5t107.5 -19q66 0 124.5 29.5t102.5 87t69.5 142t25.5 194.5q0 58 -13.5 107t-42 83.5t-73.5 54t-107 19.5q-67 0 -125 -30.5t-101 -88.5t-68 -143t-25 -193z" />
    <glyph glyph-name="afii10081" unicode="&#x43f;" horiz-adv-x="1227" 
d="M8 0l193 1090h950l-193 -1090h-251l157 889h-444l-160 -889h-252z" />
    <glyph glyph-name="afii10082" unicode="&#x440;" horiz-adv-x="1231" 
d="M-66 -412l267 1499h252l-27 -143q25 34 60.5 63.5t78 52t91 35.5t100.5 13q86 0 154.5 -29t116.5 -84t73.5 -135t25.5 -182q0 -168 -42.5 -298t-113.5 -218.5t-164 -134t-194 -45.5q-112 0 -193.5 31t-139.5 96l-91 -521h-254zM309 291q25 -26 51 -46t55 -34t63 -21.5
t75 -7.5q55 0 111.5 26t102 81.5t74.5 142t29 207.5q0 124 -57.5 189t-159.5 65q-35 0 -70.5 -10t-69.5 -27.5t-64.5 -41.5t-53.5 -52z" />
    <glyph glyph-name="afii10083" unicode="&#x441;" horiz-adv-x="1096" 
d="M31 446q0 123 25.5 220t69.5 170.5t101.5 125t122 84t131.5 47.5t129 15q109 0 184 -24.5t124.5 -69.5t78 -107.5t43.5 -138.5l-225 -41q-12 51 -29 84t-42.5 52.5t-61 27.5t-84.5 8q-62 0 -119 -28t-100 -85.5t-68.5 -144t-25.5 -203.5q0 -125 51.5 -190.5t163.5 -65.5
q41 0 76 8t66.5 29t60.5 58t59 96l196 -82q-29 -62 -68.5 -119t-95 -100.5t-131 -69t-176.5 -25.5q-98 0 -181 30t-144.5 89.5t-96 147t-34.5 202.5z" />
    <glyph glyph-name="afii10084" unicode="&#x442;" horiz-adv-x="1055" 
d="M70 889l32 201h971l-33 -201h-360l-160 -889h-252l162 889h-360z" />
    <glyph glyph-name="afii10085" unicode="&#x443;" horiz-adv-x="1100" 
d="M-176 -375l84 205q13 -6 34 -13t44.5 -13.5t48 -10.5t45.5 -4q60 0 98.5 29.5t67.5 85.5l49 90l-211 1093h260l129 -792h4l410 792h252l-693 -1251q-35 -65 -71.5 -113t-78.5 -80.5t-92.5 -48.5t-113.5 -16q-91 0 -158.5 15t-107.5 32z" />
    <glyph glyph-name="afii10086" unicode="&#x444;" horiz-adv-x="1913" 
d="M29 412q0 169 40 299.5t108.5 219t158.5 134t190 45.5q121 0 202.5 -40.5t137.5 -113.5l99 560h254l-107 -592q29 34 67.5 67.5t83.5 60t95 42.5t104 16q81 0 145.5 -30t109 -85.5t68 -136t23.5 -180.5q0 -153 -36.5 -281t-102 -221t-157 -144.5t-201.5 -51.5
q-64 0 -115 11.5t-92 31.5t-73 48.5t-58 63.5l-96 -547h-252q10 52 21.5 114t22.5 125t21 122.5t17.5 105.5t12 74t5.5 29q-32 -37 -69 -69t-80 -56t-93 -37.5t-108 -13.5q-70 0 -133 25t-110 77.5t-75 133.5t-28 194zM285 432q0 -55 13 -100t38.5 -77t63 -49.5t87.5 -17.5
q37 0 74.5 11t72 28.5t65 39.5t53.5 44l82 455q-20 24 -43 46t-51.5 38t-63.5 25.5t-78 9.5q-65 0 -121.5 -29.5t-99.5 -87t-67.5 -142t-24.5 -194.5zM1001 305q19 -24 43 -46t53 -38t63.5 -25.5t76.5 -9.5q67 0 125 32t100 91.5t66 143t24 186.5q0 54 -13 99t-38.5 77.5
t-63 50t-85.5 17.5q-37 0 -75 -11t-73.5 -29t-66.5 -40.5t-54 -44.5z" />
    <glyph glyph-name="afii10087" unicode="&#x445;" horiz-adv-x="1071" 
d="M-94 0l465 569l-244 518h262l160 -339l268 339h258l-434 -532l262 -555h-262l-178 377l-297 -377h-260z" />
    <glyph glyph-name="afii10088" unicode="&#x446;" horiz-adv-x="1268" 
d="M8 0l193 1090h252l-160 -889h446l158 889h254l-160 -889h121l-104 -613h-236l72 412h-836z" />
    <glyph glyph-name="afii10089" unicode="&#x447;" horiz-adv-x="1202" 
d="M127 633l80 457h252l-70 -392q-8 -40 -5.5 -73t18.5 -57t46.5 -37t78.5 -13q40 0 82.5 13t82.5 32.5t74.5 42.5t59.5 43l79 441h252l-194 -1090h-252l88 487q-29 -29 -69.5 -63t-91.5 -63t-112 -48.5t-130 -19.5q-158 0 -229 83.5t-40 256.5z" />
    <glyph glyph-name="afii10090" unicode="&#x448;" horiz-adv-x="1901" 
d="M8 0l193 1090h252l-162 -889h436l160 889h252l-162 -889h436l160 889h252l-193 -1090h-1624z" />
    <glyph glyph-name="afii10091" unicode="&#x449;" horiz-adv-x="1939" 
d="M8 0l191 1090h252l-160 -889h436l158 889h252l-160 -889h436l158 889h252l-158 -889h121l-105 -613h-235l72 412h-1510z" />
    <glyph glyph-name="afii10092" unicode="&#x44a;" 
d="M72 889l32 201h570l-66 -351h152q91 0 173.5 -15.5t144 -52.5t98 -97.5t36.5 -151.5q0 -88 -22.5 -154t-61.5 -113t-91.5 -77t-111.5 -47.5t-122.5 -24t-124.5 -6.5h-447l160 889h-319zM512 186h184q142 0 209.5 54t67.5 151q0 82 -61 121t-179 39h-155z" />
    <glyph glyph-name="afii10093" unicode="&#x44b;" horiz-adv-x="1573" 
d="M1052 0l193 1087h252l-193 -1087h-252zM10 0l192 1090h250l-64 -351h150q91 0 173.5 -15.5t144.5 -52.5t98.5 -97.5t36.5 -151.5q0 -88 -22.5 -154t-62 -113t-91.5 -77t-111.5 -47.5t-123 -24t-124.5 -6.5h-446zM290 186h184q142 0 209.5 54t67.5 151q0 82 -61 121
t-179 39h-155z" />
    <glyph glyph-name="afii10094" unicode="&#x44c;" horiz-adv-x="1122" 
d="M23 0l192 1090h250l-64 -351h150q91 0 173.5 -15.5t144.5 -52.5t98.5 -97.5t36.5 -151.5q0 -88 -22.5 -154t-62 -113t-91.5 -77t-111.5 -47.5t-123 -24t-124.5 -6.5h-446zM303 186h184q142 0 209.5 54t67.5 151q0 82 -61 121t-179 39h-155z" />
    <glyph glyph-name="afii10095" unicode="&#x44d;" horiz-adv-x="1102" 
d="M-2 272l209 66q11 -40 27.5 -71t42 -52t60 -32t81.5 -11q52 0 101.5 20t91 58t72 92.5t44.5 124.5h-338l23 162h336q2 9 1 12.5t-1 11.5q0 55 -14.5 104t-42.5 85t-69 57t-94 21q-77 0 -139 -38t-119 -130l-172 118q36 54 78 98t94.5 75.5t118 49t148.5 17.5
q97 0 180.5 -30t145 -88.5t97 -146t35.5 -202.5q0 -169 -49.5 -294t-130.5 -207.5t-185 -123.5t-212 -41q-97 0 -167.5 20t-120.5 58.5t-82 93t-50 123.5z" />
    <glyph glyph-name="afii10096" unicode="&#x44e;" horiz-adv-x="1702" 
d="M8 0l193 1090h252l-78 -428h176q29 115 88 199.5t136.5 139.5t168.5 82t184 27q95 0 180 -28.5t148.5 -87t101 -147t37.5 -208.5q0 -168 -50 -292.5t-133 -206.5t-190.5 -122.5t-222.5 -40.5q-91 0 -173 27.5t-145.5 81.5t-103.5 135t-47 189v20q0 9 2 19h-192l-80 -449
h-252zM782 442q0 -58 14 -108t43 -86.5t73 -57t104 -20.5q71 0 131 34.5t103.5 97t68 148t24.5 187.5q0 59 -14 109.5t-42.5 87t-72 57t-102.5 20.5q-70 0 -130 -34t-104.5 -95.5t-70 -148t-25.5 -191.5z" />
    <glyph glyph-name="afii10097" unicode="&#x44f;" horiz-adv-x="1161" 
d="M-27 0l320 412q-93 31 -141 98t-48 166q0 86 22.5 150t61.5 110t92.5 76t115.5 47t130 24t136 7h423l-192 -1090h-250l68 367h-156q-9 0 -18 1t-17 1l-282 -369h-265zM350 711q0 -35 11.5 -63.5t38.5 -48.5t71 -31t109 -11h163l62 346h-191q-76 0 -126.5 -16.5t-81 -43.5
t-43.5 -61.5t-13 -70.5z" />
    <glyph glyph-name="afii10071" unicode="&#x451;" horiz-adv-x="1135" 
d="M332 1196l43 248h229l-43 -248h-229zM725 1196l43 248h229l-43 -248h-229zM31 440q0 131 29.5 231.5t77.5 175t110 124.5t127 80.5t127 43.5t112 13q122 0 209 -40.5t137 -116.5t64 -185q5 -40 5 -84q0 -75 -15 -162l-10 -59h-728v-25q0 -80 23.5 -130t60 -78.5t81.5 -39
t89 -10.5q55 0 100.5 9t84 27t71 44t62.5 61l156 -131q-40 -47 -90.5 -86t-113.5 -66.5t-139.5 -43t-168.5 -15.5q-100 0 -184.5 29.5t-146 87.5t-96 145t-34.5 201zM303 649h504q3 26 3 49q0 30 -4 56q-8 47 -32.5 80t-68 51t-109.5 18q-48 0 -92.5 -15.5t-82.5 -47
t-68.5 -79.5t-49.5 -112z" />
    <glyph glyph-name="afii10099" unicode="&#x452;" horiz-adv-x="1214" 
d="M8 0l207 1178h-143l28 174h144l30 164h252l-28 -164h194l-28 -174h-195l-47 -263q28 29 69 63t92 63.5t112 49t130 19.5q158 0 229 -84t40 -256l-166 -936q-10 -55 -30.5 -101.5t-55 -80t-84 -52t-117.5 -18.5q-62 0 -116.5 5t-86.5 12l31 184q19 -5 43.5 -7.5t50.5 -2.5
q25 0 45 5t35 19.5t25.5 39.5t17.5 65l145 803q8 40 5.5 73t-18.5 57t-46 37t-78 13q-41 0 -83.5 -13t-82 -32.5t-74 -42.5t-59.5 -43l-135 -754h-252z" />
    <glyph glyph-name="afii10100" unicode="&#x453;" horiz-adv-x="963" 
d="M443 1202l241 340h271l-346 -340h-166zM8 0l193 1090h772l-33 -201h-520l-160 -889h-252z" />
    <glyph glyph-name="afii10101" unicode="&#x454;" horiz-adv-x="1102" 
d="M33 446q0 119 25 214.5t67.5 169t100 127t122 87.5t133.5 50t135 16q98 0 167.5 -20t118 -58.5t78.5 -93t48 -123.5l-209 -63q-11 39 -26 70t-38.5 52t-57 32.5t-81.5 11.5q-52 0 -102 -19.5t-92 -56.5t-74 -91t-47 -122h338l-25 -162h-333q-2 -8 -2 -16v-17
q0 -55 13 -103.5t39 -84.5t65.5 -57t92.5 -21q77 0 143.5 38t123.5 130l172 -117q-35 -54 -78.5 -99t-97.5 -76.5t-121 -49t-150 -17.5q-97 0 -179 30t-142 89t-93.5 146.5t-33.5 203.5z" />
    <glyph glyph-name="afii10102" unicode="&#x455;" horiz-adv-x="1051" 
d="M-45 174l162 139q55 -63 141 -101t199 -40h12q36 0 69 5q38 6 66 21.5t44 41.5t16 67q0 36 -23.5 61t-62.5 43.5t-88.5 34t-101 33t-101 39.5t-88.5 54t-62.5 77.5t-23.5 108.5q0 89 33.5 154.5t89 109t128 65t150.5 21.5q89 0 162.5 -13.5t131.5 -36t102 -53.5t75 -65
l-151 -156q-57 59 -135.5 93t-174.5 34q-80 0 -123 -29.5t-43 -90.5q0 -37 23.5 -62t62.5 -44t88.5 -34t101 -32t101 -38.5t88.5 -53t62.5 -75.5t23.5 -106q0 -73 -19.5 -128.5t-53 -96t-78.5 -67.5t-96.5 -43.5t-106 -23.5t-106.5 -7q-93 0 -169.5 14.5t-137.5 40.5
t-107.5 61.5t-79.5 77.5z" />
    <glyph glyph-name="afii10103" unicode="&#x456;" horiz-adv-x="557" 
d="M18 0l193 1087h252l-193 -1087h-252zM242 1278l39 217h256l-39 -217h-256z" />
    <glyph glyph-name="afii10104" unicode="&#x457;" horiz-adv-x="557" 
d="M46 1196l43 248h229l-43 -248h-229zM439 1196l43 248h229l-43 -248h-229zM20 0l193 1087h252l-193 -1087h-252z" />
    <glyph glyph-name="afii10105" unicode="&#x458;" horiz-adv-x="557" 
d="M-242 -403l31 176q17 -3 44.5 -6t53.5 -3q51 0 76 27.5t37 99.5l213 1196h252l-221 -1255q-11 -56 -31 -101.5t-54 -78t-84.5 -50.5t-121.5 -18q-65 0 -115.5 4t-79.5 9zM244 1278l37 217h256l-37 -217h-256z" />
    <glyph glyph-name="afii10106" unicode="&#x459;" horiz-adv-x="1868" 
d="M-88 2l29 188q57 0 94.5 6t61.5 22t37 44.5t22 73.5l133 754h919l-61 -351h149q91 0 173.5 -15.5t144.5 -52.5t98.5 -97.5t36.5 -151.5q0 -88 -22.5 -154t-62 -113t-91.5 -77t-111.5 -47.5t-123 -24t-124.5 -6.5h-446l160 889h-420l-100 -545q-13 -80 -37.5 -136t-58 -94
t-76 -60t-93 -33.5t-109 -15t-122.5 -3.5zM1049 186h184q142 0 209 54t67 151q0 82 -61 121t-178 39h-156z" />
    <glyph glyph-name="afii10107" unicode="&#x45a;" horiz-adv-x="1812" 
d="M8 0l193 1090h252l-76 -424h452l76 424h250l-65 -351h151q91 0 173.5 -15.5t144.5 -52.5t98.5 -97.5t36.5 -151.5q0 -88 -22.5 -154t-62 -113t-91.5 -77t-111.5 -47.5t-123 -24t-124.5 -6.5h-446l82 453h-453l-82 -453h-252zM993 186h185q142 0 209 54t67 151
q0 82 -61 121t-179 39h-155z" />
    <glyph glyph-name="afii10108" unicode="&#x45b;" horiz-adv-x="1214" 
d="M8 0l212 1198h-148l30 168h147l27 150h252l-26 -150h192l-28 -168h-194l-46 -264q28 32 67.5 63.5t88 56t105 39.5t118.5 15q165 0 237 -89t43 -251l-135 -768h-252l125 713q17 89 -16 134.5t-129 45.5q-35 0 -71.5 -10t-73.5 -27.5t-72.5 -42.5t-67.5 -55l-133 -758
h-252z" />
    <glyph glyph-name="afii10109" unicode="&#x45c;" horiz-adv-x="1130" 
d="M566 1202l241 340h271l-346 -340h-166zM9 0l191 1087h252l-80 -452l479 452h270l-426 -399l262 -688h-251l-201 522l-182 -166l-62 -356h-252z" />
    <glyph glyph-name="afii10110" unicode="&#x45e;" horiz-adv-x="1100" 
d="M-176 -375l84 205q13 -6 34 -13t44.5 -13.5t48 -10.5t45.5 -4q60 0 98.5 29.5t67.5 85.5l49 90l-211 1093h260l129 -792h4l410 792h252l-693 -1251q-35 -65 -71.5 -113t-78.5 -80.5t-92.5 -48.5t-113.5 -16q-91 0 -158.5 15t-107.5 32zM338 1554h140q1 -57 12.5 -94.5
t33.5 -59.5t54 -31t74 -9q32 0 64.5 8.5t61.5 30.5t52 59.5t37 95.5h141q-12 -80 -43 -146.5t-78 -114.5t-108.5 -74.5t-134.5 -26.5q-90 0 -151 27.5t-97 75.5t-49.5 114.5t-8.5 144.5z" />
    <glyph glyph-name="afii10193" unicode="&#x45f;" horiz-adv-x="1225" 
d="M8 0l193 1090h252l-160 -889h446l158 889h252l-191 -1090h-348l-71 -412h-250l71 412h-352z" />
    <glyph glyph-name="afii10050" unicode="&#x490;" horiz-adv-x="1163" 
d="M39 0l266 1516h676l45 256h250l-82 -488h-670l-229 -1284h-256z" />
    <glyph glyph-name="afii10098" unicode="&#x491;" horiz-adv-x="963" 
d="M8 0l193 1090h520l59 333h252l-92 -534h-520l-160 -889h-252z" />
    <glyph glyph-name="Wgrave" unicode="&#x1e80;" horiz-adv-x="1913" 
d="M193 1516h256l45 -785q5 -91 10 -176.5t8 -175.5h4q34 90 68 174.5t71 175.5l320 787h246l51 -791q3 -48 5.5 -90.5t4.5 -83.5t3.5 -82.5t2.5 -89.5h4q19 50 35 91t31.5 80.5t32 80t36.5 88.5l320 797h240l-656 -1516h-223l-70 1161h-4l-489 -1161h-226zM739 1950h271
l160 -340h-166z" />
    <glyph glyph-name="wgrave" unicode="&#x1e81;" horiz-adv-x="1544" 
d="M86 1087h252l33 -450q5 -85 10 -167.5t8 -178.5h4q22 54 40.5 98t35 84.5t34 80.5t38.5 87l194 446h205l39 -454q4 -45 7.5 -85t6.5 -79.5t5.5 -82.5t5.5 -95h4q21 52 38.5 94.5t33.5 81.5l34 78q16 39 35 84l199 458h229l-506 -1087h-233l-66 758h-4l-330 -758h-231z
M493 1542h271l160 -340h-166z" />
    <glyph glyph-name="Wacute" unicode="&#x1e82;" horiz-adv-x="1913" 
d="M1026 1610l241 340h271l-346 -340h-166zM193 1516h256l45 -785q5 -91 10 -176.5t8 -175.5h4q34 90 68 174.5t71 175.5l320 787h246l51 -791q3 -48 5.5 -90.5t4.5 -83.5t3.5 -82.5t2.5 -89.5h4q19 50 35 91t31.5 80.5t32 80t36.5 88.5l320 797h240l-656 -1516h-223
l-70 1161h-4l-489 -1161h-226z" />
    <glyph glyph-name="wacute" unicode="&#x1e83;" horiz-adv-x="1544" 
d="M762 1202l241 340h271l-346 -340h-166zM86 1087h252l33 -450q5 -85 10 -167.5t8 -178.5h4q22 54 40.5 98t35 84.5t34 80.5t38.5 87l194 446h205l39 -454q4 -45 7.5 -85t6.5 -79.5t5.5 -82.5t5.5 -95h4q21 52 38.5 94.5t33.5 81.5l34 78q16 39 35 84l199 458h229
l-506 -1087h-233l-66 758h-4l-330 -758h-231z" />
    <glyph glyph-name="Wdieresis" unicode="&#x1e84;" horiz-adv-x="1913" 
d="M791 1604l43 248h229l-43 -248h-229zM1184 1604l43 248h229l-43 -248h-229zM193 1516h256l45 -785q5 -91 10 -176.5t8 -175.5h4q34 90 68 174.5t71 175.5l320 787h246l51 -791q3 -48 5.5 -90.5t4.5 -83.5t3.5 -82.5t2.5 -89.5h4q19 50 35 91t31.5 80.5t32 80t36.5 88.5
l320 797h240l-656 -1516h-223l-70 1161h-4l-489 -1161h-226z" />
    <glyph glyph-name="wdieresis" unicode="&#x1e85;" horiz-adv-x="1544" 
d="M537 1196l43 248h229l-43 -248h-229zM930 1196l43 248h229l-43 -248h-229zM86 1087h252l33 -450q5 -85 10 -167.5t8 -178.5h4q22 54 40.5 98t35 84.5t34 80.5t38.5 87l194 446h205l39 -454q4 -45 7.5 -85t6.5 -79.5t5.5 -82.5t5.5 -95h4q21 52 38.5 94.5t33.5 81.5l34 78
q16 39 35 84l199 458h229l-506 -1087h-233l-66 758h-4l-330 -758h-231z" />
    <glyph glyph-name="Ygrave" unicode="&#x1ef2;" horiz-adv-x="1333" 
d="M166 1516h260l256 -646l481 646h273l-660 -863l-114 -653h-256l114 653zM477 1950h271l160 -340h-166z" />
    <glyph glyph-name="ygrave" unicode="&#x1ef3;" horiz-adv-x="1100" 
d="M-176 -375l84 205q13 -6 34 -13t44.5 -13.5t48 -10.5t45.5 -4q60 0 98.5 29.5t67.5 85.5l49 90l-211 1093h260l129 -792h4l410 792h252l-693 -1251q-35 -65 -71.5 -113t-78.5 -80.5t-92.5 -48.5t-113.5 -16q-91 0 -158.5 15t-107.5 32zM290 1542h271l160 -340h-166z" />
    <glyph glyph-name="uni2002" unicode="&#x2002;" horiz-adv-x="1024" 
 />
    <glyph glyph-name="uni2003" unicode="&#x2003;" horiz-adv-x="2048" 
 />
    <glyph glyph-name="uni2007" unicode="&#x2007;" horiz-adv-x="666" 
 />
    <glyph glyph-name="uni2009" unicode="&#x2009;" horiz-adv-x="410" 
 />
    <glyph glyph-name="figuredash" unicode="&#x2012;" 
d="M74 532l37 216h1106l-37 -216h-1106z" />
    <glyph glyph-name="endash" unicode="&#x2013;" horiz-adv-x="1352" 
d="M84 532l37 216h1106l-37 -216h-1106z" />
    <glyph glyph-name="emdash" unicode="&#x2014;" horiz-adv-x="1905" 
d="M84 530l37 218h1659l-37 -218h-1659z" />
    <glyph glyph-name="afii00208" unicode="&#x2015;" horiz-adv-x="2048" 
d="M-37 530l37 218h2048l-37 -218h-2048z" />
    <glyph glyph-name="quoteleft" unicode="&#x2018;" horiz-adv-x="565" 
d="M195 1020l43 244l174 252h116l-110 -230h94l-47 -266h-270z" />
    <glyph glyph-name="quoteright" unicode="&#x2019;" horiz-adv-x="565" 
d="M217 1020l113 229h-94l45 267h270l-41 -244l-176 -252h-117z" />
    <glyph glyph-name="quotesinglbase" unicode="&#x201a;" horiz-adv-x="565" 
d="M-2 -229l111 229h-95l47 266h271l-43 -243l-174 -252h-117z" />
    <glyph glyph-name="quotedblleft" unicode="&#x201c;" horiz-adv-x="999" 
d="M195 1020l43 244l174 252h116l-110 -230h94l-47 -266h-270zM627 1020l43 244l176 252h117l-113 -230h94l-47 -266h-270z" />
    <glyph glyph-name="quotedblright" unicode="&#x201d;" horiz-adv-x="999" 
d="M217 1020l113 229h-94l45 267h270l-41 -244l-176 -252h-117zM649 1020l113 229h-94l47 267h270l-43 -244l-176 -252h-117z" />
    <glyph glyph-name="quotedblbase" unicode="&#x201e;" horiz-adv-x="999" 
d="M-2 -229l111 229h-95l47 266h271l-43 -243l-174 -252h-117zM430 -229l113 229h-94l47 266h270l-43 -243l-176 -252h-117z" />
    <glyph glyph-name="dagger" unicode="&#x2020;" horiz-adv-x="1194" 
d="M82 772l41 234l422 -31l53 541h266l-135 -541l432 31l-41 -234l-422 29l-172 -1211h-266l254 1211z" />
    <glyph glyph-name="daggerdbl" unicode="&#x2021;" horiz-adv-x="1194" 
d="M-23 8l39 223l392 -28l28 352l96 348l-403 -29l41 224l391 -31l37 449h270l-123 -449l402 31l-41 -224l-389 29l-31 -348l-94 -352l401 28l-39 -223l-391 31l-37 -449h-266l119 449z" />
    <glyph glyph-name="bullet" unicode="&#x2022;" horiz-adv-x="948" 
d="M182 717q0 57 20 105.5t55 84t83 55t104 19.5q58 0 106.5 -19.5t83.5 -55t55 -84t20 -105.5q0 -56 -20 -104t-55 -83t-83.5 -55t-106.5 -20q-56 0 -104 20t-83 55t-55 83t-20 104z" />
    <glyph glyph-name="ellipsis" unicode="&#x2026;" horiz-adv-x="1696" 
d="M10 0l47 266h281l-47 -266h-281zM575 0l48 266h280l-47 -266h-281zM1141 0l47 266h280l-47 -266h-280z" />
    <glyph glyph-name="perthousand" unicode="&#x2030;" horiz-adv-x="3002" 
d="M145 956q0 142 38 251t100.5 183t142.5 112t164 38q85 0 148 -28t104 -78.5t61.5 -120t20.5 -152.5q0 -137 -37 -244.5t-98.5 -181.5t-141.5 -113.5t-166 -39.5q-85 0 -148 28t-105 77.5t-62.5 118.5t-20.5 150zM356 936q0 -42 8 -76t24 -58.5t41 -38t60 -13.5
q34 0 64.5 18.5t55 50t44 74t33 91t20.5 100.5t7 102q0 40 -7.5 74t-23 58.5t-41 38t-61.5 13.5q-52 0 -93.5 -40t-70.5 -102.5t-44.5 -139.5t-15.5 -152zM369 0l1161 1516h225l-1161 -1516h-225zM1202 354q0 142 37.5 251t100 183t142.5 112t165 38q84 0 146.5 -28
t103.5 -78t61 -119t20 -152q0 -137 -36.5 -245t-98 -182.5t-141 -114t-166.5 -39.5q-85 0 -148 28t-104 77.5t-61.5 118.5t-20.5 150zM1413 334q0 -41 7.5 -75.5t23.5 -59t41.5 -38.5t60.5 -14q51 0 92 40.5t69.5 103.5t44 140.5t15.5 152.5q0 41 -7 75t-23 58t-40.5 37.5
t-60.5 13.5q-52 0 -93.5 -40t-70 -103t-44 -140t-15.5 -151zM2081 354q0 142 37.5 251t100 183t142.5 112t164 38t146.5 -28t104 -78t61.5 -119t20 -152q0 -137 -36.5 -245t-98 -182.5t-141 -114t-166.5 -39.5q-86 0 -148.5 28t-104 77.5t-61.5 118.5t-20 150zM2292 334
q0 -41 7.5 -75.5t23.5 -59t41.5 -38.5t60.5 -14q51 0 92 40.5t69.5 103.5t44 140.5t15.5 152.5q0 41 -7.5 75t-23 58t-40.5 37.5t-60 13.5q-52 0 -93.5 -40t-70 -103t-44 -140t-15.5 -151z" />
    <glyph glyph-name="minute" unicode="&#x2032;" horiz-adv-x="514" 
d="M137 979l107 401l47 136h223l-223 -537h-154z" />
    <glyph glyph-name="second" unicode="&#x2033;" horiz-adv-x="895" 
d="M143 979l105 401l47 136h223l-221 -537h-154zM524 979l105 401l47 136h223l-221 -537h-154z" />
    <glyph glyph-name="guilsinglleft" unicode="&#x2039;" horiz-adv-x="723" 
d="M29 545l424 542h243l-411 -542l219 -545h-244z" />
    <glyph glyph-name="guilsinglright" unicode="&#x203a;" horiz-adv-x="723" 
d="M-49 0l411 545l-217 542h244l229 -542l-421 -545h-246z" />
    <glyph glyph-name="fraction" unicode="&#x2044;" horiz-adv-x="1049" 
d="M-168 0l1159 1516h226l-1160 -1516h-225z" />
    <glyph glyph-name="uni2070" unicode="&#x2070;" horiz-adv-x="1038" 
d="M156 918q0 126 33.5 238t96 196t150.5 133t197 49q90 0 156 -29t109.5 -81.5t65 -124.5t21.5 -158q0 -128 -34 -238.5t-95.5 -192t-148.5 -128.5t-193 -47q-92 0 -159 28t-111.5 78t-66 120.5t-21.5 156.5zM360 911q0 -102 40.5 -157.5t121.5 -55.5q67 0 115 39.5
t79.5 104t46.5 145.5t15 164q0 102 -38 158.5t-119 56.5q-67 0 -116 -40t-81.5 -104.5t-48 -146t-15.5 -164.5z" />
    <glyph glyph-name="uni2074" unicode="&#x2074;" horiz-adv-x="969" 
d="M104 764l23 129l537 623h213l-105 -590h154l-27 -162h-154l-38 -213h-203l39 213h-439zM330 915h250l63 373z" />
    <glyph glyph-name="uni2075" unicode="&#x2075;" horiz-adv-x="924" 
d="M84 700l121 123q18 -27 42.5 -50.5t54 -41t64 -27.5t72.5 -10q103 0 160 55.5t57 155.5q0 68 -38.5 106t-106.5 38q-53 0 -95.5 -22.5t-88.5 -70.5l-138 48l125 512h586l-39 -164h-416l-57 -226q32 29 82 48.5t119 19.5q61 0 110.5 -18t84.5 -52.5t54 -84t19 -111.5
q0 -98 -32 -172t-87.5 -124t-132 -74.5t-164.5 -22.5q-68 0 -123 13t-98.5 35t-76.5 52t-58 65z" />
    <glyph glyph-name="uni2076" unicode="&#x2076;" horiz-adv-x="975" 
d="M154 903q0 144 36.5 260.5t101.5 199t154.5 127t196.5 44.5q109 0 185.5 -28t119.5 -66l-104 -142q-42 32 -95 51t-118 19q-54 0 -97.5 -22t-76.5 -62t-56 -94.5t-36 -120.5q57 49 126 77t150 28q63 0 112.5 -18t84 -51.5t53 -81.5t18.5 -108q0 -87 -30.5 -157.5
t-86 -120t-133.5 -76t-174 -26.5q-160 0 -245.5 96.5t-85.5 271.5zM350 899q0 -57 12.5 -96.5t34.5 -64.5t51.5 -36.5t63.5 -11.5q42 0 78.5 12.5t63.5 37.5t43 62.5t16 86.5q0 60 -33.5 96.5t-108.5 36.5q-64 0 -120 -22.5t-101 -65.5v-35z" />
    <glyph glyph-name="uni2077" unicode="&#x2077;" horiz-adv-x="852" 
d="M143 551l508 795h-452l28 170h670l-27 -154l-514 -811h-213z" />
    <glyph glyph-name="uni2078" unicode="&#x2078;" horiz-adv-x="958" 
d="M100 786q0 54 17 96.5t50 76.5t81 62t110 52q-58 42 -93.5 90t-33.5 111q0 58 25.5 106t73 82.5t115.5 53t153 18.5q86 0 147 -20.5t100 -54t57 -76t18 -85.5q0 -45 -13.5 -81t-40.5 -66t-68 -55t-96 -49q39 -23 72 -47t56 -52t36 -60t13 -71q0 -72 -30.5 -125t-85 -88
t-131 -52t-167.5 -17q-92 0 -160 20t-114 54t-68.5 80t-22.5 97zM299 799q0 -54 43 -90.5t131 -36.5q43 0 80 8.5t64.5 26t43 44t15.5 62.5q1 28 -12.5 52.5t-37.5 46.5t-58 43t-74 44q-48 -21 -84.5 -42.5t-61 -45t-37 -51t-12.5 -61.5zM424 1264q0 -45 37 -80t102 -70
q42 18 73 36t50.5 37.5t29 41.5t9.5 49q0 20 -7.5 40t-24.5 35.5t-44 25.5t-67 10q-70 0 -114 -34t-44 -91z" />
    <glyph glyph-name="uni2079" unicode="&#x2079;" horiz-adv-x="975" 
d="M127 627l104 137q42 -32 95 -50t118 -18q54 0 98 22.5t77.5 62.5t56 95.5t34.5 121.5q-56 -50 -125.5 -77.5t-150.5 -27.5q-127 0 -197.5 68.5t-70.5 189.5q0 87 30 158t85.5 121t134 77t174.5 27q161 0 246.5 -96.5t85.5 -274.5q0 -143 -36.5 -259t-101.5 -198
t-155 -126.5t-197 -44.5q-109 0 -185.5 26.5t-119.5 65.5zM362 1174q0 -59 34 -96.5t108 -37.5q63 0 119 22.5t101 64.5q1 9 1 18v18q0 57 -12.5 97t-34.5 65.5t-51.5 37t-63.5 11.5q-41 0 -77.5 -13t-64 -38t-43.5 -62.5t-16 -86.5z" />
    </font>
</defs>
</svg>
