<?xml version="1.0" standalone="no"?>
<!DOCTYPE svg PUBLIC "-//W3C//DTD SVG 1.1//EN" "http://www.w3.org/Graphics/SVG/1.1/DTD/svg11.dtd" >
<svg xmlns="http://www.w3.org/2000/svg" xmlns:xlink="http://www.w3.org/1999/xlink" version="1.1">
<metadata>
Created by FontForge 20170731 at Wed Feb 22 20:06:17 2012
 By Aleksey,,,
Copyright (c) The Font Bureau, Inc, 2003. All rights reserved.
</metadata>
<defs>
<font id="BentonSansCond-Book" horiz-adv-x="565" >
  <font-face 
    font-family="BentonSansCond Book"
    font-weight="390"
    font-stretch="condensed"
    units-per-em="1000"
    panose-1="2 0 6 6 4 0 0 2 0 4"
    ascent="787"
    descent="-213"
    x-height="526"
    cap-height="740"
    bbox="-71 -228 1182 1073"
    underline-thickness="20"
    underline-position="-173"
    unicode-range="U+0020-FB04"
  />
<missing-glyph horiz-adv-x="500" 
d="M0 0v700h500v-700h-500zM50 650v-600h400v600h-400z" />
    <glyph glyph-name="f_f" unicode="ff" horiz-adv-x="571" 
d="M100 0v471h-78v55h78v88q0 127 137 127l32 -1v-57q-27 1 -29 1q-75 0 -75 -70v-88h99v-55h-99v-471h-65zM385 0v471h-78v55h78v88q0 127 137 127l32 -1v-57q-27 1 -29 1q-75 0 -75 -70v-88h99v-55h-99v-471h-65z" />
    <glyph glyph-name="f_i" unicode="fi" horiz-adv-x="497" 
d="M100 0v471h-78v55h78v88q0 127 137 127l32 -1v-57q-27 1 -29 1q-75 0 -75 -70v-88h99v-55h-99v-471h-65zM358 641v77h67v-77h-67zM359 0v526h65v-526h-65z" />
    <glyph glyph-name="f_l" unicode="fl" horiz-adv-x="497" 
d="M100 0v471h-78v55h78v88q0 127 137 127l32 -1v-57q-27 1 -29 1q-75 0 -75 -70v-88h99v-55h-99v-471h-65zM359 0v740h65v-740h-65z" />
    <glyph glyph-name="f_f_i" unicode="ffi" horiz-adv-x="782" 
d="M100 0v471h-78v55h78v88q0 127 137 127l32 -1v-57q-27 1 -29 1q-75 0 -75 -70v-88h99v-55h-99v-471h-65zM385 0v471h-78v55h78v88q0 127 137 127l32 -1v-57q-27 1 -29 1q-75 0 -75 -70v-88h99v-55h-99v-471h-65zM643 641v77h67v-77h-67zM644 0v526h65v-526h-65z" />
    <glyph glyph-name="f_f_l" unicode="ffl" horiz-adv-x="782" 
d="M100 0v471h-78v55h78v88q0 127 137 127l32 -1v-57q-27 1 -29 1q-75 0 -75 -70v-88h99v-55h-99v-471h-65zM385 0v471h-78v55h78v88q0 127 137 127l32 -1v-57q-27 1 -29 1q-75 0 -75 -70v-88h99v-55h-99v-471h-65zM644 0v740h65v-740h-65z" />
    <glyph glyph-name="f_j" unicode="fj" horiz-adv-x="497" 
d="M100 0v471h-78v55h78v88q0 127 137 127l32 -1v-57q-27 1 -29 1q-75 0 -75 -70v-88h99v-55h-99v-471h-65zM358 641v77h67v-77h-67zM324 -200q-23 0 -33 2v54q12 -2 26 -2q42 0 42 56v616h65v-615q0 -58 -23.5 -84.5t-76.5 -26.5z" />
    <glyph glyph-name=".notdef" horiz-adv-x="500" 
d="M0 0v700h500v-700h-500zM50 650v-600h400v600h-400z" />
    <glyph glyph-name=".null" horiz-adv-x="0" 
 />
    <glyph glyph-name="nonmarkingreturn" horiz-adv-x="333" 
 />
    <glyph glyph-name="space" unicode=" " horiz-adv-x="193" 
 />
    <glyph glyph-name="exclam" unicode="!" horiz-adv-x="273" 
d="M115 199l-18 541h80l-18 -541h-44zM97 0v91h80v-91h-80z" />
    <glyph glyph-name="quotedbl" unicode="&#x22;" horiz-adv-x="357" 
d="M238 489l-14 198v53h65v-53l-14 -198h-37zM84 489l-15 198v53h66v-53l-14 -198h-37z" />
    <glyph glyph-name="numbersign" unicode="#" horiz-adv-x="602" 
d="M97 0l39 218h-99v56h109l34 192h-106v56h116l39 218h61l-39 -218h154l38 218h61l-39 -218h101v-56h-111l-35 -192h109v-56h-118l-39 -218h-61l39 218h-153l-39 -218h-61zM207 273h153l34 194h-153z" />
    <glyph glyph-name="dollar" unicode="$" horiz-adv-x="555" 
d="M247 -1q-140 13 -197 161l58 23q27 -58 60.5 -88.5t81.5 -37.5v302q-34 16 -53.5 26.5t-46.5 30t-41.5 39t-25.5 49t-11 64.5q0 73 47.5 121t127.5 54v76h54v-77q118 -14 172 -142l-56 -27q-23 50 -50 76t-68 33v-275q48 -22 72.5 -36t58.5 -41.5t49.5 -63.5t15.5 -84
q0 -80 -52 -129t-142 -55v-91h-54v92zM250 684q-54 -4 -83 -34.5t-29 -76.5q0 -50 29 -82.5t83 -60.5v254zM299 56q59 5 94 35t35 86q0 58 -33.5 93t-95.5 67v-281z" />
    <glyph glyph-name="percent" unicode="%" horiz-adv-x="816" 
d="M190 307q-68 0 -104 57.5t-36 165.5t36 165.5t104 57.5q66 0 102 -57.5t36 -165.5t-36 -165.5t-102 -57.5zM190 0l376 740h59l-376 -740h-59zM628 -10q-68 0 -104 57.5t-36 165.5t36 165.5t104 57.5q66 0 101.5 -57.5t35.5 -165.5t-35.5 -165.5t-101.5 -57.5zM190 359
q81 0 81 171t-81 171q-82 0 -82 -171t82 -171zM628 41q81 0 81 172q0 170 -81 170q-82 0 -82 -170q0 -172 82 -172z" />
    <glyph glyph-name="ampersand" unicode="&#x26;" horiz-adv-x="617" 
d="M246 -14q-104 0 -158 48.5t-54 138.5q0 74 39.5 128.5t108.5 103.5q-46 94 -46 180q0 75 39 122t110 47q66 0 99.5 -38.5t33.5 -99.5q0 -68 -40.5 -118.5t-115.5 -102.5q19 -35 58 -94q70 -98 109 -144q47 78 60 213h62q-18 -156 -79 -254q69 -64 125 -64v-62
q-86 4 -164 75q-73 -79 -187 -79zM237 443q57 41 88 79.5t31 89.5q0 85 -71 85q-41 0 -62.5 -29t-21.5 -78q0 -70 36 -147zM248 43q88 0 142 62q-39 44 -122 161q-44 65 -59 90q-109 -81 -109 -179q0 -62 37 -98t111 -36z" />
    <glyph glyph-name="quotesingle" unicode="'" horiz-adv-x="205" 
d="M84 489l-15 198v53h66v-53l-14 -198h-37z" />
    <glyph glyph-name="parenleft" unicode="(" horiz-adv-x="346" 
d="M265 -204q-212 207 -212 476t212 476l38 -33q-180 -193 -180 -443q0 -127 48 -241t132 -203z" />
    <glyph glyph-name="parenright" unicode=")" horiz-adv-x="346" 
d="M81 -204l-38 32q84 91 132.5 204.5t48.5 239.5q0 127 -48 240.5t-133 202.5l38 33q212 -207 212 -476t-212 -476z" />
    <glyph glyph-name="asterisk" unicode="*" horiz-adv-x="458" 
d="M157 377l-47 28l96 140l-167 -12v52l168 -12l-97 141l47 29l73 -156l71 156l47 -29l-97 -141l169 12v-52l-169 12l97 -140l-47 -28l-71 155z" />
    <glyph glyph-name="plus" unicode="+" horiz-adv-x="528" 
d="M235 83v216h-188v57h188v216h58v-216h187v-57h-187v-216h-58z" />
    <glyph glyph-name="comma" unicode="," horiz-adv-x="235" 
d="M85 -100l24 100h-32v93h80v-85l-41 -108h-31z" />
    <glyph glyph-name="hyphen" unicode="-" horiz-adv-x="306" 
d="M56 284v59h195v-59h-195z" />
    <glyph glyph-name="hyphen" unicode="&#xad;" horiz-adv-x="306" 
d="M56 284v59h195v-59h-195z" />
    <glyph glyph-name="period" unicode="." horiz-adv-x="235" 
d="M77 0v93h80v-93h-80z" />
    <glyph glyph-name="slash" unicode="/" horiz-adv-x="470" 
d="M18 0l366 740h68l-366 -740h-68z" />
    <glyph glyph-name="zero" unicode="0" horiz-adv-x="556" 
d="M278 -14q-113 0 -172 99t-59 285t59 285t172 99t172 -99t59 -285t-59 -285t-172 -99zM278 46q164 0 164 324q0 164 -43 244t-121 80q-163 0 -163 -324t163 -324z" />
    <glyph glyph-name="one" unicode="1" horiz-adv-x="375" 
d="M50 0v61h120v606q-55 -34 -118 -34v59q81 3 121 48h63v-679h108v-61h-294z" />
    <glyph glyph-name="two" unicode="2" horiz-adv-x="498" 
d="M41 0v16q0 64 18.5 116.5t48.5 88t66 66.5t72 59t66 56.5t48.5 67.5t18.5 86q0 65 -32 101.5t-91 36.5q-96 0 -149 -128l-56 24q68 164 208 164q89 0 137.5 -52.5t48.5 -142.5q0 -50 -18.5 -93.5t-47.5 -75.5t-64.5 -61.5t-70.5 -58t-64.5 -58t-48 -68.5t-18.5 -83h333
v-61h-405z" />
    <glyph glyph-name="three" unicode="3" horiz-adv-x="504" 
d="M242 -12q-164 0 -224 161l57 23q26 -69 66 -97t99 -28q70 0 110 42t40 110q0 83 -47 124.5t-153 41.5h-24v56h43q164 0 164 147q0 57 -30 91.5t-96 34.5q-86 0 -150 -86l-47 33q80 113 204 113q93 0 139 -51t46 -129q0 -70 -34.5 -116t-89.5 -62q140 -46 140 -196
q0 -93 -58.5 -152.5t-154.5 -59.5z" />
    <glyph glyph-name="four" unicode="4" horiz-adv-x="517" 
d="M325 0v181h-298v50l287 509h76v-499h105v-60h-105v-181h-65zM98 241h228v407h-1z" />
    <glyph glyph-name="five" unicode="5" horiz-adv-x="498" 
d="M244 -14q-137 0 -210 146l55 27q58 -115 154 -115q75 0 112.5 56.5t37.5 141.5q0 89 -36.5 138t-98.5 49q-86 0 -140 -86l-52 13l23 384h335l-4 -62h-274l-18 -264q48 72 140 72q87 0 139 -62t52 -179q0 -120 -57.5 -189.5t-157.5 -69.5z" />
    <glyph glyph-name="six" unicode="6" horiz-adv-x="519" 
d="M271 -14q-102 0 -163 93.5t-61 277.5q0 177 61.5 287t179.5 110q99 0 163 -87l-50 -37q-23 31 -49 48t-67 17q-85 0 -128.5 -88t-44.5 -232q72 88 174 88q100 0 148 -63.5t48 -168.5q0 -108 -56 -176.5t-155 -68.5zM274 44q68 0 105 48t37 138q0 174 -137 174
q-99 0 -165 -96q8 -130 49.5 -197t110.5 -67z" />
    <glyph glyph-name="seven" unicode="7" horiz-adv-x="469" 
d="M99 0l265 678h-321v62h391v-57l-267 -683h-68z" />
    <glyph glyph-name="eight" unicode="8" horiz-adv-x="518" 
d="M260 -15q-107 0 -166.5 54t-59.5 135q0 74 43 122.5t126 93.5q-69 40 -104.5 82.5t-35.5 106.5q0 73 52.5 124.5t144.5 51.5q93 0 144 -51.5t51 -124.5q0 -62 -35 -103.5t-104 -80.5q84 -45 126 -93.5t42 -125.5q0 -82 -59.5 -136.5t-164.5 -54.5zM264 423q66 35 96 69
t30 85q0 50 -32 85t-98 35q-64 0 -97.5 -34.5t-33.5 -83.5q0 -51 32.5 -85t102.5 -71zM260 42q71 0 114.5 37.5t43.5 100.5q0 58 -40 98.5t-122 84.5q-81 -44 -118.5 -85t-37.5 -100q0 -60 44 -98t116 -38z" />
    <glyph glyph-name="nine" unicode="9" horiz-adv-x="519" 
d="M233 -14q-104 0 -172 93l49 36q19 -23 32.5 -36t38 -24t54.5 -11q85 0 129 89t43 232q-70 -88 -174 -88q-99 0 -147.5 63.5t-48.5 168.5q0 107 57 176t155 69q102 0 162.5 -93t60.5 -278q0 -115 -24.5 -202.5t-79.5 -141t-135 -53.5zM242 336q97 0 164 96
q-8 130 -49.5 196.5t-110.5 66.5t-106 -47.5t-37 -137.5q0 -174 139 -174z" />
    <glyph glyph-name="colon" unicode=":" horiz-adv-x="237" 
d="M78 434v92h79v-92h-79zM78 0v93h79v-93h-79z" />
    <glyph glyph-name="semicolon" unicode=";" horiz-adv-x="237" 
d="M78 434v92h79v-92h-79zM86 -100l24 100h-32v93h79v-84l-41 -109h-30z" />
    <glyph glyph-name="less" unicode="&#x3c;" horiz-adv-x="570" 
d="M506 74l-450 224v52l450 224v-63l-381 -187l381 -187v-63z" />
    <glyph glyph-name="equal" unicode="=" horiz-adv-x="528" 
d="M64 409v58h401v-58h-401zM64 183v57h401v-57h-401z" />
    <glyph glyph-name="greater" unicode="&#x3e;" horiz-adv-x="570" 
d="M64 74v63l380 187l-380 187v63l450 -224v-52z" />
    <glyph glyph-name="question" unicode="?" horiz-adv-x="458" 
d="M178 199v60q0 58 21 95t65 76q46 38 65.5 68.5t19.5 79.5q0 53 -31 84.5t-88 31.5q-87 0 -142 -105l-55 27q72 138 201 138q85 0 133.5 -48t48.5 -124q0 -45 -16 -81.5t-33.5 -54.5t-51.5 -47q-51 -43 -66 -80t-15 -120h-56zM165 0v92h82v-92h-82z" />
    <glyph glyph-name="at" unicode="@" horiz-adv-x="742" 
d="M371 -14q-149 0 -239.5 102t-90.5 282q0 176 92 280t239 104q146 0 237.5 -102.5t91.5 -271.5q0 -108 -39.5 -166t-105.5 -58q-44 0 -70.5 21.5t-35.5 55.5q-65 -75 -137 -75q-60 0 -93.5 42.5t-33.5 120.5q1 118 49.5 194t127.5 76q66 0 108 -56l6 47h54l-36 -294
q-12 -90 65 -90q45 0 72 44.5t27 137.5q0 152 -80 243.5t-208 91.5q-129 0 -208 -93t-79 -252q0 -161 79 -253t208 -92q92 0 176 46l18 -33q-91 -52 -194 -52zM322 206q59 0 116 64l27 214q-42 57 -102 57q-52 0 -85.5 -60t-34.5 -155q0 -120 79 -120z" />
    <glyph glyph-name="A" unicode="A" horiz-adv-x="556" 
d="M159 229l-65 -229h-64l217 743h62l217 -743h-68l-65 229h-234zM376 289l-34 121q-36 124 -65 233h-2q-21 -80 -64 -232l-35 -122h200z" />
    <glyph glyph-name="B" unicode="B" horiz-adv-x="575" 
d="M80 0v740h207q220 0 220 -186q0 -72 -34 -113.5t-86 -55.5v-2q140 -31 140 -182q0 -95 -57.5 -148t-164.5 -53h-225zM147 410h136q158 0 158 134q0 71 -37 102.5t-119 31.5h-138v-268zM147 60h159q155 0 155 145q0 146 -174 146h-140v-291z" />
    <glyph glyph-name="C" unicode="C" horiz-adv-x="582" 
d="M307 -14q-121 0 -189.5 100t-68.5 286q0 180 69.5 281t189.5 101q177 0 223 -229l-63 -12q-19 90 -57 134.5t-105 44.5q-89 0 -139 -85.5t-50 -233.5q0 -155 50 -240t141 -85q68 0 108.5 45t61.5 142l61 -10q-23 -111 -80.5 -175t-151.5 -64z" />
    <glyph glyph-name="D" unicode="D" horiz-adv-x="593" 
d="M80 0v740h155q156 0 232.5 -90t76.5 -279t-77.5 -280t-231.5 -91h-155zM148 62h98q117 0 173 74.5t56 234.5q0 157 -56.5 231.5t-173.5 74.5h-97v-615z" />
    <glyph glyph-name="E" unicode="E" horiz-adv-x="504" 
d="M80 0v740h367v-63h-299v-254h220v-62h-220v-299h317v-62h-385z" />
    <glyph glyph-name="F" unicode="F" horiz-adv-x="474" 
d="M80 0v740h363v-63h-295v-257h216v-62h-216v-358h-68z" />
    <glyph glyph-name="G" unicode="G" horiz-adv-x="605" 
d="M303 -14q-121 0 -187.5 101t-66.5 286q0 178 69 279.5t190 101.5q175 0 223 -229l-62 -13q-20 91 -58.5 135.5t-104.5 44.5q-88 0 -138.5 -84t-50.5 -234q0 -158 50 -242t142 -84q79 0 122.5 61.5t44.5 178.5h-149v60h210v-348h-57v102h-1q-21 -49 -65.5 -82.5
t-110.5 -33.5z" />
    <glyph glyph-name="H" unicode="H" horiz-adv-x="614" 
d="M80 0v740h68v-317h318v317h68v-740h-68v360h-318v-360h-68z" />
    <glyph glyph-name="I" unicode="I" horiz-adv-x="240" 
d="M86 0v740h68v-740h-68z" />
    <glyph glyph-name="J" unicode="J" horiz-adv-x="425" 
d="M184 -11q-91 0 -163 58l35 50q61 -48 125 -48q46 0 73.5 27t27.5 82v582h68v-580q0 -84 -45 -127.5t-121 -43.5z" />
    <glyph glyph-name="K" unicode="K" horiz-adv-x="560" 
d="M80 0v740h68v-403q21 34 80 116l205 287h72l-206 -285l241 -455h-72l-212 396l-108 -148v-248h-68z" />
    <glyph glyph-name="L" unicode="L" horiz-adv-x="477" 
d="M80 0v740h68v-678h297v-62h-365z" />
    <glyph glyph-name="M" unicode="M" horiz-adv-x="728" 
d="M80 0v740h84l200 -644h2l197 644h85v-740h-66v625h-2q-13 -61 -54 -189l-137 -436h-55l-137 438q-34 107 -54 187h-2v-625h-61z" />
    <glyph glyph-name="N" unicode="N" horiz-adv-x="621" 
d="M80 0v740h84l247 -480q13 -25 66 -131h2v611h62v-740h-63l-261 504q-50 96 -73 145h-2v-649h-62z" />
    <glyph glyph-name="O" unicode="O" horiz-adv-x="621" 
d="M311 -14q-118 0 -190 102t-72 282t72 282t190 102q117 0 189 -102t72 -282t-72 -282t-189 -102zM311 48q89 0 140.5 85t51.5 237t-51.5 237t-140.5 85t-141.5 -85t-52.5 -237t52.5 -237t141.5 -85z" />
    <glyph glyph-name="P" unicode="P" horiz-adv-x="549" 
d="M80 0v740h203q104 0 162.5 -50.5t58.5 -153.5q0 -112 -61 -162.5t-167 -50.5h-128v-323h-68zM148 384h132q79 0 118 35t39 115q0 76 -39 109.5t-119 33.5h-131v-293z" />
    <glyph glyph-name="Q" unicode="Q" horiz-adv-x="621" 
d="M467 -186q-191 0 -191 177q-103 14 -165 113t-62 266q0 180 72 282t191 102q117 0 188.5 -102t71.5 -282q0 -170 -62.5 -268.5t-167.5 -111.5q3 -66 36.5 -91t99.5 -25h42v-60h-53zM312 47q88 0 139.5 85.5t51.5 237.5q0 151 -51.5 236.5t-139.5 85.5q-90 0 -142.5 -85
t-52.5 -237t52.5 -237.5t142.5 -85.5z" />
    <glyph glyph-name="R" unicode="R" 
d="M80 0v740h204q220 0 220 -203q0 -87 -41 -135.5t-105 -64.5l153 -337h-69l-150 327h-145v-327h-67zM147 386h133q80 0 118.5 34.5t38.5 115.5q0 75 -38.5 108t-119.5 33h-132v-291z" />
    <glyph glyph-name="S" unicode="S" horiz-adv-x="537" 
d="M273 -12q-167 0 -238 173l59 27q59 -139 179 -139q68 0 108.5 35.5t40.5 93.5q0 33 -11.5 59t-38 47.5t-47 33t-60.5 31.5q-34 17 -48 24.5t-43.5 24.5t-43 32t-30.5 37t-24 49.5t-7 59.5q0 78 55 128t138 50q150 0 214 -154l-59 -27q-50 120 -156 120q-55 0 -90 -32.5
t-35 -83.5q0 -33 11.5 -59t37.5 -47t46.5 -33.5t59.5 -31.5q33 -16 48.5 -24t44 -25t43 -32.5t31.5 -37.5t24 -49t7 -59q0 -82 -59.5 -136.5t-156.5 -54.5z" />
    <glyph glyph-name="T" unicode="T" horiz-adv-x="515" 
d="M223 0v677h-194v63h456v-63h-194v-677h-68z" />
    <glyph glyph-name="U" unicode="U" horiz-adv-x="600" 
d="M300 -14q-116 0 -170.5 67.5t-54.5 186.5v500h68v-489q0 -100 36.5 -152t120.5 -52t121.5 52t37.5 150v491h65v-498q0 -116 -55.5 -186t-168.5 -70z" />
    <glyph glyph-name="V" unicode="V" horiz-adv-x="553" 
d="M245 -3l-215 743h67l117 -411q25 -88 63 -232h2q24 94 64 230l116 413h64l-215 -743h-63z" />
    <glyph glyph-name="W" unicode="W" horiz-adv-x="770" 
d="M199 -3l-165 743h64l85 -399q28 -127 46 -224h2q8 46 45 224l80 399h62l83 -410q35 -171 42 -213h2q16 84 44 214l86 409h61l-165 -743h-57l-128 620h-2l-128 -620h-57z" />
    <glyph glyph-name="X" unicode="X" horiz-adv-x="544" 
d="M19 0l217 402l-182 338h73l149 -280l147 280h66l-181 -337l217 -403h-71l-185 347l-184 -347h-66z" />
    <glyph glyph-name="Y" unicode="Y" horiz-adv-x="515" 
d="M223 0v309l-204 431h70l169 -368h2l169 368h66l-203 -429v-311h-69z" />
    <glyph glyph-name="Z" unicode="Z" horiz-adv-x="521" 
d="M36 0v52l362 625h-338v63h417v-51l-362 -627h362v-62h-441z" />
    <glyph glyph-name="bracketleft" unicode="[" horiz-adv-x="330" 
d="M75 -200v940h216v-53h-150v-834h150v-53h-216z" />
    <glyph glyph-name="backslash" unicode="\" horiz-adv-x="467" 
d="M383 0l-366 740h68l365 -740h-67z" />
    <glyph glyph-name="bracketright" unicode="]" horiz-adv-x="330" 
d="M39 -200v53h150v834h-150v53h216v-940h-216z" />
    <glyph glyph-name="asciicircum" unicode="^" horiz-adv-x="436" 
d="M85 579l110 158h46l110 -158h-41l-93 93l-92 -93h-40z" />
    <glyph glyph-name="underscore" unicode="_" horiz-adv-x="428" 
d="M-1 -125v56h431v-56h-431z" />
    <glyph glyph-name="grave" unicode="`" horiz-adv-x="436" 
d="M228 583l-119 154h83l80 -154h-44z" />
    <glyph glyph-name="a" unicode="a" horiz-adv-x="465" 
d="M165 -7q-59 0 -92 34.5t-33 95.5q0 163 296 224v36q0 97 -84 97q-83 0 -159 -76l-39 39q89 94 203 94q143 0 143 -154v-253q0 -91 13 -130h-66q-11 38 -11 69q-73 -76 -171 -76zM183 47q85 0 153 76v174q-232 -49 -232 -167q0 -83 79 -83z" />
    <glyph glyph-name="b" unicode="b" horiz-adv-x="502" 
d="M276 -9q-80 0 -143 75v-66h-65v740h65v-282q66 79 146 79q82 0 132 -68t50 -205t-51 -205t-134 -68zM267 48q59 0 93.5 52.5t34.5 162.5q0 107 -35.5 162t-93.5 55q-38 0 -68.5 -20t-64.5 -59v-276q65 -77 134 -77z" />
    <glyph glyph-name="c" unicode="c" horiz-adv-x="450" 
d="M237 -11q-85 0 -140 73t-55 201q0 134 56.5 204t143.5 70q70 0 109 -41t61 -111l-60 -17q-17 55 -42.5 83.5t-69.5 28.5q-57 0 -94.5 -55t-37.5 -161q0 -100 35.5 -159t96.5 -59q87 0 118 113l58 -17q-47 -153 -179 -153z" />
    <glyph glyph-name="d" unicode="d" horiz-adv-x="502" 
d="M224 -9q-82 0 -131.5 67.5t-49.5 204.5t51 205.5t133 68.5q84 0 144 -77v280h65v-610q0 -95 13 -130h-68q-10 36 -10 69q-66 -78 -147 -78zM238 48q66 0 133 76v277q-66 79 -135 79q-58 0 -92.5 -54t-34.5 -163q0 -108 35 -161.5t94 -53.5z" />
    <glyph glyph-name="e" unicode="e" horiz-adv-x="464" 
d="M238 -11q-87 0 -141.5 71.5t-54.5 203.5t57 202.5t141 70.5q87 0 135 -69.5t48 -198.5v-15h-316q2 -100 38 -154.5t97 -54.5q45 0 73.5 25.5t52.5 76.5l49 -27q-58 -131 -179 -131zM108 307h250q-4 79 -33.5 126.5t-85.5 47.5q-51 0 -87.5 -44t-43.5 -130z" />
    <glyph glyph-name="f" unicode="f" horiz-adv-x="286" 
d="M100 0v471h-78v55h78v88q0 127 137 127l32 -1v-57q-27 1 -29 1q-75 0 -75 -70v-88h99v-55h-99v-471h-65z" />
    <glyph glyph-name="g" unicode="g" horiz-adv-x="485" 
d="M355 484q42 37 103 48v-64q-42 0 -81 -16q26 -43 26 -105q0 -86 -49.5 -137t-126.5 -51q-44 0 -73 14q-34 -20 -34 -46q0 -16 13.5 -24.5t51.5 -13.5l85 -11q92 -12 132 -42.5t40 -89.5q0 -68 -61.5 -107t-158.5 -39q-204 0 -204 129q0 81 87 121q-44 24 -44 65
q0 22 15.5 43.5t39.5 35.5q-69 53 -69 153q0 84 50.5 137t128.5 53q79 0 129 -53zM227 211q54 0 84 36.5t30 98.5q0 65 -30 101.5t-85 36.5q-54 0 -84.5 -37.5t-30.5 -100.5q0 -62 31 -98.5t85 -36.5zM155 35q-75 -32 -75 -98q0 -43 33.5 -65t114.5 -22q68 0 110 24t42 64
q0 36 -26.5 55.5t-93.5 28.5l-89 11q-10 2 -16 2z" />
    <glyph glyph-name="h" unicode="h" horiz-adv-x="495" 
d="M68 0v740h65v-288q32 35 77 60t92 25q130 0 130 -146v-391h-65v380q0 51 -19 75.5t-63 24.5q-70 0 -152 -82v-398h-65z" />
    <glyph glyph-name="i" unicode="i" horiz-adv-x="211" 
d="M72 641v77h67v-77h-67zM73 0v526h65v-526h-65z" />
    <glyph glyph-name="j" unicode="j" horiz-adv-x="211" 
d="M72 641v77h67v-77h-67zM38 -200q-23 0 -33 2v54q12 -2 26 -2q42 0 42 56v616h65v-615q0 -58 -23.5 -84.5t-76.5 -26.5z" />
    <glyph glyph-name="k" unicode="k" horiz-adv-x="450" 
d="M68 0v740h65v-498q11 20 77 108l130 176h68l-143 -191l162 -335h-67l-136 281l-91 -120v-161h-65z" />
    <glyph glyph-name="l" unicode="l" horiz-adv-x="211" 
d="M73 0v740h65v-740h-65z" />
    <glyph glyph-name="m" unicode="m" horiz-adv-x="774" 
d="M68 0v526h65v-74q81 85 163 85q99 0 120 -86q82 86 168 86q127 0 127 -146v-391h-65v380q0 52 -18.5 76t-61.5 24q-66 0 -144 -80v-400h-65v380q0 52 -17.5 76t-61.5 24q-63 0 -145 -82v-398h-65z" />
    <glyph glyph-name="n" unicode="n" horiz-adv-x="495" 
d="M68 0v526h65v-74q32 35 77 60t92 25q130 0 130 -146v-391h-65v380q0 51 -19 75.5t-63 24.5q-70 0 -152 -82v-398h-65z" />
    <glyph glyph-name="o" unicode="o" horiz-adv-x="489" 
d="M245 -11q-90 0 -146.5 72.5t-56.5 201.5q0 130 56 202t147 72q90 0 146 -72t56 -202q0 -129 -56 -201.5t-146 -72.5zM245 45q66 0 101 59.5t35 159.5q0 94 -34.5 155t-101.5 61q-66 0 -101.5 -59t-35.5 -157q0 -96 34.5 -157.5t102.5 -61.5z" />
    <glyph glyph-name="p" unicode="p" horiz-adv-x="502" 
d="M68 -200v726h65v-67q66 78 146 78q82 0 131.5 -68t49.5 -205t-50.5 -205t-133.5 -68q-82 0 -143 75v-266h-65zM267 48q59 0 93 52.5t34 162.5q0 108 -35 162.5t-93 54.5q-65 0 -133 -79v-276q65 -77 134 -77z" />
    <glyph glyph-name="q" unicode="q" horiz-adv-x="502" 
d="M369 -200v270q-67 -79 -145 -79q-82 0 -131.5 67.5t-49.5 204.5q0 136 50 205t132 69q78 0 144 -78v67h65v-726h-65zM238 47q37 0 66 19.5t65 58.5v275q-69 80 -133 80q-58 0 -92.5 -53.5t-34.5 -162.5t35 -163t94 -54z" />
    <glyph glyph-name="r" unicode="r" horiz-adv-x="339" 
d="M68 0v526h65v-94h2q59 105 172 105h11l-6 -61h-17q-52 0 -94.5 -32t-67.5 -87v-357h-65z" />
    <glyph glyph-name="s" unicode="s" horiz-adv-x="428" 
d="M213 -10q-125 0 -189 110l48 31q52 -86 142 -86q54 0 83.5 23t29.5 63q0 32 -20.5 55t-51 35t-66.5 27.5t-66.5 31.5t-51 47t-20.5 74q0 59 44 97.5t115 38.5q111 0 169 -97l-48 -32q-43 74 -121 74q-47 0 -71 -22t-24 -56q0 -38 28 -62.5t68.5 -39t81 -31.5t68.5 -51
t28 -87q0 -64 -50 -103.5t-126 -39.5z" />
    <glyph glyph-name="t" unicode="t" horiz-adv-x="316" 
d="M223 -7q-67 0 -96 28t-29 94v356h-78v55h78v190h65v-190h117v-55h-117v-343q0 -43 15 -61.5t56 -18.5q27 0 46 7v-55q-23 -7 -57 -7z" />
    <glyph glyph-name="u" unicode="u" horiz-adv-x="495" 
d="M194 -11q-131 0 -131 146v391h65v-380q0 -51 19.5 -75.5t64.5 -24.5q70 0 151 83v397h65v-526h-65v75q-82 -86 -169 -86z" />
    <glyph glyph-name="v" unicode="v" horiz-adv-x="435" 
d="M184 -3l-161 529h65l91 -313q38 -134 40 -142h2q19 76 39 142l91 313h61l-161 -529h-67z" />
    <glyph glyph-name="w" unicode="w" horiz-adv-x="631" 
d="M160 -3l-137 529h63l71 -283q18 -71 34 -146h2q14 67 33 149l63 280h58l64 -278q26 -109 34 -151h2q1 6 35 152l68 277h58l-136 -529h-57l-98 421h-2l-99 -421h-56z" />
    <glyph glyph-name="x" unicode="x" horiz-adv-x="429" 
d="M21 0l160 277l-143 249h68l113 -200l110 200h64l-144 -248l160 -278h-68l-129 229l-128 -229h-63z" />
    <glyph glyph-name="y" unicode="y" horiz-adv-x="449" 
d="M81 -201q-41 0 -72 11l13 53q23 -7 61 -7q35 0 53.5 20.5t33.5 68.5l17 50l-164 531h66l86 -290q32 -111 44 -159h2q24 88 47 165l84 284h62l-181 -586q-25 -77 -57 -109t-95 -32z" />
    <glyph glyph-name="z" unicode="z" horiz-adv-x="425" 
d="M35 0v44l265 427h-243v55h320v-43l-265 -428h276v-55h-353z" />
    <glyph glyph-name="braceleft" unicode="{" horiz-adv-x="324" 
d="M243 -200q-119 0 -119 135v191q0 70 -21.5 94.5t-72.5 24.5v50q51 0 72.5 24.5t21.5 94.5v191q0 67 28.5 101t91.5 34h50v-53h-37q-67 0 -67 -74v-201q0 -68 -17.5 -97t-56.5 -44v-2q39 -15 56.5 -44t17.5 -97v-201q0 -74 67 -74h37v-53h-51z" />
    <glyph glyph-name="bar" unicode="|" horiz-adv-x="300" 
d="M118 -200v940h64v-940h-64z" />
    <glyph glyph-name="braceright" unicode="}" horiz-adv-x="324" 
d="M30 -200v53h37q35 0 51 18t16 56v202q0 68 17.5 96.5t56.5 43.5v2q-39 15 -56.5 43.5t-17.5 96.5v202q0 74 -67 74h-37v53h52q63 0 91 -33.5t28 -100.5v-192q0 -70 21.5 -94.5t72.5 -24.5v-50q-51 0 -72.5 -24.5t-21.5 -94.5v-192q0 -67 -28 -100.5t-90 -33.5h-53z" />
    <glyph glyph-name="asciitilde" unicode="~" horiz-adv-x="436" 
d="M283 414q-28 0 -71 28t-58 28q-18 0 -26 -12t-8 -42h-44q0 109 77 109q28 0 71 -28t59 -28q34 0 34 54h42q0 -109 -76 -109z" />
    <glyph glyph-name="uni00A0" unicode="&#xa0;" horiz-adv-x="96" 
 />
    <glyph glyph-name="exclamdown" unicode="&#xa1;" horiz-adv-x="273" 
d="M96 649v91h80v-91h-80zM97 0l17 541h44l18 -541h-79z" />
    <glyph glyph-name="cent" unicode="&#xa2;" horiz-adv-x="450" 
d="M145 16q-48 31 -75.5 94.5t-27.5 152.5q0 134 56.5 204t143.5 70q13 0 19 -1l22 99h52l-25 -111q70 -32 102 -139l-60 -17q-22 73 -57 99l-93 -418q19 -7 38 -7q86 0 118 117l58 -17q-47 -153 -179 -153q-23 0 -45 6l-26 -119h-52zM252 483q-4 1 -12 1q-56 0 -94 -56.5
t-38 -163.5q0 -129 54 -186z" />
    <glyph glyph-name="sterling" unicode="&#xa3;" horiz-adv-x="523" 
d="M184 362h-111v55h87q-46 105 -46 156q0 83 45.5 132t122.5 49q84 0 124 -52t45 -134l-63 -6q-9 133 -108 133q-47 0 -73.5 -31t-26.5 -89q0 -50 47 -158h143v-55h-119q32 -84 32 -150q0 -60 -15 -107q20 -20 32.5 -31t30.5 -20.5t34 -9.5q39 0 58 33t20 106h59
q-5 -197 -134 -197q-58 0 -125 69q-43 -69 -121 -69q-42 0 -72.5 26t-30.5 71q0 48 29 78.5t77 30.5q46 0 93 -42q4 21 4 57q0 66 -38 155zM205 94q-45 47 -81 47q-23 0 -37 -14.5t-14 -40.5q0 -23 14.5 -37t36.5 -14q57 0 81 59z" />
    <glyph glyph-name="yen" unicode="&#xa5;" horiz-adv-x="515" 
d="M290 268v-95h177v-55h-177v-118h-65v118h-177v55h177v95h-177v55h169l-198 417h70l169 -368h2l169 368h66l-198 -417h170v-55h-177z" />
    <glyph glyph-name="brokenbar" unicode="&#xa6;" horiz-adv-x="300" 
d="M118 331v409h64v-409h-64zM118 -200v409h64v-409h-64z" />
    <glyph glyph-name="section" unicode="&#xa7;" horiz-adv-x="459" 
d="M224 -204q-80 0 -117 41.5t-52 116.5l60 15q12 -57 35.5 -87t72.5 -30q46 0 70 26t24 67q0 40 -25.5 71.5t-86.5 73.5q-93 63 -128 102t-35 101q0 51 33 93.5t82 69.5q-44 36 -63 69t-19 77q0 65 43.5 108.5t114.5 43.5q82 0 120.5 -41t53.5 -118l-60 -14
q-13 59 -38 87.5t-75 28.5q-46 0 -70.5 -26t-24.5 -66q0 -39 26 -70.5t89 -74.5q93 -62 128 -101.5t35 -100.5q0 -52 -33 -94.5t-81 -69.5q43 -36 60.5 -69t17.5 -77q0 -65 -42.5 -108.5t-114.5 -43.5zM259 128q96 50 96 124q0 42 -28 72t-109 86l-17 12q-96 -50 -96 -124
q0 -42 28 -73t109 -85z" />
    <glyph glyph-name="dieresis" unicode="&#xa8;" horiz-adv-x="436" 
d="M259 582v80h70v-80h-70zM107 582v80h71v-80h-71z" />
    <glyph glyph-name="copyright" unicode="&#xa9;" horiz-adv-x="709" 
d="M354 -14q-133 0 -223.5 111.5t-90.5 272.5t90.5 272.5t224.5 111.5q133 0 223.5 -111.5t90.5 -272.5t-90.5 -272.5t-224.5 -111.5zM355 25q115 0 193.5 100.5t78.5 244.5t-78.5 244.5t-194.5 100.5q-115 0 -193.5 -100.5t-78.5 -244.5t78.5 -244.5t194.5 -100.5zM355 155
q-69 0 -108 57t-39 163q0 102 39.5 159.5t108.5 57.5q101 0 132 -137l-49 -9q-11 50 -30 74t-53 24q-46 0 -71 -46t-25 -123q0 -81 25 -126t71 -45q34 0 54.5 25t32.5 79l48 -9q-29 -144 -136 -144z" />
    <glyph glyph-name="ordfeminine" unicode="&#xaa;" horiz-adv-x="363" 
d="M134 363q-44 0 -67.5 24.5t-23.5 69.5q0 118 208 161v24q0 65 -56 65t-111 -55l-33 32q68 70 148 70q103 0 103 -112v-178q0 -66 11 -94h-54q-8 30 -8 45q-54 -52 -117 -52zM147 408q55 0 104 53v118q-156 -35 -156 -117q0 -54 52 -54z" />
    <glyph glyph-name="guillemotleft" unicode="&#xab;" horiz-adv-x="436" 
d="M328 0l-122 264l122 262h66l-120 -262l120 -264h-66zM158 0l-121 264l121 262h66l-119 -262l119 -264h-66z" />
    <glyph glyph-name="logicalnot" unicode="&#xac;" horiz-adv-x="528" 
d="M480 356v-273h-58v216h-375v57h433z" />
    <glyph glyph-name="registered" unicode="&#xae;" horiz-adv-x="709" 
d="M354 -14q-133 0 -223.5 111.5t-90.5 272.5t90.5 272.5t224.5 111.5q133 0 223.5 -111.5t90.5 -272.5t-90.5 -272.5t-224.5 -111.5zM355 24q115 0 193.5 101t78.5 245t-78.5 245t-194.5 101q-115 0 -193.5 -101t-78.5 -245t78.5 -245t194.5 -101zM236 170v412h118
q125 0 125 -117q0 -89 -75 -112l81 -183h-55l-78 176h-65v-176h-51zM287 391h64q76 0 76 74q0 37 -19 53t-57 16h-64v-143z" />
    <glyph glyph-name="macron" unicode="&#xaf;" horiz-adv-x="436" 
d="M95 620v57h245v-57h-245z" />
    <glyph glyph-name="degree" unicode="&#xb0;" horiz-adv-x="343" 
d="M172 478q-54 0 -88 39t-34 99t34 99t88 39q53 0 86.5 -39t33.5 -99t-33.5 -99t-86.5 -39zM172 522q32 0 51 26t19 68t-19 68t-51 26q-33 0 -52.5 -26t-19.5 -68t19.5 -68t52.5 -26z" />
    <glyph glyph-name="plusminus" unicode="&#xb1;" horiz-adv-x="530" 
d="M47 64v55h188v205h-188v56h188v210h59v-210h188v-56h-188v-205h188v-55h-435z" />
    <glyph glyph-name="twosuperior" unicode="&#xb2;" horiz-adv-x="374" 
d="M60 312v19q0 49 19.5 86t47 60t55.5 43.5t47.5 48.5t19.5 63q0 69 -60 69q-49 0 -77 -76l-49 20q43 107 128 107q55 0 84.5 -31.5t29.5 -86.5q0 -37 -18 -68t-44.5 -53t-53 -42.5t-47 -47.5t-22.5 -58h185v-53h-245z" />
    <glyph glyph-name="threesuperior" unicode="&#xb3;" horiz-adv-x="374" 
d="M185 307q-94 0 -136 104l47 20q17 -41 38 -57.5t50 -16.5q35 0 55 21.5t20 55.5q0 43 -23.5 64.5t-77.5 21.5h-21v43h31q84 0 84 75q0 28 -15.5 45.5t-47.5 17.5q-42 0 -83 -52l-40 28q53 75 127 75q57 0 85 -31.5t28 -78.5q0 -70 -61 -97q69 -31 69 -111
q0 -56 -35 -91.5t-94 -35.5z" />
    <glyph glyph-name="acute" unicode="&#xb4;" horiz-adv-x="436" 
d="M164 583l81 154h82l-120 -154h-43z" />
    <glyph glyph-name="mu" unicode="&#xb5;" horiz-adv-x="497" 
d="M64 -200v727h66v-381q0 -51 19 -75.5t64 -24.5q67 0 150 81v400h67v-527h-67v76q-83 -83 -160 -85q-51 0 -73 25v-216h-66z" />
    <glyph glyph-name="paragraph" unicode="&#xb6;" horiz-adv-x="531" 
d="M251 -200v539q-98 2 -149.5 52t-51.5 147q0 90 50.5 146t139.5 56h213v-940h-60v882h-84v-882h-58z" />
    <glyph glyph-name="periodcentered" unicode="&#xb7;" horiz-adv-x="266" 
d="M90 264v94h86v-94h-86z" />
    <glyph glyph-name="periodcentered" unicode="&#x2219;" horiz-adv-x="266" 
d="M90 264v94h86v-94h-86z" />
    <glyph glyph-name="cedilla" unicode="&#xb8;" horiz-adv-x="436" 
d="M220 -201q-61 0 -110 36l23 35q42 -29 87 -29q63 0 63 47q0 35 -37 35q-23 0 -45 -20l-28 13l24 89h41l-16 -60q20 15 47 15q26 0 45 -17t19 -51q0 -44 -33 -68.5t-80 -24.5z" />
    <glyph glyph-name="onesuperior" unicode="&#xb9;" horiz-adv-x="337" 
d="M82 309v51h67v315q-29 -13 -66 -13v50q50 3 74 28h49v-380h59v-51h-183z" />
    <glyph glyph-name="ordmasculine" unicode="&#xba;" horiz-adv-x="363" 
d="M181 363q-64 0 -104 51.5t-40 143.5q0 93 40 144.5t104 51.5q65 0 105 -51.5t40 -144.5q0 -92 -40 -143.5t-105 -51.5zM181 408q45 0 69 41.5t24 109.5q0 65 -23.5 106.5t-69.5 41.5q-44 0 -68 -41t-24 -107t23 -108.5t69 -42.5z" />
    <glyph glyph-name="guillemotright" unicode="&#xbb;" horiz-adv-x="436" 
d="M213 0l119 264l-119 262h66l120 -262l-120 -264h-66zM43 0l120 264l-120 262h66l121 -262l-121 -264h-66z" />
    <glyph glyph-name="onequarter" unicode="&#xbc;" horiz-adv-x="771" 
d="M82 309v51h67v315q-29 -13 -66 -13v50q50 3 74 28h49v-380h59v-51h-183zM181 0l376 740h59l-376 -740h-59zM602 0v104h-167v37l164 290h57v-278h58v-49h-58v-104h-54zM494 153h108v195z" />
    <glyph glyph-name="onehalf" unicode="&#xbd;" horiz-adv-x="811" 
d="M82 309v51h67v315q-29 -13 -66 -13v50q50 3 74 28h49v-380h59v-51h-183zM181 0l376 740h59l-376 -740h-59zM493 0v19q0 41 14 74t35 53t45.5 40.5t45.5 37t35 41t14 54.5q0 69 -60 69q-49 0 -77 -75l-48 20q41 106 127 106q55 0 84 -31.5t29 -86.5q0 -32 -13 -59
t-32.5 -45.5t-43 -38t-44 -36.5t-35 -40.5t-16.5 -49.5h185v-52h-245z" />
    <glyph glyph-name="threequarters" unicode="&#xbe;" horiz-adv-x="787" 
d="M185 307q-94 0 -136 104l47 20q17 -41 38 -57.5t50 -16.5q35 0 55 21.5t20 55.5q0 43 -23.5 64.5t-77.5 21.5h-21v43h31q84 0 84 75q0 28 -15.5 45.5t-47.5 17.5q-42 0 -83 -52l-40 28q53 75 127 75q57 0 85 -31.5t28 -78.5q0 -70 -61 -97q69 -31 69 -111
q0 -56 -35 -91.5t-94 -35.5zM198 0l376 740h58l-375 -740h-59zM618 0v104h-166v37l163 290h57v-278h58v-49h-58v-104h-54zM510 153h109v195z" />
    <glyph glyph-name="questiondown" unicode="&#xbf;" horiz-adv-x="458" 
d="M224 -14q-85 0 -133.5 48t-48.5 124q0 45 16 81t34 54.5t52 47.5q50 43 65 80t15 120h56v-60q0 -58 -21 -95t-65 -76q-46 -37 -65 -68t-19 -80q0 -54 30.5 -85t87.5 -31q87 0 142 105l55 -27q-72 -138 -201 -138zM211 648v92h82v-92h-82z" />
    <glyph glyph-name="Agrave" unicode="&#xc0;" horiz-adv-x="556" 
d="M159 229l-65 -229h-64l217 743h62l217 -743h-68l-65 229h-234zM376 289l-34 121q-36 124 -65 233h-2q-21 -80 -64 -232l-35 -122h200zM260 787l-119 154h83l80 -154h-44z" />
    <glyph glyph-name="Aacute" unicode="&#xc1;" horiz-adv-x="556" 
d="M159 229l-65 -229h-64l217 743h62l217 -743h-68l-65 229h-234zM376 289l-34 121q-36 124 -65 233h-2q-21 -80 -64 -232l-35 -122h200zM250 787l81 154h82l-120 -154h-43z" />
    <glyph glyph-name="Acircumflex" unicode="&#xc2;" horiz-adv-x="556" 
d="M159 229l-65 -229h-64l217 743h62l217 -743h-68l-65 229h-234zM376 289l-34 121q-36 124 -65 233h-2q-21 -80 -64 -232l-35 -122h200zM144 774l110 158h47l110 -158h-42l-92 93l-91 -93h-42z" />
    <glyph glyph-name="Atilde" unicode="&#xc3;" horiz-adv-x="556" 
d="M159 229l-65 -229h-64l217 743h62l217 -743h-68l-65 229h-234zM376 289l-34 121q-36 124 -65 233h-2q-21 -80 -64 -232l-35 -122h200zM343 783q-28 0 -71 28t-58 28q-18 0 -26 -12t-8 -42h-44q0 109 77 109q28 0 71 -28t59 -28q34 0 34 54h42q0 -109 -76 -109z" />
    <glyph glyph-name="Adieresis" unicode="&#xc4;" horiz-adv-x="556" 
d="M159 229l-65 -229h-64l217 743h62l217 -743h-68l-65 229h-234zM376 289l-34 121q-36 124 -65 233h-2q-21 -80 -64 -232l-35 -122h200zM319 786v80h70v-80h-70zM167 786v80h71v-80h-71z" />
    <glyph glyph-name="Aring" unicode="&#xc5;" horiz-adv-x="556" 
d="M159 229l-65 -229h-64l210 721q-44 23 -44 82q0 40 22.5 66t58.5 26t59 -26t23 -66q0 -60 -43 -82l210 -721h-68l-65 229h-234zM277 746q20 0 32 16t12 41t-11.5 40.5t-32.5 15.5q-20 0 -31.5 -15.5t-11.5 -40.5t11.5 -41t31.5 -16zM376 289l-34 122q-36 124 -65 233h-2
q-21 -80 -64 -232l-36 -123h201z" />
    <glyph glyph-name="AE" unicode="&#xc6;" horiz-adv-x="823" 
d="M24 0l341 740h400v-63h-298v-254h219v-62h-219v-299h316v-62h-384v239h-200l-109 -239h-66zM225 297h174v378z" />
    <glyph glyph-name="Ccedilla" unicode="&#xc7;" horiz-adv-x="582" 
d="M266 -11q-102 17 -159.5 115.5t-57.5 267.5q0 180 69.5 281t189.5 101q177 0 223 -229l-63 -12q-19 90 -57 134.5t-105 44.5q-89 0 -139 -85.5t-50 -233.5q0 -155 50 -240t141 -85q68 0 108.5 45t61.5 142l61 -10q-23 -111 -80.5 -175t-151.5 -64h-1l-11 -41q20 15 47 15
q26 0 45 -17t19 -51q0 -44 -33 -68.5t-80 -24.5q-61 0 -110 36l23 35q42 -29 87 -29q63 0 63 47q0 35 -37 35q-23 0 -45 -20l-28 13z" />
    <glyph glyph-name="Egrave" unicode="&#xc8;" horiz-adv-x="504" 
d="M80 0v740h367v-63h-299v-254h220v-62h-220v-299h317v-62h-385zM262 787l-119 154h83l80 -154h-44z" />
    <glyph glyph-name="Eacute" unicode="&#xc9;" horiz-adv-x="504" 
d="M80 0v740h367v-63h-299v-254h220v-62h-220v-299h317v-62h-385zM207 787l81 154h82l-120 -154h-43z" />
    <glyph glyph-name="Ecircumflex" unicode="&#xca;" horiz-adv-x="504" 
d="M80 0v740h367v-63h-299v-254h220v-62h-220v-299h317v-62h-385zM128 783l110 158h47l110 -158h-42l-92 93l-91 -93h-42z" />
    <glyph glyph-name="Edieresis" unicode="&#xcb;" horiz-adv-x="504" 
d="M80 0v740h367v-63h-299v-254h220v-62h-220v-299h317v-62h-385zM303 786v80h70v-80h-70zM151 786v80h71v-80h-71z" />
    <glyph glyph-name="Igrave" unicode="&#xcc;" horiz-adv-x="240" 
d="M86 0v740h68v-740h-68zM130 787l-119 154h83l80 -154h-44z" />
    <glyph glyph-name="Iacute" unicode="&#xcd;" horiz-adv-x="240" 
d="M86 0v740h68v-740h-68zM66 787l81 154h82l-120 -154h-43z" />
    <glyph glyph-name="Icircumflex" unicode="&#xce;" horiz-adv-x="240" 
d="M86 0v740h68v-740h-68zM-14 783l110 158h47l110 -158h-42l-92 93l-91 -93h-42z" />
    <glyph glyph-name="Idieresis" unicode="&#xcf;" horiz-adv-x="240" 
d="M86 0v740h68v-740h-68zM161 786v80h70v-80h-70zM9 786v80h71v-80h-71z" />
    <glyph glyph-name="Eth" unicode="&#xd0;" horiz-adv-x="593" 
d="M80 362h-65v59h65v319h155q156 0 232.5 -90t76.5 -279t-77.5 -280t-231.5 -91h-155v362zM148 421h133v-59h-133v-300h98q117 0 173 74.5t56 234.5q0 157 -56.5 231.5t-173.5 74.5h-97v-256z" />
    <glyph glyph-name="Ntilde" unicode="&#xd1;" horiz-adv-x="621" 
d="M80 0v740h84l247 -480q13 -25 66 -131h2v611h62v-740h-63l-261 504q-50 96 -73 145h-2v-649h-62zM376 783q-28 0 -71 28t-58 28q-18 0 -26 -12t-8 -42h-44q0 109 77 109q28 0 71 -28t59 -28q34 0 34 54h42q0 -109 -76 -109z" />
    <glyph glyph-name="Ograve" unicode="&#xd2;" horiz-adv-x="621" 
d="M311 -14q-118 0 -190 102t-72 282t72 282t190 102q117 0 189 -102t72 -282t-72 -282t-189 -102zM311 48q89 0 140.5 85t51.5 237t-51.5 237t-140.5 85t-141.5 -85t-52.5 -237t52.5 -237t141.5 -85zM321 787l-119 154h83l80 -154h-44z" />
    <glyph glyph-name="Oacute" unicode="&#xd3;" horiz-adv-x="621" 
d="M311 -14q-118 0 -190 102t-72 282t72 282t190 102q117 0 189 -102t72 -282t-72 -282t-189 -102zM311 48q89 0 140.5 85t51.5 237t-51.5 237t-140.5 85t-141.5 -85t-52.5 -237t52.5 -237t141.5 -85zM257 787l81 154h82l-120 -154h-43z" />
    <glyph glyph-name="Ocircumflex" unicode="&#xd4;" horiz-adv-x="621" 
d="M311 -14q-118 0 -190 102t-72 282t72 282t190 102q117 0 189 -102t72 -282t-72 -282t-189 -102zM311 48q89 0 140.5 85t51.5 237t-51.5 237t-140.5 85t-141.5 -85t-52.5 -237t52.5 -237t141.5 -85zM177 783l110 158h47l110 -158h-42l-92 93l-91 -93h-42z" />
    <glyph glyph-name="Otilde" unicode="&#xd5;" horiz-adv-x="621" 
d="M311 -14q-118 0 -190 102t-72 282t72 282t190 102q117 0 189 -102t72 -282t-72 -282t-189 -102zM311 48q89 0 140.5 85t51.5 237t-51.5 237t-140.5 85t-141.5 -85t-52.5 -237t52.5 -237t141.5 -85zM376 783q-28 0 -71 28t-58 28q-18 0 -26 -12t-8 -42h-44q0 109 77 109
q28 0 71 -28t59 -28q34 0 34 54h42q0 -109 -76 -109z" />
    <glyph glyph-name="Odieresis" unicode="&#xd6;" horiz-adv-x="621" 
d="M311 -14q-118 0 -190 102t-72 282t72 282t190 102q117 0 189 -102t72 -282t-72 -282t-189 -102zM311 48q89 0 140.5 85t51.5 237t-51.5 237t-140.5 85t-141.5 -85t-52.5 -237t52.5 -237t141.5 -85zM352 786v80h70v-80h-70zM200 786v80h71v-80h-71z" />
    <glyph glyph-name="multiply" unicode="&#xd7;" horiz-adv-x="528" 
d="M103 129l-39 38l161 160l-161 160l39 39l160 -160l160 160l39 -39l-160 -160l160 -160l-39 -38l-160 160z" />
    <glyph glyph-name="Oslash" unicode="&#xd8;" horiz-adv-x="621" 
d="M490 665q82 -103 82 -295q0 -180 -72 -282t-189 -102q-82 0 -143 50l-41 -78l-45 24l48 93q-81 103 -81 295q0 180 72 282t190 102q82 0 141 -50l42 80l45 -24zM167 138l255 507q-45 47 -111 47q-89 0 -141.5 -85t-52.5 -237q0 -146 50 -232zM453 602l-256 -506
q47 -49 114 -49q89 0 141 85.5t52 237.5q0 149 -51 232z" />
    <glyph glyph-name="Ugrave" unicode="&#xd9;" horiz-adv-x="600" 
d="M300 -14q-116 0 -170.5 67.5t-54.5 186.5v500h68v-489q0 -100 36.5 -152t120.5 -52t121.5 52t37.5 150v491h65v-498q0 -116 -55.5 -186t-168.5 -70zM310 787l-119 154h83l80 -154h-44z" />
    <glyph glyph-name="Uacute" unicode="&#xda;" horiz-adv-x="600" 
d="M300 -14q-116 0 -170.5 67.5t-54.5 186.5v500h68v-489q0 -100 36.5 -152t120.5 -52t121.5 52t37.5 150v491h65v-498q0 -116 -55.5 -186t-168.5 -70zM246 787l81 154h82l-120 -154h-43z" />
    <glyph glyph-name="Ucircumflex" unicode="&#xdb;" horiz-adv-x="600" 
d="M300 -14q-116 0 -170.5 67.5t-54.5 186.5v500h68v-489q0 -100 36.5 -152t120.5 -52t121.5 52t37.5 150v491h65v-498q0 -116 -55.5 -186t-168.5 -70zM167 783l110 158h47l110 -158h-42l-92 93l-91 -93h-42z" />
    <glyph glyph-name="Udieresis" unicode="&#xdc;" horiz-adv-x="600" 
d="M300 -14q-116 0 -170.5 67.5t-54.5 186.5v500h68v-489q0 -100 36.5 -152t120.5 -52t121.5 52t37.5 150v491h65v-498q0 -116 -55.5 -186t-168.5 -70zM341 786v80h70v-80h-70zM189 786v80h71v-80h-71z" />
    <glyph glyph-name="Yacute" unicode="&#xdd;" horiz-adv-x="515" 
d="M223 0v309l-204 431h70l169 -368h2l169 368h66l-203 -429v-311h-69zM204 787l81 154h82l-120 -154h-43z" />
    <glyph glyph-name="Thorn" unicode="&#xde;" horiz-adv-x="549" 
d="M80 0v740h68v-138h135q104 0 162.5 -50.5t58.5 -152.5q0 -213 -228 -213h-128v-186h-68zM148 246h132q79 0 118 35.5t39 114.5q0 76 -39 110t-119 34h-131v-294z" />
    <glyph glyph-name="germandbls" unicode="&#xdf;" horiz-adv-x="517" 
d="M308 -11q-76 0 -124 41l34 46q37 -32 89 -32q48 0 77 40.5t29 121.5q0 92 -46.5 133t-145.5 46v53q69 1 104 36t35 92q0 56 -29.5 86.5t-82.5 30.5q-57 0 -86.5 -38t-29.5 -110v-535h-66v532q0 99 48.5 153.5t134.5 54.5q82 0 128 -44t46 -126q0 -57 -29.5 -99t-80.5 -56
q75 -12 120 -63t45 -144q0 -99 -44.5 -159t-125.5 -60z" />
    <glyph glyph-name="agrave" unicode="&#xe0;" horiz-adv-x="465" 
d="M165 -7q-59 0 -92 34.5t-33 95.5q0 163 296 224v36q0 97 -84 97q-83 0 -159 -76l-39 39q89 94 203 94q143 0 143 -154v-253q0 -91 13 -130h-66q-11 38 -11 69q-73 -76 -171 -76zM183 47q85 0 153 76v174q-232 -49 -232 -167q0 -83 79 -83zM242 583l-119 154h83l80 -154
h-44z" />
    <glyph glyph-name="aacute" unicode="&#xe1;" horiz-adv-x="465" 
d="M165 -7q-59 0 -92 34.5t-33 95.5q0 163 296 224v36q0 97 -84 97q-83 0 -159 -76l-39 39q89 94 203 94q143 0 143 -154v-253q0 -91 13 -130h-66q-11 38 -11 69q-73 -76 -171 -76zM183 47q85 0 153 76v174q-232 -49 -232 -167q0 -83 79 -83zM178 583l81 154h82l-120 -154
h-43z" />
    <glyph glyph-name="acircumflex" unicode="&#xe2;" horiz-adv-x="465" 
d="M165 -7q-59 0 -92 34.5t-33 95.5q0 163 296 224v36q0 97 -84 97q-83 0 -159 -76l-39 39q89 94 203 94q143 0 143 -154v-253q0 -91 13 -130h-66q-11 38 -11 69q-73 -76 -171 -76zM183 47q85 0 153 76v174q-232 -49 -232 -167q0 -83 79 -83zM98 579l110 158h47l110 -158
h-42l-92 93l-91 -93h-42z" />
    <glyph glyph-name="atilde" unicode="&#xe3;" horiz-adv-x="465" 
d="M165 -7q-59 0 -92 34.5t-33 95.5q0 163 296 224v36q0 97 -84 97q-83 0 -159 -76l-39 39q89 94 203 94q143 0 143 -154v-253q0 -91 13 -130h-66q-11 38 -11 69q-73 -76 -171 -76zM183 47q85 0 153 76v174q-232 -49 -232 -167q0 -83 79 -83zM297 579q-28 0 -71 28t-58 28
q-18 0 -26 -12t-8 -42h-44q0 109 77 109q28 0 71 -28t59 -28q34 0 34 54h42q0 -109 -76 -109z" />
    <glyph glyph-name="adieresis" unicode="&#xe4;" horiz-adv-x="465" 
d="M165 -7q-59 0 -92 34.5t-33 95.5q0 163 296 224v36q0 97 -84 97q-83 0 -159 -76l-39 39q89 94 203 94q143 0 143 -154v-253q0 -91 13 -130h-66q-11 38 -11 69q-73 -76 -171 -76zM183 47q85 0 153 76v174q-232 -49 -232 -167q0 -83 79 -83zM273 582v80h70v-80h-70z
M121 582v80h71v-80h-71z" />
    <glyph glyph-name="aring" unicode="&#xe5;" horiz-adv-x="465" 
d="M165 -7q-59 0 -92 34.5t-33 95.5q0 163 296 224v36q0 97 -84 97q-83 0 -159 -76l-39 39q89 94 203 94q143 0 143 -154v-253q0 -91 13 -130h-66q-11 38 -11 69q-73 -76 -171 -76zM183 47q85 0 153 76v174q-232 -49 -232 -167q0 -83 79 -83zM231 574q-36 0 -58.5 26.5
t-22.5 66.5t22.5 66t58.5 26t59 -26t23 -66t-22.5 -66.5t-59.5 -26.5zM231 609q20 0 32 16.5t12 41.5q0 24 -12 40t-32 16t-31.5 -16t-11.5 -40q0 -25 11.5 -41.5t31.5 -16.5z" />
    <glyph glyph-name="ae" unicode="&#xe6;" horiz-adv-x="755" 
d="M368 96q-35 -43 -87.5 -74.5t-115.5 -31.5q-59 0 -92 35t-33 96q0 165 296 226v36q0 97 -84 97q-83 0 -159 -76l-39 39q89 94 204 94q104 0 126 -91q27 44 66 67.5t81 23.5q87 0 135 -69.5t48 -198.5v-15h-316q2 -100 38 -154.5t97 -54.5q45 0 73.5 25.5t52.5 76.5
l49 -27q-58 -131 -179 -131q-111 0 -161 107zM399 307h251q-4 79 -34 126.5t-86 47.5q-51 0 -87.5 -44t-43.5 -130zM338 297q-234 -50 -234 -169q0 -83 79 -83q86 0 169 93q-16 56 -16 126q0 13 2 33z" />
    <glyph glyph-name="ccedilla" unicode="&#xe7;" horiz-adv-x="450" 
d="M201 -8q-71 16 -115 86.5t-44 184.5q0 134 56.5 204t143.5 70q70 0 109 -41t61 -111l-60 -17q-17 55 -42.5 83.5t-69.5 28.5q-57 0 -94.5 -55t-37.5 -161q0 -100 35.5 -159t96.5 -59q87 0 118 113l58 -17q-45 -150 -175 -153l-12 -44q20 15 47 15t46 -17t19 -51
q0 -44 -33 -68.5t-81 -24.5q-62 0 -109 36l22 35q42 -29 87 -29q63 0 63 47q0 35 -37 35q-22 0 -44 -20l-29 13z" />
    <glyph glyph-name="egrave" unicode="&#xe8;" horiz-adv-x="464" 
d="M238 -11q-87 0 -141.5 71.5t-54.5 203.5t57 202.5t141 70.5q87 0 135 -69.5t48 -198.5v-15h-316q2 -100 38 -154.5t97 -54.5q45 0 73.5 25.5t52.5 76.5l49 -27q-58 -131 -179 -131zM108 307h250q-4 79 -33.5 126.5t-85.5 47.5q-51 0 -87.5 -44t-43.5 -130zM242 583
l-119 154h83l80 -154h-44z" />
    <glyph glyph-name="eacute" unicode="&#xe9;" horiz-adv-x="464" 
d="M238 -11q-87 0 -141.5 71.5t-54.5 203.5t57 202.5t141 70.5q87 0 135 -69.5t48 -198.5v-15h-316q2 -100 38 -154.5t97 -54.5q45 0 73.5 25.5t52.5 76.5l49 -27q-58 -131 -179 -131zM108 307h250q-4 79 -33.5 126.5t-85.5 47.5q-51 0 -87.5 -44t-43.5 -130zM178 583
l81 154h82l-120 -154h-43z" />
    <glyph glyph-name="ecircumflex" unicode="&#xea;" horiz-adv-x="464" 
d="M238 -11q-87 0 -141.5 71.5t-54.5 203.5t57 202.5t141 70.5q87 0 135 -69.5t48 -198.5v-15h-316q2 -100 38 -154.5t97 -54.5q45 0 73.5 25.5t52.5 76.5l49 -27q-58 -131 -179 -131zM108 307h250q-4 79 -33.5 126.5t-85.5 47.5q-51 0 -87.5 -44t-43.5 -130zM98 579
l110 158h47l110 -158h-42l-92 93l-91 -93h-42z" />
    <glyph glyph-name="edieresis" unicode="&#xeb;" horiz-adv-x="464" 
d="M238 -11q-87 0 -141.5 71.5t-54.5 203.5t57 202.5t141 70.5q87 0 135 -69.5t48 -198.5v-15h-316q2 -100 38 -154.5t97 -54.5q45 0 73.5 25.5t52.5 76.5l49 -27q-58 -131 -179 -131zM108 307h250q-4 79 -33.5 126.5t-85.5 47.5q-51 0 -87.5 -44t-43.5 -130zM273 582v80h70
v-80h-70zM121 582v80h71v-80h-71z" />
    <glyph glyph-name="igrave" unicode="&#xec;" horiz-adv-x="211" 
d="M73 0v526h65v-526h-65zM90 583l-119 154h83l80 -154h-44z" />
    <glyph glyph-name="iacute" unicode="&#xed;" horiz-adv-x="211" 
d="M73 0v526h65v-526h-65zM78 583l81 154h82l-120 -154h-43z" />
    <glyph glyph-name="icircumflex" unicode="&#xee;" horiz-adv-x="211" 
d="M73 0v526h65v-526h-65zM-28 579l110 158h47l110 -158h-42l-92 93l-91 -93h-42z" />
    <glyph glyph-name="idieresis" unicode="&#xef;" horiz-adv-x="211" 
d="M73 0v526h65v-526h-65zM147 582v80h70v-80h-70zM-5 582v80h71v-80h-71z" />
    <glyph glyph-name="eth" unicode="&#xf0;" horiz-adv-x="489" 
d="M292 610l-75 -43l-24 43l66 39q-25 27 -61 55l37 41q42 -31 75 -66l77 44l24 -43l-68 -40q104 -137 104 -375q0 -133 -56.5 -204.5t-145.5 -71.5q-91 0 -147 72.5t-56 197.5q0 126 54 195.5t143 69.5q41 0 76.5 -20.5t54.5 -59.5q-25 96 -78 166zM245 45q65 0 100.5 59
t35.5 156q0 93 -35 151.5t-101 58.5t-101.5 -57t-35.5 -153q0 -94 34.5 -154.5t102.5 -60.5z" />
    <glyph glyph-name="ntilde" unicode="&#xf1;" horiz-adv-x="495" 
d="M68 0v526h65v-74q32 35 77 60t92 25q130 0 130 -146v-391h-65v380q0 51 -19 75.5t-63 24.5q-70 0 -152 -82v-398h-65zM313 579q-28 0 -71 28t-58 28q-18 0 -26 -12t-8 -42h-44q0 109 77 109q28 0 71 -28t59 -28q34 0 34 54h42q0 -109 -76 -109z" />
    <glyph glyph-name="ograve" unicode="&#xf2;" horiz-adv-x="489" 
d="M245 -11q-90 0 -146.5 72.5t-56.5 201.5q0 130 56 202t147 72q90 0 146 -72t56 -202q0 -129 -56 -201.5t-146 -72.5zM245 45q66 0 101 59.5t35 159.5q0 94 -34.5 155t-101.5 61q-66 0 -101.5 -59t-35.5 -157q0 -96 34.5 -157.5t102.5 -61.5zM255 583l-119 154h83l80 -154
h-44z" />
    <glyph glyph-name="oacute" unicode="&#xf3;" horiz-adv-x="489" 
d="M245 -11q-90 0 -146.5 72.5t-56.5 201.5q0 130 56 202t147 72q90 0 146 -72t56 -202q0 -129 -56 -201.5t-146 -72.5zM245 45q66 0 101 59.5t35 159.5q0 94 -34.5 155t-101.5 61q-66 0 -101.5 -59t-35.5 -157q0 -96 34.5 -157.5t102.5 -61.5zM191 583l81 154h82l-120 -154
h-43z" />
    <glyph glyph-name="ocircumflex" unicode="&#xf4;" horiz-adv-x="489" 
d="M245 -11q-90 0 -146.5 72.5t-56.5 201.5q0 130 56 202t147 72q90 0 146 -72t56 -202q0 -129 -56 -201.5t-146 -72.5zM245 45q66 0 101 59.5t35 159.5q0 94 -34.5 155t-101.5 61q-66 0 -101.5 -59t-35.5 -157q0 -96 34.5 -157.5t102.5 -61.5zM111 579l110 158h47l110 -158
h-42l-92 93l-91 -93h-42z" />
    <glyph glyph-name="otilde" unicode="&#xf5;" horiz-adv-x="489" 
d="M245 -11q-90 0 -146.5 72.5t-56.5 201.5q0 130 56 202t147 72q90 0 146 -72t56 -202q0 -129 -56 -201.5t-146 -72.5zM245 45q66 0 101 59.5t35 159.5q0 94 -34.5 155t-101.5 61q-66 0 -101.5 -59t-35.5 -157q0 -96 34.5 -157.5t102.5 -61.5zM310 579q-28 0 -71 28t-58 28
q-18 0 -26 -12t-8 -42h-44q0 109 77 109q28 0 71 -28t59 -28q34 0 34 54h42q0 -109 -76 -109z" />
    <glyph glyph-name="odieresis" unicode="&#xf6;" horiz-adv-x="489" 
d="M245 -11q-90 0 -146.5 72.5t-56.5 201.5q0 130 56 202t147 72q90 0 146 -72t56 -202q0 -129 -56 -201.5t-146 -72.5zM245 45q66 0 101 59.5t35 159.5q0 94 -34.5 155t-101.5 61q-66 0 -101.5 -59t-35.5 -157q0 -96 34.5 -157.5t102.5 -61.5zM286 582v80h70v-80h-70z
M134 582v80h71v-80h-71z" />
    <glyph glyph-name="divide" unicode="&#xf7;" horiz-adv-x="528" 
d="M226 461v85h74v-85h-74zM47 299v57h433v-57h-433zM226 108v85h74v-85h-74z" />
    <glyph glyph-name="oslash" unicode="&#xf8;" horiz-adv-x="489" 
d="M395 459q52 -72 52 -196q0 -129 -56 -201.5t-146 -72.5q-67 0 -118 42l-46 -72l-40 25l53 84q-52 72 -52 195q0 130 56 202t147 72q69 0 117 -42l45 72l40 -25zM133 124l197 318q-33 39 -85 39q-66 0 -102 -59.5t-36 -157.5q0 -84 26 -140zM356 402l-198 -317
q32 -40 87 -40q66 0 101.5 59.5t35.5 159.5q0 83 -26 138z" />
    <glyph glyph-name="ugrave" unicode="&#xf9;" horiz-adv-x="495" 
d="M194 -11q-131 0 -131 146v391h65v-380q0 -51 19.5 -75.5t64.5 -24.5q70 0 151 83v397h65v-526h-65v75q-82 -86 -169 -86zM258 583l-119 154h83l80 -154h-44z" />
    <glyph glyph-name="uacute" unicode="&#xfa;" horiz-adv-x="495" 
d="M194 -11q-131 0 -131 146v391h65v-380q0 -51 19.5 -75.5t64.5 -24.5q70 0 151 83v397h65v-526h-65v75q-82 -86 -169 -86zM194 583l81 154h82l-120 -154h-43z" />
    <glyph glyph-name="ucircumflex" unicode="&#xfb;" horiz-adv-x="495" 
d="M194 -11q-131 0 -131 146v391h65v-380q0 -51 19.5 -75.5t64.5 -24.5q70 0 151 83v397h65v-526h-65v75q-82 -86 -169 -86zM114 579l110 158h47l110 -158h-42l-92 93l-91 -93h-42z" />
    <glyph glyph-name="udieresis" unicode="&#xfc;" horiz-adv-x="495" 
d="M194 -11q-131 0 -131 146v391h65v-380q0 -51 19.5 -75.5t64.5 -24.5q70 0 151 83v397h65v-526h-65v75q-82 -86 -169 -86zM288 582v80h70v-80h-70zM136 582v80h71v-80h-71z" />
    <glyph glyph-name="yacute" unicode="&#xfd;" horiz-adv-x="449" 
d="M81 -201q-41 0 -72 11l13 53q23 -7 61 -7q35 0 53.5 20.5t33.5 68.5l17 50l-164 531h66l86 -290q32 -111 44 -159h2q24 88 47 165l84 284h62l-181 -586q-25 -77 -57 -109t-95 -32zM170 583l81 154h82l-120 -154h-43z" />
    <glyph glyph-name="thorn" unicode="&#xfe;" horiz-adv-x="502" 
d="M68 -200v939h65v-280q66 78 146 78q82 0 131.5 -68t49.5 -205t-50.5 -205t-133.5 -68q-82 0 -143 75v-266h-65zM267 48q59 0 93 52.5t34 162.5q0 108 -35 162.5t-93 54.5q-65 0 -133 -79v-276q65 -77 134 -77z" />
    <glyph glyph-name="ydieresis" unicode="&#xff;" horiz-adv-x="449" 
d="M81 -201q-41 0 -72 11l13 53q23 -7 61 -7q35 0 53.5 20.5t33.5 68.5l17 50l-164 531h66l86 -290q32 -111 44 -159h2q24 88 47 165l84 284h62l-181 -586q-25 -77 -57 -109t-95 -32zM264 582v80h70v-80h-70zM112 582v80h71v-80h-71z" />
    <glyph glyph-name="Amacron" unicode="&#x100;" horiz-adv-x="556" 
d="M159 229l-65 -229h-64l217 743h62l217 -743h-68l-65 229h-234zM376 289l-34 121q-36 124 -65 233h-2q-21 -80 -64 -232l-35 -122h200zM155 799v57h245v-57h-245z" />
    <glyph glyph-name="amacron" unicode="&#x101;" horiz-adv-x="465" 
d="M165 -7q-59 0 -92 34.5t-33 95.5q0 163 296 224v36q0 97 -84 97q-83 0 -159 -76l-39 39q89 94 203 94q143 0 143 -154v-253q0 -91 13 -130h-66q-11 38 -11 69q-73 -76 -171 -76zM183 47q85 0 153 76v174q-232 -49 -232 -167q0 -83 79 -83zM113 595v57h245v-57h-245z" />
    <glyph glyph-name="Abreve" unicode="&#x102;" horiz-adv-x="556" 
d="M159 229l-65 -229h-64l217 743h62l217 -743h-68l-65 229h-234zM376 289l-34 121q-36 124 -65 233h-2q-21 -80 -64 -232l-35 -122h200zM278 779q-59 0 -91.5 42.5t-36.5 119.5h44q11 -109 84 -109q74 0 84 109h44q-3 -76 -36 -119t-92 -43z" />
    <glyph glyph-name="abreve" unicode="&#x103;" horiz-adv-x="465" 
d="M165 -7q-59 0 -92 34.5t-33 95.5q0 163 296 224v36q0 97 -84 97q-83 0 -159 -76l-39 39q89 94 203 94q143 0 143 -154v-253q0 -91 13 -130h-66q-11 38 -11 69q-73 -76 -171 -76zM183 47q85 0 153 76v174q-232 -49 -232 -167q0 -83 79 -83zM232 579q-59 0 -91.5 42.5
t-36.5 119.5h44q11 -109 84 -109q74 0 84 109h44q-3 -76 -36 -119t-92 -43z" />
    <glyph glyph-name="Aogonek" unicode="&#x104;" horiz-adv-x="556" 
d="M393 229h-234l-65 -229h-64l217 743h62l217 -743h-19q-65 -49 -65 -100q0 -48 46 -48q36 0 79 24l18 -29q-51 -35 -111 -35q-41 0 -62.5 20.5t-21.5 56.5q0 58 68 111zM376 289l-34 121q-36 124 -65 233h-2q-21 -80 -64 -232l-35 -122h200z" />
    <glyph glyph-name="aogonek" unicode="&#x105;" horiz-adv-x="465" 
d="M165 -7q-59 0 -92 34.5t-33 95.5q0 163 296 224v36q0 97 -84 97q-83 0 -159 -76l-39 39q89 94 203 94q143 0 143 -154v-253q0 -91 13 -130h-15q-31 -17 -50.5 -44t-19.5 -56q0 -48 45 -48q35 0 79 24l18 -29q-51 -35 -110 -35q-41 0 -63 20.5t-22 56.5q0 59 72 113
q-11 37 -11 67q-73 -76 -171 -76zM183 47q85 0 153 76v174q-232 -49 -232 -167q0 -83 79 -83z" />
    <glyph glyph-name="Cacute" unicode="&#x106;" horiz-adv-x="582" 
d="M307 -14q-121 0 -189.5 100t-68.5 286q0 180 69.5 281t189.5 101q177 0 223 -229l-63 -12q-19 90 -57 134.5t-105 44.5q-89 0 -139 -85.5t-50 -233.5q0 -155 50 -240t141 -85q68 0 108.5 45t61.5 142l61 -10q-23 -111 -80.5 -175t-151.5 -64zM247 787l81 154h82
l-120 -154h-43z" />
    <glyph glyph-name="cacute" unicode="&#x107;" horiz-adv-x="450" 
d="M237 -11q-85 0 -140 73t-55 201q0 134 56.5 204t143.5 70q70 0 109 -41t61 -111l-60 -17q-17 55 -42.5 83.5t-69.5 28.5q-57 0 -94.5 -55t-37.5 -161q0 -100 35.5 -159t96.5 -59q87 0 118 113l58 -17q-47 -153 -179 -153zM175 583l81 154h82l-120 -154h-43z" />
    <glyph glyph-name="Ccircumflex" unicode="&#x108;" horiz-adv-x="582" 
d="M170 782l110 158h47l110 -158h-42l-92 93l-91 -93h-42zM307 -14q-121 0 -189.5 100t-68.5 286q0 180 69.5 281t189.5 101q177 0 223 -229l-63 -12q-19 90 -57 134.5t-105 44.5q-89 0 -139 -85.5t-50 -233.5q0 -155 50 -240t141 -85q68 0 108.5 45t61.5 142l61 -10
q-23 -111 -80.5 -175t-151.5 -64z" />
    <glyph glyph-name="ccircumflex" unicode="&#x109;" horiz-adv-x="450" 
d="M98 579l110 158h47l110 -158h-42l-92 93l-91 -93h-42zM237 -11q-85 0 -140 73t-55 201q0 134 56.5 204t143.5 70q70 0 109 -41t61 -111l-60 -17q-17 55 -42.5 83.5t-69.5 28.5q-57 0 -94.5 -55t-37.5 -161q0 -100 35.5 -159t96.5 -59q87 0 118 113l58 -17
q-47 -153 -179 -153z" />
    <glyph glyph-name="Cdotaccent" unicode="&#x10a;" horiz-adv-x="582" 
d="M307 -14q-121 0 -189.5 100t-68.5 286q0 180 69.5 281t189.5 101q177 0 223 -229l-63 -12q-19 90 -57 134.5t-105 44.5q-89 0 -139 -85.5t-50 -233.5q0 -155 50 -240t141 -85q68 0 108.5 45t61.5 142l61 -10q-23 -111 -80.5 -175t-151.5 -64zM264 787v79h79v-79h-79z" />
    <glyph glyph-name="cdotaccent" unicode="&#x10b;" horiz-adv-x="450" 
d="M237 -11q-85 0 -140 73t-55 201q0 134 56.5 204t143.5 70q70 0 109 -41t61 -111l-60 -17q-17 55 -42.5 83.5t-69.5 28.5q-57 0 -94.5 -55t-37.5 -161q0 -100 35.5 -159t96.5 -59q87 0 118 113l58 -17q-47 -153 -179 -153zM193 583v79h79v-79h-79z" />
    <glyph glyph-name="Ccaron" unicode="&#x10c;" horiz-adv-x="582" 
d="M307 -14q-121 0 -189.5 100t-68.5 286q0 180 69.5 281t189.5 101q177 0 223 -229l-63 -12q-19 90 -57 134.5t-105 44.5q-89 0 -139 -85.5t-50 -233.5q0 -155 50 -240t141 -85q68 0 108.5 45t61.5 142l61 -10q-23 -111 -80.5 -175t-151.5 -64zM274 786l-110 158h43l92 -95
l91 95h41l-110 -158h-47z" />
    <glyph glyph-name="ccaron" unicode="&#x10d;" horiz-adv-x="450" 
d="M237 -11q-85 0 -140 73t-55 201q0 134 56.5 204t143.5 70q70 0 109 -41t61 -111l-60 -17q-17 55 -42.5 83.5t-69.5 28.5q-57 0 -94.5 -55t-37.5 -161q0 -100 35.5 -159t96.5 -59q87 0 118 113l58 -17q-47 -153 -179 -153zM205 582l-110 158h43l92 -95l91 95h41l-110 -158
h-47z" />
    <glyph glyph-name="Dcaron" unicode="&#x10e;" horiz-adv-x="593" 
d="M80 0v740h155q156 0 232.5 -90t76.5 -279t-77.5 -280t-231.5 -91h-155zM148 62h98q117 0 173 74.5t56 234.5q0 157 -56.5 231.5t-173.5 74.5h-97v-615zM258 781l-110 158h43l92 -95l91 95h41l-110 -158h-47z" />
    <glyph glyph-name="dcaron" unicode="&#x10f;" horiz-adv-x="559" 
d="M224 -9q-82 0 -131.5 67.5t-49.5 204.5t51 205.5t133 68.5q84 0 144 -77v280h65v-610q0 -95 13 -130h-68q-10 36 -10 69q-66 -78 -147 -78zM238 48q66 0 133 76v277q-66 79 -135 79q-58 0 -92.5 -54t-34.5 -163q0 -108 35 -161.5t94 -53.5zM509 546l25 101h-31v93h79v-86
l-42 -108h-31z" />
    <glyph glyph-name="Dcroat" unicode="&#x110;" horiz-adv-x="593" 
d="M80 362h-65v59h65v319h155q156 0 232.5 -90t76.5 -279t-77.5 -280t-231.5 -91h-155v362zM148 421h133v-59h-133v-300h98q117 0 173 74.5t56 234.5q0 157 -56.5 231.5t-173.5 74.5h-97v-256z" />
    <glyph glyph-name="dcroat" unicode="&#x111;" horiz-adv-x="502" 
d="M371 597h-107v57h107v86h65v-86h53v-57h-53v-467q0 -95 13 -130h-68q-10 36 -10 69q-66 -78 -147 -78q-82 0 -131.5 67t-49.5 204t50 206t132 69q85 0 146 -79v139zM238 47q64 0 133 76v277q-69 80 -135 80q-58 0 -92.5 -54t-34.5 -163q0 -108 35 -162t94 -54z" />
    <glyph glyph-name="Emacron" unicode="&#x112;" horiz-adv-x="504" 
d="M80 0v740h367v-63h-299v-254h220v-62h-220v-299h317v-62h-385zM140 799v57h245v-57h-245z" />
    <glyph glyph-name="emacron" unicode="&#x113;" horiz-adv-x="464" 
d="M238 -11q-87 0 -141.5 71.5t-54.5 203.5t57 202.5t141 70.5q87 0 135 -69.5t48 -198.5v-15h-316q2 -100 38 -154.5t97 -54.5q45 0 73.5 25.5t52.5 76.5l49 -27q-58 -131 -179 -131zM108 307h250q-4 79 -33.5 126.5t-85.5 47.5q-51 0 -87.5 -44t-43.5 -130zM111 595v57
h245v-57h-245z" />
    <glyph glyph-name="Ebreve" unicode="&#x114;" horiz-adv-x="504" 
d="M80 0v740h367v-63h-299v-254h220v-62h-220v-299h317v-62h-385zM266 781q-59 0 -91.5 42.5t-36.5 119.5h44q11 -109 84 -109q74 0 84 109h44q-3 -76 -36 -119t-92 -43z" />
    <glyph glyph-name="ebreve" unicode="&#x115;" horiz-adv-x="464" 
d="M238 -11q-87 0 -141.5 71.5t-54.5 203.5t57 202.5t141 70.5q87 0 135 -69.5t48 -198.5v-15h-316q2 -100 38 -154.5t97 -54.5q45 0 73.5 25.5t52.5 76.5l49 -27q-58 -131 -179 -131zM108 307h250q-4 79 -33.5 126.5t-85.5 47.5q-51 0 -87.5 -44t-43.5 -130zM236 579
q-59 0 -91.5 42.5t-36.5 119.5h44q11 -109 84 -109q74 0 84 109h44q-3 -76 -36 -119t-92 -43z" />
    <glyph glyph-name="Edotaccent" unicode="&#x116;" horiz-adv-x="504" 
d="M80 0v740h367v-63h-299v-254h220v-62h-220v-299h317v-62h-385zM230 787v79h79v-79h-79z" />
    <glyph glyph-name="edotaccent" unicode="&#x117;" horiz-adv-x="464" 
d="M238 -11q-87 0 -141.5 71.5t-54.5 203.5t57 202.5t141 70.5q87 0 135 -69.5t48 -198.5v-15h-316q2 -100 38 -154.5t97 -54.5q45 0 73.5 25.5t52.5 76.5l49 -27q-58 -131 -179 -131zM108 307h250q-4 79 -33.5 126.5t-85.5 47.5q-51 0 -87.5 -44t-43.5 -130zM192 583v79h79
v-79h-79z" />
    <glyph glyph-name="Eogonek" unicode="&#x118;" horiz-adv-x="504" 
d="M337 0h-257v740h367v-63h-299v-254h220v-62h-220v-299h317v-62h-35q-39 0 -73.5 -28t-34.5 -72q0 -48 46 -48q36 0 79 24l18 -29q-51 -35 -111 -35q-41 0 -63 20.5t-22 56.5q0 56 68 111z" />
    <glyph glyph-name="eogonek" unicode="&#x119;" horiz-adv-x="464" 
d="M329 8q-64 -56 -64 -108q0 -48 46 -48q34 0 79 24l17 -29q-51 -35 -110 -35q-41 0 -63 20.5t-22 56.5q0 53 59 103q-15 -3 -33 -3q-87 0 -141.5 71.5t-54.5 203.5t57 202.5t141 70.5q87 0 135 -69.5t48 -198.5v-12h-316q2 -102 38 -157.5t97 -55.5q45 0 74.5 26.5
t50.5 77.5l49 -26q-17 -39 -34.5 -61t-52.5 -53zM108 307h250q-4 80 -33.5 127.5t-85.5 47.5q-50 0 -87 -44.5t-44 -130.5z" />
    <glyph glyph-name="Ecaron" unicode="&#x11a;" horiz-adv-x="504" 
d="M80 0v740h367v-63h-299v-254h220v-62h-220v-299h317v-62h-385zM242 781l-110 158h43l92 -95l91 95h41l-110 -158h-47z" />
    <glyph glyph-name="ecaron" unicode="&#x11b;" horiz-adv-x="464" 
d="M238 -11q-87 0 -141.5 71.5t-54.5 203.5t57 202.5t141 70.5q87 0 135 -69.5t48 -198.5v-15h-316q2 -100 38 -154.5t97 -54.5q45 0 73.5 25.5t52.5 76.5l49 -27q-58 -131 -179 -131zM108 307h250q-4 79 -33.5 126.5t-85.5 47.5q-51 0 -87.5 -44t-43.5 -130zM208 582
l-110 158h43l92 -95l91 95h41l-110 -158h-47z" />
    <glyph glyph-name="Gcircumflex" unicode="&#x11c;" horiz-adv-x="605" 
d="M169 782l110 158h47l110 -158h-42l-92 93l-91 -93h-42zM303 -14q-121 0 -187.5 101t-66.5 286q0 178 69 279.5t190 101.5q175 0 223 -229l-62 -13q-20 91 -58.5 135.5t-104.5 44.5q-88 0 -138.5 -84t-50.5 -234q0 -158 50 -242t142 -84q79 0 122.5 61.5t44.5 178.5h-149
v60h210v-348h-57v102h-1q-21 -49 -65.5 -82.5t-110.5 -33.5z" />
    <glyph glyph-name="gcircumflex" unicode="&#x11d;" horiz-adv-x="485" 
d="M100 579l110 158h47l110 -158h-42l-92 93l-91 -93h-42zM355 484q42 37 103 48v-64q-42 0 -81 -16q26 -43 26 -105q0 -86 -49.5 -137t-126.5 -51q-44 0 -73 14q-34 -20 -34 -46q0 -16 13.5 -24.5t51.5 -13.5l85 -11q92 -12 132 -42.5t40 -89.5q0 -68 -61.5 -107
t-158.5 -39q-204 0 -204 129q0 81 87 121q-44 24 -44 65q0 22 15.5 43.5t39.5 35.5q-69 53 -69 153q0 84 50.5 137t128.5 53q79 0 129 -53zM227 211q54 0 84 36.5t30 98.5q0 65 -30 101.5t-85 36.5q-54 0 -84.5 -37.5t-30.5 -100.5q0 -62 31 -98.5t85 -36.5zM155 35
q-75 -32 -75 -98q0 -43 33.5 -65t114.5 -22q68 0 110 24t42 64q0 36 -26.5 55.5t-93.5 28.5l-89 11q-10 2 -16 2z" />
    <glyph glyph-name="Gbreve" unicode="&#x11e;" horiz-adv-x="605" 
d="M303 -14q-121 0 -187.5 101t-66.5 286q0 178 69 279.5t190 101.5q175 0 223 -229l-62 -13q-20 91 -58.5 135.5t-104.5 44.5q-88 0 -138.5 -84t-50.5 -234q0 -158 50 -242t142 -84q79 0 122.5 61.5t44.5 178.5h-149v60h210v-348h-57v102h-1q-21 -49 -65.5 -82.5
t-110.5 -33.5zM306 783q-59 0 -91.5 42.5t-36.5 119.5h44q11 -109 84 -109q74 0 84 109h44q-3 -76 -36 -119t-92 -43z" />
    <glyph glyph-name="gbreve" unicode="&#x11f;" horiz-adv-x="485" 
d="M355 484q42 37 103 48v-64q-42 0 -81 -16q26 -43 26 -105q0 -86 -49.5 -137t-126.5 -51q-44 0 -73 14q-34 -20 -34 -46q0 -16 13.5 -24.5t51.5 -13.5l85 -11q92 -12 132 -42.5t40 -89.5q0 -68 -61.5 -107t-158.5 -39q-204 0 -204 129q0 81 87 121q-44 24 -44 65
q0 22 15.5 43.5t39.5 35.5q-69 53 -69 153q0 84 50.5 137t128.5 53q79 0 129 -53zM227 211q54 0 84 36.5t30 98.5q0 65 -30 101.5t-85 36.5q-54 0 -84.5 -37.5t-30.5 -100.5q0 -62 31 -98.5t85 -36.5zM155 35q-75 -32 -75 -98q0 -43 33.5 -65t114.5 -22q68 0 110 24t42 64
q0 36 -26.5 55.5t-93.5 28.5l-89 11q-10 2 -16 2zM235 579q-59 0 -91.5 42.5t-36.5 119.5h44q11 -109 84 -109q74 0 84 109h44q-3 -76 -36 -119t-92 -43z" />
    <glyph glyph-name="Gdotaccent" unicode="&#x120;" horiz-adv-x="605" 
d="M303 -14q-121 0 -187.5 101t-66.5 286q0 178 69 279.5t190 101.5q175 0 223 -229l-62 -13q-20 91 -58.5 135.5t-104.5 44.5q-88 0 -138.5 -84t-50.5 -234q0 -158 50 -242t142 -84q79 0 122.5 61.5t44.5 178.5h-149v60h210v-348h-57v102h-1q-21 -49 -65.5 -82.5
t-110.5 -33.5zM265 787v79h79v-79h-79z" />
    <glyph glyph-name="gdotaccent" unicode="&#x121;" horiz-adv-x="485" 
d="M355 484q42 37 103 48v-64q-42 0 -81 -16q26 -43 26 -105q0 -86 -49.5 -137t-126.5 -51q-44 0 -73 14q-34 -20 -34 -46q0 -16 13.5 -24.5t51.5 -13.5l85 -11q92 -12 132 -42.5t40 -89.5q0 -68 -61.5 -107t-158.5 -39q-204 0 -204 129q0 81 87 121q-44 24 -44 65
q0 22 15.5 43.5t39.5 35.5q-69 53 -69 153q0 84 50.5 137t128.5 53q79 0 129 -53zM227 211q54 0 84 36.5t30 98.5q0 65 -30 101.5t-85 36.5q-54 0 -84.5 -37.5t-30.5 -100.5q0 -62 31 -98.5t85 -36.5zM155 35q-75 -32 -75 -98q0 -43 33.5 -65t114.5 -22q68 0 110 24t42 64
q0 36 -26.5 55.5t-93.5 28.5l-89 11q-10 2 -16 2zM192 583v79h79v-79h-79z" />
    <glyph glyph-name="Gcommaaccent" unicode="&#x122;" horiz-adv-x="605" 
d="M283 -227l22 92h-30v86h74v-79l-37 -99h-29zM303 -14q-121 0 -187.5 101t-66.5 286q0 178 69 279.5t190 101.5q175 0 223 -229l-62 -13q-20 91 -58.5 135.5t-104.5 44.5q-88 0 -138.5 -84t-50.5 -234q0 -158 50 -242t142 -84q79 0 122.5 61.5t44.5 178.5h-149v60h210
v-348h-57v102h-1q-21 -49 -65.5 -82.5t-110.5 -33.5z" />
    <glyph glyph-name="gcommaaccent" unicode="&#x123;" horiz-adv-x="485" 
d="M259 758l-22 -91h29v-83h-71v76l36 98h28zM355 484q42 37 103 48v-64q-42 0 -81 -16q26 -43 26 -105q0 -86 -49.5 -137t-126.5 -51q-44 0 -73 14q-34 -20 -34 -46q0 -16 13.5 -24.5t51.5 -13.5l85 -11q92 -12 132 -42.5t40 -89.5q0 -68 -61.5 -107t-158.5 -39
q-204 0 -204 129q0 81 87 121q-44 24 -44 65q0 22 15.5 43.5t39.5 35.5q-69 53 -69 153q0 84 50.5 137t128.5 53q79 0 129 -53zM227 211q54 0 84 36.5t30 98.5q0 65 -30 101.5t-85 36.5q-54 0 -84.5 -37.5t-30.5 -100.5q0 -62 31 -98.5t85 -36.5zM155 35q-75 -32 -75 -98
q0 -43 33.5 -65t114.5 -22q68 0 110 24t42 64q0 36 -26.5 55.5t-93.5 28.5l-89 11q-10 2 -16 2z" />
    <glyph glyph-name="Hcircumflex" unicode="&#x124;" horiz-adv-x="614" 
d="M173 782l110 158h47l110 -158h-42l-92 93l-91 -93h-42zM80 0v740h68v-317h318v317h68v-740h-68v360h-318v-360h-68z" />
    <glyph glyph-name="hcircumflex" unicode="&#x125;" horiz-adv-x="495" 
d="M-31 782l110 158h47l110 -158h-42l-92 93l-91 -93h-42zM68 0v740h65v-288q32 35 77 60t92 25q130 0 130 -146v-391h-65v380q0 51 -19 75.5t-63 24.5q-70 0 -152 -82v-398h-65z" />
    <glyph glyph-name="Hbar" unicode="&#x126;" horiz-adv-x="614" 
d="M11 551v60h69v129h68v-129h318v129h68v-129h69v-60h-69v-551h-68v362h-318v-362h-68v551h-69zM148 421h318v130h-318v-130z" />
    <glyph glyph-name="hbar" unicode="&#x127;" horiz-adv-x="495" 
d="M68 0v597h-53v57h53v86h65v-86h107v-57h-107v-145q32 35 77 60t92 25q130 0 130 -146v-391h-65v380q0 51 -19 75.5t-63 24.5q-70 0 -152 -82v-398h-65z" />
    <glyph glyph-name="Itilde" unicode="&#x128;" horiz-adv-x="240" 
d="M86 0v740h68v-740h-68zM187 782q-28 0 -71 28t-58 28q-18 0 -26 -12t-8 -42h-44q0 109 77 109q28 0 71 -28t59 -28q34 0 34 54h42q0 -109 -76 -109z" />
    <glyph glyph-name="itilde" unicode="&#x129;" horiz-adv-x="211" 
d="M73 0v526h65v-526h-65zM172 579q-28 0 -71 28t-58 28q-18 0 -26 -12t-8 -42h-44q0 109 77 109q28 0 71 -28t59 -28q34 0 34 54h42q0 -109 -76 -109z" />
    <glyph glyph-name="Imacron" unicode="&#x12a;" horiz-adv-x="240" 
d="M86 0v740h68v-740h-68zM-3 799v57h245v-57h-245z" />
    <glyph glyph-name="imacron" unicode="&#x12b;" horiz-adv-x="211" 
d="M73 0v526h65v-526h-65zM-17 595v57h245v-57h-245z" />
    <glyph glyph-name="Ibreve" unicode="&#x12c;" horiz-adv-x="240" 
d="M86 0v740h68v-740h-68zM120 783q-59 0 -91.5 42.5t-36.5 119.5h44q11 -109 84 -109q74 0 84 109h44q-3 -76 -36 -119t-92 -43z" />
    <glyph glyph-name="ibreve" unicode="&#x12d;" horiz-adv-x="211" 
d="M73 0v526h65v-526h-65zM106 579q-59 0 -91.5 42.5t-36.5 119.5h44q11 -109 84 -109q74 0 84 109h44q-3 -76 -36 -119t-92 -43z" />
    <glyph glyph-name="Iogonek" unicode="&#x12e;" horiz-adv-x="240" 
d="M154 740v-740q-11 -5 -17 -8q-28 -15 -44.5 -40.5t-16.5 -51.5q0 -48 46 -48q34 0 79 24l18 -29q-51 -35 -111 -35q-41 0 -63 20.5t-22 56.5q0 57 69 111h-6v740h68z" />
    <glyph glyph-name="iogonek" unicode="&#x12f;" horiz-adv-x="211" 
d="M72 641v77h67v-77h-67zM73 -5v531h65v-526q-33 -9 -54.5 -39.5t-21.5 -60.5q0 -48 46 -48q34 0 79 24l17 -29q-51 -35 -110 -35q-41 0 -63 20.5t-22 56.5q0 53 64 106z" />
    <glyph glyph-name="Idotaccent" unicode="&#x130;" horiz-adv-x="240" 
d="M86 0v740h68v-740h-68zM80 786v79h79v-79h-79z" />
    <glyph glyph-name="dotlessi" unicode="&#x131;" horiz-adv-x="211" 
d="M73 0v526h65v-526h-65z" />
    <glyph glyph-name="IJ" unicode="&#x132;" horiz-adv-x="664" 
d="M86 0v740h68v-740h-68zM423 -11q-91 0 -163 58l35 50q61 -48 125 -48q46 0 73.5 27t27.5 82v582h68v-580q0 -84 -45 -127.5t-121 -43.5z" />
    <glyph glyph-name="ij" unicode="&#x133;" horiz-adv-x="422" 
d="M72 641v77h67v-77h-67zM73 0v526h65v-526h-65zM282 641v77h67v-77h-67zM248 -200q-23 0 -33 2v54q12 -2 26 -2q42 0 42 56v616h65v-615q0 -58 -23.5 -84.5t-76.5 -26.5z" />
    <glyph glyph-name="Jcircumflex" unicode="&#x134;" horiz-adv-x="425" 
d="M182 782l110 158h47l110 -158h-42l-92 93l-91 -93h-42zM184 -11q-91 0 -163 58l35 50q61 -48 125 -48q46 0 73.5 27t27.5 82v582h68v-580q0 -84 -45 -127.5t-121 -43.5z" />
    <glyph glyph-name="jcircumflex" unicode="&#x135;" horiz-adv-x="211" 
d="M38 -200q-23 0 -33 2v53q12 -2 26 -2q42 0 42 56v617h65v-615q0 -59 -23.5 -85t-76.5 -26zM-28 579l110 158h47l110 -158h-42l-92 94l-91 -94h-42z" />
    <glyph glyph-name="Kcommaaccent" unicode="&#x136;" horiz-adv-x="560" 
d="M271 -227l22 92h-30v86h74v-79l-37 -99h-29zM80 0v740h68v-403q21 34 80 116l205 287h72l-206 -285l241 -455h-72l-212 396l-108 -148v-248h-68z" />
    <glyph glyph-name="kcommaaccent" unicode="&#x137;" horiz-adv-x="450" 
d="M216 -227l22 92h-30v86h74v-79l-37 -99h-29zM68 0v740h65v-498q11 20 77 108l130 176h68l-143 -191l162 -335h-67l-136 281l-91 -120v-161h-65z" />
    <glyph glyph-name="kgreenlandic" unicode="&#x138;" horiz-adv-x="450" 
d="M68 0v526h65v-284q11 20 77 108l130 176h68l-143 -191l162 -335h-67l-136 281l-91 -120v-161h-65z" />
    <glyph glyph-name="Lacute" unicode="&#x139;" horiz-adv-x="477" 
d="M80 0v740h68v-678h297v-62h-365zM92 787l81 154h82l-120 -154h-43z" />
    <glyph glyph-name="lacute" unicode="&#x13a;" horiz-adv-x="211" 
d="M73 0v740h65v-740h-65zM82 787l81 154h82l-120 -154h-43z" />
    <glyph glyph-name="Lcommaaccent" unicode="&#x13b;" horiz-adv-x="477" 
d="M232 -227l22 92h-30v86h75v-79l-37 -99h-30zM80 0v740h68v-678h297v-62h-365z" />
    <glyph glyph-name="lcommaaccent" unicode="&#x13c;" horiz-adv-x="211" 
d="M77 -227l22 92h-30v86h74v-79l-37 -99h-29zM73 0v740h65v-740h-65z" />
    <glyph glyph-name="Lcaron" unicode="&#x13d;" horiz-adv-x="477" 
d="M80 0v740h68v-678h297v-62h-365zM341 546l25 101h-31v93h79v-86l-42 -108h-31z" />
    <glyph glyph-name="lcaron" unicode="&#x13e;" horiz-adv-x="268" 
d="M73 0v740h65v-740h-65zM217 546l25 101h-31v93h79v-86l-42 -108h-31z" />
    <glyph glyph-name="Ldot" unicode="&#x13f;" horiz-adv-x="490" 
d="M80 0v740h68v-678h297v-62h-365zM316 350v94h86v-94h-86z" />
    <glyph glyph-name="ldot" unicode="&#x140;" horiz-adv-x="334" 
d="M73 0v740h65v-740h-65zM231 270v93h85v-93h-85z" />
    <glyph glyph-name="Lslash" unicode="&#x141;" horiz-adv-x="477" 
d="M80 0v313l-65 -31v59l65 31v368h68v-339l129 65v-59l-129 -63v-282h297v-62h-365z" />
    <glyph glyph-name="lslash" unicode="&#x142;" horiz-adv-x="251" 
d="M93 0v299l-75 -37v58l75 37v383h65v-356l75 37v-58l-75 -37v-326h-65z" />
    <glyph glyph-name="Nacute" unicode="&#x143;" horiz-adv-x="621" 
d="M80 0v740h84l247 -480q13 -25 66 -131h2v611h62v-740h-63l-261 504q-50 96 -73 145h-2v-649h-62zM278 782l81 154h82l-120 -154h-43z" />
    <glyph glyph-name="nacute" unicode="&#x144;" horiz-adv-x="495" 
d="M68 0v526h65v-74q32 35 77 60t92 25q130 0 130 -146v-391h-65v380q0 51 -19 75.5t-63 24.5q-70 0 -152 -82v-398h-65zM183 583l81 154h82l-120 -154h-43z" />
    <glyph glyph-name="Ncommaaccent" unicode="&#x145;" horiz-adv-x="621" 
d="M273 -228l22 92h-30v86h74v-79l-37 -99h-29zM80 0v740h84l247 -480q13 -25 66 -131h2v611h62v-740h-63l-261 504q-50 96 -73 145h-2v-649h-62z" />
    <glyph glyph-name="ncommaaccent" unicode="&#x146;" horiz-adv-x="495" 
d="M219 -227l22 92h-30v86h74v-79l-37 -99h-29zM68 0v526h65v-74q32 35 77 60t92 25q130 0 130 -146v-391h-65v380q0 51 -19 75.5t-63 24.5q-70 0 -152 -82v-398h-65z" />
    <glyph glyph-name="Ncaron" unicode="&#x147;" horiz-adv-x="621" 
d="M80 0v740h84l247 -480q13 -25 66 -131h2v611h62v-740h-63l-261 504q-50 96 -73 145h-2v-649h-62zM301 781l-110 158h43l92 -95l91 95h41l-110 -158h-47z" />
    <glyph glyph-name="ncaron" unicode="&#x148;" horiz-adv-x="495" 
d="M68 0v526h65v-74q32 35 77 60t92 25q130 0 130 -146v-391h-65v380q0 51 -19 75.5t-63 24.5q-70 0 -152 -82v-398h-65zM230 582l-110 158h43l92 -95l91 95h41l-110 -158h-47z" />
    <glyph glyph-name="napostrophe" unicode="&#x149;" horiz-adv-x="681" 
d="M84 546l25 101h-31v93h79v-86l-42 -108h-31zM253 0v526h65v-74q32 35 77 60t92 25q130 0 130 -146v-391h-65v380q0 51 -19 75.5t-63 24.5q-70 0 -152 -82v-398h-65z" />
    <glyph glyph-name="Eng" unicode="&#x14a;" horiz-adv-x="621" 
d="M376 -200q-92 0 -164 58l35 49q62 -47 125 -47q46 0 75.5 26.5t29.5 79.5v35l-260 503q-50 96 -73 145h-2v-649h-62v740h84l248 -480l65 -131h2v611h62v-769q0 -84 -45 -127.5t-120 -43.5z" />
    <glyph glyph-name="eng" unicode="&#x14b;" horiz-adv-x="495" 
d="M333 -200q-25 0 -33 2v54q10 -2 25 -2q42 0 42 56v470q0 51 -19 75.5t-63 24.5q-70 0 -152 -82v-398h-65v526h65v-74q32 35 77 60t92 25q130 0 130 -146v-480q0 -58 -23 -84.5t-76 -26.5z" />
    <glyph glyph-name="Omacron" unicode="&#x14c;" horiz-adv-x="621" 
d="M311 -14q-118 0 -190 102t-72 282t72 282t190 102q117 0 189 -102t72 -282t-72 -282t-189 -102zM311 48q89 0 140.5 85t51.5 237t-51.5 237t-140.5 85t-141.5 -85t-52.5 -237t52.5 -237t141.5 -85zM188 799v57h245v-57h-245z" />
    <glyph glyph-name="omacron" unicode="&#x14d;" horiz-adv-x="489" 
d="M245 -11q-90 0 -146.5 72.5t-56.5 201.5q0 130 56 202t147 72q90 0 146 -72t56 -202q0 -129 -56 -201.5t-146 -72.5zM245 45q66 0 101 59.5t35 159.5q0 94 -34.5 155t-101.5 61q-66 0 -101.5 -59t-35.5 -157q0 -96 34.5 -157.5t102.5 -61.5zM122 595v57h245v-57h-245z
" />
    <glyph glyph-name="Obreve" unicode="&#x14e;" horiz-adv-x="621" 
d="M311 -14q-118 0 -190 102t-72 282t72 282t190 102q117 0 189 -102t72 -282t-72 -282t-189 -102zM311 48q89 0 140.5 85t51.5 237t-51.5 237t-140.5 85t-141.5 -85t-52.5 -237t52.5 -237t141.5 -85zM311 783q-59 0 -91.5 42.5t-36.5 119.5h44q11 -109 84 -109q74 0 84 109
h44q-3 -76 -36 -119t-92 -43z" />
    <glyph glyph-name="obreve" unicode="&#x14f;" horiz-adv-x="489" 
d="M245 -11q-90 0 -146.5 72.5t-56.5 201.5q0 130 56 202t147 72q90 0 146 -72t56 -202q0 -129 -56 -201.5t-146 -72.5zM245 45q66 0 101 59.5t35 159.5q0 94 -34.5 155t-101.5 61q-66 0 -101.5 -59t-35.5 -157q0 -96 34.5 -157.5t102.5 -61.5zM242 579q-59 0 -91.5 42.5
t-36.5 119.5h44q11 -109 84 -109q74 0 84 109h44q-3 -76 -36 -119t-92 -43z" />
    <glyph glyph-name="Ohungarumlaut" unicode="&#x150;" horiz-adv-x="621" 
d="M311 -14q-118 0 -190 102t-72 282t72 282t190 102q117 0 189 -102t72 -282t-72 -282t-189 -102zM311 48q89 0 140.5 85t51.5 237t-51.5 237t-140.5 85t-141.5 -85t-52.5 -237t52.5 -237t141.5 -85zM328 783l82 154h84l-121 -154h-45zM190 783l79 154h85l-119 -154h-45z
" />
    <glyph glyph-name="ohungarumlaut" unicode="&#x151;" horiz-adv-x="489" 
d="M245 -11q-90 0 -146.5 72.5t-56.5 201.5q0 130 56 202t147 72q90 0 146 -72t56 -202q0 -129 -56 -201.5t-146 -72.5zM245 45q66 0 101 59.5t35 159.5q0 94 -34.5 155t-101.5 61q-66 0 -101.5 -59t-35.5 -157q0 -96 34.5 -157.5t102.5 -61.5zM247 583l82 154h84l-121 -154
h-45zM109 583l79 154h85l-119 -154h-45z" />
    <glyph glyph-name="OE" unicode="&#x152;" horiz-adv-x="925" 
d="M507 623v117h361v-63h-299v-254h220v-62h-220v-299h317v-62h-379v119q-63 -133 -196 -133q-118 0 -190 102t-72 282t72 282t190 102q133 0 196 -131zM311 48q89 0 140.5 85t51.5 237t-51.5 237t-140.5 85t-141.5 -85t-52.5 -237t52.5 -237t141.5 -85z" />
    <glyph glyph-name="oe" unicode="&#x153;" horiz-adv-x="801" 
d="M412 418q51 119 164 119q88 0 135.5 -69.5t47.5 -198.5v-15h-315q2 -100 37.5 -154.5t96.5 -54.5q45 0 74 25.5t52 76.5l49 -27q-57 -131 -178 -131q-55 0 -97.5 30.5t-65.5 88.5q-24 -58 -67.5 -88.5t-99.5 -30.5q-90 0 -146.5 72.5t-56.5 201.5q0 130 56 202t147 72
q118 0 167 -119zM445 307h250q-4 80 -33.5 127t-86.5 47q-50 0 -86.5 -44t-43.5 -130zM245 45q66 0 101 59.5t35 159.5q0 94 -34.5 155t-101.5 61q-66 0 -101.5 -59t-35.5 -157q0 -96 34.5 -157.5t102.5 -61.5z" />
    <glyph glyph-name="Racute" unicode="&#x154;" 
d="M80 0v740h204q220 0 220 -203q0 -87 -41 -135.5t-105 -64.5l153 -337h-69l-150 327h-145v-327h-67zM147 386h133q80 0 118.5 34.5t38.5 115.5q0 75 -38.5 108t-119.5 33h-132v-291zM229 787l81 154h82l-120 -154h-43z" />
    <glyph glyph-name="racute" unicode="&#x155;" horiz-adv-x="339" 
d="M68 0v526h65v-94h2q59 105 172 105h11l-6 -61h-17q-52 0 -94.5 -32t-67.5 -87v-357h-65zM152 583l81 154h82l-120 -154h-43z" />
    <glyph glyph-name="Rcommaaccent" unicode="&#x156;" 
d="M262 -227l22 92h-30v86h74v-79l-37 -99h-29zM80 0v740h204q220 0 220 -203q0 -87 -41 -135.5t-105 -64.5l153 -337h-69l-150 327h-145v-327h-67zM147 386h133q80 0 118.5 34.5t38.5 115.5q0 75 -38.5 108t-119.5 33h-132v-291z" />
    <glyph glyph-name="rcommaaccent" unicode="&#x157;" horiz-adv-x="339" 
d="M68 0v526h65v-94h2q59 105 172 105h11l-6 -61h-17q-52 0 -94.5 -32t-67.5 -87v-357h-65zM73 -227l22 92h-30v86h74v-79l-37 -99h-29z" />
    <glyph glyph-name="Rcaron" unicode="&#x158;" 
d="M80 0v740h204q220 0 220 -203q0 -87 -41 -135.5t-105 -64.5l153 -337h-69l-150 327h-145v-327h-67zM147 386h133q80 0 118.5 34.5t38.5 115.5q0 75 -38.5 108t-119.5 33h-132v-291zM257 781l-110 158h43l92 -95l91 95h41l-110 -158h-47z" />
    <glyph glyph-name="rcaron" unicode="&#x159;" horiz-adv-x="339" 
d="M68 0v526h65v-94h2q59 105 172 105h11l-6 -61h-17q-52 0 -94.5 -32t-67.5 -87v-357h-65zM164 582l-110 158h43l92 -95l91 95h41l-110 -158h-47z" />
    <glyph glyph-name="Sacute" unicode="&#x15a;" horiz-adv-x="537" 
d="M273 -12q-167 0 -238 173l59 27q59 -139 179 -139q68 0 108.5 35.5t40.5 93.5q0 33 -11.5 59t-38 47.5t-47 33t-60.5 31.5q-34 17 -48 24.5t-43.5 24.5t-43 32t-30.5 37t-24 49.5t-7 59.5q0 78 55 128t138 50q150 0 214 -154l-59 -27q-50 120 -156 120q-55 0 -90 -32.5
t-35 -83.5q0 -33 11.5 -59t37.5 -47t46.5 -33.5t59.5 -31.5q33 -16 48.5 -24t44 -25t43 -32.5t31.5 -37.5t24 -49t7 -59q0 -82 -59.5 -136.5t-156.5 -54.5zM192 787l81 154h82l-120 -154h-43z" />
    <glyph glyph-name="sacute" unicode="&#x15b;" horiz-adv-x="428" 
d="M213 -10q-125 0 -189 110l48 31q52 -86 142 -86q54 0 83.5 23t29.5 63q0 32 -20.5 55t-51 35t-66.5 27.5t-66.5 31.5t-51 47t-20.5 74q0 59 44 97.5t115 38.5q111 0 169 -97l-48 -32q-43 74 -121 74q-47 0 -71 -22t-24 -56q0 -38 28 -62.5t68.5 -39t81 -31.5t68.5 -51
t28 -87q0 -64 -50 -103.5t-126 -39.5zM145 583l81 154h82l-120 -154h-43z" />
    <glyph glyph-name="Scircumflex" unicode="&#x15c;" horiz-adv-x="537" 
d="M127 782l110 158h47l110 -158h-42l-92 93l-91 -93h-42zM273 -12q-167 0 -238 173l59 27q59 -139 179 -139q68 0 108.5 35.5t40.5 93.5q0 33 -11.5 59t-38 47.5t-47 33t-60.5 31.5q-34 17 -48 24.5t-43.5 24.5t-43 32t-30.5 37t-24 49.5t-7 59.5q0 78 55 128t138 50
q150 0 214 -154l-59 -27q-50 120 -156 120q-55 0 -90 -32.5t-35 -83.5q0 -33 11.5 -59t37.5 -47t46.5 -33.5t59.5 -31.5q33 -16 48.5 -24t44 -25t43 -32.5t31.5 -37.5t24 -49t7 -59q0 -82 -59.5 -136.5t-156.5 -54.5z" />
    <glyph glyph-name="scircumflex" unicode="&#x15d;" horiz-adv-x="428" 
d="M77 579l110 158h47l110 -158h-42l-92 93l-91 -93h-42zM213 -10q-125 0 -189 110l48 31q52 -86 142 -86q54 0 83.5 23t29.5 63q0 32 -20.5 55t-51 35t-66.5 27.5t-66.5 31.5t-51 47t-20.5 74q0 59 44 97.5t115 38.5q111 0 169 -97l-48 -32q-43 74 -121 74q-47 0 -71 -22
t-24 -56q0 -38 28 -62.5t68.5 -39t81 -31.5t68.5 -51t28 -87q0 -64 -50 -103.5t-126 -39.5z" />
    <glyph glyph-name="Scedilla" unicode="&#x15e;" horiz-adv-x="537" 
d="M245 -227l22 92h-30v86h74v-79l-37 -99h-29zM273 -12q-167 0 -238 173l59 27q59 -139 179 -139q68 0 108.5 35.5t40.5 93.5q0 33 -11.5 59t-38 47.5t-47 33t-60.5 31.5q-34 17 -48 24.5t-43.5 24.5t-43 32t-30.5 37t-24 49.5t-7 59.5q0 78 55 128t138 50q150 0 214 -154
l-59 -27q-50 120 -156 120q-55 0 -90 -32.5t-35 -83.5q0 -33 11.5 -59t37.5 -47t46.5 -33.5t59.5 -31.5q33 -16 48.5 -24t44 -25t43 -32.5t31.5 -37.5t24 -49t7 -59q0 -82 -59.5 -136.5t-156.5 -54.5z" />
    <glyph glyph-name="scedilla" unicode="&#x15f;" horiz-adv-x="428" 
d="M186 -227l22 92h-30v86h74v-79l-37 -99h-29zM213 -10q-125 0 -189 110l48 31q52 -86 142 -86q54 0 83.5 23t29.5 63q0 32 -20.5 55t-51 35t-66.5 27.5t-66.5 31.5t-51 47t-20.5 74q0 59 44 97.5t115 38.5q111 0 169 -97l-48 -32q-43 74 -121 74q-47 0 -71 -22t-24 -56
q0 -38 28 -62.5t68.5 -39t81 -31.5t68.5 -51t28 -87q0 -64 -50 -103.5t-126 -39.5z" />
    <glyph glyph-name="Scaron" unicode="&#x160;" horiz-adv-x="537" 
d="M273 -12q-167 0 -238 173l59 27q59 -139 179 -139q68 0 108.5 35.5t40.5 93.5q0 33 -11.5 59t-38 47.5t-47 33t-60.5 31.5q-34 17 -48 24.5t-43.5 24.5t-43 32t-30.5 37t-24 49.5t-7 59.5q0 78 55 128t138 50q150 0 214 -154l-59 -27q-50 120 -156 120q-55 0 -90 -32.5
t-35 -83.5q0 -33 11.5 -59t37.5 -47t46.5 -33.5t59.5 -31.5q33 -16 48.5 -24t44 -25t43 -32.5t31.5 -37.5t24 -49t7 -59q0 -82 -59.5 -136.5t-156.5 -54.5zM245 786l-110 158h43l92 -95l91 95h41l-110 -158h-47z" />
    <glyph glyph-name="scaron" unicode="&#x161;" horiz-adv-x="428" 
d="M213 -10q-125 0 -189 110l48 31q52 -86 142 -86q54 0 83.5 23t29.5 63q0 32 -20.5 55t-51 35t-66.5 27.5t-66.5 31.5t-51 47t-20.5 74q0 59 44 97.5t115 38.5q111 0 169 -97l-48 -32q-43 74 -121 74q-47 0 -71 -22t-24 -56q0 -38 28 -62.5t68.5 -39t81 -31.5t68.5 -51
t28 -87q0 -64 -50 -103.5t-126 -39.5zM191 582l-110 158h43l92 -95l91 95h41l-110 -158h-47z" />
    <glyph glyph-name="Tcommaaccent" unicode="&#x162;" horiz-adv-x="515" 
d="M229 -222l21 90h-28v83h70v-76l-36 -97h-27zM223 0v677h-194v63h456v-63h-194v-677h-68z" />
    <glyph glyph-name="Tcommaaccent" unicode="&#x21a;" horiz-adv-x="515" 
d="M229 -222l21 90h-28v83h70v-76l-36 -97h-27zM223 0v677h-194v63h456v-63h-194v-677h-68z" />
    <glyph glyph-name="tcommaaccent" unicode="&#x163;" horiz-adv-x="316" 
d="M106 -222l21 90h-28v83h70v-76l-36 -97h-27zM223 -7q-67 0 -96 28t-29 94v356h-78v55h78v190h65v-190h117v-55h-117v-343q0 -43 15 -61.5t56 -18.5q27 0 46 7v-55q-23 -7 -57 -7z" />
    <glyph glyph-name="tcommaaccent" unicode="&#x21b;" horiz-adv-x="316" 
d="M106 -222l21 90h-28v83h70v-76l-36 -97h-27zM223 -7q-67 0 -96 28t-29 94v356h-78v55h78v190h65v-190h117v-55h-117v-343q0 -43 15 -61.5t56 -18.5q27 0 46 7v-55q-23 -7 -57 -7z" />
    <glyph glyph-name="Tcaron" unicode="&#x164;" horiz-adv-x="515" 
d="M223 0v677h-194v63h456v-63h-194v-677h-68zM233 786l-110 158h43l92 -95l91 95h41l-110 -158h-47z" />
    <glyph glyph-name="tcaron" unicode="&#x165;" horiz-adv-x="346" 
d="M223 -7q-67 0 -96 28t-29 94v356h-78v55h78v190h65v-190h117v-55h-117v-343q0 -43 15 -61.5t56 -18.5q27 0 46 7v-55q-23 -7 -57 -7zM295 546l25 101h-31v93h79v-86l-42 -108h-31z" />
    <glyph glyph-name="Tbar" unicode="&#x166;" horiz-adv-x="515" 
d="M29 340v61h194v279h-194v60h456v-60h-194v-279h194v-61h-194v-340h-68v340h-194z" />
    <glyph glyph-name="tbar" unicode="&#x167;" horiz-adv-x="316" 
d="M223 -7q-67 0 -96 28t-29 94v133h-78v56h78v167h-78v55h78v190h65v-190h117v-55h-117v-167h117v-56h-117v-120q0 -43 15 -61.5t56 -18.5q27 0 46 7v-55q-23 -7 -57 -7z" />
    <glyph glyph-name="Utilde" unicode="&#x168;" horiz-adv-x="600" 
d="M300 -14q-116 0 -170.5 67.5t-54.5 186.5v500h68v-489q0 -100 36.5 -152t120.5 -52t121.5 52t37.5 150v491h65v-498q0 -116 -55.5 -186t-168.5 -70zM366 782q-28 0 -71 28t-58 28q-18 0 -26 -12t-8 -42h-44q0 109 77 109q28 0 71 -28t59 -28q34 0 34 54h42
q0 -109 -76 -109z" />
    <glyph glyph-name="utilde" unicode="&#x169;" horiz-adv-x="495" 
d="M194 -11q-131 0 -131 146v391h65v-380q0 -51 19.5 -75.5t64.5 -24.5q70 0 151 83v397h65v-526h-65v75q-82 -86 -169 -86zM313 579q-28 0 -71 28t-58 28q-18 0 -26 -12t-8 -42h-44q0 109 77 109q28 0 71 -28t59 -28q34 0 34 54h42q0 -109 -76 -109z" />
    <glyph glyph-name="Umacron" unicode="&#x16a;" horiz-adv-x="600" 
d="M300 -14q-116 0 -170.5 67.5t-54.5 186.5v500h68v-489q0 -100 36.5 -152t120.5 -52t121.5 52t37.5 150v491h65v-498q0 -116 -55.5 -186t-168.5 -70zM178 799v57h245v-57h-245z" />
    <glyph glyph-name="umacron" unicode="&#x16b;" horiz-adv-x="495" 
d="M194 -11q-131 0 -131 146v391h65v-380q0 -51 19.5 -75.5t64.5 -24.5q70 0 151 83v397h65v-526h-65v75q-82 -86 -169 -86zM125 595v57h245v-57h-245z" />
    <glyph glyph-name="Ubreve" unicode="&#x16c;" horiz-adv-x="600" 
d="M300 -14q-116 0 -170.5 67.5t-54.5 186.5v500h68v-489q0 -100 36.5 -152t120.5 -52t121.5 52t37.5 150v491h65v-498q0 -116 -55.5 -186t-168.5 -70zM300 783q-59 0 -91.5 42.5t-36.5 119.5h44q11 -109 84 -109q74 0 84 109h44q-3 -76 -36 -119t-92 -43z" />
    <glyph glyph-name="ubreve" unicode="&#x16d;" horiz-adv-x="495" 
d="M194 -11q-131 0 -131 146v391h65v-380q0 -51 19.5 -75.5t64.5 -24.5q70 0 151 83v397h65v-526h-65v75q-82 -86 -169 -86zM246 579q-59 0 -91.5 42.5t-36.5 119.5h44q11 -109 84 -109q74 0 84 109h44q-3 -76 -36 -119t-92 -43z" />
    <glyph glyph-name="Uring" unicode="&#x16e;" horiz-adv-x="600" 
d="M300 -14q-116 0 -170.5 67.5t-54.5 186.5v500h68v-489q0 -100 36.5 -152t120.5 -52t121.5 52t37.5 150v491h65v-498q0 -116 -55.5 -186t-168.5 -70zM300 774q-36 0 -58.5 26.5t-22.5 66.5t22.5 66t58.5 26t59 -26t23 -66t-22.5 -66.5t-59.5 -26.5zM300 809q20 0 32 16.5
t12 41.5q0 24 -12 40t-32 16t-31.5 -16t-11.5 -40q0 -25 11.5 -41.5t31.5 -16.5z" />
    <glyph glyph-name="uring" unicode="&#x16f;" horiz-adv-x="495" 
d="M194 -11q-131 0 -131 146v391h65v-380q0 -51 19.5 -75.5t64.5 -24.5q70 0 151 83v397h65v-526h-65v75q-82 -86 -169 -86zM245 574q-36 0 -58.5 26.5t-22.5 66.5t22.5 66t58.5 26t59 -26t23 -66t-22.5 -66.5t-59.5 -26.5zM245 609q20 0 32 16.5t12 41.5q0 24 -12 40
t-32 16t-31.5 -16t-11.5 -40q0 -25 11.5 -41.5t31.5 -16.5z" />
    <glyph glyph-name="Uhungarumlaut" unicode="&#x170;" horiz-adv-x="600" 
d="M300 -14q-116 0 -170.5 67.5t-54.5 186.5v500h68v-489q0 -100 36.5 -152t120.5 -52t121.5 52t37.5 150v491h65v-498q0 -116 -55.5 -186t-168.5 -70zM321 783l82 154h84l-121 -154h-45zM183 783l79 154h85l-119 -154h-45z" />
    <glyph glyph-name="uhungarumlaut" unicode="&#x171;" horiz-adv-x="495" 
d="M194 -11q-131 0 -131 146v391h65v-380q0 -51 19.5 -75.5t64.5 -24.5q70 0 151 83v397h65v-526h-65v75q-82 -86 -169 -86zM264 583l82 154h84l-121 -154h-45zM126 583l79 154h85l-119 -154h-45z" />
    <glyph glyph-name="Uogonek" unicode="&#x172;" horiz-adv-x="600" 
d="M297 -14q-114 1 -168 68.5t-54 185.5v500h68v-489q0 -100 36.5 -152t120.5 -52t121.5 52t37.5 150v491h65v-498q0 -166 -102 -226q-16 -9 -37.5 -16.5t-28.5 -10.5q-25 -12 -41.5 -37t-16.5 -52q0 -48 45 -48q35 0 79 24l18 -29q-51 -35 -110 -35q-41 0 -63 20.5
t-22 56.5q0 50 52 97z" />
    <glyph glyph-name="uogonek" unicode="&#x173;" horiz-adv-x="495" 
d="M428 0q-38 -15 -59.5 -42.5t-21.5 -57.5q0 -48 45 -48q35 0 79 24l18 -29q-51 -35 -111 -35q-41 0 -62.5 20.5t-21.5 56.5q0 58 69 111v75q-82 -86 -169 -86q-131 0 -131 146v391h65v-380q0 -51 19.5 -75.5t64.5 -24.5q70 0 151 83v397h65v-526z" />
    <glyph glyph-name="Wcircumflex" unicode="&#x174;" horiz-adv-x="770" 
d="M252 774l110 158h47l110 -158h-42l-92 93l-91 -93h-42zM199 -3l-165 743h64l85 -399q28 -127 46 -224h2q8 46 45 224l80 399h62l83 -410q35 -171 42 -213h2q16 84 44 214l86 409h61l-165 -743h-57l-128 620h-2l-128 -620h-57z" />
    <glyph glyph-name="wcircumflex" unicode="&#x175;" horiz-adv-x="631" 
d="M183 579l110 158h47l110 -158h-42l-92 93l-91 -93h-42zM160 -3l-137 529h63l71 -283q18 -71 34 -146h2q14 67 33 149l63 280h58l64 -278q26 -109 34 -151h2q1 6 35 152l68 277h58l-136 -529h-57l-98 421h-2l-99 -421h-56z" />
    <glyph glyph-name="Ycircumflex" unicode="&#x176;" horiz-adv-x="515" 
d="M223 0v309l-204 431h70l169 -368h2l169 368h66l-203 -429v-311h-69zM125 782l110 158h47l110 -158h-42l-92 93l-91 -93h-42z" />
    <glyph glyph-name="ycircumflex" unicode="&#x177;" horiz-adv-x="449" 
d="M81 -201q-41 0 -72 11l13 53q23 -7 61 -7q35 0 53.5 20.5t33.5 68.5l17 50l-164 531h66l86 -290q32 -111 44 -159h2q24 88 47 165l84 284h62l-181 -586q-25 -77 -57 -109t-95 -32zM87 579l110 158h47l110 -158h-42l-92 93l-91 -93h-42z" />
    <glyph glyph-name="Ydieresis" unicode="&#x178;" horiz-adv-x="515" 
d="M223 0v309l-204 431h70l169 -368h2l169 368h66l-203 -429v-311h-69zM299 786v80h70v-80h-70zM147 786v80h71v-80h-71z" />
    <glyph glyph-name="Zacute" unicode="&#x179;" horiz-adv-x="521" 
d="M36 0v52l362 625h-338v63h417v-51l-362 -627h362v-62h-441zM210 787l81 154h82l-120 -154h-43z" />
    <glyph glyph-name="zacute" unicode="&#x17a;" horiz-adv-x="425" 
d="M35 0v44l265 427h-243v55h320v-43l-265 -428h276v-55h-353zM163 583l81 154h82l-120 -154h-43z" />
    <glyph glyph-name="Zdotaccent" unicode="&#x17b;" horiz-adv-x="521" 
d="M36 0v52l362 625h-338v63h417v-51l-362 -627h362v-62h-441zM221 787v79h79v-79h-79z" />
    <glyph glyph-name="zdotaccent" unicode="&#x17c;" horiz-adv-x="425" 
d="M35 0v44l265 427h-243v55h320v-43l-265 -428h276v-55h-353zM173 583v79h79v-79h-79z" />
    <glyph glyph-name="Zcaron" unicode="&#x17d;" horiz-adv-x="521" 
d="M36 0v52l362 625h-338v63h417v-51l-362 -627h362v-62h-441zM237 786l-110 158h43l92 -95l91 95h41l-110 -158h-47z" />
    <glyph glyph-name="zcaron" unicode="&#x17e;" horiz-adv-x="425" 
d="M35 0v44l265 427h-243v55h320v-43l-265 -428h276v-55h-353zM189 582l-110 158h43l92 -95l91 95h41l-110 -158h-47z" />
    <glyph glyph-name="longs" unicode="&#x17f;" horiz-adv-x="286" 
d="M100 0v614q0 127 137 127q3 0 10.5 -0.5t14.5 -0.5h7v-57l-14 1h-15q-75 0 -75 -70v-614h-65z" />
    <glyph glyph-name="florin" unicode="&#x192;" horiz-adv-x="332" 
d="M113 365h-81l9 56h79l27 193q17 128 150 128q19 0 37 -2l-9 -58l-30 3q-36 0 -57 -16t-27 -55l-26 -193h98l-8 -56h-98l-61 -443q-18 -124 -145 -124q-24 0 -42 3l10 56q14 -3 29 -3q74 0 84 74z" />
    <glyph glyph-name="Aringacute" unicode="&#x1fa;" horiz-adv-x="556" 
d="M249 919l81 154h82l-120 -154h-43zM159 229l-65 -229h-64l210 721q-44 23 -44 82q0 40 22.5 66t58.5 26t59 -26t23 -66q0 -60 -43 -82l210 -721h-68l-65 229h-234zM277 746q20 0 32 16t12 41t-11.5 40.5t-32.5 15.5q-20 0 -31.5 -15.5t-11.5 -40.5t11.5 -41t31.5 -16z
M376 289l-34 122q-36 124 -65 233h-2q-21 -80 -64 -232l-36 -123h201z" />
    <glyph glyph-name="aringacute" unicode="&#x1fb;" horiz-adv-x="465" 
d="M165 -7q-59 0 -92 34.5t-33 95.5q0 163 296 224v36q0 97 -84 97q-83 0 -159 -76l-39 39q89 94 203 94q143 0 143 -154v-253q0 -91 13 -130h-66q-11 38 -11 69q-73 -76 -171 -76zM183 47q85 0 153 76v174q-232 -49 -232 -167q0 -83 79 -83zM181 793l81 154h82l-120 -154
h-43zM231 574q-36 0 -58.5 26.5t-22.5 66.5t22.5 66t58.5 26t59 -26t23 -66t-22.5 -66.5t-59.5 -26.5zM231 609q20 0 32 16.5t12 41.5q0 24 -12 40t-32 16t-31.5 -16t-11.5 -40q0 -25 11.5 -41.5t31.5 -16.5z" />
    <glyph glyph-name="AEacute" unicode="&#x1fc;" horiz-adv-x="823" 
d="M353 786l81 154h82l-120 -154h-43zM24 0l341 740h400v-63h-298v-254h219v-62h-219v-299h316v-62h-384v239h-200l-109 -239h-66zM225 297h174v378z" />
    <glyph glyph-name="aeacute" unicode="&#x1fd;" horiz-adv-x="755" 
d="M334 583l81 154h82l-120 -154h-43zM368 96q-35 -43 -87.5 -74.5t-115.5 -31.5q-59 0 -92 35t-33 96q0 165 296 226v36q0 97 -84 97q-83 0 -159 -76l-39 39q89 94 204 94q104 0 126 -91q27 44 66 67.5t81 23.5q87 0 135 -69.5t48 -198.5v-15h-316q2 -100 38 -154.5
t97 -54.5q45 0 73.5 25.5t52.5 76.5l49 -27q-58 -131 -179 -131q-111 0 -161 107zM399 307h251q-4 79 -34 126.5t-86 47.5q-51 0 -87.5 -44t-43.5 -130zM338 297q-234 -50 -234 -169q0 -83 79 -83q86 0 169 93q-16 56 -16 126q0 13 2 33z" />
    <glyph glyph-name="Oslashacute" unicode="&#x1fe;" horiz-adv-x="621" 
d="M490 665q82 -103 82 -295q0 -180 -72 -282t-189 -102q-82 0 -143 50l-41 -78l-45 24l48 93q-81 103 -81 295q0 180 72 282t190 102q82 0 141 -50l42 80l45 -24zM167 138l255 507q-45 47 -111 47q-89 0 -141.5 -85t-52.5 -237q0 -146 50 -232zM453 602l-256 -506
q47 -49 114 -49q89 0 141 85.5t52 237.5q0 149 -51 232zM282 786l81 154h82l-120 -154h-43z" />
    <glyph glyph-name="oslashacute" unicode="&#x1ff;" horiz-adv-x="489" 
d="M395 459q52 -72 52 -196q0 -129 -56 -201.5t-146 -72.5q-67 0 -118 42l-46 -72l-40 25l53 84q-52 72 -52 195q0 130 56 202t147 72q69 0 117 -42l45 72l40 -25zM133 124l197 318q-33 39 -85 39q-66 0 -102 -59.5t-36 -157.5q0 -84 26 -140zM356 402l-198 -317
q32 -40 87 -40q66 0 101.5 59.5t35.5 159.5q0 83 -26 138zM216 583l81 154h82l-120 -154h-43z" />
    <glyph glyph-name="Scommaaccent" unicode="&#x218;" horiz-adv-x="537" 
d="M244 -222l21 90h-28v83h70v-76l-36 -97h-27zM273 -12q-167 0 -238 173l59 27q59 -139 179 -139q68 0 108.5 35.5t40.5 93.5q0 33 -11.5 59t-38 47.5t-47 33t-60.5 31.5q-34 17 -48 24.5t-43.5 24.5t-43 32t-30.5 37t-24 49.5t-7 59.5q0 78 55 128t138 50q150 0 214 -154
l-59 -27q-50 120 -156 120q-55 0 -90 -32.5t-35 -83.5q0 -33 11.5 -59t37.5 -47t46.5 -33.5t59.5 -31.5q33 -16 48.5 -24t44 -25t43 -32.5t31.5 -37.5t24 -49t7 -59q0 -82 -59.5 -136.5t-156.5 -54.5z" />
    <glyph glyph-name="scommaaccent" unicode="&#x219;" horiz-adv-x="428" 
d="M185 -222l21 90h-28v83h70v-76l-36 -97h-27zM213 -10q-125 0 -189 110l48 31q52 -86 142 -86q54 0 83.5 23t29.5 63q0 32 -20.5 55t-51 35t-66.5 27.5t-66.5 31.5t-51 47t-20.5 74q0 59 44 97.5t115 38.5q111 0 169 -97l-48 -32q-43 74 -121 74q-47 0 -71 -22t-24 -56
q0 -38 28 -62.5t68.5 -39t81 -31.5t68.5 -51t28 -87q0 -64 -50 -103.5t-126 -39.5z" />
    <glyph glyph-name="schwa" unicode="&#x259;" horiz-adv-x="464" 
d="M226 537q87 0 141.5 -71.5t54.5 -203.5t-57 -202.5t-141 -70.5q-87 0 -135 69.5t-48 198.5v15h316q-2 100 -38 154.5t-97 54.5q-45 0 -73.5 -25.5t-52.5 -76.5l-49 27q58 131 179 131zM356 219h-250q4 -79 33.5 -126.5t85.5 -47.5q51 0 87.5 44t43.5 130z" />
    <glyph glyph-name="circumflex" unicode="&#x2c6;" horiz-adv-x="436" 
d="M84 579l110 158h47l110 -158h-42l-92 93l-91 -93h-42z" />
    <glyph glyph-name="caron" unicode="&#x2c7;" horiz-adv-x="436" 
d="M194 582l-110 158h43l92 -95l91 95h41l-110 -158h-47z" />
    <glyph glyph-name="breve" unicode="&#x2d8;" horiz-adv-x="436" 
d="M218 579q-59 0 -91.5 42.5t-36.5 119.5h44q11 -109 84 -109q74 0 84 109h44q-3 -76 -36 -119t-92 -43z" />
    <glyph glyph-name="dotaccent" unicode="&#x2d9;" horiz-adv-x="436" 
d="M178 583v79h79v-79h-79z" />
    <glyph glyph-name="ring" unicode="&#x2da;" horiz-adv-x="436" 
d="M217 574q-36 0 -58.5 26.5t-22.5 66.5t22.5 66t58.5 26t59 -26t23 -66t-22.5 -66.5t-59.5 -26.5zM217 609q20 0 32 16.5t12 41.5q0 24 -12 40t-32 16t-31.5 -16t-11.5 -40q0 -25 11.5 -41.5t31.5 -16.5z" />
    <glyph glyph-name="ogonek" unicode="&#x2db;" horiz-adv-x="436" 
d="M215 -188q-41 0 -63 20.5t-22 56.5q0 60 74 115h40q-61 -47 -61 -104q0 -48 45 -48q35 0 80 24l17 -29q-51 -35 -110 -35z" />
    <glyph glyph-name="tilde" unicode="&#x2dc;" horiz-adv-x="436" 
d="M283 579q-28 0 -71 28t-58 28q-18 0 -26 -12t-8 -42h-44q0 109 77 109q28 0 71 -28t59 -28q34 0 34 54h42q0 -109 -76 -109z" />
    <glyph glyph-name="hungarumlaut" unicode="&#x2dd;" horiz-adv-x="436" 
d="M206 583l82 154h84l-121 -154h-45zM68 583l79 154h85l-119 -154h-45z" />
    <glyph glyph-name="commaaccent" unicode="&#x326;" horiz-adv-x="195" 
d="M70 -222l21 90h-28v83h70v-76l-36 -97h-27z" />
    <glyph glyph-name="tonos" unicode="&#x384;" horiz-adv-x="436" 
d="M172 582l56 164h77l-87 -164h-46z" />
    <glyph glyph-name="dieresistonos" unicode="&#x385;" horiz-adv-x="436" 
d="M304 582v83h65v-83h-65zM70 582v83h65v-83h-65zM169 582l55 164h77l-88 -164h-44z" />
    <glyph glyph-name="Alphatonos" unicode="&#x386;" horiz-adv-x="658" 
d="M260 229l-65 -229h-64l217 743h62l217 -743h-68l-65 229h-234zM477 289l-34 121q-36 124 -65 233h-2q-21 -80 -64 -232l-35 -122h200zM67 577l56 164h77l-87 -164h-46z" />
    <glyph glyph-name="Epsilontonos" unicode="&#x388;" horiz-adv-x="728" 
d="M67 577l56 164h77l-87 -164h-46zM304 0v740h367v-63h-299v-254h220v-62h-220v-299h317v-62h-385z" />
    <glyph glyph-name="Etatonos" unicode="&#x389;" horiz-adv-x="838" 
d="M67 577l56 164h77l-87 -164h-46zM304 0v740h68v-317h318v317h68v-740h-68v360h-318v-360h-68z" />
    <glyph glyph-name="Iotatonos" unicode="&#x38a;" horiz-adv-x="464" 
d="M310 0v740h68v-740h-68zM67 577l56 164h77l-87 -164h-46z" />
    <glyph glyph-name="Omicrontonos" unicode="&#x38c;" horiz-adv-x="822" 
d="M67 577l56 164h77l-87 -164h-46zM512 -14q-118 0 -190 102t-72 282t72 282t190 102q117 0 189 -102t72 -282t-72 -282t-189 -102zM512 48q89 0 140.5 85t51.5 237t-51.5 237t-140.5 85t-141.5 -85t-52.5 -237t52.5 -237t141.5 -85z" />
    <glyph glyph-name="Upsilontonos" unicode="&#x38e;" horiz-adv-x="779" 
d="M487 0v309l-204 431h70l169 -368h2l169 368h66l-203 -429v-311h-69zM67 577l56 164h77l-87 -164h-46z" />
    <glyph glyph-name="Omegatonos" unicode="&#x38f;" horiz-adv-x="817" 
d="M257 0v62h135q-61 53 -101.5 140.5t-40.5 193.5q0 156 70 257t187 101t185.5 -101.5t68.5 -256.5q0 -106 -40 -193t-101 -141h135v-62h-202v60q140 128 140 332q0 132 -49.5 215.5t-137.5 83.5q-86 0 -137 -82t-51 -216q0 -205 140 -333v-60h-201zM67 577l56 164h77
l-87 -164h-46z" />
    <glyph glyph-name="iotadieresistonos" unicode="&#x390;" horiz-adv-x="211" 
d="M-39 582v83h63v-83h-63zM73 0v526h65v-526h-65zM58 582l55 164h75l-88 -164h-42zM191 582v83h63v-83h-63z" />
    <glyph glyph-name="Alpha" unicode="&#x391;" horiz-adv-x="556" 
d="M159 229l-65 -229h-64l217 743h62l217 -743h-68l-65 229h-234zM376 289l-34 121q-36 124 -65 233h-2q-21 -80 -64 -232l-35 -122h200z" />
    <glyph glyph-name="Beta" unicode="&#x392;" horiz-adv-x="575" 
d="M80 0v740h207q220 0 220 -186q0 -72 -34 -113.5t-86 -55.5v-2q140 -31 140 -182q0 -95 -57.5 -148t-164.5 -53h-225zM147 410h136q158 0 158 134q0 71 -37 102.5t-119 31.5h-138v-268zM147 60h159q155 0 155 145q0 146 -174 146h-140v-291z" />
    <glyph glyph-name="Gamma" unicode="&#x393;" horiz-adv-x="474" 
d="M148 0h-68v740h363v-63h-295v-677z" />
    <glyph glyph-name="uni0394" unicode="&#x394;" horiz-adv-x="556" 
d="M30 0l217 743h62l217 -743h-496zM443 57l-102 353q-42 148 -64 233h-2q-18 -68 -64 -231l-101 -355h333z" />
    <glyph glyph-name="Epsilon" unicode="&#x395;" horiz-adv-x="504" 
d="M80 0v740h367v-63h-299v-254h220v-62h-220v-299h317v-62h-385z" />
    <glyph glyph-name="Zeta" unicode="&#x396;" horiz-adv-x="521" 
d="M36 0v52l362 625h-338v63h417v-51l-362 -627h362v-62h-441z" />
    <glyph glyph-name="Eta" unicode="&#x397;" horiz-adv-x="614" 
d="M80 0v740h68v-317h318v317h68v-740h-68v360h-318v-360h-68z" />
    <glyph glyph-name="Theta" unicode="&#x398;" horiz-adv-x="621" 
d="M259 344v59h137v-59h-137zM311 -14q-118 0 -190 102t-72 282t72 282t190 102q117 0 189 -102t72 -282t-72 -282t-189 -102zM311 48q89 0 140.5 85t51.5 237t-51.5 237t-140.5 85t-141.5 -85t-52.5 -237t52.5 -237t141.5 -85z" />
    <glyph glyph-name="Iota" unicode="&#x399;" horiz-adv-x="240" 
d="M86 0v740h68v-740h-68z" />
    <glyph glyph-name="Kappa" unicode="&#x39a;" horiz-adv-x="560" 
d="M80 0v740h68v-403q21 34 80 116l205 287h72l-206 -285l241 -455h-72l-212 396l-108 -148v-248h-68z" />
    <glyph glyph-name="Lambda" unicode="&#x39b;" horiz-adv-x="577" 
d="M319 743l215 -743h-67l-117 411q-25 88 -63 232h-2q-24 -94 -64 -230l-116 -413h-64l215 743h63z" />
    <glyph glyph-name="Mu" unicode="&#x39c;" horiz-adv-x="728" 
d="M80 0v740h84l200 -644h2l197 644h85v-740h-66v625h-2q-13 -61 -54 -189l-137 -436h-55l-137 438q-34 107 -54 187h-2v-625h-61z" />
    <glyph glyph-name="Nu" unicode="&#x39d;" horiz-adv-x="621" 
d="M80 0v740h84l247 -480q13 -25 66 -131h2v611h62v-740h-63l-261 504q-50 96 -73 145h-2v-649h-62z" />
    <glyph glyph-name="Xi" unicode="&#x39e;" horiz-adv-x="479" 
d="M41 0v62h165v299h-106v62h106v254h-158v63h383v-63h-158v-254h107v-62h-107v-299h165v-62h-397z" />
    <glyph glyph-name="Omicron" unicode="&#x39f;" horiz-adv-x="621" 
d="M311 -14q-118 0 -190 102t-72 282t72 282t190 102q117 0 189 -102t72 -282t-72 -282t-189 -102zM311 48q89 0 140.5 85t51.5 237t-51.5 237t-140.5 85t-141.5 -85t-52.5 -237t52.5 -237t141.5 -85z" />
    <glyph glyph-name="Pi" unicode="&#x3a0;" horiz-adv-x="610" 
d="M80 0v740h450v-740h-69v677h-313v-677h-68z" />
    <glyph glyph-name="Rho" unicode="&#x3a1;" horiz-adv-x="549" 
d="M80 0v740h203q104 0 162.5 -50.5t58.5 -153.5q0 -112 -61 -162.5t-167 -50.5h-128v-323h-68zM148 384h132q79 0 118 35t39 115q0 76 -39 109.5t-119 33.5h-131v-293z" />
    <glyph glyph-name="Sigma" unicode="&#x3a3;" horiz-adv-x="475" 
d="M36 0v52l192 333l-180 304v51h384v-63h-305l174 -292l-186 -323h324v-62h-403z" />
    <glyph glyph-name="Tau" unicode="&#x3a4;" horiz-adv-x="515" 
d="M223 0v677h-194v63h456v-63h-194v-677h-68z" />
    <glyph glyph-name="Upsilon" unicode="&#x3a5;" horiz-adv-x="515" 
d="M223 0v309l-204 431h70l169 -368h2l169 368h66l-203 -429v-311h-69z" />
    <glyph glyph-name="Phi" unicode="&#x3a6;" horiz-adv-x="651" 
d="M292 0v94q-114 9 -183 83.5t-69 192.5q0 121 69.5 199t182.5 87v84h67v-84q113 -9 182.5 -87t69.5 -199q0 -118 -69.5 -192.5t-182.5 -83.5v-94h-67zM108 370q0 -95 49 -151t135 -64v441q-85 -10 -134.5 -69.5t-49.5 -156.5zM543 370q0 97 -49.5 157t-134.5 69v-441
q85 8 134.5 64t49.5 151z" />
    <glyph glyph-name="Chi" unicode="&#x3a7;" horiz-adv-x="544" 
d="M19 0l217 402l-182 338h73l149 -280l147 280h66l-181 -337l217 -403h-71l-185 347l-184 -347h-66z" />
    <glyph glyph-name="Psi" unicode="&#x3a8;" horiz-adv-x="621" 
d="M566 740v-292q0 -71 -18.5 -123t-51.5 -80.5t-70.5 -42.5t-81.5 -16v-186h-67v186q-44 2 -81 15.5t-70 42.5t-52 81t-19 123v292h68v-291q0 -97 41 -146t113 -54v491h67v-491q154 10 154 200v291h68z" />
    <glyph glyph-name="uni03A9" unicode="&#x3a9;" horiz-adv-x="621" 
d="M62 0v62h135q-61 53 -101.5 140.5t-40.5 193.5q0 156 70 257t187 101t185.5 -101.5t68.5 -256.5q0 -106 -40 -193t-101 -141h135v-62h-202v60q140 128 140 332q0 132 -49.5 215.5t-137.5 83.5q-86 0 -137 -82t-51 -216q0 -205 140 -333v-60h-201z" />
    <glyph glyph-name="Iotadieresis" unicode="&#x3aa;" horiz-adv-x="240" 
d="M86 0v740h68v-740h-68zM161 786v80h70v-80h-70zM9 786v80h71v-80h-71z" />
    <glyph glyph-name="Upsilondieresis" unicode="&#x3ab;" horiz-adv-x="515" 
d="M223 0v309l-204 431h70l169 -368h2l169 368h66l-203 -429v-311h-69zM299 786v80h70v-80h-70zM147 786v80h71v-80h-71z" />
    <glyph glyph-name="alphatonos" unicode="&#x3ac;" horiz-adv-x="502" 
d="M369 0v70q-67 -79 -145 -79q-82 0 -131.5 67.5t-49.5 204.5q0 136 50 205t132 69q78 0 144 -78v67h65v-526h-65zM238 47q37 0 66 19.5t65 58.5v275q-69 80 -133 80q-58 0 -92.5 -53.5t-34.5 -162.5t35 -163t94 -54zM215 583l81 154h82l-120 -154h-43z" />
    <glyph glyph-name="epsilontonos" unicode="&#x3ad;" horiz-adv-x="434" 
d="M367 100l30 -48q-81 -63 -179 -63q-90 0 -133 41t-43 109q0 57 30 94t74 47q-39 9 -61.5 40t-22.5 74q0 65 45 104t126 39q96 0 153 -46l-32 -49q-48 39 -118 39q-55 0 -83 -25.5t-28 -67.5q0 -43 26.5 -63.5t71.5 -20.5h86v-52h-102q-43 0 -72 -27t-29 -77
q0 -102 114 -102q78 0 147 54zM207 583l81 154h82l-120 -154h-43z" />
    <glyph glyph-name="etatonos" unicode="&#x3ae;" horiz-adv-x="495" 
d="M229 583l81 154h82l-120 -154h-43zM68 0v526h65v-74q32 35 77 60t92 25q130 0 130 -146v-591h-65v580q0 51 -19 75.5t-63 24.5q-70 0 -152 -82v-398h-65z" />
    <glyph glyph-name="iotatonos" unicode="&#x3af;" horiz-adv-x="211" 
d="M85 583l81 154h82l-120 -154h-43zM73 0v526h65v-526h-65z" />
    <glyph glyph-name="upsilondieresistonos" unicode="&#x3b0;" horiz-adv-x="490" 
d="M328 582v83h65v-83h-65zM94 582v83h65v-83h-65zM193 582l55 164h77l-88 -164h-44zM245 47q61 0 89 43t28 133v303h65v-304q0 -233 -182 -233q-99 0 -140.5 61t-41.5 172v304h65v-303q0 -89 27.5 -132.5t89.5 -43.5z" />
    <glyph glyph-name="alpha" unicode="&#x3b1;" horiz-adv-x="502" 
d="M369 0v70q-67 -79 -145 -79q-82 0 -131.5 67.5t-49.5 204.5q0 136 50 205t132 69q78 0 144 -78v67h65v-526h-65zM238 47q37 0 66 19.5t65 58.5v275q-69 80 -133 80q-58 0 -92.5 -53.5t-34.5 -162.5t35 -163t94 -54z" />
    <glyph glyph-name="beta" unicode="&#x3b2;" horiz-adv-x="517" 
d="M308 -11q-76 0 -124 41l34 46q37 -32 89 -32q48 0 77 40.5t29 121.5q0 92 -46.5 133t-145.5 46v53q69 1 104 36t35 92q0 56 -29.5 86.5t-82.5 30.5q-57 0 -86.5 -38t-29.5 -110v-735h-66v732q0 99 48.5 153.5t134.5 54.5q82 0 128 -44t46 -126q0 -57 -29.5 -99t-80.5 -56
q75 -12 120 -63t45 -144q0 -99 -44.5 -159t-125.5 -60z" />
    <glyph glyph-name="gamma" unicode="&#x3b3;" horiz-adv-x="435" 
d="M184 -200v194l-161 532h65l91 -313q38 -133 40 -142h2q19 76 39 142l91 313h61l-161 -532v-194h-67z" />
    <glyph glyph-name="delta" unicode="&#x3b4;" horiz-adv-x="489" 
d="M245 -11q-91 0 -147 73t-56 202q0 113 50.5 184t133.5 71q29 0 44 -9q-13 14 -80 86t-92 100v44h307v-54h-217l157 -169q102 -108 102 -252q0 -129 -56 -202.5t-146 -73.5zM245 45q64 0 100 59.5t36 159.5q0 114 -67 194q-22 12 -69 12q-64 0 -101 -55.5t-36 -150.5
q0 -100 35.5 -159.5t101.5 -59.5z" />
    <glyph glyph-name="epsilon" unicode="&#x3b5;" horiz-adv-x="434" 
d="M367 100l30 -48q-81 -63 -179 -63q-90 0 -133 41t-43 109q0 57 30 94t74 47q-39 9 -61.5 40t-22.5 74q0 65 45 104t126 39q96 0 153 -46l-32 -49q-48 39 -118 39q-55 0 -83 -25.5t-28 -67.5q0 -43 26.5 -63.5t71.5 -20.5h86v-52h-102q-43 0 -72 -27t-29 -77
q0 -102 114 -102q78 0 147 54z" />
    <glyph glyph-name="zeta" unicode="&#x3b6;" horiz-adv-x="389" 
d="M255 -196q-66 0 -114 37l23 36q37 -31 86 -31q33 0 53 18t20 55q0 34 -16.5 50t-61.5 22q-106 13 -154 76t-48 159q0 130 66 237.5t187 220.5h-239v56h320v-44q-70 -71 -110 -116t-81 -104.5t-59 -118.5t-18 -126q0 -82 33 -128t113 -57q60 -9 89.5 -36.5t29.5 -83.5
q0 -58 -32 -90t-87 -32z" />
    <glyph glyph-name="eta" unicode="&#x3b7;" horiz-adv-x="495" 
d="M68 0v526h65v-74q32 35 77 60t92 25q130 0 130 -146v-591h-65v580q0 51 -19 75.5t-63 24.5q-70 0 -152 -82v-398h-65z" />
    <glyph glyph-name="theta" unicode="&#x3b8;" horiz-adv-x="491" 
d="M51 373q0 183 49.5 277t144.5 94t145.5 -96t50.5 -275q0 -185 -49.5 -284.5t-147.5 -99.5q-193 0 -193 384zM244 689q-127 0 -129 -290h262q-2 135 -35.5 212.5t-97.5 77.5zM244 45q65 0 99 78t34 223h-262q2 -301 129 -301z" />
    <glyph glyph-name="iota" unicode="&#x3b9;" horiz-adv-x="211" 
d="M73 0v526h65v-526h-65z" />
    <glyph glyph-name="kappa" unicode="&#x3ba;" horiz-adv-x="450" 
d="M68 0v526h65v-284q11 20 77 108l130 176h68l-143 -191l162 -335h-67l-136 281l-91 -120v-161h-65z" />
    <glyph glyph-name="lambda" unicode="&#x3bb;" horiz-adv-x="449" 
d="M23 0l164 531l-21 65q-15 48 -33.5 68.5t-53.5 20.5t-61 -8l-13 53q31 11 72 11q63 0 95.5 -32.5t56.5 -108.5l185 -600h-64l-84 284q-23 77 -47 165h-2q-15 -60 -44 -158l-86 -291h-64z" />
    <glyph glyph-name="uni03BC" unicode="&#x3bc;" horiz-adv-x="497" 
d="M64 -200v727h66v-381q0 -51 19 -75.5t64 -24.5q67 0 150 81v400h67v-527h-67v76q-83 -83 -160 -85q-51 0 -73 25v-216h-66z" />
    <glyph glyph-name="nu" unicode="&#x3bd;" horiz-adv-x="435" 
d="M184 -3l-161 529h65l91 -313q38 -134 40 -142h2q19 76 39 142l91 313h61l-161 -529h-67z" />
    <glyph glyph-name="xi" unicode="&#x3be;" horiz-adv-x="377" 
d="M248 -201q-64 0 -112 38l24 36q37 -31 86 -31q33 0 53 18t20 55q0 34 -18 50.5t-66 23.5q-53 6 -92 26.5t-60 51.5t-30.5 65t-9.5 73q0 92 43.5 144.5t119.5 65.5q-49 15 -78.5 53.5t-29.5 96.5q0 84 61 119h-102v56h334v-57h-140q-90 -21 -90 -118q0 -58 37 -93t104 -35
v-54q-197 -7 -197 -173q0 -151 139 -167q66 -8 96 -36.5t30 -85.5t-32.5 -89.5t-89.5 -32.5z" />
    <glyph glyph-name="omicron" unicode="&#x3bf;" horiz-adv-x="489" 
d="M245 -11q-90 0 -146.5 72.5t-56.5 201.5q0 130 56 202t147 72q90 0 146 -72t56 -202q0 -129 -56 -201.5t-146 -72.5zM245 45q66 0 101 59.5t35 159.5q0 94 -34.5 155t-101.5 61q-66 0 -101.5 -59t-35.5 -157q0 -96 34.5 -157.5t102.5 -61.5z" />
    <glyph glyph-name="pi" unicode="&#x3c0;" horiz-adv-x="552" 
d="M13 473v55h526v-55h-83v-473h-64v473h-232v-473h-64v473h-83z" />
    <glyph glyph-name="rho" unicode="&#x3c1;" horiz-adv-x="502" 
d="M68 -200v463q0 130 52.5 202t138.5 72q90 0 145.5 -71.5t55.5 -201.5q0 -137 -50.5 -205t-133.5 -68q-82 0 -143 75v-266h-65zM133 264v-139q65 -77 134 -77q59 0 93 52.5t34 162.5q0 95 -34 156t-101 61q-61 0 -93.5 -59t-32.5 -157z" />
    <glyph glyph-name="sigma1" unicode="&#x3c2;" horiz-adv-x="441" 
d="M251 -201q-65 0 -113 38l24 36q37 -31 87 -31q32 0 52 18.5t20 54.5q0 34 -17.5 51t-65.5 22q-91 9 -143.5 78t-52.5 197q0 134 56.5 204t143.5 70q70 0 109 -41t61 -111l-60 -17q-17 55 -42.5 83.5t-69.5 28.5q-57 0 -94.5 -55t-37.5 -161q0 -206 138 -222
q66 -8 96.5 -36t30.5 -85t-33 -89.5t-89 -32.5z" />
    <glyph glyph-name="sigma" unicode="&#x3c3;" horiz-adv-x="499" 
d="M245 -11q-90 0 -146.5 72.5t-56.5 201.5t56 196t149 67h208v-55h-97q89 -60 89 -206q0 -130 -56 -203t-146 -73zM245 45q66 0 101 60t35 159q0 149 -94 207h-41q-66 0 -102 -55.5t-36 -151.5t34.5 -157.5t102.5 -61.5z" />
    <glyph glyph-name="tau" unicode="&#x3c4;" horiz-adv-x="379" 
d="M221 0h-63v470h-139v56h341v-56h-139v-470z" />
    <glyph glyph-name="upsilon" unicode="&#x3c5;" horiz-adv-x="490" 
d="M245 47q61 0 89 43t28 133v303h65v-304q0 -233 -182 -233q-99 0 -140.5 61t-41.5 172v304h65v-303q0 -89 27.5 -132.5t89.5 -43.5z" />
    <glyph glyph-name="phi" unicode="&#x3c6;" horiz-adv-x="607" 
d="M273 -200v190q-98 2 -164.5 72t-66.5 202t67 201t164 72v203h61v-203q97 -3 164 -72t67 -201q0 -131 -66 -201t-165 -73v-190h-61zM273 46v434q-74 -3 -120 -59t-46 -157t46 -157.5t120 -60.5zM334 46q72 3 119 59t47 158t-47 158t-119 59v-434z" />
    <glyph glyph-name="chi" unicode="&#x3c7;" horiz-adv-x="429" 
d="M21 0l160 277l-143 249h68l113 -200l110 200h64l-144 -248l160 -278h-68l-129 229l-128 -229h-63z" />
    <glyph glyph-name="psi" unicode="&#x3c8;" horiz-adv-x="624" 
d="M279 -200v189q-218 7 -218 246v291h65v-289q0 -183 153 -188v691h64v-691q80 4 118 54t38 134v289h64v-289q0 -111 -53 -177.5t-167 -70.5v-189h-64z" />
    <glyph glyph-name="omega" unicode="&#x3c9;" horiz-adv-x="638" 
d="M201 -11q-79 0 -118.5 64.5t-39.5 183.5q0 93 28.5 168.5t79.5 121.5h76q-119 -95 -119 -285q0 -194 97 -194q39 0 61.5 31.5t22.5 80.5v197h59v-197q0 -49 23 -80.5t61 -31.5q98 0 98 194q0 190 -120 285h76q52 -46 80.5 -121.5t28.5 -168.5q0 -119 -39.5 -183.5
t-118.5 -64.5q-46 0 -78 30t-40 70q-9 -40 -40 -70t-78 -30z" />
    <glyph glyph-name="iotadieresis" unicode="&#x3ca;" horiz-adv-x="211" 
d="M147 582v80h70v-80h-70zM-5 582v80h71v-80h-71zM73 0v526h65v-526h-65z" />
    <glyph glyph-name="upsilondieresis" unicode="&#x3cb;" horiz-adv-x="490" 
d="M283 582v80h70v-80h-70zM131 582v80h71v-80h-71zM245 47q61 0 89 43t28 133v303h65v-304q0 -233 -182 -233q-99 0 -140.5 61t-41.5 172v304h65v-303q0 -89 27.5 -132.5t89.5 -43.5z" />
    <glyph glyph-name="omicrontonos" unicode="&#x3cc;" horiz-adv-x="489" 
d="M219 583l81 154h82l-120 -154h-43zM245 -11q-90 0 -146.5 72.5t-56.5 201.5q0 130 56 202t147 72q90 0 146 -72t56 -202q0 -129 -56 -201.5t-146 -72.5zM245 45q66 0 101 59.5t35 159.5q0 94 -34.5 155t-101.5 61q-66 0 -101.5 -59t-35.5 -157q0 -96 34.5 -157.5
t102.5 -61.5z" />
    <glyph glyph-name="upsilontonos" unicode="&#x3cd;" horiz-adv-x="490" 
d="M245 47q61 0 89 43t28 133v303h65v-304q0 -233 -182 -233q-99 0 -140.5 61t-41.5 172v304h65v-303q0 -89 27.5 -132.5t89.5 -43.5zM218 583l81 154h82l-120 -154h-43z" />
    <glyph glyph-name="omegatonos" unicode="&#x3ce;" horiz-adv-x="638" 
d="M298 583l81 154h82l-120 -154h-43zM201 -11q-79 0 -118.5 64.5t-39.5 183.5q0 93 28.5 168.5t79.5 121.5h76q-119 -95 -119 -285q0 -194 97 -194q39 0 61.5 31.5t22.5 80.5v197h59v-197q0 -49 23 -80.5t61 -31.5q98 0 98 194q0 190 -120 285h76q52 -46 80.5 -121.5
t28.5 -168.5q0 -119 -39.5 -183.5t-118.5 -64.5q-46 0 -78 30t-40 70q-9 -40 -40 -70t-78 -30z" />
    <glyph glyph-name="afii10023" unicode="&#x401;" horiz-adv-x="504" 
d="M303 785v80h70v-80h-70zM151 785v80h71v-80h-71zM80 0v740h367v-63h-299v-254h220v-62h-220v-299h317v-62h-385z" />
    <glyph glyph-name="afii10051" unicode="&#x402;" horiz-adv-x="673" 
d="M223 0v677h-194v63h456v-63h-194v-250q67 88 158 88q79 0 130.5 -69t51.5 -183q0 -118 -52 -190.5t-148 -72.5v56q64 0 99 54.5t35 146.5q0 87 -35 141.5t-97 54.5q-72 0 -142 -83v-370h-68z" />
    <glyph glyph-name="afii10052" unicode="&#x403;" horiz-adv-x="477" 
d="M221 786l81 154h82l-120 -154h-43zM148 0h-68v740h363v-63h-295v-677z" />
    <glyph glyph-name="afii10053" unicode="&#x404;" horiz-adv-x="579" 
d="M307 -14q-121 0 -189.5 100t-68.5 287q0 180 69.5 280.5t189.5 100.5q172 0 222 -220l-63 -13q-20 86 -57.5 129.5t-103.5 43.5q-84 0 -133.5 -76.5t-54.5 -209.5h208v-61h-208q4 -143 53.5 -222.5t136.5 -79.5q67 0 107 45t61 137l60 -12q-24 -107 -81 -168t-148 -61z
" />
    <glyph glyph-name="afii10054" unicode="&#x405;" horiz-adv-x="537" 
d="M273 -12q-167 0 -238 173l59 27q59 -139 179 -139q68 0 108.5 35.5t40.5 93.5q0 33 -11.5 59t-38 47.5t-47 33t-60.5 31.5q-34 17 -48 24.5t-43.5 24.5t-43 32t-30.5 37t-24 49.5t-7 59.5q0 78 55 128t138 50q150 0 214 -154l-59 -27q-50 120 -156 120q-55 0 -90 -32.5
t-35 -83.5q0 -33 11.5 -59t37.5 -47t46.5 -33.5t59.5 -31.5q33 -16 48.5 -24t44 -25t43 -32.5t31.5 -37.5t24 -49t7 -59q0 -82 -59.5 -136.5t-156.5 -54.5z" />
    <glyph glyph-name="afii10055" unicode="&#x406;" horiz-adv-x="240" 
d="M86 0v740h68v-740h-68z" />
    <glyph glyph-name="afii10056" unicode="&#x407;" horiz-adv-x="240" 
d="M86 0v740h68v-740h-68zM161 785v80h70v-80h-70zM9 785v80h71v-80h-71z" />
    <glyph glyph-name="afii10057" unicode="&#x408;" horiz-adv-x="425" 
d="M184 -11q-91 0 -163 58l35 50q61 -48 125 -48q46 0 73.5 27t27.5 82v582h68v-580q0 -84 -45 -127.5t-121 -43.5z" />
    <glyph glyph-name="afii10058" unicode="&#x409;" horiz-adv-x="971" 
d="M20 0v58q62 0 83.5 26.5t21.5 92.5v563h445v-346h135q105 0 163 -47.5t58 -144.5q0 -202 -227 -202h-197v677h-308v-500q0 -94 -39 -135.5t-135 -41.5zM570 60h132q79 0 118.5 33.5t39.5 106.5q0 69 -39.5 100.5t-119.5 31.5h-131v-272z" />
    <glyph glyph-name="afii10059" unicode="&#x40a;" horiz-adv-x="935" 
d="M80 0v740h68v-319h318v319h67v-345h135q105 0 163.5 -48t58.5 -145q0 -202 -228 -202h-196v358h-318v-358h-68zM533 60h133q78 0 117.5 33.5t39.5 106.5q0 69 -39 100.5t-119 31.5h-132v-272z" />
    <glyph glyph-name="afii10060" unicode="&#x40b;" horiz-adv-x="654" 
d="M223 0v677h-194v63h456v-63h-194v-225q81 85 169 85q131 0 131 -146v-391h-65v380q0 51 -19.5 75.5t-62.5 24.5q-71 0 -153 -82v-398h-68z" />
    <glyph glyph-name="afii10061" unicode="&#x40c;" horiz-adv-x="560" 
d="M255 786l81 154h82l-120 -154h-43zM80 0v740h68v-403q21 34 80 116l205 287h72l-206 -285l241 -455h-72l-212 396l-108 -148v-248h-68z" />
    <glyph glyph-name="afii10062" unicode="&#x40e;" horiz-adv-x="547" 
d="M82 65q28 -17 59 -17q39 0 59.5 21.5t44.5 82.5l14 35l-229 553h70l170 -418l20 -53l18 54l154 417h69l-229 -605q-29 -77 -63 -111t-97 -34q-46 0 -86 22zM280 783q-59 0 -91.5 42.5t-36.5 119.5h44q11 -109 84 -109q74 0 84 109h44q-3 -76 -36 -119t-92 -43z" />
    <glyph glyph-name="afii10145" unicode="&#x40f;" horiz-adv-x="610" 
d="M80 0v740h68v-678h313v678h69v-740h-192v-200h-68v200h-190z" />
    <glyph glyph-name="afii10017" unicode="&#x410;" horiz-adv-x="556" 
d="M159 229l-65 -229h-64l217 743h62l217 -743h-68l-65 229h-234zM376 289l-34 121q-36 124 -65 233h-2q-21 -80 -64 -232l-35 -122h200z" />
    <glyph glyph-name="afii10018" unicode="&#x411;" horiz-adv-x="549" 
d="M80 0v740h363v-63h-295v-283h135q104 0 162.5 -47.5t58.5 -144.5q0 -202 -228 -202h-196zM148 60h132q78 0 117.5 33.5t39.5 106.5q0 69 -39 100.5t-119 31.5h-131v-272z" />
    <glyph glyph-name="afii10019" unicode="&#x412;" horiz-adv-x="575" 
d="M80 0v740h207q220 0 220 -186q0 -72 -34 -113.5t-86 -55.5v-2q140 -31 140 -182q0 -95 -57.5 -148t-164.5 -53h-225zM147 410h136q158 0 158 134q0 71 -37 102.5t-119 31.5h-138v-268zM147 60h159q155 0 155 145q0 146 -174 146h-140v-291z" />
    <glyph glyph-name="afii10020" unicode="&#x413;" horiz-adv-x="474" 
d="M148 0h-68v740h363v-63h-295v-677z" />
    <glyph glyph-name="afii10021" unicode="&#x414;" horiz-adv-x="659" 
d="M3 -200v262h35q80 0 86 117l43 561h399v-678h61v-262h-68v200h-488v-200h-68zM146 62h351v615h-267l-38 -502q-8 -94 -46 -113z" />
    <glyph glyph-name="afii10022" unicode="&#x415;" horiz-adv-x="504" 
d="M80 0v740h367v-63h-299v-254h220v-62h-220v-299h317v-62h-385z" />
    <glyph glyph-name="afii10024" unicode="&#x416;" horiz-adv-x="889" 
d="M585 396l-109 -148v-248h-64v248l-108 148l-213 -396h-72l242 455l-206 285h71l206 -287q70 -99 80 -116v403h64v-403q28 44 81 116l205 287h72l-206 -285l241 -455h-72z" />
    <glyph glyph-name="afii10025" unicode="&#x417;" horiz-adv-x="521" 
d="M258 -12q-164 0 -224 161l57 23q26 -69 66 -97t99 -28q70 0 110 42t40 110q0 83 -47 124.5t-153 41.5h-24v56h43q164 0 164 147q0 57 -30 91.5t-96 34.5q-86 0 -150 -86l-47 33q80 113 204 113q93 0 139 -51t46 -129q0 -70 -34.5 -116t-89.5 -62q140 -46 140 -196
q0 -93 -58.5 -152.5t-154.5 -59.5z" />
    <glyph glyph-name="afii10026" unicode="&#x418;" horiz-adv-x="621" 
d="M540 740v-740h-62v649h-2q-23 -49 -73 -145l-261 -504h-63v740h62v-611h2q53 106 66 131l247 480h84z" />
    <glyph glyph-name="afii10027" unicode="&#x419;" horiz-adv-x="621" 
d="M540 0v740h-84l-247 -480q-13 -25 -66 -131h-2v611h-62v-740h63l261 504q50 96 73 145h2v-649h62zM304 783q-59 0 -91.5 42.5t-36.5 119.5h44q11 -109 84 -109q74 0 84 109h44q-3 -76 -36 -119t-92 -43z" />
    <glyph glyph-name="afii10028" unicode="&#x41a;" horiz-adv-x="560" 
d="M80 0v740h68v-403q21 34 80 116l205 287h72l-206 -285l241 -455h-72l-212 396l-108 -148v-248h-68z" />
    <glyph glyph-name="afii10029" unicode="&#x41b;" horiz-adv-x="650" 
d="M194 677v-500q0 -94 -39 -135.5t-135 -41.5v58q62 0 83.5 26.5t21.5 92.5v563h446v-740h-69v677h-308z" />
    <glyph glyph-name="afii10030" unicode="&#x41c;" horiz-adv-x="728" 
d="M80 0v740h84l200 -644h2l197 644h85v-740h-66v625h-2q-13 -61 -54 -189l-137 -436h-55l-137 438q-34 107 -54 187h-2v-625h-61z" />
    <glyph glyph-name="afii10031" unicode="&#x41d;" horiz-adv-x="614" 
d="M80 0v740h68v-317h318v317h68v-740h-68v360h-318v-360h-68z" />
    <glyph glyph-name="afii10032" unicode="&#x41e;" horiz-adv-x="621" 
d="M311 -14q-118 0 -190 102t-72 282t72 282t190 102q117 0 189 -102t72 -282t-72 -282t-189 -102zM311 48q89 0 140.5 85t51.5 237t-51.5 237t-140.5 85t-141.5 -85t-52.5 -237t52.5 -237t141.5 -85z" />
    <glyph glyph-name="afii10033" unicode="&#x41f;" horiz-adv-x="610" 
d="M80 0v740h450v-740h-69v677h-313v-677h-68z" />
    <glyph glyph-name="afii10034" unicode="&#x420;" horiz-adv-x="549" 
d="M80 0v740h203q104 0 162.5 -50.5t58.5 -153.5q0 -112 -61 -162.5t-167 -50.5h-128v-323h-68zM148 384h132q79 0 118 35t39 115q0 76 -39 109.5t-119 33.5h-131v-293z" />
    <glyph glyph-name="afii10035" unicode="&#x421;" horiz-adv-x="582" 
d="M307 -14q-121 0 -189.5 100t-68.5 286q0 180 69.5 281t189.5 101q177 0 223 -229l-63 -12q-19 90 -57 134.5t-105 44.5q-89 0 -139 -85.5t-50 -233.5q0 -155 50 -240t141 -85q68 0 108.5 45t61.5 142l61 -10q-23 -111 -80.5 -175t-151.5 -64z" />
    <glyph glyph-name="afii10036" unicode="&#x422;" horiz-adv-x="515" 
d="M223 0v677h-194v63h456v-63h-194v-677h-68z" />
    <glyph glyph-name="afii10037" unicode="&#x423;" horiz-adv-x="547" 
d="M82 65q28 -17 59 -17q39 0 59.5 21.5t44.5 82.5l14 35l-229 553h70l170 -418l20 -53l18 54l154 417h69l-229 -605q-29 -77 -63 -111t-97 -34q-46 0 -86 22z" />
    <glyph glyph-name="afii10038" unicode="&#x424;" horiz-adv-x="651" 
d="M292 0v94q-114 9 -183 83.5t-69 192.5q0 121 69.5 199t182.5 87v84h67v-84q113 -9 182.5 -87t69.5 -199q0 -118 -69.5 -192.5t-182.5 -83.5v-94h-67zM108 370q0 -95 49 -151t135 -64v441q-85 -10 -134.5 -69.5t-49.5 -156.5zM543 370q0 97 -49.5 157t-134.5 69v-441
q85 8 134.5 64t49.5 151z" />
    <glyph glyph-name="afii10039" unicode="&#x425;" horiz-adv-x="544" 
d="M19 0l217 402l-182 338h73l149 -280l147 280h66l-181 -337l217 -403h-71l-185 347l-184 -347h-66z" />
    <glyph glyph-name="afii10040" unicode="&#x426;" horiz-adv-x="620" 
d="M518 -200v200h-438v740h68v-678h313v678h69v-678h56v-262h-68z" />
    <glyph glyph-name="afii10041" unicode="&#x427;" horiz-adv-x="571" 
d="M423 0v347q-30 -27 -78 -44t-94 -17q-93 0 -134.5 52.5t-41.5 179.5v223h68v-218q0 -100 26.5 -139.5t93.5 -39.5q42 0 86.5 16t73.5 44v336h68v-740h-68z" />
    <glyph glyph-name="afii10042" unicode="&#x428;" horiz-adv-x="907" 
d="M80 0v740h68v-678h272v678h68v-678h271v678h68v-740h-747z" />
    <glyph glyph-name="afii10043" unicode="&#x429;" horiz-adv-x="918" 
d="M80 0v740h68v-678h272v678h68v-678h271v678h68v-680h57v-260h-68v200h-736z" />
    <glyph glyph-name="afii10044" unicode="&#x42a;" horiz-adv-x="699" 
d="M231 0v677h-207v63h274v-346h135q105 0 163.5 -47.5t58.5 -144.5q0 -202 -228 -202h-196zM298 60h132q79 0 118.5 33.5t39.5 106.5q0 69 -39.5 100.5t-119.5 31.5h-131v-272z" />
    <glyph glyph-name="afii10045" unicode="&#x42b;" horiz-adv-x="788" 
d="M634 0v740h68v-740h-68zM80 0v740h68v-346h135q104 0 162.5 -47.5t58.5 -144.5q0 -202 -228 -202h-196zM148 60h132q78 0 117.5 33.5t39.5 106.5q0 69 -39 100.5t-119 31.5h-131v-272z" />
    <glyph glyph-name="afii10046" unicode="&#x42c;" horiz-adv-x="549" 
d="M80 0v740h68v-346h135q104 0 162.5 -47.5t58.5 -144.5q0 -202 -228 -202h-196zM148 60h132q78 0 117.5 33.5t39.5 106.5q0 69 -39 100.5t-119 31.5h-131v-272z" />
    <glyph glyph-name="afii10047" unicode="&#x42d;" horiz-adv-x="579" 
d="M271 -14q-91 0 -148 61t-81 168l60 12q21 -92 61 -137t107 -45q87 0 136.5 79.5t53.5 222.5h-208v61h208q-5 133 -54.5 209.5t-133.5 76.5q-66 0 -103.5 -43.5t-57.5 -129.5l-63 13q50 220 222 220q120 0 189.5 -100.5t69.5 -280.5q0 -187 -68.5 -287t-189.5 -100z" />
    <glyph glyph-name="afii10048" unicode="&#x42e;" horiz-adv-x="823" 
d="M524 -14q-112 0 -181 99t-71 275h-124v-360h-68v740h68v-317h125q11 156 78.5 243.5t172.5 87.5q112 0 181 -102t69 -282t-69 -282t-181 -102zM524 45q83 0 132.5 86.5t49.5 238.5t-49.5 238t-132.5 86q-85 0 -134.5 -86t-49.5 -238t49.5 -238.5t134.5 -86.5z" />
    <glyph glyph-name="afii10049" unicode="&#x42f;" 
d="M484 740v-740h-67v327h-145l-150 -327h-69l153 337q-64 16 -105 64.5t-41 135.5q0 203 220 203h204zM284 386h133v291h-132q-81 0 -119.5 -33t-38.5 -108q0 -81 38.5 -115.5t118.5 -34.5z" />
    <glyph glyph-name="afii10065" unicode="&#x430;" horiz-adv-x="465" 
d="M165 -7q-59 0 -92 34.5t-33 95.5q0 163 296 224v36q0 97 -84 97q-83 0 -159 -76l-39 39q89 94 203 94q143 0 143 -154v-253q0 -91 13 -130h-66q-11 38 -11 69q-73 -76 -171 -76zM183 47q85 0 153 76v174q-232 -49 -232 -167q0 -83 79 -83z" />
    <glyph glyph-name="afii10066" unicode="&#x431;" horiz-adv-x="489" 
d="M245 -11q-91 0 -147 73t-56 203q0 97 1 100q5 360 255 367q71 2 108 12v-61q-33 -9 -106 -13q-97 -3 -146.5 -69t-53.5 -201q20 61 61.5 95t89.5 34q89 0 142.5 -71.5t53.5 -199.5q0 -124 -55.5 -196.5t-146.5 -72.5zM245 45q65 0 100.5 58.5t35.5 155.5
q0 93 -34.5 153.5t-101.5 60.5q-65 0 -101 -59t-36 -155q0 -93 34.5 -153.5t102.5 -60.5z" />
    <glyph glyph-name="afii10067" unicode="&#x432;" horiz-adv-x="451" 
d="M68 0v526h164q74 0 119.5 -31.5t45.5 -95.5q0 -53 -26 -84t-69 -41v-1q111 -19 111 -131q0 -66 -45 -104t-120 -38h-180zM131 54h113q105 0 105 94q0 97 -118 97h-100v-191zM131 297h97q108 0 108 90q0 84 -107 84h-98v-174z" />
    <glyph glyph-name="afii10068" unicode="&#x433;" horiz-adv-x="393" 
d="M372 526v-55h-239v-471h-65v526h304z" />
    <glyph glyph-name="afii10069" unicode="&#x434;" horiz-adv-x="512" 
d="M71 -200h-63v257q49 3 70 29.5t24 74.5l26 365h313v-469h44v-257h-61v200h-353v-200zM377 56v415h-189l-22 -314q-5 -80 -46 -101h257z" />
    <glyph glyph-name="afii10070" unicode="&#x435;" horiz-adv-x="464" 
d="M238 -11q-87 0 -141.5 71.5t-54.5 203.5t57 202.5t141 70.5q87 0 135 -69.5t48 -198.5v-15h-316q2 -100 38 -154.5t97 -54.5q45 0 73.5 25.5t52.5 76.5l49 -27q-58 -131 -179 -131zM108 307h250q-4 79 -33.5 126.5t-85.5 47.5q-51 0 -87.5 -44t-43.5 -130z" />
    <glyph glyph-name="afii10072" unicode="&#x436;" horiz-adv-x="698" 
d="M23 0l162 335l-143 191h68l130 -176q66 -88 78 -108v284h62v-284q1 2 78 108l130 176h68l-143 -191l162 -335h-67l-136 281l-92 -120v-161h-62v161l-92 120l-136 -281h-67z" />
    <glyph glyph-name="afii10073" unicode="&#x437;" horiz-adv-x="422" 
d="M210 -11q-117 0 -176 94l43 39q47 -78 131 -78q55 0 87 29t32 75q0 50 -36 73t-122 23h-16v52h17q78 0 112 22t34 74q0 40 -26.5 66.5t-79.5 26.5q-65 0 -112 -60l-38 39q57 74 153 74q79 0 120.5 -39t41.5 -99q0 -53 -26.5 -86.5t-76.5 -42.5q115 -23 115 -129
q0 -67 -48 -110t-129 -43z" />
    <glyph glyph-name="afii10074" unicode="&#x438;" horiz-adv-x="511" 
d="M444 526v-526h-62v420q-37 -64 -129.5 -217.5t-121.5 -202.5h-63v526h61v-421q36 62 129 217.5t121 203.5h65z" />
    <glyph glyph-name="afii10075" unicode="&#x439;" horiz-adv-x="511" 
d="M444 526v-526h-62v420q-37 -64 -129.5 -217.5t-121.5 -202.5h-63v526h61v-421q36 62 129 217.5t121 203.5h65zM259 579q-59 0 -91.5 42.5t-36.5 119.5h44q11 -109 84 -109q74 0 84 109h44q-3 -76 -36 -119t-92 -43z" />
    <glyph glyph-name="afii10076" unicode="&#x43a;" horiz-adv-x="450" 
d="M68 0v526h65v-284q11 20 77 108l130 176h68l-143 -191l162 -335h-67l-136 281l-91 -120v-161h-65z" />
    <glyph glyph-name="afii10077" unicode="&#x43b;" horiz-adv-x="520" 
d="M387 0v471h-222v-326q0 -88 -36 -116t-117 -29v54q55 0 72 16.5t17 73.5v382h350v-526h-64z" />
    <glyph glyph-name="afii10078" unicode="&#x43c;" horiz-adv-x="599" 
d="M124 0h-56v526h78l153 -442h1l152 442h79v-526h-58v412h-1q-1 -5 -15 -46.5t-15 -44.5l-117 -321h-54l-115 317q-1 5 -15.5 47.5t-15.5 47.5h-1v-412z" />
    <glyph glyph-name="afii10079" unicode="&#x43d;" horiz-adv-x="500" 
d="M68 0v526h65v-216h235v216h64v-526h-64v254h-235v-254h-65z" />
    <glyph glyph-name="afii10080" unicode="&#x43e;" horiz-adv-x="489" 
d="M245 -11q-90 0 -146.5 72.5t-56.5 201.5q0 130 56 202t147 72q90 0 146 -72t56 -202q0 -129 -56 -201.5t-146 -72.5zM245 45q66 0 101 59.5t35 159.5q0 94 -34.5 155t-101.5 61q-66 0 -101.5 -59t-35.5 -157q0 -96 34.5 -157.5t102.5 -61.5z" />
    <glyph glyph-name="afii10081" unicode="&#x43f;" horiz-adv-x="500" 
d="M68 0v526h364v-526h-64v471h-235v-471h-65z" />
    <glyph glyph-name="afii10082" unicode="&#x440;" horiz-adv-x="502" 
d="M68 -200v726h65v-67q66 78 146 78q82 0 131.5 -68t49.5 -205t-50.5 -205t-133.5 -68q-82 0 -143 75v-266h-65zM267 48q59 0 93 52.5t34 162.5q0 108 -35 162.5t-93 54.5q-65 0 -133 -79v-276q65 -77 134 -77z" />
    <glyph glyph-name="afii10083" unicode="&#x441;" horiz-adv-x="450" 
d="M237 -11q-85 0 -140 73t-55 201q0 134 56.5 204t143.5 70q70 0 109 -41t61 -111l-60 -17q-17 55 -42.5 83.5t-69.5 28.5q-57 0 -94.5 -55t-37.5 -161q0 -100 35.5 -159t96.5 -59q87 0 118 113l58 -17q-47 -153 -179 -153z" />
    <glyph glyph-name="afii10084" unicode="&#x442;" horiz-adv-x="418" 
d="M177 0v471h-156v55h376v-55h-155v-471h-65z" />
    <glyph glyph-name="afii10085" unicode="&#x443;" horiz-adv-x="449" 
d="M81 -201q-41 0 -72 11l13 53q23 -7 61 -7q35 0 53.5 20.5t33.5 68.5l17 50l-164 531h66l86 -290q32 -111 44 -159h2q24 88 47 165l84 284h62l-181 -586q-25 -77 -57 -109t-95 -32z" />
    <glyph glyph-name="afii10086" unicode="&#x444;" horiz-adv-x="771" 
d="M354 -200v269q-64 -78 -138 -78q-78 0 -125.5 67.5t-47.5 204.5q0 136 48 205t126 69t137 -77v280h65v-281q62 78 137 78q78 0 125.5 -68t47.5 -205t-48 -205t-127 -68q-77 0 -135 77v-268h-65zM229 48q61 0 125 76v276q-64 80 -126 80q-55 0 -87 -53t-32 -163
q0 -108 33 -162t87 -54zM545 47q54 0 86 53.5t32 162.5q0 107 -32.5 162t-86.5 55q-36 0 -64 -20t-61 -59v-275q62 -79 126 -79z" />
    <glyph glyph-name="afii10087" unicode="&#x445;" horiz-adv-x="429" 
d="M21 0l160 277l-143 249h68l113 -200l110 200h64l-144 -248l160 -278h-68l-129 229l-128 -229h-63z" />
    <glyph glyph-name="afii10088" unicode="&#x446;" horiz-adv-x="506" 
d="M415 0h-347v526h65v-470h235v470h64v-470h46v-256h-63v200z" />
    <glyph glyph-name="afii10089" unicode="&#x447;" horiz-adv-x="490" 
d="M423 526v-526h-65v244q-26 -37 -70.5 -62.5t-99.5 -25.5q-134 0 -134 159v211h64v-200q0 -60 21.5 -86.5t68.5 -26.5q41 0 81.5 27t68.5 66v220h65z" />
    <glyph glyph-name="afii10090" unicode="&#x448;" horiz-adv-x="786" 
d="M719 526v-526h-651v526h65v-470h228v470h65v-470h228v470h65z" />
    <glyph glyph-name="afii10091" unicode="&#x449;" horiz-adv-x="793" 
d="M702 0h-634v526h65v-470h228v470h65v-470h228v470h65v-470h45v-256h-62v200z" />
    <glyph glyph-name="afii10092" unicode="&#x44a;" horiz-adv-x="500" 
d="M128 0v471h-120v55h184v-213h97q93 0 139.5 -36t46.5 -120q0 -77 -49 -117t-135 -40h-163zM192 254v-198h99q121 0 121 102q0 54 -29 75t-92 21h-99z" />
    <glyph glyph-name="afii10093" unicode="&#x44b;" horiz-adv-x="625" 
d="M492 0v526h65v-526h-65zM68 0v526h65v-213h96q93 0 139.5 -36t46.5 -120q0 -77 -49 -117t-135 -40h-163zM133 56h98q121 0 121 102q0 54 -28.5 75t-92.5 21h-98v-198z" />
    <glyph glyph-name="afii10094" unicode="&#x44c;" horiz-adv-x="441" 
d="M68 0v526h65v-213h96q93 0 139.5 -36t46.5 -120q0 -77 -49 -117t-135 -40h-163zM133 56h98q121 0 121 102q0 54 -28.5 75t-92.5 21h-98v-198z" />
    <glyph glyph-name="afii10095" unicode="&#x44d;" horiz-adv-x="447" 
d="M210 -11q-130 0 -176 147l56 18q34 -109 117 -109q58 0 94 54t39 144h-214v52h213q-5 91 -42 138.5t-90 47.5q-78 0 -111 -108l-59 17q47 147 168 147q87 0 143.5 -70t56.5 -204q0 -128 -55 -201t-140 -73z" />
    <glyph glyph-name="afii10096" unicode="&#x44e;" horiz-adv-x="659" 
d="M425 -11q-83 0 -136 70t-56 194h-100v-253h-65v526h65v-217h102q10 109 61.5 168.5t128.5 59.5q86 0 139 -72t53 -202q0 -129 -53 -201.5t-139 -72.5zM425 44q60 0 93 60.5t33 159.5q0 95 -32 156.5t-94 61.5q-61 0 -94 -60t-33 -158q0 -96 32 -158t95 -62z" />
    <glyph glyph-name="afii10097" unicode="&#x44f;" horiz-adv-x="467" 
d="M47 0l108 219q-103 28 -103 149q0 79 48 118.5t133 39.5h166v-526h-63v210h-121l-101 -210h-67zM233 266h103v204h-103q-61 0 -89.5 -25t-28.5 -78q0 -54 28.5 -77.5t89.5 -23.5z" />
    <glyph glyph-name="afii10071" unicode="&#x451;" horiz-adv-x="464" 
d="M273 582v80h70v-80h-70zM121 582v80h71v-80h-71zM238 -11q-87 0 -141.5 71.5t-54.5 203.5t57 202.5t141 70.5q87 0 135 -69.5t48 -198.5v-15h-316q2 -100 38 -154.5t97 -54.5q45 0 73.5 25.5t52.5 76.5l49 -27q-58 -131 -179 -131zM108 307h250q-4 79 -33.5 126.5
t-85.5 47.5q-51 0 -87.5 -44t-43.5 -130z" />
    <glyph glyph-name="afii10099" unicode="&#x452;" horiz-adv-x="495" 
d="M333 -200q-25 0 -33 2v54q10 -2 25 -2q42 0 42 56v470q0 51 -19 75.5t-63 24.5q-70 0 -152 -82v-398h-65v597h-53v57h53v86h65v-86h107v-57h-107v-145q32 35 77 60t92 25q130 0 130 -146v-480q0 -58 -23 -84.5t-76 -26.5z" />
    <glyph glyph-name="afii10100" unicode="&#x453;" horiz-adv-x="393" 
d="M190 584l81 154h82l-120 -154h-43zM372 526v-55h-239v-471h-65v526h304z" />
    <glyph glyph-name="afii10101" unicode="&#x454;" horiz-adv-x="447" 
d="M237 -11q-85 0 -140 73t-55 201q0 134 56.5 204t143.5 70q121 0 168 -147l-59 -17q-33 108 -111 108q-53 0 -90 -47.5t-42 -138.5h213v-52h-214q3 -90 39 -144t94 -54q83 0 117 109l56 -18q-46 -147 -176 -147z" />
    <glyph glyph-name="afii10102" unicode="&#x455;" horiz-adv-x="428" 
d="M213 -10q-125 0 -189 110l48 31q52 -86 142 -86q54 0 83.5 23t29.5 63q0 32 -20.5 55t-51 35t-66.5 27.5t-66.5 31.5t-51 47t-20.5 74q0 59 44 97.5t115 38.5q111 0 169 -97l-48 -32q-43 74 -121 74q-47 0 -71 -22t-24 -56q0 -38 28 -62.5t68.5 -39t81 -31.5t68.5 -51
t28 -87q0 -64 -50 -103.5t-126 -39.5z" />
    <glyph glyph-name="afii10103" unicode="&#x456;" horiz-adv-x="211" 
d="M72 641v77h67v-77h-67zM73 0v526h65v-526h-65z" />
    <glyph glyph-name="afii10104" unicode="&#x457;" horiz-adv-x="211" 
d="M147 582v80h70v-80h-70zM-5 582v80h71v-80h-71zM73 0v526h65v-526h-65z" />
    <glyph glyph-name="afii10105" unicode="&#x458;" horiz-adv-x="211" 
d="M72 641v77h67v-77h-67zM38 -200q-23 0 -33 2v54q12 -2 26 -2q42 0 42 56v616h65v-615q0 -58 -23.5 -84.5t-76.5 -26.5z" />
    <glyph glyph-name="afii10106" unicode="&#x459;" horiz-adv-x="691" 
d="M387 0v471h-222v-326q0 -88 -36 -116t-117 -29v54q55 0 72 16.5t17 73.5v382h350v-213h97q92 0 138.5 -36t46.5 -120q0 -77 -49 -117t-134 -40h-163zM451 254v-198h98q122 0 122 102q0 54 -29 75t-92 21h-99z" />
    <glyph glyph-name="afii10107" unicode="&#x45a;" horiz-adv-x="672" 
d="M68 0v526h64v-215h236v215h64v-214h97q92 0 138.5 -36t46.5 -119q0 -78 -49 -117.5t-134 -39.5h-163v253h-235v-253h-65zM432 56h98q122 0 122 101q0 54 -29 75t-92 21h-99v-197z" />
    <glyph glyph-name="afii10108" unicode="&#x45b;" horiz-adv-x="495" 
d="M68 0v597h-53v57h53v86h65v-86h107v-57h-107v-145q32 35 77 60t92 25q130 0 130 -146v-391h-65v380q0 51 -19 75.5t-63 24.5q-70 0 -152 -82v-398h-65z" />
    <glyph glyph-name="afii10109" unicode="&#x45c;" horiz-adv-x="450" 
d="M205 583l81 154h82l-120 -154h-43zM68 0v526h65v-284q11 20 77 108l130 176h68l-143 -191l162 -335h-67l-136 281l-91 -120v-161h-65z" />
    <glyph glyph-name="afii10110" unicode="&#x45e;" horiz-adv-x="449" 
d="M81 -201q-41 0 -72 11l13 53q23 -7 61 -7q35 0 53.5 20.5t33.5 68.5l17 50l-164 531h66l86 -290q32 -111 44 -159h2q24 88 47 165l84 284h62l-181 -586q-25 -77 -57 -109t-95 -32zM221 579q-59 0 -91.5 42.5t-36.5 119.5h44q11 -109 84 -109q74 0 84 109h44
q-3 -76 -36 -119t-92 -43z" />
    <glyph glyph-name="afii10193" unicode="&#x45f;" horiz-adv-x="500" 
d="M218 -200v200h-150v526h65v-470h235v470h64v-526h-149v-200h-65z" />
    <glyph glyph-name="afii10050" unicode="&#x490;" horiz-adv-x="478" 
d="M80 0v740h297v125h67v-188h-295v-677h-69z" />
    <glyph glyph-name="afii10098" unicode="&#x491;" horiz-adv-x="393" 
d="M372 695v-226h-239v-469h-65v526h239v169h65z" />
    <glyph glyph-name="Wgrave" unicode="&#x1e80;" horiz-adv-x="770" 
d="M199 -3l-165 743h64l85 -399q28 -127 46 -224h2q8 46 45 224l80 399h62l83 -410q35 -171 42 -213h2q16 84 44 214l86 409h61l-165 -743h-57l-128 620h-2l-128 -620h-57zM364 786l-119 154h83l80 -154h-44z" />
    <glyph glyph-name="wgrave" unicode="&#x1e81;" horiz-adv-x="631" 
d="M160 -3l-137 529h63l71 -283q18 -71 34 -146h2q14 67 33 149l63 280h58l64 -278q26 -109 34 -151h2q1 6 35 152l68 277h58l-136 -529h-57l-98 421h-2l-99 -421h-56zM295 583l-119 154h83l80 -154h-44z" />
    <glyph glyph-name="Wacute" unicode="&#x1e82;" horiz-adv-x="770" 
d="M367 786l81 154h82l-120 -154h-43zM199 -3l-165 743h64l85 -399q28 -127 46 -224h2q8 46 45 224l80 399h62l83 -410q35 -171 42 -213h2q16 84 44 214l86 409h61l-165 -743h-57l-128 620h-2l-128 -620h-57z" />
    <glyph glyph-name="wacute" unicode="&#x1e83;" horiz-adv-x="631" 
d="M298 583l81 154h82l-120 -154h-43zM160 -3l-137 529h63l71 -283q18 -71 34 -146h2q14 67 33 149l63 280h58l64 -278q26 -109 34 -151h2q1 6 35 152l68 277h58l-136 -529h-57l-98 421h-2l-99 -421h-56z" />
    <glyph glyph-name="Wdieresis" unicode="&#x1e84;" horiz-adv-x="770" 
d="M427 785v80h70v-80h-70zM275 785v80h71v-80h-71zM199 -3l-165 743h64l85 -399q28 -127 46 -224h2q8 46 45 224l80 399h62l83 -410q35 -171 42 -213h2q16 84 44 214l86 409h61l-165 -743h-57l-128 620h-2l-128 -620h-57z" />
    <glyph glyph-name="wdieresis" unicode="&#x1e85;" horiz-adv-x="631" 
d="M357 582v80h70v-80h-70zM205 582v80h71v-80h-71zM160 -3l-137 529h63l71 -283q18 -71 34 -146h2q14 67 33 149l63 280h58l64 -278q26 -109 34 -151h2q1 6 35 152l68 277h58l-136 -529h-57l-98 421h-2l-99 -421h-56z" />
    <glyph glyph-name="Ygrave" unicode="&#x1ef2;" horiz-adv-x="515" 
d="M223 0v309l-204 431h70l169 -368h2l169 368h66l-203 -429v-311h-69zM251 786l-119 154h83l80 -154h-44z" />
    <glyph glyph-name="ygrave" unicode="&#x1ef3;" horiz-adv-x="449" 
d="M81 -201q-41 0 -72 11l13 53q23 -7 61 -7q35 0 53.5 20.5t33.5 68.5l17 50l-164 531h66l86 -290q32 -111 44 -159h2q24 88 47 165l84 284h62l-181 -586q-25 -77 -57 -109t-95 -32zM217 583l-119 154h83l80 -154h-44z" />
    <glyph glyph-name="space.en" unicode="&#x2002;" horiz-adv-x="193" 
 />
    <glyph glyph-name="space.em" unicode="&#x2003;" horiz-adv-x="193" 
 />
    <glyph glyph-name="space.tab_en" unicode="&#x2007;" horiz-adv-x="193" 
 />
    <glyph glyph-name="space.thin" unicode="&#x2009;" horiz-adv-x="193" 
 />
    <glyph glyph-name="endash.tab" unicode="&#x2012;" 
d="M67 284v59h431v-59h-431z" />
    <glyph glyph-name="endash" unicode="&#x2013;" horiz-adv-x="552" 
d="M54 284v60h443v-60h-443z" />
    <glyph glyph-name="emdash" unicode="&#x2014;" horiz-adv-x="759" 
d="M54 284v60h650v-60h-650z" />
    <glyph glyph-name="emdash.em_salt" unicode="&#x2015;" horiz-adv-x="0" 
 />
    <glyph glyph-name="quoteleft" unicode="&#x2018;" horiz-adv-x="236" 
d="M78 546v86l42 108h31l-24 -101h30v-93h-79z" />
    <glyph glyph-name="quoteright" unicode="&#x2019;" horiz-adv-x="236" 
d="M84 546l25 101h-31v93h79v-86l-42 -108h-31z" />
    <glyph glyph-name="quotesinglbase" unicode="&#x201a;" horiz-adv-x="236" 
d="M84 -101l25 101h-31v93h79v-86l-42 -108h-31z" />
    <glyph glyph-name="quotedblleft" unicode="&#x201c;" horiz-adv-x="399" 
d="M242 546v86l41 108h30l-23 -101h30v-93h-78zM78 546v86l42 108h31l-24 -101h30v-93h-79z" />
    <glyph glyph-name="quotedblright" unicode="&#x201d;" horiz-adv-x="399" 
d="M248 546l23 101h-29v93h77v-86l-41 -108h-30zM84 546l25 101h-31v93h79v-86l-42 -108h-31z" />
    <glyph glyph-name="quotedblbase" unicode="&#x201e;" horiz-adv-x="399" 
d="M248 -101l23 101h-29v93h77v-86l-41 -108h-30zM84 -101l25 101h-31v93h79v-86l-42 -108h-31z" />
    <glyph glyph-name="dagger" unicode="&#x2020;" horiz-adv-x="474" 
d="M201 -200l12 626l-171 -10v64l171 -11l-12 271h71l-11 -271l171 11v-64l-171 10l11 -626h-71z" />
    <glyph glyph-name="daggerdbl" unicode="&#x2021;" horiz-adv-x="473" 
d="M201 -200l12 240l-166 -10v63l166 -10l-8 190l8 185l-166 -10v63l166 -10l-12 239h71l-12 -239l166 10v-63l-166 10l9 -185l-9 -190l166 10v-63l-166 10l12 -240h-71z" />
    <glyph glyph-name="bullet" unicode="&#x2022;" horiz-adv-x="463" 
d="M231 234q-50 0 -83 33t-33 83q0 51 33 84t83 33q51 0 84 -33t33 -84q0 -50 -33 -83t-84 -33z" />
    <glyph glyph-name="ellipsis" unicode="&#x2026;" horiz-adv-x="706" 
d="M547 0v93h80v-93h-80zM312 0v93h80v-93h-80zM77 0v93h80v-93h-80z" />
    <glyph glyph-name="perthousand" unicode="&#x2030;" horiz-adv-x="1143" 
d="M190 307q-68 0 -104 57.5t-36 165.5t36 165.5t104 57.5q66 0 102 -57.5t36 -165.5t-36 -165.5t-102 -57.5zM190 0l376 740h59l-376 -740h-59zM955 -10q-67 0 -103 57.5t-36 165.5t36 165.5t103 57.5t102.5 -57.5t35.5 -165.5q0 -109 -35.5 -166t-102.5 -57zM628 -10
q-68 0 -104 57.5t-36 165.5t36 165.5t104 57.5q66 0 101.5 -57.5t35.5 -165.5t-35.5 -165.5t-101.5 -57.5zM190 359q81 0 81 171t-81 171q-82 0 -82 -171t82 -171zM955 41q81 0 81 172q0 170 -81 170q-82 0 -82 -170q0 -172 82 -172zM628 41q81 0 81 172q0 170 -81 170
q-82 0 -82 -170q0 -172 82 -172z" />
    <glyph glyph-name="prime" unicode="&#x2032;" horiz-adv-x="205" 
d="M62 490l19 197l9 53h66l-57 -250h-37z" />
    <glyph glyph-name="primedbl" unicode="&#x2033;" horiz-adv-x="357" 
d="M215 490l21 197l9 53h65l-58 -250h-37zM62 490l19 197l9 53h66l-57 -250h-37z" />
    <glyph glyph-name="guilsinglleft" unicode="&#x2039;" horiz-adv-x="267" 
d="M154 0l-121 264l121 262h66l-119 -262l119 -264h-66z" />
    <glyph glyph-name="guilsinglright" unicode="&#x203a;" horiz-adv-x="267" 
d="M47 0l119 264l-119 262h65l123 -262l-123 -264h-65z" />
    <glyph glyph-name="fraction" unicode="&#x2044;" horiz-adv-x="430" 
d="M-2 0l374 740h60l-373 -740h-61z" />
    <glyph glyph-name="fraction" unicode="&#x2215;" horiz-adv-x="430" 
d="M-2 0l374 740h60l-373 -740h-61z" />
    <glyph glyph-name="zero.sups" unicode="&#x2070;" horiz-adv-x="399" 
d="M199 301q-70 0 -106.5 57t-36.5 166t36.5 166.5t106.5 57.5t107 -57.5t37 -166.5t-37 -166t-107 -57zM199 350q44 0 65.5 40.5t21.5 133.5q0 174 -87 174q-43 0 -64.5 -41t-21.5 -133q0 -174 86 -174z" />
    <glyph glyph-name="four.sups" unicode="&#x2074;" horiz-adv-x="345" 
d="M197 309v104h-167v37l163 290h57v-278h59v-49h-59v-104h-53zM88 461h110v198z" />
    <glyph glyph-name="five.sups" unicode="&#x2075;" horiz-adv-x="353" 
d="M174 301q-48 0 -76.5 21t-49.5 64l43 23q17 -32 34 -45.5t48 -13.5q73 0 73 101q0 94 -65 94q-45 0 -67 -37l-46 7l14 225h199l-4 -51h-151l-9 -124q29 27 75 27q109 0 109 -141q0 -75 -33.5 -112.5t-93.5 -37.5z" />
    <glyph glyph-name="six.sups" unicode="&#x2076;" horiz-adv-x="366" 
d="M188 301q-63 0 -97.5 55t-34.5 165q0 105 34.5 166t107.5 61q67 0 108 -59l-41 -29q-30 41 -69 41q-82 0 -87 -157q47 43 90 43q115 0 115 -139q0 -64 -33.5 -105.5t-92.5 -41.5zM189 349q72 0 72 99q0 92 -69 92q-44 0 -81 -51q8 -140 78 -140z" />
    <glyph glyph-name="seven.sups" unicode="&#x2077;" horiz-adv-x="312" 
d="M67 309l154 380h-173v51h230v-49l-155 -382h-56z" />
    <glyph glyph-name="eight.sups" unicode="&#x2078;" horiz-adv-x="365" 
d="M183 301q-64 0 -99.5 32t-35.5 81q0 42 22.5 70t65.5 52q-36 21 -53 45t-17 60q0 45 30.5 76t86.5 31q57 0 87 -30t30 -77q0 -36 -17 -59t-53 -45q45 -25 66 -51.5t21 -70.5q0 -49 -35 -81.5t-99 -32.5zM183 345q37 0 58.5 20t21.5 53q0 30 -19.5 50t-63.5 45
q-42 -24 -60 -44.5t-18 -51.5t22 -51.5t59 -20.5zM186 560q33 18 47 35t14 44q0 63 -63 63q-32 0 -48.5 -18t-16.5 -43q0 -27 15.5 -44t51.5 -37z" />
    <glyph glyph-name="nine.sups" unicode="&#x2079;" horiz-adv-x="366" 
d="M169 301q-68 0 -109 59l41 29q32 -41 70 -41q81 0 86 158q-46 -44 -90 -44q-115 0 -115 139q0 64 33.5 105.5t92.5 41.5q63 0 97.5 -54.5t34.5 -164.5q0 -105 -34 -166.5t-107 -61.5zM174 508q44 0 82 51q-9 141 -79 141q-34 0 -53 -26t-19 -73q0 -93 69 -93z" />
    <glyph glyph-name="zero.sinf" unicode="&#x2080;" horiz-adv-x="399" 
d="M199 -207q-70 0 -106.5 57t-36.5 166t36.5 166.5t106.5 57.5t107 -57.5t37 -166.5t-37 -166t-107 -57zM199 -158q44 0 65.5 40.5t21.5 133.5q0 174 -87 174q-43 0 -64.5 -41t-21.5 -133q0 -174 86 -174z" />
    <glyph glyph-name="one.sinf" unicode="&#x2081;" horiz-adv-x="291" 
d="M55 -199v51h67v316q-29 -13 -66 -13v50q50 1 74 27h49v-380h59v-51h-183z" />
    <glyph glyph-name="two.sinf" unicode="&#x2082;" horiz-adv-x="331" 
d="M42 -195v19q0 48 19.5 85.5t48 61t56.5 45t47.5 49t19.5 60.5q0 69 -60 69q-50 0 -78 -75l-49 20q40 105 128 105q54 0 84 -31t30 -87q0 -37 -18.5 -68t-44.5 -53t-53 -43t-47 -47.5t-22 -57.5h186v-52h-247z" />
    <glyph glyph-name="three.sinf" unicode="&#x2083;" horiz-adv-x="341" 
d="M169 -200q-96 0 -137 103l47 20q18 -41 38.5 -57.5t50.5 -16.5q35 0 55 21.5t20 55.5q0 44 -23.5 65.5t-78.5 21.5h-21v43h31q84 0 84 74q0 64 -62 64q-44 0 -84 -51l-40 28q52 73 128 73q57 0 85 -31t28 -78q0 -69 -61 -98q68 -29 68 -110q0 -56 -35 -91.5t-93 -35.5z
" />
    <glyph glyph-name="four.sinf" unicode="&#x2084;" horiz-adv-x="345" 
d="M197 -199v104h-167v37l163 290h57v-278h59v-49h-59v-104h-53zM88 -47h110v198z" />
    <glyph glyph-name="five.sinf" unicode="&#x2085;" horiz-adv-x="353" 
d="M174 -207q-48 0 -76.5 21t-49.5 64l43 23q17 -32 34 -45.5t48 -13.5q73 0 73 101q0 94 -65 94q-45 0 -67 -37l-46 7l14 225h199l-4 -51h-151l-9 -124q29 27 75 27q109 0 109 -141q0 -75 -33.5 -112.5t-93.5 -37.5z" />
    <glyph glyph-name="six.sinf" unicode="&#x2086;" horiz-adv-x="366" 
d="M188 -207q-63 0 -97.5 55t-34.5 165q0 105 34.5 166t107.5 61q67 0 108 -59l-41 -29q-30 41 -69 41q-82 0 -87 -157q47 43 90 43q115 0 115 -139q0 -64 -33.5 -105.5t-92.5 -41.5zM189 -159q72 0 72 99q0 92 -69 92q-44 0 -81 -51q8 -140 78 -140z" />
    <glyph glyph-name="seven.sinf" unicode="&#x2087;" horiz-adv-x="312" 
d="M67 -199l154 380h-173v51h230v-49l-155 -382h-56z" />
    <glyph glyph-name="eight.sinf" unicode="&#x2088;" horiz-adv-x="365" 
d="M183 -207q-64 0 -99.5 32t-35.5 81q0 42 22.5 70t65.5 52q-36 21 -53 45t-17 60q0 45 30.5 76t86.5 31q57 0 87 -30t30 -77q0 -36 -17 -59t-53 -45q45 -25 66 -51.5t21 -70.5q0 -49 -35 -81.5t-99 -32.5zM183 -163q37 0 58.5 20t21.5 53q0 30 -19.5 50t-63.5 45
q-42 -24 -60 -44.5t-18 -51.5t22 -51.5t59 -20.5zM186 52q33 18 47 35t14 44q0 63 -63 63q-32 0 -48.5 -18t-16.5 -43q0 -27 15.5 -44t51.5 -37z" />
    <glyph glyph-name="nine.sinf" unicode="&#x2089;" horiz-adv-x="366" 
d="M169 -207q-68 0 -109 59l41 29q32 -41 70 -41q81 0 86 158q-46 -44 -90 -44q-115 0 -115 139q0 64 33.5 105.5t92.5 41.5q63 0 97.5 -54.5t34.5 -164.5q0 -105 -34 -166.5t-107 -61.5zM174 0q44 0 82 51q-9 141 -79 141q-34 0 -53 -26t-19 -73q0 -93 69 -93z" />
    <glyph glyph-name="Euro" unicode="&#x20ac;" horiz-adv-x="598" 
d="M116 418h-101v55h105q15 143 74.5 212t152.5 69q86 0 137.5 -57.5t68.5 -150.5l-64 -12q-16 77 -48.5 118.5t-92.5 41.5q-138 0 -161 -221h184v-55h-189v-43q0 -36 1 -53h188v-55h-184q24 -221 165 -221q118 0 149 168l62 -11q-17 -97 -71.5 -157t-139.5 -60
q-199 0 -231 281h-106v55h101q0 8 -0.5 25t-0.5 26q0 31 1 45z" />
    <glyph glyph-name="litre" unicode="&#x2113;" horiz-adv-x="539" 
d="M299 0q-121 0 -121 147v123l-71 -72l-21 32l92 90v227q0 82 33.5 129t94.5 47q51 0 76 -32.5t25 -72.5q0 -66 -31.5 -125t-91.5 -126l-37 -46v-167q0 -101 78 -101q45 0 87 42l23 -32q-63 -63 -136 -63zM247 374l49 62q66 96 66 171q0 31 -13 49.5t-37 18.5
q-65 0 -65 -122v-179z" />
    <glyph glyph-name="afii61352" unicode="&#x2116;" horiz-adv-x="947" 
d="M637 246v51h259v-51h-259zM764 363q-64 0 -104 51.5t-40 143.5q0 93 40 144.5t104 51.5q65 0 105 -51.5t40 -144.5q0 -92 -40 -143.5t-105 -51.5zM764 408q45 0 69 41.5t24 109.5q0 65 -23.5 106.5t-69.5 41.5q-44 0 -68 -41t-24 -107t23 -108.5t69 -42.5zM80 0v740h84
l247 -480q13 -25 66 -131h2v611h62v-740h-63l-261 504q-50 96 -73 145h-2v-649h-62z" />
    <glyph glyph-name="copyrightsound" unicode="&#x2117;" horiz-adv-x="709" 
d="M354 -14q-133 0 -223.5 111.5t-90.5 272.5t90.5 272.5t224.5 111.5q133 0 223.5 -111.5t90.5 -272.5t-90.5 -272.5t-224.5 -111.5zM355 25q115 0 193.5 100.5t78.5 244.5t-78.5 244.5t-194.5 100.5q-115 0 -193.5 -100.5t-78.5 -244.5t78.5 -244.5t194.5 -100.5zM247 153
v422h121q128 0 128 -119q0 -124 -132 -124h-64v-179h-53zM300 381h66q78 0 78 74q0 71 -79 71h-65v-145z" />
    <glyph glyph-name="trademark" unicode="&#x2122;" horiz-adv-x="739" 
d="M348 309v431h61l106 -355l106 355h63v-431h-50v327l-98 -327h-43l-99 329v-329h-46zM133 309v384h-108v47h268v-47h-109v-384h-51z" />
    <glyph glyph-name="Omega" unicode="&#x2126;" horiz-adv-x="621" 
d="M62 0v62h135q-61 53 -101.5 140.5t-40.5 193.5q0 156 70 257t187 101t185.5 -101.5t68.5 -256.5q0 -106 -40 -193t-101 -141h135v-62h-202v60q140 128 140 332q0 132 -49.5 215.5t-137.5 83.5q-86 0 -137 -82t-51 -216q0 -205 140 -333v-60h-201z" />
    <glyph glyph-name="estimated" unicode="&#x212e;" horiz-adv-x="697" 
d="M664 318h-490v-220q71 -71 174 -71q84 0 137.5 37t99.5 108l37 -23q-50 -78 -114 -119.5t-160 -41.5q-138 0 -224 96t-86 235q0 141 85.5 236t227.5 95t226.5 -95.5t86.5 -236.5zM525 358v182q-76 71 -175 71q-105 0 -176 -71v-182h351z" />
    <glyph glyph-name="partialdiff" unicode="&#x2202;" horiz-adv-x="489" 
d="M235 745q115 -86 163.5 -199.5t48.5 -280.5q0 -133 -56.5 -204.5t-145.5 -71.5q-91 0 -147 72.5t-56 197.5q0 126 54 195.5t143 69.5q41 0 76.5 -20.5t54.5 -59.5q-36 152 -172 260zM245 45q65 0 100.5 59t35.5 156q0 93 -35 151.5t-101 58.5t-101.5 -57t-35.5 -153
q0 -94 34.5 -154.5t102.5 -60.5z" />
    <glyph glyph-name="Delta" unicode="&#x2206;" horiz-adv-x="556" 
d="M30 0l217 743h62l217 -743h-496zM443 57l-102 353q-42 148 -64 233h-2q-18 -68 -64 -231l-101 -355h333z" />
    <glyph glyph-name="product" unicode="&#x220f;" horiz-adv-x="610" 
d="M80 -200v940h450v-940h-69v877h-313v-877h-68z" />
    <glyph glyph-name="summation" unicode="&#x2211;" horiz-adv-x="475" 
d="M36 -200v54l193 431l-181 401v54h384v-63h-306l176 -392l-188 -423h325v-62h-403z" />
    <glyph glyph-name="minus" unicode="&#x2212;" horiz-adv-x="528" 
d="M47 299v57h433v-57h-433z" />
    <glyph glyph-name="radical" unicode="&#x221a;" horiz-adv-x="495" 
d="M182 -3l-161 529h65l92 -313q6 -23 18.5 -68t20.5 -74h2q3 12 39 142l155 527h61l-224 -743h-68z" />
    <glyph glyph-name="infinity" unicode="&#x221e;" horiz-adv-x="646" 
d="M174 188q-69 0 -105.5 43.5t-36.5 127.5q0 83 36.5 127.5t105.5 44.5q89 0 149 -119q60 119 150 119q69 0 105 -44.5t36 -127.5q0 -84 -36 -127.5t-105 -43.5q-89 0 -150 121q-61 -121 -149 -121zM175 244q39 0 66 29.5t54 85.5q-28 56 -54.5 86t-65.5 30
q-41 0 -63.5 -30t-22.5 -86t22.5 -85.5t63.5 -29.5zM472 244q86 0 86 115q0 116 -86 116q-39 0 -66.5 -30t-53.5 -84q27 -56 54 -86.5t66 -30.5z" />
    <glyph glyph-name="integral" unicode="&#x222b;" horiz-adv-x="286" 
d="M65 -200q-24 0 -32 2v53q10 -2 25 -2q42 0 42 56v705q0 127 137 127q3 0 10.5 -0.5t14.5 -0.5h7v-56q-1 1 -29 1q-75 0 -75 -69v-705q0 -59 -23.5 -85t-76.5 -26z" />
    <glyph glyph-name="approxequal" unicode="&#x2248;" horiz-adv-x="556" 
d="M388 173q-36 2 -121 37.5t-104 36.5q-46 0 -51 -48l-48 6q5 52 32.5 77t68.5 23q34 -1 119 -36t106 -36q44 -3 49 46l49 -5q-5 -53 -31 -78t-69 -23zM393 359q-35 1 -120 36.5t-105 36.5q-45 3 -50 -47l-48 6q5 52 32 77.5t69 23.5q34 -2 118.5 -37.5t105.5 -36.5
q45 -2 49 48l49 -5q-5 -53 -31.5 -78.5t-68.5 -23.5z" />
    <glyph glyph-name="notequal" unicode="&#x2260;" horiz-adv-x="562" 
d="M122 0l77 190h-135v56h157l68 158h-225v57h247l79 191h60l-79 -191h128v-57h-149l-69 -158h218v-56h-240l-76 -190h-61z" />
    <glyph glyph-name="lessequal" unicode="&#x2264;" horiz-adv-x="569" 
d="M498 160l-438 180v49l438 180v-63l-358 -141l358 -142v-63zM56 67v55h449v-55h-449z" />
    <glyph glyph-name="greaterequal" unicode="&#x2265;" horiz-adv-x="570" 
d="M77 160v63l357 141l-357 142v63l437 -180v-49zM64 67v55h449v-55h-449z" />
    <glyph glyph-name="lozenge" unicode="&#x25ca;" horiz-adv-x="552" 
d="M246 0l-196 370l196 370h58l198 -370l-197 -370h-59zM275 77l158 293l-158 293l-157 -293z" />
    <glyph glyph-name="u2022.check" unicode="&#x2713;" horiz-adv-x="567" 
d="M326 -1h-125l-192 532h129l130 -392h2l200 601h119z" />
    <glyph glyph-name="apple" unicode="&#xf8ff;" horiz-adv-x="777" 
d="M200 559v24l165 -11l-11 168h71l-12 -168l166 11v-24h22l-10 -166l168 12v-72l-168 13l10 -167h-22v-21l-166 11l12 -169h-71l11 169l-165 -11v21h-23l10 167l-168 -13v72l168 -12l-10 166h23zM543 524l-132 8v-140h140zM367 392v140l-131 -8l-9 -132h140zM411 347v-138
l132 7l8 131h-140zM235 217l132 -8v138h-140z" />
    <glyph glyph-name="NUL" horiz-adv-x="0" 
 />
    <glyph glyph-name="CR" horiz-adv-x="193" 
 />
    <glyph glyph-name="fi" horiz-adv-x="490" 
d="M351 641v77h67v-77h-67zM100 0v471h-78v55h78v88q0 64 35.5 95.5t100.5 31.5l30 -1v-57q-26 1 -28 1q-73 0 -73 -70v-88h96v-55h-96v-471h-65zM352 0v526h65v-526h-65z" />
    <glyph glyph-name="fl" horiz-adv-x="490" 
d="M352 0v740h65v-740h-65zM100 0v471h-78v55h78v88q0 64 35.5 95.5t100.5 31.5l30 -1v-57q-26 1 -28 1q-73 0 -73 -70v-88h96v-55h-96v-471h-65z" />
    <glyph glyph-name="minus.tab" 
d="M65 300v58h435v-58h-435z" />
    <glyph glyph-name="multiply.tab" 
d="M129 130l-39 39l153 150l-152 151l39 39l152 -152l152 151l39 -38l-152 -151l153 -150l-39 -39l-153 151z" />
    <glyph glyph-name="plusminus.tab" 
d="M65 64v55h188v205h-188v56h188v210h59v-210h188v-56h-188v-205h188v-55h-435z" />
    <glyph glyph-name="less.tab" 
d="M498 86l-437 214v48l437 215v-63l-366 -176l366 -175v-63z" />
    <glyph glyph-name="dollar.tab" 
d="M308 338v-286q134 11 134 123q0 61 -35 97.5t-99 65.5zM260 431v257q-45 -6 -81 -33t-36 -81q0 -47 30 -80t87 -63zM259 -93v90q-140 12 -202 145l52 27q29 -54 64.5 -83.5t86.5 -33.5v308q-42 19 -69 34.5t-55.5 40.5t-42.5 58t-14 75q0 71 47.5 121t132.5 55v75h51v-76
q124 -15 175 -129l-52 -31q-25 49 -54 73.5t-71 30.5v-279q35 -16 58.5 -28t52.5 -32.5t46.5 -42.5t29.5 -54t12 -70q0 -80 -52 -129.5t-145 -54.5v-90h-51z" />
    <glyph glyph-name="yen.tab" 
d="M248 0v130h-160v52h160v98h-160v53h154l-196 407h71l166 -358h1q3 8 165 358h70l-198 -407h155v-53h-161v-98h161v-52h-161v-130h-67z" />
    <glyph glyph-name="Euro.tab" 
d="M327 -12q-196 0 -229 279h-98v53h94q-1 15 -1 99h-93v52h98q16 143 77.5 212t150.5 69q84 0 132 -52t69 -155l-62 -13q-19 86 -49 124t-90 38q-65 0 -108 -57t-55 -166h181v-52h-186q-1 -31 1 -99h185v-53h-180q24 -221 164 -221q62 0 96 42t52 129l61 -12
q-45 -217 -210 -217z" />
    <glyph glyph-name="greater.tab" 
d="M73 86v63l367 175l-367 176v63l437 -215v-48z" />
    <glyph glyph-name="sterling.tab" 
d="M145 -12q-41 0 -71 25.5t-30 71.5q0 48 28.5 78t76.5 30q46 0 89 -41q15 113 -35 213h-107v53h84q-42 91 -42 158q0 80 43 128t120 48q83 0 122.5 -51.5t44.5 -133.5l-62 -7q-7 135 -106 135q-47 0 -72.5 -31.5t-25.5 -87.5q0 -57 45 -158h141v-53h-118q32 -79 32 -155
q0 -59 -15 -107q59 -59 98 -59q37 0 54 32.5t21 107.5h58q-5 -196 -130 -196q-61 0 -126 67q-41 -67 -117 -67zM147 36q58 0 78 60q-40 49 -77 49q-23 0 -37.5 -15.5t-14.5 -42.5q0 -24 14.5 -37.5t36.5 -13.5z" />
    <glyph glyph-name="ordfeminine.tab" 
d="M240 367q-43 0 -67 24t-24 67q0 119 207 159v24q0 65 -56 65q-59 0 -105 -55l-37 26q57 74 146 74q104 0 104 -111v-174q0 -66 10 -93h-54q-8 30 -8 45q-54 -51 -116 -51zM252 412q54 0 104 50v115q-154 -30 -154 -114q0 -51 50 -51z" />
    <glyph glyph-name="slash.tab" 
d="M68 0l364 740h66l-364 -740h-66z" />
    <glyph glyph-name="lessequal.tab" 
d="M500 160l-438 180v49l438 180v-63l-358 -141l358 -142v-63zM58 67v55h449v-55h-449z" />
    <glyph glyph-name="equal.tab" 
d="M65 190v56h434v-56h-434zM65 404v57h434v-57h-434z" />
    <glyph glyph-name="plus.tab" 
d="M252 91v209h-187v58h187v208h60v-208h188v-58h-188v-209h-60z" />
    <glyph glyph-name="divide.tab" 
d="M242 106v85h76v-85h-76zM65 300v58h435v-58h-435zM242 466v85h76v-85h-76z" />
    <glyph glyph-name="hyphen.tab" 
d="M183 284v60h199v-60h-199z" />
    <glyph glyph-name="cent.tab" 
d="M189 -129l27 136q-54 29 -84.5 96t-30.5 160q0 134 55.5 204t142.5 70l11 -1l18 102h49l-22 -111q81 -30 116 -139l-55 -20q-27 86 -73 107l-75 -430q13 -3 28 -3q45 0 72.5 28t50.5 90l53 -18q-25 -75 -67.5 -114t-110.5 -39q-18 0 -33 3l-24 -121h-48zM164 264
q0 -143 64 -197l74 417h-5q-56 0 -94.5 -56.5t-38.5 -163.5z" />
    <glyph glyph-name="greaterequal.tab" 
d="M71 160v63l357 141l-357 142v63l437 -180v-49zM58 67v55h449v-55h-449z" />
    <glyph glyph-name="ordmasculine.tab" 
d="M282 365q-64 0 -104 51t-40 142q0 92 40 142.5t104 50.5t104 -50.5t40 -142.5q0 -91 -40 -142t-104 -51zM282 410q45 0 68 40.5t23 107.5q0 65 -23 106.5t-68 41.5t-68 -40.5t-23 -107.5q0 -65 22.5 -106.5t68.5 -41.5z" />
    <glyph glyph-name="florin.tab" 
d="M48 -199l8 55q7 -1 30 -1q76 0 85 71l67 465h-79q0 2 0.5 6t2.5 17.5t4 31.5h79l24 167q9 68 47.5 98t107.5 30q2 0 5 -0.5t11 -1t17 -0.5l-7 -55q-8 1 -30 1q-76 0 -86 -70l-23 -169h99l-7 -55h-100l-66 -466q-11 -68 -48.5 -96.5t-105.5 -28.5q-13 0 -35 1z" />
    <glyph glyph-name="percent.tab" horiz-adv-x="854" 
d="M214 308q-70 0 -105.5 59.5t-35.5 159.5q0 103 36.5 162.5t104.5 59.5q69 0 104.5 -59t35.5 -161q0 -100 -35.5 -160.5t-104.5 -60.5zM214 361q41 0 61.5 46.5t20.5 121.5q0 77 -20.5 122t-61.5 45t-61.5 -46t-20.5 -121q0 -77 20.5 -122.5t61.5 -45.5zM640 -9
q-69 0 -104 59.5t-35 159.5q0 103 36 162.5t104 59.5q69 0 104.5 -59t35.5 -161q0 -100 -36 -160.5t-105 -60.5zM641 44q41 0 61 45.5t20 121.5q0 168 -82 168q-41 0 -61.5 -46t-20.5 -121q0 -77 21 -122.5t62 -45.5zM216 0l368 740h55l-368 -740h-55z" />
    <glyph glyph-name="approxequal.tab" 
d="M392 173q-36 2 -121 37.5t-104 36.5q-46 0 -51 -48l-48 6q5 52 32.5 77t68.5 23q34 -1 119 -36t106 -36q44 -3 49 46l49 -5q-5 -53 -31 -78t-69 -23zM397 359q-35 1 -120 36.5t-105 36.5q-45 3 -50 -47l-48 6q5 52 32 77.5t69 23.5q34 -2 118.5 -37.5t105.5 -36.5
q45 -2 49 48l49 -5q-5 -53 -31.5 -78.5t-68.5 -23.5z" />
    <glyph glyph-name="numbersign.tab" 
d="M83 0l38 219h-94v55h103l34 192h-101v55h111l37 219h59l-39 -219h151l39 219h58l-38 -219h96v-55h-105l-34 -192h103v-55h-112l-38 -219h-58l37 219h-150l-38 -219h-59zM188 274h152l34 192h-151z" />
    <glyph glyph-name="comma.tab" horiz-adv-x="283" 
d="M109 -101l23 101h-32v92h81v-84l-42 -109h-30z" />
    <glyph glyph-name="parenright.tab" 
d="M186 -204l-36 29q178 193 178 448q0 129 -47 243.5t-130 203.5l35 31q211 -206 211 -478q0 -271 -211 -477z" />
    <glyph glyph-name="period.tab" horiz-adv-x="283" 
d="M100 0v92h81v-92h-81z" />
    <glyph glyph-name="colon.tab" horiz-adv-x="283" 
d="M100 0v92h81v-92h-81zM100 434v93h81v-93h-81z" />
    <glyph glyph-name="parenleft.tab" 
d="M379 -204q-212 209 -212 477t212 478l35 -31q-177 -192 -177 -447q0 -257 178 -448q-21 -23 -36 -29z" />
    <glyph glyph-name="semicolon.tab" horiz-adv-x="283" 
d="M109 -101l23 101h-32v92h81v-83l-42 -110h-30zM100 434v93h81v-93h-81z" />
    <glyph glyph-name="onehalf.tab" horiz-adv-x="851" 
d="M504 0v19q0 59 30 106t101 99q40 31 57.5 57t17.5 61t-17.5 55.5t-49.5 20.5q-30 0 -49.5 -18.5t-35.5 -61.5l-48 20q39 111 135 111q58 0 89.5 -33.5t31.5 -92.5q0 -45 -21.5 -79.5t-72.5 -70.5q-99 -79 -106 -141h203v-52h-265zM81 281v52h71v342q-33 -15 -70 -15v52
q54 2 75 28h52v-407h65v-52h-193zM203 0l350 740h58l-350 -740h-58z" />
    <glyph glyph-name="onequarter.tab" horiz-adv-x="851" 
d="M96 281v52h71v342q-33 -15 -69 -15v52q53 2 75 28h51v-407h66v-52h-194zM641 0v114h-181v37l177 312h60v-298h64v-51h-64v-114h-56zM218 0l350 740h59l-349 -740h-60zM526 165h116v204z" />
    <glyph glyph-name="threequarters.tab" horiz-adv-x="851" 
d="M207 270q-97 0 -139 100l44 24q33 -72 94 -72q39 0 59 23t20 62q0 48 -24.5 70.5t-85.5 22.5h-22v47h25q54 0 76.5 18.5t22.5 60.5q0 71 -68 71q-47 0 -84 -57l-42 26q50 82 129 82q63 0 92.5 -33.5t29.5 -85.5q0 -81 -69 -105q77 -23 77 -117q0 -60 -36 -98.5t-99 -38.5
zM668 0v114h-181v37l177 312h61v-298h63v-51h-63v-114h-57zM247 0l350 740h58l-349 -740h-59zM553 165h116v204z" />
    <glyph glyph-name="notequal.tab" 
d="M122 0l77 190h-135v56h157l68 158h-225v57h247l79 191h60l-79 -191h128v-57h-149l-69 -158h218v-56h-240l-76 -190h-61z" />
    <glyph glyph-name="space.tab" horiz-adv-x="283" 
 />
    <glyph glyph-name="quotesingle.tab" 
d="M263 489l-14 197v54h67v-54l-14 -197h-39z" />
    <glyph glyph-name="quotedbl.tab" 
d="M187 489l-14 197v54h66v-54l-14 -197h-38zM341 489l-15 197v54h67v-54l-15 -197h-37z" />
    <glyph glyph-name="ffl.sc" horiz-adv-x="1204" 
d="M1182 0h-314v592h66v-534h248v-58zM533 0h-66v592h315v-59h-249v-196h182v-57h-182v-280zM132 0h-66v592h315v-59h-249v-196h182v-57h-182v-280z" />
    <glyph glyph-name="Aring.sc" horiz-adv-x="483" 
d="M87 0h-63l179 573q-43 21 -43 81q0 42 23 67.5t59 25.5t59.5 -25.5t23.5 -67.5q0 -60 -44 -81l178 -573h-67l-54 179h-196zM214 423l-58 -193h167q-53 181 -56 192l-26 84h-1zM242 596q21 0 33.5 16t12.5 42t-12.5 42t-33.5 16q-20 0 -32.5 -16t-12.5 -42t12.5 -42
t32.5 -16z" />
    <glyph glyph-name="yen.sc" horiz-adv-x="440" 
d="M252 0h-66v104h-125v49h125v69h-125v48h122l-158 322h68l84 -184q16 -31 44 -90l44 91l83 183h66l-158 -322h123v-48h-127v-69h127v-49h-127v-104z" />
    <glyph glyph-name="Ograve.sc" horiz-adv-x="531" 
d="M320 630h-43l-119 154h82zM266 -9q-100 0 -162.5 80.5t-62.5 224.5q0 145 62 225t163 80q100 0 162 -80t62 -225t-62 -225t-162 -80zM266 48q73 0 116.5 65.5t43.5 182.5t-43.5 182t-116.5 65q-74 0 -117 -64.5t-43 -182.5t43 -183t117 -65z" />
    <glyph glyph-name="dollar.sc" horiz-adv-x="488" 
d="M265 -2v-72h-49v73q-119 12 -170 129l55 21q42 -85 117 -96v232q-37 17 -57.5 28.5t-45.5 32t-36.5 47t-11.5 60.5q0 59 40 98.5t109 43.5v60h49v-60q99 -13 149 -117l-52 -24q-36 74 -99 86v-213q37 -17 51 -24t43 -25.5t41 -34t23 -41.5t11 -57q0 -63 -44.5 -102
t-122.5 -45zM263 264v-212q107 9 107 90q0 45 -26.5 70t-80.5 52zM127 456q0 -37 23 -60.5t68 -47.5v194q-44 -4 -67.5 -27.5t-23.5 -58.5z" />
    <glyph glyph-name="four.sc" horiz-adv-x="433" 
d="M327 0h-61v142h-239v47l232 403h68v-394h85v-56h-85v-142zM265 497l-171 -299h172v299h-1z" />
    <glyph glyph-name="questiondown.sc" horiz-adv-x="400" 
d="M182 513v79h77v-79h-77zM193 433h55q1 -17 1 -51q-2 -44 -18 -73t-50 -55q-43 -32 -61 -56.5t-18 -63.5q0 -87 100 -87q77 0 121 79l53 -24q-57 -112 -179 -112q-78 0 -119.5 39t-41.5 100q0 53 23.5 86.5t68.5 65.5q40 31 53 61t12 91z" />
    <glyph glyph-name="perthousand.sc" horiz-adv-x="1002" 
d="M161 247q-59 0 -89 48t-30 129q0 82 31 130.5t89 48.5q57 0 86.5 -48t29.5 -129t-29.5 -130t-87.5 -49zM229 0h-58l305 592h59zM841 -10q-59 0 -89.5 48.5t-30.5 128.5q0 82 31.5 131t90.5 49q56 0 86.5 -48.5t30.5 -129.5t-30.5 -130t-88.5 -49zM547 -10
q-59 0 -89.5 48.5t-30.5 128.5q0 82 32 131t89 49q56 0 86.5 -48.5t30.5 -129.5q0 -80 -30.5 -129.5t-87.5 -49.5zM161 295q32 0 48 36t16 94q0 130 -64 130q-32 0 -48.5 -35.5t-16.5 -93.5q0 -131 65 -131zM842 38q31 0 46.5 36t15.5 94q0 130 -63 130q-32 0 -48 -35.5
t-16 -93.5q0 -131 65 -131zM548 38q61 0 61 130t-62 130q-32 0 -48 -35.5t-16 -93.5q0 -131 65 -131z" />
    <glyph glyph-name="Ccedilla.sc" horiz-adv-x="497" 
d="M254 -194q-61 0 -110 36l19 29q40 -29 86 -29q63 0 63 46q0 35 -36 35q-24 0 -45 -19l-28 13l19 77q-86 14 -133.5 91.5t-47.5 212.5q0 145 59.5 224t161.5 79q157 0 193 -185l-62 -12q-15 71 -46 105.5t-86 34.5q-74 0 -114.5 -64.5t-40.5 -181.5q0 -121 41 -186
t116 -65q110 0 139 148l61 -12q-38 -191 -200 -192l-12 -44q19 14 47 14q27 0 46 -17.5t19 -50.5q0 -44 -30.5 -65.5t-78.5 -21.5z" />
    <glyph glyph-name="Otilde.sc" horiz-adv-x="531" 
d="M333 626q-27 0 -71 28t-59 28q-34 0 -34 -54h-43q0 110 77 110q27 0 70 -28t59 -28q18 0 26 12t8 42h43q0 -110 -76 -110zM266 -9q-100 0 -162.5 80.5t-62.5 224.5q0 145 62 225t163 80q100 0 162 -80t62 -225t-62 -225t-162 -80zM266 48q73 0 116.5 65.5t43.5 182.5
t-43.5 182t-116.5 65q-74 0 -117 -64.5t-43 -182.5t43 -183t117 -65z" />
    <glyph glyph-name="Ucircumflex.sc" horiz-adv-x="511" 
d="M165 626h-41l110 158h47l110 -158h-43l-91 94zM256 -9q-99 0 -146.5 56t-47.5 150v395h66v-386q0 -158 129 -158q128 0 128 157v387h63v-393q0 -95 -46.5 -151.5t-145.5 -56.5z" />
    <glyph glyph-name="Ecircumflex.sc" horiz-adv-x="428" 
d="M130 626h-42l110 158h47l110 -158h-42l-92 94zM398 0h-332v592h318v-59h-252v-193h184v-56h-184v-226h266v-58z" />
    <glyph glyph-name="Uacute.sc" horiz-adv-x="511" 
d="M247 630h-44l81 154h83zM256 -9q-99 0 -146.5 56t-47.5 150v395h66v-386q0 -158 129 -158q128 0 128 157v387h63v-393q0 -95 -46.5 -151.5t-145.5 -56.5z" />
    <glyph glyph-name="five.sc" horiz-adv-x="431" 
d="M209 -11q-114 0 -173 122l54 25q23 -46 50.5 -68.5t68.5 -22.5q59 0 88.5 43.5t29.5 107.5q0 69 -28.5 106t-77.5 37q-68 0 -110 -72l-49 12l20 313h280l-5 -59h-220l-14 -194q34 54 108 54q72 0 115 -50.5t43 -144.5q0 -97 -48 -153t-132 -56z" />
    <glyph glyph-name="Oslash.sc" horiz-adv-x="549" 
d="M266 -9q-69 0 -121 38l-34 -64q-4 1 -41 20l42 75q-71 80 -71 236q0 146 61.5 225.5t163.5 79.5q69 0 120 -39l37 67l39 -22l-42 -76q70 -80 70 -235q0 -144 -62.5 -224.5t-161.5 -80.5zM106 296q0 -114 43 -177l207 388q-38 36 -90 36q-74 0 -117 -64.5t-43 -182.5z
M266 48q73 0 116 65.5t43 182.5q0 110 -44 176l-206 -388q37 -36 91 -36z" />
    <glyph glyph-name="Edieresis.sc" horiz-adv-x="428" 
d="M340 630h-70v79h70v-79zM189 630h-71v79h71v-79zM398 0h-332v592h318v-59h-252v-193h184v-56h-184v-226h266v-58z" />
    <glyph glyph-name="D.sc" horiz-adv-x="507" 
d="M202 0h-136v592h136q133 0 198 -70t65 -225q0 -156 -65.5 -226.5t-197.5 -70.5zM132 536v-478h78q98 0 144 57t46 181q0 123 -46.5 181.5t-144.5 58.5h-77z" />
    <glyph glyph-name="H.sc" horiz-adv-x="525" 
d="M132 0h-66v592h66v-250h261v250h66v-592h-66v284h-261v-284z" />
    <glyph glyph-name="Ydieresis.sc" horiz-adv-x="444" 
d="M254 0h-66v245l-173 347h68l99 -207q25 -50 40 -83h1l40 83l99 207h65l-173 -347v-245zM184 630h-72v79h72v-79zM335 630h-71v79h71v-79z" />
    <glyph glyph-name="L.sc" horiz-adv-x="403" 
d="M380 0h-314v592h66v-534h248v-58z" />
    <glyph glyph-name="P.sc" horiz-adv-x="463" 
d="M132 0h-66v592h175q193 0 193 -167q0 -90 -52.5 -132t-143.5 -42h-106v-251zM132 534v-227h108q130 0 130 116q0 59 -32.5 85t-98.5 26h-107z" />
    <glyph glyph-name="T.sc" horiz-adv-x="436" 
d="M250 0h-66v533h-163v59h394v-59h-165v-533z" />
    <glyph glyph-name="X.sc" horiz-adv-x="468" 
d="M84 0h-62l178 317l-155 275h69l123 -220l120 220h62l-154 -273l182 -319h-69l-147 265z" />
    <glyph glyph-name="exclamdown.sc" horiz-adv-x="244" 
d="M162 513h-78v79h78v-79zM162 0h-77l16 431h44z" />
    <glyph glyph-name="Udieresis.sc" horiz-adv-x="511" 
d="M369 630h-70v79h70v-79zM218 630h-71v79h71v-79zM256 -9q-99 0 -146.5 56t-47.5 150v395h66v-386q0 -158 129 -158q128 0 128 157v387h63v-393q0 -95 -46.5 -151.5t-145.5 -56.5z" />
    <glyph glyph-name="ordfeminine.sc" horiz-adv-x="349" 
d="M85 228h-52l113 364h57l112 -364h-55l-29 95h-116zM161 485l-34 -118h92q-1 1 -17.5 58.5t-16.5 58.5t-5 19.5t-5 21.5h-2z" />
    <glyph glyph-name="zero.sc" horiz-adv-x="472" 
d="M236 -11q-93 0 -142.5 79t-49.5 227q0 149 49.5 228t142.5 79q94 0 143 -79t49 -228t-49 -227.5t-143 -78.5zM236 46q128 0 128 249q0 251 -128 251q-127 0 -127 -251q0 -249 127 -249z" />
    <glyph glyph-name="Agrave.sc" horiz-adv-x="483" 
d="M87 0h-63l185 592h66l184 -592h-67l-54 179h-196zM214 423l-58 -193h167l-56 192q-5 14 -12.5 39l-13.5 45h-1q-14 -46 -26 -83zM266 630h-43l-119 154h82z" />
    <glyph glyph-name="ffi.sc" horiz-adv-x="1012" 
d="M940 0h-66v592h66v-592zM533 0h-66v592h315v-59h-249v-196h182v-57h-182v-280zM132 0h-66v592h315v-59h-249v-196h182v-57h-182v-280z" />
    <glyph glyph-name="Egrave.sc" horiz-adv-x="428" 
d="M272 630h-43l-119 154h82zM398 0h-332v592h318v-59h-252v-193h184v-56h-184v-226h266v-58z" />
    <glyph glyph-name="germandbls.sc" horiz-adv-x="940" 
d="M702 -11q-140 0 -206 143l56 25q48 -111 150 -111q57 0 89.5 26.5t32.5 71.5q0 25 -9.5 45t-31 36.5t-39 26t-50.5 25.5q-38 17 -62 29.5t-52 34.5t-42 52t-14 67q0 62 48 103.5t120 41.5q129 0 186 -127q-5 -2 -28.5 -12.5t-27.5 -11.5q-42 95 -130 95
q-46 0 -74.5 -24.5t-28.5 -63.5q0 -47 33 -75t98 -57q39 -18 62 -31t51.5 -35.5t42 -51.5t13.5 -66q0 -66 -52 -111t-135 -45zM233 -11q-139 0 -206 143l56 25q49 -111 150 -111q57 0 90 26.5t33 71.5q0 25 -9.5 45t-31.5 36.5t-39 26t-51 25.5q-30 13 -49.5 22.5
t-44.5 26.5t-39.5 34.5t-25 43.5t-10.5 56q0 62 47.5 103.5t119.5 41.5q129 0 186 -127q-5 -2 -28.5 -12.5t-27.5 -11.5q-42 95 -130 95q-45 0 -74 -24.5t-29 -63.5q0 -47 33 -75t98 -57q39 -18 62 -31t51.5 -35.5t42 -51.5t13.5 -66q0 -66 -52 -111t-135 -45z" />
    <glyph glyph-name="Ntilde.sc" horiz-adv-x="529" 
d="M127 0h-61v592h80l201 -379q11 -19 52 -99h2v478h60v-592h-60l-211 394l-61 115h-2v-509zM339 626q-28 0 -71 28t-58 28q-18 0 -26 -12t-8 -42h-43q0 110 76 110q28 0 71 -28t59 -28q18 0 26 12t8 42h42q0 -110 -76 -110z" />
    <glyph glyph-name="ampersand.sc" horiz-adv-x="531" 
d="M213 -9q-91 0 -138 39.5t-47 110.5q0 61 33.5 104t93.5 83q-39 75 -39 137q0 61 33 99t95 38q54 0 82 -30.5t28 -83.5q0 -55 -33 -94.5t-91 -78.5q20 -34 51 -72q40 -54 85 -106q42 65 52 163h59q-15 -124 -67 -202q49 -43 104 -45v-58q-81 3 -144 56q-62 -60 -157 -60z
M177 469q0 -53 28 -109q44 30 67 58t23 66q0 67 -51 67q-67 0 -67 -82zM214 44q66 0 113 46q-11 12 -95 119q-33 43 -52 74q-88 -66 -88 -137q0 -47 31 -74.5t91 -27.5z" />
    <glyph glyph-name="slash.sc" horiz-adv-x="394" 
d="M82 0h-64l294 592h63z" />
    <glyph glyph-name="Atilde.sc" horiz-adv-x="483" 
d="M87 0h-63l185 592h66l184 -592h-67l-54 179h-196zM214 423l-58 -193h167l-56 192q-5 14 -12.5 39l-13.5 45h-1q-14 -46 -26 -83zM310 626q-28 0 -71 28t-59 28q-34 0 -34 -54h-43q0 110 77 110q28 0 71 -28t58 -28q18 0 26 12t8 42h43q0 -110 -76 -110z" />
    <glyph glyph-name="Zcaron.sc" horiz-adv-x="443" 
d="M248 629h-47l-110 158h43l92 -95l91 95h41zM409 0h-380v46l302 489h-281v57h359v-46l-300 -490h300v-56z" />
    <glyph glyph-name="Odieresis.sc" horiz-adv-x="531" 
d="M378 630h-70v79h70v-79zM228 630h-72v79h72v-79zM266 -9q-100 0 -162.5 80.5t-62.5 224.5q0 145 62 225t163 80q100 0 162 -80t62 -225t-62 -225t-162 -80zM266 48q73 0 116.5 65.5t43.5 182.5t-43.5 182t-116.5 65q-74 0 -117 -64.5t-43 -182.5t43 -183t117 -65z" />
    <glyph glyph-name="Acircumflex.sc" horiz-adv-x="483" 
d="M87 0h-63l185 592h66l184 -592h-67l-54 179h-196zM214 423l-58 -193h167l-56 192q-5 14 -12.5 39l-13.5 45h-1q-14 -46 -26 -83zM150 620h-41l110 158h47l110 -158h-42l-92 93z" />
    <glyph glyph-name="exclam.sc" horiz-adv-x="244" 
d="M84 592h76l-16 -431h-43zM83 79h78v-79h-78v79z" />
    <glyph glyph-name="C.sc" horiz-adv-x="497" 
d="M262 -9q-104 0 -162.5 78.5t-58.5 228.5q0 145 59.5 224t161.5 79q157 0 193 -185l-62 -12q-15 71 -46 105.5t-86 34.5q-74 0 -114.5 -64.5t-40.5 -181.5q0 -121 41 -186t116 -65q110 0 139 148l61 -12q-38 -192 -201 -192z" />
    <glyph glyph-name="G.sc" horiz-adv-x="518" 
d="M256 -8q-104 0 -159.5 79.5t-55.5 225.5q0 147 60 225.5t162 78.5q154 0 194 -187l-62 -11q-16 72 -47.5 106t-84.5 34q-72 0 -114.5 -62.5t-42.5 -181.5q0 -121 41 -186t118 -65q65 0 101 47t35 133h-122v53h182v-281h-54v82h-2q-40 -90 -149 -90z" />
    <glyph glyph-name="K.sc" horiz-adv-x="475" 
d="M131 0h-65v592h65v-304q37 45 104 133l131 171h71l-179 -228l205 -364h-69l-177 314l-86 -106v-208z" />
    <glyph glyph-name="O.sc" horiz-adv-x="531" 
d="M266 -9q-100 0 -162.5 80.5t-62.5 224.5q0 145 62 225t163 80q100 0 162 -80t62 -225t-62 -225t-162 -80zM266 48q73 0 116.5 65.5t43.5 182.5t-43.5 182t-116.5 65q-74 0 -117 -64.5t-43 -182.5t43 -183t117 -65z" />
    <glyph glyph-name="S.sc" horiz-adv-x="466" 
d="M230 -9q-144 0 -203 141l57 25q47 -111 146 -111q57 0 89 26t32 71q0 48 -30.5 75t-96.5 57q-28 13 -44 21t-39 21.5t-35.5 26t-25.5 30.5t-18.5 39.5t-5.5 47.5q0 61 47 101.5t118 40.5q132 0 182 -124l-55 -24q-38 93 -127 93q-46 0 -73.5 -23.5t-27.5 -63.5
q0 -49 31 -76t96 -57q42 -18 65.5 -31.5t50.5 -35.5t39.5 -50.5t12.5 -66.5q0 -66 -51 -109.5t-134 -43.5z" />
    <glyph glyph-name="W.sc" horiz-adv-x="663" 
d="M224 0h-57l-140 592h64l79 -358q16 -75 27 -133h2q9 56 27 132l78 359h60l78 -359q18 -82 27 -132h1l28 130l78 361h60l-137 -592h-58l-107 497h-1z" />
    <glyph glyph-name="Eth.sc" horiz-adv-x="512" 
d="M202 0h-135v288h-57v48h57v256h135q133 0 198 -70t65 -225q0 -156 -65.5 -226.5t-197.5 -70.5zM132 288v-230h78q98 0 144 57t46 181q0 123 -46.5 181.5t-144.5 58.5h-77v-200h107v-48h-107z" />
    <glyph glyph-name="ff.sc" horiz-adv-x="804" 
d="M533 0h-66v592h315v-59h-249v-196h182v-57h-182v-280zM132 0h-66v592h315v-59h-249v-196h182v-57h-182v-280z" />
    <glyph glyph-name="Ocircumflex.sc" horiz-adv-x="531" 
d="M173 626h-41l110 158h47l110 -158h-42l-92 94zM266 -9q-100 0 -162.5 80.5t-62.5 224.5q0 145 62 225t163 80q100 0 162 -80t62 -225t-62 -225t-162 -80zM266 48q73 0 116.5 65.5t43.5 182.5t-43.5 182t-116.5 65q-74 0 -117 -64.5t-43 -182.5t43 -183t117 -65z" />
    <glyph glyph-name="Igrave.sc" horiz-adv-x="213" 
d="M163 630h-43l-120 154h83zM140 0h-66v592h66v-592z" />
    <glyph glyph-name="one.sc" horiz-adv-x="359" 
d="M327 0h-278v59h113v463q-52 -32 -112 -32v58q76 3 115 44h60v-533h102v-59z" />
    <glyph glyph-name="fi.sc" horiz-adv-x="612" 
d="M539 0h-66v592h66v-592zM132 0h-66v592h315v-59h-249v-196h182v-57h-182v-280z" />
    <glyph glyph-name="question.sc" horiz-adv-x="400" 
d="M208 159h-56q-2 26 0 51q1 44 17 72.5t51 55.5q43 30 60.5 55t17.5 65q0 88 -100 88q-76 0 -121 -80l-53 24q57 112 179 112q78 0 119 -39t41 -101q0 -36 -13.5 -65.5t-30.5 -47t-46 -39.5q-41 -30 -53.5 -60t-11.5 -91zM219 79v-79h-78v79h78z" />
    <glyph glyph-name="two.sc" horiz-adv-x="423" 
d="M376 0h-339v16q0 75 38 135t128 124q58 42 83.5 78.5t25.5 86.5q0 106 -97 106q-40 0 -68 -24t-48 -77l-54 21q51 137 173 137q72 0 114 -43.5t42 -115.5q0 -64 -31 -110.5t-103 -98.5q-129 -94 -133 -177h269v-58z" />
    <glyph glyph-name="fraction.sc" horiz-adv-x="365" 
d="M59 0h-61l308 613h61z" />
    <glyph glyph-name="f_j.sc" horiz-adv-x="661" 
d="M132 0h-66v592h315v-59h-249v-196h182v-57h-182v-280zM309 38l34 48q48 -39 102 -39q88 0 88 97v448h66v-454q0 -147 -149 -147q-84 0 -141 47z" />
    <glyph glyph-name="Lslash.sc" horiz-adv-x="407" 
d="M380 0h-313v267l-57 -17v51l57 18v273h65v-252l105 32v-53q-105 -30 -105 -31v-230h248v-58z" />
    <glyph glyph-name="Scaron.sc" horiz-adv-x="460" 
d="M254 629h-47l-110 158h43l92 -95l91 95h41zM230 -9q-144 0 -203 141l57 25q47 -111 146 -111q57 0 89 26t32 71q0 48 -30.5 75t-96.5 57q-28 13 -44 21t-39 21.5t-35.5 26t-25.5 30.5t-18.5 39.5t-5.5 47.5q0 61 47 101.5t118 40.5q132 0 182 -124l-55 -24
q-38 93 -127 93q-46 0 -73.5 -23.5t-27.5 -63.5q0 -49 31 -76t96 -57q42 -18 65.5 -31.5t50.5 -35.5t39.5 -50.5t12.5 -66.5q0 -66 -51 -109.5t-134 -43.5z" />
    <glyph glyph-name="Iacute.sc" horiz-adv-x="213" 
d="M93 630h-44l81 154h83zM140 0h-66v592h66v-592z" />
    <glyph glyph-name="B.sc" horiz-adv-x="490" 
d="M261 0h-194v592h178q186 0 186 -150q0 -107 -102 -134v-1q121 -25 121 -146q0 -28 -8 -53t-27 -51t-58.5 -41.5t-95.5 -15.5zM131 278v-223h127q67 0 97.5 26.5t30.5 82.5q0 114 -139 114h-116zM131 536v-207h113q123 0 123 105q0 52 -29 77t-95 25h-112z" />
    <glyph glyph-name="F.sc" horiz-adv-x="403" 
d="M132 0h-66v592h315v-59h-249v-196h182v-57h-182v-280z" />
    <glyph glyph-name="J.sc" horiz-adv-x="365" 
d="M12 38l35 48q48 -39 102 -39q88 0 88 97v448h66v-454q0 -147 -149 -147q-84 0 -142 47z" />
    <glyph glyph-name="N.sc" horiz-adv-x="526" 
d="M127 0h-61v592h80l201 -379q11 -19 52 -99h2v478h60v-592h-60l-211 394l-61 115h-2v-509z" />
    <glyph glyph-name="R.sc" horiz-adv-x="483" 
d="M131 0h-65v592h176q193 0 193 -164q0 -135 -122 -163l129 -265h-71l-125 257h-115v-257zM131 534v-223h109q67 0 98 26.5t31 87.5q0 58 -31.5 83.5t-98.5 25.5h-108z" />
    <glyph glyph-name="nine.sc" horiz-adv-x="439" 
d="M195 -11q-87 0 -143 79l45 32q21 -28 43 -41t56 -13q63 0 99 64t38 175q-24 -30 -60 -49.5t-77 -19.5q-82 0 -123 53t-41 137q0 87 47 142t130 55q84 0 135 -75t51 -222q0 -142 -54 -229.5t-146 -87.5zM203 273q78 0 129 71q-4 97 -38 149.5t-87 52.5t-82.5 -35.5
t-29.5 -103.5q0 -134 108 -134z" />
    <glyph glyph-name="three.sc" horiz-adv-x="431" 
d="M207 -11q-126 0 -180 123l53 25q24 -50 54.5 -70.5t72.5 -20.5q54 0 83 31t29 84q0 66 -32.5 95t-118.5 29h-21v56h23q79 0 109.5 25t30.5 81q0 98 -99 98q-68 0 -113 -75l-49 29q59 104 164 104q81 0 120.5 -42.5t39.5 -107.5q0 -56 -26.5 -92t-75.5 -46
q113 -24 113 -154q0 -75 -48 -123.5t-129 -48.5z" />
    <glyph glyph-name="V.sc" horiz-adv-x="473" 
d="M266 -2h-60l-182 594h65l121 -412q7 -23 26 -93h2q2 8 11 38.5t16 54.5l122 412h62z" />
    <glyph glyph-name="Z.sc" horiz-adv-x="446" 
d="M409 0h-380v46l302 489h-281v57h359v-46l-300 -490h300v-56z" />
    <glyph glyph-name="Idieresis.sc" horiz-adv-x="213" 
d="M218 630h-71v79h71v-79zM67 630h-72v79h72v-79zM140 0h-66v592h66v-592z" />
    <glyph glyph-name="OE.sc" horiz-adv-x="777" 
d="M263 -9q-100 0 -161 80t-61 225q0 146 61 225.5t161 79.5q109 0 160 -98v89h310v-58h-250v-194h183v-55h-183v-228h264v-57h-324v89q-50 -98 -160 -98zM263 47q72 0 114 65t42 184q0 118 -42 183t-114 65q-73 0 -115.5 -65t-42.5 -183t42.5 -183.5t115.5 -65.5z" />
    <glyph glyph-name="seven.sc" horiz-adv-x="401" 
d="M153 0h-66l213 532h-258v60h324v-56z" />
    <glyph glyph-name="AE.sc" horiz-adv-x="702" 
d="M80 0h-66l294 592h350v-57h-252v-195h185v-55h-185v-229h267v-56h-331v185h-170q0 -1 -42.5 -86.5t-49.5 -98.5zM198 238h144v297h-1q0 -3 -64.5 -136t-78.5 -161z" />
    <glyph glyph-name="backslash.sc" horiz-adv-x="394" 
d="M82 592l293 -592h-63l-294 592h64z" />
    <glyph glyph-name="Ugrave.sc" horiz-adv-x="511" 
d="M327 630h-43l-120 154h83zM256 -9q-99 0 -146.5 56t-47.5 150v395h66v-386q0 -158 129 -158q128 0 128 157v387h63v-393q0 -95 -46.5 -151.5t-145.5 -56.5z" />
    <glyph glyph-name="florin.sc" horiz-adv-x="278" 
d="M-63 -159l7 53q8 -1 27 -1q26 0 43 14t21 40l52 361h-62l6 51h63l18 129q16 105 129 105q2 0 17 -1h15l-8 -54q-18 2 -26 2q-57 0 -65 -52q-7 -45 -18 -129h80l-7 -51h-79q-3 -21 -23.5 -162t-30.5 -203q-9 -54 -40.5 -78.5t-86.5 -24.5h-17z" />
    <glyph glyph-name="six.sc" horiz-adv-x="439" 
d="M229 -11q-84 0 -135 74.5t-51 222.5q0 141 54 228.5t146 87.5q82 0 136 -73l-47 -34q-36 51 -90 51q-65 0 -99.5 -64t-36.5 -176q21 29 58.5 49t78.5 20q82 0 122 -52.5t40 -137.5q0 -87 -46.5 -141.5t-129.5 -54.5zM231 44q52 0 82 36t30 104q0 135 -107 135
q-80 0 -129 -73q6 -99 39 -150.5t85 -51.5z" />
    <glyph glyph-name="percent.sc" horiz-adv-x="685" 
d="M151 247q-60 0 -90 48t-30 129q0 82 31 130.5t90 48.5q56 0 86 -48t30 -129t-29.5 -130t-87.5 -49zM219 0h-59l306 592h58zM537 -10q-59 0 -89.5 48.5t-30.5 128.5q0 82 31.5 131t88.5 49t87 -48.5t30 -129.5t-30 -130t-87 -49zM151 296q32 0 48 35.5t16 93.5
q0 129 -64 129q-65 0 -65 -128q0 -130 65 -130zM537 39q62 0 62 129t-62 129q-64 0 -64 -128q0 -130 64 -130z" />
    <glyph glyph-name="Yacute.sc" horiz-adv-x="444" 
d="M254 0h-66v245l-173 347h68l99 -207q25 -50 40 -83h1l40 83l99 207h65l-173 -347v-245zM223 630h-44l81 154h83z" />
    <glyph glyph-name="sterling.sc" horiz-adv-x="430" 
d="M101 -12q-37 0 -63.5 21.5t-26.5 63.5q0 41 25.5 66t67.5 25q43 0 73 -34q3 15 3 38q-1 54 -28 118h-95v49h69q-35 80 -35 122q0 64 38 103t104 39q131 0 142 -154l-59 -6q-7 105 -83 105q-38 0 -58 -23.5t-20 -63.5q0 -44 36 -122h118v-49h-96q24 -60 24 -118
q0 -46 -11 -82q42 -44 78 -44q28 0 42 26.5t17 83.5h56q-7 -164 -112 -164q-54 0 -108 50q-35 -50 -98 -50zM103 35q45 0 61 43q-32 39 -60 39q-19 0 -31 -11t-12 -30q0 -41 42 -41z" />
    <glyph glyph-name="Adieresis.sc" horiz-adv-x="483" 
d="M87 0h-63l185 592h66l184 -592h-67l-54 179h-196zM214 423l-58 -193h167l-56 192q-5 14 -12.5 39l-13.5 45h-1q-14 -46 -26 -83zM204 630h-71v79h71v-79zM355 630h-70v79h70v-79z" />
    <glyph glyph-name="numbersign.sc" horiz-adv-x="517" 
d="M147 0h-60l31 170h-79v58h89l24 138h-84v56h95l30 170h60l-30 -170h115l30 170h59l-29 -170h79v-56h-90l-25 -138h86v-58h-96l-30 -170h-60l30 170h-115zM212 366l-25 -139h116l25 139h-116z" />
    <glyph glyph-name="Aacute.sc" horiz-adv-x="483" 
d="M87 0h-63l185 592h66l184 -592h-67l-54 179h-196zM214 423l-58 -193h167l-56 192q-5 14 -12.5 39l-13.5 45h-1q-14 -46 -26 -83zM263 630h-44l81 154h83z" />
    <glyph glyph-name="Icircumflex.sc" horiz-adv-x="213" 
d="M15 626h-41l110 158h47l110 -158h-42l-92 94zM140 0h-66v592h66v-592z" />
    <glyph glyph-name="eight.sc" horiz-adv-x="424" 
d="M211 -12q-87 0 -135.5 43t-48.5 109q0 60 33 99.5t98 74.5q-53 29 -80.5 63t-27.5 85q0 58 43.5 98.5t117.5 40.5q76 0 118 -40.5t42 -98.5q0 -90 -108 -146q66 -35 99 -74.5t33 -101.5q0 -65 -49 -108.5t-135 -43.5zM214 343q52 27 73.5 53t21.5 64q0 37 -24 62t-74 25
q-48 0 -73.5 -24.5t-25.5 -59.5q0 -39 23.5 -65.5t78.5 -54.5zM211 41q55 0 88 27t33 75q0 47 -29.5 78.5t-93.5 64.5q-64 -34 -91.5 -65.5t-27.5 -77.5t33 -74t88 -28z" />
    <glyph glyph-name="Eacute.sc" horiz-adv-x="428" 
d="M216 630h-44l81 154h82zM398 0h-332v592h318v-59h-252v-193h184v-56h-184v-226h266v-58z" />
    <glyph glyph-name="fl.sc" horiz-adv-x="804" 
d="M781 0h-314v592h66v-534h248v-58zM132 0h-66v592h315v-59h-249v-196h182v-57h-182v-280z" />
    <glyph glyph-name="A.sc" horiz-adv-x="483" 
d="M87 0h-63l185 592h66l184 -592h-67l-54 179h-196zM214 423l-58 -193h167l-56 192q-5 14 -12.5 39l-13.5 45h-1q-14 -46 -26 -83z" />
    <glyph glyph-name="E.sc" horiz-adv-x="429" 
d="M398 0h-332v592h318v-59h-252v-193h184v-56h-184v-226h266v-58z" />
    <glyph glyph-name="I.sc" horiz-adv-x="213" 
d="M140 0h-66v592h66v-592z" />
    <glyph glyph-name="Thorn.sc" horiz-adv-x="465" 
d="M133 0h-65v592h65v-107h110q90 0 140.5 -40.5t50.5 -126.5q0 -172 -196 -172h-105v-146zM133 427v-226h108q64 0 96 27.5t32 87.5q0 58 -31.5 84.5t-97.5 26.5h-107z" />
    <glyph glyph-name="M.sc" horiz-adv-x="619" 
d="M125 0h-59v592h81l163 -499h1l162 499h79v-592h-63v410q0 13 0.5 34.5t0.5 39.5h-1q-9 -34 -32 -111q-124 -371 -124 -373h-51q-1 6 -61.5 185.5t-62.5 187.5q-9 27 -33 109h-1q1 -25 1 -78v-404z" />
    <glyph glyph-name="Q.sc" horiz-adv-x="532" 
d="M446 -95v-55h-48q-167 0 -167 144q-87 13 -138.5 90.5t-51.5 211.5q0 145 62 225t163 80q100 0 162 -80t62 -225q0 -136 -53 -213.5t-142 -88.5q3 -50 30.5 -69.5t82.5 -19.5h38zM266 46q74 0 116.5 65.5t42.5 184.5q0 118 -42.5 182.5t-116.5 64.5q-75 0 -117.5 -64.5
t-42.5 -182.5q0 -119 43 -184.5t117 -65.5z" />
    <glyph glyph-name="U.sc" horiz-adv-x="510" 
d="M256 -9q-99 0 -146.5 56t-47.5 150v395h66v-386q0 -158 129 -158q128 0 128 157v387h63v-393q0 -95 -46.5 -151.5t-145.5 -56.5z" />
    <glyph glyph-name="Y.sc" horiz-adv-x="444" 
d="M255 0h-67v245l-172 347h67l100 -207q25 -50 40 -83h1l40 83l99 207h65l-173 -347v-245z" />
    <glyph glyph-name="Oacute.sc" horiz-adv-x="531" 
d="M254 630h-44l81 154h83zM266 -9q-100 0 -162.5 80.5t-62.5 224.5q0 145 62 225t163 80q100 0 162 -80t62 -225t-62 -225t-162 -80zM266 48q73 0 116.5 65.5t43.5 182.5t-43.5 182t-116.5 65q-74 0 -117 -64.5t-43 -182.5t43 -183t117 -65z" />
    <glyph glyph-name="ordmasculine.sc" horiz-adv-x="361" 
d="M181 216q-64 0 -104.5 50.5t-40.5 141.5q0 93 40 143.5t105 50.5q64 0 104 -51t40 -143q0 -90 -40 -141t-104 -51zM181 262q44 0 67 40t23 107q0 65 -22.5 106t-67.5 41t-68.5 -40t-23.5 -107q0 -65 22.5 -106t69.5 -41z" />
    <glyph glyph-name="Euro.sc" horiz-adv-x="478" 
d="M278 -11q-160 0 -189 220h-79v50h76q-1 12 -1 35v34h-75v51h79q14 114 65 169t124 55q69 0 108.5 -43.5t57.5 -129.5l-59 -11q-15 67 -38 96.5t-70 29.5q-49 0 -82.5 -42.5t-43.5 -123.5h144v-51h-148v-32q0 -29 1 -37h147v-50h-143q20 -163 128 -163q47 0 73 32t41 100
l57 -9q-36 -180 -173 -180z" />
    <glyph glyph-name="Tcedilla" horiz-adv-x="515" 
d="M230 -227l22 92h-30v86h74v-79l-37 -99h-29zM223 0v677h-194v63h456v-63h-194v-677h-68z" />
    <glyph glyph-name="tcedilla" horiz-adv-x="316" 
d="M107 -227l22 92h-30v86h74v-79l-37 -99h-29zM223 -7q-67 0 -96 28t-29 94v356h-78v55h78v190h65v-190h117v-55h-117v-343q0 -43 15 -61.5t56 -18.5q27 0 46 7v-55q-23 -7 -57 -7z" />
    <glyph glyph-name="registered.salt_big" horiz-adv-x="444" 
d="M222 290q-80 0 -135 67.5t-55 164.5t54.5 164.5t135.5 67.5t135.5 -67t54.5 -164t-54.5 -165t-135.5 -68zM222 316q68 0 115 60.5t47 145.5t-46.5 145t-115.5 60t-115.5 -59.5t-46.5 -144.5q0 -86 46.5 -146.5t115.5 -60.5zM150 402v249h72q76 0 76 -72q0 -53 -44 -68
l48 -109h-35l-48 104h-35v-104h-34zM184 537h35q45 0 45 42q0 40 -45 40h-35v-82z" />
    <glyph glyph-name="Abreve.sc" horiz-adv-x="483" 
d="M24 0h63l55 179h196l54 -179h67l-184 592h-66zM156 230l58 193q12 37 26 83h1l13.5 -45t12.5 -39l56 -192h-167zM240 621q-59 0 -91.5 42.5t-36.5 119.5h44q11 -109 84 -109q74 0 84 109h44q-3 -76 -36 -119t-92 -43z" />
    <glyph glyph-name="Amacron.sc" horiz-adv-x="483" 
d="M24 0h63l55 179h196l54 -179h67l-184 592h-66zM156 230l58 193q12 37 26 83h1l13.5 -45t12.5 -39l56 -192h-167zM118 641v57h245v-57h-245z" />
    <glyph glyph-name="Aogonek.sc" horiz-adv-x="483" 
d="M409 -188q-41 0 -63 20.5t-22 56.5q0 29 19.5 59t48.5 52l-54 179h-196l-55 -179h-63l185 592h66l184 -592h-5q-28 0 -52.5 -32.5t-24.5 -67.5q0 -48 45 -48q34 0 80 23l17 -28q-51 -35 -110 -35zM156 230h167l-56 192q-5 14 -12.5 39l-13.5 45h-1q-14 -46 -26 -83z" />
    <glyph glyph-name="Cacute.sc" horiz-adv-x="497" 
d="M204 629l81 154h82l-120 -154h-43zM262 -9q163 0 201 192l-61 12q-29 -148 -139 -148q-75 0 -116 65t-41 186q0 117 40.5 181.5t114.5 64.5q55 0 86 -34.5t46 -105.5l62 12q-36 185 -193 185q-102 0 -161.5 -79t-59.5 -224q0 -150 58.5 -228.5t162.5 -78.5z" />
    <glyph glyph-name="Ccaron.sc" horiz-adv-x="497" 
d="M229 628l-110 158h43l92 -95l91 95h41l-110 -158h-47zM262 -9q163 0 201 192l-61 12q-29 -148 -139 -148q-75 0 -116 65t-41 186q0 117 40.5 181.5t114.5 64.5q55 0 86 -34.5t46 -105.5l62 12q-36 185 -193 185q-102 0 -161.5 -79t-59.5 -224q0 -150 58.5 -228.5
t162.5 -78.5z" />
    <glyph glyph-name="Ccircumflex.sc" horiz-adv-x="497" 
d="M122 625l110 158h47l110 -158h-42l-92 93l-91 -93h-42zM262 -9q163 0 201 192l-61 12q-29 -148 -139 -148q-75 0 -116 65t-41 186q0 117 40.5 181.5t114.5 64.5q55 0 86 -34.5t46 -105.5l62 12q-36 185 -193 185q-102 0 -161.5 -79t-59.5 -224q0 -150 58.5 -228.5
t162.5 -78.5z" />
    <glyph glyph-name="Cdotaccent.sc" horiz-adv-x="497" 
d="M262 -9q163 0 201 192l-61 12q-29 -148 -139 -148q-75 0 -116 65t-41 186q0 117 40.5 181.5t114.5 64.5q55 0 86 -34.5t46 -105.5l62 12q-36 185 -193 185q-102 0 -161.5 -79t-59.5 -224q0 -150 58.5 -228.5t162.5 -78.5zM217 645v79h79v-79h-79z" />
    <glyph glyph-name="Dcaron.sc" horiz-adv-x="507" 
d="M66 0h136q132 0 197.5 70.5t65.5 226.5q0 155 -65 225t-198 70h-136v-592zM132 58v478h77q98 0 144.5 -58.5t46.5 -181.5q0 -124 -46 -181t-144 -57h-78zM227 628l-110 158h43l92 -95l91 95h41l-110 -158h-47z" />
    <glyph glyph-name="Dcroat.sc" horiz-adv-x="512" 
d="M202 0h-135v288h-57v48h57v256h135q133 0 198 -70t65 -225q0 -156 -65.5 -226.5t-197.5 -70.5zM132 288v-230h78q98 0 144 57t46 181q0 123 -46.5 181.5t-144.5 58.5h-77v-200h107v-48h-107z" />
    <glyph glyph-name="Ebreve.sc" horiz-adv-x="429" 
d="M66 0h332v58h-266v226h184v56h-184v193h252v59h-318v-592zM223 621q-59 0 -91.5 42.5t-36.5 119.5h44q11 -109 84 -109q74 0 84 109h44q-3 -76 -36 -119t-92 -43z" />
    <glyph glyph-name="Ecaron.sc" horiz-adv-x="429" 
d="M199 628l-110 158h43l92 -95l91 95h41l-110 -158h-47zM66 0h332v58h-266v226h184v56h-184v193h252v59h-318v-592z" />
    <glyph glyph-name="Edotaccent.sc" horiz-adv-x="429" 
d="M189 630v79h79v-79h-79zM66 0h332v58h-266v226h184v56h-184v193h252v59h-318v-592z" />
    <glyph glyph-name="Emacron.sc" horiz-adv-x="429" 
d="M100 641v57h245v-57h-245zM66 0h332v58h-266v226h184v56h-184v193h252v59h-318v-592z" />
    <glyph glyph-name="Eogonek.sc" horiz-adv-x="429" 
d="M288 -188q-41 0 -63 20.5t-22 56.5q0 58 68 111h-205v592h318v-59h-252v-193h184v-56h-184v-226h266v-58h-42q-43 0 -72 -30.5t-29 -69.5q0 -48 46 -48q35 0 79 23l18 -28q-51 -35 -110 -35z" />
    <glyph glyph-name="Gbreve.sc" horiz-adv-x="518" 
d="M256 -8q109 0 149 90h2v-82h54v281h-182v-53h122q1 -86 -35 -133t-101 -47q-77 0 -118 65t-41 186q0 119 42.5 181.5t114.5 62.5q53 0 84.5 -34t47.5 -106l62 11q-40 187 -194 187q-102 0 -162 -78.5t-60 -225.5q0 -146 55.5 -225.5t159.5 -79.5zM256 625
q-59 0 -91.5 42.5t-36.5 119.5h44q11 -109 84 -109q74 0 84 109h44q-3 -76 -36 -119t-92 -43z" />
    <glyph glyph-name="Gcircumflex.sc" horiz-adv-x="518" 
d="M123 625l110 158h47l110 -158h-42l-92 93l-91 -93h-42zM256 -8q109 0 149 90h2v-82h54v281h-182v-53h122q1 -86 -35 -133t-101 -47q-77 0 -118 65t-41 186q0 119 42.5 181.5t114.5 62.5q53 0 84.5 -34t47.5 -106l62 11q-40 187 -194 187q-102 0 -162 -78.5t-60 -225.5
q0 -146 55.5 -225.5t159.5 -79.5z" />
    <glyph glyph-name="Gcommaaccent.sc" horiz-adv-x="518" 
d="M233 -222l21 90h-28v83h70v-76l-36 -97h-27zM256 -8q-104 0 -159.5 79.5t-55.5 225.5q0 147 60 225.5t162 78.5q154 0 194 -187l-62 -11q-16 72 -47.5 106t-84.5 34q-72 0 -114.5 -62.5t-42.5 -181.5q0 -121 41 -186t118 -65q65 0 101 47t35 133h-122v53h182v-281h-54v82
h-2q-40 -90 -149 -90z" />
    <glyph glyph-name="Gdotaccent.sc" horiz-adv-x="518" 
d="M256 -8q109 0 149 90h2v-82h54v281h-182v-53h122q1 -86 -35 -133t-101 -47q-77 0 -118 65t-41 186q0 119 42.5 181.5t114.5 62.5q53 0 84.5 -34t47.5 -106l62 11q-40 187 -194 187q-102 0 -162 -78.5t-60 -225.5q0 -146 55.5 -225.5t159.5 -79.5zM220 630v79h79v-79h-79z
" />
    <glyph glyph-name="Hbar.sc" horiz-adv-x="525" 
d="M66 0v430h-56v52h56v110h66v-110h261v110h66v-110h56v-52h-56v-430h-66v285h-261v-285h-66zM132 340h261v90h-261v-90z" />
    <glyph glyph-name="Hcircumflex.sc" horiz-adv-x="525" 
d="M129 625l110 158h47l110 -158h-42l-92 93l-91 -93h-42zM66 0h66v284h261v-284h66v592h-66v-250h-261v250h-66v-592z" />
    <glyph glyph-name="Ibreve.sc" horiz-adv-x="212" 
d="M74 0h66v592h-66v-592zM107 621q-59 0 -91.5 42.5t-36.5 119.5h44q11 -109 84 -109q74 0 84 109h44q-3 -76 -36 -119t-92 -43z" />
    <glyph glyph-name="Idotaccent.sc" horiz-adv-x="212" 
d="M74 0h66v592h-66v-592zM67 630v79h79v-79h-79z" />
    <glyph glyph-name="IJ.sc" horiz-adv-x="577" 
d="M140 0h-66v592h66v-592zM223 38l35 48q48 -39 102 -39q88 0 88 97v448h66v-454q0 -147 -149 -147q-84 0 -142 47z" />
    <glyph glyph-name="Imacron.sc" horiz-adv-x="212" 
d="M74 0h66v592h-66v-592zM-16 641v57h245v-57h-245z" />
    <glyph glyph-name="Iogonek.sc" horiz-adv-x="212" 
d="M99 -188q-41 0 -63 20.5t-22 56.5q0 56 65 108h-5v595h65v-592h-4q-68 -41 -68 -100q0 -48 45 -48q34 0 80 23l17 -28q-51 -35 -110 -35z" />
    <glyph glyph-name="Itilde.sc" horiz-adv-x="212" 
d="M74 0h66v592h-66v-592zM172 625q-28 0 -71 28t-58 28q-18 0 -26 -12t-8 -42h-44q0 109 77 109q28 0 71 -28t59 -28q34 0 34 54h42q0 -109 -76 -109z" />
    <glyph glyph-name="Jcircumflex.sc" horiz-adv-x="365" 
d="M136 640l110 158h47l110 -158h-42l-92 93l-91 -93h-42zM12 38q58 -47 142 -47q149 0 149 147v454h-66v-448q0 -97 -88 -97q-54 0 -102 39z" />
    <glyph glyph-name="Kcommaaccent.sc" horiz-adv-x="475" 
d="M234 -222l21 90h-28v83h70v-76l-36 -97h-27zM131 0h-65v592h65v-304q37 45 104 133l131 171h71l-179 -228l205 -364h-69l-177 314l-86 -106v-208z" />
    <glyph glyph-name="Lacute.sc" horiz-adv-x="403" 
d="M66 0h314v58h-248v534h-66v-592zM75 629l81 154h82l-120 -154h-43z" />
    <glyph glyph-name="Lcaron.sc" horiz-adv-x="403" 
d="M380 0h-314v592h66v-534h248v-58zM278 402l25 99h-30v91h77v-84l-41 -106h-31z" />
    <glyph glyph-name="Lcommaaccent.sc" horiz-adv-x="403" 
d="M380 0h-314v592h66v-534h248v-58zM198 -222l21 90h-28v83h70v-76l-36 -97h-27z" />
    <glyph glyph-name="Ldot.sc" horiz-adv-x="428" 
d="M380 0h-314v592h66v-534h248v-58zM277 278v81h74v-81h-74z" />
    <glyph glyph-name="Nacute.sc" horiz-adv-x="526" 
d="M66 0h61v509h2l61 -115l211 -394h60v592h-60v-478h-2q-41 80 -52 99l-201 379h-80v-592zM230 629l81 154h82l-120 -154h-43z" />
    <glyph glyph-name="Ncaron.sc" horiz-adv-x="526" 
d="M66 0h61v509h2l61 -115l211 -394h60v592h-60v-478h-2q-41 80 -52 99l-201 379h-80v-592zM250 628l-110 158h43l92 -95l91 95h41l-110 -158h-47z" />
    <glyph glyph-name="Ncommaaccent.sc" horiz-adv-x="526" 
d="M127 0h-61v592h80l201 -379q11 -19 52 -99h2v478h60v-592h-60l-211 394l-61 115h-2v-509zM228 -222l21 90h-28v83h70v-76l-36 -97h-27z" />
    <glyph glyph-name="Eng.sc" horiz-adv-x="526" 
d="M312 -200q-84 0 -141 47l34 48q48 -39 102 -39q94 0 94 97v48l-211 393l-61 115h-2v-509h-61v592h80l201 -379q11 -19 52 -99h2v478h60v-645q0 -147 -149 -147z" />
    <glyph glyph-name="Obreve.sc" horiz-adv-x="531" 
d="M266 -9q100 0 162 80t62 225t-62 225t-162 80q-101 0 -163 -80t-62 -225q0 -144 62.5 -224.5t162.5 -80.5zM266 48q-74 0 -117 65t-43 183t43 182.5t117 64.5q73 0 116.5 -65t43.5 -182t-43.5 -182.5t-116.5 -65.5zM265 625q-59 0 -91.5 42.5t-36.5 119.5h44
q11 -109 84 -109q74 0 84 109h44q-3 -76 -36 -119t-92 -43z" />
    <glyph glyph-name="Ohungarumlaut.sc" horiz-adv-x="531" 
d="M266 -9q100 0 162 80t62 225t-62 225t-162 80q-101 0 -163 -80t-62 -225q0 -144 62.5 -224.5t162.5 -80.5zM266 48q-74 0 -117 65t-43 183t43 182.5t117 64.5q73 0 116.5 -65t43.5 -182t-43.5 -182.5t-116.5 -65.5zM286 629l82 154h84l-121 -154h-45zM148 629l79 154h85
l-119 -154h-45z" />
    <glyph glyph-name="Omacron.sc" horiz-adv-x="531" 
d="M266 -9q100 0 162 80t62 225t-62 225t-162 80q-101 0 -163 -80t-62 -225q0 -144 62.5 -224.5t162.5 -80.5zM266 48q-74 0 -117 65t-43 183t43 182.5t117 64.5q73 0 116.5 -65t43.5 -182t-43.5 -182.5t-116.5 -65.5zM142 641v57h245v-57h-245z" />
    <glyph glyph-name="Racute.sc" horiz-adv-x="483" 
d="M199 629l81 154h82l-120 -154h-43zM66 0h65v257h115l125 -257h71l-129 265q122 28 122 163q0 164 -193 164h-176v-592zM131 311v223h108q67 0 98.5 -25.5t31.5 -83.5q0 -61 -31 -87.5t-98 -26.5h-109z" />
    <glyph glyph-name="Rcaron.sc" horiz-adv-x="483" 
d="M216 628l-110 158h43l92 -95l91 95h41l-110 -158h-47zM66 0h65v257h115l125 -257h71l-129 265q122 28 122 163q0 164 -193 164h-176v-592zM131 311v223h108q67 0 98.5 -25.5t31.5 -83.5q0 -61 -31 -87.5t-98 -26.5h-109z" />
    <glyph glyph-name="Rcommaaccent.sc" horiz-adv-x="483" 
d="M222 -222l21 90h-28v83h70v-76l-36 -97h-27zM131 0h-65v592h176q193 0 193 -164q0 -135 -122 -163l129 -265h-71l-125 257h-115v-257zM131 534v-223h109q67 0 98 26.5t31 87.5q0 58 -31.5 83.5t-98.5 25.5h-108z" />
    <glyph glyph-name="Sacute.sc" horiz-adv-x="466" 
d="M165 629l81 154h82l-120 -154h-43zM230 -9q83 0 134 43.5t51 109.5q0 38 -12.5 66.5t-39.5 50.5t-50.5 35.5t-65.5 31.5q-32 15 -50 25t-38.5 26t-29.5 36t-9 46q0 40 27.5 63.5t73.5 23.5q89 0 127 -93l55 24q-50 124 -182 124q-71 0 -118 -40.5t-47 -101.5
q0 -26 5.5 -47.5t18.5 -39.5t25.5 -30.5t35.5 -26t39 -21.5t44 -21q33 -15 51.5 -25t38.5 -26t28.5 -35.5t8.5 -45.5q0 -45 -32 -71t-89 -26q-99 0 -146 111l-57 -25q59 -141 203 -141z" />
    <glyph glyph-name="Scedilla.sc" horiz-adv-x="466" 
d="M27 132l57 25q47 -111 146 -111q57 0 89 26t32 71q0 48 -30.5 75t-96.5 57q-28 13 -44 21t-39 21.5t-35.5 26t-25.5 30.5t-18.5 39.5t-5.5 47.5q0 61 47 101.5t118 40.5q132 0 182 -124l-55 -24q-38 93 -127 93q-46 0 -73.5 -23.5t-27.5 -63.5q0 -49 31 -76t96 -57
q42 -18 65.5 -31.5t50.5 -35.5t39.5 -50.5t12.5 -66.5q0 -63 -46.5 -105.5t-124.5 -46.5l4 13h-41l-4 -12q-124 12 -176 139zM230 -201q-61 0 -110 36l23 35q42 -29 87 -29q63 0 63 47q0 35 -37 35q-23 0 -45 -20l-28 13l20 77q18 -2 27 -2q2 0 7 0.5t7 0.5l-12 -47
q20 15 47 15q26 0 45 -17t19 -51q0 -44 -33 -68.5t-80 -24.5z" />
    <glyph glyph-name="Scircumflex.sc" horiz-adv-x="466" 
d="M84 625l110 158h47l110 -158h-42l-92 93l-91 -93h-42zM230 -9q83 0 134 43.5t51 109.5q0 38 -12.5 66.5t-39.5 50.5t-50.5 35.5t-65.5 31.5q-32 15 -50 25t-38.5 26t-29.5 36t-9 46q0 40 27.5 63.5t73.5 23.5q89 0 127 -93l55 24q-50 124 -182 124q-71 0 -118 -40.5
t-47 -101.5q0 -26 5.5 -47.5t18.5 -39.5t25.5 -30.5t35.5 -26t39 -21.5t44 -21q33 -15 51.5 -25t38.5 -26t28.5 -35.5t8.5 -45.5q0 -45 -32 -71t-89 -26q-99 0 -146 111l-57 -25q59 -141 203 -141z" />
    <glyph glyph-name="Scommaaccent.sc" horiz-adv-x="466" 
d="M198 -222l21 90h-28v83h70v-76l-36 -97h-27zM230 -9q-144 0 -203 141l57 25q47 -111 146 -111q57 0 89 26t32 71q0 48 -30.5 75t-96.5 57q-28 13 -44 21t-39 21.5t-35.5 26t-25.5 30.5t-18.5 39.5t-5.5 47.5q0 61 47 101.5t118 40.5q132 0 182 -124l-55 -24
q-38 93 -127 93q-46 0 -73.5 -23.5t-27.5 -63.5q0 -49 31 -76t96 -57q42 -18 65.5 -31.5t50.5 -35.5t39.5 -50.5t12.5 -66.5q0 -66 -51 -109.5t-134 -43.5z" />
    <glyph glyph-name="Tbar.sc" horiz-adv-x="436" 
d="M184 0v258h-162v54h162v224h-162v56h393v-56h-165v-224h165v-54h-165v-258h-66z" />
    <glyph glyph-name="Tcaron.sc" horiz-adv-x="436" 
d="M184 0h66v533h165v59h-394v-59h163v-533zM194 628l-110 158h43l92 -95l91 95h41l-110 -158h-47z" />
    <glyph glyph-name="Tcommaaccent.sc" horiz-adv-x="436" 
d="M250 0h-66v533h-163v59h394v-59h-165v-533zM190 -222l21 90h-28v83h70v-76l-36 -97h-27z" />
    <glyph glyph-name="Ubreve.sc" horiz-adv-x="510" 
d="M256 -9q99 0 145.5 56.5t46.5 151.5v393h-63v-387q0 -157 -128 -157q-129 0 -129 158v386h-66v-395q0 -94 47.5 -150t146.5 -56zM255 621q-59 0 -91.5 42.5t-36.5 119.5h44q11 -109 84 -109q74 0 84 109h44q-3 -76 -36 -119t-92 -43z" />
    <glyph glyph-name="Uhungarumlaut.sc" horiz-adv-x="510" 
d="M291 629l82 154h84l-121 -154h-45zM153 629l79 154h85l-119 -154h-45zM256 -9q99 0 145.5 56.5t46.5 151.5v393h-63v-387q0 -157 -128 -157q-129 0 -129 158v386h-66v-395q0 -94 47.5 -150t146.5 -56z" />
    <glyph glyph-name="Umacron.sc" horiz-adv-x="510" 
d="M132 641v57h245v-57h-245zM256 -9q99 0 145.5 56.5t46.5 151.5v393h-63v-387q0 -157 -128 -157q-129 0 -129 158v386h-66v-395q0 -94 47.5 -150t146.5 -56z" />
    <glyph glyph-name="Uogonek.sc" horiz-adv-x="510" 
d="M283 -188q-41 0 -62.5 20.5t-21.5 56.5q0 29 16 57t41 45q-99 0 -146.5 56t-47.5 150v395h66v-386q0 -158 129 -158q128 0 128 157v387h63v-394q0 -143 -97 -188l-16 -8t-16.5 -8.5t-14.5 -7.5t-15 -9.5t-12 -10.5t-11.5 -12.5t-7 -13.5t-6 -17.5t-1.5 -19.5
q0 -51 46 -51q35 0 79 23l18 -28q-51 -35 -111 -35z" />
    <glyph glyph-name="Uring.sc" horiz-adv-x="510" 
d="M254 626q-36 0 -58.5 26.5t-22.5 66.5t22.5 66t58.5 26t59 -26t23 -66t-22.5 -66.5t-59.5 -26.5zM254 661q20 0 32 16.5t12 41.5q0 24 -12 40t-32 16t-31.5 -16t-11.5 -40q0 -25 11.5 -41.5t31.5 -16.5zM256 -9q99 0 145.5 56.5t46.5 151.5v393h-63v-387
q0 -157 -128 -157q-129 0 -129 158v386h-66v-395q0 -94 47.5 -150t146.5 -56z" />
    <glyph glyph-name="Utilde.sc" horiz-adv-x="510" 
d="M256 -9q99 0 145.5 56.5t46.5 151.5v393h-63v-387q0 -157 -128 -157q-129 0 -129 158v386h-66v-395q0 -94 47.5 -150t146.5 -56zM322 625q-28 0 -71 28t-58 28q-18 0 -26 -12t-8 -42h-44q0 109 77 109q28 0 71 -28t59 -28q34 0 34 54h42q0 -109 -76 -109z" />
    <glyph glyph-name="Wacute.sc" horiz-adv-x="662" 
d="M167 0h57l109 497h1l107 -497h58l137 592h-60l-78 -361l-28 -130h-1q-9 50 -27 132l-78 359h-60l-78 -359q-18 -76 -27 -132h-2q-11 58 -27 133l-79 358h-64zM281 629l81 154h82l-120 -154h-43z" />
    <glyph glyph-name="Wcircumflex.sc" horiz-adv-x="662" 
d="M167 0h57l109 497h1l107 -497h58l137 592h-60l-78 -361l-28 -130h-1q-9 50 -27 132l-78 359h-60l-78 -359q-18 -76 -27 -132h-2q-11 58 -27 133l-79 358h-64zM198 625l110 158h47l110 -158h-42l-92 93l-91 -93h-42z" />
    <glyph glyph-name="Wdieresis.sc" horiz-adv-x="662" 
d="M167 0h57l109 497h1l107 -497h58l137 592h-60l-78 -361l-28 -130h-1q-9 50 -27 132l-78 359h-60l-78 -359q-18 -76 -27 -132h-2q-11 58 -27 133l-79 358h-64zM221 628v80h71v-80h-71zM373 628v80h70v-80h-70z" />
    <glyph glyph-name="Wgrave.sc" horiz-adv-x="662" 
d="M167 0h57l109 497h1l107 -497h58l137 592h-60l-78 -361l-28 -130h-1q-9 50 -27 132l-78 359h-60l-78 -359q-18 -76 -27 -132h-2q-11 58 -27 133l-79 358h-64zM341 629l-119 154h83l80 -154h-44z" />
    <glyph glyph-name="Ycircumflex.sc" horiz-adv-x="444" 
d="M188 0h67v245l173 347h-65l-99 -207l-40 -83h-1q-15 33 -40 83l-100 207h-67l172 -347v-245zM88 625l110 158h47l110 -158h-42l-92 93l-91 -93h-42z" />
    <glyph glyph-name="Ygrave.sc" horiz-adv-x="444" 
d="M188 0h67v245l173 347h-65l-99 -207l-40 -83h-1q-15 33 -40 83l-100 207h-67l172 -347v-245zM212 629l-119 154h83l80 -154h-44z" />
    <glyph glyph-name="Zacute.sc" horiz-adv-x="446" 
d="M170 629l81 154h82l-120 -154h-43zM29 0h380v56h-300l300 490v46h-359v-57h281l-302 -489v-46z" />
    <glyph glyph-name="Zdotaccent.sc" horiz-adv-x="446" 
d="M29 0h380v56h-300l300 490v46h-359v-57h281l-302 -489v-46zM183 630v79h79v-79h-79z" />
    <glyph glyph-name="zero.tab" horiz-adv-x="556" 
d="M278 -14q-113 0 -172 99t-59 285t59 285t172 99t172 -99t59 -285t-59 -285t-172 -99zM278 46q164 0 164 324q0 164 -43 244t-121 80q-163 0 -163 -324t163 -324z" />
    <glyph glyph-name="one.tab" horiz-adv-x="375" 
d="M50 0v61h120v606q-55 -34 -118 -34v59q81 3 121 48h63v-679h108v-61h-294z" />
    <glyph glyph-name="two.tab" horiz-adv-x="498" 
d="M41 0v16q0 64 18.5 116.5t48.5 88t66 66.5t72 59t66 56.5t48.5 67.5t18.5 86q0 65 -32 101.5t-91 36.5q-96 0 -149 -128l-56 24q68 164 208 164q89 0 137.5 -52.5t48.5 -142.5q0 -50 -18.5 -93.5t-47.5 -75.5t-64.5 -61.5t-70.5 -58t-64.5 -58t-48 -68.5t-18.5 -83h333
v-61h-405z" />
    <glyph glyph-name="three.tab" horiz-adv-x="504" 
d="M242 -12q-164 0 -224 161l57 23q26 -69 66 -97t99 -28q70 0 110 42t40 110q0 83 -47 124.5t-153 41.5h-24v56h43q164 0 164 147q0 57 -30 91.5t-96 34.5q-86 0 -150 -86l-47 33q80 113 204 113q93 0 139 -51t46 -129q0 -70 -34.5 -116t-89.5 -62q140 -46 140 -196
q0 -93 -58.5 -152.5t-154.5 -59.5z" />
    <glyph glyph-name="four.tab" horiz-adv-x="517" 
d="M325 0v181h-298v50l287 509h76v-499h105v-60h-105v-181h-65zM98 241h228v407h-1z" />
    <glyph glyph-name="five.tab" horiz-adv-x="498" 
d="M244 -14q-137 0 -210 146l55 27q58 -115 154 -115q75 0 112.5 56.5t37.5 141.5q0 89 -36.5 138t-98.5 49q-86 0 -140 -86l-52 13l23 384h335l-4 -62h-274l-18 -264q48 72 140 72q87 0 139 -62t52 -179q0 -120 -57.5 -189.5t-157.5 -69.5z" />
    <glyph glyph-name="six.tab" horiz-adv-x="519" 
d="M271 -14q-102 0 -163 93.5t-61 277.5q0 177 61.5 287t179.5 110q99 0 163 -87l-50 -37q-23 31 -49 48t-67 17q-85 0 -128.5 -88t-44.5 -232q72 88 174 88q100 0 148 -63.5t48 -168.5q0 -108 -56 -176.5t-155 -68.5zM274 44q68 0 105 48t37 138q0 174 -137 174
q-99 0 -165 -96q8 -130 49.5 -197t110.5 -67z" />
    <glyph glyph-name="seven.tab" horiz-adv-x="469" 
d="M99 0l265 678h-321v62h391v-57l-267 -683h-68z" />
    <glyph glyph-name="eight.tab" horiz-adv-x="518" 
d="M260 -15q-107 0 -166.5 54t-59.5 135q0 74 43 122.5t126 93.5q-69 40 -104.5 82.5t-35.5 106.5q0 73 52.5 124.5t144.5 51.5q93 0 144 -51.5t51 -124.5q0 -62 -35 -103.5t-104 -80.5q84 -45 126 -93.5t42 -125.5q0 -82 -59.5 -136.5t-164.5 -54.5zM264 423q66 35 96 69
t30 85q0 50 -32 85t-98 35q-64 0 -97.5 -34.5t-33.5 -83.5q0 -51 32.5 -85t102.5 -71zM260 42q71 0 114.5 37.5t43.5 100.5q0 58 -40 98.5t-122 84.5q-81 -44 -118.5 -85t-37.5 -100q0 -60 44 -98t116 -38z" />
    <glyph glyph-name="nine.tab" horiz-adv-x="519" 
d="M233 -14q-104 0 -172 93l49 36q19 -23 32.5 -36t38 -24t54.5 -11q85 0 129 89t43 232q-70 -88 -174 -88q-99 0 -147.5 63.5t-48.5 168.5q0 107 57 176t155 69q102 0 162.5 -93t60.5 -278q0 -115 -24.5 -202.5t-79.5 -141t-135 -53.5zM242 336q97 0 164 96
q-8 130 -49.5 196.5t-110.5 66.5t-106 -47.5t-37 -137.5q0 -174 139 -174z" />
    <glyph glyph-name="asterisk.tab" horiz-adv-x="458" 
d="M157 377l-47 28l96 140l-167 -12v52l168 -12l-97 141l47 29l73 -156l71 156l47 -29l-97 -141l169 12v-52l-169 12l97 -140l-47 -28l-71 155z" />
    <glyph glyph-name="periodcentered.tab" horiz-adv-x="266" 
d="M90 264v94h86v-94h-86z" />
    <glyph glyph-name="space.tab_em" horiz-adv-x="193" 
 />
    <glyph glyph-name="space.tab_thin" horiz-adv-x="193" 
 />
    <glyph glyph-name="plus.sc" horiz-adv-x="528" 
d="M235 83v216h-188v57h188v216h58v-216h187v-57h-187v-216h-58z" />
    <glyph glyph-name="minus.sc" horiz-adv-x="528" 
d="M47 299v57h433v-57h-433z" />
    <glyph glyph-name="multiply.sc" horiz-adv-x="528" 
d="M103 129l-39 38l161 160l-161 160l39 39l160 -160l160 160l39 -39l-160 -160l160 -160l-39 -38l-160 160z" />
    <glyph glyph-name="divide.sc" horiz-adv-x="528" 
d="M226 461v85h74v-85h-74zM47 299v57h433v-57h-433zM226 108v85h74v-85h-74z" />
    <glyph glyph-name="equal.sc" horiz-adv-x="528" 
d="M64 409v58h401v-58h-401zM64 183v57h401v-57h-401z" />
    <glyph glyph-name="less.sc" horiz-adv-x="570" 
d="M506 74l-450 224v52l450 224v-63l-381 -187l381 -187v-63z" />
    <glyph glyph-name="greater.sc" horiz-adv-x="570" 
d="M64 74v63l380 187l-380 187v63l450 -224v-52z" />
    <glyph glyph-name="endash.en_salt" horiz-adv-x="0" 
 />
    <glyph glyph-name="i.trk" horiz-adv-x="211" 
d="M72 641v77h67v-77h-67zM73 0v526h65v-526h-65z" />
    <glyph glyph-name="space.thin_fra" horiz-adv-x="193" 
 />
    <glyph glyph-name="space.frac" horiz-adv-x="193" 
 />
    <glyph glyph-name="one.sups" horiz-adv-x="281" 
d="M56 309v51h67v316q-29 -13 -66 -13v50q50 1 74 27h49v-380h59v-51h-183z" />
    <glyph glyph-name="two.sups" horiz-adv-x="331" 
d="M42 313v19q0 48 19.5 85.5t48 61t56.5 45t47.5 49t19.5 60.5q0 69 -60 69q-50 0 -78 -75l-49 20q40 105 128 105q54 0 84 -31t30 -87q0 -37 -18.5 -68t-44.5 -53t-53 -43t-47 -47.5t-22 -57.5h186v-52h-247z" />
    <glyph glyph-name="three.sups" horiz-adv-x="341" 
d="M169 308q-96 0 -137 103l47 20q18 -41 38.5 -57.5t50.5 -16.5q35 0 55 21.5t20 55.5q0 44 -23.5 65.5t-78.5 21.5h-21v43h31q84 0 84 74q0 64 -62 64q-44 0 -84 -51l-40 28q52 73 128 73q57 0 85 -31t28 -78q0 -69 -61 -98q68 -29 68 -110q0 -56 -35 -91.5t-93 -35.5z
" />
    <glyph glyph-name="zero.numr" horiz-adv-x="359" 
d="M179 296q-70 0 -106.5 57t-36.5 166t36.5 166.5t106.5 57.5t107 -57.5t37 -166.5t-37 -166t-107 -57zM179 345q44 0 65.5 40.5t21.5 133.5q0 174 -87 174q-43 0 -64.5 -41t-21.5 -133q0 -174 86 -174z" />
    <glyph glyph-name="one.numr" horiz-adv-x="251" 
d="M35 304v51h67v316q-29 -13 -66 -13v50q50 1 74 27h49v-380h59v-51h-183z" />
    <glyph glyph-name="two.numr" horiz-adv-x="291" 
d="M22 308v19q0 48 19.5 85.5t48 61t56.5 45t47.5 49t19.5 60.5q0 69 -60 69q-50 0 -78 -75l-49 20q40 105 128 105q54 0 84 -31t30 -87q0 -37 -18.5 -68t-44.5 -53t-53 -43t-47 -47.5t-22 -57.5h186v-52h-247z" />
    <glyph glyph-name="three.numr" horiz-adv-x="301" 
d="M149 303q-96 0 -137 103l47 20q18 -41 38.5 -57.5t50.5 -16.5q35 0 55 21.5t20 55.5q0 44 -23.5 65.5t-78.5 21.5h-21v43h31q84 0 84 74q0 64 -62 64q-44 0 -84 -51l-40 28q52 73 128 73q57 0 85 -31t28 -78q0 -69 -61 -98q68 -29 68 -110q0 -56 -35 -91.5t-93 -35.5z
" />
    <glyph glyph-name="four.numr" horiz-adv-x="305" 
d="M177 304v104h-167v37l163 290h57v-278h59v-49h-59v-104h-53zM68 456h110v198z" />
    <glyph glyph-name="five.numr" horiz-adv-x="313" 
d="M154 296q-48 0 -76.5 21t-49.5 64l43 23q17 -32 34 -45.5t48 -13.5q73 0 73 101q0 94 -65 94q-45 0 -67 -37l-46 7l14 225h199l-4 -51h-151l-9 -124q29 27 75 27q109 0 109 -141q0 -75 -33.5 -112.5t-93.5 -37.5z" />
    <glyph glyph-name="six.numr" horiz-adv-x="326" 
d="M168 296q-63 0 -97.5 55t-34.5 165q0 105 34.5 166t107.5 61q67 0 108 -59l-41 -29q-30 41 -69 41q-82 0 -87 -157q47 43 90 43q115 0 115 -139q0 -64 -33.5 -105.5t-92.5 -41.5zM169 344q72 0 72 99q0 92 -69 92q-44 0 -81 -51q8 -140 78 -140z" />
    <glyph glyph-name="seven.numr" horiz-adv-x="272" 
d="M47 304l154 380h-173v51h230v-49l-155 -382h-56z" />
    <glyph glyph-name="eight.numr" horiz-adv-x="325" 
d="M163 296q-64 0 -99.5 32t-35.5 81q0 42 22.5 70t65.5 52q-36 21 -53 45t-17 60q0 45 30.5 76t86.5 31q57 0 87 -30t30 -77q0 -36 -17 -59t-53 -45q45 -25 66 -51.5t21 -70.5q0 -49 -35 -81.5t-99 -32.5zM163 340q37 0 58.5 20t21.5 53q0 30 -19.5 50t-63.5 45
q-42 -24 -60 -44.5t-18 -51.5t22 -51.5t59 -20.5zM166 555q33 18 47 35t14 44q0 63 -63 63q-32 0 -48.5 -18t-16.5 -43q0 -27 15.5 -44t51.5 -37z" />
    <glyph glyph-name="nine.numr" horiz-adv-x="326" 
d="M149 296q-68 0 -109 59l41 29q32 -41 70 -41q81 0 86 158q-46 -44 -90 -44q-115 0 -115 139q0 64 33.5 105.5t92.5 41.5q63 0 97.5 -54.5t34.5 -164.5q0 -105 -34 -166.5t-107 -61.5zM154 503q44 0 82 51q-9 141 -79 141q-34 0 -53 -26t-19 -73q0 -93 69 -93z" />
    <glyph glyph-name="zero.dnom" horiz-adv-x="359" 
d="M179 -7q-70 0 -106.5 57t-36.5 166t36.5 166.5t106.5 57.5t107 -57.5t37 -166.5t-37 -166t-107 -57zM179 42q44 0 65.5 40.5t21.5 133.5q0 174 -87 174q-43 0 -64.5 -41t-21.5 -133q0 -174 86 -174z" />
    <glyph glyph-name="one.dnom" horiz-adv-x="251" 
d="M35 1v51h67v316q-29 -13 -66 -13v50q50 1 74 27h49v-380h59v-51h-183z" />
    <glyph glyph-name="two.dnom" horiz-adv-x="291" 
d="M22 5v19q0 48 19.5 85.5t48 61t56.5 45t47.5 49t19.5 60.5q0 69 -60 69q-50 0 -78 -75l-49 20q40 105 128 105q54 0 84 -31t30 -87q0 -37 -18.5 -68t-44.5 -53t-53 -43t-47 -47.5t-22 -57.5h186v-52h-247z" />
    <glyph glyph-name="three.dnom" horiz-adv-x="301" 
d="M149 0q-96 0 -137 103l47 20q18 -41 38.5 -57.5t50.5 -16.5q35 0 55 21.5t20 55.5q0 44 -23.5 65.5t-78.5 21.5h-21v43h31q84 0 84 74q0 64 -62 64q-44 0 -84 -51l-40 28q52 73 128 73q57 0 85 -31t28 -78q0 -69 -61 -98q68 -29 68 -110q0 -56 -35 -91.5t-93 -35.5z" />
    <glyph glyph-name="four.dnom" horiz-adv-x="305" 
d="M177 1v104h-167v37l163 290h57v-278h59v-49h-59v-104h-53zM68 153h110v198z" />
    <glyph glyph-name="five.dnom" horiz-adv-x="313" 
d="M154 -7q-48 0 -76.5 21t-49.5 64l43 23q17 -32 34 -45.5t48 -13.5q73 0 73 101q0 94 -65 94q-45 0 -67 -37l-46 7l14 225h199l-4 -51h-151l-9 -124q29 27 75 27q109 0 109 -141q0 -75 -33.5 -112.5t-93.5 -37.5z" />
    <glyph glyph-name="six.dnom" horiz-adv-x="326" 
d="M168 -7q-63 0 -97.5 55t-34.5 165q0 105 34.5 166t107.5 61q67 0 108 -59l-41 -29q-30 41 -69 41q-82 0 -87 -157q47 43 90 43q115 0 115 -139q0 -64 -33.5 -105.5t-92.5 -41.5zM169 41q72 0 72 99q0 92 -69 92q-44 0 -81 -51q8 -140 78 -140z" />
    <glyph glyph-name="seven.dnom" horiz-adv-x="272" 
d="M47 1l154 380h-173v51h230v-49l-155 -382h-56z" />
    <glyph glyph-name="eight.dnom" horiz-adv-x="325" 
d="M163 -7q-64 0 -99.5 32t-35.5 81q0 42 22.5 70t65.5 52q-36 21 -53 45t-17 60q0 45 30.5 76t86.5 31q57 0 87 -30t30 -77q0 -36 -17 -59t-53 -45q45 -25 66 -51.5t21 -70.5q0 -49 -35 -81.5t-99 -32.5zM163 37q37 0 58.5 20t21.5 53q0 30 -19.5 50t-63.5 45
q-42 -24 -60 -44.5t-18 -51.5t22 -51.5t59 -20.5zM166 252q33 18 47 35t14 44q0 63 -63 63q-32 0 -48.5 -18t-16.5 -43q0 -27 15.5 -44t51.5 -37z" />
    <glyph glyph-name="nine.dnom" horiz-adv-x="326" 
d="M149 -7q-68 0 -109 59l41 29q32 -41 70 -41q81 0 86 158q-46 -44 -90 -44q-115 0 -115 139q0 64 33.5 105.5t92.5 41.5q63 0 97.5 -54.5t34.5 -164.5q0 -105 -34 -166.5t-107 -61.5zM154 200q44 0 82 51q-9 141 -79 141q-34 0 -53 -26t-19 -73q0 -93 69 -93z" />
    <glyph glyph-name="zero.tab_salt_slash" horiz-adv-x="564" 
d="M283 -14q-113 0 -172.5 99t-59.5 285t59.5 285t172.5 99t172 -99t59 -285t-59 -285t-172 -99zM283 44q163 0 163 326q0 133 -30 215l-242 -482q41 -59 109 -59zM119 370q0 -138 30 -216l241 483q-40 58 -107 58q-164 0 -164 -325z" />
    <glyph glyph-name="zero.sc_salt_slash" horiz-adv-x="486" 
d="M243 -11q-94 0 -143 78.5t-49 227.5t49 228t143 79t143 -79t49 -228t-49 -227.5t-143 -78.5zM243 44q128 0 128 251q0 99 -20 159l-195 -361q32 -49 87 -49zM116 295q0 -95 19 -157l195 361q-33 49 -87 49q-127 0 -127 -253z" />
    <glyph glyph-name="prime.tab" horiz-adv-x="282" 
d="M100 490l20 197l9 53h67l-58 -250h-38z" />
    <glyph glyph-name="primedbl.tab" horiz-adv-x="564" 
d="M320 490l20 197l9 53h65l-57 -250h-37zM166 490l19 197l9 53h66l-57 -250h-37z" />
    <glyph glyph-name="zero.salt_slash" horiz-adv-x="556" 
d="M278 -14q-113 0 -172 99t-59 285t59 285t172 99t172 -99t59 -285t-59 -285t-172 -99zM278 44q164 0 164 326q0 133 -30 215l-243 -481q40 -60 109 -60zM115 370q0 -136 29 -215l241 482q-40 58 -107 58q-163 0 -163 -325z" />
    </font>
</defs>
</svg>
