<?xml version="1.0" standalone="no"?>
<!DOCTYPE svg PUBLIC "-//W3C//DTD SVG 1.1//EN" "http://www.w3.org/Graphics/SVG/1.1/DTD/svg11.dtd" >
<svg xmlns="http://www.w3.org/2000/svg" xmlns:xlink="http://www.w3.org/1999/xlink" version="1.1">
<metadata>
Created by FontForge 20170731 at Wed Feb 22 20:06:03 2012
 By Aleksey,,,
Copyright (c) The Font Bureau, Inc., 2008. All rights reserved.
</metadata>
<defs>
<font id="BentonSans-Light" horiz-adv-x="650" >
  <font-face 
    font-family="BentonSans Light"
    font-weight="300"
    font-stretch="normal"
    units-per-em="1000"
    panose-1="2 0 5 3 0 0 0 2 0 4"
    ascent="787"
    descent="-213"
    x-height="525"
    cap-height="740"
    bbox="-97 -224 1272 1068"
    underline-thickness="50"
    underline-position="-200"
    unicode-range="U+0020-FB04"
  />
<missing-glyph horiz-adv-x="500" 
d="M0 0v700h500v-700h-500zM50 650v-600h400v600h-400z" />
    <glyph glyph-name="f_f" unicode="ff" horiz-adv-x="600" 
d="M120 0v482h-92v43h92v89q0 126 144 126h26v-44q-8 1 -32 1q-90 0 -90 -79v-93h239v89q0 126 144 126h26v-44q-8 1 -32 1q-90 0 -90 -79v-93h116v-43h-116v-482h-48v482h-239v-482h-48z" />
    <glyph glyph-name="f_i" unicode="fi" horiz-adv-x="554" 
d="M120 0v482h-92v43h92v89q0 126 144 126h26v-44q-8 1 -32 1q-90 0 -90 -79v-93h116v-43h-116v-482h-48zM407 0v525h48v-525h-48zM405 659v61h52v-61h-52z" />
    <glyph glyph-name="f_l" unicode="fl" horiz-adv-x="554" 
d="M120 0v482h-92v43h92v89q0 126 144 126h26v-44q-8 1 -32 1q-90 0 -90 -79v-93h116v-43h-116v-482h-48zM407 0v740h48v-740h-48z" />
    <glyph glyph-name="f_f_i" unicode="ffi" horiz-adv-x="832" 
d="M120 0v482h-92v43h92v89q0 126 144 126h26v-44q-8 1 -32 1q-90 0 -90 -79v-93h239v89q0 126 144 126h26v-44q-8 1 -32 1q-90 0 -90 -79v-93h116v-43h-116v-482h-48v482h-239v-482h-48zM694 0v525h48v-525h-48zM692 659v61h52v-61h-52z" />
    <glyph glyph-name="f_f_l" unicode="ffl" horiz-adv-x="832" 
d="M120 0v482h-92v43h92v89q0 126 144 126h26v-44q-8 1 -32 1q-90 0 -90 -79v-93h239v89q0 126 144 126h26v-44q-8 1 -32 1q-90 0 -90 -79v-93h116v-43h-116v-482h-48v482h-239v-482h-48zM694 0v739h48v-739h-48z" />
    <glyph glyph-name="f_j" unicode="fj" horiz-adv-x="554" 
d="M120 0v482h-92v43h92v89q0 126 144 126h26v-44q-8 1 -32 1q-90 0 -90 -79v-93h116v-43h-116v-482h-48zM359 -200q-16 0 -28 2v43q12 -3 28 -3q48 0 48 55v628h48v-622q0 -103 -96 -103zM405 659v61h52v-61h-52z" />
    <glyph glyph-name=".notdef" horiz-adv-x="500" 
d="M0 0v700h500v-700h-500zM50 650v-600h400v600h-400z" />
    <glyph glyph-name=".null" horiz-adv-x="0" 
 />
    <glyph glyph-name="nonmarkingreturn" horiz-adv-x="333" 
 />
    <glyph glyph-name="space" unicode=" " horiz-adv-x="216" 
 />
    <glyph glyph-name="exclam" unicode="!" horiz-adv-x="303" 
d="M140 194l-18 546h59l-18 -546h-23zM118 0v80h67v-80h-67z" />
    <glyph glyph-name="quotedbl" unicode="&#x22;" horiz-adv-x="392" 
d="M269 493l-17 196v51h54v-51l-17 -196h-20zM103 493l-17 196v51h54v-51l-17 -196h-20z" />
    <glyph glyph-name="numbersign" unicode="#" horiz-adv-x="695" 
d="M119 0l47 224h-118v43h127l43 206h-127v43h136l47 224h46l-47 -224h210l47 224h46l-47 -224h118v-43h-127l-43 -206h127v-43h-136l-47 -224h-46l47 224h-210l-47 -224h-46zM221 267h210l43 206h-210z" />
    <glyph glyph-name="dollar" unicode="$" horiz-adv-x="639" 
d="M296 -93v90q-90 5 -148 46t-85 90l40 25q35 -55 80.5 -84t113.5 -33v328q-50 16 -82.5 30t-65 36.5t-48.5 55t-16 75.5q0 73 56.5 124t154.5 55v74h44v-75q135 -11 200 -123l-40 -27q-32 51 -67 76t-94 29v-294q44 -14 69 -22.5t61.5 -27.5t55.5 -39t33.5 -53t14.5 -74
q0 -84 -63.5 -136t-169.5 -57v-89h-44zM339 42q82 4 133 38t51 106q0 38 -14 66.5t-43.5 48t-56 30.5t-70.5 25v-314zM297 418v282q-80 -4 -121 -40.5t-41 -90.5q0 -60 41.5 -92.5t120.5 -58.5z" />
    <glyph glyph-name="percent" unicode="%" horiz-adv-x="938" 
d="M224 315q-75 0 -116.5 59t-41.5 156q0 101 43.5 160.5t116.5 59.5t115 -58.5t42 -157.5q0 -97 -42.5 -158t-116.5 -61zM713 -10q-75 0 -116.5 59t-41.5 156q0 101 43.5 160.5t116.5 59.5t115 -58.5t42 -157.5q0 -97 -42.5 -158t-116.5 -61zM225 358q51 0 80.5 50
t29.5 124q0 79 -29.5 127t-81.5 48q-51 0 -80.5 -49.5t-29.5 -123.5q0 -79 29.5 -127.5t81.5 -48.5zM714 33q51 0 80.5 50t29.5 124q0 79 -29.5 127t-81.5 48q-51 0 -80.5 -49.5t-29.5 -123.5q0 -79 29.5 -127.5t81.5 -48.5zM224 0l442 740h48l-442 -740h-48z" />
    <glyph glyph-name="ampersand" unicode="&#x26;" horiz-adv-x="716" 
d="M286 -14q-120 0 -180.5 52t-60.5 145q0 132 175 228q-52 89 -52 172q0 71 43.5 121t120.5 50q69 0 108 -38.5t39 -99.5q0 -69 -50 -120t-142 -98q21 -32 74 -101q78 -101 139 -161q68 87 85 231h51q-22 -159 -103 -260q81 -69 153 -69v-48q-52 3 -94.5 21.5t-91.5 61.5
q-92 -87 -214 -87zM265 433q78 40 121 81.5t43 99.5q0 41 -24 68t-74 27q-55 0 -84 -35t-29 -89q0 -75 47 -152zM287 31q108 0 182 71q-60 59 -150 171q-56 71 -77 102q-147 -82 -147 -191q0 -72 48.5 -112.5t143.5 -40.5z" />
    <glyph glyph-name="quotesingle" unicode="'" horiz-adv-x="226" 
d="M103 493l-17 196v51h54v-51l-17 -196h-20z" />
    <glyph glyph-name="parenleft" unicode="(" horiz-adv-x="396" 
d="M315 -205q-248 208 -248 475t248 475l21 -25q-101 -89 -157.5 -204t-56.5 -246t56.5 -246t157.5 -204z" />
    <glyph glyph-name="parenright" unicode=")" horiz-adv-x="396" 
d="M81 -205l-21 25q101 89 157.5 204t56.5 246t-56.5 246t-157.5 204l21 25q248 -208 248 -475t-248 -475z" />
    <glyph glyph-name="asterisk" unicode="*" horiz-adv-x="508" 
d="M173 364l-42 25l107 154l-188 -13v46l188 -13l-107 154l42 25l81 -170l81 170l42 -25l-107 -154l188 13v-46l-188 13l107 -154l-42 -25l-81 170z" />
    <glyph glyph-name="plus" unicode="+" horiz-adv-x="634" 
d="M294 72v230h-229v44h229v230h46v-230h229v-44h-229v-230h-46z" />
    <glyph glyph-name="comma" unicode="," horiz-adv-x="265" 
d="M105 -97l20 97h-26v80h67v-74l-39 -103h-22z" />
    <glyph glyph-name="hyphen" unicode="-" horiz-adv-x="357" 
d="M70 290v48h217v-48h-217z" />
    <glyph glyph-name="period" unicode="." horiz-adv-x="265" 
d="M99 0v80h67v-80h-67z" />
    <glyph glyph-name="slash" unicode="/" horiz-adv-x="528" 
d="M23 0l430 740h52l-430 -740h-52z" />
    <glyph glyph-name="zero" unicode="0" horiz-adv-x="643" 
d="M322 -14q-125 0 -194 104t-69 280t69 280t194 104t193.5 -104t68.5 -280t-68.5 -280t-193.5 -104zM322 30q100 0 156.5 89t56.5 251q0 161 -57.5 250.5t-155.5 89.5q-101 0 -157.5 -89t-56.5 -251q0 -161 58 -250.5t156 -89.5z" />
    <glyph glyph-name="one" unicode="1" horiz-adv-x="426" 
d="M66 0v46h141v637q-64 -34 -139 -34v43q95 3 143 48h45v-694h128v-46h-318z" />
    <glyph glyph-name="two" unicode="2" horiz-adv-x="581" 
d="M53 0v16q0 84 56.5 161t197.5 167q84 53 119.5 100t35.5 107q0 72 -42.5 115.5t-121.5 43.5q-125 0 -188 -135l-41 20q73 159 231 159q96 0 153.5 -56t57.5 -144q0 -77 -44 -133t-153 -125q-102 -65 -154.5 -129.5t-54.5 -120.5h409v-46h-461z" />
    <glyph glyph-name="three" unicode="3" horiz-adv-x="583" 
d="M281 -14q-79 0 -143.5 37t-103.5 104l41 25q77 -122 207 -122q86 0 136.5 46t50.5 119q0 90 -57 133.5t-193 43.5h-26v44h32q120 0 174.5 37t54.5 114q0 64 -41.5 103.5t-126.5 39.5q-105 0 -178 -97l-40 26q90 115 219 115q108 0 162 -54t54 -130q0 -72 -40.5 -118.5
t-110.5 -57.5q166 -34 166 -197q0 -90 -64.5 -150.5t-172.5 -60.5z" />
    <glyph glyph-name="four" unicode="4" horiz-adv-x="590" 
d="M391 0v190h-355v35l337 515h66v-505h125v-45h-125v-190h-48zM95 235h296v448h-2z" />
    <glyph glyph-name="five" unicode="5" horiz-adv-x="576" 
d="M281 -14q-77 0 -138.5 38.5t-97.5 102.5l41 25q73 -122 196 -122q94 0 144.5 62.5t50.5 148.5q0 93 -50 146t-128 53q-109 0 -177 -101l-41 17l28 384h378l-5 -48h-328l-22 -282q63 74 168 74q98 0 162 -65.5t64 -174.5q0 -112 -67 -185t-178 -73z" />
    <glyph glyph-name="six" unicode="6" horiz-adv-x="601" 
d="M312 -14q-110 0 -181.5 94t-71.5 277q0 108 33.5 198t98 144.5t146.5 54.5q104 0 171 -55l-28 -39q-32 26 -63.5 38t-80.5 12q-105 0 -168 -102.5t-61 -254.5q91 107 217 107q115 0 172 -64.5t57 -165.5q0 -105 -65.5 -174.5t-175.5 -69.5zM315 30q85 0 136.5 52.5
t51.5 147.5q0 85 -45.5 135.5t-136.5 50.5q-62 0 -117 -33.5t-94 -90.5q12 -130 68.5 -196t136.5 -66z" />
    <glyph glyph-name="seven" unicode="7" horiz-adv-x="551" 
d="M128 0l318 692h-387v48h440v-45l-319 -695h-52z" />
    <glyph glyph-name="eight" unicode="8" horiz-adv-x="600" 
d="M300 -14q-117 0 -186.5 55t-69.5 135q0 75 49.5 124t153.5 94q-85 37 -127 79t-42 105q0 71 61.5 123.5t160.5 52.5q101 0 161.5 -52.5t60.5 -123.5q0 -64 -40.5 -102.5t-131.5 -79.5q108 -47 157 -95t49 -125q0 -78 -69.5 -134t-186.5 -56zM301 417q97 41 134.5 74
t37.5 87q0 53 -45 92.5t-128 39.5q-80 0 -126.5 -39t-46.5 -90q0 -53 38.5 -87t135.5 -77zM300 30q90 0 148.5 41t58.5 108q0 63 -50 105.5t-159 88.5q-113 -50 -159 -91.5t-46 -102.5q0 -65 58.5 -107t148.5 -42z" />
    <glyph glyph-name="nine" unicode="9" horiz-adv-x="601" 
d="M264 -14q-113 0 -188 68l27 38q39 -33 73 -47.5t89 -14.5q105 0 168 102.5t61 254.5q-91 -107 -217 -107q-115 0 -172 64.5t-57 165.5q0 105 65.5 174.5t175.5 69.5t181.5 -94t71.5 -277q0 -108 -33.5 -198t-98 -144.5t-146.5 -54.5zM280 324q62 0 117 33.5t94 90.5
q-12 130 -68.5 196t-136.5 66q-85 0 -136.5 -52.5t-51.5 -147.5q0 -85 45.5 -135.5t136.5 -50.5z" />
    <glyph glyph-name="colon" unicode=":" horiz-adv-x="265" 
d="M99 445v80h67v-80h-67zM99 0v80h67v-80h-67z" />
    <glyph glyph-name="semicolon" unicode=";" horiz-adv-x="265" 
d="M105 -97l20 97h-26v80h67v-74l-39 -103h-22zM99 445v80h67v-80h-67z" />
    <glyph glyph-name="less" unicode="&#x3c;" horiz-adv-x="634" 
d="M578 78l-529 225v42l529 225v-49l-470 -197l470 -197v-49z" />
    <glyph glyph-name="equal" unicode="=" horiz-adv-x="634" 
d="M64 415v46h505v-46h-505zM64 187v46h505v-46h-505z" />
    <glyph glyph-name="greater" unicode="&#x3e;" horiz-adv-x="634" 
d="M56 78v49l470 197l-470 197v49l529 -225v-42z" />
    <glyph glyph-name="question" unicode="?" horiz-adv-x="526" 
d="M214 194q-2 36 -2 65q0 53 18.5 86.5t67.5 63.5q71 44 97.5 75.5t26.5 88.5q0 63 -43 99.5t-118 36.5q-63 0 -104 -26.5t-78 -80.5l-38 26q45 61 95.5 93.5t125.5 32.5q92 0 151 -50t59 -129q0 -68 -32.5 -108.5t-97.5 -79.5q-59 -36 -74 -70.5t-15 -122.5h-39zM200 0v80
h67v-80h-67z" />
    <glyph glyph-name="at" unicode="@" horiz-adv-x="868" 
d="M434 -14q-168 0 -276 106t-108 278q0 171 109 277.5t275 106.5q165 0 274.5 -105t109.5 -269q0 -103 -46 -163t-115 -60q-44 0 -73.5 22t-40.5 54q-86 -76 -169 -76q-69 0 -111.5 41t-42.5 121q0 114 60 193t154 79q75 0 133 -56l7 47h43l-42 -294q-6 -41 17 -68t67 -27
q54 0 88.5 47.5t34.5 139.5q0 150 -99 245t-249 95t-248.5 -98t-98.5 -252t98.5 -252t248.5 -98q104 0 207 53l15 -30q-107 -57 -222 -57zM372 196q83 0 157 70l32 222q-53 63 -137 63q-69 0 -114 -67t-45 -162q0 -126 107 -126z" />
    <glyph glyph-name="A" unicode="A" horiz-adv-x="663" 
d="M40 0l262 743h59l262 -743h-53l-86 248h-307l-86 -248h-51zM193 293h275l-137 394h-2z" />
    <glyph glyph-name="B" unicode="B" horiz-adv-x="679" 
d="M99 0v740h248q126 0 187 -50t61 -137q0 -70 -40.5 -113.5t-102.5 -57.5v-2q74 -14 121.5 -60t47.5 -120q0 -89 -61.5 -144.5t-188.5 -55.5h-272zM149 46h225q197 0 197 154q0 79 -59 118.5t-163 39.5h-200v-312zM149 403h194q97 0 149.5 37t52.5 110q0 74 -48 109
t-151 35h-197v-291z" />
    <glyph glyph-name="C" unicode="C" horiz-adv-x="692" 
d="M364 -14q-137 0 -219 107.5t-82 280.5q0 164 83 272t218 108q204 0 261 -224l-48 -11q-27 97 -77 143.5t-137 46.5q-112 0 -181 -92t-69 -241q0 -161 68.5 -253t183.5 -92q173 0 225 199l47 -11q-27 -110 -98 -171.5t-175 -61.5z" />
    <glyph glyph-name="D" unicode="D" horiz-adv-x="702" 
d="M99 0v740h178q181 0 271.5 -94.5t90.5 -275.5q0 -179 -91.5 -274.5t-270.5 -95.5h-178zM149 46h139q145 0 223 80t78 244q0 163 -78.5 243.5t-224.5 80.5h-137v-648z" />
    <glyph glyph-name="E" unicode="E" horiz-adv-x="597" 
d="M99 0v740h428v-46h-378v-278h284v-46h-284v-324h400v-46h-450z" />
    <glyph glyph-name="F" unicode="F" horiz-adv-x="560" 
d="M99 0v740h421v-46h-371v-278h277v-46h-277v-370h-50z" />
    <glyph glyph-name="G" unicode="G" horiz-adv-x="714" 
d="M363 -14q-138 0 -219 109t-81 278q0 171 85.5 276t217.5 105q103 0 168.5 -58.5t92.5 -165.5l-48 -11q-28 97 -78 143.5t-136 46.5q-110 0 -181 -90t-71 -243q0 -156 68 -250.5t184 -94.5q102 0 161.5 71t56.5 193h-191v46h240v-341h-49v116h-2q-67 -130 -218 -130z" />
    <glyph glyph-name="H" unicode="H" horiz-adv-x="724" 
d="M99 0v740h50v-325h426v325h50v-740h-50v369h-426v-369h-50z" />
    <glyph glyph-name="I" unicode="I" horiz-adv-x="270" 
d="M110 0v740h50v-740h-50z" />
    <glyph glyph-name="J" unicode="J" horiz-adv-x="490" 
d="M207 -14q-117 0 -177 109l40 23q27 -44 58 -65.5t78 -21.5q140 0 140 159v550h50v-545q0 -103 -50.5 -156t-138.5 -53z" />
    <glyph glyph-name="K" unicode="K" horiz-adv-x="657" 
d="M99 0v740h50v-420l379 420h63l-255 -278l295 -462h-59l-271 423l-152 -166v-257h-50z" />
    <glyph glyph-name="L" unicode="L" horiz-adv-x="560" 
d="M99 0v740h50v-694h370v-46h-420z" />
    <glyph glyph-name="M" unicode="M" horiz-adv-x="863" 
d="M99 0v740h64l267 -672h2l268 672h64v-740h-51v647h-2l-47 -122l-211 -525h-46l-211 525q-41 105 -47 122h-2v-647h-48z" />
    <glyph glyph-name="N" unicode="N" horiz-adv-x="735" 
d="M99 0v740h57l430 -642h2v642h48v-740h-43l-444 664h-2v-664h-48z" />
    <glyph glyph-name="O" unicode="O" horiz-adv-x="740" 
d="M367 -14q-134 0 -219 107t-85 277t85 277t219 107t218.5 -107.5t84.5 -276.5t-84.5 -276.5t-218.5 -107.5zM367 31q111 0 182 91.5t71 247.5t-71 247.5t-182 91.5q-112 0 -183 -91.5t-71 -247.5t71 -247.5t183 -91.5z" />
    <glyph glyph-name="P" unicode="P" horiz-adv-x="635" 
d="M99 0v740h241q120 0 184.5 -50t64.5 -142q0 -101 -67.5 -151.5t-189.5 -50.5h-183v-346h-50zM149 392h187q101 0 152 35.5t51 118.5q0 78 -51.5 113t-152.5 35h-186v-302z" />
    <glyph glyph-name="Q" unicode="Q" horiz-adv-x="733" 
d="M555 -183q-106 0 -160.5 46.5t-54.5 123.5q-124 11 -200.5 117t-76.5 266q0 170 85 277t219 107t218.5 -107.5t84.5 -276.5q0 -162 -77.5 -267.5t-202.5 -115.5q7 -124 166 -124h51v-46h-52zM367 31q111 0 182 91.5t71 247.5t-71 247.5t-182 91.5q-112 0 -183 -91.5
t-71 -247.5t71 -247.5t183 -91.5z" />
    <glyph glyph-name="R" unicode="R" horiz-adv-x="663" 
d="M99 0v740h241q120 0 184.5 -50t64.5 -142q0 -165 -181 -195l191 -353h-58l-188 347h-204v-347h-50zM149 392h187q101 0 152 35.5t51 118.5q0 78 -51.5 113t-152.5 35h-186v-302z" />
    <glyph glyph-name="S" unicode="S" horiz-adv-x="639" 
d="M325 -14q-101 0 -170 53t-92 146l49 12q21 -82 77 -124t138 -42q90 0 143 40.5t53 107.5q0 64 -40.5 102t-164.5 78q-130 42 -181.5 86t-51.5 126q0 76 63 129.5t159 53.5q98 0 159.5 -46.5t85.5 -127.5l-48 -14q-26 76 -74.5 109.5t-123.5 33.5q-77 0 -124 -39t-47 -96
q0 -65 43 -98t174 -76q122 -40 171.5 -87.5t49.5 -130.5q0 -90 -71 -143t-177 -53z" />
    <glyph glyph-name="T" unicode="T" horiz-adv-x="610" 
d="M280 0v694h-243v46h536v-46h-243v-694h-50z" />
    <glyph glyph-name="U" unicode="U" horiz-adv-x="713" 
d="M356 -14q-125 0 -193.5 73.5t-68.5 182.5v498h50v-486q0 -99 53.5 -161t159.5 -62q105 0 158.5 61t53.5 160v488h50v-495q0 -110 -69 -184.5t-194 -74.5z" />
    <glyph glyph-name="V" unicode="V" 
d="M302 -3l-262 743h52l233 -673h2l233 673h50l-262 -743h-46z" />
    <glyph glyph-name="W" unicode="W" horiz-adv-x="918" 
d="M241 0l-197 740h51l124 -475q22 -84 47 -191h2q18 87 45 190l118 476h58l119 -480q38 -154 44 -186h2q10 46 45 182l126 484h49l-197 -740h-51l-166 671h-2l-167 -671h-50z" />
    <glyph glyph-name="X" unicode="X" horiz-adv-x="642" 
d="M32 0l263 398l-227 342h58l196 -302l197 302h55l-226 -341l262 -399h-53l-236 360l-238 -360h-51z" />
    <glyph glyph-name="Y" unicode="Y" horiz-adv-x="601" 
d="M275 0v329l-246 411h56l217 -368l216 368h54l-247 -411v-329h-50z" />
    <glyph glyph-name="Z" unicode="Z" horiz-adv-x="615" 
d="M45 0v37l457 660h-427v43h486v-37l-457 -660h457v-43h-516z" />
    <glyph glyph-name="bracketleft" unicode="[" horiz-adv-x="376" 
d="M92 -200v940h233v-40h-184v-860h184v-40h-233z" />
    <glyph glyph-name="backslash" unicode="\" horiz-adv-x="528" 
d="M453 0l-430 740h52l430 -740h-52z" />
    <glyph glyph-name="bracketright" unicode="]" horiz-adv-x="376" 
d="M51 -200v40h184v859h-184v41h233v-940h-233z" />
    <glyph glyph-name="asciicircum" unicode="^" horiz-adv-x="634" 
d="M71 341l225 399h42l225 -399h-49l-197 349l-197 -349h-49z" />
    <glyph glyph-name="underscore" unicode="_" horiz-adv-x="500" 
d="M0 -119v44h500v-44h-500z" />
    <glyph glyph-name="grave" unicode="`" horiz-adv-x="500" 
d="M295 582l-139 151h75l95 -151h-31z" />
    <glyph glyph-name="a" unicode="a" horiz-adv-x="540" 
d="M201 -9q-71 0 -109.5 34.5t-38.5 95.5q0 80 81.5 134t279.5 87v32q0 59 -29.5 89.5t-84.5 30.5q-61 0 -108.5 -22t-95.5 -65l-28 30q53 49 107.5 74t125.5 25q80 0 120.5 -42t40.5 -117v-247q0 -93 15 -130h-51q-12 38 -12 78q-101 -87 -213 -87zM205 33q114 0 209 92
v181q-179 -31 -246 -75.5t-67 -106.5q0 -44 27.5 -67.5t76.5 -23.5z" />
    <glyph glyph-name="b" unicode="b" horiz-adv-x="586" 
d="M309 -9q-89 0 -177 86v-77h-48v740h48v-294q83 90 179 90t158 -70.5t62 -202.5t-62.5 -202t-159.5 -70zM312 33q74 0 122.5 57.5t48.5 171.5q0 113 -49.5 172.5t-123.5 59.5q-50 0 -90 -22.5t-88 -71.5v-273q92 -94 180 -94z" />
    <glyph glyph-name="c" unicode="c" horiz-adv-x="526" 
d="M274 -11q-93 0 -156.5 75.5t-63.5 197.5q0 131 66 202.5t161 71.5q133 0 195 -140l-41 -22q-26 60 -62 90t-94 30q-32 0 -62 -12.5t-56.5 -38.5t-42.5 -72.5t-16 -107.5q0 -107 50 -169.5t125 -62.5q58 0 94 29t68 92l38 -19q-35 -72 -83 -108t-120 -36z" />
    <glyph glyph-name="d" unicode="d" horiz-adv-x="586" 
d="M275 -9q-96 0 -158 69.5t-62 201.5t62.5 203t159.5 71q98 0 177 -88v292h48v-610q0 -94 16 -130h-52q-12 38 -12 79q-84 -88 -179 -88zM276 33q50 0 90 22.5t88 71.5v273q-92 94 -180 94q-74 0 -122.5 -58.5t-48.5 -172.5q0 -113 49.5 -171.5t123.5 -58.5z" />
    <glyph glyph-name="e" unicode="e" horiz-adv-x="539" 
d="M275 -11q-92 0 -156.5 74.5t-64.5 199.5q0 129 66 201t157 72q94 0 151 -73t57 -196v-7h-383q0 -104 50.5 -166.5t125.5 -62.5q59 0 98 27t71 82l35 -22q-70 -129 -207 -129zM103 300h332q-6 86 -46.5 140t-112.5 54q-65 0 -114.5 -50.5t-58.5 -143.5z" />
    <glyph glyph-name="f" unicode="f" horiz-adv-x="313" 
d="M120 0v482h-92v43h92v89q0 126 144 126h26v-44q-8 1 -32 1q-90 0 -90 -79v-93h116v-43h-116v-482h-48z" />
    <glyph glyph-name="g" unicode="g" horiz-adv-x="555" 
d="M273 -200q-122 0 -184.5 34.5t-62.5 97.5q0 84 101 123q-50 19 -50 68q0 42 61 72q-78 52 -78 151q0 83 58 136.5t143 53.5q88 0 145 -54q54 38 119 47v-52q-57 0 -98 -19q36 -47 36 -112q0 -85 -58.5 -136t-142.5 -51q-48 0 -90 17q-47 -18 -47 -49q0 -35 84 -43
l123 -11q174 -16 174 -130q0 -67 -64.5 -105t-168.5 -38zM262 200q70 0 112 40.5t42 105.5q0 68 -41 108.5t-114 40.5q-70 0 -112 -41t-42 -108q0 -65 42.5 -105.5t112.5 -40.5zM275 -160q85 0 134.5 27.5t49.5 71.5q0 41 -35.5 63.5t-112.5 29.5l-109 9l-26 3
q-50 -15 -76.5 -44t-26.5 -64q0 -96 202 -96z" />
    <glyph glyph-name="h" unicode="h" horiz-adv-x="573" 
d="M84 0v740h48v-302q103 98 203 98q80 0 119.5 -41t39.5 -114v-381h-48v375q0 61 -28 90t-87 29q-94 0 -199 -100v-394h-48z" />
    <glyph glyph-name="i" unicode="i" horiz-adv-x="228" 
d="M90 0v525h48v-525h-48zM88 659v61h52v-61h-52z" />
    <glyph glyph-name="j" unicode="j" horiz-adv-x="228" 
d="M42 -200q-16 0 -28 2v43q12 -3 28 -3q48 0 48 55v628h48v-622q0 -103 -96 -103zM88 659v61h52v-61h-52z" />
    <glyph glyph-name="k" unicode="k" horiz-adv-x="517" 
d="M84 0v740h48v-511l271 296h60l-172 -183l195 -342h-54l-175 305l-125 -134v-171h-48z" />
    <glyph glyph-name="l" unicode="l" horiz-adv-x="228" 
d="M90 0v740h48v-740h-48z" />
    <glyph glyph-name="m" unicode="m" horiz-adv-x="909" 
d="M84 0v525h48v-87q103 98 197 98q120 0 146 -99q108 99 203 99q152 0 152 -155v-381h-48v375q0 61 -25 90t-84 29q-87 0 -192 -100v-394h-48v375q0 62 -25 90.5t-84 28.5q-87 0 -192 -100v-394h-48z" />
    <glyph glyph-name="n" unicode="n" horiz-adv-x="573" 
d="M84 0v525h48v-87q103 98 203 98q80 0 119.5 -41t39.5 -114v-381h-48v375q0 61 -28 90t-87 29q-94 0 -199 -100v-394h-48z" />
    <glyph glyph-name="o" unicode="o" horiz-adv-x="570" 
d="M285 -11q-99 0 -165 75t-66 198q0 124 65.5 199t165.5 75q99 0 165 -75t66 -199q0 -123 -66 -198t-165 -75zM285 31q83 0 133 65t50 167q0 97 -49 164t-134 67q-83 0 -133 -65.5t-50 -165.5q0 -98 48.5 -165t134.5 -67z" />
    <glyph glyph-name="p" unicode="p" horiz-adv-x="586" 
d="M84 -200v725h48v-77q84 88 179 88q96 0 158 -70.5t62 -202.5t-62.5 -202t-159.5 -70q-89 0 -177 86v-277h-48zM312 33q74 0 122.5 57.5t48.5 171.5q0 113 -49.5 172.5t-123.5 59.5q-50 0 -90 -22.5t-88 -71.5v-273q92 -94 180 -94z" />
    <glyph glyph-name="q" unicode="q" horiz-adv-x="586" 
d="M454 -200v279q-84 -88 -179 -88q-96 0 -158 69.5t-62 201.5t62.5 203t159.5 71q89 0 177 -86v75h48v-725h-48zM276 33q50 0 90 22.5t88 71.5v273q-92 94 -180 94q-74 0 -122.5 -58.5t-48.5 -172.5q0 -113 49.5 -171.5t123.5 -58.5z" />
    <glyph glyph-name="r" unicode="r" horiz-adv-x="388" 
d="M84 0v525h48v-110h2q77 121 216 121h14l-8 -45h-17q-67 0 -121 -37.5t-86 -107.5v-346h-48z" />
    <glyph glyph-name="s" unicode="s" horiz-adv-x="500" 
d="M245 -9q-130 0 -197 97l35 27q64 -82 163 -82q73 0 111.5 27.5t38.5 76.5q0 48 -33.5 73t-122.5 46q-100 25 -138.5 57t-38.5 92q0 54 46 92.5t127 38.5q112 0 186 -77l-32 -33q-63 68 -155 68q-61 0 -92.5 -25.5t-31.5 -61.5q0 -41 28 -63t105 -41q114 -28 157 -62.5
t43 -103.5q0 -67 -55 -106.5t-144 -39.5z" />
    <glyph glyph-name="t" unicode="t" horiz-adv-x="350" 
d="M247 -7q-66 0 -97.5 29t-31.5 95v365h-92v43h92v191h48v-191h137v-43h-137v-358q0 -45 19 -66.5t66 -21.5q34 0 55 7v-45q-28 -5 -59 -5z" />
    <glyph glyph-name="u" unicode="u" horiz-adv-x="573" 
d="M238 -11q-80 0 -119.5 41t-39.5 114v381h48v-375q0 -61 28 -90t87 -29q94 0 199 100v394h48v-525h-48v87q-103 -98 -203 -98z" />
    <glyph glyph-name="v" unicode="v" horiz-adv-x="502" 
d="M227 -3l-195 528h53l166 -465h2l165 465h52l-195 -528h-48z" />
    <glyph glyph-name="w" unicode="w" horiz-adv-x="741" 
d="M196 0l-163 525h51l81 -276l52 -183h2q27 103 50 182l78 277h49l79 -283q22 -77 48 -176h2q36 128 50 174l84 285h49l-163 -525h-45l-128 458h-2l-130 -458h-44z" />
    <glyph glyph-name="x" unicode="x" horiz-adv-x="503" 
d="M35 0l191 272l-177 253h55l148 -216l149 216h54l-178 -252l191 -273h-55l-162 235l-162 -235h-54z" />
    <glyph glyph-name="y" unicode="y" horiz-adv-x="519" 
d="M87 -200q-42 0 -72 9l12 40q26 -7 66 -7q46 0 73 21t45 69l25 65l-204 528h53l174 -467h2l174 467h52l-227 -587q-29 -75 -65 -106.5t-108 -31.5z" />
    <glyph glyph-name="z" unicode="z" horiz-adv-x="500" 
d="M44 0v33l335 450h-308v42h370v-33l-336 -450h348v-42h-409z" />
    <glyph glyph-name="braceleft" unicode="{" horiz-adv-x="366" 
d="M275 -200q-67 0 -97 33t-30 100v198q0 70 -25.5 95t-85.5 25v38q60 0 85.5 25t25.5 95v198q0 67 30 100t97 33h44v-40h-44q-78 0 -78 -76v-214q0 -68 -20 -96t-65 -43v-2q45 -15 65 -43t20 -96v-214q0 -76 78 -76h44v-40h-44z" />
    <glyph glyph-name="bar" unicode="|" horiz-adv-x="332" 
d="M143 -200v940h46v-940h-46z" />
    <glyph glyph-name="braceright" unicode="}" horiz-adv-x="366" 
d="M47 -200v40h44q78 0 78 76v214q0 68 20 96t65 43v2q-45 15 -65 43t-20 96v214q0 80 -74 80h-44l-4 36h44q67 0 97 -33t30 -100v-198q0 -70 25.5 -95t85.5 -25v-38q-60 0 -85.5 -25t-25.5 -95v-198q0 -67 -30 -100t-97 -33h-44z" />
    <glyph glyph-name="asciitilde" unicode="~" horiz-adv-x="634" 
d="M456 271q-31 2 -148.5 37t-137.5 37q-54 5 -59 -47l-36 3q4 49 31 71.5t71 19.5q30 -3 148 -38t138 -37q55 -3 59 48l37 -3q-4 -49 -32 -72t-71 -19z" />
    <glyph glyph-name="uni00A0" unicode="&#xa0;" horiz-adv-x="216" 
 />
    <glyph glyph-name="exclamdown" unicode="&#xa1;" horiz-adv-x="303" 
d="M122 0l18 546h23l18 -546h-59zM118 660v80h67v-80h-67z" />
    <glyph glyph-name="cent" unicode="&#xa2;" horiz-adv-x="526" 
d="M173 17q-55 32 -87 96t-32 149q0 131 66 202.5t161 71.5q11 0 31 -2l28 104h40l-31 -113q82 -27 127 -129l-41 -22q-37 88 -99 111l-119 -442q29 -12 60 -12q58 0 94 29t68 92l38 -19q-35 -72 -83 -108t-120 -36q-33 0 -66 11l-35 -129h-40zM303 493q-8 1 -24 1
q-32 0 -62 -12.5t-56.5 -38.5t-42.5 -72.5t-16 -107.5q0 -141 84 -203z" />
    <glyph glyph-name="sterling" unicode="&#xa3;" horiz-adv-x="591" 
d="M209 372h-123v44h100q-50 94 -50 155q0 82 48.5 132.5t134.5 50.5q89 0 135 -53t50 -130l-49 -3q-9 142 -139 142q-62 0 -96.5 -36.5t-34.5 -101.5q0 -8 1 -16.5t2 -15.5t3.5 -16t4.5 -15t6 -16t6 -14.5t7.5 -16t7.5 -15t8 -16t8 -15.5h171v-44h-148q37 -81 37 -151
q0 -62 -14 -112q29 -27 44 -39.5t41.5 -26t50.5 -13.5q46 0 68.5 35t27.5 111h46q-10 -190 -143 -190q-28 0 -57 13.5t-47.5 28.5t-46.5 41q-44 -83 -132 -83q-40 0 -71 25.5t-31 69.5q0 47 29 77.5t79 30.5q47 0 103 -45q6 31 6 74q0 70 -43 154zM234 100q-53 48 -93 48
q-28 0 -45 -18t-17 -47q0 -26 17 -41t42 -15q70 0 96 73z" />
    <glyph glyph-name="yen" unicode="&#xa5;" horiz-adv-x="601" 
d="M275 0v137h-194v46h194v105h-194v45h192l-244 407h56l217 -368l216 368h54l-245 -407h194v-45h-196v-105h196v-46h-196v-137h-50z" />
    <glyph glyph-name="brokenbar" unicode="&#xa6;" horiz-adv-x="332" 
d="M143 331v409h46v-409h-46zM143 -200v409h46v-409h-46z" />
    <glyph glyph-name="section" unicode="&#xa7;" horiz-adv-x="518" 
d="M260 -200q-156 0 -187 147l46 10q14 -56 47 -84.5t93 -28.5t89 28.5t29 69.5q0 39 -24.5 69.5t-98.5 73.5q-120 70 -159.5 110t-39.5 98q0 102 135 166q-60 41 -81.5 74t-21.5 77q0 57 47 100.5t124 43.5q160 0 191 -147l-46 -10q-14 56 -47.5 84.5t-96.5 28.5
q-60 0 -91 -28.5t-31 -69.5q0 -38 26 -68.5t101 -74.5q120 -70 159.5 -110t39.5 -98q0 -57 -39 -99t-95 -68q59 -40 78.5 -72.5t19.5 -77.5q0 -58 -45 -101t-122 -43zM288 120q126 54 126 140q0 42 -33.5 73.5t-143.5 96.5l-7 4q-126 -54 -126 -140q0 -42 33.5 -73.5
t143.5 -96.5z" />
    <glyph glyph-name="dieresis" unicode="&#xa8;" horiz-adv-x="500" 
d="M134 582v67h64v-67h-64zM302 582v67h64v-67h-64z" />
    <glyph glyph-name="copyright" unicode="&#xa9;" horiz-adv-x="862" 
d="M431 -14q-159 0 -270 112.5t-111 271.5t111 271.5t270 112.5t270 -112.5t111 -271.5t-111 -271.5t-270 -112.5zM431 20q144 0 244.5 103t100.5 247t-100.5 247t-244.5 103t-244.5 -103t-100.5 -247t100.5 -247t244.5 -103zM429 156q-79 0 -126 61.5t-47 160.5
q0 94 47.5 156t125.5 62q118 0 154 -134l-36 -9q-16 56 -43.5 82t-74.5 26q-61 0 -98 -50.5t-37 -131.5q0 -87 36.5 -137.5t99.5 -50.5q93 0 123 113q30 -8 36 -9q-17 -67 -58.5 -103t-101.5 -36z" />
    <glyph glyph-name="ordfeminine" unicode="&#xaa;" horiz-adv-x="408" 
d="M162 371q-52 0 -80 25t-28 68q0 56 57 94t196 62v19q0 79 -76 79q-77 0 -139 -60l-29 24q77 72 169 72q58 0 87 -30t29 -83v-169q0 -64 14 -93h-46q-8 24 -9 49q-72 -57 -145 -57zM165 408q74 0 142 63v116q-120 -20 -165.5 -49.5t-45.5 -71.5q0 -58 69 -58z" />
    <glyph glyph-name="guillemotleft" unicode="&#xab;" horiz-adv-x="496" 
d="M378 0l-145 263l145 262h53l-143 -262l143 -263h-53zM194 0l-144 263l144 262h53l-142 -262l142 -263h-53z" />
    <glyph glyph-name="logicalnot" unicode="&#xac;" horiz-adv-x="628" 
d="M562 350v-272h-43v231h-454v41h497z" />
    <glyph glyph-name="registered" unicode="&#xae;" horiz-adv-x="551" 
d="M276 290q-97 0 -164.5 68t-67.5 166q0 97 67.5 165t164.5 68t164 -68t67 -165q0 -98 -67 -166t-164 -68zM276 317q85 0 144.5 60.5t59.5 146.5q0 85 -60 146t-144 61t-144 -61t-60 -146q0 -86 59.5 -146.5t144.5 -60.5zM192 398v260h87q43 0 66.5 -18.5t23.5 -51.5
q0 -58 -58 -70l66 -120h-33l-64 116h-59v-116h-29zM221 541h57q62 0 62 46q0 43 -63 43h-56v-89z" />
    <glyph glyph-name="macron" unicode="&#xaf;" horiz-adv-x="500" 
d="M134 582v46h232v-46h-232z" />
    <glyph glyph-name="degree" unicode="&#xb0;" horiz-adv-x="400" 
d="M200 484q-59 0 -98 38.5t-39 96.5t39 96.5t98 38.5t98 -38.5t39 -96.5t-39 -96.5t-98 -38.5zM200 522q41 0 67.5 27t26.5 70t-26.5 70t-67.5 27t-67.5 -27t-26.5 -70t26.5 -70t67.5 -27z" />
    <glyph glyph-name="plusminus" unicode="&#xb1;" horiz-adv-x="634" 
d="M65 58v44h229v230h-229v44h229v230h46v-230h229v-44h-229v-230h229v-44h-504z" />
    <glyph glyph-name="two.sups" unicode="&#xb2;" horiz-adv-x="439" 
d="M70 282v18q0 52 34.5 99.5t121.5 103.5q48 31 68.5 57.5t20.5 60.5q0 39 -23.5 63t-66.5 24q-37 0 -62.5 -19.5t-46.5 -63.5l-39 19q49 106 149 106q61 0 97.5 -35.5t36.5 -92.5q0 -48 -27 -83t-95 -78q-112 -71 -120 -135h244v-44h-292z" />
    <glyph glyph-name="three.sups" unicode="&#xb3;" horiz-adv-x="439" 
d="M218 273q-103 0 -158 96l36 24q46 -77 123 -77q48 0 76 25t28 66q0 51 -33 75.5t-109 24.5h-23v38h27q129 0 129 85q0 35 -23 56.5t-70 21.5q-59 0 -106 -60l-35 23q59 79 142 79q69 0 103.5 -34.5t34.5 -83.5q0 -80 -79 -106q88 -27 88 -118q0 -57 -41 -96t-110 -39z
" />
    <glyph glyph-name="acute" unicode="&#xb4;" horiz-adv-x="500" 
d="M174 582l95 151h75l-139 -151h-31z" />
    <glyph glyph-name="mu" unicode="&#xb5;" horiz-adv-x="578" 
d="M84 -200v725h48v-375q0 -61 28 -90t87 -29q94 0 199 100v394h48v-525h-48v87q-103 -98 -203 -98q-78 0 -111 43v-232h-48z" />
    <glyph glyph-name="paragraph" unicode="&#xb6;" horiz-adv-x="615" 
d="M309 -200v543q-243 5 -243 197q0 89 60.5 144.5t168.5 55.5h218v-940h-48v895h-108v-895h-48z" />
    <glyph glyph-name="periodcentered" unicode="&#xb7;" horiz-adv-x="265" 
d="M99 274v80h67v-80h-67z" />
    <glyph glyph-name="cedilla" unicode="&#xb8;" horiz-adv-x="500" 
d="M248 -193q-63 0 -118 36l16 25q45 -30 96 -30q80 0 80 51q0 37 -44 37q-28 0 -55 -21l-25 12l25 83h37l-17 -56q23 15 52 15t49.5 -17.5t20.5 -49.5q0 -44 -32.5 -64.5t-84.5 -20.5z" />
    <glyph glyph-name="one.sups" unicode="&#xb9;" horiz-adv-x="341" 
d="M82 282v42h85v361q-37 -16 -83 -16v42q63 2 89 29h39v-416h77v-42h-207z" />
    <glyph glyph-name="ordmasculine" unicode="&#xba;" horiz-adv-x="421" 
d="M210 371q-71 0 -118 52t-47 139q0 88 46.5 140t118.5 52t119 -52t47 -140q0 -87 -47.5 -139t-118.5 -52zM210 408q57 0 91 43.5t34 111.5q0 65 -33 110t-92 45q-56 0 -90 -44t-34 -111q0 -65 32.5 -110t91.5 -45z" />
    <glyph glyph-name="guillemotright" unicode="&#xbb;" horiz-adv-x="496" 
d="M249 0l142 263l-142 262h53l144 -262l-144 -263h-53zM65 0l143 263l-143 262h53l145 -262l-145 -263h-53z" />
    <glyph glyph-name="onequarter" unicode="&#xbc;" horiz-adv-x="907" 
d="M102 282v42h85v361q-37 -16 -83 -16v42q63 2 89 29h39v-416h77v-42h-207zM720 0v114h-213v31l206 315h52v-303h75v-43h-75v-114h-45zM221 0l443 740h48l-443 -740h-48zM565 157h155v236z" />
    <glyph glyph-name="onehalf" unicode="&#xbd;" horiz-adv-x="947" 
d="M576 0v18q0 52 34.5 99.5t121.5 103.5q48 31 68.5 57.5t20.5 60.5q0 39 -23.5 63t-66.5 24q-37 0 -62.5 -19.5t-46.5 -63.5l-39 19q49 106 149 106q61 0 97.5 -35.5t36.5 -92.5q0 -48 -27 -83t-95 -78q-112 -71 -120 -135h244v-44h-292zM221 0l443 740h48l-443 -740h-48z
M102 282v42h85v361q-37 -16 -83 -16v42q63 2 89 29h39v-416h77v-42h-207z" />
    <glyph glyph-name="threequarters" unicode="&#xbe;" horiz-adv-x="931" 
d="M218 273q-103 0 -158 96l36 24q46 -77 123 -77q48 0 76 25t28 66q0 51 -33 75.5t-109 24.5h-23v38h27q129 0 129 85q0 35 -23 56.5t-70 21.5q-59 0 -106 -60l-35 23q59 79 142 79q69 0 103.5 -34.5t34.5 -83.5q0 -80 -79 -106q88 -27 88 -118q0 -57 -41 -96t-110 -39z
M744 0v114h-213v31l206 315h52v-303h75v-43h-75v-114h-45zM246 0l443 740h48l-443 -740h-48zM589 157h155v236z" />
    <glyph glyph-name="questiondown" unicode="&#xbf;" horiz-adv-x="526" 
d="M264 -14q-92 0 -151 50t-59 129q0 68 32.5 108.5t97.5 79.5q59 36 74 70.5t15 122.5h39q2 -36 2 -65q0 -53 -18.5 -86.5t-67.5 -63.5q-71 -44 -97.5 -75.5t-26.5 -88.5q0 -63 43 -99.5t118 -36.5q63 0 104 26.5t78 80.5l38 -26q-45 -61 -95.5 -93.5t-125.5 -32.5z
M259 660v80h67v-80h-67z" />
    <glyph glyph-name="Agrave" unicode="&#xc0;" horiz-adv-x="663" 
d="M40 0l262 743h59l262 -743h-53l-86 248h-307l-86 -248h-51zM193 293h275l-137 394h-2zM315 787l-139 151h75l95 -151h-31z" />
    <glyph glyph-name="Aacute" unicode="&#xc1;" horiz-adv-x="663" 
d="M40 0l262 743h59l262 -743h-53l-86 248h-307l-86 -248h-51zM193 293h275l-137 394h-2zM318 787l95 151h75l-139 -151h-31z" />
    <glyph glyph-name="Acircumflex" unicode="&#xc2;" horiz-adv-x="663" 
d="M40 0l262 743h59l262 -743h-53l-86 248h-307l-86 -248h-51zM193 293h275l-137 394h-2zM182 782l129 156h40l129 -156h-33l-117 104l-117 -104h-31z" />
    <glyph glyph-name="Atilde" unicode="&#xc3;" horiz-adv-x="663" 
d="M40 0l262 743h59l262 -743h-53l-86 248h-307l-86 -248h-51zM193 293h275l-137 394h-2zM405 785q-27 0 -78 28t-70 28q-22 0 -31.5 -12.5t-9.5 -41.5h-34q0 99 77 99q27 0 78 -28t70 -28q22 0 31.5 12.5t9.5 41.5h34q0 -99 -77 -99z" />
    <glyph glyph-name="Adieresis" unicode="&#xc4;" horiz-adv-x="663" 
d="M40 0l262 743h59l262 -743h-53l-86 248h-307l-86 -248h-51zM193 293h275l-137 394h-2zM215 787v67h64v-67h-64zM383 787v67h64v-67h-64z" />
    <glyph glyph-name="Aring" unicode="&#xc5;" horiz-adv-x="663" 
d="M40 0l255 723q-23 10 -37 31t-14 49q0 37 25 61.5t62 24.5t62 -24.5t25 -61.5q0 -57 -50 -79l255 -724h-53l-86 248h-307l-86 -248h-51zM193 293h275l-137 394h-2zM331 745q24 0 39.5 16.5t15.5 41.5t-15.5 41t-39.5 16t-39.5 -16t-15.5 -41t15.5 -41.5t39.5 -16.5z" />
    <glyph glyph-name="AE" unicode="&#xc6;" horiz-adv-x="978" 
d="M30 0l421 740h457v-46h-378v-278h284v-46h-284v-324h400v-46h-450v248h-258l-141 -248h-51zM248 293h232v408h-1z" />
    <glyph glyph-name="Ccedilla" unicode="&#xc7;" horiz-adv-x="692" 
d="M363 -193q-63 0 -118 36l16 25q45 -30 96 -30q80 0 80 51q0 37 -44 37q-28 0 -55 -21l-25 12l21 70q-125 13 -198 118.5t-73 268.5q0 164 83 272t218 108q204 0 261 -224l-48 -11q-27 97 -77 143.5t-137 46.5q-112 0 -181 -92t-69 -241q0 -161 68.5 -253t183.5 -92
q173 0 225 199l47 -11q-26 -108 -95.5 -169.5t-170.5 -63.5l-13 -42q23 15 52 15t49.5 -17.5t20.5 -49.5q0 -44 -32.5 -64.5t-84.5 -20.5z" />
    <glyph glyph-name="Egrave" unicode="&#xc8;" horiz-adv-x="597" 
d="M99 0v740h428v-46h-378v-278h284v-46h-284v-324h400v-46h-450zM317 787l-139 151h75l95 -151h-31z" />
    <glyph glyph-name="Eacute" unicode="&#xc9;" horiz-adv-x="597" 
d="M99 0v740h428v-46h-378v-278h284v-46h-284v-324h400v-46h-450zM281 787l95 151h75l-139 -151h-31z" />
    <glyph glyph-name="Ecircumflex" unicode="&#xca;" horiz-adv-x="597" 
d="M99 0v740h428v-46h-378v-278h284v-46h-284v-324h400v-46h-450zM163 782l129 156h40l129 -156h-33l-117 104l-117 -104h-31z" />
    <glyph glyph-name="Edieresis" unicode="&#xcb;" horiz-adv-x="597" 
d="M99 0v740h428v-46h-378v-278h284v-46h-284v-324h400v-46h-450zM370 787v67h64v-67h-64zM202 787v67h64v-67h-64z" />
    <glyph glyph-name="Igrave" unicode="&#xcc;" horiz-adv-x="270" 
d="M110 0v740h50v-740h-50zM127 787l-139 151h75l95 -151h-31z" />
    <glyph glyph-name="Iacute" unicode="&#xcd;" horiz-adv-x="270" 
d="M110 0v740h50v-740h-50zM124 787l95 151h75l-139 -151h-31z" />
    <glyph glyph-name="Icircumflex" unicode="&#xce;" horiz-adv-x="270" 
d="M110 0v740h50v-740h-50zM-14 782l129 156h40l129 -156h-33l-117 104l-117 -104h-31z" />
    <glyph glyph-name="Idieresis" unicode="&#xcf;" horiz-adv-x="270" 
d="M110 0v740h50v-740h-50zM187 787v67h64v-67h-64zM19 787v67h64v-67h-64z" />
    <glyph glyph-name="Eth" unicode="&#xd0;" horiz-adv-x="702" 
d="M99 0v370h-87v46h87v324h178q181 0 271.5 -94.5t90.5 -275.5q0 -179 -91.5 -274.5t-270.5 -95.5h-178zM149 46h139q145 0 223 80t78 244q0 163 -78.5 243.5t-224.5 80.5h-137v-278h162v-46h-162v-324z" />
    <glyph glyph-name="Ntilde" unicode="&#xd1;" horiz-adv-x="735" 
d="M99 0v740h57l430 -642h2v642h48v-740h-43l-444 664h-2v-664h-48zM451 785q-27 0 -78 28t-70 28q-22 0 -31.5 -12.5t-9.5 -41.5h-34q0 99 77 99q27 0 78 -28t70 -28q22 0 31.5 12.5t9.5 41.5h34q0 -99 -77 -99z" />
    <glyph glyph-name="Ograve" unicode="&#xd2;" horiz-adv-x="733" 
d="M367 -14q-134 0 -219 107t-85 277t85 277t219 107t218.5 -107.5t84.5 -276.5t-84.5 -276.5t-218.5 -107.5zM367 31q111 0 182 91.5t71 247.5t-71 247.5t-182 91.5q-112 0 -183 -91.5t-71 -247.5t71 -247.5t183 -91.5zM356 787l-139 151h75l95 -151h-31z" />
    <glyph glyph-name="Oacute" unicode="&#xd3;" horiz-adv-x="733" 
d="M367 -14q-134 0 -219 107t-85 277t85 277t219 107t218.5 -107.5t84.5 -276.5t-84.5 -276.5t-218.5 -107.5zM367 31q111 0 182 91.5t71 247.5t-71 247.5t-182 91.5q-112 0 -183 -91.5t-71 -247.5t71 -247.5t183 -91.5zM341 787l95 151h75l-139 -151h-31z" />
    <glyph glyph-name="Ocircumflex" unicode="&#xd4;" horiz-adv-x="733" 
d="M367 -14q-134 0 -219 107t-85 277t85 277t219 107t218.5 -107.5t84.5 -276.5t-84.5 -276.5t-218.5 -107.5zM367 31q111 0 182 91.5t71 247.5t-71 247.5t-182 91.5q-112 0 -183 -91.5t-71 -247.5t71 -247.5t183 -91.5zM217 782l129 156h40l129 -156h-33l-117 104
l-117 -104h-31z" />
    <glyph glyph-name="Otilde" unicode="&#xd5;" horiz-adv-x="733" 
d="M367 -14q-134 0 -219 107t-85 277t85 277t219 107t218.5 -107.5t84.5 -276.5t-84.5 -276.5t-218.5 -107.5zM367 31q111 0 182 91.5t71 247.5t-71 247.5t-182 91.5q-112 0 -183 -91.5t-71 -247.5t71 -247.5t183 -91.5zM438 785q-28 0 -78.5 28t-69.5 28q-22 0 -31.5 -12.5
t-9.5 -41.5h-34q0 99 77 99q28 0 79 -28t69 -28q22 0 31.5 12.5t9.5 41.5h34q0 -99 -77 -99z" />
    <glyph glyph-name="Odieresis" unicode="&#xd6;" horiz-adv-x="733" 
d="M367 -14q-134 0 -219 107t-85 277t85 277t219 107t218.5 -107.5t84.5 -276.5t-84.5 -276.5t-218.5 -107.5zM367 31q111 0 182 91.5t71 247.5t-71 247.5t-182 91.5q-112 0 -183 -91.5t-71 -247.5t71 -247.5t183 -91.5zM250 787v67h64v-67h-64zM418 787v67h64v-67h-64z" />
    <glyph glyph-name="multiply" unicode="&#xd7;" horiz-adv-x="634" 
d="M141 111l-29 29l175 175l-175 176l29 29l175 -176l176 176l29 -29l-176 -176l176 -175l-29 -29l-176 176z" />
    <glyph glyph-name="Oslash" unicode="&#xd8;" horiz-adv-x="733" 
d="M592 638q78 -105 78 -268q0 -169 -84.5 -276.5t-218.5 -107.5q-117 0 -199 84l-64 -85l-34 22l71 95q-78 107 -78 268q0 170 85 277t219 107q116 0 198 -84l64 85l34 -22zM172 140l366 491q-69 78 -171 78q-112 0 -183 -91.5t-71 -247.5q0 -139 59 -230zM562 599
l-367 -489q68 -79 172 -79q111 0 182 91.5t71 247.5q0 137 -58 229z" />
    <glyph glyph-name="Ugrave" unicode="&#xd9;" horiz-adv-x="713" 
d="M356 -14q-125 0 -193.5 73.5t-68.5 182.5v498h50v-486q0 -99 53.5 -161t159.5 -62q105 0 158.5 61t53.5 160v488h50v-495q0 -110 -69 -184.5t-194 -74.5zM353 787l-139 151h75l95 -151h-31z" />
    <glyph glyph-name="Uacute" unicode="&#xda;" horiz-adv-x="713" 
d="M356 -14q-125 0 -193.5 73.5t-68.5 182.5v498h50v-486q0 -99 53.5 -161t159.5 -62q105 0 158.5 61t53.5 160v488h50v-495q0 -110 -69 -184.5t-194 -74.5zM322 787l95 151h75l-139 -151h-31z" />
    <glyph glyph-name="Ucircumflex" unicode="&#xdb;" horiz-adv-x="713" 
d="M356 -14q-125 0 -193.5 73.5t-68.5 182.5v498h50v-486q0 -99 53.5 -161t159.5 -62q105 0 158.5 61t53.5 160v488h50v-495q0 -110 -69 -184.5t-194 -74.5zM207 782l129 156h40l129 -156h-33l-117 104l-117 -104h-31z" />
    <glyph glyph-name="Udieresis" unicode="&#xdc;" horiz-adv-x="713" 
d="M356 -14q-125 0 -193.5 73.5t-68.5 182.5v498h50v-486q0 -99 53.5 -161t159.5 -62q105 0 158.5 61t53.5 160v488h50v-495q0 -110 -69 -184.5t-194 -74.5zM240 787v67h64v-67h-64zM408 787v67h64v-67h-64z" />
    <glyph glyph-name="Yacute" unicode="&#xdd;" horiz-adv-x="601" 
d="M275 0v329l-246 411h56l217 -368l216 368h54l-247 -411v-329h-50zM261 787l95 151h75l-139 -151h-31z" />
    <glyph glyph-name="Thorn" unicode="&#xde;" horiz-adv-x="640" 
d="M99 0v740h50v-147h191q120 -1 184.5 -50.5t64.5 -141.5q0 -101 -67.5 -151.5t-189.5 -50.5h-183v-199h-50zM149 245h187q101 0 152 35.5t51 118.5q0 78 -51.5 113t-152.5 35h-186v-302z" />
    <glyph glyph-name="germandbls" unicode="&#xdf;" horiz-adv-x="597" 
d="M354 -11q-89 0 -141 55l31 31q46 -44 113 -44q61 0 98.5 47t37.5 128q0 96 -59.5 141t-180.5 50v40q87 1 131.5 38.5t44.5 96.5q0 60 -39.5 93t-107.5 33q-72 0 -111 -44.5t-39 -127.5v-526h-48v522q0 102 52.5 160t146.5 58q88 0 141 -44t53 -123q0 -56 -33.5 -97
t-95.5 -57q88 -12 140.5 -63t52.5 -147q0 -99 -50.5 -159.5t-136.5 -60.5z" />
    <glyph glyph-name="agrave" unicode="&#xe0;" horiz-adv-x="540" 
d="M201 -9q-71 0 -109.5 34.5t-38.5 95.5q0 80 81.5 134t279.5 87v32q0 59 -29.5 89.5t-84.5 30.5q-61 0 -108.5 -22t-95.5 -65l-28 30q53 49 107.5 74t125.5 25q80 0 120.5 -42t40.5 -117v-247q0 -93 15 -130h-51q-12 38 -12 78q-101 -87 -213 -87zM205 33q114 0 209 92
v181q-179 -31 -246 -75.5t-67 -106.5q0 -44 27.5 -67.5t76.5 -23.5zM281 582l-139 151h75l95 -151h-31z" />
    <glyph glyph-name="aacute" unicode="&#xe1;" horiz-adv-x="540" 
d="M201 -9q-71 0 -109.5 34.5t-38.5 95.5q0 80 81.5 134t279.5 87v32q0 59 -29.5 89.5t-84.5 30.5q-61 0 -108.5 -22t-95.5 -65l-28 30q53 49 107.5 74t125.5 25q80 0 120.5 -42t40.5 -117v-247q0 -93 15 -130h-51q-12 38 -12 78q-101 -87 -213 -87zM205 33q114 0 209 92
v181q-179 -31 -246 -75.5t-67 -106.5q0 -44 27.5 -67.5t76.5 -23.5zM252 582l95 151h75l-139 -151h-31z" />
    <glyph glyph-name="acircumflex" unicode="&#xe2;" horiz-adv-x="540" 
d="M201 -9q-71 0 -109.5 34.5t-38.5 95.5q0 80 81.5 134t279.5 87v32q0 59 -29.5 89.5t-84.5 30.5q-61 0 -108.5 -22t-95.5 -65l-28 30q53 49 107.5 74t125.5 25q80 0 120.5 -42t40.5 -117v-247q0 -93 15 -130h-51q-12 38 -12 78q-101 -87 -213 -87zM205 33q114 0 209 92
v181q-179 -31 -246 -75.5t-67 -106.5q0 -44 27.5 -67.5t76.5 -23.5zM129 577l129 156h40l129 -156h-33l-117 104l-117 -104h-31z" />
    <glyph glyph-name="atilde" unicode="&#xe3;" horiz-adv-x="540" 
d="M201 -9q-71 0 -109.5 34.5t-38.5 95.5q0 80 81.5 134t279.5 87v32q0 59 -29.5 89.5t-84.5 30.5q-61 0 -108.5 -22t-95.5 -65l-28 30q53 49 107.5 74t125.5 25q80 0 120.5 -42t40.5 -117v-247q0 -93 15 -130h-51q-12 38 -12 78q-101 -87 -213 -87zM205 33q114 0 209 92
v181q-179 -31 -246 -75.5t-67 -106.5q0 -44 27.5 -67.5t76.5 -23.5zM349 580q-27 0 -78 28t-70 28q-22 0 -31.5 -12.5t-9.5 -41.5h-34q0 99 77 99q27 0 78 -28t70 -28q22 0 31.5 12.5t9.5 41.5h34q0 -99 -77 -99z" />
    <glyph glyph-name="adieresis" unicode="&#xe4;" horiz-adv-x="540" 
d="M201 -9q-71 0 -109.5 34.5t-38.5 95.5q0 80 81.5 134t279.5 87v32q0 59 -29.5 89.5t-84.5 30.5q-61 0 -108.5 -22t-95.5 -65l-28 30q53 49 107.5 74t125.5 25q80 0 120.5 -42t40.5 -117v-247q0 -93 15 -130h-51q-12 38 -12 78q-101 -87 -213 -87zM205 33q114 0 209 92
v181q-179 -31 -246 -75.5t-67 -106.5q0 -44 27.5 -67.5t76.5 -23.5zM169 582v67h64v-67h-64zM337 582v67h64v-67h-64z" />
    <glyph glyph-name="aring" unicode="&#xe5;" horiz-adv-x="540" 
d="M201 -9q-71 0 -109.5 34.5t-38.5 95.5q0 80 81.5 134t279.5 87v32q0 59 -29.5 89.5t-84.5 30.5q-61 0 -108.5 -22t-95.5 -65l-28 30q53 49 107.5 74t125.5 25q80 0 120.5 -42t40.5 -117v-247q0 -93 15 -130h-51q-12 38 -12 78q-101 -87 -213 -87zM205 33q114 0 209 92
v181q-179 -31 -246 -75.5t-67 -106.5q0 -44 27.5 -67.5t76.5 -23.5zM287 575q-37 0 -62 24.5t-25 62.5q0 37 25 61.5t62 24.5t62 -24.5t25 -61.5q0 -38 -25 -62.5t-62 -24.5zM287 604q24 0 39.5 16.5t15.5 41.5t-15.5 41t-39.5 16t-39.5 -16t-15.5 -41t15.5 -41.5
t39.5 -16.5z" />
    <glyph glyph-name="ae" unicode="&#xe6;" horiz-adv-x="893" 
d="M201 -11q-71 0 -109.5 34.5t-38.5 95.5q0 80 81 135.5t278 88.5v31q0 120 -113 120q-61 0 -107.5 -21.5t-95.5 -65.5l-28 30q53 49 107 74t125 25q129 0 150 -118q27 53 74.5 85.5t107.5 32.5q94 0 150.5 -73t56.5 -196v-7h-381q0 -104 50 -166.5t125 -62.5q59 0 97.5 27
t70.5 82l35 -22q-70 -129 -206 -129q-57 0 -106 30.5t-79 86.5q-117 -117 -244 -117zM205 31q119 0 224 111q-19 55 -19 121q0 15 2 43q-93 -16 -156 -36.5t-96 -45t-46 -48.5t-13 -54q0 -44 27.5 -67.5t76.5 -23.5zM459 300h330q-6 86 -46 140t-112 54q-65 0 -114 -50.5
t-58 -143.5z" />
    <glyph glyph-name="ccedilla" unicode="&#xe7;" horiz-adv-x="526" 
d="M272 -193q-63 0 -118 36l16 25q45 -30 96 -30q80 0 80 51q0 37 -44 37q-28 0 -55 -21l-25 12l22 74q-82 12 -136 85.5t-54 185.5q0 131 66 202.5t161 71.5q133 0 195 -140l-41 -22q-26 60 -62 90t-94 30q-32 0 -62 -12.5t-56.5 -38.5t-42.5 -72.5t-16 -107.5
q0 -107 50 -169.5t125 -62.5q58 0 94 29t68 92l38 -19q-34 -70 -80.5 -106.5t-115.5 -37.5l-14 -45q23 15 52 15t49.5 -17.5t20.5 -49.5q0 -44 -32.5 -64.5t-84.5 -20.5z" />
    <glyph glyph-name="egrave" unicode="&#xe8;" horiz-adv-x="539" 
d="M275 -11q-92 0 -156.5 74.5t-64.5 199.5q0 129 66 201t157 72q94 0 151 -73t57 -196v-7h-383q0 -104 50.5 -166.5t125.5 -62.5q59 0 98 27t71 82l35 -22q-70 -129 -207 -129zM103 300h332q-6 86 -46.5 140t-112.5 54q-65 0 -114.5 -50.5t-58.5 -143.5zM264 582l-139 151
h75l95 -151h-31z" />
    <glyph glyph-name="eacute" unicode="&#xe9;" horiz-adv-x="539" 
d="M275 -11q-92 0 -156.5 74.5t-64.5 199.5q0 129 66 201t157 72q94 0 151 -73t57 -196v-7h-383q0 -104 50.5 -166.5t125.5 -62.5q59 0 98 27t71 82l35 -22q-70 -129 -207 -129zM103 300h332q-6 86 -46.5 140t-112.5 54q-65 0 -114.5 -50.5t-58.5 -143.5zM254 582l95 151h75
l-139 -151h-31z" />
    <glyph glyph-name="ecircumflex" unicode="&#xea;" horiz-adv-x="539" 
d="M275 -11q-92 0 -156.5 74.5t-64.5 199.5q0 129 66 201t157 72q94 0 151 -73t57 -196v-7h-383q0 -104 50.5 -166.5t125.5 -62.5q59 0 98 27t71 82l35 -22q-70 -129 -207 -129zM103 300h332q-6 86 -46.5 140t-112.5 54q-65 0 -114.5 -50.5t-58.5 -143.5zM129 577l129 156
h40l129 -156h-33l-117 104l-117 -104h-31z" />
    <glyph glyph-name="edieresis" unicode="&#xeb;" horiz-adv-x="539" 
d="M275 -11q-92 0 -156.5 74.5t-64.5 199.5q0 129 66 201t157 72q94 0 151 -73t57 -196v-7h-383q0 -104 50.5 -166.5t125.5 -62.5q59 0 98 27t71 82l35 -22q-70 -129 -207 -129zM103 300h332q-6 86 -46.5 140t-112.5 54q-65 0 -114.5 -50.5t-58.5 -143.5zM158 582v67h64v-67
h-64zM326 582v67h64v-67h-64z" />
    <glyph glyph-name="igrave" unicode="&#xec;" horiz-adv-x="228" 
d="M90 0v525h48v-525h-48zM110 582l-139 151h75l95 -151h-31z" />
    <glyph glyph-name="iacute" unicode="&#xed;" horiz-adv-x="228" 
d="M90 0v525h48v-525h-48zM106 582l95 151h75l-139 -151h-31z" />
    <glyph glyph-name="icircumflex" unicode="&#xee;" horiz-adv-x="228" 
d="M90 0v525h48v-525h-48zM-35 577l129 156h40l129 -156h-33l-117 104l-117 -104h-31z" />
    <glyph glyph-name="idieresis" unicode="&#xef;" horiz-adv-x="228" 
d="M90 0v525h48v-525h-48zM166 582v67h64v-67h-64zM-2 582v67h64v-67h-64z" />
    <glyph glyph-name="eth" unicode="&#xf0;" horiz-adv-x="570" 
d="M285 -11q-99 0 -165 75t-66 198t65 193.5t166 70.5q53 0 98.5 -27.5t72.5 -71.5q-28 114 -100 189l-117 -42l-15 40l98 35q-30 27 -81 57l24 36q64 -35 105 -75l105 38l15 -40l-87 -32q113 -131 113 -371q0 -123 -66 -198t-165 -75zM285 31q83 0 133 65t50 167
q0 95 -49.5 158t-133.5 63t-133.5 -61t-49.5 -160q0 -98 48.5 -165t134.5 -67z" />
    <glyph glyph-name="ntilde" unicode="&#xf1;" horiz-adv-x="573" 
d="M84 0v525h48v-87q103 98 203 98q80 0 119.5 -41t39.5 -114v-381h-48v375q0 61 -28 90t-87 29q-94 0 -199 -100v-394h-48zM368 580q-28 0 -78.5 28t-69.5 28q-22 0 -31.5 -12.5t-9.5 -41.5h-34q0 99 77 99q28 0 79 -28t69 -28q22 0 31.5 12.5t9.5 41.5h34q0 -99 -77 -99z
" />
    <glyph glyph-name="ograve" unicode="&#xf2;" horiz-adv-x="570" 
d="M285 -11q-99 0 -165 75t-66 198q0 124 65.5 199t165.5 75q99 0 165 -75t66 -199q0 -123 -66 -198t-165 -75zM285 31q83 0 133 65t50 167q0 97 -49 164t-134 67q-83 0 -133 -65.5t-50 -165.5q0 -98 48.5 -165t134.5 -67zM274 582l-139 151h75l95 -151h-31z" />
    <glyph glyph-name="oacute" unicode="&#xf3;" horiz-adv-x="570" 
d="M285 -11q-99 0 -165 75t-66 198q0 124 65.5 199t165.5 75q99 0 165 -75t66 -199q0 -123 -66 -198t-165 -75zM285 31q83 0 133 65t50 167q0 97 -49 164t-134 67q-83 0 -133 -65.5t-50 -165.5q0 -98 48.5 -165t134.5 -67zM261 582l95 151h75l-139 -151h-31z" />
    <glyph glyph-name="ocircumflex" unicode="&#xf4;" horiz-adv-x="570" 
d="M285 -11q-99 0 -165 75t-66 198q0 124 65.5 199t165.5 75q99 0 165 -75t66 -199q0 -123 -66 -198t-165 -75zM285 31q83 0 133 65t50 167q0 97 -49 164t-134 67q-83 0 -133 -65.5t-50 -165.5q0 -98 48.5 -165t134.5 -67zM136 577l129 156h40l129 -156h-33l-117 104
l-117 -104h-31z" />
    <glyph glyph-name="otilde" unicode="&#xf5;" horiz-adv-x="570" 
d="M285 -11q-99 0 -165 75t-66 198q0 124 65.5 199t165.5 75q99 0 165 -75t66 -199q0 -123 -66 -198t-165 -75zM285 31q83 0 133 65t50 167q0 97 -49 164t-134 67q-83 0 -133 -65.5t-50 -165.5q0 -98 48.5 -165t134.5 -67zM360 580q-28 0 -79 28t-69 28q-22 0 -31.5 -12.5
t-9.5 -41.5h-34q0 99 77 99q28 0 79 -28t69 -28q22 0 31.5 12.5t9.5 41.5h34q0 -99 -77 -99z" />
    <glyph glyph-name="odieresis" unicode="&#xf6;" horiz-adv-x="570" 
d="M285 -11q-99 0 -165 75t-66 198q0 124 65.5 199t165.5 75q99 0 165 -75t66 -199q0 -123 -66 -198t-165 -75zM285 31q83 0 133 65t50 167q0 97 -49 164t-134 67q-83 0 -133 -65.5t-50 -165.5q0 -98 48.5 -165t134.5 -67zM168 582v67h64v-67h-64zM336 582v67h64v-67h-64z
" />
    <glyph glyph-name="divide" unicode="&#xf7;" horiz-adv-x="634" 
d="M65 302v44h504v-44h-504zM278 111v78h72v-78h-72zM278 458v78h72v-78h-72z" />
    <glyph glyph-name="oslash" unicode="&#xf8;" horiz-adv-x="570" 
d="M449 462q67 -77 67 -200t-66 -198t-165 -75q-76 0 -136 47l-47 -67l-32 22l51 72q-67 77 -67 199q0 124 65.5 199t165.5 75q77 0 135 -46l48 68l33 -23zM421 424l-248 -351q47 -42 112 -42q83 0 133 65t50 167q0 97 -47 161zM149 100l247 352q-45 42 -111 42
q-83 0 -133 -65.5t-50 -165.5q0 -98 47 -163z" />
    <glyph glyph-name="ugrave" unicode="&#xf9;" horiz-adv-x="573" 
d="M238 -11q-80 0 -119.5 41t-39.5 114v381h48v-375q0 -61 28 -90t87 -29q94 0 199 100v394h48v-525h-48v87q-103 -98 -203 -98zM279 582l-139 151h75l95 -151h-31z" />
    <glyph glyph-name="uacute" unicode="&#xfa;" horiz-adv-x="573" 
d="M238 -11q-80 0 -119.5 41t-39.5 114v381h48v-375q0 -61 28 -90t87 -29q94 0 199 100v394h48v-525h-48v87q-103 -98 -203 -98zM261 582l95 151h75l-139 -151h-31z" />
    <glyph glyph-name="ucircumflex" unicode="&#xfb;" horiz-adv-x="573" 
d="M238 -11q-80 0 -119.5 41t-39.5 114v381h48v-375q0 -61 28 -90t87 -29q94 0 199 100v394h48v-525h-48v87q-103 -98 -203 -98zM135 577l129 156h40l129 -156h-33l-117 104l-117 -104h-31z" />
    <glyph glyph-name="udieresis" unicode="&#xfc;" horiz-adv-x="573" 
d="M238 -11q-80 0 -119.5 41t-39.5 114v381h48v-375q0 -61 28 -90t87 -29q94 0 199 100v394h48v-525h-48v87q-103 -98 -203 -98zM170 582v67h64v-67h-64zM338 582v67h64v-67h-64z" />
    <glyph glyph-name="yacute" unicode="&#xfd;" horiz-adv-x="519" 
d="M87 -200q-42 0 -72 9l12 40q26 -7 66 -7q46 0 73 21t45 69l25 65l-204 528h53l174 -467h2l174 467h52l-227 -587q-29 -75 -65 -106.5t-108 -31.5zM239 582l95 151h75l-139 -151h-31z" />
    <glyph glyph-name="thorn" unicode="&#xfe;" horiz-adv-x="586" 
d="M84 -200v940h48v-292q84 88 179 88q96 0 158 -70.5t62 -202.5t-62.5 -202t-159.5 -70q-89 0 -177 86v-277h-48zM312 33q74 0 122.5 57.5t48.5 171.5q0 113 -49.5 172.5t-123.5 59.5q-50 0 -90 -22.5t-88 -71.5v-273q92 -94 180 -94z" />
    <glyph glyph-name="ydieresis" unicode="&#xff;" horiz-adv-x="519" 
d="M87 -200q-42 0 -72 9l12 40q26 -7 66 -7q46 0 73 21t45 69l25 65l-204 528h53l174 -467h2l174 467h52l-227 -587q-29 -75 -65 -106.5t-108 -31.5zM144 582v67h64v-67h-64zM312 582v67h64v-67h-64z" />
    <glyph glyph-name="Amacron" unicode="&#x100;" horiz-adv-x="663" 
d="M40 0l262 743h59l262 -743h-53l-86 248h-307l-86 -248h-51zM193 293h275l-137 394h-2zM215 787v46h232v-46h-232z" />
    <glyph glyph-name="amacron" unicode="&#x101;" horiz-adv-x="540" 
d="M201 -9q-71 0 -109.5 34.5t-38.5 95.5q0 80 81.5 134t279.5 87v32q0 59 -29.5 89.5t-84.5 30.5q-61 0 -108.5 -22t-95.5 -65l-28 30q53 49 107.5 74t125.5 25q80 0 120.5 -42t40.5 -117v-247q0 -93 15 -130h-51q-12 38 -12 78q-101 -87 -213 -87zM205 33q114 0 209 92
v181q-179 -31 -246 -75.5t-67 -106.5q0 -44 27.5 -67.5t76.5 -23.5zM154 582v46h232v-46h-232z" />
    <glyph glyph-name="Abreve" unicode="&#x102;" horiz-adv-x="663" 
d="M40 0l262 743h59l262 -743h-53l-86 248h-307l-86 -248h-51zM193 293h275l-137 394h-2zM331 784q-62 0 -101 42.5t-43 116.5h34q13 -114 110 -114t110 114h34q-4 -74 -43 -116.5t-101 -42.5z" />
    <glyph glyph-name="abreve" unicode="&#x103;" horiz-adv-x="540" 
d="M201 -9q-71 0 -109.5 34.5t-38.5 95.5q0 80 81.5 134t279.5 87v32q0 59 -29.5 89.5t-84.5 30.5q-61 0 -108.5 -22t-95.5 -65l-28 30q53 49 107.5 74t125.5 25q80 0 120.5 -42t40.5 -117v-247q0 -93 15 -130h-51q-12 38 -12 78q-101 -87 -213 -87zM205 33q114 0 209 92
v181q-179 -31 -246 -75.5t-67 -106.5q0 -44 27.5 -67.5t76.5 -23.5zM270 579q-62 0 -101 42.5t-43 116.5h34q13 -114 110 -114t110 114h34q-4 -74 -43 -116.5t-101 -42.5z" />
    <glyph glyph-name="Aogonek" unicode="&#x104;" horiz-adv-x="663" 
d="M40 0l262 743h59l262 -743h-17q-71 -51 -71 -103q0 -50 53 -50q44 0 98 24l11 -21q-67 -37 -120 -37q-41 0 -65 20.5t-24 56.5q0 29 23 58.5t58 52.5l-85 247h-307l-86 -248h-51zM193 293h275l-137 394h-2z" />
    <glyph glyph-name="aogonek" unicode="&#x105;" horiz-adv-x="540" 
d="M201 -9q-71 0 -109.5 34.5t-38.5 95.5q0 80 81.5 134t279.5 87v32q0 59 -29.5 89.5t-84.5 30.5q-61 0 -108.5 -22t-95.5 -65l-28 30q53 49 107.5 74t125.5 25q80 0 120.5 -42t40.5 -117v-247q0 -93 15 -130h-15q-71 -51 -71 -103q0 -50 53 -50q44 0 98 24l11 -21
q-67 -37 -120 -37q-41 0 -65 20.5t-24 56.5q0 29 23 58.5t58 52.5q-11 40 -11 77q-101 -87 -213 -87zM205 33q114 0 209 92v181q-179 -31 -246 -75.5t-67 -106.5q0 -44 27.5 -67.5t76.5 -23.5z" />
    <glyph glyph-name="Cacute" unicode="&#x106;" horiz-adv-x="692" 
d="M364 -14q-137 0 -219 107.5t-82 280.5q0 164 83 272t218 108q204 0 261 -224l-48 -11q-27 97 -77 143.5t-137 46.5q-112 0 -181 -92t-69 -241q0 -161 68.5 -253t183.5 -92q173 0 225 199l47 -11q-27 -110 -98 -171.5t-175 -61.5zM310 787l95 151h75l-139 -151h-31z" />
    <glyph glyph-name="cacute" unicode="&#x107;" horiz-adv-x="526" 
d="M274 -11q-93 0 -156.5 75.5t-63.5 197.5q0 131 66 202.5t161 71.5q133 0 195 -140l-41 -22q-26 60 -62 90t-94 30q-32 0 -62 -12.5t-56.5 -38.5t-42.5 -72.5t-16 -107.5q0 -107 50 -169.5t125 -62.5q58 0 94 29t68 92l38 -19q-35 -72 -83 -108t-120 -36zM242 582l95 151
h75l-139 -151h-31z" />
    <glyph glyph-name="Ccircumflex" unicode="&#x108;" horiz-adv-x="692" 
d="M364 -14q-137 0 -219 107.5t-82 280.5q0 164 83 272t218 108q204 0 261 -224l-48 -11q-27 97 -77 143.5t-137 46.5q-112 0 -181 -92t-69 -241q0 -161 68.5 -253t183.5 -92q173 0 225 199l47 -11q-27 -110 -98 -171.5t-175 -61.5zM213 782l129 156h40l129 -156h-33
l-117 104l-117 -104h-31z" />
    <glyph glyph-name="ccircumflex" unicode="&#x109;" horiz-adv-x="526" 
d="M274 -11q-93 0 -156.5 75.5t-63.5 197.5q0 131 66 202.5t161 71.5q133 0 195 -140l-41 -22q-26 60 -62 90t-94 30q-32 0 -62 -12.5t-56.5 -38.5t-42.5 -72.5t-16 -107.5q0 -107 50 -169.5t125 -62.5q58 0 94 29t68 92l38 -19q-35 -72 -83 -108t-120 -36zM114 577l129 156
h40l129 -156h-33l-117 104l-117 -104h-31z" />
    <glyph glyph-name="Cdotaccent" unicode="&#x10a;" horiz-adv-x="692" 
d="M364 -14q-137 0 -219 107.5t-82 280.5q0 164 83 272t218 108q204 0 261 -224l-48 -11q-27 97 -77 143.5t-137 46.5q-112 0 -181 -92t-69 -241q0 -161 68.5 -253t183.5 -92q173 0 225 199l47 -11q-27 -110 -98 -171.5t-175 -61.5zM329 787v69h66v-69h-66z" />
    <glyph glyph-name="cdotaccent" unicode="&#x10b;" horiz-adv-x="526" 
d="M274 -11q-93 0 -156.5 75.5t-63.5 197.5q0 131 66 202.5t161 71.5q133 0 195 -140l-41 -22q-26 60 -62 90t-94 30q-32 0 -62 -12.5t-56.5 -38.5t-42.5 -72.5t-16 -107.5q0 -107 50 -169.5t125 -62.5q58 0 94 29t68 92l38 -19q-35 -72 -83 -108t-120 -36zM230 582v69h66
v-69h-66z" />
    <glyph glyph-name="Ccaron" unicode="&#x10c;" horiz-adv-x="692" 
d="M364 -14q-137 0 -219 107.5t-82 280.5q0 164 83 272t218 108q204 0 261 -224l-48 -11q-27 97 -77 143.5t-137 46.5q-112 0 -181 -92t-69 -241q0 -161 68.5 -253t183.5 -92q173 0 225 199l47 -11q-27 -110 -98 -171.5t-175 -61.5zM326 787l-129 156h33l117 -104l117 104
h31l-129 -156h-40z" />
    <glyph glyph-name="ccaron" unicode="&#x10d;" horiz-adv-x="526" 
d="M274 -11q-93 0 -156.5 75.5t-63.5 197.5q0 131 66 202.5t161 71.5q133 0 195 -140l-41 -22q-26 60 -62 90t-94 30q-32 0 -62 -12.5t-56.5 -38.5t-42.5 -72.5t-16 -107.5q0 -107 50 -169.5t125 -62.5q58 0 94 29t68 92l38 -19q-35 -72 -83 -108t-120 -36zM243 582
l-129 156h33l117 -104l117 104h31l-129 -156h-40z" />
    <glyph glyph-name="Dcaron" unicode="&#x10e;" horiz-adv-x="702" 
d="M99 0v740h178q181 0 271.5 -94.5t90.5 -275.5q0 -179 -91.5 -274.5t-270.5 -95.5h-178zM149 46h139q145 0 223 80t78 244q0 163 -78.5 243.5t-224.5 80.5h-137v-648zM315 787l-129 156h33l117 -104l117 104h31l-129 -156h-40z" />
    <glyph glyph-name="dcaron" unicode="&#x10f;" horiz-adv-x="586" 
d="M568 566l20 97h-26v77h67v-71l-39 -103h-22zM275 -9q-96 0 -158 69.5t-62 201.5t62.5 203t159.5 71q98 0 177 -88v292h48v-610q0 -94 16 -130h-52q-12 38 -12 79q-84 -88 -179 -88zM276 33q50 0 90 22.5t88 71.5v273q-92 94 -180 94q-74 0 -122.5 -58.5t-48.5 -172.5
q0 -113 49.5 -171.5t123.5 -58.5z" />
    <glyph glyph-name="Dcroat" unicode="&#x110;" horiz-adv-x="702" 
d="M99 0v370h-87v46h87v324h178q181 0 271.5 -94.5t90.5 -275.5q0 -179 -91.5 -274.5t-270.5 -95.5h-178zM149 46h139q145 0 223 80t78 244q0 163 -78.5 243.5t-224.5 80.5h-137v-278h162v-46h-162v-324z" />
    <glyph glyph-name="dcroat" unicode="&#x111;" horiz-adv-x="586" 
d="M338 608v43h116v89h48v-89h92v-43h-92v-478q0 -94 16 -130h-52q-12 38 -12 79q-84 -88 -179 -88q-96 0 -158 69.5t-62 201.5t62.5 203t159.5 71q98 0 177 -88v160h-116zM276 33q50 0 90 22.5t88 71.5v273q-92 94 -180 94q-74 0 -122.5 -58.5t-48.5 -172.5
q0 -113 49.5 -171.5t123.5 -58.5z" />
    <glyph glyph-name="Emacron" unicode="&#x112;" horiz-adv-x="597" 
d="M99 0v740h428v-46h-378v-278h284v-46h-284v-324h400v-46h-450zM202 787v46h232v-46h-232z" />
    <glyph glyph-name="emacron" unicode="&#x113;" horiz-adv-x="539" 
d="M275 -11q-92 0 -156.5 74.5t-64.5 199.5q0 129 66 201t157 72q94 0 151 -73t57 -196v-7h-383q0 -104 50.5 -166.5t125.5 -62.5q59 0 98 27t71 82l35 -22q-70 -129 -207 -129zM103 300h332q-6 86 -46.5 140t-112.5 54q-65 0 -114.5 -50.5t-58.5 -143.5zM153 582v46h232
v-46h-232z" />
    <glyph glyph-name="Ebreve" unicode="&#x114;" horiz-adv-x="597" 
d="M99 0v740h428v-46h-378v-278h284v-46h-284v-324h400v-46h-450zM298 782q-62 0 -101 42.5t-43 116.5h34q13 -114 110 -114t110 114h34q-4 -74 -43 -116.5t-101 -42.5z" />
    <glyph glyph-name="ebreve" unicode="&#x115;" horiz-adv-x="539" 
d="M275 -11q-92 0 -156.5 74.5t-64.5 199.5q0 129 66 201t157 72q94 0 151 -73t57 -196v-7h-383q0 -104 50.5 -166.5t125.5 -62.5q59 0 98 27t71 82l35 -22q-70 -129 -207 -129zM103 300h332q-6 86 -46.5 140t-112.5 54q-65 0 -114.5 -50.5t-58.5 -143.5zM269 579
q-62 0 -101 42.5t-43 116.5h34q13 -114 110 -114t110 114h34q-4 -74 -43 -116.5t-101 -42.5z" />
    <glyph glyph-name="Edotaccent" unicode="&#x116;" horiz-adv-x="597" 
d="M99 0v740h428v-46h-378v-278h284v-46h-284v-324h400v-46h-450zM285 787v69h66v-69h-66z" />
    <glyph glyph-name="edotaccent" unicode="&#x117;" horiz-adv-x="539" 
d="M275 -11q-92 0 -156.5 74.5t-64.5 199.5q0 129 66 201t157 72q94 0 151 -73t57 -196v-7h-383q0 -104 50.5 -166.5t125.5 -62.5q59 0 98 27t71 82l35 -22q-70 -129 -207 -129zM103 300h332q-6 86 -46.5 140t-112.5 54q-65 0 -114.5 -50.5t-58.5 -143.5zM236 582v69h66v-69
h-66z" />
    <glyph glyph-name="Eogonek" unicode="&#x118;" horiz-adv-x="597" 
d="M99 0v740h428v-46h-378v-278h284v-46h-284v-324h400v-46h-81q-71 -51 -71 -103q0 -50 53 -50q44 0 98 24l11 -21q-67 -37 -120 -37q-41 0 -65 20.5t-24 56.5q0 55 79 110h-330z" />
    <glyph glyph-name="eogonek" unicode="&#x119;" horiz-adv-x="539" 
d="M275 -11q-92 0 -156.5 74.5t-64.5 199.5q0 129 66 201t157 72q94 0 151 -73t57 -196v-7h-383q0 -104 50.5 -166.5t125.5 -62.5q59 0 98 27t71 82l35 -22q-59 -107 -160 -125q-61 -47 -61 -96q0 -50 53 -50q44 0 98 24l11 -21q-67 -37 -120 -37q-41 0 -65 20.5t-24 56.5
q0 49 64 99h-3zM103 300h332q-6 86 -46.5 140t-112.5 54q-65 0 -114.5 -50.5t-58.5 -143.5z" />
    <glyph glyph-name="Ecaron" unicode="&#x11a;" horiz-adv-x="597" 
d="M99 0v740h428v-46h-378v-278h284v-46h-284v-324h400v-46h-450zM298 787l-129 156h33l117 -104l117 104h31l-129 -156h-40z" />
    <glyph glyph-name="ecaron" unicode="&#x11b;" horiz-adv-x="539" 
d="M275 -11q-92 0 -156.5 74.5t-64.5 199.5q0 129 66 201t157 72q94 0 151 -73t57 -196v-7h-383q0 -104 50.5 -166.5t125.5 -62.5q59 0 98 27t71 82l35 -22q-70 -129 -207 -129zM103 300h332q-6 86 -46.5 140t-112.5 54q-65 0 -114.5 -50.5t-58.5 -143.5zM249 582l-129 156
h33l117 -104l117 104h31l-129 -156h-40z" />
    <glyph glyph-name="Gcircumflex" unicode="&#x11c;" horiz-adv-x="714" 
d="M363 -14q-138 0 -219 109t-81 278q0 171 85.5 276t217.5 105q103 0 168.5 -58.5t92.5 -165.5l-48 -11q-28 97 -78 143.5t-136 46.5q-110 0 -181 -90t-71 -243q0 -156 68 -250.5t184 -94.5q102 0 161.5 71t56.5 193h-191v46h240v-341h-49v116h-2q-67 -130 -218 -130z
M216 782l129 156h40l129 -156h-33l-117 104l-117 -104h-31z" />
    <glyph glyph-name="gcircumflex" unicode="&#x11d;" horiz-adv-x="555" 
d="M273 -200q-122 0 -184.5 34.5t-62.5 97.5q0 84 101 123q-50 19 -50 68q0 42 61 72q-78 52 -78 151q0 83 58 136.5t143 53.5q88 0 145 -54q54 38 119 47v-52q-57 0 -98 -19q36 -47 36 -112q0 -85 -58.5 -136t-142.5 -51q-48 0 -90 17q-47 -18 -47 -49q0 -35 84 -43
l123 -11q174 -16 174 -130q0 -67 -64.5 -105t-168.5 -38zM262 200q70 0 112 40.5t42 105.5q0 68 -41 108.5t-114 40.5q-70 0 -112 -41t-42 -108q0 -65 42.5 -105.5t112.5 -40.5zM275 -160q85 0 134.5 27.5t49.5 71.5q0 41 -35.5 63.5t-112.5 29.5l-109 9l-26 3
q-50 -15 -76.5 -44t-26.5 -64q0 -96 202 -96zM113 577l129 156h40l129 -156h-33l-117 104l-117 -104h-31z" />
    <glyph glyph-name="Gbreve" unicode="&#x11e;" horiz-adv-x="714" 
d="M363 -14q-138 0 -219 109t-81 278q0 171 85.5 276t217.5 105q103 0 168.5 -58.5t92.5 -165.5l-48 -11q-28 97 -78 143.5t-136 46.5q-110 0 -181 -90t-71 -243q0 -156 68 -250.5t184 -94.5q102 0 161.5 71t56.5 193h-191v46h240v-341h-49v116h-2q-67 -130 -218 -130z
M357 784q-62 0 -101 42.5t-43 116.5h34q13 -114 110 -114t110 114h34q-4 -74 -43 -116.5t-101 -42.5z" />
    <glyph glyph-name="gbreve" unicode="&#x11f;" horiz-adv-x="555" 
d="M273 -200q-122 0 -184.5 34.5t-62.5 97.5q0 84 101 123q-50 19 -50 68q0 42 61 72q-78 52 -78 151q0 83 58 136.5t143 53.5q88 0 145 -54q54 38 119 47v-52q-57 0 -98 -19q36 -47 36 -112q0 -85 -58.5 -136t-142.5 -51q-48 0 -90 17q-47 -18 -47 -49q0 -35 84 -43
l123 -11q174 -16 174 -130q0 -67 -64.5 -105t-168.5 -38zM262 200q70 0 112 40.5t42 105.5q0 68 -41 108.5t-114 40.5q-70 0 -112 -41t-42 -108q0 -65 42.5 -105.5t112.5 -40.5zM275 -160q85 0 134.5 27.5t49.5 71.5q0 41 -35.5 63.5t-112.5 29.5l-109 9l-26 3
q-50 -15 -76.5 -44t-26.5 -64q0 -96 202 -96zM271 579q-62 0 -101 42.5t-43 116.5h34q13 -114 110 -114t110 114h34q-4 -74 -43 -116.5t-101 -42.5z" />
    <glyph glyph-name="Gdotaccent" unicode="&#x120;" horiz-adv-x="714" 
d="M363 -14q-138 0 -219 109t-81 278q0 171 85.5 276t217.5 105q103 0 168.5 -58.5t92.5 -165.5l-48 -11q-28 97 -78 143.5t-136 46.5q-110 0 -181 -90t-71 -243q0 -156 68 -250.5t184 -94.5q102 0 161.5 71t56.5 193h-191v46h240v-341h-49v116h-2q-67 -130 -218 -130z
M324 787v69h66v-69h-66z" />
    <glyph glyph-name="gdotaccent" unicode="&#x121;" horiz-adv-x="555" 
d="M273 -200q-122 0 -184.5 34.5t-62.5 97.5q0 84 101 123q-50 19 -50 68q0 42 61 72q-78 52 -78 151q0 83 58 136.5t143 53.5q88 0 145 -54q54 38 119 47v-52q-57 0 -98 -19q36 -47 36 -112q0 -85 -58.5 -136t-142.5 -51q-48 0 -90 17q-47 -18 -47 -49q0 -35 84 -43
l123 -11q174 -16 174 -130q0 -67 -64.5 -105t-168.5 -38zM262 200q70 0 112 40.5t42 105.5q0 68 -41 108.5t-114 40.5q-70 0 -112 -41t-42 -108q0 -65 42.5 -105.5t112.5 -40.5zM275 -160q85 0 134.5 27.5t49.5 71.5q0 41 -35.5 63.5t-112.5 29.5l-109 9l-26 3
q-50 -15 -76.5 -44t-26.5 -64q0 -96 202 -96zM228 582v69h66v-69h-66z" />
    <glyph glyph-name="Gcommaaccent" unicode="&#x122;" horiz-adv-x="714" 
d="M363 -14q-138 0 -219 109t-81 278q0 171 85.5 276t217.5 105q103 0 168.5 -58.5t92.5 -165.5l-48 -11q-28 97 -78 143.5t-136 46.5q-110 0 -181 -90t-71 -243q0 -156 68 -250.5t184 -94.5q102 0 161.5 71t56.5 193h-191v46h240v-341h-49v116h-2q-67 -130 -218 -130z
M330 -224l20 97h-26v77h67v-71l-39 -103h-22z" />
    <glyph glyph-name="gcommaaccent" unicode="&#x123;" horiz-adv-x="555" 
d="M273 -200q-122 0 -184.5 34.5t-62.5 97.5q0 84 101 123q-50 19 -50 68q0 42 61 72q-78 52 -78 151q0 83 58 136.5t143 53.5q88 0 145 -54q54 38 119 47v-52q-57 0 -98 -19q36 -47 36 -112q0 -85 -58.5 -136t-142.5 -51q-48 0 -90 17q-47 -18 -47 -49q0 -35 84 -43
l123 -11q174 -16 174 -130q0 -67 -64.5 -105t-168.5 -38zM262 200q70 0 112 40.5t42 105.5q0 68 -41 108.5t-114 40.5q-70 0 -112 -41t-42 -108q0 -65 42.5 -105.5t112.5 -40.5zM275 -160q85 0 134.5 27.5t49.5 71.5q0 41 -35.5 63.5t-112.5 29.5l-109 9l-26 3
q-50 -15 -76.5 -44t-26.5 -64q0 -96 202 -96zM237 582v71l39 103h22l-20 -97h26v-77h-67z" />
    <glyph glyph-name="Hcircumflex" unicode="&#x124;" horiz-adv-x="724" 
d="M99 0v740h50v-325h426v325h50v-740h-50v369h-426v-369h-50zM213 782l129 156h40l129 -156h-33l-117 104l-117 -104h-31z" />
    <glyph glyph-name="hcircumflex" unicode="&#x125;" horiz-adv-x="573" 
d="M84 0v740h48v-302q103 98 203 98q80 0 119.5 -41t39.5 -114v-381h-48v375q0 61 -28 90t-87 29q-94 0 -199 -100v-394h-48zM-42 782l129 156h40l129 -156h-33l-117 104l-117 -104h-31z" />
    <glyph glyph-name="Hbar" unicode="&#x126;" horiz-adv-x="724" 
d="M12 554v46h87v140h50v-140h426v140h50v-140h87v-46h-87v-554h-50v369h-426v-369h-50v554h-87zM149 415h426v139h-426v-139z" />
    <glyph glyph-name="hbar" unicode="&#x127;" horiz-adv-x="573" 
d="M-8 608v43h92v89h48v-89h116v-43h-116v-170q103 98 203 98q80 0 119.5 -41t39.5 -114v-381h-48v375q0 61 -28 90t-87 29q-94 0 -199 -100v-394h-48v608h-92z" />
    <glyph glyph-name="Itilde" unicode="&#x128;" horiz-adv-x="270" 
d="M110 0v740h50v-740h-50zM208 785q-28 0 -78.5 28t-69.5 28q-22 0 -31.5 -12.5t-9.5 -41.5h-34q0 99 77 99q28 0 79 -28t69 -28q22 0 31.5 12.5t9.5 41.5h34q0 -99 -77 -99z" />
    <glyph glyph-name="itilde" unicode="&#x129;" horiz-adv-x="228" 
d="M90 0v525h48v-525h-48zM187 580q-27 0 -78 28t-70 28q-22 0 -31.5 -12.5t-9.5 -41.5h-34q0 99 77 99q27 0 78 -28t70 -28q22 0 31.5 12.5t9.5 41.5h34q0 -99 -77 -99z" />
    <glyph glyph-name="Imacron" unicode="&#x12a;" horiz-adv-x="270" 
d="M110 0v740h50v-740h-50zM19 787v46h232v-46h-232z" />
    <glyph glyph-name="imacron" unicode="&#x12b;" horiz-adv-x="228" 
d="M90 0v525h48v-525h-48zM-2 582v46h232v-46h-232z" />
    <glyph glyph-name="Ibreve" unicode="&#x12c;" horiz-adv-x="270" 
d="M110 0v740h50v-740h-50zM135 782q-62 0 -101 42.5t-43 116.5h34q13 -114 110 -114t110 114h34q-4 -74 -43 -116.5t-101 -42.5z" />
    <glyph glyph-name="ibreve" unicode="&#x12d;" horiz-adv-x="228" 
d="M90 0v525h48v-525h-48zM114 579q-62 0 -101 42.5t-43 116.5h34q13 -114 110 -114t110 114h34q-4 -74 -43 -116.5t-101 -42.5z" />
    <glyph glyph-name="Iogonek" unicode="&#x12e;" horiz-adv-x="270" 
d="M116 -187q-41 0 -65 20.5t-24 56.5q0 29 23.5 59t59.5 53v738h50v-740h-15q-71 -51 -71 -103q0 -50 53 -50q44 0 98 24l11 -21q-67 -37 -120 -37z" />
    <glyph glyph-name="iogonek" unicode="&#x12f;" horiz-adv-x="228" 
d="M96 -187q-41 0 -65 20.5t-24 56.5q0 29 23.5 59t59.5 53v523h48v-525h-13q-71 -51 -71 -103q0 -50 53 -50q44 0 98 24l11 -21q-67 -37 -120 -37zM88 659v61h52v-61h-52z" />
    <glyph glyph-name="Idotaccent" unicode="&#x130;" horiz-adv-x="270" 
d="M110 0v740h50v-740h-50zM102 787v69h66v-69h-66z" />
    <glyph glyph-name="dotlessi" unicode="&#x131;" horiz-adv-x="228" 
d="M90 0v525h48v-525h-48z" />
    <glyph glyph-name="IJ" unicode="&#x132;" horiz-adv-x="720" 
d="M437 -14q-117 0 -177 109l40 23q27 -44 58 -65.5t78 -21.5q140 0 140 159v550h50v-545q0 -103 -50.5 -156t-138.5 -53zM110 0v740h50v-740h-50z" />
    <glyph glyph-name="ij" unicode="&#x133;" horiz-adv-x="456" 
d="M270 -200q-16 0 -28 2v43q12 -3 28 -3q48 0 48 55v628h48v-622q0 -103 -96 -103zM90 0v525h48v-525h-48zM316 659v61h52v-61h-52zM88 659v61h52v-61h-52z" />
    <glyph glyph-name="Jcircumflex" unicode="&#x134;" horiz-adv-x="490" 
d="M207 -14q-117 0 -177 109l40 23q27 -44 58 -65.5t78 -21.5q140 0 140 159v550h50v-545q0 -103 -50.5 -156t-138.5 -53zM221 782l129 156h40l129 -156h-33l-117 104l-117 -104h-31z" />
    <glyph glyph-name="jcircumflex" unicode="&#x135;" horiz-adv-x="228" 
d="M42 -200q-16 0 -28 2v43q12 -3 28 -3q48 0 48 55v628h48v-622q0 -103 -96 -103zM-35 577l129 156h40l129 -156h-33l-117 104l-117 -104h-31z" />
    <glyph glyph-name="Kcommaaccent" unicode="&#x136;" horiz-adv-x="657" 
d="M99 0v740h50v-420l379 420h63l-255 -278l295 -462h-59l-271 423l-152 -166v-257h-50zM301 -224l20 97h-26v77h67v-71l-39 -103h-22z" />
    <glyph glyph-name="kcommaaccent" unicode="&#x137;" horiz-adv-x="517" 
d="M84 0v740h48v-511l271 296h60l-172 -183l195 -342h-54l-175 305l-125 -134v-171h-48zM231 -224l20 97h-26v77h67v-71l-39 -103h-22z" />
    <glyph glyph-name="kgreenlandic" unicode="&#x138;" horiz-adv-x="517" 
d="M84 0v525h48v-296l271 296h60l-172 -183l195 -342h-54l-175 305l-125 -134v-171h-48z" />
    <glyph glyph-name="Lacute" unicode="&#x139;" horiz-adv-x="560" 
d="M99 0v740h50v-694h370v-46h-420zM105 787l95 151h75l-139 -151h-31z" />
    <glyph glyph-name="lacute" unicode="&#x13a;" horiz-adv-x="228" 
d="M90 0v740h48v-740h-48zM98 787l95 151h75l-139 -151h-31z" />
    <glyph glyph-name="Lcommaaccent" unicode="&#x13b;" horiz-adv-x="560" 
d="M99 0v740h50v-694h370v-46h-420zM253 -224l20 97h-26v77h67v-71l-39 -103h-22z" />
    <glyph glyph-name="lcommaaccent" unicode="&#x13c;" horiz-adv-x="228" 
d="M90 0v740h48v-740h-48zM87 -224l20 97h-26v77h67v-71l-39 -103h-22z" />
    <glyph glyph-name="Lcaron" unicode="&#x13d;" horiz-adv-x="560" 
d="M99 0v740h50v-694h370v-46h-420zM301 566l20 97h-26v77h67v-71l-39 -103h-22z" />
    <glyph glyph-name="lcaron" unicode="&#x13e;" horiz-adv-x="228" 
d="M90 0v740h48v-740h-48zM204 566l20 97h-26v77h67v-71l-39 -103h-22z" />
    <glyph glyph-name="Ldot" unicode="&#x13f;" horiz-adv-x="560" 
d="M99 0v740h50v-694h370v-46h-420zM370 359v69h66v-69h-66z" />
    <glyph glyph-name="ldot" unicode="&#x140;" horiz-adv-x="308" 
d="M90 0v740h48v-740h-48zM235 282v69h66v-69h-66z" />
    <glyph glyph-name="Lslash" unicode="&#x141;" horiz-adv-x="560" 
d="M100 0v353l-87 -23v46l87 23v341h50v-328l162 44v-46l-162 -43v-321h370v-46h-420z" />
    <glyph glyph-name="lslash" unicode="&#x142;" horiz-adv-x="286" 
d="M119 0v460l-99 -26v42l99 26v238h48v-226l102 27v-42l-102 -27v-472h-48z" />
    <glyph glyph-name="Nacute" unicode="&#x143;" horiz-adv-x="735" 
d="M99 0v740h57l430 -642h2v642h48v-740h-43l-444 664h-2v-664h-48zM301 787l95 151h75l-139 -151h-31z" />
    <glyph glyph-name="nacute" unicode="&#x144;" horiz-adv-x="573" 
d="M84 0v525h48v-87q103 98 203 98q80 0 119.5 -41t39.5 -114v-381h-48v375q0 61 -28 90t-87 29q-94 0 -199 -100v-394h-48zM240 582l95 151h75l-139 -151h-31z" />
    <glyph glyph-name="Ncommaaccent" unicode="&#x145;" horiz-adv-x="735" 
d="M99 0v740h57l430 -642h2v642h48v-740h-43l-444 664h-2v-664h-48zM340 -224l20 97h-26v77h67v-71l-39 -103h-22z" />
    <glyph glyph-name="ncommaaccent" unicode="&#x146;" horiz-adv-x="573" 
d="M84 0v525h48v-87q103 98 203 98q80 0 119.5 -41t39.5 -114v-381h-48v375q0 61 -28 90t-87 29q-94 0 -199 -100v-394h-48zM259 -224l20 97h-26v77h67v-71l-39 -103h-22z" />
    <glyph glyph-name="Ncaron" unicode="&#x147;" horiz-adv-x="735" 
d="M99 0v740h57l430 -642h2v642h48v-740h-43l-444 664h-2v-664h-48zM347 787l-129 156h33l117 -104l117 104h31l-129 -156h-40z" />
    <glyph glyph-name="ncaron" unicode="&#x148;" horiz-adv-x="573" 
d="M84 0v525h48v-87q103 98 203 98q80 0 119.5 -41t39.5 -114v-381h-48v375q0 61 -28 90t-87 29q-94 0 -199 -100v-394h-48zM266 582l-129 156h33l117 -104l117 104h31l-129 -156h-40z" />
    <glyph glyph-name="napostrophe" unicode="&#x149;" horiz-adv-x="774" 
d="M285 0v525h48v-87q103 98 203 98q80 0 119.5 -41t39.5 -114v-381h-48v375q0 61 -28 90t-87 29q-94 0 -199 -100v-394h-48zM105 563l20 97h-26v80h67v-74l-39 -103h-22z" />
    <glyph glyph-name="Eng" unicode="&#x14a;" horiz-adv-x="735" 
d="M99 0v740h57l430 -642h2v642h48v-731q0 -103 -50.5 -156t-138.5 -53q-117 0 -177 109l40 23q27 -44 58 -65.5t78 -21.5q141 0 142 159v3l-439 657h-2v-664h-48z" />
    <glyph glyph-name="eng" unicode="&#x14b;" horiz-adv-x="573" 
d="M84 0v525h48v-87q103 98 203 98q80 0 119.5 -41t39.5 -114v-478q0 -103 -96 -103q-16 0 -28 2v43q12 -3 28 -3q48 0 48 55v478q0 61 -28 90t-87 29q-94 0 -199 -100v-394h-48z" />
    <glyph glyph-name="Omacron" unicode="&#x14c;" horiz-adv-x="733" 
d="M367 -14q-134 0 -219 107t-85 277t85 277t219 107t218.5 -107.5t84.5 -276.5t-84.5 -276.5t-218.5 -107.5zM367 31q111 0 182 91.5t71 247.5t-71 247.5t-182 91.5q-112 0 -183 -91.5t-71 -247.5t71 -247.5t183 -91.5zM250 787v46h232v-46h-232z" />
    <glyph glyph-name="omacron" unicode="&#x14d;" horiz-adv-x="570" 
d="M285 -11q-99 0 -165 75t-66 198q0 124 65.5 199t165.5 75q99 0 165 -75t66 -199q0 -123 -66 -198t-165 -75zM285 31q83 0 133 65t50 167q0 97 -49 164t-134 67q-83 0 -133 -65.5t-50 -165.5q0 -98 48.5 -165t134.5 -67zM169 582v46h232v-46h-232z" />
    <glyph glyph-name="Obreve" unicode="&#x14e;" horiz-adv-x="733" 
d="M367 -14q-134 0 -219 107t-85 277t85 277t219 107t218.5 -107.5t84.5 -276.5t-84.5 -276.5t-218.5 -107.5zM367 31q111 0 182 91.5t71 247.5t-71 247.5t-182 91.5q-112 0 -183 -91.5t-71 -247.5t71 -247.5t183 -91.5zM366 784q-62 0 -101 42.5t-43 116.5h34
q13 -114 110 -114t110 114h34q-4 -74 -43 -116.5t-101 -42.5z" />
    <glyph glyph-name="obreve" unicode="&#x14f;" horiz-adv-x="570" 
d="M285 -11q-99 0 -165 75t-66 198q0 124 65.5 199t165.5 75q99 0 165 -75t66 -199q0 -123 -66 -198t-165 -75zM285 31q83 0 133 65t50 167q0 97 -49 164t-134 67q-83 0 -133 -65.5t-50 -165.5q0 -98 48.5 -165t134.5 -67zM285 579q-62 0 -101 42.5t-43 116.5h34
q13 -114 110 -114t110 114h34q-4 -74 -43 -116.5t-101 -42.5z" />
    <glyph glyph-name="Ohungarumlaut" unicode="&#x150;" horiz-adv-x="733" 
d="M367 -14q-134 0 -219 107t-85 277t85 277t219 107t218.5 -107.5t84.5 -276.5t-84.5 -276.5t-218.5 -107.5zM367 31q111 0 182 91.5t71 247.5t-71 247.5t-182 91.5q-112 0 -183 -91.5t-71 -247.5t71 -247.5t183 -91.5zM246 787l93 151h77l-137 -151h-33zM400 787l93 151
h77l-137 -151h-33z" />
    <glyph glyph-name="ohungarumlaut" unicode="&#x151;" horiz-adv-x="570" 
d="M285 -11q-99 0 -165 75t-66 198q0 124 65.5 199t165.5 75q99 0 165 -75t66 -199q0 -123 -66 -198t-165 -75zM285 31q83 0 133 65t50 167q0 97 -49 164t-134 67q-83 0 -133 -65.5t-50 -165.5q0 -98 48.5 -165t134.5 -67zM172 582l93 151h77l-137 -151h-33zM326 582l93 151
h77l-137 -151h-33z" />
    <glyph glyph-name="OE" unicode="&#x152;" horiz-adv-x="1116" 
d="M367 -14q-134 0 -219 107t-85 277t85 277t219 107q89 0 155 -47t99 -127v160h425v-46h-378v-278h284v-46h-284v-324h400v-46h-447v162q-34 -80 -99.5 -128t-154.5 -48zM367 31q111 0 182 91.5t71 247.5t-71 247.5t-182 91.5q-112 0 -183 -91.5t-71 -247.5t71 -247.5
t183 -91.5z" />
    <glyph glyph-name="oe" unicode="&#x153;" horiz-adv-x="944" 
d="M283 -11q-99 0 -164 75t-65 198q0 124 64.5 199t164.5 75q73 0 126.5 -42t77.5 -110q24 68 76.5 110t120.5 42q93 0 149.5 -73t56.5 -196v-7h-379q0 -105 49.5 -167t124.5 -62q59 0 97 26.5t70 82.5l35 -22q-70 -129 -205 -129q-66 0 -119 42.5t-77 109.5
q-24 -69 -77 -110.5t-126 -41.5zM283 31q83 0 132 65t49 167q0 97 -48 164t-133 67q-83 0 -132 -65t-49 -166q0 -98 47.5 -165t133.5 -67zM512 300h328q-6 86 -45.5 140t-111.5 54q-65 0 -113.5 -50.5t-57.5 -143.5z" />
    <glyph glyph-name="Racute" unicode="&#x154;" horiz-adv-x="663" 
d="M99 0v740h241q120 0 184.5 -50t64.5 -142q0 -165 -181 -195l191 -353h-58l-188 347h-204v-347h-50zM149 392h187q101 0 152 35.5t51 118.5q0 78 -51.5 113t-152.5 35h-186v-302zM285 787l95 151h75l-139 -151h-31z" />
    <glyph glyph-name="racute" unicode="&#x155;" horiz-adv-x="388" 
d="M84 0v525h48v-110h2q77 121 216 121h14l-8 -45h-17q-67 0 -121 -37.5t-86 -107.5v-346h-48zM148 582l95 151h75l-139 -151h-31z" />
    <glyph glyph-name="Rcommaaccent" unicode="&#x156;" horiz-adv-x="663" 
d="M99 0v740h241q120 0 184.5 -50t64.5 -142q0 -165 -181 -195l191 -353h-58l-188 347h-204v-347h-50zM149 392h187q101 0 152 35.5t51 118.5q0 78 -51.5 113t-152.5 35h-186v-302zM304 -224l20 97h-26v77h67v-71l-39 -103h-22z" />
    <glyph glyph-name="rcommaaccent" unicode="&#x157;" horiz-adv-x="388" 
d="M84 0v525h48v-110h2q77 121 216 121h14l-8 -45h-17q-67 0 -121 -37.5t-86 -107.5v-346h-48zM81 -224l20 97h-26v77h67v-71l-39 -103h-22z" />
    <glyph glyph-name="Rcaron" unicode="&#x158;" horiz-adv-x="663" 
d="M99 0v740h241q120 0 184.5 -50t64.5 -142q0 -165 -181 -195l191 -353h-58l-188 347h-204v-347h-50zM149 392h187q101 0 152 35.5t51 118.5q0 78 -51.5 113t-152.5 35h-186v-302zM311 787l-129 156h33l117 -104l117 104h31l-129 -156h-40z" />
    <glyph glyph-name="rcaron" unicode="&#x159;" horiz-adv-x="388" 
d="M84 0v525h48v-110h2q77 121 216 121h14l-8 -45h-17q-67 0 -121 -37.5t-86 -107.5v-346h-48zM174 582l-129 156h33l117 -104l117 104h31l-129 -156h-40z" />
    <glyph glyph-name="Sacute" unicode="&#x15a;" horiz-adv-x="639" 
d="M325 -14q-101 0 -170 53t-92 146l49 12q21 -82 77 -124t138 -42q90 0 143 40.5t53 107.5q0 64 -40.5 102t-164.5 78q-130 42 -181.5 86t-51.5 126q0 76 63 129.5t159 53.5q98 0 159.5 -46.5t85.5 -127.5l-48 -14q-26 76 -74.5 109.5t-123.5 33.5q-77 0 -124 -39t-47 -96
q0 -65 43 -98t174 -76q122 -40 171.5 -87.5t49.5 -130.5q0 -90 -71 -143t-177 -53zM273 787l95 151h75l-139 -151h-31z" />
    <glyph glyph-name="sacute" unicode="&#x15b;" horiz-adv-x="500" 
d="M245 -9q-130 0 -197 97l35 27q64 -82 163 -82q73 0 111.5 27.5t38.5 76.5q0 48 -33.5 73t-122.5 46q-100 25 -138.5 57t-38.5 92q0 54 46 92.5t127 38.5q112 0 186 -77l-32 -33q-63 68 -155 68q-61 0 -92.5 -25.5t-31.5 -61.5q0 -41 28 -63t105 -41q114 -28 157 -62.5
t43 -103.5q0 -67 -55 -106.5t-144 -39.5zM204 582l95 151h75l-139 -151h-31z" />
    <glyph glyph-name="Scircumflex" unicode="&#x15c;" horiz-adv-x="639" 
d="M325 -14q-101 0 -170 53t-92 146l49 12q21 -82 77 -124t138 -42q90 0 143 40.5t53 107.5q0 64 -40.5 102t-164.5 78q-130 42 -181.5 86t-51.5 126q0 76 63 129.5t159 53.5q98 0 159.5 -46.5t85.5 -127.5l-48 -14q-26 76 -74.5 109.5t-123.5 33.5q-77 0 -124 -39t-47 -96
q0 -65 43 -98t174 -76q122 -40 171.5 -87.5t49.5 -130.5q0 -90 -71 -143t-177 -53zM170 782l129 156h40l129 -156h-33l-117 104l-117 -104h-31z" />
    <glyph glyph-name="scircumflex" unicode="&#x15d;" horiz-adv-x="500" 
d="M245 -9q-130 0 -197 97l35 27q64 -82 163 -82q73 0 111.5 27.5t38.5 76.5q0 48 -33.5 73t-122.5 46q-100 25 -138.5 57t-38.5 92q0 54 46 92.5t127 38.5q112 0 186 -77l-32 -33q-63 68 -155 68q-61 0 -92.5 -25.5t-31.5 -61.5q0 -41 28 -63t105 -41q114 -28 157 -62.5
t43 -103.5q0 -67 -55 -106.5t-144 -39.5zM82 577l129 156h40l129 -156h-33l-117 104l-117 -104h-31z" />
    <glyph glyph-name="Scedilla" unicode="&#x15e;" horiz-adv-x="639" 
d="M317 -193q-63 0 -118 36l16 25q45 -30 96 -30q80 0 80 51q0 37 -44 37q-28 0 -55 -21l-25 12l21 71q-87 9 -145.5 61t-79.5 136l49 12q21 -82 77 -124t138 -42q90 0 143 40.5t53 107.5q0 64 -40.5 102t-164.5 78q-130 42 -181.5 86t-51.5 126q0 76 63 129.5t159 53.5
q98 0 159.5 -46.5t85.5 -127.5l-48 -14q-26 76 -74.5 109.5t-123.5 33.5q-77 0 -124 -39t-47 -96q0 -65 43 -98t174 -76q122 -40 171.5 -87.5t49.5 -130.5q0 -90 -71 -143t-177 -53h-1l-12 -42q23 15 52 15t49.5 -17.5t20.5 -49.5q0 -44 -32.5 -64.5t-84.5 -20.5z" />
    <glyph glyph-name="scedilla" unicode="&#x15f;" horiz-adv-x="500" 
d="M248 -193q-63 0 -118 36l16 25q45 -30 96 -30q80 0 80 51q0 37 -44 37q-28 0 -55 -21l-25 12l22 75q-113 10 -172 96l35 27q64 -82 163 -82q73 0 111.5 27.5t38.5 76.5q0 48 -33.5 73t-122.5 46q-100 25 -138.5 57t-38.5 92q0 54 46 92.5t127 38.5q112 0 186 -77l-32 -33
q-63 68 -155 68q-61 0 -92.5 -25.5t-31.5 -61.5q0 -41 28 -63t105 -41q114 -28 157 -62.5t43 -103.5q0 -65 -51 -104t-136 -42l-14 -47q23 15 52 15t49.5 -17.5t20.5 -49.5q0 -44 -32.5 -64.5t-84.5 -20.5z" />
    <glyph glyph-name="Scaron" unicode="&#x160;" horiz-adv-x="639" 
d="M325 -14q-101 0 -170 53t-92 146l49 12q21 -82 77 -124t138 -42q90 0 143 40.5t53 107.5q0 64 -40.5 102t-164.5 78q-130 42 -181.5 86t-51.5 126q0 76 63 129.5t159 53.5q98 0 159.5 -46.5t85.5 -127.5l-48 -14q-26 76 -74.5 109.5t-123.5 33.5q-77 0 -124 -39t-47 -96
q0 -65 43 -98t174 -76q122 -40 171.5 -87.5t49.5 -130.5q0 -90 -71 -143t-177 -53zM299 797l-129 156h33l117 -104l117 104h31l-129 -156h-40z" />
    <glyph glyph-name="scaron" unicode="&#x161;" horiz-adv-x="500" 
d="M245 -9q-130 0 -197 97l35 27q64 -82 163 -82q73 0 111.5 27.5t38.5 76.5q0 48 -33.5 73t-122.5 46q-100 25 -138.5 57t-38.5 92q0 54 46 92.5t127 38.5q112 0 186 -77l-32 -33q-63 68 -155 68q-61 0 -92.5 -25.5t-31.5 -61.5q0 -41 28 -63t105 -41q114 -28 157 -62.5
t43 -103.5q0 -67 -55 -106.5t-144 -39.5zM230 582l-129 156h33l117 -104l117 104h31l-129 -156h-40z" />
    <glyph glyph-name="Tcommaaccent" unicode="&#x162;" horiz-adv-x="610" 
d="M280 0v694h-243v46h536v-46h-243v-694h-50zM278 -224l20 97h-26v77h67v-71l-39 -103h-22z" />
    <glyph glyph-name="Tcommaaccent" unicode="&#x21a;" horiz-adv-x="610" 
d="M280 0v694h-243v46h536v-46h-243v-694h-50zM278 -224l20 97h-26v77h67v-71l-39 -103h-22z" />
    <glyph glyph-name="tcommaaccent" unicode="&#x163;" horiz-adv-x="350" 
d="M247 -7q-66 0 -97.5 29t-31.5 95v365h-92v43h92v191h48v-191h137v-43h-137v-358q0 -45 19 -66.5t66 -21.5q34 0 55 7v-45q-28 -5 -59 -5zM124 -224l20 97h-26v77h67v-71l-39 -103h-22z" />
    <glyph glyph-name="tcommaaccent" unicode="&#x21b;" horiz-adv-x="350" 
d="M247 -7q-66 0 -97.5 29t-31.5 95v365h-92v43h92v191h48v-191h137v-43h-137v-358q0 -45 19 -66.5t66 -21.5q34 0 55 7v-45q-28 -5 -59 -5zM124 -224l20 97h-26v77h67v-71l-39 -103h-22z" />
    <glyph glyph-name="Tcaron" unicode="&#x164;" horiz-adv-x="610" 
d="M280 0v694h-243v46h536v-46h-243v-694h-50zM285 787l-129 156h33l117 -104l117 104h31l-129 -156h-40z" />
    <glyph glyph-name="tcaron" unicode="&#x165;" horiz-adv-x="350" 
d="M245 613l20 97h-26v77h67v-71l-39 -103h-22zM247 -7q-66 0 -97.5 29t-31.5 95v365h-92v43h92v191h48v-191h137v-43h-137v-358q0 -45 19 -66.5t66 -21.5q34 0 55 7v-45q-28 -5 -59 -5z" />
    <glyph glyph-name="Tbar" unicode="&#x166;" horiz-adv-x="610" 
d="M37 354v46h243v294h-243v46h536v-46h-243v-294h242v-46h-242v-354h-50v354h-243z" />
    <glyph glyph-name="tbar" unicode="&#x167;" horiz-adv-x="350" 
d="M26 255v43h92v184h-92v43h92v191h48v-191h137v-43h-137v-184h137v-43h-137v-131q0 -45 19 -66.5t66 -21.5q34 0 55 7v-45q-28 -5 -59 -5q-66 0 -97.5 29t-31.5 95v138h-92z" />
    <glyph glyph-name="Utilde" unicode="&#x168;" horiz-adv-x="713" 
d="M356 -14q-125 0 -193.5 73.5t-68.5 182.5v498h50v-486q0 -99 53.5 -161t159.5 -62q105 0 158.5 61t53.5 160v488h50v-495q0 -110 -69 -184.5t-194 -74.5zM429 785q-27 0 -78 28t-70 28q-22 0 -31.5 -12.5t-9.5 -41.5h-34q0 99 77 99q27 0 78 -28t70 -28q22 0 31.5 12.5
t9.5 41.5h34q0 -99 -77 -99z" />
    <glyph glyph-name="utilde" unicode="&#x169;" horiz-adv-x="573" 
d="M238 -11q-80 0 -119.5 41t-39.5 114v381h48v-375q0 -61 28 -90t87 -29q94 0 199 100v394h48v-525h-48v87q-103 -98 -203 -98zM361 580q-27 0 -78 28t-70 28q-22 0 -31.5 -12.5t-9.5 -41.5h-34q0 99 77 99q27 0 78 -28t70 -28q22 0 31.5 12.5t9.5 41.5h34q0 -99 -77 -99z
" />
    <glyph glyph-name="Umacron" unicode="&#x16a;" horiz-adv-x="713" 
d="M356 -14q-125 0 -193.5 73.5t-68.5 182.5v498h50v-486q0 -99 53.5 -161t159.5 -62q105 0 158.5 61t53.5 160v488h50v-495q0 -110 -69 -184.5t-194 -74.5zM240 787v46h232v-46h-232z" />
    <glyph glyph-name="umacron" unicode="&#x16b;" horiz-adv-x="573" 
d="M238 -11q-80 0 -119.5 41t-39.5 114v381h48v-375q0 -61 28 -90t87 -29q94 0 199 100v394h48v-525h-48v87q-103 -98 -203 -98zM170 582v46h232v-46h-232z" />
    <glyph glyph-name="Ubreve" unicode="&#x16c;" horiz-adv-x="713" 
d="M356 -14q-125 0 -193.5 73.5t-68.5 182.5v498h50v-486q0 -99 53.5 -161t159.5 -62q105 0 158.5 61t53.5 160v488h50v-495q0 -110 -69 -184.5t-194 -74.5zM356 784q-62 0 -101 42.5t-43 116.5h34q13 -114 110 -114t110 114h34q-4 -74 -43 -116.5t-101 -42.5z" />
    <glyph glyph-name="ubreve" unicode="&#x16d;" horiz-adv-x="573" 
d="M238 -11q-80 0 -119.5 41t-39.5 114v381h48v-375q0 -61 28 -90t87 -29q94 0 199 100v394h48v-525h-48v87q-103 -98 -203 -98zM286 579q-62 0 -101 42.5t-43 116.5h34q13 -114 110 -114t110 114h34q-4 -74 -43 -116.5t-101 -42.5z" />
    <glyph glyph-name="Uring" unicode="&#x16e;" horiz-adv-x="713" 
d="M356 -14q-125 0 -193.5 73.5t-68.5 182.5v498h50v-486q0 -99 53.5 -161t159.5 -62q105 0 158.5 61t53.5 160v488h50v-495q0 -110 -69 -184.5t-194 -74.5zM356 780q-38 0 -62.5 25t-24.5 62t25 61.5t62 24.5t62 -24.5t25 -61.5t-24.5 -62t-62.5 -25zM356 809
q24 0 39.5 16.5t15.5 41.5t-15.5 41t-39.5 16t-39.5 -16t-15.5 -41t15.5 -41.5t39.5 -16.5z" />
    <glyph glyph-name="uring" unicode="&#x16f;" horiz-adv-x="573" 
d="M238 -11q-80 0 -119.5 41t-39.5 114v381h48v-375q0 -61 28 -90t87 -29q94 0 199 100v394h48v-525h-48v87q-103 -98 -203 -98zM286 575q-38 0 -62.5 24.5t-24.5 62.5q0 37 25 61.5t62 24.5t62 -24.5t25 -61.5q0 -38 -24.5 -62.5t-62.5 -24.5zM286 604q24 0 39.5 16.5
t15.5 41.5t-15.5 41t-39.5 16t-39.5 -16t-15.5 -41t15.5 -41.5t39.5 -16.5z" />
    <glyph glyph-name="Uhungarumlaut" unicode="&#x170;" horiz-adv-x="713" 
d="M356 -14q-125 0 -193.5 73.5t-68.5 182.5v498h50v-486q0 -99 53.5 -161t159.5 -62q105 0 158.5 61t53.5 160v488h50v-495q0 -110 -69 -184.5t-194 -74.5zM236 787l93 151h77l-137 -151h-33zM390 787l93 151h77l-137 -151h-33z" />
    <glyph glyph-name="uhungarumlaut" unicode="&#x171;" horiz-adv-x="573" 
d="M238 -11q-80 0 -119.5 41t-39.5 114v381h48v-375q0 -61 28 -90t87 -29q94 0 199 100v394h48v-525h-48v87q-103 -98 -203 -98zM166 582l93 151h77l-137 -151h-33zM320 582l93 151h77l-137 -151h-33z" />
    <glyph glyph-name="Uogonek" unicode="&#x172;" horiz-adv-x="713" 
d="M361 -187q-41 0 -65 20.5t-24 56.5q0 48 61 97q-115 7 -177 79t-62 176v498h50v-486q0 -99 53.5 -161t159.5 -62q105 0 158.5 61t53.5 160v488h50v-495q0 -107 -64.5 -180.5t-182.5 -78.5q-53 -43 -53 -89q0 -50 53 -50q44 0 98 24l11 -21q-67 -37 -120 -37z" />
    <glyph glyph-name="uogonek" unicode="&#x173;" horiz-adv-x="573" 
d="M238 -11q-80 0 -119.5 41t-39.5 114v381h48v-375q0 -61 28 -90t87 -29q94 0 199 100v394h48v-525h-14q-71 -51 -71 -103q0 -50 53 -50q44 0 98 24l11 -21q-67 -37 -120 -37q-41 0 -65 20.5t-24 56.5q0 58 84 113v84q-103 -98 -203 -98z" />
    <glyph glyph-name="Wcircumflex" unicode="&#x174;" horiz-adv-x="918" 
d="M241 0l-197 740h51l124 -475q22 -84 47 -191h2q18 87 45 190l118 476h58l119 -480q38 -154 44 -186h2q10 46 45 182l126 484h49l-197 -740h-51l-166 671h-2l-167 -671h-50zM310 782l129 156h40l129 -156h-33l-117 104l-117 -104h-31z" />
    <glyph glyph-name="wcircumflex" unicode="&#x175;" horiz-adv-x="741" 
d="M196 0l-163 525h51l81 -276l52 -183h2q27 103 50 182l78 277h49l79 -283q22 -77 48 -176h2q36 128 50 174l84 285h49l-163 -525h-45l-128 458h-2l-130 -458h-44zM221 577l129 156h40l129 -156h-33l-117 104l-117 -104h-31z" />
    <glyph glyph-name="Ycircumflex" unicode="&#x176;" horiz-adv-x="601" 
d="M275 0v329l-246 411h56l217 -368l216 368h54l-247 -411v-329h-50zM151 782l129 156h40l129 -156h-33l-117 104l-117 -104h-31z" />
    <glyph glyph-name="ycircumflex" unicode="&#x177;" horiz-adv-x="519" 
d="M87 -200q-42 0 -72 9l12 40q26 -7 66 -7q46 0 73 21t45 69l25 65l-204 528h53l174 -467h2l174 467h52l-227 -587q-29 -75 -65 -106.5t-108 -31.5zM111 577l129 156h40l129 -156h-33l-117 104l-117 -104h-31z" />
    <glyph glyph-name="Ydieresis" unicode="&#x178;" horiz-adv-x="601" 
d="M275 0v329l-246 411h56l217 -368l216 368h54l-247 -411v-329h-50zM352 787v67h64v-67h-64zM184 787v67h64v-67h-64z" />
    <glyph glyph-name="Zacute" unicode="&#x179;" horiz-adv-x="615" 
d="M45 0v37l457 660h-427v43h486v-37l-457 -660h457v-43h-516zM258 787l95 151h75l-139 -151h-31z" />
    <glyph glyph-name="zacute" unicode="&#x17a;" horiz-adv-x="500" 
d="M44 0v33l335 450h-308v42h370v-33l-336 -450h348v-42h-409zM204 582l95 151h75l-139 -151h-31z" />
    <glyph glyph-name="Zdotaccent" unicode="&#x17b;" horiz-adv-x="615" 
d="M45 0v37l457 660h-427v43h486v-37l-457 -660h457v-43h-516zM274 787v69h66v-69h-66z" />
    <glyph glyph-name="zdotaccent" unicode="&#x17c;" horiz-adv-x="500" 
d="M44 0v33l335 450h-308v42h370v-33l-336 -450h348v-42h-409zM217 582v69h66v-69h-66z" />
    <glyph glyph-name="Zcaron" unicode="&#x17d;" horiz-adv-x="615" 
d="M45 0v37l457 660h-427v43h486v-37l-457 -660h457v-43h-516zM287 797l-129 156h33l117 -104l117 104h31l-129 -156h-40z" />
    <glyph glyph-name="zcaron" unicode="&#x17e;" horiz-adv-x="500" 
d="M44 0v33l335 450h-308v42h370v-33l-336 -450h348v-42h-409zM230 582l-129 156h33l117 -104l117 104h31l-129 -156h-40z" />
    <glyph glyph-name="longs" unicode="&#x17f;" horiz-adv-x="313" 
d="M120 0v614q0 126 144 126h26v-44q-8 1 -32 1q-90 0 -90 -79v-618h-48z" />
    <glyph glyph-name="florin" unicode="&#x192;" horiz-adv-x="313" 
d="M-97 -200l7 44q7 -1 31 -1q91 0 102 79l71 500h-92l6 43h92l20 149q18 126 162 126h26l-7 -44q-7 1 -31 1q-91 0 -102 -79l-20 -153h116l-6 -43h-116l-71 -496q-18 -126 -162 -126h-26z" />
    <glyph glyph-name="Aringacute" unicode="&#x1fa;" horiz-adv-x="663" 
d="M40 0l255 723q-23 10 -37 31t-14 49q0 37 25 61.5t62 24.5t62 -24.5t25 -61.5q0 -57 -50 -79l255 -724h-53l-86 248h-307l-86 -248h-51zM193 293h275l-137 394h-2zM331 745q24 0 39.5 16.5t15.5 41.5t-15.5 41t-39.5 16t-39.5 -16t-15.5 -41t15.5 -41.5t39.5 -16.5z
M318 917l95 151h75l-139 -151h-31z" />
    <glyph glyph-name="aringacute" unicode="&#x1fb;" horiz-adv-x="540" 
d="M252 787l95 151h75l-139 -151h-31zM201 -9q-71 0 -109.5 34.5t-38.5 95.5q0 80 81.5 134t279.5 87v32q0 59 -29.5 89.5t-84.5 30.5q-61 0 -108.5 -22t-95.5 -65l-28 30q53 49 107.5 74t125.5 25q80 0 120.5 -42t40.5 -117v-247q0 -93 15 -130h-51q-12 38 -12 78
q-101 -87 -213 -87zM205 33q114 0 209 92v181q-179 -31 -246 -75.5t-67 -106.5q0 -44 27.5 -67.5t76.5 -23.5zM287 575q-37 0 -62 24.5t-25 62.5q0 37 25 61.5t62 24.5t62 -24.5t25 -61.5q0 -38 -25 -62.5t-62 -24.5zM287 604q24 0 39.5 16.5t15.5 41.5t-15.5 41t-39.5 16
t-39.5 -16t-15.5 -41t15.5 -41.5t39.5 -16.5z" />
    <glyph glyph-name="AEacute" unicode="&#x1fc;" horiz-adv-x="978" 
d="M30 0l421 740h457v-46h-378v-278h284v-46h-284v-324h400v-46h-450v248h-258l-141 -248h-51zM248 293h232v408h-1zM413 787l95 151h75l-139 -151h-31z" />
    <glyph glyph-name="aeacute" unicode="&#x1fd;" horiz-adv-x="893" 
d="M201 -11q-71 0 -109.5 34.5t-38.5 95.5q0 80 81 135.5t278 88.5v31q0 120 -113 120q-61 0 -107.5 -21.5t-95.5 -65.5l-28 30q53 49 107 74t125 25q129 0 150 -118q27 53 74.5 85.5t107.5 32.5q94 0 150.5 -73t56.5 -196v-7h-381q0 -104 50 -166.5t125 -62.5q59 0 97.5 27
t70.5 82l35 -22q-70 -129 -206 -129q-57 0 -106 30.5t-79 86.5q-117 -117 -244 -117zM205 31q119 0 224 111q-19 55 -19 121q0 15 2 43q-93 -16 -156 -36.5t-96 -45t-46 -48.5t-13 -54q0 -44 27.5 -67.5t76.5 -23.5zM459 300h330q-6 86 -46 140t-112 54q-65 0 -114 -50.5
t-58 -143.5zM410 582l95 151h75l-139 -151h-31z" />
    <glyph glyph-name="Oslashacute" unicode="&#x1fe;" horiz-adv-x="733" 
d="M592 638q78 -105 78 -268q0 -169 -84.5 -276.5t-218.5 -107.5q-117 0 -199 84l-64 -85l-34 22l71 95q-78 107 -78 268q0 170 85 277t219 107q116 0 198 -84l64 85l34 -22zM172 140l366 491q-69 78 -171 78q-112 0 -183 -91.5t-71 -247.5q0 -139 59 -230zM562 599
l-367 -489q68 -79 172 -79q111 0 182 91.5t71 247.5q0 137 -58 229zM341 787l95 151h75l-139 -151h-31z" />
    <glyph glyph-name="oslashacute" unicode="&#x1ff;" horiz-adv-x="570" 
d="M449 462q67 -77 67 -200t-66 -198t-165 -75q-76 0 -136 47l-47 -67l-32 22l51 72q-67 77 -67 199q0 124 65.5 199t165.5 75q77 0 135 -46l48 68l33 -23zM421 424l-248 -351q47 -42 112 -42q83 0 133 65t50 167q0 97 -47 161zM149 100l247 352q-45 42 -111 42
q-83 0 -133 -65.5t-50 -165.5q0 -98 47 -163zM261 582l95 151h75l-139 -151h-31z" />
    <glyph glyph-name="Scommaaccent" unicode="&#x218;" horiz-adv-x="639" 
d="M325 -14q-101 0 -170 53t-92 146l49 12q21 -82 77 -124t138 -42q90 0 143 40.5t53 107.5q0 64 -40.5 102t-164.5 78q-130 42 -181.5 86t-51.5 126q0 76 63 129.5t159 53.5q98 0 159.5 -46.5t85.5 -127.5l-48 -14q-26 76 -74.5 109.5t-123.5 33.5q-77 0 -124 -39t-47 -96
q0 -65 43 -98t174 -76q122 -40 171.5 -87.5t49.5 -130.5q0 -90 -71 -143t-177 -53zM292 -224l20 97h-26v77h67v-71l-39 -103h-22z" />
    <glyph glyph-name="scommaaccent" unicode="&#x219;" horiz-adv-x="500" 
d="M245 -9q-130 0 -197 97l35 27q64 -82 163 -82q73 0 111.5 27.5t38.5 76.5q0 48 -33.5 73t-122.5 46q-100 25 -138.5 57t-38.5 92q0 54 46 92.5t127 38.5q112 0 186 -77l-32 -33q-63 68 -155 68q-61 0 -92.5 -25.5t-31.5 -61.5q0 -41 28 -63t105 -41q114 -28 157 -62.5
t43 -103.5q0 -67 -55 -106.5t-144 -39.5zM223 -224l20 97h-26v77h67v-71l-39 -103h-22z" />
    <glyph glyph-name="schwa" unicode="&#x259;" horiz-adv-x="539" 
d="M264 536q92 0 156.5 -74.5t64.5 -199.5q0 -129 -66 -201t-157 -72q-94 0 -151 73t-57 196v7h383q0 104 -50.5 166.5t-125.5 62.5q-59 0 -98 -27t-71 -82l-35 22q70 129 207 129zM436 225h-332q6 -86 46.5 -140t112.5 -54q65 0 114.5 50.5t58.5 143.5z" />
    <glyph glyph-name="circumflex" unicode="&#x2c6;" horiz-adv-x="500" 
d="M101 577l129 156h40l129 -156h-33l-117 104l-117 -104h-31z" />
    <glyph glyph-name="caron" unicode="&#x2c7;" horiz-adv-x="500" 
d="M230 582l-129 156h33l117 -104l117 104h31l-129 -156h-40z" />
    <glyph glyph-name="breve" unicode="&#x2d8;" horiz-adv-x="500" 
d="M250 579q-62 0 -101 42.5t-43 116.5h34q13 -114 110 -114t110 114h34q-4 -74 -43 -116.5t-101 -42.5z" />
    <glyph glyph-name="dotaccent" unicode="&#x2d9;" horiz-adv-x="500" 
d="M217 582v69h66v-69h-66z" />
    <glyph glyph-name="ring" unicode="&#x2da;" horiz-adv-x="540" 
d="M270 575q-38 0 -62.5 24.5t-24.5 62.5q0 37 25 61.5t62 24.5t62 -24.5t25 -61.5q0 -38 -24.5 -62.5t-62.5 -24.5zM270 604q24 0 39.5 16.5t15.5 41.5t-15.5 41t-39.5 16t-39.5 -16t-15.5 -41t15.5 -41.5t39.5 -16.5z" />
    <glyph glyph-name="ogonek" unicode="&#x2db;" horiz-adv-x="500" 
d="M245 -187q-41 0 -65 20.5t-24 56.5q0 59 87 115h38q-78 -53 -78 -108q0 -50 53 -50q44 0 98 24l11 -21q-67 -37 -120 -37z" />
    <glyph glyph-name="tilde" unicode="&#x2dc;" horiz-adv-x="500" 
d="M323 580q-27 0 -78 28t-70 28q-22 0 -31.5 -12.5t-9.5 -41.5h-34q0 99 77 99q27 0 78 -28t70 -28q22 0 31.5 12.5t9.5 41.5h34q0 -99 -77 -99z" />
    <glyph glyph-name="hungarumlaut" unicode="&#x2dd;" horiz-adv-x="500" 
d="M90 582l93 151h77l-137 -151h-33zM244 582l93 151h77l-137 -151h-33z" />
    <glyph glyph-name="commaaccent" unicode="&#x326;" horiz-adv-x="265" 
d="M105 -224l20 97h-26v77h67v-71l-39 -103h-22z" />
    <glyph glyph-name="tonos" unicode="&#x384;" horiz-adv-x="500" 
d="M187 582l66 162h61l-95 -162h-32z" />
    <glyph glyph-name="dieresistonos" unicode="&#x385;" horiz-adv-x="506" 
d="M114 582v70h51v-70h-51zM342 582v70h51v-70h-51zM210 582l66 162h61l-95 -162h-32z" />
    <glyph glyph-name="Alphatonos" unicode="&#x386;" horiz-adv-x="663" 
d="M40 0l262 743h59l262 -743h-53l-86 248h-307l-86 -248h-51zM193 293h275l-137 394h-2zM23 578l66 162h61l-95 -162h-32z" />
    <glyph glyph-name="Epsilontonos" unicode="&#x388;" horiz-adv-x="700" 
d="M202 0v740h428v-46h-378v-278h284v-46h-284v-324h400v-46h-450zM-17 578l66 162h61l-95 -162h-32z" />
    <glyph glyph-name="Etatonos" unicode="&#x389;" horiz-adv-x="827" 
d="M-17 578l66 162h61l-95 -162h-32zM202 0v740h50v-325h426v325h50v-740h-50v369h-426v-369h-50z" />
    <glyph glyph-name="Iotatonos" unicode="&#x38a;" horiz-adv-x="373" 
d="M213 0v740h50v-740h-50zM-17 578l66 162h61l-95 -162h-32z" />
    <glyph glyph-name="Omicrontonos" unicode="&#x38c;" horiz-adv-x="812" 
d="M-17 578l66 162h61l-95 -162h-32zM439 -14q-134 0 -219 107t-85 277t85 277t219 107t218.5 -107.5t84.5 -276.5t-84.5 -276.5t-218.5 -107.5zM439 31q111 0 182 91.5t71 247.5t-71 247.5t-182 91.5q-112 0 -183 -91.5t-71 -247.5t71 -247.5t183 -91.5z" />
    <glyph glyph-name="Upsilontonos" unicode="&#x38e;" horiz-adv-x="738" 
d="M412 0v329l-246 411h56l217 -368l216 368h54l-247 -411v-329h-50zM-17 578l66 162h61l-95 -162h-32z" />
    <glyph glyph-name="Omegatonos" unicode="&#x38f;" horiz-adv-x="805" 
d="M438 754q139 0 217.5 -104t78.5 -258q0 -106 -48 -196.5t-129 -150.5h169v-45h-222v45q181 137 181 346q0 139 -66.5 228.5t-181.5 89.5q-112 0 -179 -87t-67 -230q0 -208 181 -347v-45h-222v45h169q-81 58 -129 149t-48 198q0 156 79.5 259t216.5 103zM-17 578l66 162
h61l-95 -162h-32z" />
    <glyph glyph-name="iotadieresistonos" unicode="&#x390;" horiz-adv-x="228" 
d="M90 0v525h48v-525h-48zM71 582l66 162h61l-95 -162h-32zM-25 582v70h51v-70h-51zM203 582v70h51v-70h-51z" />
    <glyph glyph-name="Alpha" unicode="&#x391;" horiz-adv-x="663" 
d="M40 0l262 743h59l262 -743h-53l-86 248h-307l-86 -248h-51zM193 293h275l-137 394h-2z" />
    <glyph glyph-name="Beta" unicode="&#x392;" horiz-adv-x="679" 
d="M99 0v740h248q126 0 187 -50t61 -137q0 -70 -40.5 -113.5t-102.5 -57.5v-2q74 -14 121.5 -60t47.5 -120q0 -89 -61.5 -144.5t-188.5 -55.5h-272zM149 46h225q197 0 197 154q0 79 -59 118.5t-163 39.5h-200v-312zM149 403h194q97 0 149.5 37t52.5 110q0 74 -48 109
t-151 35h-197v-291z" />
    <glyph glyph-name="Gamma" unicode="&#x393;" horiz-adv-x="560" 
d="M149 694v-694h-50v740h421v-46h-371z" />
    <glyph glyph-name="uni0394" unicode="&#x394;" horiz-adv-x="663" 
d="M40 0l262 743h59l262 -743h-583zM107 45h447l-223 642h-2z" />
    <glyph glyph-name="Epsilon" unicode="&#x395;" horiz-adv-x="597" 
d="M99 0v740h428v-46h-378v-278h284v-46h-284v-324h400v-46h-450z" />
    <glyph glyph-name="Zeta" unicode="&#x396;" horiz-adv-x="615" 
d="M45 0v37l457 660h-427v43h486v-37l-457 -660h457v-43h-516z" />
    <glyph glyph-name="Eta" unicode="&#x397;" horiz-adv-x="724" 
d="M99 0v740h50v-325h426v325h50v-740h-50v369h-426v-369h-50z" />
    <glyph glyph-name="Theta" unicode="&#x398;" horiz-adv-x="740" 
d="M367 -14q-134 0 -219 107t-85 277t85 277t219 107t218.5 -107.5t84.5 -276.5t-84.5 -276.5t-218.5 -107.5zM367 31q111 0 182 91.5t71 247.5t-71 247.5t-182 91.5q-112 0 -183 -91.5t-71 -247.5t71 -247.5t183 -91.5zM264 350v48h217v-48h-217z" />
    <glyph glyph-name="Iota" unicode="&#x399;" horiz-adv-x="270" 
d="M110 0v740h50v-740h-50z" />
    <glyph glyph-name="Kappa" unicode="&#x39a;" horiz-adv-x="657" 
d="M99 0v740h50v-420l379 420h63l-255 -278l295 -462h-59l-271 423l-152 -166v-257h-50z" />
    <glyph glyph-name="Lambda" unicode="&#x39b;" 
d="M348 743l262 -743h-52l-233 673h-2l-233 -673h-50l262 743h46z" />
    <glyph glyph-name="Mu" unicode="&#x39c;" horiz-adv-x="863" 
d="M99 0v740h64l267 -672h2l268 672h64v-740h-51v647h-2l-47 -122l-211 -525h-46l-211 525q-41 105 -47 122h-2v-647h-48z" />
    <glyph glyph-name="Nu" unicode="&#x39d;" horiz-adv-x="735" 
d="M99 0v740h57l430 -642h2v642h48v-740h-43l-444 664h-2v-664h-48z" />
    <glyph glyph-name="Xi" unicode="&#x39e;" horiz-adv-x="546" 
d="M502 0h-458v45h204v325h-133v46h133v278h-196v46h441v-46h-195v-278h133v-46h-133v-325h204v-45z" />
    <glyph glyph-name="Omicron" unicode="&#x39f;" horiz-adv-x="740" 
d="M367 -14q-134 0 -219 107t-85 277t85 277t219 107t218.5 -107.5t84.5 -276.5t-84.5 -276.5t-218.5 -107.5zM367 31q111 0 182 91.5t71 247.5t-71 247.5t-182 91.5q-112 0 -183 -91.5t-71 -247.5t71 -247.5t183 -91.5z" />
    <glyph glyph-name="Pi" unicode="&#x3a0;" horiz-adv-x="719" 
d="M99 0v740h521v-740h-49v694h-422v-694h-50z" />
    <glyph glyph-name="Rho" unicode="&#x3a1;" horiz-adv-x="635" 
d="M99 0v740h241q120 0 184.5 -50t64.5 -142q0 -101 -67.5 -151.5t-189.5 -50.5h-183v-346h-50zM149 392h187q101 0 152 35.5t51 118.5q0 78 -51.5 113t-152.5 35h-186v-302z" />
    <glyph glyph-name="Sigma" unicode="&#x3a3;" horiz-adv-x="586" 
d="M362 386l-245 -341h409v-45h-468v40l247 344l-234 311v45h445v-46h-389z" />
    <glyph glyph-name="Tau" unicode="&#x3a4;" horiz-adv-x="610" 
d="M280 0v694h-243v46h536v-46h-243v-694h-50z" />
    <glyph glyph-name="Upsilon" unicode="&#x3a5;" horiz-adv-x="601" 
d="M275 0v329l-246 411h56l217 -368l216 368h54l-247 -411v-329h-50z" />
    <glyph glyph-name="Phi" unicode="&#x3a6;" horiz-adv-x="800" 
d="M424 740v-84q144 -5 229 -78t85 -199q0 -127 -85 -199t-229 -79v-101h-49v101q-145 7 -229.5 79t-84.5 198q0 128 85.5 200.5t228.5 77.5v84h49zM424 613v-469q121 5 193 65t72 170q0 111 -72.5 170.5t-192.5 63.5zM375 144v469q-120 -4 -192.5 -65.5t-72.5 -168.5
q0 -110 71.5 -169.5t193.5 -65.5z" />
    <glyph glyph-name="Chi" unicode="&#x3a7;" horiz-adv-x="642" 
d="M32 0l263 398l-227 342h58l196 -302l197 302h55l-226 -341l262 -399h-53l-236 360l-238 -360h-51z" />
    <glyph glyph-name="Psi" unicode="&#x3a8;" horiz-adv-x="711" 
d="M643 740v-292q0 -70 -23 -121.5t-62.5 -79.5t-83 -41.5t-93.5 -15.5v-190h-50v190q-50 2 -93.5 15.5t-83 41.5t-62.5 79.5t-23 121.5v292h50v-292q0 -104 57 -156.5t155 -56.5v505h50v-505q99 5 155.5 56.5t56.5 156.5v292h50z" />
    <glyph glyph-name="uni03A9" unicode="&#x3a9;" horiz-adv-x="734" 
d="M367 754q139 0 217.5 -104t78.5 -258q0 -106 -48 -196.5t-129 -150.5h169v-45h-222v45q181 137 181 346q0 139 -66.5 228.5t-181.5 89.5q-112 0 -179 -87t-67 -230q0 -208 181 -347v-45h-222v45h169q-81 58 -129 149t-48 198q0 156 79.5 259t216.5 103z" />
    <glyph glyph-name="Iotadieresis" unicode="&#x3aa;" horiz-adv-x="260" 
d="M110 0v740h50v-740h-50zM187 787v67h64v-67h-64zM19 787v67h64v-67h-64z" />
    <glyph glyph-name="Upsilondieresis" unicode="&#x3ab;" horiz-adv-x="614" 
d="M275 0v329l-246 411h56l217 -368l216 368h54l-247 -411v-329h-50zM352 787v67h64v-67h-64zM184 787v67h64v-67h-64z" />
    <glyph glyph-name="alphatonos" unicode="&#x3ac;" horiz-adv-x="586" 
d="M275 -9q-96 0 -158 69.5t-62 201.5t62.5 203t159.5 71q89 0 177 -86v75h48v-525h-48v79q-84 -88 -179 -88zM276 33q50 0 90 22.5t88 71.5v273q-92 94 -180 94q-74 0 -122.5 -58.5t-48.5 -172.5q0 -113 49.5 -171.5t123.5 -58.5zM265 582l66 162h61l-95 -162h-32z" />
    <glyph glyph-name="epsilontonos" unicode="&#x3ad;" horiz-adv-x="510" 
d="M245 582l66 162h61l-95 -162h-32zM436 85l21 -35q-91 -61 -203 -61q-101 0 -150.5 41t-49.5 108q0 58 36.5 95.5t88.5 46.5q-47 8 -74 40.5t-27 74.5q0 63 50 102t136 39q118 0 182 -45l-21 -38q-58 41 -157 41q-69 0 -105.5 -28t-36.5 -75t36.5 -70t97.5 -23h96v-40
h-123q-54 0 -92.5 -29t-38.5 -85q0 -113 158 -113q92 0 176 54z" />
    <glyph glyph-name="etatonos" unicode="&#x3ae;" horiz-adv-x="573" 
d="M277 582l66 162h61l-95 -162h-32zM84 0v525h48v-87q103 98 203 98q80 0 119.5 -41t39.5 -114v-581h-48v575q0 61 -28 90t-87 29q-94 0 -199 -100v-394h-48z" />
    <glyph glyph-name="iotatonos" unicode="&#x3af;" horiz-adv-x="228" 
d="M90 0v525h48v-525h-48zM95 582l66 162h61l-95 -162h-32z" />
    <glyph glyph-name="upsilondieresistonos" unicode="&#x3b0;" horiz-adv-x="562" 
d="M142 582v70h51v-70h-51zM370 582v70h51v-70h-51zM238 582l66 162h61l-95 -162h-32zM280 32q82 0 120 46.5t38 143.5v303h48v-304q0 -232 -206 -232q-111 0 -157.5 61t-46.5 171v304h48v-303q0 -95 36 -142.5t120 -47.5z" />
    <glyph glyph-name="alpha" unicode="&#x3b1;" horiz-adv-x="586" 
d="M275 -9q-96 0 -158 69.5t-62 201.5t62.5 203t159.5 71q89 0 177 -86v75h48v-525h-48v79q-84 -88 -179 -88zM276 33q50 0 90 22.5t88 71.5v273q-92 94 -180 94q-74 0 -122.5 -58.5t-48.5 -172.5q0 -113 49.5 -171.5t123.5 -58.5z" />
    <glyph glyph-name="beta" unicode="&#x3b2;" horiz-adv-x="597" 
d="M354 -11q-89 0 -141 55l31 31q46 -44 113 -44q61 0 98.5 47t37.5 128q0 96 -59.5 141t-180.5 50v40q87 1 131.5 38.5t44.5 96.5q0 60 -39.5 93t-107.5 33q-72 0 -111 -44.5t-39 -127.5v-726h-48v722q0 102 52.5 160t146.5 58q88 0 141 -44t53 -123q0 -56 -33.5 -97
t-95.5 -57q88 -12 140.5 -63t52.5 -147q0 -99 -50.5 -159.5t-136.5 -60.5z" />
    <glyph glyph-name="gamma" unicode="&#x3b3;" horiz-adv-x="502" 
d="M227 -200v197l-195 528h53l166 -465h2l165 465h52l-195 -528v-197h-48z" />
    <glyph glyph-name="delta" unicode="&#x3b4;" horiz-adv-x="570" 
d="M516 264q0 -125 -66 -200t-163 -75q-101 0 -167 74.5t-66 199.5q0 111 61 182t165 71q35 0 58 -10q-27 24 -109 96.5t-116 103.5v34h361v-42h-288l206 -183q61 -55 92.5 -114t31.5 -137zM468 263q0 123 -89 203q-31 14 -91 14q-83 0 -135 -59.5t-51 -157.5
q0 -103 50.5 -167.5t134.5 -64.5q81 0 131 64.5t50 167.5z" />
    <glyph glyph-name="epsilon" unicode="&#x3b5;" horiz-adv-x="510" 
d="M436 85l21 -35q-91 -61 -203 -61q-101 0 -150.5 41t-49.5 108q0 58 36.5 95.5t88.5 46.5q-47 8 -74 40.5t-27 74.5q0 63 50 102t136 39q118 0 182 -45l-21 -38q-58 41 -157 41q-69 0 -105.5 -28t-36.5 -75t36.5 -70t97.5 -23h96v-40h-123q-54 0 -92.5 -29t-38.5 -85
q0 -113 158 -113q92 0 176 54z" />
    <glyph glyph-name="zeta" unicode="&#x3b6;" horiz-adv-x="433" 
d="M441 740v-33q-67 -55 -107.5 -91t-90 -87.5t-76.5 -94.5t-46 -97t-19 -109q0 -85 45 -134.5t149 -61.5q68 -8 100 -34.5t32 -77.5q0 -55 -36 -85t-95 -30q-73 0 -127 37l15 28q47 -32 109 -32q42 0 68.5 19.5t26.5 58.5q0 34 -21.5 51.5t-78.5 24.5q-234 26 -234 233
q0 71 24.5 136.5t73.5 126t97 106t120 104.5h-299v42h370z" />
    <glyph glyph-name="eta" unicode="&#x3b7;" horiz-adv-x="573" 
d="M84 0v525h48v-87q103 98 203 98q80 0 119.5 -41t39.5 -114v-581h-48v575q0 61 -28 90t-87 29q-94 0 -199 -100v-394h-48z" />
    <glyph glyph-name="theta" unicode="&#x3b8;" horiz-adv-x="578" 
d="M66 374q0 183 56.5 276.5t163.5 93.5q110 0 167.5 -96t57.5 -274q0 -186 -56.5 -285.5t-169.5 -99.5q-219 0 -219 385zM285 702q-168 0 -170 -310h348q-5 310 -178 310zM285 31q178 0 178 321h-348q1 -162 41 -241.5t129 -79.5z" />
    <glyph glyph-name="iota" unicode="&#x3b9;" horiz-adv-x="228" 
d="M90 0v525h48v-525h-48z" />
    <glyph glyph-name="kappa" unicode="&#x3ba;" horiz-adv-x="517" 
d="M84 0v525h48v-296l271 296h60l-172 -183l195 -342h-54l-175 305l-125 -134v-171h-48z" />
    <glyph glyph-name="lambda" unicode="&#x3bb;" horiz-adv-x="519" 
d="M81 740q72 0 108 -31.5t65 -106.5l233 -602h-52l-174 467h-2l-174 -467h-53l204 528l-31 80q-18 48 -45 69t-73 21q-40 0 -66 -7l-12 40q30 9 72 9z" />
    <glyph glyph-name="uni03BC" unicode="&#x3bc;" horiz-adv-x="578" 
d="M84 -200v725h48v-375q0 -61 28 -90t87 -29q94 0 199 100v394h48v-525h-48v87q-103 -98 -203 -98q-78 0 -111 43v-232h-48z" />
    <glyph glyph-name="nu" unicode="&#x3bd;" horiz-adv-x="502" 
d="M227 -3l-195 528h53l166 -465h2l165 465h52l-195 -528h-48z" />
    <glyph glyph-name="xi" unicode="&#x3be;" horiz-adv-x="433" 
d="M446 699h-163q-118 -25 -118 -127q0 -61 47 -98t129 -37v-40q-240 -7 -240 -186q0 -160 193 -179q67 -7 99 -34t32 -78q0 -55 -36 -85t-95 -30q-74 0 -126 37l15 28q47 -32 109 -32q42 0 68.5 19.5t26.5 58.5q0 34 -22 52t-79 24q-126 14 -179.5 73t-53.5 143
q0 182 193 211q-58 15 -93.5 54.5t-35.5 98.5q0 48 22.5 80.5t54.5 47.5h-122v40h374v-41z" />
    <glyph glyph-name="omicron" unicode="&#x3bf;" horiz-adv-x="570" 
d="M285 -11q-99 0 -165 75t-66 198q0 124 65.5 199t165.5 75q99 0 165 -75t66 -199q0 -123 -66 -198t-165 -75zM285 31q83 0 133 65t50 167q0 97 -49 164t-134 67q-83 0 -133 -65.5t-50 -165.5q0 -98 48.5 -165t134.5 -67z" />
    <glyph glyph-name="pi" unicode="&#x3c0;" horiz-adv-x="633" 
d="M9 486v41h615v-41h-102v-486h-48v486h-315v-486h-47v486h-103z" />
    <glyph glyph-name="rho" unicode="&#x3c1;" horiz-adv-x="586" 
d="M531 263q0 -132 -62.5 -202t-159.5 -70q-89 0 -177 86v-277h-48v463q0 127 62.5 200t161.5 73q100 0 161.5 -72.5t61.5 -200.5zM483 262q0 114 -48 173t-128 59q-81 0 -128 -64.5t-47 -170.5v-132q92 -94 180 -94q74 0 122.5 57.5t48.5 171.5z" />
    <glyph glyph-name="sigma1" unicode="&#x3c2;" horiz-adv-x="526" 
d="M102 263q0 -208 195 -231q67 -8 99 -34.5t32 -77.5q0 -55 -36 -85t-95 -30q-73 0 -127 37l15 28q47 -32 109 -32q42 0 68.5 19.5t26.5 58.5q0 34 -21.5 51.5t-78.5 24.5q-235 26 -235 270q0 131 66 202.5t161 71.5q133 0 195 -140l-41 -22q-26 60 -62 90t-94 30
q-32 0 -62 -12.5t-56.5 -38.5t-42.5 -72.5t-16 -107.5z" />
    <glyph glyph-name="sigma" unicode="&#x3c3;" horiz-adv-x="582" 
d="M285 -11q-99 0 -165 75t-66 199q0 122 67 192t168 70h236v-42h-123q53 -29 83.5 -85.5t30.5 -134.5q0 -124 -66 -199t-165 -75zM285 31q82 0 132.5 64.5t50.5 167.5q0 158 -130 220h-50q-83 0 -134.5 -60t-51.5 -160q0 -102 50.5 -167t132.5 -65z" />
    <glyph glyph-name="tau" unicode="&#x3c4;" horiz-adv-x="431" 
d="M239 0h-47v482h-168v43h383v-43h-168v-482z" />
    <glyph glyph-name="upsilon" unicode="&#x3c5;" horiz-adv-x="562" 
d="M280 32q82 0 120 46.5t38 143.5v303h48v-304q0 -232 -206 -232q-111 0 -157.5 61t-46.5 171v304h48v-303q0 -95 36 -142.5t120 -47.5z" />
    <glyph glyph-name="phi" unicode="&#x3c6;" horiz-adv-x="704" 
d="M329 535v205h46v-205q117 -3 196 -72t79 -199q0 -129 -78 -200t-197 -74v-190h-46v190q-117 2 -196 73t-79 200q0 130 79 199.5t196 72.5zM375 493v-461q98 3 162.5 62t64.5 169q0 109 -64.5 168t-162.5 62zM329 32v461q-100 -3 -163.5 -62.5t-63.5 -167.5t63.5 -167.5
t163.5 -63.5z" />
    <glyph glyph-name="chi" unicode="&#x3c7;" horiz-adv-x="503" 
d="M35 0l191 272l-177 253h55l148 -216l149 216h54l-178 -252l191 -273h-55l-162 235l-162 -235h-54z" />
    <glyph glyph-name="psi" unicode="&#x3c8;" horiz-adv-x="714" 
d="M331 -200v189q-133 4 -194 71t-61 176v289h48v-287q0 -91 49 -146t158 -59v707h48v-707q110 5 160.5 60t50.5 145v287h48v-287q0 -109 -62.5 -177t-196.5 -72v-189h-48z" />
    <glyph glyph-name="omega" unicode="&#x3c9;" horiz-adv-x="736" 
d="M345 355h45v-203q0 -52 28.5 -86t77.5 -34q63 0 100.5 55.5t37.5 151.5q0 192 -143 286h61q62 -45 96 -120.5t34 -168.5q0 -112 -48 -179.5t-132 -67.5q-53 0 -89 30t-45 70q-9 -40 -45 -70t-89 -30q-84 0 -132 67.5t-48 179.5q0 93 34 168.5t96 120.5h61
q-143 -94 -143 -286q0 -95 37.5 -151t100.5 -56q49 0 77 34t28 86v203z" />
    <glyph glyph-name="iotadieresis" unicode="&#x3ca;" horiz-adv-x="228" 
d="M90 0v525h48v-525h-48zM166 582v67h64v-67h-64zM-2 582v67h64v-67h-64z" />
    <glyph glyph-name="upsilondieresis" unicode="&#x3cb;" horiz-adv-x="562" 
d="M165 582v67h64v-67h-64zM333 582v67h64v-67h-64zM280 32q82 0 120 46.5t38 143.5v303h48v-304q0 -232 -206 -232q-111 0 -157.5 61t-46.5 171v304h48v-303q0 -95 36 -142.5t120 -47.5z" />
    <glyph glyph-name="omicrontonos" unicode="&#x3cc;" horiz-adv-x="570" 
d="M270 582l66 162h61l-95 -162h-32zM285 -11q-99 0 -165 75t-66 198q0 124 65.5 199t165.5 75q99 0 165 -75t66 -199q0 -123 -66 -198t-165 -75zM285 31q83 0 133 65t50 167q0 97 -49 164t-134 67q-83 0 -133 -65.5t-50 -165.5q0 -98 48.5 -165t134.5 -67z" />
    <glyph glyph-name="upsilontonos" unicode="&#x3cd;" horiz-adv-x="562" 
d="M250 582l66 162h61l-95 -162h-32zM280 32q82 0 120 46.5t38 143.5v303h48v-304q0 -232 -206 -232q-111 0 -157.5 61t-46.5 171v304h48v-303q0 -95 36 -142.5t120 -47.5z" />
    <glyph glyph-name="omegatonos" unicode="&#x3ce;" horiz-adv-x="736" 
d="M311 582l66 162h61l-95 -162h-32zM345 355h45v-203q0 -52 28.5 -86t77.5 -34q63 0 100.5 55.5t37.5 151.5q0 192 -143 286h61q62 -45 96 -120.5t34 -168.5q0 -112 -48 -179.5t-132 -67.5q-53 0 -89 30t-45 70q-9 -40 -45 -70t-89 -30q-84 0 -132 67.5t-48 179.5
q0 93 34 168.5t96 120.5h61q-143 -94 -143 -286q0 -95 37.5 -151t100.5 -56q49 0 77 34t28 86v203z" />
    <glyph glyph-name="afii10023" unicode="&#x401;" horiz-adv-x="597" 
d="M99 0v740h428v-46h-378v-278h284v-46h-284v-324h400v-46h-450zM370 787v67h64v-67h-64zM202 787v67h64v-67h-64z" />
    <glyph glyph-name="afii10051" unicode="&#x402;" horiz-adv-x="796" 
d="M333 382v-382h-50v697h-247v43h543v-43h-246v-279q95 97 198 97q91 0 151 -69t60 -183q0 -115 -59.5 -189t-162.5 -74v39q82 0 128 61t46 160q0 89 -46.5 151t-127.5 62q-91 0 -187 -91z" />
    <glyph glyph-name="afii10052" unicode="&#x403;" horiz-adv-x="560" 
d="M256 787l95 151h75l-139 -151h-31zM149 694v-694h-50v740h421v-46h-371z" />
    <glyph glyph-name="afii10053" unicode="&#x404;" horiz-adv-x="696" 
d="M370 -15q-136 0 -222 109t-86 281q0 168 86 274t217 106q108 0 169 -59.5t93 -158.5l-47 -16q-27 87 -77 139t-138 52q-107 0 -177 -89t-75 -227h314v-41h-314q4 -142 74.5 -235t182.5 -93q50 0 89.5 17.5t65 49.5t41 63t27.5 71l46 -14q-11 -39 -28.5 -74t-48.5 -72.5
t-80.5 -60t-111.5 -22.5z" />
    <glyph glyph-name="afii10054" unicode="&#x405;" horiz-adv-x="639" 
d="M325 -14q-101 0 -170 53t-92 146l49 12q21 -82 77 -124t138 -42q90 0 143 40.5t53 107.5q0 64 -40.5 102t-164.5 78q-130 42 -181.5 86t-51.5 126q0 76 63 129.5t159 53.5q98 0 159.5 -46.5t85.5 -127.5l-48 -14q-26 76 -74.5 109.5t-123.5 33.5q-77 0 -124 -39t-47 -96
q0 -65 43 -98t174 -76q122 -40 171.5 -87.5t49.5 -130.5q0 -90 -71 -143t-177 -53z" />
    <glyph glyph-name="afii10055" unicode="&#x406;" horiz-adv-x="270" 
d="M110 0v740h50v-740h-50z" />
    <glyph glyph-name="afii10056" unicode="&#x407;" horiz-adv-x="270" 
d="M110 0v740h50v-740h-50zM187 787v67h64v-67h-64zM19 787v67h64v-67h-64z" />
    <glyph glyph-name="afii10057" unicode="&#x408;" horiz-adv-x="490" 
d="M207 -14q-117 0 -177 109l40 23q27 -44 58 -65.5t78 -21.5q140 0 140 159v550h50v-545q0 -103 -50.5 -156t-138.5 -53z" />
    <glyph glyph-name="afii10058" unicode="&#x409;" horiz-adv-x="1112" 
d="M196 697v-529q0 -90 -41 -129t-144 -39v42q81 0 108.5 28t27.5 98v572h487v-343h178q123 0 190.5 -53t67.5 -147t-68 -145.5t-190 -51.5h-227v697h-389zM634 41h180q102 0 155 42t53 113q0 72 -53 115t-155 43h-180v-313z" />
    <glyph glyph-name="afii10059" unicode="&#x40a;" horiz-adv-x="1103" 
d="M575 0v354h-426v-354h-50v740h50v-340h426v340h50v-340h178q123 0 190.5 -54t67.5 -149q0 -94 -68 -145.5t-190 -51.5h-228zM625 41h180q102 0 155 42t53 113q0 72 -53 115t-155 43h-180v-313z" />
    <glyph glyph-name="afii10060" unicode="&#x40b;" horiz-adv-x="777" 
d="M283 0v697h-247v43h543v-43h-246v-268q107 101 211 101q160 0 160 -164v-366h-48v357q0 132 -125 132q-94 0 -198 -98v-391h-50z" />
    <glyph glyph-name="afii10061" unicode="&#x40c;" horiz-adv-x="657" 
d="M99 0v740h50v-420l379 420h63l-255 -278l295 -462h-59l-271 423l-152 -166v-257h-50zM280 787l95 151h75l-139 -151h-31z" />
    <glyph glyph-name="afii10062" unicode="&#x40e;" horiz-adv-x="640" 
d="M93 43q31 -11 66 -11q52 0 79.5 23.5t55.5 88.5l9 20l9 19l-277 557h52l218 -442l31 -64l28 65l197 441h51q-187 -412 -277 -609q-35 -77 -71 -109t-105 -32q-44 0 -85 15zM335 784q-62 0 -101 42.5t-43 116.5h34q13 -114 110 -114t110 114h34q-4 -74 -43 -116.5
t-101 -42.5z" />
    <glyph glyph-name="afii10145" unicode="&#x40f;" horiz-adv-x="730" 
d="M99 0v740h50v-697h432v697h50v-740h-242v-161h-47v161h-243z" />
    <glyph glyph-name="afii10017" unicode="&#x410;" horiz-adv-x="663" 
d="M40 0l262 743h59l262 -743h-53l-86 248h-307l-86 -248h-51zM193 293h275l-137 394h-2z" />
    <glyph glyph-name="afii10018" unicode="&#x411;" horiz-adv-x="626" 
d="M99 0v740h451v-43h-402v-303h178q123 0 190.5 -52.5t67.5 -145.5t-68 -144.5t-190 -51.5h-227zM148 41h180q102 0 155 41.5t53 112.5t-53 113.5t-155 42.5h-180v-310z" />
    <glyph glyph-name="afii10019" unicode="&#x412;" horiz-adv-x="679" 
d="M99 0v740h248q126 0 187 -50t61 -137q0 -70 -40.5 -113.5t-102.5 -57.5v-2q74 -14 121.5 -60t47.5 -120q0 -89 -61.5 -144.5t-188.5 -55.5h-272zM149 46h225q197 0 197 154q0 79 -59 118.5t-163 39.5h-200v-312zM149 403h194q97 0 149.5 37t52.5 110q0 74 -48 109
t-151 35h-197v-291z" />
    <glyph glyph-name="afii10020" unicode="&#x413;" horiz-adv-x="564" 
d="M99 0v740h424v-43h-374v-697h-50z" />
    <glyph glyph-name="afii10021" unicode="&#x414;" horiz-adv-x="742" 
d="M635 43h61v-204h-49v161h-582v-161h-49v204h19q67 1 85.5 30.5t29.5 137.5l49 529h436v-697zM586 43v652h-343l-44 -486q-9 -80 -18 -116t-31 -50h436z" />
    <glyph glyph-name="afii10022" unicode="&#x415;" horiz-adv-x="597" 
d="M99 0v740h428v-46h-378v-278h284v-46h-284v-324h400v-46h-450z" />
    <glyph glyph-name="afii10024" unicode="&#x416;" horiz-adv-x="1059" 
d="M505 0v253l-155 169l-270 -422h-56l294 458l-257 282h59l385 -425v425h49v-425l385 425h59l-257 -282l294 -458h-57l-269 422l-155 -169v-253h-49z" />
    <glyph glyph-name="afii10025" unicode="&#x417;" horiz-adv-x="589" 
d="M284 -15q-170 0 -252 138l34 27q70 -123 216 -123q85 0 138.5 47.5t53.5 123.5q0 84 -55 130.5t-167 46.5h-46v40h44q95 0 152 36.5t57 109.5q0 71 -43.5 111t-128.5 40q-115 0 -185 -99l-32 29q33 48 90.5 80.5t130.5 32.5q107 0 162 -50t55 -140q0 -68 -47 -114
t-124 -55q91 -10 139.5 -62t48.5 -137q0 -95 -67 -153.5t-174 -58.5z" />
    <glyph glyph-name="afii10026" unicode="&#x418;" horiz-adv-x="735" 
d="M636 740v-740h-48v664h-2l-444 -664h-43v740h48v-642h2l430 642h57z" />
    <glyph glyph-name="afii10027" unicode="&#x419;" horiz-adv-x="735" 
d="M636 0v740h-57l-430 -642h-2v642h-48v-740h43l444 664h2v-664h48zM366 784q-62 0 -101 42.5t-43 116.5h34q13 -114 110 -114t110 114h34q-4 -74 -43 -116.5t-101 -42.5z" />
    <glyph glyph-name="afii10028" unicode="&#x41a;" horiz-adv-x="657" 
d="M99 0v740h50v-420l379 420h63l-255 -278l295 -462h-59l-271 423l-152 -166v-257h-50z" />
    <glyph glyph-name="afii10029" unicode="&#x41b;" horiz-adv-x="733" 
d="M196 697v-529q0 -90 -41 -129t-144 -39v42q81 0 108.5 28t27.5 98v572h487v-740h-49v697h-389z" />
    <glyph glyph-name="afii10030" unicode="&#x41c;" horiz-adv-x="863" 
d="M99 0v740h64l267 -672h2l268 672h64v-740h-51v647h-2l-47 -122l-211 -525h-46l-211 525q-41 105 -47 122h-2v-647h-48z" />
    <glyph glyph-name="afii10031" unicode="&#x41d;" horiz-adv-x="724" 
d="M99 0v740h50v-325h426v325h50v-740h-50v369h-426v-369h-50z" />
    <glyph glyph-name="afii10032" unicode="&#x41e;" horiz-adv-x="740" 
d="M367 -14q-134 0 -219 107t-85 277t85 277t219 107t218.5 -107.5t84.5 -276.5t-84.5 -276.5t-218.5 -107.5zM367 31q111 0 182 91.5t71 247.5t-71 247.5t-182 91.5q-112 0 -183 -91.5t-71 -247.5t71 -247.5t183 -91.5z" />
    <glyph glyph-name="afii10033" unicode="&#x41f;" horiz-adv-x="730" 
d="M99 0v740h532v-740h-50v697h-432v-697h-50z" />
    <glyph glyph-name="afii10034" unicode="&#x420;" horiz-adv-x="635" 
d="M99 0v740h241q120 0 184.5 -50t64.5 -142q0 -101 -67.5 -151.5t-189.5 -50.5h-183v-346h-50zM149 392h187q101 0 152 35.5t51 118.5q0 78 -51.5 113t-152.5 35h-186v-302z" />
    <glyph glyph-name="afii10035" unicode="&#x421;" horiz-adv-x="692" 
d="M364 -14q-137 0 -219 107.5t-82 280.5q0 164 83 272t218 108q204 0 261 -224l-48 -11q-27 97 -77 143.5t-137 46.5q-112 0 -181 -92t-69 -241q0 -161 68.5 -253t183.5 -92q173 0 225 199l47 -11q-27 -110 -98 -171.5t-175 -61.5z" />
    <glyph glyph-name="afii10036" unicode="&#x422;" horiz-adv-x="610" 
d="M280 0v694h-243v46h536v-46h-243v-694h-50z" />
    <glyph glyph-name="afii10037" unicode="&#x423;" horiz-adv-x="640" 
d="M93 43q31 -11 66 -11q52 0 79.5 23.5t55.5 88.5l9 20l9 19l-277 557h52l218 -442l31 -64l28 65l197 441h51q-187 -412 -277 -609q-35 -77 -71 -109t-105 -32q-44 0 -85 15z" />
    <glyph glyph-name="afii10038" unicode="&#x424;" horiz-adv-x="735" 
d="M344 0v101q-125 8 -204 80t-79 189t79 189t204 80v101h46v-101q125 -8 204.5 -80t79.5 -189t-79.5 -189.5t-204.5 -79.5v-101h-46zM626 370q0 95 -65 158.5t-171 70.5v-460q106 8 171 71t65 160zM109 370q0 -96 64.5 -159.5t170.5 -70.5v459q-106 -7 -170.5 -70.5
t-64.5 -158.5z" />
    <glyph glyph-name="afii10039" unicode="&#x425;" horiz-adv-x="642" 
d="M32 0l263 398l-227 342h58l196 -302l197 302h55l-226 -341l262 -399h-53l-236 360l-238 -360h-51z" />
    <glyph glyph-name="afii10040" unicode="&#x426;" horiz-adv-x="737" 
d="M644 0h-545v740h50v-697h432v697h50v-697h61v-204h-48v161z" />
    <glyph glyph-name="afii10041" unicode="&#x427;" horiz-adv-x="661" 
d="M518 0v361q-38 -30 -101 -48t-122 -18q-108 0 -154.5 52t-46.5 177v217h48v-214q0 -108 36 -150.5t125 -42.5q58 0 118 17.5t97 47.5v341h48v-740h-48z" />
    <glyph glyph-name="afii10042" unicode="&#x428;" horiz-adv-x="1013" 
d="M914 740v-740h-815v740h49v-697h334v697h50v-697h333v697h49z" />
    <glyph glyph-name="afii10043" unicode="&#x429;" horiz-adv-x="1021" 
d="M928 0h-829v740h49v-697h334v697h50v-697h333v697h49v-697h61v-204h-47v161z" />
    <glyph glyph-name="afii10044" unicode="&#x42a;" horiz-adv-x="733" 
d="M182 0v697h-177v43h226v-343h178q123 0 190.5 -53t67.5 -147t-68 -145.5t-190 -51.5h-227zM231 41h180q101 0 154 42t53 113q0 72 -53 115t-154 43h-180v-313z" />
    <glyph glyph-name="afii10045" unicode="&#x42b;" horiz-adv-x="832" 
d="M99 0v740h49v-343h178q123 0 190.5 -53t67.5 -147t-68 -145.5t-190 -51.5h-227zM148 41h180q102 0 155 42t53 113q0 72 -53 115t-155 43h-180v-313zM682 0v740h50v-740h-50z" />
    <glyph glyph-name="afii10046" unicode="&#x42c;" horiz-adv-x="626" 
d="M99 0v740h49v-343h178q123 0 190.5 -53t67.5 -147t-68 -145.5t-190 -51.5h-227zM148 41h180q102 0 155 42t53 113q0 72 -53 115t-155 43h-180v-313z" />
    <glyph glyph-name="afii10047" unicode="&#x42d;" horiz-adv-x="696" 
d="M326 -15q-62 0 -111.5 22.5t-80.5 60t-48.5 72.5t-28.5 74l46 14q12 -40 27.5 -71t41 -63t65 -49.5t89.5 -17.5q112 0 182.5 93t74.5 235h-314v41h314q-4 138 -74 227t-177 89q-89 0 -139 -52t-77 -139l-46 16q31 99 92 158.5t169 59.5q131 0 217 -106t86 -274
q0 -172 -86 -281t-222 -109z" />
    <glyph glyph-name="afii10048" unicode="&#x42e;" horiz-adv-x="983" 
d="M605 -15q-130 0 -216.5 102t-90.5 269h-149v-356h-50v740h50v-341h150q7 160 93 258t213 98q132 0 220 -106.5t88 -278.5t-88 -278.5t-220 -106.5zM605 27q113 0 185.5 96.5t72.5 246.5q0 151 -72.5 246.5t-185.5 95.5q-115 0 -186.5 -95.5t-71.5 -246.5t72 -247t186 -96
z" />
    <glyph glyph-name="afii10049" unicode="&#x42f;" horiz-adv-x="664" 
d="M564 740v-740h-50v347h-204l-188 -347h-58l191 353q-181 30 -181 195q0 92 64.5 142t184.5 50h241zM327 392h187v302h-186q-101 0 -152.5 -35t-51.5 -113q0 -83 51 -118.5t152 -35.5z" />
    <glyph glyph-name="afii10065" unicode="&#x430;" horiz-adv-x="540" 
d="M201 -9q-71 0 -109.5 34.5t-38.5 95.5q0 80 81.5 134t279.5 87v32q0 59 -29.5 89.5t-84.5 30.5q-61 0 -108.5 -22t-95.5 -65l-28 30q53 49 107.5 74t125.5 25q80 0 120.5 -42t40.5 -117v-247q0 -93 15 -130h-51q-12 38 -12 78q-101 -87 -213 -87zM205 33q114 0 209 92
v181q-179 -31 -246 -75.5t-67 -106.5q0 -44 27.5 -67.5t76.5 -23.5z" />
    <glyph glyph-name="afii10066" unicode="&#x431;" horiz-adv-x="574" 
d="M287 -11q-98 0 -165 77t-67 199v96q1 51 6 92t23 95t48 91t86.5 63.5t132.5 28.5q77 2 121 12v-44q-36 -9 -121 -13q-245 -6 -250 -301q24 67 77.5 105t115.5 38q93 0 159.5 -75t66.5 -195q0 -117 -68.5 -193t-164.5 -76zM287 27q78 0 132 65.5t54 165.5q0 102 -54 167
t-132 65q-79 0 -132 -64.5t-53 -167.5q0 -101 53.5 -166t131.5 -65z" />
    <glyph glyph-name="afii10067" unicode="&#x432;" horiz-adv-x="513" 
d="M82 0v527h181q84 0 134.5 -34t50.5 -96q0 -103 -108 -124v-1q129 -19 129 -131q0 -64 -49 -102.5t-137 -38.5h-201zM127 36h153q69 0 105 28.5t36 79.5q0 56 -42.5 83t-115.5 27h-136v-218zM127 287h133q143 0 143 103q0 46 -37 73t-106 27h-133v-203z" />
    <glyph glyph-name="afii10068" unicode="&#x433;" horiz-adv-x="445" 
d="M423 527v-39h-294v-488h-47v527h341z" />
    <glyph glyph-name="afii10069" unicode="&#x434;" horiz-adv-x="596" 
d="M61 -200h-48v239q110 5 119 115l32 373h343v-488h51v-239h-45v200h-452v-200zM460 37v451h-251l-29 -336q-8 -89 -68 -115h348z" />
    <glyph glyph-name="afii10070" unicode="&#x435;" horiz-adv-x="539" 
d="M275 -11q-92 0 -156.5 74.5t-64.5 199.5q0 129 66 201t157 72q94 0 151 -73t57 -196v-7h-383q0 -104 50.5 -166.5t125.5 -62.5q59 0 98 27t71 82l35 -22q-70 -129 -207 -129zM103 300h332q-6 86 -46.5 140t-112.5 54q-65 0 -114.5 -50.5t-58.5 -143.5z" />
    <glyph glyph-name="afii10072" unicode="&#x436;" horiz-adv-x="839" 
d="M443 527v-312l285 312h52l-174 -191l196 -336h-50l-176 302q-99 -107 -133 -145v-157h-47v157l-132 145l-177 -302h-50l197 336l-174 191h51l285 -312v312h47z" />
    <glyph glyph-name="afii10073" unicode="&#x437;" horiz-adv-x="483" 
d="M240 -11q-131 0 -199 93l32 26q60 -80 166 -80q72 0 114.5 32.5t42.5 83.5q0 55 -47 83t-156 28h-16v31h17q100 0 144 26t44 85q0 44 -35 73t-105 29q-85 0 -143 -61l-30 24q68 75 175 75q89 0 135.5 -38.5t46.5 -97.5q0 -55 -31 -89t-90 -41q72 -13 103.5 -45.5
t31.5 -84.5q0 -66 -55 -109t-145 -43z" />
    <glyph glyph-name="afii10074" unicode="&#x438;" horiz-adv-x="588" 
d="M507 527v-527h-46v459q-58 -81 -189.5 -263t-141.5 -196h-48v527h45v-460q320 446 330 460h50z" />
    <glyph glyph-name="afii10075" unicode="&#x439;" horiz-adv-x="588" 
d="M507 527v-527h-46v459q-58 -81 -189.5 -263t-141.5 -196h-48v527h45v-460q320 446 330 460h50zM294 579q-62 0 -101 42.5t-43 116.5h34q13 -114 110 -114t110 114h34q-4 -74 -43 -116.5t-101 -42.5z" />
    <glyph glyph-name="afii10076" unicode="&#x43a;" horiz-adv-x="517" 
d="M84 0v525h48v-296l271 296h60l-172 -183l195 -342h-54l-175 305l-125 -134v-171h-48z" />
    <glyph glyph-name="afii10077" unicode="&#x43b;" horiz-adv-x="591" 
d="M462 0v488h-296v-351q0 -83 -35 -109.5t-125 -27.5v39q69 0 91 18t22 79v391h391v-527h-48z" />
    <glyph glyph-name="afii10078" unicode="&#x43c;" horiz-adv-x="688" 
d="M124 0h-42v527h58l204 -474h1l203 474h59v-527h-44v451h-1q0 -2 -10.5 -27t-22 -51.5t-11.5 -27.5l-153 -345h-43l-151 340q-1 3 -23.5 56t-22.5 55h-1v-451z" />
    <glyph glyph-name="afii10079" unicode="&#x43d;" horiz-adv-x="582" 
d="M82 0v527h47v-230h324v230h48v-527h-48v257h-324v-257h-47z" />
    <glyph glyph-name="afii10080" unicode="&#x43e;" horiz-adv-x="570" 
d="M285 -11q-99 0 -165 75t-66 198q0 124 65.5 199t165.5 75q99 0 165 -75t66 -199q0 -123 -66 -198t-165 -75zM285 31q83 0 133 65t50 167q0 97 -49 164t-134 67q-83 0 -133 -65.5t-50 -165.5q0 -98 48.5 -165t134.5 -67z" />
    <glyph glyph-name="afii10081" unicode="&#x43f;" horiz-adv-x="582" 
d="M82 0v527h418v-527h-48v488h-323v-488h-47z" />
    <glyph glyph-name="afii10082" unicode="&#x440;" horiz-adv-x="586" 
d="M84 -200v725h48v-77q84 88 179 88q96 0 158 -70.5t62 -202.5t-62.5 -202t-159.5 -70q-89 0 -177 86v-277h-48zM312 33q74 0 122.5 57.5t48.5 171.5q0 113 -49.5 172.5t-123.5 59.5q-50 0 -90 -22.5t-88 -71.5v-273q92 -94 180 -94z" />
    <glyph glyph-name="afii10083" unicode="&#x441;" horiz-adv-x="526" 
d="M274 -11q-93 0 -156.5 75.5t-63.5 197.5q0 131 66 202.5t161 71.5q133 0 195 -140l-41 -22q-26 60 -62 90t-94 30q-32 0 -62 -12.5t-56.5 -38.5t-42.5 -72.5t-16 -107.5q0 -107 50 -169.5t125 -62.5q58 0 94 29t68 92l38 -19q-35 -72 -83 -108t-120 -36z" />
    <glyph glyph-name="afii10084" unicode="&#x442;" horiz-adv-x="482" 
d="M217 0v488h-191v39h430v-39h-191v-488h-48z" />
    <glyph glyph-name="afii10085" unicode="&#x443;" horiz-adv-x="519" 
d="M87 -200q-42 0 -72 9l12 40q26 -7 66 -7q46 0 73 21t45 69l25 65l-204 528h53l174 -467h2l174 467h52l-227 -587q-29 -75 -65 -106.5t-108 -31.5z" />
    <glyph glyph-name="afii10086" unicode="&#x444;" horiz-adv-x="939" 
d="M446 -200v286q-30 -39 -76.5 -68t-103.5 -29q-96 0 -153 69.5t-57 203.5t57.5 204.5t153.5 70.5q98 0 179 -96v299h48v-300q30 39 76.5 68t103.5 29q96 0 153 -69.5t57 -203.5t-57.5 -204.5t-153.5 -70.5t-179 96v-285h-48zM279 29q91 0 167 94v277q-46 50 -83.5 73
t-85.5 23q-79 0 -126.5 -59t-47.5 -175q0 -114 48.5 -173.5t127.5 -59.5zM663 29q78 0 126 59.5t48 174.5q0 114 -48.5 173.5t-127.5 59.5q-91 0 -167 -94v-277q45 -51 83 -73.5t86 -22.5z" />
    <glyph glyph-name="afii10087" unicode="&#x445;" horiz-adv-x="503" 
d="M35 0l191 272l-177 253h55l148 -216l149 216h54l-178 -252l191 -273h-55l-162 235l-162 -235h-54z" />
    <glyph glyph-name="afii10088" unicode="&#x446;" horiz-adv-x="588" 
d="M505 0h-423v527h47v-488h323v488h48v-488h51v-239h-46v200z" />
    <glyph glyph-name="afii10089" unicode="&#x447;" horiz-adv-x="567" 
d="M485 527v-527h-47v261q-105 -102 -211 -102q-160 0 -160 164v204h47v-194q0 -132 125 -132q95 0 199 97v229h47z" />
    <glyph glyph-name="afii10090" unicode="&#x448;" horiz-adv-x="922" 
d="M840 527v-527h-758v527h47v-488h308v488h47v-488h309v488h47z" />
    <glyph glyph-name="afii10091" unicode="&#x449;" horiz-adv-x="929" 
d="M845 0h-763v527h47v-488h308v488h47v-488h309v488h47v-488h51v-239h-46v200z" />
    <glyph glyph-name="afii10092" unicode="&#x44a;" horiz-adv-x="575" 
d="M201 527v-218h132q106 0 156.5 -35.5t50.5 -116.5q0 -75 -53 -116t-152 -41h-182v488h-143v39h191zM336 272h-135v-235h134q158 0 158 121q0 63 -38 88.5t-119 25.5z" />
    <glyph glyph-name="afii10093" unicode="&#x44b;" horiz-adv-x="662" 
d="M82 0v527h47v-215h132q106 0 157 -37t51 -118q0 -75 -53 -116t-152 -41h-182zM129 272v-235h134q159 0 159 121q0 62 -38.5 88t-119.5 26h-135zM536 0v525h48v-525h-48z" />
    <glyph glyph-name="afii10094" unicode="&#x44c;" horiz-adv-x="503" 
d="M82 0v527h47v-215h132q106 0 157 -37t51 -118q0 -75 -53 -116t-152 -41h-182zM129 272v-235h134q159 0 159 121q0 62 -38.5 88t-119.5 26h-135z" />
    <glyph glyph-name="afii10095" unicode="&#x44d;" horiz-adv-x="529" 
d="M250 -11q-73 0 -119.5 36t-81.5 109l39 19q30 -65 67 -95.5t95 -30.5q79 0 127 64.5t49 159.5h-231v34h231q-4 104 -56.5 159t-125.5 55q-58 0 -92 -30t-60 -91l-39 18q29 70 73 105.5t118 35.5q93 0 161.5 -69.5t68.5 -204.5q0 -119 -63.5 -196.5t-160.5 -77.5z" />
    <glyph glyph-name="afii10096" unicode="&#x44e;" horiz-adv-x="773" 
d="M486 -11q-91 0 -158 69.5t-74 182.5h-123v-241h-47v527h47v-247h123q5 117 72 187t160 70q95 0 164 -75t69 -199q0 -122 -69.5 -198t-163.5 -76zM486 27q78 0 132 67t54 169q0 103 -53.5 169.5t-132.5 66.5q-80 0 -133 -66.5t-53 -169.5q0 -102 53.5 -169t132.5 -67z" />
    <glyph glyph-name="afii10097" unicode="&#x44f;" horiz-adv-x="520" 
d="M440 527v-527h-47v225h-131q-26 0 -37 1l-129 -226h-51l134 232q-66 10 -96 44.5t-30 97.5q0 73 53 113t152 40h182zM258 262h135v227h-135q-158 0 -158 -117q0 -60 38.5 -85t119.5 -25z" />
    <glyph glyph-name="afii10071" unicode="&#x451;" horiz-adv-x="539" 
d="M275 -11q-92 0 -156.5 74.5t-64.5 199.5q0 129 66 201t157 72q94 0 151 -73t57 -196v-7h-383q0 -104 50.5 -166.5t125.5 -62.5q59 0 98 27t71 82l35 -22q-70 -129 -207 -129zM103 300h332q-6 86 -46.5 140t-112.5 54q-65 0 -114.5 -50.5t-58.5 -143.5zM158 582v67h64v-67
h-64zM326 582v67h64v-67h-64z" />
    <glyph glyph-name="afii10099" unicode="&#x452;" horiz-adv-x="573" 
d="M-5 595v36h87v109h47v-109h119v-36h-119v-159q107 101 211 101q160 0 160 -164v-481q0 -93 -87 -93q-23 0 -41 3v38q13 -5 30 -5q50 0 50 57v472q0 67 -30 99.5t-95 32.5q-94 0 -198 -98v-398h-47v595h-87z" />
    <glyph glyph-name="afii10100" unicode="&#x453;" horiz-adv-x="445" 
d="M186 582l95 151h75l-139 -151h-31zM423 527v-39h-294v-488h-47v527h341z" />
    <glyph glyph-name="afii10101" unicode="&#x454;" horiz-adv-x="529" 
d="M278 -11q-97 0 -160.5 77.5t-63.5 196.5q0 135 68.5 204.5t161.5 69.5q74 0 118 -35.5t73 -105.5l-39 -18q-26 61 -60 91t-92 30q-73 0 -125.5 -55t-56.5 -159h231v-34h-231q1 -95 49 -159.5t127 -64.5q58 0 95 30.5t67 95.5l39 -19q-35 -73 -81.5 -109t-119.5 -36z" />
    <glyph glyph-name="afii10102" unicode="&#x455;" horiz-adv-x="500" 
d="M245 -9q-130 0 -197 97l35 27q64 -82 163 -82q73 0 111.5 27.5t38.5 76.5q0 48 -33.5 73t-122.5 46q-100 25 -138.5 57t-38.5 92q0 54 46 92.5t127 38.5q112 0 186 -77l-32 -33q-63 68 -155 68q-61 0 -92.5 -25.5t-31.5 -61.5q0 -41 28 -63t105 -41q114 -28 157 -62.5
t43 -103.5q0 -67 -55 -106.5t-144 -39.5z" />
    <glyph glyph-name="afii10103" unicode="&#x456;" horiz-adv-x="228" 
d="M90 0v525h48v-525h-48zM88 659v61h52v-61h-52z" />
    <glyph glyph-name="afii10104" unicode="&#x457;" horiz-adv-x="228" 
d="M90 0v525h48v-525h-48zM166 582v67h64v-67h-64zM-2 582v67h64v-67h-64z" />
    <glyph glyph-name="afii10105" unicode="&#x458;" horiz-adv-x="228" 
d="M42 -200q-16 0 -28 2v43q12 -3 28 -3q48 0 48 55v628h48v-622q0 -103 -96 -103zM88 659v61h52v-61h-52z" />
    <glyph glyph-name="afii10106" unicode="&#x459;" horiz-adv-x="884" 
d="M462 0v488h-296v-351q0 -83 -35 -109.5t-125 -27.5v39q69 0 91 18t22 79v391h391v-215h132q106 0 157 -37t51 -118q0 -75 -53 -116t-152 -41h-183zM510 272v-235h134q159 0 159 121q0 62 -38.5 88t-119.5 26h-135z" />
    <glyph glyph-name="afii10107" unicode="&#x45a;" horiz-adv-x="875" 
d="M453 0v272h-324v-272h-47v527h47v-215h324v215h48v-215h132q106 0 157 -37t51 -118q0 -75 -53 -116t-152 -41h-183zM501 272v-235h134q159 0 159 121q0 62 -38.5 88t-119.5 26h-135z" />
    <glyph glyph-name="afii10108" unicode="&#x45b;" horiz-adv-x="573" 
d="M-8 608v43h92v89h48v-89h116v-43h-116v-170q103 98 203 98q80 0 119.5 -41t39.5 -114v-381h-48v375q0 61 -28 90t-87 29q-94 0 -199 -100v-394h-48v608h-92z" />
    <glyph glyph-name="afii10109" unicode="&#x45c;" horiz-adv-x="517" 
d="M84 0v525h48v-296l271 296h60l-172 -183l195 -342h-54l-175 305l-125 -134v-171h-48zM215 582l95 151h75l-139 -151h-31z" />
    <glyph glyph-name="afii10110" unicode="&#x45e;" horiz-adv-x="519" 
d="M87 -200q-42 0 -72 9l12 40q26 -7 66 -7q46 0 73 21t45 69l25 65l-204 528h53l174 -467h2l174 467h52l-227 -587q-29 -75 -65 -106.5t-108 -31.5zM257 579q-62 0 -101 42.5t-43 116.5h34q13 -114 110 -114t110 114h34q-4 -74 -43 -116.5t-101 -42.5z" />
    <glyph glyph-name="afii10193" unicode="&#x45f;" horiz-adv-x="582" 
d="M82 0v527h47v-488h323v488h48v-527h-183v-200h-48v200h-187z" />
    <glyph glyph-name="afii10050" unicode="&#x490;" horiz-adv-x="564" 
d="M476 740v125h47v-168h-374v-697h-50v740h377z" />
    <glyph glyph-name="afii10098" unicode="&#x491;" horiz-adv-x="445" 
d="M376 695h47v-207h-294v-488h-47v527h294v168z" />
    <glyph glyph-name="Wgrave" unicode="&#x1e80;" horiz-adv-x="918" 
d="M241 0l-197 740h51l124 -475q22 -84 47 -191h2q18 87 45 190l118 476h58l119 -480q38 -154 44 -186h2q10 46 45 182l126 484h49l-197 -740h-51l-166 671h-2l-167 -671h-50zM504 787l-139 151h75l95 -151h-31z" />
    <glyph glyph-name="wgrave" unicode="&#x1e81;" horiz-adv-x="741" 
d="M196 0l-163 525h51l81 -276l52 -183h2q27 103 50 182l78 277h49l79 -283q22 -77 48 -176h2q36 128 50 174l84 285h49l-163 -525h-45l-128 458h-2l-130 -458h-44zM358 582l-139 151h75l95 -151h-31z" />
    <glyph glyph-name="Wacute" unicode="&#x1e82;" horiz-adv-x="918" 
d="M241 0l-197 740h51l124 -475q22 -84 47 -191h2q18 87 45 190l118 476h58l119 -480q38 -154 44 -186h2q10 46 45 182l126 484h49l-197 -740h-51l-166 671h-2l-167 -671h-50zM383 787l95 151h75l-139 -151h-31z" />
    <glyph glyph-name="wacute" unicode="&#x1e83;" horiz-adv-x="741" 
d="M196 0l-163 525h51l81 -276l52 -183h2q27 103 50 182l78 277h49l79 -283q22 -77 48 -176h2q36 128 50 174l84 285h49l-163 -525h-45l-128 458h-2l-130 -458h-44zM353 582l95 151h75l-139 -151h-31z" />
    <glyph glyph-name="Wdieresis" unicode="&#x1e84;" horiz-adv-x="918" 
d="M241 0l-197 740h51l124 -475q22 -84 47 -191h2q18 87 45 190l118 476h58l119 -480q38 -154 44 -186h2q10 46 45 182l126 484h49l-197 -740h-51l-166 671h-2l-167 -671h-50zM511 787v67h64v-67h-64zM343 787v67h64v-67h-64z" />
    <glyph glyph-name="wdieresis" unicode="&#x1e85;" horiz-adv-x="741" 
d="M196 0l-163 525h51l81 -276l52 -183h2q27 103 50 182l78 277h49l79 -283q22 -77 48 -176h2q36 128 50 174l84 285h49l-163 -525h-45l-128 458h-2l-130 -458h-44zM422 582v67h64v-67h-64zM254 582v67h64v-67h-64z" />
    <glyph glyph-name="Ygrave" unicode="&#x1ef2;" horiz-adv-x="601" 
d="M275 0v329l-246 411h56l217 -368l216 368h54l-247 -411v-329h-50zM295 787l-139 151h75l95 -151h-31z" />
    <glyph glyph-name="ygrave" unicode="&#x1ef3;" horiz-adv-x="519" 
d="M87 -200q-42 0 -72 9l12 40q26 -7 66 -7q46 0 73 21t45 69l25 65l-204 528h53l174 -467h2l174 467h52l-227 -587q-29 -75 -65 -106.5t-108 -31.5zM256 582l-139 151h75l95 -151h-31z" />
    <glyph glyph-name="space.en" unicode="&#x2002;" horiz-adv-x="500" 
 />
    <glyph glyph-name="space.em" unicode="&#x2003;" horiz-adv-x="1000" 
 />
    <glyph glyph-name="space.tab" unicode="&#x2007;" horiz-adv-x="325" 
 />
    <glyph glyph-name="space.thin" unicode="&#x2009;" horiz-adv-x="200" 
 />
    <glyph glyph-name="endash.tab" unicode="&#x2012;" 
d="M75 291v46h500v-46h-500z" />
    <glyph glyph-name="endash" unicode="&#x2013;" horiz-adv-x="640" 
d="M70 291v46h500v-46h-500z" />
    <glyph glyph-name="emdash" unicode="&#x2014;" horiz-adv-x="920" 
d="M70 291v46h780v-46h-780z" />
    <glyph glyph-name="emdash.em_salt" unicode="&#x2015;" horiz-adv-x="1000" 
d="M0 291v46h1000v-46h-1000z" />
    <glyph glyph-name="quoteleft" unicode="&#x2018;" horiz-adv-x="265" 
d="M99 563v74l39 103h22l-20 -97h26v-80h-67z" />
    <glyph glyph-name="quoteright" unicode="&#x2019;" horiz-adv-x="265" 
d="M105 563l20 97h-26v80h67v-74l-39 -103h-22z" />
    <glyph glyph-name="quotesinglbase" unicode="&#x201a;" horiz-adv-x="265" 
d="M105 -97l20 97h-26v80h67v-74l-39 -103h-22z" />
    <glyph glyph-name="quotedblleft" unicode="&#x201c;" horiz-adv-x="437" 
d="M271 563v74l39 103h22l-20 -97h26v-80h-67zM99 563v74l39 103h22l-20 -97h26v-80h-67z" />
    <glyph glyph-name="quotedblright" unicode="&#x201d;" horiz-adv-x="437" 
d="M277 563l20 97h-26v80h67v-74l-39 -103h-22zM105 563l20 97h-26v80h67v-74l-39 -103h-22z" />
    <glyph glyph-name="quotedblbase" unicode="&#x201e;" horiz-adv-x="437" 
d="M277 -97l20 97h-26v80h67v-74l-39 -103h-22zM105 -97l20 97h-26v80h67v-74l-39 -103h-22z" />
    <glyph glyph-name="dagger" unicode="&#x2020;" horiz-adv-x="543" 
d="M244 -200l10 636l-201 -9v49l201 -10l-10 274h55l-10 -274l201 10v-49l-201 9l10 -636h-55z" />
    <glyph glyph-name="daggerdbl" unicode="&#x2021;" horiz-adv-x="543" 
d="M244 -200l10 247l-196 -10v49l196 -9l-6 196l6 191l-196 -9v49l196 -10l-10 246h55l-10 -246l196 10v-49l-196 9l6 -191l-6 -196l196 9v-49l-196 10l10 -247h-55z" />
    <glyph glyph-name="bullet" unicode="&#x2022;" horiz-adv-x="463" 
d="M231 237q-49 0 -81 32t-32 81t32 81.5t81 32.5t81.5 -32t32.5 -82q0 -49 -32.5 -81t-81.5 -32z" />
    <glyph glyph-name="ellipsis" unicode="&#x2026;" horiz-adv-x="795" 
d="M629 0v80h67v-80h-67zM99 0v80h67v-80h-67zM364 0v80h67v-80h-67z" />
    <glyph glyph-name="perthousand" unicode="&#x2030;" horiz-adv-x="1338" 
d="M224 315q-75 0 -116.5 59t-41.5 156q0 101 43.5 160.5t116.5 59.5t115 -58.5t42 -157.5q0 -97 -42.5 -158t-116.5 -61zM713 -10q-75 0 -116.5 59t-41.5 156q0 101 43.5 160.5t116.5 59.5t115 -58.5t42 -157.5q0 -97 -42.5 -158t-116.5 -61zM1113 -10q-75 0 -116.5 59
t-41.5 156q0 101 43.5 160.5t116.5 59.5t115 -58.5t42 -157.5q0 -97 -42.5 -158t-116.5 -61zM225 358q51 0 80.5 50t29.5 124q0 79 -29.5 127t-81.5 48q-51 0 -80.5 -49.5t-29.5 -123.5q0 -79 29.5 -127.5t81.5 -48.5zM714 33q51 0 80.5 50t29.5 124q0 79 -29.5 127
t-81.5 48q-51 0 -80.5 -49.5t-29.5 -123.5q0 -79 29.5 -127.5t81.5 -48.5zM1114 33q51 0 80.5 50t29.5 124q0 79 -29.5 127t-81.5 48q-51 0 -80.5 -49.5t-29.5 -123.5q0 -79 29.5 -127.5t81.5 -48.5zM224 0l442 740h48l-442 -740h-48z" />
    <glyph glyph-name="prime" unicode="&#x2032;" horiz-adv-x="226" 
d="M76 493l17 196l9 51h54l-60 -247h-20z" />
    <glyph glyph-name="primedbl" unicode="&#x2033;" horiz-adv-x="392" 
d="M76 493l17 196l9 51h54l-60 -247h-20zM242 493l17 196l9 51h54l-60 -247h-20z" />
    <glyph glyph-name="guilsinglleft" unicode="&#x2039;" horiz-adv-x="313" 
d="M194 0l-144 263l144 262h53l-142 -262l142 -263h-53z" />
    <glyph glyph-name="guilsinglright" unicode="&#x203a;" horiz-adv-x="313" 
d="M65 0l143 263l-143 262h53l145 -262l-145 -263h-53z" />
    <glyph glyph-name="fraction" unicode="&#x2044;" horiz-adv-x="448" 
d="M-15 0l430 740h48l-430 -740h-48z" />
    <glyph glyph-name="zero.sups" unicode="&#x2070;" horiz-adv-x="458" 
d="M230 274q-80 0 -123.5 63t-43.5 172t43.5 174t123.5 65q78 0 121.5 -65t43.5 -174t-43.5 -172t-121.5 -63zM230 313q57 0 89.5 50.5t32.5 145.5q0 94 -33 146.5t-89 52.5q-59 0 -91.5 -52t-32.5 -147t33.5 -145.5t90.5 -50.5z" />
    <glyph glyph-name="four.sups" unicode="&#x2074;" horiz-adv-x="425" 
d="M268 282v113h-211v30l206 315h48v-303h75v-42h-75v-113h-43zM113 437h155v236z" />
    <glyph glyph-name="five.sups" unicode="&#x2075;" horiz-adv-x="416" 
d="M205 274q-98 0 -152 94l36 22q45 -77 117 -77q54 0 83 33.5t29 82.5q0 54 -28.5 84t-72.5 30q-61 0 -97 -52l-41 17l15 232h243l-4 -43h-199l-12 -154q31 40 100 40q59 0 99 -41.5t40 -110.5q0 -70 -42.5 -113.5t-113.5 -43.5z" />
    <glyph glyph-name="six.sups" unicode="&#x2076;" horiz-adv-x="432" 
d="M224 274q-70 0 -115.5 58.5t-45.5 172.5q0 106 46.5 174.5t129.5 68.5q76 0 126 -48l-26 -31q-28 22 -48.5 31t-52.5 9q-61 0 -96 -51.5t-37 -143.5q55 61 126 61q73 0 109.5 -41t36.5 -105q0 -67 -42 -111t-111 -44zM225 314q49 0 78.5 30.5t29.5 84.5q0 49 -25.5 77.5
t-78.5 28.5q-69 0 -121 -71q7 -75 39.5 -112.5t77.5 -37.5z" />
    <glyph glyph-name="seven.sups" unicode="&#x2077;" horiz-adv-x="401" 
d="M101 282l191 415h-231v43h280v-35l-194 -423h-46z" />
    <glyph glyph-name="eight.sups" unicode="&#x2078;" horiz-adv-x="431" 
d="M215 274q-74 0 -118 34.5t-44 85.5q0 46 27.5 75t85.5 56q-47 22 -69.5 46.5t-22.5 62.5q0 47 39 80.5t102 33.5q64 0 103 -33.5t39 -80.5q0 -37 -24 -60t-74 -46q60 -29 89.5 -59t29.5 -75q0 -50 -44.5 -85t-118.5 -35zM215 313q52 0 85 23t33 60q0 35 -30.5 60.5
t-92.5 50.5q-63 -28 -88.5 -52t-25.5 -59q0 -36 34 -59.5t85 -23.5zM216 546q55 25 76 42t21 46q0 30 -25.5 52t-72.5 22q-45 0 -71.5 -21.5t-26.5 -50.5q0 -30 21 -47.5t78 -42.5z" />
    <glyph glyph-name="nine.sups" unicode="&#x2079;" horiz-adv-x="432" 
d="M193 274q-76 0 -126 48l26 31q28 -22 48.5 -31t52.5 -9q61 0 96 51.5t37 143.5q-55 -61 -126 -61q-73 0 -109.5 41t-36.5 105q0 67 42 111t111 44q70 0 115.5 -58.5t45.5 -172.5q0 -106 -46.5 -174.5t-129.5 -68.5zM203 487q69 0 121 71q-7 75 -39.5 112.5t-77.5 37.5
q-49 0 -78.5 -30.5t-29.5 -84.5q0 -49 25.5 -77.5t78.5 -28.5z" />
    <glyph glyph-name="zero.sinf" unicode="&#x2080;" horiz-adv-x="458" 
d="M230 -208q-80 0 -123.5 63t-43.5 172t43.5 174t123.5 65q78 0 121.5 -65t43.5 -174t-43.5 -172t-121.5 -63zM230 -169q57 0 89.5 50.5t32.5 145.5q0 94 -33 146.5t-89 52.5q-59 0 -91.5 -52t-32.5 -147t33.5 -145.5t90.5 -50.5z" />
    <glyph glyph-name="one.sinf" unicode="&#x2081;" horiz-adv-x="351" 
d="M80 -200v42h85v361q-37 -16 -83 -16v42q63 2 89 29h39v-416h77v-42h-207z" />
    <glyph glyph-name="two.sinf" unicode="&#x2082;" horiz-adv-x="439" 
d="M70 -200v18q0 52 34.5 99.5t121.5 103.5q48 31 68.5 57.5t20.5 60.5q0 39 -23.5 63t-66.5 24q-37 0 -62.5 -19.5t-46.5 -63.5l-39 19q49 106 149 106q61 0 97.5 -35.5t36.5 -92.5q0 -48 -27 -83t-95 -78q-112 -71 -120 -135h244v-44h-292z" />
    <glyph glyph-name="three.sinf" unicode="&#x2083;" horiz-adv-x="439" 
d="M218 -209q-103 0 -158 96l36 24q46 -77 123 -77q48 0 76 25t28 66q0 51 -33 75.5t-109 24.5h-23v38h27q129 0 129 85q0 35 -23 56.5t-70 21.5q-59 0 -106 -60l-35 23q59 79 142 79q69 0 103.5 -34.5t34.5 -83.5q0 -80 -79 -106q88 -27 88 -118q0 -57 -41 -96t-110 -39z
" />
    <glyph glyph-name="four.sinf" unicode="&#x2084;" horiz-adv-x="425" 
d="M268 -200v113h-211v30l206 315h48v-303h75v-42h-75v-113h-43zM113 -45h155v236z" />
    <glyph glyph-name="five.sinf" unicode="&#x2085;" horiz-adv-x="416" 
d="M205 -208q-98 0 -152 94l36 22q45 -77 117 -77q54 0 83 33.5t29 82.5q0 54 -28.5 84t-72.5 30q-61 0 -97 -52l-41 17l15 232h243l-4 -43h-199l-12 -154q31 40 100 40q59 0 99 -41.5t40 -110.5q0 -70 -42.5 -113.5t-113.5 -43.5z" />
    <glyph glyph-name="six.sinf" unicode="&#x2086;" horiz-adv-x="432" 
d="M224 -208q-70 0 -115.5 58.5t-45.5 172.5q0 106 46.5 174.5t129.5 68.5q76 0 126 -48l-26 -31q-28 22 -48.5 31t-52.5 9q-61 0 -96 -51.5t-37 -143.5q55 61 126 61q73 0 109.5 -41t36.5 -105q0 -67 -42 -111t-111 -44zM225 -168q49 0 78.5 30.5t29.5 84.5
q0 49 -25.5 77.5t-78.5 28.5q-69 0 -121 -71q7 -75 39.5 -112.5t77.5 -37.5z" />
    <glyph glyph-name="seven.sinf" unicode="&#x2087;" horiz-adv-x="401" 
d="M101 -200l191 415h-231v43h280v-35l-194 -423h-46z" />
    <glyph glyph-name="eight.sinf" unicode="&#x2088;" horiz-adv-x="431" 
d="M215 -208q-74 0 -118 34.5t-44 85.5q0 46 27.5 75t85.5 56q-47 22 -69.5 46.5t-22.5 62.5q0 47 39 80.5t102 33.5q64 0 103 -33.5t39 -80.5q0 -37 -24 -60t-74 -46q60 -29 89.5 -59t29.5 -75q0 -50 -44.5 -85t-118.5 -35zM215 -169q52 0 85 23t33 60q0 35 -30.5 60.5
t-92.5 50.5q-63 -28 -88.5 -52t-25.5 -59q0 -36 34 -59.5t85 -23.5zM216 64q55 25 76 42t21 46q0 30 -25.5 52t-72.5 22q-45 0 -71.5 -21.5t-26.5 -50.5q0 -30 21 -47.5t78 -42.5z" />
    <glyph glyph-name="nine.sinf" unicode="&#x2089;" horiz-adv-x="432" 
d="M193 -208q-76 0 -126 48l26 31q28 -22 48.5 -31t52.5 -9q61 0 96 51.5t37 143.5q-55 -61 -126 -61q-73 0 -109.5 41t-36.5 105q0 67 42 111t111 44q70 0 115.5 -58.5t45.5 -172.5q0 -106 -46.5 -174.5t-129.5 -68.5zM203 5q69 0 121 71q-7 75 -39.5 112.5t-77.5 37.5
q-49 0 -78.5 -30.5t-29.5 -84.5q0 -49 25.5 -77.5t78.5 -28.5z" />
    <glyph glyph-name="Euro" unicode="&#x20ac;" horiz-adv-x="712" 
d="M145 423h-124v45h129q19 141 93 213.5t171 72.5q174 0 228 -214l-48 -11q-26 93 -64 136.5t-117 43.5q-81 0 -139.5 -61t-75.5 -180h243v-45h-248q-1 -14 -1 -44q0 -23 2 -61h247v-46h-242q17 -118 73 -179.5t143 -61.5q79 0 123 47t69 142l47 -11q-57 -223 -240 -223
q-104 0 -174 72.5t-90 213.5h-129v46h125q-2 36 -2 57q0 9 0.5 25t0.5 23z" />
    <glyph glyph-name="litre" unicode="&#x2113;" horiz-adv-x="539" 
d="M412 80l15 -23q-59 -57 -127 -57q-59 0 -86 38.5t-27 101.5v143l-77 -80l-15 19l92 94v229q0 80 31 124.5t85 44.5q46 0 67.5 -29.5t21.5 -65.5q0 -63 -29.5 -122t-85.5 -127l-42 -52v-175q0 -108 84 -108q46 0 93 45zM360 608q0 32 -14 51.5t-40 19.5q-71 0 -71 -127
v-198l54 68q71 104 71 186z" />
    <glyph glyph-name="afii61352" unicode="&#x2116;" horiz-adv-x="1114" 
d="M99 0v740h57l430 -642h2v642h48v-740h-43l-444 664h-2v-664h-48zM901 363q-68 0 -117 52.5t-49 139.5q0 89 49 140.5t117 51.5q69 0 118 -51.5t49 -140.5q0 -87 -49.5 -139.5t-117.5 -52.5zM901 395q55 0 91 44.5t36 114.5q0 72 -35.5 116t-91.5 44q-55 0 -91 -43.5
t-36 -116.5q0 -69 36 -114t91 -45zM755 255v38h293v-38h-293z" />
    <glyph glyph-name="copyrightsound" unicode="&#x2117;" horiz-adv-x="862" 
d="M431 -14q-159 0 -270 112.5t-111 271.5t111 271.5t270 112.5t270 -112.5t111 -271.5t-111 -271.5t-270 -112.5zM431 20q144 0 244.5 103t100.5 247t-100.5 247t-244.5 103t-244.5 -103t-100.5 -247t100.5 -247t244.5 -103zM309 158v425h140q70 0 107.5 -29.5t37.5 -83.5
q0 -59 -39.5 -88.5t-109.5 -29.5h-98v-194h-38zM347 388h100q54 0 81.5 18.5t27.5 62.5q0 78 -110 78h-99v-159z" />
    <glyph glyph-name="trademark" unicode="&#x2122;" horiz-adv-x="865" 
d="M419 317v423h51l139 -370l140 370h52v-423h-42v345l-133 -345h-35l-133 345v-345h-39zM166 317v386h-135v37h310v-37h-135v-386h-40z" />
    <glyph glyph-name="Omega" unicode="&#x2126;" horiz-adv-x="734" 
d="M367 754q139 0 217.5 -104t78.5 -258q0 -106 -48 -196.5t-129 -150.5h169v-45h-222v45q181 137 181 346q0 139 -66.5 228.5t-181.5 89.5q-112 0 -179 -87t-67 -230q0 -208 181 -347v-45h-222v45h169q-81 58 -129 149t-48 198q0 156 79.5 259t216.5 103z" />
    <glyph glyph-name="estimated" unicode="&#x212e;" horiz-adv-x="697" 
d="M664 318h-490v-220q71 -71 174 -71q84 0 137.5 37t99.5 108l37 -23q-50 -78 -114 -119.5t-160 -41.5q-138 0 -224 96t-86 235q0 141 85.5 236t227.5 95t226.5 -95.5t86.5 -236.5zM525 358v182q-76 71 -175 71q-105 0 -176 -71v-182h351z" />
    <glyph glyph-name="partialdiff" unicode="&#x2202;" horiz-adv-x="574" 
d="M269 749q118 -90 184.5 -214.5t66.5 -272.5q0 -119 -68.5 -196t-164.5 -77q-98 0 -165 76t-67 193q0 121 65.5 195.5t159.5 74.5q50 0 97 -26t76 -74q-52 173 -207 293zM287 27q78 0 132 65.5t54 165.5q0 102 -54 167t-132 65q-79 0 -132 -64.5t-53 -167.5
q0 -101 53.5 -166t131.5 -65z" />
    <glyph glyph-name="Delta" unicode="&#x2206;" horiz-adv-x="659" 
d="M37 0l268 744h49l268 -744h-585zM99 42h458l-228 637h-1z" />
    <glyph glyph-name="product" unicode="&#x220f;" horiz-adv-x="719" 
d="M99 -200v940h521v-940h-49v897h-422v-897h-50z" />
    <glyph glyph-name="summation" unicode="&#x2211;" horiz-adv-x="586" 
d="M358 286l-247 -444h415v-42h-468v38l247 446l-234 413v43h445v-43h-391z" />
    <glyph glyph-name="minus" unicode="&#x2212;" horiz-adv-x="634" 
d="M65 302v44h504v-44h-504z" />
    <glyph glyph-name="radical" unicode="&#x221a;" horiz-adv-x="582" 
d="M227 -3l-195 528h53l166 -465h2l245 680h52l-275 -743h-48z" />
    <glyph glyph-name="infinity" unicode="&#x221e;" horiz-adv-x="754" 
d="M199 194q-77 0 -118 42t-41 123q0 80 41 123t118 43q106 0 178 -124q70 124 178 124q77 0 118 -43t41 -123q0 -81 -41 -123t-118 -42q-107 0 -178 126q-73 -126 -178 -126zM199 238q50 0 84.5 31t70.5 90q-37 59 -71 90.5t-84 31.5q-55 0 -84 -31.5t-29 -90.5t29 -90
t84 -31zM555 238q55 0 84 31t29 90t-29 90.5t-84 31.5q-50 0 -84.5 -31t-70.5 -89q36 -60 70.5 -91.5t84.5 -31.5z" />
    <glyph glyph-name="integral" unicode="&#x222b;" horiz-adv-x="313" 
d="M72 -200q-16 0 -28 2v43q12 -3 28 -3q48 0 48 55v717q0 126 144 126h26v-44q-8 1 -32 1q-90 0 -90 -79v-715q0 -103 -96 -103z" />
    <glyph glyph-name="approxequal" unicode="&#x2248;" horiz-adv-x="579" 
d="M406 167q-30 3 -128 38t-118 37q-55 3 -59 -48l-37 3q4 49 32 72t71 19q31 -2 128.5 -37t117.5 -37q54 -5 59 47l36 -3q-4 -49 -31 -71.5t-71 -19.5zM411 361q-31 2 -128.5 37t-117.5 37q-54 5 -59 -47l-36 3q4 49 31 71.5t71 19.5q30 -3 128 -38t118 -37q55 -3 59 48
l37 -3q-4 -49 -32 -72t-71 -19z" />
    <glyph glyph-name="notequal" unicode="&#x2260;" horiz-adv-x="634" 
d="M136 0l93 187h-165v46h188l91 182h-279v46h302l100 198h50l-99 -198h152v-46h-175l-92 -182h267v-46h-290l-93 -187h-50z" />
    <glyph glyph-name="lessequal" unicode="&#x2264;" horiz-adv-x="634" 
d="M578 138l-529 195v42l529 195v-49l-460 -167l460 -167v-49zM49 58v44h529v-44h-529z" />
    <glyph glyph-name="greaterequal" unicode="&#x2265;" horiz-adv-x="634" 
d="M56 138v49l460 167l-460 167v49l529 -195v-42zM56 58v44h529v-44h-529z" />
    <glyph glyph-name="lozenge" unicode="&#x25ca;" 
d="M301 0l-236 370l236 370h48l236 -370l-236 -370h-48zM325 52l206 318l-206 318l-206 -318z" />
    <glyph glyph-name="u2022.check" unicode="&#x2713;" horiz-adv-x="582" 
d="M227 -3l-195 528h53l166 -465h2l245 680h52l-275 -743h-48z" />
    <glyph glyph-name="apple" unicode="&#xf8ff;" horiz-adv-x="760" 
d="M562 552l32 2v-49l-34 1l-6 -119l196 10v-55l-196 10l6 -118l34 2v-49l-32 2l2 -33h-49l1 35l-118 6l10 -197h-55l10 197l-119 -6l2 -35h-49l2 33l-32 -2v49l34 -1l6 117l-197 -10v55l197 -10l-6 120l-34 -2v49l32 -2l-2 31h49l-1 -33l118 -6l-10 196h55l-10 -196l119 6
l-2 33h49zM519 508l-121 6v-127h126zM243 509l-6 -122h126v127zM518 232l6 120h-126v-125zM242 233l121 -6v125h-126z" />
    <glyph glyph-name="NUL" horiz-adv-x="0" 
 />
    <glyph glyph-name="zero.salt_slash" horiz-adv-x="643" 
d="M322 -14q-125 0 -194 104t-69 280t69 280t194 104t193.5 -104t68.5 -280t-68.5 -280t-193.5 -104zM108 370q0 -124 36 -209l337 453q-58 96 -159 96t-157.5 -89t-56.5 -251zM322 30q100 0 156.5 89t56.5 251q0 121 -35 205l-338 -450q58 -95 160 -95z" />
    <glyph glyph-name="endash.en_salt" horiz-adv-x="500" 
d="M0 291v46h500v-46h-500z" />
    <glyph glyph-name="registered.salt_big" horiz-adv-x="862" 
d="M431 -14q-159 0 -270 112.5t-111 271.5t111 271.5t270 112.5t270 -112.5t111 -271.5t-111 -271.5t-270 -112.5zM431 20q144 0 244.5 103t100.5 247t-100.5 247t-244.5 103t-244.5 -103t-100.5 -247t100.5 -247t244.5 -103zM296 165v424h140q70 0 107.5 -29t37.5 -83
q0 -95 -100 -113l108 -199h-42l-106 194h-107v-194h-38zM334 394h100q54 0 81.5 18.5t27.5 63.5q0 77 -110 77h-99v-159z" />
    <glyph glyph-name="A.sc" horiz-adv-x="565" 
d="M33 0l223 594h54l222 -594h-51l-71 193h-256l-73 -193h-48zM167 233h227l-112 307h-2z" />
    <glyph glyph-name="B.sc" horiz-adv-x="578" 
d="M83 0v592h213q110 0 160.5 -35.5t50.5 -114.5q0 -55 -31 -90.5t-77 -45.5v-2q62 -10 96 -46.5t34 -97.5q0 -160 -213 -160h-233zM131 42h186q84 0 123.5 29t39.5 90q0 123 -183 123h-166v-242zM131 324h160q83 0 125 26.5t42 87.5q0 62 -38.5 87t-124.5 25h-164v-226z
" />
    <glyph glyph-name="C.sc" horiz-adv-x="589" 
d="M309 -11q-117 0 -187 85t-70 225q0 132 71 218t186 86q175 0 224 -180l-46 -11q-22 76 -64 112.5t-115 36.5q-94 0 -151 -72t-57 -188q0 -126 57.5 -198t153.5 -72q143 0 186 156l45 -11q-24 -88 -84 -137.5t-149 -49.5z" />
    <glyph glyph-name="D.sc" horiz-adv-x="598" 
d="M83 0v592h154q155 0 231.5 -72.5t76.5 -223.5q0 -296 -308 -296h-154zM131 43h114q124 0 187.5 60t63.5 193t-64 193t-188 60h-113v-506z" />
    <glyph glyph-name="E.sc" horiz-adv-x="509" 
d="M83 0v592h367v-43h-319v-214h239v-42h-239v-250h337v-43h-385z" />
    <glyph glyph-name="F.sc" horiz-adv-x="477" 
d="M83 0v592h361v-43h-313v-216h233v-42h-233v-291h-48z" />
    <glyph glyph-name="G.sc" horiz-adv-x="608" 
d="M307 -11q-117 0 -186 87t-69 222q0 138 73 221.5t187 83.5q174 0 223 -180l-45 -11q-24 77 -66 113t-113 36q-92 0 -151.5 -69.5t-59.5 -190.5q0 -124 57 -197t154 -73q84 0 134 54t48 148h-159v42h205v-275h-44v92h-1q-57 -103 -187 -103z" />
    <glyph glyph-name="H.sc" horiz-adv-x="617" 
d="M83 0v592h48v-258h354v258h49v-592h-49v292h-354v-292h-48z" />
    <glyph glyph-name="I.sc" horiz-adv-x="232" 
d="M92 0v592h49v-592h-49z" />
    <glyph glyph-name="J.sc" horiz-adv-x="419" 
d="M177 -11q-87 0 -160 53l26 37q66 -49 133 -49q116 0 116 125v437h48v-435q0 -168 -163 -168z" />
    <glyph glyph-name="K.sc" horiz-adv-x="561" 
d="M83 0v592h48v-329l314 329h61l-216 -223l249 -369h-57l-226 332l-125 -127v-205h-48z" />
    <glyph glyph-name="L.sc" horiz-adv-x="477" 
d="M443 0h-360v592h48v-549h312v-43z" />
    <glyph glyph-name="M.sc" horiz-adv-x="735" 
d="M129 0h-46v592h62l221 -530h2l221 530h63v-592h-50v512h-1q-14 -43 -40 -104l-173 -408h-44l-174 408q-25 65 -40 105h-1v-513z" />
    <glyph glyph-name="N.sc" horiz-adv-x="627" 
d="M129 0h-46v592h55l289 -407l68 -96h1v503h48v-592h-44l-319 447l-51 72h-1v-519z" />
    <glyph glyph-name="O.sc" horiz-adv-x="624" 
d="M313 -11q-115 0 -188 85t-73 222t73 222t188 85q113 0 186 -85.5t73 -221.5t-73 -221.5t-186 -85.5zM313 31q93 0 152 71.5t59 193.5t-59 193.5t-152 71.5q-94 0 -153.5 -71.5t-59.5 -193.5t59.5 -193.5t153.5 -71.5z" />
    <glyph glyph-name="P.sc" horiz-adv-x="540" 
d="M131 0h-48v592h205q214 0 214 -157q0 -88 -56.5 -125.5t-162.5 -37.5h-152v-272zM131 549v-235h155q85 0 126.5 26t41.5 94q0 64 -41.5 89.5t-127.5 25.5h-154z" />
    <glyph glyph-name="Q.sc" horiz-adv-x="624" 
d="M518 -106v-41h-48q-90 0 -137 38t-47 100q-105 10 -169.5 93.5t-64.5 211.5q0 137 73 222t188 85q113 0 186 -85.5t73 -221.5q0 -129 -66 -213.5t-171 -92.5q7 -96 140 -96h43zM313 31q93 0 151.5 71.5t58.5 193.5t-58.5 193.5t-151.5 71.5q-94 0 -153.5 -71.5
t-59.5 -193.5t59.5 -193.5t153.5 -71.5z" />
    <glyph glyph-name="R.sc" horiz-adv-x="564" 
d="M131 0h-48v592h206q213 0 213 -156q0 -139 -151 -157l160 -279h-55l-158 274h-167v-274zM131 549v-234h155q85 0 126.5 26.5t41.5 92.5q0 63 -42 89t-127 26h-154z" />
    <glyph glyph-name="S.sc" horiz-adv-x="545" 
d="M277 -11q-86 0 -144 42t-79 116l44 14q19 -64 66 -97.5t116 -33.5q74 0 117.5 30t43.5 84q0 32 -11 54.5t-34.5 36.5t-46.5 23t-60 20q-3 1 -4 1t-3 1t-4 1l-21 6q-37 10 -55.5 16t-47.5 20t-43.5 29.5t-26 42t-11.5 60.5q0 70 53 109t139 39q158 0 206 -138l-43 -15
q-42 111 -164 111q-67 0 -105 -27.5t-38 -76.5q0 -30 10.5 -51.5t37.5 -36.5t45 -21.5t60 -18.5q11 -3 17 -5q96 -27 128 -46q70 -42 70 -130q0 -78 -58.5 -118.5t-153.5 -40.5z" />
    <glyph glyph-name="T.sc" horiz-adv-x="519" 
d="M284 0h-49v549h-204v43h457v-43h-204v-549z" />
    <glyph glyph-name="U.sc" horiz-adv-x="605" 
d="M302 -11q-107 0 -165.5 59t-58.5 149v395h49v-387q0 -78 44 -126t132 -48q87 0 131 47t44 126v388h49v-393q0 -91 -58.5 -150.5t-166.5 -59.5z" />
    <glyph glyph-name="V.sc" horiz-adv-x="554" 
d="M299 -2h-44l-222 594h50l161 -439l33 -90h2l33 89l161 440h48z" />
    <glyph glyph-name="W.sc" horiz-adv-x="780" 
d="M251 0h-47l-168 592h50l102 -371q34 -126 40 -151h1q5 24 37 150l99 372h53l99 -375q30 -107 37 -147h1l39 144l104 378h46l-165 -592h-49l-138 527h-2z" />
    <glyph glyph-name="X.sc" horiz-adv-x="548" 
d="M80 0h-54l219 319l-189 273h55l167 -241l165 241h54l-192 -279l218 -313h-55l-195 281z" />
    <glyph glyph-name="Y.sc" horiz-adv-x="515" 
d="M232 0v262l-209 330h53l182 -289l180 289h53l-209 -330v-262h-50z" />
    <glyph glyph-name="Z.sc" horiz-adv-x="525" 
d="M479 0h-442v35l384 517h-358v40h416v-35l-383 -517h383v-40z" />
    <glyph glyph-name="ampersand.sc" horiz-adv-x="619" 
d="M504 295h47q-17 -124 -87 -207q62 -47 131 -53v-43q-48 5 -85 18.5t-78 45.5q-79 -67 -185 -67q-104 0 -157 41.5t-53 115.5q0 44 24 81t52.5 57.5t74.5 46.5q-45 73 -45 134q0 58 36 98t103 40q55 0 85.5 -29.5t30.5 -85.5q0 -30 -11.5 -55t-36 -46t-45 -34.5
t-56.5 -32.5q21 -32 64 -81q74 -84 117 -124q61 71 74 180zM248 29q82 0 150 55q-53 48 -125 132q-34 38 -65 81q-58 -32 -89.5 -66t-31.5 -83q0 -56 41 -87.5t120 -31.5zM191 467q0 -54 37 -115q60 32 91 61.5t31 72.5q0 77 -68 77q-46 0 -68.5 -26.5t-22.5 -69.5z" />
    <glyph glyph-name="AE.sc" horiz-adv-x="842" 
d="M196 195l-121 -195h-52l367 592h392v-43h-318v-214h239v-42h-239v-250h337v-43h-385v195h-220zM415 555l-195 -319h196v319h-1z" />
    <glyph glyph-name="OE.sc" horiz-adv-x="948" 
d="M312 -11q-115 0 -187.5 85t-72.5 222t72.5 222t187.5 85q73 0 128 -36t86 -103v128h363v-43h-319v-214h239v-42h-239v-250h337v-43h-381v128q-64 -139 -214 -139zM312 31q93 0 151.5 71.5t58.5 193.5t-58.5 193.5t-151.5 71.5t-152.5 -71.5t-59.5 -193.5t59.5 -193.5
t152.5 -71.5z" />
    <glyph glyph-name="Eth.sc" horiz-adv-x="598" 
d="M83 0v293h-72v41h72v258h154q155 0 231.5 -72.5t76.5 -223.5q0 -296 -308 -296h-154zM131 293v-250h114q124 0 187.5 60t63.5 193t-64 193t-188 60h-113v-215h142v-41h-142z" />
    <glyph glyph-name="Thorn.sc" horiz-adv-x="540" 
d="M131 0h-48v592h48v-116h154q104 0 160.5 -40t56.5 -116q0 -83 -59.5 -123.5t-164.5 -40.5h-147v-156zM131 433v-235h151q85 0 128.5 28t43.5 92q0 61 -44 88t-130 27h-149z" />
    <glyph glyph-name="Lslash.sc" horiz-adv-x="477" 
d="M443 43v-43h-360v280l-72 -18v41l72 18v271h48v-259l142 36v-41l-142 -36v-249h312z" />
    <glyph glyph-name="Oslash.sc" horiz-adv-x="624" 
d="M107 -25l-32 24l52 72q-75 84 -75 225q0 137 73 222t188 85q87 0 155 -55l51 71l32 -24l-54 -75q75 -86 75 -224q0 -136 -73 -221.5t-186 -85.5q-92 0 -157 54zM313 31q93 0 152 71.5t59 193.5q0 116 -54 187l-288 -404q54 -48 131 -48zM154 109l289 404q-54 48 -130 48
q-94 0 -153.5 -71.5t-59.5 -193.5q0 -116 54 -187z" />
    <glyph glyph-name="Aacute.sc" horiz-adv-x="565" 
d="M33 0l223 594h54l222 -594h-51l-71 193h-256l-73 -193h-48zM167 233h227l-112 307h-2zM263 644l95 151h75l-139 -151h-31z" />
    <glyph glyph-name="Abreve.sc" horiz-adv-x="565" 
d="M33 0l223 594h54l222 -594h-51l-71 193h-256l-73 -193h-48zM167 233h227l-112 307h-2zM282 641q-62 0 -101 42.5t-43 116.5h34q13 -114 110 -114t110 114h34q-4 -74 -43 -116.5t-101 -42.5z" />
    <glyph glyph-name="Acircumflex.sc" horiz-adv-x="565" 
d="M33 0l223 594h54l222 -594h-51l-71 193h-256l-73 -193h-48zM167 233h227l-112 307h-2zM133 639l129 156h40l129 -156h-33l-117 104l-117 -104h-31z" />
    <glyph glyph-name="Adieresis.sc" horiz-adv-x="565" 
d="M33 0l223 594h54l222 -594h-51l-71 193h-256l-73 -193h-48zM167 233h227l-112 307h-2zM166 644v67h64v-67h-64zM334 644v67h64v-67h-64z" />
    <glyph glyph-name="Agrave.sc" horiz-adv-x="565" 
d="M33 0l223 594h54l222 -594h-51l-71 193h-256l-73 -193h-48zM167 233h227l-112 307h-2zM273 644l-139 151h75l95 -151h-31z" />
    <glyph glyph-name="Amacron.sc" horiz-adv-x="565" 
d="M33 0l223 594h54l222 -594h-51l-71 193h-256l-73 -193h-48zM167 233h227l-112 307h-2zM166 644v46h232v-46h-232z" />
    <glyph glyph-name="Aogonek.sc" horiz-adv-x="565" 
d="M485 -187q-41 0 -65 20.5t-24 56.5q0 58 84 113l-70 190h-256l-73 -193h-48l223 594h54l222 -594h-18q-71 -51 -71 -103q0 -50 53 -50q44 0 98 24l11 -21q-67 -37 -120 -37zM167 233h227l-112 307h-2z" />
    <glyph glyph-name="Aring.sc" horiz-adv-x="565" 
d="M33 0l215 572q-53 22 -53 81q0 37 25 61.5t62 24.5t62 -24.5t25 -61.5q0 -28 -14 -49t-37 -31l214 -573h-51l-71 193h-256l-73 -193h-48zM167 233h227l-112 307h-2zM282 595q24 0 39.5 16.5t15.5 41.5t-15.5 41t-39.5 16t-39.5 -16t-15.5 -41t15.5 -41.5t39.5 -16.5z" />
    <glyph glyph-name="Atilde.sc" horiz-adv-x="565" 
d="M33 0l223 594h54l222 -594h-51l-71 193h-256l-73 -193h-48zM167 233h227l-112 307h-2zM355 642q-27 0 -78 28t-70 28q-22 0 -31.5 -12.5t-9.5 -41.5h-34q0 99 77 99q27 0 78 -28t70 -28q22 0 31.5 12.5t9.5 41.5h34q0 -99 -77 -99z" />
    <glyph glyph-name="Cacute.sc" horiz-adv-x="589" 
d="M309 -11q-117 0 -187 85t-70 225q0 132 71 218t186 86q175 0 224 -180l-46 -11q-22 76 -64 112.5t-115 36.5q-94 0 -151 -72t-57 -188q0 -126 57.5 -198t153.5 -72q143 0 186 156l45 -11q-24 -88 -84 -137.5t-149 -49.5zM248 644l95 151h75l-139 -151h-31z" />
    <glyph glyph-name="Ccaron.sc" horiz-adv-x="589" 
d="M309 -11q-117 0 -187 85t-70 225q0 132 71 218t186 86q175 0 224 -180l-46 -11q-22 76 -64 112.5t-115 36.5q-94 0 -151 -72t-57 -188q0 -126 57.5 -198t153.5 -72q143 0 186 156l45 -11q-24 -88 -84 -137.5t-149 -49.5zM274 644l-129 156h33l117 -104l117 104h31
l-129 -156h-40z" />
    <glyph glyph-name="Ccedilla.sc" horiz-adv-x="589" 
d="M292 -193q-63 0 -118 36l16 25q45 -30 96 -30q80 0 80 51q0 37 -44 37q-28 0 -55 -21l-25 12l22 76q-98 16 -155 98.5t-57 207.5q0 132 71 218t186 86q175 0 224 -180l-46 -11q-22 76 -64 112.5t-115 36.5q-94 0 -151 -72t-57 -188q0 -126 57.5 -198t153.5 -72
q143 0 186 156l45 -11q-24 -88 -84 -137.5t-149 -49.5h-9l-13 -45q23 15 52 15t49.5 -17.5t20.5 -49.5q0 -44 -32.5 -64.5t-84.5 -20.5z" />
    <glyph glyph-name="Ccircumflex.sc" horiz-adv-x="589" 
d="M309 -11q-117 0 -187 85t-70 225q0 132 71 218t186 86q175 0 224 -180l-46 -11q-22 76 -64 112.5t-115 36.5q-94 0 -151 -72t-57 -188q0 -126 57.5 -198t153.5 -72q143 0 186 156l45 -11q-24 -88 -84 -137.5t-149 -49.5zM162 639l129 156h40l129 -156h-33l-117 104
l-117 -104h-31z" />
    <glyph glyph-name="Cdotaccent.sc" horiz-adv-x="589" 
d="M309 -11q-117 0 -187 85t-70 225q0 132 71 218t186 86q175 0 224 -180l-46 -11q-22 76 -64 112.5t-115 36.5q-94 0 -151 -72t-57 -188q0 -126 57.5 -198t153.5 -72q143 0 186 156l45 -11q-24 -88 -84 -137.5t-149 -49.5zM275 644v69h66v-69h-66z" />
    <glyph glyph-name="Dcaron.sc" horiz-adv-x="598" 
d="M83 0v592h154q155 0 231.5 -72.5t76.5 -223.5q0 -296 -308 -296h-154zM131 43h114q124 0 187.5 60t63.5 193t-64 193t-188 60h-113v-506zM279 644l-129 156h33l117 -104l117 104h31l-129 -156h-40z" />
    <glyph glyph-name="Dcroat.sc" horiz-adv-x="598" 
d="M83 0v293h-72v41h72v258h154q155 0 231.5 -72.5t76.5 -223.5q0 -296 -308 -296h-154zM131 293v-250h114q124 0 187.5 60t63.5 193t-64 193t-188 60h-113v-215h142v-41h-142z" />
    <glyph glyph-name="Eacute.sc" horiz-adv-x="509" 
d="M83 0v592h367v-43h-319v-214h239v-42h-239v-250h337v-43h-385zM218 644l95 151h75l-139 -151h-31z" />
    <glyph glyph-name="Ebreve.sc" horiz-adv-x="509" 
d="M83 0v592h367v-43h-319v-214h239v-42h-239v-250h337v-43h-385zM264 641q-62 0 -101 42.5t-43 116.5h34q13 -114 110 -114t110 114h34q-4 -74 -43 -116.5t-101 -42.5z" />
    <glyph glyph-name="Ecaron.sc" horiz-adv-x="509" 
d="M83 0v592h367v-43h-319v-214h239v-42h-239v-250h337v-43h-385zM244 644l-129 156h33l117 -104l117 104h31l-129 -156h-40z" />
    <glyph glyph-name="Ecircumflex.sc" horiz-adv-x="509" 
d="M83 0v592h367v-43h-319v-214h239v-42h-239v-250h337v-43h-385zM115 639l129 156h40l129 -156h-33l-117 104l-117 -104h-31z" />
    <glyph glyph-name="Edieresis.sc" horiz-adv-x="509" 
d="M83 0v592h367v-43h-319v-214h239v-42h-239v-250h337v-43h-385zM148 644v67h64v-67h-64zM316 644v67h64v-67h-64z" />
    <glyph glyph-name="Edotaccent.sc" horiz-adv-x="509" 
d="M83 0v592h367v-43h-319v-214h239v-42h-239v-250h337v-43h-385zM231 644v69h66v-69h-66z" />
    <glyph glyph-name="Egrave.sc" horiz-adv-x="509" 
d="M83 0v592h367v-43h-319v-214h239v-42h-239v-250h337v-43h-385zM279 644l-139 151h75l95 -151h-31z" />
    <glyph glyph-name="Emacron.sc" horiz-adv-x="509" 
d="M83 0v592h367v-43h-319v-214h239v-42h-239v-250h337v-43h-385zM138 644v46h232v-46h-232z" />
    <glyph glyph-name="Eogonek.sc" horiz-adv-x="509" 
d="M83 0v592h367v-43h-319v-214h239v-42h-239v-250h337v-43h-49q-71 -51 -71 -103q0 -50 53 -50q44 0 98 24l11 -21q-67 -37 -120 -37q-41 0 -65 20.5t-24 56.5q0 55 79 110h-297z" />
    <glyph glyph-name="Gbreve.sc" horiz-adv-x="608" 
d="M307 -11q-117 0 -186 87t-69 222q0 138 73 221.5t187 83.5q174 0 223 -180l-45 -11q-24 77 -66 113t-113 36q-92 0 -151.5 -69.5t-59.5 -190.5q0 -124 57 -197t154 -73q84 0 134 54t48 148h-159v42h205v-275h-44v92h-1q-57 -103 -187 -103zM304 641q-62 0 -101 42.5
t-43 116.5h34q13 -114 110 -114t110 114h34q-4 -74 -43 -116.5t-101 -42.5z" />
    <glyph glyph-name="Gcircumflex.sc" horiz-adv-x="608" 
d="M307 -11q-117 0 -186 87t-69 222q0 138 73 221.5t187 83.5q174 0 223 -180l-45 -11q-24 77 -66 113t-113 36q-92 0 -151.5 -69.5t-59.5 -190.5q0 -124 57 -197t154 -73q84 0 134 54t48 148h-159v42h205v-275h-44v92h-1q-57 -103 -187 -103zM164 639l129 156h40l129 -156
h-33l-117 104l-117 -104h-31z" />
    <glyph glyph-name="Gcommaaccent.sc" horiz-adv-x="608" 
d="M307 -11q-117 0 -186 87t-69 222q0 138 73 221.5t187 83.5q174 0 223 -180l-45 -11q-24 77 -66 113t-113 36q-92 0 -151.5 -69.5t-59.5 -190.5q0 -124 57 -197t154 -73q84 0 134 54t48 148h-159v42h205v-275h-44v92h-1q-57 -103 -187 -103zM281 -224l20 97h-26v77h67v-71
l-39 -103h-22z" />
    <glyph glyph-name="Gdotaccent.sc" horiz-adv-x="608" 
d="M307 -11q-117 0 -186 87t-69 222q0 138 73 221.5t187 83.5q174 0 223 -180l-45 -11q-24 77 -66 113t-113 36q-92 0 -151.5 -69.5t-59.5 -190.5q0 -124 57 -197t154 -73q84 0 134 54t48 148h-159v42h205v-275h-44v92h-1q-57 -103 -187 -103zM278 644v69h66v-69h-66z" />
    <glyph glyph-name="Hbar.sc" horiz-adv-x="617" 
d="M11 431v41h72v120h48v-120h354v120h49v-120h72v-41h-72v-431h-49v292h-354v-292h-48v431h-72zM131 334h354v97h-354v-97z" />
    <glyph glyph-name="Hcircumflex.sc" horiz-adv-x="617" 
d="M83 0v592h48v-258h354v258h49v-592h-49v292h-354v-292h-48zM159 639l129 156h40l129 -156h-33l-117 104l-117 -104h-31z" />
    <glyph glyph-name="Iacute.sc" horiz-adv-x="232" 
d="M92 0v592h49v-592h-49zM96 644l95 151h75l-139 -151h-31z" />
    <glyph glyph-name="Ibreve.sc" horiz-adv-x="232" 
d="M92 0v592h49v-592h-49zM116 641q-62 0 -101 42.5t-43 116.5h34q13 -114 110 -114t110 114h34q-4 -74 -43 -116.5t-101 -42.5z" />
    <glyph glyph-name="Icircumflex.sc" horiz-adv-x="232" 
d="M92 0v592h49v-592h-49zM-33 639l129 156h40l129 -156h-33l-117 104l-117 -104h-31z" />
    <glyph glyph-name="Idieresis.sc" horiz-adv-x="232" 
d="M92 0v592h49v-592h-49zM0 644v67h64v-67h-64zM168 644v67h64v-67h-64z" />
    <glyph glyph-name="Idotaccent.sc" horiz-adv-x="232" 
d="M92 0v592h49v-592h-49zM83 644v69h66v-69h-66z" />
    <glyph glyph-name="Igrave.sc" horiz-adv-x="232" 
d="M92 0v592h49v-592h-49zM105 644l-139 151h75l95 -151h-31z" />
    <glyph glyph-name="IJ.sc" horiz-adv-x="621" 
d="M92 0v592h49v-592h-49zM379 -11q-87 0 -160 53l26 37q66 -49 133 -49q116 0 116 125v437h48v-435q0 -168 -163 -168z" />
    <glyph glyph-name="Imacron.sc" horiz-adv-x="232" 
d="M92 0v592h49v-592h-49zM0 644v46h232v-46h-232z" />
    <glyph glyph-name="Iogonek.sc" horiz-adv-x="232" 
d="M98 -187q-41 0 -65 20.5t-24 56.5q0 29 23.5 59t59.5 53v590h49v-592h-14q-71 -51 -71 -103q0 -50 53 -50q44 0 98 24l11 -21q-67 -37 -120 -37z" />
    <glyph glyph-name="Itilde.sc" horiz-adv-x="232" 
d="M92 0v592h49v-592h-49zM189 642q-27 0 -78 28t-70 28q-22 0 -31.5 -12.5t-9.5 -41.5h-34q0 99 77 99q28 0 78.5 -28t69.5 -28q22 0 31.5 12.5t9.5 41.5h34q0 -99 -77 -99z" />
    <glyph glyph-name="Jcircumflex.sc" horiz-adv-x="419" 
d="M177 -11q-87 0 -160 53l26 37q66 -49 133 -49q116 0 116 125v437h48v-435q0 -168 -163 -168zM167 639l129 156h40l129 -156h-33l-117 104l-117 -104h-31z" />
    <glyph glyph-name="Kcommaaccent.sc" horiz-adv-x="561" 
d="M83 0v592h48v-329l314 329h61l-216 -223l249 -369h-57l-226 332l-125 -127v-205h-48zM253 -224l20 97h-26v77h67v-71l-39 -103h-22z" />
    <glyph glyph-name="Lacute.sc" horiz-adv-x="477" 
d="M443 0h-360v592h48v-549h312v-43zM93 644l95 151h75l-139 -151h-31z" />
    <glyph glyph-name="Lcaron.sc" horiz-adv-x="477" 
d="M263 418l20 97h-26v77h67v-71l-39 -103h-22zM443 0h-360v592h48v-549h312v-43z" />
    <glyph glyph-name="Lcommaaccent.sc" horiz-adv-x="477" 
d="M443 0h-360v592h48v-549h312v-43zM211 -224l20 97h-26v77h67v-71l-39 -103h-22z" />
    <glyph glyph-name="Ldot.sc" horiz-adv-x="497" 
d="M323 282v69h66v-69h-66zM443 0h-360v592h48v-549h312v-43z" />
    <glyph glyph-name="Nacute.sc" horiz-adv-x="627" 
d="M129 0h-46v592h55l289 -407l68 -96h1v503h48v-592h-44l-319 447l-51 72h-1v-519zM266 644l95 151h75l-139 -151h-31z" />
    <glyph glyph-name="Ncaron.sc" horiz-adv-x="627" 
d="M129 0h-46v592h55l289 -407l68 -96h1v503h48v-592h-44l-319 447l-51 72h-1v-519zM292 644l-129 156h33l117 -104l117 104h31l-129 -156h-40z" />
    <glyph glyph-name="Ncommaaccent.sc" horiz-adv-x="627" 
d="M129 0h-46v592h55l289 -407l68 -96h1v503h48v-592h-44l-319 447l-51 72h-1v-519zM285 -224l20 97h-26v77h67v-71l-39 -103h-22z" />
    <glyph glyph-name="Ntilde.sc" horiz-adv-x="627" 
d="M129 0h-46v592h55l289 -407l68 -96h1v503h48v-592h-44l-319 447l-51 72h-1v-519zM385 642q-27 0 -78 28t-70 28q-22 0 -31.5 -12.5t-9.5 -41.5h-34q0 99 77 99q27 0 78 -28t70 -28q22 0 31.5 12.5t9.5 41.5h34q0 -99 -77 -99z" />
    <glyph glyph-name="Eng.sc" horiz-adv-x="627" 
d="M83 0v592h55l289 -407l68 -96h1v503h48v-624q0 -168 -163 -168q-87 0 -160 53l26 37q66 -49 133 -49q116 0 116 125v39l-315 442l-51 72h-1v-519h-46z" />
    <glyph glyph-name="Oacute.sc" horiz-adv-x="624" 
d="M313 -11q-115 0 -188 85t-73 222t73 222t188 85q113 0 186 -85.5t73 -221.5t-73 -221.5t-186 -85.5zM313 31q93 0 152 71.5t59 193.5t-59 193.5t-152 71.5q-94 0 -153.5 -71.5t-59.5 -193.5t59.5 -193.5t153.5 -71.5zM266 644l95 151h75l-139 -151h-31z" />
    <glyph glyph-name="Obreve.sc" horiz-adv-x="624" 
d="M313 -11q-115 0 -188 85t-73 222t73 222t188 85q113 0 186 -85.5t73 -221.5t-73 -221.5t-186 -85.5zM313 31q93 0 152 71.5t59 193.5t-59 193.5t-152 71.5q-94 0 -153.5 -71.5t-59.5 -193.5t59.5 -193.5t153.5 -71.5zM312 641q-62 0 -101 42.5t-43 116.5h34
q13 -114 110 -114t110 114h34q-4 -74 -43 -116.5t-101 -42.5z" />
    <glyph glyph-name="Ocircumflex.sc" horiz-adv-x="624" 
d="M313 -11q-115 0 -188 85t-73 222t73 222t188 85q113 0 186 -85.5t73 -221.5t-73 -221.5t-186 -85.5zM313 31q93 0 152 71.5t59 193.5t-59 193.5t-152 71.5q-94 0 -153.5 -71.5t-59.5 -193.5t59.5 -193.5t153.5 -71.5zM163 639l129 156h40l129 -156h-33l-117 104
l-117 -104h-31z" />
    <glyph glyph-name="Odieresis.sc" horiz-adv-x="624" 
d="M313 -11q-115 0 -188 85t-73 222t73 222t188 85q113 0 186 -85.5t73 -221.5t-73 -221.5t-186 -85.5zM313 31q93 0 152 71.5t59 193.5t-59 193.5t-152 71.5q-94 0 -153.5 -71.5t-59.5 -193.5t59.5 -193.5t153.5 -71.5zM196 644v67h64v-67h-64zM364 644v67h64v-67h-64z" />
    <glyph glyph-name="Ograve.sc" horiz-adv-x="624" 
d="M313 -11q-115 0 -188 85t-73 222t73 222t188 85q113 0 186 -85.5t73 -221.5t-73 -221.5t-186 -85.5zM313 31q93 0 152 71.5t59 193.5t-59 193.5t-152 71.5q-94 0 -153.5 -71.5t-59.5 -193.5t59.5 -193.5t153.5 -71.5zM327 644l-139 151h75l95 -151h-31z" />
    <glyph glyph-name="Ohungarumlaut.sc" horiz-adv-x="624" 
d="M313 -11q-115 0 -188 85t-73 222t73 222t188 85q113 0 186 -85.5t73 -221.5t-73 -221.5t-186 -85.5zM313 31q93 0 152 71.5t59 193.5t-59 193.5t-152 71.5q-94 0 -153.5 -71.5t-59.5 -193.5t59.5 -193.5t153.5 -71.5zM192 644l93 151h77l-137 -151h-33zM346 644l93 151
h77l-137 -151h-33z" />
    <glyph glyph-name="Omacron.sc" horiz-adv-x="624" 
d="M313 -11q-115 0 -188 85t-73 222t73 222t188 85q113 0 186 -85.5t73 -221.5t-73 -221.5t-186 -85.5zM313 31q93 0 152 71.5t59 193.5t-59 193.5t-152 71.5q-94 0 -153.5 -71.5t-59.5 -193.5t59.5 -193.5t153.5 -71.5zM196 644v46h232v-46h-232z" />
    <glyph glyph-name="Otilde.sc" horiz-adv-x="624" 
d="M313 -11q-115 0 -188 85t-73 222t73 222t188 85q113 0 186 -85.5t73 -221.5t-73 -221.5t-186 -85.5zM313 31q93 0 152 71.5t59 193.5t-59 193.5t-152 71.5q-94 0 -153.5 -71.5t-59.5 -193.5t59.5 -193.5t153.5 -71.5zM385 642q-27 0 -78 28t-70 28q-22 0 -31.5 -12.5
t-9.5 -41.5h-34q0 99 77 99q27 0 78 -28t70 -28q22 0 31.5 12.5t9.5 41.5h34q0 -99 -77 -99z" />
    <glyph glyph-name="Racute.sc" horiz-adv-x="564" 
d="M131 0h-48v592h206q213 0 213 -156q0 -139 -151 -157l160 -279h-55l-158 274h-167v-274zM131 549v-234h155q85 0 126.5 26.5t41.5 92.5q0 63 -42 89t-127 26h-154zM236 644l95 151h75l-139 -151h-31z" />
    <glyph glyph-name="Rcaron.sc" horiz-adv-x="564" 
d="M131 0h-48v592h206q213 0 213 -156q0 -139 -151 -157l160 -279h-55l-158 274h-167v-274zM131 549v-234h155q85 0 126.5 26.5t41.5 92.5q0 63 -42 89t-127 26h-154zM262 644l-129 156h33l117 -104l117 104h31l-129 -156h-40z" />
    <glyph glyph-name="Rcommaaccent.sc" horiz-adv-x="564" 
d="M131 0h-48v592h206q213 0 213 -156q0 -139 -151 -157l160 -279h-55l-158 274h-167v-274zM131 549v-234h155q85 0 126.5 26.5t41.5 92.5q0 63 -42 89t-127 26h-154zM255 -224l20 97h-26v77h67v-71l-39 -103h-22z" />
    <glyph glyph-name="Sacute.sc" horiz-adv-x="545" 
d="M277 -11q-86 0 -144 42t-79 116l44 14q19 -64 66 -97.5t116 -33.5q74 0 117.5 30t43.5 84q0 32 -11 54.5t-34.5 36.5t-46.5 23t-60 20q-3 1 -4 1t-3 1t-4 1l-21 6q-37 10 -55.5 16t-47.5 20t-43.5 29.5t-26 42t-11.5 60.5q0 70 53 109t139 39q158 0 206 -138l-43 -15
q-42 111 -164 111q-67 0 -105 -27.5t-38 -76.5q0 -30 10.5 -51.5t37.5 -36.5t45 -21.5t60 -18.5q11 -3 17 -5q96 -27 128 -46q70 -42 70 -130q0 -78 -58.5 -118.5t-153.5 -40.5zM226 644l95 151h75l-139 -151h-31z" />
    <glyph glyph-name="Scaron.sc" horiz-adv-x="545" 
d="M277 -11q-86 0 -144 42t-79 116l44 14q19 -64 66 -97.5t116 -33.5q74 0 117.5 30t43.5 84q0 32 -11 54.5t-34.5 36.5t-46.5 23t-60 20q-3 1 -4 1t-3 1t-4 1l-21 6q-37 10 -55.5 16t-47.5 20t-43.5 29.5t-26 42t-11.5 60.5q0 70 53 109t139 39q158 0 206 -138l-43 -15
q-42 111 -164 111q-67 0 -105 -27.5t-38 -76.5q0 -30 10.5 -51.5t37.5 -36.5t45 -21.5t60 -18.5q11 -3 17 -5q96 -27 128 -46q70 -42 70 -130q0 -78 -58.5 -118.5t-153.5 -40.5zM252 644l-129 156h33l117 -104l117 104h31l-129 -156h-40z" />
    <glyph glyph-name="Scedilla.sc" horiz-adv-x="545" 
d="M270 -193q-63 0 -118 36l16 25q45 -30 96 -30q80 0 80 51q0 37 -44 37q-28 0 -55 -21l-25 12l22 74q-72 8 -120.5 49t-67.5 107l44 14q19 -64 66 -97.5t116 -33.5q74 0 117.5 30t43.5 84q0 32 -11 54.5t-34.5 36.5t-46.5 23t-60 20q-3 1 -4 1t-3 1t-4 1l-21 6
q-37 10 -55.5 16t-47.5 20t-43.5 29.5t-26 42t-11.5 60.5q0 70 53 109t139 39q158 0 206 -138l-43 -15q-42 111 -164 111q-67 0 -105 -27.5t-38 -76.5q0 -30 10.5 -51.5t37.5 -36.5t45 -21.5t60 -18.5q11 -3 17 -5q96 -27 128 -46q70 -42 70 -130q0 -78 -58 -118t-153 -41
l-13 -45q23 15 52 15t49.5 -17.5t20.5 -49.5q0 -44 -32.5 -64.5t-84.5 -20.5z" />
    <glyph glyph-name="Scircumflex.sc" horiz-adv-x="545" 
d="M277 -11q-86 0 -144 42t-79 116l44 14q19 -64 66 -97.5t116 -33.5q74 0 117.5 30t43.5 84q0 32 -11 54.5t-34.5 36.5t-46.5 23t-60 20q-3 1 -4 1t-3 1t-4 1l-21 6q-37 10 -55.5 16t-47.5 20t-43.5 29.5t-26 42t-11.5 60.5q0 70 53 109t139 39q158 0 206 -138l-43 -15
q-42 111 -164 111q-67 0 -105 -27.5t-38 -76.5q0 -30 10.5 -51.5t37.5 -36.5t45 -21.5t60 -18.5q11 -3 17 -5q96 -27 128 -46q70 -42 70 -130q0 -78 -58.5 -118.5t-153.5 -40.5zM113 639l129 156h40l129 -156h-33l-117 104l-117 -104h-31z" />
    <glyph glyph-name="Scommaaccent.sc" horiz-adv-x="545" 
d="M277 -11q-86 0 -144 42t-79 116l44 14q19 -64 66 -97.5t116 -33.5q74 0 117.5 30t43.5 84q0 32 -11 54.5t-34.5 36.5t-46.5 23t-60 20q-3 1 -4 1t-3 1t-4 1l-21 6q-37 10 -55.5 16t-47.5 20t-43.5 29.5t-26 42t-11.5 60.5q0 70 53 109t139 39q158 0 206 -138l-43 -15
q-42 111 -164 111q-67 0 -105 -27.5t-38 -76.5q0 -30 10.5 -51.5t37.5 -36.5t45 -21.5t60 -18.5q11 -3 17 -5q96 -27 128 -46q70 -42 70 -130q0 -78 -58.5 -118.5t-153.5 -40.5zM245 -224l20 97h-26v77h67v-71l-39 -103h-22z" />
    <glyph glyph-name="Tbar.sc" horiz-adv-x="519" 
d="M31 271v41h204v237h-204v43h457v-43h-204v-237h204v-41h-204v-271h-49v271h-204z" />
    <glyph glyph-name="Tcaron.sc" horiz-adv-x="519" 
d="M284 0h-49v549h-204v43h457v-43h-204v-549zM239 644l-129 156h33l117 -104l117 104h31l-129 -156h-40z" />
    <glyph glyph-name="Tcommaaccent.sc" horiz-adv-x="519" 
d="M284 0h-49v549h-204v43h457v-43h-204v-549zM232 -224l20 97h-26v77h67v-71l-39 -103h-22z" />
    <glyph glyph-name="Uacute.sc" horiz-adv-x="605" 
d="M302 -11q-107 0 -165.5 59t-58.5 149v395h49v-387q0 -78 44 -126t132 -48q87 0 131 47t44 126v388h49v-393q0 -91 -58.5 -150.5t-166.5 -59.5zM226 644l95 151h75l-139 -151h-31z" />
    <glyph glyph-name="Ubreve.sc" horiz-adv-x="605" 
d="M302 -11q-107 0 -165.5 59t-58.5 149v395h49v-387q0 -78 44 -126t132 -48q87 0 131 47t44 126v388h49v-393q0 -91 -58.5 -150.5t-166.5 -59.5zM302 641q-62 0 -101 42.5t-43 116.5h34q13 -114 110 -114t110 114h34q-4 -74 -43 -116.5t-101 -42.5z" />
    <glyph glyph-name="Ucircumflex.sc" horiz-adv-x="605" 
d="M302 -11q-107 0 -165.5 59t-58.5 149v395h49v-387q0 -78 44 -126t132 -48q87 0 131 47t44 126v388h49v-393q0 -91 -58.5 -150.5t-166.5 -59.5zM153 639l129 156h40l129 -156h-33l-117 104l-117 -104h-31z" />
    <glyph glyph-name="Udieresis.sc" horiz-adv-x="605" 
d="M302 -11q-107 0 -165.5 59t-58.5 149v395h49v-387q0 -78 44 -126t132 -48q87 0 131 47t44 126v388h49v-393q0 -91 -58.5 -150.5t-166.5 -59.5zM186 644v67h64v-67h-64zM354 644v67h64v-67h-64z" />
    <glyph glyph-name="Ugrave.sc" horiz-adv-x="605" 
d="M302 -11q-107 0 -165.5 59t-58.5 149v395h49v-387q0 -78 44 -126t132 -48q87 0 131 47t44 126v388h49v-393q0 -91 -58.5 -150.5t-166.5 -59.5zM317 644l-139 151h75l95 -151h-31z" />
    <glyph glyph-name="Uhungarumlaut.sc" horiz-adv-x="605" 
d="M302 -11q-107 0 -165.5 59t-58.5 149v395h49v-387q0 -78 44 -126t132 -48q87 0 131 47t44 126v388h49v-393q0 -91 -58.5 -150.5t-166.5 -59.5zM182 644l93 151h77l-137 -151h-33zM336 644l93 151h77l-137 -151h-33z" />
    <glyph glyph-name="Umacron.sc" horiz-adv-x="605" 
d="M302 -11q-107 0 -165.5 59t-58.5 149v395h49v-387q0 -78 44 -126t132 -48q87 0 131 47t44 126v388h49v-393q0 -91 -58.5 -150.5t-166.5 -59.5zM186 644v46h232v-46h-232z" />
    <glyph glyph-name="Uogonek.sc" horiz-adv-x="605" 
d="M306 -187q-41 0 -65 20.5t-24 56.5q0 49 65 100q-98 6 -151 64t-53 143v395h49v-387q0 -78 44 -126t132 -48q87 0 131 47t44 126v388h49v-393q0 -86 -53.5 -145t-153.5 -64q-56 -46 -56 -93q0 -50 53 -50q44 0 98 24l11 -21q-67 -37 -120 -37z" />
    <glyph glyph-name="Uring.sc" horiz-adv-x="605" 
d="M302 -11q-107 0 -165.5 59t-58.5 149v395h49v-387q0 -78 44 -126t132 -48q87 0 131 47t44 126v388h49v-393q0 -91 -58.5 -150.5t-166.5 -59.5zM302 637q-38 0 -62.5 24.5t-24.5 62.5q0 37 25 61.5t62 24.5t62 -24.5t25 -61.5q0 -38 -24.5 -62.5t-62.5 -24.5zM302 666
q24 0 39.5 16.5t15.5 41.5t-15.5 41t-39.5 16t-39.5 -16t-15.5 -41t15.5 -41.5t39.5 -16.5z" />
    <glyph glyph-name="Utilde.sc" horiz-adv-x="605" 
d="M302 -11q-107 0 -165.5 59t-58.5 149v395h49v-387q0 -78 44 -126t132 -48q87 0 131 47t44 126v388h49v-393q0 -91 -58.5 -150.5t-166.5 -59.5zM375 642q-27 0 -78 28t-70 28q-22 0 -31.5 -12.5t-9.5 -41.5h-34q0 99 77 99q27 0 78 -28t70 -28q22 0 31.5 12.5t9.5 41.5h34
q0 -99 -77 -99z" />
    <glyph glyph-name="Wacute.sc" horiz-adv-x="780" 
d="M251 0h-47l-168 592h50l102 -371q34 -126 40 -151h1q5 24 37 150l99 372h53l99 -375q30 -107 37 -147h1l39 144l104 378h46l-165 -592h-49l-138 527h-2zM373 644l95 151h75l-139 -151h-31z" />
    <glyph glyph-name="Wcircumflex.sc" horiz-adv-x="780" 
d="M251 0h-47l-168 592h50l102 -371q34 -126 40 -151h1q5 24 37 150l99 372h53l99 -375q30 -107 37 -147h1l39 144l104 378h46l-165 -592h-49l-138 527h-2zM241 639l129 156h40l129 -156h-33l-117 104l-117 -104h-31z" />
    <glyph glyph-name="Wdieresis.sc" horiz-adv-x="780" 
d="M251 0h-47l-168 592h50l102 -371q34 -126 40 -151h1q5 24 37 150l99 372h53l99 -375q30 -107 37 -147h1l39 144l104 378h46l-165 -592h-49l-138 527h-2zM442 644v67h64v-67h-64zM274 644v67h64v-67h-64z" />
    <glyph glyph-name="Wgrave.sc" horiz-adv-x="780" 
d="M251 0h-47l-168 592h50l102 -371q34 -126 40 -151h1q5 24 37 150l99 372h53l99 -375q30 -107 37 -147h1l39 144l104 378h46l-165 -592h-49l-138 527h-2zM375 644l-139 151h75l95 -151h-31z" />
    <glyph glyph-name="Yacute.sc" horiz-adv-x="515" 
d="M232 0v262l-209 330h53l182 -289l180 289h53l-209 -330v-262h-50zM211 644l95 151h75l-139 -151h-31z" />
    <glyph glyph-name="Ycircumflex.sc" horiz-adv-x="515" 
d="M232 0v262l-209 330h53l182 -289l180 289h53l-209 -330v-262h-50zM108 639l129 156h40l129 -156h-33l-117 104l-117 -104h-31z" />
    <glyph glyph-name="Ydieresis.sc" horiz-adv-x="515" 
d="M232 0v262l-209 330h53l182 -289l180 289h53l-209 -330v-262h-50zM141 644v67h64v-67h-64zM309 644v67h64v-67h-64z" />
    <glyph glyph-name="Ygrave.sc" horiz-adv-x="515" 
d="M232 0v262l-209 330h53l182 -289l180 289h53l-209 -330v-262h-50zM285 644l-139 151h75l95 -151h-31z" />
    <glyph glyph-name="Zacute.sc" horiz-adv-x="525" 
d="M479 0h-442v35l384 517h-358v40h416v-35l-383 -517h383v-40zM216 644l95 151h75l-139 -151h-31z" />
    <glyph glyph-name="Zcaron.sc" horiz-adv-x="525" 
d="M479 0h-442v35l384 517h-358v40h416v-35l-383 -517h383v-40zM242 644l-129 156h33l117 -104l117 104h31l-129 -156h-40z" />
    <glyph glyph-name="Zdotaccent.sc" horiz-adv-x="525" 
d="M479 0h-442v35l384 517h-358v40h416v-35l-383 -517h383v-40zM229 644v69h66v-69h-66z" />
    <glyph glyph-name="exclamdown.sc" horiz-adv-x="264" 
d="M164 592v-68h-64v68h64zM144 434l18 -434h-59l16 434h25z" />
    <glyph glyph-name="exclam.sc" horiz-adv-x="264" 
d="M102 592h59l-16 -434h-25zM100 68h64v-68h-64v68z" />
    <glyph glyph-name="questiondown.sc" horiz-adv-x="455" 
d="M235 435h38q2 -16 2 -53q0 -42 -16.5 -69t-57.5 -51q-61 -35 -83.5 -59t-22.5 -68q0 -105 135 -105q54 0 90 21t67 63l36 -24q-71 -101 -195 -101q-87 0 -134.5 40t-47.5 103q0 54 28 86.5t84 62.5q51 29 64 56.5t13 97.5zM222 524v68h64v-68h-64z" />
    <glyph glyph-name="question.sc" horiz-adv-x="455" 
d="M220 157h-38q-2 16 -2 53q0 42 16.5 69t57.5 51q61 35 83.5 59t22.5 68q0 105 -135 105q-54 0 -90 -21t-67 -63l-36 24q71 101 195 101q87 0 134.5 -40t47.5 -103q0 -54 -28 -86.5t-84 -62.5q-51 -29 -64 -56.5t-13 -97.5zM233 68v-68h-64v68h64z" />
    <glyph glyph-name="slash.sc" horiz-adv-x="442" 
d="M75 0h-52l344 592h52z" />
    <glyph glyph-name="backslash.sc" horiz-adv-x="442" 
d="M75 592l344 -592h-52l-344 592h52z" />
    <glyph glyph-name="zero.tab_salt_slash" 
d="M325 -14q-125 0 -194 104t-69 280t69 280t194 104t193.5 -104t68.5 -280t-68.5 -280t-193.5 -104zM111 370q0 -124 36 -209l337 453q-58 96 -159 96t-157.5 -89t-56.5 -251zM325 30q100 0 156.5 89t56.5 251q0 121 -35 205l-338 -450q58 -95 160 -95z" />
    <glyph glyph-name="zero.tab" 
d="M325 -14q-125 0 -194 104t-69 280t69 280t194 104t193.5 -104t68.5 -280t-68.5 -280t-193.5 -104zM325 30q100 0 156.5 89t56.5 251q0 161 -57.5 250.5t-155.5 89.5q-101 0 -157.5 -89t-56.5 -251q0 -161 58 -250.5t156 -89.5z" />
    <glyph glyph-name="one.tab" 
d="M158 0v46h161v637q-26 -14 -75.5 -24t-83.5 -10v43q116 4 163 48h45v-694h148v-46h-358z" />
    <glyph glyph-name="two.tab" 
d="M87 0v16q0 84 56.5 161t197.5 167q84 53 119.5 100t35.5 107q0 72 -42.5 115.5t-121.5 43.5q-125 0 -188 -135l-41 20q73 159 231 159q96 0 153.5 -56t57.5 -144q0 -77 -44 -133t-153 -125q-102 -65 -154.5 -129.5t-54.5 -120.5h409v-46h-461z" />
    <glyph glyph-name="three.tab" 
d="M314 -14q-79 0 -143.5 37t-103.5 104l41 25q77 -122 207 -122q86 0 136.5 46t50.5 119q0 90 -57 133.5t-193 43.5h-26v44h32q120 0 174.5 37t54.5 114q0 64 -41.5 103.5t-126.5 39.5q-105 0 -178 -97l-40 26q90 115 219 115q108 0 162 -54t54 -130q0 -72 -40.5 -118.5
t-110.5 -57.5q166 -34 166 -197q0 -90 -64.5 -150.5t-172.5 -60.5z" />
    <glyph glyph-name="four.tab" 
d="M421 0v190h-355v35l337 515h66v-505h125v-45h-125v-190h-48zM125 235h296v448h-2z" />
    <glyph glyph-name="five.tab" 
d="M318 -14q-77 0 -138.5 38.5t-97.5 102.5l41 25q73 -122 196 -122q94 0 144.5 62.5t50.5 148.5q0 93 -50 146t-128 53q-109 0 -177 -101l-41 17l28 384h378l-5 -48h-328l-22 -282q63 74 168 74q98 0 162 -65.5t64 -174.5q0 -112 -67 -185t-178 -73z" />
    <glyph glyph-name="six.tab" 
d="M336 -14q-110 0 -181.5 94t-71.5 277q0 108 33.5 198t98 144.5t146.5 54.5q104 0 171 -55l-28 -39q-32 26 -63.5 38t-80.5 12q-105 0 -168 -102.5t-61 -254.5q91 107 217 107q115 0 172 -64.5t57 -165.5q0 -105 -65.5 -174.5t-175.5 -69.5zM339 30q85 0 136.5 52.5
t51.5 147.5q0 85 -45.5 135.5t-136.5 50.5q-62 0 -117 -33.5t-94 -90.5q12 -130 68.5 -196t136.5 -66z" />
    <glyph glyph-name="seven.tab" 
d="M177 0l318 692h-387v48h440v-45l-319 -695h-52z" />
    <glyph glyph-name="eight.tab" 
d="M325 -14q-117 0 -186.5 55t-69.5 135q0 75 49.5 124t153.5 94q-85 37 -127 79t-42 105q0 71 61.5 123.5t160.5 52.5q101 0 161.5 -52.5t60.5 -123.5q0 -64 -40.5 -102.5t-131.5 -79.5q108 -47 157 -95t49 -125q0 -78 -69.5 -134t-186.5 -56zM325 30q90 0 148.5 41
t58.5 108q0 63 -50 105.5t-159 88.5q-113 -50 -159 -91.5t-46 -102.5q0 -65 58.5 -107t148.5 -42zM326 417q97 41 134.5 74t37.5 87q0 53 -45 92.5t-128 39.5q-80 0 -126.5 -39t-46.5 -90q0 -53 38.5 -87t135.5 -77z" />
    <glyph glyph-name="nine.tab" 
d="M288 -14q-113 0 -188 68l27 38q39 -33 73 -47.5t89 -14.5q105 0 168 102.5t61 254.5q-91 -107 -217 -107q-115 0 -172 64.5t-57 165.5q0 105 65.5 174.5t175.5 69.5t181.5 -94t71.5 -277q0 -108 -33.5 -198t-98 -144.5t-146.5 -54.5zM304 324q62 0 117 33.5t94 90.5
q-12 130 -68.5 196t-136.5 66q-85 0 -136.5 -52.5t-51.5 -147.5q0 -85 45.5 -135.5t136.5 -50.5z" />
    <glyph glyph-name="plus.tab" 
d="M302 72v230h-229v44h229v230h46v-230h229v-44h-229v-230h-46z" />
    <glyph glyph-name="minus.tab" 
d="M73 302v44h504v-44h-504z" />
    <glyph glyph-name="multiply.tab" 
d="M149 111l-29 29l175 175l-175 176l29 29l175 -176l176 176l29 -29l-176 -176l176 -175l-29 -29l-176 176z" />
    <glyph glyph-name="divide.tab" 
d="M286 111v78h72v-78h-72zM73 302v44h504v-44h-504zM286 458v78h72v-78h-72z" />
    <glyph glyph-name="equal.tab" 
d="M72 187v46h505v-46h-505zM72 415v46h505v-46h-505z" />
    <glyph glyph-name="less.tab" 
d="M586 78l-529 225v42l529 225v-49l-470 -197l470 -197v-49z" />
    <glyph glyph-name="greater.tab" 
d="M64 78v49l470 197l-470 197v49l529 -225v-42z" />
    <glyph glyph-name="dollar.tab" 
d="M301 -93v90q-83 5 -142 42.5t-91 93.5l40 25q70 -113 194 -117v327q-39 12 -66 22.5t-56.5 27.5t-47.5 36.5t-30 48t-12 63.5q0 72 55 123.5t156 55.5v74h44v-76q70 -6 121 -38.5t79 -83.5l-40 -27q-31 52 -68 75.5t-93 28.5v-293q42 -12 69.5 -22t62 -28.5t54.5 -39
t34 -53.5t14 -73q0 -83 -62 -135.5t-171 -56.5v-90h-44zM302 417v283q-23 -2 -45.5 -7t-51.5 -18t-47 -40.5t-18 -65.5q0 -60 43 -94.5t119 -57.5zM344 42q184 10 184 144q0 70 -49 107.5t-135 62.5v-314z" />
    <glyph glyph-name="cent.tab" 
d="M195 -129l40 145q-56 33 -87.5 98.5t-31.5 147.5q0 131 66 202.5t161 71.5q15 0 31 -3l28 105h40l-32 -114q87 -31 128 -128l-41 -22q-37 86 -99 111l-120 -442q27 -12 61 -12q58 0 94 29t68 92l38 -19q-35 -72 -83 -108t-120 -36q-35 0 -66 11l-35 -129h-40zM164 263
q0 -66 22 -119.5t61 -83.5l118 433q-16 2 -24 2q-70 0 -123.5 -57t-53.5 -175z" />
    <glyph glyph-name="Euro.tab" 
d="M383 -14q-104 0 -174 72.5t-90 213.5h-129v46h125q-3 34 -1 105h-124v45h129q19 141 93 213.5t171 72.5q174 0 228 -214l-48 -11q-26 93 -64 136.5t-117 43.5q-81 0 -139.5 -61t-75.5 -180h243v-45h-248q-3 -44 1 -105h247v-46h-242q17 -118 73 -179.5t143 -61.5
q79 0 123 47t69 142l47 -11q-57 -223 -240 -223z" />
    <glyph glyph-name="sterling.tab" 
d="M115 372v44h99q-49 92 -49 155q0 82 48.5 132.5t134.5 50.5q89 0 135 -53t50 -130l-49 -3q-9 142 -139 142q-62 0 -96.5 -36.5t-34.5 -101.5q0 -50 54 -156h171v-44h-150q39 -87 39 -151q0 -62 -14 -112q29 -27 44 -39.5t41.5 -26t50.5 -13.5q46 0 68.5 35t27.5 111h46
q-10 -190 -143 -190q-28 0 -57 13.5t-47.5 28.5t-46.5 41q-44 -83 -132 -83q-40 0 -71 25.5t-31 69.5q0 47 29 77.5t79 30.5q47 0 103 -45q6 31 6 74q0 68 -43 154h-123zM167 27q70 0 96 73q-53 48 -93 48q-28 0 -45 -18t-17 -47q0 -26 17 -41t42 -15z" />
    <glyph glyph-name="yen.tab" 
d="M299 0v137h-194v46h194v105h-194v45h192l-244 407h56l217 -368l216 368h54l-245 -407h194v-45h-196v-105h196v-46h-196v-137h-50z" />
    <glyph glyph-name="florin.tab" 
d="M71 -200l7 44q7 -1 31 -1q91 0 102 79l71 500h-92l6 43h92l20 149q18 126 162 126h26l-7 -44q-7 1 -31 1q-91 0 -102 -79l-20 -153h116l-6 -43h-116l-71 -496q-18 -126 -162 -126h-26z" />
    <glyph glyph-name="numbersign.tab" 
d="M96 0l47 224h-118v43h127l43 206h-127v43h136l47 224h46l-47 -224h210l47 224h46l-47 -224h118v-43h-127l-43 -206h127v-43h-136l-47 -224h-46l47 224h-210l-47 -224h-46zM198 267h210l43 206h-210z" />
    <glyph glyph-name="percent.tab" horiz-adv-x="980" 
d="M245 315q-75 0 -116.5 59t-41.5 156q0 101 43.5 160.5t116.5 59.5t115 -58.5t42 -157.5q0 -97 -42.5 -158t-116.5 -61zM246 358q51 0 80.5 50t29.5 124q0 79 -29.5 127t-81.5 48q-51 0 -80.5 -49.5t-29.5 -123.5q0 -79 29.5 -127.5t81.5 -48.5zM734 -10q-75 0 -116.5 59
t-41.5 156q0 101 43.5 160.5t116.5 59.5t115 -58.5t42 -157.5q0 -97 -42.5 -158t-116.5 -61zM735 33q51 0 80.5 50t29.5 124q0 79 -29.5 127t-81.5 48q-51 0 -80.5 -49.5t-29.5 -123.5q0 -79 29.5 -127.5t81.5 -48.5zM245 0l442 740h48l-442 -740h-48z" />
    <glyph glyph-name="prime.tab" horiz-adv-x="325" 
d="M128 493l17 196l9 51h54l-60 -247h-20z" />
    <glyph glyph-name="primedbl.tab" 
d="M207 493l17 196l9 51h54l-60 -247h-20zM373 493l17 196l9 51h54l-60 -247h-20z" />
    <glyph glyph-name="period.tab" horiz-adv-x="325" 
d="M129 0v80h67v-80h-67z" />
    <glyph glyph-name="comma.tab" horiz-adv-x="325" 
d="M135 -97l20 97h-26v80h67v-74l-39 -103h-22z" />
    <glyph glyph-name="colon.tab" horiz-adv-x="325" 
d="M129 0v80h67v-80h-67zM129 445v80h67v-80h-67z" />
    <glyph glyph-name="semicolon.tab" horiz-adv-x="325" 
d="M135 -97l20 97h-26v80h67v-74l-39 -103h-22zM129 445v80h67v-80h-67z" />
    <glyph glyph-name="parenleft.tab" horiz-adv-x="325" 
d="M279 -205q-248 208 -248 475t248 475l21 -25q-101 -89 -157.5 -204t-56.5 -246t56.5 -246t157.5 -204z" />
    <glyph glyph-name="parenright.tab" horiz-adv-x="325" 
d="M45 -205l-21 25q101 89 157.5 204t56.5 246t-56.5 246t-157.5 204l21 25q248 -208 248 -475t-248 -475z" />
    <glyph glyph-name="asterisk.tab" 
d="M244 364l-42 25l107 154l-188 -13v46l188 -13l-107 154l42 25l81 -170l81 170l42 -25l-107 -154l188 13v-46l-188 13l107 -154l-42 -25l-81 170z" />
    <glyph glyph-name="periodcentered.tab" horiz-adv-x="325" 
d="M129 274v80h67v-80h-67z" />
    <glyph glyph-name="space.tab_en" 
 />
    <glyph glyph-name="space.tab_em" horiz-adv-x="1300" 
 />
    <glyph glyph-name="space.tab_thin" horiz-adv-x="163" 
 />
    <glyph glyph-name="zero.sc_salt_slash" horiz-adv-x="510" 
d="M255 -14q-100 0 -156 84t-56 225t56 225t156 84t156 -84t56 -225t-56 -225t-156 -84zM255 29q78 0 121.5 70t43.5 196q0 93 -27 160l-257 -359q44 -67 119 -67zM90 295q0 -95 26 -159l257 358q-45 68 -118 68q-78 0 -121.5 -70.5t-43.5 -196.5z" />
    <glyph glyph-name="zero.sc" horiz-adv-x="510" 
d="M255 -14q-100 0 -156 84t-56 225t56 225t156 84t156 -84t56 -225t-56 -225t-156 -84zM255 29q78 0 121.5 70t43.5 196q0 125 -45 196t-120 71q-78 0 -121.5 -70.5t-43.5 -196.5q0 -125 44.5 -195.5t120.5 -70.5z" />
    <glyph glyph-name="one.sc" horiz-adv-x="396" 
d="M366 0h-316v46h141v490q-64 -34 -139 -34v42q95 3 143 48h43v-546h128v-46z" />
    <glyph glyph-name="two.sc" horiz-adv-x="464" 
d="M413 0h-373v17q0 68 45.5 130t157.5 134q65 41 92 77t27 82q0 56 -31.5 88.5t-92.5 32.5q-96 0 -146 -108l-41 20q61 132 189 132q78 0 124.5 -45.5t46.5 -116.5q0 -62 -35 -106t-123 -101q-158 -100 -161 -190h321v-46z" />
    <glyph glyph-name="three.sc" horiz-adv-x="467" 
d="M226 -14q-63 0 -115.5 31t-85.5 87l39 24q60 -98 163 -98q66 0 104 34.5t38 91.5q0 70 -41.5 103.5t-145.5 33.5h-23v44h27q92 0 132 28.5t40 87.5q0 49 -31.5 78.5t-96.5 29.5q-80 0 -139 -78l-38 26q73 96 178 96q87 0 131 -44t44 -106q0 -55 -30.5 -92.5t-83.5 -47.5
q61 -10 93.5 -51.5t32.5 -105.5q0 -73 -52.5 -122.5t-139.5 -49.5z" />
    <glyph glyph-name="four.sc" horiz-adv-x="475" 
d="M357 0h-48v148h-281v35l268 409h61v-399h98v-45h-98v-148zM308 530l-221 -337h222v337h-1z" />
    <glyph glyph-name="five.sc" horiz-adv-x="458" 
d="M224 -13q-61 0 -111.5 32t-80.5 86l39 24q57 -98 154 -98q73 0 111.5 47.5t38.5 114.5q0 72 -38.5 112.5t-98.5 40.5q-84 0 -139 -80l-37 15l22 311h307l-4 -46h-261l-16 -212q44 56 129 56q79 0 131 -53.5t52 -140.5q0 -90 -54 -149.5t-144 -59.5z" />
    <glyph glyph-name="six.sc" horiz-adv-x="475" 
d="M248 -14q-89 0 -147 76.5t-58 223.5q0 133 62.5 225.5t162.5 92.5q82 0 140 -46l-28 -38q-48 42 -113 42q-81 0 -129 -77.5t-48 -193.5q27 33 71.5 56.5t95.5 23.5q93 0 139.5 -52.5t46.5 -134.5q0 -85 -53 -141.5t-142 -56.5zM250 29q66 0 105.5 41t39.5 114
q0 66 -35 105t-105 39q-48 0 -91 -25t-72 -68q9 -99 53.5 -152.5t104.5 -53.5z" />
    <glyph glyph-name="seven.sc" horiz-adv-x="437" 
d="M148 0h-52l250 544h-303v48h356v-45z" />
    <glyph glyph-name="eight.sc" horiz-adv-x="476" 
d="M238 -14q-96 0 -150.5 45t-54.5 110q0 60 37.5 99t115.5 74q-63 29 -94.5 63t-31.5 83q0 58 49 101t129 43q82 0 129.5 -42.5t47.5 -101.5q0 -50 -31 -82t-97 -62q80 -35 118 -75t38 -100q0 -64 -55 -109.5t-150 -45.5zM239 337q72 30 99.5 55.5t27.5 67.5q0 41 -32 70.5
t-96 29.5q-61 0 -95 -29t-34 -68q0 -41 28.5 -67.5t101.5 -58.5zM238 29q70 0 113.5 31.5t43.5 82.5q0 48 -38 81.5t-121 68.5q-86 -38 -120.5 -70t-34.5 -80q0 -50 44 -82t113 -32z" />
    <glyph glyph-name="nine.sc" horiz-adv-x="477" 
d="M209 -14q-91 0 -153 57l26 37q30 -27 57.5 -38.5t70.5 -11.5q80 0 127.5 76.5t49.5 192.5q-72 -80 -167 -80q-93 0 -140.5 53.5t-47.5 134.5q0 85 54 141t143 56t147 -75.5t58 -222.5q0 -134 -62 -227t-163 -93zM222 263q98 0 163 91q-7 98 -52 152t-105 54
q-66 0 -106 -40t-40 -113q0 -66 35 -105t105 -39z" />
    <glyph glyph-name="plus.sc" horiz-adv-x="634" 
d="M294 50v230h-229v44h229v230h46v-230h229v-44h-229v-230h-46z" />
    <glyph glyph-name="minus.sc" horiz-adv-x="634" 
d="M65 280v44h504v-44h-504z" />
    <glyph glyph-name="multiply.sc" horiz-adv-x="634" 
d="M141 97l-29 29l175 175l-175 176l29 29l175 -176l176 176l29 -29l-176 -176l176 -175l-29 -29l-176 176z" />
    <glyph glyph-name="divide.sc" horiz-adv-x="634" 
d="M65 280v44h504v-44h-504zM278 89v78h72v-78h-72zM278 436v78h72v-78h-72z" />
    <glyph glyph-name="equal.sc" horiz-adv-x="634" 
d="M64 393v46h505v-46h-505zM64 165v46h505v-46h-505z" />
    <glyph glyph-name="less.sc" horiz-adv-x="634" 
d="M578 56l-529 225v42l529 225v-49l-470 -197l470 -197v-49z" />
    <glyph glyph-name="greater.sc" horiz-adv-x="634" 
d="M56 56v49l470 197l-470 197v49l529 -225v-42z" />
    <glyph glyph-name="dollar.sc" horiz-adv-x="539" 
d="M290 -75h-44v71q-69 6 -115.5 39.5t-69.5 74.5l39 25q58 -90 147 -96v253q-39 12 -65 23.5t-51.5 29.5t-38 44t-12.5 61q0 58 45.5 100t121.5 46v59h42v-60q105 -9 161 -103l-38 -26q-27 41 -53.5 61.5t-69.5 24.5v-226q35 -11 54 -18t48 -22t44 -31.5t27 -42.5t12 -59
q0 -67 -50.5 -109.5t-133.5 -48.5v-70zM289 278v-239q137 10 137 111q0 54 -33.5 79.5t-103.5 48.5zM247 339v214q-60 -4 -89.5 -32t-29.5 -68q0 -44 30.5 -69t88.5 -45z" />
    <glyph glyph-name="Euro.sc" horiz-adv-x="567" 
d="M328 -14q-83 0 -140 58t-73 170h-102v43h98q-1 15 -1 38q0 25 1 38h-98v43h102q16 111 76 170t137 59q141 0 185 -177l-47 -11q-20 74 -49.5 109t-89.5 35t-105.5 -47.5t-59.5 -137.5h192v-43h-196q-1 -11 -1 -38q0 -14 2 -38h195v-43h-191q14 -88 57.5 -135.5
t108.5 -47.5q60 0 93.5 37.5t53.5 112.5l47 -10q-48 -185 -195 -185z" />
    <glyph glyph-name="sterling.sc" horiz-adv-x="489" 
d="M113 -14q-38 0 -66.5 21.5t-28.5 63.5q0 40 27.5 65.5t72.5 25.5t85 -38q3 18 3 50q0 50 -34 118h-108v43h82q-39 72 -39 118q0 66 43 107t118 41q78 0 116.5 -43t42.5 -110l-48 -3q-7 112 -113 112q-51 0 -80 -27.5t-29 -75.5q0 -44 43 -119h147v-43h-123
q29 -63 29 -116q0 -47 -10 -87q64 -58 113 -58q68 0 75 115h46q-9 -160 -122 -160q-58 0 -132 62q-36 -62 -110 -62zM114 29q56 0 75 52q-37 39 -72 39q-25 0 -40 -12.5t-15 -32.5q0 -46 52 -46z" />
    <glyph glyph-name="yen.sc" horiz-adv-x="513" 
d="M231 0v110h-152v44h152v73h-152v43h150l-193 322h55l167 -283l166 283h53l-194 -322h152v-43h-154v-73h154v-44h-154v-110h-50z" />
    <glyph glyph-name="florin.sc" horiz-adv-x="313" 
d="M-58 -173l7 42q12 -2 29 -2q66 0 75 59l55 389h-71l5 43h72l18 130q14 104 123 104q21 0 38 -3l-8 -43q-12 2 -29 2q-68 0 -76 -59l-18 -131h93l-6 -43h-93l-56 -388q-8 -54 -38.5 -78.5t-88.5 -24.5q-19 0 -31 3z" />
    <glyph glyph-name="numbersign.sc" horiz-adv-x="595" 
d="M157 0h-46l37 176h-92v45h102l31 152h-99v44h108l37 175h46l-37 -175h157l37 175h45l-36 -175h92v-44h-101l-33 -152h100v-45h-108l-38 -176h-45l36 176h-156zM235 373l-32 -152h156l33 152h-157z" />
    <glyph glyph-name="percent.sc" horiz-adv-x="756" 
d="M163 255q-61 0 -95 47.5t-34 125.5q0 82 35.5 130t95.5 48q58 0 92 -47.5t34 -127.5q0 -78 -34.5 -127t-93.5 -49zM164 295q40 0 62 38.5t22 96.5q0 62 -22.5 99.5t-62.5 37.5q-41 0 -63.5 -38.5t-22.5 -97.5q0 -62 22.5 -99t64.5 -37zM594 -13q-60 0 -95 48t-35 125
q0 81 36.5 129.5t95.5 48.5q57 0 91.5 -47.5t34.5 -127.5q0 -77 -34.5 -126.5t-93.5 -49.5zM595 26q40 0 61.5 38.5t21.5 97.5q0 62 -22 99.5t-62 37.5t-62 -38t-22 -98q0 -62 22 -99.5t63 -37.5zM176 0l354 592h48l-354 -592h-48z" />
    <glyph glyph-name="perthousand.sc" horiz-adv-x="1088" 
d="M163 255q-61 0 -95 47.5t-34 125.5q0 82 35.5 130t95.5 48q58 0 92 -47.5t34 -127.5q0 -78 -34.5 -127t-93.5 -49zM164 295q40 0 62 38.5t22 96.5q0 62 -22.5 99.5t-62.5 37.5q-41 0 -63.5 -38.5t-22.5 -97.5q0 -62 22.5 -99t64.5 -37zM594 -13q-60 0 -95 48t-35 125
q0 81 36.5 129.5t95.5 48.5q57 0 91.5 -47.5t34.5 -127.5q0 -77 -34.5 -126.5t-93.5 -49.5zM595 26q40 0 61.5 38.5t21.5 97.5q0 62 -22 99.5t-62 37.5t-62 -38t-22 -98q0 -62 22 -99.5t63 -37.5zM926 -13q-61 0 -95.5 48t-34.5 125q0 82 36 130t96 48q57 0 91.5 -47.5
t34.5 -127.5q0 -77 -34.5 -126.5t-93.5 -49.5zM927 26q40 0 61.5 38.5t21.5 97.5q0 62 -22 99.5t-62 37.5q-41 0 -63.5 -38.5t-22.5 -97.5q0 -62 23 -99.5t64 -37.5zM176 0l354 592h48l-354 -592h-48z" />
    <glyph glyph-name="ordfeminine.sc" horiz-adv-x="394" 
d="M83 236h-43l134 356h44l134 -356h-44l-39 103h-147zM181 502l-46 -126h121l-46 124l-13 40h-2z" />
    <glyph glyph-name="ordmasculine.sc" horiz-adv-x="421" 
d="M210 221q-71 0 -118 52t-47 139q0 88 46.5 140t118.5 52t119 -52t47 -140q0 -87 -47.5 -139t-118.5 -52zM210 258q57 0 91 43.5t34 111.5q0 65 -33 110t-92 45q-56 0 -90 -44t-34 -111q0 -65 32.5 -110t91.5 -45z" />
    <glyph glyph-name="zero.numr" horiz-adv-x="418" 
d="M210 268q-80 0 -123.5 63t-43.5 172t43.5 174t123.5 65q78 0 121.5 -65t43.5 -174t-43.5 -172t-121.5 -63zM210 307q57 0 89.5 50.5t32.5 145.5q0 94 -33 146.5t-89 52.5q-59 0 -91.5 -52t-32.5 -147t33.5 -145.5t90.5 -50.5z" />
    <glyph glyph-name="one.numr" horiz-adv-x="311" 
d="M60 276v42h85v361q-37 -16 -83 -16v42q63 2 89 29h39v-416h77v-42h-207z" />
    <glyph glyph-name="two.numr" horiz-adv-x="399" 
d="M50 276v18q0 52 34.5 99.5t121.5 103.5q48 31 68.5 57.5t20.5 60.5q0 39 -23.5 63t-66.5 24q-37 0 -62.5 -19.5t-46.5 -63.5l-39 19q49 106 149 106q61 0 97.5 -35.5t36.5 -92.5q0 -48 -27 -83t-95 -78q-112 -71 -120 -135h244v-44h-292z" />
    <glyph glyph-name="three.numr" horiz-adv-x="399" 
d="M198 267q-103 0 -158 96l36 24q46 -77 123 -77q48 0 76 25t28 66q0 51 -33 75.5t-109 24.5h-23v38h27q129 0 129 85q0 35 -23 56.5t-70 21.5q-59 0 -106 -60l-35 23q59 79 142 79q69 0 103.5 -34.5t34.5 -83.5q0 -80 -79 -106q88 -27 88 -118q0 -57 -41 -96t-110 -39z
" />
    <glyph glyph-name="four.numr" horiz-adv-x="385" 
d="M248 276v113h-211v30l206 315h48v-303h75v-42h-75v-113h-43zM93 431h155v236z" />
    <glyph glyph-name="five.numr" horiz-adv-x="376" 
d="M185 268q-98 0 -152 94l36 22q45 -77 117 -77q54 0 83 33.5t29 82.5q0 54 -28.5 84t-72.5 30q-61 0 -97 -52l-41 17l15 232h243l-4 -43h-199l-12 -154q31 40 100 40q59 0 99 -41.5t40 -110.5q0 -70 -42.5 -113.5t-113.5 -43.5z" />
    <glyph glyph-name="six.numr" horiz-adv-x="392" 
d="M204 268q-70 0 -115.5 58.5t-45.5 172.5q0 106 46.5 174.5t129.5 68.5q76 0 126 -48l-26 -31q-28 22 -48.5 31t-52.5 9q-61 0 -96 -51.5t-37 -143.5q55 61 126 61q73 0 109.5 -41t36.5 -105q0 -67 -42 -111t-111 -44zM205 308q49 0 78.5 30.5t29.5 84.5q0 49 -25.5 77.5
t-78.5 28.5q-69 0 -121 -71q7 -75 39.5 -112.5t77.5 -37.5z" />
    <glyph glyph-name="seven.numr" horiz-adv-x="361" 
d="M81 276l191 415h-231v43h280v-35l-194 -423h-46z" />
    <glyph glyph-name="eight.numr" horiz-adv-x="391" 
d="M195 268q-74 0 -118 34.5t-44 85.5q0 46 27.5 75t85.5 56q-47 22 -69.5 46.5t-22.5 62.5q0 47 39 80.5t102 33.5q64 0 103 -33.5t39 -80.5q0 -37 -24 -60t-74 -46q60 -29 89.5 -59t29.5 -75q0 -50 -44.5 -85t-118.5 -35zM195 307q52 0 85 23t33 60q0 35 -30.5 60.5
t-92.5 50.5q-63 -28 -88.5 -52t-25.5 -59q0 -36 34 -59.5t85 -23.5zM196 540q55 25 76 42t21 46q0 30 -25.5 52t-72.5 22q-45 0 -71.5 -21.5t-26.5 -50.5q0 -30 21 -47.5t78 -42.5z" />
    <glyph glyph-name="nine.numr" horiz-adv-x="392" 
d="M173 268q-76 0 -126 48l26 31q28 -22 48.5 -31t52.5 -9q61 0 96 51.5t37 143.5q-55 -61 -126 -61q-73 0 -109.5 41t-36.5 105q0 67 42 111t111 44q70 0 115.5 -58.5t45.5 -172.5q0 -106 -46.5 -174.5t-129.5 -68.5zM183 481q69 0 121 71q-7 75 -39.5 112.5t-77.5 37.5
q-49 0 -78.5 -30.5t-29.5 -84.5q0 -49 25.5 -77.5t78.5 -28.5z" />
    <glyph glyph-name="zero.dnom" horiz-adv-x="418" 
d="M210 -8q-80 0 -123.5 63t-43.5 172t43.5 174t123.5 65q78 0 121.5 -65t43.5 -174t-43.5 -172t-121.5 -63zM210 31q57 0 89.5 50.5t32.5 145.5q0 94 -33 146.5t-89 52.5q-59 0 -91.5 -52t-32.5 -147t33.5 -145.5t90.5 -50.5z" />
    <glyph glyph-name="one.dnom" horiz-adv-x="311" 
d="M60 0v42h85v361q-37 -16 -83 -16v42q63 2 89 29h39v-416h77v-42h-207z" />
    <glyph glyph-name="two.dnom" horiz-adv-x="399" 
d="M50 0v18q0 52 34.5 99.5t121.5 103.5q48 31 68.5 57.5t20.5 60.5q0 39 -23.5 63t-66.5 24q-37 0 -62.5 -19.5t-46.5 -63.5l-39 19q49 106 149 106q61 0 97.5 -35.5t36.5 -92.5q0 -48 -27 -83t-95 -78q-112 -71 -120 -135h244v-44h-292z" />
    <glyph glyph-name="three.dnom" horiz-adv-x="399" 
d="M198 -9q-103 0 -158 96l36 24q46 -77 123 -77q48 0 76 25t28 66q0 51 -33 75.5t-109 24.5h-23v38h27q129 0 129 85q0 35 -23 56.5t-70 21.5q-59 0 -106 -60l-35 23q59 79 142 79q69 0 103.5 -34.5t34.5 -83.5q0 -80 -79 -106q88 -27 88 -118q0 -57 -41 -96t-110 -39z" />
    <glyph glyph-name="four.dnom" horiz-adv-x="385" 
d="M248 0v113h-211v30l206 315h48v-303h75v-42h-75v-113h-43zM93 155h155v236z" />
    <glyph glyph-name="five.dnom" horiz-adv-x="376" 
d="M185 -8q-98 0 -152 94l36 22q45 -77 117 -77q54 0 83 33.5t29 82.5q0 54 -28.5 84t-72.5 30q-61 0 -97 -52l-41 17l15 232h243l-4 -43h-199l-12 -154q31 40 100 40q59 0 99 -41.5t40 -110.5q0 -70 -42.5 -113.5t-113.5 -43.5z" />
    <glyph glyph-name="six.dnom" horiz-adv-x="392" 
d="M204 -8q-70 0 -115.5 58.5t-45.5 172.5q0 106 46.5 174.5t129.5 68.5q76 0 126 -48l-26 -31q-28 22 -48.5 31t-52.5 9q-61 0 -96 -51.5t-37 -143.5q55 61 126 61q73 0 109.5 -41t36.5 -105q0 -67 -42 -111t-111 -44zM205 32q49 0 78.5 30.5t29.5 84.5q0 49 -25.5 77.5
t-78.5 28.5q-69 0 -121 -71q7 -75 39.5 -112.5t77.5 -37.5z" />
    <glyph glyph-name="seven.dnom" horiz-adv-x="361" 
d="M81 0l191 415h-231v43h280v-35l-194 -423h-46z" />
    <glyph glyph-name="eight.dnom" horiz-adv-x="391" 
d="M195 -8q-74 0 -118 34.5t-44 85.5q0 46 27.5 75t85.5 56q-47 22 -69.5 46.5t-22.5 62.5q0 47 39 80.5t102 33.5q64 0 103 -33.5t39 -80.5q0 -37 -24 -60t-74 -46q60 -29 89.5 -59t29.5 -75q0 -50 -44.5 -85t-118.5 -35zM195 31q52 0 85 23t33 60q0 35 -30.5 60.5
t-92.5 50.5q-63 -28 -88.5 -52t-25.5 -59q0 -36 34 -59.5t85 -23.5zM196 264q55 25 76 42t21 46q0 30 -25.5 52t-72.5 22q-45 0 -71.5 -21.5t-26.5 -50.5q0 -30 21 -47.5t78 -42.5z" />
    <glyph glyph-name="nine.dnom" horiz-adv-x="392" 
d="M173 -8q-76 0 -126 48l26 31q28 -22 48.5 -31t52.5 -9q61 0 96 51.5t37 143.5q-55 -61 -126 -61q-73 0 -109.5 41t-36.5 105q0 67 42 111t111 44q70 0 115.5 -58.5t45.5 -172.5q0 -106 -46.5 -174.5t-129.5 -68.5zM183 205q69 0 121 71q-7 75 -39.5 112.5t-77.5 37.5
q-49 0 -78.5 -30.5t-29.5 -84.5q0 -49 25.5 -77.5t78.5 -28.5z" />
    <glyph glyph-name="space.frac" horiz-adv-x="150" 
 />
    <glyph glyph-name="i.trk" horiz-adv-x="228" 
d="M90 0v525h48v-525h-48zM88 659v61h52v-61h-52z" />
    <glyph glyph-name="space.thin_fra" horiz-adv-x="120" 
 />
    <glyph glyph-name="fi" horiz-adv-x="554" 
d="M120 0v482h-92v43h92v89q0 126 144 126h26v-44q-8 1 -32 1q-90 0 -90 -79v-93h116v-43h-116v-482h-48zM407 0v525h48v-525h-48zM405 659v61h52v-61h-52z" />
    <glyph glyph-name="fl" horiz-adv-x="554" 
d="M120 0v482h-92v43h92v89q0 126 144 126h26v-44q-8 1 -32 1q-90 0 -90 -79v-93h116v-43h-116v-482h-48zM407 0v740h48v-740h-48z" />
    <glyph glyph-name="fi.sc" horiz-adv-x="709" 
d="M83 0v592h361v-43h-313v-216h233v-42h-233v-291h-48zM569 0v592h49v-592h-49z" />
    <glyph glyph-name="fl.sc" horiz-adv-x="954" 
d="M83 0v592h361v-43h-313v-216h233v-42h-233v-291h-48zM920 0h-360v592h48v-549h312v-43z" />
    <glyph glyph-name="germandbls.sc" horiz-adv-x="1090" 
d="M277 -11q-86 0 -144 42t-79 116l44 14q19 -64 66 -97.5t116 -33.5q74 0 117.5 30t43.5 84q0 32 -11 54.5t-34.5 36.5t-46.5 23t-60 20q-3 1 -4 1t-3 1t-4 1l-21 6q-37 10 -55.5 16t-47.5 20t-43.5 29.5t-26 42t-11.5 60.5q0 70 53 109t139 39q158 0 206 -138l-43 -15
q-42 111 -164 111q-67 0 -105 -27.5t-38 -76.5q0 -30 10.5 -51.5t37.5 -36.5t45 -21.5t60 -18.5q11 -3 17 -5q96 -27 128 -46q70 -42 70 -130q0 -78 -58.5 -118.5t-153.5 -40.5zM822 -11q-86 0 -144 42t-79 116l44 14q19 -64 66 -97.5t116 -33.5q74 0 117.5 30t43.5 84
q0 32 -11 54.5t-34.5 36.5t-46.5 23t-60 20q-7 2 -11 3l-21 6q-37 10 -55.5 16t-47.5 20t-43.5 29.5t-26 42t-11.5 60.5q0 70 53 109t139 39q158 0 206 -138l-43 -15q-42 111 -164 111q-67 0 -105 -27.5t-38 -76.5q0 -25 9.5 -44.5t19.5 -30.5t36.5 -23t39 -16t48.5 -14
q11 -3 17 -5q96 -27 128 -46q70 -42 70 -130q0 -78 -58.5 -118.5t-153.5 -40.5z" />
    <glyph glyph-name="onesuperior" horiz-adv-x="341" 
d="M82 282v42h85v361q-37 -16 -83 -16v42q63 2 89 29h39v-416h77v-42h-207z" />
    <glyph glyph-name="twosuperior" horiz-adv-x="439" 
d="M70 282v18q0 52 34.5 99.5t121.5 103.5q48 31 68.5 57.5t20.5 60.5q0 39 -23.5 63t-66.5 24q-37 0 -62.5 -19.5t-46.5 -63.5l-39 19q49 106 149 106q61 0 97.5 -35.5t36.5 -92.5q0 -48 -27 -83t-95 -78q-112 -71 -120 -135h244v-44h-292z" />
    <glyph glyph-name="threesuperior" horiz-adv-x="439" 
d="M218 273q-103 0 -158 96l36 24q46 -77 123 -77q48 0 76 25t28 66q0 51 -33 75.5t-109 24.5h-23v38h27q129 0 129 85q0 35 -23 56.5t-70 21.5q-59 0 -106 -60l-35 23q59 79 142 79q69 0 103.5 -34.5t34.5 -83.5q0 -80 -79 -106q88 -27 88 -118q0 -57 -41 -96t-110 -39z
" />
    <glyph glyph-name="slash.tab" 
d="M84 0l430 740h52l-430 -740h-52z" />
    <glyph glyph-name="fraction.sc" horiz-adv-x="362" 
d="M33 0h-48l344 592h48z" />
    <glyph glyph-name="u.alt" horiz-adv-x="0" 
 />
    <glyph glyph-name="Tcedilla" horiz-adv-x="610" 
d="M280 0v694h-243v46h536v-46h-243v-694h-7l-17 -56q23 15 52 15t49.5 -17.5t20.5 -49.5q0 -44 -32.5 -64.5t-84.5 -20.5q-63 0 -118 36l16 25q45 -30 96 -30q80 0 80 51q0 37 -44 37q-28 0 -55 -21l-25 12l25 83h-6z" />
    <glyph glyph-name="tcedilla" horiz-adv-x="350" 
d="M216 -193q-63 0 -118 36l16 25q45 -30 96 -30q80 0 80 51q0 37 -44 37q-28 0 -55 -21l-25 12l25 83q-73 19 -73 117v365h-92v43h92v191h48v-191h137v-43h-137v-358q0 -45 19 -66.5t66 -21.5q34 0 55 7v-45q-28 -5 -59 -5q-15 0 -21 1l-15 -50q23 15 52 15t49.5 -17.5
t20.5 -49.5q0 -44 -32.5 -64.5t-84.5 -20.5z" />
    </font>
</defs>
</svg>
