<?xml version="1.0" standalone="no"?>
<!DOCTYPE svg PUBLIC "-//W3C//DTD SVG 1.1//EN" "http://www.w3.org/Graphics/SVG/1.1/DTD/svg11.dtd" >
<svg xmlns="http://www.w3.org/2000/svg" xmlns:xlink="http://www.w3.org/1999/xlink" version="1.1">
<metadata>
Created by FontForge 20170731 at Wed Feb 29 01:34:09 2012
 By Aleksey,,,
Copyright (c) The Font Bureau, Inc., 2008. All rights reserved.
</metadata>
<defs>
<font id="BentonSans-BoldItalic" horiz-adv-x="1331" >
  <font-face 
    font-family="BentonSans Bold"
    font-weight="700"
    font-style="italic"
    font-stretch="normal"
    units-per-em="2048"
    panose-1="2 0 5 3 0 0 0 9 0 4"
    ascent="1612"
    descent="-436"
    x-height="1092"
    cap-height="1516"
    bbox="-274 -602 3019 2263"
    underline-thickness="50"
    underline-position="-150"
    slope="-10"
    unicode-range="U+0020-FB04"
  />
<missing-glyph horiz-adv-x="748" 
d="M68 0v1365h544v-1365h-544zM136 68h408v1229h-408v-1229z" />
    <glyph glyph-name="uniFB00" unicode="ff" horiz-adv-x="1473" 
d="M59 852l45 240h181l16 100q11 68 37.5 128.5t72.5 105.5t113.5 71.5t159.5 26.5q25 0 55.5 -2t59 -4.5t50.5 -5.5t30 -5l-41 -227q-14 5 -35 7.5t-47 2.5q-24 0 -45.5 -5t-39 -19.5t-29.5 -41.5t-17 -71l-11 -61h320l16 100q12 68 35 128.5t70 105.5t123.5 71.5
t193.5 26.5q25 0 58 -2t64.5 -4.5t55.5 -5.5t31 -5l-41 -229q-12 5 -44.5 8.5t-70.5 3.5q-24 0 -48 -5t-45 -19.5t-36.5 -41.5t-21.5 -71l-10 -61h231l-43 -240h-233l-150 -852h-328l150 852h-322l-149 -852h-328l150 852h-183z" />
    <glyph glyph-name="uniFB01" unicode="fi" horiz-adv-x="1323" 
d="M61 852l43 240h181l16 100q12 68 36.5 128.5t68.5 105.5t109.5 71.5t158.5 26.5q31 0 63 -2t59 -4.5t46.5 -5.5t27.5 -5l-41 -225q-15 2 -35.5 5t-48.5 3q-24 0 -43.5 -5.5t-34.5 -20.5t-25.5 -42t-16.5 -69l-11 -61h187l-45 -240h-187l-149 -852h-328l150 852h-181z
M725 0l193 1092h329l-194 -1092h-328zM942 1241l47 264h330l-45 -264h-332z" />
    <glyph glyph-name="uniFB02" unicode="fl" horiz-adv-x="1323" 
d="M61 852l43 240h181l16 100q12 68 36.5 128.5t68.5 105.5t109.5 71.5t158.5 26.5q31 0 63 -2t59 -4.5t46.5 -5.5t27.5 -5l-41 -225q-15 2 -35.5 5t-48.5 3q-24 0 -43.5 -5.5t-34.5 -20.5t-25.5 -42t-16.5 -69l-11 -61h187l-45 -240h-187l-149 -852h-328l150 852h-181z
M725 0l268 1516h328l-268 -1516h-328z" />
    <glyph glyph-name="uniFB03" unicode="ffi" horiz-adv-x="1972" 
d="M59 852l45 240h181l16 100q11 68 37.5 128.5t72.5 105.5t113.5 71.5t159.5 26.5q25 0 55.5 -2t59 -4.5t50.5 -5.5t30 -5l-41 -227q-14 5 -35 7.5t-47 2.5q-24 0 -45.5 -5t-39 -19.5t-29.5 -41.5t-17 -71l-11 -61h320l16 100q12 68 36.5 128.5t68.5 105.5t109.5 71.5
t158.5 26.5q31 0 63 -2t59 -4.5t47 -5.5t28 -5l-41 -225q-16 2 -36 5t-48 3q-24 0 -43.5 -5.5t-35 -20.5t-26 -42t-16.5 -69l-10 -61h186l-45 -240h-186l-150 -852h-328l150 852h-322l-149 -852h-328l150 852h-183zM1374 0l193 1092h329l-194 -1092h-328zM1591 1241l47 264
h330l-45 -264h-332z" />
    <glyph glyph-name="uniFB04" unicode="ffl" horiz-adv-x="1972" 
d="M98 852l43 240h181l16 100q12 68 38.5 128.5t72.5 105.5t113.5 71.5t160.5 26.5q24 0 54 -2t58.5 -4.5t50.5 -5.5t29 -5l-41 -227q-12 5 -33.5 7.5t-47.5 2.5q-24 0 -45 -5t-38.5 -19.5t-29.5 -41.5t-18 -71l-11 -61h322l16 100q11 68 35.5 128.5t68.5 105.5t110 71.5
t159 26.5q31 0 62.5 -2t58.5 -4.5t46 -5.5t27 -5l-40 -225q-14 2 -34.5 5t-49.5 3q-24 0 -43.5 -5.5t-35 -20.5t-26 -42t-16.5 -69l-11 -61h187l-43 -240h-187l-149 -852h-330l150 852h-322l-149 -852h-328l150 852h-181zM1411 0l268 1516h328l-266 -1516h-330z" />
    <glyph glyph-name="f_j" unicode="fj" horiz-adv-x="1323" 
d="M59 852l45 240h181l16 100q11 68 35.5 128.5t68.5 105.5t110 71.5t159 26.5q31 0 63 -2t59 -4.5t46 -5.5t26 -5l-39 -225q-15 2 -35.5 5t-48.5 3q-24 0 -44 -5.5t-35 -20.5t-25.5 -42t-15.5 -69l-11 -61h187l-45 -240h-187l-149 -852h-328l150 852h-183zM444 -401l39 221
q20 -3 51 -6.5t60 -3.5q28 0 47.5 5.5t33 20.5t22.5 41t16 66l205 1149h329l-217 -1231q-11 -57 -32.5 -108t-60 -89.5t-98 -61t-145.5 -22.5q-78 0 -143.5 5.5t-106.5 13.5zM942 1241l45 264h332l-45 -264h-332z" />
    <glyph glyph-name=".notdef" horiz-adv-x="748" 
d="M68 0v1365h544v-1365h-544zM136 68h408v1229h-408v-1229z" />
    <glyph glyph-name=".null" horiz-adv-x="0" 
 />
    <glyph glyph-name="nonmarkingreturn" horiz-adv-x="682" 
 />
    <glyph glyph-name="space" unicode=" " horiz-adv-x="551" 
 />
    <glyph glyph-name="exclam" unicode="!" horiz-adv-x="748" 
d="M66 0l53 303h352l-53 -303h-352zM205 479l98 1037h412l-264 -1037h-246z" />
    <glyph glyph-name="quotedbl" unicode="&#x22;" horiz-adv-x="942" 
d="M205 965l35 401l26 150h279l-27 -150l-104 -401h-209zM606 965l35 401l27 150h278l-26 -150l-105 -401h-209z" />
    <glyph glyph-name="numbersign" unicode="#" horiz-adv-x="1563" 
d="M47 383v242h275l55 268h-242v242h293l82 381h293l-80 -381h229l82 381h293l-80 -381h256v-242h-307l-55 -268h274v-242h-325l-80 -383h-293l78 383h-228l-82 -383h-292l77 383h-223zM616 625h230l55 268h-227z" />
    <glyph glyph-name="dollar" unicode="$" horiz-adv-x="1378" 
d="M2 356l258 115q17 -35 39.5 -72t52.5 -71t68.5 -62t87.5 -45l80 445q-72 28 -143.5 61t-128 78.5t-91.5 108t-35 149.5t24 156t64.5 121.5t93.5 89.5t112 60.5t120 34.5t117 11h10l25 141h196l-28 -159q145 -28 238 -107t147 -221l-252 -98q-32 77 -78 120.5t-105 65.5
l-71 -412q73 -28 147.5 -62t134 -83.5t97 -118.5t37.5 -166q0 -85 -23.5 -152t-64 -117.5t-95.5 -86.5t-117.5 -59t-130.5 -34t-135 -12l-28 -165h-197l31 184q-150 31 -265 119.5t-192 242.5zM496 1104q0 -59 38.5 -99t100.5 -71l63 369q-49 0 -87 -16t-63.5 -43.5
t-38.5 -63.5t-13 -76zM684 205q119 9 174 62t55 147q0 31 -12 57.5t-33 48.5t-50.5 40.5t-63.5 35.5z" />
    <glyph glyph-name="percent" unicode="%" horiz-adv-x="2234" 
d="M131 942q0 146 39 257.5t104 187.5t149 114.5t175 38.5t159 -29t112.5 -81.5t66.5 -125t22 -159.5q0 -144 -39 -255t-103.5 -186.5t-149 -115t-174.5 -39.5q-92 0 -160 29t-112.5 81.5t-66.5 124.5t-22 158zM393 0l1166 1516h284l-1165 -1516h-285zM395 905
q0 -66 25 -107.5t84 -41.5q31 0 57 20t46.5 53t36.5 76.5t26.5 91t16 96t5.5 91.5q0 66 -23.5 105.5t-82.5 39.5q-32 0 -58.5 -19.5t-47.5 -52t-37 -76t-26.5 -90.5t-16 -95t-5.5 -91zM1282 373q0 146 39 258t104.5 188t149.5 115t174 39q92 0 160 -29.5t112.5 -82.5
t66 -126t21.5 -160q0 -143 -39 -253.5t-103.5 -186.5t-148 -115.5t-173.5 -39.5q-92 0 -160.5 29.5t-113.5 81.5t-67 124t-22 158zM1546 338q0 -68 25 -109t84 -41q31 0 57 19.5t46.5 52.5t36.5 76.5t26.5 90.5t16 95.5t5.5 91.5q0 66 -24 107t-82 41q-31 0 -57.5 -19.5
t-47.5 -52t-37 -76t-27 -90.5t-16.5 -95t-5.5 -91z" />
    <glyph glyph-name="ampersand" unicode="&#x26;" horiz-adv-x="1501" 
d="M-39 352q0 111 36 191t95.5 137t136.5 96.5t160 71.5q-22 71 -33.5 139t-11.5 133q0 94 31 172.5t89 134t141 86.5t186 31q109 0 184.5 -27t121.5 -71t66.5 -100t20.5 -113q0 -104 -37.5 -177.5t-98.5 -126.5t-139.5 -90.5t-160.5 -68.5q15 -29 32.5 -59.5t38.5 -59.5
q44 -63 80 -114t68 -93q52 73 94 158t69 178h281q-43 -148 -109.5 -271t-150.5 -220q50 -23 111 -32t145 -9l-47 -268q-134 0 -241.5 24.5t-200.5 83.5q-94 -57 -195 -87t-203 -30q-146 0 -251.5 29.5t-174 81t-101 121t-32.5 149.5zM299 399q0 -44 14.5 -80t44.5 -62.5
t75.5 -41t107.5 -14.5q105 0 192 43q-45 51 -89.5 112t-90.5 136q-23 37 -45 76t-41 81q-38 -21 -68.5 -46t-53 -55.5t-34.5 -67t-12 -81.5zM653 1122q0 -37 5.5 -79.5t19.5 -90.5q50 22 92.5 47t73 56.5t48 71.5t17.5 92q0 47 -23.5 78.5t-78.5 31.5q-31 0 -59 -12t-49 -37
t-33.5 -64t-12.5 -94z" />
    <glyph glyph-name="quotesingle" unicode="'" horiz-adv-x="541" 
d="M205 965l35 401l26 150h279l-27 -150l-104 -401h-209z" />
    <glyph glyph-name="parenleft" unicode="(" horiz-adv-x="827" 
d="M45 420q0 188 49.5 351t142.5 305.5t226 266.5t299 234l125 -170q-111 -91 -203 -205.5t-158 -246t-102.5 -276.5t-36.5 -296q0 -189 56 -355t155 -302l-188 -134q-88 92 -156 188.5t-114.5 199t-70.5 212t-24 228.5z" />
    <glyph glyph-name="parenright" unicode=")" horiz-adv-x="827" 
d="M-127 -250q112 91 206 207t162 249t106 279t38 299q0 186 -54.5 348.5t-150.5 297.5l180 143q88 -92 156 -188t115 -198.5t71.5 -211t24.5 -225.5q0 -189 -50 -352.5t-143.5 -306.5t-226.5 -267.5t-299 -235.5z" />
    <glyph glyph-name="asterisk" unicode="*" horiz-adv-x="1040" 
d="M106 1057l33 190l330 -82l-141 308l186 69l90 -325l199 276l153 -131l-239 -242l336 -35l-33 -190l-328 82l142 -305l-187 -70l-94 324l-195 -275l-153 131l237 240z" />
    <glyph glyph-name="plus" unicode="+" horiz-adv-x="1323" 
d="M133 588v260h393v409h262v-409h394v-260h-394v-410h-262v410h-393z" />
    <glyph glyph-name="comma" unicode="," horiz-adv-x="578" 
d="M-18 0l55 317h352l-47 -272l-203 -291h-153l131 246h-135z" />
    <glyph glyph-name="hyphen" unicode="-" horiz-adv-x="731" 
d="M59 532l41 222h537l-41 -222h-537z" />
    <glyph glyph-name="period" unicode="." horiz-adv-x="578" 
d="M-18 0l55 317h352l-55 -317h-352z" />
    <glyph glyph-name="slash" unicode="/" horiz-adv-x="1327" 
d="M-84 0l1147 1516h352l-1147 -1516h-352z" />
    <glyph glyph-name="zero" unicode="0" horiz-adv-x="1405" 
d="M66 588q0 145 26 272.5t73.5 233.5t114 189.5t147 141.5t172.5 88.5t192 30.5q141 0 245.5 -46t173 -128t102.5 -195.5t34 -248.5q0 -220 -57 -396.5t-155.5 -300.5t-230 -191t-280.5 -67q-143 0 -248 45.5t-173.5 127.5t-102 195.5t-33.5 248.5zM395 567q0 -160 58 -248
t180 -88q65 0 119 29.5t96.5 80.5t74 120t52.5 149t31 166t10 172q0 157 -59.5 243.5t-180.5 86.5q-64 0 -117 -29t-95.5 -79.5t-74 -119t-52.5 -147.5t-31.5 -165t-10.5 -171z" />
    <glyph glyph-name="one" unicode="1" horiz-adv-x="938" 
d="M-66 0l48 260h272l168 954q-30 -14 -65.5 -26.5t-72 -22t-73.5 -15t-70 -5.5l47 272q88 3 162.5 27t132.5 72h316l-221 -1256h239l-47 -260h-836z" />
    <glyph glyph-name="two" unicode="2" horiz-adv-x="1237" 
d="M-78 0l4 33q19 149 69.5 257t121 187t154 135t168 99.5t163.5 82t140 82t98 99t37 133.5q0 34 -11 63.5t-34.5 51t-59 33.5t-84.5 12q-36 0 -76.5 -10t-83 -33t-86.5 -59.5t-86 -88.5l-204 178q114 146 257.5 217.5t305.5 71.5q125 0 218 -29.5t154 -82t91 -124
t30 -155.5q0 -111 -36 -196t-95 -151t-135 -116.5t-156.5 -92t-158.5 -78.5t-142.5 -75.5t-107.5 -83t-53 -100.5h737l-47 -260h-1092z" />
    <glyph glyph-name="three" unicode="3" horiz-adv-x="1255" 
d="M-70 268l244 172q31 -48 69.5 -85.5t83 -64t93.5 -40.5t100 -14q58 0 107.5 13.5t86.5 42.5t58 75.5t21 111.5q0 103 -81.5 147t-242.5 44h-61l41 243h65q118 0 189.5 18t110 48t51 69t12.5 80q0 31 -11 57t-36 45.5t-66.5 30.5t-101.5 11q-33 0 -74 -6.5t-84 -21
t-86.5 -37t-81.5 -54.5l-156 209q116 97 242.5 138.5t275.5 41.5q135 0 232.5 -26t161.5 -73t94.5 -112t30.5 -143q0 -84 -25 -149.5t-71.5 -114t-113 -81t-149.5 -50.5q70 -12 122 -43t86.5 -75.5t51.5 -99.5t17 -116q0 -86 -23.5 -155.5t-65 -124t-98 -93.5t-123 -64.5
t-139.5 -38t-147 -12.5q-117 0 -207.5 18.5t-163 55.5t-130 93t-108.5 130z" />
    <glyph glyph-name="four" unicode="4" horiz-adv-x="1350" 
d="M-33 297l41 242l844 977h352l-168 -957h256l-45 -262h-256l-53 -297h-309l53 297h-715zM352 559h375l98 557h-4z" />
    <glyph glyph-name="five" unicode="5" horiz-adv-x="1227" 
d="M-55 193l207 206q34 -34 73 -63.5t84 -51.5t97.5 -35t113.5 -13q67 0 122 20.5t93 61t59 100t21 137.5q0 51 -14 92t-42.5 70t-73 45t-105.5 16q-75 0 -140 -37t-133 -108l-201 67l203 816h899l-61 -252h-627l-88 -336q20 18 48.5 34.5t63.5 30t75.5 21.5t85.5 8
q116 0 200 -33.5t139 -92t81 -138t26 -172.5q0 -154 -50 -269t-135 -192t-198 -115.5t-240 -38.5q-119 0 -208.5 17.5t-158.5 48t-121 71t-95 85.5z" />
    <glyph glyph-name="six" unicode="6" horiz-adv-x="1319" 
d="M61 571q0 162 30 297.5t82 243.5t123 189t154 135t173.5 81t181.5 27t166 -10t134.5 -27.5t104 -39.5t76.5 -46l-151 -239q-66 43 -142.5 67.5t-183.5 24.5q-75 0 -140 -29.5t-117.5 -86.5t-90.5 -140t-60 -189q32 25 74.5 51.5t93.5 48t111.5 35t128.5 13.5
q90 0 166 -26t131 -77t86 -126.5t31 -174.5t-23 -182.5t-64 -150t-97 -117t-122 -84.5t-140 -51t-150 -17q-138 0 -243.5 41.5t-177 119.5t-108.5 189t-37 250zM377 551q0 -100 22 -163.5t58.5 -100t83 -50.5t94.5 -14q64 0 114 25.5t84.5 69t52 100.5t17.5 119
q0 39 -9.5 74t-33 62t-62.5 42.5t-98 15.5q-50 0 -94.5 -9.5t-84.5 -25t-76 -37t-68 -45.5v-63z" />
    <glyph glyph-name="seven" unicode="7" horiz-adv-x="1083" 
d="M27 0l788 1249h-700l45 267h1040l-43 -246l-792 -1270h-338z" />
    <glyph glyph-name="eight" unicode="8" horiz-adv-x="1307" 
d="M-10 367q0 90 35 161t93 124.5t131 91.5t150 63q-43 28 -80 61.5t-64 72.5t-42.5 85.5t-15.5 101.5q0 88 37 164t106 132t167 88t220 32q150 0 253.5 -33t168 -86.5t93 -120.5t28.5 -135q0 -83 -30 -145.5t-76.5 -108.5t-103 -77.5t-110.5 -53.5q51 -30 98 -65
t82.5 -78.5t56.5 -97t21 -119.5q0 -119 -48.5 -205t-131 -141t-193.5 -81t-235 -26q-155 0 -269.5 30t-190 82.5t-113 125t-37.5 158.5zM332 393q0 -38 15.5 -73t47 -62t80 -43t115.5 -16q60 0 111 16.5t88.5 46t59 71t21.5 91.5q0 43 -20.5 78.5t-55.5 66t-81 57.5t-97 54
q-65 -27 -117.5 -57.5t-89.5 -66t-57 -76t-20 -87.5zM516 1124q0 -38 16.5 -70t45 -59.5t67 -51.5t82.5 -48q61 29 102 60.5t66 63.5t36 65t11 65q0 28 -10 57t-33.5 52.5t-63 38t-98.5 14.5q-54 0 -95.5 -15.5t-69.5 -41.5t-42 -60t-14 -70z" />
    <glyph glyph-name="nine" unicode="9" horiz-adv-x="1319" 
d="M39 94l154 228q64 -44 140 -69.5t183 -25.5q75 0 140 31.5t116.5 90.5t89.5 144t60 193q-32 -26 -74 -51.5t-93 -46.5t-111 -34t-128 -13q-90 0 -166 26t-131 76.5t-86 126t-31 174.5t23 181.5t64 149.5t97 117t122 84t140 51t150 17q138 0 243.5 -41.5t177 -119.5
t108.5 -189t37 -250q0 -162 -29 -297.5t-80 -243.5t-121.5 -189t-153 -135t-174.5 -81t-186 -27q-92 0 -166.5 10.5t-134 28t-104.5 39.5t-76 45zM422 979q0 -39 9.5 -74.5t32.5 -62.5t62.5 -42.5t98.5 -15.5q49 0 93.5 9t84 25t75.5 36.5t68 44.5q2 17 2 33v33
q0 97 -22 159t-58.5 98t-83 50t-94.5 14q-65 0 -114.5 -24.5t-84 -66t-52 -97.5t-17.5 -119z" />
    <glyph glyph-name="colon" unicode=":" horiz-adv-x="604" 
d="M-4 0l55 317h352l-55 -317h-352zM131 774l57 318h353l-58 -318h-352z" />
    <glyph glyph-name="semicolon" unicode=";" horiz-adv-x="604" 
d="M-4 0l55 317h352l-47 -264l-209 -299h-151l129 246h-129zM131 774l57 318h353l-58 -318h-352z" />
    <glyph glyph-name="less" unicode="&#x3c;" horiz-adv-x="1323" 
d="M111 575v179l1083 475v-268l-733 -297l733 -295v-271z" />
    <glyph glyph-name="equal" unicode="=" horiz-adv-x="1323" 
d="M133 322v233h1034v-233h-1034zM133 788v234h1034v-234h-1034z" />
    <glyph glyph-name="greater" unicode="&#x3e;" horiz-adv-x="1323" 
d="M117 98v271l733 295l-733 297v268l1083 -475v-179z" />
    <glyph glyph-name="question" unicode="?" horiz-adv-x="1198" 
d="M156 1325q54 53 119 94t136 68.5t145.5 42t148.5 14.5q129 0 221 -28.5t150.5 -76.5t86 -112t27.5 -135q0 -72 -15.5 -125t-41.5 -92t-61 -67t-74 -49.5t-80 -40.5t-80 -40q-48 -26 -83 -51.5t-58 -59t-35.5 -79.5t-16.5 -113h-270q2 50 6 87t12 77q11 66 36 112.5t60 80
t78.5 58.5t91.5 48q40 18 76 36.5t63.5 42t43.5 54.5t16 74q0 31 -10 56.5t-32 44t-57 28.5t-85 10q-42 0 -88 -10t-92.5 -28.5t-90 -46.5t-79.5 -64zM250 0l53 303h352l-53 -303h-352z" />
    <glyph glyph-name="at" unicode="@" horiz-adv-x="1778" 
d="M92 756q0 113 26 215.5t75.5 190t120.5 158t160.5 120.5t196 77t226.5 27q180 0 327 -57t252 -158.5t162.5 -242t57.5 -308.5q0 -103 -27 -188.5t-78 -147t-126 -95.5t-171 -34q-62 0 -107 13t-77.5 37t-53.5 57.5t-34 73.5q-28 -29 -60.5 -57t-72 -50t-87 -35.5
t-104.5 -13.5q-62 0 -112.5 21t-86.5 61t-55.5 98.5t-19.5 134.5q0 127 31.5 228.5t85 172.5t125 109.5t151.5 38.5q48 0 85 -8t65 -22.5t49 -33.5t39 -40l14 88h248l-100 -611q-11 -63 14.5 -96t97.5 -33q49 0 89.5 21.5t70 63t45.5 101.5t16 138q0 141 -46 257.5
t-131.5 200.5t-206.5 130.5t-271 46.5q-149 0 -269 -48t-204.5 -134.5t-130 -205.5t-45.5 -261q0 -143 44 -263.5t126.5 -208.5t201.5 -137t269 -49q114 0 208.5 25.5t176.5 79.5l69 -101q-91 -63 -210.5 -97t-256.5 -34q-180 0 -325 58.5t-246.5 163t-156 248.5t-54.5 315z
M676 680q0 -72 28 -112t103 -40q45 0 88 23.5t78 58.5l51 316q-34 38 -66 54.5t-81 16.5q-50 0 -88 -27t-63 -71.5t-37.5 -101.5t-12.5 -117z" />
    <glyph glyph-name="A" unicode="A" horiz-adv-x="1440" 
d="M-96 0l796 1522h316l258 -1522h-326l-49 340h-504l-172 -340h-319zM518 580h346l-76 518h-4z" />
    <glyph glyph-name="B" unicode="B" horiz-adv-x="1440" 
d="M27 0l266 1516h512q114 0 213 -18t172 -57.5t114.5 -103.5t41.5 -157q0 -105 -29.5 -175t-77.5 -115t-109.5 -69.5t-125.5 -36.5l-3 -4q59 -11 109 -35t86.5 -62.5t57 -92t20.5 -123.5q0 -95 -25.5 -166.5t-69.5 -123t-101.5 -86t-121 -54.5t-130 -28.5t-126.5 -8.5h-673
zM397 254h289q58 0 106.5 13t84 40.5t55.5 70t20 101.5q0 90 -70 133t-223 43h-192zM508 891h242q60 0 108.5 11.5t83 36.5t53.5 64t19 95q0 38 -14 67.5t-45 50t-81 31t-122 10.5h-177z" />
    <glyph glyph-name="C" unicode="C" horiz-adv-x="1473" 
d="M68 604q0 218 59.5 392.5t164 296t246.5 186.5t306 65q109 0 193 -19.5t146.5 -55t105.5 -84t71.5 -107t43.5 -124t21 -134.5l-329 -29q-5 59 -20 110t-46.5 88t-81 58t-123.5 21q-100 0 -178.5 -52.5t-133 -142t-83.5 -209t-29 -254.5q0 -84 18 -152t55 -116.5t92.5 -75
t129.5 -26.5q121 0 208.5 77.5t152.5 241.5l293 -108q-47 -112 -108.5 -201t-142.5 -151t-184 -95t-233 -33q-141 0 -254.5 42t-193.5 123t-123 199t-43 269z" />
    <glyph glyph-name="D" unicode="D" horiz-adv-x="1495" 
d="M25 0l266 1516h387q171 0 310 -38t237.5 -115.5t152.5 -195t54 -276.5q0 -162 -32 -291t-90.5 -228t-141 -169.5t-183.5 -115.5t-217.5 -66t-243.5 -21h-499zM401 270h172q135 0 234 39t163 116t95 191t31 263q0 85 -24 151.5t-75.5 112.5t-133.5 70t-199 24h-91z" />
    <glyph glyph-name="E" unicode="E" horiz-adv-x="1276" 
d="M25 0l266 1516h1009l-49 -279h-676l-57 -326h483l-45 -264h-485l-68 -377h715l-47 -270h-1046z" />
    <glyph glyph-name="F" unicode="F" horiz-adv-x="1180" 
d="M25 0l266 1516h979l-47 -279h-648l-65 -369h455l-45 -264h-455l-109 -604h-331z" />
    <glyph glyph-name="G" unicode="G" horiz-adv-x="1546" 
d="M74 647q5 146 36.5 269t84 223t123.5 175.5t155.5 126.5t180 77t196.5 26q256 0 401 -119.5t181 -371.5l-322 -45q-14 121 -83 190.5t-196 69.5q-88 0 -161.5 -41.5t-128.5 -119t-88.5 -187.5t-40.5 -246q-2 -28 -2 -54q0 -80 16 -142q22 -82 62 -135t94 -78t112 -25
q61 0 115.5 19t99 54t79 85.5t56.5 113.5h-260l43 248h578l-133 -760h-266l36 211h-4q-18 -35 -53 -76.5t-87 -78t-120 -61t-151 -24.5q-151 0 -259 52.5t-176 143.5t-97 215q-23 96 -23 204q0 30 2 61z" />
    <glyph glyph-name="H" unicode="H" horiz-adv-x="1554" 
d="M25 0l266 1516h332l-103 -588h576l102 588h334l-266 -1516h-334l115 649h-576l-115 -649h-331z" />
    <glyph glyph-name="I" unicode="I" horiz-adv-x="676" 
d="M39 0l266 1516h334l-266 -1516h-334z" />
    <glyph glyph-name="J" unicode="J" horiz-adv-x="1092" 
d="M-86 143l176 211q28 -27 61.5 -48.5t68.5 -36.5t71 -23t71 -8q42 0 77.5 11t63.5 38t48.5 72.5t32.5 115.5l182 1041h332l-193 -1100q-18 -106 -56 -189t-99.5 -140t-148.5 -86.5t-204 -29.5q-159 0 -277 45.5t-206 126.5z" />
    <glyph glyph-name="K" unicode="K" horiz-adv-x="1450" 
d="M27 0l266 1516h332l-109 -615l629 615h354l-604 -592l393 -924h-354l-299 698l-186 -182l-91 -516h-331z" />
    <glyph glyph-name="L" unicode="L" horiz-adv-x="1180" 
d="M25 0l266 1516h332l-220 -1246h648l-47 -270h-979z" />
    <glyph glyph-name="M" unicode="M" horiz-adv-x="1839" 
d="M27 0l266 1516h438l131 -1115h4l502 1115h451l-267 -1516h-319l182 1036h-4q-18 -48 -35 -92t-35 -85t-36.5 -81t-38.5 -82l-340 -696h-293l-92 696q-5 43 -9.5 80t-8 77t-6 87.5t-3.5 112.5h-4l-186 -1053h-297z" />
    <glyph glyph-name="N" unicode="N" horiz-adv-x="1571" 
d="M27 0l266 1516h332l444 -969h4l170 969h307l-266 -1516h-307l-469 979h-4l-172 -979h-305z" />
    <glyph glyph-name="O" unicode="O" horiz-adv-x="1577" 
d="M68 623q0 153 32.5 280.5t89.5 230t135 179.5t169.5 128.5t192.5 77t204 25.5q131 0 244 -43.5t196 -127t130.5 -205t47.5 -277.5q0 -152 -31.5 -279.5t-86.5 -229.5t-131 -179t-165.5 -128.5t-188.5 -77.5t-201 -26q-138 0 -254.5 43.5t-201.5 127t-133 205t-48 276.5z
M401 631q0 -88 20.5 -160t60.5 -123.5t99.5 -79.5t137.5 -28q88 0 170 42t145.5 124t101.5 202.5t38 278.5q0 86 -19.5 156t-59 120t-98.5 77.5t-137 27.5q-88 0 -171 -40t-147 -120t-102.5 -199.5t-38.5 -277.5z" />
    <glyph glyph-name="P" unicode="P" horiz-adv-x="1364" 
d="M25 0l266 1516h457q134 0 247 -21.5t195 -71t128 -130t46 -197.5q0 -112 -26 -196.5t-71 -146t-106.5 -102.5t-133 -65.5t-149.5 -34.5t-157 -10h-270l-97 -541h-329zM494 797h251q68 0 121.5 14.5t90 45.5t56 80t19.5 118q0 42 -15 76.5t-49.5 59.5t-90 38.5
t-136.5 13.5h-168z" />
    <glyph glyph-name="Q" unicode="Q" horiz-adv-x="1577" 
d="M68 623q0 153 32.5 280.5t89.5 230t135 179.5t170 128.5t193 77t205 25.5q130 0 243 -43.5t196.5 -127t131 -205t47.5 -277.5q0 -142 -28 -262t-77.5 -218t-117.5 -173.5t-149 -128.5t-172 -84t-185 -39q0 -42 13.5 -67t48 -39t92.5 -18.5t147 -4.5h103l-47 -263h-209
q-120 0 -206.5 27.5t-141 80.5t-78.5 130q-18 62 -18 138q0 20 1 40q-95 28 -172.5 81t-132.5 130t-84.5 178t-29.5 224zM403 631q0 -88 20 -160t59.5 -123.5t99 -79.5t137.5 -28q88 0 170.5 42t146 124t102 202.5t38.5 278.5q0 86 -20 156t-59.5 120t-99 77.5t-137.5 27.5
q-88 0 -170.5 -40t-146 -120t-102 -199.5t-38.5 -277.5z" />
    <glyph glyph-name="R" unicode="R" horiz-adv-x="1423" 
d="M27 0l266 1516h475q292 0 444 -102t152 -306q0 -126 -35.5 -214.5t-92.5 -147t-128.5 -90.5t-142.5 -44l227 -612h-332l-213 573h-194l-101 -573h-325zM498 829h252q59 0 110.5 9.5t89.5 35.5t60 72.5t22 120.5q0 88 -66 132t-210 44h-185z" />
    <glyph glyph-name="S" unicode="S" horiz-adv-x="1397" 
d="M-14 383l293 96q42 -121 135.5 -182t249.5 -61q45 0 91 8.5t83 29.5t60.5 56.5t23.5 89.5q0 50 -32 85.5t-84.5 63t-119 50.5t-136.5 49t-136.5 58t-119 77.5t-84.5 107.5t-32 148t23.5 155.5t63.5 123.5t95 93.5t118 65t131 37.5t136 12q89 0 161 -12t130.5 -32.5
t104 -49.5t82.5 -62.5t66 -71.5t54 -77l-264 -166q-22 33 -51 68t-70.5 64.5t-96.5 48t-130 18.5q-102 0 -161.5 -43.5t-59.5 -126.5q0 -48 32 -82.5t84.5 -62t119.5 -51t136.5 -49.5t136.5 -57.5t119.5 -76t84.5 -104.5t32 -142q0 -120 -44 -214.5t-125 -160t-195 -100.5
t-254 -35q-128 0 -231.5 23.5t-184 73.5t-139 128.5t-96.5 188.5z" />
    <glyph glyph-name="T" unicode="T" horiz-adv-x="1307" 
d="M131 1237l47 279h1217l-49 -279h-441l-219 -1237h-332l217 1237h-440z" />
    <glyph glyph-name="U" unicode="U" horiz-adv-x="1464" 
d="M100 362q-5 44 -5 90q0 80 16 169l155 895h334l-160 -916q-12 -68 -13 -125q0 -11 1 -23q3 -66 29 -111.5t77.5 -70t133.5 -24.5q67 0 117.5 18t88 56t62 97t39.5 142l168 957h325l-174 -992q-50 -283 -208 -416t-433 -133q-180 0 -296 48t-179.5 134.5t-77.5 204.5z" />
    <glyph glyph-name="V" unicode="V" horiz-adv-x="1409" 
d="M172 1516h330l147 -1084h4l539 1084h317l-780 -1522h-315z" />
    <glyph glyph-name="W" unicode="W" horiz-adv-x="1937" 
d="M180 1516h334l29 -691q1 -41 3 -80t4 -79t3.5 -82t3.5 -90h4l127 329l277 693h307l41 -697q2 -45 4 -82.5t3.5 -74.5t3 -77t3.5 -91h4q19 52 34 91.5t28.5 75t28 72t32.5 82.5l268 701h308l-652 -1516h-282l-56 1055h-4l-442 -1055h-287z" />
    <glyph glyph-name="X" unicode="X" horiz-adv-x="1464" 
d="M-68 0l625 817l-313 699h340l207 -461l335 461h349l-562 -738l353 -778h-340l-246 543l-397 -543h-351z" />
    <glyph glyph-name="Y" unicode="Y" horiz-adv-x="1395" 
d="M154 1516h338l233 -590l440 590h346l-667 -873l-113 -643h-332l113 643z" />
    <glyph glyph-name="Z" unicode="Z" 
d="M-70 0l41 229l947 1010h-717l49 277h1136l-40 -238l-930 -1008h751l-47 -270h-1190z" />
    <glyph glyph-name="bracketleft" unicode="[" horiz-adv-x="893" 
d="M-61 -410l340 1926h692l-39 -230h-363l-258 -1466h361l-39 -230h-694z" />
    <glyph glyph-name="backslash" unicode="\" horiz-adv-x="1235" 
d="M154 1516h319l614 -1516h-319z" />
    <glyph glyph-name="bracketright" unicode="]" horiz-adv-x="893" 
d="M-145 -410l41 230h362l258 1466h-360l39 230h692l-338 -1926h-694z" />
    <glyph glyph-name="asciicircum" unicode="^" horiz-adv-x="1323" 
d="M100 668l478 848h178l475 -848h-268l-297 516l-295 -516h-271z" />
    <glyph glyph-name="underscore" unicode="_" horiz-adv-x="1020" 
d="M-188 -324l38 228h1020l-39 -228h-1019z" />
    <glyph glyph-name="grave" unicode="`" horiz-adv-x="1024" 
d="M270 1563h330l143 -355h-217z" />
    <glyph glyph-name="a" unicode="a" horiz-adv-x="1165" 
d="M-35 260q0 211 188 319.5t572 127.5l4 26q5 31 0.5 55.5t-21 41.5t-46 26.5t-74.5 9.5q-38 0 -80.5 -7.5t-87 -20.5t-89.5 -31.5t-87 -40.5l-111 205q39 27 94.5 52.5t122.5 45.5t144 32.5t161 12.5q131 0 215 -32.5t128 -91.5q44 -60 52 -142q3 -26 3 -52
q0 -61 -13 -130l-71 -400q-8 -45 -13.5 -79t-7.5 -64t-2 -59.5t6 -63.5h-327q-5 38 -5 72v7q0 37 9 81q-84 -87 -175.5 -131.5t-185.5 -44.5q-67 0 -122.5 20t-95.5 56t-62.5 87t-22.5 113zM301 332q0 -45 31.5 -73t93.5 -28q71 0 126.5 26.5t104.5 68.5l37 206
q-204 -12 -298.5 -64t-94.5 -136z" />
    <glyph glyph-name="b" unicode="b" horiz-adv-x="1257" 
d="M-4 0l266 1516h328l-105 -592q22 33 55.5 66.5t75.5 60.5t92 44t105 17q84 0 150.5 -29t112.5 -84t70.5 -134t24.5 -179q0 -157 -38 -286.5t-105.5 -222.5t-159.5 -144t-200 -51q-59 0 -107 9.5t-87.5 27.5t-71.5 43t-60 57l-20 -119h-326zM377 317q37 -40 86.5 -64
t109.5 -24q52 0 100 27.5t84 80t57.5 128t21.5 172.5q0 46 -11 84t-32.5 65t-54.5 41.5t-76 14.5q-30 0 -60.5 -10t-58 -25.5t-51 -35t-39.5 -38.5z" />
    <glyph glyph-name="c" unicode="c" horiz-adv-x="1116" 
d="M16 449q0 124 26.5 221.5t71 171.5t104 126t126.5 84.5t136.5 47t135.5 14.5q118 0 199.5 -25.5t134.5 -72.5t82.5 -115t44.5 -153l-293 -52q-9 48 -22.5 81.5t-34.5 55t-51.5 31.5t-73.5 10q-51 0 -97.5 -29t-82 -85t-56 -137.5t-20.5 -186.5q0 -51 9.5 -92.5
t30.5 -71.5t54.5 -46.5t81.5 -16.5q31 0 59.5 10t55.5 33t53 60.5t53 93.5l256 -103q-26 -57 -64 -115.5t-96 -105t-139 -76t-192 -29.5q-101 0 -190.5 28t-156.5 86t-106 147t-39 211z" />
    <glyph glyph-name="d" unicode="d" horiz-adv-x="1257" 
d="M14 408q0 180 44 312.5t115 220t161 130.5t182 43q116 0 195.5 -38.5t130.5 -98.5l96 539h328l-219 -1250q-9 -48 -14 -86t-7 -70t-0.5 -58.5t6.5 -51.5h-336q-5 11 -6 30t0 42t3.5 47t6.5 45q-28 -39 -61 -72t-72.5 -57t-87.5 -37.5t-106 -13.5q-70 0 -135 23
t-114.5 73.5t-79.5 131t-30 196.5zM346 434q0 -94 43 -148.5t133 -54.5q60 0 113.5 31.5t93.5 75.5l76 416q-34 37 -81.5 63.5t-115.5 26.5q-46 0 -93 -23.5t-84.5 -73.5t-61 -127.5t-23.5 -185.5z" />
    <glyph glyph-name="e" unicode="e" horiz-adv-x="1161" 
d="M16 444q0 137 32 239.5t84 177t118 123.5t134 78t133 40.5t114 11.5q122 0 213 -38.5t146 -114.5q55 -75 72 -189q7 -45 7 -96q0 -77 -16 -168l-9 -51h-706v-21q0 -68 19 -112.5t50.5 -70.5t72 -36t83.5 -10q51 0 94.5 8t83 24t76 38t74.5 51l141 -189
q-83 -72 -214.5 -117t-301.5 -45q-107 0 -198.5 28t-158.5 86t-105 145.5t-38 207.5zM365 651h419q2 19 2 37q0 27 -4 53q-6 42 -25.5 73t-55.5 49t-91 18q-81 0 -146 -59t-99 -171z" />
    <glyph glyph-name="f" unicode="f" horiz-adv-x="823" 
d="M61 852l43 240h181l16 100q12 68 35 128.5t70 105.5t123.5 71.5t193.5 26.5q24 0 57 -2t64.5 -4.5t56 -5.5t31.5 -5l-41 -229q-13 5 -45.5 8.5t-69.5 3.5q-24 0 -48 -5t-45 -19.5t-36.5 -41.5t-21.5 -71l-11 -61h232l-43 -240h-234l-149 -852h-328l150 852h-181z" />
    <glyph glyph-name="g" unicode="g" horiz-adv-x="1239" 
d="M-166 -156q0 51 22 91.5t55 71.5t71.5 51.5t70.5 31.5q-23 20 -36 46.5t-13 58.5q0 22 8 51t29.5 60.5t59.5 63.5t98 60q-63 50 -94 119t-31 147q0 100 39.5 178t109.5 131t166 81t209 28q128 0 215 -35t139 -94q31 26 73 48t85.5 37.5t84.5 25.5t71 12l-45 -252
q-53 0 -103 -6.5t-88 -15.5q5 -22 7.5 -45t2.5 -46q0 -98 -38 -174.5t-105.5 -128.5t-161.5 -79t-205 -27q-58 0 -108.5 7t-93.5 21q-20 -15 -28.5 -28.5t-8.5 -26.5q0 -21 21.5 -34t60.5 -22t92.5 -16t118.5 -16q79 -11 157.5 -27.5t140.5 -48t101 -83t39 -132.5
q0 -101 -49.5 -166.5t-132.5 -103.5t-191.5 -53t-226.5 -15q-158 0 -270 20t-182.5 54.5t-103 81t-32.5 98.5zM145 -104q0 -32 18.5 -57.5t59 -44t105 -28.5t157.5 -10q48 0 91 7t75.5 20t51 32.5t18.5 45.5q0 28 -21 47.5t-57.5 32.5t-85.5 22t-106 17q-60 9 -121 17.5
t-115 22.5q-28 -21 -49 -55t-21 -69zM383 682q0 -35 9 -65t28.5 -52.5t51.5 -35.5t77 -13q42 0 78 15.5t61.5 45t40 71t14.5 93.5q0 34 -8 64t-26.5 52.5t-49 36t-75.5 13.5q-41 0 -77.5 -16t-64 -45t-43.5 -71t-16 -93z" />
    <glyph glyph-name="h" unicode="h" horiz-adv-x="1245" 
d="M-4 0l266 1516h328l-105 -596q24 30 60 64t83.5 63t104.5 48t123 19q77 0 135.5 -21.5t95.5 -64t50 -106.5q6 -30 6 -64q0 -39 -8 -84l-136 -774h-329l121 690q5 25 5 46q0 41 -18 68q-28 40 -100 40q-29 0 -59 -9t-59 -24.5t-56.5 -35.5t-50.5 -42l-129 -733h-328z" />
    <glyph glyph-name="i" unicode="i" horiz-adv-x="602" 
d="M4 0l195 1092h327l-192 -1092h-330zM223 1241l45 264h330l-45 -264h-330z" />
    <glyph glyph-name="j" unicode="j" horiz-adv-x="602" 
d="M-274 -401l38 221q20 -3 51 -6.5t60 -3.5q28 0 47.5 5.5t33 20.5t23 41t17.5 66l203 1149h329l-217 -1231q-11 -57 -32 -108t-60 -89.5t-98.5 -61t-145.5 -22.5q-78 0 -143.5 5.5t-105.5 13.5zM223 1241l47 264h330l-45 -264h-332z" />
    <glyph glyph-name="k" unicode="k" horiz-adv-x="1178" 
d="M-4 0l266 1516h328l-146 -820l406 396h340l-426 -410l254 -682h-330l-174 467l-131 -123l-59 -344h-328z" />
    <glyph glyph-name="l" unicode="l" horiz-adv-x="602" 
d="M4 0l266 1516h330l-266 -1516h-330z" />
    <glyph glyph-name="m" unicode="m" horiz-adv-x="1888" 
d="M-4 0l192 1092h330l-33 -172q24 30 57.5 64t78 63t99 48t120.5 19q117 0 189.5 -49.5t90.5 -146.5q29 35 66.5 70t84 63t103.5 45.5t125 17.5q77 0 135.5 -21.5t95.5 -64t50 -106.5q6 -30 6 -64q0 -39 -8 -84l-138 -774h-327l121 690q4 23 4 43q0 44 -18 71
q-26 40 -99 40q-54 0 -107.5 -31.5t-101.5 -75.5l-129 -737h-330l121 690q5 25 5 47q0 41 -18 67q-27 40 -99 40q-26 0 -53.5 -9t-54.5 -24.5t-52.5 -35.5t-48.5 -42l-129 -733h-328z" />
    <glyph glyph-name="n" unicode="n" horiz-adv-x="1245" 
d="M-4 0l192 1092h330l-33 -172q24 30 60 64t83.5 63t104.5 48t123 19q77 0 135.5 -21.5t95.5 -64t50 -106.5q6 -30 6 -64q0 -39 -8 -84l-136 -774h-329l121 690q5 25 5 46q0 41 -18 68q-28 40 -100 40q-29 0 -59 -9t-59 -24.5t-56.5 -35.5t-50.5 -42l-129 -733h-328z" />
    <glyph glyph-name="o" unicode="o" horiz-adv-x="1227" 
d="M16 453q0 123 26.5 220t72 170.5t106.5 125t130 84t143 47t145 14.5q96 0 186 -27.5t159 -85.5t111 -147t42 -213q0 -122 -26 -219t-71 -170.5t-106 -125.5t-130 -85.5t-143.5 -48.5t-146.5 -15q-95 0 -185 28.5t-159.5 87t-111.5 148.5t-42 212zM348 444q0 -49 10 -92
t32.5 -74.5t59 -50t89.5 -18.5q54 0 103 29.5t85.5 85t58 134.5t21.5 179q0 50 -10 93t-33 75t-60 50.5t-90 18.5q-55 0 -103.5 -29.5t-84.5 -85t-57 -135.5t-21 -180z" />
    <glyph glyph-name="p" unicode="p" horiz-adv-x="1257" 
d="M-78 -412l266 1504h330l-33 -168q24 34 58.5 68t76.5 60.5t90.5 43t100.5 16.5q84 0 151 -29t113.5 -83.5t71 -134t24.5 -179.5q0 -160 -39 -290t-107 -222t-159.5 -142t-197.5 -50q-59 0 -107 10t-87.5 28t-72 43t-59.5 56l-92 -531h-328zM377 317q37 -38 84 -63
t112 -25q50 0 97.5 26.5t84 78t59 127.5t22.5 176q0 94 -43 149.5t-131 55.5q-28 0 -57.5 -9.5t-57 -24.5t-52 -34.5t-42.5 -40.5z" />
    <glyph glyph-name="q" unicode="q" horiz-adv-x="1257" 
d="M14 408q0 183 44.5 316t116 219.5t161.5 128.5t182 42q67 0 117.5 -11.5t89 -30.5t66.5 -44t51 -51l22 115h330l-266 -1502h-328l98 566q-27 -36 -59 -67.5t-72 -55t-88 -36.5t-106 -13q-81 0 -147.5 27.5t-113.5 81t-72.5 132.5t-25.5 183zM346 434q0 -94 43 -148.5
t133 -54.5q60 0 113.5 31.5t93.5 75.5l76 416q-34 37 -81.5 63.5t-115.5 26.5q-46 0 -93 -23.5t-84.5 -73.5t-61 -127.5t-23.5 -185.5z" />
    <glyph glyph-name="r" unicode="r" horiz-adv-x="862" 
d="M-4 0l192 1092h330l-35 -183h4q26 33 63.5 69t86.5 66.5t111 50t137 19.5h6l-51 -293q-8 1 -19 2t-23 2t-23.5 1.5t-18.5 0.5q-46 0 -90 -12t-84.5 -32.5t-76 -47.5t-63.5 -57l-118 -678h-328z" />
    <glyph glyph-name="s" unicode="s" horiz-adv-x="1073" 
d="M-63 158l167 174q31 -30 70.5 -56.5t86 -46t99.5 -30.5t111 -11q31 0 60.5 5.5t52 18.5t36 34t13.5 53t-23 53.5t-61.5 38t-87 31t-99 31.5t-99 39.5t-87 55.5t-61.5 79.5t-23 111.5q0 100 38 171t99 116.5t137 66.5t152 21q92 0 165 -11.5t132 -31.5t106 -48t87 -62
l-154 -185q-65 54 -144.5 85.5t-168.5 31.5q-57 0 -94 -24t-37 -76q0 -32 23.5 -54t61.5 -39t86.5 -31t99.5 -31t99.5 -38.5t86.5 -53t61.5 -75.5t23.5 -106q0 -79 -22 -139t-59.5 -103t-87 -71t-103.5 -45t-109 -23.5t-104 -6.5q-105 0 -187.5 14t-147 38.5t-112.5 57.5
t-83 71z" />
    <glyph glyph-name="t" unicode="t" horiz-adv-x="868" 
d="M51 852l43 240h180l66 374h328l-64 -374h275l-43 -240h-277l-82 -469q-7 -40 -7 -69v-6q1 -30 14.5 -49t41 -26.5t72.5 -6.5q26 0 57 2.5t50 9.5l-35 -234q-9 -3 -33.5 -6t-55.5 -6t-63.5 -4.5t-58.5 -1.5q-124 0 -194.5 24.5t-103.5 69.5q-33 44 -35 108v18q0 57 11 124
l94 522h-180z" />
    <glyph glyph-name="u" unicode="u" horiz-adv-x="1243" 
d="M41 172q-6 29 -5 61q0 40 8 86l135 773h330l-125 -699q-5 -25 -5 -47q0 -40 18 -66q27 -40 100 -40q28 0 57.5 9t58.5 24.5t56.5 35.5t50.5 41l133 742h328l-193 -1092h-330l33 172q-24 -29 -59.5 -63t-82 -62.5t-103.5 -47.5t-123 -19q-78 0 -137 21.5t-95.5 64
t-49.5 106.5z" />
    <glyph glyph-name="v" unicode="v" horiz-adv-x="1085" 
d="M59 1092h332l90 -727h4l351 727h315l-573 -1094h-332z" />
    <glyph glyph-name="w" unicode="w" horiz-adv-x="1567" 
d="M68 1092h327l21 -392q2 -81 5 -160t3 -173h4q20 53 37 96t33 83t32.5 79t34.5 84l164 383h254l31 -390q3 -43 5.5 -80.5t5 -76.5t4 -82t3.5 -96h4q20 52 37 94.5t32 80.5t30 75.5t32 80.5l166 394h291l-502 -1092h-303l-49 666h-4l-281 -666h-303z" />
    <glyph glyph-name="x" unicode="x" horiz-adv-x="1102" 
d="M-109 0l461 573l-237 519h340l129 -285l217 285h334l-435 -539l256 -553h-340l-147 319l-244 -319h-334z" />
    <glyph glyph-name="y" unicode="y" horiz-adv-x="1126" 
d="M-195 -362l105 253q15 -6 39 -14t51.5 -14.5t55 -11.5t48.5 -5q53 0 85 22t57 69l33 57l-211 1098h338l104 -709h4l356 709h322l-684 -1244q-38 -68 -77 -118t-84 -83t-98.5 -49t-119.5 -16q-116 0 -197.5 18.5t-126.5 37.5z" />
    <glyph glyph-name="z" unicode="z" horiz-adv-x="1065" 
d="M-72 0l29 170l621 682h-461l43 240h878l-32 -174l-623 -685h541l-39 -233h-957z" />
    <glyph glyph-name="braceleft" unicode="{" horiz-adv-x="889" 
d="M-4 438l43 232q61 0 105.5 10t77 37.5t53.5 75t34 122.5l56 306q11 67 39.5 121.5t72 93t101.5 59.5t127 21h274l-39 -230h-74q-83 0 -129.5 -41.5t-60.5 -120.5l-43 -254q-13 -75 -34 -128.5t-50 -90t-65.5 -59.5t-80.5 -37l-2 -4q39 -14 67.5 -37t44.5 -59.5t18 -90
t-11 -128.5l-45 -254q-14 -79 17 -120.5t114 -41.5h76l-41 -230h-238q-84 0 -142 22.5t-91.5 62t-43 94t2.5 118.5l51 306q14 75 9.5 122.5t-27 75t-64 37.5t-102.5 10z" />
    <glyph glyph-name="bar" unicode="|" horiz-adv-x="819" 
d="M242 -410v1926h323v-1926h-323z" />
    <glyph glyph-name="braceright" unicode="}" horiz-adv-x="889" 
d="M-160 -410l41 230h76q84 0 129 41.5t59 120.5l50 284q13 75 33 124t47.5 80t63 49t79.5 32l2 4q-39 14 -68.5 32t-46.5 49t-20 80t10 124l51 284q14 79 -16.5 120.5t-114.5 41.5h-74l39 230h269q84 0 138 -18t82.5 -52t34.5 -83.5t-6 -113.5l-59 -334
q-13 -75 -8.5 -122.5t27.5 -75t64 -37.5t101 -10l-41 -232q-60 0 -104.5 -10t-77 -37.5t-53.5 -75t-35 -122.5l-59 -338q-23 -134 -96 -199.5t-210 -65.5h-307z" />
    <glyph glyph-name="asciitilde" unicode="~" horiz-adv-x="1323" 
d="M117 602q10 84 33.5 143.5t58.5 97t80.5 54.5t99.5 16q48 0 99.5 -10.5t102.5 -25t99.5 -32t92.5 -32t80.5 -25t62.5 -10.5q35 0 58.5 19t31.5 75l190 -24q-10 -85 -34 -146.5t-59.5 -100.5t-81 -57t-99.5 -16q-45 0 -95 10t-100.5 25t-100 32t-94 31.5t-82 24.5
t-63.5 11q-35 0 -57.5 -18t-30.5 -75z" />
    <glyph glyph-name="glyph98" unicode="&#xa0;" horiz-adv-x="551" 
 />
    <glyph glyph-name="exclamdown" unicode="&#xa1;" horiz-adv-x="731" 
d="M20 0l267 1036h245l-98 -1036h-414zM266 1214l51 302h353l-52 -302h-352z" />
    <glyph glyph-name="cent" unicode="&#xa2;" horiz-adv-x="1128" 
d="M16 449q0 124 26.5 221.5t71 171t104 125t126.5 84t136.5 47t135.5 14.5q48 0 95 -6l94 201h170l-113 -238q49 -21 85 -52.5t61.5 -72t41.5 -90t27 -106.5l-278 -50q-11 47 -26 81.5t-38 56.5l-291 -621q34 -12 78 -12q29 0 58.5 10.5t58.5 34.5t57.5 63t55.5 95
l247 -101q-26 -57 -65 -115.5t-97.5 -106t-139 -77t-189.5 -29.5q-40 0 -78.5 4.5t-73.5 12.5l-120 -258h-170l147 315q-89 55 -143 153.5t-54 244.5zM330 436q0 -72 22 -127l269 572h-17q-52 0 -101.5 -30.5t-87.5 -87.5t-61.5 -139.5t-23.5 -187.5z" />
    <glyph glyph-name="sterling" unicode="&#xa3;" horiz-adv-x="1391" 
d="M-72 193q0 80 26 134.5t68.5 88.5t97.5 48.5t113 14.5q76 0 138 -24.5t116 -61.5q4 20 5.5 41.5t1.5 44.5q0 51 -12 102.5t-29 104.5h-279l31 176h184q-20 59 -34.5 118.5t-14.5 119.5q0 104 38 186.5t103.5 139.5t154.5 87.5t191 30.5q93 0 162.5 -17t119.5 -46.5
t83 -70.5t53.5 -89t30 -101t12.5 -108l-299 -31q-1 46 -8 84.5t-25 66t-48 43t-77 15.5q-37 0 -68.5 -12t-54.5 -36.5t-36 -63t-13 -91.5q0 -57 16 -111.5t38 -113.5h346l-29 -176h-262q6 -32 10 -67t4 -72q0 -87 -24 -162.5t-66 -138.5q34 -20 69.5 -31.5t76.5 -11.5
q32 0 61 9.5t52.5 34.5t39 67.5t21.5 107.5h280q-11 -84 -38 -165t-76.5 -144.5t-124 -102.5t-181.5 -39q-54 0 -100.5 9t-87 25t-76.5 36.5t-67 44.5q-75 -56 -158 -85.5t-162 -29.5q-64 0 -117.5 14.5t-92.5 43t-61 70t-22 94.5zM139 213q0 -32 23 -54t74 -22
q32 0 76.5 17t84.5 59q-43 40 -82.5 67t-81.5 27q-38 0 -66 -24t-28 -70z" />
    <glyph glyph-name="yen" unicode="&#xa5;" horiz-adv-x="1380" 
d="M70 188l28 179h357l26 139h-356l31 176h350l-342 834h338l215 -590l420 590h350l-637 -834h356l-32 -176h-361l-25 -139h361l-31 -179h-360l-33 -188h-334l35 188h-356z" />
    <glyph glyph-name="brokenbar" unicode="&#xa6;" horiz-adv-x="819" 
d="M242 -410v838h323v-838h-323zM242 678v838h323v-838h-323z" />
    <glyph glyph-name="section" unicode="&#xa7;" horiz-adv-x="1188" 
d="M-20 -45l251 45q7 -43 20 -80t36 -64t57.5 -42t85.5 -15q37 0 64 11.5t45 31t27 44.5t9 53q0 39 -21.5 72.5t-56.5 65t-80 63t-91.5 64.5t-91.5 70.5t-80 81t-56.5 95t-21.5 114.5q0 65 21.5 118.5t57 96.5t82 77.5t97.5 62.5q-42 46 -68 103t-26 126q0 90 35 163
t95 124.5t141 79.5t173 28q130 0 216 -29.5t139.5 -79.5t79.5 -116t38 -139l-252 -43q-6 41 -20.5 76t-40 60.5t-62.5 39.5t-88 14q-37 0 -65.5 -11t-48.5 -30t-30.5 -44.5t-10.5 -53.5q0 -37 22 -69t58 -63t81.5 -61.5t93.5 -64t93.5 -70.5t81.5 -81t58 -95.5t22 -114.5
q0 -66 -22 -119.5t-59 -97t-85.5 -77.5t-100.5 -62q42 -46 67 -101.5t25 -123.5q0 -91 -33 -164.5t-91.5 -125.5t-138 -80t-171.5 -28q-131 0 -214.5 31t-134.5 82t-75.5 116.5t-35.5 135.5zM356 643q0 -47 26.5 -87t69 -77.5t95.5 -73.5t106 -75q115 69 115 164
q0 46 -27 85t-70 76t-96.5 73t-107.5 75q-57 -37 -84 -76t-27 -84z" />
    <glyph glyph-name="dieresis" unicode="&#xa8;" horiz-adv-x="1081" 
d="M262 1196l53 303h279l-53 -303h-279zM692 1196l53 303h279l-53 -303h-279z" />
    <glyph glyph-name="copyright" unicode="&#xa9;" horiz-adv-x="1776" 
d="M104 756q0 110 27.5 211.5t78.5 189t122.5 159t159.5 122.5t189 78.5t212 27.5t212 -27t188 -77.5t157.5 -121t120.5 -157.5t77 -188t27 -211q0 -111 -27.5 -213t-78 -190t-122 -159.5t-159 -122.5t-189 -78.5t-212.5 -27.5t-212 27t-188 77.5t-157.5 121t-121 158
t-77.5 189t-27 212.5zM262 762q0 -138 47.5 -256.5t132 -205.5t200 -136t251.5 -49q135 0 249.5 48.5t198 134t130.5 203t47 255.5q0 137 -47.5 255t-132 204.5t-200 136t-251.5 49.5q-135 0 -250 -48.5t-198 -134t-130 -202.5t-47 -254zM520 762q0 105 25.5 187.5
t73.5 139.5t116.5 87t153.5 30q73 0 130 -19.5t99 -55.5t69 -86t40 -111l-185 -47q-9 33 -21 60t-29 45.5t-41 29t-58 10.5q-41 0 -72.5 -19t-53.5 -54t-33 -85t-11 -112q0 -127 43 -197.5t125 -70.5q66 0 103.5 41t54.5 122q63 -18 99.5 -28t55.5 -15t24.5 -6.5t6.5 -1.5
q-18 -65 -45.5 -118t-69 -91t-100 -59t-137.5 -21q-81 0 -148 29.5t-115 86t-74 139.5t-26 190z" />
    <glyph glyph-name="ordfeminine" unicode="&#xaa;" horiz-adv-x="911" 
d="M121 958q9 69 45.5 120.5t102.5 87t162 55.5t224 26l4 21q10 40 -12 64t-92 24q-57 0 -120 -18.5t-122 -55.5l-78 133q68 53 160.5 85t208.5 32q93 0 152.5 -22.5t91 -64t38 -100.5t-7.5 -133l-47 -272q-12 -66 -15 -109t5 -77h-233q-3 24 -4 51.5t6 58.5
q-62 -59 -129 -92t-133 -33q-51 0 -92 16.5t-69 45.5t-40 69t-6 88zM358 989q-3 -32 16.5 -54t67.5 -22t91 21t75 49l27 139q-75 -4 -126.5 -14.5t-84 -28t-48 -40t-18.5 -50.5z" />
    <glyph glyph-name="guillemotleft" unicode="&#xab;" horiz-adv-x="1296" 
d="M14 547l439 545h313l-424 -545l229 -547h-313zM547 547l438 545h313l-424 -545l232 -547h-313z" />
    <glyph glyph-name="logicalnot" unicode="&#xac;" horiz-adv-x="1319" 
d="M137 592v256h1045v-668h-260v412h-785z" />
    <glyph glyph-name="registered" unicode="&#xae;" horiz-adv-x="1083" 
d="M80 1071q0 100 36.5 187t100.5 151t150.5 100.5t187.5 36.5q100 0 185.5 -36t148.5 -99.5t99 -149.5t36 -186q0 -101 -36.5 -187.5t-100.5 -150.5t-150 -100.5t-186 -36.5q-101 0 -187 36t-149 99.5t-99 149.5t-36 186zM176 1075q0 -82 28.5 -152.5t79.5 -122t120.5 -81
t150.5 -29.5t149 28.5t118 79.5t78 121t28 152t-28.5 153t-79 123t-119.5 81.5t-150 29.5t-149.5 -29t-118.5 -80.5t-78.5 -121.5t-28.5 -152zM365 825v516h200q94 0 147.5 -41.5t53.5 -128.5q0 -60 -25.5 -94.5t-68.5 -54.5l102 -197h-131l-90 183h-64v-183h-124zM489 1100
h68q43 0 64.5 15t21.5 50q0 66 -86 66h-68v-131z" />
    <glyph glyph-name="macron" unicode="&#xaf;" horiz-adv-x="1020" 
d="M250 1196l41 234h674l-41 -234h-674z" />
    <glyph glyph-name="degree" unicode="&#xb0;" horiz-adv-x="846" 
d="M170 1178q0 87 32.5 154.5t84 114t115.5 71t126 24.5q75 0 133 -22.5t98.5 -61.5t61.5 -92.5t21 -114.5q0 -85 -33 -153t-84.5 -115t-115.5 -72.5t-126 -25.5q-74 0 -132.5 23t-98.5 62.5t-61 93t-21 114.5zM346 1186q0 -63 36.5 -103.5t102.5 -40.5q34 0 66 12.5
t57 37.5t40.5 62.5t15.5 86.5q0 63 -36.5 103t-101.5 40q-34 0 -66 -12.5t-57.5 -37.5t-41 -62t-15.5 -86z" />
    <glyph glyph-name="plusminus" unicode="&#xb1;" horiz-adv-x="1323" 
d="M137 31v239h395v336h-395v254h395v412h259v-412h395v-254h-395v-336h395v-239h-1049z" />
    <glyph glyph-name="uni00B2" unicode="&#xb2;" horiz-adv-x="979" 
d="M78 541l10 53q16 97 50.5 166.5t79 119.5t96.5 84t103 59.5t98.5 46t84 43.5t58.5 52t22 72q0 32 -22.5 56t-67.5 24q-22 0 -47.5 -4.5t-54 -17t-59.5 -35t-62 -58.5l-158 139q85 104 192 149.5t228 45.5q80 0 138 -19t96 -53t56.5 -81t18.5 -103q0 -72 -21 -126
t-56.5 -94.5t-80.5 -69.5t-93 -52.5t-95 -43t-86 -40t-66 -45t-34 -57.5h448l-39 -211h-737z" />
    <glyph glyph-name="uni00B3" unicode="&#xb3;" horiz-adv-x="979" 
d="M82 737l180 125q22 -37 46.5 -61t50 -38.5t52 -20t52.5 -5.5q83 0 122.5 32t39.5 91q0 50 -41 75.5t-127 25.5h-86l32 182h89q100 0 141 25t41 79q0 31 -21 51.5t-73 20.5q-60 0 -118 -17.5t-120 -60.5l-109 162q49 40 100 65.5t102.5 40.5t102.5 21t101 6
q75 0 131.5 -18t94 -49.5t56.5 -76t19 -96.5q0 -84 -43 -147.5t-141 -95.5q37 -12 63.5 -32.5t43.5 -46t24.5 -55.5t7.5 -61q0 -87 -35 -150.5t-93 -104t-133.5 -60t-156.5 -19.5q-151 0 -249.5 57.5t-145.5 155.5z" />
    <glyph glyph-name="acute" unicode="&#xb4;" horiz-adv-x="1020" 
d="M389 1208l248 355h332l-363 -355h-217z" />
    <glyph glyph-name="uni00B5" unicode="&#xb5;" horiz-adv-x="1253" 
d="M-78 -410l266 1502h328l-123 -699q-14 -74 13.5 -113.5t99.5 -39.5q57 0 113.5 31t109.5 79l133 742h328l-193 -1092h-329l30 170q-21 -24 -48 -50t-59.5 -49.5t-71.5 -42.5t-85 -30q-31 -5 -59.5 -2.5t-48.5 16.5l-74 -422h-330z" />
    <glyph glyph-name="paragraph" unicode="&#xb6;" horiz-adv-x="1300" 
d="M111 1020q0 110 36.5 201t105 156.5t165.5 102t219 36.5h668l-338 -1926h-222l295 1680h-170l-295 -1680h-221l183 1051q-100 6 -179 34.5t-134 77.5t-84 116t-29 151z" />
    <glyph glyph-name="periodcentered" unicode="&#xb7;" horiz-adv-x="592" 
d="M76 530l55 318h369l-58 -318h-366z" />
    <glyph glyph-name="cedilla" unicode="&#xb8;" horiz-adv-x="1020" 
d="M61 -338l74 98q82 -61 195 -61q48 0 78 17t30 59q0 23 -16 36t-41 13q-23 0 -44 -8t-44 -27l-76 41l84 170h135l-41 -98q22 14 52 22t67 8q62 0 100.5 -35.5t38.5 -95.5q0 -59 -26.5 -100t-68 -66.5t-91.5 -37t-98 -11.5q-59 0 -106 5.5t-84 15t-66 23.5t-52 32z" />
    <glyph glyph-name="uni00B9" unicode="&#xb9;" horiz-adv-x="791" 
d="M94 537l35 206h176l101 566q-41 -17 -89 -29t-92 -12l33 186q59 2 106 16.5t82 45.5h259l-136 -773h154l-37 -206h-592z" />
    <glyph glyph-name="ordmasculine" unicode="&#xba;" horiz-adv-x="950" 
d="M147 1073q0 93 21.5 163t57.5 121.5t81.5 85.5t93.5 54t94.5 28.5t84.5 8.5q74 0 140.5 -19t116.5 -59t79.5 -102.5t29.5 -149.5q0 -91 -21.5 -160.5t-56.5 -121t-80 -86.5t-93 -56.5t-94.5 -31t-84.5 -9.5q-75 0 -142 20t-117.5 61t-80 104t-29.5 149zM385 1067
q0 -34 6.5 -63.5t22.5 -51.5t42 -34.5t64 -12.5q40 0 75 21t60.5 59.5t40.5 94t15 124.5q0 33 -7.5 62t-23.5 51t-42 34.5t-63 12.5q-41 0 -75.5 -21t-60 -59.5t-40 -93.5t-14.5 -123z" />
    <glyph glyph-name="guillemotright" unicode="&#xbb;" horiz-adv-x="1296" 
d="M-70 0l422 547l-229 545h313l244 -545l-436 -547h-314zM463 0l422 547l-228 545h314l241 -545l-436 -547h-313z" />
    <glyph glyph-name="onequarter" unicode="&#xbc;" horiz-adv-x="2173" 
d="M51 526l35 207h176l100 565q-40 -17 -88 -29t-92 -12l33 185q119 3 188 63h259l-136 -772h154l-37 -207h-592zM383 0l1165 1516h285l-1165 -1516h-285zM1198 205l29 164l536 610h271l-103 -573h154l-33 -201h-154l-36 -203h-260l36 203h-440zM1473 389h213l53 313z" />
    <glyph glyph-name="onehalf" unicode="&#xbd;" horiz-adv-x="2269" 
d="M51 526l35 207h176l100 565q-40 -17 -88 -29t-92 -12l33 185q119 3 188 63h259l-136 -772h154l-37 -207h-592zM383 0l1165 1516h285l-1165 -1516h-285zM1317 4l8 55q16 96 50.5 165.5t79.5 119.5t96.5 84t103.5 59t99.5 45.5t84 43.5t58.5 52t22 72q0 32 -23.5 56
t-66.5 24q-21 0 -47 -4.5t-54.5 -16.5t-59.5 -34.5t-62 -58.5l-158 141q85 102 191 147t227 45q81 0 139.5 -19t96.5 -52.5t56.5 -80.5t18.5 -102q0 -73 -21 -127t-56 -94.5t-80.5 -70t-93.5 -52.5t-95 -43t-85.5 -40.5t-65.5 -45t-35 -57.5h446l-37 -211h-737z" />
    <glyph glyph-name="threequarters" unicode="&#xbe;" horiz-adv-x="2269" 
d="M39 727l180 123q22 -37 46.5 -61t50 -38.5t52 -20t52.5 -5.5q83 0 122.5 33t39.5 92q0 49 -41 74.5t-127 25.5h-86l32 183h89q100 0 141 24t41 78q0 32 -21 53t-73 21q-60 0 -118 -17.5t-120 -62.5l-109 164q49 39 100 64.5t102.5 41t102.5 21.5t101 6q75 0 131.5 -18
t94 -50t56.5 -76t19 -96q0 -87 -42.5 -149.5t-141.5 -96.5q37 -12 63.5 -32t43.5 -45.5t24.5 -54.5t7.5 -60q0 -88 -35 -151t-93 -103.5t-133.5 -60t-156.5 -19.5q-151 0 -249.5 57.5t-145.5 155.5zM479 0l1166 1516h284l-1165 -1516h-285zM1294 205l29 164l537 610h270
l-102 -573h153l-33 -201h-153l-37 -203h-260l37 203h-441zM1569 389h213l53 313z" />
    <glyph glyph-name="questiondown" unicode="&#xbf;" horiz-adv-x="1196" 
d="M20 324q0 72 15.5 125t41.5 91.5t61 66.5t74 49.5t80.5 40.5t80.5 40q48 26 83 52t58 60t35 80t16 113h271q-2 -50 -7 -87t-12 -78q-11 -66 -36 -112t-60.5 -80t-78.5 -59t-91 -48q-40 -19 -76 -37.5t-63.5 -42t-43.5 -54t-16 -73.5q0 -31 10 -56.5t32 -43.5t57.5 -28
t85.5 -10q41 0 87.5 10t93 29t90 46.5t79.5 62.5l168 -191q-55 -52 -120 -93t-136 -69t-145.5 -42.5t-147.5 -14.5q-129 0 -221 28.5t-151 76.5t-86.5 112t-27.5 136zM555 1214l53 302h353l-54 -302h-352z" />
    <glyph glyph-name="Agrave" unicode="&#xc0;" horiz-adv-x="1440" 
d="M-96 0l796 1522h316l258 -1522h-326l-49 340h-504l-172 -340h-319zM516 1962h330l143 -354h-217zM518 580h346l-76 518h-4z" />
    <glyph glyph-name="Aacute" unicode="&#xc1;" horiz-adv-x="1440" 
d="M-96 0l796 1522h316l258 -1522h-326l-49 340h-504l-172 -340h-319zM518 580h346l-76 518h-4zM741 1608l248 354h332l-363 -354h-217z" />
    <glyph glyph-name="Acircumflex" unicode="&#xc2;" horiz-adv-x="1440" 
d="M-96 0l796 1522h316l258 -1522h-326l-49 340h-504l-172 -340h-319zM500 1612l321 350h221l201 -350h-188l-158 151l-211 -151h-186zM518 580h346l-76 518h-4z" />
    <glyph glyph-name="Atilde" unicode="&#xc3;" horiz-adv-x="1440" 
d="M-96 0l796 1522h316l258 -1522h-326l-49 340h-504l-172 -340h-319zM471 1591q9 87 33.5 149t61 101t83.5 57.5t103 18.5q55 0 95 -18t72 -39.5t59.5 -39.5t59.5 -18q42 0 68 25.5t37 85.5h180q-10 -87 -34.5 -149t-61.5 -101t-84.5 -57.5t-102.5 -18.5t-95 18t-72 39.5
t-60.5 39.5t-60.5 18q-41 0 -67 -25.5t-36 -85.5h-178zM518 580h346l-76 518h-4z" />
    <glyph glyph-name="Adieresis" unicode="&#xc4;" horiz-adv-x="1440" 
d="M-96 0l796 1522h316l258 -1522h-326l-49 340h-504l-172 -340h-319zM510 1595l53 303h279l-54 -303h-278zM518 580h346l-76 518h-4zM940 1595l53 303h279l-53 -303h-279z" />
    <glyph glyph-name="Aring" unicode="&#xc5;" horiz-adv-x="1440" 
d="M-96 0l780 1493q-17 22 -26 50.5t-9 60.5q0 57 22 102t57.5 76.5t80.5 48t92 16.5q48 0 85 -16t62.5 -43t38.5 -63t13 -76q0 -57 -22 -102t-54 -74l250 -1473h-326l-51 340h-502l-172 -340h-319zM518 580h346l-78 518h-4zM780 1610q0 -35 21 -59.5t63 -24.5q20 0 39 7.5
t33.5 22t23.5 36t9 48.5q0 32 -21 56t-61 24q-20 0 -39 -8t-34 -22t-24.5 -34.5t-9.5 -45.5z" />
    <glyph glyph-name="AE" unicode="&#xc6;" horiz-adv-x="2179" 
d="M-102 0l1128 1516h1176l-50 -279h-675l-58 -326h484l-45 -264h-484l-67 -377h712l-47 -270h-1042l76 432h-453l-317 -432h-338zM733 678h316l98 559h-2z" />
    <glyph glyph-name="Ccedilla" unicode="&#xc7;" horiz-adv-x="1473" 
d="M68 604q0 218 59.5 392.5t164 296t246.5 186.5t306 65q109 0 193 -19.5t146.5 -55t105.5 -84t71.5 -107t43.5 -124t21 -134.5l-329 -29q-5 59 -20 110t-46.5 88t-81 58t-123.5 21q-100 0 -178.5 -52.5t-133 -142t-83.5 -209t-29 -254.5q0 -84 18 -152t55 -116.5t92.5 -75
t129.5 -26.5q121 0 208.5 77.5t152.5 241.5l293 -108q-47 -112 -108.5 -201t-142.5 -151t-184 -95t-233 -33h-33l-28 -69q21 14 51 22t67 8q62 0 101 -35.5t39 -95.5q0 -59 -26.5 -100t-68 -66.5t-92 -37t-98.5 -11.5q-59 0 -106 5.5t-84 15t-65.5 23.5t-51.5 32l73 98
q83 -61 195 -61q48 0 78.5 17t30.5 59q0 23 -16.5 36t-41.5 13q-23 0 -44 -8t-44 -27l-76 41l78 158q-105 21 -189 72t-142.5 129t-89.5 182.5t-31 232.5z" />
    <glyph glyph-name="Egrave" unicode="&#xc8;" horiz-adv-x="1276" 
d="M25 0l266 1516h1009l-49 -279h-676l-57 -326h483l-45 -264h-485l-68 -377h715l-47 -270h-1046zM463 1962h330l143 -354h-217z" />
    <glyph glyph-name="Eacute" unicode="&#xc9;" horiz-adv-x="1276" 
d="M25 0l266 1516h1009l-49 -279h-676l-57 -326h483l-45 -264h-485l-68 -377h715l-47 -270h-1046zM586 1608l248 354h331l-362 -354h-217z" />
    <glyph glyph-name="Ecircumflex" unicode="&#xca;" horiz-adv-x="1276" 
d="M25 0l266 1516h1009l-49 -279h-676l-57 -326h483l-45 -264h-485l-68 -377h715l-47 -270h-1046zM432 1612l322 350h221l201 -350h-189l-158 151l-211 -151h-186z" />
    <glyph glyph-name="Edieresis" unicode="&#xcb;" horiz-adv-x="1276" 
d="M25 0l266 1516h1009l-49 -279h-676l-57 -326h483l-45 -264h-485l-68 -377h715l-47 -270h-1046zM442 1595l54 303h278l-53 -303h-279zM872 1595l54 303h278l-53 -303h-279z" />
    <glyph glyph-name="Igrave" unicode="&#xcc;" horiz-adv-x="676" 
d="M39 0l266 1516h334l-266 -1516h-334zM152 1962h329l144 -354h-217z" />
    <glyph glyph-name="Iacute" unicode="&#xcd;" horiz-adv-x="676" 
d="M39 0l266 1516h334l-266 -1516h-334zM336 1608l248 354h331l-362 -354h-217z" />
    <glyph glyph-name="Icircumflex" unicode="&#xce;" horiz-adv-x="676" 
d="M39 0l266 1516h334l-266 -1516h-334zM119 1612l321 350h222l200 -350h-188l-158 151l-211 -151h-186z" />
    <glyph glyph-name="Idieresis" unicode="&#xcf;" horiz-adv-x="676" 
d="M39 0l266 1516h334l-266 -1516h-334zM129 1595l53 303h279l-53 -303h-279zM559 1595l53 303h279l-53 -303h-279z" />
    <glyph glyph-name="Eth" unicode="&#xd0;" horiz-adv-x="1497" 
d="M6 651l41 248h135l109 617h387q171 0 310 -38t237.5 -115.5t152.5 -195t54 -276.5q0 -162 -32 -291t-90.5 -228t-141 -169.5t-183.5 -115.5t-217.5 -66t-243.5 -21h-499l114 651h-133zM403 270h170q135 0 234 39t163 116t95 191t31 263q0 85 -24 151.5t-75.5 112.5
t-133.5 70t-199 24h-91l-59 -338h309l-43 -248h-311z" />
    <glyph glyph-name="Ntilde" unicode="&#xd1;" horiz-adv-x="1571" 
d="M27 0l266 1516h332l444 -969h4l170 969h307l-266 -1516h-307l-469 979h-4l-172 -979h-305zM535 1591q9 87 33 149t60.5 101t84 57.5t102.5 18.5t95 -18t72.5 -39.5t60 -39.5t59.5 -18q42 0 67.5 25.5t36.5 85.5h180q-10 -87 -34.5 -149t-61 -101t-84 -57.5t-102.5 -18.5
q-56 0 -96 18t-72 39.5t-60.5 39.5t-60.5 18q-40 0 -66.5 -25.5t-35.5 -85.5h-178z" />
    <glyph glyph-name="Ograve" unicode="&#xd2;" horiz-adv-x="1577" 
d="M68 623q0 153 32.5 280.5t89.5 230t135 179.5t169.5 128.5t192.5 77t204 25.5q131 0 244 -43.5t196 -127t130.5 -205t47.5 -277.5q0 -152 -31.5 -279.5t-86.5 -229.5t-131 -179t-165.5 -128.5t-188.5 -77.5t-201 -26q-138 0 -254.5 43.5t-201.5 127t-133 205t-48 276.5z
M401 631q0 -88 20.5 -160t60.5 -123.5t99.5 -79.5t137.5 -28q88 0 170 42t145.5 124t101.5 202.5t38 278.5q0 86 -19.5 156t-59 120t-98.5 77.5t-137 27.5q-88 0 -171 -40t-147 -120t-102.5 -199.5t-38.5 -277.5zM614 1962h330l143 -354h-217z" />
    <glyph glyph-name="Oacute" unicode="&#xd3;" horiz-adv-x="1577" 
d="M68 623q0 153 32.5 280.5t89.5 230t135 179.5t169.5 128.5t192.5 77t204 25.5q131 0 244 -43.5t196 -127t130.5 -205t47.5 -277.5q0 -152 -31.5 -279.5t-86.5 -229.5t-131 -179t-165.5 -128.5t-188.5 -77.5t-201 -26q-138 0 -254.5 43.5t-201.5 127t-133 205t-48 276.5z
M401 631q0 -88 20.5 -160t60.5 -123.5t99.5 -79.5t137.5 -28q88 0 170 42t145.5 124t101.5 202.5t38 278.5q0 86 -19.5 156t-59 120t-98.5 77.5t-137 27.5q-88 0 -171 -40t-147 -120t-102.5 -199.5t-38.5 -277.5zM735 1608l248 354h332l-363 -354h-217z" />
    <glyph glyph-name="Ocircumflex" unicode="&#xd4;" horiz-adv-x="1577" 
d="M68 623q0 153 32.5 280.5t89.5 230t135 179.5t169.5 128.5t192.5 77t204 25.5q131 0 244 -43.5t196 -127t130.5 -205t47.5 -277.5q0 -152 -31.5 -279.5t-86.5 -229.5t-131 -179t-165.5 -128.5t-188.5 -77.5t-201 -26q-138 0 -254.5 43.5t-201.5 127t-133 205t-48 276.5z
M401 631q0 -88 20.5 -160t60.5 -123.5t99.5 -79.5t137.5 -28q88 0 170 42t145.5 124t101.5 202.5t38 278.5q0 86 -19.5 156t-59 120t-98.5 77.5t-137 27.5q-88 0 -171 -40t-147 -120t-102.5 -199.5t-38.5 -277.5zM567 1612l322 350h221l201 -350h-189l-157 151l-211 -151
h-187z" />
    <glyph glyph-name="Otilde" unicode="&#xd5;" horiz-adv-x="1577" 
d="M68 623q0 153 32.5 280.5t89.5 230t135 179.5t169.5 128.5t192.5 77t204 25.5q131 0 244 -43.5t196 -127t130.5 -205t47.5 -277.5q0 -152 -31.5 -279.5t-86.5 -229.5t-131 -179t-165.5 -128.5t-188.5 -77.5t-201 -26q-138 0 -254.5 43.5t-201.5 127t-133 205t-48 276.5z
M401 631q0 -88 20.5 -160t60.5 -123.5t99.5 -79.5t137.5 -28q88 0 170 42t145.5 124t101.5 202.5t38 278.5q0 86 -19.5 156t-59 120t-98.5 77.5t-137 27.5q-88 0 -171 -40t-147 -120t-102.5 -199.5t-38.5 -277.5zM539 1591q9 87 33 149t60.5 101t84 57.5t102.5 18.5t95 -18
t72.5 -39.5t60 -39.5t59.5 -18q42 0 67.5 25.5t36.5 85.5h181q-10 -87 -35 -149t-61.5 -101t-84 -57.5t-102.5 -18.5t-95 18t-72.5 39.5t-61 39.5t-60.5 18q-40 0 -66.5 -25.5t-35.5 -85.5h-178z" />
    <glyph glyph-name="Odieresis" unicode="&#xd6;" horiz-adv-x="1577" 
d="M68 623q0 153 32.5 280.5t89.5 230t135 179.5t169.5 128.5t192.5 77t204 25.5q131 0 244 -43.5t196 -127t130.5 -205t47.5 -277.5q0 -152 -31.5 -279.5t-86.5 -229.5t-131 -179t-165.5 -128.5t-188.5 -77.5t-201 -26q-138 0 -254.5 43.5t-201.5 127t-133 205t-48 276.5z
M401 631q0 -88 20.5 -160t60.5 -123.5t99.5 -79.5t137.5 -28q88 0 170 42t145.5 124t101.5 202.5t38 278.5q0 86 -19.5 156t-59 120t-98.5 77.5t-137 27.5q-88 0 -171 -40t-147 -120t-102.5 -199.5t-38.5 -277.5zM578 1595l53 303h278l-53 -303h-278zM1008 1595l53 303h278
l-53 -303h-278z" />
    <glyph glyph-name="multiply" unicode="&#xd7;" horiz-adv-x="1323" 
d="M143 338l324 324l-324 319l193 193l321 -322l322 322l190 -193l-317 -319l324 -320l-193 -190l-324 319l-323 -326z" />
    <glyph glyph-name="Oslash" unicode="&#xd8;" horiz-adv-x="1577" 
d="M-47 66l203 196q-88 149 -88 361q0 153 32.5 280.5t89.5 230t135 179.5t170 128.5t193 77t205 25.5q121 0 226.5 -37.5t187.5 -109.5l186 180l135 -127l-203 -199q42 -74 64 -164t22 -196q0 -152 -31.5 -279.5t-87.5 -229.5t-132 -179t-166 -128.5t-189 -77.5t-200 -26
q-128 0 -238 38t-195 110l-182 -180zM397 631q0 -76 13 -135l686 678q-41 48 -99 74t-137 26q-88 0 -171.5 -41t-148 -122t-104 -201.5t-39.5 -278.5zM481 338q41 -51 100 -78t138 -27q88 0 171.5 43t148 126.5t104 205t39.5 279.5q0 35 -3.5 67.5t-11.5 63.5z" />
    <glyph glyph-name="Ugrave" unicode="&#xd9;" horiz-adv-x="1464" 
d="M114.5 361.5q-14.5 118.5 10.5 259.5l155 895h334l-160 -916q-15 -82 -12 -147.5t29 -111.5t77.5 -70.5t133.5 -24.5q67 0 117.5 18t88 56t62 97t39.5 142l168 957h325l-174 -992q-50 -283 -208 -416t-433 -133q-180 0 -296 48t-179 134t-77.5 204.5zM571 1962h330
l143 -354h-217z" />
    <glyph glyph-name="Uacute" unicode="&#xda;" horiz-adv-x="1464" 
d="M114.5 361.5q-14.5 118.5 10.5 259.5l155 895h334l-160 -916q-15 -82 -12 -147.5t29 -111.5t77.5 -70.5t133.5 -24.5q67 0 117.5 18t88 56t62 97t39.5 142l168 957h325l-174 -992q-50 -283 -208 -416t-433 -133q-180 0 -296 48t-179 134t-77.5 204.5zM694 1608l248 354
h332l-363 -354h-217z" />
    <glyph glyph-name="Ucircumflex" unicode="&#xdb;" horiz-adv-x="1464" 
d="M114.5 361.5q-14.5 118.5 10.5 259.5l155 895h334l-160 -916q-15 -82 -12 -147.5t29 -111.5t77.5 -70.5t133.5 -24.5q67 0 117.5 18t88 56t62 97t39.5 142l168 957h325l-174 -992q-50 -283 -208 -416t-433 -133q-180 0 -296 48t-179 134t-77.5 204.5zM524 1612l321 350
h222l200 -350h-188l-158 151l-211 -151h-186z" />
    <glyph glyph-name="Udieresis" unicode="&#xdc;" horiz-adv-x="1464" 
d="M114.5 361.5q-14.5 118.5 10.5 259.5l155 895h334l-160 -916q-15 -82 -12 -147.5t29 -111.5t77.5 -70.5t133.5 -24.5q67 0 117.5 18t88 56t62 97t39.5 142l168 957h325l-174 -992q-50 -283 -208 -416t-433 -133q-180 0 -296 48t-179 134t-77.5 204.5zM536 1595l53 303
h279l-53 -303h-279zM966 1595l54 303h278l-53 -303h-279z" />
    <glyph glyph-name="Yacute" unicode="&#xdd;" horiz-adv-x="1395" 
d="M154 1516h338l233 -590l440 590h346l-667 -873l-113 -643h-332l113 643zM645 1608l248 354h332l-363 -354h-217z" />
    <glyph glyph-name="Thorn" unicode="&#xde;" horiz-adv-x="1368" 
d="M27 0l266 1516h332l-39 -230h112q135 0 250 -23.5t199 -75t131 -134t47 -199.5t-27.5 -204t-75 -149t-111.5 -102t-136.5 -63t-150 -32t-152.5 -9h-262l-52 -295h-331zM457 559h233q67 0 121 14.5t92 45.5t58 80t20 118q0 42 -15.5 77.5t-51 60.5t-92.5 39t-140 14h-145z
" />
    <glyph glyph-name="germandbls" unicode="&#xdf;" horiz-adv-x="1378" 
d="M-4 0l180 1024q24 137 77.5 231t129.5 152t169.5 83.5t197.5 25.5q126 0 220 -26t157 -72.5t94.5 -111.5t31.5 -143q0 -84 -27 -146t-71 -105.5t-102 -70.5t-119 -42q70 -12 133.5 -40t111 -73t75.5 -107t28 -143q0 -121 -41.5 -208t-108.5 -142.5t-150 -82t-167 -26.5
q-86 0 -151.5 14t-115 35.5t-84 47.5t-58.5 49l163 176q35 -34 87 -60t120 -26q94 0 145.5 57t51.5 160q0 61 -27.5 105t-78 72.5t-120.5 42.5t-155 16l39 221q88 0 147.5 15.5t96 45t52 71t15.5 93.5q0 31 -10 60t-32.5 51.5t-59 36.5t-90.5 14q-101 0 -164.5 -61
t-87.5 -205l-179 -1008h-323z" />
    <glyph glyph-name="agrave" unicode="&#xe0;" horiz-adv-x="1165" 
d="M-35 260q0 211 188 319.5t572 127.5l4 26q5 31 0.5 55.5t-21 41.5t-46 26.5t-74.5 9.5q-38 0 -80.5 -7.5t-87 -20.5t-89.5 -31.5t-87 -40.5l-111 205q39 27 94.5 52.5t122.5 45.5t144 32.5t161 12.5q131 0 215 -32.5t128 -91.5t52.5 -141.5t-10.5 -182.5l-71 -400
q-8 -45 -13.5 -79t-7.5 -64t-1.5 -59.5t5.5 -63.5h-327q-5 42 -4.5 79t8.5 81q-84 -87 -175.5 -131.5t-185.5 -44.5q-67 0 -122.5 20t-95.5 56t-62.5 87t-22.5 113zM301 332q0 -45 31.5 -73t93.5 -28q71 0 126.5 26.5t104.5 68.5l37 206q-204 -12 -298.5 -64t-94.5 -136z
M340 1563h330l143 -355h-217z" />
    <glyph glyph-name="aacute" unicode="&#xe1;" horiz-adv-x="1165" 
d="M-35 260q0 211 188 319.5t572 127.5l4 26q5 31 0.5 55.5t-21 41.5t-46 26.5t-74.5 9.5q-38 0 -80.5 -7.5t-87 -20.5t-89.5 -31.5t-87 -40.5l-111 205q39 27 94.5 52.5t122.5 45.5t144 32.5t161 12.5q131 0 215 -32.5t128 -91.5t52.5 -141.5t-10.5 -182.5l-71 -400
q-8 -45 -13.5 -79t-7.5 -64t-1.5 -59.5t5.5 -63.5h-327q-5 42 -4.5 79t8.5 81q-84 -87 -175.5 -131.5t-185.5 -44.5q-67 0 -122.5 20t-95.5 56t-62.5 87t-22.5 113zM301 332q0 -45 31.5 -73t93.5 -28q71 0 126.5 26.5t104.5 68.5l37 206q-204 -12 -298.5 -64t-94.5 -136z
M461 1208l248 355h331l-362 -355h-217z" />
    <glyph glyph-name="acircumflex" unicode="&#xe2;" horiz-adv-x="1165" 
d="M-35 260q0 211 188 319.5t572 127.5l4 26q5 31 0.5 55.5t-21 41.5t-46 26.5t-74.5 9.5q-38 0 -80.5 -7.5t-87 -20.5t-89.5 -31.5t-87 -40.5l-111 205q39 27 94.5 52.5t122.5 45.5t144 32.5t161 12.5q131 0 215 -32.5t128 -91.5t52.5 -141.5t-10.5 -182.5l-71 -400
q-8 -45 -13.5 -79t-7.5 -64t-1.5 -59.5t5.5 -63.5h-327q-5 42 -4.5 79t8.5 81q-84 -87 -175.5 -131.5t-185.5 -44.5q-67 0 -122.5 20t-95.5 56t-62.5 87t-22.5 113zM293 1212l321 351h222l200 -351h-188l-158 152l-211 -152h-186zM301 332q0 -45 31.5 -73t93.5 -28
q71 0 126.5 26.5t104.5 68.5l37 206q-204 -12 -298.5 -64t-94.5 -136z" />
    <glyph glyph-name="atilde" unicode="&#xe3;" horiz-adv-x="1165" 
d="M-35 260q0 211 188 319.5t572 127.5l4 26q5 31 0.5 55.5t-21 41.5t-46 26.5t-74.5 9.5q-38 0 -80.5 -7.5t-87 -20.5t-89.5 -31.5t-87 -40.5l-111 205q39 27 94.5 52.5t122.5 45.5t144 32.5t161 12.5q131 0 215 -32.5t128 -91.5t52.5 -141.5t-10.5 -182.5l-71 -400
q-8 -45 -13.5 -79t-7.5 -64t-1.5 -59.5t5.5 -63.5h-327q-5 42 -4.5 79t8.5 81q-84 -87 -175.5 -131.5t-185.5 -44.5q-67 0 -122.5 20t-95.5 56t-62.5 87t-22.5 113zM264 1192q9 87 33.5 148.5t61 101t83.5 58t103 18.5q55 0 95 -18t72 -39.5t60 -39.5t59 -18q42 0 68 25
t37 85h180q-10 -87 -34.5 -148.5t-61 -100.5t-84 -57.5t-102.5 -18.5q-56 0 -96 18t-72 39.5t-60.5 39.5t-60.5 18q-40 0 -66.5 -25.5t-36.5 -85.5h-178zM301 332q0 -45 31.5 -73t93.5 -28q71 0 126.5 26.5t104.5 68.5l37 206q-204 -12 -298.5 -64t-94.5 -136z" />
    <glyph glyph-name="adieresis" unicode="&#xe4;" horiz-adv-x="1165" 
d="M-35 260q0 211 188 319.5t572 127.5l4 26q5 31 0.5 55.5t-21 41.5t-46 26.5t-74.5 9.5q-38 0 -80.5 -7.5t-87 -20.5t-89.5 -31.5t-87 -40.5l-111 205q39 27 94.5 52.5t122.5 45.5t144 32.5t161 12.5q131 0 215 -32.5t128 -91.5t52.5 -141.5t-10.5 -182.5l-71 -400
q-8 -45 -13.5 -79t-7.5 -64t-1.5 -59.5t5.5 -63.5h-327q-5 42 -4.5 79t8.5 81q-84 -87 -175.5 -131.5t-185.5 -44.5q-67 0 -122.5 20t-95.5 56t-62.5 87t-22.5 113zM301 332q0 -45 31.5 -73t93.5 -28q71 0 126.5 26.5t104.5 68.5l37 206q-204 -12 -298.5 -64t-94.5 -136z
M303 1196l53 303h279l-53 -303h-279zM733 1196l53 303h279l-53 -303h-279z" />
    <glyph glyph-name="aring" unicode="&#xe5;" horiz-adv-x="1165" 
d="M-35 260q0 211 188 319.5t572 127.5l4 26q5 31 0.5 55.5t-21 41.5t-46 26.5t-74.5 9.5q-38 0 -80.5 -7.5t-87 -20.5t-89.5 -31.5t-87 -40.5l-111 205q39 27 94.5 52.5t122.5 45.5t144 32.5t161 12.5q131 0 215 -32.5t128 -91.5t52.5 -141.5t-10.5 -182.5l-71 -400
q-8 -45 -13.5 -79t-7.5 -64t-1.5 -59.5t5.5 -63.5h-327q-5 42 -4.5 79t8.5 81q-84 -87 -175.5 -131.5t-185.5 -44.5q-67 0 -122.5 20t-95.5 56t-62.5 87t-22.5 113zM301 332q0 -45 31.5 -73t93.5 -28q71 0 126.5 26.5t104.5 68.5l37 206q-204 -12 -298.5 -64t-94.5 -136z
M473 1393q0 57 22 102.5t57.5 76.5t80.5 47.5t92 16.5q48 0 85 -16t62.5 -43t38.5 -63t13 -76q0 -59 -21 -105t-56 -77.5t-80 -48.5t-93 -17t-85 16t-63 44t-39.5 64.5t-13.5 78.5zM604 1401q0 -37 21 -61.5t63 -24.5q20 0 39 8t33.5 22.5t23.5 36t9 48.5q0 34 -21 57.5
t-61 23.5q-20 0 -39.5 -8t-34.5 -22t-24 -34.5t-9 -45.5z" />
    <glyph glyph-name="ae" unicode="&#xe6;" horiz-adv-x="1812" 
d="M-35 260q0 211 188 319.5t572 127.5l4 26q5 31 0.5 55.5t-21 41.5t-46 26.5t-74.5 9.5q-38 0 -80.5 -7.5t-87 -20.5t-89.5 -31.5t-87 -40.5l-111 205q39 27 94.5 52.5t122.5 45.5t144 32.5t161 12.5q121 0 191 -31.5t102 -85.5q43 31 88.5 53.5t89 36.5t83.5 20.5t73 6.5
q123 0 214.5 -38.5t147 -114.5t72 -189.5t-9.5 -263.5l-8 -51h-707v-21q0 -68 19 -112.5t50.5 -70.5t72.5 -36t84 -10q51 0 95 10.5t83 28t72.5 41.5t62.5 51l131 -186q-83 -79 -203 -127t-289 -48q-146 0 -254.5 51.5t-166.5 159.5q-40 -38 -91 -75t-111.5 -65.5t-130 -46
t-147.5 -17.5q-67 0 -122.5 20t-95.5 56t-62.5 87t-22.5 113zM301 332q0 -45 31.5 -73t93.5 -28q36 0 72.5 10t71.5 26t67 36t59 41q-6 46 -6 100q0 23 0.5 44.5t3.5 41.5q-106 -6 -180.5 -22.5t-122 -42t-69 -59.5t-21.5 -74zM1018 651h420q4 48 -2 90t-26 73t-55.5 49
t-90.5 18q-82 0 -147 -59t-99 -171z" />
    <glyph glyph-name="ccedilla" unicode="&#xe7;" horiz-adv-x="1116" 
d="M16 449q0 124 26.5 221.5t71 171.5t104 126t126.5 84.5t136.5 47t135.5 14.5q118 0 199.5 -25.5t134.5 -72.5t82.5 -115t44.5 -153l-293 -52q-9 48 -22.5 81.5t-34.5 55t-51.5 31.5t-73.5 10q-51 0 -97.5 -29t-82 -85t-56 -137.5t-20.5 -186.5q0 -51 9.5 -92.5
t30.5 -71.5t54.5 -46.5t81.5 -16.5q31 0 59.5 10t55.5 33t53 60.5t53 93.5l256 -103q-26 -57 -64 -115.5t-96 -105t-139 -76t-192 -29.5q-9 0 -17.5 1.5t-17.5 1.5l-31 -78q22 14 52 22t67 8q62 0 100.5 -35.5t38.5 -95.5q0 -59 -26.5 -100t-68 -66.5t-91.5 -37t-98 -11.5
q-59 0 -106 5.5t-84 15t-65.5 23.5t-51.5 32l73 98q83 -61 195 -61q48 0 78 17t30 59q0 23 -16 36t-41 13q-23 0 -44 -8t-44 -27l-76 41l82 168q-72 18 -132.5 54t-104.5 92t-68.5 132t-24.5 173z" />
    <glyph glyph-name="egrave" unicode="&#xe8;" horiz-adv-x="1161" 
d="M16 444q0 137 32 239.5t84 177t118 123.5t134 78t133 40.5t114 11.5q122 0 213 -38.5t146 -114.5t72 -189.5t-9 -263.5l-9 -51h-706v-21q0 -68 19 -112.5t50.5 -70.5t72 -36t83.5 -10q51 0 94.5 8t83 24t76 38t74.5 51l141 -189q-83 -72 -214.5 -117t-301.5 -45
q-107 0 -198.5 28t-158.5 86t-105 145.5t-38 207.5zM336 1563h330l143 -355h-217zM365 651h419q4 48 -2 90t-25.5 73t-55.5 49t-91 18q-81 0 -146 -59t-99 -171z" />
    <glyph glyph-name="eacute" unicode="&#xe9;" horiz-adv-x="1161" 
d="M16 444q0 137 32 239.5t84 177t118 123.5t134 78t133 40.5t114 11.5q122 0 213 -38.5t146 -114.5t72 -189.5t-9 -263.5l-9 -51h-706v-21q0 -68 19 -112.5t50.5 -70.5t72 -36t83.5 -10q51 0 94.5 8t83 24t76 38t74.5 51l141 -189q-83 -72 -214.5 -117t-301.5 -45
q-107 0 -198.5 28t-158.5 86t-105 145.5t-38 207.5zM365 651h419q4 48 -2 90t-25.5 73t-55.5 49t-91 18q-81 0 -146 -59t-99 -171zM459 1208l248 355h331l-362 -355h-217z" />
    <glyph glyph-name="ecircumflex" unicode="&#xea;" horiz-adv-x="1161" 
d="M16 444q0 137 32 239.5t84 177t118 123.5t134 78t133 40.5t114 11.5q122 0 213 -38.5t146 -114.5t72 -189.5t-9 -263.5l-9 -51h-706v-21q0 -68 19 -112.5t50.5 -70.5t72 -36t83.5 -10q51 0 94.5 8t83 24t76 38t74.5 51l141 -189q-83 -72 -214.5 -117t-301.5 -45
q-107 0 -198.5 28t-158.5 86t-105 145.5t-38 207.5zM289 1212l321 351h221l201 -351h-188l-158 152l-211 -152h-186zM365 651h419q4 48 -2 90t-25.5 73t-55.5 49t-91 18q-81 0 -146 -59t-99 -171z" />
    <glyph glyph-name="edieresis" unicode="&#xeb;" horiz-adv-x="1161" 
d="M16 444q0 137 32 239.5t84 177t118 123.5t134 78t133 40.5t114 11.5q122 0 213 -38.5t146 -114.5t72 -189.5t-9 -263.5l-9 -51h-706v-21q0 -68 19 -112.5t50.5 -70.5t72 -36t83.5 -10q51 0 94.5 8t83 24t76 38t74.5 51l141 -189q-83 -72 -214.5 -117t-301.5 -45
q-107 0 -198.5 28t-158.5 86t-105 145.5t-38 207.5zM301 1196l53 303h279l-53 -303h-279zM365 651h419q4 48 -2 90t-25.5 73t-55.5 49t-91 18q-81 0 -146 -59t-99 -171zM731 1196l53 303h279l-53 -303h-279z" />
    <glyph glyph-name="igrave" unicode="&#xec;" horiz-adv-x="602" 
d="M6 0l193 1092h329l-194 -1092h-328zM33 1563h329l144 -355h-217z" />
    <glyph glyph-name="iacute" unicode="&#xed;" horiz-adv-x="602" 
d="M6 0l193 1092h329l-194 -1092h-328zM233 1208l248 355h332l-362 -355h-218z" />
    <glyph glyph-name="icircumflex" unicode="&#xee;" horiz-adv-x="602" 
d="M6 0l193 1092h329l-194 -1092h-328zM12 1212l322 351h221l201 -351h-189l-157 152l-211 -152h-187z" />
    <glyph glyph-name="idieresis" unicode="&#xef;" horiz-adv-x="602" 
d="M6 0l193 1092h329l-194 -1092h-328zM25 1196l53 303h278l-53 -303h-278zM455 1196l53 303h278l-53 -303h-278z" />
    <glyph glyph-name="eth" unicode="&#xf0;" horiz-adv-x="1225" 
d="M16 424q0 105 23.5 188.5t63 147.5t92 110t110.5 75t118 42.5t116 13.5q97 0 179 -38t130 -109q-2 72 -20.5 140.5t-47.5 131.5l-168 -67l-63 170l139 55q-28 37 -53.5 66t-48.5 49l186 176q53 -42 97 -87.5t81 -96.5l170 67l64 -170l-142 -57q53 -118 76 -243t23 -249
q0 -201 -47.5 -345t-130.5 -237t-197.5 -136.5t-247.5 -43.5q-120 0 -213 32.5t-157.5 92t-98 141.5t-33.5 181zM344 424q0 -98 47 -156.5t137 -58.5q51 0 99 19.5t84.5 61.5t59 108.5t22.5 160.5q0 49 -12.5 89.5t-36.5 69t-59.5 44.5t-82.5 16t-93 -21t-83 -64.5
t-59.5 -110.5t-22.5 -158z" />
    <glyph glyph-name="ntilde" unicode="&#xf1;" horiz-adv-x="1245" 
d="M-4 0l192 1092h330l-33 -172q24 30 60 64t83.5 63t104.5 48t123 19q77 0 135.5 -21.5t95.5 -64t50 -106.5t-2 -148l-136 -774h-329l121 690q14 74 -13.5 114t-99.5 40q-29 0 -59 -9t-59 -24.5t-56.5 -35.5t-50.5 -42l-129 -733h-328zM303 1192q9 87 33.5 148.5t61 101
t83.5 58t103 18.5q55 0 95 -18t72 -39.5t59.5 -39.5t59.5 -18q42 0 68 25t37 85h180q-10 -87 -34.5 -148.5t-61.5 -100.5t-84.5 -57.5t-102.5 -18.5t-95 18t-72 39.5t-60.5 39.5t-60.5 18q-41 0 -67 -25.5t-36 -85.5h-178z" />
    <glyph glyph-name="ograve" unicode="&#xf2;" horiz-adv-x="1227" 
d="M16 453q0 123 26.5 220t72 170.5t106.5 125t130 84t143 47t145 14.5q96 0 186 -27.5t159 -85.5t111 -147t42 -213q0 -122 -26 -219t-71 -170.5t-106 -125.5t-130 -85.5t-143.5 -48.5t-146.5 -15q-95 0 -185 28.5t-159.5 87t-111.5 148.5t-42 212zM348 444q0 -49 10 -92
t32.5 -74.5t59 -50t89.5 -18.5q54 0 103 29.5t85.5 85t58 134.5t21.5 179q0 50 -10 93t-33 75t-60 50.5t-90 18.5q-55 0 -103.5 -29.5t-84.5 -85t-57 -135.5t-21 -180zM371 1563h329l144 -355h-217z" />
    <glyph glyph-name="oacute" unicode="&#xf3;" horiz-adv-x="1227" 
d="M16 453q0 123 26.5 220t72 170.5t106.5 125t130 84t143 47t145 14.5q96 0 186 -27.5t159 -85.5t111 -147t42 -213q0 -122 -26 -219t-71 -170.5t-106 -125.5t-130 -85.5t-143.5 -48.5t-146.5 -15q-95 0 -185 28.5t-159.5 87t-111.5 148.5t-42 212zM348 444q0 -49 10 -92
t32.5 -74.5t59 -50t89.5 -18.5q54 0 103 29.5t85.5 85t58 134.5t21.5 179q0 50 -10 93t-33 75t-60 50.5t-90 18.5q-55 0 -103.5 -29.5t-84.5 -85t-57 -135.5t-21 -180zM492 1208l247 355h332l-362 -355h-217z" />
    <glyph glyph-name="ocircumflex" unicode="&#xf4;" horiz-adv-x="1227" 
d="M16 453q0 123 26.5 220t72 170.5t106.5 125t130 84t143 47t145 14.5q96 0 186 -27.5t159 -85.5t111 -147t42 -213q0 -122 -26 -219t-71 -170.5t-106 -125.5t-130 -85.5t-143.5 -48.5t-146.5 -15q-95 0 -185 28.5t-159.5 87t-111.5 148.5t-42 212zM324 1212l321 351h221
l201 -351h-188l-158 152l-211 -152h-186zM348 444q0 -49 10 -92t32.5 -74.5t59 -50t89.5 -18.5q54 0 103 29.5t85.5 85t58 134.5t21.5 179q0 50 -10 93t-33 75t-60 50.5t-90 18.5q-55 0 -103.5 -29.5t-84.5 -85t-57 -135.5t-21 -180z" />
    <glyph glyph-name="otilde" unicode="&#xf5;" horiz-adv-x="1227" 
d="M16 453q0 123 26.5 220t72 170.5t106.5 125t130 84t143 47t145 14.5q96 0 186 -27.5t159 -85.5t111 -147t42 -213q0 -122 -26 -219t-71 -170.5t-106 -125.5t-130 -85.5t-143.5 -48.5t-146.5 -15q-95 0 -185 28.5t-159.5 87t-111.5 148.5t-42 212zM295 1192q9 87 33 148.5
t60.5 101t84 58t102.5 18.5t95 -18t72.5 -39.5t60 -39.5t59.5 -18q42 0 68 25t37 85h180q-10 -87 -34.5 -148.5t-61.5 -100.5t-84.5 -57.5t-102.5 -18.5t-95 18t-72 39.5t-60.5 39.5t-61.5 18q-40 0 -66.5 -25.5t-35.5 -85.5h-178zM348 444q0 -49 10 -92t32.5 -74.5t59 -50
t89.5 -18.5q54 0 103 29.5t85.5 85t58 134.5t21.5 179q0 50 -10 93t-33 75t-60 50.5t-90 18.5q-55 0 -103.5 -29.5t-84.5 -85t-57 -135.5t-21 -180z" />
    <glyph glyph-name="odieresis" unicode="&#xf6;" horiz-adv-x="1227" 
d="M16 453q0 123 26.5 220t72 170.5t106.5 125t130 84t143 47t145 14.5q96 0 186 -27.5t159 -85.5t111 -147t42 -213q0 -122 -26 -219t-71 -170.5t-106 -125.5t-130 -85.5t-143.5 -48.5t-146.5 -15q-95 0 -185 28.5t-159.5 87t-111.5 148.5t-42 212zM334 1196l53 303h279
l-54 -303h-278zM348 444q0 -49 10 -92t32.5 -74.5t59 -50t89.5 -18.5q54 0 103 29.5t85.5 85t58 134.5t21.5 179q0 50 -10 93t-33 75t-60 50.5t-90 18.5q-55 0 -103.5 -29.5t-84.5 -85t-57 -135.5t-21 -180zM764 1196l53 303h279l-54 -303h-278z" />
    <glyph glyph-name="divide" unicode="&#xf7;" horiz-adv-x="1323" 
d="M133 588v260h1049v-260h-1049zM518 197v243h277v-243h-277zM518 991v244h277v-244h-277z" />
    <glyph glyph-name="oslash" unicode="&#xf8;" horiz-adv-x="1227" 
d="M-74 39l162 147q-34 53 -53 119t-19 148q0 123 26.5 220t72 170.5t106.5 125t130 84t143 47t145 14.5q90 0 173.5 -23.5t152.5 -74.5l155 143l107 -123l-154 -143q29 -51 46.5 -114t17.5 -138q0 -122 -26 -219t-71 -170.5t-106 -125.5t-130 -85.5t-143.5 -48.5
t-146.5 -15q-87 0 -167 22t-146 69l-166 -154zM342 410l424 403q-25 32 -61.5 50t-90.5 18q-55 0 -104.5 -30.5t-86.5 -87.5t-59 -138t-22 -181v-34zM391 262q23 -28 59 -43.5t89 -15.5q54 0 104 30.5t87.5 87t60 136.5t22.5 180v27z" />
    <glyph glyph-name="ugrave" unicode="&#xf9;" horiz-adv-x="1243" 
d="M52.5 171.5q-12.5 63.5 2.5 147.5l135 773h330l-125 -699q-14 -74 13 -113.5t100 -39.5q28 0 57.5 9t58.5 24.5t56.5 35.5t50.5 41l133 742h328l-193 -1092h-330l33 172q-24 -29 -59.5 -63t-82 -62.5t-103.5 -47.5t-123 -19q-78 0 -137 21.5t-95.5 64t-49 106zM391 1563
h330l143 -355h-217z" />
    <glyph glyph-name="uacute" unicode="&#xfa;" horiz-adv-x="1243" 
d="M52.5 171.5q-12.5 63.5 2.5 147.5l135 773h330l-125 -699q-14 -74 13 -113.5t100 -39.5q28 0 57.5 9t58.5 24.5t56.5 35.5t50.5 41l133 742h328l-193 -1092h-330l33 172q-24 -29 -59.5 -63t-82 -62.5t-103.5 -47.5t-123 -19q-78 0 -137 21.5t-95.5 64t-49 106zM512 1208
l248 355h331l-362 -355h-217z" />
    <glyph glyph-name="ucircumflex" unicode="&#xfb;" horiz-adv-x="1243" 
d="M52.5 171.5q-12.5 63.5 2.5 147.5l135 773h330l-125 -699q-14 -74 13 -113.5t100 -39.5q28 0 57.5 9t58.5 24.5t56.5 35.5t50.5 41l133 742h328l-193 -1092h-330l33 172q-24 -29 -59.5 -63t-82 -62.5t-103.5 -47.5t-123 -19q-78 0 -137 21.5t-95.5 64t-49 106zM344 1212
l321 351h221l201 -351h-188l-158 152l-211 -152h-186z" />
    <glyph glyph-name="udieresis" unicode="&#xfc;" horiz-adv-x="1243" 
d="M52.5 171.5q-12.5 63.5 2.5 147.5l135 773h330l-125 -699q-14 -74 13 -113.5t100 -39.5q28 0 57.5 9t58.5 24.5t56.5 35.5t50.5 41l133 742h328l-193 -1092h-330l33 172q-24 -29 -59.5 -63t-82 -62.5t-103.5 -47.5t-123 -19q-78 0 -137 21.5t-95.5 64t-49 106zM354 1196
l53 303h279l-53 -303h-279zM784 1196l53 303h279l-53 -303h-279z" />
    <glyph glyph-name="yacute" unicode="&#xfd;" horiz-adv-x="1126" 
d="M-195 -362l105 253q15 -6 39 -14t51.5 -14.5t55 -11.5t48.5 -5q53 0 85 22t57 69l33 57l-211 1098h338l104 -709h4l356 709h322l-684 -1244q-38 -68 -77 -118t-84 -83t-98.5 -49t-119.5 -16q-116 0 -197.5 18.5t-126.5 37.5zM442 1208l248 355h332l-363 -355h-217z" />
    <glyph glyph-name="thorn" unicode="&#xfe;" horiz-adv-x="1257" 
d="M-78 -412l340 1928h328l-105 -592q24 34 58.5 68t76.5 60.5t90.5 43t100.5 16.5q84 0 151 -29t113.5 -83.5t71 -134t24.5 -179.5q0 -160 -39 -290t-107 -222t-159.5 -142t-197.5 -50q-59 0 -107 10t-87.5 28t-72 43t-59.5 56l-92 -531h-328zM377 317q37 -38 84 -63
t112 -25q50 0 97.5 26.5t84 78t59 127.5t22.5 176q0 94 -43 149.5t-131 55.5q-28 0 -57.5 -9.5t-57 -24.5t-52 -34.5t-42.5 -40.5z" />
    <glyph glyph-name="ydieresis" unicode="&#xff;" horiz-adv-x="1126" 
d="M-195 -362l105 253q15 -6 39 -14t51.5 -14.5t55 -11.5t48.5 -5q53 0 85 22t57 69l33 57l-211 1098h338l104 -709h4l356 709h322l-684 -1244q-38 -68 -77 -118t-84 -83t-98.5 -49t-119.5 -16q-116 0 -197.5 18.5t-126.5 37.5zM285 1196l53 303h278l-53 -303h-278z
M715 1196l53 303h279l-54 -303h-278z" />
    <glyph glyph-name="Amacron" unicode="&#x100;" horiz-adv-x="1440" 
d="M-96 0l796 1522h316l258 -1522h-326l-49 340h-504l-172 -340h-319zM518 580h346l-76 518h-4zM528 1591l41 234h674l-41 -234h-674z" />
    <glyph glyph-name="amacron" unicode="&#x101;" horiz-adv-x="1165" 
d="M-35 260q0 211 188 319.5t572 127.5l4 26q5 31 0.5 55.5t-21 41.5t-46 26.5t-74.5 9.5q-38 0 -80.5 -7.5t-87 -20.5t-89.5 -31.5t-87 -40.5l-111 205q39 27 94.5 52.5t122.5 45.5t144 32.5t161 12.5q131 0 215 -32.5t128 -91.5t52.5 -141.5t-10.5 -182.5l-71 -400
q-8 -45 -13.5 -79t-7.5 -64t-1.5 -59.5t5.5 -63.5h-327q-5 42 -4.5 79t8.5 81q-84 -87 -175.5 -131.5t-185.5 -44.5q-67 0 -122.5 20t-95.5 56t-62.5 87t-22.5 113zM301 332q0 -45 31.5 -73t93.5 -28q71 0 126.5 26.5t104.5 68.5l37 206q-204 -12 -298.5 -64t-94.5 -136z
M322 1196l40 234h674l-41 -234h-673z" />
    <glyph glyph-name="Abreve" unicode="&#x102;" horiz-adv-x="1440" 
d="M-96 0l796 1522h316l258 -1522h-326l-49 340h-504l-172 -340h-319zM518 580h346l-76 518h-4zM575 1970h177q0 -55 13 -89t35.5 -53t52.5 -25.5t65 -6.5q25 0 54.5 6t57.5 25t52 53t38 90h174q-11 -80 -43 -149t-82.5 -120t-117.5 -80.5t-146 -29.5q-100 0 -165.5 29.5
t-103 81t-51.5 120.5t-10 148z" />
    <glyph glyph-name="abreve" unicode="&#x103;" horiz-adv-x="1165" 
d="M-35 260q0 211 188 319.5t572 127.5l4 26q5 31 0.5 55.5t-21 41.5t-46 26.5t-74.5 9.5q-38 0 -80.5 -7.5t-87 -20.5t-89.5 -31.5t-87 -40.5l-111 205q39 27 94.5 52.5t122.5 45.5t144 32.5t161 12.5q131 0 215 -32.5t128 -91.5t52.5 -141.5t-10.5 -182.5l-71 -400
q-8 -45 -13.5 -79t-7.5 -64t-1.5 -59.5t5.5 -63.5h-327q-5 42 -4.5 79t8.5 81q-84 -87 -175.5 -131.5t-185.5 -44.5q-67 0 -122.5 20t-95.5 56t-62.5 87t-22.5 113zM301 332q0 -45 31.5 -73t93.5 -28q71 0 126.5 26.5t104.5 68.5l37 206q-204 -12 -298.5 -64t-94.5 -136z
M369 1575h176q0 -56 13 -90t35.5 -52.5t52.5 -25t65 -6.5q25 0 54.5 6t58 24.5t52 53t37.5 90.5h174q-11 -80 -43 -149t-82.5 -120t-117.5 -80.5t-146 -29.5q-100 0 -165.5 29.5t-103 81t-51 120.5t-9.5 148z" />
    <glyph glyph-name="Aogonek" unicode="&#x104;" horiz-adv-x="1440" 
d="M-96 0l796 1522h316l258 -1522h-156q-68 -46 -106.5 -94.5t-38.5 -93.5q0 -25 17.5 -44.5t68.5 -19.5q46 0 90 12t78 27l47 -100q-65 -35 -133.5 -52.5t-155.5 -17.5q-63 0 -108.5 11.5t-74.5 31t-43 46t-14 56.5q0 39 16 72.5t43.5 64t64 57.5t77.5 52l-47 332h-504
l-172 -340h-319zM518 580h346l-76 518h-4z" />
    <glyph glyph-name="aogonek" unicode="&#x105;" horiz-adv-x="1165" 
d="M-35 260q0 211 188 319.5t572 127.5l4 26q5 31 0.5 55.5t-21 41.5t-46 26.5t-74.5 9.5q-38 0 -80.5 -7.5t-87 -20.5t-89.5 -31.5t-87 -40.5l-111 205q39 27 94.5 52.5t122.5 45.5t144 32.5t161 12.5q131 0 215 -32.5t128 -91.5t52.5 -141.5t-10.5 -182.5l-71 -400
q-8 -45 -13.5 -79t-7.5 -64t-1.5 -59.5t5.5 -63.5h-164q-68 -46 -106.5 -94.5t-38.5 -93.5q0 -25 19 -44.5t69 -19.5q47 0 90.5 12t77.5 27l47 -100q-66 -35 -134.5 -52.5t-154.5 -17.5q-64 0 -109.5 11.5t-75 31t-43 46t-13.5 56.5q0 39 16.5 73t44.5 64.5t66 58t80 52.5
q-4 38 -3 73t9 77q-84 -87 -175.5 -131.5t-185.5 -44.5q-67 0 -122.5 20t-95.5 56t-62.5 87t-22.5 113zM301 332q0 -45 31.5 -73t93.5 -28q71 0 126.5 26.5t104.5 68.5l37 206q-204 -12 -298.5 -64t-94.5 -136z" />
    <glyph glyph-name="Cacute" unicode="&#x106;" horiz-adv-x="1473" 
d="M68 604q0 218 59.5 392.5t164 296t246.5 186.5t306 65q109 0 193 -19.5t146.5 -55t105.5 -84t71.5 -107t43.5 -124t21 -134.5l-329 -29q-5 59 -20 110t-46.5 88t-81 58t-123.5 21q-100 0 -178.5 -52.5t-133 -142t-83.5 -209t-29 -254.5q0 -84 18 -152t55 -116.5t92.5 -75
t129.5 -26.5q121 0 208.5 77.5t152.5 241.5l293 -108q-47 -112 -108.5 -201t-142.5 -151t-184 -95t-233 -33q-141 0 -254.5 42t-193.5 123t-123 199t-43 269zM684 1604l248 354h332l-363 -354h-217z" />
    <glyph glyph-name="cacute" unicode="&#x107;" horiz-adv-x="1116" 
d="M16 449q0 124 26.5 221.5t71 171.5t104 126t126.5 84.5t136.5 47t135.5 14.5q118 0 199.5 -25.5t134.5 -72.5t82.5 -115t44.5 -153l-293 -52q-9 48 -22.5 81.5t-34.5 55t-51.5 31.5t-73.5 10q-51 0 -97.5 -29t-82 -85t-56 -137.5t-20.5 -186.5q0 -51 9.5 -92.5
t30.5 -71.5t54.5 -46.5t81.5 -16.5q31 0 59.5 10t55.5 33t53 60.5t53 93.5l256 -103q-26 -57 -64 -115.5t-96 -105t-139 -76t-192 -29.5q-101 0 -190.5 28t-156.5 86t-106 147t-39 211zM436 1208l248 355h332l-363 -355h-217z" />
    <glyph glyph-name="Ccircumflex" unicode="&#x108;" horiz-adv-x="1473" 
d="M68 604q0 218 59.5 392.5t164 296t246.5 186.5t306 65q109 0 193 -19.5t146.5 -55t105.5 -84t71.5 -107t43.5 -124t21 -134.5l-329 -29q-5 59 -20 110t-46.5 88t-81 58t-123.5 21q-100 0 -178.5 -52.5t-133 -142t-83.5 -209t-29 -254.5q0 -84 18 -152t55 -116.5t92.5 -75
t129.5 -26.5q121 0 208.5 77.5t152.5 241.5l293 -108q-47 -112 -108.5 -201t-142.5 -151t-184 -95t-233 -33q-141 0 -254.5 42t-193.5 123t-123 199t-43 269zM514 1610l322 350h221l200 -350h-188l-158 151l-211 -151h-186z" />
    <glyph glyph-name="ccircumflex" unicode="&#x109;" horiz-adv-x="1116" 
d="M16 449q0 124 26.5 221.5t71 171.5t104 126t126.5 84.5t136.5 47t135.5 14.5q118 0 199.5 -25.5t134.5 -72.5t82.5 -115t44.5 -153l-293 -52q-9 48 -22.5 81.5t-34.5 55t-51.5 31.5t-73.5 10q-51 0 -97.5 -29t-82 -85t-56 -137.5t-20.5 -186.5q0 -51 9.5 -92.5
t30.5 -71.5t54.5 -46.5t81.5 -16.5q31 0 59.5 10t55.5 33t53 60.5t53 93.5l256 -103q-26 -57 -64 -115.5t-96 -105t-139 -76t-192 -29.5q-101 0 -190.5 28t-156.5 86t-106 147t-39 211zM283 1212l321 351h221l201 -351h-188l-158 152l-211 -152h-186z" />
    <glyph glyph-name="Cdotaccent" unicode="&#x10a;" horiz-adv-x="1473" 
d="M68 604q0 218 59.5 392.5t164 296t246.5 186.5t306 65q109 0 193 -19.5t146.5 -55t105.5 -84t71.5 -107t43.5 -124t21 -134.5l-329 -29q-5 59 -20 110t-46.5 88t-81 58t-123.5 21q-100 0 -178.5 -52.5t-133 -142t-83.5 -209t-29 -254.5q0 -84 18 -152t55 -116.5t92.5 -75
t129.5 -26.5q121 0 208.5 77.5t152.5 241.5l293 -108q-47 -112 -108.5 -201t-142.5 -151t-184 -95t-233 -33q-141 0 -254.5 42t-193.5 123t-123 199t-43 269zM721 1630l47 268h338l-47 -268h-338z" />
    <glyph glyph-name="cdotaccent" unicode="&#x10b;" horiz-adv-x="1116" 
d="M16 449q0 124 26.5 221.5t71 171.5t104 126t126.5 84.5t136.5 47t135.5 14.5q118 0 199.5 -25.5t134.5 -72.5t82.5 -115t44.5 -153l-293 -52q-9 48 -22.5 81.5t-34.5 55t-51.5 31.5t-73.5 10q-51 0 -97.5 -29t-82 -85t-56 -137.5t-20.5 -186.5q0 -51 9.5 -92.5
t30.5 -71.5t54.5 -46.5t81.5 -16.5q31 0 59.5 10t55.5 33t53 60.5t53 93.5l256 -103q-26 -57 -64 -115.5t-96 -105t-139 -76t-192 -29.5q-101 0 -190.5 28t-156.5 86t-106 147t-39 211zM496 1233l47 268h338l-47 -268h-338z" />
    <glyph glyph-name="Ccaron" unicode="&#x10c;" horiz-adv-x="1473" 
d="M68 604q0 218 59.5 392.5t164 296t246.5 186.5t306 65q109 0 193 -19.5t146.5 -55t105.5 -84t71.5 -107t43.5 -124t21 -134.5l-329 -29q-5 59 -20 110t-46.5 88t-81 58t-123.5 21q-100 0 -178.5 -52.5t-133 -142t-83.5 -209t-29 -254.5q0 -84 18 -152t55 -116.5t92.5 -75
t129.5 -26.5q121 0 208.5 77.5t152.5 241.5l293 -108q-47 -112 -108.5 -201t-142.5 -151t-184 -95t-233 -33q-141 0 -254.5 42t-193.5 123t-123 199t-43 269zM571 1960h189l158 -152l210 152h187l-322 -350h-221z" />
    <glyph glyph-name="ccaron" unicode="&#x10d;" horiz-adv-x="1116" 
d="M16 449q0 124 26.5 221.5t71 171.5t104 126t126.5 84.5t136.5 47t135.5 14.5q118 0 199.5 -25.5t134.5 -72.5t82.5 -115t44.5 -153l-293 -52q-9 48 -22.5 81.5t-34.5 55t-51.5 31.5t-73.5 10q-51 0 -97.5 -29t-82 -85t-56 -137.5t-20.5 -186.5q0 -51 9.5 -92.5
t30.5 -71.5t54.5 -46.5t81.5 -16.5q31 0 59.5 10t55.5 33t53 60.5t53 93.5l256 -103q-26 -57 -64 -115.5t-96 -105t-139 -76t-192 -29.5q-101 0 -190.5 28t-156.5 86t-106 147t-39 211zM328 1565h188l158 -152l211 152h186l-321 -351h-222z" />
    <glyph glyph-name="Dcaron" unicode="&#x10e;" horiz-adv-x="1495" 
d="M25 0l266 1516h387q171 0 310 -38t237.5 -115.5t152.5 -195t54 -276.5q0 -162 -32 -291t-90.5 -228t-141 -169.5t-183.5 -115.5t-217.5 -66t-243.5 -21h-499zM401 270h172q135 0 234 39t163 116t95 191t31 263q0 85 -24 151.5t-75.5 112.5t-133.5 70t-199 24h-91z
M563 1960h189l157 -152l211 152h187l-322 -350h-221z" />
    <glyph glyph-name="dcaron" unicode="&#x10f;" horiz-adv-x="1257" 
d="M14 408q0 180 44 312.5t115 220t161 130.5t182 43q116 0 195.5 -38.5t130.5 -98.5l96 539h328l-219 -1250q-9 -48 -14 -86t-7 -70t-0.5 -58.5t6.5 -51.5h-336q-5 11 -6 30t0 42t3.5 47t6.5 45q-28 -39 -61 -72t-72.5 -57t-87.5 -37.5t-106 -13.5q-70 0 -135 23
t-114.5 73.5t-79.5 131t-30 196.5zM346 434q0 -94 43 -148.5t133 -54.5q60 0 113.5 31.5t93.5 75.5l76 416q-34 37 -81.5 63.5t-115.5 26.5q-46 0 -93 -23.5t-84.5 -73.5t-61 -127.5t-23.5 -185.5zM1333 1423l47 279h297l-41 -238l-168 -256h-131l113 215h-117z" />
    <glyph glyph-name="Dcroat" unicode="&#x110;" horiz-adv-x="1497" 
d="M6 651l41 248h135l109 617h387q171 0 310 -38t237.5 -115.5t152.5 -195t54 -276.5q0 -162 -32 -291t-90.5 -228t-141 -169.5t-183.5 -115.5t-217.5 -66t-243.5 -21h-499l114 651h-133zM403 270h170q135 0 234 39t163 116t95 191t31 263q0 85 -24 151.5t-75.5 112.5
t-133.5 70t-199 24h-91l-59 -338h309l-43 -248h-311z" />
    <glyph glyph-name="dcroat" unicode="&#x111;" horiz-adv-x="1257" 
d="M14 408q0 180 44 312.5t115 220t161 130.5t182 43q116 0 195.5 -38.5t130.5 -98.5l35 197h-177l37 208h176l25 134h328l-25 -134h131l-37 -208h-131l-157 -908q-9 -48 -14 -86t-7 -70t-0.5 -58.5t6.5 -51.5h-336q-5 11 -6 30t0 42t3.5 47t6.5 45q-28 -39 -61 -72
t-72.5 -57t-87.5 -37.5t-106 -13.5q-70 0 -135 23t-114.5 73.5t-79.5 131t-30 196.5zM346 434q0 -94 43 -148.5t133 -54.5q60 0 113.5 31.5t93.5 75.5l76 416q-34 37 -81.5 63.5t-115.5 26.5q-46 0 -93 -23.5t-84.5 -73.5t-61 -127.5t-23.5 -185.5z" />
    <glyph glyph-name="Emacron" unicode="&#x112;" horiz-adv-x="1276" 
d="M25 0l266 1516h1009l-49 -279h-676l-57 -326h483l-45 -264h-485l-68 -377h715l-47 -270h-1046zM451 1591l41 234h673l-41 -234h-673z" />
    <glyph glyph-name="emacron" unicode="&#x113;" horiz-adv-x="1161" 
d="M16 444q0 137 32 239.5t84 177t118 123.5t134 78t133 40.5t114 11.5q122 0 213 -38.5t146 -114.5t72 -189.5t-9 -263.5l-9 -51h-706v-21q0 -68 19 -112.5t50.5 -70.5t72 -36t83.5 -10q51 0 94.5 8t83 24t76 38t74.5 51l141 -189q-83 -72 -214.5 -117t-301.5 -45
q-107 0 -198.5 28t-158.5 86t-105 145.5t-38 207.5zM319 1196l41 234h674l-41 -234h-674zM365 651h419q4 48 -2 90t-25.5 73t-55.5 49t-91 18q-81 0 -146 -59t-99 -171z" />
    <glyph glyph-name="Ebreve" unicode="&#x114;" horiz-adv-x="1276" 
d="M25 0l266 1516h1009l-49 -279h-676l-57 -326h483l-45 -264h-485l-68 -377h715l-47 -270h-1046zM494 1972h176q0 -55 13 -89t35.5 -53t52.5 -25.5t65 -6.5q25 0 54.5 6t57.5 25t52 53t38 90h174q-11 -80 -43 -149t-82.5 -120t-117.5 -80.5t-146 -29.5q-100 0 -165.5 29.5
t-103 81t-51 120.5t-9.5 148z" />
    <glyph glyph-name="ebreve" unicode="&#x115;" horiz-adv-x="1161" 
d="M16 444q0 137 32 239.5t84 177t118 123.5t134 78t133 40.5t114 11.5q122 0 213 -38.5t146 -114.5t72 -189.5t-9 -263.5l-9 -51h-706v-21q0 -68 19 -112.5t50.5 -70.5t72 -36t83.5 -10q51 0 94.5 8t83 24t76 38t74.5 51l141 -189q-83 -72 -214.5 -117t-301.5 -45
q-107 0 -198.5 28t-158.5 86t-105 145.5t-38 207.5zM365 651h419q4 48 -2 90t-25.5 73t-55.5 49t-91 18q-81 0 -146 -59t-99 -171zM367 1575h176q0 -56 13 -90t35.5 -52.5t52.5 -25t65 -6.5q25 0 54.5 6t57.5 24.5t52 53t38 90.5h174q-11 -80 -43 -149t-82.5 -120
t-117.5 -80.5t-146 -29.5q-100 0 -165.5 29.5t-103 81t-51 120.5t-9.5 148z" />
    <glyph glyph-name="Edotaccent" unicode="&#x116;" horiz-adv-x="1276" 
d="M25 0l266 1516h1009l-49 -279h-676l-57 -326h483l-45 -264h-485l-68 -377h715l-47 -270h-1046zM627 1628l47 268h338l-47 -268h-338z" />
    <glyph glyph-name="edotaccent" unicode="&#x117;" horiz-adv-x="1161" 
d="M16 444q0 137 32 239.5t84 177t118 123.5t134 78t133 40.5t114 11.5q122 0 213 -38.5t146 -114.5t72 -189.5t-9 -263.5l-9 -51h-706v-21q0 -68 19 -112.5t50.5 -70.5t72 -36t83.5 -10q51 0 94.5 8t83 24t76 38t74.5 51l141 -189q-83 -72 -214.5 -117t-301.5 -45
q-107 0 -198.5 28t-158.5 86t-105 145.5t-38 207.5zM365 651h419q4 48 -2 90t-25.5 73t-55.5 49t-91 18q-81 0 -146 -59t-99 -171zM496 1233l47 268h338l-47 -268h-338z" />
    <glyph glyph-name="Eogonek" unicode="&#x118;" horiz-adv-x="1276" 
d="M25 0l266 1516h1009l-49 -279h-676l-57 -326h483l-45 -264h-485l-68 -377h715l-47 -270h-133q-68 -46 -106.5 -94.5t-38.5 -93.5q0 -12 4 -23.5t14 -20.5t26.5 -14.5t41.5 -5.5q46 0 91 12t77 27l47 -100q-65 -35 -133.5 -52.5t-155.5 -17.5q-63 0 -108.5 11.5t-74.5 31
t-43 46t-14 56.5q0 37 15 69.5t40.5 62t60 55.5t73.5 51h-729z" />
    <glyph glyph-name="eogonek" unicode="&#x119;" horiz-adv-x="1161" 
d="M16 444q0 137 32 239.5t84 177t118 123.5t134 78t133 40.5t114 11.5q122 0 213 -38.5t146 -114.5t72 -189.5t-9 -263.5l-9 -51h-706v-21q0 -68 19 -112.5t50.5 -70.5t72 -36t83.5 -10q51 0 94.5 8t83 24t76 38t74.5 51l141 -189q-66 -57 -161.5 -97.5t-217.5 -55.5
q-59 -44 -92 -88t-33 -86q0 -25 18.5 -44.5t67.5 -19.5q47 0 90.5 12t77.5 27l47 -100q-65 -35 -133.5 -52.5t-154.5 -17.5q-63 0 -108.5 11.5t-74.5 31t-43 46t-14 56.5q0 33 12 62.5t33 56.5t49.5 51.5t61.5 47.5q-95 7 -176 39t-140 89t-92 141t-33 195zM365 651h419
q4 48 -2 90t-25.5 73t-55.5 49t-91 18q-81 0 -146 -59t-99 -171z" />
    <glyph glyph-name="Ecaron" unicode="&#x11a;" horiz-adv-x="1276" 
d="M25 0l266 1516h1009l-49 -279h-676l-57 -326h483l-45 -264h-485l-68 -377h715l-47 -270h-1046zM479 1960h189l157 -152l211 152h187l-322 -350h-221z" />
    <glyph glyph-name="ecaron" unicode="&#x11b;" horiz-adv-x="1161" 
d="M16 444q0 137 32 239.5t84 177t118 123.5t134 78t133 40.5t114 11.5q122 0 213 -38.5t146 -114.5t72 -189.5t-9 -263.5l-9 -51h-706v-21q0 -68 19 -112.5t50.5 -70.5t72 -36t83.5 -10q51 0 94.5 8t83 24t76 38t74.5 51l141 -189q-83 -72 -214.5 -117t-301.5 -45
q-107 0 -198.5 28t-158.5 86t-105 145.5t-38 207.5zM346 1565h189l157 -152l211 152h187l-322 -351h-221zM365 651h419q4 48 -2 90t-25.5 73t-55.5 49t-91 18q-81 0 -146 -59t-99 -171z" />
    <glyph glyph-name="Gcircumflex" unicode="&#x11c;" horiz-adv-x="1546" 
d="M82 647q5 146 36.5 269t84 223t123.5 175.5t155.5 126.5t180 77t196.5 26q256 0 401 -119.5t181 -371.5l-322 -45q-14 121 -83 190.5t-196 69.5q-88 0 -161.5 -41.5t-128.5 -119t-88.5 -187.5t-40.5 -246q-7 -114 14.5 -196t61.5 -135t94 -78t112 -25q61 0 115.5 19
t99 54t79 85.5t56.5 113.5h-260l43 248h578l-133 -760h-266l36 211h-4q-18 -35 -53 -76.5t-87 -78t-120 -61t-151 -24.5q-151 0 -259 52.5t-176 143.5t-97 214.5t-21 265.5zM561 1610l321 350h222l200 -350h-188l-158 151l-211 -151h-186z" />
    <glyph glyph-name="gcircumflex" unicode="&#x11d;" horiz-adv-x="1239" 
d="M-166 -156q0 51 22 91.5t55 71.5t71.5 51.5t70.5 31.5q-23 20 -36 46.5t-13 58.5q0 22 8 51t29.5 60.5t59.5 63.5t98 60q-63 50 -94 119t-31 147q0 100 39.5 178t109.5 131t166 81t209 28q128 0 215 -35t139 -94q31 26 73 48t85.5 37.5t84.5 25.5t71 12l-45 -252
q-53 0 -103 -6.5t-88 -15.5q5 -22 7.5 -45t2.5 -46q0 -98 -38 -174.5t-105.5 -128.5t-161.5 -79t-205 -27q-58 0 -108.5 7t-93.5 21q-20 -15 -28.5 -28.5t-8.5 -26.5q0 -21 21.5 -34t60.5 -22t92.5 -16t118.5 -16q79 -11 157.5 -27.5t140.5 -48t101 -83t39 -132.5
q0 -101 -49.5 -166.5t-132.5 -103.5t-191.5 -53t-226.5 -15q-158 0 -270 20t-182.5 54.5t-103 81t-32.5 98.5zM145 -104q0 -32 18.5 -57.5t59 -44t105 -28.5t157.5 -10q48 0 91 7t75.5 20t51 32.5t18.5 45.5q0 28 -21 47.5t-57.5 32.5t-85.5 22t-106 17q-60 9 -121 17.5
t-115 22.5q-28 -21 -49 -55t-21 -69zM305 1212l322 351h221l201 -351h-189l-158 152l-210 -152h-187zM383 682q0 -35 9 -65t28.5 -52.5t51.5 -35.5t77 -13q42 0 78 15.5t61.5 45t40 71t14.5 93.5q0 34 -8 64t-26.5 52.5t-49 36t-75.5 13.5q-41 0 -77.5 -16t-64 -45
t-43.5 -71t-16 -93z" />
    <glyph glyph-name="Gbreve" unicode="&#x11e;" horiz-adv-x="1546" 
d="M82 647q5 146 36.5 269t84 223t123.5 175.5t155.5 126.5t180 77t196.5 26q256 0 401 -119.5t181 -371.5l-322 -45q-14 121 -83 190.5t-196 69.5q-88 0 -161.5 -41.5t-128.5 -119t-88.5 -187.5t-40.5 -246q-7 -114 14.5 -196t61.5 -135t94 -78t112 -25q61 0 115.5 19
t99 54t79 85.5t56.5 113.5h-260l43 248h578l-133 -760h-266l36 211h-4q-18 -35 -53 -76.5t-87 -78t-120 -61t-151 -24.5q-151 0 -259 52.5t-176 143.5t-97 214.5t-21 265.5zM592 1970h176q0 -55 13 -89t35.5 -53t52.5 -25.5t65 -6.5q25 0 54.5 6t58 25t52 53t37.5 90h175
q-11 -80 -43.5 -149t-83 -120t-117.5 -80.5t-146 -29.5q-100 0 -165.5 29.5t-103 81t-51 120.5t-9.5 148z" />
    <glyph glyph-name="gbreve" unicode="&#x11f;" horiz-adv-x="1239" 
d="M-166 -156q0 51 22 91.5t55 71.5t71.5 51.5t70.5 31.5q-23 20 -36 46.5t-13 58.5q0 22 8 51t29.5 60.5t59.5 63.5t98 60q-63 50 -94 119t-31 147q0 100 39.5 178t109.5 131t166 81t209 28q128 0 215 -35t139 -94q31 26 73 48t85.5 37.5t84.5 25.5t71 12l-45 -252
q-53 0 -103 -6.5t-88 -15.5q5 -22 7.5 -45t2.5 -46q0 -98 -38 -174.5t-105.5 -128.5t-161.5 -79t-205 -27q-58 0 -108.5 7t-93.5 21q-20 -15 -28.5 -28.5t-8.5 -26.5q0 -21 21.5 -34t60.5 -22t92.5 -16t118.5 -16q79 -11 157.5 -27.5t140.5 -48t101 -83t39 -132.5
q0 -101 -49.5 -166.5t-132.5 -103.5t-191.5 -53t-226.5 -15q-158 0 -270 20t-182.5 54.5t-103 81t-32.5 98.5zM145 -104q0 -32 18.5 -57.5t59 -44t105 -28.5t157.5 -10q48 0 91 7t75.5 20t51 32.5t18.5 45.5q0 28 -21 47.5t-57.5 32.5t-85.5 22t-106 17q-60 9 -121 17.5
t-115 22.5q-28 -21 -49 -55t-21 -69zM348 1575h176q0 -56 13 -90t35.5 -52.5t52.5 -25t65 -6.5q25 0 55 6t58 24.5t52 53t38 90.5h174q-11 -80 -43.5 -149t-83 -120t-117 -80.5t-145.5 -29.5q-100 0 -165.5 29.5t-103 81t-51.5 120.5t-10 148zM383 682q0 -35 9 -65
t28.5 -52.5t51.5 -35.5t77 -13q42 0 78 15.5t61.5 45t40 71t14.5 93.5q0 34 -8 64t-26.5 52.5t-49 36t-75.5 13.5q-41 0 -77.5 -16t-64 -45t-43.5 -71t-16 -93z" />
    <glyph glyph-name="Gdotaccent" unicode="&#x120;" horiz-adv-x="1546" 
d="M82 647q5 146 36.5 269t84 223t123.5 175.5t155.5 126.5t180 77t196.5 26q256 0 401 -119.5t181 -371.5l-322 -45q-14 121 -83 190.5t-196 69.5q-88 0 -161.5 -41.5t-128.5 -119t-88.5 -187.5t-40.5 -246q-7 -114 14.5 -196t61.5 -135t94 -78t112 -25q61 0 115.5 19
t99 54t79 85.5t56.5 113.5h-260l43 248h578l-133 -760h-266l36 211h-4q-18 -35 -53 -76.5t-87 -78t-120 -61t-151 -24.5q-151 0 -259 52.5t-176 143.5t-97 214.5t-21 265.5zM766 1630l47 268h338l-47 -268h-338z" />
    <glyph glyph-name="gdotaccent" unicode="&#x121;" horiz-adv-x="1239" 
d="M-166 -156q0 51 22 91.5t55 71.5t71.5 51.5t70.5 31.5q-23 20 -36 46.5t-13 58.5q0 22 8 51t29.5 60.5t59.5 63.5t98 60q-63 50 -94 119t-31 147q0 100 39.5 178t109.5 131t166 81t209 28q128 0 215 -35t139 -94q31 26 73 48t85.5 37.5t84.5 25.5t71 12l-45 -252
q-53 0 -103 -6.5t-88 -15.5q5 -22 7.5 -45t2.5 -46q0 -98 -38 -174.5t-105.5 -128.5t-161.5 -79t-205 -27q-58 0 -108.5 7t-93.5 21q-20 -15 -28.5 -28.5t-8.5 -26.5q0 -21 21.5 -34t60.5 -22t92.5 -16t118.5 -16q79 -11 157.5 -27.5t140.5 -48t101 -83t39 -132.5
q0 -101 -49.5 -166.5t-132.5 -103.5t-191.5 -53t-226.5 -15q-158 0 -270 20t-182.5 54.5t-103 81t-32.5 98.5zM145 -104q0 -32 18.5 -57.5t59 -44t105 -28.5t157.5 -10q48 0 91 7t75.5 20t51 32.5t18.5 45.5q0 28 -21 47.5t-57.5 32.5t-85.5 22t-106 17q-60 9 -121 17.5
t-115 22.5q-28 -21 -49 -55t-21 -69zM383 682q0 -35 9 -65t28.5 -52.5t51.5 -35.5t77 -13q42 0 78 15.5t61.5 45t40 71t14.5 93.5q0 34 -8 64t-26.5 52.5t-49 36t-75.5 13.5q-41 0 -77.5 -16t-64 -45t-43.5 -71t-16 -93zM492 1233l47 268h338l-48 -268h-337z" />
    <glyph glyph-name="Gcommaaccent" unicode="&#x122;" horiz-adv-x="1546" 
d="M82 647q5 146 36.5 269t84 223t123.5 175.5t155.5 126.5t180 77t196.5 26q256 0 401 -119.5t181 -371.5l-322 -45q-14 121 -83 190.5t-196 69.5q-88 0 -161.5 -41.5t-128.5 -119t-88.5 -187.5t-40.5 -246q-7 -114 14.5 -196t61.5 -135t94 -78t112 -25q61 0 115.5 19
t99 54t79 85.5t56.5 113.5h-260l43 248h578l-133 -760h-266l36 211h-4q-18 -35 -53 -76.5t-87 -78t-120 -61t-151 -24.5q-151 0 -259 52.5t-176 143.5t-97 214.5t-21 265.5zM414 -377l51 289h309l-43 -248l-176 -266h-137l118 225h-122z" />
    <glyph glyph-name="gcommaaccent" unicode="&#x123;" horiz-adv-x="1239" 
d="M-166 -156q0 51 22 91.5t55 71.5t71.5 51.5t70.5 31.5q-23 20 -36 46.5t-13 58.5q0 22 8 51t29.5 60.5t59.5 63.5t98 60q-63 50 -94 119t-31 147q0 100 39.5 178t109.5 131t166 81t209 28q128 0 215 -35t139 -94q31 26 73 48t85.5 37.5t84.5 25.5t71 12l-45 -252
q-53 0 -103 -6.5t-88 -15.5q5 -22 7.5 -45t2.5 -46q0 -98 -38 -174.5t-105.5 -128.5t-161.5 -79t-205 -27q-58 0 -108.5 7t-93.5 21q-20 -15 -28.5 -28.5t-8.5 -26.5q0 -21 21.5 -34t60.5 -22t92.5 -16t118.5 -16q79 -11 157.5 -27.5t140.5 -48t101 -83t39 -132.5
q0 -101 -49.5 -166.5t-132.5 -103.5t-191.5 -53t-226.5 -15q-158 0 -270 20t-182.5 54.5t-103 81t-32.5 98.5zM145 -104q0 -32 18.5 -57.5t59 -44t105 -28.5t157.5 -10q48 0 91 7t75.5 20t51 32.5t18.5 45.5q0 28 -21 47.5t-57.5 32.5t-85.5 22t-106 17q-60 9 -121 17.5
t-115 22.5q-28 -21 -49 -55t-21 -69zM383 682q0 -35 9 -65t28.5 -52.5t51.5 -35.5t77 -13q42 0 78 15.5t61.5 45t40 71t14.5 93.5q0 34 -8 64t-26.5 52.5t-49 36t-75.5 13.5q-41 0 -77.5 -16t-64 -45t-43.5 -71t-16 -93zM489 1198l46 248l174 266h137l-117 -223h121
l-51 -291h-310z" />
    <glyph glyph-name="Hcircumflex" unicode="&#x124;" horiz-adv-x="1554" 
d="M25 0l266 1516h332l-103 -588h576l102 588h334l-266 -1516h-334l115 649h-576l-115 -649h-331zM557 1610l322 350h221l200 -350h-188l-158 151l-211 -151h-186z" />
    <glyph glyph-name="hcircumflex" unicode="&#x125;" horiz-adv-x="1245" 
d="M-4 0l266 1516h328l-105 -596q24 30 60 64t83.5 63t104.5 48t123 19q77 0 135.5 -21.5t95.5 -64t50 -106.5t-2 -148l-136 -774h-329l121 690q14 74 -13.5 114t-99.5 40q-29 0 -59 -9t-59 -24.5t-56.5 -35.5t-50.5 -42l-129 -733h-328zM66 1612l321 350h221l201 -350h-188
l-158 151l-211 -151h-186z" />
    <glyph glyph-name="Hbar" unicode="&#x126;" horiz-adv-x="1554" 
d="M25 0l188 1071h-135l45 248h133l35 197h334l-35 -197h575l35 197h332l-35 -197h135l-43 -248h-135l-188 -1071h-332l108 618h-575l-109 -618h-333zM516 897h576l30 174h-575z" />
    <glyph glyph-name="hbar" unicode="&#x127;" horiz-adv-x="1245" 
d="M-6 0l205 1174h-127l37 208h127l24 134h330l-25 -134h176l-36 -208h-177l-43 -254q23 30 59 64t83 63t104.5 48t124.5 19q77 0 135.5 -21.5t95.5 -64t50 -106.5t-2 -148l-138 -774h-327l121 690q14 74 -13.5 114t-99.5 40q-29 0 -59 -9t-59 -24.5t-56.5 -35.5t-50.5 -42
l-129 -733h-330z" />
    <glyph glyph-name="Itilde" unicode="&#x128;" horiz-adv-x="676" 
d="M39 0l266 1516h334l-266 -1516h-334zM90 1589q9 87 33.5 149t61 101t83.5 57.5t103 18.5q55 0 95 -18t72 -39.5t59.5 -39.5t59.5 -18q42 0 68 25.5t37 85.5h180q-10 -87 -34.5 -149t-61.5 -101t-84.5 -57.5t-102.5 -18.5t-95 18t-72 39.5t-60.5 39.5t-60.5 18
q-41 0 -67 -25.5t-36 -85.5h-178z" />
    <glyph glyph-name="itilde" unicode="&#x129;" horiz-adv-x="602" 
d="M-16 1192q9 87 33 148.5t60.5 101t84 58t102.5 18.5t95 -18t72.5 -39.5t60 -39.5t59.5 -18q42 0 67.5 25t36.5 85h181q-10 -87 -35 -148.5t-61.5 -100.5t-84 -57.5t-102.5 -18.5t-95 18t-72.5 39.5t-61 39.5t-60.5 18q-40 0 -66.5 -25.5t-35.5 -85.5h-178zM6 0l193 1092
h329l-194 -1092h-328z" />
    <glyph glyph-name="Imacron" unicode="&#x12a;" horiz-adv-x="676" 
d="M39 0l266 1516h334l-266 -1516h-334zM147 1591l41 234h674l-41 -234h-674z" />
    <glyph glyph-name="imacron" unicode="&#x12b;" horiz-adv-x="602" 
d="M6 0l193 1092h329l-194 -1092h-328zM43 1196l41 234h674l-41 -234h-674z" />
    <glyph glyph-name="Ibreve" unicode="&#x12c;" horiz-adv-x="676" 
d="M39 0l266 1516h334l-266 -1516h-334zM195 1972h176q0 -55 13 -89t35.5 -53t52.5 -25.5t65 -6.5q25 0 54.5 6t57.5 25t52 53t38 90h174q-11 -80 -43 -149t-82.5 -120t-117.5 -80.5t-146 -29.5q-100 0 -165.5 29.5t-103 81t-51 120.5t-9.5 148z" />
    <glyph glyph-name="ibreve" unicode="&#x12d;" horiz-adv-x="602" 
d="M6 0l193 1092h329l-194 -1092h-328zM90 1575h176q0 -56 13 -90t35.5 -52.5t52.5 -25t65 -6.5q25 0 55 6t58 24.5t52 53t38 90.5h174q-11 -80 -43.5 -149t-83 -120t-117 -80.5t-145.5 -29.5q-100 0 -165.5 29.5t-103 81t-51.5 120.5t-10 148z" />
    <glyph glyph-name="Iogonek" unicode="&#x12e;" horiz-adv-x="676" 
d="M-166 -238q0 39 16.5 73t44.5 65t66 58.5t80 51.5l264 1506h334l-266 -1516h-166q-68 -46 -107 -94.5t-39 -93.5q0 -25 18.5 -44.5t67.5 -19.5q47 0 90.5 12t77.5 27l47 -100q-65 -35 -133.5 -52.5t-154.5 -17.5q-63 0 -108.5 11.5t-74.5 31t-43 46t-14 56.5z" />
    <glyph glyph-name="iogonek" unicode="&#x12f;" horiz-adv-x="602" 
d="M-207 -238q0 39 17 74t46.5 66t68 59t81.5 53l193 1078h327l-192 -1092h-168q-68 -46 -107 -94.5t-39 -93.5q0 -25 19 -44.5t70 -19.5q46 0 89.5 12t77.5 27l48 -100q-66 -35 -134.5 -52.5t-154.5 -17.5q-64 0 -109.5 11.5t-75 31t-43.5 46t-14 56.5zM223 1241l45 264
h330l-45 -264h-330z" />
    <glyph glyph-name="Idotaccent" unicode="&#x130;" horiz-adv-x="676" 
d="M39 0l266 1516h334l-266 -1516h-334zM324 1628l47 268h338l-47 -268h-338z" />
    <glyph glyph-name="dotlessi" unicode="&#x131;" horiz-adv-x="602" 
d="M6 0l193 1092h329l-194 -1092h-328z" />
    <glyph glyph-name="IJ" unicode="&#x132;" horiz-adv-x="1686" 
d="M39 0l266 1516h334l-266 -1516h-334zM508 143l176 211q28 -27 61.5 -48.5t68.5 -36.5t71 -23t71 -8q42 0 77.5 11t63.5 38t48.5 72.5t32.5 115.5l182 1041h332l-193 -1100q-18 -106 -56 -189t-99.5 -140t-148.5 -86.5t-204 -29.5q-159 0 -277 45.5t-206 126.5z" />
    <glyph glyph-name="ij" unicode="&#x133;" horiz-adv-x="1204" 
d="M4 0l195 1092h327l-192 -1092h-330zM223 1241l45 264h330l-45 -264h-330zM328 -401l39 221q20 -3 50.5 -6.5t59.5 -3.5q28 0 47.5 5.5t33.5 20.5t23 41t17 66l203 1149h329l-217 -1231q-11 -57 -32 -108t-60 -89.5t-98 -61t-145 -22.5q-79 0 -144.5 5.5t-105.5 13.5z
M825 1241l47 264h330l-45 -264h-332z" />
    <glyph glyph-name="Jcircumflex" unicode="&#x134;" horiz-adv-x="1092" 
d="M-86 143l176 211q28 -27 61.5 -48.5t68.5 -36.5t71 -23t71 -8q42 0 77.5 11t63.5 38t48.5 72.5t32.5 115.5l182 1041h332l-193 -1100q-18 -106 -56 -189t-99.5 -140t-148.5 -86.5t-204 -29.5q-159 0 -277 45.5t-206 126.5zM569 1610l322 350h221l201 -350h-189l-157 151
l-211 -151h-187z" />
    <glyph glyph-name="jcircumflex" unicode="&#x135;" horiz-adv-x="602" 
d="M-274 -401l38 221q19 -3 49.5 -6.5t61.5 -3.5q28 0 47.5 5.5t33 20.5t22.5 41t16 66l205 1149h329l-217 -1231q-11 -57 -32 -108t-60 -89.5t-98.5 -61t-145.5 -22.5q-78 0 -143.5 5.5t-105.5 13.5zM12 1212l322 351h221l201 -351h-189l-157 152l-211 -152h-187z" />
    <glyph glyph-name="Kcommaaccent" unicode="&#x136;" horiz-adv-x="1450" 
d="M27 0l266 1516h332l-109 -615l629 615h354l-604 -592l393 -924h-354l-299 698l-186 -182l-91 -516h-331zM373 -377l51 289h309l-43 -248l-176 -266h-137l119 225h-123z" />
    <glyph glyph-name="kcommaaccent" unicode="&#x137;" horiz-adv-x="1178" 
d="M-4 0l266 1516h328l-146 -820l406 396h340l-426 -410l254 -682h-330l-174 467l-131 -123l-59 -344h-328zM238 -377l51 289h309l-43 -248l-176 -266h-137l118 225h-122z" />
    <glyph glyph-name="kgreenlandic" unicode="&#x138;" horiz-adv-x="1178" 
d="M-6 0l192 1092h330l-70 -387l404 387h340l-428 -410l256 -682h-330l-176 467l-127 -119l-61 -348h-330z" />
    <glyph glyph-name="Lacute" unicode="&#x139;" horiz-adv-x="1180" 
d="M25 0l266 1516h332l-220 -1246h648l-47 -270h-979zM371 1604l247 354h332l-362 -354h-217z" />
    <glyph glyph-name="lacute" unicode="&#x13a;" horiz-adv-x="602" 
d="M4 0l266 1516h330l-266 -1516h-330zM330 1604l248 354h331l-362 -354h-217z" />
    <glyph glyph-name="Lcommaaccent" unicode="&#x13b;" horiz-adv-x="1180" 
d="M25 0l266 1516h332l-220 -1246h648l-47 -270h-979zM248 -377l51 289h309l-43 -248l-176 -266h-137l119 225h-123z" />
    <glyph glyph-name="lcommaaccent" unicode="&#x13c;" horiz-adv-x="602" 
d="M-51 -377l51 289h309l-43 -248l-176 -266h-137l119 225h-123zM4 0l266 1516h330l-266 -1516h-330z" />
    <glyph glyph-name="Lcaron" unicode="&#x13d;" horiz-adv-x="1180" 
d="M25 0l266 1516h332l-220 -1246h648l-47 -270h-979zM719 1227l51 289h309l-45 -248l-174 -267h-137l117 226h-121z" />
    <glyph glyph-name="lcaron" unicode="&#x13e;" horiz-adv-x="602" 
d="M4 0l266 1516h330l-266 -1516h-330zM659 1423l50 279h297l-43 -238l-168 -256h-131l112 215h-117z" />
    <glyph glyph-name="Ldot" unicode="&#x13f;" horiz-adv-x="1257" 
d="M25 0l266 1516h332l-220 -1246h648l-47 -270h-979zM782 711l47 268h308l-47 -268h-308z" />
    <glyph glyph-name="ldot" unicode="&#x140;" horiz-adv-x="899" 
d="M4 0l266 1516h330l-266 -1516h-330zM557 557l49 270h307l-49 -270h-307z" />
    <glyph glyph-name="Lslash" unicode="&#x141;" horiz-adv-x="1180" 
d="M-31 614l41 248l174 43l107 611h332l-93 -521l308 78l-43 -248l-308 -80l-84 -475h648l-47 -270h-979l114 657z" />
    <glyph glyph-name="lslash" unicode="&#x142;" horiz-adv-x="692" 
d="M49 766l43 240l146 38l81 472h328l-65 -383l141 36l-43 -239l-141 -37l-158 -893h-328l142 805z" />
    <glyph glyph-name="Nacute" unicode="&#x143;" horiz-adv-x="1571" 
d="M27 0l266 1516h332l444 -969h4l170 969h307l-266 -1516h-307l-469 979h-4l-172 -979h-305zM733 1604l248 354h332l-363 -354h-217z" />
    <glyph glyph-name="nacute" unicode="&#x144;" horiz-adv-x="1245" 
d="M-4 0l192 1092h330l-33 -172q24 30 60 64t83.5 63t104.5 48t123 19q77 0 135.5 -21.5t95.5 -64t50 -106.5t-2 -148l-136 -774h-329l121 690q14 74 -13.5 114t-99.5 40q-29 0 -59 -9t-59 -24.5t-56.5 -35.5t-50.5 -42l-129 -733h-328zM500 1208l248 355h331l-362 -355
h-217z" />
    <glyph glyph-name="Ncommaaccent" unicode="&#x145;" horiz-adv-x="1571" 
d="M27 0l266 1516h332l444 -969h4l170 969h307l-266 -1516h-307l-469 979h-4l-172 -979h-305zM432 -377l51 289h310l-43 -248l-177 -266h-137l119 225h-123z" />
    <glyph glyph-name="ncommaaccent" unicode="&#x146;" horiz-adv-x="1245" 
d="M-4 0l192 1092h330l-33 -172q24 30 60 64t83.5 63t104.5 48t123 19q77 0 135.5 -21.5t95.5 -64t50 -106.5t-2 -148l-136 -774h-329l121 690q14 74 -13.5 114t-99.5 40q-29 0 -59 -9t-59 -24.5t-56.5 -35.5t-50.5 -42l-129 -733h-328zM270 -377l52 289h309l-43 -248
l-176 -266h-138l119 225h-123z" />
    <glyph glyph-name="Ncaron" unicode="&#x147;" horiz-adv-x="1571" 
d="M27 0l266 1516h332l444 -969h4l170 969h307l-266 -1516h-307l-469 979h-4l-172 -979h-305zM621 1960h188l158 -152l211 152h186l-322 -350h-221z" />
    <glyph glyph-name="ncaron" unicode="&#x148;" horiz-adv-x="1245" 
d="M-4 0l192 1092h330l-33 -172q24 30 60 64t83.5 63t104.5 48t123 19q77 0 135.5 -21.5t95.5 -64t50 -106.5t-2 -148l-136 -774h-329l121 690q14 74 -13.5 114t-99.5 40q-29 0 -59 -9t-59 -24.5t-56.5 -35.5t-50.5 -42l-129 -733h-328zM389 1565h189l157 -152l211 152h187
l-322 -351h-221z" />
    <glyph glyph-name="napostrophe" unicode="&#x149;" horiz-adv-x="1772" 
d="M184 954l131 244h-114l55 318h336l-49 -289l-207 -273h-152zM522 0l192 1092h330l-33 -172q24 30 60 64t83.5 63t104.5 48t123 19q77 0 135.5 -21.5t95.5 -64t50 -106.5q6 -30 6 -64q0 -39 -8 -84l-136 -774h-329l121 690q5 25 5 46q0 41 -18 68q-28 40 -100 40
q-29 0 -59 -9t-59 -24.5t-56.5 -35.5t-50.5 -42l-129 -733h-328z" />
    <glyph glyph-name="Eng" unicode="&#x14a;" horiz-adv-x="1569" 
d="M25 0l266 1516h332l446 -969h2l172 969h305l-268 -1516q-18 -101 -54 -179t-93.5 -131.5t-139 -81.5t-190.5 -28q-159 0 -277.5 46.5t-206.5 127.5l170 217q29 -27 63.5 -50t71 -39.5t73 -26t71.5 -9.5t66 8t57 27t46 50.5t34 78.5l-463 969h-4l-172 -979h-307z" />
    <glyph glyph-name="eng" unicode="&#x14b;" horiz-adv-x="1245" 
d="M-6 0l194 1092h328l-31 -172q23 30 59 64t83 63t104.5 48t124.5 19q77 0 135.5 -21.5t95.5 -64t50 -106.5t-2 -148l-160 -913q-10 -57 -31.5 -108t-60.5 -89.5t-98.5 -61t-145.5 -22.5q-77 0 -143.5 5.5t-106.5 13.5l39 221q20 -3 51 -6.5t60 -3.5q27 0 46.5 5.5
t33.5 20.5t23 41t17 66l132 747q14 74 -13.5 114t-99.5 40q-29 0 -59 -9t-59 -24.5t-56.5 -35.5t-50.5 -42l-129 -733h-330z" />
    <glyph glyph-name="Omacron" unicode="&#x14c;" horiz-adv-x="1577" 
d="M68 623q0 153 32.5 280.5t89.5 230t135 179.5t169.5 128.5t192.5 77t204 25.5q131 0 244 -43.5t196 -127t130.5 -205t47.5 -277.5q0 -152 -31.5 -279.5t-86.5 -229.5t-131 -179t-165.5 -128.5t-188.5 -77.5t-201 -26q-138 0 -254.5 43.5t-201.5 127t-133 205t-48 276.5z
M401 631q0 -88 20.5 -160t60.5 -123.5t99.5 -79.5t137.5 -28q88 0 170 42t145.5 124t101.5 202.5t38 278.5q0 86 -19.5 156t-59 120t-98.5 77.5t-137 27.5q-88 0 -171 -40t-147 -120t-102.5 -199.5t-38.5 -277.5zM596 1591l41 234h674l-41 -234h-674z" />
    <glyph glyph-name="omacron" unicode="&#x14d;" horiz-adv-x="1227" 
d="M16 453q0 123 26.5 220t72 170.5t106.5 125t130 84t143 47t145 14.5q96 0 186 -27.5t159 -85.5t111 -147t42 -213q0 -122 -26 -219t-71 -170.5t-106 -125.5t-130 -85.5t-143.5 -48.5t-146.5 -15q-95 0 -185 28.5t-159.5 87t-111.5 148.5t-42 212zM348 444q0 -49 10 -92
t32.5 -74.5t59 -50t89.5 -18.5q54 0 103 29.5t85.5 85t58 134.5t21.5 179q0 50 -10 93t-33 75t-60 50.5t-90 18.5q-55 0 -103.5 -29.5t-84.5 -85t-57 -135.5t-21 -180zM352 1196l41 234h674l-41 -234h-674z" />
    <glyph glyph-name="Obreve" unicode="&#x14e;" horiz-adv-x="1577" 
d="M68 623q0 153 32.5 280.5t89.5 230t135 179.5t169.5 128.5t192.5 77t204 25.5q131 0 244 -43.5t196 -127t130.5 -205t47.5 -277.5q0 -152 -31.5 -279.5t-86.5 -229.5t-131 -179t-165.5 -128.5t-188.5 -77.5t-201 -26q-138 0 -254.5 43.5t-201.5 127t-133 205t-48 276.5z
M401 631q0 -88 20.5 -160t60.5 -123.5t99.5 -79.5t137.5 -28q88 0 170 42t145.5 124t101.5 202.5t38 278.5q0 86 -19.5 156t-59 120t-98.5 77.5t-137 27.5q-88 0 -171 -40t-147 -120t-102.5 -199.5t-38.5 -277.5zM643 1972h176q0 -55 13 -89t35.5 -53t52.5 -25.5t65 -6.5
q25 0 55 6t58 25t52 53t38 90h174q-11 -80 -43.5 -149t-83 -120t-117 -80.5t-145.5 -29.5q-100 0 -165.5 29.5t-103 81t-51.5 120.5t-10 148z" />
    <glyph glyph-name="obreve" unicode="&#x14f;" horiz-adv-x="1227" 
d="M16 453q0 123 26.5 220t72 170.5t106.5 125t130 84t143 47t145 14.5q96 0 186 -27.5t159 -85.5t111 -147t42 -213q0 -122 -26 -219t-71 -170.5t-106 -125.5t-130 -85.5t-143.5 -48.5t-146.5 -15q-95 0 -185 28.5t-159.5 87t-111.5 148.5t-42 212zM348 444q0 -49 10 -92
t32.5 -74.5t59 -50t89.5 -18.5q54 0 103 29.5t85.5 85t58 134.5t21.5 179q0 50 -10 93t-33 75t-60 50.5t-90 18.5q-55 0 -103.5 -29.5t-84.5 -85t-57 -135.5t-21 -180zM399 1575h176q0 -56 13 -90t35.5 -52.5t52.5 -25t65 -6.5q25 0 55 6t58 24.5t52 53t38 90.5h174
q-11 -80 -43 -149t-82.5 -120t-117.5 -80.5t-146 -29.5q-100 0 -165.5 29.5t-103 81t-51.5 120.5t-10 148z" />
    <glyph glyph-name="Ohungarumlaut" unicode="&#x150;" horiz-adv-x="1577" 
d="M68 623q0 153 32.5 280.5t89.5 230t135 179.5t169.5 128.5t192.5 77t204 25.5q131 0 244 -43.5t196 -127t130.5 -205t47.5 -277.5q0 -152 -31.5 -279.5t-86.5 -229.5t-131 -179t-165.5 -128.5t-188.5 -77.5t-201 -26q-138 0 -254.5 43.5t-201.5 127t-133 205t-48 276.5z
M401 631q0 -88 20.5 -160t60.5 -123.5t99.5 -79.5t137.5 -28q88 0 170 42t145.5 124t101.5 202.5t38 278.5q0 86 -19.5 156t-59 120t-98.5 77.5t-137 27.5q-88 0 -171 -40t-147 -120t-102.5 -199.5t-38.5 -277.5zM541 1604l272 354h330l-383 -354h-219zM934 1604l287 354
h329l-399 -354h-217z" />
    <glyph glyph-name="ohungarumlaut" unicode="&#x151;" horiz-adv-x="1227" 
d="M16 453q0 123 26.5 220t72 170.5t106.5 125t130 84t143 47t145 14.5q96 0 186 -27.5t159 -85.5t111 -147t42 -213q0 -122 -26 -219t-71 -170.5t-106 -125.5t-130 -85.5t-143.5 -48.5t-146.5 -15q-95 0 -185 28.5t-159.5 87t-111.5 148.5t-42 212zM317 1208l273 355h330
l-383 -355h-220zM348 444q0 -49 10 -92t32.5 -74.5t59 -50t89.5 -18.5q54 0 103 29.5t85.5 85t58 134.5t21.5 179q0 50 -10 93t-33 75t-60 50.5t-90 18.5q-55 0 -103.5 -29.5t-84.5 -85t-57 -135.5t-21 -180zM711 1208l286 355h330l-399 -355h-217z" />
    <glyph glyph-name="OE" unicode="&#x152;" horiz-adv-x="2263" 
d="M68 623q0 153 32 280.5t88.5 230t133 179.5t165.5 128.5t185.5 77t193.5 25.5q77 0 139.5 -14t113 -40t90 -62.5t69.5 -81.5l31 170h977l-50 -279h-675l-58 -326h484l-45 -264h-484l-67 -377h712l-47 -270h-1005l28 150q-150 -179 -430 -179q-117 0 -222 43.5t-185 127
t-127 205t-47 276.5zM401 631q0 -88 20.5 -160t60.5 -123.5t99.5 -79.5t137.5 -28q87 0 169 42t145.5 124t102 202.5t38.5 278.5q0 86 -19.5 156t-59 120t-98.5 77.5t-137 27.5q-88 0 -171 -40t-147 -120t-102.5 -199.5t-38.5 -277.5z" />
    <glyph glyph-name="oe" unicode="&#x153;" horiz-adv-x="1917" 
d="M16 453q0 123 26.5 220t72 170.5t106.5 125t130 84t143 47t145 14.5q111 0 204 -41.5t156 -122.5q47 44 99 75t103 51t99 29t86 9q123 0 214.5 -38.5t147 -114.5t72 -189.5t-9.5 -263.5l-8 -51h-706v-21q0 -68 19 -112.5t50.5 -70.5t72 -36t83.5 -10q51 0 95 10.5t83 28
t72.5 41.5t62.5 51l131 -186q-83 -79 -202.5 -127t-288.5 -48q-121 0 -215.5 39t-157.5 113q-80 -77 -181 -114.5t-206 -37.5q-95 0 -185 28.5t-159.5 87t-111.5 148.5t-42 212zM348 444q0 -49 10 -92t32.5 -74.5t59 -50t89.5 -18.5q54 0 103 29.5t85.5 85t58 134.5
t21.5 179q0 50 -10 93t-33 75t-60 50.5t-90 18.5q-55 0 -103.5 -29.5t-84.5 -85t-57 -135.5t-21 -180zM1122 651h420q4 48 -2 90t-25.5 73t-55.5 49t-91 18q-81 0 -146.5 -59t-99.5 -171z" />
    <glyph glyph-name="Racute" unicode="&#x154;" horiz-adv-x="1423" 
d="M27 0l266 1516h475q292 0 444 -102t152 -306q0 -126 -35.5 -214.5t-92.5 -147t-128.5 -90.5t-142.5 -44l227 -612h-332l-213 573h-194l-101 -573h-325zM498 829h252q59 0 110.5 9.5t89.5 35.5t60 72.5t22 120.5q0 88 -66 132t-210 44h-185zM659 1604l248 354h332
l-362 -354h-218z" />
    <glyph glyph-name="racute" unicode="&#x155;" horiz-adv-x="862" 
d="M-4 0l192 1092h330l-35 -183h4q26 33 63.5 69t86.5 66.5t111 50t137 19.5h6l-51 -293q-8 1 -19 2t-23 2t-23.5 1.5t-18.5 0.5q-46 0 -90 -12t-84.5 -32.5t-76 -47.5t-63.5 -57l-118 -678h-328zM311 1208l248 355h332l-363 -355h-217z" />
    <glyph glyph-name="Rcommaaccent" unicode="&#x156;" horiz-adv-x="1423" 
d="M27 0l266 1516h475q292 0 444 -102t152 -306q0 -126 -35.5 -214.5t-92.5 -147t-128.5 -90.5t-142.5 -44l227 -612h-332l-213 573h-194l-101 -573h-325zM358 -377l52 289h309l-43 -248l-176 -266h-138l119 225h-123zM498 829h252q59 0 110.5 9.5t89.5 35.5t60 72.5
t22 120.5q0 88 -66 132t-210 44h-185z" />
    <glyph glyph-name="rcommaaccent" unicode="&#x157;" horiz-adv-x="862" 
d="M-57 -377l51 289h309l-43 -248l-176 -266h-137l119 225h-123zM-4 0l192 1092h330l-35 -183h4q26 33 63.5 69t86.5 66.5t111 50t137 19.5h6l-51 -293q-8 1 -19 2t-23 2t-23.5 1.5t-18.5 0.5q-46 0 -90 -12t-84.5 -32.5t-76 -47.5t-63.5 -57l-118 -678h-328z" />
    <glyph glyph-name="Rcaron" unicode="&#x158;" horiz-adv-x="1423" 
d="M27 0l266 1516h475q292 0 444 -102t152 -306q0 -126 -35.5 -214.5t-92.5 -147t-128.5 -90.5t-142.5 -44l227 -612h-332l-213 573h-194l-101 -573h-325zM498 829h252q59 0 110.5 9.5t89.5 35.5t60 72.5t22 120.5q0 88 -66 132t-210 44h-185zM547 1960h188l158 -152
l211 152h186l-321 -350h-221z" />
    <glyph glyph-name="rcaron" unicode="&#x159;" horiz-adv-x="862" 
d="M-4 0l192 1092h330l-35 -183h4q26 33 63.5 69t86.5 66.5t111 50t137 19.5h6l-51 -293q-8 1 -19 2t-23 2t-23.5 1.5t-18.5 0.5q-46 0 -90 -12t-84.5 -32.5t-76 -47.5t-63.5 -57l-118 -678h-328zM199 1565h188l158 -152l211 152h186l-321 -351h-222z" />
    <glyph glyph-name="Sacute" unicode="&#x15a;" horiz-adv-x="1397" 
d="M-14 383l293 96q42 -121 135.5 -182t249.5 -61q45 0 91 8.5t83 29.5t60.5 56.5t23.5 89.5q0 50 -32 85.5t-84.5 63t-119 50.5t-136.5 49t-136.5 58t-119 77.5t-84.5 107.5t-32 148t23.5 155.5t63.5 123.5t95 93.5t118 65t131 37.5t136 12q89 0 161 -12t130.5 -32.5
t104 -49.5t82.5 -62.5t66 -71.5t54 -77l-264 -166q-22 33 -51 68t-70.5 64.5t-96.5 48t-130 18.5q-102 0 -161.5 -43.5t-59.5 -126.5q0 -48 32 -82.5t84.5 -62t119.5 -51t136.5 -49.5t136.5 -57.5t119.5 -76t84.5 -104.5t32 -142q0 -120 -44 -214.5t-125 -160t-195 -100.5
t-254 -35q-128 0 -231.5 23.5t-184 73.5t-139 128.5t-96.5 188.5zM645 1604l248 354h332l-363 -354h-217z" />
    <glyph glyph-name="sacute" unicode="&#x15b;" horiz-adv-x="1073" 
d="M-63 158l167 174q31 -30 70.5 -56.5t86 -46t99.5 -30.5t111 -11q31 0 60.5 5.5t52 18.5t36 34t13.5 53t-23 53.5t-61.5 38t-87 31t-99 31.5t-99 39.5t-87 55.5t-61.5 79.5t-23 111.5q0 100 38 171t99 116.5t137 66.5t152 21q92 0 165 -11.5t132 -31.5t106 -48t87 -62
l-154 -185q-65 54 -144.5 85.5t-168.5 31.5q-57 0 -94 -24t-37 -76q0 -32 23.5 -54t61.5 -39t86.5 -31t99.5 -31t99.5 -38.5t86.5 -53t61.5 -75.5t23.5 -106q0 -79 -22 -139t-59.5 -103t-87 -71t-103.5 -45t-109 -23.5t-104 -6.5q-105 0 -187.5 14t-147 38.5t-112.5 57.5
t-83 71zM414 1208l248 355h331l-362 -355h-217z" />
    <glyph glyph-name="Scircumflex" unicode="&#x15c;" horiz-adv-x="1397" 
d="M-14 383l293 96q42 -121 135.5 -182t249.5 -61q45 0 91 8.5t83 29.5t60.5 56.5t23.5 89.5q0 50 -32 85.5t-84.5 63t-119 50.5t-136.5 49t-136.5 58t-119 77.5t-84.5 107.5t-32 148t23.5 155.5t63.5 123.5t95 93.5t118 65t131 37.5t136 12q89 0 161 -12t130.5 -32.5
t104 -49.5t82.5 -62.5t66 -71.5t54 -77l-264 -166q-22 33 -51 68t-70.5 64.5t-96.5 48t-130 18.5q-102 0 -161.5 -43.5t-59.5 -126.5q0 -48 32 -82.5t84.5 -62t119.5 -51t136.5 -49.5t136.5 -57.5t119.5 -76t84.5 -104.5t32 -142q0 -120 -44 -214.5t-125 -160t-195 -100.5
t-254 -35q-128 0 -231.5 23.5t-184 73.5t-139 128.5t-96.5 188.5zM473 1610l322 350h221l201 -350h-189l-158 151l-211 -151h-186z" />
    <glyph glyph-name="scircumflex" unicode="&#x15d;" horiz-adv-x="1073" 
d="M-63 158l167 174q31 -30 70.5 -56.5t86 -46t99.5 -30.5t111 -11q31 0 60.5 5.5t52 18.5t36 34t13.5 53t-23 53.5t-61.5 38t-87 31t-99 31.5t-99 39.5t-87 55.5t-61.5 79.5t-23 111.5q0 100 38 171t99 116.5t137 66.5t152 21q92 0 165 -11.5t132 -31.5t106 -48t87 -62
l-154 -185q-65 54 -144.5 85.5t-168.5 31.5q-57 0 -94 -24t-37 -76q0 -32 23.5 -54t61.5 -39t86.5 -31t99.5 -31t99.5 -38.5t86.5 -53t61.5 -75.5t23.5 -106q0 -79 -22 -139t-59.5 -103t-87 -71t-103.5 -45t-109 -23.5t-104 -6.5q-105 0 -187.5 14t-147 38.5t-112.5 57.5
t-83 71zM227 1212l322 351h221l201 -351h-189l-157 152l-211 -152h-187z" />
    <glyph glyph-name="Scedilla" unicode="&#x15e;" horiz-adv-x="1397" 
d="M-14 383l293 96q42 -121 135.5 -182t249.5 -61q45 0 91 8.5t83 29.5t60.5 56.5t23.5 89.5q0 50 -32 85.5t-84.5 63t-119 50.5t-136.5 49t-136.5 58t-119 77.5t-84.5 107.5t-32 148t23.5 155.5t63.5 123.5t95 93.5t118 65t131 37.5t136 12q89 0 161 -12t130.5 -32.5
t104 -49.5t82.5 -62.5t66 -71.5t54 -77l-264 -166q-22 33 -51 68t-70.5 64.5t-96.5 48t-130 18.5q-102 0 -161.5 -43.5t-59.5 -126.5q0 -48 32 -82.5t84.5 -62t119.5 -51t136.5 -49.5t136.5 -57.5t119.5 -76t84.5 -104.5t32 -142q0 -120 -44 -214.5t-125 -160t-195 -100.5
t-254 -35h-27l-28 -67q21 14 51 22t67 8q62 0 101 -35.5t39 -95.5q0 -59 -26.5 -100t-68 -66.5t-92 -37t-98.5 -11.5q-59 0 -106 5.5t-84 15t-65.5 23.5t-51.5 32l74 98q82 -61 194 -61q48 0 78.5 17t30.5 59q0 23 -16.5 36t-41.5 13q-23 0 -44 -8t-44 -27l-76 41l74 150
q-186 25 -307 122.5t-184 280.5z" />
    <glyph glyph-name="scedilla" unicode="&#x15f;" horiz-adv-x="1073" 
d="M-63 158l167 174q31 -30 70.5 -56.5t86 -46t99.5 -30.5t111 -11q31 0 60.5 5.5t52 18.5t36 34t13.5 53t-23 53.5t-61.5 38t-87 31t-99 31.5t-99 39.5t-87 55.5t-61.5 79.5t-23 111.5q0 100 38 171t99 116.5t137 66.5t152 21q92 0 165 -11.5t132 -31.5t106 -48t87 -62
l-154 -185q-65 54 -144.5 85.5t-168.5 31.5q-57 0 -94 -24t-37 -76q0 -32 23.5 -54t61.5 -39t86.5 -31t99.5 -31t99.5 -38.5t86.5 -53t61.5 -75.5t23.5 -106q0 -79 -22 -139t-59.5 -103t-87 -71t-103.5 -45t-109 -23.5t-104 -6.5h-16l-31 -75q22 14 51.5 22t67.5 8
q62 0 100.5 -35.5t38.5 -95.5q0 -59 -26.5 -100t-68 -66.5t-92 -37t-98.5 -11.5q-59 0 -105.5 5.5t-84 15t-66 23.5t-51.5 32l74 98q82 -61 194 -61q48 0 78.5 17t30.5 59q0 23 -16.5 36t-40.5 13q-23 0 -44.5 -8t-44.5 -27l-75 41l75 156q-71 8 -128.5 24.5t-104 39t-83 50
t-64.5 58.5z" />
    <glyph glyph-name="Scaron" unicode="&#x160;" horiz-adv-x="1397" 
d="M-14 383l293 96q42 -121 135.5 -182t249.5 -61q45 0 91 8.5t83 29.5t60.5 56.5t23.5 89.5q0 50 -32 85.5t-84.5 63t-119 50.5t-136.5 49t-136.5 58t-119 77.5t-84.5 107.5t-32 148t23.5 155.5t63.5 123.5t95 93.5t118 65t131 37.5t136 12q89 0 161 -12t130.5 -32.5
t104 -49.5t82.5 -62.5t66 -71.5t54 -77l-264 -166q-22 33 -51 68t-70.5 64.5t-96.5 48t-130 18.5q-102 0 -161.5 -43.5t-59.5 -126.5q0 -48 32 -82.5t84.5 -62t119.5 -51t136.5 -49.5t136.5 -57.5t119.5 -76t84.5 -104.5t32 -142q0 -120 -44 -214.5t-125 -160t-195 -100.5
t-254 -35q-128 0 -231.5 23.5t-184 73.5t-139 128.5t-96.5 188.5zM535 1964h188l158 -152l211 152h186l-322 -350h-221z" />
    <glyph glyph-name="scaron" unicode="&#x161;" horiz-adv-x="1073" 
d="M-63 158l167 174q31 -30 70.5 -56.5t86 -46t99.5 -30.5t111 -11q31 0 60.5 5.5t52 18.5t36 34t13.5 53t-23 53.5t-61.5 38t-87 31t-99 31.5t-99 39.5t-87 55.5t-61.5 79.5t-23 111.5q0 100 38 171t99 116.5t137 66.5t152 21q92 0 165 -11.5t132 -31.5t106 -48t87 -62
l-154 -185q-65 54 -144.5 85.5t-168.5 31.5q-57 0 -94 -24t-37 -76q0 -32 23.5 -54t61.5 -39t86.5 -31t99.5 -31t99.5 -38.5t86.5 -53t61.5 -75.5t23.5 -106q0 -79 -22 -139t-59.5 -103t-87 -71t-103.5 -45t-109 -23.5t-104 -6.5q-105 0 -187.5 14t-147 38.5t-112.5 57.5
t-83 71zM305 1565h189l157 -152l211 152h187l-322 -351h-221z" />
    <glyph glyph-name="uni021A" unicode="&#x162;" horiz-adv-x="1307" 
d="M131 1237l47 279h1217l-49 -279h-441l-219 -1237h-332l217 1237h-440zM301 -377l51 289h310l-44 -248l-176 -266h-137l119 225h-123z" />
    <glyph glyph-name="uni021A" unicode="&#x21a;" horiz-adv-x="1307" 
d="M131 1237l47 279h1217l-49 -279h-441l-219 -1237h-332l217 1237h-440zM301 -377l51 289h310l-44 -248l-176 -266h-137l119 225h-123z" />
    <glyph glyph-name="uni021B" unicode="&#x163;" horiz-adv-x="868" 
d="M51 852l43 240h180l66 374h328l-64 -374h275l-43 -240h-277l-82 -469q-8 -45 -7 -75.5t14.5 -49t41 -26t72.5 -7.5q26 0 57 3t50 10l-35 -234q-9 -3 -33.5 -6t-55.5 -6t-63.5 -4.5t-58.5 -1.5q-124 0 -194.5 24.5t-103.5 69.5t-35 108.5t11 141.5l94 522h-180zM63 -377
l52 289h309l-43 -248l-176 -266h-137l118 225h-123z" />
    <glyph glyph-name="uni021B" unicode="&#x21b;" horiz-adv-x="868" 
d="M51 852l43 240h180l66 374h328l-64 -374h275l-43 -240h-277l-82 -469q-8 -45 -7 -75.5t14.5 -49t41 -26t72.5 -7.5q26 0 57 3t50 10l-35 -234q-9 -3 -33.5 -6t-55.5 -6t-63.5 -4.5t-58.5 -1.5q-124 0 -194.5 24.5t-103.5 69.5t-35 108.5t11 141.5l94 522h-180zM63 -377
l52 289h309l-43 -248l-176 -266h-137l118 225h-123z" />
    <glyph glyph-name="Tcaron" unicode="&#x164;" horiz-adv-x="1307" 
d="M131 1237l47 279h1217l-49 -279h-441l-219 -1237h-332l217 1237h-440zM489 1960h189l158 -152l211 152h186l-322 -350h-221z" />
    <glyph glyph-name="tcaron" unicode="&#x165;" horiz-adv-x="868" 
d="M51 852l43 240h180l66 374h328l-64 -374h275l-43 -240h-277l-82 -469q-8 -45 -7 -75.5t14.5 -49t41 -26t72.5 -7.5q26 0 57 3t50 10l-35 -234q-9 -3 -33.5 -6t-55.5 -6t-63.5 -4.5t-58.5 -1.5q-124 0 -194.5 24.5t-103.5 69.5t-35 108.5t11 141.5l94 522h-180zM764 1448
l49 278h297l-43 -237l-168 -256h-131l113 215h-117z" />
    <glyph glyph-name="Tbar" unicode="&#x166;" horiz-adv-x="1307" 
d="M12 569l43 248h443l73 420h-442l49 279h1217l-49 -279h-443l-74 -420h445l-45 -248h-443l-100 -569h-332l101 569h-443z" />
    <glyph glyph-name="tbar" unicode="&#x167;" horiz-adv-x="868" 
d="M-20 455l38 209h179l34 188h-182l45 240h180l66 374h328l-64 -374h275l-43 -240h-277l-33 -188h277l-37 -209h-277l-12 -72q-8 -45 -7 -75.5t14 -49t40.5 -26t73.5 -7.5q26 0 57 3t50 10l-35 -234q-9 -3 -34 -6t-56 -6t-63.5 -4.5t-57.5 -1.5q-124 0 -194.5 24.5
t-103.5 69.5t-35 108.5t11 141.5l23 125h-180z" />
    <glyph glyph-name="Utilde" unicode="&#x168;" horiz-adv-x="1464" 
d="M114.5 361.5q-14.5 118.5 10.5 259.5l155 895h334l-160 -916q-15 -82 -12 -147.5t29 -111.5t77.5 -70.5t133.5 -24.5q67 0 117.5 18t88 56t62 97t39.5 142l168 957h325l-174 -992q-50 -283 -208 -416t-433 -133q-180 0 -296 48t-179 134t-77.5 204.5zM493 1589
q9 87 33.5 149t61 101t83.5 57.5t103 18.5q55 0 95 -18t72 -39.5t60 -39.5t60 -18q42 0 67.5 25.5t36.5 85.5h180q-10 -87 -34.5 -149t-61 -101t-84 -57.5t-102.5 -18.5q-56 0 -96 18t-72 39.5t-60.5 39.5t-60.5 18q-40 0 -66.5 -25.5t-36.5 -85.5h-178z" />
    <glyph glyph-name="utilde" unicode="&#x169;" horiz-adv-x="1243" 
d="M52.5 171.5q-12.5 63.5 2.5 147.5l135 773h330l-125 -699q-14 -74 13 -113.5t100 -39.5q28 0 57.5 9t58.5 24.5t56.5 35.5t50.5 41l133 742h328l-193 -1092h-330l33 172q-24 -29 -59.5 -63t-82 -62.5t-103.5 -47.5t-123 -19q-78 0 -137 21.5t-95.5 64t-49 106zM313 1192
q9 87 33.5 148.5t61 101t83.5 58t103 18.5q55 0 95 -18t72 -39.5t59.5 -39.5t59.5 -18q42 0 68 25t37 85h180q-10 -87 -34.5 -148.5t-61.5 -100.5t-84.5 -57.5t-102.5 -18.5t-95 18t-72 39.5t-60.5 39.5t-60.5 18q-41 0 -67 -25.5t-36 -85.5h-178z" />
    <glyph glyph-name="Umacron" unicode="&#x16a;" horiz-adv-x="1464" 
d="M114.5 361.5q-14.5 118.5 10.5 259.5l155 895h334l-160 -916q-15 -82 -12 -147.5t29 -111.5t77.5 -70.5t133.5 -24.5q67 0 117.5 18t88 56t62 97t39.5 142l168 957h325l-174 -992q-50 -283 -208 -416t-433 -133q-180 0 -296 48t-179 134t-77.5 204.5zM555 1591l41 234
h673l-41 -234h-673z" />
    <glyph glyph-name="umacron" unicode="&#x16b;" horiz-adv-x="1243" 
d="M52.5 171.5q-12.5 63.5 2.5 147.5l135 773h330l-125 -699q-14 -74 13 -113.5t100 -39.5q28 0 57.5 9t58.5 24.5t56.5 35.5t50.5 41l133 742h328l-193 -1092h-330l33 172q-24 -29 -59.5 -63t-82 -62.5t-103.5 -47.5t-123 -19q-78 0 -137 21.5t-95.5 64t-49 106zM372 1196
l41 234h674l-41 -234h-674z" />
    <glyph glyph-name="Ubreve" unicode="&#x16c;" horiz-adv-x="1464" 
d="M114.5 361.5q-14.5 118.5 10.5 259.5l155 895h334l-160 -916q-15 -82 -12 -147.5t29 -111.5t77.5 -70.5t133.5 -24.5q67 0 117.5 18t88 56t62 97t39.5 142l168 957h325l-174 -992q-50 -283 -208 -416t-433 -133q-180 0 -296 48t-179 134t-77.5 204.5zM596 1972h176
q0 -55 13 -89t35.5 -53t52.5 -25.5t65 -6.5q25 0 54.5 6t58 25t52 53t37.5 90h174q-11 -80 -43 -149t-82.5 -120t-117.5 -80.5t-146 -29.5q-100 0 -165.5 29.5t-103 81t-51 120.5t-9.5 148z" />
    <glyph glyph-name="ubreve" unicode="&#x16d;" horiz-adv-x="1243" 
d="M52.5 171.5q-12.5 63.5 2.5 147.5l135 773h330l-125 -699q-14 -74 13 -113.5t100 -39.5q28 0 57.5 9t58.5 24.5t56.5 35.5t50.5 41l133 742h328l-193 -1092h-330l33 172q-24 -29 -59.5 -63t-82 -62.5t-103.5 -47.5t-123 -19q-78 0 -137 21.5t-95.5 64t-49 106zM411 1575
h176q0 -56 13 -90t35.5 -52.5t52.5 -25t65 -6.5q25 0 55 6t58 24.5t52 53t38 90.5h174q-11 -80 -43 -149t-82.5 -120t-117.5 -80.5t-146 -29.5q-100 0 -165.5 29.5t-103 81t-51.5 120.5t-10 148z" />
    <glyph glyph-name="Uring" unicode="&#x16e;" horiz-adv-x="1464" 
d="M114.5 361.5q-14.5 118.5 10.5 259.5l155 895h334l-160 -916q-15 -82 -12 -147.5t29 -111.5t77.5 -70.5t133.5 -24.5q67 0 117.5 18t88 56t62 97t39.5 142l168 957h325l-174 -992q-50 -283 -208 -416t-433 -133q-180 0 -296 48t-179 134t-77.5 204.5zM706 1788
q0 58 22 103t57.5 76.5t80.5 48t92 16.5q48 0 85 -16t62.5 -43t38.5 -63t13 -77q0 -59 -21 -105t-56 -77.5t-80 -48.5t-93 -17t-85 16t-63 44t-39.5 64.5t-13.5 78.5zM837 1796q0 -37 21 -61.5t63 -24.5q20 0 39 8t33.5 22.5t23.5 36t9 48.5q0 34 -21 58t-61 24
q-20 0 -39 -8t-34 -22t-24.5 -35t-9.5 -46z" />
    <glyph glyph-name="uring" unicode="&#x16f;" horiz-adv-x="1243" 
d="M52.5 171.5q-12.5 63.5 2.5 147.5l135 773h330l-125 -699q-14 -74 13 -113.5t100 -39.5q28 0 57.5 9t58.5 24.5t56.5 35.5t50.5 41l133 742h328l-193 -1092h-330l33 172q-24 -29 -59.5 -63t-82 -62.5t-103.5 -47.5t-123 -19q-78 0 -137 21.5t-95.5 64t-49 106zM524 1393
q0 57 22 102.5t57.5 76.5t80.5 47.5t92 16.5q48 0 85 -16t62.5 -43t38.5 -63t13 -76q0 -59 -21 -105t-56 -77.5t-80 -48.5t-93 -17t-85 16t-63 44t-39.5 64.5t-13.5 78.5zM655 1401q0 -37 21 -61.5t63 -24.5q20 0 38.5 8t33 22.5t23.5 36t9 48.5q0 34 -20.5 57.5t-60.5 23.5
q-20 0 -39.5 -8t-34.5 -22t-24 -34.5t-9 -45.5z" />
    <glyph glyph-name="Uhungarumlaut" unicode="&#x170;" horiz-adv-x="1464" 
d="M114.5 361.5q-14.5 118.5 10.5 259.5l155 895h334l-160 -916q-15 -82 -12 -147.5t29 -111.5t77.5 -70.5t133.5 -24.5q67 0 117.5 18t88 56t62 97t39.5 142l168 957h325l-174 -992q-50 -283 -208 -416t-433 -133q-180 0 -296 48t-179 134t-77.5 204.5zM553 1604l272 354
h330l-383 -354h-219zM946 1604l287 354h329l-399 -354h-217z" />
    <glyph glyph-name="uhungarumlaut" unicode="&#x171;" horiz-adv-x="1243" 
d="M52.5 171.5q-12.5 63.5 2.5 147.5l135 773h330l-125 -699q-14 -74 13 -113.5t100 -39.5q28 0 57.5 9t58.5 24.5t56.5 35.5t50.5 41l133 742h328l-193 -1092h-330l33 172q-24 -29 -59.5 -63t-82 -62.5t-103.5 -47.5t-123 -19q-78 0 -137 21.5t-95.5 64t-49 106zM358 1208
l272 355h330l-383 -355h-219zM751 1208l287 355h330l-400 -355h-217z" />
    <glyph glyph-name="Uogonek" unicode="&#x172;" horiz-adv-x="1464" 
d="M106.5 384q-9.5 109 13.5 237l155 895h334l-160 -916q-15 -82 -12 -147.5t29 -111.5t77.5 -70.5t133.5 -24.5q67 0 117.5 18t88 56t62 97t39.5 142l168 957h325l-174 -992q-24 -134 -72 -234t-120.5 -167.5t-170.5 -103.5t-222 -42q-54 -42 -83.5 -83.5t-29.5 -81.5
q0 -12 4 -23.5t14 -20.5t26.5 -14.5t41.5 -5.5q46 0 90 12t78 27l47 -100q-65 -35 -133.5 -52.5t-155.5 -17.5q-63 0 -108 11.5t-74.5 31t-43 46t-13.5 56.5q0 33 12 63t33 57.5t50 53t64 48.5q-141 16 -232 70t-140 137.5t-58.5 192.5z" />
    <glyph glyph-name="uogonek" unicode="&#x173;" horiz-adv-x="1243" 
d="M52.5 171.5q-12.5 63.5 2.5 147.5l135 773h330l-125 -699q-14 -74 13 -113.5t100 -39.5q28 0 57.5 9t58.5 24.5t56.5 35.5t50.5 41l133 742h328l-193 -1092h-162q-68 -46 -106.5 -94.5t-38.5 -93.5q0 -12 4 -23.5t14 -20.5t26.5 -14.5t41.5 -5.5q46 0 91 12t77 27
l47 -100q-65 -35 -133.5 -52.5t-155.5 -17.5q-63 0 -108 11.5t-74.5 31t-43 46t-13.5 56.5q0 39 16.5 73t44.5 65t65.5 58.5t79.5 51.5l31 162q-24 -29 -59.5 -63t-82 -62.5t-103.5 -47.5t-123 -19q-78 0 -137 21.5t-95.5 64t-49 106z" />
    <glyph glyph-name="Wcircumflex" unicode="&#x174;" horiz-adv-x="1937" 
d="M180 1516h334l29 -691q1 -41 3 -80t4 -79t3.5 -82t3.5 -90h4l127 329l277 693h307l41 -697q2 -45 4 -82.5t3.5 -74.5t3 -77t3.5 -91h4q19 52 34 91.5t28.5 75t28 72t32.5 82.5l268 701h308l-652 -1516h-282l-56 1055h-4l-442 -1055h-287zM748 1610l321 350h221l201 -350
h-188l-158 151l-211 -151h-186z" />
    <glyph glyph-name="wcircumflex" unicode="&#x175;" horiz-adv-x="1567" 
d="M68 1092h327l21 -392q2 -81 5 -160t3 -173h4q20 53 37 96t33 83t32.5 79t34.5 84l164 383h254l31 -390q3 -43 5.5 -80.5t5 -76.5t4 -82t3.5 -96h4q20 52 37 94.5t32 80.5t30 75.5t32 80.5l166 394h291l-502 -1092h-303l-49 666h-4l-281 -666h-303zM494 1212l321 351h221
l201 -351h-188l-158 152l-211 -152h-186z" />
    <glyph glyph-name="Ycircumflex" unicode="&#x176;" horiz-adv-x="1395" 
d="M154 1516h338l233 -590l440 590h346l-667 -873l-113 -643h-332l113 643zM473 1610l322 350h221l201 -350h-189l-158 151l-211 -151h-186z" />
    <glyph glyph-name="ycircumflex" unicode="&#x177;" horiz-adv-x="1126" 
d="M-195 -362l105 253q15 -6 39 -14t51.5 -14.5t55 -11.5t48.5 -5q53 0 85 22t57 69l33 57l-211 1098h338l104 -709h4l356 709h322l-684 -1244q-38 -68 -77 -118t-84 -83t-98.5 -49t-119.5 -16q-116 0 -197.5 18.5t-126.5 37.5zM274 1212l322 351h221l201 -351h-189
l-157 152l-211 -152h-187z" />
    <glyph glyph-name="Ydieresis" unicode="&#x178;" horiz-adv-x="1395" 
d="M154 1516h338l233 -590l440 590h346l-667 -873l-113 -643h-332l113 643zM487 1595l54 303h278l-53 -303h-279zM918 1595l53 303h278l-53 -303h-278z" />
    <glyph glyph-name="Zacute" unicode="&#x179;" 
d="M-70 0l41 229l947 1010h-717l49 277h1136l-40 -238l-930 -1008h751l-47 -270h-1190zM612 1604l248 354h332l-363 -354h-217z" />
    <glyph glyph-name="zacute" unicode="&#x17a;" horiz-adv-x="1065" 
d="M-72 0l29 170l621 682h-461l43 240h878l-32 -174l-623 -685h541l-39 -233h-957zM412 1208l247 355h332l-362 -355h-217z" />
    <glyph glyph-name="Zdotaccent" unicode="&#x17b;" 
d="M-70 0l41 229l947 1010h-717l49 277h1136l-40 -238l-930 -1008h751l-47 -270h-1190zM649 1628l47 268h338l-47 -268h-338z" />
    <glyph glyph-name="zdotaccent" unicode="&#x17c;" horiz-adv-x="1065" 
d="M-72 0l29 170l621 682h-461l43 240h878l-32 -174l-623 -685h541l-39 -233h-957zM449 1233l47 268h338l-48 -268h-337z" />
    <glyph glyph-name="Zcaron" unicode="&#x17d;" 
d="M-70 0l41 229l947 1010h-717l49 277h1136l-40 -238l-930 -1008h751l-47 -270h-1190zM502 1964h188l158 -152l211 152h186l-321 -350h-222z" />
    <glyph glyph-name="zcaron" unicode="&#x17e;" horiz-adv-x="1065" 
d="M-72 0l29 170l621 682h-461l43 240h878l-32 -174l-623 -685h541l-39 -233h-957zM301 1565h188l158 -152l211 152h186l-321 -351h-221z" />
    <glyph glyph-name="longs" unicode="&#x17f;" horiz-adv-x="831" 
d="M94 0l211 1192q11 67 34.5 127t72.5 105.5t130 72.5t208 27q23 0 53.5 -2t59.5 -4t51 -5t28 -4l-41 -225q-9 3 -37.5 5.5t-60.5 2.5q-31 0 -60.5 -5t-53.5 -20t-41 -43t-23 -75l-203 -1149h-328z" />
    <glyph glyph-name="florin" unicode="&#x192;" horiz-adv-x="860" 
d="M-258 -401l43 221q12 -3 40.5 -6.5t53.5 -3.5q73 0 117 37t59 124l146 817h-189l39 228h189l24 153q12 69 36.5 133.5t74.5 113.5t130.5 78.5t203.5 29.5q24 0 55 -2t60 -4t52 -5t31 -4l-43 -229q-7 1 -18 3t-24 3.5t-26.5 2.5t-25.5 1q-31 0 -60.5 -4t-53.5 -17.5
t-41 -39.5t-23 -70l-23 -143h238l-41 -228h-238l-153 -882q-11 -61 -34.5 -119t-72 -103t-128.5 -72.5t-203 -27.5q-23 0 -53 1.5t-59.5 3.5t-52.5 4.5t-30 5.5z" />
    <glyph glyph-name="Aringacute" unicode="&#x1fa;" horiz-adv-x="1438" 
d="M780 1908l248 355h332l-363 -355h-217zM-96 0l780 1493q-17 22 -26 50.5t-9 60.5q0 57 22 102t57.5 76.5t80.5 48t92 16.5q48 0 85 -16t62.5 -43t38.5 -63t13 -76q0 -57 -22 -102t-54 -74l250 -1473h-326l-51 340h-502l-172 -340h-319zM518 580h346l-78 518h-4zM780 1610
q0 -35 21 -59.5t63 -24.5q20 0 39 7.5t33.5 22t23.5 36t9 48.5q0 32 -21 56t-61 24q-20 0 -39 -8t-34 -22t-24.5 -34.5t-9.5 -45.5z" />
    <glyph glyph-name="aringacute" unicode="&#x1fb;" horiz-adv-x="1159" 
d="M614 1710l248 355h332l-363 -355h-217zM-35 260q0 211 188 319.5t572 127.5l4 26q5 31 0.5 55.5t-21 41.5t-46 26.5t-74.5 9.5q-38 0 -80.5 -7.5t-87 -20.5t-89.5 -31.5t-87 -40.5l-111 205q39 27 94.5 52.5t122.5 45.5t144 32.5t161 12.5q131 0 215 -32.5t128 -91.5
q44 -60 52 -142q3 -26 3 -52q0 -61 -13 -130l-71 -400q-8 -45 -13.5 -79t-7.5 -64t-2 -59.5t6 -63.5h-327q-5 38 -5 72v7q0 37 9 81q-84 -87 -175.5 -131.5t-185.5 -44.5q-67 0 -122.5 20t-95.5 56t-62.5 87t-22.5 113zM301 332q0 -45 31.5 -73t93.5 -28q71 0 126.5 26.5
t104.5 68.5l37 206q-204 -12 -298.5 -64t-94.5 -136zM473 1393q0 57 22 102.5t57.5 76.5t80.5 47.5t92 16.5q48 0 85 -16t62.5 -43t38.5 -63t13 -76q0 -59 -21 -105t-56 -77.5t-80 -48.5t-93 -17t-85 16t-63 44t-39.5 64.5t-13.5 78.5zM604 1401q0 -37 21 -61.5t63 -24.5
q20 0 39 8t33.5 22.5t23.5 36t9 48.5q0 34 -21 57.5t-61 23.5q-20 0 -39 -8t-34 -22t-24.5 -34.5t-9.5 -45.5z" />
    <glyph glyph-name="AEacute" unicode="&#x1fc;" horiz-adv-x="2185" 
d="M1114 1603l248 355h332l-363 -355h-217zM-102 0l1128 1516h1176l-50 -279h-675l-58 -326h484l-45 -264h-484l-67 -377h712l-47 -270h-1042l76 432h-453l-317 -432h-338zM733 678h316l98 559h-2z" />
    <glyph glyph-name="aeacute" unicode="&#x1fd;" horiz-adv-x="1810" 
d="M821 1208l248 355h332l-363 -355h-217zM-35 260q0 211 188 319.5t572 127.5l4 26q5 31 0.5 55.5t-21 41.5t-46 26.5t-74.5 9.5q-38 0 -80.5 -7.5t-87 -20.5t-89.5 -31.5t-87 -40.5l-111 205q39 27 94.5 52.5t122.5 45.5t144 32.5t161 12.5q121 0 191 -31.5t102 -85.5
q43 31 88.5 53.5t89 36.5t83.5 20.5t73 6.5q123 0 214.5 -38.5t147 -114.5t72 -189.5t-9.5 -263.5l-8 -51h-707v-21q0 -68 19 -112.5t50.5 -70.5t72.5 -36t84 -10q51 0 95 10.5t83 28t72.5 41.5t62.5 51l131 -186q-83 -79 -203 -127t-289 -48q-146 0 -254.5 51.5
t-166.5 159.5q-40 -38 -91 -75t-111.5 -65.5t-130 -46t-147.5 -17.5q-67 0 -122.5 20t-95.5 56t-62.5 87t-22.5 113zM301 332q0 -45 31.5 -73t93.5 -28q36 0 72.5 10t71.5 26t67 36t59 41q-6 46 -6 100q0 23 0.5 44.5t3.5 41.5q-106 -6 -180.5 -22.5t-122 -42t-69 -59.5
t-21.5 -74zM1018 651h420q4 48 -2 90t-26 73t-55.5 49t-90.5 18q-82 0 -147 -59t-99 -171z" />
    <glyph glyph-name="Oslashacute" unicode="&#x1fe;" horiz-adv-x="1579" 
d="M-47 66l203 196q-88 149 -88 361q0 153 32.5 280.5t89.5 230t135 179.5t170 128.5t193 77t205 25.5q121 0 226.5 -37.5t187.5 -109.5l186 180l135 -127l-203 -199q42 -74 64 -164t22 -196q0 -152 -31.5 -279.5t-87.5 -229.5t-132 -179t-166 -128.5t-189 -77.5t-200 -26
q-128 0 -238 38t-195 110l-182 -180zM397 631q0 -76 13 -135l686 678q-41 48 -99 74t-137 26q-88 0 -171.5 -41t-148 -122t-104 -201.5t-39.5 -278.5zM481 338q41 -51 100 -78t138 -27q88 0 171.5 43t148 126.5t104 205t39.5 279.5q0 35 -3.5 67.5t-11.5 63.5zM733 1603
l248 355h332l-363 -355h-217z" />
    <glyph glyph-name="oslashacute" unicode="&#x1ff;" horiz-adv-x="1229" 
d="M-74 39l162 147q-34 53 -53 119t-19 148q0 123 26.5 220t72 170.5t106.5 125t130 84t143 47t145 14.5q90 0 173.5 -23.5t152.5 -74.5l155 143l107 -123l-154 -143q29 -51 46.5 -114t17.5 -138q0 -122 -26 -219t-71 -170.5t-106 -125.5t-130 -85.5t-143.5 -48.5
t-146.5 -15q-87 0 -167 22t-146 69l-166 -154zM342 410l424 403q-25 32 -61.5 50t-90.5 18q-55 0 -104.5 -30.5t-86.5 -87.5t-59 -138t-22 -181v-34zM391 262q23 -28 59 -43.5t89 -15.5q54 0 104 30.5t87.5 87t60 136.5t22.5 180v27zM491 1208l248 355h332l-363 -355h-217z
" />
    <glyph glyph-name="Scommaaccent" unicode="&#x218;" horiz-adv-x="1397" 
d="M-14 383l293 96q42 -121 135.5 -182t249.5 -61q45 0 91 8.5t83 29.5t60.5 56.5t23.5 89.5q0 50 -32 85.5t-84.5 63t-119 50.5t-136.5 49t-136.5 58t-119 77.5t-84.5 107.5t-32 148t23.5 155.5t63.5 123.5t95 93.5t118 65t131 37.5t136 12q89 0 161 -12t130.5 -32.5
t104 -49.5t82.5 -62.5t66 -71.5t54 -77l-264 -166q-22 33 -51 68t-70.5 64.5t-96.5 48t-130 18.5q-102 0 -161.5 -43.5t-59.5 -126.5q0 -48 32 -82.5t84.5 -62t119.5 -51t136.5 -49.5t136.5 -57.5t119.5 -76t84.5 -104.5t32 -142q0 -120 -44 -214.5t-125 -160t-195 -100.5
t-254 -35q-128 0 -231.5 23.5t-184 73.5t-139 128.5t-96.5 188.5zM346 -377l51 289h310l-43 -248l-177 -266h-137l119 225h-123z" />
    <glyph glyph-name="scommaaccent" unicode="&#x219;" horiz-adv-x="1073" 
d="M-63 158l167 174q31 -30 70.5 -56.5t86 -46t99.5 -30.5t111 -11q31 0 60.5 5.5t52 18.5t36 34t13.5 53t-23 53.5t-61.5 38t-87 31t-99 31.5t-99 39.5t-87 55.5t-61.5 79.5t-23 111.5q0 100 38 171t99 116.5t137 66.5t152 21q92 0 165 -11.5t132 -31.5t106 -48t87 -62
l-154 -185q-65 54 -144.5 85.5t-168.5 31.5q-57 0 -94 -24t-37 -76q0 -32 23.5 -54t61.5 -39t86.5 -31t99.5 -31t99.5 -38.5t86.5 -53t61.5 -75.5t23.5 -106q0 -79 -22 -139t-59.5 -103t-87 -71t-103.5 -45t-109 -23.5t-104 -6.5q-105 0 -187.5 14t-147 38.5t-112.5 57.5
t-83 71zM184 -377l52 289h309l-43 -248l-176 -266h-138l119 225h-123z" />
    <glyph glyph-name="uni0259" unicode="&#x259;" horiz-adv-x="1161" 
d="M39.5 319.5q-16.5 113.5 9.5 264.5l8 49h707q0 8 1 15.5t1 15.5q-2 65 -22 108t-51.5 68t-72 35t-82.5 10q-50 0 -94 -11t-83 -29t-73 -41.5t-63 -49.5l-131 186q41 39 91.5 71t111 55t132.5 35.5t156 12.5q107 0 198.5 -28t158.5 -85.5t105 -145.5t38 -208
q0 -137 -32 -240t-83.5 -177.5t-117.5 -123.5t-134 -77.5t-132.5 -40t-112.5 -11.5q-123 0 -214.5 38.5t-147 114.5t-72 189.5zM317 440q-4 -48 2 -90t26 -73t55.5 -48.5t90.5 -17.5q82 0 148.5 58.5t97.5 170.5h-420z" />
    <glyph glyph-name="circumflex" unicode="&#x2c6;" horiz-adv-x="1126" 
d="M274 1212l322 351h221l201 -351h-189l-157 152l-211 -152h-187z" />
    <glyph glyph-name="caron" unicode="&#x2c7;" horiz-adv-x="1126" 
d="M332 1565h188l158 -152l211 152h186l-321 -351h-222z" />
    <glyph glyph-name="breve" unicode="&#x2d8;" horiz-adv-x="1020" 
d="M301 1575h176q0 -56 13 -90t35.5 -52.5t52.5 -25t65 -6.5q25 0 55 6t58 24.5t52 53t38 90.5h174q-11 -80 -43.5 -149t-83 -120t-117 -80.5t-145.5 -29.5q-100 0 -165.5 29.5t-103.5 81t-51.5 120.5t-9.5 148z" />
    <glyph glyph-name="dotaccent" unicode="&#x2d9;" horiz-adv-x="1020" 
d="M426 1233l47 268h338l-47 -268h-338z" />
    <glyph glyph-name="ring" unicode="&#x2da;" horiz-adv-x="1102" 
d="M442 1393q0 57 22 102.5t57.5 76.5t80.5 47.5t92 16.5q48 0 85 -16t62.5 -43t38.5 -63t13 -76q0 -59 -21 -105t-56 -77.5t-80 -48.5t-93 -17t-85 16t-63 44t-39.5 64.5t-13.5 78.5zM573 1401q0 -37 21 -61.5t63 -24.5q20 0 39 8t33.5 22.5t23.5 36t9 48.5q0 34 -21 57.5
t-61 23.5q-20 0 -39 -8t-34 -22t-24.5 -34.5t-9.5 -45.5z" />
    <glyph glyph-name="ogonek" unicode="&#x2db;" horiz-adv-x="1020" 
d="M147 -238q0 40 17.5 75.5t47.5 67t70 59.5t85 54h182q-81 -49 -127.5 -103t-46.5 -103q0 -12 4 -23.5t14 -20.5t26.5 -14.5t41.5 -5.5q46 0 90 12t78 27l47 -100q-65 -35 -133.5 -52.5t-155.5 -17.5q-63 0 -108.5 11.5t-74.5 31t-43 46t-14 56.5z" />
    <glyph glyph-name="tilde" unicode="&#x2dc;" horiz-adv-x="1065" 
d="M215 1192q9 87 33.5 148.5t61 101t83.5 58t103 18.5q55 0 95 -18t72 -39.5t59.5 -39.5t59.5 -18q42 0 68 25t37 85h180q-10 -87 -34.5 -148.5t-61.5 -100.5t-84.5 -57.5t-102.5 -18.5t-95 18t-72 39.5t-60.5 39.5t-60.5 18q-41 0 -67 -25.5t-36 -85.5h-178z" />
    <glyph glyph-name="hungarumlaut" unicode="&#x2dd;" horiz-adv-x="1073" 
d="M180 1208l273 355h329l-383 -355h-219zM573 1208l287 355h330l-399 -355h-218z" />
    <glyph glyph-name="uni0326" unicode="&#x326;" horiz-adv-x="578" 
d="M-63 -377l51 289h309l-43 -248l-176 -266h-137l118 225h-122z" />
    <glyph glyph-name="tonos" unicode="&#x384;" horiz-adv-x="1024" 
d="M279 1196l190 363h330l-297 -363h-223z" />
    <glyph glyph-name="dieresistonos" unicode="&#x385;" horiz-adv-x="1090" 
d="M-8 1196l53 303h270l-53 -303h-270zM291 1196l192 363h330l-297 -363h-225zM762 1196l53 303h270l-51 -303h-272z" />
    <glyph glyph-name="Alphatonos" unicode="&#x386;" horiz-adv-x="1481" 
d="M-57 0l796 1522h316l258 -1522h-326l-49 340h-504l-172 -340h-319zM557 580h346l-76 518h-4zM30 1156l190 363h330l-297 -363h-223z" />
    <glyph glyph-name="Epsilontonos" unicode="&#x388;" horiz-adv-x="1622" 
d="M20 1156l190 363h330l-297 -363h-223zM371 0l266 1516h1009l-49 -279h-676l-57 -326h483l-45 -264h-485l-68 -377h715l-47 -270h-1046z" />
    <glyph glyph-name="Etatonos" unicode="&#x389;" horiz-adv-x="1901" 
d="M20 1156l190 363h330l-297 -363h-223zM371 0l266 1516h332l-103 -588h576l102 588h334l-266 -1516h-334l115 649h-576l-115 -649h-331z" />
    <glyph glyph-name="Iotatonos" unicode="&#x38a;" horiz-adv-x="1022" 
d="M385 0l266 1516h334l-266 -1516h-334zM20 1156l190 363h330l-297 -363h-223z" />
    <glyph glyph-name="Omicrontonos" unicode="&#x38c;" horiz-adv-x="1847" 
d="M20 1156l190 363h330l-297 -363h-223zM338 623q0 153 32.5 280.5t89.5 230t135 179.5t169.5 128.5t192.5 77t204 25.5q131 0 244 -43.5t196 -127t130.5 -205t47.5 -277.5q0 -152 -31.5 -279.5t-86.5 -229.5t-131 -179t-165.5 -128.5t-188.5 -77.5t-201 -26
q-138 0 -254.5 43.5t-201.5 127t-133 205t-48 276.5zM671 631q0 -88 20.5 -160t60.5 -123.5t99.5 -79.5t137.5 -28q88 0 170 42t145.5 124t101.5 202.5t38 278.5q0 86 -19.5 156t-59 120t-98.5 77.5t-137 27.5q-88 0 -171 -40t-147 -120t-102.5 -199.5t-38.5 -277.5z" />
    <glyph glyph-name="Upsilontonos" unicode="&#x38e;" horiz-adv-x="1849" 
d="M609 1516h338l233 -590l440 590h346l-667 -873l-113 -643h-332l113 643zM20 1156l190 363h330l-297 -363h-223z" />
    <glyph glyph-name="Omegatonos" unicode="&#x38f;" horiz-adv-x="1825" 
d="M244 0l47 270h258q-59 53 -98 119t-59.5 141t-23.5 157t11 169q13 89 45.5 174.5t82.5 162t117.5 141t150.5 111.5t180.5 73t209.5 26q111 0 200 -28t156.5 -77.5t114.5 -116.5t73.5 -145t32.5 -163.5t-7 -171.5q-28 -186 -123 -326t-250 -246h258l-47 -270h-539l47 270
q127 87 209.5 224.5t108.5 318.5q13 92 4.5 175t-41 145.5t-90 99.5t-142.5 37q-86 0 -157 -34t-125.5 -96t-91 -148.5t-54.5 -190.5q-24 -158 3 -290.5t122 -240.5l-47 -270h-536zM20 1156l190 363h330l-297 -363h-223z" />
    <glyph glyph-name="iotadieresistonos" unicode="&#x390;" horiz-adv-x="602" 
d="M-136 1196l53 303h270l-53 -303h-270zM163 1196l192 363h330l-297 -363h-225zM634 1196l53 303h270l-51 -303h-272zM6 0l193 1092h329l-194 -1092h-328z" />
    <glyph glyph-name="Alpha" unicode="&#x391;" horiz-adv-x="1440" 
d="M-96 0l796 1522h316l258 -1522h-326l-49 340h-504l-172 -340h-319zM518 580h346l-76 518h-4z" />
    <glyph glyph-name="Beta" unicode="&#x392;" horiz-adv-x="1440" 
d="M27 0l266 1516h512q114 0 213 -18t172 -57.5t114.5 -103.5t41.5 -157q0 -105 -29.5 -175t-77.5 -115t-109.5 -69.5t-125.5 -36.5l-3 -4q59 -11 109 -35t86.5 -62.5t57 -92t20.5 -123.5q0 -95 -25.5 -166.5t-69.5 -123t-101.5 -86t-121 -54.5t-130 -28.5t-126.5 -8.5h-673
zM397 254h289q58 0 106.5 13t84 40.5t55.5 70t20 101.5q0 90 -70 133t-223 43h-192zM508 891h242q60 0 108.5 11.5t83 36.5t53.5 64t19 95q0 38 -14 67.5t-45 50t-81 31t-122 10.5h-177z" />
    <glyph glyph-name="Gamma" unicode="&#x393;" horiz-adv-x="1180" 
d="M25 0l266 1516h979l-49 -279h-648l-217 -1237h-331z" />
    <glyph glyph-name="Delta" unicode="&#x394;" horiz-adv-x="1440" 
d="M-96 0l794 1522h318l258 -1522h-1370zM344 242h569l-127 856h-4z" />
    <glyph glyph-name="Epsilon" unicode="&#x395;" horiz-adv-x="1276" 
d="M25 0l266 1516h1009l-49 -279h-676l-57 -326h483l-45 -264h-485l-68 -377h715l-47 -270h-1046z" />
    <glyph glyph-name="Zeta" unicode="&#x396;" 
d="M-70 0l41 229l947 1010h-717l49 277h1136l-40 -238l-930 -1008h751l-47 -270h-1190z" />
    <glyph glyph-name="Eta" unicode="&#x397;" horiz-adv-x="1554" 
d="M25 0l266 1516h332l-103 -588h576l102 588h334l-266 -1516h-334l115 649h-576l-115 -649h-331z" />
    <glyph glyph-name="Theta" unicode="&#x398;" horiz-adv-x="1577" 
d="M68 623q0 153 32.5 280.5t89.5 230t135 179.5t169.5 128.5t192.5 77t204 25.5q131 0 244 -43.5t196 -127t130.5 -205t47.5 -277.5q0 -152 -31.5 -279.5t-86.5 -229.5t-131 -179t-165.5 -128.5t-188.5 -77.5t-201 -26q-138 0 -254.5 43.5t-201.5 127t-133 205t-48 276.5z
M401 631q0 -88 20.5 -160t60.5 -123.5t99.5 -79.5t137.5 -28q88 0 170 42t145.5 124t101.5 202.5t38 278.5q0 86 -19.5 156t-59 120t-98.5 77.5t-137 27.5q-88 0 -171 -40t-147 -120t-102.5 -199.5t-38.5 -277.5zM514 655l41 222h506l-41 -222h-506z" />
    <glyph glyph-name="Iota" unicode="&#x399;" horiz-adv-x="676" 
d="M39 0l266 1516h334l-266 -1516h-334z" />
    <glyph glyph-name="Kappa" unicode="&#x39a;" horiz-adv-x="1450" 
d="M27 0l266 1516h332l-109 -615l629 615h354l-604 -592l393 -924h-354l-299 698l-186 -182l-91 -516h-331z" />
    <glyph glyph-name="Lambda" unicode="&#x39b;" horiz-adv-x="1409" 
d="M1243.01 0.0927734h-329.98l-146.99 1083.93h-4l-538.968 -1083.93h-316.98l779.953 1521.91h314.98z" />
    <glyph glyph-name="Mu" unicode="&#x39c;" horiz-adv-x="1839" 
d="M27 0l266 1516h438l131 -1115h4l502 1115h451l-267 -1516h-319l182 1036h-4q-18 -48 -35 -92t-35 -85t-36.5 -81t-38.5 -82l-340 -696h-293l-92 696q-5 43 -9.5 80t-8 77t-6 87.5t-3.5 112.5h-4l-186 -1053h-297z" />
    <glyph glyph-name="Nu" unicode="&#x39d;" horiz-adv-x="1571" 
d="M27 0l266 1516h332l444 -969h4l170 969h307l-266 -1516h-307l-469 979h-4l-172 -979h-305z" />
    <glyph glyph-name="Xi" unicode="&#x39e;" horiz-adv-x="1323" 
d="M-37 0l47 270h406l65 377h-270l47 264h270l56 326h-391l49 279h1101l-49 -279h-393l-57 -326h270l-45 -264h-270l-66 -377h404l-50 -270h-1124z" />
    <glyph glyph-name="Omicron" unicode="&#x39f;" horiz-adv-x="1577" 
d="M68 623q0 153 32.5 280.5t89.5 230t135 179.5t169.5 128.5t192.5 77t204 25.5q131 0 244 -43.5t196 -127t130.5 -205t47.5 -277.5q0 -152 -31.5 -279.5t-86.5 -229.5t-131 -179t-165.5 -128.5t-188.5 -77.5t-201 -26q-138 0 -254.5 43.5t-201.5 127t-133 205t-48 276.5z
M401 631q0 -88 20.5 -160t60.5 -123.5t99.5 -79.5t137.5 -28q88 0 170 42t145.5 124t101.5 202.5t38 278.5q0 86 -19.5 156t-59 120t-98.5 77.5t-137 27.5q-88 0 -171 -40t-147 -120t-102.5 -199.5t-38.5 -277.5z" />
    <glyph glyph-name="Pi" unicode="&#x3a0;" horiz-adv-x="1534" 
d="M25 0l266 1516h1220l-266 -1516h-334l217 1237h-555l-217 -1237h-331z" />
    <glyph glyph-name="Rho" unicode="&#x3a1;" horiz-adv-x="1364" 
d="M25 0l266 1516h457q134 0 247 -21.5t195 -71t128 -130t46 -197.5q0 -112 -26 -196.5t-71 -146t-106.5 -102.5t-133 -65.5t-149.5 -34.5t-157 -10h-270l-97 -541h-329zM494 797h251q68 0 121.5 14.5t90 45.5t56 80t19.5 118q0 42 -15 76.5t-49.5 59.5t-90 38.5
t-136.5 13.5h-168z" />
    <glyph glyph-name="Sigma" unicode="&#x3a3;" horiz-adv-x="1235" 
d="M-51 0l39 229l495 557l-297 457l50 273h1015l-49 -277h-643l301 -463l-450 -506h653l-47 -270h-1067z" />
    <glyph glyph-name="Tau" unicode="&#x3a4;" horiz-adv-x="1307" 
d="M131 1237l47 279h1217l-49 -279h-441l-219 -1237h-332l217 1237h-440z" />
    <glyph glyph-name="Upsilon" unicode="&#x3a5;" horiz-adv-x="1395" 
d="M154 1516h338l233 -590l440 590h346l-667 -873l-113 -643h-332l113 643z" />
    <glyph glyph-name="Phi" unicode="&#x3a6;" horiz-adv-x="1743" 
d="M89 700q3 102 31.5 190t78 161.5t117 131.5t148.5 99.5t172.5 65.5t189.5 30l27 138h313l-24 -144q126 -12 225.5 -50.5t168 -104t102.5 -158t30 -211.5q-5 -146 -63 -264.5t-156.5 -205t-231.5 -139t-288 -67.5l-31 -172h-313l30 176q-120 12 -218.5 50t-168.5 103
t-107 157.5t-32 213.5zM415 715q-6 -64 11 -113.5t50 -85.5t80.5 -57.5t103.5 -28.5l121 692q-73 -8 -138 -42t-114.5 -88t-79.5 -125t-34 -152zM974 428q69 9 133.5 41.5t115 85t82.5 122.5t37 154q6 66 -10 116.5t-49 86t-80.5 56t-105.5 26.5z" />
    <glyph glyph-name="Chi" unicode="&#x3a7;" horiz-adv-x="1464" 
d="M-68 0l625 817l-313 699h340l207 -461l335 461h349l-562 -738l353 -778h-340l-246 543l-397 -543h-351z" />
    <glyph glyph-name="Psi" unicode="&#x3a8;" horiz-adv-x="1622" 
d="M128 775.5q-5 88.5 14 199.5l94 541h318l-98 -558q-29 -168 17 -252t161 -94l159 904h316l-160 -906q127 1 198.5 79.5t100.5 242.5l100 584h312l-109 -615q-26 -150 -80 -255.5t-136 -173t-190.5 -99.5t-242.5 -33l-61 -340h-316l60 344q-74 6 -141 24t-122.5 51
t-97.5 82.5t-66.5 117.5t-29.5 156.5z" />
    <glyph glyph-name="Omega" unicode="&#x3a9;" horiz-adv-x="1561" 
d="M-18 0l47 270h258q-59 53 -98 119t-59.5 141t-23.5 157t11 169q13 89 45.5 174.5t82.5 162t117.5 141t150.5 111.5t180.5 73t209.5 26q111 0 200 -28t156.5 -77.5t114.5 -116.5t73.5 -145t32.5 -163.5t-7 -171.5q-28 -186 -123 -326t-250 -246h258l-47 -270h-539l47 270
q127 87 209.5 224.5t108.5 318.5q13 92 4.5 175t-41 145.5t-90 99.5t-142.5 37q-86 0 -157 -34t-125.5 -96t-91 -148.5t-54.5 -190.5q-24 -158 3 -290.5t122 -240.5l-47 -270h-536z" />
    <glyph glyph-name="Iotadieresis" unicode="&#x3aa;" horiz-adv-x="676" 
d="M39 0l266 1516h334l-266 -1516h-334zM129 1595l53 303h279l-53 -303h-279zM559 1595l53 303h279l-53 -303h-279z" />
    <glyph glyph-name="Upsilondieresis" unicode="&#x3ab;" horiz-adv-x="1395" 
d="M154 1516h338l233 -590l440 590h346l-667 -873l-113 -643h-332l113 643zM487 1595l54 303h278l-53 -303h-279zM918 1595l53 303h278l-53 -303h-278z" />
    <glyph glyph-name="alphatonos" unicode="&#x3ac;" horiz-adv-x="1257" 
d="M553 1196l190 363h330l-297 -363h-223zM14 408q0 183 44.5 316t116 219.5t161.5 128.5t182 42q66 0 116.5 -11.5t89 -30.5t67 -44t51.5 -51l22 115h328l-193 -1092h-329l28 156q-27 -36 -60 -67.5t-72.5 -55t-87.5 -36.5t-105 -13q-81 0 -147.5 27.5t-113.5 81
t-72.5 132.5t-25.5 183zM346 434q0 -94 43 -148.5t133 -54.5q30 0 58.5 8.5t54.5 23t49.5 34t44.5 41.5l76 416q-35 37 -82.5 63.5t-114.5 26.5q-47 0 -93.5 -23.5t-84 -73.5t-61 -127.5t-23.5 -185.5z" />
    <glyph glyph-name="epsilontonos" unicode="&#x3ad;" horiz-adv-x="1087" 
d="M515 1196l190 363h330l-297 -363h-223zM25 244q0 74 26.5 131.5t69 98.5t96.5 67.5t109 38.5q-75 24 -119.5 75.5t-44.5 135.5q0 67 29 126t86.5 103t144.5 69t203 25q137 0 242.5 -24.5t185.5 -81.5l-135 -201q-77 45 -150 60.5t-139 15.5q-87 0 -132.5 -35t-45.5 -90
q0 -27 9.5 -45t27 -29t41 -15.5t51.5 -4.5h201l-35 -193h-209q-49 0 -85 -12t-59 -32t-34.5 -46t-11.5 -53q0 -24 8 -44.5t27.5 -36t51 -24t78.5 -8.5q75 0 164 25t185 77l96 -211q-97 -60 -226 -94.5t-282 -34.5q-92 0 -170 13.5t-134.5 45t-88 82.5t-31.5 126z" />
    <glyph glyph-name="etatonos" unicode="&#x3ae;" horiz-adv-x="1245" 
d="M576 1196l190 363h330l-297 -363h-223zM-6 0l194 1092h328l-31 -172q23 30 59 64t83 63t104.5 48t124.5 19q77 0 135.5 -21.5t95.5 -64t50 -106.5t-2 -148l-207 -1186h-330l193 1102q14 74 -13.5 114t-99.5 40q-29 0 -59 -9t-59 -24.5t-56.5 -35.5t-50.5 -42l-129 -733
h-330z" />
    <glyph glyph-name="iotatonos" unicode="&#x3af;" horiz-adv-x="602" 
d="M260 1196l190 363h330l-297 -363h-223zM6 0l193 1092h329l-194 -1092h-328z" />
    <glyph glyph-name="upsilondieresistonos" unicode="&#x3b0;" horiz-adv-x="1227" 
d="M168 1196l53 303h270l-53 -303h-270zM467 1196l192 363h330l-297 -363h-225zM938 1196l53 303h270l-51 -303h-272zM47 348q0 29 3.5 59.5t8.5 61.5l111 623h328l-111 -623q-3 -22 -5.5 -41.5t-2.5 -36.5q0 -41 10.5 -69.5t30 -46t47.5 -25.5t63 -8q40 0 73 11t59 37
t45 68.5t30 106.5l111 627h330l-113 -627q-20 -114 -56 -204.5t-100.5 -153.5t-164 -96.5t-246.5 -33.5q-124 0 -210 28.5t-139.5 78t-77.5 117.5t-24 147z" />
    <glyph glyph-name="alpha" unicode="&#x3b1;" horiz-adv-x="1257" 
d="M14 408q0 183 44.5 316t116 219.5t161.5 128.5t182 42q66 0 116.5 -11.5t89 -30.5t67 -44t51.5 -51l22 115h328l-193 -1092h-329l28 156q-27 -36 -60 -67.5t-72.5 -55t-87.5 -36.5t-105 -13q-81 0 -147.5 27.5t-113.5 81t-72.5 132.5t-25.5 183zM346 434q0 -94 43 -148.5
t133 -54.5q30 0 58.5 8.5t54.5 23t49.5 34t44.5 41.5l76 416q-35 37 -82.5 63.5t-114.5 26.5q-47 0 -93.5 -23.5t-84 -73.5t-61 -127.5t-23.5 -185.5z" />
    <glyph glyph-name="beta" unicode="&#x3b2;" horiz-adv-x="1378" 
d="M-80 -412l254 1436q25 137 78.5 231t129.5 152t169.5 83.5t198.5 25.5q126 0 220 -26t157 -72.5t94.5 -111.5t31.5 -143q0 -84 -27 -146t-71 -105.5t-102 -70.5t-119 -42q70 -12 133.5 -40t111 -73t75.5 -107t28 -143q0 -121 -41.5 -208t-108.5 -142.5t-150 -82
t-167 -26.5q-86 0 -152 14t-115.5 35.5t-84.5 47.5t-60 49l166 176q35 -34 87 -60t120 -26q93 0 145 57t52 160q0 61 -28 105t-78 72.5t-120.5 42.5t-154.5 16l39 221q87 0 146.5 15.5t95.5 45t51.5 71t15.5 93.5q0 31 -10 60t-32.5 51.5t-58.5 36.5t-89 14
q-101 0 -164.5 -61t-87.5 -205l-252 -1420h-326z" />
    <glyph glyph-name="gamma" unicode="&#x3b3;" horiz-adv-x="1085" 
d="M59 1092h332l90 -727h4l351 727h315l-578 -1096l-69 -408h-330l70 402z" />
    <glyph glyph-name="delta" unicode="&#x3b4;" horiz-adv-x="1231" 
d="M16 455q0 125 32 230.5t94 184t152.5 127t207.5 58.5q7 0 15.5 -1.5t13.5 -4.5l-248 256l36 211h877l-43 -240h-440l272 -270q80 -77 116 -165t36 -202q0 -118 -25 -212.5t-69.5 -168.5t-104 -127t-129 -87t-145 -50.5t-150.5 -16.5q-96 0 -186 28.5t-159 87.5t-111 149
t-42 213zM348 444q0 -51 10 -94t32.5 -74.5t58.5 -49t88 -17.5q57 0 106 30.5t85 87t56.5 135.5t20.5 177q0 40 -5.5 72t-18 59t-33 49.5t-50.5 42.5q-8 3 -18 3.5t-18 0.5q-78 0 -137 -30.5t-98.5 -86t-59 -133.5t-19.5 -172z" />
    <glyph glyph-name="epsilon" unicode="&#x3b5;" horiz-adv-x="1071" 
d="M0 244q0 74 26.5 131.5t69 98.5t96.5 67.5t109 38.5q-75 24 -119.5 75.5t-44.5 135.5q0 67 29 126t86.5 103t144.5 69t203 25q137 0 242.5 -24.5t185.5 -81.5l-135 -201q-77 45 -150 60.5t-139 15.5q-87 0 -132.5 -35t-45.5 -90q0 -27 9.5 -45t27 -29t41 -15.5t51.5 -4.5
h201l-35 -193h-209q-49 0 -85 -12t-59 -32t-34.5 -46t-11.5 -53q0 -24 8 -44.5t27.5 -36t51 -24t78.5 -8.5q75 0 164 25t185 77l96 -211q-97 -60 -226 -94.5t-282 -34.5q-92 0 -170 13.5t-134.5 45t-88 82.5t-31.5 126z" />
    <glyph glyph-name="zeta" unicode="&#x3b6;" horiz-adv-x="952" 
d="M20 371q0 128 38 243t117 224t201 216.5t290 221.5h-478l45 240h877l-33 -175q-140 -104 -248.5 -192.5t-189.5 -167t-136 -149t-89 -139t-49 -137t-15 -142.5q0 -100 49 -150.5t160 -62.5q145 -14 208.5 -81t63.5 -194q0 -68 -20 -130t-64 -109t-114 -75t-170 -28
q-94 0 -163 23.5t-116 58.5l99 135q43 -32 88.5 -44.5t95.5 -12.5q69 0 103 34t34 97q0 24 -8 42t-27.5 30.5t-52.5 20.5t-82 12q-202 11 -308 113.5t-106 277.5z" />
    <glyph glyph-name="eta" unicode="&#x3b7;" horiz-adv-x="1245" 
d="M-6 0l194 1092h328l-31 -172q23 30 59 64t83 63t104.5 48t124.5 19q77 0 135.5 -21.5t95.5 -64t50 -106.5t-2 -148l-207 -1186h-330l193 1102q14 74 -13.5 114t-99.5 40q-29 0 -59 -9t-59 -24.5t-56.5 -35.5t-50.5 -42l-129 -733h-330z" />
    <glyph glyph-name="theta" unicode="&#x3b8;" horiz-adv-x="1186" 
d="M65 421.5q-12 144.5 17 330.5q28 187 79 331.5t127.5 243.5t180.5 150t239 51q118 0 205.5 -50.5t140.5 -149t68 -242.5t-12 -330q-30 -185 -83 -329.5t-130.5 -244.5t-181.5 -152.5t-236 -52.5q-125 0 -213 51.5t-138.5 150t-62.5 243zM357.5 467q-4.5 -85 8 -144
t46 -90.5t92.5 -31.5q61 0 106 32t78.5 92t57.5 144.5t42 189.5h-409q-17 -107 -21.5 -192zM409 872h408q14 99 15 179.5t-14.5 136.5t-50 86.5t-91.5 30.5q-61 0 -104 -30.5t-73.5 -87t-51.5 -136.5t-38 -179z" />
    <glyph glyph-name="iota" unicode="&#x3b9;" horiz-adv-x="590" 
d="M6 0l193 1092h329l-194 -1092h-328z" />
    <glyph glyph-name="kappa" unicode="&#x3ba;" horiz-adv-x="1178" 
d="M-6 0l192 1092h330l-70 -387l404 387h340l-428 -410l256 -682h-330l-176 467l-127 -119l-61 -348h-330z" />
    <glyph glyph-name="lambda" unicode="&#x3bb;" horiz-adv-x="1126" 
d="M-125 0l608 1104l-14 65q-11 50 -39 70.5t-82 20.5q-37 0 -71 -3.5t-63 -8.5t-51.5 -10t-37.5 -9l-25 254q25 7 57 14t72.5 13t90.5 10t112 4q79 0 135.5 -19.5t95.5 -56.5t62.5 -91t36.5 -124l237 -1233h-325l-105 709h-4l-356 -709h-334z" />
    <glyph glyph-name="mu" unicode="&#x3bc;" horiz-adv-x="1253" 
d="M-78 -410l266 1502h328l-123 -699q-14 -74 13.5 -113.5t99.5 -39.5q57 0 113.5 31t109.5 79l133 742h328l-193 -1092h-329l30 170q-21 -24 -48 -50t-59.5 -49.5t-71.5 -42.5t-85 -30q-31 -5 -59.5 -2.5t-48.5 16.5l-74 -422h-330z" />
    <glyph glyph-name="nu" unicode="&#x3bd;" horiz-adv-x="1085" 
d="M59 1092h332l90 -727h4l351 727h315l-573 -1094h-332z" />
    <glyph glyph-name="xi" unicode="&#x3be;" horiz-adv-x="991" 
d="M-4 338q0 74 20 136.5t55 113.5t83 90t103 66.5t115 43.5t120 21q-46 12 -85 33t-67.5 52.5t-44.5 73.5t-16 95q0 66 29.5 124t92.5 89h-225l43 240h940l-45 -242h-285q-125 -5 -187 -62.5t-62 -148.5q0 -42 12.5 -75t41 -56.5t75 -36t114.5 -12.5l-39 -219
q-98 -2 -185 -15.5t-152 -44.5t-103.5 -83t-38.5 -130q0 -42 11 -74.5t38 -56t73 -38t116 -21.5q142 -16 207 -82t65 -193q0 -68 -20.5 -130t-65 -109t-115 -75t-170.5 -28q-94 0 -162 23.5t-114 58.5l98 135q42 -32 87.5 -44.5t95.5 -12.5q69 0 103 34t34 97q0 24 -7.5 42
t-26.5 31.5t-51.5 22t-82.5 13.5q-120 10 -201 38.5t-130 73.5t-70 106t-21 136z" />
    <glyph glyph-name="omicron" unicode="&#x3bf;" horiz-adv-x="1227" 
d="M16 453q0 123 26.5 220t72 170.5t106.5 125t130 84t143 47t145 14.5q96 0 186 -27.5t159 -85.5t111 -147t42 -213q0 -122 -26 -219t-71 -170.5t-106 -125.5t-130 -85.5t-143.5 -48.5t-146.5 -15q-95 0 -185 28.5t-159.5 87t-111.5 148.5t-42 212zM348 444q0 -49 10 -92
t32.5 -74.5t59 -50t89.5 -18.5q54 0 103 29.5t85.5 85t58 134.5t21.5 179q0 50 -10 93t-33 75t-60 50.5t-90 18.5q-55 0 -103.5 -29.5t-84.5 -85t-57 -135.5t-21 -180z" />
    <glyph glyph-name="pi" unicode="&#x3c0;" horiz-adv-x="1384" 
d="M27 856l41 238h1359l-41 -238h-178l-149 -856h-326l150 856h-353l-153 -856h-326l154 856h-178z" />
    <glyph glyph-name="rho" unicode="&#x3c1;" horiz-adv-x="1257" 
d="M-80 -412l180 1006q24 136 77 234t129.5 161.5t174 94t211.5 30.5q108 0 196.5 -30.5t150.5 -90t96 -147.5t34 -203q0 -144 -38.5 -265t-106 -209t-159 -137.5t-197.5 -49.5q-59 0 -107 10t-87.5 28t-72 43t-59.5 56l-92 -531h-330zM377 317q37 -38 84 -63t110 -25
q51 0 99 26.5t84.5 78t59 127.5t22.5 176q0 45 -10.5 82.5t-31.5 64.5t-53.5 42.5t-76.5 15.5q-96 0 -157.5 -73t-86.5 -210z" />
    <glyph glyph-name="sigma1" unicode="&#x3c2;" horiz-adv-x="1108" 
d="M16 449q0 124 26.5 221.5t71 171.5t104 126t126.5 84.5t136.5 47t135.5 14.5q118 0 199.5 -25.5t134.5 -72.5t82.5 -115t44.5 -153l-293 -52q-9 48 -22.5 81.5t-34.5 55t-51.5 31.5t-73.5 10q-51 0 -97.5 -29t-82 -85t-56 -137.5t-20.5 -186.5q0 -50 8.5 -90t30 -69
t59 -47t95.5 -23q102 -9 170 -30t109 -55.5t58 -83t17 -112.5q0 -68 -20.5 -130t-65 -109t-115 -75t-170.5 -28q-93 0 -161.5 23.5t-114.5 58.5l98 135q42 -32 87.5 -44.5t96.5 -12.5q70 0 103 34t33 97q0 25 -8.5 43t-28 31t-52.5 20.5t-81 10.5q-99 4 -186.5 32t-152 84
t-102 143t-37.5 210z" />
    <glyph glyph-name="sigma" unicode="&#x3c3;" horiz-adv-x="1253" 
d="M16 455q0 119 25.5 212.5t70 164.5t105 120.5t130 80.5t144.5 45t150 14h621l-43 -240h-158q15 -14 28.5 -36t24 -51.5t17 -64.5t6.5 -75q0 -114 -25 -206.5t-69.5 -164.5t-104 -124.5t-129 -86t-145 -50t-150.5 -16.5q-96 0 -186 28.5t-159 87.5t-111 149t-42 213z
M348 444q0 -51 10 -94t32.5 -74.5t58.5 -49t88 -17.5q57 0 106 30.5t85 87t56.5 135.5t20.5 177q0 48 -11 85.5t-28 63.5t-39 42t-43 22h-51q-67 0 -120 -28t-89.5 -80.5t-56 -128.5t-19.5 -171z" />
    <glyph glyph-name="tau" unicode="&#x3c4;" horiz-adv-x="1006" 
d="M25 852l41 240h966l-43 -240h-319l-152 -852h-328l150 852h-315z" />
    <glyph glyph-name="upsilon" unicode="&#x3c5;" horiz-adv-x="1227" 
d="M47 348q0 29 3.5 59.5t8.5 61.5l111 623h328l-111 -623q-3 -22 -5.5 -41.5t-2.5 -36.5q0 -41 10.5 -69.5t30 -46t47.5 -25.5t63 -8q40 0 73 11t59 37t45 68.5t30 106.5l111 627h330l-113 -627q-20 -114 -56 -204.5t-100.5 -153.5t-164 -96.5t-246.5 -33.5
q-124 0 -210 28.5t-139.5 78t-77.5 117.5t-24 147z" />
    <glyph glyph-name="phi" unicode="&#x3c6;" horiz-adv-x="1516" 
d="M16 457q0 119 26 214t71.5 168t108 125t136 85t154.5 48.5t164 16.5l69 402h291l-73 -406q90 -7 173.5 -37.5t147.5 -87.5t102.5 -143t38.5 -203q0 -119 -26 -214t-71.5 -168.5t-108.5 -126.5t-136.5 -87t-154.5 -50t-164 -16l-68 -389h-288l67 394q-90 7 -172.5 39
t-146.5 90t-102 144t-38 202zM348 446q0 -97 43.5 -156t126.5 -75l115 659q-62 -4 -114.5 -35t-90.5 -86t-59 -132.5t-21 -174.5zM807 209q62 3 114.5 34t91 86.5t60 133t21.5 174.5q0 99 -45.5 158t-126.5 73z" />
    <glyph glyph-name="chi" unicode="&#x3c7;" horiz-adv-x="1102" 
d="M-109 0l461 573l-237 519h340l129 -285l217 285h334l-435 -539l256 -553h-340l-147 319l-244 -319h-334z" />
    <glyph glyph-name="psi" unicode="&#x3c8;" horiz-adv-x="1628" 
d="M47 365q0 27 2 56.5t8 61.5l109 609h326l-109 -619q-3 -20 -5.5 -37t-2.5 -33q0 -85 46.5 -124t137.5 -41q3 18 13.5 78.5t26 148t34 194.5t38 217.5t38.5 217.5t34.5 195t26.5 148.5t14 78.5h326l-225 -1278q56 1 99 14t75 40.5t52.5 71t31.5 105.5l110 623h324
q-1 -8 -6 -37t-12.5 -71.5t-16.5 -95t-18.5 -106.5t-18.5 -106t-16.5 -94.5t-12.5 -71.5t-6 -37q-24 -131 -67 -224t-116.5 -153t-183 -88t-265.5 -28l-68 -392h-326l70 392q-122 1 -210.5 28t-145.5 77t-84 120.5t-27 159.5z" />
    <glyph glyph-name="omega" unicode="&#x3c9;" horiz-adv-x="1655" 
d="M29 379q0 101 25.5 206t72 200.5t110.5 175.5t142 131h364q-90 -49 -161 -125.5t-121 -169.5t-76.5 -195.5t-26.5 -204.5q0 -83 28 -120t87 -37q57 0 99 40.5t59 137.5l57 325h291l-59 -340q-7 -22 -7 -49q0 -63 31.5 -88.5t77.5 -25.5q94 0 150.5 97.5t56.5 295.5
q0 145 -48.5 261.5t-138.5 197.5h351q74 -81 117.5 -197.5t43.5 -267.5q0 -136 -33 -254.5t-95.5 -206.5t-153.5 -138.5t-207 -50.5q-78 0 -134 17.5t-94 45.5t-61 64t-35 74q-24 -41 -55 -77.5t-73 -64t-97 -43.5t-127 -16q-97 0 -165 29t-111.5 82t-63.5 127t-20 164z" />
    <glyph glyph-name="iotadieresis" unicode="&#x3ca;" horiz-adv-x="602" 
d="M6 0l193 1092h329l-194 -1092h-328zM25 1196l53 303h278l-53 -303h-278zM455 1196l53 303h278l-53 -303h-278z" />
    <glyph glyph-name="upsilondieresis" unicode="&#x3cb;" horiz-adv-x="1227" 
d="M325 1196l53 303h279l-53 -303h-279zM755 1196l53 303h279l-53 -303h-279zM47 348q0 29 3.5 59.5t8.5 61.5l111 623h328l-111 -623q-3 -22 -5.5 -41.5t-2.5 -36.5q0 -41 10.5 -69.5t30 -46t47.5 -25.5t63 -8q40 0 73 11t59 37t45 68.5t30 106.5l111 627h330l-113 -627
q-20 -114 -56 -204.5t-100.5 -153.5t-164 -96.5t-246.5 -33.5q-124 0 -210 28.5t-139.5 78t-77.5 117.5t-24 147z" />
    <glyph glyph-name="omicrontonos" unicode="&#x3cc;" horiz-adv-x="1227" 
d="M523 1196l190 363h330l-297 -363h-223zM16 453q0 123 26.5 220t72 170.5t106.5 125t130 84t143 47t145 14.5q96 0 186 -27.5t159 -85.5t111 -147t42 -213q0 -122 -26 -219t-71 -170.5t-106 -125.5t-130 -85.5t-143.5 -48.5t-146.5 -15q-95 0 -185 28.5t-159.5 87
t-111.5 148.5t-42 212zM348 444q0 -49 10 -92t32.5 -74.5t59 -50t89.5 -18.5q54 0 103 29.5t85.5 85t58 134.5t21.5 179q0 50 -10 93t-33 75t-60 50.5t-90 18.5q-55 0 -103.5 -29.5t-84.5 -85t-57 -135.5t-21 -180z" />
    <glyph glyph-name="upsilontonos" unicode="&#x3cd;" horiz-adv-x="1227" 
d="M576 1196l190 363h330l-297 -363h-223zM47 348q0 29 3.5 59.5t8.5 61.5l111 623h328l-111 -623q-3 -22 -5.5 -41.5t-2.5 -36.5q0 -41 10.5 -69.5t30 -46t47.5 -25.5t63 -8q40 0 73 11t59 37t45 68.5t30 106.5l111 627h330l-113 -627q-20 -114 -56 -204.5t-100.5 -153.5
t-164 -96.5t-246.5 -33.5q-124 0 -210 28.5t-139.5 78t-77.5 117.5t-24 147z" />
    <glyph glyph-name="omegatonos" unicode="&#x3ce;" horiz-adv-x="1655" 
d="M797 1196l190 363h330l-297 -363h-223zM29 379q0 101 25.5 206t72 200.5t110.5 175.5t142 131h364q-90 -49 -161 -125.5t-121 -169.5t-76.5 -195.5t-26.5 -204.5q0 -83 28 -120t87 -37q57 0 99 40.5t59 137.5l57 325h291l-59 -340q-7 -22 -7 -49q0 -63 31.5 -88.5
t77.5 -25.5q94 0 150.5 97.5t56.5 295.5q0 145 -48.5 261.5t-138.5 197.5h351q74 -81 117.5 -197.5t43.5 -267.5q0 -136 -33 -254.5t-95.5 -206.5t-153.5 -138.5t-207 -50.5q-78 0 -134 17.5t-94 45.5t-61 64t-35 74q-24 -41 -55 -77.5t-73 -64t-97 -43.5t-127 -16
q-97 0 -165 29t-111.5 82t-63.5 127t-20 164z" />
    <glyph glyph-name="afii10023" unicode="&#x401;" horiz-adv-x="1276" 
d="M25 0l266 1516h1009l-49 -279h-676l-57 -326h483l-45 -264h-485l-68 -377h715l-47 -270h-1046zM442 1595l54 303h278l-53 -303h-279zM872 1595l54 303h278l-53 -303h-279z" />
    <glyph glyph-name="afii10051" unicode="&#x402;" horiz-adv-x="1733" 
d="M131 1239l47 277h1219l-49 -277h-443l-67 -389q46 52 96.5 88.5t103 59t105 32.5t102.5 10q88 0 160.5 -29t124.5 -85t80 -137t28 -185q0 -134 -46.5 -245.5t-136 -191t-220 -123.5t-299.5 -44l41 229q84 0 145.5 23.5t101.5 66t59.5 101t19.5 127.5q0 105 -55 164
t-161 59q-75 0 -145.5 -25t-136.5 -79l-119 -666h-330l217 1239h-442z" />
    <glyph glyph-name="afii10052" unicode="&#x403;" horiz-adv-x="1180" 
d="M637 1603l248 355h332l-363 -355h-217zM25 0l266 1516h979l-49 -279h-648l-217 -1237h-331z" />
    <glyph glyph-name="afii10053" unicode="&#x404;" horiz-adv-x="1475" 
d="M68 608q0 216 59.5 389t164 294.5t247 187t309.5 65.5q147 0 248 -36t166.5 -96t101 -139t51.5 -165l-325 -57q-9 45 -26.5 85t-47.5 69.5t-75 47t-110 17.5q-74 0 -136 -27.5t-112 -77t-86 -117.5t-57 -149h437l-46 -258h-428q-2 -8 -2 -15v-16q0 -82 18 -150.5
t54.5 -117.5t92 -76.5t130.5 -27.5q59 0 108 18.5t89.5 52t74 81t62.5 106.5l279 -129q-45 -86 -103.5 -159t-134 -125.5t-172 -82t-217.5 -29.5q-140 0 -253.5 42.5t-193.5 124t-123.5 200t-43.5 270.5z" />
    <glyph glyph-name="afii10054" unicode="&#x405;" horiz-adv-x="1397" 
d="M-14 383l293 96q42 -121 135.5 -182t249.5 -61q45 0 91 8.5t83 29.5t60.5 56.5t23.5 89.5q0 50 -32 85.5t-84.5 63t-119 50.5t-136.5 49t-136.5 58t-119 77.5t-84.5 107.5t-32 148t23.5 155.5t63.5 123.5t95 93.5t118 65t131 37.5t136 12q89 0 161 -12t130.5 -32.5
t104 -49.5t82.5 -62.5t66 -71.5t54 -77l-264 -166q-22 33 -51 68t-70.5 64.5t-96.5 48t-130 18.5q-102 0 -161.5 -43.5t-59.5 -126.5q0 -48 32 -82.5t84.5 -62t119.5 -51t136.5 -49.5t136.5 -57.5t119.5 -76t84.5 -104.5t32 -142q0 -120 -44 -214.5t-125 -160t-195 -100.5
t-254 -35q-128 0 -231.5 23.5t-184 73.5t-139 128.5t-96.5 188.5z" />
    <glyph glyph-name="afii10055" unicode="&#x406;" horiz-adv-x="676" 
d="M39 0l266 1516h334l-266 -1516h-334z" />
    <glyph glyph-name="afii10056" unicode="&#x407;" horiz-adv-x="676" 
d="M39 0l266 1516h334l-266 -1516h-334zM129 1595l53 303h279l-53 -303h-279zM559 1595l53 303h279l-53 -303h-279z" />
    <glyph glyph-name="afii10057" unicode="&#x408;" horiz-adv-x="1092" 
d="M-86 143l176 211q28 -27 61.5 -48.5t68.5 -36.5t71 -23t71 -8q42 0 77.5 11t63.5 38t48.5 72.5t32.5 115.5l182 1041h332l-193 -1100q-18 -106 -56 -189t-99.5 -140t-148.5 -86.5t-204 -29.5q-159 0 -277 45.5t-206 126.5z" />
    <glyph glyph-name="afii10058" unicode="&#x409;" horiz-adv-x="2345" 
d="M-98 0l45 260q109 0 169 42t77 136l190 1078h1208l-98 -539h129q132 0 244 -22t194 -72t128 -131.5t46 -200.5q0 -108 -25.5 -191.5t-70.5 -144.5t-106.5 -102.5t-134.5 -66.5t-154 -35.5t-164 -10.5h-584l217 1239h-548l-142 -799q-19 -108 -65 -190.5t-122 -138
t-183.5 -83.5t-249.5 -28zM1366 254h233q152 0 229 64.5t77 191.5q0 43 -14.5 79t-48 62.5t-88 41t-134.5 14.5h-174z" />
    <glyph glyph-name="afii10059" unicode="&#x40a;" horiz-adv-x="2288" 
d="M25 0l266 1516h330l-105 -603h580l106 603h330l-96 -539h129q132 0 244 -22t194 -72t128 -131.5t46 -200.5q0 -108 -25.5 -191.5t-70.5 -144.5t-106.5 -102.5t-134.5 -66.5t-154 -35.5t-164 -10.5h-586l113 639h-580l-115 -639h-329zM1309 254h233q152 0 228.5 64.5
t76.5 191.5q0 43 -14.5 79t-47.5 62.5t-87.5 41t-134.5 14.5h-174z" />
    <glyph glyph-name="afii10060" unicode="&#x40b;" horiz-adv-x="1608" 
d="M129 1239l47 277h1219l-49 -277h-443l-72 -399q24 28 60.5 62t84.5 63t107 49t129 20q76 0 134 -20.5t94 -62.5t48 -106t-3 -151l-121 -694h-328l107 610q7 34 4.5 63t-15 49.5t-37 32t-61.5 11.5q-32 0 -65 -10.5t-64 -27t-58 -36t-46 -37.5l-117 -655h-330l217 1239
h-442z" />
    <glyph glyph-name="afii10061" unicode="&#x40c;" horiz-adv-x="1450" 
d="M774 1603l248 355h332l-363 -355h-217zM27 0l266 1516h332l-109 -615l629 615h354l-604 -592l393 -924h-354l-299 698l-186 -182l-91 -516h-331z" />
    <glyph glyph-name="afii10062" unicode="&#x40e;" horiz-adv-x="1479" 
d="M-59 90l200 225q17 -14 35 -28t39.5 -25t48.5 -18.5t62 -7.5q37 0 67.5 12.5t55.5 33.5t47 49t43 60l28 47l-377 1078h336l193 -639l47 -154l92 149l399 644h342q-11 -17 -48 -74t-91 -140t-120 -183.5t-134 -205t-134 -205t-120 -183t-91 -139.5t-48 -73
q-60 -92 -119 -156.5t-122 -105.5t-132.5 -59.5t-150.5 -18.5q-72 0 -125 9.5t-92.5 25.5t-70.5 37t-60 45zM580 1974h176q0 -56 13 -90t35.5 -52.5t52.5 -25t65 -6.5q25 0 55 6t58 24.5t52 53t38 90.5h174q-11 -80 -43.5 -149t-83 -120t-117 -80.5t-145.5 -29.5
q-100 0 -165.5 29.5t-103.5 81t-51.5 120.5t-9.5 148z" />
    <glyph glyph-name="afii10145" unicode="&#x40f;" horiz-adv-x="1548" 
d="M27 0l264 1516h332l-217 -1240h571l219 1240h330l-266 -1516h-451l-70 -391h-325l67 391h-454z" />
    <glyph glyph-name="afii10017" unicode="&#x410;" horiz-adv-x="1440" 
d="M-96 0l796 1522h316l258 -1522h-326l-49 340h-504l-172 -340h-319zM518 580h346l-76 518h-4z" />
    <glyph glyph-name="afii10018" unicode="&#x411;" horiz-adv-x="1374" 
d="M25 0l266 1516h973l-52 -277h-643l-53 -295h129q133 0 246 -21t195.5 -69t129 -126.5t46.5 -192.5q0 -105 -25 -186t-70 -140.5t-106.5 -99.5t-134 -64t-153 -34.5t-163.5 -10.5h-585zM395 254h236q149 0 225 60.5t76 179.5q0 39 -14.5 72t-48.5 57t-89.5 37.5
t-136.5 13.5h-174z" />
    <glyph glyph-name="afii10019" unicode="&#x412;" horiz-adv-x="1440" 
d="M27 0l266 1516h512q114 0 213 -18t172 -57.5t114.5 -103.5t41.5 -157q0 -105 -29.5 -175t-77.5 -115t-109.5 -69.5t-125.5 -36.5l-3 -4q59 -11 109 -35t86.5 -62.5t57 -92t20.5 -123.5q0 -95 -25.5 -166.5t-69.5 -123t-101.5 -86t-121 -54.5t-130 -28.5t-126.5 -8.5h-673
zM397 254h289q58 0 106.5 13t84 40.5t55.5 70t20 101.5q0 90 -70 133t-223 43h-192zM508 891h242q60 0 108.5 11.5t83 36.5t53.5 64t19 95q0 38 -14 67.5t-45 50t-81 31t-122 10.5h-177z" />
    <glyph glyph-name="afii10020" unicode="&#x413;" horiz-adv-x="1180" 
d="M25 0l266 1516h979l-49 -279h-648l-217 -1237h-331z" />
    <glyph glyph-name="afii10021" unicode="&#x414;" horiz-adv-x="1714" 
d="M-182 -391l114 667h74q42 0 74.5 11.5t58 37t45.5 67t37 100.5l281 1024h1110l-219 -1240h209l-117 -667h-328l70 391h-1016l-68 -391h-325zM438 276h625l170 963h-488l-217 -795q-17 -58 -36 -102t-54 -66z" />
    <glyph glyph-name="afii10022" unicode="&#x415;" horiz-adv-x="1276" 
d="M25 0l266 1516h1009l-49 -279h-676l-57 -326h483l-45 -264h-485l-68 -377h715l-47 -270h-1046z" />
    <glyph glyph-name="afii10024" unicode="&#x416;" horiz-adv-x="2255" 
d="M-104 0l739 940l-397 576h360l401 -615l111 615h322l-109 -615l635 615h348l-608 -592l397 -924h-352l-301 696l-187 -180l-90 -516h-323l92 518l-125 174l-541 -692h-372z" />
    <glyph glyph-name="afii10025" unicode="&#x417;" horiz-adv-x="1257" 
d="M-70 268l244 172q31 -48 69.5 -85.5t83 -64t93.5 -40.5t100 -14q58 0 107.5 13.5t86.5 42.5t58 75.5t21 111.5q0 103 -81.5 147t-242.5 44h-61l41 243h65q118 0 189.5 18t110 48t51 69t12.5 80q0 31 -11 57t-36 45.5t-66.5 30.5t-101.5 11q-33 0 -74 -6.5t-84 -21
t-86.5 -37t-81.5 -54.5l-156 209q116 97 242.5 138.5t275.5 41.5q135 0 232.5 -26t161.5 -73t94.5 -112t30.5 -143q0 -84 -25 -149.5t-71.5 -114t-113 -81t-149.5 -50.5q70 -12 122 -43t86.5 -75.5t51.5 -99.5t17 -116q0 -86 -23.5 -155.5t-65 -124t-98 -93.5t-123 -64.5
t-139.5 -38t-147 -12.5q-117 0 -207.5 18.5t-163 55.5t-130 93t-108.5 130z" />
    <glyph glyph-name="afii10026" unicode="&#x418;" horiz-adv-x="1569" 
d="M27 0l268 1516h303l-170 -971l797 971h325l-268 -1516h-303l172 971l-817 -971h-307z" />
    <glyph glyph-name="afii10027" unicode="&#x419;" horiz-adv-x="1569" 
d="M27 0l268 1516h303l-170 -971l797 971h325l-268 -1516h-303l172 971l-817 -971h-307zM641 1974h176q0 -56 13 -90t35.5 -52.5t52.5 -25t65 -6.5q25 0 55 6t58 24.5t52 53t38 90.5h174q-11 -80 -43.5 -149t-83 -120t-117 -80.5t-145.5 -29.5q-100 0 -165.5 29.5t-103.5 81
t-51.5 120.5t-9.5 148z" />
    <glyph glyph-name="afii10028" unicode="&#x41a;" horiz-adv-x="1450" 
d="M27 0l266 1516h332l-109 -615l629 615h354l-604 -592l393 -924h-354l-299 698l-186 -182l-91 -516h-331z" />
    <glyph glyph-name="afii10029" unicode="&#x41b;" horiz-adv-x="1618" 
d="M-98 0l45 260q109 0 169 42t77 136l190 1078h1210l-268 -1516h-330l217 1239h-548l-142 -799q-19 -108 -65 -190.5t-122 -138t-183.5 -83.5t-249.5 -28z" />
    <glyph glyph-name="afii10030" unicode="&#x41c;" horiz-adv-x="1839" 
d="M27 0l266 1516h438l131 -1115h4l502 1115h451l-267 -1516h-319l182 1036h-4q-18 -48 -35 -92t-35 -85t-36.5 -81t-38.5 -82l-340 -696h-293l-92 696q-5 43 -9.5 80t-8 77t-6 87.5t-3.5 112.5h-4l-186 -1053h-297z" />
    <glyph glyph-name="afii10031" unicode="&#x41d;" horiz-adv-x="1554" 
d="M25 0l266 1516h332l-103 -588h576l102 588h334l-266 -1516h-334l115 649h-576l-115 -649h-331z" />
    <glyph glyph-name="afii10032" unicode="&#x41e;" horiz-adv-x="1577" 
d="M68 623q0 153 32.5 280.5t89.5 230t135 179.5t169.5 128.5t192.5 77t204 25.5q131 0 244 -43.5t196 -127t130.5 -205t47.5 -277.5q0 -152 -31.5 -279.5t-86.5 -229.5t-131 -179t-165.5 -128.5t-188.5 -77.5t-201 -26q-138 0 -254.5 43.5t-201.5 127t-133 205t-48 276.5z
M401 631q0 -88 20.5 -160t60.5 -123.5t99.5 -79.5t137.5 -28q88 0 170 42t145.5 124t101.5 202.5t38 278.5q0 86 -19.5 156t-59 120t-98.5 77.5t-137 27.5q-88 0 -171 -40t-147 -120t-102.5 -199.5t-38.5 -277.5z" />
    <glyph glyph-name="afii10033" unicode="&#x41f;" horiz-adv-x="1546" 
d="M25 0l266 1516h1233l-267 -1516h-329l217 1239h-572l-219 -1239h-329z" />
    <glyph glyph-name="afii10034" unicode="&#x420;" horiz-adv-x="1364" 
d="M25 0l266 1516h457q134 0 247 -21.5t195 -71t128 -130t46 -197.5q0 -112 -26 -196.5t-71 -146t-106.5 -102.5t-133 -65.5t-149.5 -34.5t-157 -10h-270l-97 -541h-329zM494 797h251q68 0 121.5 14.5t90 45.5t56 80t19.5 118q0 42 -15 76.5t-49.5 59.5t-90 38.5
t-136.5 13.5h-168z" />
    <glyph glyph-name="afii10035" unicode="&#x421;" horiz-adv-x="1473" 
d="M68 604q0 218 59.5 392.5t164 296t246.5 186.5t306 65q109 0 193 -19.5t146.5 -55t105.5 -84t71.5 -107t43.5 -124t21 -134.5l-329 -29q-5 59 -20 110t-46.5 88t-81 58t-123.5 21q-100 0 -178.5 -52.5t-133 -142t-83.5 -209t-29 -254.5q0 -84 18 -152t55 -116.5t92.5 -75
t129.5 -26.5q121 0 208.5 77.5t152.5 241.5l293 -108q-47 -112 -108.5 -201t-142.5 -151t-184 -95t-233 -33q-141 0 -254.5 42t-193.5 123t-123 199t-43 269z" />
    <glyph glyph-name="afii10036" unicode="&#x422;" horiz-adv-x="1307" 
d="M131 1237l47 279h1217l-49 -279h-441l-219 -1237h-332l217 1237h-440z" />
    <glyph glyph-name="afii10037" unicode="&#x423;" horiz-adv-x="1479" 
d="M-59 90l200 225q17 -14 35 -28t39.5 -25t48.5 -18.5t62 -7.5q37 0 67.5 12.5t55.5 33.5t47 49t43 60l28 47l-377 1078h336l193 -639l47 -154l92 149l399 644h342q-11 -17 -48 -74t-91 -140t-120 -183.5t-134 -205t-134 -205t-120 -183t-91 -139.5t-48 -73
q-60 -92 -119 -156.5t-122 -105.5t-132.5 -59.5t-150.5 -18.5q-72 0 -125 9.5t-92.5 25.5t-70.5 37t-60 45z" />
    <glyph glyph-name="afii10038" unicode="&#x424;" horiz-adv-x="1741" 
d="M89 700q3 102 31.5 190t78 161.5t117 131.5t148.5 99.5t172.5 65.5t189.5 30l27 138h313l-24 -144q126 -12 225.5 -50.5t168 -104t102.5 -158t30 -211.5q-5 -146 -63 -264.5t-156.5 -205t-231.5 -139t-288 -67.5l-31 -172h-313l30 176q-120 12 -218.5 50t-168.5 103
t-107 157.5t-32 213.5zM415 715q-6 -64 11 -113.5t50 -85.5t80.5 -57.5t103.5 -28.5l121 692q-73 -8 -138 -42t-114.5 -88t-79.5 -125t-34 -152zM974 428q69 9 133.5 41.5t115 85t82.5 122.5t37 154q6 66 -10 116.5t-49 86t-80.5 56t-105.5 26.5z" />
    <glyph glyph-name="afii10039" unicode="&#x425;" horiz-adv-x="1464" 
d="M-68 0l625 817l-313 699h340l207 -461l335 461h349l-562 -738l353 -778h-340l-246 543l-397 -543h-351z" />
    <glyph glyph-name="afii10040" unicode="&#x426;" horiz-adv-x="1628" 
d="M25 0l266 1516h332l-220 -1240h572l219 1240h330l-217 -1240h209l-117 -667h-328l70 391h-1116z" />
    <glyph glyph-name="afii10041" unicode="&#x427;" horiz-adv-x="1452" 
d="M173.5 780q-18.5 90 4.5 224l92 512h330l-86 -480q-11 -65 -7.5 -110.5t25.5 -74.5t64.5 -42.5t109.5 -13.5q79 0 154 19.5t141 53.5l115 648h329l-266 -1516h-332l109 612q-28 -15 -67 -28.5t-87.5 -24.5t-105.5 -17.5t-121 -6.5q-109 0 -193 23t-137 77.5t-71.5 144.5z
" />
    <glyph glyph-name="afii10042" unicode="&#x428;" horiz-adv-x="2138" 
d="M25 0l266 1516h330l-218 -1240h416l219 1240h332l-219 -1240h416l219 1240h332l-269 -1516h-1824z" />
    <glyph glyph-name="afii10043" unicode="&#x429;" horiz-adv-x="2220" 
d="M25 0l266 1516h330l-218 -1240h416l219 1240h332l-219 -1240h416l219 1240h332l-222 -1240h209l-116 -667h-326l68 391h-1706z" />
    <glyph glyph-name="afii10044" unicode="&#x42a;" horiz-adv-x="1655" 
d="M113 1239l49 277h739l-98 -539h129q132 0 244 -22t194 -72t128 -131.5t46 -200.5q0 -108 -25.5 -191.5t-70.5 -144.5t-106.5 -102.5t-134.5 -66.5t-154 -35.5t-164 -10.5h-584l217 1239h-409zM676 254h235q150 0 228 64.5t78 191.5q0 43 -15 79t-48.5 62.5t-88.5 41
t-135 14.5h-174z" />
    <glyph glyph-name="afii10045" unicode="&#x42b;" horiz-adv-x="1939" 
d="M1321 0l266 1516h334l-266 -1516h-334zM25 0l266 1516h330l-99 -539h129q132 0 244.5 -22t194.5 -72t128 -131.5t46 -200.5q0 -108 -25.5 -191.5t-70.5 -144.5t-106.5 -102.5t-134.5 -66.5t-153.5 -35.5t-163.5 -10.5h-585zM395 254h236q151 0 228 64.5t77 191.5
q0 43 -15 79t-48.5 62.5t-88 41t-133.5 14.5h-176z" />
    <glyph glyph-name="afii10046" unicode="&#x42c;" horiz-adv-x="1374" 
d="M25 0l266 1516h330l-99 -539h129q132 0 244.5 -22t194.5 -72t128 -131.5t46 -200.5q0 -108 -25.5 -191.5t-70.5 -144.5t-106.5 -102.5t-134.5 -66.5t-153.5 -35.5t-163.5 -10.5h-585zM395 254h236q151 0 228 64.5t77 191.5q0 43 -15 79t-48.5 62.5t-88 41t-133.5 14.5
h-176z" />
    <glyph glyph-name="afii10047" unicode="&#x42d;" horiz-adv-x="1475" 
d="M61 408l316 55q12 -45 31.5 -84.5t51 -69t77 -46.5t110.5 -17q74 0 137.5 28t114 79.5t87 124.5t56.5 163h-440l45 258h428q2 8 2 13v12q-2 73 -20 137.5t-54 112.5t-91 76t-130 28q-59 0 -108.5 -17.5t-91.5 -50t-78 -79.5t-68 -105l-268 123q46 86 104.5 158.5t134 125
t172 82t218.5 29.5q139 0 252 -42.5t193 -124t123.5 -200t43.5 -270.5q0 -216 -59 -389t-163.5 -294.5t-247 -187t-308.5 -65.5q-148 0 -249.5 36t-167 96.5t-101 139.5t-52.5 165z" />
    <glyph glyph-name="afii10048" unicode="&#x42e;" horiz-adv-x="2234" 
d="M25 0l266 1516h330l-103 -590h242q40 151 119.5 266.5t184 193.5t228 118t252.5 40q131 0 245 -43.5t198 -127.5t132 -206.5t48 -279.5q0 -147 -30.5 -272.5t-85 -227t-129 -179.5t-163.5 -130.5t-189 -79.5t-204 -27q-137 0 -253.5 42.5t-202.5 124.5t-136 202t-53 274
q0 10 1 18.5t3 16.5h-254l-117 -649h-329zM1055 635q0 -88 20 -161t60.5 -125.5t101 -81.5t141.5 -29q94 0 176.5 45t144.5 128.5t98 202.5t36 267q0 87 -20 158.5t-60 122.5t-100 79.5t-140 28.5q-93 0 -176.5 -43t-146 -124.5t-99 -199.5t-36.5 -268z" />
    <glyph glyph-name="afii10049" unicode="&#x42f;" horiz-adv-x="1427" 
d="M-31 0l461 621q-119 43 -183.5 129t-64.5 225q0 144 49 246.5t136.5 168t209 96t265.5 30.5h577l-266 -1516h-326l103 573h-193l-407 -573h-361zM510 1010q0 -94 71 -138.5t205 -44.5h187l76 420h-220q-319 0 -319 -237z" />
    <glyph glyph-name="afii10065" unicode="&#x430;" horiz-adv-x="1165" 
d="M-35 260q0 211 188 319.5t572 127.5l4 26q5 31 0.5 55.5t-21 41.5t-46 26.5t-74.5 9.5q-38 0 -80.5 -7.5t-87 -20.5t-89.5 -31.5t-87 -40.5l-111 205q39 27 94.5 52.5t122.5 45.5t144 32.5t161 12.5q131 0 215 -32.5t128 -91.5q44 -60 52 -142q3 -26 3 -52
q0 -61 -13 -130l-71 -400q-8 -45 -13.5 -79t-7.5 -64t-2 -59.5t6 -63.5h-327q-5 38 -5 72v7q0 37 9 81q-84 -87 -175.5 -131.5t-185.5 -44.5q-67 0 -122.5 20t-95.5 56t-62.5 87t-22.5 113zM301 332q0 -45 31.5 -73t93.5 -28q71 0 126.5 26.5t104.5 68.5l37 206
q-204 -12 -298.5 -64t-94.5 -136z" />
    <glyph glyph-name="afii10066" unicode="&#x431;" horiz-adv-x="1227" 
d="M16 457q0 40 5 83t16 97q36 196 98.5 354t159 270.5t231 175.5t314.5 68q24 1 56.5 1.5t72 3.5t85 9t93.5 17l-53 -293q-27 -8 -59 -13t-68 -8t-75 -5t-79 -5q-92 -2 -160 -32t-117 -78.5t-79.5 -109.5t-46.5 -124q36 37 79 62.5t87.5 41t86.5 22.5t76 7q85 0 158 -26
t125.5 -77t82.5 -126t30 -172q0 -139 -45.5 -254t-128 -197t-196.5 -127t-251 -45q-107 0 -198 32t-158 93t-104.5 150.5t-37.5 204.5zM346 432q0 -106 51 -165.5t144 -59.5q57 0 105 26t83.5 73.5t55.5 114.5t20 148q0 107 -48 160t-139 53q-54 0 -103 -22.5t-86.5 -66.5
t-60 -109.5t-22.5 -151.5z" />
    <glyph glyph-name="afii10067" unicode="&#x432;" horiz-adv-x="1157" 
d="M2 0l193 1094h452q220 0 323 -60.5t103 -183.5q0 -122 -74 -194t-211 -91v-2q49 -9 90.5 -25t71.5 -42.5t47 -64t17 -89.5q0 -91 -36 -155.5t-96.5 -106t-141.5 -61t-171 -19.5h-567zM344 215h176q97 0 142 37t45 100q0 57 -48.5 83t-136.5 26h-135zM420 645h160
q85 0 131.5 32t46.5 97q0 54 -47.5 77t-128.5 23h-121z" />
    <glyph glyph-name="afii10068" unicode="&#x433;" horiz-adv-x="991" 
d="M-6 0l194 1094h818l-43 -238h-490l-151 -856h-328z" />
    <glyph glyph-name="afii10069" unicode="&#x434;" horiz-adv-x="1360" 
d="M-166 -412l113 650q52 1 85 9t54 25t32.5 42.5t20.5 60.5l187 719h921l-151 -856h131l-115 -650h-305l72 412h-668l-72 -412h-305zM367 219h399l113 637h-291l-127 -504q-14 -54 -38.5 -85.5t-55.5 -47.5z" />
    <glyph glyph-name="afii10070" unicode="&#x435;" horiz-adv-x="1161" 
d="M16 444q0 137 32 239.5t84 177t118 123.5t134 78t133 40.5t114 11.5q122 0 213 -38.5t146 -114.5q55 -75 72 -189q7 -45 7 -96q0 -77 -16 -168l-9 -51h-706v-21q0 -68 19 -112.5t50.5 -70.5t72 -36t83.5 -10q51 0 94.5 8t83 24t76 38t74.5 51l141 -189
q-83 -72 -214.5 -117t-301.5 -45q-107 0 -198.5 28t-158.5 86t-105 145.5t-38 207.5zM365 651h419q2 19 2 37q0 27 -4 53q-6 42 -25.5 73t-55.5 49t-91 18q-81 0 -146 -59t-99 -171z" />
    <glyph glyph-name="afii10072" unicode="&#x436;" horiz-adv-x="1790" 
d="M-111 0l523 696l-275 398h326l270 -398l74 398h313l-69 -398l413 398h334l-430 -416l256 -678h-326l-178 465l-131 -121l-59 -344h-318l64 344q-5 8 -20 28t-32 42q-19 26 -42 55l-351 -469h-342z" />
    <glyph glyph-name="afii10073" unicode="&#x437;" horiz-adv-x="1083" 
d="M-20 211l210 151q19 -32 42.5 -61t54.5 -51t72 -34.5t94 -12.5q96 0 148 42t52 111q0 59 -51 89t-164 30h-82l33 172h76q121 0 180.5 33t59.5 104q0 44 -33 70.5t-109 26.5q-46 0 -83 -8.5t-68.5 -23t-59 -35t-53.5 -44.5l-127 162q33 33 78 65.5t100.5 58.5t121.5 42
t140 16q98 0 171 -20t121 -56t71.5 -85.5t23.5 -108.5q0 -61 -18 -109t-50.5 -83.5t-78 -58.5t-100.5 -34q50 -9 85 -32t57.5 -54t33 -67.5t10.5 -73.5q0 -78 -35 -143.5t-100 -112.5t-157.5 -73t-207.5 -26q-101 0 -175 20t-128 52.5t-91 74.5t-64 87z" />
    <glyph glyph-name="afii10074" unicode="&#x438;" horiz-adv-x="1333" 
d="M-6 0l194 1094h308l-117 -654l39 46q27 32 64.5 76t82.5 97t91 108t91 108t82.5 97t65 76.5t39.5 45.5h338l-193 -1094h-311l117 649q-12 -13 -40 -45l-67 -76q-38 -44 -84 -96.5t-93 -106.5t-93 -106.5t-84.5 -96.5t-66.5 -76.5t-40 -45.5h-323z" />
    <glyph glyph-name="afii10075" unicode="&#x439;" horiz-adv-x="1333" 
d="M-6 0l194 1094h308l-117 -654l39 46q27 32 64.5 76t82.5 97t91 108t91 108t82.5 97t65 76.5t39.5 45.5h338l-193 -1094h-311l117 649q-12 -13 -40 -45l-67 -76q-38 -44 -84 -96.5t-93 -106.5t-93 -106.5t-84.5 -96.5t-66.5 -76.5t-40 -45.5h-323zM430 1575h176
q0 -56 13 -90t35.5 -52.5t52.5 -25t65 -6.5q25 0 55 6t58 24.5t52 53t38 90.5h174q-11 -80 -43.5 -149t-83 -120t-117 -80.5t-145.5 -29.5q-100 0 -165.5 29.5t-103.5 81t-51.5 120.5t-9.5 148z" />
    <glyph glyph-name="afii10076" unicode="&#x43a;" horiz-adv-x="1178" 
d="M-4 0l192 1092h330l-70 -387l404 387h340l-428 -410l256 -682h-330l-176 467l-127 -119l-61 -348h-330z" />
    <glyph glyph-name="afii10077" unicode="&#x43b;" horiz-adv-x="1325" 
d="M-86 4l39 221q51 0 84 5t54 19.5t32 39t18 63.5l131 742h992l-193 -1094h-328l152 856h-338l-88 -494q-15 -86 -43 -146t-67 -99.5t-88 -62.5t-105.5 -34t-120 -13.5t-131.5 -2.5z" />
    <glyph glyph-name="afii10078" unicode="&#x43c;" horiz-adv-x="1530" 
d="M-6 0l194 1094h400l106 -760h4l363 760h405l-194 -1094h-283l127 725h-2q-8 -21 -20.5 -48.5t-26.5 -57t-28.5 -58t-24.5 -51.5l-264 -510h-252l-82 512q-2 24 -6.5 53.5t-8.5 59.5t-7.5 57.5t-4.5 46.5h-2l-129 -729h-264z" />
    <glyph glyph-name="afii10079" unicode="&#x43d;" horiz-adv-x="1262" 
d="M-6 0l194 1094h326l-74 -416h363l71 416h328l-194 -1094h-326l76 426h-363l-73 -426h-328z" />
    <glyph glyph-name="afii10080" unicode="&#x43e;" horiz-adv-x="1227" 
d="M16 453q0 123 26.5 220t72 170.5t106.5 125t130 84t143 47t145 14.5q96 0 186 -27.5t159 -85.5t111 -147t42 -213q0 -122 -26 -219t-71 -170.5t-106 -125.5t-130 -85.5t-143.5 -48.5t-146.5 -15q-95 0 -185 28.5t-159.5 87t-111.5 148.5t-42 212zM348 444q0 -49 10 -92
t32.5 -74.5t59 -50t89.5 -18.5q54 0 103 29.5t85.5 85t58 134.5t21.5 179q0 50 -10 93t-33 75t-60 50.5t-90 18.5q-55 0 -103.5 -29.5t-84.5 -85t-57 -135.5t-21 -180z" />
    <glyph glyph-name="afii10081" unicode="&#x43f;" horiz-adv-x="1253" 
d="M-6 0l194 1094h1006l-195 -1094h-325l149 856h-350l-151 -856h-328z" />
    <glyph glyph-name="afii10082" unicode="&#x440;" horiz-adv-x="1257" 
d="M-78 -412l266 1504h330l-33 -168q24 34 58.5 68t76.5 60.5t90.5 43t100.5 16.5q84 0 151 -29t113.5 -83.5t71 -134t24.5 -179.5q0 -160 -39 -290t-107 -222t-159.5 -142t-197.5 -50q-59 0 -107 10t-87.5 28t-72 43t-59.5 56l-92 -531h-328zM377 317q37 -38 84 -63
t112 -25q50 0 97.5 26.5t84 78t59 127.5t22.5 176q0 94 -43 149.5t-131 55.5q-28 0 -57.5 -9.5t-57 -24.5t-52 -34.5t-42.5 -40.5z" />
    <glyph glyph-name="afii10083" unicode="&#x441;" horiz-adv-x="1116" 
d="M16 449q0 124 26.5 221.5t71 171.5t104 126t126.5 84.5t136.5 47t135.5 14.5q118 0 199.5 -25.5t134.5 -72.5t82.5 -115t44.5 -153l-293 -52q-9 48 -22.5 81.5t-34.5 55t-51.5 31.5t-73.5 10q-51 0 -97.5 -29t-82 -85t-56 -137.5t-20.5 -186.5q0 -51 9.5 -92.5
t30.5 -71.5t54.5 -46.5t81.5 -16.5q31 0 59.5 10t55.5 33t53 60.5t53 93.5l256 -103q-26 -57 -64 -115.5t-96 -105t-139 -76t-192 -29.5q-101 0 -190.5 28t-156.5 86t-106 147t-39 211z" />
    <glyph glyph-name="afii10084" unicode="&#x442;" horiz-adv-x="1114" 
d="M66 856l40 238h1027l-43 -238h-349l-151 -856h-328l152 856h-348z" />
    <glyph glyph-name="afii10085" unicode="&#x443;" horiz-adv-x="1126" 
d="M-195 -362l105 253q15 -6 39 -14t51.5 -14.5t55 -11.5t48.5 -5q53 0 85 22t57 69l33 57l-211 1098h338l104 -709h4l356 709h322l-684 -1244q-38 -68 -77 -118t-84 -83t-98.5 -49t-119.5 -16q-116 0 -197.5 18.5t-126.5 37.5z" />
    <glyph glyph-name="afii10086" unicode="&#x444;" horiz-adv-x="1923" 
d="M14 408q0 173 41 305t109.5 221t157.5 134.5t186 45.5q117 0 195.5 -37t134.5 -106l96 545h328l-107 -590q26 34 62 67.5t78.5 60t91.5 42.5t102 16q82 0 146.5 -29t109.5 -84t68.5 -134t23.5 -179q0 -153 -36 -282t-101.5 -222.5t-156.5 -146.5t-202 -53
q-62 0 -111.5 10t-89 29t-71 44.5t-57.5 57.5l-92 -535h-328q4 23 10.5 59.5t14.5 81t16.5 93.5t16.5 97q19 112 42 239q-29 -38 -62.5 -70t-73.5 -55.5t-88.5 -37t-107.5 -13.5q-67 0 -129.5 23t-110.5 74t-77 132t-29 197zM344 434q0 -94 41 -150.5t129 -56.5q31 0 61 9
t57.5 24t51 34t41.5 38l74 418q-16 19 -35.5 36.5t-42.5 30.5t-51 21t-62 8q-53 0 -101 -26.5t-84 -78t-57.5 -128.5t-21.5 -179zM1047 319q32 -38 80.5 -66t111.5 -28q57 0 105.5 29.5t83.5 83.5t55 130t20 169q0 46 -10 84t-31 65.5t-52.5 42.5t-74.5 15q-28 0 -58.5 -9.5
t-59 -25t-53 -35t-42.5 -39.5z" />
    <glyph glyph-name="afii10087" unicode="&#x445;" horiz-adv-x="1102" 
d="M-109 0l461 573l-237 519h340l129 -285l217 285h334l-435 -539l256 -553h-340l-147 319l-244 -319h-334z" />
    <glyph glyph-name="afii10088" unicode="&#x446;" horiz-adv-x="1305" 
d="M-6 0l194 1094h326l-152 -856h353l149 856h330l-152 -856h129l-112 -650h-305l71 412h-831z" />
    <glyph glyph-name="afii10089" unicode="&#x447;" horiz-adv-x="1227" 
d="M87 473q-12 64 3 150l82 471h327l-67 -385q-6 -36 -4 -64.5t15 -49t36.5 -31.5t60.5 -11q31 0 65 10.5t65.5 26t59 35t46.5 37.5l76 432h327l-194 -1094h-328l86 477q-24 -29 -59.5 -62.5t-83.5 -63t-107.5 -49t-130.5 -19.5q-76 0 -134 21t-93.5 63t-47.5 106z" />
    <glyph glyph-name="afii10090" unicode="&#x448;" horiz-adv-x="1915" 
d="M-6 0l194 1094h326l-152 -856h345l151 856h326l-152 -856h344l152 856h327l-194 -1094h-1667z" />
    <glyph glyph-name="afii10091" unicode="&#x449;" horiz-adv-x="1964" 
d="M-6 0l192 1094h326l-150 -856h345l149 856h326l-150 -856h344l150 856h327l-151 -856h131l-113 -650h-307l72 412h-1491z" />
    <glyph glyph-name="afii10092" unicode="&#x44a;" horiz-adv-x="1405" 
d="M68 856l41 238h651l-55 -322h102q91 0 178.5 -14.5t156.5 -51t111.5 -99t42.5 -158.5q0 -99 -26.5 -171t-71 -121.5t-102.5 -80.5t-120.5 -47.5t-126 -22.5t-118.5 -6h-487l151 856h-327zM606 221h148q63 0 107 13t71.5 37.5t40 59.5t12.5 79q0 71 -54 105t-159 34h-108z
" />
    <glyph glyph-name="afii10093" unicode="&#x44b;" horiz-adv-x="1675" 
d="M1093 0l193 1092h329l-194 -1092h-328zM-3 0l193 1094h323l-55 -322h102q91 0 178.5 -14.5t156.5 -51t111 -99t42 -158.5q0 -99 -26.5 -171t-70.5 -121.5t-101.5 -80.5t-120.5 -47.5t-126.5 -22.5t-118.5 -6h-487zM360 221h147q63 0 107 13t71.5 37.5t40 59.5t12.5 79
q0 71 -53.5 105t-159.5 34h-108z" />
    <glyph glyph-name="afii10094" unicode="&#x44c;" horiz-adv-x="1163" 
d="M2 0l193 1094h323l-55 -322h102q91 0 178.5 -14.5t156.5 -51t111 -99t42 -158.5q0 -99 -26.5 -171t-70.5 -121.5t-101.5 -80.5t-120.5 -47.5t-126.5 -22.5t-118.5 -6h-487zM365 221h147q63 0 107 13t71.5 37.5t40 59.5t12.5 79q0 71 -53.5 105t-159.5 34h-108z" />
    <glyph glyph-name="afii10095" unicode="&#x44d;" horiz-adv-x="1118" 
d="M-16 274l268 76q10 -35 24.5 -61.5t35.5 -44.5t49.5 -27.5t66.5 -9.5q44 0 84 17t73 48.5t58 77t39 103.5h-283l29 190h279v14q0 48 -11.5 90.5t-35 74t-58 49.5t-80.5 18q-55 0 -109 -33t-102 -115l-221 140q32 50 73 92.5t94.5 74t122 49t155.5 17.5q101 0 190.5 -28.5
t156 -86.5t105.5 -146.5t39 -209.5q0 -118 -24.5 -213t-67.5 -169t-101 -127.5t-124.5 -88.5t-138 -51.5t-142.5 -16.5q-103 0 -178 20t-127.5 58.5t-86 93.5t-52.5 125z" />
    <glyph glyph-name="afii10096" unicode="&#x44e;" horiz-adv-x="1767" 
d="M-4 0l194 1094h326l-74 -416h142q32 117 94.5 199.5t143.5 135t173.5 77t184.5 24.5q96 0 185.5 -27.5t159 -85.5t111 -148t41.5 -214q0 -118 -25 -212.5t-69 -168.5t-103.5 -127t-128 -87t-144 -50.5t-150.5 -16.5q-91 0 -176 25.5t-153.5 78t-113.5 132.5t-55 188v13
q0 6 2 12h-164l-73 -426h-328zM887 444q0 -51 10.5 -94.5t34 -75t60 -49.5t87.5 -18q58 0 107.5 31t86 87.5t57 136t20.5 177.5q0 51 -11 95t-34 75.5t-60 49.5t-88 18q-57 0 -106 -30.5t-85.5 -86.5t-57.5 -136.5t-21 -179.5z" />
    <glyph glyph-name="afii10097" unicode="&#x44f;" horiz-adv-x="1204" 
d="M-33 0l299 393q-80 29 -127 95.5t-47 166.5q0 96 26.5 166t71 119t104.5 79t126.5 46.5t137 22.5t136.5 6h451l-195 -1094h-323l61 338h-110q-7 0 -10.5 1t-8.5 1l-250 -340h-342zM410 696q0 -30 10.5 -54.5t34 -42t61.5 -27t94 -9.5h117l53 309h-147q-68 0 -111.5 -16
t-68.5 -41.5t-34 -56.5t-9 -62z" />
    <glyph glyph-name="afii10071" unicode="&#x451;" horiz-adv-x="1161" 
d="M16 444q0 137 32 239.5t84 177t118 123.5t134 78t133 40.5t114 11.5q122 0 213 -38.5t146 -114.5t72 -189.5t-9 -263.5l-9 -51h-706v-21q0 -68 19 -112.5t50.5 -70.5t72 -36t83.5 -10q51 0 94.5 8t83 24t76 38t74.5 51l141 -189q-83 -72 -214.5 -117t-301.5 -45
q-107 0 -198.5 28t-158.5 86t-105 145.5t-38 207.5zM301 1196l53 303h279l-53 -303h-279zM365 651h419q4 48 -2 90t-25.5 73t-55.5 49t-91 18q-81 0 -146 -59t-99 -171zM731 1196l53 303h279l-53 -303h-279z" />
    <glyph glyph-name="afii10099" unicode="&#x452;" horiz-adv-x="1245" 
d="M-6 0l205 1167h-127l34 205h130l24 144h328l-25 -144h174l-35 -205h-176l-43 -247q24 28 60.5 62t84.5 63t107 49t129 20q76 0 134 -20.5t94 -62.5t48 -106t-3 -151l-160 -917q-11 -56 -33 -106.5t-60.5 -88.5t-97.5 -60t-143 -22q-38 0 -74.5 1.5t-69.5 4t-61 6.5t-49 9
l41 217q19 -5 48.5 -9t58.5 -4q27 0 47.5 5.5t35.5 20.5t25 41t17 67l133 751q6 34 3.5 63t-15.5 49.5t-36.5 32t-60.5 11.5q-32 0 -65 -10.5t-64.5 -27t-59 -36t-46.5 -37.5l-129 -735h-328z" />
    <glyph glyph-name="afii10100" unicode="&#x453;" horiz-adv-x="991" 
d="M426 1208l248 355h332l-363 -355h-217zM-6 0l194 1094h818l-43 -238h-490l-151 -856h-328z" />
    <glyph glyph-name="afii10101" unicode="&#x454;" horiz-adv-x="1118" 
d="M16 449q0 122 26 218.5t70.5 170.5t104 126.5t127 85.5t138.5 48.5t139 15.5q102 0 176 -20t126 -58.5t85 -93.5t53 -125l-270 -78q-9 36 -22.5 63t-33.5 45.5t-48 28t-66 9.5q-45 0 -85.5 -16.5t-74 -48t-59 -76.5t-40.5 -101h283l-31 -190h-276q-2 -5 -2 -9v-10
q0 -49 11 -91.5t33 -73.5t56 -48.5t80 -17.5q28 0 56.5 7.5t56 24.5t54 45.5t50.5 69.5l219 -139q-32 -50 -73.5 -92.5t-95.5 -74t-122 -49.5t-155 -18q-101 0 -190.5 28.5t-156 87t-105 147t-38.5 209.5z" />
    <glyph glyph-name="afii10102" unicode="&#x455;" horiz-adv-x="1073" 
d="M-63 158l167 174q31 -30 70.5 -56.5t86 -46t99.5 -30.5t111 -11q31 0 60.5 5.5t52 18.5t36 34t13.5 53t-23 53.5t-61.5 38t-87 31t-99 31.5t-99 39.5t-87 55.5t-61.5 79.5t-23 111.5q0 100 38 171t99 116.5t137 66.5t152 21q92 0 165 -11.5t132 -31.5t106 -48t87 -62
l-154 -185q-65 54 -144.5 85.5t-168.5 31.5q-57 0 -94 -24t-37 -76q0 -32 23.5 -54t61.5 -39t86.5 -31t99.5 -31t99.5 -38.5t86.5 -53t61.5 -75.5t23.5 -106q0 -79 -22 -139t-59.5 -103t-87 -71t-103.5 -45t-109 -23.5t-104 -6.5q-105 0 -187.5 14t-147 38.5t-112.5 57.5
t-83 71z" />
    <glyph glyph-name="afii10103" unicode="&#x456;" horiz-adv-x="602" 
d="M4 0l195 1092h327l-192 -1092h-330zM223 1241l45 264h330l-45 -264h-330z" />
    <glyph glyph-name="afii10104" unicode="&#x457;" horiz-adv-x="602" 
d="M6 0l193 1092h329l-194 -1092h-328zM25 1196l53 303h278l-53 -303h-278zM455 1196l53 303h278l-53 -303h-278z" />
    <glyph glyph-name="afii10105" unicode="&#x458;" horiz-adv-x="602" 
d="M-274 -401l38 221q20 -3 51 -6.5t60 -3.5q28 0 47.5 5.5t33 20.5t23 41t17.5 66l203 1149h329l-217 -1231q-11 -57 -32 -108t-60 -89.5t-98.5 -61t-145.5 -22.5q-78 0 -143.5 5.5t-105.5 13.5zM223 1241l47 264h330l-45 -264h-332z" />
    <glyph glyph-name="afii10106" unicode="&#x459;" horiz-adv-x="1907" 
d="M-86 4l39 221q51 0 84 5t54 19.5t32 39t18 63.5l131 742h990l-58 -322h103q90 0 178 -14.5t157 -51t111.5 -99t42.5 -158.5q0 -99 -26.5 -171t-70.5 -121.5t-101.5 -80.5t-120 -47.5t-126 -22.5t-118.5 -6h-490l152 856h-338l-88 -494q-15 -86 -43 -146t-67 -99.5
t-88 -62.5t-105.5 -34t-120 -13.5t-131.5 -2.5zM1108 221h147q124 0 178 50.5t54 138.5q0 71 -55 105t-158 34h-111z" />
    <glyph glyph-name="afii10107" unicode="&#x45a;" horiz-adv-x="1845" 
d="M-6 0l194 1094h326l-72 -414h361l71 414h324l-55 -322h102q60 0 120 -6t114.5 -20.5t101 -39t81 -60t54 -84.5t19.5 -113q0 -99 -26.5 -171t-71 -121.5t-102.5 -80.5t-120.5 -47.5t-126.5 -22.5t-119 -6h-487l76 428h-361l-75 -428h-328zM1044 221h148q63 0 107 13
t71.5 37.5t40 59.5t12.5 79q0 71 -53.5 105t-159.5 34h-108z" />
    <glyph glyph-name="afii10108" unicode="&#x45b;" horiz-adv-x="1245" 
d="M-6 0l205 1174h-127l37 208h127l24 134h330l-25 -134h176l-36 -208h-177l-43 -254q23 30 59 64t83 63t104.5 48t124.5 19q77 0 135.5 -21.5t95.5 -64t50 -106.5t-2 -148l-138 -774h-327l121 690q14 74 -13.5 114t-99.5 40q-29 0 -59 -9t-59 -24.5t-56.5 -35.5t-50.5 -42
l-129 -733h-330z" />
    <glyph glyph-name="afii10109" unicode="&#x45c;" horiz-adv-x="1178" 
d="M590 1208l248 355h332l-363 -355h-217zM-4 0l192 1092h330l-70 -387l404 387h340l-428 -410l256 -682h-330l-176 467l-127 -119l-61 -348h-330z" />
    <glyph glyph-name="afii10110" unicode="&#x45e;" horiz-adv-x="1126" 
d="M-195 -362l105 253q15 -6 39 -14t51.5 -14.5t55 -11.5t48.5 -5q53 0 85 22t57 69l33 57l-211 1098h338l104 -709h4l356 709h322l-684 -1244q-38 -68 -77 -118t-84 -83t-98.5 -49t-119.5 -16q-116 0 -197.5 18.5t-126.5 37.5zM336 1575h176q0 -56 13 -90t35.5 -52.5
t52.5 -25t65 -6.5q25 0 55 6t58 24.5t52 53t38 90.5h174q-11 -80 -43.5 -149t-83 -120t-117 -80.5t-145.5 -29.5q-100 0 -165.5 29.5t-103.5 81t-51.5 120.5t-9.5 148z" />
    <glyph glyph-name="afii10193" unicode="&#x45f;" horiz-adv-x="1251" 
d="M-6 0l194 1094h326l-152 -856h353l151 856h326l-193 -1094h-337l-72 -412h-326l72 412h-342z" />
    <glyph glyph-name="afii10050" unicode="&#x490;" horiz-adv-x="1178" 
d="M25 0l266 1516h639l45 256h325l-94 -533h-633l-219 -1239h-329z" />
    <glyph glyph-name="afii10098" unicode="&#x491;" horiz-adv-x="991" 
d="M-6 0l194 1094h490l57 329h328l-100 -567h-490l-151 -856h-328z" />
    <glyph glyph-name="Wgrave" unicode="&#x1e80;" horiz-adv-x="1937" 
d="M180 1516h334l29 -691q1 -41 3 -80t4 -79t3.5 -82t3.5 -90h4l127 329l277 693h307l41 -697q2 -45 4 -82.5t3.5 -74.5t3 -77t3.5 -91h4q19 52 34 91.5t28.5 75t28 72t32.5 82.5l268 701h308l-652 -1516h-282l-56 1055h-4l-442 -1055h-287zM741 1960h330l143 -354h-217z
" />
    <glyph glyph-name="wgrave" unicode="&#x1e81;" horiz-adv-x="1567" 
d="M68 1092h327l21 -392q2 -81 5 -160t3 -173h4q20 53 37 96t33 83t32.5 79t34.5 84l164 383h254l31 -390q3 -43 5.5 -80.5t5 -76.5t4 -82t3.5 -96h4q20 52 37 94.5t32 80.5t30 75.5t32 80.5l166 394h291l-502 -1092h-303l-49 666h-4l-281 -666h-303zM492 1563h329l144 -355
h-217z" />
    <glyph glyph-name="Wacute" unicode="&#x1e82;" horiz-adv-x="1937" 
d="M180 1516h334l29 -691q1 -41 3 -80t4 -79t3.5 -82t3.5 -90h4l127 329l277 693h307l41 -697q2 -45 4 -82.5t3.5 -74.5t3 -77t3.5 -91h4q19 52 34 91.5t28.5 75t28 72t32.5 82.5l268 701h308l-652 -1516h-282l-56 1055h-4l-442 -1055h-287zM1024 1606l248 354h332
l-363 -354h-217z" />
    <glyph glyph-name="wacute" unicode="&#x1e83;" horiz-adv-x="1567" 
d="M68 1092h327l21 -392q2 -81 5 -160t3 -173h4q20 53 37 96t33 83t32.5 79t34.5 84l164 383h254l31 -390q3 -43 5.5 -80.5t5 -76.5t4 -82t3.5 -96h4q20 52 37 94.5t32 80.5t30 75.5t32 80.5l166 394h291l-502 -1092h-303l-49 666h-4l-281 -666h-303zM762 1208l248 355h331
l-362 -355h-217z" />
    <glyph glyph-name="Wdieresis" unicode="&#x1e84;" horiz-adv-x="1937" 
d="M180 1516h334l29 -691q1 -41 3 -80t4 -79t3.5 -82t3.5 -90h4l127 329l277 693h307l41 -697q2 -45 4 -82.5t3.5 -74.5t3 -77t3.5 -91h4q19 52 34 91.5t28.5 75t28 72t32.5 82.5l268 701h308l-652 -1516h-282l-56 1055h-4l-442 -1055h-287zM758 1593l53 303h279l-54 -303
h-278zM1188 1593l53 303h279l-54 -303h-278z" />
    <glyph glyph-name="wdieresis" unicode="&#x1e85;" horiz-adv-x="1567" 
d="M68 1092h327l21 -392q2 -81 5 -160t3 -173h4q20 53 37 96t33 83t32.5 79t34.5 84l164 383h254l31 -390q3 -43 5.5 -80.5t5 -76.5t4 -82t3.5 -96h4q20 52 37 94.5t32 80.5t30 75.5t32 80.5l166 394h291l-502 -1092h-303l-49 666h-4l-281 -666h-303zM504 1196l53 303h279
l-54 -303h-278zM934 1196l53 303h279l-54 -303h-278z" />
    <glyph glyph-name="Ygrave" unicode="&#x1ef2;" horiz-adv-x="1395" 
d="M154 1516h338l233 -590l440 590h346l-667 -873l-113 -643h-332l113 643zM492 1960h329l144 -354h-217z" />
    <glyph glyph-name="ygrave" unicode="&#x1ef3;" horiz-adv-x="1126" 
d="M-195 -362l105 253q15 -6 39 -14t51.5 -14.5t55 -11.5t48.5 -5q53 0 85 22t57 69l33 57l-211 1098h338l104 -709h4l356 709h322l-684 -1244q-38 -68 -77 -118t-84 -83t-98.5 -49t-119.5 -16q-116 0 -197.5 18.5t-126.5 37.5zM291 1563h330l143 -355h-217z" />
    <glyph glyph-name="uni2002" unicode="&#x2002;" horiz-adv-x="1024" 
 />
    <glyph glyph-name="uni2003" unicode="&#x2003;" horiz-adv-x="2048" 
 />
    <glyph glyph-name="uni2007" unicode="&#x2007;" horiz-adv-x="666" 
 />
    <glyph glyph-name="uni2009" unicode="&#x2009;" horiz-adv-x="410" 
 />
    <glyph glyph-name="figuredash" unicode="&#x2012;" 
d="M43 500l49 276h1157l-49 -276h-1157z" />
    <glyph glyph-name="endash" unicode="&#x2013;" horiz-adv-x="1382" 
d="M70 500l49 276h1157l-49 -276h-1157z" />
    <glyph glyph-name="emdash" unicode="&#x2014;" horiz-adv-x="1925" 
d="M70 498l49 278h1700l-50 -278h-1699z" />
    <glyph glyph-name="afii00208" unicode="&#x2015;" horiz-adv-x="2048" 
d="M-43 498l49 278h2048l-49 -278h-2048z" />
    <glyph glyph-name="quoteleft" unicode="&#x2018;" horiz-adv-x="578" 
d="M156 954l51 289l205 273h153l-131 -244h115l-55 -318h-338z" />
    <glyph glyph-name="quoteright" unicode="&#x2019;" horiz-adv-x="578" 
d="M184 954l131 244h-114l55 318h336l-49 -289l-207 -273h-152z" />
    <glyph glyph-name="quotesinglbase" unicode="&#x201a;" horiz-adv-x="578" 
d="M-27 -246l131 246h-114l55 317h338l-51 -288l-205 -275h-154z" />
    <glyph glyph-name="quotedblleft" unicode="&#x201c;" horiz-adv-x="1061" 
d="M156 954l51 289l205 273h153l-131 -244h115l-55 -318h-338zM641 954l51 289l203 273h154l-129 -244h114l-57 -318h-336z" />
    <glyph glyph-name="quotedblright" unicode="&#x201d;" horiz-adv-x="1061" 
d="M184 954l131 244h-114l55 318h336l-49 -289l-207 -273h-152zM668 954l131 244h-115l55 318h336l-49 -289l-205 -273h-153z" />
    <glyph glyph-name="quotedblbase" unicode="&#x201e;" horiz-adv-x="1061" 
d="M-27 -246l131 246h-114l55 317h338l-51 -288l-205 -275h-154zM459 -246l129 246h-115l55 317h338l-51 -288l-205 -275h-151z" />
    <glyph glyph-name="dagger" unicode="&#x2020;" horiz-adv-x="1235" 
d="M59 721l52 301l430 -37l41 531h342l-144 -531l441 37l-52 -301l-430 35l-153 -1166h-342l256 1166z" />
    <glyph glyph-name="daggerdbl" unicode="&#x2021;" horiz-adv-x="1235" 
d="M-31 -27l49 287l388 -35l14 328l102 328l-401 -35l51 284l387 -34l23 420h350l-131 -420l399 34l-51 -284l-387 35l-14 -328l-101 -328l400 35l-50 -287l-389 37l-22 -420h-342l123 420z" />
    <glyph glyph-name="bullet" unicode="&#x2022;" horiz-adv-x="948" 
d="M174 717q0 61 21 112t58.5 88.5t88.5 58.5t111 21t110.5 -21t88 -58.5t58.5 -88.5t21 -112q0 -60 -21 -111t-58.5 -87.5t-88 -57.5t-110.5 -21t-111 21t-88.5 57.5t-58.5 87.5t-21 111z" />
    <glyph glyph-name="ellipsis" unicode="&#x2026;" horiz-adv-x="1731" 
d="M-18 0l57 317h352l-57 -317h-352zM559 0l55 317h353l-56 -317h-352zM1135 0l57 317h352l-57 -317h-352z" />
    <glyph glyph-name="perthousand" unicode="&#x2030;" horiz-adv-x="3144" 
d="M131 942q0 146 39 257.5t104 187.5t149 114.5t175 38.5t159 -29t112.5 -81.5t66.5 -125t22 -159.5q0 -144 -39 -255t-103.5 -186.5t-149 -115t-174.5 -39.5q-92 0 -160 29t-112.5 81.5t-66.5 124.5t-22 158zM393 0l1166 1516h284l-1165 -1516h-285zM395 905
q0 -66 25 -107.5t84 -41.5q31 0 57 20t46.5 53t36.5 76.5t26.5 91t16 96t5.5 91.5q0 66 -23.5 105.5t-82.5 39.5q-32 0 -58.5 -19.5t-47.5 -52t-37 -76t-26.5 -90.5t-16 -95t-5.5 -91zM1282 373q0 146 39 258t104.5 188t149.5 115t174 39q92 0 160 -29.5t112.5 -82.5
t66 -126t21.5 -160q0 -143 -39 -253.5t-103.5 -186.5t-148 -115.5t-173.5 -39.5q-92 0 -160.5 29.5t-113.5 81.5t-67 124t-22 158zM1546 338q0 -68 25 -109t84 -41q31 0 57 19.5t46.5 52.5t36.5 76.5t26.5 90.5t16 95.5t5.5 91.5q0 66 -24 107t-82 41q-31 0 -57.5 -19.5
t-47.5 -52t-37 -76t-27 -90.5t-16.5 -95t-5.5 -91zM2191 373q0 146 39.5 258t104.5 188t149 115t174 39q92 0 160 -29.5t112.5 -82.5t66.5 -126t22 -160q0 -143 -39 -253.5t-104 -186.5t-148.5 -115.5t-173.5 -39.5q-92 0 -160.5 29.5t-113.5 81.5t-67 124t-22 158z
M2456 338q0 -34 6 -61.5t19 -47t33.5 -30.5t49.5 -11q31 0 57 19.5t47 52.5t37 76.5t26.5 90.5t16 95.5t5.5 91.5q0 66 -24 107t-83 41q-31 0 -57.5 -19.5t-47.5 -52t-37 -76t-26.5 -90.5t-16 -95t-5.5 -91z" />
    <glyph glyph-name="minute" unicode="&#x2032;" horiz-adv-x="541" 
d="M106 965l105 401l53 150h279l-228 -551h-209z" />
    <glyph glyph-name="second" unicode="&#x2033;" horiz-adv-x="942" 
d="M109 965l106 401l51 150h281l-230 -551h-208zM510 965l106 401l52 150h280l-229 -551h-209z" />
    <glyph glyph-name="guilsinglleft" unicode="&#x2039;" horiz-adv-x="764" 
d="M14 547l439 545h313l-424 -545l229 -547h-313z" />
    <glyph glyph-name="guilsinglright" unicode="&#x203a;" horiz-adv-x="764" 
d="M-70 0l422 547l-229 545h313l244 -545l-436 -547h-314z" />
    <glyph glyph-name="fraction" unicode="&#x2044;" horiz-adv-x="1114" 
d="M-166 0l1165 1516h285l-1165 -1516h-285z" />
    <glyph glyph-name="uni2070" unicode="&#x2070;" horiz-adv-x="1090" 
d="M150 915q0 130 36.5 243t102.5 196.5t159 131.5t207 48q97 0 169.5 -30.5t120.5 -85t71.5 -129.5t23.5 -163q0 -131 -36.5 -242t-102.5 -192t-157.5 -126.5t-202.5 -45.5q-101 0 -174.5 29t-121.5 81t-71.5 125t-23.5 160zM414 907q0 -86 32.5 -134t104.5 -48
q61 0 103.5 38t68.5 98.5t37.5 135.5t11.5 148q0 84 -31 131t-104 47q-61 0 -103.5 -38t-69 -98t-38.5 -134t-12 -146z" />
    <glyph glyph-name="uni2074" unicode="&#x2074;" horiz-adv-x="1016" 
d="M92 739l29 166l538 611h269l-101 -574h154l-35 -203h-153l-37 -200h-260l36 200h-440zM369 926h211l55 313z" />
    <glyph glyph-name="uni2075" unicode="&#x2075;" horiz-adv-x="961" 
d="M68 668l141 166q21 -22 48 -42.5t58 -36.5t65 -26t69 -10q94 0 143 45t49 133q0 57 -33.5 89t-93.5 32q-45 0 -86.5 -21t-87.5 -67l-166 55l133 531h629l-49 -201h-420l-45 -180q31 26 80 41.5t114 15.5q66 0 118 -17.5t89 -51t56.5 -82.5t19.5 -113q0 -105 -34 -182
t-93.5 -127.5t-140 -75t-174.5 -23.5q-74 0 -133 12t-106.5 32t-84 47t-65.5 57z" />
    <glyph glyph-name="uni2076" unicode="&#x2076;" horiz-adv-x="1018" 
d="M145 899q0 154 39.5 272.5t109 199t164.5 122t206 41.5q118 0 200.5 -27t124.5 -61l-129 -182q-40 29 -94 45t-119 16q-48 0 -86.5 -18.5t-67 -51.5t-48.5 -80t-31 -104q111 100 278 100q58 0 107.5 -16.5t85.5 -49t56 -81.5t20 -113q0 -92 -32 -164.5t-91 -123
t-143.5 -77t-190.5 -26.5q-89 0 -156.5 26t-112.5 74.5t-67.5 119t-22.5 159.5zM397 889q0 -48 10.5 -81.5t29 -54.5t44 -30.5t56.5 -9.5q37 0 69 9.5t55.5 29.5t36.5 50.5t13 71.5q0 51 -28 81t-93 30q-62 0 -109 -17t-84 -48v-31z" />
    <glyph glyph-name="uni2077" unicode="&#x2077;" horiz-adv-x="866" 
d="M127 539l491 764h-444l35 213h721l-35 -195l-496 -782h-272z" />
    <glyph glyph-name="uni2078" unicode="&#x2078;" horiz-adv-x="997" 
d="M92 782q0 52 17 95t49 77.5t79 62t107 50.5q-60 42 -90.5 90t-30.5 107q0 61 25.5 111t75.5 85t123.5 54.5t168.5 19.5q94 0 160 -21.5t107.5 -56.5t60.5 -78.5t19 -87.5q0 -88 -51 -148.5t-156 -105.5q81 -45 123.5 -98t42.5 -125q0 -78 -32 -133.5t-89.5 -91t-139 -52
t-180.5 -16.5q-98 0 -171 20.5t-121.5 55.5t-72.5 83t-24 103zM344 795q0 -45 34 -76t109 -31q84 0 131.5 30t47.5 93q1 44 -38.5 81.5t-117.5 82.5q-82 -34 -124 -77t-42 -103zM467 1249q0 -37 29 -69t88 -64q65 31 99 64.5t34 81.5q0 18 -6 35t-19.5 30.5t-36 22
t-55.5 8.5q-60 0 -96.5 -30.5t-36.5 -78.5z" />
    <glyph glyph-name="uni2079" unicode="&#x2079;" horiz-adv-x="1018" 
d="M127 608l129 176q40 -29 94 -45t119 -16q49 0 87.5 18.5t68 52.5t49 82t31.5 107q-112 -100 -281 -100q-59 0 -108 16.5t-84.5 49t-55.5 81t-20 113.5q0 92 31.5 164.5t90.5 123t143.5 77t190.5 26.5q89 0 156.5 -26t112.5 -74.5t67.5 -119t22.5 -159.5
q0 -155 -39 -273.5t-108.5 -198.5t-164.5 -121.5t-206 -41.5q-119 0 -201.5 27t-124.5 61zM406 1174q0 -53 27.5 -82t92.5 -29q62 0 108.5 16.5t84.5 48.5v31q0 48 -10 81.5t-28.5 54.5t-44 30.5t-56.5 9.5q-38 0 -70 -9.5t-55 -29.5t-36 -50.5t-13 -71.5z" />
    <glyph glyph-name="uni2080" unicode="&#x2080;" horiz-adv-x="1090" 
d="M-14 -31q0 130 36.5 243t102.5 196.5t159.5 131.5t207.5 48q97 0 169.5 -30.5t120.5 -85t71.5 -129.5t23.5 -163q0 -131 -36.5 -242t-102.5 -192t-158 -126.5t-203 -45.5q-101 0 -174.5 29t-121.5 81t-71.5 125t-23.5 160zM250 -39q0 -87 32.5 -134.5t104.5 -47.5
q61 0 103.5 38t68.5 98.5t37.5 135.5t11.5 148q0 84 -31 131t-104 47q-61 0 -103.5 -38t-69 -98t-38.5 -134t-12 -146z" />
    <glyph glyph-name="uni2081" unicode="&#x2081;" horiz-adv-x="791" 
d="M-70 -410l35 207h176l101 565q-41 -17 -89 -28.5t-92 -11.5l33 186q59 2 106.5 16t82.5 45h258l-135 -772h153l-37 -207h-592z" />
    <glyph glyph-name="uni2082" unicode="&#x2082;" horiz-adv-x="979" 
d="M-86 -406l10 54q16 97 50.5 166.5t79 119.5t96.5 84t103 59.5t98.5 46t84 43.5t58.5 52t22 72q0 32 -22.5 56t-67.5 24q-21 0 -47 -4.5t-54.5 -17t-59.5 -35t-62 -58.5l-158 139q85 103 192 149t228 46q80 0 138 -19t96 -53t56.5 -81t18.5 -103q0 -72 -21 -126t-56 -94.5
t-80.5 -69.5t-93.5 -52.5t-95 -43t-85.5 -40.5t-65.5 -45.5t-35 -57.5h448l-39 -211h-737z" />
    <glyph glyph-name="uni2083" unicode="&#x2083;" horiz-adv-x="979" 
d="M-82 -209l180 125q22 -37 46.5 -61t50 -38.5t52 -20t52.5 -5.5q84 0 123 32t39 91q0 50 -40.5 75t-127.5 25h-86l33 183h88q100 0 141 25t41 79q0 31 -21 51.5t-73 20.5q-60 0 -118 -17.5t-120 -60.5l-108 162q49 40 100 65.5t102 40.5t102 21t101 6q75 0 131.5 -18
t94 -50t56.5 -76t19 -96q0 -84 -43 -147.5t-141 -96.5q37 -12 63.5 -32t43.5 -45.5t24.5 -55.5t7.5 -61q0 -88 -35 -151t-93 -103.5t-133.5 -60t-156.5 -19.5q-150 0 -248.5 57.5t-146.5 155.5z" />
    <glyph glyph-name="uni2084" unicode="&#x2084;" horiz-adv-x="1016" 
d="M-72 -207l29 166l539 610h268l-100 -573h153l-35 -203h-153l-37 -201h-260l37 201h-441zM205 -20h211l55 313z" />
    <glyph glyph-name="uni2085" unicode="&#x2085;" horiz-adv-x="961" 
d="M-96 -279l141 166q21 -21 48 -41.5t58 -36.5t65 -26t69 -10q94 0 143 45t49 133q0 57 -33.5 89t-93.5 32q-45 0 -86 -21t-88 -67l-166 55l133 530h629l-49 -200h-420l-45 -181q31 26 80.5 42t114.5 16t117.5 -17.5t89 -51t56 -82.5t19.5 -113q0 -105 -34 -182
t-93.5 -127.5t-140 -75t-174.5 -23.5q-74 0 -133 12t-106 32t-84 46.5t-66 56.5z" />
    </font>
</defs>
</svg>
