<?xml version="1.0" encoding="UTF-8"?>
<svg width="25px" height="27px" viewBox="0 0 25 27" version="1.1" xmlns="http://www.w3.org/2000/svg" xmlns:xlink="http://www.w3.org/1999/xlink">
    <!-- Generator: Sketch 51.2 (57519) - http://www.bohemiancoding.com/sketch -->
    <title>cart2</title>
    <desc>Created with Sketch.</desc>
    <defs></defs>
    <g id="Loja" stroke="none" stroke-width="1" fill="none" fill-rule="evenodd">
        <g id="Sua-Conta" transform="translate(-984.000000, -27.000000)" fill="#4A90E2" fill-rule="nonzero" stroke="#4A90E2">
            <g id="Menu-Topo-2">
                <g id="Group-2">
                    <g transform="translate(985.000000, 25.000000)">
                        <g id="Group-3">
                            <g id="Group-7">
                                <g id="cart2" transform="translate(0.000000, 3.000000)">
                                    <path d="M6.55503338,16.4606107 L20.1921987,16.4606107 C21.7385241,16.4606107 23,15.1863817 23,13.6244236 L23,7.82873695 C23,7.82359893 23,7.81332289 23,7.80818487 C23,7.79277081 23,7.78249477 23,7.76708071 C23,7.75680467 23,7.74652863 22.9949134,7.73625259 C22.9949134,7.72597654 22.9898268,7.71056248 22.9898268,7.70028644 C22.9898268,7.6900104 22.9847402,7.67973436 22.9847402,7.66945832 C22.9796536,7.65918228 22.9796536,7.64890624 22.974567,7.63349218 C22.9694804,7.62321614 22.9694804,7.6129401 22.9643938,7.60266406 C22.9593072,7.59238802 22.9593072,7.58211198 22.9542206,7.57183594 C22.949134,7.5615599 22.9440474,7.55128386 22.9389608,7.5358698 C22.9338742,7.52559376 22.9287876,7.51531772 22.9237011,7.5101797 C22.9186145,7.49990366 22.9135279,7.48962762 22.9084413,7.47935158 C22.9033547,7.46907554 22.8982681,7.46393752 22.8931815,7.45366148 C22.8880949,7.44338544 22.8779217,7.4331094 22.8728351,7.42283336 C22.8677485,7.41255732 22.8626619,7.4074193 22.8524887,7.39714326 C22.8474021,7.38686722 22.8372289,7.3817292 22.8321423,7.37145316 C22.8270557,7.36117712 22.8168825,7.3560391 22.8117959,7.34576306 C22.8067093,7.33548702 22.7965361,7.330349 22.7914495,7.32521098 C22.7812763,7.31493494 22.7761898,7.30979692 22.7660166,7.29952088 C22.7558434,7.29438286 22.7507568,7.28410682 22.7405836,7.2789688 C22.7304104,7.27383078 22.7202372,7.26355474 22.710064,7.25841672 C22.6998908,7.2532787 22.6948042,7.24814068 22.684631,7.24300266 C22.6744578,7.23786464 22.6642846,7.23272662 22.6541114,7.22245058 C22.6439382,7.21731256 22.633765,7.21217454 22.6235919,7.20703652 C22.6134187,7.2018985 22.6032455,7.19676048 22.5930723,7.19162246 C22.5828991,7.18648444 22.5727259,7.18134642 22.5625527,7.1762084 C22.5523795,7.17107038 22.5422063,7.17107038 22.5320331,7.16593236 C22.5218599,7.16079434 22.5066001,7.15565632 22.4964269,7.15565632 C22.4862537,7.15565632 22.4760806,7.1505183 22.470994,7.1505183 C22.4557342,7.14538028 22.445561,7.14538028 22.4303012,7.14538028 C22.4252146,7.14538028 22.420128,7.14024226 22.4099548,7.14024226 L5.12569975,4.73051085 L5.12569975,2.29508934 C5.12569975,2.26939924 5.12569975,2.24370914 5.12061316,2.22315706 C5.12061316,2.21801904 5.12061316,2.21288102 5.11552656,2.20260498 C5.11552656,2.18719092 5.11043996,2.17177686 5.11043996,2.1563628 C5.10535337,2.14094874 5.10535337,2.1306727 5.10026677,2.11525864 C5.10026677,2.10498259 5.09518017,2.09984457 5.09518017,2.08956853 C5.09009358,2.07415447 5.08500698,2.05874041 5.07992038,2.04332635 C5.07992038,2.03818833 5.07483379,2.02791229 5.07483379,2.02277427 C5.06974719,2.00736021 5.06466059,1.99708417 5.0544874,1.98167011 C5.0494008,1.97653209 5.0494008,1.96625605 5.04431421,1.96111803 C5.03922761,1.95084199 5.03414101,1.94056595 5.02396782,1.93028991 C5.01888123,1.92001387 5.01379463,1.91487585 5.00870803,1.90459981 C5.00362144,1.89432377 4.99853484,1.88918575 4.99344824,1.87890971 C4.98836165,1.86863367 4.97818845,1.85835763 4.97310186,1.84808159 C4.96801526,1.84294357 4.96292866,1.83780555 4.95784207,1.83266753 C4.94766887,1.82239149 4.93749568,1.81211545 4.92732249,1.80183941 C4.92223589,1.79670139 4.91714929,1.79156337 4.9120627,1.78642535 C4.9018895,1.77614931 4.89171631,1.76587327 4.87645652,1.75559723 C4.87136993,1.75045921 4.86119673,1.74532119 4.85611014,1.74018317 C4.84593694,1.72990713 4.83576375,1.72476911 4.82559056,1.71449307 C4.81033077,1.70421703 4.79507098,1.69394099 4.78489778,1.68880297 C4.77981119,1.68366495 4.77472459,1.68366495 4.76963799,1.67852693 C4.74929161,1.66825089 4.72385863,1.65797485 4.70351224,1.64769881 L0.954690588,0.0549125894 C0.603715427,-0.0940899924 0.2018743,0.0703266496 0.0543630005,0.424850034 C-0.0931482992,0.779373418 0.0696227902,1.185277 0.420597952,1.33427959 L3.74723209,2.75237312 L3.74723209,5.8968414 L3.74723209,6.39522935 L3.74723209,10.2179163 L3.74723209,13.6346996 L3.74723209,17.9506365 C3.74723209,19.3892821 4.81541736,20.5813027 6.19388503,20.7611334 C5.9446418,21.1824511 5.7971305,21.675701 5.7971305,22.1997791 C5.7971305,23.7463231 7.04334665,25 8.56932561,25 C10.0953046,25 11.3415207,23.7411851 11.3415207,22.1997791 C11.3415207,21.6859771 11.2041826,21.1978652 10.960026,20.7868235 L17.1351542,20.7868235 C16.8909976,21.2030032 16.7536594,21.6859771 16.7536594,22.1997791 C16.7536594,23.7463231 17.9998756,25 19.5258546,25 C21.0518335,25 22.2980497,23.7411851 22.2980497,22.1997791 C22.2980497,20.658373 21.0518335,19.3995581 19.5258546,19.3995581 L6.55503338,19.3995581 C5.76152432,19.3995581 5.12061316,18.7470296 5.12061316,17.9506365 L5.12061316,16.0701211 C5.53771407,16.3167461 6.03111394,16.4606107 6.55503338,16.4606107 Z M9.97322626,22.194641 C9.97322626,22.9756201 9.34248829,23.6075966 8.57441221,23.6075966 C7.80633613,23.6075966 7.17559816,22.9704821 7.17559816,22.194641 C7.17559816,21.4188 7.80633613,20.7816855 8.57441221,20.7816855 C9.34248829,20.7816855 9.97322626,21.413662 9.97322626,22.194641 Z M20.9297552,22.194641 C20.9297552,22.9756201 20.2990172,23.6075966 19.5309412,23.6075966 C18.7628651,23.6075966 18.1321271,22.9704821 18.1321271,22.194641 C18.1321271,21.4188 18.7628651,20.7816855 19.5309412,20.7816855 C20.2990172,20.7816855 20.9297552,21.413662 20.9297552,22.194641 Z M20.1921987,15.0733452 L6.55503338,15.0733452 C5.76152432,15.0733452 5.12061316,14.4208167 5.12061316,13.6244236 L5.12061316,10.2076402 L5.12061316,6.38495331 L5.12061316,6.12805231 L21.6266189,8.42474727 L21.6266189,13.6192856 C21.6266189,14.4259547 20.9806212,15.0733452 20.1921987,15.0733452 Z" id="Shape"></path>
                                </g>
                            </g>
                        </g>
                    </g>
                </g>
            </g>
        </g>
    </g>
</svg>