<?xml version="1.0" encoding="UTF-8"?>
<svg width="23px" height="18px" viewBox="0 0 23 18" version="1.1" xmlns="http://www.w3.org/2000/svg" xmlns:xlink="http://www.w3.org/1999/xlink">
    <!-- Generator: Sketch 51.2 (57519) - http://www.bohemiancoding.com/sketch -->
    <title>credit-card</title>
    <desc>Created with Sketch.</desc>
    <defs></defs>
    <g id="Symbols" stroke="none" stroke-width="1" fill="none" fill-rule="evenodd">
        <g id="Rodape" transform="translate(-603.000000, -86.000000)" fill="#FFFFFF">
            <g id="Infos-adicionais">
                <g transform="translate(0.000000, 44.000000)">
                    <g id="Group-26" transform="translate(107.000000, 39.000000)">
                        <g id="cartao-credito" transform="translate(496.000000, 0.000000)">
                            <g id="credit-card" transform="translate(0.000000, 3.000000)">
                                <path d="M21.8763,0.582463636 C21.5103682,0.216531818 21.0704727,0.0335863636 20.5566545,0.0335863636 L1.86876818,0.0335863636 C1.35486818,0.0335863636 0.915054545,0.216490909 0.548877273,0.582463636 C0.182904545,0.948477273 0,1.38829091 0,1.90223182 L0,16.1047636 C0,16.6188273 0.182904545,17.0586818 0.548877273,17.4246545 C0.915054545,17.7906273 1.35486818,17.9736136 1.86876818,17.9736136 L20.5566545,17.9736136 C21.0704727,17.9736136 21.5103273,17.7906273 21.8763,17.4246545 C22.2422318,17.0587227 22.4253818,16.6188682 22.4253818,16.1047636 L22.4253818,1.90223182 C22.4253818,1.38829091 22.2422318,0.948477273 21.8763,0.582463636 L21.8763,0.582463636 Z M20.9301955,16.10505 C20.9301955,16.2064227 20.8932545,16.2937636 20.8192909,16.3679727 C20.7453682,16.4416091 20.6577409,16.47855 20.5566545,16.47855 L1.86876818,16.47855 C1.7676,16.47855 1.67997273,16.4416091 1.60600909,16.3676864 C1.53208636,16.2935182 1.49506364,16.2061364 1.49506364,16.1047636 L1.49506364,9.0036 L20.9302364,9.0036 L20.9302364,16.10505 L20.9301955,16.10505 Z M20.9301955,4.51836818 L1.49502273,4.51836818 L1.49502273,1.90206818 C1.49502273,1.80085909 1.53192273,1.71343636 1.60596818,1.63930909 C1.67997273,1.56555 1.7676,1.52852727 1.86872727,1.52852727 L20.5566136,1.52852727 C20.6577,1.52852727 20.7453273,1.56538636 20.81925,1.63930909 C20.8932136,1.71343636 20.9301545,1.80085909 20.9301545,1.90206818 L20.9301545,4.51836818 L20.9301955,4.51836818 L20.9301955,4.51836818 Z" id="Shape"></path>
                                <rect id="Rectangle-path" x="2.99012727" y="13.4885045" width="2.99000455" height="1.49514545"></rect>
                                <rect id="Rectangle-path" x="7.47523636" y="13.4885045" width="4.48502727" height="1.49514545"></rect>
                            </g>
                        </g>
                    </g>
                </g>
            </g>
        </g>
    </g>
</svg>