<?xml version="1.0" encoding="UTF-8"?>
<svg width="206px" height="38px" viewBox="0 0 206 38" version="1.1" xmlns="http://www.w3.org/2000/svg" xmlns:xlink="http://www.w3.org/1999/xlink">
    <!-- Generator: Sketch 51.2 (57519) - http://www.bohemiancoding.com/sketch -->
    <title>logo2</title>
    <desc>Created with Sketch.</desc>
    <defs></defs>
    <g id="Loja" stroke="none" stroke-width="1" fill="none" fill-rule="evenodd">
        <g id="Sua-Conta" transform="translate(-40.000000, -19.000000)">
            <g id="Menu-Topo-2">
                <g id="logo2">
                    <g transform="translate(40.000000, 19.000000)">
                        <path d="M95.2843265,11.3026523 C95.5305371,9.86149551 95.0916747,7.62144938 91.9085235,7.62144938 C89.0467251,7.62144938 87.4791311,9.7328842 87.0206838,11.3026523 L95.2843265,11.3026523 Z M86.7480935,12.9244962 C86.3575939,15.9878915 88.6134584,17.2491503 91.4428817,17.2491503 C93.4689231,17.2491503 94.7323511,16.9658898 95.8466939,16.6056992 L96.0885078,18.2275431 C95.0381159,18.5881282 93.2726741,19 90.7969786,19 C86.0066639,19 83.5189776,16.4770879 84.0773481,12.7189548 C84.6357185,8.96042729 87.8408528,6 92.3741653,6 C97.4546569,6 98.2732271,9.57823501 97.9326891,11.8691733 C97.863942,12.3327264 97.7464324,12.692917 97.6796837,12.9244962 L86.7480935,12.9244962 Z" id="Fill-1" fill="#FFFFFF"></path>
                        <path d="M101.309162,9.72934985 C101.494856,8.41606811 101.615809,7.3398452 101.670471,6.28897833 L104.102714,6.28897833 L103.962377,8.38990712 L104.024792,8.38990712 C104.943571,7.1820743 106.857111,6 109.351769,6 C111.441311,6 114.536083,7.05086687 113.920462,11.4100929 L112.848942,19 L110.104237,19 L111.138928,11.6729102 C111.428518,9.62430341 110.765214,7.91739938 108.17674,7.91739938 C106.367871,7.91739938 104.81215,8.99442724 104.162803,10.2811455 C103.997655,10.5697214 103.879416,10.9633437 103.823591,11.3577709 L102.744317,19 L100,19 L101.309162,9.72934985 Z" id="Fill-3" fill="#FFFFFF"></path>
                        <path d="M119.873412,6 L121.788894,13.3055538 C122.117957,14.4877462 122.369884,15.5616807 122.529856,16.6364385 L122.621811,16.6364385 C123.103626,15.5616807 123.677017,14.4877462 124.326023,13.3055538 L128.187765,6 L131,6 L123.432689,19 L120.865161,19 L117,6 L119.873412,6 Z" id="Fill-5" fill="#FFFFFF"></path>
                        <path d="M143.283713,11.3026523 C143.530319,9.86149551 143.091465,7.62144938 139.908377,7.62144938 C137.046635,7.62144938 135.479471,9.7328842 135.020633,11.3026523 L143.283713,11.3026523 Z M134.748049,12.9244962 C134.356757,15.9878915 136.613776,17.2491503 139.442744,17.2491503 C141.468346,17.2491503 142.732149,16.9658898 143.846469,16.6056992 L144.088278,18.2275431 C143.037907,18.5881282 141.2725,19 138.796854,19 C134.006234,19 131.518996,16.4770879 132.077356,12.7189548 C132.635316,8.96042729 135.840387,6 140.374009,6 C145.454401,6 146.272955,9.57823501 145.932823,11.8691733 C145.863678,12.3327264 145.74617,12.692917 145.679423,12.9244962 L134.748049,12.9244962 Z" id="Fill-7" fill="#FFFFFF"></path>
                        <polygon id="Fill-9" fill="#FFFFFF" points="151.448273 0 154 0 151.551727 18 149 18"></polygon>
                        <path d="M158.873928,12.5257897 C158.478921,15.2488718 160.092452,17.3045704 162.787383,17.3045704 C165.419596,17.3045704 167.688356,15.2744647 168.094661,12.4742103 C168.400071,10.3677197 167.502539,7.69542963 164.243145,7.69542963 C160.984529,7.69542963 159.216735,10.1621892 158.873928,12.5257897 M170.925936,12.3970379 C170.25941,16.9962746 166.082227,19 162.415749,19 C158.311023,19 155.503511,16.5336342 156.073428,12.6029621 C156.676846,8.44077294 160.353063,6 164.552061,6 C168.908048,6 171.477543,8.59511767 170.925936,12.3970379" id="Fill-11" fill="#FFFFFF"></path>
                        <path d="M177.17316,13.7401035 C177.125144,14.0780663 177.142956,14.3901544 177.164641,14.6755717 C177.43725,16.2598965 178.932339,17.3506126 180.894812,17.3506126 C183.791668,17.3506126 185.755303,15.3765757 186.16654,12.4937414 C186.5255,9.97394843 185.244549,7.81799283 182.347306,7.81799283 C180.478542,7.81799283 178.574927,8.93537972 177.800858,10.6490778 C177.666489,10.9352913 177.524764,11.2728559 177.48062,11.584546 L177.17316,13.7401035 Z M174.940401,10.3899332 C175.170415,8.77933566 175.293554,7.48042815 175.40159,6.28541731 L177.862427,6.28541731 L177.679655,8.4413729 L177.741999,8.4413729 C179.081809,6.90919545 180.98736,6 183.447809,6 C187.092403,6 189.466887,8.57154231 188.922444,12.3898448 C188.278096,16.9091512 184.657511,19.1431288 181.106626,19.1431288 C179.113175,19.1431288 177.472101,18.4158521 176.746435,17.1686939 L176.684091,17.1686939 L175.710211,24 L173,24 L174.940401,10.3899332 Z" id="Fill-13" fill="#FFFFFF"></path>
                        <g id="Group-17" transform="translate(191.000000, 6.000000)" fill="#FFFFFF">
                            <path d="M11.6432334,5.16165451 C11.8928156,3.76006944 11.4486645,1.58153125 8.22715252,1.58153125 C5.33086605,1.58153125 3.74478515,3.63498958 3.28040849,5.16165451 L11.6432334,5.16165451 Z M3.00453316,6.73896528 C2.60851857,9.71824479 4.89237798,10.9448715 7.7558992,10.9448715 C9.80595225,10.9448715 11.0850106,10.6693889 12.2127825,10.3190885 L12.4575106,11.8963993 C11.3944602,12.2470833 9.60774271,12.6476458 7.1022122,12.6476458 C2.25376393,12.6476458 -0.263497347,10.1940087 0.301602122,6.53906771 C0.866297082,2.88374306 4.11005703,0.00460416667 8.69840584,0.00460416667 C13.8401233,0.00460416667 14.6685584,3.48458681 14.324321,5.71261979 C14.2543408,6.16344444 14.1354151,6.51374479 14.0678621,6.73896528 L3.00453316,6.73896528 Z" id="Fill-15"></path>
                        </g>
                        <path d="M86.402066,25 L86.0098107,27.6346702 L89,27.6346702 L88.8109418,28.9046735 L85.8207525,28.9046735 L85.0839104,33.8530328 C84.9142428,34.9901889 85.2220683,35.6349354 86.3846953,35.6349354 C86.9308633,35.6349354 87.3425092,35.5784554 87.6119575,35.52118 L87.5206602,36.7724892 C87.0972992,36.9053364 86.442867,37 85.636138,37 C84.6625693,37 83.9164358,36.7533974 83.4858033,36.2983759 C82.9658934,35.8055684 82.8737881,34.9901889 83.0345683,33.9099105 L83.7798938,28.9046735 L82,28.9046735 L82.1890582,27.6346702 L83.968952,27.6346702 L84.2961681,25.4359297 L86.402066,25 Z" id="Fill-18" fill="#FFFFFF"></path>
                        <path d="M93.9891102,25.0590886 C93.9294119,25.6369203 93.3518014,26.0987815 92.5393513,26.0987815 C91.8190184,26.0987815 91.3746418,25.6369203 91.4576659,25.0590886 C91.5430622,24.4614572 92.1436031,24 92.8864711,24 C93.6530603,24 94.0745064,24.4614572 93.9891102,25.0590886 Z M90,37 L91.3370833,27.6779187 L93.3810575,27.6779187 L92.0439742,37 L90,37 Z" id="Fill-20" fill="#FFFFFF"></path>
                        <path d="M95.980993,29.5817827 C96.1201692,28.6727419 96.2104348,27.9269699 96.25179,27.1998898 L98.0507412,27.1998898 L97.9270732,28.6185733 L97.9970589,28.6185733 C98.7557678,27.7820116 99.926438,27 101.795375,27 C103.337049,27 104.393992,27.7274615 104.726027,28.7631501 L104.772551,28.7631501 C105.19843,28.2725809 105.70026,27.8907303 106.209645,27.6183614 C106.947676,27.2185818 107.728653,27 108.80349,27 C110.29864,27 112.400597,27.7633196 111.933761,30.8177426 L111.142047,36 L109.133139,36 L109.894631,31.0183953 C110.153101,29.3273429 109.514482,28.3088204 107.8559,28.3088204 C106.688013,28.3088204 105.674015,28.9817319 105.203998,29.7637435 C105.077546,29.9815623 104.962626,30.2730047 104.918488,30.5636841 L104.087407,36 L102.078499,36 L102.88413,30.7273344 C103.098064,29.3273429 102.459444,28.3088204 100.894309,28.3088204 C99.609514,28.3088204 98.5529682,29.1091425 98.1036281,29.9090832 C97.9505343,30.145594 97.8622569,30.417963 97.820504,30.6907133 L97.0093059,36 L95,36 L95.980993,29.5817827 Z" id="Fill-22" fill="#FFFFFF"></path>
                        <path d="M116.538154,33.0193802 C116.509367,33.2328532 116.524518,33.4467336 116.542699,33.6406518 C116.759357,34.8253456 117.7828,35.6413502 119.206984,35.6413502 C121.254249,35.6413502 122.676539,34.1845191 122.970088,32.0294195 C123.226896,30.1456424 122.334129,28.5340026 120.242548,28.5340026 C118.907375,28.5340026 117.553264,29.3300451 116.974878,30.6312527 C116.904048,30.825171 116.805567,31.0586061 116.768447,31.3303361 L116.538154,33.0193802 Z M114,36.786527 C114.131434,36.1457006 114.305669,35.194442 114.41968,34.35929 L115.967723,23 L117.903628,23 L117.099116,28.9030991 L117.143811,28.9030991 C117.976731,27.854474 119.315313,27.1749454 121.050848,27.1749454 C123.721194,27.1749454 125.348021,29.1165721 124.936674,31.9711625 C124.478738,35.3301033 121.825438,37 119.422506,37 C117.864615,37 116.690042,36.4756875 116.058628,35.2331442 L115.991964,35.2331442 L115.691219,36.786527 L114,36.786527 Z" id="Fill-24" fill="#FFFFFF"></path>
                        <path d="M127.931918,29.9453228 C128.09131,28.9088713 128.205046,28.018141 128.260312,27.1998898 L130.072087,27.1998898 L129.876652,28.9271818 L129.971165,28.9271818 C130.670404,27.7453906 132.032038,27 133.420104,27 C133.655186,27 133.817381,27.017929 134,27.0545501 L133.767721,28.5636418 C133.561474,28.5270207 133.352423,28.5090917 133.070084,28.5090917 C131.611534,28.5090917 130.444934,29.3635824 129.977974,30.5636841 C129.897076,30.781503 129.810973,31.0359429 129.768923,31.3086933 L129.046856,36 L127,36 L127.931918,29.9453228 Z" id="Fill-26" fill="#FFFFFF"></path>
                        <path d="M140.905466,31.9011071 C138.759989,31.8613012 136.27238,32.1975785 136.021788,34.0551893 C135.869984,35.1813658 136.649602,35.7150143 137.65769,35.7150143 C139.0697,35.7150143 140.072067,34.9247004 140.49506,34.1144836 C140.5866,33.9366007 140.657925,33.7388149 140.681955,33.5613468 L140.905466,31.9011071 Z M140.538542,36.7823112 L140.544644,35.5769374 L140.477515,35.5769374 C139.771128,36.32786 138.514737,37 136.969231,37 C134.773025,37 133.836644,35.6362317 134.023157,34.2529751 C134.334776,31.940913 136.836116,30.6758303 141.023705,30.6953187 L141.050023,30.4979475 C141.15682,29.7076336 141.102278,28.2841564 138.88395,28.2841564 C137.875862,28.2841564 136.785006,28.5611394 135.964575,28.9956877 L135.670883,27.8496082 C136.636634,27.335448 137.981514,27 139.348517,27 C142.664566,27 143.201984,28.9956877 142.943764,30.9130074 L142.46127,34.4897375 C142.349515,35.3198574 142.284674,36.1300742 142.331207,36.7823112 L140.538542,36.7823112 Z" id="Fill-28" fill="#FFFFFF"></path>
                        <path d="M154.758033,31.2134148 C154.788757,30.9999418 154.807112,30.7086571 154.766812,30.4951841 C154.61838,29.4074494 153.621649,28.5144478 152.074284,28.5144478 C149.941568,28.5144478 148.452857,30.0674233 148.154397,32.145526 C147.881473,34.0484505 148.780845,35.6209806 151.007727,35.6209806 C152.390301,35.6209806 153.764894,34.8640477 154.323909,33.5823949 C154.428051,33.3493671 154.484711,33.1163393 154.523814,32.8446093 L154.758033,31.2134148 Z M158,23 L156.369241,34.35929 C156.249139,35.1940346 156.135819,36.1452932 156.113874,36.786527 L154.262461,36.786527 L154.402514,35.1553325 L154.35583,35.1553325 C153.572571,36.2035501 152.075082,37 150.223669,37 C147.481265,37 145.647409,35.0775207 146.057194,32.2233377 C146.482939,29.0970173 149.102448,27.1749454 151.868793,27.1749454 C153.602896,27.1749454 154.677832,27.854474 155.084824,28.611407 L155.131907,28.611407 L155.937112,23 L158,23 Z" id="Fill-30" fill="#FFFFFF"></path>
                        <path d="M161.10751,32.019281 C160.817647,34.1144836 162.000569,35.6951113 163.977191,35.6951113 C165.907654,35.6951113 167.570942,34.1343865 167.869019,31.9798897 C168.093164,30.3590413 167.435203,28.3040594 165.045106,28.3040594 C162.655401,28.3040594 161.359038,30.2010615 161.10751,32.019281 M169.945782,31.9205954 C169.456419,35.4583489 166.393105,37 163.70454,37 C160.694035,37 158.636049,35.1025832 159.053827,32.0789899 C159.49664,28.8770991 162.192246,27 165.271598,27 C168.465957,27 170.349869,28.9956877 169.945782,31.9205954" id="Fill-32" fill="#FFFFFF"></path>
                        <path d="M175.006559,35.5 C175.050453,35.2063438 175.288631,35 175.578617,35 C175.868604,35 176.036983,35.2063438 175.993089,35.5 C175.950634,35.7858117 175.727568,36 175.420672,36 C175.130685,36 174.964105,35.7858117 175.006559,35.5" id="Fill-34" fill="#FFFFFF"></path>
                        <path d="M180.363699,36.7224117 C180.128093,36.8413781 179.618306,37 178.997352,37 C177.60197,37 176.8292,36.0179942 177.032037,34.5494627 C177.236118,33.0715504 178.358148,32 179.868429,32 C180.365773,32 180.787208,32.1292001 181,32.2485929 L180.715863,32.9227358 C180.531692,32.8037694 180.231378,32.6950367 179.772611,32.6950367 C178.711971,32.6950367 178.025894,33.5081869 177.887766,34.5102337 C177.734291,35.6210131 178.328282,36.3053897 179.245817,36.3053897 C179.723665,36.3053897 180.056748,36.1766161 180.310605,36.0678833 L180.363699,36.7224117 Z" id="Fill-36" fill="#FFFFFF"></path>
                        <path d="M181.771637,34.5097689 C181.645281,35.5575943 182.057563,36.3480292 182.772737,36.3480292 C183.471666,36.3480292 184.089727,35.5673632 184.219693,34.4902311 C184.317167,33.6798335 184.100196,32.6519708 183.2352,32.6519708 C182.369842,32.6519708 181.881386,33.6004077 181.771637,34.5097689 M184.971691,34.4604995 C184.75833,36.2295277 183.634123,37 182.660822,37 C181.571273,37 180.84599,36.051563 181.027943,34.5390758 C181.221087,32.938668 182.215688,32 183.330147,32 C184.486845,32 185.148228,32.9977064 184.971691,34.4604995" id="Fill-38" fill="#FFFFFF"></path>
                        <path d="M186.480597,33.4344013 C186.548723,32.9294955 186.595378,32.5153252 186.62139,32.1111401 L187.353846,32.1111401 L187.285307,32.8995398 L187.314209,32.8995398 C187.633781,32.4341408 188.120571,32 188.881103,32 C189.509099,32 189.93024,32.4041851 190.052041,32.9798559 L190.071447,32.9798559 C190.251051,32.7067813 190.460383,32.4949206 190.670954,32.3434054 C190.976901,32.1215594 191.297711,32 191.735368,32 C192.343959,32 193.190783,32.4245897 192.961633,34.1212121 L192.573935,37 L191.755599,37 L192.128846,34.2323522 C192.255189,33.2928714 192.007871,32.72762 191.332807,32.72762 C190.857164,32.72762 190.43561,33.1009812 190.234123,33.535122 C190.180035,33.6566814 190.129663,33.8181818 190.10778,33.9796822 L189.700677,37 L188.882341,37 L189.277058,34.0708518 C189.381931,33.2928714 189.135439,32.72762 188.497534,32.72762 C187.974823,32.72762 187.534276,33.1717461 187.341046,33.6163063 C187.275811,33.7474169 187.236174,33.898932 187.21553,34.0504472 L186.817923,37 L186,37 L186.480597,33.4344013 Z" id="Fill-40" fill="#FFFFFF"></path>
                        <path d="M194.006559,35.5 C194.050453,35.2063438 194.288631,35 194.578617,35 C194.868604,35 195.036983,35.2063438 194.993089,35.5 C194.950634,35.7858117 194.727568,36 194.420672,36 C194.130685,36 193.964105,35.7858117 194.006559,35.5" id="Fill-42" fill="#FFFFFF"></path>
                        <path d="M197.183972,35.009538 C197.168393,35.1163636 197.172721,35.2231893 197.177914,35.32 C197.260567,35.9125484 197.709316,36.3202385 198.347173,36.3202385 C199.264578,36.3202385 199.919744,35.5920715 200.078126,34.5142176 C200.217035,33.5728167 199.836658,32.766617 198.899779,32.766617 C198.301302,32.766617 197.68465,33.1647094 197.409429,33.8152608 C197.375242,33.9124888 197.328074,34.0289121 197.308168,34.1649478 L197.183972,35.009538 Z M196,36.8931744 C196.066642,36.5726975 196.156651,36.0965723 196.2181,35.6792846 L197.052852,30 L197.920493,30 L197.486456,32.9514754 L197.506362,32.9514754 C197.89323,32.4269449 198.501227,32.0872727 199.278858,32.0872727 C200.474947,32.0872727 201.179878,33.0578838 200.960047,34.4850075 C200.712953,36.1650075 199.503449,37 198.426364,37 C197.72879,37 197.209504,36.7379434 196.941206,36.1161848 L196.911347,36.1161848 L196.757725,36.8931744 L196,36.8931744 Z" id="Fill-44" fill="#FFFFFF"></path>
                        <path d="M201.462412,33.6362768 C201.541094,33.0610402 201.6,32.5656855 201.63324,32.1111401 L202.380084,32.1111401 L202.276999,33.0705913 L202.315708,33.0705913 C202.619074,32.4146045 203.189621,32 203.761851,32 C203.858626,32 203.925105,32.0099852 204,32.0303899 L203.884712,32.8682817 C203.800561,32.8487453 203.714727,32.838326 203.597756,32.838326 C202.996914,32.838326 202.50547,33.313276 202.297195,33.9796822 C202.26101,34.1008075 202.222721,34.2423374 202.201683,34.3938526 L201.843619,37 L201,37 L201.462412,33.6362768 Z" id="Fill-46" fill="#FFFFFF"></path>
                        <g id="Group-25" transform="translate(0.000000, 6.000000)">
                            <path d="M68.7685872,6.29185747 C57.3905611,12.578731 50.3621156,15.6672598 43.8171744,15.4859264 C37.2651805,15.3038115 31.3796703,11.8533977 22.283597,5.0619954 C21.5019185,4.47813333 20.7257254,4.12015632 20.0604171,4.07130575 C19.812004,4.05293793 19.5902346,4.07834023 19.4037288,4.1522023 C19.2403404,4.21746667 19.0887065,4.32923678 18.9539208,4.49337471 C18.7345023,4.76107586 18.5581838,5.15852414 18.4398546,5.70447816 L15.9996071,23.6037195 C15.6077883,26.4773057 15.3891534,28.1679264 16.0172389,28.9823632 C16.6562954,29.810869 18.3360226,30.0215126 21.7934316,30.0043172 L65.112526,29.7885931 C70.9909834,29.7592828 71.1222427,28.7513977 71.6739235,24.5213287 C71.7178072,24.1844552 71.7640419,23.8296046 71.8161538,23.4481793 L74.0745973,6.88353563 L74.0785155,6.8550069 C74.297934,5.60404138 74.2156521,4.62507586 73.8798634,3.87590345 C73.5546538,3.15057011 72.9771128,2.61985747 72.1950425,2.24702989 C71.5019151,1.9168 71.074049,1.92735172 70.3750442,1.94493793 C70.2026439,1.94923678 70.0153546,1.95392644 69.7853569,1.95509885 L30.9937288,2.14815632 L29.8453079,2.15401839 C29.8131788,2.15714483 29.7806578,2.15909885 29.7481368,2.15909885 C29.2661997,2.15909885 28.9272765,1.79643218 28.9907511,1.34935172 C29.0546176,0.90188046 29.4965892,0.539604598 29.9781345,0.539604598 C30.0079127,0.539604598 30.0369073,0.540777011 30.0655101,0.543512644 L31.2162819,0.537650575 L70.00791,0.344593103 C70.1983339,0.343811494 70.3895415,0.339121839 70.56586,0.334432184 C71.4921196,0.311374713 72.0586896,0.297305747 73.0625293,0.775650575 C74.1286683,1.28369655 74.9252359,2.0270069 75.3887575,3.06107586 C75.8405246,4.06935172 75.9612048,5.3336046 75.6869316,6.90112184 L73.4316227,23.4419264 C73.3814698,23.810846 73.3348434,24.168823 73.2901761,24.508823 C72.5688377,30.0430069 72.3964374,31.3619724 64.8899729,31.3990989 L21.5708786,31.614823 C17.6115496,31.634754 15.6269874,31.3150759 14.6658559,30.0688 C13.6937535,28.8080644 13.9382484,26.8790529 14.3841382,23.6099724 L16.8318302,5.65523678 L16.8404502,5.59505287 C17.022646,4.74778851 17.3333583,4.08576552 17.7400662,3.59022529 C18.0938786,3.15916782 18.5154756,2.85590345 18.9880091,2.66831724 C19.4370334,2.48971954 19.9130932,2.42484598 20.4032586,2.4608 C21.3573373,2.53075402 22.3933062,2.98682299 23.3795141,3.72309885 C32.245198,10.3425471 37.9351906,13.7042483 44.0902721,13.8754207 C50.2273299,14.0458115 57.0077542,11.0526391 68.0370615,4.96312184 C68.1961399,4.85955862 68.3857802,4.79781149 68.5824732,4.79781149 C69.0542231,4.79781149 69.3860936,5.15266207 69.3237944,5.59075402 C69.2806943,5.8948 69.0585331,6.15898391 68.7685872,6.29185747" id="Fill-48" fill="#FFFFFF"></path>
                            <path d="M21.0498771,23.0429149 L33.9885174,23.0429149 C34.3196043,23.0429149 34.5629238,23.3125701 34.5296192,23.6428 C34.4967064,23.9730299 34.1989241,24.2426851 33.868229,24.2426851 L20.9295887,24.2426851 C20.5985019,24.2426851 20.3551824,23.9730299 20.3880952,23.6428 C20.4213998,23.3125701 20.719182,23.0429149 21.0498771,23.0429149" id="Fill-50" fill="#FFFFFF"></path>
                            <path d="M20.6560209,25.8682368 L51.9008271,25.8682368 C52.236224,25.8682368 52.4830699,26.1418 52.4493735,26.4763287 L52.4493735,26.4767195 C52.415677,26.8112483 52.1139766,27.0848115 51.7785797,27.0848115 L20.5337734,27.0848115 C20.1983765,27.0848115 19.9515307,26.8112483 19.9852271,26.4767195 L19.9852271,26.4763287 C20.0189235,26.1418 20.320624,25.8682368 20.6560209,25.8682368" id="Fill-52" fill="#FFFFFF"></path>
                            <path d="M11.8858624,3.10887126 L13.6529651,3.10887126 C14.0808313,3.10887126 14.4099591,3.45825057 14.3837072,3.8850092 L14.3837072,3.8854 C14.3578472,4.31215862 13.9864029,4.66153793 13.5585368,4.66153793 L11.791434,4.66153793 C11.3635679,4.66153793 11.0344401,4.31215862 11.0603002,3.8854 L11.0603002,3.8850092 C11.086552,3.45825057 11.4576044,3.10887126 11.8858624,3.10887126" id="Fill-54" fill="#FFFFFF"></path>
                            <path d="M6.77133408,7.79106207 L12.6987688,7.79106207 C13.126635,7.79106207 13.4447918,8.14044138 13.4060018,8.5672 L13.4060018,8.5675908 C13.3668199,8.99434943 12.9844047,9.34372874 12.5565386,9.34372874 L6.62910385,9.34372874 C6.20123773,9.34372874 5.88308087,8.99434943 5.92187093,8.5675908 L5.92187093,8.5672 C5.96105281,8.14044138 6.34346795,7.79106207 6.77133408,7.79106207" id="Fill-56" fill="#FFFFFF"></path>
                            <g id="Group-60" transform="translate(0.000000, 12.857140)">
                                <polygon id="Clip-59" points="0 0.111418391 12.1239202 0.111418391 12.1239202 1.66408506 0 1.66408506"></polygon>
                                <path d="M0.878144287,0.111418391 L11.4341345,0.111418391 C11.8620006,0.111418391 12.1699702,0.460797701 12.1182501,0.887556322 L12.1182501,0.887947126 C12.0661382,1.31470575 11.6739276,1.66408506 11.2456696,1.66408506 L0.689679446,1.66408506 C0.26181332,1.66408506 -0.0461562542,1.31470575 0.00556382691,0.887947126 L0.00556382691,0.887556322 C0.0576757268,0.460797701 0.450278161,0.111418391 0.878144287,0.111418391" id="Fill-58" fill="#FFFFFF"></path>
                            </g>
                        </g>
                    </g>
                </g>
            </g>
        </g>
    </g>
</svg>