<?xml version="1.0" encoding="UTF-8"?>
<svg width="183px" height="34px" viewBox="0 0 183 34" version="1.1" xmlns="http://www.w3.org/2000/svg" xmlns:xlink="http://www.w3.org/1999/xlink">
    <!-- Generator: Sketch 51.2 (57519) - http://www.bohemiancoding.com/sketch -->
    <title>logo</title>
    <desc>Created with Sketch.</desc>
    <defs>
        <polygon id="path-1" points="0.193537442 0.00425 12.4730977 0.00425 12.4730977 11.67475 0.193537442 11.67475"></polygon>
    </defs>
    <g id="Loja" stroke="none" stroke-width="1" fill="none" fill-rule="evenodd">
        <g id="Fale-Conosco" transform="translate(-40.000000, -21.000000)">
            <g id="Menu-Topo" transform="translate(0.000000, -1.000000)">
                <g id="logo" transform="translate(40.000000, 22.000000)">
                    <path d="M84.8207454,9.7288875 C85.0366994,8.43511667 84.6517684,6.42415833 81.8597914,6.42415833 C79.3496764,6.42415833 77.9747224,8.31965833 77.5726132,9.7288875 L84.8207454,9.7288875 Z M77.3335213,11.1848667 C76.9910098,13.9349708 78.9696534,15.0672417 81.4513718,15.0672417 C83.2284351,15.0672417 84.3366017,14.81295 85.314004,14.4895958 L85.5261017,15.945575 C84.6047914,16.2692833 83.0563029,16.6390333 80.8848431,16.6390333 C76.6832052,16.6390333 74.5012282,14.3741375 74.990981,11.0003458 C75.4807339,7.6262 78.2919925,4.96853333 82.2682109,4.96853333 C86.7243661,4.96853333 87.4423431,8.180825 87.1436534,10.2374708 C87.0833546,10.6536167 86.9802856,10.9769708 86.9217397,11.1848667 L77.3335213,11.1848667 Z" id="Fill-1" fill="#FFFFFF"></path>
                    <path d="M90.5045782,8.24995833 C90.6725034,7.0943125 90.7818828,6.14727083 90.8313138,5.22254167 L93.0308195,5.22254167 L92.9039115,7.07129167 L92.960354,7.07129167 C93.7912161,6.0084375 95.5216529,4.96825 97.7776011,4.96825 C99.6671989,4.96825 102.465837,5.89297917 101.909124,9.72895833 L100.940136,16.4078333 L98.4580667,16.4078333 L99.3937506,9.96022917 C99.6556299,8.15752083 99.0557966,6.6555 96.7150092,6.6555 C95.0792276,6.6555 93.6723713,7.60325 93.0851586,8.73552083 C92.9358138,8.98945833 92.8288885,9.33583333 92.7784057,9.68291667 L91.8024057,16.4078333 L89.3206874,16.4078333 L90.5045782,8.24995833 Z" id="Fill-3" fill="#FFFFFF"></path>
                    <path d="M107.553307,5.22257708 L109.320554,11.5083271 C109.624152,12.5254938 109.856583,13.4495146 110.004175,14.3742438 L110.089014,14.3742438 C110.533543,13.4495146 111.06256,12.5254938 111.661341,11.5083271 L115.224232,5.22257708 L117.818836,5.22257708 L110.83714,16.4078688 L108.468307,16.4078688 L104.902261,5.22257708 L107.553307,5.22257708 Z" id="Fill-5" fill="#FFFFFF"></path>
                    <path d="M128.161911,9.7288875 C128.378216,8.43511667 127.993285,6.42415833 125.201308,6.42415833 C122.691193,6.42415833 121.31659,8.31965833 120.91413,9.7288875 L128.161911,9.7288875 Z M120.675038,11.1848667 C120.331825,13.9349708 122.311521,15.0672417 124.792889,15.0672417 C126.569601,15.0672417 127.678118,14.81295 128.655521,14.4895958 L128.867618,15.945575 C127.946308,16.2692833 126.39782,16.6390333 124.22636,16.6390333 C120.024371,16.6390333 117.842745,14.3741375 118.332498,11.0003458 C118.8219,7.6262 121.633159,4.96853333 125.609728,4.96853333 C130.065883,4.96853333 130.78386,8.180825 130.485521,10.2374708 C130.424871,10.6536167 130.321802,10.9769708 130.263256,11.1848667 L120.675038,11.1848667 Z" id="Fill-7" fill="#FFFFFF"></path>
                    <polygon id="Fill-9" fill="#FFFFFF" points="135.043307 0 137.525026 0 135.143922 16.4078333 132.662204 16.4078333"></polygon>
                    <path d="M141.648416,10.8384208 C141.292933,13.2878375 142.745013,15.1369417 145.170289,15.1369417 C147.539122,15.1369417 149.58087,13.3108583 149.946519,10.792025 C150.22137,8.89723333 149.413645,6.49350417 146.480387,6.49350417 C143.547829,6.49350417 141.956921,8.71235833 141.648416,10.8384208 M152.494496,10.7226083 C151.894663,14.8596292 148.13545,16.6619833 144.835841,16.6619833 C141.141835,16.6619833 138.615243,14.4434833 139.128134,10.9078375 C139.671174,7.16394167 142.979548,4.9684625 146.758393,4.9684625 C150.678519,4.9684625 152.99091,7.302775 152.494496,10.7226083" id="Fill-11" fill="#FFFFFF"></path>
                    <path d="M157.912488,11.8549146 C157.869017,12.1556021 157.885143,12.4332688 157.904775,12.6872063 C158.15158,14.0967896 159.505149,15.0672063 161.281861,15.0672063 C163.904511,15.0672063 165.682275,13.3108938 166.054586,10.7460188 C166.379568,8.50414375 165.219867,6.58597708 162.596867,6.58597708 C160.904994,6.58597708 159.181568,7.58012292 158.48077,9.10481042 C158.35912,9.35945625 158.23081,9.65978958 158.190844,9.93710208 L157.912488,11.8549146 Z M155.891074,8.87424792 C156.099316,7.44128958 156.210798,6.28564375 156.308609,5.22243542 L158.536511,5.22243542 L158.37104,7.14060208 L158.427482,7.14060208 C159.640471,5.77741458 161.365649,4.96849792 163.593201,4.96849792 C166.89281,4.96849792 169.042534,7.25641458 168.549626,10.6535813 C167.96627,14.6744354 164.688396,16.6620188 161.473626,16.6620188 C159.668867,16.6620188 158.183132,16.0149563 157.526155,14.9053521 L157.469712,14.9053521 L156.588017,20.9832062 L154.134344,20.9832062 L155.891074,8.87424792 Z" id="Fill-13" fill="#FFFFFF"></path>
                    <g id="Group-17" transform="translate(170.379310, 4.964283)">
                        <mask id="mask-2" fill="white">
                            <use xlink:href="#path-1"></use>
                        </mask>
                        <g id="Clip-16"></g>
                        <path d="M10.0908023,4.76460417 C10.3071069,3.47083333 9.92217586,1.459875 7.13019885,1.459875 C4.62008391,1.459875 3.24548046,3.355375 2.84302069,4.76460417 L10.0908023,4.76460417 Z M2.60392874,6.22058333 C2.26071609,8.9706875 4.24006092,10.1029583 6.72177931,10.1029583 C8.49849195,10.1029583 9.6070092,9.84866667 10.5844115,9.5253125 L10.7965092,10.9812917 C9.87519885,11.305 8.32671034,11.67475 6.15525057,11.67475 C1.95326207,11.67475 -0.228364368,9.40985417 0.261388506,6.0360625 C0.750790805,2.66191667 3.56204943,0.00425 7.53861839,0.00425 C11.9947736,0.00425 12.7127506,3.21654167 12.4144115,5.2731875 C12.3537621,5.68933333 12.2506931,6.0126875 12.1921471,6.22058333 L2.60392874,6.22058333 Z" id="Fill-15" fill="#FFFFFF" mask="url(#mask-2)"></path>
                    </g>
                    <path d="M76.847204,22.3920813 L76.506796,24.7380813 L79.10175,24.7380813 L78.937681,25.8689354 L76.342727,25.8689354 L75.7032787,30.2751229 C75.5560374,31.2876854 75.8231753,31.8617896 76.8321293,31.8617896 C77.3061063,31.8617896 77.663342,31.8114979 77.8971753,31.7604979 L77.8179454,32.8747063 C77.4505431,32.9929979 76.8826121,33.0772896 76.1825144,33.0772896 C75.3376293,33.0772896 74.6901178,32.8577063 74.3164052,32.4525396 C73.8652155,32.0137271 73.7852845,31.2876854 73.9248132,30.3257688 L74.5716236,25.8689354 L73.0269914,25.8689354 L73.1910603,24.7380813 L74.7356925,24.7380813 L75.019658,22.7802479 L76.847204,22.3920813 Z" id="Fill-18" fill="#FFFFFF"></path>
                    <path d="M83.4922075,22.44255 C83.4392707,22.9490083 82.927081,23.3538208 82.20665,23.3538208 C81.5679029,23.3538208 81.1738569,22.9490083 81.2474776,22.44255 C81.3232017,21.9187375 81.8557247,21.5142792 82.5144546,21.5142792 C83.194219,21.5142792 83.5679316,21.9187375 83.4922075,22.44255 Z M79.9549086,32.9085292 L81.1405523,24.7379042 L82.9530236,24.7379042 L81.7673799,32.9085292 L79.9549086,32.9085292 Z" id="Fill-20" fill="#FFFFFF"></path>
                    <path d="M85.6389868,26.9495333 C85.7616879,26.1055542 85.8412684,25.4131583 85.8777282,24.7381167 L87.4637282,24.7381167 L87.3546994,26.0552625 L87.4164006,26.0552625 C88.0852971,25.278575 89.1173891,24.5525333 90.7650902,24.5525333 C92.1242684,24.5525333 93.056096,25.2279292 93.3488259,26.1894917 L93.3898431,26.1894917 C93.7653086,25.7340333 94.2077339,25.3795125 94.6568201,25.1266375 C95.3074868,24.7554708 95.9960155,24.5525333 96.943619,24.5525333 C98.2617799,24.5525333 100.114918,25.2612208 99.7033431,28.0970333 L99.0053489,32.9083875 L97.2342454,32.9083875 L97.905596,28.283325 C98.1334695,26.7133042 97.5704466,25.7676792 96.1081994,25.7676792 C95.0785615,25.7676792 94.184596,26.3924292 93.7702167,27.1184708 C93.6587339,27.3207 93.5574178,27.5912833 93.518504,27.8611583 L92.7858029,32.9083875 L91.0146994,32.9083875 L91.7249638,28.0130958 C91.913573,26.7133042 91.35055,25.7676792 89.9706879,25.7676792 C88.837981,25.7676792 87.906504,26.5107208 87.5103546,27.2534083 C87.3753833,27.4729917 87.2975557,27.7258667 87.2607454,27.9790958 L86.545573,32.9083875 L84.774119,32.9083875 L85.6389868,26.9495333 Z" id="Fill-22" fill="#FFFFFF"></path>
                    <path d="M104.217729,29.6334438 C104.191085,29.8190271 104.205108,30.0049646 104.221936,30.1735479 C104.422464,31.2034646 105.369717,31.9128604 106.687878,31.9128604 C108.582734,31.9128604 109.899143,30.6463604 110.170838,28.7728188 C110.408528,27.1351521 109.582223,25.7340688 107.646349,25.7340688 C106.410574,25.7340688 105.157269,26.4261104 104.621941,27.5573188 C104.556384,27.7259021 104.465234,27.9288396 104.430878,28.1650688 L104.217729,29.6334438 Z M101.868528,32.9084229 C101.990177,32.3513187 102.151441,31.5243396 102.256964,30.7982979 L103.689763,20.9230687 L105.481551,20.9230687 L104.73693,26.0549437 L104.778298,26.0549437 C105.549211,25.1433187 106.788143,24.5525687 108.394476,24.5525687 C110.866028,24.5525687 112.371746,26.2405271 111.991022,28.7221729 C111.567177,31.6422771 109.111401,33.0940062 106.887355,33.0940062 C105.445441,33.0940062 104.358309,32.6381937 103.773901,31.5579854 L103.7122,31.5579854 L103.433844,32.9084229 L101.868528,32.9084229 Z" id="Fill-24" fill="#FFFFFF"></path>
                    <path d="M114.485045,27.2870896 C114.624574,26.3248187 114.724137,25.4978396 114.772517,24.7381521 L116.358517,24.7381521 L116.187436,26.3418187 L116.270172,26.3418187 C116.882275,25.2446104 118.074229,24.5525687 119.289321,24.5525687 C119.495109,24.5525687 119.637091,24.5692146 119.796953,24.6032146 L119.59362,26.0042979 C119.413074,25.9702979 119.230074,25.9536521 118.982919,25.9536521 C117.706126,25.9536521 116.684902,26.7469854 116.276132,27.8611937 C116.205316,28.0634229 116.129942,28.2996521 116.093132,28.5528812 L115.461045,32.9084229 L113.669258,32.9084229 L114.485045,27.2870896 Z" id="Fill-26" fill="#FFFFFF"></path>
                    <path d="M126.26078,28.7390667 C124.288797,28.7050667 122.002349,28.9922958 121.772021,30.5789625 C121.632493,31.5408792 122.349067,31.9966917 123.275636,31.9966917 C124.573464,31.9966917 125.494774,31.32165 125.883561,30.6296083 C125.967699,30.4776708 126.033257,30.3087333 126.055343,30.15715 L126.26078,28.7390667 Z M125.923527,32.9083167 L125.929136,31.8787542 L125.867435,31.8787542 C125.218171,32.52015 124.063378,33.0942542 122.642849,33.0942542 C120.62424,33.0942542 119.763579,31.9294 119.93501,30.7479 C120.221429,28.7730667 122.520498,27.6925042 126.369458,27.70915 L126.393648,27.5405667 C126.491809,26.865525 126.441676,25.6496708 124.402734,25.6496708 C123.476165,25.6496708 122.473521,25.8862542 121.719435,26.2574208 L121.449493,25.2785042 C122.337148,24.8393375 123.573274,24.5528167 124.829734,24.5528167 C127.87763,24.5528167 128.37159,26.2574208 128.134251,27.8950875 L127.690774,30.9501292 C127.588056,31.6591708 127.528458,32.3512125 127.571228,32.9083167 L125.923527,32.9083167 Z" id="Fill-28" fill="#FFFFFF"></path>
                    <path d="M137.830762,28.0635646 C137.857756,27.8779813 137.873883,27.6247521 137.838475,27.4391688 C137.708061,26.4935438 136.832325,25.7172104 135.472797,25.7172104 C133.598975,25.7172104 132.29098,27.0672938 132.028751,28.8738979 C131.788957,30.5282104 132.579153,31.8952938 134.53571,31.8952938 C135.750452,31.8952938 136.958182,31.2372521 137.449337,30.1230438 C137.540837,29.9204604 137.590618,29.7178771 137.624975,29.4816479 L137.830762,28.0635646 Z M140.679182,20.9232104 L139.246383,30.7984396 C139.14086,31.5241271 139.041297,32.3511063 139.022015,32.9085646 L137.395348,32.9085646 L137.5184,31.4904813 L137.477383,31.4904813 C136.789205,32.4017521 135.473498,33.0941479 133.846831,33.0941479 C131.437331,33.0941479 129.82609,31.4228354 130.18613,28.9415438 C130.560193,26.2236688 132.861716,24.5527104 135.292251,24.5527104 C136.815848,24.5527104 137.760297,25.1434604 138.117883,25.8015021 L138.159251,25.8015021 L138.86671,20.9232104 L140.679182,20.9232104 Z" id="Fill-30" fill="#FFFFFF"></path>
                    <path d="M143.649847,28.8400396 C143.390071,30.6296437 144.450209,31.9797271 146.221663,31.9797271 C147.951749,31.9797271 149.442393,30.6466437 149.70953,28.8063937 C149.91041,27.4219562 149.320743,25.6667062 147.178732,25.6667062 C145.037071,25.6667062 143.875266,27.2870187 143.649847,28.8400396 M151.570732,28.7557479 C151.132163,31.7774979 148.386812,33.0942896 145.977312,33.0942896 C143.279289,33.0942896 141.434916,31.4736229 141.809329,28.8910396 C142.20618,26.1561646 144.62199,24.5528521 147.381714,24.5528521 C150.244507,24.5528521 151.932875,26.2574562 151.570732,28.7557479" id="Fill-32" fill="#FFFFFF"></path>
                    <path d="M156.747774,32.2606521 C156.790544,31.9557146 157.022624,31.7414438 157.305187,31.7414438 C157.587751,31.7414438 157.75182,31.9557146 157.709049,32.2606521 C157.667682,32.5574438 157.450325,32.7798604 157.151285,32.7798604 C156.868722,32.7798604 156.706406,32.5574438 156.747774,32.2606521" id="Fill-34" fill="#FFFFFF"></path>
                    <path d="M161.336411,32.5407979 C161.137284,32.6396104 160.706428,32.7713604 160.181618,32.7713604 C159.002284,32.7713604 158.349164,31.9557146 158.520595,30.7359646 C158.693078,29.5084229 159.641382,28.6184021 160.917825,28.6184021 C161.338164,28.6184021 161.694348,28.7257146 161.874193,28.8248813 L161.634049,29.3848188 C161.478394,29.2860063 161.224578,29.1956938 160.836842,29.1956938 C159.940422,29.1956938 159.360572,29.8710896 159.24383,30.7033813 C159.114118,31.6259854 159.616141,32.1944229 160.391612,32.1944229 C160.795474,32.1944229 161.076986,32.0874646 161.291537,31.9971521 L161.336411,32.5407979 Z" id="Fill-36" fill="#FFFFFF"></path>
                    <path d="M162.862287,30.7032396 C162.739586,31.5769688 163.139943,32.2360729 163.834431,32.2360729 C164.513144,32.2360729 165.113328,31.5851146 165.239534,30.6869479 C165.33419,30.0111979 165.123494,29.1541146 164.283517,29.1541146 C163.44319,29.1541146 162.968862,29.9449688 162.862287,30.7032396 M165.969782,30.6621563 C165.762592,32.1372604 164.670902,32.7797188 163.725753,32.7797188 C162.667718,32.7797188 161.963414,31.9888646 162.140103,30.7276771 C162.327661,29.3931771 163.293494,28.6104687 164.375718,28.6104687 C165.49896,28.6104687 166.141213,29.4424063 165.969782,30.6621563" id="Fill-38" fill="#FFFFFF"></path>
                    <path d="M166.989779,29.7804583 C167.047624,29.3685625 167.087239,29.0306875 167.109325,28.7009583 L167.731244,28.7009583 L167.673049,29.344125 L167.697589,29.344125 C167.968934,28.9644583 168.382261,28.6102917 169.02802,28.6102917 C169.561244,28.6102917 169.91883,28.9400208 170.02225,29.4096458 L170.038727,29.4096458 C170.191227,29.186875 170.368968,29.0140417 170.547761,28.8904375 C170.807537,28.7094583 171.079934,28.6102917 171.451543,28.6102917 C171.96829,28.6102917 172.687319,28.9566667 172.49275,30.34075 L172.16356,32.6892292 L171.468721,32.6892292 L171.785641,30.4314167 C171.892917,29.665 171.682922,29.203875 171.109733,29.203875 C170.705871,29.203875 170.347934,29.5084583 170.176853,29.862625 C170.130928,29.9617917 170.088158,30.0935417 170.069578,30.2252917 L169.723911,32.6892292 L169.029072,32.6892292 L169.364221,30.2996667 C169.453267,29.665 169.243974,29.203875 168.702336,29.203875 C168.258509,29.203875 167.884445,29.5661875 167.720376,29.9288542 C167.664986,30.0358125 167.63133,30.1594167 167.613802,30.2830208 L167.276198,32.6892292 L166.58171,32.6892292 L166.989779,29.7804583 Z" id="Fill-40" fill="#FFFFFF"></path>
                    <path d="M173.208343,32.2606521 C173.251113,31.9557146 173.483194,31.7414438 173.765757,31.7414438 C174.04832,31.7414438 174.212389,31.9557146 174.169619,32.2606521 C174.128251,32.5574438 173.910895,32.7798604 173.611855,32.7798604 C173.329291,32.7798604 173.166975,32.5574438 173.208343,32.2606521" id="Fill-42" fill="#FFFFFF"></path>
                    <path d="M175.916743,31.0905917 C175.904122,31.1812583 175.907628,31.271925 175.911835,31.3540917 C175.978795,31.8570083 176.342341,32.2030292 176.859088,32.2030292 C177.602306,32.2030292 178.133076,31.5850083 178.261387,30.6701958 C178.373921,29.8711958 178.065766,29.1869458 177.306772,29.1869458 C176.821927,29.1869458 176.322358,29.5248208 176.099393,30.0769667 C176.071697,30.1594875 176.033484,30.2583 176.017358,30.3737583 L175.916743,31.0905917 Z M174.957571,32.6893 C175.011559,32.4173 175.084479,32.0131958 175.13426,31.6590292 L175.810519,26.8388208 L176.513421,26.8388208 L176.161795,29.3438417 L176.177921,29.3438417 C176.491335,28.8986542 176.983893,28.6103625 177.613875,28.6103625 C178.582864,28.6103625 179.15395,29.4341542 178.975858,30.6454042 C178.77568,32.0712792 177.795824,32.7799667 176.923243,32.7799667 C176.358117,32.7799667 175.937427,32.55755 175.720071,32.0298417 L175.695881,32.0298417 L175.571427,32.6893 L174.957571,32.6893 Z" id="Fill-44" fill="#FFFFFF"></path>
                    <path d="M179.970263,29.945075 C180.035821,29.4758042 180.084901,29.0717 180.112597,28.7008875 L180.734867,28.7008875 L180.648976,29.4835958 L180.681229,29.4835958 C180.933993,28.94845 181.409372,28.6102208 181.886154,28.6102208 C181.966786,28.6102208 182.022177,28.6183667 182.084579,28.6350125 L181.988522,29.3185542 C181.918407,29.3026167 181.84689,29.2941167 181.74943,29.2941167 C181.248809,29.2941167 180.839338,29.681575 180.665803,30.2252208 C180.635654,30.3240333 180.603752,30.4394917 180.586223,30.5630958 L180.287884,32.6891583 L179.584982,32.6891583 L179.970263,29.945075 Z" id="Fill-46" fill="#FFFFFF"></path>
                    <g id="Group-25" transform="translate(0.000000, 5.000000)">
                        <path d="M61.5297885,5.70199583 C51.3494494,11.399475 45.0608402,14.1984542 39.2048402,14.0341208 C33.3425299,13.8690792 28.0765471,10.7421417 19.9379552,4.58743333 C19.2385586,4.05830833 18.5440701,3.73389167 17.9487943,3.68962083 C17.7265299,3.672975 17.5281046,3.69599583 17.361231,3.76293333 C17.2150414,3.82207917 17.079369,3.92337083 16.9587713,4.07212083 C16.7624494,4.314725 16.6046908,4.6749125 16.4988172,5.16968333 L14.3154379,21.3908708 C13.9648632,23.9950583 13.7692425,25.5271833 14.3312138,26.2652667 C14.9030011,27.0161 16.4059149,27.2069958 19.4993862,27.1914125 L58.2585759,26.9959125 C63.5182483,26.96935 63.6356908,26.0559542 64.1293,22.2224542 C64.1685644,21.9171625 64.2099322,21.5955792 64.2565586,21.2499125 L66.2772713,6.23820417 L66.280777,6.21235 C66.4770989,5.0786625 66.4034782,4.191475 66.1030356,3.5125375 C65.8120586,2.85520417 65.2953115,2.37424583 64.5955644,2.03637083 C63.9753977,1.7371 63.5925701,1.7466625 62.9671448,1.7626 C62.812892,1.76649583 62.6453172,1.77074583 62.4395299,1.77180833 L27.731231,1.94676667 L26.7036966,1.95207917 C26.6749494,1.9549125 26.6458517,1.95668333 26.616754,1.95668333 C26.1855471,1.95668333 25.8823,1.62801667 25.9390931,1.22285 C25.9962368,0.817329167 26.3916851,0.489016667 26.8225414,0.489016667 C26.8491851,0.489016667 26.8751276,0.490079167 26.9007195,0.492558333 L27.9303575,0.487245833 L62.6386563,0.3122875 C62.8090356,0.311579167 62.9801161,0.307329167 63.1378747,0.303079167 C63.9666333,0.282183333 64.4735644,0.269433333 65.3717368,0.702933333 C66.3256506,1.16335 67.038369,1.836975 67.4530989,2.7741 C67.8573115,3.68785 67.9652885,4.83357917 67.7198862,6.25414167 L65.7019782,21.2442458 C65.6571046,21.5785792 65.6153862,21.9029958 65.5754207,22.2111208 C64.9300126,27.226475 64.7757598,28.4217875 58.0594494,28.4554333 L19.3002598,28.6509333 C15.7577023,28.6689958 13.9820414,28.3792875 13.1220816,27.24985 C12.2523057,26.1073083 12.4710644,24.3591417 12.8700184,21.3965375 L15.0600586,5.12505833 L15.0677713,5.07051667 C15.2307885,4.30268333 15.5087943,3.702725 15.8726908,3.25364167 C16.1892598,2.86299583 16.5664782,2.5881625 16.9892713,2.4181625 C17.3910299,2.25630833 17.8169782,2.19751667 18.2555471,2.2301 C19.1091966,2.29349583 20.0361161,2.70680833 20.9185126,3.37405833 C28.8509667,9.37293333 33.9420126,12.419475 39.4491908,12.5746 C44.9402425,12.7290167 51.0069379,10.0164542 60.8752655,4.49782917 C61.0175989,4.403975 61.187277,4.34801667 61.3632655,4.34801667 C61.7853575,4.34801667 62.0822943,4.6696 62.0265529,5.06662083 C61.9879897,5.3421625 61.7892138,5.58157917 61.5297885,5.70199583" id="Fill-48" fill="#FFFFFF"></path>
                        <path d="M18.8341006,20.8826417 L30.4107787,20.8826417 C30.7070144,20.8826417 30.9247213,21.1270167 30.8949224,21.4262875 C30.8654741,21.7255583 30.5990374,21.9699333 30.3031523,21.9699333 L18.7264741,21.9699333 C18.4302385,21.9699333 18.2125316,21.7255583 18.2419799,21.4262875 C18.2717787,21.1270167 18.5382155,20.8826417 18.8341006,20.8826417" id="Fill-50" fill="#FFFFFF"></path>
                        <path d="M18.4817029,23.4430896 L46.4375822,23.4430896 C46.7376741,23.4430896 46.9585362,23.6910063 46.9283868,23.9941729 L46.9283868,23.9945271 C46.8982374,24.2976938 46.6282948,24.5456104 46.3282029,24.5456104 L18.3723236,24.5456104 C18.0722316,24.5456104 17.8513695,24.2976938 17.881519,23.9945271 L17.881519,23.9941729 C17.9116684,23.6910063 18.1816109,23.4430896 18.4817029,23.4430896" id="Fill-52" fill="#FFFFFF"></path>
                        <path d="M10.634719,2.81741458 L12.2158109,2.81741458 C12.5986385,2.81741458 12.8931213,3.13403958 12.8696328,3.52078958 L12.8696328,3.52114375 C12.8464948,3.90789375 12.51415,4.22451875 12.1313224,4.22451875 L10.5502305,4.22451875 C10.1674029,4.22451875 9.87292011,3.90789375 9.89605805,3.52114375 L9.89605805,3.52078958 C9.91954655,3.13403958 10.2515408,2.81741458 10.634719,2.81741458" id="Fill-54" fill="#FFFFFF"></path>
                        <path d="M6.05856207,7.06065 L11.3620563,7.06065 C11.7448839,7.06065 12.0295506,7.377275 11.9948437,7.764025 L11.9948437,7.76437917 C11.9597862,8.15112917 11.6176253,8.46775417 11.2347977,8.46775417 L5.93130345,8.46775417 C5.54847586,8.46775417 5.2638092,8.15112917 5.29851609,7.76437917 L5.29851609,7.764025 C5.33357356,7.377275 5.67573448,7.06065 6.05856207,7.06065" id="Fill-56" fill="#FFFFFF"></path>
                        <g id="Group-60" transform="translate(0.000000, 11.651783)">
                            <polygon id="Clip-59" points="0 0.100972917 10.8477181 0.100972917 10.8477181 1.50807708 0 1.50807708"></polygon>
                            <path d="M0.785708046,0.100972917 L10.2305414,0.100972917 C10.613369,0.100972917 10.8889207,0.417597917 10.8426448,0.804347917 L10.8426448,0.804702083 C10.7960184,1.19145208 10.4450931,1.50807708 10.0619149,1.50807708 L0.617081609,1.50807708 C0.234254023,1.50807708 -0.0412977011,1.19145208 0.00497816092,0.804702083 L0.00497816092,0.804347917 C0.0516045977,0.417597917 0.40288046,0.100972917 0.785708046,0.100972917" id="Fill-58" fill="#FFFFFF"></path>
                        </g>
                    </g>
                </g>
            </g>
        </g>
    </g>
</svg>