<?xml version="1.0" encoding="UTF-8"?>
<svg width="18px" height="18px" viewBox="0 0 18 18" version="1.1" xmlns="http://www.w3.org/2000/svg" xmlns:xlink="http://www.w3.org/1999/xlink">
    <!-- Generator: Sketch 51.2 (57519) - http://www.bohemiancoding.com/sketch -->
    <title>telephone</title>
    <desc>Created with Sketch.</desc>
    <defs></defs>
    <g id="Symbols" stroke="none" stroke-width="1" fill="none" fill-rule="evenodd">
        <g id="Rodape" transform="translate(-581.000000, -397.000000)" fill="#FFFFFF">
            <g id="rodape">
                <g transform="translate(0.000000, 149.000000)">
                    <g id="Group-5" transform="translate(172.000000, 213.000000)">
                        <g id="atendimento" transform="translate(409.000000, 1.000000)">
                            <g id="phone" transform="translate(0.000000, 34.000000)">
                                <g id="telephone">
                                    <path d="M14.2198481,11.1457975 C13.8514937,10.7622532 13.4071899,10.5571899 12.9363038,10.5571899 C12.4692152,10.5571899 12.0211139,10.7584557 11.6375696,11.142 L10.4375696,12.3382025 C10.3388354,12.285038 10.2401013,12.2356709 10.1451646,12.1863038 C10.0084557,12.1179494 9.87934177,12.0533924 9.76921519,11.985038 C8.64516456,11.2711139 7.62364557,10.3407342 6.64389873,9.13693671 C6.16921519,8.53693671 5.85022785,8.03187342 5.61858228,7.51921519 C5.92997468,7.23440506 6.21858228,6.93820253 6.49959494,6.65339241 C6.60592405,6.54706329 6.71225316,6.43693671 6.81858228,6.33060759 C7.61605063,5.53313924 7.61605063,4.50022785 6.81858228,3.70275949 L5.78187342,2.66605063 C5.6641519,2.54832911 5.54263291,2.42681013 5.42870886,2.30529114 C5.20086076,2.0698481 4.96162025,1.82681013 4.71478481,1.59896203 C4.34643038,1.23440506 3.90592405,1.04073418 3.44263291,1.04073418 C2.97934177,1.04073418 2.53124051,1.23440506 2.15149367,1.59896203 C2.1476962,1.60275949 2.1476962,1.60275949 2.14389873,1.60655696 L0.852759494,2.90908861 C0.366683544,3.39516456 0.0894683544,3.98756962 0.0287088608,4.67491139 C-0.0624303797,5.78377215 0.264151899,6.81668354 0.51478481,7.49263291 C1.12997468,9.15212658 2.04896203,10.6901013 3.4198481,12.3382025 C5.08313924,14.3242785 7.08440506,15.8926329 9.37048101,16.9976962 C10.2438987,17.4116203 11.4097215,17.9014937 12.7122532,17.985038 C12.792,17.9888354 12.8755443,17.9926329 12.9514937,17.9926329 C13.8287089,17.9926329 14.5654177,17.677443 15.1426329,17.0508608 C15.1464304,17.0432658 15.1540253,17.0394684 15.1578228,17.0318734 C15.3552911,16.7926329 15.5831392,16.5761772 15.8223797,16.3445316 C15.9856709,16.1888354 16.1527595,16.0255443 16.3160506,15.8546582 C16.692,15.463519 16.8894684,15.0078228 16.8894684,14.5407342 C16.8894684,14.0698481 16.6882025,13.6179494 16.3046582,13.2382025 L14.2198481,11.1457975 L14.2198481,11.1457975 Z M15.5793418,15.1445316 C15.5755443,15.1445316 15.5755443,15.1483291 15.5793418,15.1445316 C15.4312405,15.3040253 15.2793418,15.4483291 15.1160506,15.6078228 C14.8692152,15.8432658 14.6185823,16.0901013 14.3831392,16.3673165 C13.9995949,16.777443 13.5476962,16.9711139 12.9552911,16.9711139 C12.8983291,16.9711139 12.8375696,16.9711139 12.7806076,16.9673165 C11.6527595,16.8951646 10.6046582,16.4546582 9.81858228,16.0787089 C7.66921519,15.0382025 5.78187342,13.5609873 4.21351899,11.6888354 C2.91858228,10.1280759 2.05275949,8.68503797 1.47934177,7.13567089 C1.12617722,6.19010127 0.997063291,5.45339241 1.05402532,4.7584557 C1.092,4.3141519 1.26288608,3.94579747 1.57807595,3.63060759 L2.87301266,2.33567089 C3.05908861,2.16098734 3.25655696,2.06605063 3.45022785,2.06605063 C3.68946835,2.06605063 3.88313924,2.21035443 4.00465823,2.33187342 C4.0084557,2.33567089 4.01225316,2.33946835 4.01605063,2.34326582 C4.2476962,2.55972152 4.46794937,2.78377215 4.69959494,3.02301266 C4.81731646,3.14453165 4.93883544,3.26605063 5.06035443,3.39136709 L6.09706329,4.42807595 C6.49959494,4.83060759 6.49959494,5.20275949 6.09706329,5.60529114 C5.98693671,5.71541772 5.88060759,5.8255443 5.77048101,5.93187342 C5.45149367,6.2584557 5.1476962,6.56225316 4.81731646,6.8584557 C4.80972152,6.86605063 4.80212658,6.8698481 4.79832911,6.87744304 C4.47174684,7.20402532 4.53250633,7.52301266 4.60086076,7.73946835 C4.60465823,7.75086076 4.6084557,7.76225316 4.61225316,7.77364557 C4.88187342,8.42681013 5.26162025,9.042 5.83883544,9.77491139 L5.84263291,9.77870886 C6.89073418,11.0698481 7.99579747,12.0761772 9.21478481,12.8470633 C9.37048101,12.9457975 9.52997468,13.0255443 9.68187342,13.1014937 C9.81858228,13.1698481 9.9476962,13.2344051 10.0578228,13.3027595 C10.0730127,13.3103544 10.0882025,13.3217468 10.1033924,13.3293418 C10.2325063,13.3938987 10.3540253,13.4242785 10.4793418,13.4242785 C10.7945316,13.4242785 10.992,13.2268101 11.056557,13.1622532 L12.3552911,11.863519 C12.4844051,11.7344051 12.6894684,11.5787089 12.9287089,11.5787089 C13.1641519,11.5787089 13.3578228,11.7268101 13.4755443,11.8559241 C13.4793418,11.8597215 13.4793418,11.8597215 13.4831392,11.863519 L15.5755443,13.9559241 C15.9666835,14.3432658 15.9666835,14.742 15.5793418,15.1445316 L15.5793418,15.1445316 Z" id="Shape"></path>
                                    <path d="M9.72364557,4.27997468 C10.7185823,4.44706329 11.6223797,4.91794937 12.3438987,5.63946835 C13.0654177,6.36098734 13.5325063,7.26478481 13.7033924,8.25972152 C13.7451646,8.51035443 13.9616203,8.68503797 14.2084557,8.68503797 C14.2388354,8.68503797 14.2654177,8.68124051 14.2957975,8.67744304 C14.5768101,8.63187342 14.7628861,8.36605063 14.7173165,8.08503797 C14.5122532,6.88124051 13.9426329,5.78377215 13.0730127,4.9141519 C12.2033924,4.04453165 11.1059241,3.47491139 9.90212658,3.2698481 C9.62111392,3.22427848 9.35908861,3.41035443 9.30972152,3.68756962 C9.26035443,3.96478481 9.44263291,4.23440506 9.72364557,4.27997468 L9.72364557,4.27997468 Z" id="Shape"></path>
                                    <path d="M17.9717468,7.93693671 C17.6337722,5.95465823 16.6995949,4.15086076 15.2641519,2.71541772 C13.8287089,1.27997468 12.0249114,0.345797468 10.0426329,0.00782278481 C9.76541772,-0.0415443038 9.50339241,0.148329114 9.45402532,0.425544304 C9.4084557,0.706556962 9.59453165,0.968582278 9.8755443,1.01794937 C11.6451646,1.31794937 13.2590886,2.15718987 14.5426329,3.43693671 C15.8261772,4.72048101 16.6616203,6.33440506 16.9616203,8.10402532 C17.0033924,8.35465823 17.2198481,8.52934177 17.4666835,8.52934177 C17.4970633,8.52934177 17.5236456,8.5255443 17.5540253,8.52174684 C17.8312405,8.47997468 18.0211139,8.2141519 17.9717468,7.93693671 L17.9717468,7.93693671 Z" id="Shape"></path>
                                </g>
                            </g>
                        </g>
                    </g>
                </g>
            </g>
        </g>
    </g>
</svg>