<?xml version="1.0" encoding="UTF-8"?>
<svg width="55px" height="56px" viewBox="0 0 55 56" version="1.1" xmlns="http://www.w3.org/2000/svg" xmlns:xlink="http://www.w3.org/1999/xlink">
    <!-- Generator: Sketch 51.2 (57519) - http://www.bohemiancoding.com/sketch -->
    <title>arte</title>
    <desc>Created with Sketch.</desc>
    <defs></defs>
    <g id="Loja" stroke="none" stroke-width="1" fill="none" fill-rule="evenodd">
        <g id="Detalhes-Produto---Configuracao" transform="translate(-600.000000, -1010.000000)" fill="#4A90E2" fill-rule="nonzero">
            <g id="Inferior" transform="translate(0.000000, 841.000000)">
                <g id="Escolha-a-arte" transform="translate(137.000000, 87.000000)">
                    <g id="Group-3" transform="translate(429.000000, 44.000000)">
                        <g id="Group-45" transform="translate(34.000000, 34.000000)">
                            <g id="Group-4">
                                <g id="arte" transform="translate(0.000000, 4.000000)">
                                    <circle id="Oval" cx="36" cy="26" r="1"></circle>
                                    <path d="M36.0923499,31.0119508 C35.5118974,30.9235652 34.9707868,31.3349777 34.8847663,31.9303541 C34.5941679,33.9416432 32.9354284,35.6097436 30.4477445,36.3926805 C27.7887638,37.2295642 24.0979622,36.9490409 21.846436,34.4359921 C21.4491891,33.9926475 20.776549,33.9634399 20.3441071,34.370384 C19.9115589,34.7775461 19.8829563,35.4669753 20.2800968,35.9102109 C21.5834832,37.3650306 23.3537623,38.3565619 25.399541,38.7775648 C26.1219433,38.9262182 26.8713533,39 27.6256545,39 C28.7908126,39 29.9674544,38.8239918 31.0720047,38.4763346 C34.3629013,37.4406651 36.5746603,35.1129971 36.9883882,32.2496756 C37.0744087,31.6542991 36.6732277,31.1001184 36.0923499,31.0119508 Z" id="Shape"></path>
                                    <path d="M51.5975925,20.8262031 C49.6301813,18.5215625 46.914816,17.0272813 43.6463328,16.4271406 C46.7756165,14.2932344 49.4747454,12.1696094 51.3992927,10.3165781 C54.3336321,7.4913125 55.3175542,5.5059375 54.4959954,4.06885938 C53.5817813,2.46826563 50.9427269,2.4793125 46.1902423,4.10396875 C42.1747793,5.476625 37.1724717,7.86067188 32.1050021,10.8170781 C31.229647,11.3276406 30.3625183,11.8504531 29.5141155,12.3773125 C28.8849032,10.5817031 29.2999041,8.53059375 30.6882192,6.75204688 C31.7281026,5.41985938 31.9602823,3.72782813 31.2942676,2.33603125 C30.5961051,0.877296875 29.0638277,0.0039375 27.1928603,0 L27.1419864,0 C20.5385593,0 14.0796356,2.63276563 8.95512239,7.41332813 C3.82422292,12.1997969 0.683032623,18.5361094 0.110214598,25.2549063 C-0.578963852,33.3464688 1.98074904,41.03925 7.31763353,46.9160781 C12.560239,52.6891094 19.9926936,56 27.7091758,56 C31.8635137,56 35.7634822,55.2319688 39.3005144,53.7170156 C42.5347931,52.3317813 45.4068931,50.3538438 47.8371483,47.8378906 C50.0904273,45.5050313 51.8670075,42.8195469 53.1175303,39.8558125 C54.3075457,37.0356875 54.9576487,34.047125 54.9979148,31.2133281 C55.0564739,27.0922969 53.8806382,23.5005313 51.5975925,20.8262031 Z M29.6406507,14.8736875 C30.7862867,14.1436094 31.9794411,13.4161562 33.1873165,12.7115625 C37.8726908,9.9780625 42.5383651,7.72657812 46.3250039,6.37175 C50.4934133,4.88042187 52.2000689,4.97776562 52.5979675,5.17026562 C52.5635464,5.42478125 52.2507263,6.55714062 49.5153362,9.10251562 C47.2312081,11.228 43.895723,13.7275469 40.1233721,16.1406875 C38.9308671,16.9037969 37.6897614,17.6622031 36.4346924,18.3945781 C34.70444,19.4036719 32.9754864,20.34725 31.2785725,21.2112031 C30.9399907,20.2127187 30.5060475,19.2437656 29.9779336,18.3193281 C29.4660559,17.4234375 28.8723471,16.5823437 28.2087139,15.8041406 C28.678377,15.4930781 29.1562666,15.1820156 29.6406507,14.8736875 Z M29.3174393,22.1814687 C26.2610027,23.6461094 23.4564458,24.7627187 21.2168053,25.4104375 C21.1002284,24.8446406 20.8952175,24.2977656 20.6043706,23.7882969 C20.3286776,23.3054062 19.9828435,22.8737031 19.5831049,22.5013906 C21.2597774,20.8663437 23.6196751,18.9719687 26.3984704,17.0339531 C27.0435942,17.7625 27.6155463,18.5594062 28.1031777,19.4128594 C28.6074783,20.2955156 29.0133868,21.2238906 29.3174393,22.1814687 Z M52.8332861,31.1819375 C52.6789327,42.065625 43.0294602,53.8125 27.7091758,53.8125 C20.5974431,53.8125 13.7464659,50.7598438 8.91279967,45.4372188 C3.99069951,40.01725 1.63069358,32.9162969 2.26715805,25.4425938 C3.36029661,12.6196875 14.5190991,2.1875 27.1419864,2.1875 L27.1905872,2.1875 C28.2261409,2.1896875 29.0115467,2.590875 29.3452576,3.28835938 C29.6521244,3.92951563 29.5187699,4.71789063 28.9883828,5.39732813 C27.0375326,7.89654688 26.5482776,10.9703125 27.6505085,13.5619531 C27.0702218,13.9397344 26.4998934,14.3191563 25.948832,14.6955156 C25.9462342,14.6972656 25.9436364,14.6990156 25.9411468,14.7007656 C22.4991513,17.047625 19.5926302,19.3820156 17.658774,21.3465 C16.1920915,20.8399844 14.5805807,20.9876406 13.2108832,21.7865156 C10.9620421,23.099125 8.00919331,29.2159219 7.44016376,30.4287813 C7.28775866,30.7534063 7.30302082,31.1330469 7.48075461,31.4442188 C7.65859664,31.7553906 7.97628766,31.9585 8.33067281,31.9875938 C8.92892776,32.0365938 10.62779,32.1604063 12.518674,32.1604063 C14.8131933,32.1604063 17.390225,31.9779688 18.6231043,31.2583906 C19.9585973,30.4794219 20.8842851,29.1778594 21.2048986,27.6816094 C23.8593235,26.9775625 27.3275137,25.6002031 31.0837365,23.751 C33.1882907,22.7159844 35.3527028,21.55125 37.517115,20.2890625 C38.6150162,19.6483437 39.7004696,18.9878281 40.7553986,18.321625 C40.7617849,18.3219531 40.7679547,18.3229375 40.774341,18.3231563 C49.7962249,18.5845625 52.9191222,25.137 52.8332861,31.1819375 Z M19.15912,26.7279687 C19.0898449,27.8279531 18.4849872,28.8132031 17.5406817,29.3640156 C16.5170347,29.9615312 13.0004603,30.0420312 10.1130981,29.9085937 C11.4417718,27.3159687 13.2687928,24.2790625 14.2935223,23.681 C15.2609916,23.116625 16.4306574,23.0919063 17.4230224,23.6150469 C17.9684551,23.9020469 18.4200418,24.339875 18.7291817,24.8813906 C19.0507695,25.4446719 19.1993861,26.0832031 19.15912,26.7279687 Z" id="Shape"></path>
                                    <path d="M19.5,7 C17.0187,7 15,9.0187 15,11.5 C15,13.9813 17.0187,16 19.5,16 C21.9813,16 24,13.9813 24,11.5 C24,9.0187 21.9813,7 19.5,7 Z M19.5,13.75 C18.25935,13.75 17.25,12.74065 17.25,11.5 C17.25,10.25935 18.25935,9.25 19.5,9.25 C20.74065,9.25 21.75,10.25935 21.75,11.5 C21.75,12.74065 20.74065,13.75 19.5,13.75 Z" id="Shape"></path>
                                    <path d="M14.5,36 C12.0187,36 10,38.0187 10,40.5 C10,42.9813 12.0187,45 14.5,45 C16.9813,45 19,42.9813 19,40.5 C19,38.0187 16.9813,36 14.5,36 Z M14.5,42.75 C13.25935,42.75 12.25,41.74065 12.25,40.5 C12.25,39.25935 13.25935,38.25 14.5,38.25 C15.74065,38.25 16.75,39.25935 16.75,40.5 C16.75,41.74065 15.74065,42.75 14.5,42.75 Z" id="Shape"></path>
                                    <path d="M24.5,43 C22.0187,43 20,45.0187 20,47.5 C20,49.9813 22.0187,52 24.5,52 C26.9813,52 29,49.9813 29,47.5 C29,45.0187 26.9813,43 24.5,43 Z M24.5,49.75 C23.25935,49.75 22.25,48.74065 22.25,47.5 C22.25,46.25935 23.25935,45.25 24.5,45.25 C25.74065,45.25 26.75,46.25935 26.75,47.5 C26.75,48.74065 25.74065,49.75 24.5,49.75 Z" id="Shape"></path>
                                    <path d="M37.5,41 C35.0187,41 33,43.0187 33,45.5 C33,47.9813 35.0187,50 37.5,50 C39.9813,50 42,47.9813 42,45.5 C42,43.0187 39.9813,41 37.5,41 Z M37.5,47.75 C36.25935,47.75 35.25,46.74065 35.25,45.5 C35.25,44.25935 36.25935,43.25 37.5,43.25 C38.74065,43.25 39.75,44.25935 39.75,45.5 C39.75,46.74065 38.74065,47.75 37.5,47.75 Z" id="Shape"></path>
                                    <path d="M46.5,30 C44.0187,30 42,32.0187 42,34.5 C42,36.9813 44.0187,39 46.5,39 C48.9813,39 51,36.9813 51,34.5 C51,32.0187 48.9813,30 46.5,30 Z M46.5,36.75 C45.25935,36.75 44.25,35.74065 44.25,34.5 C44.25,33.25935 45.25935,32.25 46.5,32.25 C47.74065,32.25 48.75,33.25935 48.75,34.5 C48.75,35.74065 47.74065,36.75 46.5,36.75 Z" id="Shape"></path>
                                </g>
                            </g>
                        </g>
                    </g>
                </g>
            </g>
        </g>
    </g>
</svg>