<?xml version="1.0" encoding="UTF-8"?>
<svg width="30px" height="23px" viewBox="0 0 30 23" version="1.1" xmlns="http://www.w3.org/2000/svg" xmlns:xlink="http://www.w3.org/1999/xlink">
    <!-- Generator: Sketch 51.2 (57519) - http://www.bohemiancoding.com/sketch -->
    <title>email3</title>
    <desc>Created with Sketch.</desc>
    <defs></defs>
    <g id="Loja" stroke="none" stroke-width="1" fill="none" fill-rule="evenodd">
        <g id="Fale-Conosco" transform="translate(-1005.000000, -354.000000)" fill="#4A90E2" fill-rule="nonzero">
            <g id="email3" transform="translate(1005.000000, 354.000000)">
                <path d="M26.3376631,0 L3.66852672,0 C1.64494007,0 0,1.65715063 0,3.69575856 L0,19.3042414 C0,21.3428494 1.64494007,23 3.66852672,23 L26.3314558,23 C28.3550424,23 29.9999825,21.3428494 29.9999825,19.3042414 L29.9999825,3.70201196 C30.0061898,1.66340402 28.3612497,0 26.3376631,0 Z M28.3302131,19.3042414 C28.3302131,20.411093 27.4363589,21.3115824 26.3376631,21.3115824 L3.66852672,21.3115824 C2.5698309,21.3115824 1.67597668,20.411093 1.67597668,19.3042414 L1.67597668,3.70201196 C1.67597668,2.59516041 2.5698309,1.69467102 3.66852672,1.69467102 L26.3314558,1.69467102 C27.4301516,1.69467102 28.3240058,2.59516041 28.3240058,3.70201196 L28.3240058,19.3042414 L28.3302131,19.3042414 Z" id="Shape"></path>
                <path d="M18.4006104,11.2967412 L25.7098638,4.51331881 C26.0499729,4.19334606 26.0808919,3.64939238 25.7717018,3.2910229 C25.4625117,2.93905287 24.9368886,2.9070556 24.5905957,3.22702835 L14.5109993,12.5894311 L12.5445504,10.7719858 C12.5383666,10.7655864 12.5321828,10.7591869 12.5321828,10.7527875 C12.4888962,10.7079913 12.4456096,10.6695946 12.3961392,10.6311978 L4.39430006,3.2206289 C4.04800718,2.90065614 3.52238405,2.93265342 3.21319398,3.2910229 C2.90400391,3.64939238 2.93492291,4.19334606 3.2812158,4.51331881 L10.6770424,11.3543362 L3.3121348,18.4897286 C2.97820952,18.8161008 2.95965812,19.3600545 3.275032,19.7120245 C3.44199464,19.8912093 3.66461149,19.9872011 3.88722834,19.9872011 C4.09129379,19.9872011 4.29535924,19.9104076 4.45613808,19.7568207 L11.9323541,12.5190371 L13.960641,14.3940774 C14.1214198,14.5412649 14.3193015,14.6116589 14.5171831,14.6116589 C14.7150647,14.6116589 14.9191302,14.5348654 15.0737252,14.3876779 L17.1576663,12.4550425 L24.5905957,19.7632202 C24.7513746,19.9232065 24.9616238,20 25.1656893,20 C25.3883061,20 25.6047392,19.9104076 25.7717018,19.7312229 C26.0870757,19.3856523 26.0747081,18.8352992 25.7407828,18.508927 L18.4006104,11.2967412 Z" id="Shape"></path>
            </g>
        </g>
    </g>
</svg>