<?xml version="1.0" encoding="UTF-8"?>
<svg width="24px" height="24px" viewBox="0 0 24 24" version="1.1" xmlns="http://www.w3.org/2000/svg" xmlns:xlink="http://www.w3.org/1999/xlink">
    <!-- Generator: Sketch 51.2 (57519) - http://www.bohemiancoding.com/sketch -->
    <title>instagram</title>
    <desc>Created with Sketch.</desc>
    <defs></defs>
    <g id="Symbols" stroke="none" stroke-width="1" fill="none" fill-rule="evenodd">
        <g id="Rodape" transform="translate(-839.000000, -395.000000)" fill="#FFFFFF">
            <g id="rodape">
                <g transform="translate(0.000000, 149.000000)">
                    <g id="Group-5" transform="translate(172.000000, 213.000000)">
                        <g id="Group-8" transform="translate(667.000000, 1.000000)">
                            <g id="redes-sociais">
                                <path d="M12,34 C15.2567595,34 15.6430169,34.0121976 16.9298638,34.0711527 C20.2354137,34.2215898 21.7794267,35.789998 21.9298638,39.0711527 C21.9888189,40.3569831 22,40.7432405 22,44 C22,47.257776 21.9878024,47.6430169 21.9298638,48.9288473 C21.7784102,52.2069526 20.2384631,53.7784102 16.9298638,53.9288473 C15.6430169,53.9878024 15.2587924,54 12,54 C8.7432405,54 8.35698313,53.9878024 7.07115267,53.9288473 C3.75747103,53.7773938 2.22158975,52.2018703 2.07115267,48.9278309 C2.0121976,47.6420004 2,47.2567595 2,43.9989835 C2,40.742224 2.01321407,40.3569831 2.07115267,39.0701362 C2.22260622,35.789998 3.76255336,34.2205733 7.07115267,34.0701362 C8.35799959,34.0121976 8.7432405,34 12,34 L12,34 Z M12,32 C8.741,32 8.333,32.014 7.053,32.072 C2.695,32.272 0.273,34.69 0.073,39.052 C0.014,40.333 0,40.741 0,44 C0,47.259 0.014,47.668 0.072,48.948 C0.272,53.306 2.69,55.728 7.052,55.928 C8.333,55.986 8.741,56 12,56 C15.259,56 15.668,55.986 16.948,55.928 C21.302,55.728 23.73,53.31 23.927,48.948 C23.986,47.668 24,47.259 24,44 C24,40.741 23.986,40.333 23.928,39.053 C23.732,34.699 21.311,32.273 16.949,32.073 C15.668,32.014 15.259,32 12,32 L12,32 Z M12,38 C8.68646543,38 6,40.6862475 6,43.9995132 C6,47.3127789 8.68646543,50 12,50 C15.3135346,50 18,47.3137525 18,43.9995132 C18,40.6862475 15.3135346,38 12,38 L12,38 Z M12,48 C9.791,48 8,46.21 8,44 C8,41.791 9.791,40 12,40 C14.209,40 16,41.791 16,44 C16,46.21 14.209,48 12,48 L12,48 Z M18.5010417,36 C17.671875,36 17,36.671875 17,37.5 C17,38.328125 17.671875,39 18.5010417,39 C19.3291667,39 20,38.328125 20,37.5 C20,36.671875 19.3291667,36 18.5010417,36 L18.5010417,36 Z" id="instagram"></path>
                            </g>
                        </g>
                    </g>
                </g>
            </g>
        </g>
    </g>
</svg>