<?xml version="1.0" encoding="UTF-8"?>
<svg width="27px" height="27px" viewBox="0 0 27 27" version="1.1" xmlns="http://www.w3.org/2000/svg" xmlns:xlink="http://www.w3.org/1999/xlink">
    <!-- Generator: Sketch 51.2 (57519) - http://www.bohemiancoding.com/sketch -->
    <title>phone</title>
    <desc>Created with Sketch.</desc>
    <defs></defs>
    <g id="Loja" stroke="none" stroke-width="1" fill="none" fill-rule="evenodd">
        <g id="Sua-Conta" transform="translate(-1297.000000, -27.000000)" fill="#4A90E2" fill-rule="nonzero" stroke="#4A90E2">
            <g id="Menu-Topo-2">
                <g id="Group-2">
                    <g transform="translate(985.000000, 25.000000)">
                        <g id="Group-3">
                            <g id="Group-5" transform="translate(313.000000, 3.000000)">
                                <g id="phone">
                                    <path d="M19.3617052,15.3064516 C18.859693,14.7634409 18.2541731,14.4731183 17.6124255,14.4731183 C16.9758533,14.4731183 16.365158,14.7580645 15.8424442,15.3010753 L14.2070229,16.9946237 C14.0724629,16.9193548 13.937903,16.8494624 13.8085184,16.7795699 C13.6222046,16.6827957 13.4462415,16.5913978 13.2961554,16.4946237 C11.7642418,15.483871 10.3720635,14.1666667 9.03681451,12.4623656 C8.38989154,11.6129032 7.9551593,10.8978495 7.63946089,10.172043 C8.06384236,9.7688172 8.45717153,9.34946237 8.84014993,8.94623656 C8.98506068,8.79569892 9.12997142,8.63978495 9.27488217,8.48924731 C10.3617128,7.36021505 10.3617128,5.89784946 9.27488217,4.7688172 L7.86200239,3.30107527 C7.70156549,3.1344086 7.53595321,2.96236559 7.3806917,2.79032258 C7.07016867,2.45698925 6.74411949,2.11290323 6.40771954,1.79032258 C5.90570732,1.27419355 5.3053628,1 4.67396597,1 C4.04256915,1 3.43187386,1.27419355 2.91433548,1.79032258 C2.9091601,1.79569892 2.9091601,1.79569892 2.90398471,1.80107527 L1.14435422,3.64516129 C0.481905097,4.33333333 0.10410208,5.17204301 0.0212959388,6.14516129 C-0.102913272,7.71505376 0.342169734,9.17741935 0.683745065,10.1344086 C1.52215724,12.483871 2.77460012,14.6612903 4.64291367,16.9946237 C6.90973177,19.8064516 9.63715903,22.0268817 12.7527401,23.5913978 C13.9430784,24.1774194 15.5319212,24.8709677 17.3070778,24.9892473 C17.4157609,24.9946237 17.5296193,25 17.633127,25 C18.8286407,25 19.8326651,24.5537634 20.6193235,23.6666667 C20.6244988,23.655914 20.6348496,23.6505376 20.640025,23.6397849 C20.9091449,23.3010753 21.219668,22.9946237 21.5457172,22.6666667 C21.7682587,22.4462366 21.9959755,22.2150538 22.218517,21.9731183 C22.73088,21.4193548 23,20.7741935 23,20.1129032 C23,19.4462366 22.7257047,18.8064516 22.2029909,18.2688172 L19.3617052,15.3064516 Z M21.2144926,20.9677419 C21.2093172,20.9677419 21.2093172,20.9731183 21.2144926,20.9677419 C21.0126526,21.1935484 20.8056373,21.3978495 20.5830958,21.6236559 C20.2466958,21.9569892 19.9051205,22.3064516 19.5842467,22.6989247 C19.0615329,23.2795699 18.4456623,23.5537634 17.6383024,23.5537634 C17.5606716,23.5537634 17.4778655,23.5537634 17.4002347,23.5483871 C15.8631457,23.4462366 14.4347398,22.8225806 13.3634354,22.2903226 C10.4341681,20.8172043 7.86200239,18.7258065 5.72456888,16.0752688 C3.95976301,13.8655914 2.7797755,11.8225806 1.99829255,9.62903226 C1.51698186,8.29032258 1.34101881,7.24731183 1.41864956,6.26344086 C1.4704034,5.6344086 1.70329567,5.11290323 2.13285253,4.66666667 L3.8976584,2.83333333 C4.15125221,2.58602151 4.42037217,2.4516129 4.68431674,2.4516129 C5.01036592,2.4516129 5.27431049,2.65591398 5.43992277,2.82795699 C5.44509816,2.83333333 5.45027354,2.83870968 5.45544893,2.84408602 C5.77114734,3.15053763 6.0713196,3.46774194 6.38701801,3.80645161 C6.54745491,3.97849462 6.71306719,4.15053763 6.87867947,4.32795699 L8.29155925,5.79569892 C8.84014993,6.3655914 8.84014993,6.89247312 8.29155925,7.46236559 C8.14147312,7.61827957 7.99656237,7.77419355 7.84647624,7.92473118 C7.411744,8.38709677 6.9977133,8.8172043 6.54745491,9.23655914 C6.53710414,9.24731183 6.52675337,9.25268817 6.52157799,9.26344086 C6.07649498,9.72580645 6.15930112,10.1774194 6.25245803,10.483871 C6.25763341,10.5 6.2628088,10.516129 6.26798418,10.5322581 C6.63543643,11.4569892 7.15297481,12.327957 7.93963315,13.3655914 L7.94480853,13.3709677 C9.37321446,15.1989247 10.8792511,16.6236559 12.5405493,17.7150538 C12.7527401,17.8548387 12.9701062,17.9677419 13.1771216,18.0752688 C13.3634354,18.172043 13.5393984,18.2634409 13.6894845,18.3602151 C13.7101861,18.3709677 13.7308876,18.3870968 13.7515892,18.3978495 C13.9275522,18.4892473 14.0931645,18.5322581 14.2639521,18.5322581 C14.693509,18.5322581 14.962629,18.2526882 15.0506105,18.1612903 L16.8205917,16.3225806 C16.9965548,16.1397849 17.2760255,15.9193548 17.6020747,15.9193548 C17.9229485,15.9193548 18.1868931,16.1290323 18.34733,16.311828 C18.3525053,16.3172043 18.3525053,16.3172043 18.3576807,16.3225806 L21.2093172,19.2849462 C21.7423817,19.8333333 21.7423817,20.3978495 21.2144926,20.9677419 Z" id="Shape"></path>
                                    <path d="M13.6225649,6.50052385 C15.0904254,6.74705571 16.4238254,7.44182729 17.4883044,8.50639666 C18.5527834,9.57096603 19.2418934,10.9044792 19.4940069,12.3724644 C19.5556346,12.7422622 19.8749783,13 20.2391422,13 C20.2839623,13 20.32318,12.994397 20.3680001,12.988794 C20.7825867,12.921558 21.0571102,12.5293483 20.98988,12.1147265 C20.6873438,10.3385766 19.8469657,8.71931054 18.5639884,7.4362243 C17.2810111,6.15313806 15.6618826,5.31268856 13.8858834,5.01012674 C13.4712969,4.94289077 13.0847229,5.21743761 13.0118901,5.62645637 C12.9390574,6.03547513 13.2079784,6.43328789 13.6225649,6.50052385 Z" id="Shape"></path>
                                    <path d="M24.9890079,11.1665398 C24.5136788,8.37765389 23.1998479,5.83987453 21.1810346,3.82033643 C19.1622212,1.80079834 16.6253526,0.486495765 13.8374675,0.0109960542 C13.4475909,-0.0584589597 13.0790773,0.208675709 13.0096472,0.598692326 C12.9455579,0.994051636 13.2072559,1.36269748 13.6024734,1.43215249 C16.091275,1.85422527 18.3611048,3.03496051 20.1662871,4.83544818 C21.9714694,6.64127854 23.1464402,8.91192323 23.5683615,11.4016183 C23.62711,11.7542361 23.9315342,12 24.2786847,12 C24.3214109,12 24.3587963,11.9946573 24.4015225,11.9893146 C24.7913992,11.930545 25.058438,11.5565564 24.9890079,11.1665398 Z" id="Shape"></path>
                                </g>
                            </g>
                        </g>
                    </g>
                </g>
            </g>
        </g>
    </g>
</svg>