<?xml version="1.0" encoding="UTF-8"?>
<svg width="39px" height="40px" viewBox="0 0 39 40" version="1.1" xmlns="http://www.w3.org/2000/svg" xmlns:xlink="http://www.w3.org/1999/xlink">
    <!-- Generator: Sketch 51.2 (57519) - http://www.bohemiancoding.com/sketch -->
    <title>phone3</title>
    <desc>Created with Sketch.</desc>
    <defs></defs>
    <g id="Loja" stroke="none" stroke-width="1" fill="none" fill-rule="evenodd">
        <g id="Fale-Conosco" transform="translate(-384.000000, -346.000000)" fill="#4A90E2">
            <g id="Group-4" transform="translate(0.000000, 76.000000)">
                <g id="Group-9" transform="translate(374.000000, 260.000000)">
                    <g id="phone3" transform="translate(10.000000, 10.000000)">
                        <path d="M30.1649755,24.6936604 C29.382855,23.8829152 28.4394725,23.4494474 27.4396484,23.4494474 C26.4478873,23.4494474 25.4964418,23.874888 24.6820689,24.6856332 L22.1341299,27.214195 C21.9244894,27.1018145 21.7148488,26.9974612 21.5132714,26.8931078 C21.2229999,26.7486186 20.9488545,26.6121565 20.7150247,26.4676673 C18.3283477,24.9585573 16.1593743,22.9918981 14.0790951,20.447282 C13.0712078,19.1789875 12.3939076,18.1113725 11.9020586,17.0277031 C12.5632327,16.4256646 13.1760281,15.7995445 13.7726974,15.197506 C13.9984641,14.9727449 14.2242308,14.7399567 14.4499976,14.5151956 C16.1432482,12.8294878 16.1432482,10.6460947 14.4499976,8.9603868 L12.2487718,6.76896655 C11.9988158,6.52012395 11.7407967,6.26325418 11.4989037,6.00638441 C11.0151179,5.50869922 10.5071427,4.99495968 9.98304132,4.51332885 C9.20092082,3.74271953 8.26560146,3.33333333 7.28190351,3.33333333 C6.29820556,3.33333333 5.34676,3.74271953 4.54045021,4.51332885 C4.53238711,4.52135603 4.53238711,4.52135603 4.52432401,4.52938321 L1.78287071,7.28270609 C0.750794173,8.31018519 0.162188022,9.56242533 0.0331784554,11.015345 C-0.160335895,13.3592817 0.533090528,15.5426747 1.06525499,16.9715128 C2.37147686,20.4793907 4.32274656,23.7303987 7.23352492,27.214195 C10.7651618,31.4124104 15.0144144,34.7276359 19.8683994,37.0635454 C21.7229119,37.9385081 24.198283,38.9740143 26.9639256,39.1506123 C27.1332507,39.1586395 27.3106388,39.1666667 27.4719008,39.1666667 C29.3344764,39.1666667 30.8987174,38.5004107 32.1243083,37.1759259 C32.1323714,37.1598716 32.1484976,37.1518444 32.1565607,37.13579 C32.5758418,36.6300777 33.0596276,36.1725284 33.5676028,35.6828704 C33.914316,35.353756 34.2690923,35.0085872 34.6158055,34.6473641 C35.4140522,33.8205645 35.8333333,32.8573029 35.8333333,31.8699597 C35.8333333,30.8745893 35.4059891,29.9193548 34.5916162,29.1166368 L30.1649755,24.6936604 L30.1649755,24.6936604 Z M33.0515645,33.1462814 C33.0435014,33.1462814 33.0435014,33.1543085 33.0515645,33.1462814 C32.7371037,33.4834229 32.4145798,33.7884558 32.0678666,34.1255974 C31.5437652,34.6232826 31.0116008,35.1450493 30.5116887,35.7310335 C29.6973158,36.5979689 28.7378071,37.0073551 27.4799639,37.0073551 C27.3590174,37.0073551 27.2300078,37.0073551 27.1090614,36.999328 C24.7143213,36.8468115 22.4889062,35.9156586 20.819845,35.1209677 C16.2561315,32.9215203 12.2487718,29.7989471 8.91871239,25.8415472 C6.16919599,22.542376 4.33080966,19.4920475 3.11328187,16.2169579 C2.36341376,14.21819 2.08926843,12.660917 2.2102149,11.191943 C2.29084588,10.2527628 2.65368529,9.47412634 3.32292242,8.80787037 L6.07243882,6.07060185 C6.46753062,5.70135155 6.88681171,5.50067204 7.2980297,5.50067204 C7.80600487,5.50067204 8.21722287,5.8057049 8.475242,6.06257467 C8.4833051,6.07060185 8.4913682,6.07862903 8.4994313,6.08665621 C8.99128027,6.5442055 9.45893995,7.01780914 9.95078893,7.52352151 C10.200745,7.78039128 10.4587641,8.03726105 10.7167832,8.302158 L12.918009,10.4935783 C13.7726974,11.3444594 13.7726974,12.1311231 12.918009,12.9820042 C12.6841791,13.2147924 12.4584124,13.4475806 12.2245825,13.6723417 C11.5472823,14.3626792 10.9022345,15.0048536 10.200745,15.6309737 C10.1846188,15.6470281 10.1684926,15.6550553 10.1604295,15.6711096 C9.46700305,16.3614471 9.59601262,17.0357303 9.74114838,17.4932796 C9.74921148,17.5173611 9.75727458,17.5414427 9.76533768,17.5655242 C10.3378176,18.9461992 11.1441274,20.2466024 12.3697183,21.7958483 L12.3777814,21.8038754 C14.6031964,24.5331168 16.9495579,26.6603196 19.5378124,28.2898372 C19.8683994,28.4985439 20.2070495,28.6671147 20.5295734,28.8276583 C20.819845,28.9721476 21.0939903,29.1086096 21.3278201,29.2530989 C21.3600725,29.2691532 21.3923249,29.2932348 21.4245773,29.3092891 C21.6987226,29.4457512 21.9567418,29.5099686 22.222824,29.5099686 C22.8920611,29.5099686 23.3113422,29.0925553 23.4484149,28.9560932 L26.2059944,26.2107975 C26.4801397,25.9378734 26.915547,25.608759 27.4235222,25.608759 C27.9234342,25.608759 28.3346522,25.921819 28.5846083,26.1947431 C28.5926714,26.2027703 28.5926714,26.2027703 28.6007345,26.2107975 L33.0435014,30.6337739 C33.8740005,31.4525463 33.8740005,32.2954002 33.0515645,33.1462814 L33.0515645,33.1462814 Z" id="Shape"></path>
                        <path d="M20.9079072,9.68826395 C23.0485371,10.0477896 24.9930787,11.0609981 26.5454439,12.6134951 C28.0978091,14.1659921 29.1027613,16.1106989 29.4704267,18.2515105 C29.5603005,18.790799 30.02601,19.1666667 30.5570823,19.1666667 C30.6224451,19.1666667 30.6796375,19.1584956 30.7450002,19.1503246 C31.3496056,19.0522722 31.7499524,18.4802996 31.6519083,17.8756428 C31.2107098,15.2854242 29.9851583,12.9239945 28.1141498,11.0528271 C26.2431412,9.18165967 23.8819121,7.95600414 21.2919133,7.51476816 C20.6873079,7.41671571 20.1235543,7.81709652 20.0173398,8.41358221 C19.9111253,9.01006789 20.3033018,9.59021151 20.9079072,9.68826395 L20.9079072,9.68826395 Z" id="Shape"></path>
                        <path d="M38.3165398,17.8933247 C37.5903426,13.6325268 35.583101,9.75536387 32.4988028,6.66995844 C29.4145047,3.58455301 25.5387332,1.57659075 21.2794643,0.850132861 C20.6838194,0.744021034 20.1208126,1.15214344 20.0147388,1.74800216 C19.9168246,2.35202333 20.316641,2.91523226 20.9204454,3.02134409 C24.7227813,3.6661775 28.1905768,5.47007855 30.9484942,8.2208236 C33.7064116,10.9797311 35.5015058,14.4487716 36.1461078,18.2524725 C36.2358625,18.791194 36.7009551,19.1666667 37.2313238,19.1666667 C37.2966,19.1666667 37.3537166,19.1585042 37.4189927,19.1503418 C38.0146376,19.0605548 38.4226136,18.4891835 38.3165398,17.8933247 L38.3165398,17.8933247 Z" id="Shape"></path>
                    </g>
                </g>
            </g>
        </g>
    </g>
</svg>