<?xml version="1.0" encoding="UTF-8"?>
<svg width="24px" height="16px" viewBox="0 0 24 16" version="1.1" xmlns="http://www.w3.org/2000/svg" xmlns:xlink="http://www.w3.org/1999/xlink">
    <!-- Generator: Sketch 51.2 (57519) - http://www.bohemiancoding.com/sketch -->
    <title>truck</title>
    <desc>Created with Sketch.</desc>
    <defs></defs>
    <g id="Symbols" stroke="none" stroke-width="1" fill="none" fill-rule="evenodd">
        <g id="Rodape" transform="translate(-107.000000, -88.000000)" stroke="#FFFFFF">
            <g id="Infos-adicionais">
                <g transform="translate(0.000000, 44.000000)">
                    <g id="Group-26" transform="translate(107.000000, 39.000000)">
                        <g id="frete-gratis">
                            <path d="M17.6205879,8.21745027 L17.6212467,8.21701281 L17.5459016,8.13770492 C17.2963352,7.80494967 16.9172276,7.60491803 16.504918,7.60491803 L12.0409836,7.60491803 L12.0409836,6.00819672 C12.0409836,5.71857812 11.8408043,5.5 11.6163934,5.5 L0.924590164,5.5 C0.700179285,5.5 0.5,5.71857812 0.5,6.00819672 L0.5,17.9098361 C0.5,18.1917835 0.725879144,18.4131148 1.00327869,18.4131148 L2.82185994,18.4131148 L2.9251804,18.7763018 C3.19369923,19.7201862 4.04349779,20.3655738 5.05081967,20.3655738 C6.04406896,20.3655738 6.90539473,19.704448 7.17742465,18.7729517 L7.28250976,18.4131148 L16.9120239,18.4131148 L17.0153443,18.7763018 C17.2838632,19.7201862 18.1336617,20.3655738 19.1409836,20.3655738 C20.1342329,20.3655738 20.9955587,19.704448 21.2675886,18.7729517 L21.3726737,18.4131148 L22.9967213,18.4131148 C23.2786688,18.4131148 23.5,18.1872356 23.5,17.9098361 L23.5,16.6360656 C23.5,16.3799237 23.2937962,16.1519323 23.0497023,16.1248107 L22.604918,16.0753902 L22.604918,13.0508197 C22.604918,12.3482735 22.0418904,11.7852459 21.2616698,11.7791757 L19.8247852,11.553214 L17.6421211,8.2663787 C17.6196495,8.24104797 17.6008117,8.2139519 17.5752038,8.1746502 C17.5855442,8.1869482 17.5961425,8.19694167 17.6205879,8.21745027 Z M5.05081967,20.0081967 C4.02079401,20.0081967 3.19344262,19.1683413 3.19344262,18.1508197 C3.19344262,17.1418904 4.04189041,16.2934426 5.05081967,16.2934426 C6.08084534,16.2934426 6.90819672,17.1332981 6.90819672,18.1508197 C6.90819672,19.1683413 6.08084534,20.0081967 5.05081967,20.0081967 Z M14.9,11.6918033 L14.9,11.6967213 L14.4,11.6967213 C14.0562174,11.6967213 13.7721311,11.420111 13.7721311,11.0688525 L13.7721311,8.57540984 C13.7721311,8.23162721 14.0487414,7.94754098 14.4,7.94754098 L16.5540984,7.94754098 C16.7700473,7.94754098 16.9781261,8.05516793 17.0722657,8.22259197 L18.7542113,10.7234563 C19.0212381,11.1361341 18.7301733,11.6918033 18.2311475,11.6918033 L14.9,11.6918033 Z M19.1409836,20.0081967 C18.1109579,20.0081967 17.2836066,19.1683413 17.2836066,18.1508197 C17.2836066,17.1418904 18.1320543,16.2934426 19.1409836,16.2934426 C20.1710093,16.2934426 20.9983607,17.1332981 20.9983607,18.1508197 C20.9983607,19.1597489 20.1499129,20.0081967 19.1409836,20.0081967 Z" id="truck"></path>
                        </g>
                    </g>
                </g>
            </g>
        </g>
    </g>
</svg>