<?xml version="1.0" encoding="UTF-8"?>
<svg width="47px" height="57px" viewBox="0 0 47 57" version="1.1" xmlns="http://www.w3.org/2000/svg" xmlns:xlink="http://www.w3.org/1999/xlink">
    <!-- Generator: Sketch 51.2 (57519) - http://www.bohemiancoding.com/sketch -->
    <title>upload</title>
    <desc>Created with Sketch.</desc>
    <defs></defs>
    <g id="Loja" stroke="none" stroke-width="1" fill="none" fill-rule="evenodd">
        <g id="Detalhes-Produto---Configuracao" transform="translate(-179.000000, -1023.000000)" fill="#4A90E2" fill-rule="nonzero">
            <g id="Inferior" transform="translate(0.000000, 841.000000)">
                <g id="Escolha-a-arte" transform="translate(137.000000, 87.000000)">
                    <g id="Group-2" transform="translate(1.000000, 44.000000)">
                        <g id="upload" transform="translate(41.000000, 51.000000)">
                            <g id="Group" transform="translate(14.000000, 21.000000)">
                                <path d="M8.74938756,21.6378462 C8.27794258,21.6378462 7.89532057,21.2587692 7.89532057,20.7916923 L7.89702871,1.70415385 C7.89702871,1.23707692 8.27965072,0.858 8.75109569,0.858 C9.22254067,0.858 9.60516268,1.23707692 9.60516268,1.70415385 L9.60345455,20.7916923 C9.60345455,21.2587692 9.22083254,21.6378462 8.74938756,21.6378462 Z" id="Shape"></path>
                                <path d="M16.1165694,9.84753846 C15.8979282,9.84753846 15.6792871,9.76461538 15.51189,9.60046154 L8.74938756,2.90061538 L1.98688517,9.60046154 C1.65379904,9.93046154 1.11232057,9.93046154 0.77923445,9.60046154 C0.446148325,9.27046154 0.446148325,8.734 0.77923445,8.404 L8.14641627,1.10507692 C8.47950239,0.775076923 9.02098086,0.775076923 9.35406699,1.10507692 L16.7212488,8.404 C17.0543349,8.734 17.0543349,9.27046154 16.7212488,9.60046154 C16.5538517,9.76461538 16.3352105,9.84753846 16.1165694,9.84753846 Z" id="Shape"></path>
                            </g>
                            <g id="Group">
                                <path d="M42.0493118,56.7006835 L4.64496223,56.7006835 C2.28740865,56.7006835 0.367833104,54.7915294 0.367833104,52.4429804 L0.367833104,4.25770308 C0.367833104,1.90915406 2.28740865,0 4.64496223,0 L31.8081538,0 C32.2803489,0 32.6635797,0.381490196 32.6635797,0.851540616 C32.6635797,1.32159104 32.2803489,1.70308123 31.8081538,1.70308123 L4.64496223,1.70308123 C3.23008791,1.70308123 2.07868475,2.8492549 2.07868475,4.25770308 L2.07868475,52.4429804 C2.07868475,53.8514286 3.23008791,54.9976022 4.64496223,54.9976022 L42.0493118,54.9976022 C43.4641861,54.9976022 44.6155893,53.8514286 44.6155893,52.4429804 L44.6155893,14.823619 C44.6155893,14.3535686 44.9988201,13.9720784 45.4710151,13.9720784 C45.9432102,13.9720784 46.3264409,14.3535686 46.3264409,14.823619 L46.3264409,52.4446835 C46.3264409,54.7915294 44.4085762,56.7006835 42.0493118,56.7006835 Z" id="Shape"></path>
                                <path d="M45.4710151,15.6751597 L31.8081538,15.6751597 C31.3359588,15.6751597 30.952728,15.2936695 30.952728,14.823619 L30.952728,1.22110924 C30.952728,0.751058824 31.3359588,0.369568627 31.8081538,0.369568627 C32.2803489,0.369568627 32.6635797,0.751058824 32.6635797,1.22110924 L32.6635797,13.9703754 L45.4710151,13.9703754 C45.9432102,13.9703754 46.3264409,14.3518655 46.3264409,14.821916 C46.3264409,15.2919664 45.944921,15.6751597 45.4710151,15.6751597 Z" id="Shape"></path>
                                <path d="M45.4710151,15.6751597 C45.2486044,15.6751597 45.0261937,15.5883025 44.8585302,15.4179944 L31.195669,1.44761905 C30.8671854,1.11211204 30.8740288,0.570532213 31.2127775,0.243540616 C31.5498152,-0.0851540616 32.0921552,-0.0766386555 32.4223496,0.260571429 L46.0852109,14.2309468 C46.4136944,14.5664538 46.406851,15.1080336 46.0681023,15.4350252 C45.9021497,15.5951148 45.6865824,15.6751597 45.4710151,15.6751597 Z" id="Shape"></path>
                            </g>
                        </g>
                    </g>
                </g>
            </g>
        </g>
    </g>
</svg>