<?xml version="1.0" encoding="UTF-8"?>
<svg width="18px" height="18px" viewBox="0 0 18 18" version="1.1" xmlns="http://www.w3.org/2000/svg" xmlns:xlink="http://www.w3.org/1999/xlink">
    <!-- Generator: Sketch 51.2 (57519) - http://www.bohemiancoding.com/sketch -->
    <title>whats</title>
    <desc>Created with Sketch.</desc>
    <defs></defs>
    <g id="Symbols" stroke="none" stroke-width="1" fill="none" fill-rule="evenodd">
        <g id="Rodape" transform="translate(-581.000000, -448.000000)" fill="#FFFFFF">
            <g id="rodape">
                <g transform="translate(0.000000, 149.000000)">
                    <g id="Group-5" transform="translate(172.000000, 213.000000)">
                        <g id="atendimento" transform="translate(409.000000, 1.000000)">
                            <g id="whats" transform="translate(0.000000, 85.000000)">
                                <path d="M9,0 C4.03719231,0 0,4.03719231 0,9 C0,10.6930385 0.470423077,12.3365769 1.36280769,13.7637692 C1.00730769,15.0092308 0.365192308,17.3651538 0.358269231,17.3897308 C0.325038462,17.5115769 0.360692308,17.6417308 0.451730769,17.7293077 C0.542769231,17.8168846 0.674307692,17.8480385 0.794076923,17.8113462 L4.36153846,16.7140385 C5.75896154,17.5558846 7.35923077,18 9,18 C13.9628077,18 18,13.9628077 18,9 C18,4.03719231 13.9628077,0 9,0 L9,0 Z M9,17.3076923 C7.43573077,17.3076923 5.91196154,16.8705 4.59311538,16.0438846 C4.53738462,16.0089231 4.47334615,15.9912692 4.40930769,15.9912692 C4.37503846,15.9912692 4.34076923,15.9964615 4.30753846,16.0065 L1.1925,16.9653462 C1.42130769,16.1300769 1.83253846,14.6360769 2.07103846,13.8049615 C2.09873077,13.7087308 2.08315385,13.6048846 2.02880769,13.5207692 C1.15442308,12.1752692 0.692307692,10.6120385 0.692307692,9 C0.692307692,4.41934615 4.41934615,0.692307692 9,0.692307692 C13.5806538,0.692307692 17.3076923,4.41934615 17.3076923,9 C17.3076923,13.5806538 13.5806538,17.3076923 9,17.3076923 L9,17.3076923 Z" id="Shape"></path>
                                <path d="M14.8794231,11.1205385 C14.2404231,10.7657308 13.6962692,10.4098846 13.2992308,10.1502692 C12.996,9.95226923 12.7768846,9.80930769 12.6162692,9.72865385 C12.1673077,9.50469231 11.8270385,9.66288462 11.6975769,9.79373077 C11.6813077,9.81 11.6667692,9.82765385 11.6543077,9.84634615 C11.1880385,10.5459231 10.5791538,11.2150385 10.4008846,11.2510385 C10.1949231,11.2188462 9.23088462,10.6708846 8.27273077,9.873 C7.2945,9.05780769 6.67903846,8.27723077 6.58869231,7.74553846 C7.21626923,7.09961538 7.44230769,6.69323077 7.44230769,6.23076923 C7.44230769,5.75411538 6.33046154,3.76407692 6.12934615,3.56296154 C5.92753846,3.3615 5.47303846,3.33 4.77830769,3.46846154 C4.7115,3.48196154 4.64988462,3.51484615 4.60142308,3.56296154 C4.51730769,3.64707692 2.54907692,5.65373077 3.48438462,8.08580769 C4.51107692,10.755 7.14634615,13.8575769 10.5061154,14.3615769 C10.8879231,14.4186923 11.2458462,14.4470769 11.5809231,14.4470769 C13.5574615,14.4470769 14.724,13.4525769 15.0525,11.4798462 C15.0770769,11.3355 15.0075,11.1915 14.8794231,11.1205385 L14.8794231,11.1205385 Z M10.6089231,13.6768846 C7.056,13.1441538 4.81811538,9.62411538 4.13065385,7.83726923 C3.44873077,6.06496154 4.70630769,4.48476923 5.022,4.12753846 C5.27884615,4.08392308 5.54919231,4.06557692 5.66203846,4.08323077 C5.89776923,4.41103846 6.714,5.95315385 6.75,6.23076923 C6.75,6.4125 6.69080769,6.66553846 5.98603846,7.37065385 C5.92096154,7.43538462 5.88461538,7.52330769 5.88461538,7.61538462 C5.88461538,9.42784615 9.70753846,11.9423077 10.3846154,11.9423077 C10.9734231,11.9423077 11.7411923,10.9526538 12.1783846,10.3077692 C12.2036538,10.3088077 12.2462308,10.3174615 12.3068077,10.3479231 C12.4314231,10.4105769 12.6474231,10.5514615 12.9205385,10.7300769 C13.2812308,10.9658077 13.7603077,11.2787308 14.3259231,11.6030769 C14.0690769,12.8388462 13.3511538,14.0888077 10.6089231,13.6768846 L10.6089231,13.6768846 Z" id="Shape"></path>
                            </g>
                        </g>
                    </g>
                </g>
            </g>
        </g>
    </g>
</svg>