<?xml version="1.0" encoding="UTF-8"?>
<svg width="26px" height="19px" viewBox="0 0 26 19" version="1.1" xmlns="http://www.w3.org/2000/svg" xmlns:xlink="http://www.w3.org/1999/xlink">
    <!-- Generator: Sketch 51.2 (57519) - http://www.bohemiancoding.com/sketch -->
    <title>brazil</title>
    <desc>Created with Sketch.</desc>
    <defs></defs>
    <g id="Symbols" stroke="none" stroke-width="1" fill="none" fill-rule="evenodd">
        <g id="Rodape" transform="translate(-600.000000, -13.000000)" fill="#FFFFFF" fill-rule="nonzero">
            <g id="Entregamos-em-todo-o-Brasil">
                <g>
                    <g id="Group-24" transform="translate(600.000000, 13.000000)">
                        <g id="brazil">
                            <path d="M25.4921875,0 L0.5078125,0 C0.227398437,0 0,0.2239 0,0.5 L0,18.5 C0,18.7761 0.227398437,19 0.5078125,19 L25.4921875,19 C25.7726016,19 26,18.7761 26,18.5 L26,0.5 C26,0.2239 25.7726016,0 25.4921875,0 Z M24.984375,18 L1.015625,18 L1.015625,1 L24.984375,1 L24.984375,18 Z" id="Shape"></path>
                            <path d="M23.601043,9.09125 L13.2924492,1.94125 C13.1171016,1.81955 12.8829492,1.81955 12.7075508,1.94125 L2.39895703,9.09125 C2.26392969,9.1849 2.18359375,9.33735 2.18359375,9.5 C2.18359375,9.66265 2.26392969,9.8151 2.39895703,9.90875 L12.7075508,17.05875 C12.79525,17.1196 12.897625,17.15 13,17.15 C13.102375,17.15 13.20475,17.1196 13.2924492,17.05875 L23.601043,9.90875 C23.7360703,9.8151 23.8164062,9.66265 23.8164062,9.5 C23.8164062,9.33735 23.7360703,9.1849 23.601043,9.09125 Z M13,16.0384 L3.57317187,9.5 L13,2.9616 L22.4268281,9.5 L13,16.0384 Z" id="Shape"></path>
                            <path d="M13,5.5 C10.7533867,5.5 8.9375,7.29675 8.9375,9.5 C8.9375,11.7056 10.7599375,13.5 13,13.5 C15.2502188,13.5 17.0625,11.7114 17.0625,9.5 C17.0625,7.2944 15.2400625,5.5 13,5.5 Z M13,6.5 C14.600625,6.5 15.9159609,7.72185 16.0368711,9.26785 C14.2712578,8.34105 12.2792109,7.949 10.2869609,8.13625 C10.7991914,7.1564 11.8438125,6.5 13,6.5 Z M13,12.5 C11.3199531,12.5 9.953125,11.1542 9.953125,9.5 C9.953125,9.39285 9.95906641,9.28585 9.97059375,9.17965 C12.0382031,8.8928 14.1263281,9.3039 15.9222578,10.3513 C15.5453594,11.61405 14.3660664,12.5 13,12.5 Z" id="Shape"></path>
                        </g>
                    </g>
                </g>
            </g>
        </g>
    </g>
</svg>