<?xml version="1.0" encoding="UTF-8"?>
<svg width="68px" height="29px" viewBox="0 0 68 29" version="1.1" xmlns="http://www.w3.org/2000/svg" xmlns:xlink="http://www.w3.org/1999/xlink">
    <!-- Generator: Sketch 51.2 (57519) - http://www.bohemiancoding.com/sketch -->
    <title>envelope</title>
    <desc>Created with Sketch.</desc>
    <defs></defs>
    <g id="Symbols" stroke="none" stroke-width="1" fill="none" fill-rule="evenodd">
        <g id="Rodape" transform="translate(-198.000000, -219.000000)">
            <g id="rodape">
                <g transform="translate(0.000000, 149.000000)">
                    <g id="cadastro-news" transform="translate(198.000000, 57.000000)">
                        <g id="envelope" transform="translate(0.000000, 13.000000)">
                            <path d="M61.5297885,5.70199583 C51.3494494,11.399475 45.0608402,14.1984542 39.2048402,14.0341208 C33.3425299,13.8690792 28.0765471,10.7421417 19.9379552,4.58743333 C19.2385586,4.05830833 18.5440701,3.73389167 17.9487943,3.68962083 C17.7265299,3.672975 17.5281046,3.69599583 17.361231,3.76293333 C17.2150414,3.82207917 17.079369,3.92337083 16.9587713,4.07212083 C16.7624494,4.314725 16.6046908,4.6749125 16.4988172,5.16968333 L14.3154379,21.3908708 C13.9648632,23.9950583 13.7692425,25.5271833 14.3312138,26.2652667 C14.9030011,27.0161 16.4059149,27.2069958 19.4993862,27.1914125 L58.2585759,26.9959125 C63.5182483,26.96935 63.6356908,26.0559542 64.1293,22.2224542 C64.1685644,21.9171625 64.2099322,21.5955792 64.2565586,21.2499125 L66.2772713,6.23820417 L66.280777,6.21235 C66.4770989,5.0786625 66.4034782,4.191475 66.1030356,3.5125375 C65.8120586,2.85520417 65.2953115,2.37424583 64.5955644,2.03637083 C63.9753977,1.7371 63.5925701,1.7466625 62.9671448,1.7626 C62.812892,1.76649583 62.6453172,1.77074583 62.4395299,1.77180833 L27.731231,1.94676667 L26.7036966,1.95207917 C26.6749494,1.9549125 26.6458517,1.95668333 26.616754,1.95668333 C26.1855471,1.95668333 25.8823,1.62801667 25.9390931,1.22285 C25.9962368,0.817329167 26.3916851,0.489016667 26.8225414,0.489016667 C26.8491851,0.489016667 26.8751276,0.490079167 26.9007195,0.492558333 L27.9303575,0.487245833 L62.6386563,0.3122875 C62.8090356,0.311579167 62.9801161,0.307329167 63.1378747,0.303079167 C63.9666333,0.282183333 64.4735644,0.269433333 65.3717368,0.702933333 C66.3256506,1.16335 67.038369,1.836975 67.4530989,2.7741 C67.8573115,3.68785 67.9652885,4.83357917 67.7198862,6.25414167 L65.7019782,21.2442458 C65.6571046,21.5785792 65.6153862,21.9029958 65.5754207,22.2111208 C64.9300126,27.226475 64.7757598,28.4217875 58.0594494,28.4554333 L19.3002598,28.6509333 C15.7577023,28.6689958 13.9820414,28.3792875 13.1220816,27.24985 C12.2523057,26.1073083 12.4710644,24.3591417 12.8700184,21.3965375 L15.0600586,5.12505833 L15.0677713,5.07051667 C15.2307885,4.30268333 15.5087943,3.702725 15.8726908,3.25364167 C16.1892598,2.86299583 16.5664782,2.5881625 16.9892713,2.4181625 C17.3910299,2.25630833 17.8169782,2.19751667 18.2555471,2.2301 C19.1091966,2.29349583 20.0361161,2.70680833 20.9185126,3.37405833 C28.8509667,9.37293333 33.9420126,12.419475 39.4491908,12.5746 C44.9402425,12.7290167 51.0069379,10.0164542 60.8752655,4.49782917 C61.0175989,4.403975 61.187277,4.34801667 61.3632655,4.34801667 C61.7853575,4.34801667 62.0822943,4.6696 62.0265529,5.06662083 C61.9879897,5.3421625 61.7892138,5.58157917 61.5297885,5.70199583" id="Fill-48" fill="#FFFFFF"></path>
                            <path d="M18.8341006,20.8826417 L30.4107787,20.8826417 C30.7070144,20.8826417 30.9247213,21.1270167 30.8949224,21.4262875 C30.8654741,21.7255583 30.5990374,21.9699333 30.3031523,21.9699333 L18.7264741,21.9699333 C18.4302385,21.9699333 18.2125316,21.7255583 18.2419799,21.4262875 C18.2717787,21.1270167 18.5382155,20.8826417 18.8341006,20.8826417" id="Fill-50" fill="#FFFFFF"></path>
                            <path d="M18.4817029,23.4430896 L46.4375822,23.4430896 C46.7376741,23.4430896 46.9585362,23.6910063 46.9283868,23.9941729 L46.9283868,23.9945271 C46.8982374,24.2976938 46.6282948,24.5456104 46.3282029,24.5456104 L18.3723236,24.5456104 C18.0722316,24.5456104 17.8513695,24.2976938 17.881519,23.9945271 L17.881519,23.9941729 C17.9116684,23.6910063 18.1816109,23.4430896 18.4817029,23.4430896" id="Fill-52" fill="#FFFFFF"></path>
                            <path d="M10.634719,2.81741458 L12.2158109,2.81741458 C12.5986385,2.81741458 12.8931213,3.13403958 12.8696328,3.52078958 L12.8696328,3.52114375 C12.8464948,3.90789375 12.51415,4.22451875 12.1313224,4.22451875 L10.5502305,4.22451875 C10.1674029,4.22451875 9.87292011,3.90789375 9.89605805,3.52114375 L9.89605805,3.52078958 C9.91954655,3.13403958 10.2515408,2.81741458 10.634719,2.81741458" id="Fill-54" fill="#FFFFFF"></path>
                            <path d="M6.05856207,7.06065 L11.3620563,7.06065 C11.7448839,7.06065 12.0295506,7.377275 11.9948437,7.764025 L11.9948437,7.76437917 C11.9597862,8.15112917 11.6176253,8.46775417 11.2347977,8.46775417 L5.93130345,8.46775417 C5.54847586,8.46775417 5.2638092,8.15112917 5.29851609,7.76437917 L5.29851609,7.764025 C5.33357356,7.377275 5.67573448,7.06065 6.05856207,7.06065" id="Fill-56" fill="#FFFFFF"></path>
                            <g id="Group-60" transform="translate(0.000000, 11.651783)">
                                <polygon id="Clip-59" points="0 0.100972917 10.8477181 0.100972917 10.8477181 1.50807708 0 1.50807708"></polygon>
                                <path d="M0.785708046,0.100972917 L10.2305414,0.100972917 C10.613369,0.100972917 10.8889207,0.417597917 10.8426448,0.804347917 L10.8426448,0.804702083 C10.7960184,1.19145208 10.4450931,1.50807708 10.0619149,1.50807708 L0.617081609,1.50807708 C0.234254023,1.50807708 -0.0412977011,1.19145208 0.00497816092,0.804702083 L0.00497816092,0.804347917 C0.0516045977,0.417597917 0.40288046,0.100972917 0.785708046,0.100972917" id="Fill-58" fill="#FFFFFF"></path>
                            </g>
                        </g>
                    </g>
                </g>
            </g>
        </g>
    </g>
</svg>