<?xml version="1.0" encoding="UTF-8"?>
<svg width="60px" height="65px" viewBox="0 0 60 65" version="1.1" xmlns="http://www.w3.org/2000/svg" xmlns:xlink="http://www.w3.org/1999/xlink">
    <!-- Generator: Sketch 51.2 (57519) - http://www.bohemiancoding.com/sketch -->
    <title>olho</title>
    <desc>Created with Sketch.</desc>
    <defs></defs>
    <g id="Loja" stroke="none" stroke-width="1" fill="none" fill-rule="evenodd">
        <g id="Home" transform="translate(-1123.000000, -1384.000000)" fill="#FFFFFF" fill-rule="nonzero">
            <g id="Por-que-comprar-conosco" transform="translate(81.000000, 1289.000000)">
                <g id="Group-14" transform="translate(0.000000, 76.000000)">
                    <g id="olho" transform="translate(1042.000000, 19.000000)">
                        <path d="M58.933,29.0870508 C58.41425,28.4201937 57.454875,28.3016357 56.789625,28.8213607 C56.124625,29.3414616 56.006,30.3034603 56.524625,30.9703174 C57.034375,31.6257699 57.034375,32.5410221 56.524625,33.1964746 C52.789125,37.9983219 47.955875,41.606569 42.514625,43.7881104 C45.3745,40.7180111 47.125625,36.601193 47.125625,32.0833333 C47.125625,27.5832699 45.389125,23.4812402 42.553625,20.4176579 C45.69775,21.6852002 48.653375,23.4272249 51.299375,25.6023747 C51.62775,25.8722005 51.955125,26.1520524 52.273125,26.4342855 C52.904625,26.9948665 53.869625,26.9359635 54.42875,26.3029443 C54.987875,25.6699251 54.929125,24.7021615 54.29775,24.1417057 C53.951125,23.8337809 53.59375,23.5286133 53.23575,23.2344743 C46.70825,17.8686621 38.456125,14.9136117 30,14.9136117 C18.619625,14.9136117 8.074,20.0796549 1.067125,29.0871761 C-0.30525,30.8513835 -0.30525,33.3156592 1.067125,35.0799919 C8.074,44.087513 18.619625,49.2535563 30,49.2535563 C41.380125,49.2535563 51.925875,44.087513 58.933,35.0799919 C60.305375,33.3154085 60.305375,30.8512581 58.933,29.0870508 Z M3.4755,33.1964746 C2.96575,32.5410221 2.96575,31.6257699 3.4755,30.9703174 C7.210125,26.1693473 12.042375,22.5616016 17.482625,20.3798096 C14.62575,23.4484049 12.874375,27.5635938 12.874375,32.0833333 C12.874375,36.6014437 14.625625,40.7182617 17.482625,43.7869824 C12.042375,41.6051904 7.21,37.9974447 3.4755,33.1964746 Z M30.018625,46.1908512 C30.0125,46.1908512 30.006375,46.1909766 30.000125,46.1909766 C29.993875,46.1909766 29.987875,46.1908512 29.981625,46.1908512 C22.23075,46.1808252 15.928625,39.8566488 15.928625,32.0833333 C15.928625,24.3100179 22.230625,17.9858415 29.981625,17.9758154 C29.98775,17.9758154 29.993875,17.9756901 30.000125,17.9756901 C30.004875,17.9756901 30.009625,17.9758154 30.014375,17.9758154 C37.767125,17.9834603 44.0715,24.308514 44.0715,32.0833333 C44.0715,39.8566488 37.7695,46.1808252 30.018625,46.1908512 Z" id="Shape"></path>
                        <path d="M30.000125,25.5864583 C26.42675,25.5864583 23.520125,28.5006527 23.520125,32.0833333 C23.520125,35.666014 26.42675,38.5802083 30.000125,38.5802083 C33.5735,38.5802083 36.480125,35.666014 36.480125,32.0833333 C36.480125,28.5006527 33.5735,25.5864583 30.000125,25.5864583 Z M30.000125,35.5180046 C28.111625,35.5180046 26.574375,33.9767513 26.574375,32.0833333 C26.574375,30.1899154 28.111625,28.6486621 30.000125,28.6486621 C31.888625,28.6486621 33.425875,30.1899154 33.425875,32.0833333 C33.425875,33.9767513 31.888625,35.5180046 30.000125,35.5180046 Z" id="Shape"></path>
                        <path d="M30.000125,0 C29.156625,0 28.473,0.685405273 28.473,1.53110189 L28.473,7.27263997 C28.473,8.11833659 29.156625,8.80374186 30.000125,8.80374186 C30.843625,8.80374186 31.52725,8.11833659 31.52725,7.27263997 L31.52725,1.53110189 C31.52725,0.685405273 30.8435,0 30.000125,0 Z" id="Shape"></path>
                        <path d="M30.000125,55.3629248 C29.156625,55.3629248 28.473,56.0483301 28.473,56.8940267 L28.473,62.6355648 C28.473,63.4812614 29.156625,64.1666667 30.000125,64.1666667 C30.843625,64.1666667 31.52725,63.4812614 31.52725,62.6355648 L31.52725,56.8940267 C31.52725,56.0483301 30.843375,55.3629248 30.000125,55.3629248 Z" id="Shape"></path>
                        <path d="M52.627625,9.39690755 C52.03125,8.79910482 51.0645,8.79910482 50.46775,9.39690755 L47.618375,12.2537028 C47.022,12.8516309 47.022,13.8210238 47.618375,14.4192025 C47.916625,14.7181038 48.30725,14.8676172 48.69825,14.8676172 C49.089,14.8676172 49.47975,14.7181038 49.778125,14.4192025 L52.62775,11.5624072 C53.224,10.9644792 53.224,9.99508626 52.627625,9.39690755 Z" id="Shape"></path>
                        <path d="M12.381875,49.7474642 C11.785625,49.1497868 10.81875,49.1496615 10.22225,49.7474642 L7.372625,52.6042594 C6.77625,53.2021875 6.77625,54.1715804 7.372625,54.7697591 C7.670875,55.0686605 8.06175,55.2181738 8.4525,55.2181738 C8.84325,55.2181738 9.234,55.0686605 9.532375,54.7697591 L12.382,51.9129639 C12.97825,51.3149105 12.97825,50.3456429 12.381875,49.7474642 Z" id="Shape"></path>
                        <path d="M12.381875,12.2538281 L9.53225,9.39690755 C8.935875,8.79910482 7.969,8.79910482 7.372625,9.39690755 C6.77625,9.99508626 6.776375,10.9643538 7.372625,11.5624072 L10.22225,14.4192025 C10.520375,14.7181038 10.911375,14.8676172 11.302125,14.8676172 C11.692875,14.8676172 12.083875,14.7181038 12.382,14.4192025 C12.97825,13.8210238 12.978125,12.8517562 12.381875,12.2538281 Z" id="Shape"></path>
                        <path d="M52.627375,52.6042594 L49.778,49.7474642 C49.181375,49.1496615 48.21475,49.1496615 47.618125,49.7474642 C47.02175,50.3456429 47.02175,51.3149105 47.618125,51.9129639 L50.46775,54.7697591 C50.766,55.0686605 51.156875,55.2181738 51.547625,55.2181738 C51.938375,55.2181738 52.329125,55.0686605 52.6275,54.7697591 C53.223875,54.1715804 53.223875,53.2021875 52.627375,52.6042594 Z" id="Shape"></path>
                    </g>
                </g>
            </g>
        </g>
    </g>
</svg>