<?xml version="1.0" encoding="UTF-8"?>
<svg width="21px" height="24px" viewBox="0 0 21 24" version="1.1" xmlns="http://www.w3.org/2000/svg" xmlns:xlink="http://www.w3.org/1999/xlink">
    <!-- Generator: Sketch 51.2 (57519) - http://www.bohemiancoding.com/sketch -->
    <title>profile</title>
    <desc>Created with Sketch.</desc>
    <defs></defs>
    <g id="Loja" stroke="none" stroke-width="1" fill="none" fill-rule="evenodd">
        <g id="Fale-Conosco" transform="translate(-1191.000000, -28.000000)" fill="#4A90E2" fill-rule="nonzero">
            <g id="Menu-Topo" transform="translate(0.000000, -1.000000)">
                <g id="Group-2" transform="translate(1008.000000, 25.000000)">
                    <g id="Group-3">
                        <g id="Group-6" transform="translate(183.000000, 4.000000)">
                            <g id="profile">
                                <path d="M10.412965,13 C10.4393392,13 10.4657135,13 10.4973626,13 C10.5079123,13 10.518462,13 10.5290117,13 C10.5448362,13 10.5659356,13 10.5817602,13 C12.1272912,12.9750192 13.3774306,12.4604151 14.3005293,11.4761722 C16.3313464,9.30784012 15.9937561,5.59069946 15.9568321,5.23597233 C15.8249609,2.57302075 14.4956987,1.29900077 13.39853,0.704458109 C12.5809282,0.259800154 11.6261804,0.0199846272 10.5606608,0 L10.5237368,0 C10.518462,0 10.5079123,0 10.5026374,0 L10.4709883,0 C9.88548,0 8.73556275,0.0899308224 7.63311914,0.684473482 C6.52540069,1.27901614 5.17503914,2.55303613 5.04316789,5.23597233 C5.00624395,5.59069946 4.66865356,9.30784012 6.69947073,11.4761722 C7.61729459,12.4604151 8.86743399,12.9750192 10.412965,13 Z M6.45155279,5.36087625 C6.45155279,5.34588778 6.45682764,5.33089931 6.45682764,5.32090699 C6.63089768,1.73866257 9.31579622,1.35395849 10.4657135,1.35395849 L10.4868129,1.35395849 C10.4973626,1.35395849 10.5131871,1.35395849 10.5290117,1.35395849 C11.9532211,1.38393543 14.3743772,1.93351268 14.5378975,5.32090699 C14.5378975,5.33589547 14.5378975,5.35088394 14.5431724,5.36087625 C14.5484472,5.39584935 14.9176867,8.79323597 13.2402845,10.5818601 C12.5756534,11.2913144 11.6894786,11.6410453 10.5237368,11.6510377 C10.5131871,11.6510377 10.5079123,11.6510377 10.4973626,11.6510377 C10.4868129,11.6510377 10.481538,11.6510377 10.4709883,11.6510377 C9.31052137,11.6410453 8.41907176,11.2913144 7.75971554,10.5818601 C6.08758815,8.80322829 6.44627794,5.39085319 6.45155279,5.36087625 Z" id="Shape"></path>
                                <path d="M20.9985682,19.116158 C20.9985682,19.1112397 20.9985682,19.1063215 20.9985682,19.1014032 C20.9985682,19.062057 20.9934557,19.0227109 20.9934557,18.9784465 C20.9627805,18.004629 20.8963175,15.7274701 18.6774778,14.9995661 C18.6621402,14.9946479 18.6416901,14.9897296 18.6263525,14.9848113 C16.3205997,14.4192103 14.4033995,13.1404601 14.3829493,13.1257053 C14.0710848,12.9142197 13.6416319,12.9879938 13.421793,13.2880082 C13.201954,13.5880227 13.278642,14.0011573 13.5905066,14.212643 C13.6774197,14.2716622 15.7122081,15.6340229 18.25825,16.2635615 C19.4494704,16.6717779 19.5823963,17.8964271 19.618184,19.0177926 C19.618184,19.062057 19.618184,19.1014032 19.6232966,19.1407494 C19.6284091,19.5833937 19.5977339,20.2670332 19.5159334,20.6604948 C18.6877029,21.1129756 15.4412438,22.6769854 10.5025361,22.6769854 C5.58427848,22.6769854 2.31736931,21.1080573 1.48402629,20.6555765 C1.40222575,20.2621149 1.36643801,19.5784754 1.37666308,19.1358311 C1.37666308,19.0964849 1.38177561,19.0571388 1.38177561,19.0128743 C1.41756335,17.8915088 1.55048923,16.6668596 2.74170963,16.2586432 C5.28775151,15.6291047 7.32254001,14.2618257 7.40945308,14.2077247 C7.72131765,13.9962391 7.79800566,13.5831044 7.5781667,13.2830899 C7.35832775,12.9830755 6.9288749,12.9093014 6.61701033,13.120787 C6.59656019,13.1355418 4.68958505,14.414292 2.37360719,14.9798931 C2.35315705,14.9848113 2.33781945,14.9897296 2.32248185,14.9946479 C0.103642134,15.7274701 0.0371791928,18.004629 0.00650398939,18.9735282 C0.00650398939,19.0177926 0.00650398939,19.0571388 0.00139145548,19.0964849 C0.00139145548,19.1014032 0.00139145548,19.1063215 0.00139145548,19.1112397 C-0.00372107842,19.3669898 -0.00883361233,20.6801678 0.262130685,21.339216 C0.313256024,21.467091 0.405281634,21.575293 0.527982448,21.649067 C0.681358465,21.7474324 4.35727034,24 10.5076486,24 C16.6580269,24 20.3339388,21.7425141 20.4873148,21.649067 C20.6049031,21.575293 20.7020412,21.467091 20.7531666,21.339216 C21.0087933,20.6850861 21.0036807,19.371908 20.9985682,19.116158 Z" id="Shape"></path>
                            </g>
                        </g>
                    </g>
                </g>
            </g>
        </g>
    </g>
</svg>