<?xml version="1.0" encoding="UTF-8"?>
<svg width="17px" height="19px" viewBox="0 0 17 19" version="1.1" xmlns="http://www.w3.org/2000/svg" xmlns:xlink="http://www.w3.org/1999/xlink">
    <!-- Generator: Sketch 51.2 (57519) - http://www.bohemiancoding.com/sketch -->
    <title>shield</title>
    <desc>Created with Sketch.</desc>
    <defs></defs>
    <g id="Symbols" stroke="none" stroke-width="1" fill="none" fill-rule="evenodd">
        <g id="Rodape" transform="translate(-1071.000000, -86.000000)" fill="#FFFFFF">
            <g id="Infos-adicionais">
                <g transform="translate(0.000000, 44.000000)">
                    <g id="Group-26" transform="translate(107.000000, 39.000000)">
                        <g id="loja-segura" transform="translate(964.000000, 0.000000)">
                            <g id="shield" transform="translate(0.000000, 3.000000)">
                                <path d="M10.657697,7.80103734 L7.37688889,11.0018672 L6.21325253,9.8626556 C5.99911111,9.65373444 5.65567677,9.65373444 5.44153535,9.8626556 C5.22739394,10.0715768 5.22739394,10.406639 5.44153535,10.6155602 L6.99305051,12.1292531 C7.09810101,12.2317427 7.23951515,12.2869295 7.37688889,12.2869295 C7.51426263,12.2869295 7.65567677,12.2356846 7.76072727,12.1292531 L11.4253737,8.55394191 C11.6395152,8.34502075 11.6395152,8.00995851 11.4253737,7.80103734 C11.2152727,7.59211618 10.8718384,7.59211618 10.657697,7.80103734 L10.657697,7.80103734 Z" id="Shape"></path>
                                <path d="M16.8637576,6.31493776 L16.8637576,3.78817427 C16.8637576,3.40580913 16.7102222,2.92883817 15.9869899,2.83817427 C15.8334545,2.81846473 15.6799192,2.8026971 15.5304242,2.78298755 C15.0617374,2.73174274 14.6213333,2.68049793 14.1930505,2.58589212 C12.5203232,2.22717842 10.9162828,1.49792531 9.13850505,0.291701245 C8.90012121,0.130082988 8.71022222,0 8.43951515,0 C8.16880808,0 7.97082828,0.134024896 7.74456566,0.287759336 C5.36880808,1.88817427 3.21931313,2.70020747 0.984969697,2.83423237 C0.302141414,2.87759336 0.00719191919,3.18506224 0.00719191919,3.86307054 L0.00719191919,5.50684647 C0.00315151515,7.02448133 0.00315151515,8.5973029 0.0193131313,10.1425311 C0.0233535354,10.6865145 0.0960808081,11.2502075 0.229414141,11.8217842 C0.540525253,13.1502075 1.25567677,14.3524896 2.41527273,15.4917012 C3.8900202,16.9423237 5.74052525,18.0657676 8.07587879,18.9251037 C8.18092929,18.9645228 8.30214141,18.9842324 8.42739394,18.9842324 C8.58092929,18.9842324 8.74254545,18.9526971 8.87587879,18.8935685 C9.01325253,18.8344398 9.15062626,18.7792531 9.288,18.7201245 C9.86173737,18.479668 10.4516364,18.2313278 11.0213333,17.9396266 C12.908202,16.9659751 14.3304242,15.8228216 15.3728485,14.4431535 C16.2900202,13.2290456 16.7627475,12.0109959 16.8233535,10.7219917 C16.8354747,10.4657676 16.8435556,10.1937759 16.847596,9.89024896 L16.847596,9.87448133 L16.867798,7.30829876 L16.867798,7.27676349 L16.867798,7.22551867 L16.8637576,6.31493776 L16.8637576,6.31493776 Z M15.7728485,7.17427386 L15.7728485,7.17821577 L15.7728485,7.24917012 L15.7728485,7.27282158 L15.7526465,9.77593361 L15.7526465,9.85477178 L15.7526465,9.86659751 C15.7486061,10.1661826 15.7405253,10.4302905 15.7324444,10.6786307 C15.6839596,11.746888 15.2799192,12.7717842 14.4960808,13.8124481 C13.5506263,15.0620332 12.2496162,16.106639 10.5122424,17.0014523 C9.98294949,17.273444 9.40921212,17.5139004 8.85971717,17.746473 C8.72234343,17.8056017 8.5849697,17.8607884 8.44759596,17.919917 L8.43547475,17.919917 C6.26173737,17.1157676 4.54456566,16.0790456 3.1910303,14.7427386 C2.18092929,13.7454357 1.55870707,12.7126556 1.29608081,11.5813278 C1.17890909,11.0846473 1.11830303,10.5958506 1.11426263,10.1307054 C1.09810101,8.58941909 1.10214141,7.02448133 1.10214141,5.50684647 L1.10214141,3.8906639 C3.52638384,3.73298755 5.83345455,2.86576763 8.36274747,1.16286307 C8.38294949,1.14709544 8.41123232,1.1313278 8.43951515,1.11161826 C8.46375758,1.12738589 8.4920404,1.14709544 8.51628283,1.16286307 C10.3869899,2.43609959 12.1688081,3.24024896 13.9587071,3.62655602 C14.4435556,3.72904564 14.9324444,3.78423237 15.4051717,3.83941909 C15.5304242,3.85518672 15.6516364,3.86701245 15.7728485,3.88278008 L15.7728485,6.27551867 L15.7728485,7.17427386 L15.7728485,7.17427386 Z" id="Shape"></path>
                            </g>
                        </g>
                    </g>
                </g>
            </g>
        </g>
    </g>
</svg>